G75*
%MOIN*%
%OFA0B0*%
%FSLAX24Y24*%
%IPPOS*%
%LPD*%
%AMOC8*
5,1,8,0,0,1.08239X$1,22.5*
%
%ADD10C,0.0000*%
%ADD11R,0.0316X0.0710*%
%ADD12R,0.0595X0.0595*%
%ADD13C,0.0595*%
%ADD14R,0.0474X0.0513*%
%ADD15C,0.0940*%
%ADD16R,0.0395X0.0395*%
%ADD17R,0.0513X0.0474*%
%ADD18R,0.0674X0.0674*%
%ADD19C,0.0050*%
%ADD20C,0.0360*%
D10*
X000300Y000350D02*
X000300Y039720D01*
X063292Y039720D01*
X063292Y000350D01*
X000300Y000350D01*
D11*
X028050Y015805D03*
X028546Y015805D03*
X029046Y015805D03*
X029546Y015805D03*
X029550Y017895D03*
X029050Y017895D03*
X028550Y017895D03*
X028050Y017895D03*
D12*
X022800Y017850D03*
X035300Y015850D03*
D13*
X035300Y016850D03*
X035300Y017850D03*
X022800Y016850D03*
X022800Y015850D03*
D14*
X026800Y017915D03*
X026800Y018585D03*
X035651Y019355D03*
X035651Y020025D03*
D15*
X030769Y021850D03*
X028800Y021850D03*
X026831Y021850D03*
D16*
X036267Y021527D03*
X036267Y020937D03*
D17*
X035924Y014053D03*
X035254Y014053D03*
D18*
X033786Y014053D03*
X033786Y012053D03*
X030786Y012053D03*
X030786Y014053D03*
D19*
X037804Y012137D02*
X037806Y012176D01*
X037812Y012215D01*
X037822Y012253D01*
X037835Y012290D01*
X037852Y012325D01*
X037872Y012359D01*
X037896Y012390D01*
X037923Y012419D01*
X037952Y012445D01*
X037984Y012468D01*
X038018Y012488D01*
X038054Y012504D01*
X038091Y012516D01*
X038130Y012525D01*
X038169Y012530D01*
X038208Y012531D01*
X038247Y012528D01*
X038286Y012521D01*
X038323Y012510D01*
X038360Y012496D01*
X038395Y012478D01*
X038428Y012457D01*
X038459Y012432D01*
X038487Y012405D01*
X038512Y012375D01*
X038534Y012342D01*
X038553Y012308D01*
X038568Y012272D01*
X038580Y012234D01*
X038588Y012196D01*
X038592Y012157D01*
X038592Y012117D01*
X038588Y012078D01*
X038580Y012040D01*
X038568Y012002D01*
X038553Y011966D01*
X038534Y011932D01*
X038512Y011899D01*
X038487Y011869D01*
X038459Y011842D01*
X038428Y011817D01*
X038395Y011796D01*
X038360Y011778D01*
X038323Y011764D01*
X038286Y011753D01*
X038247Y011746D01*
X038208Y011743D01*
X038169Y011744D01*
X038130Y011749D01*
X038091Y011758D01*
X038054Y011770D01*
X038018Y011786D01*
X037984Y011806D01*
X037952Y011829D01*
X037923Y011855D01*
X037896Y011884D01*
X037872Y011915D01*
X037852Y011949D01*
X037835Y011984D01*
X037822Y012021D01*
X037812Y012059D01*
X037806Y012098D01*
X037804Y012137D01*
X038198Y011350D02*
X038252Y011352D01*
X038305Y011357D01*
X038358Y011366D01*
X038410Y011379D01*
X038462Y011395D01*
X038512Y011415D01*
X038560Y011438D01*
X038607Y011465D01*
X038652Y011494D01*
X038695Y011527D01*
X038735Y011562D01*
X038773Y011600D01*
X038808Y011640D01*
X038841Y011683D01*
X038870Y011728D01*
X038897Y011775D01*
X038920Y011823D01*
X038940Y011873D01*
X038956Y011925D01*
X038969Y011977D01*
X038978Y012030D01*
X038983Y012083D01*
X038985Y012137D01*
X038985Y022374D01*
X037804Y022374D02*
X037806Y022413D01*
X037812Y022452D01*
X037822Y022490D01*
X037835Y022527D01*
X037852Y022562D01*
X037872Y022596D01*
X037896Y022627D01*
X037923Y022656D01*
X037952Y022682D01*
X037984Y022705D01*
X038018Y022725D01*
X038054Y022741D01*
X038091Y022753D01*
X038130Y022762D01*
X038169Y022767D01*
X038208Y022768D01*
X038247Y022765D01*
X038286Y022758D01*
X038323Y022747D01*
X038360Y022733D01*
X038395Y022715D01*
X038428Y022694D01*
X038459Y022669D01*
X038487Y022642D01*
X038512Y022612D01*
X038534Y022579D01*
X038553Y022545D01*
X038568Y022509D01*
X038580Y022471D01*
X038588Y022433D01*
X038592Y022394D01*
X038592Y022354D01*
X038588Y022315D01*
X038580Y022277D01*
X038568Y022239D01*
X038553Y022203D01*
X038534Y022169D01*
X038512Y022136D01*
X038487Y022106D01*
X038459Y022079D01*
X038428Y022054D01*
X038395Y022033D01*
X038360Y022015D01*
X038323Y022001D01*
X038286Y021990D01*
X038247Y021983D01*
X038208Y021980D01*
X038169Y021981D01*
X038130Y021986D01*
X038091Y021995D01*
X038054Y022007D01*
X038018Y022023D01*
X037984Y022043D01*
X037952Y022066D01*
X037923Y022092D01*
X037896Y022121D01*
X037872Y022152D01*
X037852Y022186D01*
X037835Y022221D01*
X037822Y022258D01*
X037812Y022296D01*
X037806Y022335D01*
X037804Y022374D01*
X038198Y023161D02*
X038252Y023159D01*
X038305Y023154D01*
X038358Y023145D01*
X038410Y023132D01*
X038462Y023116D01*
X038512Y023096D01*
X038560Y023073D01*
X038607Y023046D01*
X038652Y023017D01*
X038695Y022984D01*
X038735Y022949D01*
X038773Y022911D01*
X038808Y022871D01*
X038841Y022828D01*
X038870Y022783D01*
X038897Y022736D01*
X038920Y022688D01*
X038940Y022638D01*
X038956Y022586D01*
X038969Y022534D01*
X038978Y022481D01*
X038983Y022428D01*
X038985Y022374D01*
X038198Y023161D02*
X020087Y023161D01*
X019693Y022374D02*
X019695Y022413D01*
X019701Y022452D01*
X019711Y022490D01*
X019724Y022527D01*
X019741Y022562D01*
X019761Y022596D01*
X019785Y022627D01*
X019812Y022656D01*
X019841Y022682D01*
X019873Y022705D01*
X019907Y022725D01*
X019943Y022741D01*
X019980Y022753D01*
X020019Y022762D01*
X020058Y022767D01*
X020097Y022768D01*
X020136Y022765D01*
X020175Y022758D01*
X020212Y022747D01*
X020249Y022733D01*
X020284Y022715D01*
X020317Y022694D01*
X020348Y022669D01*
X020376Y022642D01*
X020401Y022612D01*
X020423Y022579D01*
X020442Y022545D01*
X020457Y022509D01*
X020469Y022471D01*
X020477Y022433D01*
X020481Y022394D01*
X020481Y022354D01*
X020477Y022315D01*
X020469Y022277D01*
X020457Y022239D01*
X020442Y022203D01*
X020423Y022169D01*
X020401Y022136D01*
X020376Y022106D01*
X020348Y022079D01*
X020317Y022054D01*
X020284Y022033D01*
X020249Y022015D01*
X020212Y022001D01*
X020175Y021990D01*
X020136Y021983D01*
X020097Y021980D01*
X020058Y021981D01*
X020019Y021986D01*
X019980Y021995D01*
X019943Y022007D01*
X019907Y022023D01*
X019873Y022043D01*
X019841Y022066D01*
X019812Y022092D01*
X019785Y022121D01*
X019761Y022152D01*
X019741Y022186D01*
X019724Y022221D01*
X019711Y022258D01*
X019701Y022296D01*
X019695Y022335D01*
X019693Y022374D01*
X019300Y022374D02*
X019300Y012137D01*
X019693Y012137D02*
X019695Y012176D01*
X019701Y012215D01*
X019711Y012253D01*
X019724Y012290D01*
X019741Y012325D01*
X019761Y012359D01*
X019785Y012390D01*
X019812Y012419D01*
X019841Y012445D01*
X019873Y012468D01*
X019907Y012488D01*
X019943Y012504D01*
X019980Y012516D01*
X020019Y012525D01*
X020058Y012530D01*
X020097Y012531D01*
X020136Y012528D01*
X020175Y012521D01*
X020212Y012510D01*
X020249Y012496D01*
X020284Y012478D01*
X020317Y012457D01*
X020348Y012432D01*
X020376Y012405D01*
X020401Y012375D01*
X020423Y012342D01*
X020442Y012308D01*
X020457Y012272D01*
X020469Y012234D01*
X020477Y012196D01*
X020481Y012157D01*
X020481Y012117D01*
X020477Y012078D01*
X020469Y012040D01*
X020457Y012002D01*
X020442Y011966D01*
X020423Y011932D01*
X020401Y011899D01*
X020376Y011869D01*
X020348Y011842D01*
X020317Y011817D01*
X020284Y011796D01*
X020249Y011778D01*
X020212Y011764D01*
X020175Y011753D01*
X020136Y011746D01*
X020097Y011743D01*
X020058Y011744D01*
X020019Y011749D01*
X019980Y011758D01*
X019943Y011770D01*
X019907Y011786D01*
X019873Y011806D01*
X019841Y011829D01*
X019812Y011855D01*
X019785Y011884D01*
X019761Y011915D01*
X019741Y011949D01*
X019724Y011984D01*
X019711Y012021D01*
X019701Y012059D01*
X019695Y012098D01*
X019693Y012137D01*
X019300Y012137D02*
X019302Y012083D01*
X019307Y012030D01*
X019316Y011977D01*
X019329Y011925D01*
X019345Y011873D01*
X019365Y011823D01*
X019388Y011775D01*
X019415Y011728D01*
X019444Y011683D01*
X019477Y011640D01*
X019512Y011600D01*
X019550Y011562D01*
X019590Y011527D01*
X019633Y011494D01*
X019678Y011465D01*
X019725Y011438D01*
X019773Y011415D01*
X019823Y011395D01*
X019875Y011379D01*
X019927Y011366D01*
X019980Y011357D01*
X020033Y011352D01*
X020087Y011350D01*
X038198Y011350D01*
X020087Y011350D02*
X019300Y011350D01*
X019300Y022374D02*
X019302Y022428D01*
X019307Y022481D01*
X019316Y022534D01*
X019329Y022586D01*
X019345Y022638D01*
X019365Y022688D01*
X019388Y022736D01*
X019415Y022783D01*
X019444Y022828D01*
X019477Y022871D01*
X019512Y022911D01*
X019550Y022949D01*
X019590Y022984D01*
X019633Y023017D01*
X019678Y023046D01*
X019725Y023073D01*
X019773Y023096D01*
X019823Y023116D01*
X019875Y023132D01*
X019927Y023145D01*
X019980Y023154D01*
X020033Y023159D01*
X020087Y023161D01*
D20*
X024600Y020250D03*
X024600Y019250D03*
X026700Y019250D03*
X026700Y020250D03*
X032000Y018150D03*
X033700Y020450D03*
X037600Y020050D03*
X037600Y018650D03*
X033100Y015250D03*
X031400Y015350D03*
X029100Y014750D03*
X026300Y015750D03*
X025100Y015750D03*
M02*
