%
M48
M72
T01C0.0120
T02C0.0315
T03C0.0394
T04C0.0472
%
T01
X24600Y20250
X24600Y19250
X26700Y19250
X26700Y20250
X32000Y18150
X33700Y20450
X37600Y20050
X37600Y18650
X33100Y15250
X31400Y15350
X29100Y14750
X26300Y15750
X25100Y15750
T02
X35300Y15850
X35300Y16850
X35300Y17850
X22800Y17850
X22800Y16850
X22800Y15850
T03
X33786Y12053
X33786Y14053
X30786Y14053
X30786Y12053
T04
X30769Y21850
X28800Y21850
X26831Y21850
M30
