G75*
%MOIN*%
%OFA0B0*%
%FSLAX24Y24*%
%IPPOS*%
%LPD*%
%AMOC8*
5,1,8,0,0,1.08239X$1,22.5*
%
%ADD10C,0.0000*%
%ADD11R,0.0515X0.0515*%
%ADD12C,0.0515*%
%ADD13C,0.0860*%
%ADD14R,0.0594X0.0594*%
%ADD15C,0.0050*%
%ADD16C,0.0320*%
%ADD17C,0.0280*%
%ADD18C,0.0240*%
D10*
X000300Y000350D02*
X000300Y039720D01*
X063292Y039720D01*
X063292Y000350D01*
X000300Y000350D01*
D11*
X022800Y017850D03*
X035300Y015850D03*
D12*
X035300Y016850D03*
X035300Y017850D03*
X022800Y016850D03*
X022800Y015850D03*
D13*
X026831Y021850D03*
X028800Y021850D03*
X030769Y021850D03*
D14*
X030786Y014053D03*
X030786Y012053D03*
X033786Y012053D03*
X033786Y014053D03*
D15*
X037804Y012137D02*
X037806Y012176D01*
X037812Y012215D01*
X037822Y012253D01*
X037835Y012290D01*
X037852Y012325D01*
X037872Y012359D01*
X037896Y012390D01*
X037923Y012419D01*
X037952Y012445D01*
X037984Y012468D01*
X038018Y012488D01*
X038054Y012504D01*
X038091Y012516D01*
X038130Y012525D01*
X038169Y012530D01*
X038208Y012531D01*
X038247Y012528D01*
X038286Y012521D01*
X038323Y012510D01*
X038360Y012496D01*
X038395Y012478D01*
X038428Y012457D01*
X038459Y012432D01*
X038487Y012405D01*
X038512Y012375D01*
X038534Y012342D01*
X038553Y012308D01*
X038568Y012272D01*
X038580Y012234D01*
X038588Y012196D01*
X038592Y012157D01*
X038592Y012117D01*
X038588Y012078D01*
X038580Y012040D01*
X038568Y012002D01*
X038553Y011966D01*
X038534Y011932D01*
X038512Y011899D01*
X038487Y011869D01*
X038459Y011842D01*
X038428Y011817D01*
X038395Y011796D01*
X038360Y011778D01*
X038323Y011764D01*
X038286Y011753D01*
X038247Y011746D01*
X038208Y011743D01*
X038169Y011744D01*
X038130Y011749D01*
X038091Y011758D01*
X038054Y011770D01*
X038018Y011786D01*
X037984Y011806D01*
X037952Y011829D01*
X037923Y011855D01*
X037896Y011884D01*
X037872Y011915D01*
X037852Y011949D01*
X037835Y011984D01*
X037822Y012021D01*
X037812Y012059D01*
X037806Y012098D01*
X037804Y012137D01*
X038198Y011350D02*
X038252Y011352D01*
X038305Y011357D01*
X038358Y011366D01*
X038410Y011379D01*
X038462Y011395D01*
X038512Y011415D01*
X038560Y011438D01*
X038607Y011465D01*
X038652Y011494D01*
X038695Y011527D01*
X038735Y011562D01*
X038773Y011600D01*
X038808Y011640D01*
X038841Y011683D01*
X038870Y011728D01*
X038897Y011775D01*
X038920Y011823D01*
X038940Y011873D01*
X038956Y011925D01*
X038969Y011977D01*
X038978Y012030D01*
X038983Y012083D01*
X038985Y012137D01*
X038985Y022374D01*
X037804Y022374D02*
X037806Y022413D01*
X037812Y022452D01*
X037822Y022490D01*
X037835Y022527D01*
X037852Y022562D01*
X037872Y022596D01*
X037896Y022627D01*
X037923Y022656D01*
X037952Y022682D01*
X037984Y022705D01*
X038018Y022725D01*
X038054Y022741D01*
X038091Y022753D01*
X038130Y022762D01*
X038169Y022767D01*
X038208Y022768D01*
X038247Y022765D01*
X038286Y022758D01*
X038323Y022747D01*
X038360Y022733D01*
X038395Y022715D01*
X038428Y022694D01*
X038459Y022669D01*
X038487Y022642D01*
X038512Y022612D01*
X038534Y022579D01*
X038553Y022545D01*
X038568Y022509D01*
X038580Y022471D01*
X038588Y022433D01*
X038592Y022394D01*
X038592Y022354D01*
X038588Y022315D01*
X038580Y022277D01*
X038568Y022239D01*
X038553Y022203D01*
X038534Y022169D01*
X038512Y022136D01*
X038487Y022106D01*
X038459Y022079D01*
X038428Y022054D01*
X038395Y022033D01*
X038360Y022015D01*
X038323Y022001D01*
X038286Y021990D01*
X038247Y021983D01*
X038208Y021980D01*
X038169Y021981D01*
X038130Y021986D01*
X038091Y021995D01*
X038054Y022007D01*
X038018Y022023D01*
X037984Y022043D01*
X037952Y022066D01*
X037923Y022092D01*
X037896Y022121D01*
X037872Y022152D01*
X037852Y022186D01*
X037835Y022221D01*
X037822Y022258D01*
X037812Y022296D01*
X037806Y022335D01*
X037804Y022374D01*
X038198Y023161D02*
X038252Y023159D01*
X038305Y023154D01*
X038358Y023145D01*
X038410Y023132D01*
X038462Y023116D01*
X038512Y023096D01*
X038560Y023073D01*
X038607Y023046D01*
X038652Y023017D01*
X038695Y022984D01*
X038735Y022949D01*
X038773Y022911D01*
X038808Y022871D01*
X038841Y022828D01*
X038870Y022783D01*
X038897Y022736D01*
X038920Y022688D01*
X038940Y022638D01*
X038956Y022586D01*
X038969Y022534D01*
X038978Y022481D01*
X038983Y022428D01*
X038985Y022374D01*
X038198Y023161D02*
X020087Y023161D01*
X019693Y022374D02*
X019695Y022413D01*
X019701Y022452D01*
X019711Y022490D01*
X019724Y022527D01*
X019741Y022562D01*
X019761Y022596D01*
X019785Y022627D01*
X019812Y022656D01*
X019841Y022682D01*
X019873Y022705D01*
X019907Y022725D01*
X019943Y022741D01*
X019980Y022753D01*
X020019Y022762D01*
X020058Y022767D01*
X020097Y022768D01*
X020136Y022765D01*
X020175Y022758D01*
X020212Y022747D01*
X020249Y022733D01*
X020284Y022715D01*
X020317Y022694D01*
X020348Y022669D01*
X020376Y022642D01*
X020401Y022612D01*
X020423Y022579D01*
X020442Y022545D01*
X020457Y022509D01*
X020469Y022471D01*
X020477Y022433D01*
X020481Y022394D01*
X020481Y022354D01*
X020477Y022315D01*
X020469Y022277D01*
X020457Y022239D01*
X020442Y022203D01*
X020423Y022169D01*
X020401Y022136D01*
X020376Y022106D01*
X020348Y022079D01*
X020317Y022054D01*
X020284Y022033D01*
X020249Y022015D01*
X020212Y022001D01*
X020175Y021990D01*
X020136Y021983D01*
X020097Y021980D01*
X020058Y021981D01*
X020019Y021986D01*
X019980Y021995D01*
X019943Y022007D01*
X019907Y022023D01*
X019873Y022043D01*
X019841Y022066D01*
X019812Y022092D01*
X019785Y022121D01*
X019761Y022152D01*
X019741Y022186D01*
X019724Y022221D01*
X019711Y022258D01*
X019701Y022296D01*
X019695Y022335D01*
X019693Y022374D01*
X019300Y022374D02*
X019300Y012137D01*
X019693Y012137D02*
X019695Y012176D01*
X019701Y012215D01*
X019711Y012253D01*
X019724Y012290D01*
X019741Y012325D01*
X019761Y012359D01*
X019785Y012390D01*
X019812Y012419D01*
X019841Y012445D01*
X019873Y012468D01*
X019907Y012488D01*
X019943Y012504D01*
X019980Y012516D01*
X020019Y012525D01*
X020058Y012530D01*
X020097Y012531D01*
X020136Y012528D01*
X020175Y012521D01*
X020212Y012510D01*
X020249Y012496D01*
X020284Y012478D01*
X020317Y012457D01*
X020348Y012432D01*
X020376Y012405D01*
X020401Y012375D01*
X020423Y012342D01*
X020442Y012308D01*
X020457Y012272D01*
X020469Y012234D01*
X020477Y012196D01*
X020481Y012157D01*
X020481Y012117D01*
X020477Y012078D01*
X020469Y012040D01*
X020457Y012002D01*
X020442Y011966D01*
X020423Y011932D01*
X020401Y011899D01*
X020376Y011869D01*
X020348Y011842D01*
X020317Y011817D01*
X020284Y011796D01*
X020249Y011778D01*
X020212Y011764D01*
X020175Y011753D01*
X020136Y011746D01*
X020097Y011743D01*
X020058Y011744D01*
X020019Y011749D01*
X019980Y011758D01*
X019943Y011770D01*
X019907Y011786D01*
X019873Y011806D01*
X019841Y011829D01*
X019812Y011855D01*
X019785Y011884D01*
X019761Y011915D01*
X019741Y011949D01*
X019724Y011984D01*
X019711Y012021D01*
X019701Y012059D01*
X019695Y012098D01*
X019693Y012137D01*
X019300Y012137D02*
X019302Y012083D01*
X019307Y012030D01*
X019316Y011977D01*
X019329Y011925D01*
X019345Y011873D01*
X019365Y011823D01*
X019388Y011775D01*
X019415Y011728D01*
X019444Y011683D01*
X019477Y011640D01*
X019512Y011600D01*
X019550Y011562D01*
X019590Y011527D01*
X019633Y011494D01*
X019678Y011465D01*
X019725Y011438D01*
X019773Y011415D01*
X019823Y011395D01*
X019875Y011379D01*
X019927Y011366D01*
X019980Y011357D01*
X020033Y011352D01*
X020087Y011350D01*
X038198Y011350D01*
X020087Y011350D02*
X019300Y011350D01*
X019300Y022374D02*
X019302Y022428D01*
X019307Y022481D01*
X019316Y022534D01*
X019329Y022586D01*
X019345Y022638D01*
X019365Y022688D01*
X019388Y022736D01*
X019415Y022783D01*
X019444Y022828D01*
X019477Y022871D01*
X019512Y022911D01*
X019550Y022949D01*
X019590Y022984D01*
X019633Y023017D01*
X019678Y023046D01*
X019725Y023073D01*
X019773Y023096D01*
X019823Y023116D01*
X019875Y023132D01*
X019927Y023145D01*
X019980Y023154D01*
X020033Y023159D01*
X020087Y023161D01*
D16*
X021026Y022576D02*
X037259Y022576D01*
X037219Y022374D01*
X037293Y021999D01*
X037506Y021682D01*
X037823Y021469D01*
X038198Y021395D01*
X038400Y021435D01*
X038400Y013076D01*
X038198Y013116D01*
X037823Y013042D01*
X037506Y012829D01*
X037293Y012512D01*
X037219Y012137D01*
X037259Y011935D01*
X034343Y011935D01*
X034343Y012053D01*
X034343Y012375D01*
X034333Y012426D01*
X034313Y012473D01*
X034285Y012516D01*
X034249Y012552D01*
X034206Y012580D01*
X034159Y012600D01*
X034108Y012610D01*
X033786Y012610D01*
X033464Y012610D01*
X033413Y012600D01*
X033366Y012580D01*
X033323Y012552D01*
X033287Y012516D01*
X033259Y012473D01*
X033239Y012426D01*
X033229Y012375D01*
X033229Y012053D01*
X033229Y011935D01*
X031343Y011935D01*
X031343Y012053D01*
X031343Y012375D01*
X031333Y012426D01*
X031313Y012473D01*
X031285Y012516D01*
X031249Y012552D01*
X031206Y012580D01*
X031159Y012600D01*
X031108Y012610D01*
X030786Y012610D01*
X030464Y012610D01*
X030413Y012600D01*
X030366Y012580D01*
X030323Y012552D01*
X030287Y012516D01*
X030259Y012473D01*
X030239Y012426D01*
X030229Y012375D01*
X030229Y012053D01*
X030229Y011935D01*
X021026Y011935D01*
X021066Y012137D01*
X020992Y012512D01*
X020779Y012829D01*
X020462Y013042D01*
X020087Y013116D01*
X019885Y013076D01*
X019885Y021435D01*
X020087Y021395D01*
X020462Y021469D01*
X020779Y021682D01*
X020992Y021999D01*
X021066Y022374D01*
X021026Y022576D01*
X021057Y022327D02*
X026360Y022327D01*
X026452Y022418D02*
X026263Y022230D01*
X026161Y021983D01*
X026161Y021717D01*
X026263Y021470D01*
X026452Y021282D01*
X026698Y021180D01*
X026965Y021180D01*
X027211Y021282D01*
X027399Y021470D01*
X027501Y021717D01*
X027501Y021983D01*
X027399Y022230D01*
X027211Y022418D01*
X026965Y022520D01*
X026698Y022520D01*
X026452Y022418D01*
X026172Y022008D02*
X020993Y022008D01*
X020785Y021690D02*
X026173Y021690D01*
X026363Y021371D02*
X019885Y021371D01*
X019885Y021053D02*
X028440Y021053D01*
X028440Y021274D02*
X028440Y014978D01*
X028495Y014846D01*
X028758Y014583D01*
X028778Y014535D01*
X028885Y014428D01*
X029024Y014370D01*
X029176Y014370D01*
X029315Y014428D01*
X029422Y014535D01*
X029480Y014674D01*
X029480Y014826D01*
X029422Y014965D01*
X029315Y015072D01*
X029267Y015092D01*
X029160Y015199D01*
X029160Y021274D01*
X029180Y021282D01*
X029368Y021470D01*
X029470Y021717D01*
X029470Y021983D01*
X029368Y022230D01*
X029180Y022418D01*
X028933Y022520D01*
X028667Y022520D01*
X028420Y022418D01*
X028232Y022230D01*
X028130Y021983D01*
X028130Y021717D01*
X028232Y021470D01*
X028420Y021282D01*
X028440Y021274D01*
X028331Y021371D02*
X027300Y021371D01*
X027490Y021690D02*
X028141Y021690D01*
X028140Y022008D02*
X027491Y022008D01*
X027303Y022327D02*
X028329Y022327D01*
X029271Y022327D02*
X030269Y022327D01*
X030249Y022306D02*
X030194Y022234D01*
X030148Y022156D01*
X030114Y022072D01*
X030090Y021985D01*
X030079Y021895D01*
X030079Y021850D01*
X030768Y021850D01*
X030079Y021850D01*
X030079Y021805D01*
X030090Y021715D01*
X030114Y021628D01*
X030148Y021544D01*
X030194Y021466D01*
X030249Y021394D01*
X030313Y021330D01*
X030384Y021275D01*
X030463Y021230D01*
X030546Y021195D01*
X030634Y021172D01*
X030723Y021160D01*
X030768Y021160D01*
X030768Y021850D01*
X030768Y021850D01*
X030769Y021850D01*
X031459Y021850D01*
X031459Y021895D01*
X031447Y021985D01*
X031423Y022072D01*
X031389Y022156D01*
X031343Y022234D01*
X031288Y022306D01*
X031224Y022370D01*
X031153Y022425D01*
X031074Y022470D01*
X030991Y022505D01*
X030903Y022528D01*
X030814Y022540D01*
X030769Y022540D01*
X030769Y021850D01*
X030769Y021850D01*
X031459Y021850D01*
X031459Y021805D01*
X031447Y021715D01*
X031423Y021628D01*
X031389Y021544D01*
X031343Y021466D01*
X031288Y021394D01*
X031224Y021330D01*
X031153Y021275D01*
X031074Y021230D01*
X030991Y021195D01*
X030903Y021172D01*
X030814Y021160D01*
X030769Y021160D01*
X030769Y021850D01*
X030768Y021850D01*
X030768Y022540D01*
X030723Y022540D01*
X030634Y022528D01*
X030546Y022505D01*
X030463Y022470D01*
X030384Y022425D01*
X030313Y022370D01*
X030249Y022306D01*
X030097Y022008D02*
X029460Y022008D01*
X029459Y021690D02*
X030097Y021690D01*
X030272Y021371D02*
X029269Y021371D01*
X029160Y021053D02*
X038400Y021053D01*
X038400Y021371D02*
X031265Y021371D01*
X031440Y021690D02*
X037500Y021690D01*
X037292Y022008D02*
X031441Y022008D01*
X031268Y022327D02*
X037228Y022327D01*
X038400Y020734D02*
X029160Y020734D01*
X029160Y020416D02*
X038400Y020416D01*
X038400Y020097D02*
X029160Y020097D01*
X029160Y019779D02*
X038400Y019779D01*
X038400Y019460D02*
X029160Y019460D01*
X029160Y019142D02*
X038400Y019142D01*
X038400Y018823D02*
X029160Y018823D01*
X029160Y018505D02*
X038400Y018505D01*
X038400Y018186D02*
X035696Y018186D01*
X035695Y018187D02*
X035637Y018245D01*
X035571Y018293D01*
X035499Y018330D01*
X035421Y018355D01*
X035341Y018367D01*
X035300Y018367D01*
X035259Y018367D01*
X035179Y018355D01*
X035101Y018330D01*
X035029Y018293D01*
X034963Y018245D01*
X034905Y018187D01*
X034857Y018121D01*
X034820Y018049D01*
X034795Y017971D01*
X034783Y017891D01*
X034783Y017850D01*
X034783Y017809D01*
X034795Y017729D01*
X034820Y017651D01*
X034857Y017579D01*
X034905Y017513D01*
X034963Y017455D01*
X035029Y017407D01*
X035101Y017370D01*
X035179Y017345D01*
X035191Y017343D01*
X035018Y017272D01*
X034878Y017132D01*
X034803Y016949D01*
X034803Y016751D01*
X034878Y016568D01*
X035018Y016428D01*
X035201Y016353D01*
X035399Y016353D01*
X035582Y016428D01*
X035722Y016568D01*
X035797Y016751D01*
X035797Y016949D01*
X035722Y017132D01*
X035582Y017272D01*
X035409Y017343D01*
X035421Y017345D01*
X035499Y017370D01*
X035571Y017407D01*
X035637Y017455D01*
X035695Y017513D01*
X035743Y017579D01*
X035780Y017651D01*
X035805Y017729D01*
X035817Y017809D01*
X035817Y017850D01*
X035300Y017850D01*
X035817Y017850D01*
X035817Y017891D01*
X035805Y017971D01*
X035780Y018049D01*
X035743Y018121D01*
X035695Y018187D01*
X035817Y017868D02*
X038400Y017868D01*
X038400Y017549D02*
X035721Y017549D01*
X035623Y017231D02*
X038400Y017231D01*
X038400Y016912D02*
X035797Y016912D01*
X035732Y016594D02*
X038400Y016594D01*
X038400Y016275D02*
X035729Y016275D01*
X035761Y016243D02*
X035693Y016311D01*
X035605Y016347D01*
X034995Y016347D01*
X034907Y016311D01*
X034839Y016243D01*
X034803Y016155D01*
X034803Y015545D01*
X034839Y015457D01*
X034907Y015389D01*
X034995Y015353D01*
X035605Y015353D01*
X035693Y015389D01*
X035761Y015457D01*
X035797Y015545D01*
X035797Y016155D01*
X035761Y016243D01*
X035797Y015957D02*
X038400Y015957D01*
X038400Y015638D02*
X035797Y015638D01*
X034871Y016275D02*
X029160Y016275D01*
X029160Y015957D02*
X034803Y015957D01*
X034803Y015638D02*
X029160Y015638D01*
X029160Y015320D02*
X038400Y015320D01*
X038400Y015001D02*
X029386Y015001D01*
X029480Y014683D02*
X038400Y014683D01*
X038400Y014364D02*
X034323Y014364D01*
X034323Y014398D02*
X034286Y014486D01*
X034219Y014553D01*
X034131Y014590D01*
X033441Y014590D01*
X033353Y014553D01*
X033286Y014486D01*
X033249Y014398D01*
X033249Y013708D01*
X033286Y013620D01*
X033353Y013553D01*
X033441Y013516D01*
X034131Y013516D01*
X034219Y013553D01*
X034286Y013620D01*
X034323Y013708D01*
X034323Y014398D01*
X034323Y014046D02*
X038400Y014046D01*
X038400Y013727D02*
X034323Y013727D01*
X033249Y013727D02*
X031323Y013727D01*
X031323Y013708D02*
X031286Y013620D01*
X031219Y013553D01*
X031131Y013516D01*
X030441Y013516D01*
X030353Y013553D01*
X030286Y013620D01*
X030249Y013708D01*
X030249Y014398D01*
X030286Y014486D01*
X030353Y014553D01*
X030441Y014590D01*
X031131Y014590D01*
X031219Y014553D01*
X031286Y014486D01*
X031323Y014398D01*
X031323Y013708D01*
X031323Y014046D02*
X033249Y014046D01*
X033249Y014364D02*
X031323Y014364D01*
X030249Y014364D02*
X019885Y014364D01*
X019885Y014046D02*
X030249Y014046D01*
X030249Y013727D02*
X019885Y013727D01*
X019885Y013409D02*
X038400Y013409D01*
X038400Y013090D02*
X038329Y013090D01*
X038066Y013090D02*
X020219Y013090D01*
X019956Y013090D02*
X019885Y013090D01*
X020818Y012772D02*
X037467Y012772D01*
X037282Y012453D02*
X034322Y012453D01*
X034343Y012135D02*
X037220Y012135D01*
X034343Y012053D02*
X033786Y012053D01*
X033786Y012053D01*
X034343Y012053D01*
X033786Y012053D02*
X033786Y012610D01*
X033786Y012053D01*
X033786Y012053D01*
X033229Y012053D01*
X033786Y012053D01*
X033786Y012053D01*
X033786Y012135D02*
X033786Y012135D01*
X033786Y012453D02*
X033786Y012453D01*
X033250Y012453D02*
X031322Y012453D01*
X031343Y012135D02*
X033229Y012135D01*
X031343Y012053D02*
X030786Y012053D01*
X030786Y012053D01*
X030786Y012610D01*
X030786Y012053D01*
X030786Y012053D01*
X031343Y012053D01*
X030786Y012053D02*
X030229Y012053D01*
X030786Y012053D01*
X030786Y012053D01*
X030786Y012135D02*
X030786Y012135D01*
X030786Y012453D02*
X030786Y012453D01*
X030250Y012453D02*
X021003Y012453D01*
X021066Y012135D02*
X030229Y012135D01*
X028658Y014683D02*
X019885Y014683D01*
X019885Y015001D02*
X028440Y015001D01*
X028440Y015320D02*
X019885Y015320D01*
X019885Y015638D02*
X022327Y015638D01*
X022320Y015651D02*
X022357Y015579D01*
X022405Y015513D01*
X022463Y015455D01*
X022529Y015407D01*
X022601Y015370D01*
X022679Y015345D01*
X022759Y015333D01*
X022800Y015333D01*
X022841Y015333D01*
X022921Y015345D01*
X022999Y015370D01*
X023071Y015407D01*
X023137Y015455D01*
X023195Y015513D01*
X023243Y015579D01*
X023280Y015651D01*
X023305Y015729D01*
X023317Y015809D01*
X023317Y015850D01*
X022800Y015850D01*
X023317Y015850D01*
X023317Y015891D01*
X023305Y015971D01*
X023280Y016049D01*
X023243Y016121D01*
X023195Y016187D01*
X023137Y016245D01*
X023071Y016293D01*
X022999Y016330D01*
X022921Y016355D01*
X022909Y016357D01*
X023082Y016428D01*
X023222Y016568D01*
X023297Y016751D01*
X023297Y016949D01*
X023222Y017132D01*
X023082Y017272D01*
X022899Y017347D01*
X022701Y017347D01*
X022518Y017272D01*
X022378Y017132D01*
X022303Y016949D01*
X022303Y016751D01*
X022378Y016568D01*
X022518Y016428D01*
X022691Y016357D01*
X022679Y016355D01*
X022601Y016330D01*
X022529Y016293D01*
X022463Y016245D01*
X022405Y016187D01*
X022357Y016121D01*
X022320Y016049D01*
X022295Y015971D01*
X022283Y015891D01*
X022283Y015850D01*
X022283Y015809D01*
X022295Y015729D01*
X022320Y015651D01*
X022283Y015850D02*
X022800Y015850D01*
X022800Y015850D01*
X022800Y015850D01*
X022283Y015850D01*
X022293Y015957D02*
X019885Y015957D01*
X019885Y016275D02*
X022505Y016275D01*
X022368Y016594D02*
X019885Y016594D01*
X019885Y016912D02*
X022303Y016912D01*
X022477Y017231D02*
X019885Y017231D01*
X019885Y017549D02*
X022303Y017549D01*
X022303Y017545D02*
X022339Y017457D01*
X022407Y017389D01*
X022495Y017353D01*
X023105Y017353D01*
X023193Y017389D01*
X023261Y017457D01*
X023297Y017545D01*
X023297Y018155D01*
X023261Y018243D01*
X023193Y018311D01*
X023105Y018347D01*
X022495Y018347D01*
X022407Y018311D01*
X022339Y018243D01*
X022303Y018155D01*
X022303Y017545D01*
X022303Y017868D02*
X019885Y017868D01*
X019885Y018186D02*
X022315Y018186D01*
X023285Y018186D02*
X028440Y018186D01*
X028440Y017868D02*
X023297Y017868D01*
X023297Y017549D02*
X028440Y017549D01*
X028440Y017231D02*
X023123Y017231D01*
X023297Y016912D02*
X028440Y016912D01*
X028440Y016594D02*
X023232Y016594D01*
X023095Y016275D02*
X028440Y016275D01*
X028440Y015957D02*
X023307Y015957D01*
X023273Y015638D02*
X028440Y015638D01*
X029160Y016594D02*
X034868Y016594D01*
X034803Y016912D02*
X029160Y016912D01*
X029160Y017231D02*
X034977Y017231D01*
X034879Y017549D02*
X029160Y017549D01*
X029160Y017868D02*
X034783Y017868D01*
X034783Y017850D02*
X035300Y017850D01*
X035300Y017850D01*
X035300Y017850D01*
X035300Y018367D01*
X035300Y017850D01*
X035300Y017850D01*
X034783Y017850D01*
X034904Y018186D02*
X029160Y018186D01*
X028440Y018505D02*
X019885Y018505D01*
X019885Y018823D02*
X028440Y018823D01*
X028440Y019142D02*
X019885Y019142D01*
X019885Y019460D02*
X028440Y019460D01*
X028440Y019779D02*
X019885Y019779D01*
X019885Y020097D02*
X028440Y020097D01*
X028440Y020416D02*
X019885Y020416D01*
X019885Y020734D02*
X028440Y020734D01*
X030768Y021371D02*
X030769Y021371D01*
X030768Y021690D02*
X030769Y021690D01*
X030768Y022008D02*
X030769Y022008D01*
X030768Y022327D02*
X030769Y022327D01*
X035300Y018186D02*
X035300Y018186D01*
X035300Y017868D02*
X035300Y017868D01*
X022800Y015850D02*
X022800Y015333D01*
X022800Y015850D01*
X022800Y015850D01*
X022800Y015638D02*
X022800Y015638D01*
D17*
X025100Y015750D03*
X026300Y015750D03*
X029100Y014750D03*
X031400Y015350D03*
X033100Y015250D03*
X032000Y018150D03*
X033700Y020450D03*
X037600Y020050D03*
X037600Y018650D03*
X026700Y019250D03*
X026700Y020250D03*
X024600Y020250D03*
X024600Y019250D03*
D18*
X028800Y021850D02*
X028800Y015050D01*
X029100Y014750D01*
M02*
