G75*
%MOIN*%
%OFA0B0*%
%FSLAX24Y24*%
%IPPOS*%
%LPD*%
%AMOC8*
5,1,8,0,0,1.08239X$1,22.5*
%
%ADD10C,0.0000*%
%ADD11R,0.0236X0.0630*%
%ADD12R,0.0515X0.0515*%
%ADD13C,0.0515*%
%ADD14R,0.0394X0.0433*%
%ADD15C,0.0860*%
%ADD16R,0.0315X0.0315*%
%ADD17R,0.0433X0.0394*%
%ADD18R,0.0594X0.0594*%
%ADD19C,0.0050*%
%ADD20C,0.0240*%
%ADD21C,0.0320*%
%ADD22C,0.0160*%
%ADD23C,0.0280*%
D10*
X000300Y000350D02*
X000300Y039720D01*
X063292Y039720D01*
X063292Y000350D01*
X000300Y000350D01*
D11*
X028050Y015805D03*
X028546Y015805D03*
X029046Y015805D03*
X029546Y015805D03*
X029550Y017895D03*
X029050Y017895D03*
X028550Y017895D03*
X028050Y017895D03*
D12*
X022800Y017850D03*
X035300Y015850D03*
D13*
X035300Y016850D03*
X035300Y017850D03*
X022800Y016850D03*
X022800Y015850D03*
D14*
X026800Y017915D03*
X026800Y018585D03*
X035651Y019355D03*
X035651Y020025D03*
D15*
X030769Y021850D03*
X028800Y021850D03*
X026831Y021850D03*
D16*
X036267Y021527D03*
X036267Y020937D03*
D17*
X035924Y014053D03*
X035254Y014053D03*
D18*
X033786Y014053D03*
X033786Y012053D03*
X030786Y012053D03*
X030786Y014053D03*
D19*
X037804Y012137D02*
X037806Y012176D01*
X037812Y012215D01*
X037822Y012253D01*
X037835Y012290D01*
X037852Y012325D01*
X037872Y012359D01*
X037896Y012390D01*
X037923Y012419D01*
X037952Y012445D01*
X037984Y012468D01*
X038018Y012488D01*
X038054Y012504D01*
X038091Y012516D01*
X038130Y012525D01*
X038169Y012530D01*
X038208Y012531D01*
X038247Y012528D01*
X038286Y012521D01*
X038323Y012510D01*
X038360Y012496D01*
X038395Y012478D01*
X038428Y012457D01*
X038459Y012432D01*
X038487Y012405D01*
X038512Y012375D01*
X038534Y012342D01*
X038553Y012308D01*
X038568Y012272D01*
X038580Y012234D01*
X038588Y012196D01*
X038592Y012157D01*
X038592Y012117D01*
X038588Y012078D01*
X038580Y012040D01*
X038568Y012002D01*
X038553Y011966D01*
X038534Y011932D01*
X038512Y011899D01*
X038487Y011869D01*
X038459Y011842D01*
X038428Y011817D01*
X038395Y011796D01*
X038360Y011778D01*
X038323Y011764D01*
X038286Y011753D01*
X038247Y011746D01*
X038208Y011743D01*
X038169Y011744D01*
X038130Y011749D01*
X038091Y011758D01*
X038054Y011770D01*
X038018Y011786D01*
X037984Y011806D01*
X037952Y011829D01*
X037923Y011855D01*
X037896Y011884D01*
X037872Y011915D01*
X037852Y011949D01*
X037835Y011984D01*
X037822Y012021D01*
X037812Y012059D01*
X037806Y012098D01*
X037804Y012137D01*
X038198Y011350D02*
X038252Y011352D01*
X038305Y011357D01*
X038358Y011366D01*
X038410Y011379D01*
X038462Y011395D01*
X038512Y011415D01*
X038560Y011438D01*
X038607Y011465D01*
X038652Y011494D01*
X038695Y011527D01*
X038735Y011562D01*
X038773Y011600D01*
X038808Y011640D01*
X038841Y011683D01*
X038870Y011728D01*
X038897Y011775D01*
X038920Y011823D01*
X038940Y011873D01*
X038956Y011925D01*
X038969Y011977D01*
X038978Y012030D01*
X038983Y012083D01*
X038985Y012137D01*
X038985Y022374D01*
X037804Y022374D02*
X037806Y022413D01*
X037812Y022452D01*
X037822Y022490D01*
X037835Y022527D01*
X037852Y022562D01*
X037872Y022596D01*
X037896Y022627D01*
X037923Y022656D01*
X037952Y022682D01*
X037984Y022705D01*
X038018Y022725D01*
X038054Y022741D01*
X038091Y022753D01*
X038130Y022762D01*
X038169Y022767D01*
X038208Y022768D01*
X038247Y022765D01*
X038286Y022758D01*
X038323Y022747D01*
X038360Y022733D01*
X038395Y022715D01*
X038428Y022694D01*
X038459Y022669D01*
X038487Y022642D01*
X038512Y022612D01*
X038534Y022579D01*
X038553Y022545D01*
X038568Y022509D01*
X038580Y022471D01*
X038588Y022433D01*
X038592Y022394D01*
X038592Y022354D01*
X038588Y022315D01*
X038580Y022277D01*
X038568Y022239D01*
X038553Y022203D01*
X038534Y022169D01*
X038512Y022136D01*
X038487Y022106D01*
X038459Y022079D01*
X038428Y022054D01*
X038395Y022033D01*
X038360Y022015D01*
X038323Y022001D01*
X038286Y021990D01*
X038247Y021983D01*
X038208Y021980D01*
X038169Y021981D01*
X038130Y021986D01*
X038091Y021995D01*
X038054Y022007D01*
X038018Y022023D01*
X037984Y022043D01*
X037952Y022066D01*
X037923Y022092D01*
X037896Y022121D01*
X037872Y022152D01*
X037852Y022186D01*
X037835Y022221D01*
X037822Y022258D01*
X037812Y022296D01*
X037806Y022335D01*
X037804Y022374D01*
X038198Y023161D02*
X038252Y023159D01*
X038305Y023154D01*
X038358Y023145D01*
X038410Y023132D01*
X038462Y023116D01*
X038512Y023096D01*
X038560Y023073D01*
X038607Y023046D01*
X038652Y023017D01*
X038695Y022984D01*
X038735Y022949D01*
X038773Y022911D01*
X038808Y022871D01*
X038841Y022828D01*
X038870Y022783D01*
X038897Y022736D01*
X038920Y022688D01*
X038940Y022638D01*
X038956Y022586D01*
X038969Y022534D01*
X038978Y022481D01*
X038983Y022428D01*
X038985Y022374D01*
X038198Y023161D02*
X020087Y023161D01*
X019693Y022374D02*
X019695Y022413D01*
X019701Y022452D01*
X019711Y022490D01*
X019724Y022527D01*
X019741Y022562D01*
X019761Y022596D01*
X019785Y022627D01*
X019812Y022656D01*
X019841Y022682D01*
X019873Y022705D01*
X019907Y022725D01*
X019943Y022741D01*
X019980Y022753D01*
X020019Y022762D01*
X020058Y022767D01*
X020097Y022768D01*
X020136Y022765D01*
X020175Y022758D01*
X020212Y022747D01*
X020249Y022733D01*
X020284Y022715D01*
X020317Y022694D01*
X020348Y022669D01*
X020376Y022642D01*
X020401Y022612D01*
X020423Y022579D01*
X020442Y022545D01*
X020457Y022509D01*
X020469Y022471D01*
X020477Y022433D01*
X020481Y022394D01*
X020481Y022354D01*
X020477Y022315D01*
X020469Y022277D01*
X020457Y022239D01*
X020442Y022203D01*
X020423Y022169D01*
X020401Y022136D01*
X020376Y022106D01*
X020348Y022079D01*
X020317Y022054D01*
X020284Y022033D01*
X020249Y022015D01*
X020212Y022001D01*
X020175Y021990D01*
X020136Y021983D01*
X020097Y021980D01*
X020058Y021981D01*
X020019Y021986D01*
X019980Y021995D01*
X019943Y022007D01*
X019907Y022023D01*
X019873Y022043D01*
X019841Y022066D01*
X019812Y022092D01*
X019785Y022121D01*
X019761Y022152D01*
X019741Y022186D01*
X019724Y022221D01*
X019711Y022258D01*
X019701Y022296D01*
X019695Y022335D01*
X019693Y022374D01*
X019300Y022374D02*
X019300Y012137D01*
X019693Y012137D02*
X019695Y012176D01*
X019701Y012215D01*
X019711Y012253D01*
X019724Y012290D01*
X019741Y012325D01*
X019761Y012359D01*
X019785Y012390D01*
X019812Y012419D01*
X019841Y012445D01*
X019873Y012468D01*
X019907Y012488D01*
X019943Y012504D01*
X019980Y012516D01*
X020019Y012525D01*
X020058Y012530D01*
X020097Y012531D01*
X020136Y012528D01*
X020175Y012521D01*
X020212Y012510D01*
X020249Y012496D01*
X020284Y012478D01*
X020317Y012457D01*
X020348Y012432D01*
X020376Y012405D01*
X020401Y012375D01*
X020423Y012342D01*
X020442Y012308D01*
X020457Y012272D01*
X020469Y012234D01*
X020477Y012196D01*
X020481Y012157D01*
X020481Y012117D01*
X020477Y012078D01*
X020469Y012040D01*
X020457Y012002D01*
X020442Y011966D01*
X020423Y011932D01*
X020401Y011899D01*
X020376Y011869D01*
X020348Y011842D01*
X020317Y011817D01*
X020284Y011796D01*
X020249Y011778D01*
X020212Y011764D01*
X020175Y011753D01*
X020136Y011746D01*
X020097Y011743D01*
X020058Y011744D01*
X020019Y011749D01*
X019980Y011758D01*
X019943Y011770D01*
X019907Y011786D01*
X019873Y011806D01*
X019841Y011829D01*
X019812Y011855D01*
X019785Y011884D01*
X019761Y011915D01*
X019741Y011949D01*
X019724Y011984D01*
X019711Y012021D01*
X019701Y012059D01*
X019695Y012098D01*
X019693Y012137D01*
X019300Y012137D02*
X019302Y012083D01*
X019307Y012030D01*
X019316Y011977D01*
X019329Y011925D01*
X019345Y011873D01*
X019365Y011823D01*
X019388Y011775D01*
X019415Y011728D01*
X019444Y011683D01*
X019477Y011640D01*
X019512Y011600D01*
X019550Y011562D01*
X019590Y011527D01*
X019633Y011494D01*
X019678Y011465D01*
X019725Y011438D01*
X019773Y011415D01*
X019823Y011395D01*
X019875Y011379D01*
X019927Y011366D01*
X019980Y011357D01*
X020033Y011352D01*
X020087Y011350D01*
X038198Y011350D01*
X020087Y011350D02*
X019300Y011350D01*
X019300Y022374D02*
X019302Y022428D01*
X019307Y022481D01*
X019316Y022534D01*
X019329Y022586D01*
X019345Y022638D01*
X019365Y022688D01*
X019388Y022736D01*
X019415Y022783D01*
X019444Y022828D01*
X019477Y022871D01*
X019512Y022911D01*
X019550Y022949D01*
X019590Y022984D01*
X019633Y023017D01*
X019678Y023046D01*
X019725Y023073D01*
X019773Y023096D01*
X019823Y023116D01*
X019875Y023132D01*
X019927Y023145D01*
X019980Y023154D01*
X020033Y023159D01*
X020087Y023161D01*
D20*
X025500Y021450D02*
X025500Y016850D01*
X026300Y016850D01*
X026800Y017350D01*
X026800Y017915D01*
X028030Y017915D01*
X028038Y017913D01*
X028044Y017909D01*
X028048Y017903D01*
X028050Y017895D01*
X028050Y015805D01*
X028546Y015805D02*
X028546Y015196D01*
X027364Y014014D01*
X022798Y014014D01*
X021786Y015026D01*
X021800Y017550D01*
X022100Y017850D01*
X022800Y017850D01*
X022800Y016850D02*
X025500Y016850D01*
X028550Y017200D02*
X028900Y016850D01*
X029900Y016850D01*
X030300Y016450D01*
X030323Y016450D01*
X030323Y014126D01*
X030786Y014126D01*
X030786Y014053D01*
X033786Y014053D01*
X035254Y014053D01*
X035254Y014053D01*
X035924Y014053D02*
X035924Y016835D01*
X035916Y016835D01*
X035858Y016908D02*
X036300Y017350D01*
X035858Y016908D02*
X035800Y016850D01*
X035300Y016850D01*
X035300Y017850D02*
X035307Y017857D01*
X035700Y018250D01*
X035300Y015850D02*
X032600Y015850D01*
X030600Y017850D01*
X029595Y017850D01*
X029583Y017852D01*
X029573Y017856D01*
X029563Y017863D01*
X029556Y017873D01*
X029552Y017883D01*
X029550Y017895D01*
X028550Y017895D02*
X028550Y017200D01*
X029046Y015805D02*
X029046Y014804D01*
X029100Y014750D01*
X030786Y012053D02*
X033786Y012053D01*
X025500Y021450D02*
X025900Y021850D01*
X026831Y021850D01*
D21*
X026831Y022181D01*
X027200Y022550D01*
X036700Y022550D01*
X037200Y022050D01*
X037200Y021650D01*
X037019Y021511D01*
X037054Y021532D02*
X036267Y021527D01*
X037204Y021527D01*
X037204Y021350D01*
X036952Y021350D01*
X036952Y018002D01*
X035858Y016908D01*
X035616Y017344D02*
X035523Y017383D01*
X035571Y017407D01*
X035637Y017455D01*
X035695Y017513D01*
X035743Y017579D01*
X035780Y017651D01*
X035805Y017729D01*
X035817Y017809D01*
X035817Y017850D01*
X035300Y017850D01*
X035300Y017850D01*
X035300Y018367D01*
X035259Y018367D01*
X035179Y018355D01*
X035101Y018330D01*
X035029Y018293D01*
X034963Y018245D01*
X034905Y018187D01*
X034857Y018121D01*
X034820Y018049D01*
X034795Y017971D01*
X034783Y017891D01*
X034783Y017850D01*
X034783Y017809D01*
X034795Y017729D01*
X034820Y017651D01*
X034857Y017579D01*
X034905Y017513D01*
X034963Y017455D01*
X035029Y017407D01*
X035077Y017383D01*
X034973Y017340D01*
X034810Y017177D01*
X034723Y016965D01*
X034723Y016735D01*
X034810Y016523D01*
X034927Y016406D01*
X034861Y016379D01*
X034772Y016290D01*
X032782Y016290D01*
X030973Y018099D01*
X030849Y018223D01*
X030688Y018290D01*
X029981Y018290D01*
X029939Y018391D01*
X029849Y018481D01*
X029732Y018530D01*
X029368Y018530D01*
X029300Y018502D01*
X029232Y018530D01*
X028868Y018530D01*
X028800Y018502D01*
X028732Y018530D01*
X028368Y018530D01*
X028300Y018502D01*
X028232Y018530D01*
X027868Y018530D01*
X027751Y018481D01*
X027661Y018391D01*
X027646Y018355D01*
X027257Y018355D01*
X027257Y018585D01*
X027257Y018827D01*
X027247Y018877D01*
X027227Y018924D01*
X027199Y018967D01*
X027163Y019003D01*
X027120Y019032D01*
X027073Y019051D01*
X027022Y019061D01*
X026800Y019061D01*
X026578Y019061D01*
X026527Y019051D01*
X026480Y019032D01*
X026437Y019003D01*
X026401Y018967D01*
X026373Y018924D01*
X026353Y018877D01*
X026343Y018827D01*
X026343Y018585D01*
X026800Y018585D01*
X026800Y019061D01*
X026800Y018585D01*
X026800Y018585D01*
X026800Y018585D01*
X027257Y018585D01*
X026800Y018585D01*
X026800Y018585D01*
X026343Y018585D01*
X026343Y018343D01*
X026346Y018327D01*
X026332Y018313D01*
X026283Y018196D01*
X026283Y017635D01*
X026332Y017518D01*
X026339Y017511D01*
X026118Y017290D01*
X025940Y017290D01*
X025940Y021268D01*
X026082Y021410D01*
X026211Y021410D01*
X026407Y021214D01*
X026682Y021100D01*
X026981Y021100D01*
X027256Y021214D01*
X027467Y021425D01*
X027581Y021701D01*
X027581Y021999D01*
X027552Y022070D01*
X028079Y022070D01*
X028050Y021999D01*
X028050Y021701D01*
X028164Y021425D01*
X028375Y021214D01*
X028651Y021100D01*
X028949Y021100D01*
X029225Y021214D01*
X029436Y021425D01*
X029550Y021701D01*
X029550Y021999D01*
X029521Y022070D01*
X030113Y022070D01*
X030090Y021985D01*
X030079Y021895D01*
X030079Y021850D01*
X030768Y021850D01*
X030079Y021850D01*
X030079Y021805D01*
X030090Y021715D01*
X030114Y021628D01*
X030148Y021544D01*
X030194Y021466D01*
X030249Y021394D01*
X030313Y021330D01*
X030384Y021275D01*
X030463Y021230D01*
X030546Y021195D01*
X030634Y021172D01*
X030723Y021160D01*
X030768Y021160D01*
X030768Y021850D01*
X030768Y021850D01*
X030769Y021850D01*
X031459Y021850D01*
X031459Y021895D01*
X031447Y021985D01*
X031424Y022070D01*
X036501Y022070D01*
X036562Y022009D01*
X036266Y022007D01*
X036172Y022007D01*
X036170Y022007D01*
X036169Y022007D01*
X036164Y022005D01*
X036046Y022005D01*
X035928Y021956D01*
X035838Y021866D01*
X035790Y021748D01*
X035790Y021629D01*
X035787Y021623D01*
X035787Y021621D01*
X035786Y021620D01*
X035787Y021526D01*
X035787Y021432D01*
X035788Y021430D01*
X035788Y021429D01*
X035790Y021424D01*
X035790Y021306D01*
X035820Y021232D01*
X035790Y021158D01*
X035790Y021138D01*
X035379Y020728D01*
X035244Y020593D01*
X035171Y020416D01*
X035171Y020394D01*
X035134Y020305D01*
X035134Y019744D01*
X035183Y019627D01*
X035197Y019613D01*
X035194Y019597D01*
X035194Y019355D01*
X035194Y019113D01*
X035204Y019063D01*
X035224Y019016D01*
X035252Y018973D01*
X035288Y018937D01*
X035331Y018908D01*
X035378Y018889D01*
X035429Y018879D01*
X035651Y018879D01*
X035873Y018879D01*
X035924Y018889D01*
X035971Y018908D01*
X036014Y018937D01*
X036050Y018973D01*
X036078Y019016D01*
X036098Y019063D01*
X036108Y019113D01*
X036108Y019355D01*
X035651Y019355D01*
X035651Y018879D01*
X035651Y019355D01*
X035651Y019355D01*
X035651Y019355D01*
X035194Y019355D01*
X035651Y019355D01*
X035651Y019355D01*
X035651Y018187D01*
X035335Y017871D01*
X035307Y017857D01*
X035300Y017850D02*
X035817Y017850D01*
X035817Y017891D01*
X035805Y017971D01*
X035780Y018049D01*
X035743Y018121D01*
X035695Y018187D01*
X035637Y018245D01*
X035571Y018293D01*
X035499Y018330D01*
X035421Y018355D01*
X035341Y018367D01*
X035300Y018367D01*
X035300Y017850D01*
X035300Y017850D01*
X035300Y017850D01*
X034783Y017850D01*
X035300Y017850D01*
X035300Y017868D02*
X035300Y017868D01*
X035300Y018186D02*
X035300Y018186D01*
X034904Y018186D02*
X030886Y018186D01*
X031205Y017868D02*
X034783Y017868D01*
X034879Y017549D02*
X031523Y017549D01*
X031842Y017231D02*
X034864Y017231D01*
X034723Y016912D02*
X032160Y016912D01*
X032479Y016594D02*
X034781Y016594D01*
X035616Y017344D02*
X036472Y018201D01*
X036472Y020459D01*
X036468Y020459D01*
X036168Y020159D01*
X036168Y019744D01*
X036119Y019627D01*
X036105Y019613D01*
X036108Y019597D01*
X036108Y019355D01*
X035651Y019355D01*
X035700Y019306D01*
X035700Y018250D01*
X035696Y018186D02*
X036457Y018186D01*
X036472Y018505D02*
X029793Y018505D01*
X029307Y018505D02*
X029293Y018505D01*
X028807Y018505D02*
X028793Y018505D01*
X028307Y018505D02*
X028293Y018505D01*
X027807Y018505D02*
X027257Y018505D01*
X027257Y018823D02*
X036472Y018823D01*
X036472Y019142D02*
X036108Y019142D01*
X036108Y019460D02*
X036472Y019460D01*
X036472Y019779D02*
X036168Y019779D01*
X036168Y020097D02*
X036472Y020097D01*
X036472Y020416D02*
X036425Y020416D01*
X036267Y020937D02*
X035651Y020321D01*
X035651Y020025D01*
X035134Y020097D02*
X025940Y020097D01*
X025940Y019779D02*
X035134Y019779D01*
X035194Y019460D02*
X025940Y019460D01*
X025940Y019142D02*
X035194Y019142D01*
X035651Y019142D02*
X035651Y019142D01*
X035171Y020416D02*
X025940Y020416D01*
X025940Y020734D02*
X035385Y020734D01*
X035704Y021053D02*
X025940Y021053D01*
X026043Y021371D02*
X026250Y021371D01*
X026211Y022290D02*
X025812Y022290D01*
X025651Y022223D01*
X025251Y021823D01*
X025127Y021699D01*
X025060Y021538D01*
X025060Y017290D01*
X023177Y017290D01*
X023173Y017294D01*
X023239Y017321D01*
X023329Y017411D01*
X023377Y017529D01*
X023377Y018171D01*
X023329Y018289D01*
X023239Y018379D01*
X023121Y018427D01*
X022479Y018427D01*
X022361Y018379D01*
X022272Y018290D01*
X022012Y018290D01*
X021851Y018223D01*
X021727Y018099D01*
X021490Y017862D01*
X021428Y017801D01*
X021428Y017800D01*
X021427Y017799D01*
X021394Y017720D01*
X021360Y017640D01*
X021360Y017639D01*
X021360Y017638D01*
X021360Y017551D01*
X021346Y015115D01*
X021346Y015114D01*
X021346Y015027D01*
X021346Y014941D01*
X021346Y014940D01*
X021346Y014938D01*
X021379Y014859D01*
X021412Y014779D01*
X021413Y014778D01*
X021413Y014777D01*
X021474Y014716D01*
X021535Y014654D01*
X021536Y014654D01*
X022425Y013765D01*
X022425Y013765D01*
X022549Y013641D01*
X022710Y013574D01*
X027452Y013574D01*
X027613Y013641D01*
X028630Y014658D01*
X028673Y014555D01*
X028690Y014538D01*
X028710Y014489D01*
X028839Y014360D01*
X029008Y014290D01*
X029191Y014290D01*
X029361Y014360D01*
X029490Y014489D01*
X029560Y014658D01*
X029560Y014841D01*
X029490Y015011D01*
X029486Y015014D01*
X029486Y015230D01*
X029546Y015230D01*
X029546Y015805D01*
X029546Y015805D01*
X029546Y015230D01*
X029690Y015230D01*
X029740Y015240D01*
X029787Y015260D01*
X029830Y015288D01*
X029866Y015324D01*
X029883Y015350D01*
X029883Y014038D01*
X029950Y013877D01*
X030074Y013753D01*
X030169Y013713D01*
X030169Y013692D01*
X030218Y013575D01*
X030308Y013485D01*
X030425Y013436D01*
X031147Y013436D01*
X031264Y013485D01*
X031354Y013575D01*
X031370Y013613D01*
X033202Y013613D01*
X033218Y013575D01*
X033308Y013485D01*
X033425Y013436D01*
X034147Y013436D01*
X034264Y013485D01*
X034354Y013575D01*
X034370Y013613D01*
X034828Y013613D01*
X034857Y013585D01*
X034974Y013536D01*
X035535Y013536D01*
X035589Y013559D01*
X035643Y013536D01*
X036204Y013536D01*
X036321Y013585D01*
X036411Y013675D01*
X036460Y013792D01*
X036460Y014314D01*
X036411Y014431D01*
X036364Y014479D01*
X036364Y016735D01*
X037359Y017730D01*
X037432Y017907D01*
X037432Y020925D01*
X037476Y020943D01*
X037611Y021078D01*
X037684Y021255D01*
X037684Y021562D01*
X037823Y021469D01*
X038198Y021395D01*
X038400Y021435D01*
X038400Y013076D01*
X038198Y013116D01*
X037823Y013042D01*
X037506Y012829D01*
X037293Y012512D01*
X037219Y012137D01*
X037259Y011935D01*
X034343Y011935D01*
X034343Y012053D01*
X034343Y012375D01*
X034333Y012426D01*
X034313Y012473D01*
X034285Y012516D01*
X034249Y012552D01*
X034206Y012580D01*
X034159Y012600D01*
X034108Y012610D01*
X033786Y012610D01*
X033464Y012610D01*
X033413Y012600D01*
X033366Y012580D01*
X033323Y012552D01*
X033287Y012516D01*
X033259Y012473D01*
X033239Y012426D01*
X033229Y012375D01*
X033229Y012053D01*
X033229Y011935D01*
X031343Y011935D01*
X031343Y012053D01*
X031343Y012375D01*
X031333Y012426D01*
X031313Y012473D01*
X031285Y012516D01*
X031249Y012552D01*
X031206Y012580D01*
X031159Y012600D01*
X031108Y012610D01*
X030786Y012610D01*
X030464Y012610D01*
X030413Y012600D01*
X030366Y012580D01*
X030323Y012552D01*
X030287Y012516D01*
X030259Y012473D01*
X030239Y012426D01*
X030229Y012375D01*
X030229Y012053D01*
X030229Y011935D01*
X021026Y011935D01*
X021066Y012137D01*
X020992Y012512D01*
X020779Y012829D01*
X020462Y013042D01*
X020087Y013116D01*
X019885Y013076D01*
X019885Y021435D01*
X020087Y021395D01*
X020462Y021469D01*
X020779Y021682D01*
X020992Y021999D01*
X021066Y022374D01*
X021026Y022576D01*
X026547Y022576D01*
X026493Y022521D01*
X026407Y022486D01*
X026211Y022290D01*
X026247Y022327D02*
X021057Y022327D01*
X020993Y022008D02*
X025436Y022008D01*
X025123Y021690D02*
X020785Y021690D01*
X019885Y021371D02*
X025060Y021371D01*
X025060Y021053D02*
X019885Y021053D01*
X019885Y020734D02*
X025060Y020734D01*
X025060Y020416D02*
X019885Y020416D01*
X019885Y020097D02*
X025060Y020097D01*
X025060Y019779D02*
X019885Y019779D01*
X019885Y019460D02*
X025060Y019460D01*
X025060Y019142D02*
X019885Y019142D01*
X019885Y018823D02*
X025060Y018823D01*
X025060Y018505D02*
X019885Y018505D01*
X019885Y018186D02*
X021814Y018186D01*
X021495Y017868D02*
X019885Y017868D01*
X019885Y017549D02*
X021360Y017549D01*
X021358Y017231D02*
X019885Y017231D01*
X019885Y016912D02*
X021356Y016912D01*
X021355Y016594D02*
X019885Y016594D01*
X019885Y016275D02*
X021353Y016275D01*
X021351Y015957D02*
X019885Y015957D01*
X019885Y015638D02*
X021349Y015638D01*
X021348Y015320D02*
X019885Y015320D01*
X019885Y015001D02*
X021346Y015001D01*
X021507Y014683D02*
X019885Y014683D01*
X019885Y014364D02*
X021826Y014364D01*
X022144Y014046D02*
X019885Y014046D01*
X019885Y013727D02*
X022463Y013727D01*
X022980Y014454D02*
X027182Y014454D01*
X027898Y015170D01*
X027868Y015170D01*
X027751Y015219D01*
X027661Y015309D01*
X027612Y015427D01*
X027612Y015713D01*
X027610Y015718D01*
X027610Y017475D01*
X027240Y017475D01*
X027240Y017262D01*
X027173Y017101D01*
X027049Y016977D01*
X026549Y016477D01*
X026388Y016410D01*
X023177Y016410D01*
X023127Y016360D01*
X023023Y016317D01*
X023071Y016293D01*
X023137Y016245D01*
X023195Y016187D01*
X023243Y016121D01*
X023280Y016049D01*
X023305Y015971D01*
X023317Y015891D01*
X023317Y015850D01*
X022800Y015850D01*
X023317Y015850D01*
X023317Y015809D01*
X023305Y015729D01*
X023280Y015651D01*
X023243Y015579D01*
X023195Y015513D01*
X023137Y015455D01*
X023071Y015407D01*
X022999Y015370D01*
X022921Y015345D01*
X022841Y015333D01*
X022800Y015333D01*
X022800Y015850D01*
X022800Y015850D01*
X022800Y015850D01*
X022800Y015850D01*
X022283Y015850D01*
X022283Y015809D01*
X022295Y015729D01*
X022320Y015651D01*
X022357Y015579D01*
X022405Y015513D01*
X022463Y015455D01*
X022529Y015407D01*
X022601Y015370D01*
X022679Y015345D01*
X022759Y015333D01*
X022800Y015333D01*
X022800Y015850D01*
X022283Y015850D01*
X022283Y015891D01*
X022295Y015971D01*
X022320Y016049D01*
X022357Y016121D01*
X022405Y016187D01*
X022463Y016245D01*
X022529Y016293D01*
X022577Y016317D01*
X022473Y016360D01*
X022310Y016523D01*
X022235Y016704D01*
X022227Y015207D01*
X022980Y014454D01*
X022752Y014683D02*
X027410Y014683D01*
X027729Y015001D02*
X022433Y015001D01*
X022228Y015320D02*
X027656Y015320D01*
X027612Y015638D02*
X023273Y015638D01*
X023307Y015957D02*
X027610Y015957D01*
X027610Y016275D02*
X023095Y016275D01*
X022505Y016275D02*
X022233Y016275D01*
X022231Y015957D02*
X022293Y015957D01*
X022327Y015638D02*
X022229Y015638D01*
X022800Y015638D02*
X022800Y015638D01*
X022281Y016594D02*
X022235Y016594D01*
X023377Y017549D02*
X025060Y017549D01*
X025060Y017868D02*
X023377Y017868D01*
X023371Y018186D02*
X025060Y018186D01*
X025940Y018186D02*
X026283Y018186D01*
X026283Y017868D02*
X025940Y017868D01*
X025940Y017549D02*
X026319Y017549D01*
X027227Y017231D02*
X027610Y017231D01*
X027610Y016912D02*
X026984Y016912D01*
X026666Y016594D02*
X027610Y016594D01*
X029546Y015638D02*
X029546Y015638D01*
X029546Y015320D02*
X029546Y015320D01*
X029861Y015320D02*
X029883Y015320D01*
X029883Y015001D02*
X029494Y015001D01*
X029560Y014683D02*
X029883Y014683D01*
X029883Y014364D02*
X029365Y014364D01*
X028835Y014364D02*
X028336Y014364D01*
X028018Y014046D02*
X029883Y014046D01*
X030136Y013727D02*
X027699Y013727D01*
X030250Y012453D02*
X021003Y012453D01*
X021066Y012135D02*
X030229Y012135D01*
X030229Y012053D02*
X030786Y012053D01*
X030786Y012053D01*
X030786Y012610D01*
X030786Y012053D01*
X031343Y012053D01*
X030786Y012053D01*
X030786Y012053D01*
X030229Y012053D01*
X030786Y012053D02*
X030786Y012053D01*
X030786Y012135D02*
X030786Y012135D01*
X030786Y012453D02*
X030786Y012453D01*
X031322Y012453D02*
X033250Y012453D01*
X033229Y012135D02*
X031343Y012135D01*
X033229Y012053D02*
X033786Y012053D01*
X033786Y012053D01*
X033786Y012610D01*
X033786Y012053D01*
X034343Y012053D01*
X033786Y012053D01*
X033786Y012053D01*
X033229Y012053D01*
X033786Y012053D02*
X033786Y012053D01*
X033786Y012135D02*
X033786Y012135D01*
X033786Y012453D02*
X033786Y012453D01*
X034322Y012453D02*
X037282Y012453D01*
X037220Y012135D02*
X034343Y012135D01*
X036433Y013727D02*
X038400Y013727D01*
X038400Y013409D02*
X019885Y013409D01*
X019885Y013090D02*
X019956Y013090D01*
X020219Y013090D02*
X038066Y013090D01*
X038329Y013090D02*
X038400Y013090D01*
X037467Y012772D02*
X020818Y012772D01*
X025940Y018505D02*
X026343Y018505D01*
X026343Y018823D02*
X025940Y018823D01*
X026800Y018823D02*
X026800Y018823D01*
X029804Y017290D02*
X029849Y017309D01*
X029939Y017399D01*
X029944Y017410D01*
X030418Y017410D01*
X032351Y015477D01*
X032512Y015410D01*
X034772Y015410D01*
X034861Y015321D01*
X034979Y015273D01*
X035484Y015273D01*
X035484Y014570D01*
X034974Y014570D01*
X034857Y014521D01*
X034828Y014493D01*
X034370Y014493D01*
X034354Y014531D01*
X034264Y014621D01*
X034147Y014670D01*
X033425Y014670D01*
X033308Y014621D01*
X033218Y014531D01*
X033202Y014493D01*
X031370Y014493D01*
X031354Y014531D01*
X031264Y014621D01*
X031147Y014670D01*
X030763Y014670D01*
X030763Y016538D01*
X030696Y016699D01*
X030572Y016823D01*
X030533Y016839D01*
X030149Y017223D01*
X029988Y017290D01*
X029804Y017290D01*
X030131Y017231D02*
X030597Y017231D01*
X030460Y016912D02*
X030916Y016912D01*
X030740Y016594D02*
X031234Y016594D01*
X031553Y016275D02*
X030763Y016275D01*
X030763Y015957D02*
X031871Y015957D01*
X032190Y015638D02*
X030763Y015638D01*
X030763Y015320D02*
X034865Y015320D01*
X035484Y015001D02*
X030763Y015001D01*
X030763Y014683D02*
X035484Y014683D01*
X036364Y014683D02*
X038400Y014683D01*
X038400Y015001D02*
X036364Y015001D01*
X036364Y015320D02*
X038400Y015320D01*
X038400Y015638D02*
X036364Y015638D01*
X036364Y015957D02*
X038400Y015957D01*
X038400Y016275D02*
X036364Y016275D01*
X036364Y016594D02*
X038400Y016594D01*
X038400Y016912D02*
X036541Y016912D01*
X036859Y017231D02*
X038400Y017231D01*
X038400Y017549D02*
X037178Y017549D01*
X037416Y017868D02*
X038400Y017868D01*
X038400Y018186D02*
X037432Y018186D01*
X037432Y018505D02*
X038400Y018505D01*
X038400Y018823D02*
X037432Y018823D01*
X037432Y019142D02*
X038400Y019142D01*
X038400Y019460D02*
X037432Y019460D01*
X037432Y019779D02*
X038400Y019779D01*
X038400Y020097D02*
X037432Y020097D01*
X037432Y020416D02*
X038400Y020416D01*
X038400Y020734D02*
X037432Y020734D01*
X037585Y021053D02*
X038400Y021053D01*
X038400Y021371D02*
X037684Y021371D01*
X036389Y022008D02*
X031441Y022008D01*
X031459Y021850D02*
X030769Y021850D01*
X030769Y021850D01*
X030769Y021160D01*
X030814Y021160D01*
X030903Y021172D01*
X030991Y021195D01*
X031074Y021230D01*
X031153Y021275D01*
X031224Y021330D01*
X031288Y021394D01*
X031343Y021466D01*
X031389Y021544D01*
X031423Y021628D01*
X031447Y021715D01*
X031459Y021805D01*
X031459Y021850D01*
X031440Y021690D02*
X035790Y021690D01*
X035790Y021371D02*
X031265Y021371D01*
X030769Y021371D02*
X030768Y021371D01*
X030768Y021690D02*
X030769Y021690D01*
X030272Y021371D02*
X029382Y021371D01*
X029545Y021690D02*
X030097Y021690D01*
X030097Y022008D02*
X029546Y022008D01*
X028218Y021371D02*
X027413Y021371D01*
X027577Y021690D02*
X028055Y021690D01*
X028054Y022008D02*
X027578Y022008D01*
X035817Y017868D02*
X036139Y017868D01*
X035820Y017549D02*
X035721Y017549D01*
X036439Y014364D02*
X038400Y014364D01*
X038400Y014046D02*
X036460Y014046D01*
D22*
X035916Y016835D02*
X035916Y016850D01*
X035800Y016850D01*
D23*
X037600Y018650D03*
X037600Y020050D03*
X033700Y020450D03*
X032000Y018150D03*
X031400Y015350D03*
X033100Y015250D03*
X029100Y014750D03*
X026300Y015750D03*
X025100Y015750D03*
X024600Y019250D03*
X024600Y020250D03*
X026700Y020250D03*
X026700Y019250D03*
M02*
