G75*
%MOIN*%
%OFA0B0*%
%FSLAX24Y24*%
%IPPOS*%
%LPD*%
%AMOC8*
5,1,8,0,0,1.08239X$1,22.5*
%
%ADD10C,0.0000*%
%ADD11R,0.0595X0.0595*%
%ADD12C,0.0595*%
%ADD13C,0.0050*%
%ADD14C,0.0480*%
D10*
X000300Y000350D02*
X000300Y039720D01*
X063292Y039720D01*
X063292Y000350D01*
X000300Y000350D01*
D11*
X023115Y017356D03*
X025077Y025128D03*
X037311Y019803D03*
D12*
X037311Y020803D03*
X037311Y021803D03*
X025115Y017356D03*
X024115Y017356D03*
X024077Y025128D03*
X023077Y025128D03*
D13*
X019923Y026294D02*
X019925Y026333D01*
X019931Y026372D01*
X019941Y026410D01*
X019954Y026447D01*
X019971Y026482D01*
X019991Y026516D01*
X020015Y026547D01*
X020042Y026576D01*
X020071Y026602D01*
X020103Y026625D01*
X020137Y026645D01*
X020173Y026661D01*
X020210Y026673D01*
X020249Y026682D01*
X020288Y026687D01*
X020327Y026688D01*
X020366Y026685D01*
X020405Y026678D01*
X020442Y026667D01*
X020479Y026653D01*
X020514Y026635D01*
X020547Y026614D01*
X020578Y026589D01*
X020606Y026562D01*
X020631Y026532D01*
X020653Y026499D01*
X020672Y026465D01*
X020687Y026429D01*
X020699Y026391D01*
X020707Y026353D01*
X020711Y026314D01*
X020711Y026274D01*
X020707Y026235D01*
X020699Y026197D01*
X020687Y026159D01*
X020672Y026123D01*
X020653Y026089D01*
X020631Y026056D01*
X020606Y026026D01*
X020578Y025999D01*
X020547Y025974D01*
X020514Y025953D01*
X020479Y025935D01*
X020442Y025921D01*
X020405Y025910D01*
X020366Y025903D01*
X020327Y025900D01*
X020288Y025901D01*
X020249Y025906D01*
X020210Y025915D01*
X020173Y025927D01*
X020137Y025943D01*
X020103Y025963D01*
X020071Y025986D01*
X020042Y026012D01*
X020015Y026041D01*
X019991Y026072D01*
X019971Y026106D01*
X019954Y026141D01*
X019941Y026178D01*
X019931Y026216D01*
X019925Y026255D01*
X019923Y026294D01*
X019530Y026294D02*
X019530Y016057D01*
X019530Y015270D02*
X020317Y015270D01*
X038428Y015270D01*
X038034Y016057D02*
X038036Y016096D01*
X038042Y016135D01*
X038052Y016173D01*
X038065Y016210D01*
X038082Y016245D01*
X038102Y016279D01*
X038126Y016310D01*
X038153Y016339D01*
X038182Y016365D01*
X038214Y016388D01*
X038248Y016408D01*
X038284Y016424D01*
X038321Y016436D01*
X038360Y016445D01*
X038399Y016450D01*
X038438Y016451D01*
X038477Y016448D01*
X038516Y016441D01*
X038553Y016430D01*
X038590Y016416D01*
X038625Y016398D01*
X038658Y016377D01*
X038689Y016352D01*
X038717Y016325D01*
X038742Y016295D01*
X038764Y016262D01*
X038783Y016228D01*
X038798Y016192D01*
X038810Y016154D01*
X038818Y016116D01*
X038822Y016077D01*
X038822Y016037D01*
X038818Y015998D01*
X038810Y015960D01*
X038798Y015922D01*
X038783Y015886D01*
X038764Y015852D01*
X038742Y015819D01*
X038717Y015789D01*
X038689Y015762D01*
X038658Y015737D01*
X038625Y015716D01*
X038590Y015698D01*
X038553Y015684D01*
X038516Y015673D01*
X038477Y015666D01*
X038438Y015663D01*
X038399Y015664D01*
X038360Y015669D01*
X038321Y015678D01*
X038284Y015690D01*
X038248Y015706D01*
X038214Y015726D01*
X038182Y015749D01*
X038153Y015775D01*
X038126Y015804D01*
X038102Y015835D01*
X038082Y015869D01*
X038065Y015904D01*
X038052Y015941D01*
X038042Y015979D01*
X038036Y016018D01*
X038034Y016057D01*
X038428Y015270D02*
X038482Y015272D01*
X038535Y015277D01*
X038588Y015286D01*
X038640Y015299D01*
X038692Y015315D01*
X038742Y015335D01*
X038790Y015358D01*
X038837Y015385D01*
X038882Y015414D01*
X038925Y015447D01*
X038965Y015482D01*
X039003Y015520D01*
X039038Y015560D01*
X039071Y015603D01*
X039100Y015648D01*
X039127Y015695D01*
X039150Y015743D01*
X039170Y015793D01*
X039186Y015845D01*
X039199Y015897D01*
X039208Y015950D01*
X039213Y016003D01*
X039215Y016057D01*
X039215Y026294D01*
X038034Y026294D02*
X038036Y026333D01*
X038042Y026372D01*
X038052Y026410D01*
X038065Y026447D01*
X038082Y026482D01*
X038102Y026516D01*
X038126Y026547D01*
X038153Y026576D01*
X038182Y026602D01*
X038214Y026625D01*
X038248Y026645D01*
X038284Y026661D01*
X038321Y026673D01*
X038360Y026682D01*
X038399Y026687D01*
X038438Y026688D01*
X038477Y026685D01*
X038516Y026678D01*
X038553Y026667D01*
X038590Y026653D01*
X038625Y026635D01*
X038658Y026614D01*
X038689Y026589D01*
X038717Y026562D01*
X038742Y026532D01*
X038764Y026499D01*
X038783Y026465D01*
X038798Y026429D01*
X038810Y026391D01*
X038818Y026353D01*
X038822Y026314D01*
X038822Y026274D01*
X038818Y026235D01*
X038810Y026197D01*
X038798Y026159D01*
X038783Y026123D01*
X038764Y026089D01*
X038742Y026056D01*
X038717Y026026D01*
X038689Y025999D01*
X038658Y025974D01*
X038625Y025953D01*
X038590Y025935D01*
X038553Y025921D01*
X038516Y025910D01*
X038477Y025903D01*
X038438Y025900D01*
X038399Y025901D01*
X038360Y025906D01*
X038321Y025915D01*
X038284Y025927D01*
X038248Y025943D01*
X038214Y025963D01*
X038182Y025986D01*
X038153Y026012D01*
X038126Y026041D01*
X038102Y026072D01*
X038082Y026106D01*
X038065Y026141D01*
X038052Y026178D01*
X038042Y026216D01*
X038036Y026255D01*
X038034Y026294D01*
X038428Y027081D02*
X038482Y027079D01*
X038535Y027074D01*
X038588Y027065D01*
X038640Y027052D01*
X038692Y027036D01*
X038742Y027016D01*
X038790Y026993D01*
X038837Y026966D01*
X038882Y026937D01*
X038925Y026904D01*
X038965Y026869D01*
X039003Y026831D01*
X039038Y026791D01*
X039071Y026748D01*
X039100Y026703D01*
X039127Y026656D01*
X039150Y026608D01*
X039170Y026558D01*
X039186Y026506D01*
X039199Y026454D01*
X039208Y026401D01*
X039213Y026348D01*
X039215Y026294D01*
X038428Y027081D02*
X020317Y027081D01*
X020263Y027079D01*
X020210Y027074D01*
X020157Y027065D01*
X020105Y027052D01*
X020053Y027036D01*
X020003Y027016D01*
X019955Y026993D01*
X019908Y026966D01*
X019863Y026937D01*
X019820Y026904D01*
X019780Y026869D01*
X019742Y026831D01*
X019707Y026791D01*
X019674Y026748D01*
X019645Y026703D01*
X019618Y026656D01*
X019595Y026608D01*
X019575Y026558D01*
X019559Y026506D01*
X019546Y026454D01*
X019537Y026401D01*
X019532Y026348D01*
X019530Y026294D01*
X030082Y025758D02*
X030088Y025691D01*
X030106Y025626D01*
X030136Y025566D01*
X030178Y025513D01*
X030229Y025470D01*
X030288Y025437D01*
X030352Y025416D01*
X030418Y025409D01*
X030487Y025414D01*
X030553Y025432D01*
X030614Y025463D01*
X030668Y025506D01*
X030712Y025558D01*
X030746Y025617D01*
X030767Y025682D01*
X030775Y025750D01*
X030768Y025819D01*
X030747Y025886D01*
X030714Y025947D01*
X030670Y026000D01*
X030616Y026044D01*
X030554Y026076D01*
X030488Y026095D01*
X030418Y026101D01*
X030352Y026094D01*
X030289Y026074D01*
X030230Y026042D01*
X030179Y025999D01*
X030138Y025947D01*
X030107Y025888D01*
X030088Y025824D01*
X030082Y025758D01*
X030083Y025764D02*
X030774Y025764D01*
X030771Y025716D02*
X030086Y025716D01*
X030094Y025667D02*
X030762Y025667D01*
X030746Y025619D02*
X030110Y025619D01*
X030134Y025570D02*
X030719Y025570D01*
X030682Y025522D02*
X030172Y025522D01*
X030225Y025473D02*
X030627Y025473D01*
X030526Y025425D02*
X030326Y025425D01*
X030087Y025813D02*
X030769Y025813D01*
X030755Y025861D02*
X030099Y025861D01*
X030118Y025910D02*
X030734Y025910D01*
X030705Y025958D02*
X030146Y025958D01*
X030188Y026007D02*
X030661Y026007D01*
X030594Y026055D02*
X030254Y026055D01*
X031160Y025826D02*
X031179Y025889D01*
X031210Y025948D01*
X031252Y026000D01*
X031303Y026042D01*
X031361Y026074D01*
X031424Y026093D01*
X031490Y026100D01*
X031559Y026094D01*
X031625Y026074D01*
X031687Y026042D01*
X031740Y025998D01*
X031784Y025945D01*
X031817Y025884D01*
X031837Y025818D01*
X031844Y025749D01*
X031837Y025683D01*
X031816Y025618D01*
X031783Y025560D01*
X031740Y025508D01*
X031687Y025466D01*
X031627Y025435D01*
X031563Y025417D01*
X031495Y025411D01*
X031428Y025419D01*
X031364Y025439D01*
X031305Y025471D01*
X031253Y025515D01*
X031210Y025567D01*
X031179Y025627D01*
X031160Y025692D01*
X031154Y025760D01*
X031160Y025826D01*
X031159Y025813D02*
X031838Y025813D01*
X031843Y025764D02*
X031155Y025764D01*
X031158Y025716D02*
X031841Y025716D01*
X031832Y025667D02*
X031168Y025667D01*
X031184Y025619D02*
X031816Y025619D01*
X031789Y025570D02*
X031209Y025570D01*
X031247Y025522D02*
X031751Y025522D01*
X031696Y025473D02*
X031303Y025473D01*
X031410Y025425D02*
X031589Y025425D01*
X031824Y025861D02*
X031171Y025861D01*
X031190Y025910D02*
X031803Y025910D01*
X031773Y025958D02*
X031218Y025958D01*
X031260Y026007D02*
X031730Y026007D01*
X031662Y026055D02*
X031327Y026055D01*
X032230Y025828D02*
X032249Y025892D01*
X032280Y025950D01*
X032322Y026002D01*
X032373Y026044D01*
X032431Y026075D01*
X032495Y026095D01*
X032560Y026101D01*
X032628Y026095D01*
X032694Y026076D01*
X032755Y026045D01*
X032808Y026002D01*
X032852Y025950D01*
X032885Y025890D01*
X032905Y025824D01*
X032912Y025757D01*
X032905Y025689D01*
X032885Y025623D01*
X032852Y025563D01*
X032808Y025511D01*
X032755Y025468D01*
X032694Y025437D01*
X032628Y025418D01*
X032560Y025411D01*
X032493Y025419D01*
X032429Y025440D01*
X032370Y025473D01*
X032319Y025517D01*
X032277Y025570D01*
X032247Y025630D01*
X032229Y025695D01*
X032223Y025763D01*
X032230Y025828D01*
X032228Y025813D02*
X032906Y025813D01*
X032912Y025764D02*
X032224Y025764D01*
X032227Y025716D02*
X032908Y025716D01*
X032898Y025667D02*
X032237Y025667D01*
X032253Y025619D02*
X032882Y025619D01*
X032855Y025570D02*
X032277Y025570D01*
X032316Y025522D02*
X032817Y025522D01*
X032761Y025473D02*
X032371Y025473D01*
X032478Y025425D02*
X032653Y025425D01*
X032894Y025861D02*
X032239Y025861D01*
X032258Y025910D02*
X032874Y025910D01*
X032845Y025958D02*
X032286Y025958D01*
X032327Y026007D02*
X032802Y026007D01*
X032735Y026055D02*
X032393Y026055D01*
X019923Y016057D02*
X019925Y016096D01*
X019931Y016135D01*
X019941Y016173D01*
X019954Y016210D01*
X019971Y016245D01*
X019991Y016279D01*
X020015Y016310D01*
X020042Y016339D01*
X020071Y016365D01*
X020103Y016388D01*
X020137Y016408D01*
X020173Y016424D01*
X020210Y016436D01*
X020249Y016445D01*
X020288Y016450D01*
X020327Y016451D01*
X020366Y016448D01*
X020405Y016441D01*
X020442Y016430D01*
X020479Y016416D01*
X020514Y016398D01*
X020547Y016377D01*
X020578Y016352D01*
X020606Y016325D01*
X020631Y016295D01*
X020653Y016262D01*
X020672Y016228D01*
X020687Y016192D01*
X020699Y016154D01*
X020707Y016116D01*
X020711Y016077D01*
X020711Y016037D01*
X020707Y015998D01*
X020699Y015960D01*
X020687Y015922D01*
X020672Y015886D01*
X020653Y015852D01*
X020631Y015819D01*
X020606Y015789D01*
X020578Y015762D01*
X020547Y015737D01*
X020514Y015716D01*
X020479Y015698D01*
X020442Y015684D01*
X020405Y015673D01*
X020366Y015666D01*
X020327Y015663D01*
X020288Y015664D01*
X020249Y015669D01*
X020210Y015678D01*
X020173Y015690D01*
X020137Y015706D01*
X020103Y015726D01*
X020071Y015749D01*
X020042Y015775D01*
X020015Y015804D01*
X019991Y015835D01*
X019971Y015869D01*
X019954Y015904D01*
X019941Y015941D01*
X019931Y015979D01*
X019925Y016018D01*
X019923Y016057D01*
X019530Y016057D02*
X019532Y016003D01*
X019537Y015950D01*
X019546Y015897D01*
X019559Y015845D01*
X019575Y015793D01*
X019595Y015743D01*
X019618Y015695D01*
X019645Y015648D01*
X019674Y015603D01*
X019707Y015560D01*
X019742Y015520D01*
X019780Y015482D01*
X019820Y015447D01*
X019863Y015414D01*
X019908Y015385D01*
X019955Y015358D01*
X020003Y015335D01*
X020053Y015315D01*
X020105Y015299D01*
X020157Y015286D01*
X020210Y015277D01*
X020263Y015272D01*
X020317Y015270D01*
D14*
X026530Y017360D03*
X028600Y017310D03*
X028670Y020550D03*
X026590Y020540D03*
X023060Y022160D03*
X026560Y023280D03*
X028750Y023270D03*
X031890Y022730D03*
X033790Y022630D03*
X035240Y022600D03*
M02*
