G75*
%MOIN*%
%OFA0B0*%
%FSLAX25Y25*%
%IPPOS*%
%LPD*%
%AMOC8*
5,1,8,0,0,1.08239X$1,22.5*
%
%ADD10C,0.00000*%
%ADD11R,0.00100X0.00100*%
%ADD12R,0.00400X0.00100*%
%ADD13R,0.00500X0.00100*%
%ADD14R,0.00600X0.00100*%
%ADD15R,0.01000X0.00100*%
%ADD16R,0.00800X0.00100*%
%ADD17R,0.01200X0.00100*%
%ADD18R,0.00300X0.00100*%
%ADD19R,0.01400X0.00100*%
%ADD20R,0.01600X0.00100*%
%ADD21R,0.00700X0.00100*%
%ADD22R,0.02100X0.00100*%
%ADD23R,0.02700X0.00100*%
%ADD24R,0.02900X0.00100*%
%ADD25R,0.02200X0.00100*%
%ADD26R,0.00900X0.00100*%
%ADD27R,0.01100X0.00100*%
%ADD28R,0.02300X0.00100*%
%ADD29R,0.06100X0.00100*%
%ADD30R,0.00200X0.00100*%
%ADD31R,0.02400X0.00100*%
%ADD32R,0.02500X0.00100*%
%ADD33R,0.02600X0.00100*%
%ADD34R,0.04700X0.00100*%
%ADD35R,0.04600X0.00100*%
%ADD36R,0.05000X0.00100*%
%ADD37R,0.01300X0.00100*%
%ADD38R,0.02800X0.00100*%
%ADD39R,0.01500X0.00100*%
%ADD40R,0.01700X0.00100*%
%ADD41R,0.02000X0.00100*%
%ADD42R,0.03000X0.00100*%
%ADD43R,0.03700X0.00100*%
%ADD44R,0.01900X0.00100*%
%ADD45R,0.00100X0.00400*%
%ADD46R,0.00100X0.00700*%
%ADD47R,0.00100X0.01000*%
%ADD48R,0.00100X0.00900*%
%ADD49R,0.00100X0.01200*%
%ADD50R,0.00100X0.00500*%
%ADD51R,0.00100X0.01300*%
%ADD52R,0.00100X0.01100*%
%ADD53R,0.00100X0.05200*%
%ADD54R,0.00100X0.00300*%
%ADD55R,0.00100X0.01500*%
%ADD56R,0.00100X0.01700*%
%ADD57R,0.00100X0.02100*%
%ADD58R,0.00100X0.01600*%
%ADD59R,0.00100X0.02000*%
%ADD60R,0.00100X0.04800*%
%ADD61R,0.00100X0.00600*%
%ADD62R,0.00100X0.00800*%
%ADD63R,0.00100X0.02200*%
%ADD64R,0.00100X0.03000*%
%ADD65R,0.00100X0.03700*%
%ADD66R,0.00100X0.02300*%
%ADD67R,0.01800X0.00100*%
%ADD68R,0.03200X0.00100*%
%ADD69R,0.03400X0.00100*%
%ADD70R,0.03800X0.00100*%
%ADD71R,0.03900X0.00100*%
%ADD72R,0.03500X0.00100*%
%ADD73R,0.04100X0.00100*%
%ADD74R,0.04200X0.00100*%
%ADD75R,0.03100X0.00100*%
%ADD76R,0.04400X0.00100*%
%ADD77R,0.03300X0.00100*%
%ADD78R,0.03600X0.00100*%
%ADD79R,0.04000X0.00100*%
%ADD80R,0.04800X0.00100*%
%ADD81R,0.04300X0.00100*%
%ADD82R,0.04900X0.00100*%
%ADD83R,0.04500X0.00100*%
%ADD84R,0.05200X0.00100*%
%ADD85R,0.05700X0.00100*%
%ADD86R,0.06700X0.00100*%
%ADD87R,0.07200X0.00100*%
%ADD88R,0.07800X0.00100*%
%ADD89R,0.08300X0.00100*%
%ADD90R,0.08900X0.00100*%
%ADD91R,0.07900X0.00100*%
%ADD92R,0.07000X0.00100*%
%ADD93R,0.05300X0.00100*%
%ADD94R,0.05400X0.00100*%
%ADD95R,0.12100X0.00100*%
%ADD96R,0.05900X0.00100*%
%ADD97R,0.06400X0.00100*%
%ADD98R,0.11400X0.00100*%
%ADD99R,0.06600X0.00100*%
%ADD100R,0.06500X0.00100*%
%ADD101R,0.09200X0.00100*%
%ADD102R,0.09100X0.00100*%
%ADD103R,0.11600X0.00100*%
%ADD104R,0.09000X0.00100*%
%ADD105R,0.12500X0.00100*%
%ADD106R,0.12600X0.00100*%
%ADD107R,0.06800X0.00100*%
%ADD108R,0.06000X0.00100*%
%ADD109R,0.16600X0.00100*%
%ADD110R,0.13000X0.00100*%
%ADD111R,0.11300X0.00100*%
%ADD112R,0.00100X0.00200*%
%ADD113R,0.00100X0.01900*%
%ADD114R,0.00100X0.02400*%
%ADD115R,0.00100X0.02500*%
%ADD116R,0.00100X0.02700*%
%ADD117R,0.00100X0.02800*%
%ADD118R,0.00100X0.02900*%
%ADD119R,0.00100X0.03100*%
%ADD120R,0.00100X0.03200*%
%ADD121R,0.00100X0.03300*%
%ADD122R,0.00100X0.03400*%
%ADD123R,0.00100X0.03500*%
%ADD124R,0.00100X0.03600*%
%ADD125R,0.00100X0.03900*%
%ADD126R,0.00100X0.04000*%
%ADD127R,0.00100X0.04100*%
%ADD128R,0.00100X0.04300*%
%ADD129R,0.00100X0.04400*%
%ADD130R,0.00100X0.04500*%
%ADD131R,0.00100X0.04600*%
%ADD132R,0.00100X0.04900*%
%ADD133R,0.00100X0.05000*%
%ADD134R,0.00100X0.05300*%
%ADD135R,0.00100X0.05400*%
%ADD136R,0.00100X0.05600*%
%ADD137R,0.00100X0.05700*%
%ADD138R,0.00100X0.05800*%
%ADD139R,0.00100X0.06000*%
%ADD140R,0.00100X0.06100*%
%ADD141R,0.00100X0.06200*%
%ADD142R,0.00100X0.06400*%
%ADD143R,0.00100X0.06500*%
%ADD144R,0.00100X0.06600*%
%ADD145R,0.00100X0.06700*%
%ADD146R,0.00100X0.06800*%
%ADD147R,0.00100X0.06900*%
%ADD148R,0.00100X0.07000*%
%ADD149R,0.00100X0.07200*%
%ADD150R,0.00100X0.07300*%
%ADD151R,0.00100X0.07400*%
%ADD152R,0.00100X0.07600*%
%ADD153R,0.00100X0.07700*%
%ADD154R,0.00100X0.07800*%
%ADD155R,0.00100X0.08000*%
%ADD156R,0.00100X0.16100*%
%ADD157R,0.00100X0.15700*%
%ADD158R,0.00100X0.15100*%
%ADD159R,0.00100X0.14300*%
%ADD160R,0.00100X0.13500*%
%ADD161R,0.00100X0.12900*%
%ADD162R,0.00100X0.12100*%
%ADD163R,0.00100X0.11300*%
%ADD164R,0.00100X0.10600*%
%ADD165R,0.00100X0.09900*%
%ADD166R,0.00100X0.09100*%
%ADD167R,0.00100X0.08300*%
%ADD168R,0.00100X0.19700*%
%ADD169R,0.00100X0.19800*%
%ADD170R,0.00100X0.19900*%
%ADD171R,0.00100X0.04700*%
%ADD172R,0.00100X0.05100*%
%ADD173R,0.00100X0.05500*%
%ADD174R,0.00100X0.20500*%
%ADD175R,0.00100X0.20600*%
%ADD176R,0.00100X0.20700*%
%ADD177R,0.00100X0.10300*%
%ADD178R,0.00100X0.10200*%
%ADD179R,0.00100X0.10100*%
%ADD180R,0.00100X0.10000*%
%ADD181R,0.00100X0.09800*%
%ADD182R,0.00100X0.09700*%
%ADD183R,0.00100X0.09600*%
%ADD184R,0.00100X0.09500*%
%ADD185R,0.00100X0.09400*%
%ADD186R,0.00100X0.09300*%
%ADD187R,0.00100X0.09200*%
%ADD188R,0.00100X0.09000*%
%ADD189R,0.00100X0.08900*%
%ADD190R,0.00100X0.08800*%
%ADD191R,0.00100X0.08700*%
%ADD192R,0.00100X0.08600*%
%ADD193R,0.00100X0.08500*%
%ADD194R,0.00100X0.08400*%
%ADD195R,0.00100X0.08200*%
%ADD196R,0.00100X0.08100*%
%ADD197R,0.00100X0.07900*%
%ADD198R,0.00100X0.07500*%
%ADD199R,0.00100X0.07100*%
%ADD200R,0.00100X0.06300*%
%ADD201R,0.00100X0.05900*%
%ADD202R,0.00100X0.04200*%
%ADD203R,0.00100X0.03800*%
%ADD204R,0.00100X0.02600*%
%ADD205R,0.00100X0.01800*%
%ADD206R,0.00100X0.01400*%
%ADD207C,0.01500*%
%ADD208C,0.00100*%
%ADD209C,0.00500*%
%ADD210C,0.00400*%
%ADD211C,0.00600*%
%ADD212C,0.00200*%
%ADD213R,0.00886X0.00984*%
%ADD214C,0.00300*%
%ADD215C,0.00800*%
%ADD216C,0.00700*%
%ADD217R,0.03000X0.01800*%
%ADD218C,0.00591*%
D10*
X0003033Y0003000D02*
X0003100Y0003000D01*
X0003133Y0003033D01*
X0003100Y0003000D01*
X0003033Y0003000D01*
X0003000Y0003033D01*
X0003000Y0003167D01*
X0003033Y0003200D01*
X0003100Y0003200D01*
X0003133Y0003167D01*
X0003100Y0003200D01*
X0003033Y0003200D01*
X0003000Y0003167D01*
X0003000Y0003033D01*
X0003033Y0003000D01*
X0003100Y0003000D01*
X0003133Y0003033D01*
X0003100Y0003000D01*
X0003033Y0003000D01*
X0003000Y0003033D01*
X0003000Y0003167D01*
X0003033Y0003200D01*
X0003100Y0003200D01*
X0003133Y0003167D01*
X0003100Y0003200D01*
X0003033Y0003200D01*
X0003000Y0003167D01*
X0003000Y0003033D01*
X0003033Y0003000D01*
X0003100Y0003000D01*
X0003133Y0003033D01*
X0003100Y0003000D01*
X0003033Y0003000D01*
X0003000Y0003033D01*
X0003000Y0003167D01*
X0003033Y0003200D01*
X0003100Y0003200D01*
X0003133Y0003167D01*
X0003100Y0003200D01*
X0003033Y0003200D01*
X0003000Y0003167D01*
X0003000Y0003033D01*
X0003033Y0003000D01*
X0003100Y0003000D01*
X0003133Y0003033D01*
X0003184Y0003033D02*
X0003184Y0003000D01*
X0003218Y0003000D01*
X0003218Y0003033D01*
X0003184Y0003033D01*
X0003184Y0003000D01*
X0003218Y0003000D01*
X0003218Y0003033D01*
X0003184Y0003033D01*
X0003184Y0003000D01*
X0003218Y0003000D01*
X0003218Y0003033D01*
X0003184Y0003033D01*
X0003184Y0003000D01*
X0003218Y0003000D01*
X0003218Y0003033D01*
X0003184Y0003033D01*
X0003184Y0003000D01*
X0003218Y0003000D01*
X0003218Y0003033D01*
X0003184Y0003033D01*
X0003184Y0003000D01*
X0003218Y0003000D01*
X0003218Y0003033D01*
X0003184Y0003033D01*
X0003184Y0003000D01*
X0003218Y0003000D01*
X0003218Y0003033D01*
X0003184Y0003033D01*
X0003184Y0003100D02*
X0003184Y0003133D01*
X0003218Y0003133D01*
X0003218Y0003100D01*
X0003184Y0003100D01*
X0003184Y0003133D01*
X0003218Y0003133D01*
X0003218Y0003100D01*
X0003184Y0003100D01*
X0003184Y0003133D01*
X0003218Y0003133D01*
X0003218Y0003100D01*
X0003184Y0003100D01*
X0003184Y0003133D01*
X0003218Y0003133D01*
X0003218Y0003100D01*
X0003184Y0003100D01*
X0003184Y0003133D01*
X0003218Y0003133D01*
X0003218Y0003100D01*
X0003184Y0003100D01*
X0003184Y0003133D01*
X0003218Y0003133D01*
X0003218Y0003100D01*
X0003184Y0003100D01*
X0003184Y0003133D01*
X0003218Y0003133D01*
X0003218Y0003100D01*
X0003184Y0003100D01*
X0003133Y0003167D02*
X0003100Y0003200D01*
X0003033Y0003200D01*
X0003000Y0003167D01*
X0003000Y0003033D01*
X0003033Y0003000D01*
X0003276Y0003000D02*
X0003410Y0003200D01*
X0003276Y0003000D01*
X0003410Y0003200D01*
X0003276Y0003000D01*
X0003410Y0003200D01*
X0003276Y0003000D01*
X0003410Y0003200D01*
X0003460Y0003200D02*
X0003460Y0003033D01*
X0003494Y0003000D01*
X0003560Y0003000D01*
X0003594Y0003033D01*
X0003594Y0003200D01*
X0003594Y0003033D01*
X0003560Y0003000D01*
X0003494Y0003000D01*
X0003460Y0003033D01*
X0003460Y0003200D01*
X0003460Y0003033D01*
X0003494Y0003000D01*
X0003560Y0003000D01*
X0003594Y0003033D01*
X0003594Y0003200D01*
X0003594Y0003033D01*
X0003560Y0003000D01*
X0003494Y0003000D01*
X0003460Y0003033D01*
X0003460Y0003200D01*
X0003460Y0003033D01*
X0003494Y0003000D01*
X0003560Y0003000D01*
X0003594Y0003033D01*
X0003594Y0003200D01*
X0003594Y0003033D01*
X0003560Y0003000D01*
X0003494Y0003000D01*
X0003460Y0003033D01*
X0003460Y0003200D01*
X0003460Y0003033D01*
X0003494Y0003000D01*
X0003560Y0003000D01*
X0003594Y0003033D01*
X0003594Y0003200D01*
X0003678Y0003133D02*
X0003778Y0003133D01*
X0003678Y0003133D01*
X0003645Y0003100D01*
X0003678Y0003067D01*
X0003745Y0003067D01*
X0003778Y0003033D01*
X0003745Y0003000D01*
X0003645Y0003000D01*
X0003745Y0003000D01*
X0003778Y0003033D01*
X0003745Y0003067D01*
X0003678Y0003067D01*
X0003645Y0003100D01*
X0003678Y0003133D01*
X0003778Y0003133D01*
X0003678Y0003133D01*
X0003645Y0003100D01*
X0003678Y0003067D01*
X0003745Y0003067D01*
X0003778Y0003033D01*
X0003745Y0003000D01*
X0003645Y0003000D01*
X0003745Y0003000D01*
X0003778Y0003033D01*
X0003745Y0003067D01*
X0003678Y0003067D01*
X0003645Y0003100D01*
X0003678Y0003133D01*
X0003778Y0003133D01*
X0003678Y0003133D01*
X0003645Y0003100D01*
X0003678Y0003067D01*
X0003745Y0003067D01*
X0003778Y0003033D01*
X0003745Y0003000D01*
X0003645Y0003000D01*
X0003745Y0003000D01*
X0003778Y0003033D01*
X0003745Y0003067D01*
X0003678Y0003067D01*
X0003645Y0003100D01*
X0003678Y0003133D01*
X0003778Y0003133D01*
X0003829Y0003100D02*
X0003862Y0003133D01*
X0003929Y0003133D01*
X0003962Y0003100D01*
X0003962Y0003067D01*
X0003829Y0003067D01*
X0003962Y0003067D01*
X0003962Y0003100D01*
X0003929Y0003133D01*
X0003862Y0003133D01*
X0003829Y0003100D01*
X0003829Y0003033D01*
X0003862Y0003000D01*
X0003929Y0003000D01*
X0003862Y0003000D01*
X0003829Y0003033D01*
X0003829Y0003100D01*
X0003862Y0003133D01*
X0003929Y0003133D01*
X0003962Y0003100D01*
X0003962Y0003067D01*
X0003829Y0003067D01*
X0003962Y0003067D01*
X0003962Y0003100D01*
X0003929Y0003133D01*
X0003862Y0003133D01*
X0003829Y0003100D01*
X0003829Y0003033D01*
X0003862Y0003000D01*
X0003929Y0003000D01*
X0003862Y0003000D01*
X0003829Y0003033D01*
X0003829Y0003100D01*
X0003862Y0003133D01*
X0003929Y0003133D01*
X0003962Y0003100D01*
X0003962Y0003067D01*
X0003829Y0003067D01*
X0003962Y0003067D01*
X0003962Y0003100D01*
X0003929Y0003133D01*
X0003862Y0003133D01*
X0003829Y0003100D01*
X0003829Y0003033D01*
X0003862Y0003000D01*
X0003929Y0003000D01*
X0003862Y0003000D01*
X0003829Y0003033D01*
X0003829Y0003100D01*
X0003862Y0003133D01*
X0003929Y0003133D01*
X0003962Y0003100D01*
X0003962Y0003067D01*
X0003829Y0003067D01*
X0003829Y0003100D02*
X0003829Y0003033D01*
X0003862Y0003000D01*
X0003929Y0003000D01*
X0004013Y0003000D02*
X0004013Y0003133D01*
X0004013Y0003000D01*
X0004013Y0003133D01*
X0004013Y0003000D01*
X0004013Y0003133D01*
X0004013Y0003000D01*
X0004013Y0003133D01*
X0004013Y0003067D02*
X0004080Y0003133D01*
X0004113Y0003133D01*
X0004080Y0003133D01*
X0004013Y0003067D01*
X0004080Y0003133D01*
X0004113Y0003133D01*
X0004080Y0003133D01*
X0004013Y0003067D01*
X0004080Y0003133D01*
X0004113Y0003133D01*
X0004080Y0003133D01*
X0004013Y0003067D01*
X0004080Y0003133D01*
X0004113Y0003133D01*
X0004166Y0003100D02*
X0004200Y0003133D01*
X0004300Y0003133D01*
X0004200Y0003133D01*
X0004166Y0003100D01*
X0004200Y0003067D01*
X0004266Y0003067D01*
X0004300Y0003033D01*
X0004266Y0003000D01*
X0004166Y0003000D01*
X0004266Y0003000D01*
X0004300Y0003033D01*
X0004266Y0003067D01*
X0004200Y0003067D01*
X0004166Y0003100D01*
X0004200Y0003133D01*
X0004300Y0003133D01*
X0004200Y0003133D01*
X0004166Y0003100D01*
X0004200Y0003067D01*
X0004266Y0003067D01*
X0004300Y0003033D01*
X0004266Y0003000D01*
X0004166Y0003000D01*
X0004266Y0003000D01*
X0004300Y0003033D01*
X0004266Y0003067D01*
X0004200Y0003067D01*
X0004166Y0003100D01*
X0004200Y0003133D01*
X0004300Y0003133D01*
X0004200Y0003133D01*
X0004166Y0003100D01*
X0004200Y0003067D01*
X0004266Y0003067D01*
X0004300Y0003033D01*
X0004266Y0003000D01*
X0004166Y0003000D01*
X0004266Y0003000D01*
X0004300Y0003033D01*
X0004266Y0003067D01*
X0004200Y0003067D01*
X0004166Y0003100D01*
X0004200Y0003133D01*
X0004300Y0003133D01*
X0004266Y0003067D02*
X0004200Y0003067D01*
X0004166Y0003100D01*
X0004166Y0003000D02*
X0004266Y0003000D01*
X0004300Y0003033D01*
X0004266Y0003067D01*
X0004350Y0003000D02*
X0004484Y0003200D01*
X0004350Y0003000D01*
X0004484Y0003200D01*
X0004350Y0003000D01*
X0004484Y0003200D01*
X0004350Y0003000D01*
X0004484Y0003200D01*
X0004535Y0003200D02*
X0004668Y0003000D01*
X0004535Y0003200D01*
X0004668Y0003000D01*
X0004535Y0003200D01*
X0004668Y0003000D01*
X0004535Y0003200D01*
X0004668Y0003000D01*
X0004719Y0003000D02*
X0004785Y0003000D01*
X0004719Y0003000D01*
X0004785Y0003000D01*
X0004719Y0003000D01*
X0004785Y0003000D01*
X0004719Y0003000D01*
X0004785Y0003000D01*
X0004752Y0003000D02*
X0004752Y0003133D01*
X0004719Y0003133D01*
X0004752Y0003133D01*
X0004752Y0003000D01*
X0004752Y0003133D01*
X0004719Y0003133D01*
X0004752Y0003133D01*
X0004752Y0003000D01*
X0004752Y0003133D01*
X0004719Y0003133D01*
X0004752Y0003133D01*
X0004752Y0003000D01*
X0004752Y0003133D01*
X0004719Y0003133D01*
X0004752Y0003200D02*
X0004752Y0003234D01*
X0004752Y0003200D01*
X0004752Y0003234D01*
X0004752Y0003200D01*
X0004752Y0003234D01*
X0004752Y0003200D01*
X0004752Y0003234D01*
X0004668Y0003200D02*
X0004535Y0003000D01*
X0004668Y0003200D01*
X0004535Y0003000D01*
X0004668Y0003200D01*
X0004535Y0003000D01*
X0004668Y0003200D01*
X0004535Y0003000D01*
X0004842Y0003033D02*
X0004875Y0003067D01*
X0004975Y0003067D01*
X0004875Y0003067D01*
X0004842Y0003033D01*
X0004875Y0003000D01*
X0004975Y0003000D01*
X0004975Y0003100D01*
X0004942Y0003133D01*
X0004875Y0003133D01*
X0004942Y0003133D01*
X0004975Y0003100D01*
X0004975Y0003000D01*
X0004875Y0003000D01*
X0004842Y0003033D01*
X0004875Y0003067D01*
X0004975Y0003067D01*
X0004875Y0003067D01*
X0004842Y0003033D01*
X0004875Y0003000D01*
X0004975Y0003000D01*
X0004975Y0003100D01*
X0004942Y0003133D01*
X0004875Y0003133D01*
X0004942Y0003133D01*
X0004975Y0003100D01*
X0004975Y0003000D01*
X0004875Y0003000D01*
X0004842Y0003033D01*
X0004875Y0003067D01*
X0004975Y0003067D01*
X0004875Y0003067D01*
X0004842Y0003033D01*
X0004875Y0003000D01*
X0004975Y0003000D01*
X0004975Y0003100D01*
X0004942Y0003133D01*
X0004875Y0003133D01*
X0004942Y0003133D01*
X0004975Y0003100D01*
X0004975Y0003000D01*
X0004875Y0003000D01*
X0004842Y0003033D01*
X0004875Y0003067D01*
X0004975Y0003067D01*
X0004975Y0003100D02*
X0004975Y0003000D01*
X0004875Y0003000D01*
X0004842Y0003033D01*
X0004875Y0003133D02*
X0004942Y0003133D01*
X0004975Y0003100D01*
X0005026Y0003133D02*
X0005126Y0003133D01*
X0005159Y0003100D01*
X0005159Y0003000D01*
X0005159Y0003100D01*
X0005126Y0003133D01*
X0005026Y0003133D01*
X0005026Y0003000D01*
X0005026Y0003133D01*
X0005126Y0003133D01*
X0005159Y0003100D01*
X0005159Y0003000D01*
X0005159Y0003100D01*
X0005126Y0003133D01*
X0005026Y0003133D01*
X0005026Y0003000D01*
X0005026Y0003133D01*
X0005126Y0003133D01*
X0005159Y0003100D01*
X0005159Y0003000D01*
X0005159Y0003100D01*
X0005126Y0003133D01*
X0005026Y0003133D01*
X0005026Y0003000D01*
X0005026Y0003133D01*
X0005126Y0003133D01*
X0005159Y0003100D01*
X0005159Y0003000D01*
X0005210Y0003033D02*
X0005243Y0003000D01*
X0005343Y0003000D01*
X0005243Y0003000D01*
X0005210Y0003033D01*
X0005210Y0003100D01*
X0005243Y0003133D01*
X0005343Y0003133D01*
X0005343Y0002967D01*
X0005310Y0002933D01*
X0005277Y0002933D01*
X0005310Y0002933D01*
X0005343Y0002967D01*
X0005343Y0003133D01*
X0005243Y0003133D01*
X0005210Y0003100D01*
X0005210Y0003033D01*
X0005243Y0003000D01*
X0005343Y0003000D01*
X0005243Y0003000D01*
X0005210Y0003033D01*
X0005210Y0003100D01*
X0005243Y0003133D01*
X0005343Y0003133D01*
X0005343Y0002967D01*
X0005310Y0002933D01*
X0005277Y0002933D01*
X0005310Y0002933D01*
X0005343Y0002967D01*
X0005343Y0003133D01*
X0005243Y0003133D01*
X0005210Y0003100D01*
X0005210Y0003033D01*
X0005243Y0003000D01*
X0005343Y0003000D01*
X0005243Y0003000D01*
X0005210Y0003033D01*
X0005210Y0003100D01*
X0005243Y0003133D01*
X0005343Y0003133D01*
X0005343Y0002967D01*
X0005310Y0002933D01*
X0005277Y0002933D01*
X0005310Y0002933D01*
X0005343Y0002967D01*
X0005343Y0003133D01*
X0005243Y0003133D01*
X0005210Y0003100D01*
X0005210Y0003033D01*
X0005243Y0003000D01*
X0005343Y0003000D01*
X0005343Y0002967D02*
X0005343Y0003133D01*
X0005243Y0003133D01*
X0005210Y0003100D01*
X0005210Y0003033D01*
X0005277Y0002933D02*
X0005310Y0002933D01*
X0005343Y0002967D01*
X0005394Y0003000D02*
X0005527Y0003000D01*
X0005394Y0003000D01*
X0005527Y0003133D01*
X0005394Y0003133D01*
X0005527Y0003133D01*
X0005394Y0003000D01*
X0005527Y0003000D01*
X0005394Y0003000D01*
X0005527Y0003133D01*
X0005394Y0003133D01*
X0005527Y0003133D01*
X0005394Y0003000D01*
X0005527Y0003000D01*
X0005394Y0003000D01*
X0005527Y0003133D01*
X0005394Y0003133D01*
X0005527Y0003133D01*
X0005394Y0003000D01*
X0005527Y0003000D01*
X0005578Y0003000D02*
X0005645Y0003000D01*
X0005578Y0003000D01*
X0005645Y0003000D01*
X0005578Y0003000D01*
X0005645Y0003000D01*
X0005578Y0003000D01*
X0005645Y0003000D01*
X0005611Y0003000D02*
X0005611Y0003133D01*
X0005578Y0003133D01*
X0005611Y0003133D01*
X0005611Y0003000D01*
X0005611Y0003133D01*
X0005578Y0003133D01*
X0005611Y0003133D01*
X0005611Y0003000D01*
X0005611Y0003133D01*
X0005578Y0003133D01*
X0005611Y0003133D01*
X0005611Y0003000D01*
X0005611Y0003133D01*
X0005578Y0003133D01*
X0005527Y0003133D02*
X0005394Y0003000D01*
X0005394Y0003133D02*
X0005527Y0003133D01*
X0005611Y0003200D02*
X0005611Y0003234D01*
X0005611Y0003200D01*
X0005611Y0003234D01*
X0005611Y0003200D01*
X0005611Y0003234D01*
X0005611Y0003200D01*
X0005611Y0003234D01*
X0005834Y0003200D02*
X0005701Y0003000D01*
X0005834Y0003200D01*
X0005701Y0003000D01*
X0005834Y0003200D01*
X0005701Y0003000D01*
X0005834Y0003200D01*
X0005701Y0003000D01*
X0005885Y0003000D02*
X0005985Y0003000D01*
X0006018Y0003033D01*
X0006018Y0003167D01*
X0005985Y0003200D01*
X0005885Y0003200D01*
X0005885Y0003000D01*
X0005985Y0003000D01*
X0006018Y0003033D01*
X0006018Y0003167D01*
X0005985Y0003200D01*
X0005885Y0003200D01*
X0005885Y0003000D01*
X0005985Y0003000D01*
X0006018Y0003033D01*
X0006018Y0003167D01*
X0005985Y0003200D01*
X0005885Y0003200D01*
X0005885Y0003000D01*
X0005985Y0003000D01*
X0006018Y0003033D01*
X0006018Y0003167D01*
X0005985Y0003200D01*
X0005885Y0003200D01*
X0005885Y0003000D01*
X0005985Y0003000D01*
X0006018Y0003033D01*
X0006018Y0003167D01*
X0005985Y0003200D01*
X0005885Y0003200D01*
X0005885Y0003000D01*
X0005985Y0003000D01*
X0006018Y0003033D01*
X0006018Y0003167D01*
X0005985Y0003200D01*
X0005885Y0003200D01*
X0005885Y0003000D01*
X0005985Y0003000D01*
X0006018Y0003033D01*
X0006018Y0003167D01*
X0005985Y0003200D01*
X0005885Y0003200D01*
X0005885Y0003000D01*
X0006069Y0003033D02*
X0006069Y0003100D01*
X0006103Y0003133D01*
X0006169Y0003133D01*
X0006203Y0003100D01*
X0006203Y0003067D01*
X0006069Y0003067D01*
X0006203Y0003067D01*
X0006203Y0003100D01*
X0006169Y0003133D01*
X0006103Y0003133D01*
X0006069Y0003100D01*
X0006069Y0003033D01*
X0006103Y0003000D01*
X0006169Y0003000D01*
X0006103Y0003000D01*
X0006069Y0003033D01*
X0006069Y0003100D01*
X0006103Y0003133D01*
X0006169Y0003133D01*
X0006203Y0003100D01*
X0006203Y0003067D01*
X0006069Y0003067D01*
X0006203Y0003067D01*
X0006203Y0003100D01*
X0006169Y0003133D01*
X0006103Y0003133D01*
X0006069Y0003100D01*
X0006069Y0003033D01*
X0006103Y0003000D01*
X0006169Y0003000D01*
X0006103Y0003000D01*
X0006069Y0003033D01*
X0006069Y0003100D01*
X0006103Y0003133D01*
X0006169Y0003133D01*
X0006203Y0003100D01*
X0006203Y0003067D01*
X0006069Y0003067D01*
X0006203Y0003067D01*
X0006203Y0003100D01*
X0006169Y0003133D01*
X0006103Y0003133D01*
X0006069Y0003100D01*
X0006069Y0003033D01*
X0006103Y0003000D01*
X0006169Y0003000D01*
X0006103Y0003000D01*
X0006069Y0003033D01*
X0006069Y0003100D01*
X0006103Y0003133D01*
X0006169Y0003133D01*
X0006203Y0003100D01*
X0006203Y0003067D01*
X0006069Y0003067D01*
X0006069Y0003033D02*
X0006103Y0003000D01*
X0006169Y0003000D01*
X0006253Y0003000D02*
X0006353Y0003000D01*
X0006387Y0003033D01*
X0006353Y0003067D01*
X0006287Y0003067D01*
X0006253Y0003100D01*
X0006287Y0003133D01*
X0006387Y0003133D01*
X0006287Y0003133D01*
X0006253Y0003100D01*
X0006287Y0003067D01*
X0006353Y0003067D01*
X0006387Y0003033D01*
X0006353Y0003000D01*
X0006253Y0003000D01*
X0006353Y0003000D01*
X0006387Y0003033D01*
X0006353Y0003067D01*
X0006287Y0003067D01*
X0006253Y0003100D01*
X0006287Y0003133D01*
X0006387Y0003133D01*
X0006287Y0003133D01*
X0006253Y0003100D01*
X0006287Y0003067D01*
X0006353Y0003067D01*
X0006387Y0003033D01*
X0006353Y0003000D01*
X0006253Y0003000D01*
X0006353Y0003000D01*
X0006387Y0003033D01*
X0006353Y0003067D01*
X0006287Y0003067D01*
X0006253Y0003100D01*
X0006287Y0003133D01*
X0006387Y0003133D01*
X0006287Y0003133D01*
X0006253Y0003100D01*
X0006287Y0003067D01*
X0006353Y0003067D01*
X0006387Y0003033D01*
X0006353Y0003000D01*
X0006253Y0003000D01*
X0006353Y0003000D01*
X0006387Y0003033D01*
X0006353Y0003067D01*
X0006287Y0003067D01*
X0006253Y0003100D01*
X0006287Y0003133D01*
X0006387Y0003133D01*
X0006438Y0003067D02*
X0006538Y0003133D01*
X0006438Y0003067D01*
X0006538Y0003000D01*
X0006438Y0003067D01*
X0006538Y0003133D01*
X0006438Y0003067D01*
X0006538Y0003000D01*
X0006438Y0003067D01*
X0006538Y0003133D01*
X0006438Y0003067D01*
X0006538Y0003000D01*
X0006438Y0003067D01*
X0006538Y0003133D01*
X0006591Y0003133D02*
X0006658Y0003133D01*
X0006591Y0003133D01*
X0006658Y0003133D01*
X0006591Y0003133D01*
X0006658Y0003133D01*
X0006591Y0003133D01*
X0006658Y0003133D01*
X0006624Y0003167D02*
X0006624Y0003033D01*
X0006658Y0003000D01*
X0006624Y0003033D01*
X0006624Y0003167D01*
X0006624Y0003033D01*
X0006658Y0003000D01*
X0006624Y0003033D01*
X0006624Y0003167D01*
X0006624Y0003033D01*
X0006658Y0003000D01*
X0006624Y0003033D01*
X0006624Y0003167D01*
X0006624Y0003033D01*
X0006658Y0003000D01*
X0006714Y0003033D02*
X0006747Y0003000D01*
X0006814Y0003000D01*
X0006847Y0003033D01*
X0006847Y0003100D01*
X0006814Y0003133D01*
X0006747Y0003133D01*
X0006714Y0003100D01*
X0006714Y0003033D01*
X0006747Y0003000D01*
X0006814Y0003000D01*
X0006847Y0003033D01*
X0006847Y0003100D01*
X0006814Y0003133D01*
X0006747Y0003133D01*
X0006714Y0003100D01*
X0006714Y0003033D01*
X0006747Y0003000D01*
X0006814Y0003000D01*
X0006847Y0003033D01*
X0006847Y0003100D01*
X0006814Y0003133D01*
X0006747Y0003133D01*
X0006714Y0003100D01*
X0006714Y0003033D01*
X0006747Y0003000D01*
X0006814Y0003000D01*
X0006847Y0003033D01*
X0006847Y0003100D01*
X0006814Y0003133D01*
X0006747Y0003133D01*
X0006714Y0003100D01*
X0006714Y0003033D01*
X0006747Y0003000D01*
X0006814Y0003000D01*
X0006847Y0003033D01*
X0006847Y0003100D01*
X0006814Y0003133D01*
X0006747Y0003133D01*
X0006714Y0003100D01*
X0006714Y0003033D01*
X0006747Y0003000D01*
X0006814Y0003000D01*
X0006847Y0003033D01*
X0006847Y0003100D01*
X0006814Y0003133D01*
X0006747Y0003133D01*
X0006714Y0003100D01*
X0006714Y0003033D01*
X0006747Y0003000D01*
X0006814Y0003000D01*
X0006847Y0003033D01*
X0006847Y0003100D01*
X0006814Y0003133D01*
X0006747Y0003133D01*
X0006714Y0003100D01*
X0006714Y0003033D01*
X0006538Y0003000D02*
X0006438Y0003067D01*
X0006438Y0003000D02*
X0006438Y0003200D01*
X0006438Y0003000D01*
X0006438Y0003200D01*
X0006438Y0003000D01*
X0006438Y0003200D01*
X0006438Y0003000D01*
X0006438Y0003200D01*
X0006898Y0003133D02*
X0006998Y0003133D01*
X0007031Y0003100D01*
X0007031Y0003033D01*
X0006998Y0003000D01*
X0006898Y0003000D01*
X0006998Y0003000D01*
X0007031Y0003033D01*
X0007031Y0003100D01*
X0006998Y0003133D01*
X0006898Y0003133D01*
X0006898Y0002933D01*
X0006898Y0003133D01*
X0006998Y0003133D01*
X0007031Y0003100D01*
X0007031Y0003033D01*
X0006998Y0003000D01*
X0006898Y0003000D01*
X0006998Y0003000D01*
X0007031Y0003033D01*
X0007031Y0003100D01*
X0006998Y0003133D01*
X0006898Y0003133D01*
X0006898Y0002933D01*
X0006898Y0003133D01*
X0006998Y0003133D01*
X0007031Y0003100D01*
X0007031Y0003033D01*
X0006998Y0003000D01*
X0006898Y0003000D01*
X0006998Y0003000D01*
X0007031Y0003033D01*
X0007031Y0003100D01*
X0006998Y0003133D01*
X0006898Y0003133D01*
X0006898Y0002933D01*
X0006898Y0003133D01*
X0006998Y0003133D01*
X0007031Y0003100D01*
X0007031Y0003033D01*
X0006998Y0003000D01*
X0006898Y0003000D01*
X0006898Y0002933D02*
X0006898Y0003133D01*
X0007082Y0003000D02*
X0007215Y0003200D01*
X0007082Y0003000D01*
X0007215Y0003200D01*
X0007082Y0003000D01*
X0007215Y0003200D01*
X0007082Y0003000D01*
X0007215Y0003200D01*
X0007266Y0003200D02*
X0007266Y0002967D01*
X0007266Y0003200D01*
X0007266Y0002967D01*
X0007266Y0003200D01*
X0007266Y0002967D01*
X0007266Y0003200D01*
X0007266Y0002967D01*
X0007333Y0002967D02*
X0007333Y0003200D01*
X0007333Y0002967D01*
X0007333Y0003200D01*
X0007333Y0002967D01*
X0007333Y0003200D01*
X0007333Y0002967D01*
X0007333Y0003200D01*
X0007389Y0003200D02*
X0007456Y0003267D01*
X0007522Y0003200D01*
X0007456Y0003267D01*
X0007389Y0003200D01*
X0007456Y0003267D01*
X0007522Y0003200D01*
X0007456Y0003267D01*
X0007389Y0003200D01*
X0007456Y0003267D01*
X0007522Y0003200D01*
X0007456Y0003267D01*
X0007389Y0003200D01*
X0007456Y0003267D01*
X0007522Y0003200D01*
X0007573Y0003200D02*
X0007673Y0003200D01*
X0007707Y0003167D01*
X0007707Y0003100D01*
X0007707Y0003167D01*
X0007673Y0003200D01*
X0007573Y0003200D01*
X0007573Y0003100D01*
X0007573Y0003200D01*
X0007673Y0003200D01*
X0007707Y0003167D01*
X0007707Y0003100D01*
X0007707Y0003167D01*
X0007673Y0003200D01*
X0007573Y0003200D01*
X0007573Y0003100D01*
X0007573Y0003200D01*
X0007673Y0003200D01*
X0007707Y0003167D01*
X0007707Y0003100D01*
X0007707Y0003167D01*
X0007673Y0003200D01*
X0007573Y0003200D01*
X0007573Y0003100D01*
X0007573Y0003200D01*
X0007673Y0003200D01*
X0007707Y0003167D01*
X0007707Y0003100D01*
X0007757Y0003100D02*
X0007957Y0003100D01*
X0007757Y0003100D01*
X0007957Y0003100D01*
X0007757Y0003100D01*
X0007957Y0003100D01*
X0007757Y0003100D01*
X0007957Y0003100D01*
X0007891Y0003133D02*
X0007891Y0003000D01*
X0008024Y0003000D01*
X0007891Y0003000D01*
X0007891Y0003133D01*
X0007891Y0003200D01*
X0008024Y0003200D01*
X0007891Y0003200D01*
X0007891Y0003133D01*
X0007824Y0003200D01*
X0007757Y0003133D01*
X0007757Y0003000D01*
X0007757Y0003133D01*
X0007824Y0003200D01*
X0007891Y0003133D01*
X0007891Y0003000D01*
X0008024Y0003000D01*
X0007891Y0003000D01*
X0007891Y0003133D01*
X0007891Y0003200D01*
X0008024Y0003200D01*
X0007891Y0003200D01*
X0007891Y0003133D01*
X0007824Y0003200D01*
X0007757Y0003133D01*
X0007757Y0003000D01*
X0007757Y0003133D01*
X0007824Y0003200D01*
X0007891Y0003133D01*
X0007891Y0003000D01*
X0008024Y0003000D01*
X0007891Y0003000D01*
X0007891Y0003133D01*
X0007891Y0003200D01*
X0008024Y0003200D01*
X0007891Y0003200D01*
X0007891Y0003133D01*
X0007824Y0003200D01*
X0007757Y0003133D01*
X0007757Y0003000D01*
X0007757Y0003133D01*
X0007824Y0003200D01*
X0007891Y0003133D01*
X0007891Y0003000D01*
X0008024Y0003000D01*
X0008064Y0003000D02*
X0008198Y0003200D01*
X0008064Y0003000D01*
X0008198Y0003200D01*
X0008064Y0003000D01*
X0008198Y0003200D01*
X0008064Y0003000D01*
X0008198Y0003200D01*
X0008248Y0003200D02*
X0008382Y0003000D01*
X0008404Y0003000D02*
X0008371Y0003033D01*
X0008404Y0003067D01*
X0008505Y0003067D01*
X0008404Y0003067D01*
X0008371Y0003033D01*
X0008404Y0003000D01*
X0008505Y0003000D01*
X0008505Y0003100D01*
X0008471Y0003133D01*
X0008404Y0003133D01*
X0008471Y0003133D01*
X0008505Y0003100D01*
X0008505Y0003000D01*
X0008404Y0003000D01*
X0008371Y0003033D01*
X0008404Y0003067D01*
X0008505Y0003067D01*
X0008505Y0003100D02*
X0008505Y0003000D01*
X0008404Y0003000D01*
X0008415Y0003000D02*
X0008382Y0003067D01*
X0008315Y0003000D01*
X0008282Y0003000D01*
X0008248Y0003033D01*
X0008248Y0003100D01*
X0008282Y0003133D01*
X0008315Y0003133D01*
X0008382Y0003067D01*
X0008415Y0003133D01*
X0008382Y0003067D01*
X0008415Y0003000D01*
X0008382Y0003067D01*
X0008315Y0003000D01*
X0008282Y0003000D01*
X0008248Y0003033D01*
X0008248Y0003100D01*
X0008282Y0003133D01*
X0008315Y0003133D01*
X0008382Y0003067D01*
X0008248Y0003067D01*
X0008382Y0003067D01*
X0008248Y0003067D01*
X0008248Y0003100D02*
X0008248Y0003033D01*
X0008282Y0003000D01*
X0008315Y0003000D01*
X0008382Y0003067D01*
X0008315Y0003133D01*
X0008282Y0003133D01*
X0008248Y0003100D01*
X0008282Y0003067D02*
X0008282Y0002967D01*
X0008282Y0003067D01*
X0008282Y0002967D01*
X0008248Y0003000D02*
X0008382Y0003200D01*
X0008404Y0003200D02*
X0008404Y0003234D01*
X0008404Y0003200D01*
X0008404Y0003234D01*
X0008432Y0003200D02*
X0008499Y0003133D01*
X0008566Y0003200D01*
X0008566Y0003000D01*
X0008563Y0003000D02*
X0008497Y0003000D01*
X0008463Y0003033D01*
X0008463Y0003100D01*
X0008497Y0003133D01*
X0008563Y0003133D01*
X0008597Y0003100D01*
X0008597Y0003067D01*
X0008463Y0003067D01*
X0008597Y0003067D01*
X0008597Y0003100D01*
X0008563Y0003133D01*
X0008497Y0003133D01*
X0008463Y0003100D01*
X0008463Y0003033D01*
X0008497Y0003000D01*
X0008563Y0003000D01*
X0008497Y0003000D01*
X0008463Y0003033D01*
X0008463Y0003100D01*
X0008497Y0003133D01*
X0008563Y0003133D01*
X0008597Y0003100D01*
X0008597Y0003067D01*
X0008463Y0003067D01*
X0008505Y0003100D02*
X0008471Y0003133D01*
X0008404Y0003133D01*
X0008415Y0003133D02*
X0008382Y0003067D01*
X0008348Y0003067D02*
X0008348Y0002967D01*
X0008348Y0003067D01*
X0008348Y0002967D01*
X0008432Y0003000D02*
X0008432Y0003200D01*
X0008471Y0003200D02*
X0008471Y0003234D01*
X0008471Y0003200D01*
X0008471Y0003234D01*
X0008497Y0003234D02*
X0008497Y0003200D01*
X0008497Y0003234D01*
X0008497Y0003200D01*
X0008555Y0003200D02*
X0008655Y0003200D01*
X0008689Y0003167D01*
X0008689Y0003100D01*
X0008717Y0003133D02*
X0008750Y0003100D01*
X0008750Y0003067D01*
X0008617Y0003067D01*
X0008750Y0003067D01*
X0008750Y0003100D01*
X0008717Y0003133D01*
X0008650Y0003133D01*
X0008617Y0003100D01*
X0008750Y0003100D01*
X0008739Y0003100D02*
X0008739Y0003033D01*
X0008773Y0003000D01*
X0008839Y0003000D01*
X0008873Y0003033D01*
X0008873Y0003100D01*
X0008839Y0003133D01*
X0008773Y0003133D01*
X0008739Y0003100D01*
X0008739Y0003133D02*
X0008839Y0003133D01*
X0008873Y0003100D01*
X0008873Y0003033D01*
X0008839Y0003000D01*
X0008739Y0003000D01*
X0008739Y0003200D01*
X0008717Y0003200D02*
X0008717Y0003234D01*
X0008717Y0003200D01*
X0008683Y0003200D02*
X0008750Y0003133D01*
X0008750Y0003000D01*
X0008717Y0003000D02*
X0008650Y0003000D01*
X0008617Y0003033D01*
X0008617Y0003100D01*
X0008650Y0003133D01*
X0008717Y0003133D01*
X0008683Y0003200D02*
X0008617Y0003133D01*
X0008617Y0003000D01*
X0008647Y0003000D02*
X0008681Y0003000D01*
X0008681Y0003033D01*
X0008647Y0003033D01*
X0008647Y0003000D01*
X0008650Y0003000D02*
X0008617Y0003033D01*
X0008617Y0003100D01*
X0008622Y0003100D02*
X0008555Y0003100D01*
X0008555Y0003200D01*
X0008555Y0003067D01*
X0008622Y0003067D01*
X0008555Y0003067D01*
X0008555Y0003200D01*
X0008563Y0003200D02*
X0008563Y0003234D01*
X0008563Y0003200D01*
X0008563Y0003234D01*
X0008650Y0003234D02*
X0008650Y0003200D01*
X0008650Y0003234D01*
X0008773Y0003234D02*
X0008773Y0003200D01*
X0008801Y0003200D02*
X0008801Y0003000D01*
X0008934Y0003133D01*
X0008934Y0003167D01*
X0008901Y0003200D01*
X0008834Y0003200D01*
X0008801Y0003167D01*
X0008801Y0003133D02*
X0008868Y0003200D01*
X0008868Y0003000D01*
X0008924Y0003000D02*
X0008957Y0003000D01*
X0008957Y0003033D01*
X0008924Y0003033D01*
X0008924Y0003000D01*
X0008924Y0003133D01*
X0008957Y0003133D01*
X0008990Y0003100D01*
X0009024Y0003133D01*
X0009057Y0003100D01*
X0009057Y0003000D01*
X0009049Y0003000D02*
X0009016Y0003000D01*
X0009016Y0003033D01*
X0009049Y0003033D01*
X0009049Y0003000D01*
X0009016Y0003000D01*
X0009016Y0003033D01*
X0009049Y0003033D01*
X0009049Y0003000D01*
X0009077Y0003000D02*
X0009177Y0003000D01*
X0009210Y0003033D01*
X0009210Y0003100D01*
X0009177Y0003133D01*
X0009077Y0003133D01*
X0009177Y0003133D01*
X0009210Y0003100D01*
X0009210Y0003033D01*
X0009177Y0003000D01*
X0009077Y0003000D01*
X0009077Y0003200D01*
X0009077Y0003000D01*
X0009108Y0003000D02*
X0009108Y0002967D01*
X0009141Y0002933D01*
X0009174Y0002933D01*
X0009208Y0002967D01*
X0009174Y0003000D01*
X0009174Y0003033D01*
X0009174Y0003000D01*
X0009208Y0002967D01*
X0009174Y0002933D01*
X0009141Y0002933D01*
X0009108Y0002967D01*
X0009108Y0003000D01*
X0009208Y0003000D01*
X0009241Y0003033D01*
X0009241Y0003100D01*
X0009208Y0003133D01*
X0009108Y0003133D01*
X0009108Y0002933D01*
X0009116Y0003000D02*
X0009149Y0003033D01*
X0009149Y0003100D01*
X0009116Y0003133D01*
X0009016Y0003133D01*
X0008990Y0003100D02*
X0008990Y0003000D01*
X0008985Y0003000D02*
X0009118Y0003000D01*
X0009116Y0003000D02*
X0009016Y0003000D01*
X0009016Y0003200D01*
X0008985Y0003200D02*
X0008985Y0003000D01*
X0009018Y0003000D01*
X0009018Y0003033D01*
X0008985Y0003033D01*
X0008985Y0003000D01*
X0009018Y0003000D01*
X0009018Y0003033D01*
X0008985Y0003033D01*
X0008985Y0003000D01*
X0008934Y0003000D02*
X0008834Y0003100D01*
X0008801Y0003067D02*
X0008934Y0003200D01*
X0008985Y0003200D02*
X0009118Y0003200D01*
X0009108Y0003200D02*
X0009108Y0003067D01*
X0009141Y0003033D01*
X0009208Y0003033D01*
X0009241Y0003067D01*
X0009208Y0003033D01*
X0009141Y0003033D01*
X0009108Y0003067D01*
X0009108Y0003200D01*
X0009141Y0003234D01*
X0009208Y0003234D01*
X0009241Y0003200D01*
X0009208Y0003234D01*
X0009141Y0003234D01*
X0009108Y0003200D01*
X0009169Y0003200D02*
X0009269Y0003200D01*
X0009303Y0003167D01*
X0009303Y0003100D01*
X0009269Y0003067D01*
X0009169Y0003067D01*
X0009236Y0003067D02*
X0009303Y0003000D01*
X0009292Y0003000D02*
X0009325Y0003000D01*
X0009325Y0003033D01*
X0009292Y0003033D01*
X0009292Y0003000D01*
X0009325Y0003000D01*
X0009325Y0003033D01*
X0009292Y0003033D01*
X0009292Y0003000D01*
X0009267Y0003000D02*
X0009267Y0003100D01*
X0009300Y0003133D01*
X0009333Y0003100D01*
X0009333Y0003000D01*
X0009328Y0003000D02*
X0009328Y0003100D01*
X0009361Y0003133D01*
X0009395Y0003100D01*
X0009395Y0003000D01*
X0009395Y0003100D01*
X0009361Y0003133D01*
X0009328Y0003100D01*
X0009295Y0003133D01*
X0009261Y0003133D01*
X0009261Y0003000D01*
X0009261Y0003133D01*
X0009295Y0003133D01*
X0009328Y0003100D01*
X0009328Y0003000D01*
X0009353Y0002967D02*
X0009487Y0002967D01*
X0009484Y0003000D02*
X0009517Y0003033D01*
X0009484Y0003000D01*
X0009384Y0003000D01*
X0009484Y0003000D01*
X0009517Y0003033D01*
X0009517Y0003100D01*
X0009484Y0003133D01*
X0009384Y0003133D01*
X0009484Y0003133D01*
X0009517Y0003100D01*
X0009517Y0003033D01*
X0009517Y0003100D01*
X0009484Y0003133D01*
X0009384Y0003133D01*
X0009384Y0002933D01*
X0009445Y0002933D02*
X0009445Y0003133D01*
X0009545Y0003133D01*
X0009579Y0003100D01*
X0009579Y0003033D01*
X0009545Y0003000D01*
X0009445Y0003000D01*
X0009545Y0003000D01*
X0009579Y0003033D01*
X0009579Y0003100D01*
X0009545Y0003133D01*
X0009445Y0003133D01*
X0009445Y0002933D01*
X0009484Y0003000D02*
X0009384Y0003000D01*
X0009384Y0003200D01*
X0009384Y0003000D01*
X0009537Y0003000D02*
X0009537Y0003200D01*
X0009637Y0003200D01*
X0009671Y0003167D01*
X0009671Y0003100D01*
X0009637Y0003067D01*
X0009537Y0003067D01*
X0009568Y0003133D02*
X0009601Y0003133D01*
X0009635Y0003100D01*
X0009668Y0003133D01*
X0009702Y0003100D01*
X0009702Y0003000D01*
X0009702Y0003100D01*
X0009668Y0003133D01*
X0009635Y0003100D01*
X0009635Y0003000D01*
X0009635Y0003100D01*
X0009601Y0003133D01*
X0009568Y0003133D01*
X0009568Y0003000D01*
X0009568Y0003133D01*
X0009722Y0003167D02*
X0009722Y0003033D01*
X0009755Y0003000D01*
X0009822Y0003000D01*
X0009855Y0003033D01*
X0009886Y0003033D02*
X0009852Y0003000D01*
X0009752Y0003000D01*
X0009852Y0003000D01*
X0009886Y0003033D01*
X0009886Y0003100D01*
X0009852Y0003133D01*
X0009752Y0003133D01*
X0009752Y0002933D01*
X0009752Y0003133D01*
X0009852Y0003133D01*
X0009886Y0003100D01*
X0009886Y0003033D01*
X0009906Y0003000D02*
X0010006Y0003000D01*
X0010039Y0003033D01*
X0010039Y0003067D01*
X0010006Y0003100D01*
X0009906Y0003100D01*
X0009855Y0003167D02*
X0009822Y0003200D01*
X0009755Y0003200D01*
X0009722Y0003167D01*
X0009906Y0003200D02*
X0010006Y0003200D01*
X0010039Y0003167D01*
X0010039Y0003133D01*
X0010006Y0003100D01*
X0010090Y0003033D02*
X0010123Y0003000D01*
X0010190Y0003000D01*
X0010223Y0003033D01*
X0010223Y0003067D01*
X0010190Y0003100D01*
X0010157Y0003100D01*
X0010190Y0003100D02*
X0010223Y0003133D01*
X0010223Y0003167D01*
X0010190Y0003200D01*
X0010123Y0003200D01*
X0010090Y0003167D01*
X0009906Y0003200D02*
X0009906Y0003000D01*
X0010274Y0003000D02*
X0010307Y0003000D01*
X0010307Y0003033D01*
X0010274Y0003033D01*
X0010274Y0003000D01*
X0010366Y0003000D02*
X0010466Y0003000D01*
X0010500Y0003033D01*
X0010500Y0003100D01*
X0010466Y0003133D01*
X0010366Y0003133D01*
X0010366Y0003200D02*
X0010366Y0003000D01*
X0010550Y0003000D02*
X0010550Y0003133D01*
X0010584Y0003133D01*
X0010617Y0003100D01*
X0010650Y0003133D01*
X0010684Y0003100D01*
X0010684Y0003000D01*
X0010734Y0003000D02*
X0010834Y0003000D01*
X0010868Y0003033D01*
X0010868Y0003100D01*
X0010834Y0003133D01*
X0010734Y0003133D01*
X0010734Y0002933D01*
X0010617Y0003000D02*
X0010617Y0003100D01*
X0009267Y0003100D02*
X0009233Y0003133D01*
X0009200Y0003133D01*
X0009200Y0003000D01*
X0009169Y0003000D02*
X0009169Y0003200D01*
X0009052Y0003100D02*
X0008985Y0003100D01*
X0008934Y0003000D02*
X0008801Y0003000D01*
X0008934Y0003000D01*
X0008717Y0003000D02*
X0008650Y0003000D01*
X0008622Y0003100D02*
X0008555Y0003100D01*
X0008839Y0003200D02*
X0008839Y0003234D01*
X0008024Y0003200D02*
X0007891Y0003200D01*
X0007891Y0003133D01*
X0007824Y0003200D01*
X0007757Y0003133D01*
X0007757Y0003000D01*
X0007573Y0003100D02*
X0007573Y0003200D01*
X0007522Y0003133D02*
X0007522Y0003000D01*
X0007422Y0003000D01*
X0007389Y0003033D01*
X0007389Y0003133D01*
X0007389Y0003033D01*
X0007422Y0003000D01*
X0007522Y0003000D01*
X0007522Y0003133D01*
X0007522Y0003000D01*
X0007422Y0003000D01*
X0007389Y0003033D01*
X0007389Y0003133D01*
X0007389Y0003033D01*
X0007422Y0003000D01*
X0007522Y0003000D01*
X0007522Y0003133D01*
X0007522Y0003000D01*
X0007422Y0003000D01*
X0007389Y0003033D01*
X0007389Y0003133D01*
X0007389Y0003033D01*
X0007422Y0003000D01*
X0007522Y0003000D01*
X0007522Y0003133D01*
X0007522Y0003000D01*
X0007422Y0003000D01*
X0007389Y0003033D01*
X0007389Y0003133D01*
X0007400Y0003067D02*
X0007333Y0003067D01*
X0007400Y0003067D01*
X0007333Y0003067D01*
X0007400Y0003067D01*
X0007333Y0003067D01*
X0007400Y0003067D01*
X0007333Y0003067D01*
X0005026Y0003000D02*
X0005026Y0003133D01*
X0003778Y0003033D02*
X0003745Y0003067D01*
X0003678Y0003067D01*
X0003645Y0003100D01*
X0003678Y0003133D01*
X0003645Y0003000D02*
X0003745Y0003000D01*
X0003778Y0003033D01*
X0003000Y0003500D02*
X0003000Y0397201D01*
X0632921Y0397201D01*
X0632921Y0003500D01*
X0003000Y0003500D01*
X0197601Y0175000D02*
X0197603Y0175158D01*
X0197609Y0175316D01*
X0197619Y0175474D01*
X0197633Y0175632D01*
X0197651Y0175789D01*
X0197672Y0175946D01*
X0197698Y0176102D01*
X0197728Y0176258D01*
X0197761Y0176413D01*
X0197799Y0176566D01*
X0197840Y0176719D01*
X0197885Y0176871D01*
X0197934Y0177022D01*
X0197987Y0177171D01*
X0198043Y0177319D01*
X0198103Y0177465D01*
X0198167Y0177610D01*
X0198235Y0177753D01*
X0198306Y0177895D01*
X0198380Y0178035D01*
X0198458Y0178172D01*
X0198540Y0178308D01*
X0198624Y0178442D01*
X0198713Y0178573D01*
X0198804Y0178702D01*
X0198899Y0178829D01*
X0198996Y0178954D01*
X0199097Y0179076D01*
X0199201Y0179195D01*
X0199308Y0179312D01*
X0199418Y0179426D01*
X0199531Y0179537D01*
X0199646Y0179646D01*
X0199764Y0179751D01*
X0199885Y0179853D01*
X0200008Y0179953D01*
X0200134Y0180049D01*
X0200262Y0180142D01*
X0200392Y0180232D01*
X0200525Y0180318D01*
X0200660Y0180402D01*
X0200796Y0180481D01*
X0200935Y0180558D01*
X0201076Y0180630D01*
X0201218Y0180700D01*
X0201362Y0180765D01*
X0201508Y0180827D01*
X0201655Y0180885D01*
X0201804Y0180940D01*
X0201954Y0180991D01*
X0202105Y0181038D01*
X0202257Y0181081D01*
X0202410Y0181120D01*
X0202565Y0181156D01*
X0202720Y0181187D01*
X0202876Y0181215D01*
X0203032Y0181239D01*
X0203189Y0181259D01*
X0203347Y0181275D01*
X0203504Y0181287D01*
X0203663Y0181295D01*
X0203821Y0181299D01*
X0203979Y0181299D01*
X0204137Y0181295D01*
X0204296Y0181287D01*
X0204453Y0181275D01*
X0204611Y0181259D01*
X0204768Y0181239D01*
X0204924Y0181215D01*
X0205080Y0181187D01*
X0205235Y0181156D01*
X0205390Y0181120D01*
X0205543Y0181081D01*
X0205695Y0181038D01*
X0205846Y0180991D01*
X0205996Y0180940D01*
X0206145Y0180885D01*
X0206292Y0180827D01*
X0206438Y0180765D01*
X0206582Y0180700D01*
X0206724Y0180630D01*
X0206865Y0180558D01*
X0207004Y0180481D01*
X0207140Y0180402D01*
X0207275Y0180318D01*
X0207408Y0180232D01*
X0207538Y0180142D01*
X0207666Y0180049D01*
X0207792Y0179953D01*
X0207915Y0179853D01*
X0208036Y0179751D01*
X0208154Y0179646D01*
X0208269Y0179537D01*
X0208382Y0179426D01*
X0208492Y0179312D01*
X0208599Y0179195D01*
X0208703Y0179076D01*
X0208804Y0178954D01*
X0208901Y0178829D01*
X0208996Y0178702D01*
X0209087Y0178573D01*
X0209176Y0178442D01*
X0209260Y0178308D01*
X0209342Y0178172D01*
X0209420Y0178035D01*
X0209494Y0177895D01*
X0209565Y0177753D01*
X0209633Y0177610D01*
X0209697Y0177465D01*
X0209757Y0177319D01*
X0209813Y0177171D01*
X0209866Y0177022D01*
X0209915Y0176871D01*
X0209960Y0176719D01*
X0210001Y0176566D01*
X0210039Y0176413D01*
X0210072Y0176258D01*
X0210102Y0176102D01*
X0210128Y0175946D01*
X0210149Y0175789D01*
X0210167Y0175632D01*
X0210181Y0175474D01*
X0210191Y0175316D01*
X0210197Y0175158D01*
X0210199Y0175000D01*
X0210197Y0174842D01*
X0210191Y0174684D01*
X0210181Y0174526D01*
X0210167Y0174368D01*
X0210149Y0174211D01*
X0210128Y0174054D01*
X0210102Y0173898D01*
X0210072Y0173742D01*
X0210039Y0173587D01*
X0210001Y0173434D01*
X0209960Y0173281D01*
X0209915Y0173129D01*
X0209866Y0172978D01*
X0209813Y0172829D01*
X0209757Y0172681D01*
X0209697Y0172535D01*
X0209633Y0172390D01*
X0209565Y0172247D01*
X0209494Y0172105D01*
X0209420Y0171965D01*
X0209342Y0171828D01*
X0209260Y0171692D01*
X0209176Y0171558D01*
X0209087Y0171427D01*
X0208996Y0171298D01*
X0208901Y0171171D01*
X0208804Y0171046D01*
X0208703Y0170924D01*
X0208599Y0170805D01*
X0208492Y0170688D01*
X0208382Y0170574D01*
X0208269Y0170463D01*
X0208154Y0170354D01*
X0208036Y0170249D01*
X0207915Y0170147D01*
X0207792Y0170047D01*
X0207666Y0169951D01*
X0207538Y0169858D01*
X0207408Y0169768D01*
X0207275Y0169682D01*
X0207140Y0169598D01*
X0207004Y0169519D01*
X0206865Y0169442D01*
X0206724Y0169370D01*
X0206582Y0169300D01*
X0206438Y0169235D01*
X0206292Y0169173D01*
X0206145Y0169115D01*
X0205996Y0169060D01*
X0205846Y0169009D01*
X0205695Y0168962D01*
X0205543Y0168919D01*
X0205390Y0168880D01*
X0205235Y0168844D01*
X0205080Y0168813D01*
X0204924Y0168785D01*
X0204768Y0168761D01*
X0204611Y0168741D01*
X0204453Y0168725D01*
X0204296Y0168713D01*
X0204137Y0168705D01*
X0203979Y0168701D01*
X0203821Y0168701D01*
X0203663Y0168705D01*
X0203504Y0168713D01*
X0203347Y0168725D01*
X0203189Y0168741D01*
X0203032Y0168761D01*
X0202876Y0168785D01*
X0202720Y0168813D01*
X0202565Y0168844D01*
X0202410Y0168880D01*
X0202257Y0168919D01*
X0202105Y0168962D01*
X0201954Y0169009D01*
X0201804Y0169060D01*
X0201655Y0169115D01*
X0201508Y0169173D01*
X0201362Y0169235D01*
X0201218Y0169300D01*
X0201076Y0169370D01*
X0200935Y0169442D01*
X0200796Y0169519D01*
X0200660Y0169598D01*
X0200525Y0169682D01*
X0200392Y0169768D01*
X0200262Y0169858D01*
X0200134Y0169951D01*
X0200008Y0170047D01*
X0199885Y0170147D01*
X0199764Y0170249D01*
X0199646Y0170354D01*
X0199531Y0170463D01*
X0199418Y0170574D01*
X0199308Y0170688D01*
X0199201Y0170805D01*
X0199097Y0170924D01*
X0198996Y0171046D01*
X0198899Y0171171D01*
X0198804Y0171298D01*
X0198713Y0171427D01*
X0198624Y0171558D01*
X0198540Y0171692D01*
X0198458Y0171828D01*
X0198380Y0171965D01*
X0198306Y0172105D01*
X0198235Y0172247D01*
X0198167Y0172390D01*
X0198103Y0172535D01*
X0198043Y0172681D01*
X0197987Y0172829D01*
X0197934Y0172978D01*
X0197885Y0173129D01*
X0197840Y0173281D01*
X0197799Y0173434D01*
X0197761Y0173587D01*
X0197728Y0173742D01*
X0197698Y0173898D01*
X0197672Y0174054D01*
X0197651Y0174211D01*
X0197633Y0174368D01*
X0197619Y0174526D01*
X0197609Y0174684D01*
X0197603Y0174842D01*
X0197601Y0175000D01*
X0197401Y0328100D02*
X0197403Y0328258D01*
X0197409Y0328416D01*
X0197419Y0328574D01*
X0197433Y0328732D01*
X0197451Y0328889D01*
X0197472Y0329046D01*
X0197498Y0329202D01*
X0197528Y0329358D01*
X0197561Y0329513D01*
X0197599Y0329666D01*
X0197640Y0329819D01*
X0197685Y0329971D01*
X0197734Y0330122D01*
X0197787Y0330271D01*
X0197843Y0330419D01*
X0197903Y0330565D01*
X0197967Y0330710D01*
X0198035Y0330853D01*
X0198106Y0330995D01*
X0198180Y0331135D01*
X0198258Y0331272D01*
X0198340Y0331408D01*
X0198424Y0331542D01*
X0198513Y0331673D01*
X0198604Y0331802D01*
X0198699Y0331929D01*
X0198796Y0332054D01*
X0198897Y0332176D01*
X0199001Y0332295D01*
X0199108Y0332412D01*
X0199218Y0332526D01*
X0199331Y0332637D01*
X0199446Y0332746D01*
X0199564Y0332851D01*
X0199685Y0332953D01*
X0199808Y0333053D01*
X0199934Y0333149D01*
X0200062Y0333242D01*
X0200192Y0333332D01*
X0200325Y0333418D01*
X0200460Y0333502D01*
X0200596Y0333581D01*
X0200735Y0333658D01*
X0200876Y0333730D01*
X0201018Y0333800D01*
X0201162Y0333865D01*
X0201308Y0333927D01*
X0201455Y0333985D01*
X0201604Y0334040D01*
X0201754Y0334091D01*
X0201905Y0334138D01*
X0202057Y0334181D01*
X0202210Y0334220D01*
X0202365Y0334256D01*
X0202520Y0334287D01*
X0202676Y0334315D01*
X0202832Y0334339D01*
X0202989Y0334359D01*
X0203147Y0334375D01*
X0203304Y0334387D01*
X0203463Y0334395D01*
X0203621Y0334399D01*
X0203779Y0334399D01*
X0203937Y0334395D01*
X0204096Y0334387D01*
X0204253Y0334375D01*
X0204411Y0334359D01*
X0204568Y0334339D01*
X0204724Y0334315D01*
X0204880Y0334287D01*
X0205035Y0334256D01*
X0205190Y0334220D01*
X0205343Y0334181D01*
X0205495Y0334138D01*
X0205646Y0334091D01*
X0205796Y0334040D01*
X0205945Y0333985D01*
X0206092Y0333927D01*
X0206238Y0333865D01*
X0206382Y0333800D01*
X0206524Y0333730D01*
X0206665Y0333658D01*
X0206804Y0333581D01*
X0206940Y0333502D01*
X0207075Y0333418D01*
X0207208Y0333332D01*
X0207338Y0333242D01*
X0207466Y0333149D01*
X0207592Y0333053D01*
X0207715Y0332953D01*
X0207836Y0332851D01*
X0207954Y0332746D01*
X0208069Y0332637D01*
X0208182Y0332526D01*
X0208292Y0332412D01*
X0208399Y0332295D01*
X0208503Y0332176D01*
X0208604Y0332054D01*
X0208701Y0331929D01*
X0208796Y0331802D01*
X0208887Y0331673D01*
X0208976Y0331542D01*
X0209060Y0331408D01*
X0209142Y0331272D01*
X0209220Y0331135D01*
X0209294Y0330995D01*
X0209365Y0330853D01*
X0209433Y0330710D01*
X0209497Y0330565D01*
X0209557Y0330419D01*
X0209613Y0330271D01*
X0209666Y0330122D01*
X0209715Y0329971D01*
X0209760Y0329819D01*
X0209801Y0329666D01*
X0209839Y0329513D01*
X0209872Y0329358D01*
X0209902Y0329202D01*
X0209928Y0329046D01*
X0209949Y0328889D01*
X0209967Y0328732D01*
X0209981Y0328574D01*
X0209991Y0328416D01*
X0209997Y0328258D01*
X0209999Y0328100D01*
X0209997Y0327942D01*
X0209991Y0327784D01*
X0209981Y0327626D01*
X0209967Y0327468D01*
X0209949Y0327311D01*
X0209928Y0327154D01*
X0209902Y0326998D01*
X0209872Y0326842D01*
X0209839Y0326687D01*
X0209801Y0326534D01*
X0209760Y0326381D01*
X0209715Y0326229D01*
X0209666Y0326078D01*
X0209613Y0325929D01*
X0209557Y0325781D01*
X0209497Y0325635D01*
X0209433Y0325490D01*
X0209365Y0325347D01*
X0209294Y0325205D01*
X0209220Y0325065D01*
X0209142Y0324928D01*
X0209060Y0324792D01*
X0208976Y0324658D01*
X0208887Y0324527D01*
X0208796Y0324398D01*
X0208701Y0324271D01*
X0208604Y0324146D01*
X0208503Y0324024D01*
X0208399Y0323905D01*
X0208292Y0323788D01*
X0208182Y0323674D01*
X0208069Y0323563D01*
X0207954Y0323454D01*
X0207836Y0323349D01*
X0207715Y0323247D01*
X0207592Y0323147D01*
X0207466Y0323051D01*
X0207338Y0322958D01*
X0207208Y0322868D01*
X0207075Y0322782D01*
X0206940Y0322698D01*
X0206804Y0322619D01*
X0206665Y0322542D01*
X0206524Y0322470D01*
X0206382Y0322400D01*
X0206238Y0322335D01*
X0206092Y0322273D01*
X0205945Y0322215D01*
X0205796Y0322160D01*
X0205646Y0322109D01*
X0205495Y0322062D01*
X0205343Y0322019D01*
X0205190Y0321980D01*
X0205035Y0321944D01*
X0204880Y0321913D01*
X0204724Y0321885D01*
X0204568Y0321861D01*
X0204411Y0321841D01*
X0204253Y0321825D01*
X0204096Y0321813D01*
X0203937Y0321805D01*
X0203779Y0321801D01*
X0203621Y0321801D01*
X0203463Y0321805D01*
X0203304Y0321813D01*
X0203147Y0321825D01*
X0202989Y0321841D01*
X0202832Y0321861D01*
X0202676Y0321885D01*
X0202520Y0321913D01*
X0202365Y0321944D01*
X0202210Y0321980D01*
X0202057Y0322019D01*
X0201905Y0322062D01*
X0201754Y0322109D01*
X0201604Y0322160D01*
X0201455Y0322215D01*
X0201308Y0322273D01*
X0201162Y0322335D01*
X0201018Y0322400D01*
X0200876Y0322470D01*
X0200735Y0322542D01*
X0200596Y0322619D01*
X0200460Y0322698D01*
X0200325Y0322782D01*
X0200192Y0322868D01*
X0200062Y0322958D01*
X0199934Y0323051D01*
X0199808Y0323147D01*
X0199685Y0323247D01*
X0199564Y0323349D01*
X0199446Y0323454D01*
X0199331Y0323563D01*
X0199218Y0323674D01*
X0199108Y0323788D01*
X0199001Y0323905D01*
X0198897Y0324024D01*
X0198796Y0324146D01*
X0198699Y0324271D01*
X0198604Y0324398D01*
X0198513Y0324527D01*
X0198424Y0324658D01*
X0198340Y0324792D01*
X0198258Y0324928D01*
X0198180Y0325065D01*
X0198106Y0325205D01*
X0198035Y0325347D01*
X0197967Y0325490D01*
X0197903Y0325635D01*
X0197843Y0325781D01*
X0197787Y0325929D01*
X0197734Y0326078D01*
X0197685Y0326229D01*
X0197640Y0326381D01*
X0197599Y0326534D01*
X0197561Y0326687D01*
X0197528Y0326842D01*
X0197498Y0326998D01*
X0197472Y0327154D01*
X0197451Y0327311D01*
X0197433Y0327468D01*
X0197419Y0327626D01*
X0197409Y0327784D01*
X0197403Y0327942D01*
X0197401Y0328100D01*
X0484901Y0328500D02*
X0484903Y0328658D01*
X0484909Y0328816D01*
X0484919Y0328974D01*
X0484933Y0329132D01*
X0484951Y0329289D01*
X0484972Y0329446D01*
X0484998Y0329602D01*
X0485028Y0329758D01*
X0485061Y0329913D01*
X0485099Y0330066D01*
X0485140Y0330219D01*
X0485185Y0330371D01*
X0485234Y0330522D01*
X0485287Y0330671D01*
X0485343Y0330819D01*
X0485403Y0330965D01*
X0485467Y0331110D01*
X0485535Y0331253D01*
X0485606Y0331395D01*
X0485680Y0331535D01*
X0485758Y0331672D01*
X0485840Y0331808D01*
X0485924Y0331942D01*
X0486013Y0332073D01*
X0486104Y0332202D01*
X0486199Y0332329D01*
X0486296Y0332454D01*
X0486397Y0332576D01*
X0486501Y0332695D01*
X0486608Y0332812D01*
X0486718Y0332926D01*
X0486831Y0333037D01*
X0486946Y0333146D01*
X0487064Y0333251D01*
X0487185Y0333353D01*
X0487308Y0333453D01*
X0487434Y0333549D01*
X0487562Y0333642D01*
X0487692Y0333732D01*
X0487825Y0333818D01*
X0487960Y0333902D01*
X0488096Y0333981D01*
X0488235Y0334058D01*
X0488376Y0334130D01*
X0488518Y0334200D01*
X0488662Y0334265D01*
X0488808Y0334327D01*
X0488955Y0334385D01*
X0489104Y0334440D01*
X0489254Y0334491D01*
X0489405Y0334538D01*
X0489557Y0334581D01*
X0489710Y0334620D01*
X0489865Y0334656D01*
X0490020Y0334687D01*
X0490176Y0334715D01*
X0490332Y0334739D01*
X0490489Y0334759D01*
X0490647Y0334775D01*
X0490804Y0334787D01*
X0490963Y0334795D01*
X0491121Y0334799D01*
X0491279Y0334799D01*
X0491437Y0334795D01*
X0491596Y0334787D01*
X0491753Y0334775D01*
X0491911Y0334759D01*
X0492068Y0334739D01*
X0492224Y0334715D01*
X0492380Y0334687D01*
X0492535Y0334656D01*
X0492690Y0334620D01*
X0492843Y0334581D01*
X0492995Y0334538D01*
X0493146Y0334491D01*
X0493296Y0334440D01*
X0493445Y0334385D01*
X0493592Y0334327D01*
X0493738Y0334265D01*
X0493882Y0334200D01*
X0494024Y0334130D01*
X0494165Y0334058D01*
X0494304Y0333981D01*
X0494440Y0333902D01*
X0494575Y0333818D01*
X0494708Y0333732D01*
X0494838Y0333642D01*
X0494966Y0333549D01*
X0495092Y0333453D01*
X0495215Y0333353D01*
X0495336Y0333251D01*
X0495454Y0333146D01*
X0495569Y0333037D01*
X0495682Y0332926D01*
X0495792Y0332812D01*
X0495899Y0332695D01*
X0496003Y0332576D01*
X0496104Y0332454D01*
X0496201Y0332329D01*
X0496296Y0332202D01*
X0496387Y0332073D01*
X0496476Y0331942D01*
X0496560Y0331808D01*
X0496642Y0331672D01*
X0496720Y0331535D01*
X0496794Y0331395D01*
X0496865Y0331253D01*
X0496933Y0331110D01*
X0496997Y0330965D01*
X0497057Y0330819D01*
X0497113Y0330671D01*
X0497166Y0330522D01*
X0497215Y0330371D01*
X0497260Y0330219D01*
X0497301Y0330066D01*
X0497339Y0329913D01*
X0497372Y0329758D01*
X0497402Y0329602D01*
X0497428Y0329446D01*
X0497449Y0329289D01*
X0497467Y0329132D01*
X0497481Y0328974D01*
X0497491Y0328816D01*
X0497497Y0328658D01*
X0497499Y0328500D01*
X0497497Y0328342D01*
X0497491Y0328184D01*
X0497481Y0328026D01*
X0497467Y0327868D01*
X0497449Y0327711D01*
X0497428Y0327554D01*
X0497402Y0327398D01*
X0497372Y0327242D01*
X0497339Y0327087D01*
X0497301Y0326934D01*
X0497260Y0326781D01*
X0497215Y0326629D01*
X0497166Y0326478D01*
X0497113Y0326329D01*
X0497057Y0326181D01*
X0496997Y0326035D01*
X0496933Y0325890D01*
X0496865Y0325747D01*
X0496794Y0325605D01*
X0496720Y0325465D01*
X0496642Y0325328D01*
X0496560Y0325192D01*
X0496476Y0325058D01*
X0496387Y0324927D01*
X0496296Y0324798D01*
X0496201Y0324671D01*
X0496104Y0324546D01*
X0496003Y0324424D01*
X0495899Y0324305D01*
X0495792Y0324188D01*
X0495682Y0324074D01*
X0495569Y0323963D01*
X0495454Y0323854D01*
X0495336Y0323749D01*
X0495215Y0323647D01*
X0495092Y0323547D01*
X0494966Y0323451D01*
X0494838Y0323358D01*
X0494708Y0323268D01*
X0494575Y0323182D01*
X0494440Y0323098D01*
X0494304Y0323019D01*
X0494165Y0322942D01*
X0494024Y0322870D01*
X0493882Y0322800D01*
X0493738Y0322735D01*
X0493592Y0322673D01*
X0493445Y0322615D01*
X0493296Y0322560D01*
X0493146Y0322509D01*
X0492995Y0322462D01*
X0492843Y0322419D01*
X0492690Y0322380D01*
X0492535Y0322344D01*
X0492380Y0322313D01*
X0492224Y0322285D01*
X0492068Y0322261D01*
X0491911Y0322241D01*
X0491753Y0322225D01*
X0491596Y0322213D01*
X0491437Y0322205D01*
X0491279Y0322201D01*
X0491121Y0322201D01*
X0490963Y0322205D01*
X0490804Y0322213D01*
X0490647Y0322225D01*
X0490489Y0322241D01*
X0490332Y0322261D01*
X0490176Y0322285D01*
X0490020Y0322313D01*
X0489865Y0322344D01*
X0489710Y0322380D01*
X0489557Y0322419D01*
X0489405Y0322462D01*
X0489254Y0322509D01*
X0489104Y0322560D01*
X0488955Y0322615D01*
X0488808Y0322673D01*
X0488662Y0322735D01*
X0488518Y0322800D01*
X0488376Y0322870D01*
X0488235Y0322942D01*
X0488096Y0323019D01*
X0487960Y0323098D01*
X0487825Y0323182D01*
X0487692Y0323268D01*
X0487562Y0323358D01*
X0487434Y0323451D01*
X0487308Y0323547D01*
X0487185Y0323647D01*
X0487064Y0323749D01*
X0486946Y0323854D01*
X0486831Y0323963D01*
X0486718Y0324074D01*
X0486608Y0324188D01*
X0486501Y0324305D01*
X0486397Y0324424D01*
X0486296Y0324546D01*
X0486199Y0324671D01*
X0486104Y0324798D01*
X0486013Y0324927D01*
X0485924Y0325058D01*
X0485840Y0325192D01*
X0485758Y0325328D01*
X0485680Y0325465D01*
X0485606Y0325605D01*
X0485535Y0325747D01*
X0485467Y0325890D01*
X0485403Y0326035D01*
X0485343Y0326181D01*
X0485287Y0326329D01*
X0485234Y0326478D01*
X0485185Y0326629D01*
X0485140Y0326781D01*
X0485099Y0326934D01*
X0485061Y0327087D01*
X0485028Y0327242D01*
X0484998Y0327398D01*
X0484972Y0327554D01*
X0484951Y0327711D01*
X0484933Y0327868D01*
X0484919Y0328026D01*
X0484909Y0328184D01*
X0484903Y0328342D01*
X0484901Y0328500D01*
X0485501Y0175700D02*
X0485503Y0175858D01*
X0485509Y0176016D01*
X0485519Y0176174D01*
X0485533Y0176332D01*
X0485551Y0176489D01*
X0485572Y0176646D01*
X0485598Y0176802D01*
X0485628Y0176958D01*
X0485661Y0177113D01*
X0485699Y0177266D01*
X0485740Y0177419D01*
X0485785Y0177571D01*
X0485834Y0177722D01*
X0485887Y0177871D01*
X0485943Y0178019D01*
X0486003Y0178165D01*
X0486067Y0178310D01*
X0486135Y0178453D01*
X0486206Y0178595D01*
X0486280Y0178735D01*
X0486358Y0178872D01*
X0486440Y0179008D01*
X0486524Y0179142D01*
X0486613Y0179273D01*
X0486704Y0179402D01*
X0486799Y0179529D01*
X0486896Y0179654D01*
X0486997Y0179776D01*
X0487101Y0179895D01*
X0487208Y0180012D01*
X0487318Y0180126D01*
X0487431Y0180237D01*
X0487546Y0180346D01*
X0487664Y0180451D01*
X0487785Y0180553D01*
X0487908Y0180653D01*
X0488034Y0180749D01*
X0488162Y0180842D01*
X0488292Y0180932D01*
X0488425Y0181018D01*
X0488560Y0181102D01*
X0488696Y0181181D01*
X0488835Y0181258D01*
X0488976Y0181330D01*
X0489118Y0181400D01*
X0489262Y0181465D01*
X0489408Y0181527D01*
X0489555Y0181585D01*
X0489704Y0181640D01*
X0489854Y0181691D01*
X0490005Y0181738D01*
X0490157Y0181781D01*
X0490310Y0181820D01*
X0490465Y0181856D01*
X0490620Y0181887D01*
X0490776Y0181915D01*
X0490932Y0181939D01*
X0491089Y0181959D01*
X0491247Y0181975D01*
X0491404Y0181987D01*
X0491563Y0181995D01*
X0491721Y0181999D01*
X0491879Y0181999D01*
X0492037Y0181995D01*
X0492196Y0181987D01*
X0492353Y0181975D01*
X0492511Y0181959D01*
X0492668Y0181939D01*
X0492824Y0181915D01*
X0492980Y0181887D01*
X0493135Y0181856D01*
X0493290Y0181820D01*
X0493443Y0181781D01*
X0493595Y0181738D01*
X0493746Y0181691D01*
X0493896Y0181640D01*
X0494045Y0181585D01*
X0494192Y0181527D01*
X0494338Y0181465D01*
X0494482Y0181400D01*
X0494624Y0181330D01*
X0494765Y0181258D01*
X0494904Y0181181D01*
X0495040Y0181102D01*
X0495175Y0181018D01*
X0495308Y0180932D01*
X0495438Y0180842D01*
X0495566Y0180749D01*
X0495692Y0180653D01*
X0495815Y0180553D01*
X0495936Y0180451D01*
X0496054Y0180346D01*
X0496169Y0180237D01*
X0496282Y0180126D01*
X0496392Y0180012D01*
X0496499Y0179895D01*
X0496603Y0179776D01*
X0496704Y0179654D01*
X0496801Y0179529D01*
X0496896Y0179402D01*
X0496987Y0179273D01*
X0497076Y0179142D01*
X0497160Y0179008D01*
X0497242Y0178872D01*
X0497320Y0178735D01*
X0497394Y0178595D01*
X0497465Y0178453D01*
X0497533Y0178310D01*
X0497597Y0178165D01*
X0497657Y0178019D01*
X0497713Y0177871D01*
X0497766Y0177722D01*
X0497815Y0177571D01*
X0497860Y0177419D01*
X0497901Y0177266D01*
X0497939Y0177113D01*
X0497972Y0176958D01*
X0498002Y0176802D01*
X0498028Y0176646D01*
X0498049Y0176489D01*
X0498067Y0176332D01*
X0498081Y0176174D01*
X0498091Y0176016D01*
X0498097Y0175858D01*
X0498099Y0175700D01*
X0498097Y0175542D01*
X0498091Y0175384D01*
X0498081Y0175226D01*
X0498067Y0175068D01*
X0498049Y0174911D01*
X0498028Y0174754D01*
X0498002Y0174598D01*
X0497972Y0174442D01*
X0497939Y0174287D01*
X0497901Y0174134D01*
X0497860Y0173981D01*
X0497815Y0173829D01*
X0497766Y0173678D01*
X0497713Y0173529D01*
X0497657Y0173381D01*
X0497597Y0173235D01*
X0497533Y0173090D01*
X0497465Y0172947D01*
X0497394Y0172805D01*
X0497320Y0172665D01*
X0497242Y0172528D01*
X0497160Y0172392D01*
X0497076Y0172258D01*
X0496987Y0172127D01*
X0496896Y0171998D01*
X0496801Y0171871D01*
X0496704Y0171746D01*
X0496603Y0171624D01*
X0496499Y0171505D01*
X0496392Y0171388D01*
X0496282Y0171274D01*
X0496169Y0171163D01*
X0496054Y0171054D01*
X0495936Y0170949D01*
X0495815Y0170847D01*
X0495692Y0170747D01*
X0495566Y0170651D01*
X0495438Y0170558D01*
X0495308Y0170468D01*
X0495175Y0170382D01*
X0495040Y0170298D01*
X0494904Y0170219D01*
X0494765Y0170142D01*
X0494624Y0170070D01*
X0494482Y0170000D01*
X0494338Y0169935D01*
X0494192Y0169873D01*
X0494045Y0169815D01*
X0493896Y0169760D01*
X0493746Y0169709D01*
X0493595Y0169662D01*
X0493443Y0169619D01*
X0493290Y0169580D01*
X0493135Y0169544D01*
X0492980Y0169513D01*
X0492824Y0169485D01*
X0492668Y0169461D01*
X0492511Y0169441D01*
X0492353Y0169425D01*
X0492196Y0169413D01*
X0492037Y0169405D01*
X0491879Y0169401D01*
X0491721Y0169401D01*
X0491563Y0169405D01*
X0491404Y0169413D01*
X0491247Y0169425D01*
X0491089Y0169441D01*
X0490932Y0169461D01*
X0490776Y0169485D01*
X0490620Y0169513D01*
X0490465Y0169544D01*
X0490310Y0169580D01*
X0490157Y0169619D01*
X0490005Y0169662D01*
X0489854Y0169709D01*
X0489704Y0169760D01*
X0489555Y0169815D01*
X0489408Y0169873D01*
X0489262Y0169935D01*
X0489118Y0170000D01*
X0488976Y0170070D01*
X0488835Y0170142D01*
X0488696Y0170219D01*
X0488560Y0170298D01*
X0488425Y0170382D01*
X0488292Y0170468D01*
X0488162Y0170558D01*
X0488034Y0170651D01*
X0487908Y0170747D01*
X0487785Y0170847D01*
X0487664Y0170949D01*
X0487546Y0171054D01*
X0487431Y0171163D01*
X0487318Y0171274D01*
X0487208Y0171388D01*
X0487101Y0171505D01*
X0486997Y0171624D01*
X0486896Y0171746D01*
X0486799Y0171871D01*
X0486704Y0171998D01*
X0486613Y0172127D01*
X0486524Y0172258D01*
X0486440Y0172392D01*
X0486358Y0172528D01*
X0486280Y0172665D01*
X0486206Y0172805D01*
X0486135Y0172947D01*
X0486067Y0173090D01*
X0486003Y0173235D01*
X0485943Y0173381D01*
X0485887Y0173529D01*
X0485834Y0173678D01*
X0485785Y0173829D01*
X0485740Y0173981D01*
X0485699Y0174134D01*
X0485661Y0174287D01*
X0485628Y0174442D01*
X0485598Y0174598D01*
X0485572Y0174754D01*
X0485551Y0174911D01*
X0485533Y0175068D01*
X0485519Y0175226D01*
X0485509Y0175384D01*
X0485503Y0175542D01*
X0485501Y0175700D01*
D11*
X0455200Y0193200D03*
X0455100Y0193200D03*
X0472400Y0201400D03*
X0472500Y0202900D03*
X0472500Y0203800D03*
X0472600Y0203800D03*
X0473600Y0204300D03*
X0473600Y0202400D03*
X0474600Y0200500D03*
X0474600Y0200100D03*
X0473000Y0206700D03*
X0472500Y0206700D03*
X0474600Y0211100D03*
X0474600Y0211500D03*
X0455200Y0218400D03*
X0455100Y0218400D03*
X0444500Y0247400D03*
X0444400Y0251100D03*
X0365100Y0188400D03*
X0369200Y0186700D03*
X0369000Y0184400D03*
X0369000Y0182900D03*
X0363100Y0182900D03*
X0363100Y0184400D03*
X0363500Y0175700D03*
X0349900Y0175100D03*
X0349900Y0175000D03*
X0342800Y0175500D03*
X0347500Y0182200D03*
X0348200Y0188700D03*
X0342800Y0188900D03*
X0314900Y0172700D03*
X0305700Y0177000D03*
X0261400Y0225800D03*
X0257700Y0225700D03*
X0251500Y0229400D03*
X0250400Y0224900D03*
X0261200Y0276800D03*
X0255000Y0280500D03*
X0251300Y0280400D03*
X0321200Y0318400D03*
X0324100Y0320100D03*
X0323600Y0322300D03*
X0323600Y0323600D03*
X0380400Y0186700D03*
X0398800Y0184000D03*
X0397900Y0179700D03*
X0398400Y0177000D03*
X0408400Y0170600D03*
D12*
X0408250Y0170800D03*
X0392350Y0173600D03*
X0407650Y0185600D03*
X0394350Y0188500D03*
X0367850Y0181100D03*
X0368350Y0177900D03*
X0368450Y0176500D03*
X0368450Y0175000D03*
X0363450Y0175900D03*
X0363450Y0176000D03*
X0350050Y0174700D03*
X0342550Y0175400D03*
X0347650Y0182100D03*
X0347750Y0186200D03*
X0315950Y0170700D03*
X0262650Y0224200D03*
X0262850Y0225000D03*
X0262950Y0225300D03*
X0262950Y0225400D03*
X0263050Y0225600D03*
X0263050Y0225700D03*
X0263050Y0225800D03*
X0263150Y0225900D03*
X0263150Y0226000D03*
X0263150Y0226100D03*
X0263250Y0226300D03*
X0263250Y0226400D03*
X0263350Y0226600D03*
X0262350Y0226600D03*
X0262350Y0226500D03*
X0262350Y0226400D03*
X0262350Y0226300D03*
X0262350Y0226200D03*
X0262350Y0226100D03*
X0262350Y0226000D03*
X0262350Y0225900D03*
X0262350Y0225800D03*
X0262350Y0225700D03*
X0262350Y0225600D03*
X0261150Y0226500D03*
X0261150Y0226600D03*
X0261150Y0226700D03*
X0261150Y0226800D03*
X0261150Y0226900D03*
X0261150Y0227000D03*
X0261150Y0227400D03*
X0261150Y0227500D03*
X0261150Y0227600D03*
X0261150Y0227700D03*
X0261150Y0227800D03*
X0261150Y0227900D03*
X0261150Y0228300D03*
X0261150Y0228400D03*
X0261150Y0228500D03*
X0261150Y0228600D03*
X0261150Y0228700D03*
X0261150Y0228800D03*
X0261150Y0228900D03*
X0261150Y0229000D03*
X0261150Y0229100D03*
X0261150Y0229200D03*
X0261150Y0229300D03*
X0261150Y0229400D03*
X0261150Y0229500D03*
X0261150Y0229600D03*
X0261150Y0229700D03*
X0262350Y0229700D03*
X0262350Y0229600D03*
X0262350Y0229500D03*
X0262350Y0229400D03*
X0262350Y0229300D03*
X0262350Y0229200D03*
X0262350Y0229100D03*
X0262350Y0229000D03*
X0262350Y0228900D03*
X0262350Y0228800D03*
X0262350Y0228700D03*
X0262350Y0228600D03*
X0262350Y0228500D03*
X0262350Y0227900D03*
X0262350Y0227800D03*
X0262350Y0227700D03*
X0262350Y0227600D03*
X0262350Y0227500D03*
X0262350Y0227400D03*
X0262350Y0227300D03*
X0262350Y0227200D03*
X0262350Y0227100D03*
X0259850Y0227000D03*
X0259850Y0226900D03*
X0259850Y0226800D03*
X0259850Y0226700D03*
X0259850Y0226600D03*
X0259850Y0226500D03*
X0258950Y0226500D03*
X0258950Y0226400D03*
X0258950Y0226300D03*
X0258950Y0226600D03*
X0258950Y0226700D03*
X0258950Y0226800D03*
X0258950Y0226900D03*
X0258950Y0227000D03*
X0258950Y0227100D03*
X0258950Y0227200D03*
X0258950Y0227300D03*
X0258950Y0227400D03*
X0258950Y0227500D03*
X0258950Y0227600D03*
X0258950Y0227700D03*
X0258950Y0227800D03*
X0258950Y0227900D03*
X0258950Y0228000D03*
X0258950Y0228100D03*
X0258950Y0228200D03*
X0258950Y0228300D03*
X0258950Y0228400D03*
X0258950Y0228500D03*
X0259850Y0228500D03*
X0259850Y0228400D03*
X0259850Y0228300D03*
X0259850Y0228600D03*
X0259850Y0228700D03*
X0259850Y0228800D03*
X0259850Y0228900D03*
X0259850Y0229000D03*
X0259850Y0229100D03*
X0259850Y0227900D03*
X0259850Y0227800D03*
X0259850Y0227700D03*
X0259850Y0227600D03*
X0259850Y0227500D03*
X0259850Y0227400D03*
X0257950Y0227400D03*
X0257950Y0227300D03*
X0257950Y0227200D03*
X0257950Y0227100D03*
X0257950Y0227000D03*
X0257950Y0226900D03*
X0257950Y0226800D03*
X0257950Y0226700D03*
X0257950Y0226600D03*
X0257950Y0226500D03*
X0257950Y0226400D03*
X0257950Y0226300D03*
X0257950Y0226200D03*
X0257950Y0226100D03*
X0257950Y0226000D03*
X0257750Y0225600D03*
X0257950Y0227500D03*
X0257950Y0227600D03*
X0257950Y0227700D03*
X0257950Y0227800D03*
X0257950Y0227900D03*
X0257950Y0228000D03*
X0257950Y0228100D03*
X0257950Y0228200D03*
X0257950Y0228300D03*
X0257950Y0228400D03*
X0257950Y0228500D03*
X0257950Y0228600D03*
X0257950Y0228700D03*
X0257950Y0228800D03*
X0257950Y0228900D03*
X0257950Y0229000D03*
X0257950Y0229100D03*
X0255150Y0223800D03*
X0250250Y0224700D03*
X0251550Y0229300D03*
X0251550Y0276500D03*
X0251550Y0276600D03*
X0251550Y0276700D03*
X0251550Y0276800D03*
X0251550Y0276900D03*
X0251550Y0277000D03*
X0251550Y0277100D03*
X0251550Y0277200D03*
X0251550Y0277300D03*
X0251550Y0277400D03*
X0251550Y0277500D03*
X0251550Y0277600D03*
X0251550Y0277700D03*
X0251550Y0277800D03*
X0251550Y0277900D03*
X0251550Y0278300D03*
X0251550Y0278400D03*
X0251550Y0278500D03*
X0251550Y0278600D03*
X0251550Y0278700D03*
X0251550Y0278800D03*
X0251550Y0279200D03*
X0251550Y0279300D03*
X0251550Y0279400D03*
X0251550Y0279500D03*
X0251550Y0279600D03*
X0251550Y0279700D03*
X0250350Y0279700D03*
X0250350Y0279800D03*
X0250350Y0279900D03*
X0250350Y0280000D03*
X0250350Y0280100D03*
X0250350Y0280200D03*
X0250350Y0280300D03*
X0250350Y0280400D03*
X0250350Y0280500D03*
X0250350Y0280600D03*
X0249750Y0280800D03*
X0249750Y0280900D03*
X0249850Y0281200D03*
X0249650Y0280600D03*
X0249650Y0280500D03*
X0249650Y0280400D03*
X0249550Y0280300D03*
X0249550Y0280200D03*
X0249550Y0280100D03*
X0249450Y0279900D03*
X0249450Y0279800D03*
X0249350Y0279600D03*
X0250350Y0279600D03*
X0250350Y0279100D03*
X0250350Y0279000D03*
X0250350Y0278900D03*
X0250350Y0278800D03*
X0250350Y0278700D03*
X0250350Y0278600D03*
X0250350Y0278500D03*
X0250350Y0278400D03*
X0250350Y0278300D03*
X0250350Y0277700D03*
X0250350Y0277600D03*
X0250350Y0277500D03*
X0250350Y0277400D03*
X0250350Y0277300D03*
X0250350Y0277200D03*
X0250350Y0277100D03*
X0250350Y0277000D03*
X0250350Y0276900D03*
X0250350Y0276800D03*
X0250350Y0276700D03*
X0250350Y0276600D03*
X0250350Y0276500D03*
X0252850Y0277100D03*
X0252850Y0277200D03*
X0252850Y0277300D03*
X0252850Y0277400D03*
X0252850Y0277500D03*
X0252850Y0277600D03*
X0252850Y0277700D03*
X0252850Y0277800D03*
X0252850Y0277900D03*
X0252850Y0278300D03*
X0252850Y0278400D03*
X0252850Y0278500D03*
X0252850Y0278600D03*
X0252850Y0278700D03*
X0252850Y0278800D03*
X0252850Y0279200D03*
X0252850Y0279300D03*
X0252850Y0279400D03*
X0252850Y0279500D03*
X0252850Y0279600D03*
X0252850Y0279700D03*
X0253750Y0279700D03*
X0253750Y0279800D03*
X0253750Y0279900D03*
X0253750Y0279600D03*
X0253750Y0279500D03*
X0253750Y0279400D03*
X0253750Y0279300D03*
X0253750Y0279200D03*
X0253750Y0279100D03*
X0253750Y0279000D03*
X0253750Y0278900D03*
X0253750Y0278800D03*
X0253750Y0278700D03*
X0253750Y0278600D03*
X0253750Y0278500D03*
X0253750Y0278400D03*
X0253750Y0278300D03*
X0253750Y0278200D03*
X0253750Y0278100D03*
X0253750Y0278000D03*
X0253750Y0277900D03*
X0253750Y0277800D03*
X0253750Y0277700D03*
X0254750Y0277700D03*
X0254750Y0277800D03*
X0254750Y0277900D03*
X0254750Y0278000D03*
X0254750Y0278100D03*
X0254750Y0278200D03*
X0254750Y0278300D03*
X0254750Y0278400D03*
X0254750Y0278500D03*
X0254750Y0278600D03*
X0254750Y0278700D03*
X0254750Y0278800D03*
X0254750Y0278900D03*
X0254750Y0279000D03*
X0254750Y0279100D03*
X0254750Y0279200D03*
X0254750Y0279300D03*
X0254750Y0279400D03*
X0254750Y0279500D03*
X0254750Y0279600D03*
X0254750Y0279700D03*
X0254750Y0279800D03*
X0254750Y0279900D03*
X0254750Y0280000D03*
X0254750Y0280100D03*
X0254750Y0280200D03*
X0254950Y0280600D03*
X0254750Y0277600D03*
X0254750Y0277500D03*
X0254750Y0277400D03*
X0254750Y0277300D03*
X0254750Y0277200D03*
X0254750Y0277100D03*
X0257550Y0282400D03*
X0261150Y0276900D03*
X0250050Y0282000D03*
X0321250Y0318500D03*
X0321250Y0319700D03*
X0322050Y0321400D03*
X0321950Y0322200D03*
X0321950Y0322300D03*
X0321950Y0322400D03*
X0322950Y0324400D03*
X0324250Y0320000D03*
X0390550Y0320000D03*
X0390550Y0319900D03*
X0390650Y0321000D03*
X0390650Y0321100D03*
X0390650Y0321200D03*
X0390650Y0321300D03*
X0390650Y0321400D03*
D13*
X0390700Y0321500D03*
X0390700Y0321600D03*
X0390700Y0321700D03*
X0390600Y0320900D03*
X0390600Y0320800D03*
X0390600Y0320700D03*
X0390600Y0320600D03*
X0390600Y0320500D03*
X0390600Y0320400D03*
X0390600Y0320300D03*
X0390600Y0320200D03*
X0390600Y0320100D03*
X0390500Y0319800D03*
X0390500Y0319700D03*
X0390500Y0319600D03*
X0386600Y0322300D03*
X0386600Y0322400D03*
X0386600Y0322500D03*
X0386600Y0322600D03*
X0386600Y0322700D03*
X0386700Y0322800D03*
X0386700Y0322900D03*
X0386700Y0323000D03*
X0386700Y0323100D03*
X0386700Y0323200D03*
X0386700Y0323800D03*
X0386700Y0323900D03*
X0386800Y0324000D03*
X0386800Y0324100D03*
X0386800Y0324200D03*
X0386800Y0324300D03*
X0386800Y0324400D03*
X0386800Y0324500D03*
X0386800Y0324600D03*
X0386800Y0324700D03*
X0324300Y0319900D03*
X0324300Y0319800D03*
X0324200Y0319600D03*
X0324200Y0319500D03*
X0324200Y0319400D03*
X0324200Y0319300D03*
X0324100Y0319200D03*
X0324100Y0319100D03*
X0323700Y0318500D03*
X0322200Y0320500D03*
X0322200Y0320600D03*
X0322200Y0320700D03*
X0322200Y0320800D03*
X0322100Y0320900D03*
X0322100Y0321000D03*
X0322100Y0321100D03*
X0322100Y0321200D03*
X0322100Y0321300D03*
X0322000Y0321500D03*
X0322000Y0321600D03*
X0322000Y0321700D03*
X0322000Y0321800D03*
X0322000Y0321900D03*
X0322000Y0322000D03*
X0322000Y0322100D03*
X0321900Y0322500D03*
X0321900Y0322600D03*
X0321900Y0322700D03*
X0321900Y0322800D03*
X0321900Y0322900D03*
X0321900Y0323500D03*
X0321900Y0323600D03*
X0321900Y0323700D03*
X0321900Y0323800D03*
X0321900Y0323900D03*
X0321900Y0324000D03*
X0321900Y0324100D03*
X0321900Y0324200D03*
X0321900Y0324300D03*
X0321900Y0324400D03*
X0321900Y0324500D03*
X0323600Y0323800D03*
X0323700Y0322200D03*
X0323700Y0322000D03*
X0323600Y0321800D03*
X0323300Y0321200D03*
X0323200Y0321000D03*
X0320800Y0321000D03*
X0320800Y0321100D03*
X0320800Y0321200D03*
X0320800Y0321300D03*
X0320800Y0321400D03*
X0320800Y0321500D03*
X0320800Y0321600D03*
X0320800Y0321700D03*
X0320800Y0321800D03*
X0320800Y0321900D03*
X0320800Y0320900D03*
X0320800Y0320400D03*
X0320800Y0320300D03*
X0320800Y0320200D03*
X0319000Y0320200D03*
X0319000Y0320300D03*
X0319000Y0320400D03*
X0319000Y0320100D03*
X0319000Y0320900D03*
X0319000Y0321000D03*
X0319000Y0321100D03*
X0319000Y0321200D03*
X0319000Y0321300D03*
X0319000Y0321400D03*
X0319000Y0321500D03*
X0319000Y0321600D03*
X0319000Y0321700D03*
X0319000Y0321800D03*
X0319000Y0321900D03*
X0263800Y0282100D03*
X0262600Y0281300D03*
X0259000Y0280100D03*
X0259000Y0280000D03*
X0258900Y0280200D03*
X0258900Y0280300D03*
X0258800Y0280400D03*
X0258200Y0280400D03*
X0258100Y0280100D03*
X0258000Y0279900D03*
X0259100Y0279800D03*
X0259200Y0279600D03*
X0259300Y0279400D03*
X0259500Y0279100D03*
X0259600Y0278900D03*
X0258400Y0281200D03*
X0258300Y0281400D03*
X0258200Y0281500D03*
X0255900Y0277000D03*
X0254700Y0277000D03*
X0252800Y0277000D03*
X0251000Y0278300D03*
X0249400Y0279700D03*
X0249500Y0280000D03*
X0249700Y0280700D03*
X0249800Y0281000D03*
X0249800Y0281100D03*
X0250000Y0281700D03*
X0250000Y0281800D03*
X0250000Y0281900D03*
X0250100Y0282100D03*
X0250100Y0282200D03*
X0250100Y0282300D03*
X0250200Y0282500D03*
X0252700Y0282000D03*
X0256800Y0229200D03*
X0258000Y0229200D03*
X0259900Y0229200D03*
X0261700Y0227900D03*
X0263300Y0226500D03*
X0263200Y0226200D03*
X0263000Y0225500D03*
X0262900Y0225200D03*
X0262900Y0225100D03*
X0262700Y0224500D03*
X0262700Y0224400D03*
X0262700Y0224300D03*
X0262600Y0224100D03*
X0262600Y0224000D03*
X0262600Y0223900D03*
X0262500Y0223700D03*
X0260000Y0224200D03*
X0254500Y0224700D03*
X0254400Y0224800D03*
X0254300Y0225000D03*
X0254500Y0225800D03*
X0254600Y0226100D03*
X0254700Y0226300D03*
X0253900Y0225800D03*
X0253800Y0225900D03*
X0253800Y0226000D03*
X0253700Y0226100D03*
X0253700Y0226200D03*
X0253600Y0226400D03*
X0253500Y0226600D03*
X0253400Y0226800D03*
X0253200Y0227100D03*
X0253100Y0227300D03*
X0316800Y0175200D03*
X0342400Y0171100D03*
X0349700Y0170900D03*
X0350400Y0185700D03*
X0347800Y0186300D03*
X0348000Y0188500D03*
X0380100Y0176500D03*
X0379400Y0170900D03*
X0397100Y0170600D03*
D14*
X0392450Y0173700D03*
X0378750Y0177700D03*
X0367850Y0181000D03*
X0363450Y0176100D03*
X0368850Y0171000D03*
X0350150Y0174600D03*
X0334750Y0172200D03*
X0334350Y0185700D03*
X0321150Y0186100D03*
X0262550Y0223800D03*
X0261350Y0225600D03*
X0260450Y0224700D03*
X0260350Y0224600D03*
X0260250Y0224500D03*
X0260150Y0224400D03*
X0260050Y0224300D03*
X0259950Y0224100D03*
X0259250Y0224100D03*
X0259150Y0224200D03*
X0259050Y0224300D03*
X0257750Y0225500D03*
X0255150Y0223900D03*
X0254750Y0224400D03*
X0254650Y0224500D03*
X0254550Y0224600D03*
X0254350Y0224900D03*
X0254250Y0225100D03*
X0254250Y0225200D03*
X0254550Y0225900D03*
X0254550Y0226000D03*
X0254650Y0226200D03*
X0254750Y0226400D03*
X0254750Y0226500D03*
X0254850Y0226600D03*
X0254850Y0226700D03*
X0254950Y0226800D03*
X0254950Y0226900D03*
X0255050Y0227000D03*
X0255050Y0227100D03*
X0255150Y0227200D03*
X0255250Y0227400D03*
X0253550Y0226500D03*
X0253450Y0226700D03*
X0253350Y0226900D03*
X0253250Y0227000D03*
X0253150Y0227200D03*
X0253050Y0227400D03*
X0252950Y0227500D03*
X0252950Y0227600D03*
X0252850Y0227700D03*
X0252750Y0227800D03*
X0252550Y0228100D03*
X0251550Y0229200D03*
X0253650Y0226300D03*
X0250150Y0224600D03*
X0248050Y0224800D03*
X0247950Y0225000D03*
X0247950Y0225100D03*
X0247950Y0225200D03*
X0247950Y0225300D03*
X0247950Y0225400D03*
X0247950Y0225500D03*
X0247950Y0225600D03*
X0248050Y0225700D03*
X0248050Y0225800D03*
X0248050Y0225900D03*
X0248150Y0226000D03*
X0248250Y0226200D03*
X0248650Y0226700D03*
X0261150Y0277000D03*
X0260150Y0278100D03*
X0259950Y0278400D03*
X0259850Y0278500D03*
X0259750Y0278600D03*
X0259750Y0278700D03*
X0259650Y0278800D03*
X0259550Y0279000D03*
X0259450Y0279200D03*
X0259350Y0279300D03*
X0259250Y0279500D03*
X0259150Y0279700D03*
X0259050Y0279900D03*
X0258150Y0280200D03*
X0258150Y0280300D03*
X0258050Y0280000D03*
X0257950Y0279800D03*
X0257950Y0279700D03*
X0257850Y0279600D03*
X0257850Y0279500D03*
X0257750Y0279400D03*
X0257750Y0279300D03*
X0257650Y0279200D03*
X0257650Y0279100D03*
X0257550Y0279000D03*
X0257450Y0278800D03*
X0258450Y0281000D03*
X0258450Y0281100D03*
X0258350Y0281300D03*
X0258150Y0281600D03*
X0258050Y0281700D03*
X0257950Y0281800D03*
X0257550Y0282300D03*
X0254950Y0280700D03*
X0253650Y0281900D03*
X0253550Y0282000D03*
X0253450Y0282100D03*
X0252750Y0282100D03*
X0252650Y0281900D03*
X0252550Y0281800D03*
X0252450Y0281700D03*
X0252350Y0281600D03*
X0252250Y0281500D03*
X0251350Y0280600D03*
X0250150Y0282400D03*
X0263750Y0281400D03*
X0263750Y0281300D03*
X0263750Y0281200D03*
X0263750Y0281100D03*
X0263750Y0281000D03*
X0263750Y0280900D03*
X0263750Y0280800D03*
X0263750Y0280700D03*
X0263750Y0280600D03*
X0263750Y0280500D03*
X0263750Y0280400D03*
X0263750Y0280300D03*
X0263750Y0280200D03*
X0263750Y0280100D03*
X0263750Y0280000D03*
X0263750Y0279900D03*
X0263750Y0279800D03*
X0263750Y0279700D03*
X0263750Y0279600D03*
X0263750Y0279500D03*
X0263750Y0279400D03*
X0263750Y0279300D03*
X0263750Y0279200D03*
X0263750Y0279100D03*
X0263750Y0279000D03*
X0263750Y0278900D03*
X0263750Y0278800D03*
X0263750Y0278700D03*
X0263750Y0278600D03*
X0263750Y0278500D03*
X0263750Y0278400D03*
X0263750Y0278300D03*
X0263750Y0278200D03*
X0263750Y0278100D03*
X0263750Y0278000D03*
X0263750Y0277900D03*
X0321250Y0318600D03*
X0322750Y0319400D03*
X0322450Y0319900D03*
X0322850Y0320500D03*
X0322950Y0320600D03*
X0323050Y0320700D03*
X0323050Y0320800D03*
X0323150Y0320900D03*
X0323250Y0321100D03*
X0323350Y0321300D03*
X0323450Y0321400D03*
X0323450Y0321500D03*
X0323550Y0321600D03*
X0323550Y0321700D03*
X0323650Y0321900D03*
X0323750Y0322100D03*
X0324250Y0319700D03*
X0324050Y0319000D03*
X0388250Y0319300D03*
X0390350Y0319400D03*
X0390450Y0319500D03*
D15*
X0323650Y0318600D03*
X0322350Y0319600D03*
X0322550Y0320300D03*
X0320950Y0319600D03*
X0258450Y0280600D03*
X0256050Y0277300D03*
X0255950Y0277200D03*
X0254150Y0276600D03*
X0252450Y0276800D03*
X0253150Y0282300D03*
X0261150Y0277200D03*
X0258550Y0229600D03*
X0260250Y0229400D03*
X0256750Y0229000D03*
X0256650Y0228900D03*
X0254250Y0225600D03*
X0251550Y0229000D03*
X0259550Y0223900D03*
X0347950Y0186500D03*
X0350150Y0184100D03*
X0347950Y0181900D03*
X0342450Y0171300D03*
X0349650Y0171000D03*
X0368950Y0171100D03*
X0368550Y0178200D03*
X0368550Y0184300D03*
X0363550Y0184300D03*
X0397250Y0170800D03*
X0403950Y0176700D03*
X0403850Y0177000D03*
X0403850Y0177100D03*
X0403750Y0177300D03*
D16*
X0403650Y0177700D03*
X0403550Y0177900D03*
X0403550Y0178000D03*
X0403550Y0178100D03*
X0397150Y0170700D03*
X0392550Y0173800D03*
X0379250Y0171000D03*
X0363450Y0176300D03*
X0370250Y0183700D03*
X0372250Y0188500D03*
X0375750Y0188500D03*
X0347950Y0188400D03*
X0347850Y0186400D03*
X0342350Y0175300D03*
X0334850Y0172300D03*
X0335650Y0182200D03*
X0334450Y0184100D03*
X0320450Y0181500D03*
X0261350Y0225500D03*
X0261250Y0225400D03*
X0260850Y0225100D03*
X0259550Y0223800D03*
X0258250Y0225100D03*
X0257950Y0225300D03*
X0255850Y0228200D03*
X0255950Y0228300D03*
X0256050Y0228400D03*
X0256150Y0228500D03*
X0254250Y0225400D03*
X0254250Y0225300D03*
X0252050Y0228600D03*
X0251950Y0228700D03*
X0251550Y0229100D03*
X0256550Y0277700D03*
X0256650Y0277800D03*
X0256750Y0277900D03*
X0256850Y0278000D03*
X0258450Y0280800D03*
X0258450Y0280900D03*
X0254750Y0280900D03*
X0254450Y0281100D03*
X0253150Y0282400D03*
X0251850Y0281100D03*
X0251450Y0280800D03*
X0251350Y0280700D03*
X0260650Y0277600D03*
X0260750Y0277500D03*
X0261150Y0277100D03*
X0262750Y0281400D03*
X0318750Y0318900D03*
X0321250Y0318700D03*
X0321350Y0318800D03*
X0321450Y0318900D03*
X0323550Y0323900D03*
X0323450Y0324000D03*
X0323150Y0324200D03*
D17*
X0322350Y0319500D03*
X0323650Y0318700D03*
X0263450Y0281900D03*
X0254150Y0276700D03*
X0258550Y0229500D03*
X0347850Y0188200D03*
X0364550Y0179500D03*
X0364550Y0179400D03*
X0364450Y0179200D03*
X0364350Y0179000D03*
X0363350Y0176500D03*
X0368450Y0183000D03*
X0369750Y0186600D03*
X0379850Y0186600D03*
X0374850Y0175000D03*
X0369050Y0171200D03*
X0350350Y0174200D03*
X0349650Y0171100D03*
X0342450Y0171400D03*
X0342150Y0175200D03*
X0316250Y0170800D03*
X0397250Y0170900D03*
X0404250Y0176000D03*
X0404150Y0176200D03*
X0404150Y0176300D03*
X0404050Y0176400D03*
X0397550Y0183500D03*
D18*
X0398000Y0183600D03*
X0398000Y0181900D03*
X0398300Y0176900D03*
X0391900Y0181900D03*
X0391900Y0183600D03*
X0401600Y0188900D03*
X0380300Y0185200D03*
X0369300Y0185200D03*
X0380200Y0175000D03*
X0368700Y0170900D03*
X0350000Y0174800D03*
X0334600Y0172100D03*
X0348100Y0188600D03*
X0305800Y0175200D03*
X0262600Y0223600D03*
X0261400Y0225700D03*
X0263400Y0228500D03*
X0256800Y0229300D03*
X0255900Y0276900D03*
X0251300Y0280500D03*
X0250100Y0282600D03*
X0249300Y0277700D03*
X0318500Y0318800D03*
X0323600Y0323700D03*
D19*
X0323550Y0318800D03*
X0319050Y0319000D03*
X0389350Y0318800D03*
X0376150Y0187900D03*
X0376150Y0187800D03*
X0376150Y0187700D03*
X0376150Y0187600D03*
X0376150Y0187500D03*
X0376150Y0187400D03*
X0376150Y0187300D03*
X0376150Y0187200D03*
X0376150Y0187100D03*
X0376150Y0187000D03*
X0376150Y0186900D03*
X0376150Y0186800D03*
X0376150Y0186700D03*
X0376150Y0186600D03*
X0376150Y0185300D03*
X0376150Y0185200D03*
X0376150Y0185100D03*
X0376150Y0185000D03*
X0376150Y0184900D03*
X0376150Y0184800D03*
X0376150Y0184700D03*
X0376150Y0184600D03*
X0376150Y0184500D03*
X0376150Y0184400D03*
X0376150Y0184300D03*
X0376150Y0184200D03*
X0376150Y0184100D03*
X0376150Y0184000D03*
X0376150Y0183900D03*
X0376150Y0183800D03*
X0376150Y0183700D03*
X0378250Y0182500D03*
X0378250Y0182400D03*
X0378250Y0182300D03*
X0378250Y0182200D03*
X0378250Y0182100D03*
X0378250Y0182000D03*
X0378250Y0181900D03*
X0378250Y0181800D03*
X0378250Y0181700D03*
X0378250Y0181600D03*
X0378250Y0181500D03*
X0378250Y0181400D03*
X0378250Y0181300D03*
X0378250Y0180100D03*
X0378250Y0180000D03*
X0378250Y0179900D03*
X0378250Y0179800D03*
X0378250Y0179700D03*
X0378250Y0179600D03*
X0378250Y0179500D03*
X0378250Y0179400D03*
X0378250Y0179300D03*
X0378250Y0179200D03*
X0378250Y0179100D03*
X0378250Y0179000D03*
X0378250Y0178900D03*
X0375050Y0174700D03*
X0375150Y0174500D03*
X0375250Y0174400D03*
X0370650Y0178900D03*
X0370650Y0179000D03*
X0370650Y0179100D03*
X0370650Y0179200D03*
X0370650Y0179300D03*
X0370650Y0179400D03*
X0370650Y0179500D03*
X0370650Y0179600D03*
X0370650Y0179700D03*
X0370650Y0179800D03*
X0370650Y0179900D03*
X0370650Y0180000D03*
X0370650Y0180100D03*
X0370650Y0181300D03*
X0370650Y0181400D03*
X0370650Y0181500D03*
X0370650Y0181600D03*
X0370650Y0181700D03*
X0370650Y0181800D03*
X0370650Y0181900D03*
X0370650Y0182000D03*
X0370650Y0182100D03*
X0370650Y0182200D03*
X0370650Y0182300D03*
X0370650Y0182400D03*
X0370650Y0182500D03*
X0372650Y0183700D03*
X0372650Y0183800D03*
X0372650Y0183900D03*
X0372650Y0184000D03*
X0372650Y0184100D03*
X0372650Y0184200D03*
X0372650Y0184300D03*
X0372650Y0184400D03*
X0372650Y0184500D03*
X0372650Y0184600D03*
X0372650Y0184700D03*
X0372650Y0184800D03*
X0372650Y0184900D03*
X0372650Y0185000D03*
X0372650Y0185100D03*
X0372650Y0185200D03*
X0372650Y0185300D03*
X0372650Y0186600D03*
X0372650Y0186700D03*
X0372650Y0186800D03*
X0372650Y0186900D03*
X0372650Y0187000D03*
X0372650Y0187100D03*
X0372650Y0187200D03*
X0372650Y0187300D03*
X0372650Y0187400D03*
X0372650Y0187500D03*
X0372650Y0187600D03*
X0372650Y0187700D03*
X0372650Y0187800D03*
X0372650Y0187900D03*
X0379750Y0185300D03*
X0368150Y0179600D03*
X0368050Y0179800D03*
X0367950Y0180000D03*
X0367850Y0180200D03*
X0367750Y0180400D03*
X0367650Y0180700D03*
X0368250Y0179400D03*
X0368350Y0179200D03*
X0368450Y0179000D03*
X0364150Y0178600D03*
X0364150Y0178500D03*
X0364050Y0178400D03*
X0364050Y0178300D03*
X0350450Y0174100D03*
X0342450Y0171500D03*
X0398550Y0178100D03*
X0404350Y0175700D03*
X0404450Y0175600D03*
X0404450Y0175500D03*
X0404550Y0175400D03*
D20*
X0404650Y0175200D03*
X0404750Y0175000D03*
X0401850Y0176700D03*
X0401850Y0176800D03*
X0401950Y0177000D03*
X0401950Y0177100D03*
X0401950Y0177200D03*
X0402050Y0177400D03*
X0402050Y0177500D03*
X0402050Y0177600D03*
X0402050Y0177700D03*
X0402150Y0177800D03*
X0402150Y0177900D03*
X0402150Y0178000D03*
X0402150Y0178100D03*
X0402350Y0180200D03*
X0402350Y0180300D03*
X0402350Y0180400D03*
X0402350Y0180500D03*
X0402350Y0180600D03*
X0402350Y0180700D03*
X0402350Y0180800D03*
X0402350Y0180900D03*
X0402350Y0181000D03*
X0402450Y0182500D03*
X0402450Y0182600D03*
X0402450Y0182700D03*
X0402450Y0182800D03*
X0402450Y0182900D03*
X0402450Y0183000D03*
X0402450Y0183100D03*
X0402450Y0183200D03*
X0402450Y0183300D03*
X0402450Y0183400D03*
X0402450Y0183500D03*
X0402450Y0183600D03*
X0402450Y0183700D03*
X0402450Y0183800D03*
X0402450Y0183900D03*
X0402450Y0184000D03*
X0402450Y0184100D03*
X0402450Y0185500D03*
X0402450Y0185600D03*
X0402450Y0185700D03*
X0402450Y0185800D03*
X0402450Y0185900D03*
X0402450Y0186000D03*
X0402450Y0186100D03*
X0402450Y0186200D03*
X0406850Y0183700D03*
X0406850Y0183600D03*
X0406850Y0183500D03*
X0406850Y0183400D03*
X0406850Y0183300D03*
X0406850Y0183200D03*
X0406850Y0183100D03*
X0406850Y0183000D03*
X0406850Y0182900D03*
X0406850Y0182800D03*
X0406850Y0182700D03*
X0406750Y0179900D03*
X0408650Y0178100D03*
X0394950Y0187800D03*
X0376150Y0188100D03*
X0372650Y0188100D03*
X0365950Y0187600D03*
X0365950Y0187500D03*
X0365950Y0187400D03*
X0365950Y0187300D03*
X0365950Y0187200D03*
X0365950Y0182900D03*
X0365950Y0182800D03*
X0365950Y0182700D03*
X0365950Y0182600D03*
X0363750Y0177800D03*
X0363650Y0177600D03*
X0365950Y0172900D03*
X0369150Y0171300D03*
X0373150Y0174600D03*
X0373250Y0174700D03*
X0373250Y0174800D03*
X0373350Y0175000D03*
X0373850Y0176700D03*
X0373850Y0176800D03*
X0373950Y0177400D03*
X0373950Y0177500D03*
X0373950Y0177600D03*
X0373950Y0177700D03*
X0375550Y0174100D03*
X0379550Y0175100D03*
X0378850Y0171300D03*
X0350550Y0174000D03*
X0346950Y0177100D03*
X0346950Y0177200D03*
X0347050Y0177300D03*
X0347050Y0177400D03*
X0347150Y0177500D03*
X0347150Y0177600D03*
X0347250Y0177800D03*
X0347250Y0177900D03*
X0347350Y0178000D03*
X0347350Y0178100D03*
X0347450Y0178300D03*
X0347450Y0178400D03*
X0347550Y0178600D03*
X0347550Y0178700D03*
X0347650Y0179000D03*
X0347650Y0179100D03*
X0347750Y0179300D03*
X0347750Y0179400D03*
X0347850Y0179700D03*
X0347850Y0179800D03*
X0347850Y0179900D03*
X0347950Y0180100D03*
X0347950Y0180200D03*
X0347950Y0180300D03*
X0347950Y0180400D03*
X0348050Y0180500D03*
X0348050Y0180600D03*
X0348050Y0180700D03*
X0348150Y0181800D03*
X0344150Y0181300D03*
X0344150Y0181200D03*
X0344150Y0181100D03*
X0344250Y0180600D03*
X0344250Y0180500D03*
X0344250Y0180400D03*
X0344350Y0179900D03*
X0344450Y0179400D03*
X0344550Y0179000D03*
X0344650Y0178600D03*
X0344750Y0178200D03*
X0344850Y0177900D03*
X0344950Y0177700D03*
X0344950Y0177600D03*
X0345050Y0177400D03*
X0345050Y0177300D03*
X0345150Y0177200D03*
X0345150Y0177100D03*
X0341850Y0175100D03*
X0341250Y0176000D03*
X0341250Y0176100D03*
X0341250Y0176200D03*
X0341250Y0176300D03*
X0341250Y0176400D03*
X0341250Y0176500D03*
X0341250Y0176600D03*
X0341250Y0176700D03*
X0341250Y0176800D03*
X0336050Y0176800D03*
X0336050Y0176700D03*
X0336050Y0176600D03*
X0336050Y0176500D03*
X0336050Y0176400D03*
X0336050Y0176300D03*
X0336050Y0176200D03*
X0336050Y0176100D03*
X0335150Y0172500D03*
X0344050Y0181800D03*
X0344050Y0181900D03*
X0344050Y0182000D03*
X0344050Y0182100D03*
X0344050Y0182200D03*
X0344050Y0182300D03*
X0343950Y0182700D03*
X0343950Y0182800D03*
X0343950Y0182900D03*
X0343950Y0183000D03*
X0343950Y0183100D03*
X0343950Y0183200D03*
X0343950Y0183300D03*
X0343950Y0183400D03*
X0343850Y0183700D03*
X0343850Y0183800D03*
X0343850Y0183900D03*
X0343850Y0184000D03*
X0343850Y0184100D03*
X0343850Y0184200D03*
X0343850Y0185600D03*
X0343850Y0185700D03*
X0343850Y0185800D03*
X0343850Y0185900D03*
X0343850Y0186000D03*
X0343850Y0186100D03*
X0343850Y0186200D03*
X0319650Y0177200D03*
X0319550Y0176100D03*
X0319550Y0176000D03*
X0309150Y0181400D03*
X0309150Y0181500D03*
X0309150Y0181600D03*
X0309150Y0181700D03*
X0309150Y0181800D03*
X0309150Y0181900D03*
X0309150Y0182000D03*
X0309150Y0182100D03*
X0309150Y0182200D03*
X0309150Y0182300D03*
X0309150Y0182400D03*
X0309150Y0182500D03*
X0309150Y0182600D03*
X0309150Y0182700D03*
X0309150Y0182800D03*
X0309150Y0182900D03*
X0309150Y0183000D03*
X0309250Y0183300D03*
X0309250Y0183400D03*
X0309250Y0183500D03*
X0309250Y0183600D03*
X0309250Y0183700D03*
X0309250Y0183800D03*
X0309250Y0183900D03*
X0309250Y0184000D03*
X0309250Y0184100D03*
X0309250Y0184200D03*
X0309250Y0184300D03*
X0309250Y0184400D03*
X0309250Y0184500D03*
X0262250Y0228000D03*
X0250450Y0278200D03*
X0320650Y0319500D03*
X0323550Y0318900D03*
D21*
X0323100Y0319000D03*
X0323000Y0319100D03*
X0322900Y0319200D03*
X0322800Y0319300D03*
X0322400Y0319800D03*
X0322500Y0320000D03*
X0322500Y0320100D03*
X0322000Y0319400D03*
X0321900Y0319300D03*
X0321800Y0319200D03*
X0321700Y0319100D03*
X0321600Y0319000D03*
X0323300Y0324100D03*
X0323000Y0324300D03*
X0257900Y0281900D03*
X0257800Y0282000D03*
X0257700Y0282100D03*
X0257600Y0282200D03*
X0257500Y0278900D03*
X0257400Y0278700D03*
X0257300Y0278600D03*
X0257200Y0278500D03*
X0257200Y0278400D03*
X0257100Y0278300D03*
X0257000Y0278200D03*
X0256900Y0278100D03*
X0255900Y0277100D03*
X0252400Y0276600D03*
X0252000Y0281200D03*
X0252100Y0281300D03*
X0252200Y0281400D03*
X0253100Y0282500D03*
X0253200Y0282600D03*
X0253700Y0281800D03*
X0253800Y0281700D03*
X0253900Y0281600D03*
X0254000Y0281500D03*
X0254100Y0281400D03*
X0254200Y0281300D03*
X0254300Y0281200D03*
X0260000Y0278300D03*
X0260100Y0278200D03*
X0260200Y0278000D03*
X0260300Y0277900D03*
X0260400Y0277800D03*
X0260500Y0277700D03*
X0260300Y0229600D03*
X0256800Y0229100D03*
X0255800Y0228100D03*
X0255700Y0228000D03*
X0255600Y0227900D03*
X0255500Y0227800D03*
X0255500Y0227700D03*
X0255400Y0227600D03*
X0255300Y0227500D03*
X0255200Y0227300D03*
X0252700Y0227900D03*
X0252600Y0228000D03*
X0252500Y0228200D03*
X0252400Y0228300D03*
X0252300Y0228400D03*
X0252200Y0228500D03*
X0250200Y0228300D03*
X0250100Y0228200D03*
X0250000Y0228100D03*
X0249900Y0228000D03*
X0249800Y0227900D03*
X0249700Y0227800D03*
X0249600Y0227700D03*
X0249500Y0227600D03*
X0249400Y0227500D03*
X0249300Y0227400D03*
X0249200Y0227300D03*
X0249100Y0227200D03*
X0249000Y0227100D03*
X0248900Y0227000D03*
X0248800Y0226900D03*
X0248700Y0226800D03*
X0248600Y0226600D03*
X0248500Y0226500D03*
X0248400Y0226400D03*
X0248300Y0226300D03*
X0248200Y0226100D03*
X0248000Y0224900D03*
X0248100Y0224700D03*
X0248200Y0224600D03*
X0254800Y0224300D03*
X0254900Y0224200D03*
X0255000Y0224100D03*
X0255100Y0224000D03*
X0258400Y0225000D03*
X0258500Y0224900D03*
X0258600Y0224800D03*
X0258700Y0224700D03*
X0258800Y0224600D03*
X0258900Y0224500D03*
X0259000Y0224400D03*
X0259600Y0223700D03*
X0259500Y0223600D03*
X0260500Y0224800D03*
X0260600Y0224900D03*
X0260700Y0225000D03*
X0308700Y0188500D03*
X0321100Y0184400D03*
X0341700Y0182200D03*
X0347800Y0182000D03*
X0350200Y0174500D03*
X0342400Y0171200D03*
X0363400Y0176200D03*
X0368400Y0178000D03*
X0378700Y0183700D03*
X0398100Y0176800D03*
X0408200Y0170900D03*
X0343200Y0188800D03*
D22*
X0343900Y0188400D03*
X0348400Y0181600D03*
X0347300Y0173700D03*
X0347400Y0173600D03*
X0347500Y0173500D03*
X0347600Y0173400D03*
X0349500Y0171500D03*
X0350300Y0173300D03*
X0344600Y0173800D03*
X0344500Y0173700D03*
X0344400Y0173600D03*
X0342500Y0171800D03*
X0341600Y0175000D03*
X0319000Y0173200D03*
X0319000Y0173100D03*
X0309500Y0187900D03*
X0309500Y0188000D03*
X0365700Y0181300D03*
X0365700Y0181200D03*
X0365700Y0181100D03*
X0366200Y0188200D03*
X0372400Y0173700D03*
X0376100Y0173500D03*
X0378700Y0171500D03*
X0369300Y0171500D03*
X0397300Y0171200D03*
X0400400Y0174100D03*
X0400500Y0174200D03*
X0400600Y0174300D03*
X0397300Y0176400D03*
X0405400Y0174100D03*
X0407800Y0171600D03*
X0262600Y0228100D03*
X0262600Y0228200D03*
X0250100Y0278000D03*
X0250100Y0278100D03*
X0319300Y0319100D03*
D23*
X0319600Y0319200D03*
X0365400Y0179700D03*
X0365400Y0179600D03*
X0369500Y0171700D03*
X0371500Y0173100D03*
X0374000Y0175100D03*
X0349400Y0171800D03*
X0346000Y0176300D03*
X0341300Y0174900D03*
X0342800Y0172300D03*
X0342500Y0172000D03*
X0335600Y0172800D03*
X0318600Y0172700D03*
X0315700Y0176900D03*
X0399200Y0173000D03*
X0399300Y0173100D03*
X0406100Y0173500D03*
D24*
X0407600Y0172000D03*
X0398900Y0172800D03*
X0397400Y0171500D03*
X0393400Y0174500D03*
X0377000Y0173000D03*
X0371300Y0173000D03*
X0346000Y0174700D03*
X0342500Y0172100D03*
X0309600Y0179900D03*
X0320000Y0319300D03*
D25*
X0320350Y0319400D03*
X0389150Y0318900D03*
X0253150Y0280800D03*
X0253150Y0280700D03*
X0259550Y0225500D03*
X0259550Y0225400D03*
X0249150Y0224300D03*
X0319750Y0181400D03*
X0306750Y0175300D03*
X0316750Y0171000D03*
X0335450Y0172700D03*
X0344250Y0173400D03*
X0344350Y0173500D03*
X0346050Y0175200D03*
X0346050Y0175800D03*
X0346050Y0175900D03*
X0343950Y0188500D03*
X0365650Y0181000D03*
X0365650Y0180900D03*
X0365650Y0180800D03*
X0372250Y0173600D03*
X0372150Y0173500D03*
X0376250Y0173400D03*
X0393150Y0174300D03*
X0400350Y0174000D03*
X0405550Y0174000D03*
X0405650Y0173900D03*
X0402550Y0188300D03*
D26*
X0403600Y0177800D03*
X0403700Y0177600D03*
X0403700Y0177500D03*
X0403700Y0177400D03*
X0403800Y0177200D03*
X0397900Y0176700D03*
X0408100Y0171000D03*
X0368500Y0178100D03*
X0367800Y0180900D03*
X0363400Y0176400D03*
X0350200Y0174400D03*
X0347900Y0188300D03*
X0316600Y0177000D03*
X0257800Y0225400D03*
X0256300Y0228600D03*
X0256400Y0228700D03*
X0256500Y0228800D03*
X0260200Y0229500D03*
X0254200Y0225500D03*
X0251800Y0228800D03*
X0251700Y0228900D03*
X0250000Y0224500D03*
X0249100Y0224000D03*
X0248300Y0224500D03*
X0252500Y0276700D03*
X0256200Y0277400D03*
X0256300Y0277500D03*
X0256400Y0277600D03*
X0254900Y0280800D03*
X0258500Y0280700D03*
X0260900Y0277400D03*
X0261000Y0277300D03*
X0263600Y0282000D03*
X0322400Y0319700D03*
X0322500Y0320200D03*
X0390200Y0319300D03*
D27*
X0322600Y0320400D03*
X0258500Y0280500D03*
X0253100Y0282200D03*
X0252500Y0276900D03*
X0260200Y0229300D03*
X0259600Y0224000D03*
X0254200Y0225700D03*
X0308700Y0179800D03*
X0315500Y0172600D03*
X0335000Y0172400D03*
X0350300Y0174300D03*
X0363600Y0183000D03*
X0367700Y0180800D03*
X0379100Y0171100D03*
X0392700Y0173900D03*
X0403900Y0176800D03*
X0403900Y0176900D03*
X0404000Y0176600D03*
X0404000Y0176500D03*
X0408000Y0171100D03*
D28*
X0407700Y0171700D03*
X0400200Y0173900D03*
X0400100Y0173800D03*
X0400000Y0173700D03*
X0402600Y0188400D03*
X0376400Y0173300D03*
X0372000Y0173400D03*
X0365600Y0180500D03*
X0365600Y0180600D03*
X0365600Y0180700D03*
X0349500Y0171600D03*
X0347700Y0173300D03*
X0346100Y0175100D03*
X0344100Y0173300D03*
X0344000Y0173200D03*
X0343900Y0173100D03*
X0342500Y0171900D03*
X0344000Y0188600D03*
X0344000Y0188700D03*
X0318900Y0173000D03*
X0318800Y0172900D03*
X0309500Y0188100D03*
X0262500Y0224600D03*
X0262500Y0224700D03*
X0262500Y0224800D03*
X0262500Y0224900D03*
X0250200Y0281300D03*
X0250200Y0281400D03*
X0250200Y0281500D03*
X0250200Y0281600D03*
X0319900Y0320500D03*
X0319900Y0320600D03*
X0319900Y0320700D03*
X0319900Y0320800D03*
X0319900Y0322000D03*
X0319900Y0322100D03*
X0319900Y0322200D03*
X0319900Y0322300D03*
D29*
X0321400Y0323000D03*
X0321400Y0323100D03*
X0321400Y0323200D03*
X0321400Y0323300D03*
X0321400Y0323400D03*
X0339600Y0174400D03*
X0337100Y0173600D03*
D30*
X0342350Y0171000D03*
X0349950Y0174900D03*
X0363450Y0175800D03*
X0368250Y0177800D03*
X0369950Y0177700D03*
X0367950Y0181200D03*
X0379550Y0170800D03*
X0392250Y0173500D03*
X0397050Y0170500D03*
X0397950Y0178000D03*
X0398850Y0185600D03*
X0409350Y0179700D03*
X0409350Y0178000D03*
X0408350Y0170700D03*
X0347650Y0186100D03*
X0308450Y0188600D03*
X0255150Y0223700D03*
X0250350Y0224800D03*
X0256850Y0229400D03*
X0255850Y0276800D03*
X0257550Y0282500D03*
X0262450Y0281200D03*
X0263950Y0282200D03*
X0322950Y0324500D03*
D31*
X0389250Y0319000D03*
X0249150Y0224400D03*
X0309550Y0188300D03*
X0309550Y0188200D03*
X0343350Y0172700D03*
X0343450Y0172800D03*
X0343650Y0172900D03*
X0343750Y0173000D03*
X0346050Y0175000D03*
X0346050Y0176000D03*
X0349450Y0171700D03*
X0365550Y0180300D03*
X0365550Y0180400D03*
X0371850Y0173300D03*
X0369450Y0171600D03*
X0378650Y0171600D03*
X0397350Y0171300D03*
X0399950Y0173600D03*
X0405750Y0173800D03*
X0405850Y0173700D03*
X0402650Y0188500D03*
D32*
X0402700Y0188600D03*
X0402700Y0188700D03*
X0397100Y0176300D03*
X0399800Y0173500D03*
X0399700Y0173400D03*
X0406000Y0173600D03*
X0407700Y0171800D03*
X0393300Y0174400D03*
X0376600Y0173200D03*
X0371700Y0173200D03*
X0365500Y0180000D03*
X0365500Y0180100D03*
X0365500Y0180200D03*
X0346000Y0176100D03*
X0343200Y0172600D03*
X0343100Y0172500D03*
X0318700Y0172800D03*
X0389300Y0319100D03*
D33*
X0389250Y0319200D03*
X0320150Y0186000D03*
X0315750Y0175300D03*
X0316950Y0171100D03*
X0342950Y0172400D03*
X0346050Y0174900D03*
X0346050Y0176200D03*
X0365450Y0179800D03*
X0365450Y0179900D03*
X0376750Y0173100D03*
X0378550Y0171700D03*
X0397350Y0171400D03*
X0399450Y0173200D03*
X0399550Y0173300D03*
X0407650Y0171900D03*
D34*
X0395900Y0175800D03*
X0336500Y0173300D03*
X0387600Y0320400D03*
X0387600Y0320500D03*
X0387600Y0320600D03*
X0387600Y0320700D03*
X0387600Y0320800D03*
D35*
X0388650Y0321800D03*
X0388650Y0321900D03*
X0388650Y0322000D03*
X0388650Y0322100D03*
X0388650Y0322200D03*
X0378250Y0172600D03*
X0348950Y0173200D03*
X0340350Y0174600D03*
X0317450Y0172300D03*
X0317450Y0172200D03*
D36*
X0388950Y0323300D03*
X0388950Y0323400D03*
X0388950Y0323500D03*
X0388950Y0323600D03*
X0388950Y0323700D03*
D37*
X0254200Y0276900D03*
X0254200Y0276800D03*
X0258500Y0229400D03*
X0258500Y0229300D03*
X0348000Y0186600D03*
X0364200Y0178700D03*
X0364300Y0178800D03*
X0364300Y0178900D03*
X0364400Y0179100D03*
X0364500Y0179300D03*
X0363300Y0176600D03*
X0368600Y0178300D03*
X0374900Y0174900D03*
X0375000Y0174800D03*
X0375100Y0174600D03*
X0379000Y0171200D03*
X0392800Y0174000D03*
X0397700Y0176600D03*
X0398500Y0179600D03*
X0397500Y0182000D03*
X0392400Y0182000D03*
X0392400Y0183500D03*
X0404200Y0176100D03*
X0404300Y0175900D03*
X0404300Y0175800D03*
X0408800Y0179600D03*
X0408000Y0171200D03*
D38*
X0406250Y0173400D03*
X0399050Y0172900D03*
X0378450Y0171800D03*
X0349350Y0171900D03*
X0346050Y0174800D03*
X0346050Y0176400D03*
X0346050Y0176500D03*
X0342650Y0172200D03*
X0320050Y0184500D03*
X0263750Y0277400D03*
X0263750Y0277500D03*
X0263750Y0277600D03*
X0263750Y0277700D03*
X0263750Y0277800D03*
D39*
X0263300Y0281800D03*
X0249800Y0277800D03*
X0262900Y0228400D03*
X0249100Y0224100D03*
X0309100Y0188400D03*
X0336100Y0180800D03*
X0336100Y0180700D03*
X0336100Y0180600D03*
X0336100Y0180500D03*
X0336100Y0180400D03*
X0336100Y0180300D03*
X0336100Y0180200D03*
X0336100Y0180100D03*
X0336100Y0180000D03*
X0336100Y0179900D03*
X0336100Y0179800D03*
X0336100Y0179700D03*
X0336100Y0179600D03*
X0336100Y0179500D03*
X0336100Y0179400D03*
X0336100Y0179300D03*
X0336100Y0179200D03*
X0336100Y0179100D03*
X0336100Y0179000D03*
X0336100Y0178900D03*
X0336100Y0178800D03*
X0336100Y0178700D03*
X0336100Y0178600D03*
X0336100Y0178500D03*
X0336100Y0178400D03*
X0336100Y0178300D03*
X0336100Y0178200D03*
X0336100Y0176900D03*
X0341200Y0176900D03*
X0341200Y0178200D03*
X0341200Y0178300D03*
X0341200Y0178400D03*
X0341200Y0178500D03*
X0341200Y0178600D03*
X0341200Y0178700D03*
X0341200Y0178800D03*
X0341200Y0178900D03*
X0341200Y0179000D03*
X0341200Y0179100D03*
X0341200Y0179200D03*
X0341200Y0179300D03*
X0341200Y0179400D03*
X0341200Y0179500D03*
X0341200Y0179600D03*
X0341200Y0179700D03*
X0341200Y0179800D03*
X0341200Y0179900D03*
X0341200Y0180000D03*
X0341200Y0180100D03*
X0341200Y0180200D03*
X0341200Y0180300D03*
X0341200Y0180400D03*
X0341200Y0180500D03*
X0341200Y0180600D03*
X0341200Y0180700D03*
X0341200Y0180800D03*
X0344100Y0181400D03*
X0344100Y0181500D03*
X0344100Y0181600D03*
X0344100Y0181700D03*
X0344000Y0182400D03*
X0344000Y0182500D03*
X0344000Y0182600D03*
X0343900Y0183500D03*
X0343900Y0183600D03*
X0344200Y0181000D03*
X0344200Y0180900D03*
X0344200Y0180800D03*
X0344200Y0180700D03*
X0344300Y0180300D03*
X0344300Y0180200D03*
X0344300Y0180100D03*
X0344300Y0180000D03*
X0344400Y0179800D03*
X0344400Y0179700D03*
X0344400Y0179600D03*
X0344400Y0179500D03*
X0344500Y0179300D03*
X0344500Y0179200D03*
X0344500Y0179100D03*
X0344600Y0178900D03*
X0344600Y0178800D03*
X0344600Y0178700D03*
X0344700Y0178500D03*
X0344700Y0178400D03*
X0344700Y0178300D03*
X0344800Y0178100D03*
X0344800Y0178000D03*
X0344900Y0177800D03*
X0345000Y0177500D03*
X0347200Y0177700D03*
X0347400Y0178200D03*
X0347500Y0178500D03*
X0347600Y0178800D03*
X0347600Y0178900D03*
X0347700Y0179200D03*
X0347800Y0179500D03*
X0347800Y0179600D03*
X0347900Y0180000D03*
X0348100Y0186700D03*
X0347800Y0188100D03*
X0366000Y0187100D03*
X0366000Y0187000D03*
X0366000Y0186900D03*
X0366000Y0186800D03*
X0366000Y0186700D03*
X0366000Y0186600D03*
X0366000Y0186500D03*
X0366000Y0186400D03*
X0366000Y0186300D03*
X0366000Y0186200D03*
X0366000Y0186100D03*
X0366000Y0186000D03*
X0366000Y0185900D03*
X0366000Y0185800D03*
X0366000Y0185700D03*
X0366000Y0185600D03*
X0366000Y0185500D03*
X0366000Y0185400D03*
X0366000Y0185300D03*
X0366000Y0185200D03*
X0366000Y0185100D03*
X0366000Y0185000D03*
X0366000Y0184900D03*
X0366000Y0184800D03*
X0366000Y0184700D03*
X0366000Y0184600D03*
X0366000Y0184500D03*
X0366000Y0184400D03*
X0366000Y0184300D03*
X0366000Y0183000D03*
X0367600Y0180600D03*
X0367700Y0180500D03*
X0367800Y0180300D03*
X0367900Y0180100D03*
X0368000Y0179900D03*
X0368100Y0179700D03*
X0368200Y0179500D03*
X0368300Y0179300D03*
X0368400Y0179100D03*
X0368500Y0178900D03*
X0368500Y0178800D03*
X0368600Y0178700D03*
X0368600Y0178600D03*
X0368700Y0178500D03*
X0368700Y0178400D03*
X0366000Y0178400D03*
X0366000Y0178500D03*
X0366000Y0178600D03*
X0366000Y0178700D03*
X0366000Y0178800D03*
X0366000Y0178900D03*
X0366000Y0179000D03*
X0366000Y0179100D03*
X0366000Y0179200D03*
X0366000Y0179300D03*
X0366000Y0179400D03*
X0366000Y0179500D03*
X0366000Y0178300D03*
X0366000Y0178200D03*
X0366000Y0178100D03*
X0366000Y0178000D03*
X0366000Y0177900D03*
X0366000Y0177800D03*
X0366000Y0177700D03*
X0366000Y0177600D03*
X0366000Y0177500D03*
X0366000Y0177400D03*
X0366000Y0177300D03*
X0366000Y0177200D03*
X0366000Y0177100D03*
X0366000Y0177000D03*
X0366000Y0176900D03*
X0366000Y0176800D03*
X0366000Y0176700D03*
X0366000Y0176600D03*
X0366000Y0176500D03*
X0366000Y0176400D03*
X0366000Y0176300D03*
X0366000Y0176200D03*
X0366000Y0176100D03*
X0366000Y0176000D03*
X0366000Y0175900D03*
X0366000Y0175800D03*
X0366000Y0175700D03*
X0366000Y0175600D03*
X0366000Y0175500D03*
X0366000Y0175400D03*
X0366000Y0175300D03*
X0366000Y0175200D03*
X0366000Y0175100D03*
X0366000Y0175000D03*
X0366000Y0174900D03*
X0366000Y0174800D03*
X0366000Y0174700D03*
X0366000Y0174600D03*
X0366000Y0174500D03*
X0366000Y0174400D03*
X0366000Y0174300D03*
X0366000Y0174200D03*
X0366000Y0174100D03*
X0366000Y0174000D03*
X0366000Y0173900D03*
X0366000Y0173800D03*
X0366000Y0173700D03*
X0366000Y0173600D03*
X0366000Y0173500D03*
X0366000Y0173400D03*
X0366000Y0173300D03*
X0366000Y0173200D03*
X0366000Y0173100D03*
X0366000Y0173000D03*
X0363300Y0176700D03*
X0363800Y0177900D03*
X0363900Y0178000D03*
X0363900Y0178100D03*
X0364000Y0178200D03*
X0373300Y0174900D03*
X0373800Y0176400D03*
X0373800Y0176500D03*
X0373800Y0176600D03*
X0373900Y0176900D03*
X0373900Y0177000D03*
X0373900Y0177100D03*
X0373900Y0177200D03*
X0373900Y0177300D03*
X0375300Y0174300D03*
X0375400Y0174200D03*
X0369900Y0185300D03*
X0372600Y0188000D03*
X0376100Y0188000D03*
X0395000Y0187700D03*
X0395000Y0187600D03*
X0395000Y0187500D03*
X0395000Y0187400D03*
X0395000Y0187300D03*
X0395000Y0187200D03*
X0395000Y0187100D03*
X0395000Y0187000D03*
X0395000Y0186900D03*
X0395000Y0186800D03*
X0395000Y0186700D03*
X0395000Y0186600D03*
X0395000Y0186500D03*
X0395000Y0186400D03*
X0395000Y0186300D03*
X0395000Y0186200D03*
X0395000Y0186100D03*
X0395000Y0186000D03*
X0395000Y0185900D03*
X0395000Y0185800D03*
X0395000Y0185700D03*
X0395000Y0185600D03*
X0395000Y0185500D03*
X0395000Y0185400D03*
X0395000Y0185300D03*
X0395000Y0185200D03*
X0395000Y0185100D03*
X0395000Y0185000D03*
X0395000Y0184900D03*
X0395000Y0184800D03*
X0395000Y0184700D03*
X0395000Y0184600D03*
X0395000Y0184500D03*
X0395000Y0184400D03*
X0395000Y0184300D03*
X0395000Y0184200D03*
X0395000Y0184100D03*
X0395000Y0184000D03*
X0395000Y0183900D03*
X0395000Y0183800D03*
X0395000Y0183700D03*
X0395000Y0183600D03*
X0395000Y0183500D03*
X0395000Y0182000D03*
X0395000Y0181900D03*
X0395000Y0181800D03*
X0395000Y0181700D03*
X0395000Y0181600D03*
X0395000Y0181500D03*
X0395000Y0181400D03*
X0395000Y0181300D03*
X0395000Y0181200D03*
X0395000Y0181100D03*
X0395000Y0181000D03*
X0395000Y0180900D03*
X0395000Y0180800D03*
X0395000Y0180700D03*
X0395000Y0180600D03*
X0395000Y0180500D03*
X0395000Y0180400D03*
X0395000Y0180300D03*
X0395000Y0180200D03*
X0395000Y0180100D03*
X0395000Y0180000D03*
X0395000Y0179900D03*
X0395000Y0179800D03*
X0395000Y0179700D03*
X0395000Y0179600D03*
X0395000Y0179500D03*
X0395000Y0179400D03*
X0395000Y0179300D03*
X0395000Y0179200D03*
X0395000Y0179100D03*
X0395000Y0179000D03*
X0395000Y0178900D03*
X0395000Y0178800D03*
X0395000Y0178700D03*
X0395000Y0178600D03*
X0395000Y0178500D03*
X0395000Y0178400D03*
X0395000Y0178300D03*
X0395000Y0178200D03*
X0395000Y0178100D03*
X0395000Y0178000D03*
X0395000Y0177900D03*
X0395000Y0177800D03*
X0395000Y0177700D03*
X0395000Y0177600D03*
X0395000Y0177500D03*
X0395000Y0177400D03*
X0395000Y0177300D03*
X0395000Y0177200D03*
X0395000Y0177100D03*
X0395000Y0177000D03*
X0395000Y0176900D03*
X0395000Y0176800D03*
X0395000Y0176700D03*
X0395000Y0176600D03*
X0395000Y0176500D03*
X0395000Y0176400D03*
X0395000Y0176300D03*
X0402300Y0179600D03*
X0402300Y0179700D03*
X0402300Y0179800D03*
X0402300Y0179900D03*
X0402300Y0180000D03*
X0402300Y0180100D03*
X0402400Y0181100D03*
X0402400Y0181200D03*
X0402400Y0181300D03*
X0402400Y0181400D03*
X0402400Y0181500D03*
X0402400Y0181600D03*
X0402400Y0181700D03*
X0402400Y0181800D03*
X0402400Y0181900D03*
X0402400Y0182000D03*
X0402400Y0182100D03*
X0402400Y0182200D03*
X0402400Y0182300D03*
X0402400Y0182400D03*
X0399500Y0184100D03*
X0402200Y0188800D03*
X0406900Y0184100D03*
X0406900Y0184000D03*
X0406900Y0183900D03*
X0406900Y0183800D03*
X0406800Y0182600D03*
X0406800Y0182500D03*
X0406800Y0182400D03*
X0406800Y0182300D03*
X0406800Y0182200D03*
X0406800Y0182100D03*
X0406800Y0182000D03*
X0406800Y0181900D03*
X0406800Y0181800D03*
X0406800Y0181700D03*
X0406800Y0181600D03*
X0406800Y0181500D03*
X0406800Y0181400D03*
X0406800Y0181300D03*
X0406800Y0181200D03*
X0406800Y0181100D03*
X0406800Y0181000D03*
X0406800Y0180900D03*
X0406800Y0180800D03*
X0406800Y0180700D03*
X0406800Y0180600D03*
X0406800Y0180500D03*
X0406800Y0180400D03*
X0406800Y0180300D03*
X0406800Y0180200D03*
X0406800Y0180100D03*
X0406800Y0180000D03*
X0406700Y0179800D03*
X0406700Y0179700D03*
X0406700Y0179600D03*
X0404600Y0175300D03*
X0404700Y0175100D03*
X0407900Y0171300D03*
X0397300Y0171000D03*
X0349600Y0171200D03*
D40*
X0349600Y0171300D03*
X0342500Y0171600D03*
X0336000Y0175700D03*
X0336000Y0175800D03*
X0336000Y0175900D03*
X0336000Y0176000D03*
X0348100Y0180800D03*
X0348100Y0180900D03*
X0348100Y0181000D03*
X0348200Y0181100D03*
X0348200Y0181200D03*
X0343800Y0186300D03*
X0343800Y0186400D03*
X0343800Y0186500D03*
X0343800Y0186600D03*
X0343800Y0186700D03*
X0343800Y0186800D03*
X0343800Y0186900D03*
X0343800Y0187000D03*
X0343800Y0187100D03*
X0343800Y0187200D03*
X0343800Y0187300D03*
X0343800Y0187400D03*
X0343800Y0187500D03*
X0347700Y0188000D03*
X0366000Y0187700D03*
X0372700Y0188200D03*
X0376200Y0188200D03*
X0365900Y0182500D03*
X0365900Y0182400D03*
X0365900Y0182300D03*
X0363700Y0177700D03*
X0363600Y0177500D03*
X0363500Y0177400D03*
X0363200Y0176800D03*
X0366000Y0172800D03*
X0366000Y0172700D03*
X0366000Y0172600D03*
X0366000Y0172500D03*
X0366000Y0172400D03*
X0366000Y0172300D03*
X0366000Y0172200D03*
X0366000Y0172100D03*
X0366000Y0172000D03*
X0366000Y0171900D03*
X0366000Y0171800D03*
X0366000Y0171700D03*
X0366000Y0171600D03*
X0366000Y0171500D03*
X0373000Y0174400D03*
X0373100Y0174500D03*
X0375600Y0174000D03*
X0375700Y0173900D03*
X0392900Y0174100D03*
X0397500Y0176500D03*
X0401400Y0175600D03*
X0401500Y0175800D03*
X0401600Y0176000D03*
X0401600Y0176100D03*
X0401700Y0176200D03*
X0401700Y0176300D03*
X0401700Y0176400D03*
X0401800Y0176500D03*
X0401800Y0176600D03*
X0401900Y0176900D03*
X0402000Y0177300D03*
X0404800Y0174900D03*
X0404900Y0174800D03*
X0402400Y0186300D03*
X0402400Y0186400D03*
X0402400Y0186500D03*
X0395000Y0187900D03*
X0395000Y0188000D03*
X0319800Y0179500D03*
X0319800Y0179400D03*
X0319800Y0179300D03*
X0319800Y0179200D03*
X0319800Y0179100D03*
X0319800Y0179000D03*
X0319700Y0178300D03*
X0319700Y0178200D03*
X0319700Y0178100D03*
X0319700Y0178000D03*
X0319700Y0177900D03*
X0319700Y0177800D03*
X0319700Y0177700D03*
X0319700Y0177600D03*
X0319700Y0177500D03*
X0319700Y0177400D03*
X0319700Y0177300D03*
X0319600Y0177100D03*
X0319600Y0177000D03*
X0319600Y0176900D03*
X0319600Y0176800D03*
X0319600Y0176700D03*
X0319600Y0176600D03*
X0319600Y0176500D03*
X0319600Y0176400D03*
X0319600Y0176300D03*
X0319600Y0176200D03*
X0319500Y0175900D03*
X0319500Y0175800D03*
X0319500Y0175700D03*
X0319500Y0175600D03*
X0319500Y0175500D03*
X0319500Y0175400D03*
X0319500Y0175300D03*
X0319500Y0175200D03*
X0319400Y0175100D03*
X0319400Y0175000D03*
X0319400Y0174900D03*
X0319400Y0174800D03*
X0319400Y0174700D03*
X0319400Y0174600D03*
X0319300Y0174200D03*
X0309200Y0183100D03*
X0309200Y0183200D03*
X0260500Y0226100D03*
X0260500Y0226200D03*
X0260500Y0226300D03*
X0260500Y0226400D03*
X0260500Y0227100D03*
X0260500Y0227200D03*
X0260500Y0227300D03*
X0260500Y0228000D03*
X0260500Y0228100D03*
X0260500Y0228200D03*
X0262800Y0228300D03*
X0252200Y0278000D03*
X0252200Y0278100D03*
X0252200Y0278200D03*
X0252200Y0278900D03*
X0252200Y0279000D03*
X0252200Y0279100D03*
X0252200Y0279800D03*
X0252200Y0279900D03*
X0252200Y0280000D03*
X0252200Y0280100D03*
X0249900Y0277900D03*
X0263200Y0281500D03*
X0263200Y0281600D03*
X0263200Y0281700D03*
D41*
X0250150Y0279500D03*
X0250150Y0279400D03*
X0250150Y0279300D03*
X0250150Y0279200D03*
X0262550Y0227000D03*
X0262550Y0226900D03*
X0262550Y0226800D03*
X0262550Y0226700D03*
X0309450Y0187800D03*
X0309450Y0187700D03*
X0309450Y0187600D03*
X0309450Y0187500D03*
X0309450Y0187400D03*
X0319150Y0173500D03*
X0319050Y0173300D03*
X0344750Y0173900D03*
X0344850Y0174000D03*
X0344950Y0174100D03*
X0346050Y0175300D03*
X0346050Y0175600D03*
X0346050Y0175700D03*
X0347050Y0174000D03*
X0347150Y0173900D03*
X0347250Y0173800D03*
X0349550Y0171400D03*
X0348350Y0181500D03*
X0348350Y0181700D03*
X0347750Y0187700D03*
X0347650Y0187900D03*
X0343850Y0188200D03*
X0343850Y0188300D03*
X0366150Y0188300D03*
X0366150Y0188100D03*
X0365750Y0181600D03*
X0365750Y0181500D03*
X0365750Y0181400D03*
X0376050Y0173600D03*
X0395150Y0188200D03*
X0395150Y0188300D03*
X0395150Y0188400D03*
X0399750Y0185500D03*
X0402550Y0188000D03*
X0402550Y0188100D03*
X0402550Y0188200D03*
X0406850Y0185500D03*
X0405250Y0174300D03*
X0405350Y0174200D03*
X0400950Y0174800D03*
X0400850Y0174700D03*
X0400750Y0174600D03*
X0400750Y0174500D03*
X0400650Y0174400D03*
D42*
X0398750Y0172700D03*
X0406450Y0173300D03*
X0407550Y0172100D03*
X0371150Y0172900D03*
X0369550Y0171800D03*
X0349350Y0172000D03*
X0346050Y0176600D03*
X0346050Y0176700D03*
X0349150Y0185600D03*
X0317050Y0171200D03*
X0259950Y0225300D03*
X0249150Y0228400D03*
X0249150Y0228500D03*
X0249150Y0228600D03*
X0249150Y0228700D03*
X0249150Y0228800D03*
X0252750Y0280900D03*
D43*
X0253200Y0281000D03*
X0259500Y0225200D03*
X0317300Y0171500D03*
X0349200Y0172500D03*
X0369700Y0172100D03*
X0370400Y0172600D03*
X0378300Y0172200D03*
X0397600Y0172000D03*
X0407000Y0173000D03*
X0407500Y0172500D03*
D44*
X0407800Y0171500D03*
X0405200Y0174400D03*
X0405100Y0174500D03*
X0401300Y0175400D03*
X0401200Y0175200D03*
X0401100Y0175100D03*
X0401100Y0175000D03*
X0401000Y0174900D03*
X0393000Y0174200D03*
X0379400Y0176400D03*
X0375900Y0173700D03*
X0372700Y0174000D03*
X0372600Y0173900D03*
X0372500Y0173800D03*
X0378800Y0171400D03*
X0366000Y0171400D03*
X0366000Y0171300D03*
X0366000Y0171200D03*
X0366000Y0171100D03*
X0366000Y0171000D03*
X0366000Y0170900D03*
X0363200Y0176900D03*
X0363200Y0177000D03*
X0363300Y0177100D03*
X0365800Y0181700D03*
X0365800Y0181800D03*
X0365800Y0181900D03*
X0366100Y0188000D03*
X0348200Y0186900D03*
X0348100Y0187000D03*
X0348100Y0187100D03*
X0348000Y0187200D03*
X0348000Y0187300D03*
X0347900Y0187400D03*
X0347900Y0187500D03*
X0347800Y0187600D03*
X0347700Y0187800D03*
X0343800Y0187800D03*
X0343800Y0187900D03*
X0343800Y0188000D03*
X0343800Y0188100D03*
X0346100Y0175400D03*
X0347000Y0174100D03*
X0350400Y0173400D03*
X0350500Y0173500D03*
X0350500Y0173600D03*
X0350600Y0173800D03*
X0350600Y0173900D03*
X0342500Y0171700D03*
X0335300Y0172600D03*
X0319200Y0173600D03*
X0319200Y0173700D03*
X0319200Y0173800D03*
X0319100Y0173400D03*
X0306600Y0176900D03*
X0309400Y0186800D03*
X0309400Y0186900D03*
X0309400Y0187000D03*
X0309400Y0187100D03*
X0309400Y0187200D03*
X0309400Y0187300D03*
X0249100Y0224200D03*
X0402500Y0187900D03*
X0402500Y0187800D03*
X0402500Y0187700D03*
X0402500Y0187600D03*
X0402500Y0187500D03*
D45*
X0455600Y0193350D03*
X0455700Y0193450D03*
X0455800Y0193450D03*
X0472200Y0201350D03*
X0472200Y0202250D03*
X0472100Y0202250D03*
X0472300Y0203350D03*
X0472900Y0203650D03*
X0472900Y0203050D03*
X0473300Y0202250D03*
X0473200Y0201350D03*
X0473000Y0204450D03*
X0472900Y0204450D03*
X0472800Y0205250D03*
X0472700Y0205250D03*
X0473100Y0206150D03*
X0473200Y0206150D03*
X0473300Y0206850D03*
X0473400Y0207850D03*
X0471900Y0207850D03*
X0472100Y0206850D03*
X0472200Y0209950D03*
X0472300Y0209950D03*
X0472400Y0209950D03*
X0472500Y0209950D03*
X0473100Y0209950D03*
X0473200Y0209950D03*
X0483800Y0211750D03*
X0483800Y0199850D03*
X0455700Y0218150D03*
X0444600Y0247450D03*
X0444200Y0247650D03*
X0444100Y0247650D03*
X0444000Y0247650D03*
X0443900Y0247650D03*
X0443800Y0247650D03*
X0443700Y0247650D03*
X0443600Y0247650D03*
X0443500Y0247650D03*
X0443400Y0247650D03*
X0443300Y0247650D03*
X0443200Y0247650D03*
X0443100Y0247650D03*
X0443000Y0247650D03*
X0442900Y0247650D03*
X0442800Y0247650D03*
X0442700Y0247650D03*
X0442600Y0247650D03*
X0442500Y0247650D03*
X0442400Y0247650D03*
X0442300Y0247650D03*
X0442200Y0247650D03*
X0442100Y0247650D03*
X0442000Y0247650D03*
X0441900Y0247650D03*
X0441800Y0247650D03*
X0441700Y0247650D03*
X0441600Y0247650D03*
X0441500Y0247650D03*
X0441400Y0247650D03*
X0441300Y0247650D03*
X0441200Y0247650D03*
X0441100Y0247650D03*
X0441700Y0248650D03*
X0441800Y0248650D03*
X0441900Y0248650D03*
X0442000Y0248650D03*
X0442100Y0248650D03*
X0442200Y0248650D03*
X0442300Y0248650D03*
X0442400Y0248650D03*
X0442500Y0248650D03*
X0442600Y0248650D03*
X0442700Y0248650D03*
X0442800Y0248650D03*
X0442900Y0248650D03*
X0443000Y0248650D03*
X0443100Y0248650D03*
X0443200Y0248650D03*
X0443300Y0248650D03*
X0443400Y0248650D03*
X0443500Y0248650D03*
X0443600Y0248650D03*
X0443700Y0248650D03*
X0443800Y0248650D03*
X0443900Y0248650D03*
X0443700Y0249550D03*
X0443600Y0249550D03*
X0443500Y0249550D03*
X0443400Y0249550D03*
X0443300Y0249550D03*
X0443200Y0249550D03*
X0442800Y0249550D03*
X0442700Y0249550D03*
X0442600Y0249550D03*
X0442500Y0249550D03*
X0442400Y0249550D03*
X0442300Y0249550D03*
X0441900Y0249550D03*
X0441800Y0249550D03*
X0441700Y0249550D03*
X0441600Y0249550D03*
X0441500Y0249550D03*
X0441400Y0249550D03*
X0441300Y0249550D03*
X0441200Y0249550D03*
X0441100Y0249550D03*
X0441100Y0250850D03*
X0441200Y0250850D03*
X0441300Y0250850D03*
X0441400Y0250850D03*
X0441500Y0250850D03*
X0441600Y0250850D03*
X0441700Y0250850D03*
X0441800Y0250850D03*
X0441900Y0250850D03*
X0442300Y0250850D03*
X0442400Y0250850D03*
X0442500Y0250850D03*
X0442600Y0250850D03*
X0442700Y0250850D03*
X0442800Y0250850D03*
X0443200Y0250850D03*
X0443300Y0250850D03*
X0443400Y0250850D03*
X0443500Y0250850D03*
X0443600Y0250850D03*
X0443700Y0250850D03*
X0443700Y0252050D03*
X0443600Y0252050D03*
X0443800Y0252050D03*
X0443900Y0252050D03*
X0444000Y0252050D03*
X0444100Y0252050D03*
X0444200Y0252050D03*
X0444300Y0252050D03*
X0444400Y0252050D03*
X0444500Y0252050D03*
X0444600Y0252050D03*
X0444800Y0252650D03*
X0444900Y0252650D03*
X0445200Y0252550D03*
X0444600Y0252750D03*
X0444500Y0252750D03*
X0444400Y0252750D03*
X0444300Y0252850D03*
X0444200Y0252850D03*
X0444100Y0252850D03*
X0443900Y0252950D03*
X0443800Y0252950D03*
X0443600Y0253050D03*
X0443100Y0252050D03*
X0443000Y0252050D03*
X0442900Y0252050D03*
X0442800Y0252050D03*
X0442700Y0252050D03*
X0442600Y0252050D03*
X0442500Y0252050D03*
X0442400Y0252050D03*
X0442300Y0252050D03*
X0441700Y0252050D03*
X0441600Y0252050D03*
X0441500Y0252050D03*
X0441400Y0252050D03*
X0441300Y0252050D03*
X0441200Y0252050D03*
X0441100Y0252050D03*
X0441000Y0252050D03*
X0440900Y0252050D03*
X0440800Y0252050D03*
X0440700Y0252050D03*
X0440600Y0252050D03*
X0440500Y0252050D03*
X0440500Y0250850D03*
X0440600Y0250850D03*
X0440700Y0250850D03*
X0440800Y0250850D03*
X0440900Y0250850D03*
X0441000Y0250850D03*
X0446000Y0252350D03*
D46*
X0445200Y0250400D03*
X0445300Y0250300D03*
X0445400Y0250200D03*
X0446500Y0249300D03*
X0446600Y0249200D03*
X0445800Y0248700D03*
X0445700Y0248600D03*
X0445600Y0248500D03*
X0445500Y0248400D03*
X0445400Y0248300D03*
X0445300Y0248200D03*
X0445200Y0248100D03*
X0440600Y0250000D03*
X0456100Y0218000D03*
X0456200Y0218000D03*
X0473600Y0210100D03*
X0473100Y0207700D03*
X0472300Y0207700D03*
X0473600Y0207000D03*
X0472500Y0206000D03*
X0472400Y0206000D03*
X0473100Y0205300D03*
X0472300Y0204600D03*
X0472200Y0204600D03*
X0472100Y0203400D03*
X0472500Y0202100D03*
X0472900Y0202100D03*
X0473400Y0201400D03*
X0483500Y0199900D03*
X0483500Y0211700D03*
X0456200Y0193600D03*
X0456100Y0193600D03*
D47*
X0456600Y0193750D03*
X0473600Y0201350D03*
X0473600Y0203350D03*
X0473500Y0203350D03*
X0473400Y0203350D03*
X0473300Y0203350D03*
X0473200Y0203350D03*
X0473100Y0203350D03*
X0473000Y0203350D03*
X0471900Y0203350D03*
X0473500Y0205250D03*
X0472800Y0207550D03*
X0472600Y0207550D03*
X0456700Y0217750D03*
X0456600Y0217850D03*
X0456500Y0217850D03*
X0446300Y0249250D03*
X0440800Y0249950D03*
X0440600Y0248250D03*
D48*
X0440700Y0249900D03*
X0444800Y0247500D03*
X0456400Y0217900D03*
X0472500Y0207600D03*
X0472900Y0207600D03*
X0472100Y0205900D03*
X0472000Y0205900D03*
X0471900Y0205900D03*
X0473400Y0205300D03*
X0472700Y0202000D03*
X0471900Y0201400D03*
X0473500Y0201400D03*
X0483300Y0200000D03*
X0483300Y0211600D03*
X0456500Y0193700D03*
X0456400Y0193700D03*
D49*
X0457000Y0193950D03*
X0483000Y0200050D03*
X0483000Y0211550D03*
X0457000Y0217650D03*
X0440700Y0248250D03*
D50*
X0441000Y0247700D03*
X0441400Y0246200D03*
X0441500Y0246200D03*
X0441600Y0246200D03*
X0441700Y0246200D03*
X0441800Y0246200D03*
X0441900Y0246200D03*
X0442000Y0246200D03*
X0442100Y0246200D03*
X0442200Y0246200D03*
X0442300Y0246200D03*
X0442400Y0246200D03*
X0442500Y0246200D03*
X0442600Y0246200D03*
X0442700Y0246200D03*
X0442800Y0246200D03*
X0442900Y0246200D03*
X0443000Y0246200D03*
X0444300Y0246000D03*
X0444400Y0246000D03*
X0444500Y0246000D03*
X0444600Y0246000D03*
X0444700Y0246000D03*
X0444800Y0246000D03*
X0444900Y0246000D03*
X0445000Y0246000D03*
X0445100Y0246000D03*
X0445200Y0246000D03*
X0445300Y0246000D03*
X0445400Y0246000D03*
X0445500Y0246000D03*
X0445600Y0246000D03*
X0445700Y0246000D03*
X0445800Y0246000D03*
X0445900Y0246000D03*
X0445900Y0243900D03*
X0446000Y0243900D03*
X0446100Y0243900D03*
X0446200Y0243900D03*
X0446300Y0243900D03*
X0446400Y0243900D03*
X0446500Y0243900D03*
X0445800Y0243900D03*
X0445700Y0243900D03*
X0445600Y0243900D03*
X0445500Y0243900D03*
X0445400Y0243900D03*
X0445300Y0243900D03*
X0445200Y0243900D03*
X0445100Y0243900D03*
X0445000Y0243900D03*
X0444900Y0243900D03*
X0444800Y0243900D03*
X0444700Y0243900D03*
X0444600Y0243900D03*
X0444500Y0243900D03*
X0444400Y0243900D03*
X0444300Y0243900D03*
X0443700Y0243900D03*
X0443600Y0243900D03*
X0443500Y0243900D03*
X0443400Y0243900D03*
X0443300Y0243900D03*
X0443200Y0243900D03*
X0443100Y0243900D03*
X0443000Y0243900D03*
X0442900Y0243900D03*
X0442800Y0243900D03*
X0442700Y0243900D03*
X0442600Y0243900D03*
X0442500Y0243900D03*
X0442400Y0243900D03*
X0442300Y0243900D03*
X0442200Y0243900D03*
X0442100Y0243900D03*
X0442000Y0243900D03*
X0441900Y0243900D03*
X0441800Y0243900D03*
X0441700Y0243900D03*
X0441600Y0243900D03*
X0441500Y0243900D03*
X0441400Y0243900D03*
X0441400Y0241500D03*
X0441500Y0241500D03*
X0441600Y0241500D03*
X0441700Y0241500D03*
X0441800Y0241500D03*
X0441900Y0241500D03*
X0442000Y0241500D03*
X0442100Y0241500D03*
X0442200Y0241500D03*
X0442300Y0241500D03*
X0442400Y0241500D03*
X0442500Y0241500D03*
X0442600Y0241500D03*
X0442700Y0241500D03*
X0442800Y0241500D03*
X0442900Y0241500D03*
X0443000Y0241500D03*
X0443600Y0241700D03*
X0443700Y0241700D03*
X0444300Y0241700D03*
X0444400Y0241700D03*
X0444500Y0241700D03*
X0444600Y0241700D03*
X0444700Y0241700D03*
X0444800Y0241700D03*
X0444900Y0241700D03*
X0445000Y0241700D03*
X0445100Y0241700D03*
X0445200Y0241700D03*
X0445300Y0241700D03*
X0445400Y0241700D03*
X0445500Y0241700D03*
X0445600Y0241700D03*
X0445700Y0241700D03*
X0445800Y0241700D03*
X0445900Y0241700D03*
X0440800Y0241500D03*
X0440700Y0241500D03*
X0441000Y0249600D03*
X0442300Y0251400D03*
X0443700Y0253000D03*
X0444000Y0252900D03*
X0444700Y0252700D03*
X0445000Y0252600D03*
X0445100Y0252600D03*
X0445700Y0252400D03*
X0445800Y0252400D03*
X0445900Y0252400D03*
X0446100Y0252300D03*
X0446200Y0252300D03*
X0446300Y0252300D03*
X0446500Y0252200D03*
X0446000Y0249700D03*
X0455800Y0218100D03*
X0455900Y0218100D03*
X0472000Y0207800D03*
X0472000Y0206900D03*
X0472800Y0206100D03*
X0472900Y0206100D03*
X0473000Y0206100D03*
X0473400Y0206900D03*
X0473300Y0207800D03*
X0473300Y0210000D03*
X0472800Y0204500D03*
X0472700Y0204500D03*
X0472600Y0204500D03*
X0472200Y0203400D03*
X0472300Y0202200D03*
X0473200Y0202200D03*
X0483700Y0199900D03*
X0455900Y0193500D03*
D51*
X0457100Y0194000D03*
X0482900Y0200100D03*
X0482900Y0211500D03*
X0457100Y0217600D03*
X0440900Y0248200D03*
X0440800Y0248200D03*
D52*
X0440900Y0249900D03*
X0446200Y0249300D03*
X0456800Y0217700D03*
X0456900Y0217700D03*
X0472100Y0208900D03*
X0472200Y0208900D03*
X0472300Y0208900D03*
X0472400Y0208900D03*
X0472500Y0208900D03*
X0472600Y0208900D03*
X0472900Y0208900D03*
X0473000Y0208900D03*
X0473100Y0208900D03*
X0473200Y0208900D03*
X0473300Y0208900D03*
X0473400Y0208900D03*
X0472700Y0207500D03*
X0473600Y0205300D03*
X0483100Y0200000D03*
X0483200Y0200000D03*
X0483200Y0211600D03*
X0483100Y0211600D03*
X0456900Y0193900D03*
X0456800Y0193900D03*
X0456700Y0193800D03*
D53*
X0463100Y0196750D03*
X0472200Y0198150D03*
X0479100Y0201050D03*
X0479200Y0201050D03*
X0479200Y0210550D03*
X0479100Y0210550D03*
X0473400Y0213250D03*
X0473300Y0213250D03*
X0463100Y0214850D03*
X0441300Y0243850D03*
X0441200Y0243850D03*
X0441100Y0243850D03*
X0441000Y0243850D03*
X0440900Y0243850D03*
D54*
X0444500Y0251100D03*
X0446600Y0252300D03*
X0441700Y0253100D03*
X0455400Y0218300D03*
X0455600Y0218200D03*
X0472100Y0209900D03*
X0472600Y0209900D03*
X0473000Y0209900D03*
X0472800Y0209300D03*
X0472700Y0209300D03*
X0472000Y0209300D03*
X0471900Y0209300D03*
X0473500Y0209300D03*
X0473600Y0209300D03*
X0473500Y0207900D03*
X0473200Y0206800D03*
X0473300Y0206200D03*
X0473400Y0206200D03*
X0472200Y0206800D03*
X0473100Y0204400D03*
X0473200Y0204400D03*
X0472800Y0203700D03*
X0472800Y0203000D03*
X0473400Y0202300D03*
X0472000Y0202300D03*
X0472300Y0201400D03*
X0483900Y0199800D03*
X0483900Y0211800D03*
X0455500Y0193300D03*
X0455400Y0193300D03*
D55*
X0457400Y0194100D03*
X0482700Y0200100D03*
X0482800Y0200100D03*
X0482800Y0211500D03*
X0482700Y0211500D03*
X0457400Y0217500D03*
X0441800Y0252600D03*
D56*
X0441900Y0252500D03*
X0442000Y0250200D03*
X0442100Y0250200D03*
X0442200Y0250200D03*
X0442900Y0250200D03*
X0443000Y0250200D03*
X0443100Y0250200D03*
X0443800Y0250200D03*
X0443900Y0250200D03*
X0444000Y0250200D03*
X0444100Y0250200D03*
X0457600Y0217400D03*
X0457800Y0217300D03*
X0482500Y0211400D03*
X0482500Y0200200D03*
X0457800Y0194300D03*
X0457700Y0194200D03*
X0457600Y0194200D03*
D57*
X0458300Y0194500D03*
X0482100Y0200300D03*
X0482100Y0211300D03*
X0458300Y0217100D03*
X0442100Y0252300D03*
X0442000Y0252300D03*
D58*
X0442200Y0251950D03*
X0457500Y0217450D03*
X0457700Y0217350D03*
X0482600Y0211450D03*
X0482600Y0200150D03*
X0457500Y0194150D03*
D59*
X0458200Y0194450D03*
X0482200Y0200250D03*
X0482300Y0200250D03*
X0482300Y0211350D03*
X0482200Y0211350D03*
X0458200Y0217150D03*
X0458100Y0217150D03*
X0443500Y0252250D03*
X0443400Y0252250D03*
X0443300Y0252250D03*
X0443200Y0252250D03*
D60*
X0443800Y0243850D03*
X0443900Y0243850D03*
X0444000Y0243850D03*
X0444100Y0243850D03*
X0444200Y0243850D03*
X0462500Y0215150D03*
X0479500Y0210650D03*
X0479600Y0210650D03*
X0479600Y0200950D03*
X0479500Y0200950D03*
X0473500Y0198150D03*
X0462500Y0196450D03*
D61*
X0456000Y0193550D03*
X0472100Y0201350D03*
X0472400Y0202150D03*
X0473000Y0202150D03*
X0473100Y0202150D03*
X0473300Y0201350D03*
X0472500Y0204550D03*
X0472400Y0204550D03*
X0472600Y0206050D03*
X0472700Y0206050D03*
X0471900Y0206950D03*
X0472100Y0207750D03*
X0472200Y0207750D03*
X0473200Y0207750D03*
X0473500Y0206950D03*
X0473500Y0210050D03*
X0473400Y0210050D03*
X0483600Y0211750D03*
X0483700Y0211750D03*
X0483600Y0199850D03*
X0456000Y0218050D03*
X0444700Y0247450D03*
X0445900Y0248750D03*
X0446000Y0248850D03*
X0446100Y0248950D03*
X0446100Y0249650D03*
X0445900Y0249750D03*
X0445800Y0249850D03*
X0445700Y0249950D03*
X0445600Y0250050D03*
X0445500Y0250150D03*
X0444600Y0251050D03*
X0446400Y0252250D03*
D62*
X0444800Y0250950D03*
X0444700Y0251050D03*
X0445100Y0250550D03*
X0446400Y0249250D03*
X0445100Y0247950D03*
X0444900Y0247650D03*
X0456300Y0217950D03*
X0472400Y0207650D03*
X0473000Y0207650D03*
X0472300Y0205950D03*
X0472200Y0205950D03*
X0473200Y0205250D03*
X0473300Y0205250D03*
X0472100Y0204650D03*
X0472000Y0204650D03*
X0471900Y0204650D03*
X0472000Y0203350D03*
X0472600Y0202050D03*
X0472800Y0202050D03*
X0472000Y0201350D03*
X0483400Y0199950D03*
X0483400Y0211650D03*
X0456300Y0193650D03*
D63*
X0458400Y0194550D03*
X0458600Y0194650D03*
X0458600Y0216950D03*
X0458500Y0216950D03*
X0458400Y0217050D03*
X0444800Y0249250D03*
X0444700Y0249250D03*
D64*
X0444900Y0249650D03*
X0459700Y0216450D03*
X0459700Y0195150D03*
D65*
X0460700Y0195600D03*
X0460900Y0195700D03*
X0480600Y0200700D03*
X0480600Y0210900D03*
X0460800Y0215900D03*
X0460700Y0216000D03*
X0445000Y0249200D03*
D66*
X0445300Y0252200D03*
X0445400Y0252200D03*
X0445500Y0252200D03*
X0445600Y0252200D03*
X0458700Y0216900D03*
X0482000Y0211300D03*
X0482000Y0200300D03*
X0458700Y0194700D03*
X0458500Y0194600D03*
D67*
X0407850Y0171400D03*
X0405050Y0174600D03*
X0404950Y0174700D03*
X0401550Y0175900D03*
X0401450Y0175700D03*
X0401350Y0175500D03*
X0401250Y0175300D03*
X0397350Y0171100D03*
X0375850Y0173800D03*
X0372950Y0174300D03*
X0372850Y0174200D03*
X0372750Y0174100D03*
X0369150Y0175100D03*
X0369150Y0176400D03*
X0369250Y0171400D03*
X0363450Y0177300D03*
X0363350Y0177200D03*
X0365850Y0182000D03*
X0365850Y0182100D03*
X0365850Y0182200D03*
X0366050Y0187800D03*
X0366050Y0187900D03*
X0372750Y0188300D03*
X0372750Y0188400D03*
X0376250Y0188400D03*
X0376250Y0188300D03*
X0395050Y0188100D03*
X0402450Y0187400D03*
X0402450Y0187300D03*
X0402450Y0187200D03*
X0402450Y0187100D03*
X0402450Y0187000D03*
X0402450Y0186900D03*
X0402450Y0186800D03*
X0402450Y0186700D03*
X0402450Y0186600D03*
X0350550Y0173700D03*
X0346050Y0175500D03*
X0348250Y0181300D03*
X0348250Y0181400D03*
X0348150Y0186800D03*
X0343750Y0187600D03*
X0343750Y0187700D03*
X0319850Y0179900D03*
X0319850Y0179800D03*
X0319850Y0179700D03*
X0319850Y0179600D03*
X0319750Y0178900D03*
X0319750Y0178800D03*
X0319750Y0178700D03*
X0319750Y0178600D03*
X0319750Y0178500D03*
X0319750Y0178400D03*
X0319350Y0174500D03*
X0319350Y0174400D03*
X0319350Y0174300D03*
X0319250Y0174100D03*
X0319250Y0174000D03*
X0319250Y0173900D03*
X0316550Y0170900D03*
X0309350Y0186000D03*
X0309350Y0186100D03*
X0309350Y0186200D03*
X0309350Y0186300D03*
X0309350Y0186400D03*
X0309350Y0186500D03*
X0309350Y0186600D03*
X0309350Y0186700D03*
D68*
X0318250Y0172600D03*
X0317150Y0171300D03*
X0346050Y0176800D03*
X0346050Y0176900D03*
X0369650Y0171900D03*
X0393550Y0174600D03*
X0397350Y0171600D03*
X0398450Y0172500D03*
X0407550Y0172200D03*
D69*
X0407550Y0172300D03*
X0406750Y0173100D03*
X0398150Y0172300D03*
X0369650Y0172000D03*
X0349250Y0172300D03*
X0335950Y0173000D03*
X0317250Y0171400D03*
X0335750Y0184200D03*
D70*
X0336150Y0173100D03*
X0345950Y0174200D03*
X0349150Y0172600D03*
X0317350Y0171600D03*
X0397350Y0171800D03*
X0397450Y0171900D03*
D71*
X0407500Y0172600D03*
X0378300Y0172300D03*
X0348700Y0184200D03*
X0340700Y0174700D03*
X0317400Y0171700D03*
D72*
X0335800Y0185600D03*
X0346000Y0174400D03*
X0370700Y0172700D03*
X0377500Y0172800D03*
X0378300Y0172100D03*
X0397400Y0171700D03*
X0398000Y0172200D03*
X0407500Y0172400D03*
D73*
X0407500Y0172700D03*
X0393900Y0174800D03*
X0377900Y0172700D03*
X0349100Y0172800D03*
X0317400Y0171800D03*
D74*
X0317450Y0171900D03*
X0349050Y0172900D03*
X0369750Y0172300D03*
X0378250Y0172400D03*
X0396150Y0175900D03*
D75*
X0398600Y0172600D03*
X0406600Y0173200D03*
X0378400Y0171900D03*
X0377200Y0172900D03*
X0349300Y0172100D03*
X0346000Y0174600D03*
X0335800Y0172900D03*
D76*
X0317450Y0172100D03*
X0317450Y0172000D03*
X0349050Y0173000D03*
X0378250Y0172500D03*
X0394050Y0174900D03*
D77*
X0398300Y0172400D03*
X0378400Y0172000D03*
X0370900Y0172800D03*
X0349300Y0172200D03*
X0346000Y0174500D03*
X0346000Y0177000D03*
X0341000Y0174800D03*
D78*
X0345950Y0174300D03*
X0349250Y0172400D03*
X0393750Y0174700D03*
X0397850Y0172100D03*
D79*
X0396250Y0176000D03*
X0396250Y0176100D03*
X0396250Y0176200D03*
X0407250Y0172900D03*
X0370150Y0172500D03*
X0369750Y0172200D03*
X0349150Y0172700D03*
D80*
X0317450Y0172400D03*
X0394250Y0175000D03*
D81*
X0407500Y0172800D03*
X0369900Y0172400D03*
X0336300Y0173200D03*
D82*
X0317400Y0172500D03*
D83*
X0349000Y0173100D03*
D84*
X0336650Y0173400D03*
X0395650Y0175700D03*
D85*
X0336900Y0173500D03*
D86*
X0337300Y0173700D03*
D87*
X0337550Y0173800D03*
D88*
X0337750Y0173900D03*
D89*
X0338000Y0174000D03*
D90*
X0338300Y0174100D03*
X0403200Y0184200D03*
X0403200Y0184300D03*
X0403200Y0184400D03*
D91*
X0338700Y0174200D03*
D92*
X0339150Y0174300D03*
D93*
X0340000Y0174500D03*
D94*
X0394450Y0175100D03*
D95*
X0374300Y0175200D03*
X0374300Y0175300D03*
X0374300Y0175400D03*
X0374300Y0175500D03*
X0374300Y0175600D03*
X0374300Y0175700D03*
X0374300Y0175800D03*
X0374300Y0175900D03*
X0374300Y0176000D03*
X0374300Y0176100D03*
X0374300Y0176200D03*
X0374300Y0176300D03*
D96*
X0394700Y0175200D03*
X0395300Y0175600D03*
D97*
X0394950Y0175300D03*
X0394950Y0182100D03*
X0394950Y0182200D03*
X0394950Y0182300D03*
X0394950Y0182400D03*
X0394950Y0182500D03*
X0394950Y0182600D03*
X0394950Y0182700D03*
X0394950Y0182800D03*
X0394950Y0182900D03*
X0394950Y0183000D03*
X0394950Y0183100D03*
X0394950Y0183200D03*
X0394950Y0183300D03*
X0394950Y0183400D03*
D98*
X0311350Y0176800D03*
X0311350Y0176700D03*
X0311350Y0176600D03*
X0311350Y0176500D03*
X0311350Y0176400D03*
X0311350Y0176300D03*
X0311350Y0176200D03*
X0311350Y0176100D03*
X0311350Y0176000D03*
X0311350Y0175900D03*
X0311350Y0175800D03*
X0311350Y0175700D03*
X0311350Y0175600D03*
X0311350Y0175500D03*
X0311350Y0175400D03*
D99*
X0338650Y0177000D03*
X0338650Y0177100D03*
X0338650Y0177200D03*
X0338650Y0177300D03*
X0338650Y0177400D03*
X0338650Y0177500D03*
X0338650Y0177600D03*
X0338650Y0177700D03*
X0338650Y0177800D03*
X0338650Y0177900D03*
X0338650Y0178000D03*
X0338650Y0178100D03*
X0338650Y0180900D03*
X0338650Y0181000D03*
X0338650Y0181100D03*
X0338650Y0181200D03*
X0338650Y0181300D03*
X0338650Y0181400D03*
X0338650Y0181500D03*
X0394950Y0175400D03*
D100*
X0395000Y0175500D03*
D101*
X0374450Y0177800D03*
X0374450Y0177900D03*
X0374450Y0183500D03*
X0374450Y0183600D03*
D102*
X0374500Y0183400D03*
X0374500Y0183300D03*
X0374500Y0178200D03*
X0374500Y0178100D03*
X0374500Y0178000D03*
X0403300Y0185300D03*
X0403300Y0185400D03*
D103*
X0403650Y0179500D03*
X0403650Y0179400D03*
X0403650Y0179300D03*
X0403650Y0179200D03*
X0403650Y0179100D03*
X0403650Y0179000D03*
X0403650Y0178900D03*
X0403650Y0178800D03*
X0403650Y0178700D03*
X0403650Y0178600D03*
X0403650Y0178500D03*
X0403650Y0178400D03*
X0403650Y0178300D03*
X0403650Y0178200D03*
D104*
X0403250Y0184500D03*
X0403250Y0184600D03*
X0403250Y0184700D03*
X0403250Y0184800D03*
X0403250Y0184900D03*
X0403250Y0185000D03*
X0403250Y0185100D03*
X0403250Y0185200D03*
X0374450Y0183200D03*
X0374450Y0183100D03*
X0374450Y0183000D03*
X0374450Y0182900D03*
X0374450Y0182800D03*
X0374450Y0182700D03*
X0374450Y0182600D03*
X0374450Y0181200D03*
X0374450Y0181100D03*
X0374450Y0181000D03*
X0374450Y0180900D03*
X0374450Y0180800D03*
X0374450Y0180700D03*
X0374450Y0180600D03*
X0374450Y0180500D03*
X0374450Y0180400D03*
X0374450Y0180300D03*
X0374450Y0180200D03*
X0374450Y0178800D03*
X0374450Y0178700D03*
X0374450Y0178600D03*
X0374450Y0178500D03*
X0374450Y0178400D03*
X0374450Y0178300D03*
D105*
X0314600Y0181200D03*
X0314600Y0181300D03*
X0314500Y0180800D03*
X0314500Y0180700D03*
X0314500Y0180600D03*
X0314500Y0180500D03*
X0314500Y0180400D03*
X0314500Y0180300D03*
X0314500Y0180200D03*
X0314500Y0180100D03*
X0314500Y0180000D03*
D106*
X0314550Y0180900D03*
X0314550Y0181000D03*
X0314550Y0181100D03*
D107*
X0338650Y0181600D03*
X0338650Y0181700D03*
X0338650Y0181800D03*
X0338650Y0181900D03*
X0338650Y0182000D03*
X0338650Y0182100D03*
D108*
X0366050Y0183100D03*
X0366050Y0183200D03*
X0366050Y0183300D03*
X0366050Y0183400D03*
X0366050Y0183500D03*
X0366050Y0183600D03*
X0366050Y0183700D03*
X0366050Y0183800D03*
X0366050Y0183900D03*
X0366050Y0184000D03*
X0366050Y0184100D03*
X0366050Y0184200D03*
D109*
X0342350Y0184300D03*
X0342350Y0184400D03*
X0342350Y0184500D03*
X0342350Y0184600D03*
X0342350Y0184700D03*
X0342350Y0184800D03*
X0342350Y0184900D03*
X0342350Y0185000D03*
X0342350Y0185100D03*
X0342350Y0185200D03*
X0342350Y0185300D03*
X0342350Y0185400D03*
X0342350Y0185500D03*
D110*
X0314950Y0185500D03*
X0314950Y0185600D03*
X0314950Y0185700D03*
X0314950Y0185800D03*
X0314950Y0185900D03*
X0314950Y0185400D03*
X0314950Y0185300D03*
X0314950Y0185200D03*
X0314950Y0185100D03*
X0314950Y0185000D03*
X0314950Y0184900D03*
X0314950Y0184800D03*
X0314950Y0184700D03*
X0314950Y0184600D03*
D111*
X0374800Y0185400D03*
X0374800Y0185500D03*
X0374800Y0185600D03*
X0374800Y0185700D03*
X0374800Y0185800D03*
X0374800Y0185900D03*
X0374800Y0186000D03*
X0374800Y0186100D03*
X0374800Y0186200D03*
X0374800Y0186300D03*
X0374800Y0186400D03*
X0374800Y0186500D03*
D112*
X0455300Y0193250D03*
X0471900Y0202350D03*
X0472600Y0202950D03*
X0472700Y0202950D03*
X0472400Y0203350D03*
X0472700Y0203750D03*
X0473300Y0204350D03*
X0473400Y0204350D03*
X0473500Y0204350D03*
X0472600Y0205250D03*
X0472500Y0205250D03*
X0473500Y0206250D03*
X0473600Y0206250D03*
X0473100Y0206750D03*
X0472400Y0206750D03*
X0472300Y0206750D03*
X0473600Y0207950D03*
X0472900Y0209850D03*
X0473500Y0202350D03*
X0473100Y0201350D03*
X0484000Y0199750D03*
X0484100Y0199750D03*
X0484100Y0211850D03*
X0484000Y0211850D03*
X0455500Y0218250D03*
X0455300Y0218350D03*
D113*
X0458000Y0217200D03*
X0482400Y0211400D03*
X0482400Y0200200D03*
X0458100Y0194400D03*
X0458000Y0194400D03*
D114*
X0458800Y0194750D03*
X0481800Y0200350D03*
X0481900Y0200350D03*
X0481900Y0211250D03*
X0481800Y0211250D03*
X0458800Y0216850D03*
D115*
X0458900Y0216800D03*
X0481700Y0211200D03*
X0481700Y0200400D03*
X0459000Y0194800D03*
X0458900Y0194800D03*
D116*
X0459200Y0194900D03*
X0481600Y0200400D03*
X0481600Y0211200D03*
X0459300Y0216600D03*
X0459200Y0216700D03*
D117*
X0459400Y0216550D03*
X0459500Y0216550D03*
X0481500Y0211150D03*
X0481500Y0200450D03*
X0459500Y0195050D03*
X0459300Y0194950D03*
D118*
X0459400Y0195000D03*
X0459600Y0195100D03*
X0481300Y0200500D03*
X0481400Y0200500D03*
X0481400Y0211100D03*
X0481300Y0211100D03*
X0459600Y0216500D03*
D119*
X0459800Y0216400D03*
X0481200Y0211100D03*
X0481200Y0200500D03*
X0459900Y0195200D03*
X0459800Y0195200D03*
D120*
X0460000Y0195250D03*
X0481100Y0200550D03*
X0481100Y0211050D03*
X0460100Y0216250D03*
X0460000Y0216350D03*
X0459900Y0216350D03*
D121*
X0460200Y0216200D03*
X0480900Y0211000D03*
X0481000Y0211000D03*
X0481000Y0200600D03*
X0460200Y0195400D03*
X0460100Y0195300D03*
D122*
X0460300Y0195450D03*
X0460400Y0195450D03*
X0480900Y0200550D03*
X0460300Y0216150D03*
D123*
X0460400Y0216100D03*
X0460500Y0216100D03*
X0480800Y0211000D03*
X0480800Y0200600D03*
X0460500Y0195500D03*
D124*
X0460600Y0195550D03*
X0480700Y0200650D03*
X0480700Y0210950D03*
X0460600Y0216050D03*
D125*
X0461100Y0215800D03*
X0480400Y0210900D03*
X0480500Y0210900D03*
X0480500Y0200700D03*
X0480400Y0200700D03*
X0461100Y0195800D03*
D126*
X0461200Y0195850D03*
X0474600Y0197950D03*
X0480300Y0200750D03*
X0480300Y0210850D03*
X0474600Y0213650D03*
X0461200Y0215750D03*
D127*
X0461300Y0215700D03*
X0461400Y0215700D03*
X0461500Y0215600D03*
X0480200Y0210800D03*
X0480200Y0200800D03*
X0461400Y0195900D03*
X0461300Y0195900D03*
D128*
X0461700Y0196100D03*
X0480000Y0200800D03*
X0480100Y0200800D03*
X0480100Y0210800D03*
X0480000Y0210800D03*
X0461700Y0215500D03*
D129*
X0461800Y0215450D03*
X0461900Y0215450D03*
X0479900Y0210750D03*
X0479900Y0200850D03*
X0461900Y0196150D03*
X0461800Y0196150D03*
D130*
X0462000Y0196200D03*
X0474600Y0205800D03*
X0474700Y0205800D03*
X0479800Y0200900D03*
X0479800Y0210700D03*
X0462000Y0215400D03*
D131*
X0462100Y0215350D03*
X0462200Y0215250D03*
X0479700Y0210650D03*
X0479700Y0200950D03*
X0462100Y0196250D03*
D132*
X0462600Y0196500D03*
X0471900Y0198000D03*
X0473300Y0198200D03*
X0473400Y0198200D03*
X0479400Y0201000D03*
X0479400Y0210600D03*
X0462600Y0215100D03*
D133*
X0462700Y0215050D03*
X0462800Y0214950D03*
X0462900Y0214950D03*
X0473600Y0213350D03*
X0479300Y0210550D03*
X0479300Y0201050D03*
X0473200Y0198250D03*
X0472000Y0198050D03*
X0462900Y0196650D03*
X0462700Y0196550D03*
D134*
X0463200Y0196800D03*
X0472300Y0198200D03*
X0472400Y0198300D03*
X0472500Y0198300D03*
X0473000Y0198300D03*
X0479000Y0201100D03*
X0479000Y0210500D03*
X0473200Y0213200D03*
X0473100Y0213200D03*
X0463200Y0214800D03*
D135*
X0463300Y0214750D03*
X0463400Y0214750D03*
X0463500Y0214650D03*
X0472300Y0213250D03*
X0472400Y0213250D03*
X0473000Y0213150D03*
X0478900Y0210450D03*
X0474800Y0205750D03*
X0478900Y0201150D03*
X0472900Y0198350D03*
X0472800Y0198350D03*
X0472600Y0198350D03*
X0463400Y0196850D03*
X0463300Y0196850D03*
D136*
X0463700Y0197050D03*
X0478800Y0201150D03*
X0478800Y0210450D03*
X0472900Y0213150D03*
X0472700Y0213150D03*
X0472200Y0213250D03*
X0472100Y0213250D03*
X0463700Y0214550D03*
D137*
X0463800Y0214500D03*
X0463900Y0214500D03*
X0472000Y0213200D03*
X0472800Y0213100D03*
X0478600Y0210400D03*
X0478700Y0210400D03*
X0478700Y0201200D03*
X0478600Y0201200D03*
X0463900Y0197100D03*
X0463800Y0197100D03*
D138*
X0464000Y0197150D03*
X0478500Y0201250D03*
X0478500Y0210350D03*
X0471900Y0213150D03*
X0464100Y0214350D03*
X0464000Y0214450D03*
D139*
X0464300Y0214250D03*
X0464400Y0214250D03*
X0478400Y0210350D03*
X0478400Y0201250D03*
X0464400Y0197350D03*
D140*
X0464500Y0197400D03*
X0474900Y0205800D03*
X0478200Y0201300D03*
X0478300Y0201300D03*
X0478300Y0210300D03*
X0478200Y0210300D03*
X0464500Y0214200D03*
D141*
X0464600Y0214150D03*
X0478100Y0210250D03*
X0478100Y0201350D03*
X0464600Y0197450D03*
D142*
X0465000Y0197650D03*
X0478000Y0201350D03*
X0478000Y0210250D03*
X0465000Y0213950D03*
D143*
X0465100Y0213900D03*
X0477900Y0210200D03*
X0477900Y0201400D03*
X0465100Y0197700D03*
D144*
X0465200Y0197750D03*
X0477800Y0201450D03*
X0477800Y0210150D03*
X0477700Y0210150D03*
X0465400Y0213750D03*
X0465200Y0213850D03*
D145*
X0465300Y0213800D03*
X0465500Y0213700D03*
X0477700Y0201400D03*
X0465500Y0197900D03*
X0465400Y0197800D03*
X0465300Y0197800D03*
D146*
X0465600Y0197950D03*
X0477600Y0201450D03*
X0477600Y0210150D03*
X0465600Y0213650D03*
D147*
X0465700Y0213600D03*
X0475000Y0205800D03*
X0477500Y0201500D03*
X0477500Y0210100D03*
X0465700Y0198000D03*
D148*
X0465800Y0198050D03*
X0465900Y0198050D03*
X0477400Y0201550D03*
X0477400Y0210050D03*
X0466000Y0213450D03*
X0465900Y0213550D03*
X0465800Y0213550D03*
D149*
X0466200Y0213350D03*
X0477200Y0210050D03*
X0477300Y0210050D03*
X0477300Y0201550D03*
X0477200Y0201550D03*
X0466200Y0198250D03*
D150*
X0466300Y0198300D03*
X0466400Y0198300D03*
X0477100Y0201600D03*
X0477100Y0210000D03*
X0466400Y0213300D03*
X0466300Y0213300D03*
D151*
X0466500Y0213250D03*
X0466600Y0213150D03*
X0477000Y0209950D03*
X0477000Y0201650D03*
X0466500Y0198350D03*
D152*
X0466800Y0198550D03*
X0466900Y0198550D03*
X0476800Y0201650D03*
X0476900Y0201650D03*
X0476900Y0209950D03*
X0476800Y0209950D03*
X0466900Y0213050D03*
X0466800Y0213050D03*
D153*
X0467000Y0213000D03*
X0476700Y0209900D03*
X0475100Y0205800D03*
X0476700Y0201700D03*
X0467000Y0198600D03*
D154*
X0467100Y0198650D03*
X0467300Y0198750D03*
X0476600Y0201750D03*
X0476600Y0209850D03*
X0467100Y0212950D03*
D155*
X0467500Y0212750D03*
X0476500Y0209850D03*
X0476500Y0201750D03*
X0467500Y0198850D03*
D156*
X0476300Y0205800D03*
X0476400Y0205800D03*
D157*
X0476200Y0205800D03*
D158*
X0476100Y0205800D03*
D159*
X0476000Y0205800D03*
D160*
X0475900Y0205800D03*
D161*
X0475800Y0205800D03*
D162*
X0475700Y0205800D03*
D163*
X0475600Y0205800D03*
D164*
X0475500Y0205750D03*
D165*
X0475400Y0205800D03*
X0470500Y0200300D03*
X0470400Y0200200D03*
X0470500Y0211300D03*
D166*
X0469200Y0211900D03*
X0475300Y0205800D03*
X0469300Y0199700D03*
X0469200Y0199700D03*
X0469100Y0199600D03*
D167*
X0468000Y0199100D03*
X0467900Y0199000D03*
X0475200Y0205800D03*
X0468000Y0212500D03*
D168*
X0474400Y0205800D03*
X0474500Y0205800D03*
D169*
X0474300Y0205750D03*
D170*
X0474200Y0205800D03*
X0474100Y0205800D03*
X0474000Y0205800D03*
X0473900Y0205800D03*
X0473800Y0205800D03*
X0473700Y0205800D03*
D171*
X0473600Y0198100D03*
X0462400Y0196400D03*
X0462300Y0196400D03*
X0462200Y0196300D03*
X0462300Y0215200D03*
X0462400Y0215200D03*
D172*
X0463000Y0214900D03*
X0473500Y0213300D03*
X0473100Y0198300D03*
X0472100Y0198100D03*
X0463000Y0196700D03*
X0462800Y0196600D03*
D173*
X0463500Y0196900D03*
X0463600Y0197000D03*
X0472700Y0198400D03*
X0472600Y0213200D03*
X0472500Y0213200D03*
X0463600Y0214600D03*
D174*
X0471800Y0205800D03*
D175*
X0471700Y0205750D03*
D176*
X0471600Y0205800D03*
X0471500Y0205800D03*
X0471400Y0205800D03*
X0471300Y0205800D03*
X0471200Y0205800D03*
D177*
X0471100Y0211000D03*
X0471000Y0211100D03*
X0471000Y0200500D03*
X0471100Y0200500D03*
D178*
X0470900Y0200450D03*
X0470900Y0211150D03*
D179*
X0470800Y0211200D03*
X0470700Y0211200D03*
X0470700Y0200400D03*
X0470800Y0200400D03*
D180*
X0470600Y0200350D03*
X0470600Y0211250D03*
D181*
X0470400Y0211350D03*
X0470300Y0211450D03*
X0470200Y0211450D03*
X0470200Y0200150D03*
X0470300Y0200150D03*
D182*
X0470100Y0200100D03*
X0470100Y0211500D03*
D183*
X0470000Y0211550D03*
X0470000Y0200050D03*
D184*
X0469900Y0200000D03*
X0469800Y0199900D03*
X0469700Y0199900D03*
X0469900Y0211600D03*
X0469700Y0211700D03*
D185*
X0469600Y0211750D03*
X0469800Y0211650D03*
X0469600Y0199850D03*
D186*
X0469500Y0199800D03*
X0469500Y0211800D03*
D187*
X0469400Y0211850D03*
X0469300Y0211850D03*
X0469400Y0199750D03*
D188*
X0469000Y0199550D03*
X0469100Y0211950D03*
X0469000Y0212050D03*
D189*
X0468900Y0212100D03*
X0468800Y0212100D03*
X0468900Y0199500D03*
D190*
X0468800Y0199450D03*
X0468700Y0199450D03*
X0468700Y0212150D03*
D191*
X0468600Y0212200D03*
X0468600Y0199400D03*
X0468500Y0199300D03*
D192*
X0468400Y0199250D03*
X0468500Y0212250D03*
X0468400Y0212350D03*
X0468300Y0212350D03*
D193*
X0468200Y0212400D03*
X0468200Y0199200D03*
X0468300Y0199200D03*
D194*
X0468100Y0199150D03*
X0468100Y0212450D03*
D195*
X0467900Y0212550D03*
X0467800Y0212550D03*
X0467700Y0212650D03*
X0467700Y0198950D03*
X0467800Y0198950D03*
D196*
X0467600Y0198900D03*
X0467600Y0212700D03*
D197*
X0467400Y0212800D03*
X0467300Y0212800D03*
X0467200Y0212900D03*
X0467400Y0198800D03*
X0467200Y0198700D03*
D198*
X0466700Y0198500D03*
X0466600Y0198400D03*
X0466700Y0213100D03*
D199*
X0466100Y0213400D03*
X0466100Y0198200D03*
X0466000Y0198100D03*
D200*
X0464900Y0197600D03*
X0464800Y0197600D03*
X0464700Y0197500D03*
X0464800Y0214000D03*
X0464900Y0214000D03*
X0464700Y0214100D03*
D201*
X0464200Y0214300D03*
X0464200Y0197300D03*
X0464300Y0197300D03*
X0464100Y0197200D03*
D202*
X0461600Y0196050D03*
X0461500Y0195950D03*
X0461600Y0215550D03*
D203*
X0461000Y0215850D03*
X0460900Y0215850D03*
X0461000Y0195750D03*
X0460800Y0195650D03*
D204*
X0459100Y0194850D03*
X0459100Y0216750D03*
X0459000Y0216750D03*
D205*
X0457900Y0217250D03*
X0457900Y0194350D03*
D206*
X0457300Y0194050D03*
X0457200Y0194050D03*
X0457200Y0217550D03*
X0457300Y0217550D03*
D207*
X0338630Y0256311D02*
X0338410Y0256311D01*
D208*
X0341568Y0257165D02*
X0341819Y0256915D01*
X0342819Y0256915D01*
X0343070Y0257165D01*
X0343070Y0257665D01*
X0342819Y0257915D01*
X0343070Y0258388D02*
X0343070Y0259389D01*
X0343070Y0258888D02*
X0341568Y0258888D01*
X0342069Y0258388D01*
X0341819Y0257915D02*
X0341568Y0257665D01*
X0341568Y0257165D01*
X0368545Y0303277D02*
X0368545Y0304027D01*
X0368795Y0304278D01*
X0369295Y0304278D01*
X0369546Y0304027D01*
X0369546Y0303277D01*
X0370046Y0303277D02*
X0368545Y0303277D01*
X0369546Y0303777D02*
X0370046Y0304278D01*
X0370046Y0304750D02*
X0369045Y0305751D01*
X0368795Y0305751D01*
X0368545Y0305501D01*
X0368545Y0305000D01*
X0368795Y0304750D01*
X0370046Y0304750D02*
X0370046Y0305751D01*
X0424527Y0320239D02*
X0424527Y0320990D01*
X0424778Y0321240D01*
X0425278Y0321240D01*
X0425528Y0320990D01*
X0425528Y0320239D01*
X0425528Y0320739D02*
X0426029Y0321240D01*
X0426029Y0321712D02*
X0426029Y0322713D01*
X0426029Y0322213D02*
X0424527Y0322213D01*
X0425028Y0321712D01*
X0424527Y0320239D02*
X0426029Y0320239D01*
D209*
X0453610Y0268028D02*
X0453610Y0258028D01*
X0456110Y0258028D01*
X0456110Y0238028D01*
X0453610Y0238028D01*
X0453610Y0228028D01*
X0456110Y0228028D01*
X0456110Y0238028D01*
X0456110Y0228028D02*
X0476110Y0228028D01*
X0476110Y0268028D01*
X0456110Y0268028D01*
X0453610Y0268028D01*
X0456110Y0268028D02*
X0456110Y0258028D01*
X0345988Y0245571D02*
X0345988Y0242569D01*
X0345988Y0244070D02*
X0341484Y0244070D01*
X0342986Y0242569D01*
X0342235Y0240968D02*
X0341484Y0240217D01*
X0341484Y0238716D01*
X0342235Y0237965D01*
X0345238Y0237965D01*
X0345988Y0238716D01*
X0345988Y0240217D01*
X0345238Y0240968D01*
X0345988Y0236397D02*
X0345988Y0234896D01*
X0345988Y0235646D02*
X0341484Y0235646D01*
X0341484Y0234896D02*
X0341484Y0236397D01*
X0275047Y0215764D02*
X0275047Y0213264D01*
X0265047Y0213264D01*
X0265047Y0215764D01*
X0275047Y0215764D01*
X0275047Y0213264D02*
X0275047Y0193264D01*
X0235047Y0193264D01*
X0235047Y0213264D01*
X0235047Y0215764D01*
X0245047Y0215764D01*
X0245047Y0213264D01*
X0235047Y0213264D01*
X0245047Y0213264D02*
X0265047Y0213264D01*
X0265165Y0291079D02*
X0265165Y0293579D01*
X0275165Y0293579D01*
X0275165Y0291079D01*
X0265165Y0291079D01*
X0265165Y0293579D02*
X0245165Y0293579D01*
X0245165Y0291079D01*
X0235165Y0291079D01*
X0235165Y0293579D01*
X0245165Y0293579D01*
X0235165Y0293579D02*
X0235165Y0313579D01*
X0275165Y0313579D01*
X0275165Y0293579D01*
D210*
X0273831Y0313779D02*
X0270761Y0313779D01*
X0269227Y0313779D02*
X0269227Y0318383D01*
X0270761Y0316848D02*
X0272296Y0318383D01*
X0272296Y0313779D01*
X0269227Y0316081D02*
X0266157Y0316081D01*
X0266157Y0313779D02*
X0266157Y0318383D01*
X0419591Y0323689D02*
X0419591Y0325264D01*
X0422346Y0325264D02*
X0422346Y0323689D01*
X0477074Y0235901D02*
X0477841Y0235901D01*
X0478608Y0235133D01*
X0479376Y0235901D01*
X0480143Y0235901D01*
X0480910Y0235133D01*
X0480910Y0233599D01*
X0480143Y0232831D01*
X0480910Y0231297D02*
X0476306Y0231297D01*
X0477074Y0232831D02*
X0476306Y0233599D01*
X0476306Y0235133D01*
X0477074Y0235901D01*
X0478608Y0235133D02*
X0478608Y0234366D01*
X0478608Y0231297D02*
X0478608Y0228228D01*
X0480910Y0228228D02*
X0476306Y0228228D01*
X0242920Y0192300D02*
X0242153Y0193068D01*
X0240618Y0193068D01*
X0239851Y0192300D01*
X0238317Y0193068D02*
X0238317Y0188464D01*
X0239851Y0188464D02*
X0242920Y0191533D01*
X0242920Y0192300D01*
X0242920Y0188464D02*
X0239851Y0188464D01*
X0238317Y0190766D02*
X0235247Y0190766D01*
X0235247Y0188464D02*
X0235247Y0193068D01*
D211*
X0347941Y0236591D02*
X0347941Y0249740D01*
X0366091Y0250724D02*
X0366189Y0250724D01*
X0367035Y0249740D02*
X0367035Y0236551D01*
D212*
X0349929Y0238756D02*
X0349931Y0238844D01*
X0349937Y0238932D01*
X0349947Y0239020D01*
X0349961Y0239108D01*
X0349978Y0239194D01*
X0350000Y0239280D01*
X0350025Y0239364D01*
X0350055Y0239448D01*
X0350087Y0239530D01*
X0350124Y0239610D01*
X0350164Y0239689D01*
X0350208Y0239766D01*
X0350255Y0239841D01*
X0350305Y0239913D01*
X0350359Y0239984D01*
X0350415Y0240051D01*
X0350475Y0240117D01*
X0350537Y0240179D01*
X0350603Y0240239D01*
X0350670Y0240295D01*
X0350741Y0240349D01*
X0350813Y0240399D01*
X0350888Y0240446D01*
X0350965Y0240490D01*
X0351044Y0240530D01*
X0351124Y0240567D01*
X0351206Y0240599D01*
X0351290Y0240629D01*
X0351374Y0240654D01*
X0351460Y0240676D01*
X0351546Y0240693D01*
X0351634Y0240707D01*
X0351722Y0240717D01*
X0351810Y0240723D01*
X0351898Y0240725D01*
X0351986Y0240723D01*
X0352074Y0240717D01*
X0352162Y0240707D01*
X0352250Y0240693D01*
X0352336Y0240676D01*
X0352422Y0240654D01*
X0352506Y0240629D01*
X0352590Y0240599D01*
X0352672Y0240567D01*
X0352752Y0240530D01*
X0352831Y0240490D01*
X0352908Y0240446D01*
X0352983Y0240399D01*
X0353055Y0240349D01*
X0353126Y0240295D01*
X0353193Y0240239D01*
X0353259Y0240179D01*
X0353321Y0240117D01*
X0353381Y0240051D01*
X0353437Y0239984D01*
X0353491Y0239913D01*
X0353541Y0239841D01*
X0353588Y0239766D01*
X0353632Y0239689D01*
X0353672Y0239610D01*
X0353709Y0239530D01*
X0353741Y0239448D01*
X0353771Y0239364D01*
X0353796Y0239280D01*
X0353818Y0239194D01*
X0353835Y0239108D01*
X0353849Y0239020D01*
X0353859Y0238932D01*
X0353865Y0238844D01*
X0353867Y0238756D01*
X0353865Y0238668D01*
X0353859Y0238580D01*
X0353849Y0238492D01*
X0353835Y0238404D01*
X0353818Y0238318D01*
X0353796Y0238232D01*
X0353771Y0238148D01*
X0353741Y0238064D01*
X0353709Y0237982D01*
X0353672Y0237902D01*
X0353632Y0237823D01*
X0353588Y0237746D01*
X0353541Y0237671D01*
X0353491Y0237599D01*
X0353437Y0237528D01*
X0353381Y0237461D01*
X0353321Y0237395D01*
X0353259Y0237333D01*
X0353193Y0237273D01*
X0353126Y0237217D01*
X0353055Y0237163D01*
X0352983Y0237113D01*
X0352908Y0237066D01*
X0352831Y0237022D01*
X0352752Y0236982D01*
X0352672Y0236945D01*
X0352590Y0236913D01*
X0352506Y0236883D01*
X0352422Y0236858D01*
X0352336Y0236836D01*
X0352250Y0236819D01*
X0352162Y0236805D01*
X0352074Y0236795D01*
X0351986Y0236789D01*
X0351898Y0236787D01*
X0351810Y0236789D01*
X0351722Y0236795D01*
X0351634Y0236805D01*
X0351546Y0236819D01*
X0351460Y0236836D01*
X0351374Y0236858D01*
X0351290Y0236883D01*
X0351206Y0236913D01*
X0351124Y0236945D01*
X0351044Y0236982D01*
X0350965Y0237022D01*
X0350888Y0237066D01*
X0350813Y0237113D01*
X0350741Y0237163D01*
X0350670Y0237217D01*
X0350603Y0237273D01*
X0350537Y0237333D01*
X0350475Y0237395D01*
X0350415Y0237461D01*
X0350359Y0237528D01*
X0350305Y0237599D01*
X0350255Y0237671D01*
X0350208Y0237746D01*
X0350164Y0237823D01*
X0350124Y0237902D01*
X0350087Y0237982D01*
X0350055Y0238064D01*
X0350025Y0238148D01*
X0350000Y0238232D01*
X0349978Y0238318D01*
X0349961Y0238404D01*
X0349947Y0238492D01*
X0349937Y0238580D01*
X0349931Y0238668D01*
X0349929Y0238756D01*
D213*
X0422100Y0324969D03*
D214*
X0417719Y0324639D02*
X0417719Y0326090D01*
X0417236Y0326574D01*
X0415301Y0326574D01*
X0414817Y0326090D01*
X0414817Y0324639D01*
X0417719Y0324639D01*
X0417719Y0323627D02*
X0417719Y0321692D01*
X0414817Y0321692D01*
X0414817Y0323627D01*
X0416268Y0322660D02*
X0416268Y0321692D01*
X0417719Y0320681D02*
X0417719Y0318746D01*
X0414817Y0318746D01*
X0415784Y0327585D02*
X0414817Y0328553D01*
X0417719Y0328553D01*
X0417719Y0329520D02*
X0417719Y0327585D01*
D215*
X0377878Y0331118D02*
X0377878Y0313992D01*
X0332091Y0313992D01*
X0332091Y0331118D01*
X0377878Y0331118D01*
D216*
X0357042Y0310140D02*
X0354940Y0308038D01*
X0352698Y0309089D02*
X0351648Y0310140D01*
X0349546Y0310140D01*
X0348495Y0309089D01*
X0348495Y0308038D01*
X0349546Y0306987D01*
X0351648Y0306987D01*
X0352698Y0305936D01*
X0352698Y0304885D01*
X0351648Y0303834D01*
X0349546Y0303834D01*
X0348495Y0304885D01*
X0354940Y0303834D02*
X0359144Y0303834D01*
X0357042Y0303834D02*
X0357042Y0310140D01*
D217*
X0365496Y0302673D03*
X0429079Y0323689D03*
D218*
X0457542Y0302383D02*
X0459917Y0304758D01*
X0463380Y0301934D01*
X0464297Y0302439D01*
X0465264Y0302839D01*
X0466269Y0303131D01*
X0466721Y0307577D01*
X0470079Y0307577D01*
X0470531Y0303131D01*
X0471536Y0302839D01*
X0472503Y0302439D01*
X0473420Y0301934D01*
X0476883Y0304758D01*
X0479258Y0302383D01*
X0476434Y0298920D01*
X0476822Y0298238D01*
X0477152Y0297526D01*
X0472378Y0295548D01*
X0472001Y0296262D01*
X0471496Y0296893D01*
X0470883Y0297418D01*
X0470183Y0297820D01*
X0469419Y0298084D01*
X0468620Y0298200D01*
X0467813Y0298166D01*
X0467027Y0297981D01*
X0466289Y0297653D01*
X0465626Y0297193D01*
X0465060Y0296617D01*
X0464611Y0295946D01*
X0464296Y0295203D01*
X0464124Y0294413D01*
X0464104Y0293606D01*
X0464234Y0292809D01*
X0464511Y0292050D01*
X0464925Y0291357D01*
X0465461Y0290753D01*
X0466100Y0290259D01*
X0466820Y0289894D01*
X0467596Y0289669D01*
X0468400Y0289594D01*
X0469121Y0289655D01*
X0469822Y0289835D01*
X0470483Y0290131D01*
X0471085Y0290533D01*
X0471611Y0291030D01*
X0472046Y0291609D01*
X0472378Y0292252D01*
X0477152Y0290274D01*
X0476822Y0289562D01*
X0476434Y0288880D01*
X0479258Y0285417D01*
X0476883Y0283042D01*
X0473420Y0285866D01*
X0472503Y0285361D01*
X0471536Y0284961D01*
X0470531Y0284669D01*
X0470079Y0280223D01*
X0466721Y0280223D01*
X0466269Y0284669D01*
X0465264Y0284961D01*
X0464297Y0285361D01*
X0463380Y0285866D01*
X0459917Y0283042D01*
X0457542Y0285417D01*
X0460366Y0288880D01*
X0459861Y0289797D01*
X0459461Y0290764D01*
X0459169Y0291769D01*
X0454723Y0292221D01*
X0454723Y0295579D01*
X0459169Y0296031D01*
X0459461Y0297036D01*
X0459861Y0298003D01*
X0460366Y0298920D01*
X0457542Y0302383D01*
X0457728Y0302155D02*
X0463110Y0302155D01*
X0463780Y0302155D02*
X0473020Y0302155D01*
X0473690Y0302155D02*
X0479072Y0302155D01*
X0478898Y0302744D02*
X0474413Y0302744D01*
X0475135Y0303333D02*
X0478309Y0303333D01*
X0477720Y0303922D02*
X0475858Y0303922D01*
X0476580Y0304511D02*
X0477131Y0304511D01*
X0478591Y0301566D02*
X0458209Y0301566D01*
X0458689Y0300977D02*
X0478111Y0300977D01*
X0477631Y0300388D02*
X0459169Y0300388D01*
X0459650Y0299798D02*
X0477150Y0299798D01*
X0476670Y0299209D02*
X0460130Y0299209D01*
X0460201Y0298620D02*
X0476605Y0298620D01*
X0476918Y0298031D02*
X0469571Y0298031D01*
X0470841Y0297442D02*
X0476951Y0297442D01*
X0475529Y0296853D02*
X0471528Y0296853D01*
X0471999Y0296264D02*
X0474107Y0296264D01*
X0472685Y0295675D02*
X0472311Y0295675D01*
X0472321Y0292141D02*
X0472647Y0292141D01*
X0472003Y0291552D02*
X0474069Y0291552D01*
X0475491Y0290963D02*
X0471539Y0290963D01*
X0470846Y0290373D02*
X0476913Y0290373D01*
X0476925Y0289784D02*
X0469625Y0289784D01*
X0467199Y0289784D02*
X0459868Y0289784D01*
X0459622Y0290373D02*
X0465952Y0290373D01*
X0465275Y0290963D02*
X0459403Y0290963D01*
X0459232Y0291552D02*
X0464809Y0291552D01*
X0464478Y0292141D02*
X0455513Y0292141D01*
X0454723Y0292730D02*
X0464263Y0292730D01*
X0464151Y0293319D02*
X0454723Y0293319D01*
X0454723Y0293908D02*
X0464112Y0293908D01*
X0464143Y0294497D02*
X0454723Y0294497D01*
X0454723Y0295086D02*
X0464270Y0295086D01*
X0464496Y0295675D02*
X0455666Y0295675D01*
X0459237Y0296264D02*
X0464823Y0296264D01*
X0465291Y0296853D02*
X0459408Y0296853D01*
X0459629Y0297442D02*
X0465985Y0297442D01*
X0467239Y0298031D02*
X0459877Y0298031D01*
X0457902Y0302744D02*
X0462387Y0302744D01*
X0461665Y0303333D02*
X0458491Y0303333D01*
X0459080Y0303922D02*
X0460942Y0303922D01*
X0460220Y0304511D02*
X0459669Y0304511D01*
X0465033Y0302744D02*
X0471767Y0302744D01*
X0470511Y0303333D02*
X0466289Y0303333D01*
X0466349Y0303922D02*
X0470451Y0303922D01*
X0470391Y0304511D02*
X0466409Y0304511D01*
X0466469Y0305100D02*
X0470331Y0305100D01*
X0470271Y0305689D02*
X0466529Y0305689D01*
X0466589Y0306278D02*
X0470211Y0306278D01*
X0470151Y0306867D02*
X0466649Y0306867D01*
X0466709Y0307456D02*
X0470091Y0307456D01*
X0476614Y0289195D02*
X0460192Y0289195D01*
X0460143Y0288606D02*
X0476657Y0288606D01*
X0477138Y0288017D02*
X0459662Y0288017D01*
X0459182Y0287428D02*
X0477618Y0287428D01*
X0478098Y0286839D02*
X0458702Y0286839D01*
X0458221Y0286250D02*
X0478579Y0286250D01*
X0479059Y0285661D02*
X0473671Y0285661D01*
X0473048Y0285661D02*
X0463752Y0285661D01*
X0463129Y0285661D02*
X0457741Y0285661D01*
X0457886Y0285072D02*
X0462406Y0285072D01*
X0461684Y0284483D02*
X0458475Y0284483D01*
X0459065Y0283894D02*
X0460961Y0283894D01*
X0460239Y0283305D02*
X0459654Y0283305D01*
X0464995Y0285072D02*
X0471805Y0285072D01*
X0470512Y0284483D02*
X0466288Y0284483D01*
X0466348Y0283894D02*
X0470452Y0283894D01*
X0470392Y0283305D02*
X0466408Y0283305D01*
X0466467Y0282716D02*
X0470332Y0282716D01*
X0470273Y0282127D02*
X0466527Y0282127D01*
X0466587Y0281538D02*
X0470213Y0281538D01*
X0470153Y0280948D02*
X0466647Y0280948D01*
X0466707Y0280359D02*
X0470093Y0280359D01*
X0474394Y0285072D02*
X0478914Y0285072D01*
X0478325Y0284483D02*
X0475116Y0284483D01*
X0475839Y0283894D02*
X0477735Y0283894D01*
X0477146Y0283305D02*
X0476561Y0283305D01*
M02*
