G75*
%MOIN*%
%OFA0B0*%
%FSLAX24Y24*%
%IPPOS*%
%LPD*%
%AMOC8*
5,1,8,0,0,1.08239X$1,22.5*
%
%ADD10C,0.0000*%
%ADD11R,0.0515X0.0515*%
%ADD12C,0.0515*%
%ADD13C,0.0740*%
%ADD14C,0.0050*%
%ADD15C,0.0400*%
%ADD16C,0.0160*%
D10*
X000300Y000350D02*
X000300Y039720D01*
X063292Y039720D01*
X063292Y000350D01*
X000300Y000350D01*
D11*
X023115Y017356D03*
X025077Y025128D03*
X037311Y019803D03*
D12*
X037311Y020803D03*
X037311Y021803D03*
X025115Y017356D03*
X024115Y017356D03*
X024077Y025128D03*
X023077Y025128D03*
D13*
X030428Y025756D03*
X031498Y025756D03*
X032568Y025756D03*
D14*
X038034Y026294D02*
X038036Y026333D01*
X038042Y026372D01*
X038052Y026410D01*
X038065Y026447D01*
X038082Y026482D01*
X038102Y026516D01*
X038126Y026547D01*
X038153Y026576D01*
X038182Y026602D01*
X038214Y026625D01*
X038248Y026645D01*
X038284Y026661D01*
X038321Y026673D01*
X038360Y026682D01*
X038399Y026687D01*
X038438Y026688D01*
X038477Y026685D01*
X038516Y026678D01*
X038553Y026667D01*
X038590Y026653D01*
X038625Y026635D01*
X038658Y026614D01*
X038689Y026589D01*
X038717Y026562D01*
X038742Y026532D01*
X038764Y026499D01*
X038783Y026465D01*
X038798Y026429D01*
X038810Y026391D01*
X038818Y026353D01*
X038822Y026314D01*
X038822Y026274D01*
X038818Y026235D01*
X038810Y026197D01*
X038798Y026159D01*
X038783Y026123D01*
X038764Y026089D01*
X038742Y026056D01*
X038717Y026026D01*
X038689Y025999D01*
X038658Y025974D01*
X038625Y025953D01*
X038590Y025935D01*
X038553Y025921D01*
X038516Y025910D01*
X038477Y025903D01*
X038438Y025900D01*
X038399Y025901D01*
X038360Y025906D01*
X038321Y025915D01*
X038284Y025927D01*
X038248Y025943D01*
X038214Y025963D01*
X038182Y025986D01*
X038153Y026012D01*
X038126Y026041D01*
X038102Y026072D01*
X038082Y026106D01*
X038065Y026141D01*
X038052Y026178D01*
X038042Y026216D01*
X038036Y026255D01*
X038034Y026294D01*
X038428Y027081D02*
X038482Y027079D01*
X038535Y027074D01*
X038588Y027065D01*
X038640Y027052D01*
X038692Y027036D01*
X038742Y027016D01*
X038790Y026993D01*
X038837Y026966D01*
X038882Y026937D01*
X038925Y026904D01*
X038965Y026869D01*
X039003Y026831D01*
X039038Y026791D01*
X039071Y026748D01*
X039100Y026703D01*
X039127Y026656D01*
X039150Y026608D01*
X039170Y026558D01*
X039186Y026506D01*
X039199Y026454D01*
X039208Y026401D01*
X039213Y026348D01*
X039215Y026294D01*
X039215Y016057D01*
X038034Y016057D02*
X038036Y016096D01*
X038042Y016135D01*
X038052Y016173D01*
X038065Y016210D01*
X038082Y016245D01*
X038102Y016279D01*
X038126Y016310D01*
X038153Y016339D01*
X038182Y016365D01*
X038214Y016388D01*
X038248Y016408D01*
X038284Y016424D01*
X038321Y016436D01*
X038360Y016445D01*
X038399Y016450D01*
X038438Y016451D01*
X038477Y016448D01*
X038516Y016441D01*
X038553Y016430D01*
X038590Y016416D01*
X038625Y016398D01*
X038658Y016377D01*
X038689Y016352D01*
X038717Y016325D01*
X038742Y016295D01*
X038764Y016262D01*
X038783Y016228D01*
X038798Y016192D01*
X038810Y016154D01*
X038818Y016116D01*
X038822Y016077D01*
X038822Y016037D01*
X038818Y015998D01*
X038810Y015960D01*
X038798Y015922D01*
X038783Y015886D01*
X038764Y015852D01*
X038742Y015819D01*
X038717Y015789D01*
X038689Y015762D01*
X038658Y015737D01*
X038625Y015716D01*
X038590Y015698D01*
X038553Y015684D01*
X038516Y015673D01*
X038477Y015666D01*
X038438Y015663D01*
X038399Y015664D01*
X038360Y015669D01*
X038321Y015678D01*
X038284Y015690D01*
X038248Y015706D01*
X038214Y015726D01*
X038182Y015749D01*
X038153Y015775D01*
X038126Y015804D01*
X038102Y015835D01*
X038082Y015869D01*
X038065Y015904D01*
X038052Y015941D01*
X038042Y015979D01*
X038036Y016018D01*
X038034Y016057D01*
X038428Y015270D02*
X038482Y015272D01*
X038535Y015277D01*
X038588Y015286D01*
X038640Y015299D01*
X038692Y015315D01*
X038742Y015335D01*
X038790Y015358D01*
X038837Y015385D01*
X038882Y015414D01*
X038925Y015447D01*
X038965Y015482D01*
X039003Y015520D01*
X039038Y015560D01*
X039071Y015603D01*
X039100Y015648D01*
X039127Y015695D01*
X039150Y015743D01*
X039170Y015793D01*
X039186Y015845D01*
X039199Y015897D01*
X039208Y015950D01*
X039213Y016003D01*
X039215Y016057D01*
X038428Y015270D02*
X020317Y015270D01*
X019530Y015270D01*
X019530Y016057D02*
X019530Y026294D01*
X019923Y026294D02*
X019925Y026333D01*
X019931Y026372D01*
X019941Y026410D01*
X019954Y026447D01*
X019971Y026482D01*
X019991Y026516D01*
X020015Y026547D01*
X020042Y026576D01*
X020071Y026602D01*
X020103Y026625D01*
X020137Y026645D01*
X020173Y026661D01*
X020210Y026673D01*
X020249Y026682D01*
X020288Y026687D01*
X020327Y026688D01*
X020366Y026685D01*
X020405Y026678D01*
X020442Y026667D01*
X020479Y026653D01*
X020514Y026635D01*
X020547Y026614D01*
X020578Y026589D01*
X020606Y026562D01*
X020631Y026532D01*
X020653Y026499D01*
X020672Y026465D01*
X020687Y026429D01*
X020699Y026391D01*
X020707Y026353D01*
X020711Y026314D01*
X020711Y026274D01*
X020707Y026235D01*
X020699Y026197D01*
X020687Y026159D01*
X020672Y026123D01*
X020653Y026089D01*
X020631Y026056D01*
X020606Y026026D01*
X020578Y025999D01*
X020547Y025974D01*
X020514Y025953D01*
X020479Y025935D01*
X020442Y025921D01*
X020405Y025910D01*
X020366Y025903D01*
X020327Y025900D01*
X020288Y025901D01*
X020249Y025906D01*
X020210Y025915D01*
X020173Y025927D01*
X020137Y025943D01*
X020103Y025963D01*
X020071Y025986D01*
X020042Y026012D01*
X020015Y026041D01*
X019991Y026072D01*
X019971Y026106D01*
X019954Y026141D01*
X019941Y026178D01*
X019931Y026216D01*
X019925Y026255D01*
X019923Y026294D01*
X019530Y026294D02*
X019532Y026348D01*
X019537Y026401D01*
X019546Y026454D01*
X019559Y026506D01*
X019575Y026558D01*
X019595Y026608D01*
X019618Y026656D01*
X019645Y026703D01*
X019674Y026748D01*
X019707Y026791D01*
X019742Y026831D01*
X019780Y026869D01*
X019820Y026904D01*
X019863Y026937D01*
X019908Y026966D01*
X019955Y026993D01*
X020003Y027016D01*
X020053Y027036D01*
X020105Y027052D01*
X020157Y027065D01*
X020210Y027074D01*
X020263Y027079D01*
X020317Y027081D01*
X038428Y027081D01*
X019923Y016057D02*
X019925Y016096D01*
X019931Y016135D01*
X019941Y016173D01*
X019954Y016210D01*
X019971Y016245D01*
X019991Y016279D01*
X020015Y016310D01*
X020042Y016339D01*
X020071Y016365D01*
X020103Y016388D01*
X020137Y016408D01*
X020173Y016424D01*
X020210Y016436D01*
X020249Y016445D01*
X020288Y016450D01*
X020327Y016451D01*
X020366Y016448D01*
X020405Y016441D01*
X020442Y016430D01*
X020479Y016416D01*
X020514Y016398D01*
X020547Y016377D01*
X020578Y016352D01*
X020606Y016325D01*
X020631Y016295D01*
X020653Y016262D01*
X020672Y016228D01*
X020687Y016192D01*
X020699Y016154D01*
X020707Y016116D01*
X020711Y016077D01*
X020711Y016037D01*
X020707Y015998D01*
X020699Y015960D01*
X020687Y015922D01*
X020672Y015886D01*
X020653Y015852D01*
X020631Y015819D01*
X020606Y015789D01*
X020578Y015762D01*
X020547Y015737D01*
X020514Y015716D01*
X020479Y015698D01*
X020442Y015684D01*
X020405Y015673D01*
X020366Y015666D01*
X020327Y015663D01*
X020288Y015664D01*
X020249Y015669D01*
X020210Y015678D01*
X020173Y015690D01*
X020137Y015706D01*
X020103Y015726D01*
X020071Y015749D01*
X020042Y015775D01*
X020015Y015804D01*
X019991Y015835D01*
X019971Y015869D01*
X019954Y015904D01*
X019941Y015941D01*
X019931Y015979D01*
X019925Y016018D01*
X019923Y016057D01*
X019530Y016057D02*
X019532Y016003D01*
X019537Y015950D01*
X019546Y015897D01*
X019559Y015845D01*
X019575Y015793D01*
X019595Y015743D01*
X019618Y015695D01*
X019645Y015648D01*
X019674Y015603D01*
X019707Y015560D01*
X019742Y015520D01*
X019780Y015482D01*
X019820Y015447D01*
X019863Y015414D01*
X019908Y015385D01*
X019955Y015358D01*
X020003Y015335D01*
X020053Y015315D01*
X020105Y015299D01*
X020157Y015286D01*
X020210Y015277D01*
X020263Y015272D01*
X020317Y015270D01*
D15*
X026530Y017360D03*
X028600Y017310D03*
X028670Y020550D03*
X026590Y020540D03*
X023060Y022160D03*
X026560Y023280D03*
X028750Y023270D03*
X031890Y022730D03*
X033790Y022630D03*
X035240Y022600D03*
D16*
X036906Y021971D02*
X036884Y021905D01*
X036874Y021837D01*
X036874Y021803D01*
X037311Y021803D01*
X037311Y022240D01*
X037277Y022240D01*
X037209Y022229D01*
X037143Y022208D01*
X037082Y022177D01*
X037026Y022136D01*
X036977Y022088D01*
X036937Y022032D01*
X036906Y021971D01*
X036885Y021906D02*
X020035Y021906D01*
X020035Y021748D02*
X036877Y021748D01*
X036874Y021768D02*
X036884Y021700D01*
X036906Y021635D01*
X036937Y021573D01*
X036977Y021518D01*
X037026Y021469D01*
X037082Y021429D01*
X037143Y021397D01*
X037209Y021376D01*
X037277Y021365D01*
X037311Y021365D01*
X037311Y021803D01*
X037311Y021803D01*
X037311Y022240D01*
X037345Y022240D01*
X037413Y022229D01*
X037479Y022208D01*
X037540Y022177D01*
X037596Y022136D01*
X037645Y022088D01*
X037685Y022032D01*
X037716Y021971D01*
X037738Y021905D01*
X037749Y021837D01*
X037749Y021803D01*
X037311Y021803D01*
X037311Y021803D01*
X037311Y021803D01*
X036874Y021803D01*
X036874Y021768D01*
X036929Y021589D02*
X020035Y021589D01*
X020035Y021431D02*
X037079Y021431D01*
X037144Y021272D02*
X020035Y021272D01*
X020035Y021114D02*
X036918Y021114D01*
X036889Y021085D02*
X037029Y021224D01*
X037212Y021300D01*
X037410Y021300D01*
X037593Y021224D01*
X037733Y021085D01*
X037809Y020902D01*
X037809Y020704D01*
X037733Y020521D01*
X037593Y020381D01*
X037410Y020305D01*
X037212Y020305D01*
X037029Y020381D01*
X036889Y020521D01*
X036814Y020704D01*
X036814Y020902D01*
X036889Y021085D01*
X036836Y020955D02*
X020035Y020955D01*
X020035Y020797D02*
X036814Y020797D01*
X036841Y020638D02*
X020035Y020638D01*
X020035Y020480D02*
X036931Y020480D01*
X037006Y020300D02*
X036918Y020264D01*
X036850Y020196D01*
X036814Y020108D01*
X036814Y019498D01*
X036850Y019409D01*
X036918Y019342D01*
X037006Y019305D01*
X037616Y019305D01*
X037704Y019342D01*
X037772Y019409D01*
X037809Y019498D01*
X037809Y020108D01*
X037772Y020196D01*
X037704Y020264D01*
X037616Y020300D01*
X037006Y020300D01*
X037174Y020321D02*
X020035Y020321D01*
X020035Y020163D02*
X036836Y020163D01*
X036814Y020004D02*
X020035Y020004D01*
X020035Y019846D02*
X036814Y019846D01*
X036814Y019687D02*
X020035Y019687D01*
X020035Y019529D02*
X036814Y019529D01*
X036889Y019370D02*
X020035Y019370D01*
X020035Y019212D02*
X038710Y019212D01*
X038710Y019370D02*
X037733Y019370D01*
X037809Y019529D02*
X038710Y019529D01*
X038710Y019687D02*
X037809Y019687D01*
X037809Y019846D02*
X038710Y019846D01*
X038710Y020004D02*
X037809Y020004D01*
X037786Y020163D02*
X038710Y020163D01*
X038710Y020321D02*
X037448Y020321D01*
X037691Y020480D02*
X038710Y020480D01*
X038710Y020638D02*
X037781Y020638D01*
X037809Y020797D02*
X038710Y020797D01*
X038710Y020955D02*
X037786Y020955D01*
X037704Y021114D02*
X038710Y021114D01*
X038710Y021272D02*
X037478Y021272D01*
X037413Y021376D02*
X037479Y021397D01*
X037540Y021429D01*
X037596Y021469D01*
X037645Y021518D01*
X037685Y021573D01*
X037716Y021635D01*
X037738Y021700D01*
X037749Y021768D01*
X037749Y021803D01*
X037311Y021803D01*
X037311Y021803D01*
X037311Y021365D01*
X037345Y021365D01*
X037413Y021376D01*
X037311Y021431D02*
X037311Y021431D01*
X037311Y021589D02*
X037311Y021589D01*
X037311Y021748D02*
X037311Y021748D01*
X037311Y021906D02*
X037311Y021906D01*
X037311Y022065D02*
X037311Y022065D01*
X037311Y022223D02*
X037311Y022223D01*
X037189Y022223D02*
X020035Y022223D01*
X020035Y022065D02*
X036960Y022065D01*
X037433Y022223D02*
X038710Y022223D01*
X038710Y022065D02*
X037662Y022065D01*
X037737Y021906D02*
X038710Y021906D01*
X038710Y021748D02*
X037745Y021748D01*
X037693Y021589D02*
X038710Y021589D01*
X038710Y021431D02*
X037543Y021431D01*
X038710Y022382D02*
X020035Y022382D01*
X020035Y022540D02*
X038710Y022540D01*
X038710Y022699D02*
X020035Y022699D01*
X020035Y022857D02*
X038710Y022857D01*
X038710Y023016D02*
X020035Y023016D01*
X020035Y023174D02*
X038710Y023174D01*
X038710Y023333D02*
X020035Y023333D01*
X020035Y023491D02*
X038710Y023491D01*
X038710Y023650D02*
X020035Y023650D01*
X020035Y023808D02*
X038710Y023808D01*
X038710Y023967D02*
X020035Y023967D01*
X020035Y024125D02*
X038710Y024125D01*
X038710Y024284D02*
X020035Y024284D01*
X020035Y024442D02*
X038710Y024442D01*
X038710Y024601D02*
X020035Y024601D01*
X020035Y024759D02*
X022840Y024759D01*
X022847Y024754D02*
X022909Y024722D01*
X022974Y024701D01*
X023042Y024690D01*
X023077Y024690D01*
X023111Y024690D01*
X023179Y024701D01*
X023244Y024722D01*
X023306Y024754D01*
X023362Y024794D01*
X023410Y024843D01*
X023451Y024899D01*
X023482Y024960D01*
X023503Y025025D01*
X023514Y025093D01*
X023514Y025128D01*
X023514Y025162D01*
X023503Y025230D01*
X023482Y025296D01*
X023451Y025357D01*
X023410Y025413D01*
X023362Y025462D01*
X023306Y025502D01*
X023244Y025533D01*
X023179Y025555D01*
X023111Y025565D01*
X023077Y025565D01*
X023077Y025128D01*
X023514Y025128D01*
X023077Y025128D01*
X023077Y025128D01*
X023077Y025128D01*
X023077Y024690D01*
X023077Y025128D01*
X023077Y025128D01*
X023077Y025565D01*
X023042Y025565D01*
X022974Y025555D01*
X022909Y025533D01*
X022847Y025502D01*
X022792Y025462D01*
X022743Y025413D01*
X022702Y025357D01*
X022671Y025296D01*
X022650Y025230D01*
X022639Y025162D01*
X022639Y025128D01*
X023077Y025128D01*
X023077Y025128D01*
X022639Y025128D01*
X022639Y025093D01*
X022650Y025025D01*
X022671Y024960D01*
X022702Y024899D01*
X022743Y024843D01*
X022792Y024794D01*
X022847Y024754D01*
X022693Y024918D02*
X020035Y024918D01*
X020035Y025076D02*
X022642Y025076D01*
X022651Y025235D02*
X020035Y025235D01*
X020035Y025393D02*
X022728Y025393D01*
X022965Y025552D02*
X020793Y025552D01*
X020661Y025463D02*
X020953Y025658D01*
X021148Y025950D01*
X021216Y026294D01*
X021160Y026576D01*
X037585Y026576D01*
X037529Y026294D01*
X037597Y025950D01*
X037792Y025658D01*
X038084Y025463D01*
X038428Y025395D01*
X038710Y025451D01*
X038710Y016900D01*
X038428Y016956D01*
X038084Y016888D01*
X037792Y016693D01*
X037597Y016401D01*
X037529Y016057D01*
X037585Y015775D01*
X021160Y015775D01*
X021216Y016057D01*
X021148Y016401D01*
X020953Y016693D01*
X020661Y016888D01*
X020317Y016956D01*
X020035Y016900D01*
X020035Y025451D01*
X020317Y025395D01*
X020661Y025463D01*
X020988Y025710D02*
X029879Y025710D01*
X029878Y025712D02*
X029892Y025627D01*
X029919Y025544D01*
X029958Y025467D01*
X030009Y025397D01*
X030070Y025336D01*
X030140Y025285D01*
X030217Y025246D01*
X030300Y025219D01*
X030385Y025206D01*
X030408Y025206D01*
X030408Y025736D01*
X029878Y025736D01*
X029878Y025712D01*
X029878Y025776D02*
X030408Y025776D01*
X030408Y026306D01*
X030385Y026306D01*
X030300Y026292D01*
X030217Y026265D01*
X030140Y026226D01*
X030070Y026175D01*
X030009Y026114D01*
X029958Y026044D01*
X029919Y025967D01*
X029892Y025884D01*
X029878Y025799D01*
X029878Y025776D01*
X029889Y025869D02*
X021093Y025869D01*
X021163Y026027D02*
X029949Y026027D01*
X030085Y026186D02*
X021195Y026186D01*
X021206Y026344D02*
X031325Y026344D01*
X031377Y026366D02*
X031153Y026273D01*
X030981Y026101D01*
X030931Y025980D01*
X030899Y026044D01*
X030848Y026114D01*
X030787Y026175D01*
X030717Y026226D01*
X030640Y026265D01*
X030557Y026292D01*
X030472Y026306D01*
X030448Y026306D01*
X030448Y025776D01*
X030408Y025776D01*
X030408Y025736D01*
X030448Y025736D01*
X030448Y025206D01*
X030472Y025206D01*
X030557Y025219D01*
X030640Y025246D01*
X030717Y025285D01*
X030787Y025336D01*
X030848Y025397D01*
X030899Y025467D01*
X030931Y025531D01*
X030981Y025410D01*
X031153Y025238D01*
X031377Y025146D01*
X031620Y025146D01*
X031844Y025238D01*
X032016Y025410D01*
X032033Y025453D01*
X032051Y025410D01*
X032223Y025238D01*
X032447Y025146D01*
X032690Y025146D01*
X032914Y025238D01*
X033086Y025410D01*
X033178Y025634D01*
X033178Y025877D01*
X033086Y026101D01*
X032914Y026273D01*
X032690Y026366D01*
X032447Y026366D01*
X032223Y026273D01*
X032051Y026101D01*
X032033Y026058D01*
X032016Y026101D01*
X031844Y026273D01*
X031620Y026366D01*
X031377Y026366D01*
X031672Y026344D02*
X032395Y026344D01*
X032136Y026186D02*
X031931Y026186D01*
X032742Y026344D02*
X037539Y026344D01*
X037550Y026186D02*
X033001Y026186D01*
X033116Y026027D02*
X037582Y026027D01*
X037652Y025869D02*
X033178Y025869D01*
X033178Y025710D02*
X037757Y025710D01*
X037952Y025552D02*
X033144Y025552D01*
X033069Y025393D02*
X038710Y025393D01*
X038710Y025235D02*
X032905Y025235D01*
X032232Y025235D02*
X031835Y025235D01*
X031999Y025393D02*
X032068Y025393D01*
X031162Y025235D02*
X030605Y025235D01*
X030448Y025235D02*
X030408Y025235D01*
X030252Y025235D02*
X025574Y025235D01*
X025574Y025393D02*
X030013Y025393D01*
X029916Y025552D02*
X025507Y025552D01*
X025537Y025521D02*
X025470Y025589D01*
X025382Y025625D01*
X024771Y025625D01*
X024683Y025589D01*
X024616Y025521D01*
X024579Y025433D01*
X024579Y024823D01*
X024616Y024734D01*
X024683Y024667D01*
X024771Y024630D01*
X025382Y024630D01*
X025470Y024667D01*
X025537Y024734D01*
X025574Y024823D01*
X025574Y025433D01*
X025537Y025521D01*
X025574Y025076D02*
X038710Y025076D01*
X038710Y024918D02*
X025574Y024918D01*
X025548Y024759D02*
X038710Y024759D01*
X037570Y026503D02*
X021175Y026503D01*
X023077Y025552D02*
X023077Y025552D01*
X023188Y025552D02*
X023799Y025552D01*
X023795Y025550D02*
X023655Y025410D01*
X023579Y025227D01*
X023579Y025029D01*
X023655Y024846D01*
X023795Y024706D01*
X023978Y024630D01*
X024175Y024630D01*
X024358Y024706D01*
X024498Y024846D01*
X024574Y025029D01*
X024574Y025227D01*
X024498Y025410D01*
X024358Y025550D01*
X024175Y025625D01*
X023978Y025625D01*
X023795Y025550D01*
X023648Y025393D02*
X023425Y025393D01*
X023502Y025235D02*
X023582Y025235D01*
X023579Y025076D02*
X023511Y025076D01*
X023460Y024918D02*
X023625Y024918D01*
X023742Y024759D02*
X023313Y024759D01*
X023077Y024759D02*
X023077Y024759D01*
X023077Y024918D02*
X023077Y024918D01*
X023077Y025076D02*
X023077Y025076D01*
X023077Y025235D02*
X023077Y025235D01*
X023077Y025393D02*
X023077Y025393D01*
X024354Y025552D02*
X024646Y025552D01*
X024579Y025393D02*
X024505Y025393D01*
X024571Y025235D02*
X024579Y025235D01*
X024574Y025076D02*
X024579Y025076D01*
X024579Y024918D02*
X024528Y024918D01*
X024605Y024759D02*
X024411Y024759D01*
X030408Y025393D02*
X030448Y025393D01*
X030448Y025552D02*
X030408Y025552D01*
X030408Y025710D02*
X030448Y025710D01*
X030448Y025869D02*
X030408Y025869D01*
X030408Y026027D02*
X030448Y026027D01*
X030448Y026186D02*
X030408Y026186D01*
X030772Y026186D02*
X031066Y026186D01*
X030951Y026027D02*
X030907Y026027D01*
X030844Y025393D02*
X030998Y025393D01*
X038710Y019053D02*
X020035Y019053D01*
X020035Y018895D02*
X038710Y018895D01*
X038710Y018736D02*
X020035Y018736D01*
X020035Y018578D02*
X038710Y018578D01*
X038710Y018419D02*
X020035Y018419D01*
X020035Y018261D02*
X038710Y018261D01*
X038710Y018102D02*
X020035Y018102D01*
X020035Y017944D02*
X038710Y017944D01*
X038710Y017785D02*
X025205Y017785D01*
X025217Y017783D02*
X025149Y017794D01*
X025115Y017794D01*
X025115Y017356D01*
X025115Y016919D01*
X025149Y016919D01*
X025217Y016930D01*
X025283Y016951D01*
X025344Y016982D01*
X025400Y017023D01*
X025448Y017071D01*
X025489Y017127D01*
X025520Y017188D01*
X025541Y017254D01*
X025552Y017322D01*
X025552Y017356D01*
X025115Y017356D01*
X025115Y017356D01*
X025115Y017356D01*
X025115Y016919D01*
X025080Y016919D01*
X025012Y016930D01*
X024947Y016951D01*
X024885Y016982D01*
X024830Y017023D01*
X024781Y017071D01*
X024741Y017127D01*
X024709Y017188D01*
X024688Y017254D01*
X024677Y017322D01*
X024677Y017356D01*
X025115Y017356D01*
X025552Y017356D01*
X025552Y017391D01*
X025541Y017459D01*
X025520Y017524D01*
X025489Y017586D01*
X025448Y017641D01*
X025400Y017690D01*
X025344Y017731D01*
X025283Y017762D01*
X025217Y017783D01*
X025115Y017785D02*
X025115Y017785D01*
X025115Y017794D02*
X025080Y017794D01*
X025012Y017783D01*
X024947Y017762D01*
X024885Y017731D01*
X024830Y017690D01*
X024781Y017641D01*
X024741Y017586D01*
X024709Y017524D01*
X024688Y017459D01*
X024677Y017391D01*
X024677Y017356D01*
X025115Y017356D01*
X025115Y017356D01*
X025115Y017356D01*
X025115Y017794D01*
X025025Y017785D02*
X024380Y017785D01*
X024397Y017778D02*
X024214Y017854D01*
X024016Y017854D01*
X023833Y017778D01*
X023693Y017638D01*
X023617Y017455D01*
X023617Y017257D01*
X023693Y017075D01*
X023833Y016935D01*
X024016Y016859D01*
X024214Y016859D01*
X024397Y016935D01*
X024536Y017075D01*
X024612Y017257D01*
X024612Y017455D01*
X024536Y017638D01*
X024397Y017778D01*
X024541Y017627D02*
X024770Y017627D01*
X024691Y017468D02*
X024607Y017468D01*
X024612Y017310D02*
X024679Y017310D01*
X024728Y017151D02*
X024568Y017151D01*
X024454Y016993D02*
X024871Y016993D01*
X025115Y016993D02*
X025115Y016993D01*
X025115Y017151D02*
X025115Y017151D01*
X025115Y017310D02*
X025115Y017310D01*
X025115Y017468D02*
X025115Y017468D01*
X025115Y017627D02*
X025115Y017627D01*
X025459Y017627D02*
X038710Y017627D01*
X038710Y017468D02*
X025538Y017468D01*
X025550Y017310D02*
X038710Y017310D01*
X038710Y017151D02*
X025501Y017151D01*
X025358Y016993D02*
X038710Y016993D01*
X038003Y016834D02*
X020742Y016834D01*
X020964Y016676D02*
X037781Y016676D01*
X037675Y016517D02*
X021070Y016517D01*
X021156Y016359D02*
X037589Y016359D01*
X037557Y016200D02*
X021188Y016200D01*
X021213Y016042D02*
X037532Y016042D01*
X037564Y015883D02*
X021181Y015883D01*
X020035Y016993D02*
X022642Y016993D01*
X022654Y016963D02*
X022721Y016895D01*
X022810Y016859D01*
X023420Y016859D01*
X023508Y016895D01*
X023576Y016963D01*
X023612Y017051D01*
X023612Y017662D01*
X023576Y017750D01*
X023508Y017817D01*
X023420Y017854D01*
X022810Y017854D01*
X022721Y017817D01*
X022654Y017750D01*
X022617Y017662D01*
X022617Y017051D01*
X022654Y016963D01*
X022617Y017151D02*
X020035Y017151D01*
X020035Y017310D02*
X022617Y017310D01*
X022617Y017468D02*
X020035Y017468D01*
X020035Y017627D02*
X022617Y017627D01*
X022689Y017785D02*
X020035Y017785D01*
X023540Y017785D02*
X023850Y017785D01*
X023688Y017627D02*
X023612Y017627D01*
X023612Y017468D02*
X023623Y017468D01*
X023612Y017310D02*
X023617Y017310D01*
X023612Y017151D02*
X023661Y017151D01*
X023588Y016993D02*
X023775Y016993D01*
M02*
