G75*
%MOIN*%
%OFA0B0*%
%FSLAX25Y25*%
%IPPOS*%
%LPD*%
%AMOC8*
5,1,8,0,0,1.08239X$1,22.5*
%
%ADD10C,0.00000*%
%ADD11C,0.13398*%
%ADD12R,0.04737X0.05131*%
%ADD13R,0.05950X0.05950*%
%ADD14C,0.05950*%
%ADD15R,0.03162X0.07099*%
%ADD16R,0.03950X0.03950*%
%ADD17C,0.00500*%
%ADD18C,0.04800*%
D10*
X0003000Y0003500D02*
X0003000Y0397201D01*
X0632921Y0397201D01*
X0632921Y0003500D01*
X0003000Y0003500D01*
X0197601Y0175000D02*
X0197603Y0175158D01*
X0197609Y0175316D01*
X0197619Y0175474D01*
X0197633Y0175632D01*
X0197651Y0175789D01*
X0197672Y0175946D01*
X0197698Y0176102D01*
X0197728Y0176258D01*
X0197761Y0176413D01*
X0197799Y0176566D01*
X0197840Y0176719D01*
X0197885Y0176871D01*
X0197934Y0177022D01*
X0197987Y0177171D01*
X0198043Y0177319D01*
X0198103Y0177465D01*
X0198167Y0177610D01*
X0198235Y0177753D01*
X0198306Y0177895D01*
X0198380Y0178035D01*
X0198458Y0178172D01*
X0198540Y0178308D01*
X0198624Y0178442D01*
X0198713Y0178573D01*
X0198804Y0178702D01*
X0198899Y0178829D01*
X0198996Y0178954D01*
X0199097Y0179076D01*
X0199201Y0179195D01*
X0199308Y0179312D01*
X0199418Y0179426D01*
X0199531Y0179537D01*
X0199646Y0179646D01*
X0199764Y0179751D01*
X0199885Y0179853D01*
X0200008Y0179953D01*
X0200134Y0180049D01*
X0200262Y0180142D01*
X0200392Y0180232D01*
X0200525Y0180318D01*
X0200660Y0180402D01*
X0200796Y0180481D01*
X0200935Y0180558D01*
X0201076Y0180630D01*
X0201218Y0180700D01*
X0201362Y0180765D01*
X0201508Y0180827D01*
X0201655Y0180885D01*
X0201804Y0180940D01*
X0201954Y0180991D01*
X0202105Y0181038D01*
X0202257Y0181081D01*
X0202410Y0181120D01*
X0202565Y0181156D01*
X0202720Y0181187D01*
X0202876Y0181215D01*
X0203032Y0181239D01*
X0203189Y0181259D01*
X0203347Y0181275D01*
X0203504Y0181287D01*
X0203663Y0181295D01*
X0203821Y0181299D01*
X0203979Y0181299D01*
X0204137Y0181295D01*
X0204296Y0181287D01*
X0204453Y0181275D01*
X0204611Y0181259D01*
X0204768Y0181239D01*
X0204924Y0181215D01*
X0205080Y0181187D01*
X0205235Y0181156D01*
X0205390Y0181120D01*
X0205543Y0181081D01*
X0205695Y0181038D01*
X0205846Y0180991D01*
X0205996Y0180940D01*
X0206145Y0180885D01*
X0206292Y0180827D01*
X0206438Y0180765D01*
X0206582Y0180700D01*
X0206724Y0180630D01*
X0206865Y0180558D01*
X0207004Y0180481D01*
X0207140Y0180402D01*
X0207275Y0180318D01*
X0207408Y0180232D01*
X0207538Y0180142D01*
X0207666Y0180049D01*
X0207792Y0179953D01*
X0207915Y0179853D01*
X0208036Y0179751D01*
X0208154Y0179646D01*
X0208269Y0179537D01*
X0208382Y0179426D01*
X0208492Y0179312D01*
X0208599Y0179195D01*
X0208703Y0179076D01*
X0208804Y0178954D01*
X0208901Y0178829D01*
X0208996Y0178702D01*
X0209087Y0178573D01*
X0209176Y0178442D01*
X0209260Y0178308D01*
X0209342Y0178172D01*
X0209420Y0178035D01*
X0209494Y0177895D01*
X0209565Y0177753D01*
X0209633Y0177610D01*
X0209697Y0177465D01*
X0209757Y0177319D01*
X0209813Y0177171D01*
X0209866Y0177022D01*
X0209915Y0176871D01*
X0209960Y0176719D01*
X0210001Y0176566D01*
X0210039Y0176413D01*
X0210072Y0176258D01*
X0210102Y0176102D01*
X0210128Y0175946D01*
X0210149Y0175789D01*
X0210167Y0175632D01*
X0210181Y0175474D01*
X0210191Y0175316D01*
X0210197Y0175158D01*
X0210199Y0175000D01*
X0210197Y0174842D01*
X0210191Y0174684D01*
X0210181Y0174526D01*
X0210167Y0174368D01*
X0210149Y0174211D01*
X0210128Y0174054D01*
X0210102Y0173898D01*
X0210072Y0173742D01*
X0210039Y0173587D01*
X0210001Y0173434D01*
X0209960Y0173281D01*
X0209915Y0173129D01*
X0209866Y0172978D01*
X0209813Y0172829D01*
X0209757Y0172681D01*
X0209697Y0172535D01*
X0209633Y0172390D01*
X0209565Y0172247D01*
X0209494Y0172105D01*
X0209420Y0171965D01*
X0209342Y0171828D01*
X0209260Y0171692D01*
X0209176Y0171558D01*
X0209087Y0171427D01*
X0208996Y0171298D01*
X0208901Y0171171D01*
X0208804Y0171046D01*
X0208703Y0170924D01*
X0208599Y0170805D01*
X0208492Y0170688D01*
X0208382Y0170574D01*
X0208269Y0170463D01*
X0208154Y0170354D01*
X0208036Y0170249D01*
X0207915Y0170147D01*
X0207792Y0170047D01*
X0207666Y0169951D01*
X0207538Y0169858D01*
X0207408Y0169768D01*
X0207275Y0169682D01*
X0207140Y0169598D01*
X0207004Y0169519D01*
X0206865Y0169442D01*
X0206724Y0169370D01*
X0206582Y0169300D01*
X0206438Y0169235D01*
X0206292Y0169173D01*
X0206145Y0169115D01*
X0205996Y0169060D01*
X0205846Y0169009D01*
X0205695Y0168962D01*
X0205543Y0168919D01*
X0205390Y0168880D01*
X0205235Y0168844D01*
X0205080Y0168813D01*
X0204924Y0168785D01*
X0204768Y0168761D01*
X0204611Y0168741D01*
X0204453Y0168725D01*
X0204296Y0168713D01*
X0204137Y0168705D01*
X0203979Y0168701D01*
X0203821Y0168701D01*
X0203663Y0168705D01*
X0203504Y0168713D01*
X0203347Y0168725D01*
X0203189Y0168741D01*
X0203032Y0168761D01*
X0202876Y0168785D01*
X0202720Y0168813D01*
X0202565Y0168844D01*
X0202410Y0168880D01*
X0202257Y0168919D01*
X0202105Y0168962D01*
X0201954Y0169009D01*
X0201804Y0169060D01*
X0201655Y0169115D01*
X0201508Y0169173D01*
X0201362Y0169235D01*
X0201218Y0169300D01*
X0201076Y0169370D01*
X0200935Y0169442D01*
X0200796Y0169519D01*
X0200660Y0169598D01*
X0200525Y0169682D01*
X0200392Y0169768D01*
X0200262Y0169858D01*
X0200134Y0169951D01*
X0200008Y0170047D01*
X0199885Y0170147D01*
X0199764Y0170249D01*
X0199646Y0170354D01*
X0199531Y0170463D01*
X0199418Y0170574D01*
X0199308Y0170688D01*
X0199201Y0170805D01*
X0199097Y0170924D01*
X0198996Y0171046D01*
X0198899Y0171171D01*
X0198804Y0171298D01*
X0198713Y0171427D01*
X0198624Y0171558D01*
X0198540Y0171692D01*
X0198458Y0171828D01*
X0198380Y0171965D01*
X0198306Y0172105D01*
X0198235Y0172247D01*
X0198167Y0172390D01*
X0198103Y0172535D01*
X0198043Y0172681D01*
X0197987Y0172829D01*
X0197934Y0172978D01*
X0197885Y0173129D01*
X0197840Y0173281D01*
X0197799Y0173434D01*
X0197761Y0173587D01*
X0197728Y0173742D01*
X0197698Y0173898D01*
X0197672Y0174054D01*
X0197651Y0174211D01*
X0197633Y0174368D01*
X0197619Y0174526D01*
X0197609Y0174684D01*
X0197603Y0174842D01*
X0197601Y0175000D01*
X0197401Y0328100D02*
X0197403Y0328258D01*
X0197409Y0328416D01*
X0197419Y0328574D01*
X0197433Y0328732D01*
X0197451Y0328889D01*
X0197472Y0329046D01*
X0197498Y0329202D01*
X0197528Y0329358D01*
X0197561Y0329513D01*
X0197599Y0329666D01*
X0197640Y0329819D01*
X0197685Y0329971D01*
X0197734Y0330122D01*
X0197787Y0330271D01*
X0197843Y0330419D01*
X0197903Y0330565D01*
X0197967Y0330710D01*
X0198035Y0330853D01*
X0198106Y0330995D01*
X0198180Y0331135D01*
X0198258Y0331272D01*
X0198340Y0331408D01*
X0198424Y0331542D01*
X0198513Y0331673D01*
X0198604Y0331802D01*
X0198699Y0331929D01*
X0198796Y0332054D01*
X0198897Y0332176D01*
X0199001Y0332295D01*
X0199108Y0332412D01*
X0199218Y0332526D01*
X0199331Y0332637D01*
X0199446Y0332746D01*
X0199564Y0332851D01*
X0199685Y0332953D01*
X0199808Y0333053D01*
X0199934Y0333149D01*
X0200062Y0333242D01*
X0200192Y0333332D01*
X0200325Y0333418D01*
X0200460Y0333502D01*
X0200596Y0333581D01*
X0200735Y0333658D01*
X0200876Y0333730D01*
X0201018Y0333800D01*
X0201162Y0333865D01*
X0201308Y0333927D01*
X0201455Y0333985D01*
X0201604Y0334040D01*
X0201754Y0334091D01*
X0201905Y0334138D01*
X0202057Y0334181D01*
X0202210Y0334220D01*
X0202365Y0334256D01*
X0202520Y0334287D01*
X0202676Y0334315D01*
X0202832Y0334339D01*
X0202989Y0334359D01*
X0203147Y0334375D01*
X0203304Y0334387D01*
X0203463Y0334395D01*
X0203621Y0334399D01*
X0203779Y0334399D01*
X0203937Y0334395D01*
X0204096Y0334387D01*
X0204253Y0334375D01*
X0204411Y0334359D01*
X0204568Y0334339D01*
X0204724Y0334315D01*
X0204880Y0334287D01*
X0205035Y0334256D01*
X0205190Y0334220D01*
X0205343Y0334181D01*
X0205495Y0334138D01*
X0205646Y0334091D01*
X0205796Y0334040D01*
X0205945Y0333985D01*
X0206092Y0333927D01*
X0206238Y0333865D01*
X0206382Y0333800D01*
X0206524Y0333730D01*
X0206665Y0333658D01*
X0206804Y0333581D01*
X0206940Y0333502D01*
X0207075Y0333418D01*
X0207208Y0333332D01*
X0207338Y0333242D01*
X0207466Y0333149D01*
X0207592Y0333053D01*
X0207715Y0332953D01*
X0207836Y0332851D01*
X0207954Y0332746D01*
X0208069Y0332637D01*
X0208182Y0332526D01*
X0208292Y0332412D01*
X0208399Y0332295D01*
X0208503Y0332176D01*
X0208604Y0332054D01*
X0208701Y0331929D01*
X0208796Y0331802D01*
X0208887Y0331673D01*
X0208976Y0331542D01*
X0209060Y0331408D01*
X0209142Y0331272D01*
X0209220Y0331135D01*
X0209294Y0330995D01*
X0209365Y0330853D01*
X0209433Y0330710D01*
X0209497Y0330565D01*
X0209557Y0330419D01*
X0209613Y0330271D01*
X0209666Y0330122D01*
X0209715Y0329971D01*
X0209760Y0329819D01*
X0209801Y0329666D01*
X0209839Y0329513D01*
X0209872Y0329358D01*
X0209902Y0329202D01*
X0209928Y0329046D01*
X0209949Y0328889D01*
X0209967Y0328732D01*
X0209981Y0328574D01*
X0209991Y0328416D01*
X0209997Y0328258D01*
X0209999Y0328100D01*
X0209997Y0327942D01*
X0209991Y0327784D01*
X0209981Y0327626D01*
X0209967Y0327468D01*
X0209949Y0327311D01*
X0209928Y0327154D01*
X0209902Y0326998D01*
X0209872Y0326842D01*
X0209839Y0326687D01*
X0209801Y0326534D01*
X0209760Y0326381D01*
X0209715Y0326229D01*
X0209666Y0326078D01*
X0209613Y0325929D01*
X0209557Y0325781D01*
X0209497Y0325635D01*
X0209433Y0325490D01*
X0209365Y0325347D01*
X0209294Y0325205D01*
X0209220Y0325065D01*
X0209142Y0324928D01*
X0209060Y0324792D01*
X0208976Y0324658D01*
X0208887Y0324527D01*
X0208796Y0324398D01*
X0208701Y0324271D01*
X0208604Y0324146D01*
X0208503Y0324024D01*
X0208399Y0323905D01*
X0208292Y0323788D01*
X0208182Y0323674D01*
X0208069Y0323563D01*
X0207954Y0323454D01*
X0207836Y0323349D01*
X0207715Y0323247D01*
X0207592Y0323147D01*
X0207466Y0323051D01*
X0207338Y0322958D01*
X0207208Y0322868D01*
X0207075Y0322782D01*
X0206940Y0322698D01*
X0206804Y0322619D01*
X0206665Y0322542D01*
X0206524Y0322470D01*
X0206382Y0322400D01*
X0206238Y0322335D01*
X0206092Y0322273D01*
X0205945Y0322215D01*
X0205796Y0322160D01*
X0205646Y0322109D01*
X0205495Y0322062D01*
X0205343Y0322019D01*
X0205190Y0321980D01*
X0205035Y0321944D01*
X0204880Y0321913D01*
X0204724Y0321885D01*
X0204568Y0321861D01*
X0204411Y0321841D01*
X0204253Y0321825D01*
X0204096Y0321813D01*
X0203937Y0321805D01*
X0203779Y0321801D01*
X0203621Y0321801D01*
X0203463Y0321805D01*
X0203304Y0321813D01*
X0203147Y0321825D01*
X0202989Y0321841D01*
X0202832Y0321861D01*
X0202676Y0321885D01*
X0202520Y0321913D01*
X0202365Y0321944D01*
X0202210Y0321980D01*
X0202057Y0322019D01*
X0201905Y0322062D01*
X0201754Y0322109D01*
X0201604Y0322160D01*
X0201455Y0322215D01*
X0201308Y0322273D01*
X0201162Y0322335D01*
X0201018Y0322400D01*
X0200876Y0322470D01*
X0200735Y0322542D01*
X0200596Y0322619D01*
X0200460Y0322698D01*
X0200325Y0322782D01*
X0200192Y0322868D01*
X0200062Y0322958D01*
X0199934Y0323051D01*
X0199808Y0323147D01*
X0199685Y0323247D01*
X0199564Y0323349D01*
X0199446Y0323454D01*
X0199331Y0323563D01*
X0199218Y0323674D01*
X0199108Y0323788D01*
X0199001Y0323905D01*
X0198897Y0324024D01*
X0198796Y0324146D01*
X0198699Y0324271D01*
X0198604Y0324398D01*
X0198513Y0324527D01*
X0198424Y0324658D01*
X0198340Y0324792D01*
X0198258Y0324928D01*
X0198180Y0325065D01*
X0198106Y0325205D01*
X0198035Y0325347D01*
X0197967Y0325490D01*
X0197903Y0325635D01*
X0197843Y0325781D01*
X0197787Y0325929D01*
X0197734Y0326078D01*
X0197685Y0326229D01*
X0197640Y0326381D01*
X0197599Y0326534D01*
X0197561Y0326687D01*
X0197528Y0326842D01*
X0197498Y0326998D01*
X0197472Y0327154D01*
X0197451Y0327311D01*
X0197433Y0327468D01*
X0197419Y0327626D01*
X0197409Y0327784D01*
X0197403Y0327942D01*
X0197401Y0328100D01*
X0484901Y0328500D02*
X0484903Y0328658D01*
X0484909Y0328816D01*
X0484919Y0328974D01*
X0484933Y0329132D01*
X0484951Y0329289D01*
X0484972Y0329446D01*
X0484998Y0329602D01*
X0485028Y0329758D01*
X0485061Y0329913D01*
X0485099Y0330066D01*
X0485140Y0330219D01*
X0485185Y0330371D01*
X0485234Y0330522D01*
X0485287Y0330671D01*
X0485343Y0330819D01*
X0485403Y0330965D01*
X0485467Y0331110D01*
X0485535Y0331253D01*
X0485606Y0331395D01*
X0485680Y0331535D01*
X0485758Y0331672D01*
X0485840Y0331808D01*
X0485924Y0331942D01*
X0486013Y0332073D01*
X0486104Y0332202D01*
X0486199Y0332329D01*
X0486296Y0332454D01*
X0486397Y0332576D01*
X0486501Y0332695D01*
X0486608Y0332812D01*
X0486718Y0332926D01*
X0486831Y0333037D01*
X0486946Y0333146D01*
X0487064Y0333251D01*
X0487185Y0333353D01*
X0487308Y0333453D01*
X0487434Y0333549D01*
X0487562Y0333642D01*
X0487692Y0333732D01*
X0487825Y0333818D01*
X0487960Y0333902D01*
X0488096Y0333981D01*
X0488235Y0334058D01*
X0488376Y0334130D01*
X0488518Y0334200D01*
X0488662Y0334265D01*
X0488808Y0334327D01*
X0488955Y0334385D01*
X0489104Y0334440D01*
X0489254Y0334491D01*
X0489405Y0334538D01*
X0489557Y0334581D01*
X0489710Y0334620D01*
X0489865Y0334656D01*
X0490020Y0334687D01*
X0490176Y0334715D01*
X0490332Y0334739D01*
X0490489Y0334759D01*
X0490647Y0334775D01*
X0490804Y0334787D01*
X0490963Y0334795D01*
X0491121Y0334799D01*
X0491279Y0334799D01*
X0491437Y0334795D01*
X0491596Y0334787D01*
X0491753Y0334775D01*
X0491911Y0334759D01*
X0492068Y0334739D01*
X0492224Y0334715D01*
X0492380Y0334687D01*
X0492535Y0334656D01*
X0492690Y0334620D01*
X0492843Y0334581D01*
X0492995Y0334538D01*
X0493146Y0334491D01*
X0493296Y0334440D01*
X0493445Y0334385D01*
X0493592Y0334327D01*
X0493738Y0334265D01*
X0493882Y0334200D01*
X0494024Y0334130D01*
X0494165Y0334058D01*
X0494304Y0333981D01*
X0494440Y0333902D01*
X0494575Y0333818D01*
X0494708Y0333732D01*
X0494838Y0333642D01*
X0494966Y0333549D01*
X0495092Y0333453D01*
X0495215Y0333353D01*
X0495336Y0333251D01*
X0495454Y0333146D01*
X0495569Y0333037D01*
X0495682Y0332926D01*
X0495792Y0332812D01*
X0495899Y0332695D01*
X0496003Y0332576D01*
X0496104Y0332454D01*
X0496201Y0332329D01*
X0496296Y0332202D01*
X0496387Y0332073D01*
X0496476Y0331942D01*
X0496560Y0331808D01*
X0496642Y0331672D01*
X0496720Y0331535D01*
X0496794Y0331395D01*
X0496865Y0331253D01*
X0496933Y0331110D01*
X0496997Y0330965D01*
X0497057Y0330819D01*
X0497113Y0330671D01*
X0497166Y0330522D01*
X0497215Y0330371D01*
X0497260Y0330219D01*
X0497301Y0330066D01*
X0497339Y0329913D01*
X0497372Y0329758D01*
X0497402Y0329602D01*
X0497428Y0329446D01*
X0497449Y0329289D01*
X0497467Y0329132D01*
X0497481Y0328974D01*
X0497491Y0328816D01*
X0497497Y0328658D01*
X0497499Y0328500D01*
X0497497Y0328342D01*
X0497491Y0328184D01*
X0497481Y0328026D01*
X0497467Y0327868D01*
X0497449Y0327711D01*
X0497428Y0327554D01*
X0497402Y0327398D01*
X0497372Y0327242D01*
X0497339Y0327087D01*
X0497301Y0326934D01*
X0497260Y0326781D01*
X0497215Y0326629D01*
X0497166Y0326478D01*
X0497113Y0326329D01*
X0497057Y0326181D01*
X0496997Y0326035D01*
X0496933Y0325890D01*
X0496865Y0325747D01*
X0496794Y0325605D01*
X0496720Y0325465D01*
X0496642Y0325328D01*
X0496560Y0325192D01*
X0496476Y0325058D01*
X0496387Y0324927D01*
X0496296Y0324798D01*
X0496201Y0324671D01*
X0496104Y0324546D01*
X0496003Y0324424D01*
X0495899Y0324305D01*
X0495792Y0324188D01*
X0495682Y0324074D01*
X0495569Y0323963D01*
X0495454Y0323854D01*
X0495336Y0323749D01*
X0495215Y0323647D01*
X0495092Y0323547D01*
X0494966Y0323451D01*
X0494838Y0323358D01*
X0494708Y0323268D01*
X0494575Y0323182D01*
X0494440Y0323098D01*
X0494304Y0323019D01*
X0494165Y0322942D01*
X0494024Y0322870D01*
X0493882Y0322800D01*
X0493738Y0322735D01*
X0493592Y0322673D01*
X0493445Y0322615D01*
X0493296Y0322560D01*
X0493146Y0322509D01*
X0492995Y0322462D01*
X0492843Y0322419D01*
X0492690Y0322380D01*
X0492535Y0322344D01*
X0492380Y0322313D01*
X0492224Y0322285D01*
X0492068Y0322261D01*
X0491911Y0322241D01*
X0491753Y0322225D01*
X0491596Y0322213D01*
X0491437Y0322205D01*
X0491279Y0322201D01*
X0491121Y0322201D01*
X0490963Y0322205D01*
X0490804Y0322213D01*
X0490647Y0322225D01*
X0490489Y0322241D01*
X0490332Y0322261D01*
X0490176Y0322285D01*
X0490020Y0322313D01*
X0489865Y0322344D01*
X0489710Y0322380D01*
X0489557Y0322419D01*
X0489405Y0322462D01*
X0489254Y0322509D01*
X0489104Y0322560D01*
X0488955Y0322615D01*
X0488808Y0322673D01*
X0488662Y0322735D01*
X0488518Y0322800D01*
X0488376Y0322870D01*
X0488235Y0322942D01*
X0488096Y0323019D01*
X0487960Y0323098D01*
X0487825Y0323182D01*
X0487692Y0323268D01*
X0487562Y0323358D01*
X0487434Y0323451D01*
X0487308Y0323547D01*
X0487185Y0323647D01*
X0487064Y0323749D01*
X0486946Y0323854D01*
X0486831Y0323963D01*
X0486718Y0324074D01*
X0486608Y0324188D01*
X0486501Y0324305D01*
X0486397Y0324424D01*
X0486296Y0324546D01*
X0486199Y0324671D01*
X0486104Y0324798D01*
X0486013Y0324927D01*
X0485924Y0325058D01*
X0485840Y0325192D01*
X0485758Y0325328D01*
X0485680Y0325465D01*
X0485606Y0325605D01*
X0485535Y0325747D01*
X0485467Y0325890D01*
X0485403Y0326035D01*
X0485343Y0326181D01*
X0485287Y0326329D01*
X0485234Y0326478D01*
X0485185Y0326629D01*
X0485140Y0326781D01*
X0485099Y0326934D01*
X0485061Y0327087D01*
X0485028Y0327242D01*
X0484998Y0327398D01*
X0484972Y0327554D01*
X0484951Y0327711D01*
X0484933Y0327868D01*
X0484919Y0328026D01*
X0484909Y0328184D01*
X0484903Y0328342D01*
X0484901Y0328500D01*
X0485501Y0175700D02*
X0485503Y0175858D01*
X0485509Y0176016D01*
X0485519Y0176174D01*
X0485533Y0176332D01*
X0485551Y0176489D01*
X0485572Y0176646D01*
X0485598Y0176802D01*
X0485628Y0176958D01*
X0485661Y0177113D01*
X0485699Y0177266D01*
X0485740Y0177419D01*
X0485785Y0177571D01*
X0485834Y0177722D01*
X0485887Y0177871D01*
X0485943Y0178019D01*
X0486003Y0178165D01*
X0486067Y0178310D01*
X0486135Y0178453D01*
X0486206Y0178595D01*
X0486280Y0178735D01*
X0486358Y0178872D01*
X0486440Y0179008D01*
X0486524Y0179142D01*
X0486613Y0179273D01*
X0486704Y0179402D01*
X0486799Y0179529D01*
X0486896Y0179654D01*
X0486997Y0179776D01*
X0487101Y0179895D01*
X0487208Y0180012D01*
X0487318Y0180126D01*
X0487431Y0180237D01*
X0487546Y0180346D01*
X0487664Y0180451D01*
X0487785Y0180553D01*
X0487908Y0180653D01*
X0488034Y0180749D01*
X0488162Y0180842D01*
X0488292Y0180932D01*
X0488425Y0181018D01*
X0488560Y0181102D01*
X0488696Y0181181D01*
X0488835Y0181258D01*
X0488976Y0181330D01*
X0489118Y0181400D01*
X0489262Y0181465D01*
X0489408Y0181527D01*
X0489555Y0181585D01*
X0489704Y0181640D01*
X0489854Y0181691D01*
X0490005Y0181738D01*
X0490157Y0181781D01*
X0490310Y0181820D01*
X0490465Y0181856D01*
X0490620Y0181887D01*
X0490776Y0181915D01*
X0490932Y0181939D01*
X0491089Y0181959D01*
X0491247Y0181975D01*
X0491404Y0181987D01*
X0491563Y0181995D01*
X0491721Y0181999D01*
X0491879Y0181999D01*
X0492037Y0181995D01*
X0492196Y0181987D01*
X0492353Y0181975D01*
X0492511Y0181959D01*
X0492668Y0181939D01*
X0492824Y0181915D01*
X0492980Y0181887D01*
X0493135Y0181856D01*
X0493290Y0181820D01*
X0493443Y0181781D01*
X0493595Y0181738D01*
X0493746Y0181691D01*
X0493896Y0181640D01*
X0494045Y0181585D01*
X0494192Y0181527D01*
X0494338Y0181465D01*
X0494482Y0181400D01*
X0494624Y0181330D01*
X0494765Y0181258D01*
X0494904Y0181181D01*
X0495040Y0181102D01*
X0495175Y0181018D01*
X0495308Y0180932D01*
X0495438Y0180842D01*
X0495566Y0180749D01*
X0495692Y0180653D01*
X0495815Y0180553D01*
X0495936Y0180451D01*
X0496054Y0180346D01*
X0496169Y0180237D01*
X0496282Y0180126D01*
X0496392Y0180012D01*
X0496499Y0179895D01*
X0496603Y0179776D01*
X0496704Y0179654D01*
X0496801Y0179529D01*
X0496896Y0179402D01*
X0496987Y0179273D01*
X0497076Y0179142D01*
X0497160Y0179008D01*
X0497242Y0178872D01*
X0497320Y0178735D01*
X0497394Y0178595D01*
X0497465Y0178453D01*
X0497533Y0178310D01*
X0497597Y0178165D01*
X0497657Y0178019D01*
X0497713Y0177871D01*
X0497766Y0177722D01*
X0497815Y0177571D01*
X0497860Y0177419D01*
X0497901Y0177266D01*
X0497939Y0177113D01*
X0497972Y0176958D01*
X0498002Y0176802D01*
X0498028Y0176646D01*
X0498049Y0176489D01*
X0498067Y0176332D01*
X0498081Y0176174D01*
X0498091Y0176016D01*
X0498097Y0175858D01*
X0498099Y0175700D01*
X0498097Y0175542D01*
X0498091Y0175384D01*
X0498081Y0175226D01*
X0498067Y0175068D01*
X0498049Y0174911D01*
X0498028Y0174754D01*
X0498002Y0174598D01*
X0497972Y0174442D01*
X0497939Y0174287D01*
X0497901Y0174134D01*
X0497860Y0173981D01*
X0497815Y0173829D01*
X0497766Y0173678D01*
X0497713Y0173529D01*
X0497657Y0173381D01*
X0497597Y0173235D01*
X0497533Y0173090D01*
X0497465Y0172947D01*
X0497394Y0172805D01*
X0497320Y0172665D01*
X0497242Y0172528D01*
X0497160Y0172392D01*
X0497076Y0172258D01*
X0496987Y0172127D01*
X0496896Y0171998D01*
X0496801Y0171871D01*
X0496704Y0171746D01*
X0496603Y0171624D01*
X0496499Y0171505D01*
X0496392Y0171388D01*
X0496282Y0171274D01*
X0496169Y0171163D01*
X0496054Y0171054D01*
X0495936Y0170949D01*
X0495815Y0170847D01*
X0495692Y0170747D01*
X0495566Y0170651D01*
X0495438Y0170558D01*
X0495308Y0170468D01*
X0495175Y0170382D01*
X0495040Y0170298D01*
X0494904Y0170219D01*
X0494765Y0170142D01*
X0494624Y0170070D01*
X0494482Y0170000D01*
X0494338Y0169935D01*
X0494192Y0169873D01*
X0494045Y0169815D01*
X0493896Y0169760D01*
X0493746Y0169709D01*
X0493595Y0169662D01*
X0493443Y0169619D01*
X0493290Y0169580D01*
X0493135Y0169544D01*
X0492980Y0169513D01*
X0492824Y0169485D01*
X0492668Y0169461D01*
X0492511Y0169441D01*
X0492353Y0169425D01*
X0492196Y0169413D01*
X0492037Y0169405D01*
X0491879Y0169401D01*
X0491721Y0169401D01*
X0491563Y0169405D01*
X0491404Y0169413D01*
X0491247Y0169425D01*
X0491089Y0169441D01*
X0490932Y0169461D01*
X0490776Y0169485D01*
X0490620Y0169513D01*
X0490465Y0169544D01*
X0490310Y0169580D01*
X0490157Y0169619D01*
X0490005Y0169662D01*
X0489854Y0169709D01*
X0489704Y0169760D01*
X0489555Y0169815D01*
X0489408Y0169873D01*
X0489262Y0169935D01*
X0489118Y0170000D01*
X0488976Y0170070D01*
X0488835Y0170142D01*
X0488696Y0170219D01*
X0488560Y0170298D01*
X0488425Y0170382D01*
X0488292Y0170468D01*
X0488162Y0170558D01*
X0488034Y0170651D01*
X0487908Y0170747D01*
X0487785Y0170847D01*
X0487664Y0170949D01*
X0487546Y0171054D01*
X0487431Y0171163D01*
X0487318Y0171274D01*
X0487208Y0171388D01*
X0487101Y0171505D01*
X0486997Y0171624D01*
X0486896Y0171746D01*
X0486799Y0171871D01*
X0486704Y0171998D01*
X0486613Y0172127D01*
X0486524Y0172258D01*
X0486440Y0172392D01*
X0486358Y0172528D01*
X0486280Y0172665D01*
X0486206Y0172805D01*
X0486135Y0172947D01*
X0486067Y0173090D01*
X0486003Y0173235D01*
X0485943Y0173381D01*
X0485887Y0173529D01*
X0485834Y0173678D01*
X0485785Y0173829D01*
X0485740Y0173981D01*
X0485699Y0174134D01*
X0485661Y0174287D01*
X0485628Y0174442D01*
X0485598Y0174598D01*
X0485572Y0174754D01*
X0485551Y0174911D01*
X0485533Y0175068D01*
X0485519Y0175226D01*
X0485509Y0175384D01*
X0485503Y0175542D01*
X0485501Y0175700D01*
D11*
X0491800Y0175700D03*
X0491200Y0328500D03*
X0203700Y0328100D03*
X0203900Y0175000D03*
D12*
X0338520Y0252965D03*
X0338520Y0259657D03*
X0365496Y0299327D03*
X0365496Y0306020D03*
X0429079Y0320343D03*
X0429079Y0327035D03*
D13*
X0466110Y0238028D03*
X0265165Y0303579D03*
X0245047Y0203264D03*
D14*
X0255047Y0203264D03*
X0265047Y0203264D03*
X0255165Y0303579D03*
X0245165Y0303579D03*
X0466110Y0258028D03*
X0466110Y0248028D03*
D15*
X0364988Y0253594D03*
X0359988Y0253594D03*
X0354988Y0253594D03*
X0349988Y0253594D03*
X0349988Y0232697D03*
X0354949Y0232697D03*
X0359949Y0232697D03*
X0364949Y0232697D03*
D16*
X0420969Y0321524D03*
X0420969Y0327429D03*
D17*
X0367454Y0322555D02*
X0367403Y0322162D01*
X0367266Y0321790D01*
X0367049Y0321458D01*
X0366764Y0321183D01*
X0366425Y0320978D01*
X0366049Y0320853D01*
X0365654Y0320815D01*
X0365271Y0320862D01*
X0364907Y0320993D01*
X0364582Y0321201D01*
X0364311Y0321476D01*
X0364108Y0321805D01*
X0363984Y0322171D01*
X0363944Y0322555D01*
X0363978Y0322937D01*
X0364096Y0323301D01*
X0364292Y0323630D01*
X0364557Y0323907D01*
X0364876Y0324118D01*
X0365235Y0324253D01*
X0365614Y0324305D01*
X0366015Y0324270D01*
X0366397Y0324147D01*
X0366743Y0323942D01*
X0367034Y0323664D01*
X0367257Y0323329D01*
X0367399Y0322953D01*
X0367454Y0322555D01*
X0367453Y0322547D02*
X0363945Y0322547D01*
X0364013Y0323046D02*
X0367364Y0323046D01*
X0367114Y0323544D02*
X0364241Y0323544D01*
X0364762Y0324043D02*
X0366573Y0324043D01*
X0367361Y0322049D02*
X0364026Y0322049D01*
X0364266Y0321550D02*
X0367109Y0321550D01*
X0366548Y0321052D02*
X0364815Y0321052D01*
X0356683Y0322122D02*
X0356546Y0321750D01*
X0356329Y0321418D01*
X0356044Y0321143D01*
X0355705Y0320937D01*
X0355329Y0320813D01*
X0354934Y0320775D01*
X0354551Y0320822D01*
X0354187Y0320952D01*
X0353862Y0321161D01*
X0353591Y0321436D01*
X0353388Y0321765D01*
X0353264Y0322131D01*
X0353224Y0322515D01*
X0353258Y0322896D01*
X0353376Y0323261D01*
X0353572Y0323590D01*
X0353837Y0323867D01*
X0354156Y0324078D01*
X0354515Y0324213D01*
X0354894Y0324265D01*
X0355295Y0324230D01*
X0355677Y0324107D01*
X0356023Y0323901D01*
X0356314Y0323624D01*
X0356537Y0323289D01*
X0356679Y0322913D01*
X0356734Y0322515D01*
X0356683Y0322122D01*
X0356656Y0322049D02*
X0353292Y0322049D01*
X0353227Y0322547D02*
X0356729Y0322547D01*
X0356629Y0323046D02*
X0353306Y0323046D01*
X0353545Y0323544D02*
X0356367Y0323544D01*
X0355785Y0324043D02*
X0354102Y0324043D01*
X0353521Y0321550D02*
X0356415Y0321550D01*
X0355894Y0321052D02*
X0354032Y0321052D01*
X0345983Y0322152D02*
X0346034Y0322545D01*
X0345979Y0322943D01*
X0345837Y0323319D01*
X0345615Y0323654D01*
X0345323Y0323931D01*
X0344978Y0324137D01*
X0344595Y0324260D01*
X0344194Y0324295D01*
X0343815Y0324243D01*
X0343456Y0324108D01*
X0343137Y0323897D01*
X0342873Y0323620D01*
X0342676Y0323291D01*
X0342558Y0322926D01*
X0342524Y0322545D01*
X0342564Y0322161D01*
X0342689Y0321795D01*
X0342891Y0321466D01*
X0343162Y0321191D01*
X0343488Y0320982D01*
X0343851Y0320852D01*
X0344235Y0320805D01*
X0344629Y0320843D01*
X0345005Y0320967D01*
X0345345Y0321173D01*
X0345630Y0321448D01*
X0345846Y0321780D01*
X0345983Y0322152D01*
X0345945Y0322049D02*
X0342602Y0322049D01*
X0342525Y0322547D02*
X0346034Y0322547D01*
X0345940Y0323046D02*
X0342597Y0323046D01*
X0342827Y0323544D02*
X0345688Y0323544D01*
X0345136Y0324043D02*
X0343357Y0324043D01*
X0342840Y0321550D02*
X0345696Y0321550D01*
X0345145Y0321052D02*
X0343379Y0321052D01*
D18*
X0340000Y0294500D03*
X0321000Y0294500D03*
X0321000Y0273500D03*
X0340000Y0273500D03*
X0367500Y0273500D03*
X0367500Y0293500D03*
X0401000Y0273500D03*
X0422000Y0273000D03*
X0424000Y0222500D03*
X0401000Y0222500D03*
X0309000Y0229500D03*
X0298000Y0229500D03*
X0298000Y0238500D03*
X0309000Y0238500D03*
X0309000Y0204500D03*
X0298000Y0204500D03*
M02*
