%
M48
M72
T01C0.02400
T02C0.03150
T03C0.04000
T04C0.12598
%
T01
X298000Y204500
X309000Y204500
X309000Y229500
X298000Y229500
X298000Y238500
X309000Y238500
X321000Y273500
X340000Y273500
X367500Y273500
X367500Y293500
X340000Y294500
X321000Y294500
X401000Y273500
X422000Y273000
X424000Y222500
X401000Y222500
T02
X245165Y303579
X255165Y303579
X265165Y303579
X265047Y203264
X255047Y203264
X245047Y203264
X466110Y238028
X466110Y248028
X466110Y258028
T03
X344284Y322555
X354984Y322555
X365684Y322555
T04
X203700Y328100
X203900Y175000
X491800Y175700
X491200Y328500
M30
