G75*
%MOIN*%
%OFA0B0*%
%FSLAX25Y25*%
%IPPOS*%
%LPD*%
%AMOC8*
5,1,8,0,0,1.08239X$1,22.5*
%
%ADD10C,0.00000*%
%ADD11C,0.00512*%
%ADD12C,0.00600*%
%ADD13R,0.03937X0.04331*%
%ADD14R,0.05150X0.05150*%
%ADD15C,0.05150*%
%ADD16R,0.02362X0.06299*%
%ADD17R,0.03150X0.03150*%
%ADD18C,0.07400*%
%ADD19C,0.04000*%
%ADD20C,0.01600*%
%ADD21C,0.03200*%
%ADD22C,0.02400*%
D10*
X0003000Y0003500D02*
X0003000Y0397201D01*
X0632921Y0397201D01*
X0632921Y0003500D01*
X0003000Y0003500D01*
X0197601Y0175000D02*
X0197603Y0175158D01*
X0197609Y0175316D01*
X0197619Y0175474D01*
X0197633Y0175632D01*
X0197651Y0175789D01*
X0197672Y0175946D01*
X0197698Y0176102D01*
X0197728Y0176258D01*
X0197761Y0176413D01*
X0197799Y0176566D01*
X0197840Y0176719D01*
X0197885Y0176871D01*
X0197934Y0177022D01*
X0197987Y0177171D01*
X0198043Y0177319D01*
X0198103Y0177465D01*
X0198167Y0177610D01*
X0198235Y0177753D01*
X0198306Y0177895D01*
X0198380Y0178035D01*
X0198458Y0178172D01*
X0198540Y0178308D01*
X0198624Y0178442D01*
X0198713Y0178573D01*
X0198804Y0178702D01*
X0198899Y0178829D01*
X0198996Y0178954D01*
X0199097Y0179076D01*
X0199201Y0179195D01*
X0199308Y0179312D01*
X0199418Y0179426D01*
X0199531Y0179537D01*
X0199646Y0179646D01*
X0199764Y0179751D01*
X0199885Y0179853D01*
X0200008Y0179953D01*
X0200134Y0180049D01*
X0200262Y0180142D01*
X0200392Y0180232D01*
X0200525Y0180318D01*
X0200660Y0180402D01*
X0200796Y0180481D01*
X0200935Y0180558D01*
X0201076Y0180630D01*
X0201218Y0180700D01*
X0201362Y0180765D01*
X0201508Y0180827D01*
X0201655Y0180885D01*
X0201804Y0180940D01*
X0201954Y0180991D01*
X0202105Y0181038D01*
X0202257Y0181081D01*
X0202410Y0181120D01*
X0202565Y0181156D01*
X0202720Y0181187D01*
X0202876Y0181215D01*
X0203032Y0181239D01*
X0203189Y0181259D01*
X0203347Y0181275D01*
X0203504Y0181287D01*
X0203663Y0181295D01*
X0203821Y0181299D01*
X0203979Y0181299D01*
X0204137Y0181295D01*
X0204296Y0181287D01*
X0204453Y0181275D01*
X0204611Y0181259D01*
X0204768Y0181239D01*
X0204924Y0181215D01*
X0205080Y0181187D01*
X0205235Y0181156D01*
X0205390Y0181120D01*
X0205543Y0181081D01*
X0205695Y0181038D01*
X0205846Y0180991D01*
X0205996Y0180940D01*
X0206145Y0180885D01*
X0206292Y0180827D01*
X0206438Y0180765D01*
X0206582Y0180700D01*
X0206724Y0180630D01*
X0206865Y0180558D01*
X0207004Y0180481D01*
X0207140Y0180402D01*
X0207275Y0180318D01*
X0207408Y0180232D01*
X0207538Y0180142D01*
X0207666Y0180049D01*
X0207792Y0179953D01*
X0207915Y0179853D01*
X0208036Y0179751D01*
X0208154Y0179646D01*
X0208269Y0179537D01*
X0208382Y0179426D01*
X0208492Y0179312D01*
X0208599Y0179195D01*
X0208703Y0179076D01*
X0208804Y0178954D01*
X0208901Y0178829D01*
X0208996Y0178702D01*
X0209087Y0178573D01*
X0209176Y0178442D01*
X0209260Y0178308D01*
X0209342Y0178172D01*
X0209420Y0178035D01*
X0209494Y0177895D01*
X0209565Y0177753D01*
X0209633Y0177610D01*
X0209697Y0177465D01*
X0209757Y0177319D01*
X0209813Y0177171D01*
X0209866Y0177022D01*
X0209915Y0176871D01*
X0209960Y0176719D01*
X0210001Y0176566D01*
X0210039Y0176413D01*
X0210072Y0176258D01*
X0210102Y0176102D01*
X0210128Y0175946D01*
X0210149Y0175789D01*
X0210167Y0175632D01*
X0210181Y0175474D01*
X0210191Y0175316D01*
X0210197Y0175158D01*
X0210199Y0175000D01*
X0210197Y0174842D01*
X0210191Y0174684D01*
X0210181Y0174526D01*
X0210167Y0174368D01*
X0210149Y0174211D01*
X0210128Y0174054D01*
X0210102Y0173898D01*
X0210072Y0173742D01*
X0210039Y0173587D01*
X0210001Y0173434D01*
X0209960Y0173281D01*
X0209915Y0173129D01*
X0209866Y0172978D01*
X0209813Y0172829D01*
X0209757Y0172681D01*
X0209697Y0172535D01*
X0209633Y0172390D01*
X0209565Y0172247D01*
X0209494Y0172105D01*
X0209420Y0171965D01*
X0209342Y0171828D01*
X0209260Y0171692D01*
X0209176Y0171558D01*
X0209087Y0171427D01*
X0208996Y0171298D01*
X0208901Y0171171D01*
X0208804Y0171046D01*
X0208703Y0170924D01*
X0208599Y0170805D01*
X0208492Y0170688D01*
X0208382Y0170574D01*
X0208269Y0170463D01*
X0208154Y0170354D01*
X0208036Y0170249D01*
X0207915Y0170147D01*
X0207792Y0170047D01*
X0207666Y0169951D01*
X0207538Y0169858D01*
X0207408Y0169768D01*
X0207275Y0169682D01*
X0207140Y0169598D01*
X0207004Y0169519D01*
X0206865Y0169442D01*
X0206724Y0169370D01*
X0206582Y0169300D01*
X0206438Y0169235D01*
X0206292Y0169173D01*
X0206145Y0169115D01*
X0205996Y0169060D01*
X0205846Y0169009D01*
X0205695Y0168962D01*
X0205543Y0168919D01*
X0205390Y0168880D01*
X0205235Y0168844D01*
X0205080Y0168813D01*
X0204924Y0168785D01*
X0204768Y0168761D01*
X0204611Y0168741D01*
X0204453Y0168725D01*
X0204296Y0168713D01*
X0204137Y0168705D01*
X0203979Y0168701D01*
X0203821Y0168701D01*
X0203663Y0168705D01*
X0203504Y0168713D01*
X0203347Y0168725D01*
X0203189Y0168741D01*
X0203032Y0168761D01*
X0202876Y0168785D01*
X0202720Y0168813D01*
X0202565Y0168844D01*
X0202410Y0168880D01*
X0202257Y0168919D01*
X0202105Y0168962D01*
X0201954Y0169009D01*
X0201804Y0169060D01*
X0201655Y0169115D01*
X0201508Y0169173D01*
X0201362Y0169235D01*
X0201218Y0169300D01*
X0201076Y0169370D01*
X0200935Y0169442D01*
X0200796Y0169519D01*
X0200660Y0169598D01*
X0200525Y0169682D01*
X0200392Y0169768D01*
X0200262Y0169858D01*
X0200134Y0169951D01*
X0200008Y0170047D01*
X0199885Y0170147D01*
X0199764Y0170249D01*
X0199646Y0170354D01*
X0199531Y0170463D01*
X0199418Y0170574D01*
X0199308Y0170688D01*
X0199201Y0170805D01*
X0199097Y0170924D01*
X0198996Y0171046D01*
X0198899Y0171171D01*
X0198804Y0171298D01*
X0198713Y0171427D01*
X0198624Y0171558D01*
X0198540Y0171692D01*
X0198458Y0171828D01*
X0198380Y0171965D01*
X0198306Y0172105D01*
X0198235Y0172247D01*
X0198167Y0172390D01*
X0198103Y0172535D01*
X0198043Y0172681D01*
X0197987Y0172829D01*
X0197934Y0172978D01*
X0197885Y0173129D01*
X0197840Y0173281D01*
X0197799Y0173434D01*
X0197761Y0173587D01*
X0197728Y0173742D01*
X0197698Y0173898D01*
X0197672Y0174054D01*
X0197651Y0174211D01*
X0197633Y0174368D01*
X0197619Y0174526D01*
X0197609Y0174684D01*
X0197603Y0174842D01*
X0197601Y0175000D01*
X0197401Y0328100D02*
X0197403Y0328258D01*
X0197409Y0328416D01*
X0197419Y0328574D01*
X0197433Y0328732D01*
X0197451Y0328889D01*
X0197472Y0329046D01*
X0197498Y0329202D01*
X0197528Y0329358D01*
X0197561Y0329513D01*
X0197599Y0329666D01*
X0197640Y0329819D01*
X0197685Y0329971D01*
X0197734Y0330122D01*
X0197787Y0330271D01*
X0197843Y0330419D01*
X0197903Y0330565D01*
X0197967Y0330710D01*
X0198035Y0330853D01*
X0198106Y0330995D01*
X0198180Y0331135D01*
X0198258Y0331272D01*
X0198340Y0331408D01*
X0198424Y0331542D01*
X0198513Y0331673D01*
X0198604Y0331802D01*
X0198699Y0331929D01*
X0198796Y0332054D01*
X0198897Y0332176D01*
X0199001Y0332295D01*
X0199108Y0332412D01*
X0199218Y0332526D01*
X0199331Y0332637D01*
X0199446Y0332746D01*
X0199564Y0332851D01*
X0199685Y0332953D01*
X0199808Y0333053D01*
X0199934Y0333149D01*
X0200062Y0333242D01*
X0200192Y0333332D01*
X0200325Y0333418D01*
X0200460Y0333502D01*
X0200596Y0333581D01*
X0200735Y0333658D01*
X0200876Y0333730D01*
X0201018Y0333800D01*
X0201162Y0333865D01*
X0201308Y0333927D01*
X0201455Y0333985D01*
X0201604Y0334040D01*
X0201754Y0334091D01*
X0201905Y0334138D01*
X0202057Y0334181D01*
X0202210Y0334220D01*
X0202365Y0334256D01*
X0202520Y0334287D01*
X0202676Y0334315D01*
X0202832Y0334339D01*
X0202989Y0334359D01*
X0203147Y0334375D01*
X0203304Y0334387D01*
X0203463Y0334395D01*
X0203621Y0334399D01*
X0203779Y0334399D01*
X0203937Y0334395D01*
X0204096Y0334387D01*
X0204253Y0334375D01*
X0204411Y0334359D01*
X0204568Y0334339D01*
X0204724Y0334315D01*
X0204880Y0334287D01*
X0205035Y0334256D01*
X0205190Y0334220D01*
X0205343Y0334181D01*
X0205495Y0334138D01*
X0205646Y0334091D01*
X0205796Y0334040D01*
X0205945Y0333985D01*
X0206092Y0333927D01*
X0206238Y0333865D01*
X0206382Y0333800D01*
X0206524Y0333730D01*
X0206665Y0333658D01*
X0206804Y0333581D01*
X0206940Y0333502D01*
X0207075Y0333418D01*
X0207208Y0333332D01*
X0207338Y0333242D01*
X0207466Y0333149D01*
X0207592Y0333053D01*
X0207715Y0332953D01*
X0207836Y0332851D01*
X0207954Y0332746D01*
X0208069Y0332637D01*
X0208182Y0332526D01*
X0208292Y0332412D01*
X0208399Y0332295D01*
X0208503Y0332176D01*
X0208604Y0332054D01*
X0208701Y0331929D01*
X0208796Y0331802D01*
X0208887Y0331673D01*
X0208976Y0331542D01*
X0209060Y0331408D01*
X0209142Y0331272D01*
X0209220Y0331135D01*
X0209294Y0330995D01*
X0209365Y0330853D01*
X0209433Y0330710D01*
X0209497Y0330565D01*
X0209557Y0330419D01*
X0209613Y0330271D01*
X0209666Y0330122D01*
X0209715Y0329971D01*
X0209760Y0329819D01*
X0209801Y0329666D01*
X0209839Y0329513D01*
X0209872Y0329358D01*
X0209902Y0329202D01*
X0209928Y0329046D01*
X0209949Y0328889D01*
X0209967Y0328732D01*
X0209981Y0328574D01*
X0209991Y0328416D01*
X0209997Y0328258D01*
X0209999Y0328100D01*
X0209997Y0327942D01*
X0209991Y0327784D01*
X0209981Y0327626D01*
X0209967Y0327468D01*
X0209949Y0327311D01*
X0209928Y0327154D01*
X0209902Y0326998D01*
X0209872Y0326842D01*
X0209839Y0326687D01*
X0209801Y0326534D01*
X0209760Y0326381D01*
X0209715Y0326229D01*
X0209666Y0326078D01*
X0209613Y0325929D01*
X0209557Y0325781D01*
X0209497Y0325635D01*
X0209433Y0325490D01*
X0209365Y0325347D01*
X0209294Y0325205D01*
X0209220Y0325065D01*
X0209142Y0324928D01*
X0209060Y0324792D01*
X0208976Y0324658D01*
X0208887Y0324527D01*
X0208796Y0324398D01*
X0208701Y0324271D01*
X0208604Y0324146D01*
X0208503Y0324024D01*
X0208399Y0323905D01*
X0208292Y0323788D01*
X0208182Y0323674D01*
X0208069Y0323563D01*
X0207954Y0323454D01*
X0207836Y0323349D01*
X0207715Y0323247D01*
X0207592Y0323147D01*
X0207466Y0323051D01*
X0207338Y0322958D01*
X0207208Y0322868D01*
X0207075Y0322782D01*
X0206940Y0322698D01*
X0206804Y0322619D01*
X0206665Y0322542D01*
X0206524Y0322470D01*
X0206382Y0322400D01*
X0206238Y0322335D01*
X0206092Y0322273D01*
X0205945Y0322215D01*
X0205796Y0322160D01*
X0205646Y0322109D01*
X0205495Y0322062D01*
X0205343Y0322019D01*
X0205190Y0321980D01*
X0205035Y0321944D01*
X0204880Y0321913D01*
X0204724Y0321885D01*
X0204568Y0321861D01*
X0204411Y0321841D01*
X0204253Y0321825D01*
X0204096Y0321813D01*
X0203937Y0321805D01*
X0203779Y0321801D01*
X0203621Y0321801D01*
X0203463Y0321805D01*
X0203304Y0321813D01*
X0203147Y0321825D01*
X0202989Y0321841D01*
X0202832Y0321861D01*
X0202676Y0321885D01*
X0202520Y0321913D01*
X0202365Y0321944D01*
X0202210Y0321980D01*
X0202057Y0322019D01*
X0201905Y0322062D01*
X0201754Y0322109D01*
X0201604Y0322160D01*
X0201455Y0322215D01*
X0201308Y0322273D01*
X0201162Y0322335D01*
X0201018Y0322400D01*
X0200876Y0322470D01*
X0200735Y0322542D01*
X0200596Y0322619D01*
X0200460Y0322698D01*
X0200325Y0322782D01*
X0200192Y0322868D01*
X0200062Y0322958D01*
X0199934Y0323051D01*
X0199808Y0323147D01*
X0199685Y0323247D01*
X0199564Y0323349D01*
X0199446Y0323454D01*
X0199331Y0323563D01*
X0199218Y0323674D01*
X0199108Y0323788D01*
X0199001Y0323905D01*
X0198897Y0324024D01*
X0198796Y0324146D01*
X0198699Y0324271D01*
X0198604Y0324398D01*
X0198513Y0324527D01*
X0198424Y0324658D01*
X0198340Y0324792D01*
X0198258Y0324928D01*
X0198180Y0325065D01*
X0198106Y0325205D01*
X0198035Y0325347D01*
X0197967Y0325490D01*
X0197903Y0325635D01*
X0197843Y0325781D01*
X0197787Y0325929D01*
X0197734Y0326078D01*
X0197685Y0326229D01*
X0197640Y0326381D01*
X0197599Y0326534D01*
X0197561Y0326687D01*
X0197528Y0326842D01*
X0197498Y0326998D01*
X0197472Y0327154D01*
X0197451Y0327311D01*
X0197433Y0327468D01*
X0197419Y0327626D01*
X0197409Y0327784D01*
X0197403Y0327942D01*
X0197401Y0328100D01*
X0484901Y0328500D02*
X0484903Y0328658D01*
X0484909Y0328816D01*
X0484919Y0328974D01*
X0484933Y0329132D01*
X0484951Y0329289D01*
X0484972Y0329446D01*
X0484998Y0329602D01*
X0485028Y0329758D01*
X0485061Y0329913D01*
X0485099Y0330066D01*
X0485140Y0330219D01*
X0485185Y0330371D01*
X0485234Y0330522D01*
X0485287Y0330671D01*
X0485343Y0330819D01*
X0485403Y0330965D01*
X0485467Y0331110D01*
X0485535Y0331253D01*
X0485606Y0331395D01*
X0485680Y0331535D01*
X0485758Y0331672D01*
X0485840Y0331808D01*
X0485924Y0331942D01*
X0486013Y0332073D01*
X0486104Y0332202D01*
X0486199Y0332329D01*
X0486296Y0332454D01*
X0486397Y0332576D01*
X0486501Y0332695D01*
X0486608Y0332812D01*
X0486718Y0332926D01*
X0486831Y0333037D01*
X0486946Y0333146D01*
X0487064Y0333251D01*
X0487185Y0333353D01*
X0487308Y0333453D01*
X0487434Y0333549D01*
X0487562Y0333642D01*
X0487692Y0333732D01*
X0487825Y0333818D01*
X0487960Y0333902D01*
X0488096Y0333981D01*
X0488235Y0334058D01*
X0488376Y0334130D01*
X0488518Y0334200D01*
X0488662Y0334265D01*
X0488808Y0334327D01*
X0488955Y0334385D01*
X0489104Y0334440D01*
X0489254Y0334491D01*
X0489405Y0334538D01*
X0489557Y0334581D01*
X0489710Y0334620D01*
X0489865Y0334656D01*
X0490020Y0334687D01*
X0490176Y0334715D01*
X0490332Y0334739D01*
X0490489Y0334759D01*
X0490647Y0334775D01*
X0490804Y0334787D01*
X0490963Y0334795D01*
X0491121Y0334799D01*
X0491279Y0334799D01*
X0491437Y0334795D01*
X0491596Y0334787D01*
X0491753Y0334775D01*
X0491911Y0334759D01*
X0492068Y0334739D01*
X0492224Y0334715D01*
X0492380Y0334687D01*
X0492535Y0334656D01*
X0492690Y0334620D01*
X0492843Y0334581D01*
X0492995Y0334538D01*
X0493146Y0334491D01*
X0493296Y0334440D01*
X0493445Y0334385D01*
X0493592Y0334327D01*
X0493738Y0334265D01*
X0493882Y0334200D01*
X0494024Y0334130D01*
X0494165Y0334058D01*
X0494304Y0333981D01*
X0494440Y0333902D01*
X0494575Y0333818D01*
X0494708Y0333732D01*
X0494838Y0333642D01*
X0494966Y0333549D01*
X0495092Y0333453D01*
X0495215Y0333353D01*
X0495336Y0333251D01*
X0495454Y0333146D01*
X0495569Y0333037D01*
X0495682Y0332926D01*
X0495792Y0332812D01*
X0495899Y0332695D01*
X0496003Y0332576D01*
X0496104Y0332454D01*
X0496201Y0332329D01*
X0496296Y0332202D01*
X0496387Y0332073D01*
X0496476Y0331942D01*
X0496560Y0331808D01*
X0496642Y0331672D01*
X0496720Y0331535D01*
X0496794Y0331395D01*
X0496865Y0331253D01*
X0496933Y0331110D01*
X0496997Y0330965D01*
X0497057Y0330819D01*
X0497113Y0330671D01*
X0497166Y0330522D01*
X0497215Y0330371D01*
X0497260Y0330219D01*
X0497301Y0330066D01*
X0497339Y0329913D01*
X0497372Y0329758D01*
X0497402Y0329602D01*
X0497428Y0329446D01*
X0497449Y0329289D01*
X0497467Y0329132D01*
X0497481Y0328974D01*
X0497491Y0328816D01*
X0497497Y0328658D01*
X0497499Y0328500D01*
X0497497Y0328342D01*
X0497491Y0328184D01*
X0497481Y0328026D01*
X0497467Y0327868D01*
X0497449Y0327711D01*
X0497428Y0327554D01*
X0497402Y0327398D01*
X0497372Y0327242D01*
X0497339Y0327087D01*
X0497301Y0326934D01*
X0497260Y0326781D01*
X0497215Y0326629D01*
X0497166Y0326478D01*
X0497113Y0326329D01*
X0497057Y0326181D01*
X0496997Y0326035D01*
X0496933Y0325890D01*
X0496865Y0325747D01*
X0496794Y0325605D01*
X0496720Y0325465D01*
X0496642Y0325328D01*
X0496560Y0325192D01*
X0496476Y0325058D01*
X0496387Y0324927D01*
X0496296Y0324798D01*
X0496201Y0324671D01*
X0496104Y0324546D01*
X0496003Y0324424D01*
X0495899Y0324305D01*
X0495792Y0324188D01*
X0495682Y0324074D01*
X0495569Y0323963D01*
X0495454Y0323854D01*
X0495336Y0323749D01*
X0495215Y0323647D01*
X0495092Y0323547D01*
X0494966Y0323451D01*
X0494838Y0323358D01*
X0494708Y0323268D01*
X0494575Y0323182D01*
X0494440Y0323098D01*
X0494304Y0323019D01*
X0494165Y0322942D01*
X0494024Y0322870D01*
X0493882Y0322800D01*
X0493738Y0322735D01*
X0493592Y0322673D01*
X0493445Y0322615D01*
X0493296Y0322560D01*
X0493146Y0322509D01*
X0492995Y0322462D01*
X0492843Y0322419D01*
X0492690Y0322380D01*
X0492535Y0322344D01*
X0492380Y0322313D01*
X0492224Y0322285D01*
X0492068Y0322261D01*
X0491911Y0322241D01*
X0491753Y0322225D01*
X0491596Y0322213D01*
X0491437Y0322205D01*
X0491279Y0322201D01*
X0491121Y0322201D01*
X0490963Y0322205D01*
X0490804Y0322213D01*
X0490647Y0322225D01*
X0490489Y0322241D01*
X0490332Y0322261D01*
X0490176Y0322285D01*
X0490020Y0322313D01*
X0489865Y0322344D01*
X0489710Y0322380D01*
X0489557Y0322419D01*
X0489405Y0322462D01*
X0489254Y0322509D01*
X0489104Y0322560D01*
X0488955Y0322615D01*
X0488808Y0322673D01*
X0488662Y0322735D01*
X0488518Y0322800D01*
X0488376Y0322870D01*
X0488235Y0322942D01*
X0488096Y0323019D01*
X0487960Y0323098D01*
X0487825Y0323182D01*
X0487692Y0323268D01*
X0487562Y0323358D01*
X0487434Y0323451D01*
X0487308Y0323547D01*
X0487185Y0323647D01*
X0487064Y0323749D01*
X0486946Y0323854D01*
X0486831Y0323963D01*
X0486718Y0324074D01*
X0486608Y0324188D01*
X0486501Y0324305D01*
X0486397Y0324424D01*
X0486296Y0324546D01*
X0486199Y0324671D01*
X0486104Y0324798D01*
X0486013Y0324927D01*
X0485924Y0325058D01*
X0485840Y0325192D01*
X0485758Y0325328D01*
X0485680Y0325465D01*
X0485606Y0325605D01*
X0485535Y0325747D01*
X0485467Y0325890D01*
X0485403Y0326035D01*
X0485343Y0326181D01*
X0485287Y0326329D01*
X0485234Y0326478D01*
X0485185Y0326629D01*
X0485140Y0326781D01*
X0485099Y0326934D01*
X0485061Y0327087D01*
X0485028Y0327242D01*
X0484998Y0327398D01*
X0484972Y0327554D01*
X0484951Y0327711D01*
X0484933Y0327868D01*
X0484919Y0328026D01*
X0484909Y0328184D01*
X0484903Y0328342D01*
X0484901Y0328500D01*
X0485501Y0175700D02*
X0485503Y0175858D01*
X0485509Y0176016D01*
X0485519Y0176174D01*
X0485533Y0176332D01*
X0485551Y0176489D01*
X0485572Y0176646D01*
X0485598Y0176802D01*
X0485628Y0176958D01*
X0485661Y0177113D01*
X0485699Y0177266D01*
X0485740Y0177419D01*
X0485785Y0177571D01*
X0485834Y0177722D01*
X0485887Y0177871D01*
X0485943Y0178019D01*
X0486003Y0178165D01*
X0486067Y0178310D01*
X0486135Y0178453D01*
X0486206Y0178595D01*
X0486280Y0178735D01*
X0486358Y0178872D01*
X0486440Y0179008D01*
X0486524Y0179142D01*
X0486613Y0179273D01*
X0486704Y0179402D01*
X0486799Y0179529D01*
X0486896Y0179654D01*
X0486997Y0179776D01*
X0487101Y0179895D01*
X0487208Y0180012D01*
X0487318Y0180126D01*
X0487431Y0180237D01*
X0487546Y0180346D01*
X0487664Y0180451D01*
X0487785Y0180553D01*
X0487908Y0180653D01*
X0488034Y0180749D01*
X0488162Y0180842D01*
X0488292Y0180932D01*
X0488425Y0181018D01*
X0488560Y0181102D01*
X0488696Y0181181D01*
X0488835Y0181258D01*
X0488976Y0181330D01*
X0489118Y0181400D01*
X0489262Y0181465D01*
X0489408Y0181527D01*
X0489555Y0181585D01*
X0489704Y0181640D01*
X0489854Y0181691D01*
X0490005Y0181738D01*
X0490157Y0181781D01*
X0490310Y0181820D01*
X0490465Y0181856D01*
X0490620Y0181887D01*
X0490776Y0181915D01*
X0490932Y0181939D01*
X0491089Y0181959D01*
X0491247Y0181975D01*
X0491404Y0181987D01*
X0491563Y0181995D01*
X0491721Y0181999D01*
X0491879Y0181999D01*
X0492037Y0181995D01*
X0492196Y0181987D01*
X0492353Y0181975D01*
X0492511Y0181959D01*
X0492668Y0181939D01*
X0492824Y0181915D01*
X0492980Y0181887D01*
X0493135Y0181856D01*
X0493290Y0181820D01*
X0493443Y0181781D01*
X0493595Y0181738D01*
X0493746Y0181691D01*
X0493896Y0181640D01*
X0494045Y0181585D01*
X0494192Y0181527D01*
X0494338Y0181465D01*
X0494482Y0181400D01*
X0494624Y0181330D01*
X0494765Y0181258D01*
X0494904Y0181181D01*
X0495040Y0181102D01*
X0495175Y0181018D01*
X0495308Y0180932D01*
X0495438Y0180842D01*
X0495566Y0180749D01*
X0495692Y0180653D01*
X0495815Y0180553D01*
X0495936Y0180451D01*
X0496054Y0180346D01*
X0496169Y0180237D01*
X0496282Y0180126D01*
X0496392Y0180012D01*
X0496499Y0179895D01*
X0496603Y0179776D01*
X0496704Y0179654D01*
X0496801Y0179529D01*
X0496896Y0179402D01*
X0496987Y0179273D01*
X0497076Y0179142D01*
X0497160Y0179008D01*
X0497242Y0178872D01*
X0497320Y0178735D01*
X0497394Y0178595D01*
X0497465Y0178453D01*
X0497533Y0178310D01*
X0497597Y0178165D01*
X0497657Y0178019D01*
X0497713Y0177871D01*
X0497766Y0177722D01*
X0497815Y0177571D01*
X0497860Y0177419D01*
X0497901Y0177266D01*
X0497939Y0177113D01*
X0497972Y0176958D01*
X0498002Y0176802D01*
X0498028Y0176646D01*
X0498049Y0176489D01*
X0498067Y0176332D01*
X0498081Y0176174D01*
X0498091Y0176016D01*
X0498097Y0175858D01*
X0498099Y0175700D01*
X0498097Y0175542D01*
X0498091Y0175384D01*
X0498081Y0175226D01*
X0498067Y0175068D01*
X0498049Y0174911D01*
X0498028Y0174754D01*
X0498002Y0174598D01*
X0497972Y0174442D01*
X0497939Y0174287D01*
X0497901Y0174134D01*
X0497860Y0173981D01*
X0497815Y0173829D01*
X0497766Y0173678D01*
X0497713Y0173529D01*
X0497657Y0173381D01*
X0497597Y0173235D01*
X0497533Y0173090D01*
X0497465Y0172947D01*
X0497394Y0172805D01*
X0497320Y0172665D01*
X0497242Y0172528D01*
X0497160Y0172392D01*
X0497076Y0172258D01*
X0496987Y0172127D01*
X0496896Y0171998D01*
X0496801Y0171871D01*
X0496704Y0171746D01*
X0496603Y0171624D01*
X0496499Y0171505D01*
X0496392Y0171388D01*
X0496282Y0171274D01*
X0496169Y0171163D01*
X0496054Y0171054D01*
X0495936Y0170949D01*
X0495815Y0170847D01*
X0495692Y0170747D01*
X0495566Y0170651D01*
X0495438Y0170558D01*
X0495308Y0170468D01*
X0495175Y0170382D01*
X0495040Y0170298D01*
X0494904Y0170219D01*
X0494765Y0170142D01*
X0494624Y0170070D01*
X0494482Y0170000D01*
X0494338Y0169935D01*
X0494192Y0169873D01*
X0494045Y0169815D01*
X0493896Y0169760D01*
X0493746Y0169709D01*
X0493595Y0169662D01*
X0493443Y0169619D01*
X0493290Y0169580D01*
X0493135Y0169544D01*
X0492980Y0169513D01*
X0492824Y0169485D01*
X0492668Y0169461D01*
X0492511Y0169441D01*
X0492353Y0169425D01*
X0492196Y0169413D01*
X0492037Y0169405D01*
X0491879Y0169401D01*
X0491721Y0169401D01*
X0491563Y0169405D01*
X0491404Y0169413D01*
X0491247Y0169425D01*
X0491089Y0169441D01*
X0490932Y0169461D01*
X0490776Y0169485D01*
X0490620Y0169513D01*
X0490465Y0169544D01*
X0490310Y0169580D01*
X0490157Y0169619D01*
X0490005Y0169662D01*
X0489854Y0169709D01*
X0489704Y0169760D01*
X0489555Y0169815D01*
X0489408Y0169873D01*
X0489262Y0169935D01*
X0489118Y0170000D01*
X0488976Y0170070D01*
X0488835Y0170142D01*
X0488696Y0170219D01*
X0488560Y0170298D01*
X0488425Y0170382D01*
X0488292Y0170468D01*
X0488162Y0170558D01*
X0488034Y0170651D01*
X0487908Y0170747D01*
X0487785Y0170847D01*
X0487664Y0170949D01*
X0487546Y0171054D01*
X0487431Y0171163D01*
X0487318Y0171274D01*
X0487208Y0171388D01*
X0487101Y0171505D01*
X0486997Y0171624D01*
X0486896Y0171746D01*
X0486799Y0171871D01*
X0486704Y0171998D01*
X0486613Y0172127D01*
X0486524Y0172258D01*
X0486440Y0172392D01*
X0486358Y0172528D01*
X0486280Y0172665D01*
X0486206Y0172805D01*
X0486135Y0172947D01*
X0486067Y0173090D01*
X0486003Y0173235D01*
X0485943Y0173381D01*
X0485887Y0173529D01*
X0485834Y0173678D01*
X0485785Y0173829D01*
X0485740Y0173981D01*
X0485699Y0174134D01*
X0485661Y0174287D01*
X0485628Y0174442D01*
X0485598Y0174598D01*
X0485572Y0174754D01*
X0485551Y0174911D01*
X0485533Y0175068D01*
X0485519Y0175226D01*
X0485509Y0175384D01*
X0485503Y0175542D01*
X0485501Y0175700D01*
D11*
X0504969Y0340311D02*
X0504969Y0351925D01*
X0504713Y0347988D02*
X0494732Y0346965D01*
X0494732Y0346731D02*
X0504713Y0347988D01*
X0494732Y0349012D01*
X0494732Y0349245D02*
X0494732Y0346731D01*
X0494732Y0347476D02*
X0504713Y0347988D01*
X0494732Y0348500D01*
X0494732Y0349245D02*
X0504713Y0347988D01*
X0190264Y0347988D01*
X0200244Y0346965D01*
X0200244Y0346731D02*
X0190264Y0347988D01*
X0200244Y0349012D01*
X0200244Y0349245D02*
X0200244Y0346731D01*
X0200244Y0347476D02*
X0190264Y0347988D01*
X0200244Y0348500D01*
X0200244Y0349245D02*
X0190264Y0347988D01*
X0190008Y0340311D02*
X0190008Y0357831D01*
X0190008Y0339327D02*
X0162646Y0339327D01*
X0170323Y0339071D02*
X0171346Y0329091D01*
X0171580Y0329091D02*
X0170323Y0339071D01*
X0169299Y0329091D01*
X0169066Y0329091D02*
X0171580Y0329091D01*
X0170835Y0329091D02*
X0170323Y0339071D01*
X0169811Y0329091D01*
X0169066Y0329091D02*
X0170323Y0339071D01*
X0170323Y0161236D01*
X0171346Y0171217D01*
X0171580Y0171217D02*
X0170323Y0161236D01*
X0169299Y0171217D01*
X0169066Y0171217D02*
X0171580Y0171217D01*
X0170835Y0171217D02*
X0170323Y0161236D01*
X0169811Y0171217D01*
X0169066Y0171217D02*
X0170323Y0161236D01*
X0162646Y0160980D02*
X0190008Y0160980D01*
D12*
X0164558Y0240684D02*
X0164558Y0244955D01*
X0164558Y0247130D02*
X0163491Y0249265D01*
X0163491Y0250333D01*
X0164558Y0251400D01*
X0166693Y0251400D01*
X0167761Y0250333D01*
X0167761Y0248197D01*
X0166693Y0247130D01*
X0164558Y0247130D02*
X0161356Y0247130D01*
X0161356Y0251400D01*
X0162423Y0256798D02*
X0161356Y0257866D01*
X0161356Y0260001D01*
X0162423Y0261068D01*
X0163491Y0261068D01*
X0164558Y0260001D01*
X0165626Y0261068D01*
X0166693Y0261068D01*
X0167761Y0260001D01*
X0167761Y0257866D01*
X0166693Y0256798D01*
X0166693Y0254643D02*
X0167761Y0254643D01*
X0167761Y0253575D01*
X0166693Y0253575D01*
X0166693Y0254643D01*
X0164558Y0258933D02*
X0164558Y0260001D01*
X0161356Y0243887D02*
X0164558Y0240684D01*
X0167761Y0243887D02*
X0161356Y0243887D01*
X0342201Y0351618D02*
X0342201Y0352685D01*
X0343268Y0353753D01*
X0345403Y0353753D01*
X0346471Y0352685D01*
X0346471Y0351618D01*
X0345403Y0350550D01*
X0343268Y0350550D01*
X0342201Y0351618D01*
X0343268Y0353753D02*
X0342201Y0354820D01*
X0342201Y0355888D01*
X0343268Y0356955D01*
X0345403Y0356955D01*
X0346471Y0355888D01*
X0346471Y0354820D01*
X0345403Y0353753D01*
X0348646Y0351618D02*
X0348646Y0355888D01*
X0349714Y0356955D01*
X0351849Y0356955D01*
X0352917Y0355888D01*
X0348646Y0351618D01*
X0349714Y0350550D01*
X0351849Y0350550D01*
X0352917Y0351618D01*
X0352917Y0355888D01*
D13*
X0429079Y0327035D03*
X0429079Y0320343D03*
X0365496Y0306020D03*
X0365496Y0299327D03*
X0338520Y0259657D03*
X0338520Y0252965D03*
D14*
X0265165Y0303579D03*
X0245047Y0203264D03*
X0466110Y0238028D03*
D15*
X0466110Y0248028D03*
X0466110Y0258028D03*
X0265047Y0203264D03*
X0255047Y0203264D03*
X0255165Y0303579D03*
X0245165Y0303579D03*
D16*
X0349988Y0253594D03*
X0354988Y0253594D03*
X0359988Y0253594D03*
X0364988Y0253594D03*
X0364949Y0232697D03*
X0359949Y0232697D03*
X0354949Y0232697D03*
X0349988Y0232697D03*
D17*
X0420969Y0321524D03*
X0420969Y0327429D03*
D18*
X0365684Y0322555D03*
X0354984Y0322555D03*
X0344284Y0322555D03*
D19*
X0340000Y0294500D03*
X0321000Y0294500D03*
X0321000Y0273500D03*
X0340000Y0273500D03*
X0367500Y0273500D03*
X0367500Y0293500D03*
X0401000Y0273500D03*
X0422000Y0273000D03*
X0424000Y0222500D03*
X0401000Y0222500D03*
X0309000Y0229500D03*
X0298000Y0229500D03*
X0298000Y0238500D03*
X0309000Y0238500D03*
X0309000Y0204500D03*
X0298000Y0204500D03*
D20*
X0275284Y0212900D02*
X0347216Y0212900D01*
X0348539Y0213448D01*
X0349552Y0214461D01*
X0356349Y0221258D01*
X0356349Y0200940D01*
X0351509Y0196100D01*
X0257302Y0196100D01*
X0255113Y0198289D01*
X0256037Y0198289D01*
X0257865Y0199046D01*
X0259265Y0200446D01*
X0260022Y0202274D01*
X0260022Y0204253D01*
X0259265Y0206082D01*
X0259047Y0206299D01*
X0259047Y0300425D01*
X0259383Y0300761D01*
X0260140Y0302589D01*
X0260140Y0304568D01*
X0259383Y0306397D01*
X0259165Y0306614D01*
X0259165Y0308008D01*
X0262657Y0311500D01*
X0278343Y0311500D01*
X0284000Y0305843D01*
X0284000Y0267704D01*
X0284609Y0266234D01*
X0285734Y0265109D01*
X0300734Y0250109D01*
X0302204Y0249500D01*
X0334492Y0249500D01*
X0334517Y0249440D01*
X0335192Y0248765D01*
X0336074Y0248399D01*
X0340966Y0248399D01*
X0341848Y0248765D01*
X0342523Y0249440D01*
X0342753Y0249994D01*
X0346388Y0249994D01*
X0346388Y0231981D01*
X0346407Y0231935D01*
X0346407Y0229070D01*
X0346772Y0228188D01*
X0347448Y0227513D01*
X0348330Y0227147D01*
X0351349Y0227147D01*
X0351349Y0226440D01*
X0345009Y0220100D01*
X0277491Y0220100D01*
X0268600Y0228991D01*
X0268600Y0298762D01*
X0269100Y0298969D01*
X0269775Y0299644D01*
X0270140Y0300527D01*
X0270140Y0306631D01*
X0269775Y0307513D01*
X0269100Y0308188D01*
X0268218Y0308554D01*
X0262113Y0308554D01*
X0261231Y0308188D01*
X0260556Y0307513D01*
X0260191Y0306631D01*
X0260191Y0300527D01*
X0260556Y0299644D01*
X0261231Y0298969D01*
X0261400Y0298899D01*
X0261400Y0226784D01*
X0261948Y0225461D01*
X0262961Y0224448D01*
X0273961Y0213448D01*
X0275284Y0212900D01*
X0275272Y0212905D02*
X0259047Y0212905D01*
X0259047Y0214503D02*
X0272905Y0214503D01*
X0271307Y0216102D02*
X0259047Y0216102D01*
X0259047Y0217701D02*
X0269708Y0217701D01*
X0268110Y0219299D02*
X0259047Y0219299D01*
X0259047Y0220898D02*
X0266511Y0220898D01*
X0264913Y0222496D02*
X0259047Y0222496D01*
X0259047Y0224095D02*
X0263314Y0224095D01*
X0261852Y0225693D02*
X0259047Y0225693D01*
X0259047Y0227292D02*
X0261400Y0227292D01*
X0261400Y0228890D02*
X0259047Y0228890D01*
X0259047Y0230489D02*
X0261400Y0230489D01*
X0261400Y0232087D02*
X0259047Y0232087D01*
X0259047Y0233686D02*
X0261400Y0233686D01*
X0261400Y0235284D02*
X0259047Y0235284D01*
X0259047Y0236883D02*
X0261400Y0236883D01*
X0261400Y0238481D02*
X0259047Y0238481D01*
X0259047Y0240080D02*
X0261400Y0240080D01*
X0261400Y0241678D02*
X0259047Y0241678D01*
X0259047Y0243277D02*
X0261400Y0243277D01*
X0261400Y0244875D02*
X0259047Y0244875D01*
X0259047Y0246474D02*
X0261400Y0246474D01*
X0261400Y0248072D02*
X0259047Y0248072D01*
X0259047Y0249671D02*
X0261400Y0249671D01*
X0261400Y0251269D02*
X0259047Y0251269D01*
X0259047Y0252868D02*
X0261400Y0252868D01*
X0261400Y0254466D02*
X0259047Y0254466D01*
X0259047Y0256065D02*
X0261400Y0256065D01*
X0261400Y0257663D02*
X0259047Y0257663D01*
X0259047Y0259262D02*
X0261400Y0259262D01*
X0261400Y0260860D02*
X0259047Y0260860D01*
X0259047Y0262459D02*
X0261400Y0262459D01*
X0261400Y0264057D02*
X0259047Y0264057D01*
X0259047Y0265656D02*
X0261400Y0265656D01*
X0261400Y0267254D02*
X0259047Y0267254D01*
X0259047Y0268853D02*
X0261400Y0268853D01*
X0261400Y0270451D02*
X0259047Y0270451D01*
X0259047Y0272050D02*
X0261400Y0272050D01*
X0261400Y0273648D02*
X0259047Y0273648D01*
X0259047Y0275247D02*
X0261400Y0275247D01*
X0261400Y0276845D02*
X0259047Y0276845D01*
X0259047Y0278444D02*
X0261400Y0278444D01*
X0261400Y0280042D02*
X0259047Y0280042D01*
X0259047Y0281641D02*
X0261400Y0281641D01*
X0261400Y0283239D02*
X0259047Y0283239D01*
X0259047Y0284838D02*
X0261400Y0284838D01*
X0261400Y0286437D02*
X0259047Y0286437D01*
X0259047Y0288035D02*
X0261400Y0288035D01*
X0261400Y0289634D02*
X0259047Y0289634D01*
X0259047Y0291232D02*
X0261400Y0291232D01*
X0261400Y0292831D02*
X0259047Y0292831D01*
X0259047Y0294429D02*
X0261400Y0294429D01*
X0261400Y0296028D02*
X0259047Y0296028D01*
X0259047Y0297626D02*
X0261400Y0297626D01*
X0260976Y0299225D02*
X0259047Y0299225D01*
X0259409Y0300823D02*
X0260191Y0300823D01*
X0260191Y0302422D02*
X0260071Y0302422D01*
X0260140Y0304020D02*
X0260191Y0304020D01*
X0260191Y0305619D02*
X0259705Y0305619D01*
X0259165Y0307217D02*
X0260433Y0307217D01*
X0259973Y0308816D02*
X0281027Y0308816D01*
X0279429Y0310414D02*
X0261571Y0310414D01*
X0269897Y0307217D02*
X0282626Y0307217D01*
X0284000Y0305619D02*
X0270140Y0305619D01*
X0270140Y0304020D02*
X0284000Y0304020D01*
X0284000Y0302422D02*
X0270140Y0302422D01*
X0270140Y0300823D02*
X0284000Y0300823D01*
X0284000Y0299225D02*
X0269355Y0299225D01*
X0268600Y0297626D02*
X0284000Y0297626D01*
X0284000Y0296028D02*
X0268600Y0296028D01*
X0268600Y0294429D02*
X0284000Y0294429D01*
X0284000Y0292831D02*
X0268600Y0292831D01*
X0268600Y0291232D02*
X0284000Y0291232D01*
X0284000Y0289634D02*
X0268600Y0289634D01*
X0268600Y0288035D02*
X0284000Y0288035D01*
X0284000Y0286437D02*
X0268600Y0286437D01*
X0268600Y0284838D02*
X0284000Y0284838D01*
X0284000Y0283239D02*
X0268600Y0283239D01*
X0268600Y0281641D02*
X0284000Y0281641D01*
X0284000Y0280042D02*
X0268600Y0280042D01*
X0268600Y0278444D02*
X0284000Y0278444D01*
X0284000Y0276845D02*
X0268600Y0276845D01*
X0268600Y0275247D02*
X0284000Y0275247D01*
X0284000Y0273648D02*
X0268600Y0273648D01*
X0268600Y0272050D02*
X0284000Y0272050D01*
X0284000Y0270451D02*
X0268600Y0270451D01*
X0268600Y0268853D02*
X0284000Y0268853D01*
X0284186Y0267254D02*
X0268600Y0267254D01*
X0268600Y0265656D02*
X0285187Y0265656D01*
X0286786Y0264057D02*
X0268600Y0264057D01*
X0268600Y0262459D02*
X0288384Y0262459D01*
X0289983Y0260860D02*
X0268600Y0260860D01*
X0268600Y0259262D02*
X0291581Y0259262D01*
X0293180Y0257663D02*
X0268600Y0257663D01*
X0268600Y0256065D02*
X0294778Y0256065D01*
X0296377Y0254466D02*
X0268600Y0254466D01*
X0268600Y0252868D02*
X0297975Y0252868D01*
X0299574Y0251269D02*
X0268600Y0251269D01*
X0268600Y0249671D02*
X0301792Y0249671D01*
X0304657Y0257500D02*
X0292000Y0270157D01*
X0292000Y0308296D01*
X0291391Y0309766D01*
X0283391Y0317766D01*
X0282266Y0318891D01*
X0280796Y0319500D01*
X0260204Y0319500D01*
X0259165Y0319070D01*
X0259165Y0321508D01*
X0267157Y0329500D01*
X0388343Y0329500D01*
X0398609Y0319234D01*
X0399734Y0318109D01*
X0401204Y0317500D01*
X0416969Y0317500D01*
X0416969Y0307125D01*
X0412343Y0302500D01*
X0369645Y0302500D01*
X0369573Y0302673D01*
X0369865Y0303377D01*
X0369865Y0308662D01*
X0369684Y0309098D01*
X0369684Y0317928D01*
X0370856Y0319100D01*
X0371784Y0321342D01*
X0371784Y0323768D01*
X0370856Y0326010D01*
X0369140Y0327726D01*
X0366898Y0328655D01*
X0364471Y0328655D01*
X0362229Y0327726D01*
X0360513Y0326010D01*
X0360334Y0325579D01*
X0360156Y0326010D01*
X0358440Y0327726D01*
X0356198Y0328655D01*
X0353771Y0328655D01*
X0351529Y0327726D01*
X0349813Y0326010D01*
X0349312Y0324802D01*
X0348988Y0325438D01*
X0348479Y0326138D01*
X0347867Y0326750D01*
X0347167Y0327259D01*
X0346396Y0327652D01*
X0345572Y0327920D01*
X0344717Y0328055D01*
X0344484Y0328055D01*
X0344484Y0322755D01*
X0344084Y0322755D01*
X0344084Y0322355D01*
X0338784Y0322355D01*
X0338784Y0322122D01*
X0338920Y0321267D01*
X0339187Y0320444D01*
X0339580Y0319672D01*
X0340089Y0318972D01*
X0340701Y0318360D01*
X0341402Y0317851D01*
X0342173Y0317458D01*
X0342996Y0317191D01*
X0343851Y0317055D01*
X0344084Y0317055D01*
X0344084Y0322355D01*
X0344484Y0322355D01*
X0344484Y0317055D01*
X0344717Y0317055D01*
X0345572Y0317191D01*
X0346396Y0317458D01*
X0347167Y0317851D01*
X0347867Y0318360D01*
X0348479Y0318972D01*
X0348988Y0319672D01*
X0349312Y0320308D01*
X0349813Y0319100D01*
X0351388Y0317524D01*
X0351388Y0259144D01*
X0348330Y0259144D01*
X0347448Y0258779D01*
X0346772Y0258104D01*
X0346407Y0257221D01*
X0346407Y0257194D01*
X0342272Y0257194D01*
X0342288Y0257255D01*
X0342288Y0259473D01*
X0338704Y0259473D01*
X0338704Y0259842D01*
X0338335Y0259842D01*
X0338335Y0259473D01*
X0334751Y0259473D01*
X0334751Y0257500D01*
X0304657Y0257500D01*
X0304494Y0257663D02*
X0334751Y0257663D01*
X0334751Y0259262D02*
X0302895Y0259262D01*
X0301297Y0260860D02*
X0334751Y0260860D01*
X0334751Y0259842D02*
X0338335Y0259842D01*
X0338335Y0263623D01*
X0336314Y0263623D01*
X0335856Y0263500D01*
X0335446Y0263263D01*
X0335111Y0262928D01*
X0334874Y0262518D01*
X0334751Y0262060D01*
X0334751Y0259842D01*
X0334858Y0262459D02*
X0299698Y0262459D01*
X0298099Y0264057D02*
X0351388Y0264057D01*
X0351388Y0262459D02*
X0342181Y0262459D01*
X0342166Y0262518D02*
X0341929Y0262928D01*
X0341593Y0263263D01*
X0341183Y0263500D01*
X0340725Y0263623D01*
X0338704Y0263623D01*
X0338704Y0259842D01*
X0342288Y0259842D01*
X0342288Y0262060D01*
X0342166Y0262518D01*
X0342288Y0260860D02*
X0351388Y0260860D01*
X0351388Y0259262D02*
X0342288Y0259262D01*
X0342288Y0257663D02*
X0346590Y0257663D01*
X0338704Y0260860D02*
X0338335Y0260860D01*
X0338335Y0262459D02*
X0338704Y0262459D01*
X0351388Y0265656D02*
X0296501Y0265656D01*
X0294902Y0267254D02*
X0351388Y0267254D01*
X0351388Y0268853D02*
X0293304Y0268853D01*
X0292000Y0270451D02*
X0351388Y0270451D01*
X0351388Y0272050D02*
X0292000Y0272050D01*
X0292000Y0273648D02*
X0351388Y0273648D01*
X0351388Y0275247D02*
X0292000Y0275247D01*
X0292000Y0276845D02*
X0351388Y0276845D01*
X0351388Y0278444D02*
X0292000Y0278444D01*
X0292000Y0280042D02*
X0351388Y0280042D01*
X0351388Y0281641D02*
X0292000Y0281641D01*
X0292000Y0283239D02*
X0351388Y0283239D01*
X0351388Y0284838D02*
X0292000Y0284838D01*
X0292000Y0286437D02*
X0351388Y0286437D01*
X0351388Y0288035D02*
X0292000Y0288035D01*
X0292000Y0289634D02*
X0351388Y0289634D01*
X0351388Y0291232D02*
X0292000Y0291232D01*
X0292000Y0292831D02*
X0351388Y0292831D01*
X0351388Y0294429D02*
X0292000Y0294429D01*
X0292000Y0296028D02*
X0351388Y0296028D01*
X0351388Y0297626D02*
X0292000Y0297626D01*
X0292000Y0299225D02*
X0351388Y0299225D01*
X0351388Y0300823D02*
X0292000Y0300823D01*
X0292000Y0302422D02*
X0351388Y0302422D01*
X0351388Y0304020D02*
X0292000Y0304020D01*
X0292000Y0305619D02*
X0351388Y0305619D01*
X0351388Y0307217D02*
X0292000Y0307217D01*
X0291785Y0308816D02*
X0351388Y0308816D01*
X0351388Y0310414D02*
X0290743Y0310414D01*
X0289144Y0312013D02*
X0351388Y0312013D01*
X0351388Y0313611D02*
X0287546Y0313611D01*
X0285947Y0315210D02*
X0351388Y0315210D01*
X0351388Y0316808D02*
X0284349Y0316808D01*
X0282750Y0318407D02*
X0340654Y0318407D01*
X0339411Y0320005D02*
X0259165Y0320005D01*
X0259261Y0321604D02*
X0338866Y0321604D01*
X0338784Y0322755D02*
X0344084Y0322755D01*
X0344084Y0328055D01*
X0343851Y0328055D01*
X0342996Y0327920D01*
X0342173Y0327652D01*
X0341402Y0327259D01*
X0340701Y0326750D01*
X0340089Y0326138D01*
X0339580Y0325438D01*
X0339187Y0324666D01*
X0338920Y0323843D01*
X0338784Y0322988D01*
X0338784Y0322755D01*
X0338818Y0323202D02*
X0260859Y0323202D01*
X0262458Y0324801D02*
X0339256Y0324801D01*
X0340350Y0326399D02*
X0264056Y0326399D01*
X0265655Y0327998D02*
X0343490Y0327998D01*
X0344084Y0327998D02*
X0344484Y0327998D01*
X0345079Y0327998D02*
X0352184Y0327998D01*
X0350202Y0326399D02*
X0348218Y0326399D01*
X0344484Y0326399D02*
X0344084Y0326399D01*
X0344084Y0324801D02*
X0344484Y0324801D01*
X0344484Y0323202D02*
X0344084Y0323202D01*
X0344084Y0321604D02*
X0344484Y0321604D01*
X0344484Y0320005D02*
X0344084Y0320005D01*
X0344084Y0318407D02*
X0344484Y0318407D01*
X0347914Y0318407D02*
X0350506Y0318407D01*
X0349438Y0320005D02*
X0349158Y0320005D01*
X0358588Y0317532D02*
X0360156Y0319100D01*
X0360334Y0319531D01*
X0360513Y0319100D01*
X0361684Y0317928D01*
X0361684Y0309736D01*
X0361493Y0309545D01*
X0361128Y0308662D01*
X0361128Y0303377D01*
X0361419Y0302673D01*
X0361128Y0301970D01*
X0361128Y0296684D01*
X0361493Y0295802D01*
X0362168Y0295127D01*
X0363050Y0294761D01*
X0364896Y0294761D01*
X0365527Y0294500D01*
X0375343Y0294500D01*
X0382000Y0287843D01*
X0382000Y0253704D01*
X0382609Y0252234D01*
X0383734Y0251109D01*
X0390207Y0244637D01*
X0391677Y0244028D01*
X0463075Y0244028D01*
X0463292Y0243810D01*
X0465121Y0243053D01*
X0467100Y0243053D01*
X0468928Y0243810D01*
X0470328Y0245210D01*
X0471085Y0247038D01*
X0471085Y0249017D01*
X0470328Y0250846D01*
X0468928Y0252245D01*
X0467100Y0253002D01*
X0465121Y0253002D01*
X0463292Y0252245D01*
X0463075Y0252028D01*
X0394129Y0252028D01*
X0390000Y0256157D01*
X0390000Y0290296D01*
X0389391Y0291766D01*
X0388266Y0292891D01*
X0388266Y0292891D01*
X0386657Y0294500D01*
X0414796Y0294500D01*
X0416266Y0295109D01*
X0417391Y0296234D01*
X0424360Y0303203D01*
X0424968Y0304673D01*
X0424968Y0322319D01*
X0424943Y0322380D01*
X0424943Y0323429D01*
X0425157Y0323429D01*
X0425422Y0323164D01*
X0425310Y0322745D01*
X0425310Y0320527D01*
X0428894Y0320527D01*
X0428894Y0320158D01*
X0425310Y0320158D01*
X0425310Y0317940D01*
X0425433Y0317482D01*
X0425670Y0317072D01*
X0426005Y0316737D01*
X0426415Y0316500D01*
X0426873Y0316377D01*
X0428894Y0316377D01*
X0428894Y0320158D01*
X0429263Y0320158D01*
X0429263Y0316377D01*
X0431284Y0316377D01*
X0431742Y0316500D01*
X0432152Y0316737D01*
X0432488Y0317072D01*
X0432725Y0317482D01*
X0432847Y0317940D01*
X0432847Y0320158D01*
X0429263Y0320158D01*
X0429263Y0320527D01*
X0432847Y0320527D01*
X0432847Y0322745D01*
X0432735Y0323164D01*
X0433082Y0323511D01*
X0433447Y0324393D01*
X0433447Y0329678D01*
X0433082Y0330560D01*
X0432407Y0331235D01*
X0431525Y0331601D01*
X0426633Y0331601D01*
X0426218Y0331429D01*
X0420173Y0331429D01*
X0420112Y0331404D01*
X0418916Y0331404D01*
X0418034Y0331039D01*
X0417359Y0330363D01*
X0416994Y0329481D01*
X0416994Y0328286D01*
X0416969Y0328225D01*
X0416969Y0326633D01*
X0416994Y0326573D01*
X0416994Y0325500D01*
X0403657Y0325500D01*
X0392266Y0336891D01*
X0390796Y0337500D01*
X0264704Y0337500D01*
X0263234Y0336891D01*
X0262109Y0335766D01*
X0251774Y0325431D01*
X0251165Y0323961D01*
X0251165Y0306614D01*
X0250948Y0306397D01*
X0250191Y0304568D01*
X0250191Y0302589D01*
X0250948Y0300761D01*
X0251047Y0300661D01*
X0251047Y0206299D01*
X0250830Y0206082D01*
X0250072Y0204253D01*
X0250072Y0203330D01*
X0250022Y0203380D01*
X0250022Y0206316D01*
X0249657Y0207198D01*
X0248982Y0207873D01*
X0248099Y0208239D01*
X0241995Y0208239D01*
X0241113Y0207873D01*
X0240438Y0207198D01*
X0240072Y0206316D01*
X0240072Y0200212D01*
X0240438Y0199329D01*
X0241113Y0198654D01*
X0241995Y0198289D01*
X0244931Y0198289D01*
X0253772Y0189448D01*
X0255095Y0188900D01*
X0353716Y0188900D01*
X0355039Y0189448D01*
X0356052Y0190461D01*
X0363001Y0197410D01*
X0363549Y0198733D01*
X0363549Y0227747D01*
X0364949Y0227747D01*
X0366367Y0227747D01*
X0366825Y0227870D01*
X0367235Y0228107D01*
X0367570Y0228442D01*
X0367807Y0228852D01*
X0367930Y0229310D01*
X0367930Y0232697D01*
X0367930Y0236083D01*
X0367807Y0236541D01*
X0367570Y0236952D01*
X0367235Y0237287D01*
X0366825Y0237524D01*
X0366367Y0237646D01*
X0364949Y0237646D01*
X0364949Y0232697D01*
X0367930Y0232697D01*
X0364949Y0232697D01*
X0364949Y0232697D01*
X0364949Y0232697D01*
X0364949Y0237646D01*
X0363531Y0237646D01*
X0363073Y0237524D01*
X0362930Y0237441D01*
X0362489Y0237881D01*
X0361607Y0238246D01*
X0358290Y0238246D01*
X0357449Y0237898D01*
X0356607Y0238246D01*
X0353588Y0238246D01*
X0353588Y0248045D01*
X0356647Y0248045D01*
X0357488Y0248393D01*
X0358330Y0248045D01*
X0361388Y0248045D01*
X0361388Y0244796D01*
X0361936Y0243473D01*
X0362949Y0242460D01*
X0365948Y0239461D01*
X0365948Y0239461D01*
X0368948Y0236461D01*
X0368948Y0236461D01*
X0370433Y0234976D01*
X0371756Y0234428D01*
X0461362Y0234428D01*
X0461501Y0234093D01*
X0462176Y0233418D01*
X0463058Y0233053D01*
X0469162Y0233053D01*
X0470045Y0233418D01*
X0470720Y0234093D01*
X0471085Y0234975D01*
X0471085Y0241080D01*
X0470720Y0241962D01*
X0470045Y0242637D01*
X0469162Y0243002D01*
X0463058Y0243002D01*
X0462176Y0242637D01*
X0461501Y0241962D01*
X0461362Y0241628D01*
X0373964Y0241628D01*
X0371039Y0244552D01*
X0368588Y0247003D01*
X0368588Y0254311D01*
X0368569Y0254356D01*
X0368569Y0257221D01*
X0368204Y0258104D01*
X0367529Y0258779D01*
X0366647Y0259144D01*
X0363330Y0259144D01*
X0362488Y0258796D01*
X0361647Y0259144D01*
X0358588Y0259144D01*
X0358588Y0317532D01*
X0358588Y0316808D02*
X0361684Y0316808D01*
X0361684Y0315210D02*
X0358588Y0315210D01*
X0358588Y0313611D02*
X0361684Y0313611D01*
X0361684Y0312013D02*
X0358588Y0312013D01*
X0358588Y0310414D02*
X0361684Y0310414D01*
X0361191Y0308816D02*
X0358588Y0308816D01*
X0358588Y0307217D02*
X0361128Y0307217D01*
X0361128Y0305619D02*
X0358588Y0305619D01*
X0358588Y0304020D02*
X0361128Y0304020D01*
X0361315Y0302422D02*
X0358588Y0302422D01*
X0358588Y0300823D02*
X0361128Y0300823D01*
X0361128Y0299225D02*
X0358588Y0299225D01*
X0358588Y0297626D02*
X0361128Y0297626D01*
X0361399Y0296028D02*
X0358588Y0296028D01*
X0358588Y0294429D02*
X0375414Y0294429D01*
X0377013Y0292831D02*
X0358588Y0292831D01*
X0358588Y0291232D02*
X0378611Y0291232D01*
X0380210Y0289634D02*
X0358588Y0289634D01*
X0358588Y0288035D02*
X0381808Y0288035D01*
X0382000Y0286437D02*
X0358588Y0286437D01*
X0358588Y0284838D02*
X0382000Y0284838D01*
X0382000Y0283239D02*
X0358588Y0283239D01*
X0358588Y0281641D02*
X0382000Y0281641D01*
X0382000Y0280042D02*
X0358588Y0280042D01*
X0358588Y0278444D02*
X0382000Y0278444D01*
X0382000Y0276845D02*
X0358588Y0276845D01*
X0358588Y0275247D02*
X0382000Y0275247D01*
X0382000Y0273648D02*
X0358588Y0273648D01*
X0358588Y0272050D02*
X0382000Y0272050D01*
X0382000Y0270451D02*
X0358588Y0270451D01*
X0358588Y0268853D02*
X0382000Y0268853D01*
X0382000Y0267254D02*
X0358588Y0267254D01*
X0358588Y0265656D02*
X0382000Y0265656D01*
X0382000Y0264057D02*
X0358588Y0264057D01*
X0358588Y0262459D02*
X0382000Y0262459D01*
X0382000Y0260860D02*
X0358588Y0260860D01*
X0358588Y0259262D02*
X0382000Y0259262D01*
X0382000Y0257663D02*
X0368386Y0257663D01*
X0368569Y0256065D02*
X0382000Y0256065D01*
X0382000Y0254466D02*
X0368569Y0254466D01*
X0368588Y0252868D02*
X0382347Y0252868D01*
X0383574Y0251269D02*
X0368588Y0251269D01*
X0368588Y0249671D02*
X0385172Y0249671D01*
X0386771Y0248072D02*
X0368588Y0248072D01*
X0369117Y0246474D02*
X0388369Y0246474D01*
X0389968Y0244875D02*
X0370716Y0244875D01*
X0371039Y0244552D02*
X0371039Y0244552D01*
X0372314Y0243277D02*
X0464580Y0243277D01*
X0467640Y0243277D02*
X0504969Y0243277D01*
X0504969Y0244875D02*
X0469993Y0244875D01*
X0470851Y0246474D02*
X0504969Y0246474D01*
X0504969Y0248072D02*
X0471085Y0248072D01*
X0470814Y0249671D02*
X0504969Y0249671D01*
X0504969Y0251269D02*
X0469904Y0251269D01*
X0467425Y0252868D02*
X0504969Y0252868D01*
X0504969Y0254466D02*
X0468651Y0254466D01*
X0468403Y0254286D02*
X0468960Y0254691D01*
X0469447Y0255178D01*
X0469852Y0255735D01*
X0470165Y0256348D01*
X0470377Y0257003D01*
X0470485Y0257683D01*
X0470485Y0258027D01*
X0466110Y0258027D01*
X0466110Y0258027D01*
X0466110Y0253653D01*
X0465766Y0253653D01*
X0465086Y0253760D01*
X0464431Y0253973D01*
X0463817Y0254286D01*
X0463260Y0254691D01*
X0462773Y0255178D01*
X0462369Y0255735D01*
X0462056Y0256348D01*
X0461843Y0257003D01*
X0461735Y0257683D01*
X0461735Y0258027D01*
X0466110Y0258027D01*
X0466110Y0258028D01*
X0466110Y0262402D01*
X0465766Y0262402D01*
X0465086Y0262295D01*
X0464431Y0262082D01*
X0463817Y0261769D01*
X0463260Y0261364D01*
X0462773Y0260878D01*
X0462369Y0260320D01*
X0462056Y0259707D01*
X0461843Y0259052D01*
X0461735Y0258372D01*
X0461735Y0258028D01*
X0466110Y0258028D01*
X0466110Y0258028D01*
X0466110Y0262402D01*
X0466455Y0262402D01*
X0467135Y0262295D01*
X0467790Y0262082D01*
X0468403Y0261769D01*
X0468960Y0261364D01*
X0469447Y0260878D01*
X0469852Y0260320D01*
X0470165Y0259707D01*
X0470377Y0259052D01*
X0470485Y0258372D01*
X0470485Y0258028D01*
X0466110Y0258028D01*
X0466110Y0258027D01*
X0466110Y0253653D01*
X0466455Y0253653D01*
X0467135Y0253760D01*
X0467790Y0253973D01*
X0468403Y0254286D01*
X0466110Y0254466D02*
X0466110Y0254466D01*
X0466110Y0256065D02*
X0466110Y0256065D01*
X0466110Y0257663D02*
X0466110Y0257663D01*
X0466110Y0259262D02*
X0466110Y0259262D01*
X0466110Y0260860D02*
X0466110Y0260860D01*
X0462761Y0260860D02*
X0390000Y0260860D01*
X0390000Y0259262D02*
X0461911Y0259262D01*
X0461739Y0257663D02*
X0390000Y0257663D01*
X0390092Y0256065D02*
X0462200Y0256065D01*
X0463569Y0254466D02*
X0391691Y0254466D01*
X0393289Y0252868D02*
X0464796Y0252868D01*
X0470020Y0256065D02*
X0504969Y0256065D01*
X0504969Y0257663D02*
X0470482Y0257663D01*
X0470309Y0259262D02*
X0504969Y0259262D01*
X0504969Y0260860D02*
X0469460Y0260860D01*
X0470837Y0241678D02*
X0504969Y0241678D01*
X0504969Y0240080D02*
X0471085Y0240080D01*
X0471085Y0238481D02*
X0504969Y0238481D01*
X0504969Y0236883D02*
X0471085Y0236883D01*
X0471085Y0235284D02*
X0504969Y0235284D01*
X0504969Y0233686D02*
X0470312Y0233686D01*
X0461908Y0233686D02*
X0367930Y0233686D01*
X0367930Y0235284D02*
X0370125Y0235284D01*
X0368526Y0236883D02*
X0367610Y0236883D01*
X0366928Y0238481D02*
X0353588Y0238481D01*
X0353588Y0240080D02*
X0365329Y0240080D01*
X0363731Y0241678D02*
X0353588Y0241678D01*
X0353588Y0243277D02*
X0362132Y0243277D01*
X0362949Y0242460D02*
X0362949Y0242460D01*
X0361388Y0244875D02*
X0353588Y0244875D01*
X0353588Y0246474D02*
X0361388Y0246474D01*
X0358264Y0248072D02*
X0356713Y0248072D01*
X0346388Y0248072D02*
X0268600Y0248072D01*
X0268600Y0246474D02*
X0346388Y0246474D01*
X0346388Y0244875D02*
X0268600Y0244875D01*
X0268600Y0243277D02*
X0346388Y0243277D01*
X0346388Y0241678D02*
X0268600Y0241678D01*
X0268600Y0240080D02*
X0346388Y0240080D01*
X0346388Y0238481D02*
X0268600Y0238481D01*
X0268600Y0236883D02*
X0346388Y0236883D01*
X0346388Y0235284D02*
X0268600Y0235284D01*
X0268600Y0233686D02*
X0346388Y0233686D01*
X0346388Y0232087D02*
X0268600Y0232087D01*
X0268600Y0230489D02*
X0346407Y0230489D01*
X0346482Y0228890D02*
X0268701Y0228890D01*
X0270300Y0227292D02*
X0347981Y0227292D01*
X0350602Y0225693D02*
X0271898Y0225693D01*
X0273497Y0224095D02*
X0349003Y0224095D01*
X0347405Y0222496D02*
X0275095Y0222496D01*
X0276694Y0220898D02*
X0345806Y0220898D01*
X0351193Y0216102D02*
X0356349Y0216102D01*
X0356349Y0217701D02*
X0352792Y0217701D01*
X0354390Y0219299D02*
X0356349Y0219299D01*
X0356349Y0220898D02*
X0355989Y0220898D01*
X0363549Y0220898D02*
X0504969Y0220898D01*
X0504969Y0222496D02*
X0363549Y0222496D01*
X0363549Y0224095D02*
X0504969Y0224095D01*
X0504969Y0225693D02*
X0363549Y0225693D01*
X0363549Y0227292D02*
X0504969Y0227292D01*
X0504969Y0228890D02*
X0367817Y0228890D01*
X0367930Y0230489D02*
X0504969Y0230489D01*
X0504969Y0232087D02*
X0367930Y0232087D01*
X0364949Y0232087D02*
X0364949Y0232087D01*
X0364949Y0232697D02*
X0364949Y0227747D01*
X0364949Y0232697D01*
X0364949Y0232697D01*
X0364949Y0233686D02*
X0364949Y0233686D01*
X0364949Y0235284D02*
X0364949Y0235284D01*
X0364949Y0236883D02*
X0364949Y0236883D01*
X0373913Y0241678D02*
X0461383Y0241678D01*
X0504969Y0262459D02*
X0390000Y0262459D01*
X0390000Y0264057D02*
X0504969Y0264057D01*
X0504969Y0265656D02*
X0390000Y0265656D01*
X0390000Y0267254D02*
X0504969Y0267254D01*
X0504969Y0268853D02*
X0390000Y0268853D01*
X0390000Y0270451D02*
X0504969Y0270451D01*
X0504969Y0272050D02*
X0390000Y0272050D01*
X0390000Y0273648D02*
X0504969Y0273648D01*
X0504969Y0275247D02*
X0390000Y0275247D01*
X0390000Y0276845D02*
X0504969Y0276845D01*
X0504969Y0278444D02*
X0390000Y0278444D01*
X0390000Y0280042D02*
X0504969Y0280042D01*
X0504969Y0281641D02*
X0390000Y0281641D01*
X0390000Y0283239D02*
X0504969Y0283239D01*
X0504969Y0284838D02*
X0390000Y0284838D01*
X0390000Y0286437D02*
X0504969Y0286437D01*
X0504969Y0288035D02*
X0390000Y0288035D01*
X0390000Y0289634D02*
X0504969Y0289634D01*
X0504969Y0291232D02*
X0389612Y0291232D01*
X0388326Y0292831D02*
X0504969Y0292831D01*
X0504969Y0294429D02*
X0386728Y0294429D01*
X0369865Y0304020D02*
X0413863Y0304020D01*
X0415462Y0305619D02*
X0369865Y0305619D01*
X0369865Y0307217D02*
X0416969Y0307217D01*
X0416969Y0308816D02*
X0369801Y0308816D01*
X0369684Y0310414D02*
X0416969Y0310414D01*
X0416969Y0312013D02*
X0369684Y0312013D01*
X0369684Y0313611D02*
X0416969Y0313611D01*
X0416969Y0315210D02*
X0369684Y0315210D01*
X0369684Y0316808D02*
X0416969Y0316808D01*
X0424968Y0316808D02*
X0425934Y0316808D01*
X0425310Y0318407D02*
X0424968Y0318407D01*
X0424968Y0320005D02*
X0425310Y0320005D01*
X0425310Y0321604D02*
X0424968Y0321604D01*
X0424943Y0323202D02*
X0425384Y0323202D01*
X0428894Y0320005D02*
X0429263Y0320005D01*
X0429263Y0318407D02*
X0428894Y0318407D01*
X0428894Y0316808D02*
X0429263Y0316808D01*
X0432224Y0316808D02*
X0504969Y0316808D01*
X0504969Y0315210D02*
X0424968Y0315210D01*
X0424968Y0313611D02*
X0504969Y0313611D01*
X0504969Y0312013D02*
X0424968Y0312013D01*
X0424968Y0310414D02*
X0504969Y0310414D01*
X0504969Y0308816D02*
X0424968Y0308816D01*
X0424968Y0307217D02*
X0504969Y0307217D01*
X0504969Y0305619D02*
X0424968Y0305619D01*
X0424698Y0304020D02*
X0504969Y0304020D01*
X0504969Y0302422D02*
X0423578Y0302422D01*
X0421980Y0300823D02*
X0504969Y0300823D01*
X0504969Y0299225D02*
X0420381Y0299225D01*
X0418783Y0297626D02*
X0504969Y0297626D01*
X0504969Y0296028D02*
X0417184Y0296028D01*
X0432847Y0318407D02*
X0486484Y0318407D01*
X0486916Y0318157D02*
X0489739Y0317401D01*
X0492661Y0317401D01*
X0495484Y0318157D01*
X0498015Y0319618D01*
X0500082Y0321685D01*
X0501543Y0324216D01*
X0502299Y0327039D01*
X0502299Y0329961D01*
X0501543Y0332784D01*
X0500082Y0335315D01*
X0498015Y0337382D01*
X0495484Y0338843D01*
X0492661Y0339599D01*
X0489739Y0339599D01*
X0486916Y0338843D01*
X0484385Y0337382D01*
X0482318Y0335315D01*
X0480857Y0332784D01*
X0480101Y0329961D01*
X0480101Y0327039D01*
X0480857Y0324216D01*
X0482318Y0321685D01*
X0484385Y0319618D01*
X0486916Y0318157D01*
X0483998Y0320005D02*
X0432847Y0320005D01*
X0432847Y0321604D02*
X0482400Y0321604D01*
X0481442Y0323202D02*
X0432774Y0323202D01*
X0433447Y0324801D02*
X0480700Y0324801D01*
X0480272Y0326399D02*
X0433447Y0326399D01*
X0433447Y0327998D02*
X0480101Y0327998D01*
X0480101Y0329596D02*
X0433447Y0329596D01*
X0432447Y0331195D02*
X0480431Y0331195D01*
X0480862Y0332793D02*
X0396364Y0332793D01*
X0397962Y0331195D02*
X0418411Y0331195D01*
X0417041Y0329596D02*
X0399561Y0329596D01*
X0401159Y0327998D02*
X0416969Y0327998D01*
X0416994Y0326399D02*
X0402758Y0326399D01*
X0397838Y0320005D02*
X0371231Y0320005D01*
X0371784Y0321604D02*
X0396239Y0321604D01*
X0394641Y0323202D02*
X0371784Y0323202D01*
X0371357Y0324801D02*
X0393042Y0324801D01*
X0391444Y0326399D02*
X0370467Y0326399D01*
X0368485Y0327998D02*
X0389845Y0327998D01*
X0394765Y0334392D02*
X0481785Y0334392D01*
X0482994Y0335990D02*
X0393166Y0335990D01*
X0399436Y0318407D02*
X0370163Y0318407D01*
X0361206Y0318407D02*
X0359463Y0318407D01*
X0359767Y0326399D02*
X0360902Y0326399D01*
X0362884Y0327998D02*
X0357785Y0327998D01*
X0262334Y0335990D02*
X0211506Y0335990D01*
X0210515Y0336982D02*
X0207984Y0338443D01*
X0205161Y0339199D01*
X0202239Y0339199D01*
X0199416Y0338443D01*
X0196885Y0336982D01*
X0194818Y0334915D01*
X0193357Y0332384D01*
X0192601Y0329561D01*
X0192601Y0326639D01*
X0193357Y0323816D01*
X0194818Y0321285D01*
X0196885Y0319218D01*
X0199416Y0317757D01*
X0202239Y0317001D01*
X0205161Y0317001D01*
X0207984Y0317757D01*
X0210515Y0319218D01*
X0212582Y0321285D01*
X0214043Y0323816D01*
X0214799Y0326639D01*
X0214799Y0329561D01*
X0214043Y0332384D01*
X0212582Y0334915D01*
X0210515Y0336982D01*
X0209463Y0337589D02*
X0484744Y0337589D01*
X0488202Y0339187D02*
X0205205Y0339187D01*
X0202195Y0339187D02*
X0195693Y0339187D01*
X0195762Y0339225D02*
X0197077Y0339715D01*
X0198450Y0340014D01*
X0199850Y0340114D01*
X0495126Y0340114D01*
X0496527Y0340014D01*
X0497899Y0339715D01*
X0499215Y0339225D01*
X0500447Y0338552D01*
X0501571Y0337710D01*
X0502564Y0336717D01*
X0503406Y0335593D01*
X0504079Y0334360D01*
X0504570Y0333045D01*
X0504868Y0331672D01*
X0504969Y0330272D01*
X0504969Y0172791D01*
X0504868Y0171391D01*
X0504570Y0170018D01*
X0504079Y0168703D01*
X0503406Y0167470D01*
X0502564Y0166346D01*
X0501571Y0165353D01*
X0500447Y0164511D01*
X0499215Y0163838D01*
X0497899Y0163348D01*
X0496527Y0163049D01*
X0495126Y0162949D01*
X0199850Y0162949D01*
X0198450Y0163049D01*
X0197077Y0163348D01*
X0195762Y0163838D01*
X0194529Y0164511D01*
X0193405Y0165353D01*
X0192412Y0166346D01*
X0191570Y0167470D01*
X0190897Y0168703D01*
X0190407Y0170018D01*
X0190108Y0171391D01*
X0190008Y0172791D01*
X0190008Y0330272D01*
X0190108Y0331672D01*
X0190407Y0333045D01*
X0190897Y0334360D01*
X0191570Y0335593D01*
X0192412Y0336717D01*
X0193405Y0337710D01*
X0194529Y0338552D01*
X0195762Y0339225D01*
X0197937Y0337589D02*
X0193284Y0337589D01*
X0191868Y0335990D02*
X0195894Y0335990D01*
X0194516Y0334392D02*
X0190914Y0334392D01*
X0190352Y0332793D02*
X0193593Y0332793D01*
X0193039Y0331195D02*
X0190074Y0331195D01*
X0190008Y0329596D02*
X0192610Y0329596D01*
X0192601Y0327998D02*
X0190008Y0327998D01*
X0190008Y0326399D02*
X0192665Y0326399D01*
X0193093Y0324801D02*
X0190008Y0324801D01*
X0190008Y0323202D02*
X0193711Y0323202D01*
X0194634Y0321604D02*
X0190008Y0321604D01*
X0190008Y0320005D02*
X0196098Y0320005D01*
X0198291Y0318407D02*
X0190008Y0318407D01*
X0190008Y0316808D02*
X0251165Y0316808D01*
X0251165Y0315210D02*
X0190008Y0315210D01*
X0190008Y0313611D02*
X0251165Y0313611D01*
X0251165Y0312013D02*
X0190008Y0312013D01*
X0190008Y0310414D02*
X0251165Y0310414D01*
X0251165Y0308816D02*
X0190008Y0308816D01*
X0190008Y0307217D02*
X0242730Y0307217D01*
X0242872Y0307320D02*
X0242315Y0306916D01*
X0241828Y0306429D01*
X0241424Y0305872D01*
X0241111Y0305258D01*
X0240898Y0304603D01*
X0240791Y0303923D01*
X0240791Y0303579D01*
X0245165Y0303579D01*
X0245165Y0303579D01*
X0245165Y0307954D01*
X0244821Y0307954D01*
X0244141Y0307846D01*
X0243486Y0307633D01*
X0242872Y0307320D01*
X0245165Y0307217D02*
X0245165Y0307217D01*
X0245165Y0307954D02*
X0245510Y0307954D01*
X0246190Y0307846D01*
X0246845Y0307633D01*
X0247458Y0307320D01*
X0248015Y0306916D01*
X0248502Y0306429D01*
X0248907Y0305872D01*
X0249220Y0305258D01*
X0249432Y0304603D01*
X0249540Y0303923D01*
X0249540Y0303579D01*
X0245165Y0303579D01*
X0245165Y0303579D01*
X0240791Y0303579D01*
X0240791Y0303234D01*
X0240898Y0302554D01*
X0241111Y0301899D01*
X0241424Y0301286D01*
X0241828Y0300729D01*
X0242315Y0300242D01*
X0242872Y0299837D01*
X0243486Y0299524D01*
X0244141Y0299312D01*
X0244821Y0299204D01*
X0245165Y0299204D01*
X0245165Y0303579D01*
X0245165Y0307954D01*
X0245165Y0305619D02*
X0245165Y0305619D01*
X0245165Y0304020D02*
X0245165Y0304020D01*
X0245165Y0303579D02*
X0245165Y0303579D01*
X0245165Y0303579D01*
X0245165Y0299204D01*
X0245510Y0299204D01*
X0246190Y0299312D01*
X0246845Y0299524D01*
X0247458Y0299837D01*
X0248015Y0300242D01*
X0248502Y0300729D01*
X0248907Y0301286D01*
X0249220Y0301899D01*
X0249432Y0302554D01*
X0249540Y0303234D01*
X0249540Y0303579D01*
X0245165Y0303579D01*
X0245165Y0302422D02*
X0245165Y0302422D01*
X0245165Y0300823D02*
X0245165Y0300823D01*
X0245165Y0299225D02*
X0245165Y0299225D01*
X0244691Y0299225D02*
X0190008Y0299225D01*
X0190008Y0300823D02*
X0241760Y0300823D01*
X0240941Y0302422D02*
X0190008Y0302422D01*
X0190008Y0304020D02*
X0240806Y0304020D01*
X0241295Y0305619D02*
X0190008Y0305619D01*
X0190008Y0297626D02*
X0251047Y0297626D01*
X0251047Y0296028D02*
X0190008Y0296028D01*
X0190008Y0294429D02*
X0251047Y0294429D01*
X0251047Y0292831D02*
X0190008Y0292831D01*
X0190008Y0291232D02*
X0251047Y0291232D01*
X0251047Y0289634D02*
X0190008Y0289634D01*
X0190008Y0288035D02*
X0251047Y0288035D01*
X0251047Y0286437D02*
X0190008Y0286437D01*
X0190008Y0284838D02*
X0251047Y0284838D01*
X0251047Y0283239D02*
X0190008Y0283239D01*
X0190008Y0281641D02*
X0251047Y0281641D01*
X0251047Y0280042D02*
X0190008Y0280042D01*
X0190008Y0278444D02*
X0251047Y0278444D01*
X0251047Y0276845D02*
X0190008Y0276845D01*
X0190008Y0275247D02*
X0251047Y0275247D01*
X0251047Y0273648D02*
X0190008Y0273648D01*
X0190008Y0272050D02*
X0251047Y0272050D01*
X0251047Y0270451D02*
X0190008Y0270451D01*
X0190008Y0268853D02*
X0251047Y0268853D01*
X0251047Y0267254D02*
X0190008Y0267254D01*
X0190008Y0265656D02*
X0251047Y0265656D01*
X0251047Y0264057D02*
X0190008Y0264057D01*
X0190008Y0262459D02*
X0251047Y0262459D01*
X0251047Y0260860D02*
X0190008Y0260860D01*
X0190008Y0259262D02*
X0251047Y0259262D01*
X0251047Y0257663D02*
X0190008Y0257663D01*
X0190008Y0256065D02*
X0251047Y0256065D01*
X0251047Y0254466D02*
X0190008Y0254466D01*
X0190008Y0252868D02*
X0251047Y0252868D01*
X0251047Y0251269D02*
X0190008Y0251269D01*
X0190008Y0249671D02*
X0251047Y0249671D01*
X0251047Y0248072D02*
X0190008Y0248072D01*
X0190008Y0246474D02*
X0251047Y0246474D01*
X0251047Y0244875D02*
X0190008Y0244875D01*
X0190008Y0243277D02*
X0251047Y0243277D01*
X0251047Y0241678D02*
X0190008Y0241678D01*
X0190008Y0240080D02*
X0251047Y0240080D01*
X0251047Y0238481D02*
X0190008Y0238481D01*
X0190008Y0236883D02*
X0251047Y0236883D01*
X0251047Y0235284D02*
X0190008Y0235284D01*
X0190008Y0233686D02*
X0251047Y0233686D01*
X0251047Y0232087D02*
X0190008Y0232087D01*
X0190008Y0230489D02*
X0251047Y0230489D01*
X0251047Y0228890D02*
X0190008Y0228890D01*
X0190008Y0227292D02*
X0251047Y0227292D01*
X0251047Y0225693D02*
X0190008Y0225693D01*
X0190008Y0224095D02*
X0251047Y0224095D01*
X0251047Y0222496D02*
X0190008Y0222496D01*
X0190008Y0220898D02*
X0251047Y0220898D01*
X0251047Y0219299D02*
X0190008Y0219299D01*
X0190008Y0217701D02*
X0251047Y0217701D01*
X0251047Y0216102D02*
X0190008Y0216102D01*
X0190008Y0214503D02*
X0251047Y0214503D01*
X0251047Y0212905D02*
X0190008Y0212905D01*
X0190008Y0211306D02*
X0251047Y0211306D01*
X0251047Y0209708D02*
X0190008Y0209708D01*
X0190008Y0208109D02*
X0241683Y0208109D01*
X0240153Y0206511D02*
X0190008Y0206511D01*
X0190008Y0204912D02*
X0240072Y0204912D01*
X0240072Y0203314D02*
X0190008Y0203314D01*
X0190008Y0201715D02*
X0240072Y0201715D01*
X0240112Y0200117D02*
X0190008Y0200117D01*
X0190008Y0198518D02*
X0241441Y0198518D01*
X0246300Y0196920D02*
X0190008Y0196920D01*
X0190008Y0195321D02*
X0247898Y0195321D01*
X0249497Y0193723D02*
X0190008Y0193723D01*
X0190008Y0192124D02*
X0251096Y0192124D01*
X0252694Y0190526D02*
X0190008Y0190526D01*
X0190008Y0188927D02*
X0255029Y0188927D01*
X0256482Y0196920D02*
X0352329Y0196920D01*
X0353927Y0198518D02*
X0256591Y0198518D01*
X0258936Y0200117D02*
X0262007Y0200117D01*
X0262197Y0199927D02*
X0262754Y0199522D01*
X0263368Y0199209D01*
X0264023Y0198997D01*
X0264703Y0198889D01*
X0265047Y0198889D01*
X0265047Y0203264D01*
X0265047Y0203264D01*
X0260672Y0203264D01*
X0260672Y0203608D01*
X0260780Y0204288D01*
X0260993Y0204943D01*
X0261306Y0205557D01*
X0261710Y0206114D01*
X0262197Y0206601D01*
X0262754Y0207005D01*
X0263368Y0207318D01*
X0264023Y0207531D01*
X0264703Y0207639D01*
X0265047Y0207639D01*
X0265047Y0203264D01*
X0265047Y0203264D01*
X0260672Y0203264D01*
X0260672Y0202919D01*
X0260780Y0202239D01*
X0260993Y0201584D01*
X0261306Y0200971D01*
X0261710Y0200414D01*
X0262197Y0199927D01*
X0260950Y0201715D02*
X0259791Y0201715D01*
X0260022Y0203314D02*
X0260672Y0203314D01*
X0260983Y0204912D02*
X0259749Y0204912D01*
X0259047Y0206511D02*
X0262107Y0206511D01*
X0265047Y0206511D02*
X0265047Y0206511D01*
X0265047Y0207639D02*
X0265047Y0203264D01*
X0265047Y0203264D01*
X0269422Y0203264D01*
X0269422Y0203608D01*
X0269314Y0204288D01*
X0269102Y0204943D01*
X0268789Y0205557D01*
X0268384Y0206114D01*
X0267897Y0206601D01*
X0267340Y0207005D01*
X0266727Y0207318D01*
X0266072Y0207531D01*
X0265392Y0207639D01*
X0265047Y0207639D01*
X0265047Y0204912D02*
X0265047Y0204912D01*
X0265047Y0203314D02*
X0265047Y0203314D01*
X0265047Y0203264D02*
X0265047Y0203264D01*
X0265047Y0198889D01*
X0265392Y0198889D01*
X0266072Y0198997D01*
X0266727Y0199209D01*
X0267340Y0199522D01*
X0267897Y0199927D01*
X0268384Y0200414D01*
X0268789Y0200971D01*
X0269102Y0201584D01*
X0269314Y0202239D01*
X0269422Y0202919D01*
X0269422Y0203264D01*
X0265047Y0203264D01*
X0265047Y0201715D02*
X0265047Y0201715D01*
X0265047Y0200117D02*
X0265047Y0200117D01*
X0268087Y0200117D02*
X0355526Y0200117D01*
X0356349Y0201715D02*
X0269144Y0201715D01*
X0269422Y0203314D02*
X0356349Y0203314D01*
X0356349Y0204912D02*
X0269112Y0204912D01*
X0267987Y0206511D02*
X0356349Y0206511D01*
X0356349Y0208109D02*
X0259047Y0208109D01*
X0259047Y0209708D02*
X0356349Y0209708D01*
X0356349Y0211306D02*
X0259047Y0211306D01*
X0251047Y0208109D02*
X0248411Y0208109D01*
X0249941Y0206511D02*
X0251047Y0206511D01*
X0250345Y0204912D02*
X0250022Y0204912D01*
X0212782Y0181815D02*
X0210715Y0183882D01*
X0208184Y0185343D01*
X0205361Y0186099D01*
X0202439Y0186099D01*
X0199616Y0185343D01*
X0197085Y0183882D01*
X0195018Y0181815D01*
X0193557Y0179284D01*
X0192801Y0176461D01*
X0192801Y0173539D01*
X0193557Y0170716D01*
X0195018Y0168185D01*
X0197085Y0166118D01*
X0199616Y0164657D01*
X0202439Y0163901D01*
X0205361Y0163901D01*
X0208184Y0164657D01*
X0210715Y0166118D01*
X0212782Y0168185D01*
X0214243Y0170716D01*
X0214999Y0173539D01*
X0214999Y0176461D01*
X0214243Y0179284D01*
X0212782Y0181815D01*
X0212063Y0182533D02*
X0482937Y0182533D01*
X0482918Y0182515D02*
X0481457Y0179984D01*
X0480701Y0177161D01*
X0480701Y0174239D01*
X0481457Y0171416D01*
X0482918Y0168885D01*
X0484985Y0166818D01*
X0487516Y0165357D01*
X0490339Y0164601D01*
X0493261Y0164601D01*
X0496084Y0165357D01*
X0498615Y0166818D01*
X0500682Y0168885D01*
X0502143Y0171416D01*
X0502899Y0174239D01*
X0502899Y0177161D01*
X0502143Y0179984D01*
X0500682Y0182515D01*
X0498615Y0184582D01*
X0496084Y0186043D01*
X0493261Y0186799D01*
X0490339Y0186799D01*
X0487516Y0186043D01*
X0484985Y0184582D01*
X0482918Y0182515D01*
X0482006Y0180935D02*
X0213290Y0180935D01*
X0214213Y0179336D02*
X0481284Y0179336D01*
X0480855Y0177738D02*
X0214657Y0177738D01*
X0214999Y0176139D02*
X0480701Y0176139D01*
X0480701Y0174541D02*
X0214999Y0174541D01*
X0214839Y0172942D02*
X0481048Y0172942D01*
X0481499Y0171344D02*
X0214411Y0171344D01*
X0213682Y0169745D02*
X0482422Y0169745D01*
X0483657Y0168147D02*
X0212743Y0168147D01*
X0211145Y0166548D02*
X0485453Y0166548D01*
X0489037Y0164950D02*
X0208691Y0164950D01*
X0199109Y0164950D02*
X0193944Y0164950D01*
X0192260Y0166548D02*
X0196655Y0166548D01*
X0195057Y0168147D02*
X0191201Y0168147D01*
X0190508Y0169745D02*
X0194118Y0169745D01*
X0193389Y0171344D02*
X0190118Y0171344D01*
X0190008Y0172942D02*
X0192961Y0172942D01*
X0192801Y0174541D02*
X0190008Y0174541D01*
X0190008Y0176139D02*
X0192801Y0176139D01*
X0193143Y0177738D02*
X0190008Y0177738D01*
X0190008Y0179336D02*
X0193587Y0179336D01*
X0194510Y0180935D02*
X0190008Y0180935D01*
X0190008Y0182533D02*
X0195737Y0182533D01*
X0197518Y0184132D02*
X0190008Y0184132D01*
X0190008Y0185730D02*
X0201062Y0185730D01*
X0206738Y0185730D02*
X0486975Y0185730D01*
X0484535Y0184132D02*
X0210282Y0184132D01*
X0190008Y0187329D02*
X0504969Y0187329D01*
X0504969Y0188927D02*
X0353782Y0188927D01*
X0356117Y0190526D02*
X0504969Y0190526D01*
X0504969Y0192124D02*
X0357716Y0192124D01*
X0359314Y0193723D02*
X0504969Y0193723D01*
X0504969Y0195321D02*
X0360913Y0195321D01*
X0362511Y0196920D02*
X0504969Y0196920D01*
X0504969Y0198518D02*
X0363460Y0198518D01*
X0363549Y0200117D02*
X0504969Y0200117D01*
X0504969Y0201715D02*
X0363549Y0201715D01*
X0363549Y0203314D02*
X0504969Y0203314D01*
X0504969Y0204912D02*
X0363549Y0204912D01*
X0363549Y0206511D02*
X0504969Y0206511D01*
X0504969Y0208109D02*
X0363549Y0208109D01*
X0363549Y0209708D02*
X0504969Y0209708D01*
X0504969Y0211306D02*
X0363549Y0211306D01*
X0363549Y0212905D02*
X0504969Y0212905D01*
X0504969Y0214503D02*
X0363549Y0214503D01*
X0363549Y0216102D02*
X0504969Y0216102D01*
X0504969Y0217701D02*
X0363549Y0217701D01*
X0363549Y0219299D02*
X0504969Y0219299D01*
X0504969Y0185730D02*
X0496625Y0185730D01*
X0499065Y0184132D02*
X0504969Y0184132D01*
X0504969Y0182533D02*
X0500663Y0182533D01*
X0501594Y0180935D02*
X0504969Y0180935D01*
X0504969Y0179336D02*
X0502316Y0179336D01*
X0502745Y0177738D02*
X0504969Y0177738D01*
X0504969Y0176139D02*
X0502899Y0176139D01*
X0502899Y0174541D02*
X0504969Y0174541D01*
X0504969Y0172942D02*
X0502552Y0172942D01*
X0502101Y0171344D02*
X0504858Y0171344D01*
X0504468Y0169745D02*
X0501178Y0169745D01*
X0499943Y0168147D02*
X0503776Y0168147D01*
X0502716Y0166548D02*
X0498147Y0166548D01*
X0497909Y0163351D02*
X0197068Y0163351D01*
X0347228Y0212905D02*
X0356349Y0212905D01*
X0356349Y0214503D02*
X0349595Y0214503D01*
X0364949Y0228890D02*
X0364949Y0228890D01*
X0364949Y0230489D02*
X0364949Y0230489D01*
X0346388Y0249671D02*
X0342618Y0249671D01*
X0251047Y0299225D02*
X0245640Y0299225D01*
X0248571Y0300823D02*
X0250922Y0300823D01*
X0250260Y0302422D02*
X0249389Y0302422D01*
X0249525Y0304020D02*
X0250191Y0304020D01*
X0250626Y0305619D02*
X0249036Y0305619D01*
X0247600Y0307217D02*
X0251165Y0307217D01*
X0251165Y0318407D02*
X0209109Y0318407D01*
X0211302Y0320005D02*
X0251165Y0320005D01*
X0251165Y0321604D02*
X0212766Y0321604D01*
X0213689Y0323202D02*
X0251165Y0323202D01*
X0251513Y0324801D02*
X0214307Y0324801D01*
X0214735Y0326399D02*
X0252742Y0326399D01*
X0254341Y0327998D02*
X0214799Y0327998D01*
X0214790Y0329596D02*
X0255939Y0329596D01*
X0257538Y0331195D02*
X0214361Y0331195D01*
X0213807Y0332793D02*
X0259136Y0332793D01*
X0260735Y0334392D02*
X0212884Y0334392D01*
X0494198Y0339187D02*
X0499283Y0339187D01*
X0497656Y0337589D02*
X0501693Y0337589D01*
X0503109Y0335990D02*
X0499406Y0335990D01*
X0500615Y0334392D02*
X0504062Y0334392D01*
X0504624Y0332793D02*
X0501537Y0332793D01*
X0501969Y0331195D02*
X0504902Y0331195D01*
X0504969Y0329596D02*
X0502299Y0329596D01*
X0502299Y0327998D02*
X0504969Y0327998D01*
X0504969Y0326399D02*
X0502128Y0326399D01*
X0501700Y0324801D02*
X0504969Y0324801D01*
X0504969Y0323202D02*
X0500958Y0323202D01*
X0500000Y0321604D02*
X0504969Y0321604D01*
X0504969Y0320005D02*
X0498402Y0320005D01*
X0495916Y0318407D02*
X0504969Y0318407D01*
X0501033Y0164950D02*
X0494563Y0164950D01*
D21*
X0424000Y0222500D02*
X0401000Y0222500D01*
X0392472Y0248028D02*
X0386000Y0254500D01*
X0386000Y0289500D01*
X0377000Y0298500D01*
X0414000Y0298500D01*
X0420969Y0305469D01*
X0420969Y0321524D01*
X0420945Y0321500D01*
X0402000Y0321500D01*
X0390000Y0333500D01*
X0265500Y0333500D01*
X0255165Y0323165D01*
X0255165Y0309665D01*
X0255165Y0303579D01*
X0255047Y0303461D01*
X0255047Y0203264D01*
X0303000Y0253500D02*
X0288000Y0268500D01*
X0288000Y0307500D01*
X0280000Y0315500D01*
X0261000Y0315500D01*
X0255165Y0309665D01*
X0303000Y0253500D02*
X0337984Y0253500D01*
X0338520Y0252965D01*
X0392472Y0248028D02*
X0466110Y0248028D01*
X0377000Y0298500D02*
X0366323Y0298500D01*
X0365496Y0299327D01*
X0365496Y0306020D02*
X0365684Y0306208D01*
X0365684Y0322555D01*
X0420969Y0327429D02*
X0428685Y0327429D01*
X0429079Y0327035D01*
D22*
X0354988Y0322551D02*
X0354984Y0322555D01*
X0354988Y0322551D02*
X0354988Y0253594D01*
X0349988Y0253594D02*
X0349988Y0232697D01*
X0354949Y0232697D02*
X0354949Y0224949D01*
X0346500Y0216500D01*
X0276000Y0216500D01*
X0265000Y0227500D01*
X0265000Y0303413D01*
X0265165Y0303579D01*
X0338520Y0252965D02*
X0339150Y0253594D01*
X0349988Y0253594D01*
X0364988Y0253594D02*
X0364988Y0245512D01*
X0369000Y0241500D01*
X0372000Y0238500D01*
X0372472Y0238028D01*
X0466110Y0238028D01*
X0359949Y0232697D02*
X0359949Y0199449D01*
X0353000Y0192500D01*
X0255811Y0192500D01*
X0245047Y0203264D01*
M02*
