G75*
%MOIN*%
%OFA0B0*%
%FSLAX24Y24*%
%IPPOS*%
%LPD*%
%AMOC8*
5,1,8,0,0,1.08239X$1,22.5*
%
%ADD10C,0.0000*%
%ADD11R,0.0010X0.0010*%
%ADD12R,0.0040X0.0010*%
%ADD13R,0.0050X0.0010*%
%ADD14R,0.0060X0.0010*%
%ADD15R,0.0100X0.0010*%
%ADD16R,0.0080X0.0010*%
%ADD17R,0.0120X0.0010*%
%ADD18R,0.0030X0.0010*%
%ADD19R,0.0140X0.0010*%
%ADD20R,0.0160X0.0010*%
%ADD21R,0.0070X0.0010*%
%ADD22R,0.0210X0.0010*%
%ADD23R,0.0270X0.0010*%
%ADD24R,0.0290X0.0010*%
%ADD25R,0.0220X0.0010*%
%ADD26R,0.0090X0.0010*%
%ADD27R,0.0110X0.0010*%
%ADD28R,0.0230X0.0010*%
%ADD29R,0.0610X0.0010*%
%ADD30R,0.0020X0.0010*%
%ADD31R,0.0240X0.0010*%
%ADD32R,0.0250X0.0010*%
%ADD33R,0.0260X0.0010*%
%ADD34R,0.0470X0.0010*%
%ADD35R,0.0460X0.0010*%
%ADD36R,0.0500X0.0010*%
%ADD37R,0.0130X0.0010*%
%ADD38R,0.0280X0.0010*%
%ADD39R,0.0150X0.0010*%
%ADD40R,0.0170X0.0010*%
%ADD41R,0.0200X0.0010*%
%ADD42R,0.0300X0.0010*%
%ADD43R,0.0370X0.0010*%
%ADD44R,0.0190X0.0010*%
%ADD45R,0.0010X0.0040*%
%ADD46R,0.0010X0.0070*%
%ADD47R,0.0010X0.0100*%
%ADD48R,0.0010X0.0090*%
%ADD49R,0.0010X0.0120*%
%ADD50R,0.0010X0.0050*%
%ADD51R,0.0010X0.0130*%
%ADD52R,0.0010X0.0110*%
%ADD53R,0.0010X0.0520*%
%ADD54R,0.0010X0.0030*%
%ADD55R,0.0010X0.0150*%
%ADD56R,0.0010X0.0170*%
%ADD57R,0.0010X0.0210*%
%ADD58R,0.0010X0.0160*%
%ADD59R,0.0010X0.0200*%
%ADD60R,0.0010X0.0480*%
%ADD61R,0.0010X0.0060*%
%ADD62R,0.0010X0.0080*%
%ADD63R,0.0010X0.0220*%
%ADD64R,0.0010X0.0300*%
%ADD65R,0.0010X0.0370*%
%ADD66R,0.0010X0.0230*%
%ADD67C,0.0040*%
%ADD68R,0.0180X0.0010*%
%ADD69R,0.0320X0.0010*%
%ADD70R,0.0340X0.0010*%
%ADD71R,0.0380X0.0010*%
%ADD72R,0.0390X0.0010*%
%ADD73R,0.0350X0.0010*%
%ADD74R,0.0410X0.0010*%
%ADD75R,0.0420X0.0010*%
%ADD76R,0.0310X0.0010*%
%ADD77R,0.0440X0.0010*%
%ADD78R,0.0330X0.0010*%
%ADD79R,0.0360X0.0010*%
%ADD80R,0.0400X0.0010*%
%ADD81R,0.0480X0.0010*%
%ADD82R,0.0430X0.0010*%
%ADD83R,0.0490X0.0010*%
%ADD84R,0.0450X0.0010*%
%ADD85R,0.0520X0.0010*%
%ADD86R,0.0570X0.0010*%
%ADD87R,0.0670X0.0010*%
%ADD88R,0.0720X0.0010*%
%ADD89R,0.0780X0.0010*%
%ADD90R,0.0830X0.0010*%
%ADD91R,0.0890X0.0010*%
%ADD92R,0.0790X0.0010*%
%ADD93R,0.0700X0.0010*%
%ADD94R,0.0530X0.0010*%
%ADD95R,0.0540X0.0010*%
%ADD96R,0.1210X0.0010*%
%ADD97R,0.0590X0.0010*%
%ADD98R,0.0640X0.0010*%
%ADD99R,0.1140X0.0010*%
%ADD100R,0.0660X0.0010*%
%ADD101R,0.0650X0.0010*%
%ADD102R,0.0920X0.0010*%
%ADD103R,0.0910X0.0010*%
%ADD104R,0.1160X0.0010*%
%ADD105R,0.0900X0.0010*%
%ADD106R,0.1250X0.0010*%
%ADD107R,0.1260X0.0010*%
%ADD108R,0.0680X0.0010*%
%ADD109R,0.0600X0.0010*%
%ADD110R,0.1660X0.0010*%
%ADD111R,0.1300X0.0010*%
%ADD112R,0.1130X0.0010*%
%ADD113C,0.0150*%
%ADD114C,0.0030*%
%ADD115C,0.0050*%
%ADD116C,0.0060*%
%ADD117C,0.0020*%
%ADD118R,0.0089X0.0098*%
%ADD119C,0.0080*%
%ADD120C,0.0070*%
%ADD121R,0.0300X0.0180*%
%ADD122R,0.0014X0.0007*%
%ADD123R,0.0014X0.0007*%
%ADD124R,0.0014X0.0007*%
%ADD125R,0.0014X0.0007*%
%ADD126R,0.0021X0.0007*%
%ADD127R,0.0028X0.0007*%
%ADD128R,0.0028X0.0007*%
%ADD129R,0.0035X0.0007*%
%ADD130R,0.0042X0.0007*%
%ADD131R,0.0042X0.0007*%
%ADD132R,0.0042X0.0007*%
%ADD133R,0.0049X0.0007*%
%ADD134R,0.0056X0.0007*%
%ADD135R,0.0063X0.0007*%
%ADD136R,0.0063X0.0007*%
%ADD137R,0.0077X0.0007*%
%ADD138R,0.0077X0.0007*%
%ADD139R,0.0077X0.0007*%
%ADD140R,0.0077X0.0007*%
%ADD141R,0.0084X0.0007*%
%ADD142R,0.0091X0.0007*%
%ADD143R,0.0091X0.0007*%
%ADD144R,0.0105X0.0007*%
%ADD145R,0.0112X0.0007*%
%ADD146R,0.0112X0.0007*%
%ADD147R,0.0119X0.0007*%
%ADD148R,0.0133X0.0007*%
%ADD149R,0.0133X0.0007*%
%ADD150R,0.0140X0.0007*%
%ADD151R,0.0147X0.0007*%
%ADD152R,0.0161X0.0007*%
%ADD153R,0.0168X0.0007*%
%ADD154R,0.0168X0.0007*%
%ADD155R,0.0168X0.0007*%
%ADD156R,0.0168X0.0007*%
%ADD157R,0.0175X0.0007*%
%ADD158R,0.0189X0.0007*%
%ADD159R,0.0196X0.0007*%
%ADD160R,0.0203X0.0007*%
%ADD161R,0.0203X0.0007*%
%ADD162R,0.0203X0.0007*%
%ADD163R,0.0203X0.0007*%
%ADD164R,0.0217X0.0007*%
%ADD165R,0.0217X0.0007*%
%ADD166R,0.0224X0.0007*%
%ADD167R,0.0231X0.0007*%
%ADD168R,0.0231X0.0007*%
%ADD169R,0.0238X0.0007*%
%ADD170R,0.0231X0.0007*%
%ADD171R,0.0245X0.0007*%
%ADD172R,0.0252X0.0007*%
%ADD173R,0.0252X0.0007*%
%ADD174R,0.0259X0.0007*%
%ADD175R,0.0273X0.0007*%
%ADD176R,0.0273X0.0007*%
%ADD177R,0.0273X0.0007*%
%ADD178R,0.0273X0.0007*%
%ADD179R,0.0280X0.0007*%
%ADD180R,0.0287X0.0007*%
%ADD181R,0.0301X0.0007*%
%ADD182R,0.0301X0.0007*%
%ADD183R,0.0308X0.0007*%
%ADD184R,0.0308X0.0007*%
%ADD185R,0.0315X0.0007*%
%ADD186R,0.0322X0.0007*%
%ADD187R,0.0322X0.0007*%
%ADD188R,0.0336X0.0007*%
%ADD189R,0.0336X0.0007*%
%ADD190R,0.0343X0.0007*%
%ADD191R,0.0343X0.0007*%
%ADD192R,0.0350X0.0007*%
%ADD193R,0.0364X0.0007*%
%ADD194R,0.0364X0.0007*%
%ADD195R,0.0371X0.0007*%
%ADD196R,0.0371X0.0007*%
%ADD197R,0.0378X0.0007*%
%ADD198R,0.0378X0.0007*%
%ADD199R,0.0392X0.0007*%
%ADD200R,0.0392X0.0007*%
%ADD201R,0.0399X0.0007*%
%ADD202R,0.0399X0.0007*%
%ADD203R,0.0406X0.0007*%
%ADD204R,0.0406X0.0007*%
%ADD205R,0.0420X0.0007*%
%ADD206R,0.0427X0.0007*%
%ADD207R,0.0434X0.0007*%
%ADD208R,0.0434X0.0007*%
%ADD209R,0.0448X0.0007*%
%ADD210R,0.0448X0.0007*%
%ADD211R,0.0455X0.0007*%
%ADD212R,0.0462X0.0007*%
%ADD213R,0.0462X0.0007*%
%ADD214R,0.0469X0.0007*%
%ADD215R,0.0476X0.0007*%
%ADD216R,0.0483X0.0007*%
%ADD217R,0.0483X0.0007*%
%ADD218R,0.0490X0.0007*%
%ADD219R,0.0504X0.0007*%
%ADD220R,0.0511X0.0007*%
%ADD221R,0.0511X0.0007*%
%ADD222R,0.0518X0.0007*%
%ADD223R,0.0518X0.0007*%
%ADD224R,0.0532X0.0007*%
%ADD225R,0.0532X0.0007*%
%ADD226R,0.0532X0.0007*%
%ADD227R,0.0532X0.0007*%
%ADD228R,0.0539X0.0007*%
%ADD229R,0.0546X0.0007*%
%ADD230R,0.0546X0.0007*%
%ADD231R,0.0560X0.0007*%
%ADD232R,0.1127X0.0007*%
%ADD233R,0.1127X0.0007*%
%ADD234R,0.1099X0.0007*%
%ADD235R,0.1057X0.0007*%
%ADD236R,0.1001X0.0007*%
%ADD237R,0.0945X0.0007*%
%ADD238R,0.0903X0.0007*%
%ADD239R,0.0847X0.0007*%
%ADD240R,0.0791X0.0007*%
%ADD241R,0.0742X0.0007*%
%ADD242R,0.0693X0.0007*%
%ADD243R,0.0637X0.0007*%
%ADD244R,0.0581X0.0007*%
%ADD245R,0.0539X0.0007*%
%ADD246R,0.0427X0.0007*%
%ADD247R,0.0378X0.0007*%
%ADD248R,0.0280X0.0007*%
%ADD249R,0.0007X0.0007*%
%ADD250R,0.0007X0.0007*%
%ADD251R,0.0315X0.0007*%
%ADD252R,0.1379X0.0007*%
%ADD253R,0.1379X0.0007*%
%ADD254R,0.1386X0.0007*%
%ADD255R,0.1393X0.0007*%
%ADD256R,0.1393X0.0007*%
%ADD257R,0.0329X0.0007*%
%ADD258R,0.0070X0.0007*%
%ADD259R,0.0049X0.0007*%
%ADD260R,0.0049X0.0007*%
%ADD261R,0.0350X0.0007*%
%ADD262R,0.0070X0.0007*%
%ADD263R,0.0021X0.0007*%
%ADD264R,0.0357X0.0007*%
%ADD265R,0.0063X0.0007*%
%ADD266R,0.0035X0.0007*%
%ADD267R,0.0028X0.0007*%
%ADD268R,0.0364X0.0007*%
%ADD269R,0.0343X0.0007*%
%ADD270R,0.0042X0.0007*%
%ADD271R,0.0056X0.0007*%
%ADD272R,0.0364X0.0007*%
%ADD273R,0.0357X0.0007*%
%ADD274R,0.0028X0.0007*%
%ADD275R,0.0371X0.0007*%
%ADD276R,0.0007X0.0007*%
%ADD277R,0.0056X0.0007*%
%ADD278R,0.0378X0.0007*%
%ADD279R,0.0063X0.0007*%
%ADD280R,0.0392X0.0007*%
%ADD281R,0.0021X0.0007*%
%ADD282R,0.0385X0.0007*%
%ADD283R,0.0385X0.0007*%
%ADD284R,0.0007X0.0007*%
%ADD285R,0.0049X0.0007*%
%ADD286R,0.0357X0.0007*%
%ADD287R,0.0392X0.0007*%
%ADD288R,0.0406X0.0007*%
%ADD289R,0.1435X0.0007*%
%ADD290R,0.1442X0.0007*%
%ADD291R,0.1449X0.0007*%
%ADD292R,0.1449X0.0007*%
%ADD293R,0.0721X0.0007*%
%ADD294R,0.0721X0.0007*%
%ADD295R,0.0721X0.0007*%
%ADD296R,0.0714X0.0007*%
%ADD297R,0.0707X0.0007*%
%ADD298R,0.0707X0.0007*%
%ADD299R,0.0700X0.0007*%
%ADD300R,0.0693X0.0007*%
%ADD301R,0.0686X0.0007*%
%ADD302R,0.0686X0.0007*%
%ADD303R,0.0679X0.0007*%
%ADD304R,0.0679X0.0007*%
%ADD305R,0.0672X0.0007*%
%ADD306R,0.0665X0.0007*%
%ADD307R,0.0665X0.0007*%
%ADD308R,0.0658X0.0007*%
%ADD309R,0.0658X0.0007*%
%ADD310R,0.0658X0.0007*%
%ADD311R,0.0651X0.0007*%
%ADD312R,0.0644X0.0007*%
%ADD313R,0.0644X0.0007*%
%ADD314R,0.0644X0.0007*%
%ADD315R,0.0637X0.0007*%
%ADD316R,0.0637X0.0007*%
%ADD317R,0.0630X0.0007*%
%ADD318R,0.0630X0.0007*%
%ADD319R,0.0623X0.0007*%
%ADD320R,0.0623X0.0007*%
%ADD321R,0.0616X0.0007*%
%ADD322R,0.0623X0.0007*%
%ADD323R,0.0609X0.0007*%
%ADD324R,0.0609X0.0007*%
%ADD325R,0.0602X0.0007*%
%ADD326R,0.0602X0.0007*%
%ADD327R,0.0602X0.0007*%
%ADD328R,0.0595X0.0007*%
%ADD329R,0.0602X0.0007*%
%ADD330R,0.0588X0.0007*%
%ADD331R,0.0588X0.0007*%
%ADD332R,0.0581X0.0007*%
%ADD333R,0.0581X0.0007*%
%ADD334R,0.0574X0.0007*%
%ADD335R,0.0574X0.0007*%
%ADD336R,0.0567X0.0007*%
%ADD337R,0.0567X0.0007*%
%ADD338R,0.0553X0.0007*%
%ADD339R,0.0546X0.0007*%
%ADD340R,0.0553X0.0007*%
%ADD341R,0.0553X0.0007*%
%ADD342R,0.0539X0.0007*%
%ADD343R,0.0525X0.0007*%
%ADD344R,0.0525X0.0007*%
%ADD345R,0.0518X0.0007*%
%ADD346R,0.0511X0.0007*%
%ADD347R,0.0504X0.0007*%
%ADD348R,0.0497X0.0007*%
%ADD349R,0.0497X0.0007*%
%ADD350R,0.0497X0.0007*%
%ADD351R,0.0490X0.0007*%
%ADD352R,0.0469X0.0007*%
%ADD353R,0.0462X0.0007*%
%ADD354R,0.0441X0.0007*%
%ADD355R,0.0441X0.0007*%
%ADD356R,0.0441X0.0007*%
%ADD357R,0.0441X0.0007*%
%ADD358R,0.0427X0.0007*%
%ADD359R,0.0413X0.0007*%
%ADD360R,0.0420X0.0007*%
%ADD361R,0.0413X0.0007*%
%ADD362R,0.0399X0.0007*%
%ADD363R,0.0399X0.0007*%
%ADD364R,0.0357X0.0007*%
%ADD365R,0.0329X0.0007*%
%ADD366R,0.0322X0.0007*%
%ADD367R,0.0322X0.0007*%
%ADD368R,0.0308X0.0007*%
%ADD369R,0.0308X0.0007*%
%ADD370R,0.0301X0.0007*%
%ADD371R,0.0294X0.0007*%
%ADD372R,0.0294X0.0007*%
%ADD373R,0.0287X0.0007*%
%ADD374R,0.0287X0.0007*%
%ADD375R,0.0287X0.0007*%
%ADD376R,0.0266X0.0007*%
%ADD377R,0.0266X0.0007*%
%ADD378R,0.0266X0.0007*%
%ADD379R,0.0259X0.0007*%
%ADD380R,0.0259X0.0007*%
%ADD381R,0.0252X0.0007*%
%ADD382R,0.0245X0.0007*%
%ADD383R,0.0238X0.0007*%
%ADD384R,0.0238X0.0007*%
%ADD385R,0.0231X0.0007*%
%ADD386R,0.0224X0.0007*%
%ADD387R,0.0224X0.0007*%
%ADD388R,0.0224X0.0007*%
%ADD389R,0.0217X0.0007*%
%ADD390R,0.0210X0.0007*%
%ADD391R,0.0196X0.0007*%
%ADD392R,0.0189X0.0007*%
%ADD393R,0.0182X0.0007*%
%ADD394R,0.0182X0.0007*%
%ADD395R,0.0182X0.0007*%
%ADD396R,0.0175X0.0007*%
%ADD397R,0.0154X0.0007*%
%ADD398R,0.0154X0.0007*%
%ADD399R,0.0147X0.0007*%
%ADD400R,0.0147X0.0007*%
%ADD401R,0.0140X0.0007*%
%ADD402R,0.0133X0.0007*%
%ADD403R,0.0133X0.0007*%
%ADD404R,0.0126X0.0007*%
%ADD405R,0.0126X0.0007*%
%ADD406R,0.0112X0.0007*%
%ADD407R,0.0119X0.0007*%
%ADD408R,0.0112X0.0007*%
%ADD409R,0.0105X0.0007*%
%ADD410R,0.0098X0.0007*%
D10*
X000303Y000300D02*
X000310Y000300D01*
X000313Y000303D01*
X000310Y000300D01*
X000303Y000300D01*
X000300Y000303D01*
X000300Y000317D01*
X000303Y000320D01*
X000310Y000320D01*
X000313Y000317D01*
X000310Y000320D01*
X000303Y000320D01*
X000300Y000317D01*
X000300Y000303D01*
X000303Y000300D01*
X000310Y000300D01*
X000313Y000303D01*
X000310Y000300D01*
X000303Y000300D01*
X000300Y000303D01*
X000300Y000317D01*
X000303Y000320D01*
X000310Y000320D01*
X000313Y000317D01*
X000310Y000320D01*
X000303Y000320D01*
X000300Y000317D01*
X000300Y000303D01*
X000303Y000300D01*
X000310Y000300D01*
X000313Y000303D01*
X000310Y000300D01*
X000303Y000300D01*
X000300Y000303D01*
X000300Y000317D01*
X000303Y000320D01*
X000310Y000320D01*
X000313Y000317D01*
X000310Y000320D01*
X000303Y000320D01*
X000300Y000317D01*
X000300Y000303D01*
X000303Y000300D01*
X000310Y000300D01*
X000313Y000303D01*
X000310Y000300D01*
X000303Y000300D01*
X000300Y000303D01*
X000300Y000317D01*
X000303Y000320D01*
X000310Y000320D01*
X000313Y000317D01*
X000310Y000320D01*
X000303Y000320D01*
X000300Y000317D01*
X000300Y000303D01*
X000303Y000300D01*
X000318Y000300D02*
X000318Y000303D01*
X000322Y000303D01*
X000322Y000300D01*
X000318Y000300D01*
X000318Y000303D01*
X000322Y000303D01*
X000322Y000300D01*
X000318Y000300D01*
X000318Y000303D01*
X000322Y000303D01*
X000322Y000300D01*
X000318Y000300D01*
X000318Y000303D01*
X000322Y000303D01*
X000322Y000300D01*
X000318Y000300D01*
X000318Y000303D01*
X000322Y000303D01*
X000322Y000300D01*
X000318Y000300D01*
X000318Y000303D01*
X000322Y000303D01*
X000322Y000300D01*
X000318Y000300D01*
X000318Y000303D01*
X000322Y000303D01*
X000322Y000300D01*
X000318Y000300D01*
X000318Y000303D01*
X000322Y000303D01*
X000322Y000300D01*
X000318Y000300D01*
X000328Y000300D02*
X000341Y000320D01*
X000328Y000300D01*
X000341Y000320D01*
X000328Y000300D01*
X000341Y000320D01*
X000328Y000300D01*
X000341Y000320D01*
X000328Y000300D01*
X000322Y000310D02*
X000318Y000310D01*
X000318Y000313D01*
X000322Y000313D01*
X000322Y000310D01*
X000318Y000310D01*
X000318Y000313D01*
X000322Y000313D01*
X000322Y000310D01*
X000318Y000310D01*
X000318Y000313D01*
X000322Y000313D01*
X000322Y000310D01*
X000318Y000310D01*
X000318Y000313D01*
X000322Y000313D01*
X000322Y000310D01*
X000318Y000310D01*
X000318Y000313D01*
X000322Y000313D01*
X000322Y000310D01*
X000318Y000310D01*
X000318Y000313D01*
X000322Y000313D01*
X000322Y000310D01*
X000318Y000310D01*
X000318Y000313D01*
X000322Y000313D01*
X000322Y000310D01*
X000318Y000310D01*
X000318Y000313D01*
X000322Y000313D01*
X000322Y000310D01*
X000346Y000303D02*
X000349Y000300D01*
X000356Y000300D01*
X000359Y000303D01*
X000359Y000320D01*
X000359Y000303D01*
X000356Y000300D01*
X000349Y000300D01*
X000346Y000303D01*
X000346Y000320D01*
X000346Y000303D01*
X000349Y000300D01*
X000356Y000300D01*
X000359Y000303D01*
X000359Y000320D01*
X000359Y000303D01*
X000356Y000300D01*
X000349Y000300D01*
X000346Y000303D01*
X000346Y000320D01*
X000346Y000303D01*
X000349Y000300D01*
X000356Y000300D01*
X000359Y000303D01*
X000359Y000320D01*
X000359Y000303D01*
X000356Y000300D01*
X000349Y000300D01*
X000346Y000303D01*
X000346Y000320D01*
X000346Y000303D01*
X000349Y000300D01*
X000356Y000300D01*
X000359Y000303D01*
X000359Y000320D01*
X000359Y000303D01*
X000356Y000300D01*
X000349Y000300D01*
X000346Y000303D01*
X000346Y000320D01*
X000346Y000303D01*
X000364Y000300D02*
X000374Y000300D01*
X000378Y000303D01*
X000374Y000307D01*
X000368Y000307D01*
X000364Y000310D01*
X000368Y000313D01*
X000378Y000313D01*
X000368Y000313D01*
X000364Y000310D01*
X000368Y000307D01*
X000374Y000307D01*
X000378Y000303D01*
X000374Y000300D01*
X000364Y000300D01*
X000374Y000300D01*
X000378Y000303D01*
X000374Y000307D01*
X000368Y000307D01*
X000364Y000310D01*
X000368Y000313D01*
X000378Y000313D01*
X000368Y000313D01*
X000364Y000310D01*
X000368Y000307D01*
X000374Y000307D01*
X000378Y000303D01*
X000374Y000300D01*
X000364Y000300D01*
X000374Y000300D01*
X000378Y000303D01*
X000374Y000307D01*
X000368Y000307D01*
X000364Y000310D01*
X000368Y000313D01*
X000378Y000313D01*
X000368Y000313D01*
X000364Y000310D01*
X000368Y000307D01*
X000374Y000307D01*
X000378Y000303D01*
X000374Y000300D01*
X000364Y000300D01*
X000374Y000300D01*
X000378Y000303D01*
X000374Y000307D01*
X000368Y000307D01*
X000364Y000310D01*
X000368Y000313D01*
X000378Y000313D01*
X000368Y000313D01*
X000364Y000310D01*
X000368Y000307D01*
X000374Y000307D01*
X000378Y000303D01*
X000374Y000300D01*
X000364Y000300D01*
X000383Y000303D02*
X000383Y000310D01*
X000386Y000313D01*
X000393Y000313D01*
X000396Y000310D01*
X000396Y000307D01*
X000383Y000307D01*
X000396Y000307D01*
X000396Y000310D01*
X000393Y000313D01*
X000386Y000313D01*
X000383Y000310D01*
X000383Y000303D01*
X000386Y000300D01*
X000393Y000300D01*
X000386Y000300D01*
X000383Y000303D01*
X000383Y000310D01*
X000386Y000313D01*
X000393Y000313D01*
X000396Y000310D01*
X000396Y000307D01*
X000383Y000307D01*
X000396Y000307D01*
X000396Y000310D01*
X000393Y000313D01*
X000386Y000313D01*
X000383Y000310D01*
X000383Y000303D01*
X000386Y000300D01*
X000393Y000300D01*
X000386Y000300D01*
X000383Y000303D01*
X000383Y000310D01*
X000386Y000313D01*
X000393Y000313D01*
X000396Y000310D01*
X000396Y000307D01*
X000383Y000307D01*
X000396Y000307D01*
X000396Y000310D01*
X000393Y000313D01*
X000386Y000313D01*
X000383Y000310D01*
X000383Y000303D01*
X000386Y000300D01*
X000393Y000300D01*
X000386Y000300D01*
X000383Y000303D01*
X000383Y000310D01*
X000386Y000313D01*
X000393Y000313D01*
X000396Y000310D01*
X000396Y000307D01*
X000383Y000307D01*
X000396Y000307D01*
X000396Y000310D01*
X000393Y000313D01*
X000386Y000313D01*
X000383Y000310D01*
X000383Y000303D01*
X000386Y000300D01*
X000393Y000300D01*
X000386Y000300D01*
X000383Y000303D01*
X000401Y000300D02*
X000401Y000313D01*
X000401Y000300D01*
X000401Y000313D01*
X000401Y000300D01*
X000401Y000313D01*
X000401Y000300D01*
X000401Y000313D01*
X000401Y000300D01*
X000401Y000307D02*
X000408Y000313D01*
X000411Y000313D01*
X000408Y000313D01*
X000401Y000307D01*
X000408Y000313D01*
X000411Y000313D01*
X000408Y000313D01*
X000401Y000307D01*
X000408Y000313D01*
X000411Y000313D01*
X000408Y000313D01*
X000401Y000307D01*
X000408Y000313D01*
X000411Y000313D01*
X000408Y000313D01*
X000401Y000307D01*
X000417Y000310D02*
X000420Y000313D01*
X000430Y000313D01*
X000420Y000313D01*
X000417Y000310D01*
X000420Y000307D01*
X000427Y000307D01*
X000430Y000303D01*
X000427Y000300D01*
X000417Y000300D01*
X000427Y000300D01*
X000430Y000303D01*
X000427Y000307D01*
X000420Y000307D01*
X000417Y000310D01*
X000420Y000313D01*
X000430Y000313D01*
X000420Y000313D01*
X000417Y000310D01*
X000420Y000307D01*
X000427Y000307D01*
X000430Y000303D01*
X000427Y000300D01*
X000417Y000300D01*
X000427Y000300D01*
X000430Y000303D01*
X000427Y000307D01*
X000420Y000307D01*
X000417Y000310D01*
X000420Y000313D01*
X000430Y000313D01*
X000420Y000313D01*
X000417Y000310D01*
X000420Y000307D01*
X000427Y000307D01*
X000430Y000303D01*
X000427Y000300D01*
X000417Y000300D01*
X000427Y000300D01*
X000430Y000303D01*
X000427Y000307D01*
X000420Y000307D01*
X000417Y000310D01*
X000420Y000313D01*
X000430Y000313D01*
X000420Y000313D01*
X000417Y000310D01*
X000420Y000307D01*
X000427Y000307D01*
X000430Y000303D01*
X000427Y000300D01*
X000417Y000300D01*
X000427Y000300D01*
X000430Y000303D01*
X000427Y000307D01*
X000420Y000307D01*
X000417Y000310D01*
X000435Y000300D02*
X000448Y000320D01*
X000435Y000300D01*
X000448Y000320D01*
X000435Y000300D01*
X000448Y000320D01*
X000435Y000300D01*
X000448Y000320D01*
X000435Y000300D01*
X000453Y000300D02*
X000467Y000320D01*
X000453Y000300D01*
X000467Y000320D01*
X000453Y000300D01*
X000467Y000320D01*
X000453Y000300D01*
X000467Y000320D01*
X000453Y000300D01*
X000467Y000300D02*
X000453Y000320D01*
X000467Y000300D01*
X000453Y000320D01*
X000467Y000300D01*
X000453Y000320D01*
X000467Y000300D01*
X000453Y000320D01*
X000467Y000300D01*
X000472Y000300D02*
X000479Y000300D01*
X000472Y000300D01*
X000479Y000300D01*
X000472Y000300D01*
X000479Y000300D01*
X000472Y000300D01*
X000479Y000300D01*
X000472Y000300D01*
X000475Y000300D02*
X000475Y000313D01*
X000472Y000313D01*
X000475Y000313D01*
X000475Y000300D01*
X000475Y000313D01*
X000472Y000313D01*
X000475Y000313D01*
X000475Y000300D01*
X000475Y000313D01*
X000472Y000313D01*
X000475Y000313D01*
X000475Y000300D01*
X000475Y000313D01*
X000472Y000313D01*
X000475Y000313D01*
X000475Y000300D01*
X000484Y000303D02*
X000487Y000307D01*
X000497Y000307D01*
X000487Y000307D01*
X000484Y000303D01*
X000487Y000300D01*
X000497Y000300D01*
X000497Y000310D01*
X000494Y000313D01*
X000487Y000313D01*
X000494Y000313D01*
X000497Y000310D01*
X000497Y000300D01*
X000487Y000300D01*
X000484Y000303D01*
X000487Y000307D01*
X000497Y000307D01*
X000487Y000307D01*
X000484Y000303D01*
X000487Y000300D01*
X000497Y000300D01*
X000497Y000310D01*
X000494Y000313D01*
X000487Y000313D01*
X000494Y000313D01*
X000497Y000310D01*
X000497Y000300D01*
X000487Y000300D01*
X000484Y000303D01*
X000487Y000307D01*
X000497Y000307D01*
X000487Y000307D01*
X000484Y000303D01*
X000487Y000300D01*
X000497Y000300D01*
X000497Y000310D01*
X000494Y000313D01*
X000487Y000313D01*
X000494Y000313D01*
X000497Y000310D01*
X000497Y000300D01*
X000487Y000300D01*
X000484Y000303D01*
X000487Y000307D01*
X000497Y000307D01*
X000487Y000307D01*
X000484Y000303D01*
X000487Y000300D01*
X000497Y000300D01*
X000497Y000310D01*
X000494Y000313D01*
X000487Y000313D01*
X000494Y000313D01*
X000497Y000310D01*
X000497Y000300D01*
X000487Y000300D01*
X000484Y000303D01*
X000503Y000300D02*
X000503Y000313D01*
X000513Y000313D01*
X000516Y000310D01*
X000516Y000300D01*
X000516Y000310D01*
X000513Y000313D01*
X000503Y000313D01*
X000503Y000300D01*
X000503Y000313D01*
X000513Y000313D01*
X000516Y000310D01*
X000516Y000300D01*
X000516Y000310D01*
X000513Y000313D01*
X000503Y000313D01*
X000503Y000300D01*
X000503Y000313D01*
X000513Y000313D01*
X000516Y000310D01*
X000516Y000300D01*
X000516Y000310D01*
X000513Y000313D01*
X000503Y000313D01*
X000503Y000300D01*
X000503Y000313D01*
X000513Y000313D01*
X000516Y000310D01*
X000516Y000300D01*
X000516Y000310D01*
X000513Y000313D01*
X000503Y000313D01*
X000503Y000300D01*
X000521Y000303D02*
X000524Y000300D01*
X000534Y000300D01*
X000524Y000300D01*
X000521Y000303D01*
X000521Y000310D01*
X000524Y000313D01*
X000534Y000313D01*
X000534Y000297D01*
X000531Y000293D01*
X000528Y000293D01*
X000531Y000293D01*
X000534Y000297D01*
X000534Y000313D01*
X000524Y000313D01*
X000521Y000310D01*
X000521Y000303D01*
X000524Y000300D01*
X000534Y000300D01*
X000524Y000300D01*
X000521Y000303D01*
X000521Y000310D01*
X000524Y000313D01*
X000534Y000313D01*
X000534Y000297D01*
X000531Y000293D01*
X000528Y000293D01*
X000531Y000293D01*
X000534Y000297D01*
X000534Y000313D01*
X000524Y000313D01*
X000521Y000310D01*
X000521Y000303D01*
X000524Y000300D01*
X000534Y000300D01*
X000524Y000300D01*
X000521Y000303D01*
X000521Y000310D01*
X000524Y000313D01*
X000534Y000313D01*
X000534Y000297D01*
X000531Y000293D01*
X000528Y000293D01*
X000531Y000293D01*
X000534Y000297D01*
X000534Y000313D01*
X000524Y000313D01*
X000521Y000310D01*
X000521Y000303D01*
X000524Y000300D01*
X000534Y000300D01*
X000524Y000300D01*
X000521Y000303D01*
X000521Y000310D01*
X000524Y000313D01*
X000534Y000313D01*
X000534Y000297D01*
X000531Y000293D01*
X000528Y000293D01*
X000531Y000293D01*
X000534Y000297D01*
X000534Y000313D01*
X000524Y000313D01*
X000521Y000310D01*
X000521Y000303D01*
X000539Y000300D02*
X000553Y000300D01*
X000539Y000300D01*
X000553Y000313D01*
X000539Y000313D01*
X000553Y000313D01*
X000539Y000300D01*
X000553Y000300D01*
X000539Y000300D01*
X000553Y000313D01*
X000539Y000313D01*
X000553Y000313D01*
X000539Y000300D01*
X000553Y000300D01*
X000539Y000300D01*
X000553Y000313D01*
X000539Y000313D01*
X000553Y000313D01*
X000539Y000300D01*
X000553Y000300D01*
X000539Y000300D01*
X000553Y000313D01*
X000539Y000313D01*
X000553Y000313D01*
X000539Y000300D01*
X000558Y000300D02*
X000564Y000300D01*
X000558Y000300D01*
X000564Y000300D01*
X000558Y000300D01*
X000564Y000300D01*
X000558Y000300D01*
X000564Y000300D01*
X000558Y000300D01*
X000561Y000300D02*
X000561Y000313D01*
X000558Y000313D01*
X000561Y000313D01*
X000561Y000300D01*
X000561Y000313D01*
X000558Y000313D01*
X000561Y000313D01*
X000561Y000300D01*
X000561Y000313D01*
X000558Y000313D01*
X000561Y000313D01*
X000561Y000300D01*
X000561Y000313D01*
X000558Y000313D01*
X000561Y000313D01*
X000561Y000300D01*
X000570Y000300D02*
X000583Y000320D01*
X000570Y000300D01*
X000583Y000320D01*
X000570Y000300D01*
X000583Y000320D01*
X000570Y000300D01*
X000583Y000320D01*
X000570Y000300D01*
X000589Y000300D02*
X000599Y000300D01*
X000602Y000303D01*
X000602Y000317D01*
X000599Y000320D01*
X000589Y000320D01*
X000589Y000300D01*
X000599Y000300D01*
X000602Y000303D01*
X000602Y000317D01*
X000599Y000320D01*
X000589Y000320D01*
X000589Y000300D01*
X000599Y000300D01*
X000602Y000303D01*
X000602Y000317D01*
X000599Y000320D01*
X000589Y000320D01*
X000589Y000300D01*
X000599Y000300D01*
X000602Y000303D01*
X000602Y000317D01*
X000599Y000320D01*
X000589Y000320D01*
X000589Y000300D01*
X000599Y000300D01*
X000602Y000303D01*
X000602Y000317D01*
X000599Y000320D01*
X000589Y000320D01*
X000589Y000300D01*
X000599Y000300D01*
X000602Y000303D01*
X000602Y000317D01*
X000599Y000320D01*
X000589Y000320D01*
X000589Y000300D01*
X000599Y000300D01*
X000602Y000303D01*
X000602Y000317D01*
X000599Y000320D01*
X000589Y000320D01*
X000589Y000300D01*
X000599Y000300D01*
X000602Y000303D01*
X000602Y000317D01*
X000599Y000320D01*
X000589Y000320D01*
X000589Y000300D01*
X000607Y000303D02*
X000607Y000310D01*
X000610Y000313D01*
X000617Y000313D01*
X000620Y000310D01*
X000620Y000307D01*
X000607Y000307D01*
X000620Y000307D01*
X000620Y000310D01*
X000617Y000313D01*
X000610Y000313D01*
X000607Y000310D01*
X000607Y000303D01*
X000610Y000300D01*
X000617Y000300D01*
X000610Y000300D01*
X000607Y000303D01*
X000607Y000310D01*
X000610Y000313D01*
X000617Y000313D01*
X000620Y000310D01*
X000620Y000307D01*
X000607Y000307D01*
X000620Y000307D01*
X000620Y000310D01*
X000617Y000313D01*
X000610Y000313D01*
X000607Y000310D01*
X000607Y000303D01*
X000610Y000300D01*
X000617Y000300D01*
X000610Y000300D01*
X000607Y000303D01*
X000607Y000310D01*
X000610Y000313D01*
X000617Y000313D01*
X000620Y000310D01*
X000620Y000307D01*
X000607Y000307D01*
X000620Y000307D01*
X000620Y000310D01*
X000617Y000313D01*
X000610Y000313D01*
X000607Y000310D01*
X000607Y000303D01*
X000610Y000300D01*
X000617Y000300D01*
X000610Y000300D01*
X000607Y000303D01*
X000607Y000310D01*
X000610Y000313D01*
X000617Y000313D01*
X000620Y000310D01*
X000620Y000307D01*
X000607Y000307D01*
X000620Y000307D01*
X000620Y000310D01*
X000617Y000313D01*
X000610Y000313D01*
X000607Y000310D01*
X000607Y000303D01*
X000610Y000300D01*
X000617Y000300D01*
X000610Y000300D01*
X000607Y000303D01*
X000625Y000300D02*
X000635Y000300D01*
X000639Y000303D01*
X000635Y000307D01*
X000629Y000307D01*
X000625Y000310D01*
X000629Y000313D01*
X000639Y000313D01*
X000629Y000313D01*
X000625Y000310D01*
X000629Y000307D01*
X000635Y000307D01*
X000639Y000303D01*
X000635Y000300D01*
X000625Y000300D01*
X000635Y000300D01*
X000639Y000303D01*
X000635Y000307D01*
X000629Y000307D01*
X000625Y000310D01*
X000629Y000313D01*
X000639Y000313D01*
X000629Y000313D01*
X000625Y000310D01*
X000629Y000307D01*
X000635Y000307D01*
X000639Y000303D01*
X000635Y000300D01*
X000625Y000300D01*
X000635Y000300D01*
X000639Y000303D01*
X000635Y000307D01*
X000629Y000307D01*
X000625Y000310D01*
X000629Y000313D01*
X000639Y000313D01*
X000629Y000313D01*
X000625Y000310D01*
X000629Y000307D01*
X000635Y000307D01*
X000639Y000303D01*
X000635Y000300D01*
X000625Y000300D01*
X000635Y000300D01*
X000639Y000303D01*
X000635Y000307D01*
X000629Y000307D01*
X000625Y000310D01*
X000629Y000313D01*
X000639Y000313D01*
X000629Y000313D01*
X000625Y000310D01*
X000629Y000307D01*
X000635Y000307D01*
X000639Y000303D01*
X000635Y000300D01*
X000625Y000300D01*
X000644Y000300D02*
X000644Y000320D01*
X000644Y000300D01*
X000644Y000320D01*
X000644Y000300D01*
X000644Y000320D01*
X000644Y000300D01*
X000644Y000320D01*
X000644Y000300D01*
X000644Y000307D02*
X000654Y000313D01*
X000644Y000307D01*
X000654Y000300D01*
X000644Y000307D01*
X000654Y000313D01*
X000644Y000307D01*
X000654Y000300D01*
X000644Y000307D01*
X000654Y000313D01*
X000644Y000307D01*
X000654Y000300D01*
X000644Y000307D01*
X000654Y000313D01*
X000644Y000307D01*
X000654Y000300D01*
X000644Y000307D01*
X000659Y000313D02*
X000666Y000313D01*
X000659Y000313D01*
X000666Y000313D01*
X000659Y000313D01*
X000666Y000313D01*
X000659Y000313D01*
X000666Y000313D01*
X000659Y000313D01*
X000662Y000317D02*
X000662Y000303D01*
X000666Y000300D01*
X000662Y000303D01*
X000662Y000317D01*
X000662Y000303D01*
X000666Y000300D01*
X000662Y000303D01*
X000662Y000317D01*
X000662Y000303D01*
X000666Y000300D01*
X000662Y000303D01*
X000662Y000317D01*
X000662Y000303D01*
X000666Y000300D01*
X000662Y000303D01*
X000662Y000317D01*
X000671Y000310D02*
X000671Y000303D01*
X000675Y000300D01*
X000681Y000300D01*
X000685Y000303D01*
X000685Y000310D01*
X000681Y000313D01*
X000675Y000313D01*
X000671Y000310D01*
X000671Y000303D01*
X000675Y000300D01*
X000681Y000300D01*
X000685Y000303D01*
X000685Y000310D01*
X000681Y000313D01*
X000675Y000313D01*
X000671Y000310D01*
X000671Y000303D01*
X000675Y000300D01*
X000681Y000300D01*
X000685Y000303D01*
X000685Y000310D01*
X000681Y000313D01*
X000675Y000313D01*
X000671Y000310D01*
X000671Y000303D01*
X000675Y000300D01*
X000681Y000300D01*
X000685Y000303D01*
X000685Y000310D01*
X000681Y000313D01*
X000675Y000313D01*
X000671Y000310D01*
X000671Y000303D01*
X000675Y000300D01*
X000681Y000300D01*
X000685Y000303D01*
X000685Y000310D01*
X000681Y000313D01*
X000675Y000313D01*
X000671Y000310D01*
X000671Y000303D01*
X000675Y000300D01*
X000681Y000300D01*
X000685Y000303D01*
X000685Y000310D01*
X000681Y000313D01*
X000675Y000313D01*
X000671Y000310D01*
X000671Y000303D01*
X000675Y000300D01*
X000681Y000300D01*
X000685Y000303D01*
X000685Y000310D01*
X000681Y000313D01*
X000675Y000313D01*
X000671Y000310D01*
X000671Y000303D01*
X000675Y000300D01*
X000681Y000300D01*
X000685Y000303D01*
X000685Y000310D01*
X000681Y000313D01*
X000675Y000313D01*
X000671Y000310D01*
X000690Y000313D02*
X000700Y000313D01*
X000703Y000310D01*
X000703Y000303D01*
X000700Y000300D01*
X000690Y000300D01*
X000700Y000300D01*
X000703Y000303D01*
X000703Y000310D01*
X000700Y000313D01*
X000690Y000313D01*
X000690Y000293D01*
X000690Y000313D01*
X000700Y000313D01*
X000703Y000310D01*
X000703Y000303D01*
X000700Y000300D01*
X000690Y000300D01*
X000700Y000300D01*
X000703Y000303D01*
X000703Y000310D01*
X000700Y000313D01*
X000690Y000313D01*
X000690Y000293D01*
X000690Y000313D01*
X000700Y000313D01*
X000703Y000310D01*
X000703Y000303D01*
X000700Y000300D01*
X000690Y000300D01*
X000700Y000300D01*
X000703Y000303D01*
X000703Y000310D01*
X000700Y000313D01*
X000690Y000313D01*
X000690Y000293D01*
X000690Y000313D01*
X000700Y000313D01*
X000703Y000310D01*
X000703Y000303D01*
X000700Y000300D01*
X000690Y000300D01*
X000700Y000300D01*
X000703Y000303D01*
X000703Y000310D01*
X000700Y000313D01*
X000690Y000313D01*
X000690Y000293D01*
X000690Y000313D01*
X000708Y000300D02*
X000722Y000320D01*
X000708Y000300D01*
X000722Y000320D01*
X000708Y000300D01*
X000722Y000320D01*
X000708Y000300D01*
X000722Y000320D01*
X000708Y000300D01*
X000727Y000297D02*
X000727Y000320D01*
X000727Y000297D01*
X000727Y000320D01*
X000727Y000297D01*
X000727Y000320D01*
X000727Y000297D01*
X000727Y000320D01*
X000727Y000297D01*
X000733Y000297D02*
X000733Y000320D01*
X000733Y000297D01*
X000733Y000320D01*
X000733Y000297D01*
X000733Y000320D01*
X000733Y000297D01*
X000733Y000320D01*
X000733Y000297D01*
X000739Y000303D02*
X000742Y000300D01*
X000752Y000300D01*
X000752Y000313D01*
X000752Y000300D01*
X000742Y000300D01*
X000739Y000303D01*
X000739Y000313D01*
X000739Y000303D01*
X000742Y000300D01*
X000752Y000300D01*
X000752Y000313D01*
X000752Y000300D01*
X000742Y000300D01*
X000739Y000303D01*
X000739Y000313D01*
X000739Y000303D01*
X000742Y000300D01*
X000752Y000300D01*
X000752Y000313D01*
X000752Y000300D01*
X000742Y000300D01*
X000739Y000303D01*
X000739Y000313D01*
X000739Y000303D01*
X000742Y000300D01*
X000752Y000300D01*
X000752Y000313D01*
X000752Y000300D01*
X000742Y000300D01*
X000739Y000303D01*
X000739Y000313D01*
X000739Y000303D01*
X000740Y000307D02*
X000733Y000307D01*
X000740Y000307D01*
X000733Y000307D01*
X000740Y000307D01*
X000733Y000307D01*
X000740Y000307D01*
X000733Y000307D01*
X000740Y000307D01*
X000739Y000320D02*
X000746Y000327D01*
X000752Y000320D01*
X000746Y000327D01*
X000739Y000320D01*
X000746Y000327D01*
X000752Y000320D01*
X000746Y000327D01*
X000739Y000320D01*
X000746Y000327D01*
X000752Y000320D01*
X000746Y000327D01*
X000739Y000320D01*
X000746Y000327D01*
X000752Y000320D01*
X000746Y000327D01*
X000739Y000320D01*
X000757Y000320D02*
X000767Y000320D01*
X000771Y000317D01*
X000771Y000310D01*
X000771Y000317D01*
X000767Y000320D01*
X000757Y000320D01*
X000757Y000310D01*
X000757Y000320D01*
X000767Y000320D01*
X000771Y000317D01*
X000771Y000310D01*
X000771Y000317D01*
X000767Y000320D01*
X000757Y000320D01*
X000757Y000310D01*
X000757Y000320D01*
X000767Y000320D01*
X000771Y000317D01*
X000771Y000310D01*
X000771Y000317D01*
X000767Y000320D01*
X000757Y000320D01*
X000757Y000310D01*
X000757Y000320D01*
X000767Y000320D01*
X000771Y000317D01*
X000771Y000310D01*
X000771Y000317D01*
X000767Y000320D01*
X000757Y000320D01*
X000757Y000310D01*
X000757Y000320D01*
X000776Y000313D02*
X000782Y000320D01*
X000789Y000313D01*
X000789Y000300D01*
X000802Y000300D01*
X000789Y000300D01*
X000789Y000313D01*
X000789Y000320D01*
X000802Y000320D01*
X000789Y000320D01*
X000789Y000313D01*
X000782Y000320D01*
X000776Y000313D01*
X000776Y000300D01*
X000776Y000313D01*
X000782Y000320D01*
X000789Y000313D01*
X000789Y000300D01*
X000802Y000300D01*
X000789Y000300D01*
X000789Y000313D01*
X000789Y000320D01*
X000802Y000320D01*
X000789Y000320D01*
X000789Y000313D01*
X000782Y000320D01*
X000776Y000313D01*
X000776Y000300D01*
X000776Y000313D01*
X000782Y000320D01*
X000789Y000313D01*
X000789Y000300D01*
X000802Y000300D01*
X000789Y000300D01*
X000789Y000313D01*
X000789Y000320D01*
X000802Y000320D01*
X000789Y000320D01*
X000789Y000313D01*
X000782Y000320D01*
X000776Y000313D01*
X000776Y000300D01*
X000776Y000313D01*
X000782Y000320D01*
X000789Y000313D01*
X000789Y000300D01*
X000802Y000300D01*
X000789Y000300D01*
X000789Y000313D01*
X000789Y000320D01*
X000802Y000320D01*
X000789Y000320D01*
X000789Y000313D01*
X000782Y000320D01*
X000776Y000313D01*
X000776Y000300D01*
X000776Y000313D01*
X000776Y000310D02*
X000796Y000310D01*
X000776Y000310D01*
X000796Y000310D01*
X000776Y000310D01*
X000796Y000310D01*
X000776Y000310D01*
X000796Y000310D01*
X000776Y000310D01*
X000806Y000300D02*
X000820Y000320D01*
X000806Y000300D01*
X000820Y000320D01*
X000806Y000300D01*
X000820Y000320D01*
X000806Y000300D01*
X000820Y000320D01*
X000806Y000300D01*
X000825Y000300D02*
X000838Y000320D01*
X000840Y000320D02*
X000840Y000323D01*
X000840Y000320D01*
X000840Y000323D01*
X000843Y000320D02*
X000850Y000313D01*
X000857Y000320D01*
X000857Y000300D01*
X000856Y000300D02*
X000850Y000300D01*
X000846Y000303D01*
X000846Y000310D01*
X000850Y000313D01*
X000856Y000313D01*
X000860Y000310D01*
X000860Y000307D01*
X000846Y000307D01*
X000860Y000307D01*
X000860Y000310D01*
X000856Y000313D01*
X000850Y000313D01*
X000846Y000310D01*
X000846Y000303D01*
X000850Y000300D01*
X000856Y000300D01*
X000850Y000300D01*
X000846Y000303D01*
X000846Y000310D01*
X000850Y000313D01*
X000856Y000313D01*
X000860Y000310D01*
X000860Y000307D01*
X000846Y000307D01*
X000860Y000307D01*
X000860Y000310D01*
X000856Y000313D01*
X000850Y000313D01*
X000846Y000310D01*
X000846Y000303D01*
X000850Y000300D01*
X000856Y000300D01*
X000850Y000300D02*
X000840Y000300D01*
X000837Y000303D01*
X000840Y000307D01*
X000850Y000307D01*
X000840Y000307D01*
X000837Y000303D01*
X000840Y000300D01*
X000850Y000300D01*
X000850Y000310D01*
X000847Y000313D01*
X000840Y000313D01*
X000847Y000313D01*
X000850Y000310D01*
X000850Y000300D01*
X000840Y000300D01*
X000837Y000303D01*
X000840Y000307D01*
X000850Y000307D01*
X000850Y000310D02*
X000850Y000300D01*
X000843Y000300D02*
X000843Y000320D01*
X000847Y000320D02*
X000847Y000323D01*
X000847Y000320D01*
X000847Y000323D01*
X000850Y000323D02*
X000850Y000320D01*
X000850Y000323D01*
X000850Y000320D01*
X000850Y000323D01*
X000856Y000320D02*
X000866Y000320D01*
X000869Y000317D01*
X000869Y000310D01*
X000872Y000313D02*
X000875Y000310D01*
X000875Y000307D01*
X000862Y000307D01*
X000856Y000307D01*
X000856Y000320D01*
X000856Y000323D01*
X000856Y000320D01*
X000856Y000323D01*
X000856Y000320D01*
X000856Y000310D01*
X000862Y000310D01*
X000856Y000310D01*
X000856Y000307D02*
X000856Y000320D01*
X000862Y000313D02*
X000868Y000320D01*
X000875Y000313D01*
X000875Y000300D01*
X000874Y000300D02*
X000884Y000300D01*
X000887Y000303D01*
X000887Y000310D01*
X000884Y000313D01*
X000874Y000313D01*
X000872Y000313D02*
X000865Y000313D01*
X000862Y000310D01*
X000875Y000310D01*
X000875Y000307D01*
X000862Y000307D01*
X000856Y000307D01*
X000850Y000310D02*
X000847Y000313D01*
X000840Y000313D01*
X000842Y000313D02*
X000838Y000307D01*
X000842Y000300D01*
X000838Y000307D01*
X000832Y000300D01*
X000828Y000300D01*
X000825Y000303D01*
X000825Y000310D01*
X000828Y000313D01*
X000832Y000313D01*
X000838Y000307D01*
X000832Y000300D01*
X000828Y000300D01*
X000825Y000303D01*
X000825Y000310D01*
X000828Y000313D01*
X000832Y000313D01*
X000838Y000307D01*
X000842Y000313D01*
X000838Y000307D01*
X000842Y000300D01*
X000838Y000307D01*
X000832Y000300D01*
X000828Y000300D01*
X000825Y000303D01*
X000825Y000310D01*
X000828Y000313D01*
X000832Y000313D01*
X000838Y000307D01*
X000825Y000307D01*
X000838Y000307D01*
X000825Y000307D01*
X000825Y000310D02*
X000825Y000303D01*
X000828Y000300D01*
X000832Y000300D01*
X000838Y000307D01*
X000832Y000313D01*
X000828Y000313D01*
X000825Y000310D01*
X000828Y000307D02*
X000828Y000297D01*
X000828Y000307D01*
X000828Y000297D01*
X000835Y000297D02*
X000835Y000307D01*
X000835Y000297D01*
X000835Y000307D01*
X000838Y000307D02*
X000842Y000313D01*
X000838Y000300D02*
X000825Y000320D01*
X000862Y000313D02*
X000862Y000300D01*
X000865Y000300D02*
X000868Y000300D01*
X000868Y000303D01*
X000865Y000303D01*
X000865Y000300D01*
X000862Y000303D01*
X000862Y000310D01*
X000865Y000313D01*
X000872Y000313D01*
X000875Y000310D01*
X000874Y000310D02*
X000874Y000303D01*
X000877Y000300D01*
X000884Y000300D01*
X000887Y000303D01*
X000887Y000310D01*
X000884Y000313D01*
X000877Y000313D01*
X000874Y000310D01*
X000880Y000307D02*
X000893Y000320D01*
X000890Y000320D02*
X000883Y000320D01*
X000880Y000317D01*
X000880Y000320D02*
X000880Y000300D01*
X000893Y000313D01*
X000893Y000317D01*
X000890Y000320D01*
X000887Y000320D02*
X000887Y000300D01*
X000892Y000300D02*
X000896Y000300D01*
X000896Y000303D01*
X000892Y000303D01*
X000892Y000300D01*
X000892Y000313D01*
X000896Y000313D01*
X000899Y000310D01*
X000902Y000313D01*
X000906Y000310D01*
X000906Y000300D01*
X000905Y000300D02*
X000902Y000300D01*
X000898Y000300D01*
X000898Y000303D01*
X000902Y000303D01*
X000902Y000300D01*
X000898Y000300D01*
X000898Y000303D01*
X000902Y000303D01*
X000902Y000300D01*
X000902Y000303D01*
X000905Y000303D01*
X000905Y000300D01*
X000902Y000300D01*
X000902Y000303D01*
X000905Y000303D01*
X000905Y000300D01*
X000902Y000300D01*
X000902Y000303D01*
X000905Y000303D01*
X000905Y000300D01*
X000908Y000300D02*
X000918Y000300D01*
X000921Y000303D01*
X000921Y000310D01*
X000918Y000313D01*
X000908Y000313D01*
X000918Y000313D01*
X000921Y000310D01*
X000921Y000303D01*
X000918Y000300D01*
X000908Y000300D01*
X000908Y000320D01*
X000908Y000300D01*
X000911Y000300D02*
X000911Y000297D01*
X000914Y000293D01*
X000917Y000293D01*
X000921Y000297D01*
X000917Y000300D01*
X000917Y000320D01*
X000927Y000320D01*
X000930Y000317D01*
X000930Y000310D01*
X000927Y000307D01*
X000917Y000307D01*
X000915Y000310D02*
X000912Y000313D01*
X000902Y000313D01*
X000899Y000310D02*
X000899Y000300D01*
X000898Y000300D02*
X000912Y000300D01*
X000915Y000303D01*
X000915Y000310D01*
X000911Y000307D02*
X000914Y000303D01*
X000921Y000303D01*
X000924Y000307D01*
X000921Y000303D01*
X000914Y000303D01*
X000911Y000307D01*
X000911Y000320D01*
X000914Y000323D01*
X000921Y000323D01*
X000924Y000320D01*
X000921Y000323D01*
X000914Y000323D01*
X000911Y000320D01*
X000911Y000307D01*
X000914Y000303D01*
X000921Y000303D01*
X000924Y000307D01*
X000930Y000300D01*
X000929Y000300D02*
X000933Y000300D01*
X000933Y000310D01*
X000936Y000313D01*
X000939Y000310D01*
X000939Y000300D01*
X000939Y000310D01*
X000936Y000313D01*
X000933Y000310D01*
X000929Y000313D01*
X000926Y000313D01*
X000926Y000300D01*
X000926Y000313D01*
X000929Y000313D01*
X000933Y000310D01*
X000933Y000300D01*
X000933Y000310D01*
X000930Y000313D01*
X000927Y000310D01*
X000927Y000300D01*
X000929Y000300D02*
X000929Y000303D01*
X000933Y000303D01*
X000933Y000300D01*
X000929Y000300D01*
X000929Y000303D01*
X000933Y000303D01*
X000933Y000300D01*
X000929Y000300D01*
X000929Y000303D01*
X000933Y000303D01*
X000933Y000300D01*
X000935Y000297D02*
X000949Y000297D01*
X000948Y000300D02*
X000952Y000303D01*
X000952Y000310D01*
X000948Y000313D01*
X000952Y000310D01*
X000948Y000313D01*
X000938Y000313D01*
X000938Y000293D01*
X000945Y000293D02*
X000945Y000313D01*
X000955Y000313D01*
X000958Y000310D01*
X000958Y000303D01*
X000955Y000300D01*
X000945Y000300D01*
X000955Y000300D01*
X000958Y000303D01*
X000958Y000310D01*
X000955Y000313D01*
X000945Y000313D01*
X000945Y000293D01*
X000948Y000300D02*
X000938Y000300D01*
X000948Y000300D01*
X000952Y000303D01*
X000952Y000310D01*
X000948Y000313D01*
X000938Y000313D01*
X000948Y000313D01*
X000938Y000313D01*
X000938Y000320D02*
X000938Y000300D01*
X000948Y000300D01*
X000952Y000303D01*
X000952Y000310D01*
X000952Y000303D01*
X000948Y000300D01*
X000938Y000300D01*
X000938Y000320D01*
X000938Y000300D01*
X000924Y000303D02*
X000921Y000300D01*
X000911Y000300D01*
X000911Y000297D01*
X000914Y000293D01*
X000917Y000293D01*
X000921Y000297D01*
X000917Y000300D01*
X000917Y000303D01*
X000917Y000300D01*
X000921Y000297D01*
X000917Y000293D01*
X000914Y000293D01*
X000911Y000297D01*
X000911Y000300D01*
X000912Y000300D02*
X000902Y000300D01*
X000902Y000320D01*
X000898Y000320D02*
X000898Y000300D01*
X000893Y000300D02*
X000883Y000310D01*
X000880Y000313D02*
X000887Y000320D01*
X000884Y000320D02*
X000884Y000323D01*
X000877Y000323D02*
X000877Y000320D01*
X000874Y000320D02*
X000874Y000300D01*
X000872Y000300D02*
X000865Y000300D01*
X000862Y000303D01*
X000862Y000310D01*
X000865Y000300D02*
X000872Y000300D01*
X000880Y000300D02*
X000893Y000300D01*
X000880Y000300D01*
X000898Y000310D02*
X000905Y000310D01*
X000911Y000307D02*
X000911Y000320D01*
X000914Y000323D01*
X000921Y000323D01*
X000924Y000320D01*
X000923Y000313D02*
X000927Y000310D01*
X000924Y000310D02*
X000924Y000303D01*
X000920Y000300D02*
X000920Y000313D01*
X000923Y000313D01*
X000921Y000313D02*
X000924Y000310D01*
X000921Y000313D02*
X000911Y000313D01*
X000911Y000293D01*
X000917Y000300D02*
X000917Y000303D01*
X000912Y000320D02*
X000898Y000320D01*
X000872Y000320D02*
X000872Y000323D01*
X000872Y000320D01*
X000865Y000320D02*
X000865Y000323D01*
X000865Y000320D01*
X000954Y000320D02*
X000964Y000320D01*
X000967Y000317D01*
X000967Y000310D01*
X000964Y000307D01*
X000954Y000307D01*
X000957Y000313D02*
X000960Y000313D01*
X000963Y000310D01*
X000967Y000313D01*
X000970Y000310D01*
X000970Y000300D01*
X000970Y000310D01*
X000967Y000313D01*
X000963Y000310D01*
X000963Y000300D01*
X000963Y000310D01*
X000960Y000313D01*
X000957Y000313D01*
X000957Y000300D01*
X000957Y000313D01*
X000960Y000313D01*
X000963Y000310D01*
X000967Y000313D01*
X000970Y000310D01*
X000970Y000300D01*
X000972Y000303D02*
X000975Y000300D01*
X000985Y000300D01*
X000989Y000303D01*
X000989Y000310D01*
X000985Y000313D01*
X000975Y000313D01*
X000975Y000293D01*
X000975Y000313D01*
X000985Y000313D01*
X000989Y000310D01*
X000989Y000303D01*
X000985Y000300D01*
X000975Y000300D01*
X000985Y000300D01*
X000989Y000303D01*
X000989Y000310D01*
X000985Y000313D01*
X000975Y000313D01*
X000975Y000293D01*
X000975Y000300D02*
X000982Y000300D01*
X000986Y000303D01*
X000991Y000300D02*
X001001Y000300D01*
X001004Y000303D01*
X001004Y000307D01*
X001001Y000310D01*
X000991Y000310D01*
X000986Y000317D02*
X000982Y000320D01*
X000975Y000320D01*
X000972Y000317D01*
X000972Y000303D01*
X000963Y000300D02*
X000963Y000310D01*
X000957Y000313D02*
X000957Y000300D01*
X000954Y000300D02*
X000954Y000320D01*
X000991Y000320D02*
X001001Y000320D01*
X001004Y000317D01*
X001004Y000313D01*
X001001Y000310D01*
X001009Y000303D02*
X001012Y000300D01*
X001019Y000300D01*
X001022Y000303D01*
X001022Y000307D01*
X001019Y000310D01*
X001016Y000310D01*
X001019Y000310D02*
X001022Y000313D01*
X001022Y000317D01*
X001019Y000320D01*
X001012Y000320D01*
X001009Y000317D01*
X000991Y000320D02*
X000991Y000300D01*
X001027Y000300D02*
X001031Y000300D01*
X001031Y000303D01*
X001027Y000303D01*
X001027Y000300D01*
X001037Y000300D02*
X001047Y000300D01*
X001050Y000303D01*
X001050Y000310D01*
X001047Y000313D01*
X001037Y000313D01*
X001037Y000320D02*
X001037Y000300D01*
X001055Y000300D02*
X001055Y000313D01*
X001058Y000313D01*
X001062Y000310D01*
X001065Y000313D01*
X001068Y000310D01*
X001068Y000300D01*
X001073Y000300D02*
X001083Y000300D01*
X001087Y000303D01*
X001087Y000310D01*
X001083Y000313D01*
X001073Y000313D01*
X001073Y000293D01*
X001062Y000300D02*
X001062Y000310D01*
X000561Y000323D02*
X000561Y000320D01*
X000561Y000323D01*
X000561Y000320D01*
X000561Y000323D01*
X000561Y000320D01*
X000561Y000323D01*
X000561Y000320D01*
X000561Y000323D01*
X000475Y000323D02*
X000475Y000320D01*
X000475Y000323D01*
X000475Y000320D01*
X000475Y000323D01*
X000475Y000320D01*
X000475Y000323D01*
X000475Y000320D01*
X000475Y000323D01*
X000300Y000350D02*
X000300Y039720D01*
X063292Y039720D01*
X063292Y000350D01*
X000300Y000350D01*
D11*
X026800Y016320D03*
X027720Y015890D03*
X030510Y016170D03*
X031220Y016130D03*
X031220Y016120D03*
X030980Y016840D03*
X031050Y017490D03*
X030510Y017510D03*
X032540Y017060D03*
X032540Y016910D03*
X032740Y017460D03*
X033150Y017290D03*
X033130Y017060D03*
X033130Y016910D03*
X032580Y016190D03*
X034270Y017290D03*
X036110Y017020D03*
X036020Y016590D03*
X036070Y016320D03*
X037070Y015680D03*
X035460Y020490D03*
X035450Y020860D03*
X028620Y025340D03*
X028910Y025510D03*
X028860Y025730D03*
X028860Y025860D03*
X024670Y023060D03*
X024300Y023050D03*
X023680Y023420D03*
X023640Y019470D03*
X023530Y019020D03*
X024260Y019100D03*
X024630Y019110D03*
D12*
X024605Y019180D03*
X024605Y019190D03*
X024605Y019200D03*
X024605Y019210D03*
X024605Y019220D03*
X024605Y019230D03*
X024605Y019270D03*
X024605Y019280D03*
X024605Y019290D03*
X024605Y019300D03*
X024605Y019310D03*
X024605Y019320D03*
X024605Y019360D03*
X024605Y019370D03*
X024605Y019380D03*
X024605Y019390D03*
X024605Y019400D03*
X024605Y019410D03*
X024605Y019420D03*
X024605Y019430D03*
X024605Y019440D03*
X024605Y019450D03*
X024605Y019460D03*
X024605Y019470D03*
X024605Y019480D03*
X024605Y019490D03*
X024605Y019500D03*
X024725Y019500D03*
X024725Y019490D03*
X024725Y019480D03*
X024725Y019470D03*
X024725Y019460D03*
X024725Y019450D03*
X024725Y019440D03*
X024725Y019430D03*
X024725Y019420D03*
X024725Y019410D03*
X024725Y019400D03*
X024725Y019390D03*
X024725Y019380D03*
X024725Y019320D03*
X024725Y019310D03*
X024725Y019300D03*
X024725Y019290D03*
X024725Y019280D03*
X024725Y019270D03*
X024725Y019260D03*
X024725Y019250D03*
X024725Y019240D03*
X024725Y019190D03*
X024725Y019180D03*
X024725Y019170D03*
X024725Y019160D03*
X024725Y019150D03*
X024725Y019140D03*
X024725Y019130D03*
X024725Y019120D03*
X024725Y019110D03*
X024725Y019100D03*
X024725Y019090D03*
X024785Y019070D03*
X024785Y019060D03*
X024775Y019030D03*
X024795Y019090D03*
X024795Y019100D03*
X024795Y019110D03*
X024805Y019120D03*
X024805Y019130D03*
X024805Y019140D03*
X024815Y019160D03*
X024815Y019170D03*
X024825Y019190D03*
X024755Y018950D03*
X024475Y019180D03*
X024475Y019190D03*
X024475Y019200D03*
X024475Y019210D03*
X024475Y019220D03*
X024475Y019230D03*
X024475Y019270D03*
X024475Y019280D03*
X024475Y019290D03*
X024475Y019300D03*
X024475Y019310D03*
X024475Y019320D03*
X024475Y019360D03*
X024475Y019370D03*
X024475Y019380D03*
X024475Y019390D03*
X024475Y019400D03*
X024475Y019410D03*
X024475Y019420D03*
X024475Y019430D03*
X024475Y019440D03*
X024385Y019380D03*
X024385Y019370D03*
X024385Y019360D03*
X024385Y019350D03*
X024385Y019340D03*
X024385Y019330D03*
X024385Y019320D03*
X024385Y019310D03*
X024385Y019300D03*
X024385Y019290D03*
X024385Y019280D03*
X024385Y019270D03*
X024385Y019260D03*
X024385Y019250D03*
X024385Y019240D03*
X024385Y019230D03*
X024385Y019220D03*
X024385Y019210D03*
X024385Y019200D03*
X024385Y019190D03*
X024385Y019180D03*
X024385Y019170D03*
X024385Y019160D03*
X024285Y019160D03*
X024285Y019150D03*
X024285Y019140D03*
X024285Y019130D03*
X024285Y019170D03*
X024285Y019180D03*
X024285Y019190D03*
X024285Y019200D03*
X024285Y019210D03*
X024285Y019220D03*
X024285Y019230D03*
X024285Y019240D03*
X024285Y019250D03*
X024285Y019260D03*
X024285Y019270D03*
X024285Y019280D03*
X024285Y019290D03*
X024285Y019300D03*
X024285Y019310D03*
X024285Y019320D03*
X024285Y019330D03*
X024285Y019340D03*
X024285Y019350D03*
X024285Y019360D03*
X024285Y019370D03*
X024285Y019380D03*
X024285Y019390D03*
X024285Y019400D03*
X024285Y019410D03*
X024285Y019420D03*
X024285Y019430D03*
X024285Y019440D03*
X024265Y019090D03*
X024005Y018910D03*
X023515Y019000D03*
X023645Y019460D03*
X024045Y022860D03*
X024305Y023040D03*
X024325Y023080D03*
X024325Y023090D03*
X024325Y023100D03*
X024325Y023110D03*
X024325Y023120D03*
X024325Y023130D03*
X024325Y023140D03*
X024325Y023150D03*
X024325Y023160D03*
X024325Y023170D03*
X024325Y023180D03*
X024325Y023190D03*
X024325Y023200D03*
X024325Y023210D03*
X024325Y023220D03*
X024325Y023230D03*
X024325Y023240D03*
X024325Y023250D03*
X024325Y023260D03*
X024325Y023270D03*
X024325Y023280D03*
X024325Y023290D03*
X024325Y023300D03*
X024325Y023310D03*
X024325Y023320D03*
X024325Y023330D03*
X024325Y023340D03*
X024325Y023350D03*
X024325Y023360D03*
X024325Y023370D03*
X024325Y023380D03*
X024325Y023390D03*
X024425Y023330D03*
X024425Y023320D03*
X024425Y023310D03*
X024425Y023300D03*
X024425Y023290D03*
X024425Y023280D03*
X024425Y023270D03*
X024425Y023260D03*
X024425Y023250D03*
X024425Y023240D03*
X024425Y023230D03*
X024425Y023220D03*
X024425Y023210D03*
X024425Y023200D03*
X024425Y023190D03*
X024425Y023180D03*
X024425Y023170D03*
X024425Y023160D03*
X024425Y023150D03*
X024425Y023140D03*
X024425Y023130D03*
X024425Y023120D03*
X024425Y023110D03*
X024515Y023130D03*
X024515Y023140D03*
X024515Y023150D03*
X024515Y023160D03*
X024515Y023170D03*
X024515Y023180D03*
X024515Y023220D03*
X024515Y023230D03*
X024515Y023240D03*
X024515Y023250D03*
X024515Y023260D03*
X024515Y023270D03*
X024515Y023310D03*
X024515Y023320D03*
X024515Y023330D03*
X024515Y023340D03*
X024515Y023350D03*
X024515Y023360D03*
X024515Y023370D03*
X024515Y023380D03*
X024515Y023390D03*
X024645Y023390D03*
X024645Y023380D03*
X024645Y023370D03*
X024645Y023360D03*
X024645Y023350D03*
X024645Y023340D03*
X024645Y023330D03*
X024645Y023320D03*
X024645Y023310D03*
X024645Y023270D03*
X024645Y023260D03*
X024645Y023250D03*
X024645Y023240D03*
X024645Y023230D03*
X024645Y023220D03*
X024645Y023180D03*
X024645Y023170D03*
X024645Y023160D03*
X024645Y023150D03*
X024645Y023140D03*
X024645Y023130D03*
X024765Y023130D03*
X024765Y023120D03*
X024765Y023110D03*
X024765Y023100D03*
X024765Y023090D03*
X024765Y023080D03*
X024765Y023070D03*
X024765Y023060D03*
X024765Y023050D03*
X024765Y023040D03*
X024825Y023020D03*
X024825Y023010D03*
X024815Y022980D03*
X024835Y023040D03*
X024835Y023050D03*
X024835Y023060D03*
X024845Y023070D03*
X024845Y023080D03*
X024845Y023090D03*
X024855Y023110D03*
X024855Y023120D03*
X024865Y023140D03*
X024765Y023140D03*
X024765Y023190D03*
X024765Y023200D03*
X024765Y023210D03*
X024765Y023220D03*
X024765Y023230D03*
X024765Y023240D03*
X024765Y023250D03*
X024765Y023260D03*
X024765Y023270D03*
X024765Y023330D03*
X024765Y023340D03*
X024765Y023350D03*
X024765Y023360D03*
X024765Y023370D03*
X024765Y023380D03*
X024765Y023390D03*
X024765Y023400D03*
X024765Y023410D03*
X024765Y023420D03*
X024765Y023430D03*
X024765Y023440D03*
X024765Y023450D03*
X024645Y023450D03*
X024645Y023440D03*
X024645Y023430D03*
X024645Y023420D03*
X024645Y023410D03*
X024645Y023400D03*
X024795Y022900D03*
X023685Y023410D03*
X028625Y025350D03*
X028625Y025470D03*
X028705Y025640D03*
X028695Y025720D03*
X028695Y025730D03*
X028695Y025740D03*
X028795Y025940D03*
X028925Y025500D03*
X034455Y025500D03*
X034455Y025490D03*
X034465Y025600D03*
X034465Y025610D03*
X034465Y025620D03*
X034465Y025630D03*
X034465Y025640D03*
X035665Y017470D03*
X036995Y017180D03*
X035465Y015980D03*
X037055Y015700D03*
X033075Y016120D03*
X033075Y016270D03*
X033065Y016410D03*
X033015Y016730D03*
X032575Y016220D03*
X032575Y016210D03*
X031235Y016090D03*
X030485Y016160D03*
X030995Y016830D03*
X031005Y017240D03*
X027825Y015690D03*
D13*
X027910Y016140D03*
X030470Y015730D03*
X031200Y015710D03*
X031270Y017190D03*
X031010Y017250D03*
X031030Y017470D03*
X034170Y015710D03*
X034240Y016270D03*
X035940Y015680D03*
X024750Y018920D03*
X024750Y018930D03*
X024750Y018940D03*
X024760Y018960D03*
X024760Y018970D03*
X024760Y018980D03*
X024780Y019040D03*
X024780Y019050D03*
X024790Y019080D03*
X024810Y019150D03*
X024820Y019180D03*
X024660Y019320D03*
X024480Y019450D03*
X024290Y019450D03*
X024170Y019450D03*
X023960Y019160D03*
X023950Y019140D03*
X023940Y019110D03*
X023880Y019110D03*
X023870Y019120D03*
X023870Y019130D03*
X023860Y019140D03*
X023860Y019150D03*
X023850Y019170D03*
X023840Y019190D03*
X023830Y019210D03*
X023810Y019240D03*
X023800Y019260D03*
X023920Y019030D03*
X023930Y019010D03*
X023940Y019000D03*
X024490Y018950D03*
X024740Y018900D03*
X024780Y022850D03*
X024790Y022870D03*
X024790Y022880D03*
X024790Y022890D03*
X024800Y022910D03*
X024800Y022920D03*
X024800Y022930D03*
X024820Y022990D03*
X024820Y023000D03*
X024830Y023030D03*
X024850Y023100D03*
X024860Y023130D03*
X024700Y023270D03*
X024520Y023400D03*
X024330Y023400D03*
X024210Y023400D03*
X024000Y023110D03*
X023990Y023090D03*
X023980Y023060D03*
X023920Y023060D03*
X023910Y023070D03*
X023910Y023080D03*
X023900Y023090D03*
X023900Y023100D03*
X023890Y023120D03*
X023880Y023140D03*
X023870Y023160D03*
X023850Y023190D03*
X023840Y023210D03*
X023960Y022980D03*
X023970Y022960D03*
X023980Y022950D03*
X023540Y022970D03*
X023420Y022890D03*
X024530Y022900D03*
X028400Y025510D03*
X028400Y025520D03*
X028400Y025530D03*
X028400Y025540D03*
X028400Y025590D03*
X028400Y025600D03*
X028400Y025610D03*
X028400Y025620D03*
X028400Y025630D03*
X028400Y025640D03*
X028400Y025650D03*
X028400Y025660D03*
X028400Y025670D03*
X028400Y025680D03*
X028400Y025690D03*
X028580Y025690D03*
X028580Y025680D03*
X028580Y025670D03*
X028580Y025660D03*
X028580Y025650D03*
X028580Y025640D03*
X028580Y025630D03*
X028580Y025620D03*
X028580Y025610D03*
X028580Y025600D03*
X028580Y025590D03*
X028580Y025540D03*
X028580Y025530D03*
X028580Y025520D03*
X028720Y025550D03*
X028720Y025560D03*
X028720Y025570D03*
X028720Y025580D03*
X028710Y025590D03*
X028710Y025600D03*
X028710Y025610D03*
X028710Y025620D03*
X028710Y025630D03*
X028700Y025650D03*
X028700Y025660D03*
X028700Y025670D03*
X028700Y025680D03*
X028700Y025690D03*
X028700Y025700D03*
X028700Y025710D03*
X028690Y025750D03*
X028690Y025760D03*
X028690Y025770D03*
X028690Y025780D03*
X028690Y025790D03*
X028690Y025850D03*
X028690Y025860D03*
X028690Y025870D03*
X028690Y025880D03*
X028690Y025890D03*
X028690Y025900D03*
X028690Y025910D03*
X028690Y025920D03*
X028690Y025930D03*
X028690Y025940D03*
X028690Y025950D03*
X028860Y025880D03*
X028870Y025720D03*
X028870Y025700D03*
X028860Y025680D03*
X028830Y025620D03*
X028820Y025600D03*
X028930Y025490D03*
X028930Y025480D03*
X028920Y025460D03*
X028920Y025450D03*
X028920Y025440D03*
X028920Y025430D03*
X028910Y025420D03*
X028910Y025410D03*
X028870Y025350D03*
X034060Y025730D03*
X034060Y025740D03*
X034060Y025750D03*
X034060Y025760D03*
X034060Y025770D03*
X034070Y025780D03*
X034070Y025790D03*
X034070Y025800D03*
X034070Y025810D03*
X034070Y025820D03*
X034070Y025880D03*
X034070Y025890D03*
X034080Y025900D03*
X034080Y025910D03*
X034080Y025920D03*
X034080Y025930D03*
X034080Y025940D03*
X034080Y025950D03*
X034080Y025960D03*
X034080Y025970D03*
X034470Y025670D03*
X034470Y025660D03*
X034470Y025650D03*
X034460Y025590D03*
X034460Y025580D03*
X034460Y025570D03*
X034460Y025560D03*
X034460Y025550D03*
X034460Y025540D03*
X034460Y025530D03*
X034460Y025520D03*
X034460Y025510D03*
X034450Y025480D03*
X034450Y025470D03*
X034450Y025460D03*
D14*
X034445Y025450D03*
X034435Y025440D03*
X034225Y025430D03*
X028925Y025470D03*
X028905Y025400D03*
X028775Y025440D03*
X028745Y025490D03*
X028785Y025550D03*
X028795Y025560D03*
X028805Y025570D03*
X028805Y025580D03*
X028815Y025590D03*
X028825Y025610D03*
X028835Y025630D03*
X028845Y025640D03*
X028845Y025650D03*
X028855Y025660D03*
X028855Y025670D03*
X028865Y025690D03*
X028875Y025710D03*
X028625Y025360D03*
X024785Y022860D03*
X024665Y023040D03*
X024575Y022950D03*
X024565Y022940D03*
X024555Y022930D03*
X024545Y022920D03*
X024535Y022910D03*
X024525Y022890D03*
X024455Y022890D03*
X024445Y022900D03*
X024435Y022910D03*
X024305Y023030D03*
X024045Y022870D03*
X024005Y022920D03*
X023995Y022930D03*
X023985Y022940D03*
X023965Y022970D03*
X023955Y022990D03*
X023955Y023000D03*
X023985Y023070D03*
X023985Y023080D03*
X023995Y023100D03*
X024005Y023120D03*
X024005Y023130D03*
X024015Y023140D03*
X024015Y023150D03*
X024025Y023160D03*
X024025Y023170D03*
X024035Y023180D03*
X024035Y023190D03*
X024045Y023200D03*
X024055Y023220D03*
X023885Y023130D03*
X023895Y023110D03*
X023875Y023150D03*
X023865Y023170D03*
X023855Y023180D03*
X023845Y023200D03*
X023835Y023220D03*
X023825Y023230D03*
X023825Y023240D03*
X023815Y023250D03*
X023805Y023260D03*
X023785Y023290D03*
X023685Y023400D03*
X023425Y023310D03*
X023425Y023300D03*
X023425Y023290D03*
X023425Y023280D03*
X023425Y023270D03*
X023425Y023260D03*
X023425Y023250D03*
X023425Y023240D03*
X023425Y023230D03*
X023425Y023220D03*
X023425Y023210D03*
X023425Y023200D03*
X023425Y023190D03*
X023425Y023180D03*
X023425Y023170D03*
X023425Y023160D03*
X023425Y023150D03*
X023425Y023140D03*
X023425Y023130D03*
X023425Y023120D03*
X023425Y023110D03*
X023425Y023100D03*
X023425Y023090D03*
X023425Y023080D03*
X023425Y023070D03*
X023425Y023060D03*
X023425Y023050D03*
X023425Y023040D03*
X023425Y023030D03*
X023425Y023020D03*
X023425Y023010D03*
X023425Y023000D03*
X023425Y022990D03*
X023425Y022980D03*
X023425Y022970D03*
X023425Y022960D03*
X023645Y019450D03*
X023745Y019340D03*
X023765Y019310D03*
X023775Y019300D03*
X023785Y019290D03*
X023785Y019280D03*
X023795Y019270D03*
X023805Y019250D03*
X023815Y019230D03*
X023825Y019220D03*
X023835Y019200D03*
X023845Y019180D03*
X023855Y019160D03*
X023945Y019130D03*
X023945Y019120D03*
X023955Y019150D03*
X023965Y019170D03*
X023965Y019180D03*
X023975Y019190D03*
X023975Y019200D03*
X023985Y019210D03*
X023985Y019220D03*
X023995Y019230D03*
X023995Y019240D03*
X024005Y019250D03*
X024015Y019270D03*
X023915Y019050D03*
X023915Y019040D03*
X023925Y019020D03*
X023945Y018990D03*
X023955Y018980D03*
X023965Y018970D03*
X024005Y018920D03*
X024265Y019080D03*
X024395Y018960D03*
X024405Y018950D03*
X024415Y018940D03*
X024485Y018940D03*
X024495Y018960D03*
X024505Y018970D03*
X024515Y018980D03*
X024525Y018990D03*
X024535Y019000D03*
X024625Y019090D03*
X024745Y018910D03*
X023505Y018990D03*
X023295Y019010D03*
X023285Y019030D03*
X023285Y019040D03*
X023285Y019050D03*
X023285Y019060D03*
X023285Y019070D03*
X023285Y019080D03*
X023285Y019090D03*
X023295Y019100D03*
X023295Y019110D03*
X023295Y019120D03*
X023305Y019130D03*
X023315Y019150D03*
X023355Y019200D03*
X028345Y017230D03*
X029665Y017190D03*
X031245Y016080D03*
X032575Y016230D03*
X033015Y016720D03*
X034105Y016390D03*
X033115Y015720D03*
X035475Y015990D03*
X029705Y015840D03*
D15*
X030475Y015750D03*
X031195Y015720D03*
X031025Y016810D03*
X031245Y017030D03*
X031025Y017270D03*
X032585Y017050D03*
X033085Y017050D03*
X033085Y016440D03*
X033125Y015730D03*
X035955Y015700D03*
X036625Y016290D03*
X036615Y016320D03*
X036615Y016330D03*
X036605Y016350D03*
X024445Y018920D03*
X024515Y019470D03*
X024345Y019490D03*
X024165Y019430D03*
X024155Y019420D03*
X023915Y019090D03*
X023645Y019430D03*
X024485Y022870D03*
X024555Y023420D03*
X024385Y023440D03*
X024205Y023380D03*
X024195Y023370D03*
X023955Y023040D03*
X023685Y023380D03*
X028595Y025460D03*
X028735Y025460D03*
X028755Y025530D03*
X028865Y025360D03*
D16*
X028645Y025390D03*
X028635Y025380D03*
X028625Y025370D03*
X028375Y025390D03*
X028815Y025920D03*
X028845Y025900D03*
X028855Y025890D03*
X024145Y023330D03*
X024135Y023320D03*
X024125Y023310D03*
X024115Y023300D03*
X023955Y023020D03*
X023955Y023010D03*
X024325Y023010D03*
X024355Y022990D03*
X024485Y022860D03*
X024615Y022990D03*
X024655Y023020D03*
X024665Y023030D03*
X023735Y023340D03*
X023725Y023350D03*
X023685Y023390D03*
X023525Y022960D03*
X023645Y019440D03*
X023685Y019400D03*
X023695Y019390D03*
X024075Y019350D03*
X024085Y019360D03*
X024095Y019370D03*
X024105Y019380D03*
X023915Y019070D03*
X023915Y019060D03*
X024285Y019060D03*
X024315Y019040D03*
X024445Y018910D03*
X024575Y019040D03*
X024615Y019070D03*
X024625Y019080D03*
X028275Y016770D03*
X029675Y017030D03*
X029795Y016840D03*
X031015Y017260D03*
X031025Y017460D03*
X030465Y016150D03*
X029715Y015850D03*
X032575Y016250D03*
X033255Y016990D03*
X033455Y017470D03*
X033805Y017470D03*
X035485Y016000D03*
X035945Y015690D03*
X036595Y016390D03*
X036585Y016410D03*
X036585Y016420D03*
X036585Y016430D03*
X034155Y015720D03*
D17*
X033715Y016120D03*
X033135Y015740D03*
X032565Y016270D03*
X032665Y016520D03*
X032675Y016540D03*
X032685Y016560D03*
X032685Y016570D03*
X033075Y016920D03*
X033205Y017280D03*
X034215Y017280D03*
X035985Y016970D03*
X036635Y016260D03*
X036645Y016250D03*
X036645Y016240D03*
X036655Y016220D03*
X035955Y015710D03*
X031265Y016040D03*
X031195Y015730D03*
X030475Y015760D03*
X030445Y016140D03*
X031015Y017440D03*
X027855Y015700D03*
X024345Y019480D03*
X023455Y022910D03*
X024385Y023430D03*
X028735Y025450D03*
X028865Y025370D03*
D18*
X028860Y025870D03*
X028350Y025380D03*
X024870Y023330D03*
X024670Y023050D03*
X024790Y022840D03*
X024210Y023410D03*
X024170Y019460D03*
X024630Y019100D03*
X024750Y018890D03*
X024830Y019380D03*
X026810Y016140D03*
X029690Y015830D03*
X031230Y016100D03*
X031040Y017480D03*
X033160Y017140D03*
X034260Y017140D03*
X035420Y016980D03*
X035420Y016810D03*
X036030Y016810D03*
X036030Y016980D03*
X036390Y017510D03*
X036060Y016310D03*
X034250Y016120D03*
X033100Y015710D03*
D19*
X033745Y016070D03*
X033755Y016060D03*
X033735Y016090D03*
X034055Y016510D03*
X034055Y016520D03*
X034055Y016530D03*
X034055Y016540D03*
X034055Y016550D03*
X034055Y016560D03*
X034055Y016570D03*
X034055Y016580D03*
X034055Y016590D03*
X034055Y016600D03*
X034055Y016610D03*
X034055Y016620D03*
X034055Y016630D03*
X034055Y016750D03*
X034055Y016760D03*
X034055Y016770D03*
X034055Y016780D03*
X034055Y016790D03*
X034055Y016800D03*
X034055Y016810D03*
X034055Y016820D03*
X034055Y016830D03*
X034055Y016840D03*
X034055Y016850D03*
X034055Y016860D03*
X034055Y016870D03*
X033845Y016990D03*
X033845Y017000D03*
X033845Y017010D03*
X033845Y017020D03*
X033845Y017030D03*
X033845Y017040D03*
X033845Y017050D03*
X033845Y017060D03*
X033845Y017070D03*
X033845Y017080D03*
X033845Y017090D03*
X033845Y017100D03*
X033845Y017110D03*
X033845Y017120D03*
X033845Y017130D03*
X033845Y017140D03*
X033845Y017150D03*
X033845Y017280D03*
X033845Y017290D03*
X033845Y017300D03*
X033845Y017310D03*
X033845Y017320D03*
X033845Y017330D03*
X033845Y017340D03*
X033845Y017350D03*
X033845Y017360D03*
X033845Y017370D03*
X033845Y017380D03*
X033845Y017390D03*
X033845Y017400D03*
X033845Y017410D03*
X033495Y017410D03*
X033495Y017400D03*
X033495Y017390D03*
X033495Y017380D03*
X033495Y017370D03*
X033495Y017360D03*
X033495Y017350D03*
X033495Y017340D03*
X033495Y017330D03*
X033495Y017320D03*
X033495Y017310D03*
X033495Y017300D03*
X033495Y017290D03*
X033495Y017280D03*
X033495Y017150D03*
X033495Y017140D03*
X033495Y017130D03*
X033495Y017120D03*
X033495Y017110D03*
X033495Y017100D03*
X033495Y017090D03*
X033495Y017080D03*
X033495Y017070D03*
X033495Y017060D03*
X033495Y017050D03*
X033495Y017040D03*
X033495Y017030D03*
X033495Y017020D03*
X033495Y017010D03*
X033495Y017000D03*
X033495Y016990D03*
X033295Y016870D03*
X033295Y016860D03*
X033295Y016850D03*
X033295Y016840D03*
X033295Y016830D03*
X033295Y016820D03*
X033295Y016810D03*
X033295Y016800D03*
X033295Y016790D03*
X033295Y016780D03*
X033295Y016770D03*
X033295Y016760D03*
X033295Y016750D03*
X033295Y016630D03*
X033295Y016620D03*
X033295Y016610D03*
X033295Y016600D03*
X033295Y016590D03*
X033295Y016580D03*
X033295Y016570D03*
X033295Y016560D03*
X033295Y016550D03*
X033295Y016540D03*
X033295Y016530D03*
X033295Y016520D03*
X033295Y016510D03*
X033075Y016520D03*
X033065Y016540D03*
X033055Y016560D03*
X033045Y016580D03*
X033035Y016600D03*
X033025Y016620D03*
X033015Y016640D03*
X033005Y016660D03*
X032995Y016690D03*
X032645Y016480D03*
X032645Y016470D03*
X032635Y016460D03*
X032635Y016450D03*
X031275Y016030D03*
X030475Y015770D03*
X034205Y017150D03*
X036085Y016430D03*
X036665Y016190D03*
X036675Y016180D03*
X036675Y016170D03*
X036685Y016160D03*
X034335Y025380D03*
X028855Y025380D03*
X028405Y025400D03*
D20*
X028565Y025450D03*
X028855Y025390D03*
X024755Y023280D03*
X024715Y019330D03*
X027155Y017070D03*
X027155Y017060D03*
X027155Y017050D03*
X027155Y017040D03*
X027155Y017030D03*
X027155Y017020D03*
X027155Y017010D03*
X027155Y017000D03*
X027155Y016990D03*
X027155Y016980D03*
X027155Y016970D03*
X027155Y016960D03*
X027155Y016950D03*
X027145Y016920D03*
X027145Y016910D03*
X027145Y016900D03*
X027145Y016890D03*
X027145Y016880D03*
X027145Y016870D03*
X027145Y016860D03*
X027145Y016850D03*
X027145Y016840D03*
X027145Y016830D03*
X027145Y016820D03*
X027145Y016810D03*
X027145Y016800D03*
X027145Y016790D03*
X027145Y016780D03*
X027145Y016770D03*
X027145Y016760D03*
X028195Y016340D03*
X028185Y016230D03*
X028185Y016220D03*
X029745Y015870D03*
X029835Y016230D03*
X029835Y016240D03*
X029835Y016250D03*
X029835Y016260D03*
X029835Y016270D03*
X029835Y016280D03*
X029835Y016290D03*
X029835Y016300D03*
X030355Y016300D03*
X030355Y016290D03*
X030355Y016280D03*
X030355Y016270D03*
X030355Y016260D03*
X030355Y016250D03*
X030355Y016240D03*
X030355Y016230D03*
X030355Y016220D03*
X030415Y016130D03*
X030745Y016330D03*
X030745Y016340D03*
X030735Y016350D03*
X030735Y016360D03*
X030725Y016380D03*
X030725Y016390D03*
X030715Y016410D03*
X030705Y016440D03*
X030695Y016480D03*
X030685Y016520D03*
X030675Y016560D03*
X030665Y016610D03*
X030655Y016660D03*
X030655Y016670D03*
X030655Y016680D03*
X030645Y016730D03*
X030645Y016740D03*
X030645Y016750D03*
X030635Y016800D03*
X030635Y016810D03*
X030635Y016820D03*
X030635Y016830D03*
X030635Y016840D03*
X030635Y016850D03*
X030625Y016890D03*
X030625Y016900D03*
X030625Y016910D03*
X030625Y016920D03*
X030625Y016930D03*
X030625Y016940D03*
X030625Y016950D03*
X030625Y016960D03*
X030615Y016990D03*
X030615Y017000D03*
X030615Y017010D03*
X030615Y017020D03*
X030615Y017030D03*
X030615Y017040D03*
X030615Y017180D03*
X030615Y017190D03*
X030615Y017200D03*
X030615Y017210D03*
X030615Y017220D03*
X030615Y017230D03*
X030615Y017240D03*
X031045Y016800D03*
X031035Y016690D03*
X031035Y016680D03*
X031035Y016670D03*
X031025Y016660D03*
X031025Y016650D03*
X031025Y016640D03*
X031025Y016630D03*
X031015Y016610D03*
X031015Y016600D03*
X031015Y016590D03*
X031005Y016560D03*
X031005Y016550D03*
X030995Y016530D03*
X030995Y016520D03*
X030985Y016490D03*
X030985Y016480D03*
X030975Y016460D03*
X030975Y016450D03*
X030965Y016430D03*
X030965Y016420D03*
X030955Y016410D03*
X030955Y016400D03*
X030945Y016380D03*
X030945Y016370D03*
X030935Y016360D03*
X030935Y016350D03*
X030925Y016340D03*
X030925Y016330D03*
X031285Y016020D03*
X032595Y016380D03*
X032605Y016400D03*
X032825Y016880D03*
X032825Y016890D03*
X032825Y016900D03*
X032825Y016910D03*
X032825Y017340D03*
X032825Y017350D03*
X032825Y017360D03*
X032825Y017370D03*
X032825Y017380D03*
X033495Y017430D03*
X033845Y017430D03*
X033625Y016390D03*
X033625Y016380D03*
X033625Y016370D03*
X033625Y016360D03*
X033615Y016300D03*
X033615Y016290D03*
X033565Y016120D03*
X033555Y016100D03*
X033555Y016090D03*
X033545Y016080D03*
X033785Y016030D03*
X034185Y016130D03*
X034115Y015750D03*
X033145Y015750D03*
X032825Y015910D03*
X035725Y017400D03*
X036475Y017240D03*
X036475Y017230D03*
X036475Y017220D03*
X036475Y017210D03*
X036475Y017200D03*
X036475Y017190D03*
X036475Y017180D03*
X036475Y017170D03*
X036475Y017030D03*
X036475Y017020D03*
X036475Y017010D03*
X036475Y017000D03*
X036475Y016990D03*
X036475Y016980D03*
X036475Y016970D03*
X036475Y016960D03*
X036475Y016950D03*
X036475Y016940D03*
X036475Y016930D03*
X036475Y016920D03*
X036475Y016910D03*
X036475Y016900D03*
X036475Y016890D03*
X036475Y016880D03*
X036475Y016870D03*
X036465Y016720D03*
X036465Y016710D03*
X036465Y016700D03*
X036465Y016690D03*
X036465Y016680D03*
X036465Y016670D03*
X036465Y016660D03*
X036465Y016650D03*
X036465Y016640D03*
X036445Y016430D03*
X036445Y016420D03*
X036445Y016410D03*
X036445Y016400D03*
X036435Y016390D03*
X036435Y016380D03*
X036435Y016370D03*
X036435Y016360D03*
X036425Y016340D03*
X036425Y016330D03*
X036425Y016320D03*
X036415Y016300D03*
X036415Y016290D03*
X036695Y016140D03*
X036705Y016120D03*
X037095Y016430D03*
X036905Y016610D03*
X036915Y016890D03*
X036915Y016900D03*
X036915Y016910D03*
X036915Y016920D03*
X036915Y016930D03*
X036915Y016940D03*
X036915Y016950D03*
X036915Y016960D03*
X036915Y016970D03*
X036915Y016980D03*
X036915Y016990D03*
D21*
X036040Y016300D03*
X037050Y015710D03*
X034100Y016990D03*
X033070Y016420D03*
X032570Y016240D03*
X031250Y016070D03*
X030470Y015740D03*
X030400Y016840D03*
X031010Y016820D03*
X030550Y017500D03*
X028340Y017060D03*
X027100Y017470D03*
X024560Y019030D03*
X024550Y019020D03*
X024540Y019010D03*
X024450Y018900D03*
X024440Y018890D03*
X024390Y018970D03*
X024380Y018980D03*
X024370Y018990D03*
X024360Y019000D03*
X024350Y019010D03*
X024340Y019020D03*
X024330Y019030D03*
X024000Y018930D03*
X023990Y018940D03*
X023980Y018950D03*
X023970Y018960D03*
X024010Y019260D03*
X024020Y019280D03*
X024030Y019290D03*
X024040Y019300D03*
X024040Y019310D03*
X024050Y019320D03*
X024060Y019330D03*
X024070Y019340D03*
X024170Y019440D03*
X024520Y019490D03*
X023760Y019320D03*
X023750Y019330D03*
X023740Y019350D03*
X023730Y019360D03*
X023720Y019370D03*
X023710Y019380D03*
X023510Y019360D03*
X023500Y019350D03*
X023490Y019340D03*
X023480Y019330D03*
X023470Y019320D03*
X023460Y019310D03*
X023450Y019300D03*
X023440Y019290D03*
X023430Y019280D03*
X023420Y019270D03*
X023410Y019260D03*
X023400Y019250D03*
X023390Y019240D03*
X023380Y019230D03*
X023370Y019220D03*
X023360Y019210D03*
X023350Y019190D03*
X023340Y019180D03*
X023330Y019170D03*
X023320Y019160D03*
X023310Y019140D03*
X023290Y019020D03*
X023300Y019000D03*
X023310Y018990D03*
X024040Y022880D03*
X024030Y022890D03*
X024020Y022900D03*
X024010Y022910D03*
X024050Y023210D03*
X024060Y023230D03*
X024070Y023240D03*
X024080Y023250D03*
X024080Y023260D03*
X024090Y023270D03*
X024100Y023280D03*
X024110Y023290D03*
X024210Y023390D03*
X024560Y023440D03*
X024600Y022980D03*
X024590Y022970D03*
X024580Y022960D03*
X024490Y022850D03*
X024480Y022840D03*
X024430Y022920D03*
X024420Y022930D03*
X024410Y022940D03*
X024400Y022950D03*
X024390Y022960D03*
X024380Y022970D03*
X024370Y022980D03*
X023800Y023270D03*
X023790Y023280D03*
X023780Y023300D03*
X023770Y023310D03*
X023760Y023320D03*
X023750Y023330D03*
X028660Y025400D03*
X028670Y025410D03*
X028680Y025420D03*
X028690Y025430D03*
X028700Y025440D03*
X028740Y025480D03*
X028750Y025500D03*
X028750Y025510D03*
X028780Y025430D03*
X028790Y025420D03*
X028800Y025410D03*
X028810Y025400D03*
X028830Y025910D03*
X028800Y025930D03*
D22*
X028430Y025410D03*
X024790Y023300D03*
X024790Y023290D03*
X024750Y019350D03*
X024750Y019340D03*
X027180Y017420D03*
X027180Y017410D03*
X028130Y015940D03*
X028130Y015930D03*
X030390Y016120D03*
X030670Y015980D03*
X030680Y015990D03*
X030690Y016000D03*
X030960Y015990D03*
X030970Y015980D03*
X030980Y015970D03*
X030990Y015960D03*
X031180Y015770D03*
X031260Y015950D03*
X030480Y015800D03*
X031070Y016780D03*
X030620Y017460D03*
X032850Y017440D03*
X032800Y016750D03*
X032800Y016740D03*
X032800Y016730D03*
X033470Y015990D03*
X033840Y015970D03*
X034100Y015770D03*
X033160Y015770D03*
X035960Y015740D03*
X036270Y016030D03*
X036280Y016040D03*
X036290Y016050D03*
X035960Y016260D03*
X036770Y016030D03*
X037010Y015780D03*
D23*
X036840Y015970D03*
X036160Y015930D03*
X036150Y015920D03*
X033630Y016130D03*
X033380Y015930D03*
X033180Y015790D03*
X032770Y016580D03*
X032770Y016590D03*
X031170Y015800D03*
X030830Y016250D03*
X030360Y016110D03*
X030510Y015850D03*
X030480Y015820D03*
X029790Y015900D03*
X028090Y015890D03*
X027800Y016310D03*
X028460Y025420D03*
D24*
X028500Y025430D03*
X027190Y016610D03*
X030480Y015830D03*
X030830Y016090D03*
X033360Y015920D03*
X033930Y015920D03*
X035570Y016070D03*
X035970Y015770D03*
X036120Y015900D03*
X036990Y015820D03*
D25*
X036795Y016010D03*
X036785Y016020D03*
X036265Y016020D03*
X035545Y016050D03*
X036485Y017450D03*
X033855Y015960D03*
X033455Y015980D03*
X033445Y015970D03*
X032795Y016700D03*
X032795Y016710D03*
X032795Y016720D03*
X030835Y016210D03*
X030835Y016200D03*
X030835Y016140D03*
X030665Y015970D03*
X030655Y015960D03*
X029775Y015890D03*
X027905Y015720D03*
X026905Y016150D03*
X028205Y016760D03*
X030625Y017470D03*
X024445Y019070D03*
X024445Y019080D03*
X023405Y018960D03*
X024485Y023020D03*
X024485Y023030D03*
X028535Y025440D03*
X034315Y025390D03*
D26*
X034420Y025430D03*
X028750Y025520D03*
X028740Y025470D03*
X024550Y023430D03*
X024180Y023360D03*
X024170Y023350D03*
X024160Y023340D03*
X024310Y023020D03*
X023950Y023030D03*
X023710Y023360D03*
X023700Y023370D03*
X023440Y022900D03*
X023660Y019420D03*
X023670Y019410D03*
X023910Y019080D03*
X024270Y019070D03*
X024120Y019390D03*
X024130Y019400D03*
X024140Y019410D03*
X024510Y019480D03*
X023490Y018980D03*
X023400Y018930D03*
X023320Y018980D03*
X027890Y016320D03*
X031020Y017450D03*
X031250Y016060D03*
X032570Y016260D03*
X033080Y016430D03*
X033010Y016710D03*
X036020Y016290D03*
X036590Y016400D03*
X036600Y016380D03*
X036600Y016370D03*
X036600Y016360D03*
X036610Y016340D03*
X037040Y015720D03*
D27*
X037030Y015730D03*
X036630Y016270D03*
X036630Y016280D03*
X036620Y016300D03*
X036620Y016310D03*
X035500Y016010D03*
X034140Y015730D03*
X033000Y016700D03*
X032590Y016920D03*
X031260Y016050D03*
X029730Y015860D03*
X027780Y015880D03*
X027100Y016600D03*
X024450Y018930D03*
X024510Y019460D03*
X023910Y019100D03*
X024490Y022880D03*
X024550Y023410D03*
X023950Y023050D03*
X028760Y025540D03*
D28*
X028490Y025550D03*
X028490Y025560D03*
X028490Y025570D03*
X028490Y025580D03*
X028490Y025700D03*
X028490Y025710D03*
X028490Y025720D03*
X028490Y025730D03*
X024780Y022970D03*
X024780Y022960D03*
X024780Y022950D03*
X024780Y022940D03*
X024740Y019020D03*
X024740Y019010D03*
X024740Y019000D03*
X024740Y018990D03*
X027180Y017430D03*
X028120Y015920D03*
X028110Y015910D03*
X030480Y015810D03*
X030620Y015930D03*
X030630Y015940D03*
X030640Y015950D03*
X030840Y016130D03*
X031000Y015950D03*
X031180Y015780D03*
X032790Y016670D03*
X032790Y016680D03*
X032790Y016690D03*
X033430Y015960D03*
X033870Y015950D03*
X036230Y015990D03*
X036240Y016000D03*
X036250Y016010D03*
X037000Y015790D03*
X036490Y017460D03*
X030630Y017480D03*
X030630Y017490D03*
D29*
X030190Y016060D03*
X029940Y015980D03*
X028640Y025800D03*
X028640Y025810D03*
X028640Y025820D03*
X028640Y025830D03*
X028640Y025840D03*
D30*
X028795Y025950D03*
X024215Y023420D03*
X024045Y022850D03*
X023555Y022980D03*
X023405Y022880D03*
X024175Y019470D03*
X024005Y018900D03*
X023525Y019010D03*
X027075Y017480D03*
X030465Y015720D03*
X031225Y016110D03*
X032575Y016200D03*
X033055Y016400D03*
X033225Y016390D03*
X033025Y016740D03*
X034185Y015700D03*
X035455Y015970D03*
X035935Y015670D03*
X036025Y016420D03*
X036115Y017180D03*
X037165Y016590D03*
X037165Y016420D03*
X037065Y015690D03*
X030995Y017230D03*
D31*
X030835Y016220D03*
X030835Y016120D03*
X030605Y015920D03*
X030595Y015910D03*
X030575Y015900D03*
X030565Y015890D03*
X031175Y015790D03*
X032785Y016650D03*
X032785Y016660D03*
X033415Y015950D03*
X033175Y015780D03*
X034095Y015780D03*
X035965Y015750D03*
X036225Y015980D03*
X036805Y016000D03*
X036815Y015990D03*
X036495Y017470D03*
X027185Y017450D03*
X027185Y017440D03*
X023405Y018970D03*
X034325Y025400D03*
D32*
X034330Y025410D03*
X036500Y017490D03*
X036500Y017480D03*
X035940Y016250D03*
X036210Y015970D03*
X036200Y015960D03*
X036830Y015980D03*
X037000Y015800D03*
X035560Y016060D03*
X033890Y015940D03*
X033400Y015940D03*
X032780Y016620D03*
X032780Y016630D03*
X032780Y016640D03*
X030830Y016230D03*
X030550Y015880D03*
X030540Y015870D03*
X028100Y015900D03*
D33*
X027925Y015730D03*
X027805Y016150D03*
X028245Y017220D03*
X030525Y015860D03*
X030835Y016110D03*
X030835Y016240D03*
X032775Y016600D03*
X032775Y016610D03*
X033905Y015930D03*
X034085Y015790D03*
X035965Y015760D03*
X036175Y015940D03*
X036185Y015950D03*
X036995Y015810D03*
X034325Y025420D03*
D34*
X034160Y025540D03*
X034160Y025550D03*
X034160Y025560D03*
X034160Y025570D03*
X034160Y025580D03*
X035820Y016200D03*
X029880Y015950D03*
D35*
X030265Y016080D03*
X031125Y015940D03*
X034055Y015880D03*
X027975Y015850D03*
X027975Y015840D03*
X034265Y025680D03*
X034265Y025690D03*
X034265Y025700D03*
X034265Y025710D03*
X034265Y025720D03*
D36*
X034295Y025830D03*
X034295Y025840D03*
X034295Y025850D03*
X034295Y025860D03*
X034295Y025870D03*
D37*
X024380Y023420D03*
X024380Y023410D03*
X024340Y019470D03*
X024340Y019460D03*
X031030Y017280D03*
X032650Y016490D03*
X032660Y016500D03*
X032660Y016510D03*
X032670Y016530D03*
X032680Y016550D03*
X032560Y016280D03*
X033090Y016450D03*
X033720Y016110D03*
X033730Y016100D03*
X033740Y016080D03*
X034130Y015740D03*
X035510Y016020D03*
X036000Y016280D03*
X036080Y016580D03*
X035980Y016820D03*
X035470Y016820D03*
X035470Y016970D03*
X036650Y016230D03*
X036660Y016210D03*
X036660Y016200D03*
X037110Y016580D03*
X037030Y015740D03*
D38*
X036855Y015960D03*
X036135Y015910D03*
X034075Y015800D03*
X031165Y015810D03*
X030835Y016100D03*
X030835Y016260D03*
X030835Y016270D03*
X030495Y015840D03*
X028235Y017070D03*
X023425Y023320D03*
X023425Y023330D03*
X023425Y023340D03*
X023425Y023350D03*
X023425Y023360D03*
D39*
X023470Y022920D03*
X024820Y023320D03*
X024780Y019370D03*
X023400Y018940D03*
X027140Y017460D03*
X029840Y016700D03*
X029840Y016690D03*
X029840Y016680D03*
X029840Y016670D03*
X029840Y016660D03*
X029840Y016650D03*
X029840Y016640D03*
X029840Y016630D03*
X029840Y016620D03*
X029840Y016610D03*
X029840Y016600D03*
X029840Y016590D03*
X029840Y016580D03*
X029840Y016570D03*
X029840Y016560D03*
X029840Y016550D03*
X029840Y016540D03*
X029840Y016530D03*
X029840Y016520D03*
X029840Y016510D03*
X029840Y016500D03*
X029840Y016490D03*
X029840Y016480D03*
X029840Y016470D03*
X029840Y016460D03*
X029840Y016450D03*
X029840Y016440D03*
X029840Y016310D03*
X030350Y016310D03*
X030350Y016440D03*
X030350Y016450D03*
X030350Y016460D03*
X030350Y016470D03*
X030350Y016480D03*
X030350Y016490D03*
X030350Y016500D03*
X030350Y016510D03*
X030350Y016520D03*
X030350Y016530D03*
X030350Y016540D03*
X030350Y016550D03*
X030350Y016560D03*
X030350Y016570D03*
X030350Y016580D03*
X030350Y016590D03*
X030350Y016600D03*
X030350Y016610D03*
X030350Y016620D03*
X030350Y016630D03*
X030350Y016640D03*
X030350Y016650D03*
X030350Y016660D03*
X030350Y016670D03*
X030350Y016680D03*
X030350Y016690D03*
X030350Y016700D03*
X030640Y016760D03*
X030640Y016770D03*
X030640Y016780D03*
X030640Y016790D03*
X030630Y016860D03*
X030630Y016870D03*
X030630Y016880D03*
X030620Y016970D03*
X030620Y016980D03*
X030650Y016720D03*
X030650Y016710D03*
X030650Y016700D03*
X030650Y016690D03*
X030660Y016650D03*
X030660Y016640D03*
X030660Y016630D03*
X030660Y016620D03*
X030670Y016600D03*
X030670Y016590D03*
X030670Y016580D03*
X030670Y016570D03*
X030680Y016550D03*
X030680Y016540D03*
X030680Y016530D03*
X030690Y016510D03*
X030690Y016500D03*
X030690Y016490D03*
X030700Y016470D03*
X030700Y016460D03*
X030700Y016450D03*
X030710Y016430D03*
X030710Y016420D03*
X030720Y016400D03*
X030730Y016370D03*
X030950Y016390D03*
X030970Y016440D03*
X030980Y016470D03*
X030990Y016500D03*
X030990Y016510D03*
X031000Y016540D03*
X031010Y016570D03*
X031010Y016580D03*
X031020Y016620D03*
X031040Y017290D03*
X031010Y017430D03*
X032830Y017330D03*
X032830Y017320D03*
X032830Y017310D03*
X032830Y017300D03*
X032830Y017290D03*
X032830Y017280D03*
X032830Y017270D03*
X032830Y017260D03*
X032830Y017250D03*
X032830Y017240D03*
X032830Y017230D03*
X032830Y017220D03*
X032830Y017210D03*
X032830Y017200D03*
X032830Y017190D03*
X032830Y017180D03*
X032830Y017170D03*
X032830Y017160D03*
X032830Y017150D03*
X032830Y017140D03*
X032830Y017130D03*
X032830Y017120D03*
X032830Y017110D03*
X032830Y017100D03*
X032830Y017090D03*
X032830Y017080D03*
X032830Y017070D03*
X032830Y017060D03*
X032830Y017050D03*
X032830Y016920D03*
X032990Y016680D03*
X033000Y016670D03*
X033010Y016650D03*
X033020Y016630D03*
X033030Y016610D03*
X033040Y016590D03*
X033050Y016570D03*
X033060Y016550D03*
X033070Y016530D03*
X033080Y016510D03*
X033080Y016500D03*
X033090Y016490D03*
X033090Y016480D03*
X033100Y016470D03*
X033100Y016460D03*
X032830Y016460D03*
X032830Y016470D03*
X032830Y016480D03*
X032830Y016490D03*
X032830Y016500D03*
X032830Y016510D03*
X032830Y016520D03*
X032830Y016530D03*
X032830Y016540D03*
X032830Y016550D03*
X032830Y016560D03*
X032830Y016570D03*
X032830Y016450D03*
X032830Y016440D03*
X032830Y016430D03*
X032830Y016420D03*
X032830Y016410D03*
X032830Y016400D03*
X032830Y016390D03*
X032830Y016380D03*
X032830Y016370D03*
X032830Y016360D03*
X032830Y016350D03*
X032830Y016340D03*
X032830Y016330D03*
X032830Y016320D03*
X032830Y016310D03*
X032830Y016300D03*
X032830Y016290D03*
X032830Y016280D03*
X032830Y016270D03*
X032830Y016260D03*
X032830Y016250D03*
X032830Y016240D03*
X032830Y016230D03*
X032830Y016220D03*
X032830Y016210D03*
X032830Y016200D03*
X032830Y016190D03*
X032830Y016180D03*
X032830Y016170D03*
X032830Y016160D03*
X032830Y016150D03*
X032830Y016140D03*
X032830Y016130D03*
X032830Y016120D03*
X032830Y016110D03*
X032830Y016100D03*
X032830Y016090D03*
X032830Y016080D03*
X032830Y016070D03*
X032830Y016060D03*
X032830Y016050D03*
X032830Y016040D03*
X032830Y016030D03*
X032830Y016020D03*
X032830Y016010D03*
X032830Y016000D03*
X032830Y015990D03*
X032830Y015980D03*
X032830Y015970D03*
X032830Y015960D03*
X032830Y015950D03*
X032830Y015940D03*
X032830Y015930D03*
X032830Y015920D03*
X032560Y016290D03*
X032610Y016410D03*
X032620Y016420D03*
X032620Y016430D03*
X032630Y016440D03*
X033560Y016110D03*
X033610Y016260D03*
X033610Y016270D03*
X033610Y016280D03*
X033620Y016310D03*
X033620Y016320D03*
X033620Y016330D03*
X033620Y016340D03*
X033620Y016350D03*
X033760Y016050D03*
X033770Y016040D03*
X033220Y017150D03*
X033490Y017420D03*
X033840Y017420D03*
X035730Y017390D03*
X035730Y017380D03*
X035730Y017370D03*
X035730Y017360D03*
X035730Y017350D03*
X035730Y017340D03*
X035730Y017330D03*
X035730Y017320D03*
X035730Y017310D03*
X035730Y017300D03*
X035730Y017290D03*
X035730Y017280D03*
X035730Y017270D03*
X035730Y017260D03*
X035730Y017250D03*
X035730Y017240D03*
X035730Y017230D03*
X035730Y017220D03*
X035730Y017210D03*
X035730Y017200D03*
X035730Y017190D03*
X035730Y017180D03*
X035730Y017170D03*
X035730Y017160D03*
X035730Y017150D03*
X035730Y017140D03*
X035730Y017130D03*
X035730Y017120D03*
X035730Y017110D03*
X035730Y017100D03*
X035730Y017090D03*
X035730Y017080D03*
X035730Y017070D03*
X035730Y017060D03*
X035730Y017050D03*
X035730Y017040D03*
X035730Y017030D03*
X035730Y017020D03*
X035730Y017010D03*
X035730Y017000D03*
X035730Y016990D03*
X035730Y016980D03*
X035730Y016970D03*
X035730Y016820D03*
X035730Y016810D03*
X035730Y016800D03*
X035730Y016790D03*
X035730Y016780D03*
X035730Y016770D03*
X035730Y016760D03*
X035730Y016750D03*
X035730Y016740D03*
X035730Y016730D03*
X035730Y016720D03*
X035730Y016710D03*
X035730Y016700D03*
X035730Y016690D03*
X035730Y016680D03*
X035730Y016670D03*
X035730Y016660D03*
X035730Y016650D03*
X035730Y016640D03*
X035730Y016630D03*
X035730Y016620D03*
X035730Y016610D03*
X035730Y016600D03*
X035730Y016590D03*
X035730Y016580D03*
X035730Y016570D03*
X035730Y016560D03*
X035730Y016550D03*
X035730Y016540D03*
X035730Y016530D03*
X035730Y016520D03*
X035730Y016510D03*
X035730Y016500D03*
X035730Y016490D03*
X035730Y016480D03*
X035730Y016470D03*
X035730Y016460D03*
X035730Y016450D03*
X035730Y016440D03*
X035730Y016430D03*
X035730Y016420D03*
X035730Y016410D03*
X035730Y016400D03*
X035730Y016390D03*
X035730Y016380D03*
X035730Y016370D03*
X035730Y016360D03*
X035730Y016350D03*
X035730Y016340D03*
X035730Y016330D03*
X035730Y016320D03*
X035730Y016310D03*
X035730Y016300D03*
X035730Y016290D03*
X035730Y016280D03*
X035730Y016270D03*
X035730Y016260D03*
X035730Y016250D03*
X035960Y015720D03*
X036700Y016130D03*
X036690Y016150D03*
X036900Y016580D03*
X036900Y016590D03*
X036900Y016600D03*
X036910Y016620D03*
X036910Y016630D03*
X036910Y016640D03*
X036910Y016650D03*
X036910Y016660D03*
X036910Y016670D03*
X036910Y016680D03*
X036910Y016690D03*
X036910Y016700D03*
X036910Y016710D03*
X036910Y016720D03*
X036910Y016730D03*
X036910Y016740D03*
X036910Y016750D03*
X036910Y016760D03*
X036910Y016770D03*
X036910Y016780D03*
X036910Y016790D03*
X036910Y016800D03*
X036910Y016810D03*
X036910Y016820D03*
X036910Y016830D03*
X036910Y016840D03*
X036910Y016850D03*
X036910Y016860D03*
X036910Y016870D03*
X036910Y016880D03*
X036920Y017000D03*
X036920Y017010D03*
X036920Y017020D03*
X036920Y017030D03*
X036470Y016860D03*
X036470Y016850D03*
X036470Y016840D03*
X036470Y016830D03*
X036470Y016820D03*
X036470Y016810D03*
X036470Y016800D03*
X036470Y016790D03*
X036470Y016780D03*
X036470Y016770D03*
X036470Y016760D03*
X036470Y016750D03*
X036470Y016740D03*
X036470Y016730D03*
X036460Y016630D03*
X036460Y016620D03*
X036460Y016610D03*
X036460Y016600D03*
X036460Y016590D03*
X036460Y016580D03*
X036180Y017030D03*
X036450Y017500D03*
X037020Y015750D03*
X031190Y015740D03*
D40*
X031190Y015750D03*
X030480Y015780D03*
X029830Y016190D03*
X029830Y016200D03*
X029830Y016210D03*
X029830Y016220D03*
X031040Y016700D03*
X031040Y016710D03*
X031040Y016720D03*
X031050Y016730D03*
X031050Y016740D03*
X030610Y017250D03*
X030610Y017260D03*
X030610Y017270D03*
X030610Y017280D03*
X030610Y017290D03*
X030610Y017300D03*
X030610Y017310D03*
X030610Y017320D03*
X030610Y017330D03*
X030610Y017340D03*
X030610Y017350D03*
X030610Y017360D03*
X030610Y017370D03*
X031000Y017420D03*
X032830Y017390D03*
X032820Y016870D03*
X032820Y016860D03*
X032820Y016850D03*
X032600Y016390D03*
X032590Y016370D03*
X032580Y016360D03*
X032550Y016300D03*
X032830Y015900D03*
X032830Y015890D03*
X032830Y015880D03*
X032830Y015870D03*
X032830Y015860D03*
X032830Y015850D03*
X032830Y015840D03*
X032830Y015830D03*
X032830Y015820D03*
X032830Y015810D03*
X032830Y015800D03*
X032830Y015790D03*
X032830Y015780D03*
X032830Y015770D03*
X033530Y016060D03*
X033540Y016070D03*
X033790Y016020D03*
X033800Y016010D03*
X033850Y017440D03*
X033500Y017440D03*
X035730Y017420D03*
X035730Y017410D03*
X036470Y017270D03*
X036470Y017260D03*
X036470Y017250D03*
X036430Y016350D03*
X036420Y016310D03*
X036410Y016280D03*
X036410Y016270D03*
X036400Y016260D03*
X036400Y016250D03*
X036400Y016240D03*
X036390Y016230D03*
X036390Y016220D03*
X036380Y016200D03*
X036370Y016180D03*
X036710Y016110D03*
X036720Y016100D03*
X035980Y016270D03*
X035520Y016030D03*
X028210Y016520D03*
X028210Y016530D03*
X028210Y016540D03*
X028210Y016550D03*
X028210Y016560D03*
X028210Y016570D03*
X028200Y016450D03*
X028200Y016440D03*
X028200Y016430D03*
X028200Y016420D03*
X028200Y016410D03*
X028200Y016400D03*
X028200Y016390D03*
X028200Y016380D03*
X028200Y016370D03*
X028200Y016360D03*
X028200Y016350D03*
X028190Y016330D03*
X028190Y016320D03*
X028190Y016310D03*
X028190Y016300D03*
X028190Y016290D03*
X028190Y016280D03*
X028190Y016270D03*
X028190Y016260D03*
X028190Y016250D03*
X028190Y016240D03*
X028180Y016210D03*
X028180Y016200D03*
X028180Y016190D03*
X028180Y016180D03*
X028180Y016170D03*
X028180Y016160D03*
X028180Y016150D03*
X028180Y016140D03*
X028170Y016130D03*
X028170Y016120D03*
X028170Y016110D03*
X028170Y016100D03*
X028170Y016090D03*
X028170Y016080D03*
X028160Y016040D03*
X027150Y016930D03*
X027150Y016940D03*
X024770Y019360D03*
X024540Y019350D03*
X024540Y019340D03*
X024540Y019330D03*
X024540Y019260D03*
X024540Y019250D03*
X024540Y019240D03*
X024540Y019170D03*
X024540Y019160D03*
X024540Y019150D03*
X024540Y019140D03*
X023480Y022930D03*
X023480Y022940D03*
X023480Y022950D03*
X024580Y023090D03*
X024580Y023100D03*
X024580Y023110D03*
X024580Y023120D03*
X024580Y023190D03*
X024580Y023200D03*
X024580Y023210D03*
X024580Y023280D03*
X024580Y023290D03*
X024580Y023300D03*
X024810Y023310D03*
D41*
X024785Y023180D03*
X024785Y023170D03*
X024785Y023160D03*
X024785Y023150D03*
X024745Y019230D03*
X024745Y019220D03*
X024745Y019210D03*
X024745Y019200D03*
X027175Y017400D03*
X027175Y017390D03*
X027175Y017380D03*
X027175Y017370D03*
X027175Y017360D03*
X028145Y015970D03*
X028135Y015950D03*
X030705Y016010D03*
X030715Y016020D03*
X030725Y016030D03*
X030835Y016150D03*
X030835Y016180D03*
X030835Y016190D03*
X030935Y016020D03*
X030945Y016010D03*
X030955Y016000D03*
X031185Y015760D03*
X031065Y016770D03*
X031065Y016790D03*
X031005Y017390D03*
X030995Y017410D03*
X030615Y017440D03*
X030615Y017450D03*
X032845Y017450D03*
X032845Y017430D03*
X032805Y016780D03*
X032805Y016770D03*
X032805Y016760D03*
X033835Y015980D03*
X035745Y017440D03*
X035745Y017450D03*
X035745Y017460D03*
X036205Y017170D03*
X036485Y017420D03*
X036485Y017430D03*
X036485Y017440D03*
X036915Y017170D03*
X036755Y016050D03*
X036765Y016040D03*
X036325Y016100D03*
X036315Y016090D03*
X036305Y016080D03*
X036305Y016070D03*
X036295Y016060D03*
D42*
X036105Y015890D03*
X036875Y015950D03*
X036985Y015830D03*
X033345Y015910D03*
X033185Y015800D03*
X031165Y015820D03*
X030835Y016280D03*
X030835Y016290D03*
X031145Y017180D03*
X027935Y015740D03*
X024485Y019060D03*
X023405Y019370D03*
X023405Y019380D03*
X023405Y019390D03*
X023405Y019400D03*
X023405Y019410D03*
X024525Y023010D03*
D43*
X024480Y023000D03*
X024440Y019050D03*
X027960Y015770D03*
X031150Y015870D03*
X033200Y015830D03*
X033270Y015880D03*
X034060Y015840D03*
X035990Y015820D03*
X036930Y015920D03*
X036980Y015870D03*
D44*
X037010Y015770D03*
X036750Y016060D03*
X036740Y016070D03*
X036360Y016160D03*
X036350Y016140D03*
X036340Y016130D03*
X036340Y016120D03*
X036330Y016110D03*
X035530Y016040D03*
X034170Y016260D03*
X033820Y015990D03*
X033500Y016020D03*
X033490Y016010D03*
X033480Y016000D03*
X034110Y015760D03*
X032830Y015760D03*
X032830Y015750D03*
X032830Y015740D03*
X032830Y015730D03*
X032830Y015720D03*
X032830Y015710D03*
X032550Y016310D03*
X032550Y016320D03*
X032560Y016330D03*
X032810Y016790D03*
X032810Y016800D03*
X032810Y016810D03*
X032840Y017420D03*
X031050Y017310D03*
X031040Y017320D03*
X031040Y017330D03*
X031030Y017340D03*
X031030Y017350D03*
X031020Y017360D03*
X031020Y017370D03*
X031010Y017380D03*
X031000Y017400D03*
X030610Y017400D03*
X030610Y017410D03*
X030610Y017420D03*
X030610Y017430D03*
X030840Y016160D03*
X030930Y016030D03*
X031270Y015960D03*
X031280Y015970D03*
X031280Y015980D03*
X031290Y016000D03*
X031290Y016010D03*
X030480Y015790D03*
X029760Y015880D03*
X028150Y015980D03*
X028150Y015990D03*
X028150Y016000D03*
X028140Y015960D03*
X026890Y016310D03*
X027170Y017300D03*
X027170Y017310D03*
X027170Y017320D03*
X027170Y017330D03*
X027170Y017340D03*
X027170Y017350D03*
X023400Y018950D03*
X036480Y017410D03*
X036480Y017400D03*
X036480Y017390D03*
X036480Y017380D03*
X036480Y017370D03*
D45*
X035540Y020295D03*
X035520Y020305D03*
X035510Y020305D03*
X035490Y020315D03*
X035480Y020315D03*
X035470Y020315D03*
X035460Y020325D03*
X035450Y020325D03*
X035440Y020325D03*
X035420Y020335D03*
X035410Y020335D03*
X035380Y020345D03*
X035440Y020395D03*
X035450Y020395D03*
X035460Y020395D03*
X035470Y020395D03*
X035480Y020395D03*
X035490Y020395D03*
X035500Y020395D03*
X035510Y020395D03*
X035520Y020395D03*
X035530Y020395D03*
X035540Y020395D03*
X035590Y020395D03*
X035600Y020395D03*
X035610Y020395D03*
X035620Y020395D03*
X035630Y020395D03*
X035640Y020395D03*
X035650Y020395D03*
X035660Y020395D03*
X035670Y020395D03*
X035730Y020395D03*
X035740Y020395D03*
X035750Y020395D03*
X035760Y020395D03*
X035770Y020395D03*
X035780Y020395D03*
X035790Y020395D03*
X035800Y020395D03*
X035810Y020395D03*
X035820Y020395D03*
X035830Y020395D03*
X035840Y020395D03*
X035850Y020395D03*
X035850Y020515D03*
X035840Y020515D03*
X035830Y020515D03*
X035820Y020515D03*
X035810Y020515D03*
X035800Y020515D03*
X035790Y020515D03*
X035780Y020515D03*
X035770Y020515D03*
X035760Y020515D03*
X035750Y020515D03*
X035740Y020515D03*
X035730Y020515D03*
X035720Y020515D03*
X035710Y020515D03*
X035670Y020515D03*
X035660Y020515D03*
X035650Y020515D03*
X035640Y020515D03*
X035630Y020515D03*
X035620Y020515D03*
X035580Y020515D03*
X035570Y020515D03*
X035560Y020515D03*
X035550Y020515D03*
X035540Y020515D03*
X035530Y020515D03*
X035530Y020645D03*
X035540Y020645D03*
X035550Y020645D03*
X035560Y020645D03*
X035570Y020645D03*
X035580Y020645D03*
X035620Y020645D03*
X035630Y020645D03*
X035640Y020645D03*
X035650Y020645D03*
X035660Y020645D03*
X035670Y020645D03*
X035710Y020645D03*
X035720Y020645D03*
X035730Y020645D03*
X035740Y020645D03*
X035750Y020645D03*
X035760Y020645D03*
X035770Y020645D03*
X035780Y020645D03*
X035790Y020645D03*
X035730Y020735D03*
X035720Y020735D03*
X035710Y020735D03*
X035700Y020735D03*
X035690Y020735D03*
X035680Y020735D03*
X035670Y020735D03*
X035660Y020735D03*
X035650Y020735D03*
X035640Y020735D03*
X035630Y020735D03*
X035620Y020735D03*
X035610Y020735D03*
X035600Y020735D03*
X035590Y020735D03*
X035580Y020735D03*
X035570Y020735D03*
X035560Y020735D03*
X035550Y020735D03*
X035540Y020735D03*
X035530Y020735D03*
X035520Y020735D03*
X035510Y020735D03*
X035510Y020835D03*
X035500Y020835D03*
X035490Y020835D03*
X035480Y020835D03*
X035520Y020835D03*
X035530Y020835D03*
X035540Y020835D03*
X035550Y020835D03*
X035560Y020835D03*
X035570Y020835D03*
X035580Y020835D03*
X035590Y020835D03*
X035600Y020835D03*
X035610Y020835D03*
X035620Y020835D03*
X035630Y020835D03*
X035640Y020835D03*
X035650Y020835D03*
X035660Y020835D03*
X035670Y020835D03*
X035680Y020835D03*
X035690Y020835D03*
X035700Y020835D03*
X035710Y020835D03*
X035720Y020835D03*
X035730Y020835D03*
X035740Y020835D03*
X035750Y020835D03*
X035760Y020835D03*
X035770Y020835D03*
X035780Y020835D03*
X035790Y020835D03*
X035440Y020855D03*
X035300Y020365D03*
D46*
X035380Y020560D03*
X035370Y020570D03*
X035360Y020580D03*
X035250Y020670D03*
X035240Y020680D03*
X035320Y020730D03*
X035330Y020740D03*
X035340Y020750D03*
X035350Y020760D03*
X035360Y020770D03*
X035370Y020780D03*
X035380Y020790D03*
X035840Y020600D03*
D47*
X035820Y020605D03*
X035840Y020775D03*
X035270Y020675D03*
D48*
X035420Y020850D03*
X035830Y020610D03*
D49*
X035830Y020775D03*
D50*
X035800Y020830D03*
X035760Y020980D03*
X035750Y020980D03*
X035740Y020980D03*
X035730Y020980D03*
X035720Y020980D03*
X035710Y020980D03*
X035700Y020980D03*
X035690Y020980D03*
X035680Y020980D03*
X035670Y020980D03*
X035660Y020980D03*
X035650Y020980D03*
X035640Y020980D03*
X035630Y020980D03*
X035620Y020980D03*
X035610Y020980D03*
X035600Y020980D03*
X035470Y021000D03*
X035460Y021000D03*
X035450Y021000D03*
X035440Y021000D03*
X035430Y021000D03*
X035420Y021000D03*
X035410Y021000D03*
X035400Y021000D03*
X035390Y021000D03*
X035380Y021000D03*
X035370Y021000D03*
X035360Y021000D03*
X035350Y021000D03*
X035340Y021000D03*
X035330Y021000D03*
X035320Y021000D03*
X035310Y021000D03*
X035310Y021210D03*
X035300Y021210D03*
X035290Y021210D03*
X035280Y021210D03*
X035270Y021210D03*
X035260Y021210D03*
X035250Y021210D03*
X035320Y021210D03*
X035330Y021210D03*
X035340Y021210D03*
X035350Y021210D03*
X035360Y021210D03*
X035370Y021210D03*
X035380Y021210D03*
X035390Y021210D03*
X035400Y021210D03*
X035410Y021210D03*
X035420Y021210D03*
X035430Y021210D03*
X035440Y021210D03*
X035450Y021210D03*
X035460Y021210D03*
X035470Y021210D03*
X035530Y021210D03*
X035540Y021210D03*
X035550Y021210D03*
X035560Y021210D03*
X035570Y021210D03*
X035580Y021210D03*
X035590Y021210D03*
X035600Y021210D03*
X035610Y021210D03*
X035620Y021210D03*
X035630Y021210D03*
X035640Y021210D03*
X035650Y021210D03*
X035660Y021210D03*
X035670Y021210D03*
X035680Y021210D03*
X035690Y021210D03*
X035700Y021210D03*
X035710Y021210D03*
X035720Y021210D03*
X035730Y021210D03*
X035740Y021210D03*
X035750Y021210D03*
X035760Y021210D03*
X035760Y021450D03*
X035750Y021450D03*
X035740Y021450D03*
X035730Y021450D03*
X035720Y021450D03*
X035710Y021450D03*
X035700Y021450D03*
X035690Y021450D03*
X035680Y021450D03*
X035670Y021450D03*
X035660Y021450D03*
X035650Y021450D03*
X035640Y021450D03*
X035630Y021450D03*
X035620Y021450D03*
X035610Y021450D03*
X035600Y021450D03*
X035540Y021430D03*
X035530Y021430D03*
X035470Y021430D03*
X035460Y021430D03*
X035450Y021430D03*
X035440Y021430D03*
X035430Y021430D03*
X035420Y021430D03*
X035410Y021430D03*
X035400Y021430D03*
X035390Y021430D03*
X035380Y021430D03*
X035370Y021430D03*
X035360Y021430D03*
X035350Y021430D03*
X035340Y021430D03*
X035330Y021430D03*
X035320Y021430D03*
X035310Y021430D03*
X035820Y021450D03*
X035830Y021450D03*
X035800Y020640D03*
X035670Y020460D03*
X035530Y020300D03*
X035500Y020310D03*
X035430Y020330D03*
X035400Y020340D03*
X035390Y020340D03*
X035330Y020360D03*
X035320Y020360D03*
X035310Y020360D03*
X035290Y020370D03*
X035280Y020370D03*
X035270Y020370D03*
X035250Y020380D03*
X035300Y020630D03*
D51*
X035810Y020780D03*
X035820Y020780D03*
D52*
X035810Y020610D03*
X035280Y020670D03*
D53*
X035770Y021215D03*
X035780Y021215D03*
X035790Y021215D03*
X035800Y021215D03*
X035810Y021215D03*
D54*
X035450Y020490D03*
X035240Y020370D03*
X035730Y020290D03*
D55*
X035720Y020340D03*
D56*
X035710Y020350D03*
X035700Y020580D03*
X035690Y020580D03*
X035680Y020580D03*
X035610Y020580D03*
X035600Y020580D03*
X035590Y020580D03*
X035520Y020580D03*
X035510Y020580D03*
X035500Y020580D03*
X035490Y020580D03*
D57*
X035690Y020370D03*
X035700Y020370D03*
D58*
X035680Y020405D03*
D59*
X035580Y020375D03*
X035570Y020375D03*
X035560Y020375D03*
X035550Y020375D03*
D60*
X035520Y021215D03*
X035510Y021215D03*
X035500Y021215D03*
X035490Y021215D03*
X035480Y021215D03*
D61*
X035430Y020855D03*
X035310Y020725D03*
X035300Y020715D03*
X035290Y020705D03*
X035290Y020635D03*
X035310Y020625D03*
X035320Y020615D03*
X035330Y020605D03*
X035340Y020595D03*
X035350Y020585D03*
X035440Y020495D03*
X035260Y020375D03*
D62*
X035420Y020505D03*
X035430Y020495D03*
X035390Y020545D03*
X035260Y020675D03*
X035390Y020805D03*
X035410Y020835D03*
D63*
X035420Y020675D03*
X035430Y020675D03*
D64*
X035410Y020635D03*
D65*
X035400Y020680D03*
D66*
X035370Y020380D03*
X035360Y020380D03*
X035350Y020380D03*
X035340Y020380D03*
D67*
X035030Y020344D02*
X034570Y020344D01*
X034570Y020191D02*
X034570Y020498D01*
X034570Y020651D02*
X034570Y020881D01*
X034646Y020958D01*
X034800Y020958D01*
X034877Y020881D01*
X034877Y020651D01*
X035030Y020651D02*
X034570Y020651D01*
X034570Y020037D02*
X034953Y020037D01*
X035030Y019961D01*
X035030Y019807D01*
X034953Y019730D01*
X034570Y019730D01*
X034646Y019577D02*
X034570Y019500D01*
X034570Y019347D01*
X034646Y019270D01*
X034953Y019270D01*
X035030Y019347D01*
X035030Y019500D01*
X034953Y019577D01*
X034646Y019577D01*
X034570Y021112D02*
X034953Y021112D01*
X035030Y021188D01*
X035030Y021342D01*
X034953Y021418D01*
X034570Y021418D01*
X034570Y021572D02*
X034570Y021879D01*
X034570Y021725D02*
X035030Y021725D01*
X038331Y019513D02*
X038407Y019590D01*
X038484Y019590D01*
X038561Y019513D01*
X038638Y019590D01*
X038714Y019590D01*
X038791Y019513D01*
X038791Y019360D01*
X038714Y019283D01*
X038791Y019130D02*
X038331Y019130D01*
X038407Y019283D02*
X038331Y019360D01*
X038331Y019513D01*
X038561Y019513D02*
X038561Y019437D01*
X038561Y019130D02*
X038561Y018823D01*
X038791Y018823D02*
X038331Y018823D01*
X037441Y025074D02*
X037441Y025231D01*
X037165Y025231D02*
X037165Y025074D01*
X025943Y026148D02*
X025636Y026148D01*
X025483Y026148D02*
X025483Y026608D01*
X025636Y026455D02*
X025790Y026608D01*
X025790Y026148D01*
X025483Y026378D02*
X025176Y026378D01*
X025176Y026148D02*
X025176Y026608D01*
X025227Y022630D02*
X025380Y022630D01*
X025303Y022630D02*
X025303Y022170D01*
X025227Y022170D02*
X025380Y022170D01*
X025073Y022170D02*
X024766Y022630D01*
X024766Y022170D01*
X024613Y022170D02*
X024613Y022630D01*
X024613Y022477D02*
X024382Y022477D01*
X024306Y022400D01*
X024306Y022246D01*
X024382Y022170D01*
X024613Y022170D01*
X025073Y022170D02*
X025073Y022630D01*
X024152Y022553D02*
X024152Y022170D01*
X023845Y022170D02*
X023845Y022553D01*
X023922Y022630D01*
X024076Y022630D01*
X024152Y022553D01*
X023692Y022170D02*
X023385Y022170D01*
X023538Y022170D02*
X023538Y022630D01*
X023232Y022630D02*
X022925Y022630D01*
X023078Y022630D02*
X023078Y022170D01*
X023232Y022323D01*
X023127Y020130D02*
X023434Y019670D01*
X023434Y020130D01*
X023587Y020130D02*
X023587Y019670D01*
X023587Y019823D02*
X023818Y019823D01*
X023894Y019900D01*
X023894Y020054D01*
X023818Y020130D01*
X023587Y020130D01*
X023127Y020130D02*
X023127Y019670D01*
X022973Y019670D02*
X022820Y019670D01*
X022897Y019670D02*
X022897Y020130D01*
X022973Y020130D02*
X022820Y020130D01*
X024048Y020130D02*
X024048Y019747D01*
X024124Y019670D01*
X024278Y019670D01*
X024355Y019747D01*
X024355Y020130D01*
X024508Y020130D02*
X024815Y020130D01*
X024662Y020130D02*
X024662Y019670D01*
X024968Y019670D02*
X025275Y019977D01*
X025275Y020054D01*
X025199Y020130D01*
X025045Y020130D01*
X024968Y020054D01*
X024968Y019670D02*
X025275Y019670D01*
X022825Y016337D02*
X022672Y016337D01*
X022595Y016260D01*
X022442Y016337D02*
X022442Y015876D01*
X022595Y015876D02*
X022902Y016183D01*
X022902Y016260D01*
X022825Y016337D01*
X022442Y016107D02*
X022135Y016107D01*
X022135Y016337D02*
X022135Y015876D01*
X022595Y015876D02*
X022902Y015876D01*
D68*
X027165Y017220D03*
X027165Y017230D03*
X027165Y017240D03*
X027165Y017250D03*
X027165Y017260D03*
X027165Y017270D03*
X027165Y017280D03*
X027165Y017290D03*
X028215Y016610D03*
X028215Y016600D03*
X028215Y016590D03*
X028215Y016580D03*
X028205Y016510D03*
X028205Y016500D03*
X028205Y016490D03*
X028205Y016480D03*
X028205Y016470D03*
X028205Y016460D03*
X028165Y016070D03*
X028165Y016060D03*
X028165Y016050D03*
X028155Y016030D03*
X028155Y016020D03*
X028155Y016010D03*
X027885Y015710D03*
X030835Y016170D03*
X031285Y015990D03*
X031055Y016750D03*
X031055Y016760D03*
X031045Y017300D03*
X030605Y017380D03*
X030605Y017390D03*
X032565Y016340D03*
X032575Y016350D03*
X032815Y016820D03*
X032815Y016830D03*
X032815Y016840D03*
X032835Y017400D03*
X032835Y017410D03*
X033505Y017450D03*
X033505Y017460D03*
X033855Y017460D03*
X033855Y017450D03*
X033145Y016260D03*
X033145Y016130D03*
X033155Y015760D03*
X033505Y016030D03*
X033515Y016040D03*
X033525Y016050D03*
X033815Y016000D03*
X035965Y015730D03*
X036355Y016150D03*
X036365Y016170D03*
X036375Y016190D03*
X036385Y016210D03*
X036725Y016090D03*
X036735Y016080D03*
X037015Y015760D03*
X036475Y017280D03*
X036475Y017290D03*
X036475Y017300D03*
X036475Y017310D03*
X036475Y017320D03*
X036475Y017330D03*
X036475Y017340D03*
X036475Y017350D03*
X036475Y017360D03*
X035735Y017430D03*
D69*
X035585Y016080D03*
X035965Y015780D03*
X036075Y015870D03*
X036985Y015840D03*
X033195Y015810D03*
X030835Y016300D03*
X030835Y016310D03*
X028055Y015880D03*
X027945Y015750D03*
D70*
X027955Y015760D03*
X029825Y015920D03*
X031155Y015850D03*
X029805Y017040D03*
X033195Y015820D03*
X036045Y015850D03*
X036905Y015930D03*
X036985Y015850D03*
D71*
X035975Y015810D03*
X035965Y015800D03*
X031145Y015880D03*
X030825Y016040D03*
X029845Y015930D03*
X027965Y015780D03*
D72*
X027970Y015790D03*
X030300Y016090D03*
X031100Y017040D03*
X034060Y015850D03*
X036980Y015880D03*
D73*
X036980Y015860D03*
X036030Y015840D03*
X035970Y015790D03*
X034060Y015830D03*
X033980Y015900D03*
X033300Y015890D03*
X030830Y016060D03*
X029810Y017180D03*
D74*
X031140Y015900D03*
X034020Y015890D03*
X035620Y016100D03*
X036980Y015890D03*
X027970Y015800D03*
D75*
X027975Y015810D03*
X031135Y015910D03*
X033205Y015850D03*
X034055Y015860D03*
X035845Y016210D03*
D76*
X036090Y015880D03*
X036890Y015940D03*
X034070Y015810D03*
X033950Y015910D03*
X031160Y015830D03*
X030830Y016080D03*
X029810Y015910D03*
D77*
X031135Y015920D03*
X034055Y015870D03*
X035635Y016110D03*
X027975Y015830D03*
X027975Y015820D03*
D78*
X030330Y016100D03*
X030830Y016070D03*
X030830Y016320D03*
X031160Y015840D03*
X033320Y015900D03*
X034070Y015820D03*
X036060Y015860D03*
D79*
X036015Y015830D03*
X035605Y016090D03*
X031155Y015860D03*
X030825Y016050D03*
D80*
X031145Y015890D03*
X033205Y015840D03*
X033245Y015870D03*
X035855Y016220D03*
X035855Y016230D03*
X035855Y016240D03*
X036955Y015910D03*
D81*
X035655Y016120D03*
X027975Y015860D03*
D82*
X029860Y015940D03*
X033220Y015860D03*
X036980Y015900D03*
D83*
X027970Y015870D03*
D84*
X031130Y015930D03*
D85*
X029895Y015960D03*
X035795Y016190D03*
D86*
X029920Y015970D03*
D87*
X029960Y015990D03*
D88*
X029985Y016000D03*
D89*
X030005Y016010D03*
D90*
X030030Y016020D03*
D91*
X030060Y016030D03*
X036550Y017040D03*
X036550Y017050D03*
X036550Y017060D03*
D92*
X030100Y016040D03*
D93*
X030145Y016050D03*
D94*
X030230Y016070D03*
D95*
X035675Y016130D03*
D96*
X033660Y016140D03*
X033660Y016150D03*
X033660Y016160D03*
X033660Y016170D03*
X033660Y016180D03*
X033660Y016190D03*
X033660Y016200D03*
X033660Y016210D03*
X033660Y016220D03*
X033660Y016230D03*
X033660Y016240D03*
X033660Y016250D03*
D97*
X035700Y016140D03*
X035760Y016180D03*
D98*
X035725Y016150D03*
X035725Y016830D03*
X035725Y016840D03*
X035725Y016850D03*
X035725Y016860D03*
X035725Y016870D03*
X035725Y016880D03*
X035725Y016890D03*
X035725Y016900D03*
X035725Y016910D03*
X035725Y016920D03*
X035725Y016930D03*
X035725Y016940D03*
X035725Y016950D03*
X035725Y016960D03*
D99*
X027365Y016300D03*
X027365Y016290D03*
X027365Y016280D03*
X027365Y016270D03*
X027365Y016260D03*
X027365Y016250D03*
X027365Y016240D03*
X027365Y016230D03*
X027365Y016220D03*
X027365Y016210D03*
X027365Y016200D03*
X027365Y016190D03*
X027365Y016180D03*
X027365Y016170D03*
X027365Y016160D03*
D100*
X030095Y016320D03*
X030095Y016330D03*
X030095Y016340D03*
X030095Y016350D03*
X030095Y016360D03*
X030095Y016370D03*
X030095Y016380D03*
X030095Y016390D03*
X030095Y016400D03*
X030095Y016410D03*
X030095Y016420D03*
X030095Y016430D03*
X030095Y016710D03*
X030095Y016720D03*
X030095Y016730D03*
X030095Y016740D03*
X030095Y016750D03*
X030095Y016760D03*
X030095Y016770D03*
X035725Y016160D03*
D101*
X035730Y016170D03*
D102*
X033675Y016400D03*
X033675Y016410D03*
X033675Y016970D03*
X033675Y016980D03*
D103*
X033680Y016960D03*
X033680Y016950D03*
X033680Y016440D03*
X033680Y016430D03*
X033680Y016420D03*
X036560Y017150D03*
X036560Y017160D03*
D104*
X036595Y016570D03*
X036595Y016560D03*
X036595Y016550D03*
X036595Y016540D03*
X036595Y016530D03*
X036595Y016520D03*
X036595Y016510D03*
X036595Y016500D03*
X036595Y016490D03*
X036595Y016480D03*
X036595Y016470D03*
X036595Y016460D03*
X036595Y016450D03*
X036595Y016440D03*
D105*
X036555Y017070D03*
X036555Y017080D03*
X036555Y017090D03*
X036555Y017100D03*
X036555Y017110D03*
X036555Y017120D03*
X036555Y017130D03*
X036555Y017140D03*
X033675Y016940D03*
X033675Y016930D03*
X033675Y016920D03*
X033675Y016910D03*
X033675Y016900D03*
X033675Y016890D03*
X033675Y016880D03*
X033675Y016740D03*
X033675Y016730D03*
X033675Y016720D03*
X033675Y016710D03*
X033675Y016700D03*
X033675Y016690D03*
X033675Y016680D03*
X033675Y016670D03*
X033675Y016660D03*
X033675Y016650D03*
X033675Y016640D03*
X033675Y016500D03*
X033675Y016490D03*
X033675Y016480D03*
X033675Y016470D03*
X033675Y016460D03*
X033675Y016450D03*
D106*
X027690Y016740D03*
X027690Y016750D03*
X027680Y016700D03*
X027680Y016690D03*
X027680Y016680D03*
X027680Y016670D03*
X027680Y016660D03*
X027680Y016650D03*
X027680Y016640D03*
X027680Y016630D03*
X027680Y016620D03*
D107*
X027685Y016710D03*
X027685Y016720D03*
X027685Y016730D03*
D108*
X030095Y016780D03*
X030095Y016790D03*
X030095Y016800D03*
X030095Y016810D03*
X030095Y016820D03*
X030095Y016830D03*
D109*
X032835Y016930D03*
X032835Y016940D03*
X032835Y016950D03*
X032835Y016960D03*
X032835Y016970D03*
X032835Y016980D03*
X032835Y016990D03*
X032835Y017000D03*
X032835Y017010D03*
X032835Y017020D03*
X032835Y017030D03*
X032835Y017040D03*
D110*
X030465Y017050D03*
X030465Y017060D03*
X030465Y017070D03*
X030465Y017080D03*
X030465Y017090D03*
X030465Y017100D03*
X030465Y017110D03*
X030465Y017120D03*
X030465Y017130D03*
X030465Y017140D03*
X030465Y017150D03*
X030465Y017160D03*
X030465Y017170D03*
D111*
X027725Y017170D03*
X027725Y017180D03*
X027725Y017190D03*
X027725Y017200D03*
X027725Y017210D03*
X027725Y017160D03*
X027725Y017150D03*
X027725Y017140D03*
X027725Y017130D03*
X027725Y017120D03*
X027725Y017110D03*
X027725Y017100D03*
X027725Y017090D03*
X027725Y017080D03*
D112*
X033710Y017160D03*
X033710Y017170D03*
X033710Y017180D03*
X033710Y017190D03*
X033710Y017200D03*
X033710Y017210D03*
X033710Y017220D03*
X033710Y017230D03*
X033710Y017240D03*
X033710Y017250D03*
X033710Y017260D03*
X033710Y017270D03*
D113*
X029533Y021931D02*
X029511Y021931D01*
D114*
X029837Y021998D02*
X030127Y021998D01*
X030127Y021901D02*
X030127Y022095D01*
X029933Y021901D02*
X029837Y021998D01*
X029885Y021800D02*
X029837Y021752D01*
X029837Y021655D01*
X029885Y021607D01*
X030079Y021607D01*
X030127Y021655D01*
X030127Y021752D01*
X030079Y021800D01*
X030159Y020394D02*
X030159Y020201D01*
X030159Y020297D02*
X029869Y020297D01*
X029965Y020201D01*
X029917Y020099D02*
X029869Y020051D01*
X029869Y019954D01*
X029917Y019906D01*
X030110Y019906D01*
X030159Y019954D01*
X030159Y020051D01*
X030110Y020099D01*
X030159Y019806D02*
X030159Y019710D01*
X030159Y019758D02*
X029869Y019758D01*
X029869Y019710D02*
X029869Y019806D01*
X027376Y020794D02*
X027174Y021041D01*
X026749Y021041D01*
X026760Y021013D02*
X027197Y021013D01*
X027174Y021041D02*
X027225Y021141D01*
X027259Y021248D01*
X027577Y021280D01*
X027577Y021520D01*
X027259Y021552D01*
X027225Y021659D01*
X027174Y021759D01*
X027376Y022006D01*
X027206Y022176D01*
X026959Y021974D01*
X026859Y022025D01*
X026752Y022059D01*
X026720Y022377D01*
X026480Y022377D01*
X026448Y022059D01*
X026341Y022025D01*
X026241Y021974D01*
X025994Y022176D01*
X025824Y022006D01*
X026026Y021759D01*
X025975Y021659D01*
X025941Y021552D01*
X025623Y021520D01*
X025623Y021280D01*
X025941Y021248D01*
X025975Y021141D01*
X026026Y021041D01*
X026451Y021041D01*
X026440Y021013D02*
X026003Y021013D01*
X026026Y021041D02*
X025824Y020794D01*
X025994Y020624D01*
X026241Y020826D01*
X026341Y020775D01*
X026482Y021116D01*
X026429Y021144D01*
X026382Y021182D01*
X026344Y021229D01*
X026316Y021282D01*
X026298Y021340D01*
X026292Y021400D01*
X026299Y021463D01*
X026318Y021523D01*
X026349Y021578D01*
X026391Y021625D01*
X026441Y021663D01*
X026498Y021690D01*
X026560Y021705D01*
X026623Y021707D01*
X026685Y021696D01*
X026744Y021672D01*
X026796Y021637D01*
X026840Y021592D01*
X026875Y021539D01*
X026897Y021480D01*
X026907Y021417D01*
X026904Y021354D01*
X026888Y021293D01*
X026860Y021236D01*
X026822Y021187D01*
X026773Y021146D01*
X026718Y021116D01*
X026859Y020775D01*
X026959Y020826D01*
X027206Y020624D01*
X027376Y020794D01*
X027366Y020785D02*
X027009Y020785D01*
X026974Y020813D02*
X027360Y020813D01*
X027337Y020842D02*
X026831Y020842D01*
X026819Y020870D02*
X027313Y020870D01*
X027290Y020899D02*
X026808Y020899D01*
X026796Y020927D02*
X027267Y020927D01*
X027244Y020956D02*
X026784Y020956D01*
X026772Y020984D02*
X027221Y020984D01*
X027188Y021070D02*
X026737Y021070D01*
X026725Y021098D02*
X027203Y021098D01*
X027218Y021127D02*
X026738Y021127D01*
X026784Y021155D02*
X027230Y021155D01*
X027239Y021184D02*
X026818Y021184D01*
X026842Y021212D02*
X027248Y021212D01*
X027257Y021241D02*
X026863Y021241D01*
X026877Y021269D02*
X027470Y021269D01*
X027577Y021298D02*
X026890Y021298D01*
X026897Y021326D02*
X027577Y021326D01*
X027577Y021355D02*
X026904Y021355D01*
X026906Y021383D02*
X027577Y021383D01*
X027577Y021412D02*
X026907Y021412D01*
X026903Y021440D02*
X027577Y021440D01*
X027577Y021469D02*
X026899Y021469D01*
X026890Y021497D02*
X027577Y021497D01*
X027521Y021526D02*
X026880Y021526D01*
X026865Y021554D02*
X027259Y021554D01*
X027250Y021583D02*
X026846Y021583D01*
X026821Y021611D02*
X027240Y021611D01*
X027231Y021640D02*
X026792Y021640D01*
X026749Y021668D02*
X027220Y021668D01*
X027206Y021697D02*
X026679Y021697D01*
X026525Y021697D02*
X025994Y021697D01*
X026009Y021725D02*
X027191Y021725D01*
X027176Y021754D02*
X026024Y021754D01*
X026007Y021782D02*
X027193Y021782D01*
X027216Y021811D02*
X025984Y021811D01*
X025960Y021839D02*
X027240Y021839D01*
X027263Y021868D02*
X025937Y021868D01*
X025914Y021896D02*
X027286Y021896D01*
X027309Y021925D02*
X025891Y021925D01*
X025867Y021953D02*
X027333Y021953D01*
X027356Y021982D02*
X026968Y021982D01*
X026943Y021982D02*
X026257Y021982D01*
X026232Y021982D02*
X025844Y021982D01*
X025829Y022010D02*
X026197Y022010D01*
X026162Y022039D02*
X025857Y022039D01*
X025886Y022067D02*
X026127Y022067D01*
X026092Y022096D02*
X025914Y022096D01*
X025943Y022124D02*
X026057Y022124D01*
X026022Y022153D02*
X025971Y022153D01*
X026312Y022010D02*
X026888Y022010D01*
X026817Y022039D02*
X026383Y022039D01*
X026449Y022067D02*
X026751Y022067D01*
X026749Y022096D02*
X026451Y022096D01*
X026454Y022124D02*
X026746Y022124D01*
X026743Y022153D02*
X026457Y022153D01*
X026460Y022181D02*
X026740Y022181D01*
X026737Y022210D02*
X026463Y022210D01*
X026466Y022238D02*
X026734Y022238D01*
X026731Y022267D02*
X026469Y022267D01*
X026472Y022295D02*
X026728Y022295D01*
X026725Y022324D02*
X026475Y022324D01*
X026478Y022352D02*
X026722Y022352D01*
X027003Y022010D02*
X027371Y022010D01*
X027343Y022039D02*
X027038Y022039D01*
X027073Y022067D02*
X027314Y022067D01*
X027286Y022096D02*
X027108Y022096D01*
X027143Y022124D02*
X027257Y022124D01*
X027229Y022153D02*
X027178Y022153D01*
X026451Y021668D02*
X025980Y021668D01*
X025969Y021640D02*
X026410Y021640D01*
X026378Y021611D02*
X025960Y021611D01*
X025950Y021583D02*
X026353Y021583D01*
X026336Y021554D02*
X025941Y021554D01*
X025679Y021526D02*
X026320Y021526D01*
X026310Y021497D02*
X025623Y021497D01*
X025623Y021469D02*
X026301Y021469D01*
X026297Y021440D02*
X025623Y021440D01*
X025623Y021412D02*
X026294Y021412D01*
X026294Y021383D02*
X025623Y021383D01*
X025623Y021355D02*
X026297Y021355D01*
X026302Y021326D02*
X025623Y021326D01*
X025623Y021298D02*
X026311Y021298D01*
X026323Y021269D02*
X025730Y021269D01*
X025943Y021241D02*
X026338Y021241D01*
X026358Y021212D02*
X025952Y021212D01*
X025961Y021184D02*
X026382Y021184D01*
X026416Y021155D02*
X025970Y021155D01*
X025982Y021127D02*
X026462Y021127D01*
X026475Y021098D02*
X025997Y021098D01*
X026012Y021070D02*
X026463Y021070D01*
X026428Y020984D02*
X025979Y020984D01*
X025956Y020956D02*
X026416Y020956D01*
X026404Y020927D02*
X025933Y020927D01*
X025910Y020899D02*
X026392Y020899D01*
X026381Y020870D02*
X025887Y020870D01*
X025863Y020842D02*
X026369Y020842D01*
X026357Y020813D02*
X026267Y020813D01*
X026226Y020813D02*
X025840Y020813D01*
X025834Y020785D02*
X026191Y020785D01*
X026156Y020756D02*
X025862Y020756D01*
X025891Y020728D02*
X026121Y020728D01*
X026086Y020699D02*
X025919Y020699D01*
X025948Y020671D02*
X026051Y020671D01*
X026016Y020642D02*
X025976Y020642D01*
X026322Y020785D02*
X026345Y020785D01*
X026843Y020813D02*
X026933Y020813D01*
X026878Y020785D02*
X026855Y020785D01*
X027044Y020756D02*
X027338Y020756D01*
X027309Y020728D02*
X027079Y020728D01*
X027114Y020699D02*
X027281Y020699D01*
X027252Y020671D02*
X027149Y020671D01*
X027184Y020642D02*
X027224Y020642D01*
X032864Y023643D02*
X032864Y023788D01*
X032913Y023837D01*
X033009Y023837D01*
X033058Y023788D01*
X033058Y023643D01*
X033155Y023643D02*
X032864Y023643D01*
X033058Y023740D02*
X033155Y023837D01*
X033155Y023938D02*
X032961Y024131D01*
X032913Y024131D01*
X032864Y024083D01*
X032864Y023986D01*
X032913Y023938D01*
X033155Y023938D02*
X033155Y024131D01*
X036713Y023775D02*
X037003Y023775D01*
X037003Y023679D02*
X037003Y023872D01*
X036809Y023679D02*
X036713Y023775D01*
X036761Y023577D02*
X036858Y023577D01*
X036906Y023529D01*
X036906Y023384D01*
X036906Y023481D02*
X037003Y023577D01*
X037003Y023384D02*
X036713Y023384D01*
X036713Y023529D01*
X036761Y023577D01*
X037528Y024577D02*
X037818Y024577D01*
X037818Y024770D01*
X037818Y024871D02*
X037818Y025065D01*
X037818Y025166D02*
X037818Y025311D01*
X037770Y025360D01*
X037576Y025360D01*
X037528Y025311D01*
X037528Y025166D01*
X037818Y025166D01*
X037673Y024968D02*
X037673Y024871D01*
X037528Y024871D02*
X037818Y024871D01*
X037528Y024871D02*
X037528Y025065D01*
X037625Y025461D02*
X037528Y025558D01*
X037818Y025558D01*
X037818Y025654D02*
X037818Y025461D01*
D115*
X038034Y026294D02*
X038036Y026333D01*
X038042Y026372D01*
X038052Y026410D01*
X038065Y026447D01*
X038082Y026482D01*
X038102Y026516D01*
X038126Y026547D01*
X038153Y026576D01*
X038182Y026602D01*
X038214Y026625D01*
X038248Y026645D01*
X038284Y026661D01*
X038321Y026673D01*
X038360Y026682D01*
X038399Y026687D01*
X038438Y026688D01*
X038477Y026685D01*
X038516Y026678D01*
X038553Y026667D01*
X038590Y026653D01*
X038625Y026635D01*
X038658Y026614D01*
X038689Y026589D01*
X038717Y026562D01*
X038742Y026532D01*
X038764Y026499D01*
X038783Y026465D01*
X038798Y026429D01*
X038810Y026391D01*
X038818Y026353D01*
X038822Y026314D01*
X038822Y026274D01*
X038818Y026235D01*
X038810Y026197D01*
X038798Y026159D01*
X038783Y026123D01*
X038764Y026089D01*
X038742Y026056D01*
X038717Y026026D01*
X038689Y025999D01*
X038658Y025974D01*
X038625Y025953D01*
X038590Y025935D01*
X038553Y025921D01*
X038516Y025910D01*
X038477Y025903D01*
X038438Y025900D01*
X038399Y025901D01*
X038360Y025906D01*
X038321Y025915D01*
X038284Y025927D01*
X038248Y025943D01*
X038214Y025963D01*
X038182Y025986D01*
X038153Y026012D01*
X038126Y026041D01*
X038102Y026072D01*
X038082Y026106D01*
X038065Y026141D01*
X038052Y026178D01*
X038042Y026216D01*
X038036Y026255D01*
X038034Y026294D01*
X038428Y027081D02*
X038482Y027079D01*
X038535Y027074D01*
X038588Y027065D01*
X038640Y027052D01*
X038692Y027036D01*
X038742Y027016D01*
X038790Y026993D01*
X038837Y026966D01*
X038882Y026937D01*
X038925Y026904D01*
X038965Y026869D01*
X039003Y026831D01*
X039038Y026791D01*
X039071Y026748D01*
X039100Y026703D01*
X039127Y026656D01*
X039150Y026608D01*
X039170Y026558D01*
X039186Y026506D01*
X039199Y026454D01*
X039208Y026401D01*
X039213Y026348D01*
X039215Y026294D01*
X039215Y016057D01*
X038034Y016057D02*
X038036Y016096D01*
X038042Y016135D01*
X038052Y016173D01*
X038065Y016210D01*
X038082Y016245D01*
X038102Y016279D01*
X038126Y016310D01*
X038153Y016339D01*
X038182Y016365D01*
X038214Y016388D01*
X038248Y016408D01*
X038284Y016424D01*
X038321Y016436D01*
X038360Y016445D01*
X038399Y016450D01*
X038438Y016451D01*
X038477Y016448D01*
X038516Y016441D01*
X038553Y016430D01*
X038590Y016416D01*
X038625Y016398D01*
X038658Y016377D01*
X038689Y016352D01*
X038717Y016325D01*
X038742Y016295D01*
X038764Y016262D01*
X038783Y016228D01*
X038798Y016192D01*
X038810Y016154D01*
X038818Y016116D01*
X038822Y016077D01*
X038822Y016037D01*
X038818Y015998D01*
X038810Y015960D01*
X038798Y015922D01*
X038783Y015886D01*
X038764Y015852D01*
X038742Y015819D01*
X038717Y015789D01*
X038689Y015762D01*
X038658Y015737D01*
X038625Y015716D01*
X038590Y015698D01*
X038553Y015684D01*
X038516Y015673D01*
X038477Y015666D01*
X038438Y015663D01*
X038399Y015664D01*
X038360Y015669D01*
X038321Y015678D01*
X038284Y015690D01*
X038248Y015706D01*
X038214Y015726D01*
X038182Y015749D01*
X038153Y015775D01*
X038126Y015804D01*
X038102Y015835D01*
X038082Y015869D01*
X038065Y015904D01*
X038052Y015941D01*
X038042Y015979D01*
X038036Y016018D01*
X038034Y016057D01*
X038428Y015270D02*
X038482Y015272D01*
X038535Y015277D01*
X038588Y015286D01*
X038640Y015299D01*
X038692Y015315D01*
X038742Y015335D01*
X038790Y015358D01*
X038837Y015385D01*
X038882Y015414D01*
X038925Y015447D01*
X038965Y015482D01*
X039003Y015520D01*
X039038Y015560D01*
X039071Y015603D01*
X039100Y015648D01*
X039127Y015695D01*
X039150Y015743D01*
X039170Y015793D01*
X039186Y015845D01*
X039199Y015897D01*
X039208Y015950D01*
X039213Y016003D01*
X039215Y016057D01*
X038428Y015270D02*
X020317Y015270D01*
X019530Y015270D01*
X019530Y016057D02*
X019530Y026294D01*
X019923Y026294D02*
X019925Y026333D01*
X019931Y026372D01*
X019941Y026410D01*
X019954Y026447D01*
X019971Y026482D01*
X019991Y026516D01*
X020015Y026547D01*
X020042Y026576D01*
X020071Y026602D01*
X020103Y026625D01*
X020137Y026645D01*
X020173Y026661D01*
X020210Y026673D01*
X020249Y026682D01*
X020288Y026687D01*
X020327Y026688D01*
X020366Y026685D01*
X020405Y026678D01*
X020442Y026667D01*
X020479Y026653D01*
X020514Y026635D01*
X020547Y026614D01*
X020578Y026589D01*
X020606Y026562D01*
X020631Y026532D01*
X020653Y026499D01*
X020672Y026465D01*
X020687Y026429D01*
X020699Y026391D01*
X020707Y026353D01*
X020711Y026314D01*
X020711Y026274D01*
X020707Y026235D01*
X020699Y026197D01*
X020687Y026159D01*
X020672Y026123D01*
X020653Y026089D01*
X020631Y026056D01*
X020606Y026026D01*
X020578Y025999D01*
X020547Y025974D01*
X020514Y025953D01*
X020479Y025935D01*
X020442Y025921D01*
X020405Y025910D01*
X020366Y025903D01*
X020327Y025900D01*
X020288Y025901D01*
X020249Y025906D01*
X020210Y025915D01*
X020173Y025927D01*
X020137Y025943D01*
X020103Y025963D01*
X020071Y025986D01*
X020042Y026012D01*
X020015Y026041D01*
X019991Y026072D01*
X019971Y026106D01*
X019954Y026141D01*
X019941Y026178D01*
X019931Y026216D01*
X019925Y026255D01*
X019923Y026294D01*
X019530Y026294D02*
X019532Y026348D01*
X019537Y026401D01*
X019546Y026454D01*
X019559Y026506D01*
X019575Y026558D01*
X019595Y026608D01*
X019618Y026656D01*
X019645Y026703D01*
X019674Y026748D01*
X019707Y026791D01*
X019742Y026831D01*
X019780Y026869D01*
X019820Y026904D01*
X019863Y026937D01*
X019908Y026966D01*
X019955Y026993D01*
X020003Y027016D01*
X020053Y027036D01*
X020105Y027052D01*
X020157Y027065D01*
X020210Y027074D01*
X020263Y027079D01*
X020317Y027081D01*
X038428Y027081D01*
X038311Y022803D02*
X036311Y022803D01*
X036061Y022803D01*
X036061Y021803D01*
X036311Y021803D01*
X036311Y019803D01*
X036061Y019803D01*
X036061Y018803D01*
X036311Y018803D01*
X036311Y019803D01*
X036311Y018803D02*
X038311Y018803D01*
X038311Y022803D01*
X036311Y022803D02*
X036311Y021803D01*
X026077Y023878D02*
X025077Y023878D01*
X025077Y024128D01*
X026077Y024128D01*
X026077Y023878D01*
X026077Y024128D02*
X026077Y026128D01*
X022077Y026128D01*
X022077Y024128D01*
X022077Y023878D01*
X023077Y023878D01*
X023077Y024128D01*
X025077Y024128D01*
X023077Y024128D02*
X022077Y024128D01*
X022115Y018606D02*
X023115Y018606D01*
X023115Y018356D01*
X022115Y018356D01*
X022115Y018606D01*
X022115Y018356D02*
X022115Y016356D01*
X026115Y016356D01*
X026115Y018356D01*
X026115Y018606D01*
X025115Y018606D01*
X025115Y018356D01*
X023115Y018356D01*
X025115Y018356D02*
X026115Y018356D01*
X019923Y016057D02*
X019925Y016096D01*
X019931Y016135D01*
X019941Y016173D01*
X019954Y016210D01*
X019971Y016245D01*
X019991Y016279D01*
X020015Y016310D01*
X020042Y016339D01*
X020071Y016365D01*
X020103Y016388D01*
X020137Y016408D01*
X020173Y016424D01*
X020210Y016436D01*
X020249Y016445D01*
X020288Y016450D01*
X020327Y016451D01*
X020366Y016448D01*
X020405Y016441D01*
X020442Y016430D01*
X020479Y016416D01*
X020514Y016398D01*
X020547Y016377D01*
X020578Y016352D01*
X020606Y016325D01*
X020631Y016295D01*
X020653Y016262D01*
X020672Y016228D01*
X020687Y016192D01*
X020699Y016154D01*
X020707Y016116D01*
X020711Y016077D01*
X020711Y016037D01*
X020707Y015998D01*
X020699Y015960D01*
X020687Y015922D01*
X020672Y015886D01*
X020653Y015852D01*
X020631Y015819D01*
X020606Y015789D01*
X020578Y015762D01*
X020547Y015737D01*
X020514Y015716D01*
X020479Y015698D01*
X020442Y015684D01*
X020405Y015673D01*
X020366Y015666D01*
X020327Y015663D01*
X020288Y015664D01*
X020249Y015669D01*
X020210Y015678D01*
X020173Y015690D01*
X020137Y015706D01*
X020103Y015726D01*
X020071Y015749D01*
X020042Y015775D01*
X020015Y015804D01*
X019991Y015835D01*
X019971Y015869D01*
X019954Y015904D01*
X019941Y015941D01*
X019931Y015979D01*
X019925Y016018D01*
X019923Y016057D01*
X019530Y016057D02*
X019532Y016003D01*
X019537Y015950D01*
X019546Y015897D01*
X019559Y015845D01*
X019575Y015793D01*
X019595Y015743D01*
X019618Y015695D01*
X019645Y015648D01*
X019674Y015603D01*
X019707Y015560D01*
X019742Y015520D01*
X019780Y015482D01*
X019820Y015447D01*
X019863Y015414D01*
X019908Y015385D01*
X019955Y015358D01*
X020003Y015335D01*
X020053Y015315D01*
X020105Y015299D01*
X020157Y015286D01*
X020210Y015277D01*
X020263Y015272D01*
X020317Y015270D01*
D116*
X030344Y019889D02*
X030344Y021204D01*
X032159Y021302D02*
X032169Y021302D01*
X032254Y021204D02*
X032254Y019885D01*
D117*
X030543Y020106D02*
X030545Y020133D01*
X030551Y020160D01*
X030560Y020186D01*
X030573Y020210D01*
X030589Y020233D01*
X030608Y020252D01*
X030630Y020269D01*
X030654Y020283D01*
X030679Y020293D01*
X030706Y020300D01*
X030733Y020303D01*
X030761Y020302D01*
X030788Y020297D01*
X030814Y020289D01*
X030838Y020277D01*
X030861Y020261D01*
X030882Y020243D01*
X030899Y020222D01*
X030914Y020198D01*
X030925Y020173D01*
X030933Y020147D01*
X030937Y020120D01*
X030937Y020092D01*
X030933Y020065D01*
X030925Y020039D01*
X030914Y020014D01*
X030899Y019990D01*
X030882Y019969D01*
X030861Y019951D01*
X030839Y019935D01*
X030814Y019923D01*
X030788Y019915D01*
X030761Y019910D01*
X030733Y019909D01*
X030706Y019912D01*
X030679Y019919D01*
X030654Y019929D01*
X030630Y019943D01*
X030608Y019960D01*
X030589Y019979D01*
X030573Y020002D01*
X030560Y020026D01*
X030551Y020052D01*
X030545Y020079D01*
X030543Y020106D01*
D118*
X037190Y025103D03*
D119*
X033788Y024899D02*
X029209Y024899D01*
X029209Y026612D01*
X033788Y026612D01*
X033788Y024899D01*
D120*
X031704Y024514D02*
X031704Y023883D01*
X031494Y023883D02*
X031914Y023883D01*
X031270Y023989D02*
X031165Y023883D01*
X030955Y023883D01*
X030849Y023989D01*
X030955Y024199D02*
X031165Y024199D01*
X031270Y024094D01*
X031270Y023989D01*
X030955Y024199D02*
X030849Y024304D01*
X030849Y024409D01*
X030955Y024514D01*
X031165Y024514D01*
X031270Y024409D01*
X031494Y024304D02*
X031704Y024514D01*
D121*
X032550Y023867D03*
X037318Y023719D03*
D122*
X021503Y021357D03*
X021503Y021308D03*
X021468Y021273D03*
X021398Y021343D03*
X021013Y020538D03*
D123*
X021859Y020538D03*
X021586Y021273D03*
X021719Y021322D03*
X021334Y021287D03*
X021264Y021357D03*
X021236Y021343D03*
X021194Y021392D03*
X021124Y021308D03*
D124*
X021293Y021336D03*
X021398Y021350D03*
X021468Y021280D03*
X021503Y021364D03*
X021013Y020545D03*
X020558Y022554D03*
X022308Y022540D03*
D125*
X022314Y022554D03*
X021334Y021294D03*
X021334Y021280D03*
X021236Y021336D03*
X021194Y021280D03*
X021859Y020545D03*
D126*
X021856Y020552D03*
X021016Y020552D03*
X021191Y021287D03*
X021338Y021308D03*
X021464Y021287D03*
X021681Y021273D03*
X021723Y021343D03*
X021723Y021378D03*
X021681Y021392D03*
X022304Y022533D03*
X022311Y022547D03*
X020561Y022547D03*
D127*
X021124Y021371D03*
X021124Y021301D03*
X021264Y021364D03*
X021460Y021301D03*
X021509Y021294D03*
X021019Y020559D03*
X022300Y022526D03*
D128*
X021726Y021371D03*
X021726Y021364D03*
X021726Y021350D03*
X021726Y021301D03*
X021398Y021329D03*
X021398Y021336D03*
X021341Y021315D03*
X021188Y021294D03*
X021188Y021371D03*
X021853Y020559D03*
X020571Y022519D03*
X020571Y022526D03*
D129*
X021184Y021364D03*
X021184Y021301D03*
X021268Y021371D03*
X021345Y021336D03*
X021345Y021329D03*
X021457Y021329D03*
X021457Y021315D03*
X021513Y021385D03*
X021576Y021385D03*
X021576Y021294D03*
X021730Y021294D03*
X021023Y020566D03*
X022297Y022519D03*
D130*
X022294Y022505D03*
X021573Y021371D03*
X021573Y021301D03*
X021516Y021280D03*
X021454Y021336D03*
X021349Y021350D03*
X021734Y021280D03*
X021853Y020566D03*
X020579Y022505D03*
D131*
X021124Y021378D03*
X021180Y021357D03*
X021180Y021308D03*
X021019Y020573D03*
D132*
X021853Y020573D03*
X021734Y021287D03*
X021573Y021378D03*
X021516Y021392D03*
X021454Y021343D03*
X021349Y021357D03*
D133*
X021352Y021364D03*
X021352Y021371D03*
X021177Y021350D03*
X021569Y021364D03*
X021849Y020580D03*
X021023Y020580D03*
X020582Y022491D03*
D134*
X021173Y021343D03*
X021355Y021378D03*
X021355Y021392D03*
X021565Y021357D03*
X021845Y020587D03*
X021026Y020587D03*
D135*
X021030Y020594D03*
X021170Y021336D03*
X020589Y022470D03*
D136*
X021128Y021280D03*
X021443Y021385D03*
X021562Y021350D03*
X021842Y020594D03*
D137*
X021030Y020601D03*
X021555Y021336D03*
X022269Y022449D03*
X020596Y022456D03*
D138*
X020603Y022449D03*
X021653Y021371D03*
X021653Y021364D03*
X021653Y021350D03*
X021653Y021315D03*
X021653Y021301D03*
X021653Y021294D03*
X021842Y020601D03*
D139*
X021030Y020608D03*
X021401Y021273D03*
X022269Y022442D03*
D140*
X021653Y021378D03*
X021653Y021357D03*
X021653Y021343D03*
X021653Y021322D03*
X021653Y021308D03*
X021653Y021287D03*
X021842Y020608D03*
X020603Y022442D03*
D141*
X020606Y022435D03*
X022265Y022435D03*
X021838Y020615D03*
X021033Y020615D03*
D142*
X021037Y020622D03*
X022262Y022428D03*
D143*
X020610Y022428D03*
X021835Y020622D03*
D144*
X021835Y020629D03*
X021835Y020636D03*
X021037Y020636D03*
X021037Y020629D03*
D145*
X021040Y020643D03*
D146*
X021831Y020643D03*
D147*
X021828Y020650D03*
X021044Y020650D03*
X020631Y022379D03*
X020624Y022386D03*
X022241Y022379D03*
D148*
X021044Y020657D03*
D149*
X021828Y020657D03*
X020638Y022358D03*
D150*
X020641Y022351D03*
X022230Y022351D03*
X021825Y020671D03*
X021825Y020664D03*
X021048Y020664D03*
X021048Y020671D03*
D151*
X021051Y020678D03*
X021821Y020678D03*
D152*
X021821Y020685D03*
X021051Y020685D03*
X020659Y022316D03*
X020652Y022330D03*
X022213Y022316D03*
D153*
X021054Y020692D03*
D154*
X021818Y020692D03*
D155*
X021054Y020699D03*
X022209Y022309D03*
D156*
X020663Y022309D03*
X021818Y020699D03*
D157*
X021814Y020706D03*
X021058Y020706D03*
X020666Y022295D03*
D158*
X021058Y020713D03*
X021814Y020713D03*
D159*
X021810Y020720D03*
X021061Y020720D03*
X020683Y022260D03*
X020676Y022274D03*
X022188Y022260D03*
D160*
X022185Y022253D03*
X020680Y022267D03*
X021065Y020727D03*
D161*
X021807Y020727D03*
X020687Y022253D03*
D162*
X021065Y020734D03*
D163*
X021807Y020734D03*
D164*
X021065Y020741D03*
X020694Y022239D03*
D165*
X022178Y022239D03*
X021807Y020741D03*
D166*
X021803Y020748D03*
X021068Y020748D03*
X022174Y022232D03*
D167*
X022164Y022211D03*
X020708Y022211D03*
X021072Y020755D03*
D168*
X021800Y020755D03*
D169*
X021069Y020762D03*
X020711Y022197D03*
D170*
X021800Y020762D03*
D171*
X021800Y020769D03*
X021072Y020769D03*
X020715Y022190D03*
X022157Y022190D03*
D172*
X021075Y020776D03*
D173*
X021796Y020776D03*
D174*
X021793Y020783D03*
X021079Y020783D03*
X020729Y022162D03*
D175*
X021079Y020790D03*
D176*
X021793Y020790D03*
D177*
X021079Y020797D03*
X020736Y022148D03*
X022136Y022148D03*
D178*
X021793Y020797D03*
D179*
X021790Y020804D03*
X021083Y020804D03*
X020740Y022141D03*
X022133Y022141D03*
D180*
X022129Y022134D03*
X021786Y020811D03*
X021086Y020811D03*
D181*
X021086Y020818D03*
X021786Y020818D03*
D182*
X021786Y020825D03*
X021086Y020825D03*
X020757Y022106D03*
D183*
X020760Y022092D03*
X021089Y020832D03*
D184*
X021783Y020832D03*
X022111Y022092D03*
D185*
X022108Y022085D03*
X021436Y021196D03*
X021779Y020839D03*
X021093Y020839D03*
X020764Y022085D03*
D186*
X022098Y022071D03*
X021096Y020846D03*
D187*
X021775Y020846D03*
D188*
X021775Y020853D03*
X021096Y020853D03*
D189*
X021096Y020860D03*
X020900Y021280D03*
X020781Y022050D03*
X022090Y022050D03*
X021775Y020860D03*
D190*
X021100Y020867D03*
X020904Y021287D03*
X020890Y021392D03*
X020785Y022043D03*
D191*
X022087Y022043D03*
X021772Y020867D03*
D192*
X021769Y020874D03*
X021104Y020874D03*
X020908Y021301D03*
X020894Y021385D03*
X020789Y022036D03*
X022076Y022029D03*
X022084Y022036D03*
D193*
X020900Y021371D03*
X021103Y020881D03*
X021768Y020881D03*
D194*
X021768Y020888D03*
X021103Y020888D03*
X022069Y022008D03*
D195*
X022066Y022001D03*
X021954Y021301D03*
X021107Y020895D03*
X020911Y021315D03*
X020911Y021350D03*
X020904Y021364D03*
X020806Y022001D03*
D196*
X021765Y020895D03*
D197*
X021110Y020902D03*
X020914Y021322D03*
X020914Y021343D03*
X020809Y021987D03*
D198*
X022063Y021987D03*
X021958Y021357D03*
X021761Y020902D03*
D199*
X021950Y021336D03*
X021110Y020909D03*
D200*
X021761Y020909D03*
X021958Y021371D03*
X022049Y021966D03*
X020824Y021966D03*
D201*
X020827Y021959D03*
X021954Y021385D03*
X021947Y021329D03*
X021758Y020916D03*
X021114Y020916D03*
D202*
X021114Y020923D03*
X021758Y020923D03*
X020827Y021952D03*
D203*
X021118Y020930D03*
D204*
X021754Y020930D03*
X022041Y021945D03*
X020830Y021945D03*
D205*
X020845Y021917D03*
X022028Y021917D03*
X021755Y020937D03*
X021118Y020937D03*
D206*
X021121Y020944D03*
X021121Y020951D03*
X021751Y020951D03*
X021751Y020944D03*
X022024Y021910D03*
D207*
X022020Y021903D03*
X020851Y021903D03*
X021124Y020958D03*
D208*
X021748Y020958D03*
D209*
X021124Y020965D03*
X020865Y021875D03*
D210*
X022006Y021875D03*
X021748Y020965D03*
D211*
X021744Y020972D03*
X021128Y020972D03*
X020869Y021868D03*
X022003Y021868D03*
D212*
X020873Y021861D03*
X021131Y020979D03*
D213*
X021740Y020979D03*
X021740Y020986D03*
X021999Y021861D03*
D214*
X021996Y021854D03*
X021989Y021840D03*
X020883Y021840D03*
X020876Y021854D03*
X021128Y020986D03*
D215*
X021131Y020993D03*
X021740Y020993D03*
X021985Y021833D03*
X020886Y021833D03*
D216*
X020890Y021826D03*
X021436Y021175D03*
X021135Y021000D03*
D217*
X021737Y021000D03*
X021982Y021826D03*
D218*
X021979Y021812D03*
X021734Y021007D03*
X021139Y021007D03*
X020894Y021812D03*
D219*
X021138Y021021D03*
X021138Y021014D03*
X021733Y021014D03*
X021733Y021021D03*
X021964Y021791D03*
D220*
X021961Y021777D03*
X020911Y021777D03*
X021142Y021028D03*
D221*
X021730Y021028D03*
D222*
X021145Y021035D03*
X020914Y021770D03*
D223*
X021958Y021770D03*
X021726Y021035D03*
D224*
X021145Y021042D03*
D225*
X021726Y021042D03*
X021944Y021742D03*
X020929Y021742D03*
D226*
X021145Y021049D03*
D227*
X021726Y021049D03*
X021944Y021749D03*
X020929Y021749D03*
D228*
X020932Y021735D03*
X021149Y021056D03*
X021723Y021056D03*
D229*
X021153Y021063D03*
D230*
X021719Y021063D03*
X021936Y021728D03*
X020935Y021728D03*
D231*
X020950Y021700D03*
X021923Y021700D03*
X021720Y021070D03*
X021153Y021070D03*
D232*
X021436Y021077D03*
D233*
X021436Y021084D03*
D234*
X021436Y021091D03*
D235*
X021436Y021098D03*
D236*
X021436Y021105D03*
D237*
X021436Y021112D03*
D238*
X021436Y021119D03*
D239*
X021436Y021126D03*
D240*
X021436Y021133D03*
D241*
X021433Y021140D03*
D242*
X021436Y021147D03*
X021044Y021497D03*
D243*
X021009Y021574D03*
X021009Y021581D03*
X021436Y021154D03*
D244*
X021436Y021161D03*
X020967Y021665D03*
D245*
X021436Y021168D03*
D246*
X021436Y021182D03*
D247*
X021433Y021189D03*
X021958Y021364D03*
X022063Y021994D03*
D248*
X021985Y021203D03*
X020886Y021203D03*
D249*
X021037Y021203D03*
X021198Y021273D03*
X021128Y021357D03*
X021807Y021203D03*
X022318Y022568D03*
D250*
X021835Y021203D03*
X021331Y021273D03*
X021296Y021343D03*
X021065Y021203D03*
X020554Y022568D03*
D251*
X021436Y021203D03*
D252*
X021436Y021210D03*
D253*
X021436Y021217D03*
D254*
X021433Y021224D03*
D255*
X021436Y021231D03*
X021436Y021245D03*
X021436Y021259D03*
X021436Y021266D03*
D256*
X021436Y021252D03*
X021436Y021238D03*
D257*
X020897Y021273D03*
X020778Y022057D03*
X022094Y022057D03*
D258*
X022280Y022463D03*
X021559Y021343D03*
X021265Y021308D03*
X021265Y021287D03*
X021265Y021273D03*
X021265Y021392D03*
X021125Y021273D03*
X020593Y022463D03*
D259*
X021450Y021357D03*
X021520Y021273D03*
X022290Y022498D03*
D260*
X021737Y021273D03*
X021569Y021308D03*
X021401Y021308D03*
X021268Y021378D03*
X021177Y021322D03*
X021128Y021287D03*
X020582Y022498D03*
D261*
X020795Y022022D03*
X022076Y022022D03*
X021965Y021273D03*
D262*
X021559Y021329D03*
X021398Y021280D03*
X021265Y021280D03*
X021265Y021294D03*
X021265Y021301D03*
X021265Y021315D03*
X022273Y022456D03*
X022280Y022470D03*
D263*
X021681Y021385D03*
X021681Y021336D03*
X021681Y021329D03*
X021723Y021315D03*
X021681Y021280D03*
X021583Y021280D03*
X021506Y021301D03*
X021464Y021294D03*
X021506Y021371D03*
X021338Y021301D03*
X021289Y021329D03*
X021191Y021385D03*
X021128Y021364D03*
X020561Y022540D03*
D264*
X020799Y022015D03*
X021961Y021280D03*
D265*
X021401Y021287D03*
X020589Y022477D03*
D266*
X020575Y022512D03*
X021345Y021343D03*
X021457Y021322D03*
X021513Y021287D03*
X022297Y022512D03*
D267*
X021579Y021392D03*
X021509Y021378D03*
X021460Y021308D03*
X021579Y021287D03*
X021285Y021322D03*
X020564Y022533D03*
D268*
X020803Y022008D03*
X021958Y021287D03*
D269*
X020904Y021294D03*
D270*
X021124Y021294D03*
X021180Y021315D03*
D271*
X021398Y021301D03*
X021398Y021294D03*
D272*
X021958Y021294D03*
D273*
X020911Y021308D03*
D274*
X021188Y021378D03*
X021244Y021322D03*
X021341Y021322D03*
X021726Y021308D03*
X021726Y021357D03*
D275*
X021954Y021308D03*
X020911Y021357D03*
D276*
X021296Y021350D03*
X021499Y021350D03*
X021499Y021315D03*
X020554Y022561D03*
D277*
X020585Y022484D03*
X021124Y021385D03*
X021173Y021329D03*
X021264Y021385D03*
X021355Y021385D03*
X021446Y021371D03*
X021446Y021364D03*
X021565Y021315D03*
X022286Y022484D03*
D278*
X022055Y021980D03*
X021950Y021315D03*
X020914Y021329D03*
X020809Y021994D03*
D279*
X021128Y021392D03*
X021443Y021392D03*
X021443Y021378D03*
X021562Y021322D03*
X022283Y022477D03*
D280*
X021950Y021322D03*
D281*
X021240Y021329D03*
D282*
X020918Y021336D03*
X020813Y021980D03*
X021954Y021350D03*
D283*
X021954Y021343D03*
X022052Y021973D03*
X020820Y021973D03*
D284*
X021233Y021350D03*
X022318Y022561D03*
D285*
X022290Y022491D03*
X021450Y021350D03*
D286*
X020897Y021378D03*
D287*
X021958Y021378D03*
D288*
X021950Y021392D03*
X022034Y021938D03*
D289*
X021436Y021399D03*
D290*
X021433Y021406D03*
D291*
X021436Y021413D03*
X021436Y021427D03*
D292*
X021436Y021434D03*
X021436Y021441D03*
X021436Y021420D03*
D293*
X021800Y021448D03*
X021065Y021448D03*
D294*
X021065Y021455D03*
D295*
X021807Y021455D03*
D296*
X021810Y021462D03*
X021061Y021462D03*
D297*
X021058Y021469D03*
X021058Y021476D03*
D298*
X021814Y021476D03*
X021814Y021469D03*
D299*
X021818Y021483D03*
X021055Y021483D03*
D300*
X021051Y021490D03*
X021821Y021490D03*
D301*
X021824Y021497D03*
D302*
X021831Y021504D03*
X021831Y021511D03*
X021040Y021511D03*
X021040Y021504D03*
D303*
X021037Y021518D03*
D304*
X021835Y021518D03*
D305*
X021839Y021525D03*
X021034Y021525D03*
D306*
X021030Y021532D03*
X021842Y021532D03*
D307*
X021849Y021546D03*
X021023Y021546D03*
X021023Y021539D03*
D308*
X021845Y021539D03*
D309*
X021019Y021553D03*
D310*
X021853Y021553D03*
D311*
X021856Y021560D03*
X021016Y021560D03*
D312*
X021013Y021567D03*
D313*
X021859Y021567D03*
D314*
X021859Y021574D03*
D315*
X021863Y021581D03*
D316*
X021002Y021588D03*
D317*
X021866Y021588D03*
D318*
X021874Y021595D03*
X020999Y021595D03*
D319*
X020995Y021602D03*
D320*
X021877Y021602D03*
D321*
X021880Y021616D03*
X020991Y021616D03*
X020991Y021609D03*
D322*
X021877Y021609D03*
D323*
X021884Y021623D03*
X020988Y021623D03*
D324*
X020981Y021630D03*
D325*
X021888Y021630D03*
D326*
X020978Y021637D03*
D327*
X021894Y021637D03*
D328*
X021898Y021651D03*
X020974Y021651D03*
X020974Y021644D03*
D329*
X021894Y021644D03*
D330*
X020970Y021658D03*
D331*
X021901Y021658D03*
D332*
X021905Y021665D03*
D333*
X020960Y021672D03*
D334*
X021908Y021672D03*
D335*
X021908Y021679D03*
X021915Y021686D03*
X020956Y021686D03*
X020956Y021679D03*
D336*
X020953Y021693D03*
D337*
X021919Y021693D03*
D338*
X021926Y021707D03*
X020946Y021707D03*
D339*
X020943Y021714D03*
D340*
X020939Y021721D03*
X021926Y021714D03*
D341*
X021933Y021721D03*
D342*
X021940Y021735D03*
D343*
X021947Y021756D03*
X020925Y021756D03*
D344*
X020918Y021763D03*
D345*
X021950Y021763D03*
D346*
X021961Y021784D03*
X020911Y021784D03*
D347*
X020908Y021791D03*
D348*
X020904Y021798D03*
D349*
X021968Y021798D03*
D350*
X020897Y021805D03*
D351*
X020894Y021819D03*
X021971Y021805D03*
X021979Y021819D03*
D352*
X020876Y021847D03*
D353*
X021993Y021847D03*
D354*
X020862Y021882D03*
D355*
X022010Y021882D03*
D356*
X022017Y021896D03*
X020862Y021889D03*
D357*
X020855Y021896D03*
X022010Y021889D03*
D358*
X020848Y021910D03*
D359*
X020841Y021924D03*
X020841Y021931D03*
X022031Y021931D03*
D360*
X022028Y021924D03*
D361*
X020834Y021938D03*
D362*
X022045Y021952D03*
D363*
X022045Y021959D03*
D364*
X022073Y022015D03*
X020792Y022029D03*
D365*
X020778Y022064D03*
X020771Y022071D03*
X022094Y022064D03*
D366*
X020768Y022078D03*
D367*
X022104Y022078D03*
D368*
X020760Y022099D03*
D369*
X022111Y022099D03*
D370*
X022115Y022106D03*
D371*
X022118Y022113D03*
X020753Y022113D03*
D372*
X020746Y022120D03*
D373*
X020743Y022134D03*
X022122Y022120D03*
D374*
X020743Y022127D03*
D375*
X022129Y022127D03*
D376*
X020733Y022155D03*
D377*
X020725Y022169D03*
X022139Y022155D03*
D378*
X022139Y022162D03*
D379*
X022143Y022169D03*
X020722Y022176D03*
D380*
X022150Y022176D03*
D381*
X022154Y022183D03*
X020719Y022183D03*
D382*
X022157Y022197D03*
D383*
X020711Y022204D03*
D384*
X022160Y022204D03*
D385*
X020701Y022218D03*
D386*
X022168Y022218D03*
D387*
X020698Y022225D03*
D388*
X022174Y022225D03*
D389*
X020694Y022232D03*
D390*
X020690Y022246D03*
X022181Y022246D03*
D391*
X022188Y022267D03*
D392*
X022192Y022274D03*
X022199Y022281D03*
X020673Y022281D03*
D393*
X020669Y022288D03*
D394*
X022203Y022288D03*
D395*
X022203Y022295D03*
D396*
X022206Y022302D03*
X020666Y022302D03*
D397*
X020655Y022323D03*
X020648Y022337D03*
X022216Y022323D03*
X022223Y022337D03*
D398*
X022216Y022330D03*
D399*
X020645Y022344D03*
D400*
X022227Y022344D03*
D401*
X022230Y022358D03*
D402*
X020638Y022365D03*
D403*
X022234Y022365D03*
D404*
X020634Y022372D03*
D405*
X022238Y022372D03*
D406*
X022244Y022386D03*
X020620Y022400D03*
D407*
X020624Y022393D03*
X022248Y022393D03*
D408*
X022251Y022400D03*
D409*
X022255Y022407D03*
X020617Y022407D03*
D410*
X020614Y022414D03*
X020614Y022421D03*
X022259Y022421D03*
X022259Y022414D03*
M02*
