%
M48
M72
T01C0.0240
T02C0.0315
T03C0.0400
%
T01
X26560Y23280
X28750Y23270
X31890Y22730
X33790Y22630
X35240Y22600
X28670Y20550
X26590Y20540
X23060Y22160
X26530Y17360
X28600Y17310
T02
X37311Y19803
X37311Y20803
X37311Y21803
X25077Y25128
X24077Y25128
X23077Y25128
X23115Y17356
X24115Y17356
X25115Y17356
T03
X32568Y25756
X31498Y25756
X30428Y25756
M30
