G75*
%MOIN*%
%OFA0B0*%
%FSLAX25Y25*%
%IPPOS*%
%LPD*%
%AMOC8*
5,1,8,0,0,1.08239X$1,22.5*
%
%ADD10R,0.07500X0.07500*%
%ADD11C,0.07500*%
%ADD12C,0.00000*%
%ADD13R,0.05150X0.05150*%
%ADD14C,0.05150*%
%ADD15C,0.02800*%
%ADD16C,0.03200*%
D10*
X0060100Y0054100D03*
D11*
X0060100Y0069100D03*
X0235100Y0054100D03*
D12*
X0046486Y0021730D02*
X0018927Y0021730D01*
X0018803Y0021732D01*
X0018680Y0021738D01*
X0018556Y0021747D01*
X0018434Y0021761D01*
X0018311Y0021778D01*
X0018189Y0021800D01*
X0018068Y0021825D01*
X0017948Y0021854D01*
X0017829Y0021886D01*
X0017710Y0021923D01*
X0017593Y0021963D01*
X0017478Y0022006D01*
X0017363Y0022054D01*
X0017251Y0022105D01*
X0017140Y0022159D01*
X0017030Y0022217D01*
X0016923Y0022278D01*
X0016817Y0022343D01*
X0016714Y0022411D01*
X0016613Y0022482D01*
X0016514Y0022556D01*
X0016417Y0022633D01*
X0016323Y0022714D01*
X0016232Y0022797D01*
X0016143Y0022883D01*
X0016057Y0022972D01*
X0015974Y0023063D01*
X0015893Y0023157D01*
X0015816Y0023254D01*
X0015742Y0023353D01*
X0015671Y0023454D01*
X0015603Y0023557D01*
X0015538Y0023663D01*
X0015477Y0023770D01*
X0015419Y0023880D01*
X0015365Y0023991D01*
X0015314Y0024103D01*
X0015266Y0024218D01*
X0015223Y0024333D01*
X0015183Y0024450D01*
X0015146Y0024569D01*
X0015114Y0024688D01*
X0015085Y0024808D01*
X0015060Y0024929D01*
X0015038Y0025051D01*
X0015021Y0025174D01*
X0015007Y0025296D01*
X0014998Y0025420D01*
X0014992Y0025543D01*
X0014990Y0025667D01*
X0014990Y0053226D01*
X0015180Y0053228D01*
X0015370Y0053235D01*
X0015560Y0053247D01*
X0015750Y0053263D01*
X0015939Y0053283D01*
X0016128Y0053309D01*
X0016316Y0053338D01*
X0016503Y0053373D01*
X0016689Y0053412D01*
X0016874Y0053455D01*
X0017059Y0053503D01*
X0017242Y0053555D01*
X0017423Y0053611D01*
X0017603Y0053672D01*
X0017782Y0053738D01*
X0017959Y0053807D01*
X0018135Y0053881D01*
X0018308Y0053959D01*
X0018480Y0054042D01*
X0018649Y0054128D01*
X0018817Y0054218D01*
X0018982Y0054313D01*
X0019145Y0054411D01*
X0019305Y0054514D01*
X0019463Y0054620D01*
X0019618Y0054730D01*
X0019771Y0054843D01*
X0019921Y0054961D01*
X0020067Y0055082D01*
X0020211Y0055206D01*
X0020352Y0055334D01*
X0020490Y0055465D01*
X0020625Y0055600D01*
X0020756Y0055738D01*
X0020884Y0055879D01*
X0021008Y0056023D01*
X0021129Y0056169D01*
X0021247Y0056319D01*
X0021360Y0056472D01*
X0021470Y0056627D01*
X0021576Y0056785D01*
X0021679Y0056945D01*
X0021777Y0057108D01*
X0021872Y0057273D01*
X0021962Y0057441D01*
X0022048Y0057610D01*
X0022131Y0057782D01*
X0022209Y0057955D01*
X0022283Y0058131D01*
X0022352Y0058308D01*
X0022418Y0058487D01*
X0022479Y0058667D01*
X0022535Y0058848D01*
X0022587Y0059031D01*
X0022635Y0059216D01*
X0022678Y0059401D01*
X0022717Y0059587D01*
X0022752Y0059774D01*
X0022781Y0059962D01*
X0022807Y0060151D01*
X0022827Y0060340D01*
X0022843Y0060530D01*
X0022855Y0060720D01*
X0022862Y0060910D01*
X0022864Y0061100D01*
X0022862Y0061290D01*
X0022855Y0061480D01*
X0022843Y0061670D01*
X0022827Y0061860D01*
X0022807Y0062049D01*
X0022781Y0062238D01*
X0022752Y0062426D01*
X0022717Y0062613D01*
X0022678Y0062799D01*
X0022635Y0062984D01*
X0022587Y0063169D01*
X0022535Y0063352D01*
X0022479Y0063533D01*
X0022418Y0063713D01*
X0022352Y0063892D01*
X0022283Y0064069D01*
X0022209Y0064245D01*
X0022131Y0064418D01*
X0022048Y0064590D01*
X0021962Y0064759D01*
X0021872Y0064927D01*
X0021777Y0065092D01*
X0021679Y0065255D01*
X0021576Y0065415D01*
X0021470Y0065573D01*
X0021360Y0065728D01*
X0021247Y0065881D01*
X0021129Y0066031D01*
X0021008Y0066177D01*
X0020884Y0066321D01*
X0020756Y0066462D01*
X0020625Y0066600D01*
X0020490Y0066735D01*
X0020352Y0066866D01*
X0020211Y0066994D01*
X0020067Y0067118D01*
X0019921Y0067239D01*
X0019771Y0067357D01*
X0019618Y0067470D01*
X0019463Y0067580D01*
X0019305Y0067686D01*
X0019145Y0067789D01*
X0018982Y0067887D01*
X0018817Y0067982D01*
X0018649Y0068072D01*
X0018480Y0068158D01*
X0018308Y0068241D01*
X0018135Y0068319D01*
X0017959Y0068393D01*
X0017782Y0068462D01*
X0017603Y0068528D01*
X0017423Y0068589D01*
X0017242Y0068645D01*
X0017059Y0068697D01*
X0016874Y0068745D01*
X0016689Y0068788D01*
X0016503Y0068827D01*
X0016316Y0068862D01*
X0016128Y0068891D01*
X0015939Y0068917D01*
X0015750Y0068937D01*
X0015560Y0068953D01*
X0015370Y0068965D01*
X0015180Y0068972D01*
X0014990Y0068974D01*
X0014990Y0096533D01*
X0014992Y0096657D01*
X0014998Y0096780D01*
X0015007Y0096904D01*
X0015021Y0097026D01*
X0015038Y0097149D01*
X0015060Y0097271D01*
X0015085Y0097392D01*
X0015114Y0097512D01*
X0015146Y0097631D01*
X0015183Y0097750D01*
X0015223Y0097867D01*
X0015266Y0097982D01*
X0015314Y0098097D01*
X0015365Y0098209D01*
X0015419Y0098320D01*
X0015477Y0098430D01*
X0015538Y0098537D01*
X0015603Y0098643D01*
X0015671Y0098746D01*
X0015742Y0098847D01*
X0015816Y0098946D01*
X0015893Y0099043D01*
X0015974Y0099137D01*
X0016057Y0099228D01*
X0016143Y0099317D01*
X0016232Y0099403D01*
X0016323Y0099486D01*
X0016417Y0099567D01*
X0016514Y0099644D01*
X0016613Y0099718D01*
X0016714Y0099789D01*
X0016817Y0099857D01*
X0016923Y0099922D01*
X0017030Y0099983D01*
X0017140Y0100041D01*
X0017251Y0100095D01*
X0017363Y0100146D01*
X0017478Y0100194D01*
X0017593Y0100237D01*
X0017710Y0100277D01*
X0017829Y0100314D01*
X0017948Y0100346D01*
X0018068Y0100375D01*
X0018189Y0100400D01*
X0018311Y0100422D01*
X0018434Y0100439D01*
X0018556Y0100453D01*
X0018680Y0100462D01*
X0018803Y0100468D01*
X0018927Y0100470D01*
X0046486Y0100470D01*
X0050029Y0100470D02*
X0050031Y0100601D01*
X0050037Y0100733D01*
X0050047Y0100864D01*
X0050061Y0100995D01*
X0050079Y0101125D01*
X0050101Y0101254D01*
X0050126Y0101383D01*
X0050156Y0101511D01*
X0050190Y0101638D01*
X0050227Y0101765D01*
X0050268Y0101889D01*
X0050313Y0102013D01*
X0050362Y0102135D01*
X0050414Y0102256D01*
X0050470Y0102374D01*
X0050530Y0102492D01*
X0050593Y0102607D01*
X0050660Y0102720D01*
X0050730Y0102832D01*
X0050803Y0102941D01*
X0050879Y0103047D01*
X0050959Y0103152D01*
X0051042Y0103254D01*
X0051128Y0103353D01*
X0051217Y0103450D01*
X0051309Y0103544D01*
X0051404Y0103635D01*
X0051501Y0103724D01*
X0051601Y0103809D01*
X0051704Y0103891D01*
X0051809Y0103970D01*
X0051916Y0104046D01*
X0052026Y0104118D01*
X0052138Y0104187D01*
X0052252Y0104253D01*
X0052367Y0104315D01*
X0052485Y0104374D01*
X0052604Y0104429D01*
X0052725Y0104481D01*
X0052848Y0104528D01*
X0052972Y0104572D01*
X0053097Y0104613D01*
X0053223Y0104649D01*
X0053351Y0104682D01*
X0053479Y0104710D01*
X0053608Y0104735D01*
X0053738Y0104756D01*
X0053868Y0104773D01*
X0053999Y0104786D01*
X0054130Y0104795D01*
X0054261Y0104800D01*
X0054393Y0104801D01*
X0054524Y0104798D01*
X0054656Y0104791D01*
X0054787Y0104780D01*
X0054917Y0104765D01*
X0055047Y0104746D01*
X0055177Y0104723D01*
X0055305Y0104697D01*
X0055433Y0104666D01*
X0055560Y0104631D01*
X0055686Y0104593D01*
X0055810Y0104551D01*
X0055934Y0104505D01*
X0056055Y0104455D01*
X0056175Y0104402D01*
X0056294Y0104345D01*
X0056411Y0104285D01*
X0056525Y0104221D01*
X0056638Y0104153D01*
X0056749Y0104082D01*
X0056858Y0104008D01*
X0056964Y0103931D01*
X0057068Y0103850D01*
X0057169Y0103767D01*
X0057268Y0103680D01*
X0057364Y0103590D01*
X0057457Y0103497D01*
X0057548Y0103402D01*
X0057635Y0103304D01*
X0057720Y0103203D01*
X0057801Y0103100D01*
X0057879Y0102994D01*
X0057954Y0102886D01*
X0058026Y0102776D01*
X0058094Y0102664D01*
X0058159Y0102550D01*
X0058220Y0102433D01*
X0058278Y0102315D01*
X0058332Y0102195D01*
X0058383Y0102074D01*
X0058430Y0101951D01*
X0058473Y0101827D01*
X0058512Y0101702D01*
X0058548Y0101575D01*
X0058579Y0101447D01*
X0058607Y0101319D01*
X0058631Y0101190D01*
X0058651Y0101060D01*
X0058667Y0100929D01*
X0058679Y0100798D01*
X0058687Y0100667D01*
X0058691Y0100536D01*
X0058691Y0100404D01*
X0058687Y0100273D01*
X0058679Y0100142D01*
X0058667Y0100011D01*
X0058651Y0099880D01*
X0058631Y0099750D01*
X0058607Y0099621D01*
X0058579Y0099493D01*
X0058548Y0099365D01*
X0058512Y0099238D01*
X0058473Y0099113D01*
X0058430Y0098989D01*
X0058383Y0098866D01*
X0058332Y0098745D01*
X0058278Y0098625D01*
X0058220Y0098507D01*
X0058159Y0098390D01*
X0058094Y0098276D01*
X0058026Y0098164D01*
X0057954Y0098054D01*
X0057879Y0097946D01*
X0057801Y0097840D01*
X0057720Y0097737D01*
X0057635Y0097636D01*
X0057548Y0097538D01*
X0057457Y0097443D01*
X0057364Y0097350D01*
X0057268Y0097260D01*
X0057169Y0097173D01*
X0057068Y0097090D01*
X0056964Y0097009D01*
X0056858Y0096932D01*
X0056749Y0096858D01*
X0056638Y0096787D01*
X0056526Y0096719D01*
X0056411Y0096655D01*
X0056294Y0096595D01*
X0056175Y0096538D01*
X0056055Y0096485D01*
X0055934Y0096435D01*
X0055810Y0096389D01*
X0055686Y0096347D01*
X0055560Y0096309D01*
X0055433Y0096274D01*
X0055305Y0096243D01*
X0055177Y0096217D01*
X0055047Y0096194D01*
X0054917Y0096175D01*
X0054787Y0096160D01*
X0054656Y0096149D01*
X0054524Y0096142D01*
X0054393Y0096139D01*
X0054261Y0096140D01*
X0054130Y0096145D01*
X0053999Y0096154D01*
X0053868Y0096167D01*
X0053738Y0096184D01*
X0053608Y0096205D01*
X0053479Y0096230D01*
X0053351Y0096258D01*
X0053223Y0096291D01*
X0053097Y0096327D01*
X0052972Y0096368D01*
X0052848Y0096412D01*
X0052725Y0096459D01*
X0052604Y0096511D01*
X0052485Y0096566D01*
X0052367Y0096625D01*
X0052252Y0096687D01*
X0052138Y0096753D01*
X0052026Y0096822D01*
X0051916Y0096894D01*
X0051809Y0096970D01*
X0051704Y0097049D01*
X0051601Y0097131D01*
X0051501Y0097216D01*
X0051404Y0097305D01*
X0051309Y0097396D01*
X0051217Y0097490D01*
X0051128Y0097587D01*
X0051042Y0097686D01*
X0050959Y0097788D01*
X0050879Y0097893D01*
X0050803Y0097999D01*
X0050730Y0098108D01*
X0050660Y0098220D01*
X0050593Y0098333D01*
X0050530Y0098448D01*
X0050470Y0098566D01*
X0050414Y0098684D01*
X0050362Y0098805D01*
X0050313Y0098927D01*
X0050268Y0099051D01*
X0050227Y0099175D01*
X0050190Y0099302D01*
X0050156Y0099429D01*
X0050126Y0099557D01*
X0050101Y0099686D01*
X0050079Y0099815D01*
X0050061Y0099945D01*
X0050047Y0100076D01*
X0050037Y0100207D01*
X0050031Y0100339D01*
X0050029Y0100470D01*
X0046486Y0100470D02*
X0046488Y0100660D01*
X0046495Y0100850D01*
X0046507Y0101040D01*
X0046523Y0101230D01*
X0046543Y0101419D01*
X0046569Y0101608D01*
X0046598Y0101796D01*
X0046633Y0101983D01*
X0046672Y0102169D01*
X0046715Y0102354D01*
X0046763Y0102539D01*
X0046815Y0102722D01*
X0046871Y0102903D01*
X0046932Y0103083D01*
X0046998Y0103262D01*
X0047067Y0103439D01*
X0047141Y0103615D01*
X0047219Y0103788D01*
X0047302Y0103960D01*
X0047388Y0104129D01*
X0047478Y0104297D01*
X0047573Y0104462D01*
X0047671Y0104625D01*
X0047774Y0104785D01*
X0047880Y0104943D01*
X0047990Y0105098D01*
X0048103Y0105251D01*
X0048221Y0105401D01*
X0048342Y0105547D01*
X0048466Y0105691D01*
X0048594Y0105832D01*
X0048725Y0105970D01*
X0048860Y0106105D01*
X0048998Y0106236D01*
X0049139Y0106364D01*
X0049283Y0106488D01*
X0049429Y0106609D01*
X0049579Y0106727D01*
X0049732Y0106840D01*
X0049887Y0106950D01*
X0050045Y0107056D01*
X0050205Y0107159D01*
X0050368Y0107257D01*
X0050533Y0107352D01*
X0050701Y0107442D01*
X0050870Y0107528D01*
X0051042Y0107611D01*
X0051215Y0107689D01*
X0051391Y0107763D01*
X0051568Y0107832D01*
X0051747Y0107898D01*
X0051927Y0107959D01*
X0052108Y0108015D01*
X0052291Y0108067D01*
X0052476Y0108115D01*
X0052661Y0108158D01*
X0052847Y0108197D01*
X0053034Y0108232D01*
X0053222Y0108261D01*
X0053411Y0108287D01*
X0053600Y0108307D01*
X0053790Y0108323D01*
X0053980Y0108335D01*
X0054170Y0108342D01*
X0054360Y0108344D01*
X0054550Y0108342D01*
X0054740Y0108335D01*
X0054930Y0108323D01*
X0055120Y0108307D01*
X0055309Y0108287D01*
X0055498Y0108261D01*
X0055686Y0108232D01*
X0055873Y0108197D01*
X0056059Y0108158D01*
X0056244Y0108115D01*
X0056429Y0108067D01*
X0056612Y0108015D01*
X0056793Y0107959D01*
X0056973Y0107898D01*
X0057152Y0107832D01*
X0057329Y0107763D01*
X0057505Y0107689D01*
X0057678Y0107611D01*
X0057850Y0107528D01*
X0058019Y0107442D01*
X0058187Y0107352D01*
X0058352Y0107257D01*
X0058515Y0107159D01*
X0058675Y0107056D01*
X0058833Y0106950D01*
X0058988Y0106840D01*
X0059141Y0106727D01*
X0059291Y0106609D01*
X0059437Y0106488D01*
X0059581Y0106364D01*
X0059722Y0106236D01*
X0059860Y0106105D01*
X0059995Y0105970D01*
X0060126Y0105832D01*
X0060254Y0105691D01*
X0060378Y0105547D01*
X0060499Y0105401D01*
X0060617Y0105251D01*
X0060730Y0105098D01*
X0060840Y0104943D01*
X0060946Y0104785D01*
X0061049Y0104625D01*
X0061147Y0104462D01*
X0061242Y0104297D01*
X0061332Y0104129D01*
X0061418Y0103960D01*
X0061501Y0103788D01*
X0061579Y0103615D01*
X0061653Y0103439D01*
X0061722Y0103262D01*
X0061788Y0103083D01*
X0061849Y0102903D01*
X0061905Y0102722D01*
X0061957Y0102539D01*
X0062005Y0102354D01*
X0062048Y0102169D01*
X0062087Y0101983D01*
X0062122Y0101796D01*
X0062151Y0101608D01*
X0062177Y0101419D01*
X0062197Y0101230D01*
X0062213Y0101040D01*
X0062225Y0100850D01*
X0062232Y0100660D01*
X0062234Y0100470D01*
X0125226Y0100470D01*
X0125228Y0100280D01*
X0125235Y0100090D01*
X0125247Y0099900D01*
X0125263Y0099710D01*
X0125283Y0099521D01*
X0125309Y0099332D01*
X0125338Y0099144D01*
X0125373Y0098957D01*
X0125412Y0098771D01*
X0125455Y0098586D01*
X0125503Y0098401D01*
X0125555Y0098218D01*
X0125611Y0098037D01*
X0125672Y0097857D01*
X0125738Y0097678D01*
X0125807Y0097501D01*
X0125881Y0097325D01*
X0125959Y0097152D01*
X0126042Y0096980D01*
X0126128Y0096811D01*
X0126218Y0096643D01*
X0126313Y0096478D01*
X0126411Y0096315D01*
X0126514Y0096155D01*
X0126620Y0095997D01*
X0126730Y0095842D01*
X0126843Y0095689D01*
X0126961Y0095539D01*
X0127082Y0095393D01*
X0127206Y0095249D01*
X0127334Y0095108D01*
X0127465Y0094970D01*
X0127600Y0094835D01*
X0127738Y0094704D01*
X0127879Y0094576D01*
X0128023Y0094452D01*
X0128169Y0094331D01*
X0128319Y0094213D01*
X0128472Y0094100D01*
X0128627Y0093990D01*
X0128785Y0093884D01*
X0128945Y0093781D01*
X0129108Y0093683D01*
X0129273Y0093588D01*
X0129441Y0093498D01*
X0129610Y0093412D01*
X0129782Y0093329D01*
X0129955Y0093251D01*
X0130131Y0093177D01*
X0130308Y0093108D01*
X0130487Y0093042D01*
X0130667Y0092981D01*
X0130848Y0092925D01*
X0131031Y0092873D01*
X0131216Y0092825D01*
X0131401Y0092782D01*
X0131587Y0092743D01*
X0131774Y0092708D01*
X0131962Y0092679D01*
X0132151Y0092653D01*
X0132340Y0092633D01*
X0132530Y0092617D01*
X0132720Y0092605D01*
X0132910Y0092598D01*
X0133100Y0092596D01*
X0133290Y0092598D01*
X0133480Y0092605D01*
X0133670Y0092617D01*
X0133860Y0092633D01*
X0134049Y0092653D01*
X0134238Y0092679D01*
X0134426Y0092708D01*
X0134613Y0092743D01*
X0134799Y0092782D01*
X0134984Y0092825D01*
X0135169Y0092873D01*
X0135352Y0092925D01*
X0135533Y0092981D01*
X0135713Y0093042D01*
X0135892Y0093108D01*
X0136069Y0093177D01*
X0136245Y0093251D01*
X0136418Y0093329D01*
X0136590Y0093412D01*
X0136759Y0093498D01*
X0136927Y0093588D01*
X0137092Y0093683D01*
X0137255Y0093781D01*
X0137415Y0093884D01*
X0137573Y0093990D01*
X0137728Y0094100D01*
X0137881Y0094213D01*
X0138031Y0094331D01*
X0138177Y0094452D01*
X0138321Y0094576D01*
X0138462Y0094704D01*
X0138600Y0094835D01*
X0138735Y0094970D01*
X0138866Y0095108D01*
X0138994Y0095249D01*
X0139118Y0095393D01*
X0139239Y0095539D01*
X0139357Y0095689D01*
X0139470Y0095842D01*
X0139580Y0095997D01*
X0139686Y0096155D01*
X0139789Y0096315D01*
X0139887Y0096478D01*
X0139982Y0096643D01*
X0140072Y0096811D01*
X0140158Y0096980D01*
X0140241Y0097152D01*
X0140319Y0097325D01*
X0140393Y0097501D01*
X0140462Y0097678D01*
X0140528Y0097857D01*
X0140589Y0098037D01*
X0140645Y0098218D01*
X0140697Y0098401D01*
X0140745Y0098586D01*
X0140788Y0098771D01*
X0140827Y0098957D01*
X0140862Y0099144D01*
X0140891Y0099332D01*
X0140917Y0099521D01*
X0140937Y0099710D01*
X0140953Y0099900D01*
X0140965Y0100090D01*
X0140972Y0100280D01*
X0140974Y0100470D01*
X0203966Y0100470D01*
X0207509Y0100470D02*
X0207511Y0100601D01*
X0207517Y0100733D01*
X0207527Y0100864D01*
X0207541Y0100995D01*
X0207559Y0101125D01*
X0207581Y0101254D01*
X0207606Y0101383D01*
X0207636Y0101511D01*
X0207670Y0101638D01*
X0207707Y0101765D01*
X0207748Y0101889D01*
X0207793Y0102013D01*
X0207842Y0102135D01*
X0207894Y0102256D01*
X0207950Y0102374D01*
X0208010Y0102492D01*
X0208073Y0102607D01*
X0208140Y0102720D01*
X0208210Y0102832D01*
X0208283Y0102941D01*
X0208359Y0103047D01*
X0208439Y0103152D01*
X0208522Y0103254D01*
X0208608Y0103353D01*
X0208697Y0103450D01*
X0208789Y0103544D01*
X0208884Y0103635D01*
X0208981Y0103724D01*
X0209081Y0103809D01*
X0209184Y0103891D01*
X0209289Y0103970D01*
X0209396Y0104046D01*
X0209506Y0104118D01*
X0209618Y0104187D01*
X0209732Y0104253D01*
X0209847Y0104315D01*
X0209965Y0104374D01*
X0210084Y0104429D01*
X0210205Y0104481D01*
X0210328Y0104528D01*
X0210452Y0104572D01*
X0210577Y0104613D01*
X0210703Y0104649D01*
X0210831Y0104682D01*
X0210959Y0104710D01*
X0211088Y0104735D01*
X0211218Y0104756D01*
X0211348Y0104773D01*
X0211479Y0104786D01*
X0211610Y0104795D01*
X0211741Y0104800D01*
X0211873Y0104801D01*
X0212004Y0104798D01*
X0212136Y0104791D01*
X0212267Y0104780D01*
X0212397Y0104765D01*
X0212527Y0104746D01*
X0212657Y0104723D01*
X0212785Y0104697D01*
X0212913Y0104666D01*
X0213040Y0104631D01*
X0213166Y0104593D01*
X0213290Y0104551D01*
X0213414Y0104505D01*
X0213535Y0104455D01*
X0213655Y0104402D01*
X0213774Y0104345D01*
X0213891Y0104285D01*
X0214005Y0104221D01*
X0214118Y0104153D01*
X0214229Y0104082D01*
X0214338Y0104008D01*
X0214444Y0103931D01*
X0214548Y0103850D01*
X0214649Y0103767D01*
X0214748Y0103680D01*
X0214844Y0103590D01*
X0214937Y0103497D01*
X0215028Y0103402D01*
X0215115Y0103304D01*
X0215200Y0103203D01*
X0215281Y0103100D01*
X0215359Y0102994D01*
X0215434Y0102886D01*
X0215506Y0102776D01*
X0215574Y0102664D01*
X0215639Y0102550D01*
X0215700Y0102433D01*
X0215758Y0102315D01*
X0215812Y0102195D01*
X0215863Y0102074D01*
X0215910Y0101951D01*
X0215953Y0101827D01*
X0215992Y0101702D01*
X0216028Y0101575D01*
X0216059Y0101447D01*
X0216087Y0101319D01*
X0216111Y0101190D01*
X0216131Y0101060D01*
X0216147Y0100929D01*
X0216159Y0100798D01*
X0216167Y0100667D01*
X0216171Y0100536D01*
X0216171Y0100404D01*
X0216167Y0100273D01*
X0216159Y0100142D01*
X0216147Y0100011D01*
X0216131Y0099880D01*
X0216111Y0099750D01*
X0216087Y0099621D01*
X0216059Y0099493D01*
X0216028Y0099365D01*
X0215992Y0099238D01*
X0215953Y0099113D01*
X0215910Y0098989D01*
X0215863Y0098866D01*
X0215812Y0098745D01*
X0215758Y0098625D01*
X0215700Y0098507D01*
X0215639Y0098390D01*
X0215574Y0098276D01*
X0215506Y0098164D01*
X0215434Y0098054D01*
X0215359Y0097946D01*
X0215281Y0097840D01*
X0215200Y0097737D01*
X0215115Y0097636D01*
X0215028Y0097538D01*
X0214937Y0097443D01*
X0214844Y0097350D01*
X0214748Y0097260D01*
X0214649Y0097173D01*
X0214548Y0097090D01*
X0214444Y0097009D01*
X0214338Y0096932D01*
X0214229Y0096858D01*
X0214118Y0096787D01*
X0214006Y0096719D01*
X0213891Y0096655D01*
X0213774Y0096595D01*
X0213655Y0096538D01*
X0213535Y0096485D01*
X0213414Y0096435D01*
X0213290Y0096389D01*
X0213166Y0096347D01*
X0213040Y0096309D01*
X0212913Y0096274D01*
X0212785Y0096243D01*
X0212657Y0096217D01*
X0212527Y0096194D01*
X0212397Y0096175D01*
X0212267Y0096160D01*
X0212136Y0096149D01*
X0212004Y0096142D01*
X0211873Y0096139D01*
X0211741Y0096140D01*
X0211610Y0096145D01*
X0211479Y0096154D01*
X0211348Y0096167D01*
X0211218Y0096184D01*
X0211088Y0096205D01*
X0210959Y0096230D01*
X0210831Y0096258D01*
X0210703Y0096291D01*
X0210577Y0096327D01*
X0210452Y0096368D01*
X0210328Y0096412D01*
X0210205Y0096459D01*
X0210084Y0096511D01*
X0209965Y0096566D01*
X0209847Y0096625D01*
X0209732Y0096687D01*
X0209618Y0096753D01*
X0209506Y0096822D01*
X0209396Y0096894D01*
X0209289Y0096970D01*
X0209184Y0097049D01*
X0209081Y0097131D01*
X0208981Y0097216D01*
X0208884Y0097305D01*
X0208789Y0097396D01*
X0208697Y0097490D01*
X0208608Y0097587D01*
X0208522Y0097686D01*
X0208439Y0097788D01*
X0208359Y0097893D01*
X0208283Y0097999D01*
X0208210Y0098108D01*
X0208140Y0098220D01*
X0208073Y0098333D01*
X0208010Y0098448D01*
X0207950Y0098566D01*
X0207894Y0098684D01*
X0207842Y0098805D01*
X0207793Y0098927D01*
X0207748Y0099051D01*
X0207707Y0099175D01*
X0207670Y0099302D01*
X0207636Y0099429D01*
X0207606Y0099557D01*
X0207581Y0099686D01*
X0207559Y0099815D01*
X0207541Y0099945D01*
X0207527Y0100076D01*
X0207517Y0100207D01*
X0207511Y0100339D01*
X0207509Y0100470D01*
X0211840Y0108344D02*
X0212030Y0108342D01*
X0212220Y0108335D01*
X0212410Y0108323D01*
X0212600Y0108307D01*
X0212789Y0108287D01*
X0212978Y0108261D01*
X0213166Y0108232D01*
X0213353Y0108197D01*
X0213539Y0108158D01*
X0213724Y0108115D01*
X0213909Y0108067D01*
X0214092Y0108015D01*
X0214273Y0107959D01*
X0214453Y0107898D01*
X0214632Y0107832D01*
X0214809Y0107763D01*
X0214985Y0107689D01*
X0215158Y0107611D01*
X0215330Y0107528D01*
X0215499Y0107442D01*
X0215667Y0107352D01*
X0215832Y0107257D01*
X0215995Y0107159D01*
X0216155Y0107056D01*
X0216313Y0106950D01*
X0216468Y0106840D01*
X0216621Y0106727D01*
X0216771Y0106609D01*
X0216917Y0106488D01*
X0217061Y0106364D01*
X0217202Y0106236D01*
X0217340Y0106105D01*
X0217475Y0105970D01*
X0217606Y0105832D01*
X0217734Y0105691D01*
X0217858Y0105547D01*
X0217979Y0105401D01*
X0218097Y0105251D01*
X0218210Y0105098D01*
X0218320Y0104943D01*
X0218426Y0104785D01*
X0218529Y0104625D01*
X0218627Y0104462D01*
X0218722Y0104297D01*
X0218812Y0104129D01*
X0218898Y0103960D01*
X0218981Y0103788D01*
X0219059Y0103615D01*
X0219133Y0103439D01*
X0219202Y0103262D01*
X0219268Y0103083D01*
X0219329Y0102903D01*
X0219385Y0102722D01*
X0219437Y0102539D01*
X0219485Y0102354D01*
X0219528Y0102169D01*
X0219567Y0101983D01*
X0219602Y0101796D01*
X0219631Y0101608D01*
X0219657Y0101419D01*
X0219677Y0101230D01*
X0219693Y0101040D01*
X0219705Y0100850D01*
X0219712Y0100660D01*
X0219714Y0100470D01*
X0247273Y0100470D01*
X0247397Y0100468D01*
X0247520Y0100462D01*
X0247644Y0100453D01*
X0247766Y0100439D01*
X0247889Y0100422D01*
X0248011Y0100400D01*
X0248132Y0100375D01*
X0248252Y0100346D01*
X0248371Y0100314D01*
X0248490Y0100277D01*
X0248607Y0100237D01*
X0248722Y0100194D01*
X0248837Y0100146D01*
X0248949Y0100095D01*
X0249060Y0100041D01*
X0249170Y0099983D01*
X0249277Y0099922D01*
X0249383Y0099857D01*
X0249486Y0099789D01*
X0249587Y0099718D01*
X0249686Y0099644D01*
X0249783Y0099567D01*
X0249877Y0099486D01*
X0249968Y0099403D01*
X0250057Y0099317D01*
X0250143Y0099228D01*
X0250226Y0099137D01*
X0250307Y0099043D01*
X0250384Y0098946D01*
X0250458Y0098847D01*
X0250529Y0098746D01*
X0250597Y0098643D01*
X0250662Y0098537D01*
X0250723Y0098430D01*
X0250781Y0098320D01*
X0250835Y0098209D01*
X0250886Y0098097D01*
X0250934Y0097982D01*
X0250977Y0097867D01*
X0251017Y0097750D01*
X0251054Y0097631D01*
X0251086Y0097512D01*
X0251115Y0097392D01*
X0251140Y0097271D01*
X0251162Y0097149D01*
X0251179Y0097026D01*
X0251193Y0096904D01*
X0251202Y0096780D01*
X0251208Y0096657D01*
X0251210Y0096533D01*
X0251210Y0068974D01*
X0243336Y0061100D02*
X0243338Y0060910D01*
X0243345Y0060720D01*
X0243357Y0060530D01*
X0243373Y0060340D01*
X0243393Y0060151D01*
X0243419Y0059962D01*
X0243448Y0059774D01*
X0243483Y0059587D01*
X0243522Y0059401D01*
X0243565Y0059216D01*
X0243613Y0059031D01*
X0243665Y0058848D01*
X0243721Y0058667D01*
X0243782Y0058487D01*
X0243848Y0058308D01*
X0243917Y0058131D01*
X0243991Y0057955D01*
X0244069Y0057782D01*
X0244152Y0057610D01*
X0244238Y0057441D01*
X0244328Y0057273D01*
X0244423Y0057108D01*
X0244521Y0056945D01*
X0244624Y0056785D01*
X0244730Y0056627D01*
X0244840Y0056472D01*
X0244953Y0056319D01*
X0245071Y0056169D01*
X0245192Y0056023D01*
X0245316Y0055879D01*
X0245444Y0055738D01*
X0245575Y0055600D01*
X0245710Y0055465D01*
X0245848Y0055334D01*
X0245989Y0055206D01*
X0246133Y0055082D01*
X0246279Y0054961D01*
X0246429Y0054843D01*
X0246582Y0054730D01*
X0246737Y0054620D01*
X0246895Y0054514D01*
X0247055Y0054411D01*
X0247218Y0054313D01*
X0247383Y0054218D01*
X0247551Y0054128D01*
X0247720Y0054042D01*
X0247892Y0053959D01*
X0248065Y0053881D01*
X0248241Y0053807D01*
X0248418Y0053738D01*
X0248597Y0053672D01*
X0248777Y0053611D01*
X0248958Y0053555D01*
X0249141Y0053503D01*
X0249326Y0053455D01*
X0249511Y0053412D01*
X0249697Y0053373D01*
X0249884Y0053338D01*
X0250072Y0053309D01*
X0250261Y0053283D01*
X0250450Y0053263D01*
X0250640Y0053247D01*
X0250830Y0053235D01*
X0251020Y0053228D01*
X0251210Y0053226D01*
X0251210Y0025667D01*
X0251208Y0025543D01*
X0251202Y0025420D01*
X0251193Y0025296D01*
X0251179Y0025174D01*
X0251162Y0025051D01*
X0251140Y0024929D01*
X0251115Y0024808D01*
X0251086Y0024688D01*
X0251054Y0024569D01*
X0251017Y0024450D01*
X0250977Y0024333D01*
X0250934Y0024218D01*
X0250886Y0024103D01*
X0250835Y0023991D01*
X0250781Y0023880D01*
X0250723Y0023770D01*
X0250662Y0023663D01*
X0250597Y0023557D01*
X0250529Y0023454D01*
X0250458Y0023353D01*
X0250384Y0023254D01*
X0250307Y0023157D01*
X0250226Y0023063D01*
X0250143Y0022972D01*
X0250057Y0022883D01*
X0249968Y0022797D01*
X0249877Y0022714D01*
X0249783Y0022633D01*
X0249686Y0022556D01*
X0249587Y0022482D01*
X0249486Y0022411D01*
X0249383Y0022343D01*
X0249277Y0022278D01*
X0249170Y0022217D01*
X0249060Y0022159D01*
X0248949Y0022105D01*
X0248837Y0022054D01*
X0248722Y0022006D01*
X0248607Y0021963D01*
X0248490Y0021923D01*
X0248371Y0021886D01*
X0248252Y0021854D01*
X0248132Y0021825D01*
X0248011Y0021800D01*
X0247889Y0021778D01*
X0247766Y0021761D01*
X0247644Y0021747D01*
X0247520Y0021738D01*
X0247397Y0021732D01*
X0247273Y0021730D01*
X0219714Y0021730D01*
X0207509Y0021730D02*
X0207511Y0021861D01*
X0207517Y0021993D01*
X0207527Y0022124D01*
X0207541Y0022255D01*
X0207559Y0022385D01*
X0207581Y0022514D01*
X0207606Y0022643D01*
X0207636Y0022771D01*
X0207670Y0022898D01*
X0207707Y0023025D01*
X0207748Y0023149D01*
X0207793Y0023273D01*
X0207842Y0023395D01*
X0207894Y0023516D01*
X0207950Y0023634D01*
X0208010Y0023752D01*
X0208073Y0023867D01*
X0208140Y0023980D01*
X0208210Y0024092D01*
X0208283Y0024201D01*
X0208359Y0024307D01*
X0208439Y0024412D01*
X0208522Y0024514D01*
X0208608Y0024613D01*
X0208697Y0024710D01*
X0208789Y0024804D01*
X0208884Y0024895D01*
X0208981Y0024984D01*
X0209081Y0025069D01*
X0209184Y0025151D01*
X0209289Y0025230D01*
X0209396Y0025306D01*
X0209506Y0025378D01*
X0209618Y0025447D01*
X0209732Y0025513D01*
X0209847Y0025575D01*
X0209965Y0025634D01*
X0210084Y0025689D01*
X0210205Y0025741D01*
X0210328Y0025788D01*
X0210452Y0025832D01*
X0210577Y0025873D01*
X0210703Y0025909D01*
X0210831Y0025942D01*
X0210959Y0025970D01*
X0211088Y0025995D01*
X0211218Y0026016D01*
X0211348Y0026033D01*
X0211479Y0026046D01*
X0211610Y0026055D01*
X0211741Y0026060D01*
X0211873Y0026061D01*
X0212004Y0026058D01*
X0212136Y0026051D01*
X0212267Y0026040D01*
X0212397Y0026025D01*
X0212527Y0026006D01*
X0212657Y0025983D01*
X0212785Y0025957D01*
X0212913Y0025926D01*
X0213040Y0025891D01*
X0213166Y0025853D01*
X0213290Y0025811D01*
X0213414Y0025765D01*
X0213535Y0025715D01*
X0213655Y0025662D01*
X0213774Y0025605D01*
X0213891Y0025545D01*
X0214005Y0025481D01*
X0214118Y0025413D01*
X0214229Y0025342D01*
X0214338Y0025268D01*
X0214444Y0025191D01*
X0214548Y0025110D01*
X0214649Y0025027D01*
X0214748Y0024940D01*
X0214844Y0024850D01*
X0214937Y0024757D01*
X0215028Y0024662D01*
X0215115Y0024564D01*
X0215200Y0024463D01*
X0215281Y0024360D01*
X0215359Y0024254D01*
X0215434Y0024146D01*
X0215506Y0024036D01*
X0215574Y0023924D01*
X0215639Y0023810D01*
X0215700Y0023693D01*
X0215758Y0023575D01*
X0215812Y0023455D01*
X0215863Y0023334D01*
X0215910Y0023211D01*
X0215953Y0023087D01*
X0215992Y0022962D01*
X0216028Y0022835D01*
X0216059Y0022707D01*
X0216087Y0022579D01*
X0216111Y0022450D01*
X0216131Y0022320D01*
X0216147Y0022189D01*
X0216159Y0022058D01*
X0216167Y0021927D01*
X0216171Y0021796D01*
X0216171Y0021664D01*
X0216167Y0021533D01*
X0216159Y0021402D01*
X0216147Y0021271D01*
X0216131Y0021140D01*
X0216111Y0021010D01*
X0216087Y0020881D01*
X0216059Y0020753D01*
X0216028Y0020625D01*
X0215992Y0020498D01*
X0215953Y0020373D01*
X0215910Y0020249D01*
X0215863Y0020126D01*
X0215812Y0020005D01*
X0215758Y0019885D01*
X0215700Y0019767D01*
X0215639Y0019650D01*
X0215574Y0019536D01*
X0215506Y0019424D01*
X0215434Y0019314D01*
X0215359Y0019206D01*
X0215281Y0019100D01*
X0215200Y0018997D01*
X0215115Y0018896D01*
X0215028Y0018798D01*
X0214937Y0018703D01*
X0214844Y0018610D01*
X0214748Y0018520D01*
X0214649Y0018433D01*
X0214548Y0018350D01*
X0214444Y0018269D01*
X0214338Y0018192D01*
X0214229Y0018118D01*
X0214118Y0018047D01*
X0214006Y0017979D01*
X0213891Y0017915D01*
X0213774Y0017855D01*
X0213655Y0017798D01*
X0213535Y0017745D01*
X0213414Y0017695D01*
X0213290Y0017649D01*
X0213166Y0017607D01*
X0213040Y0017569D01*
X0212913Y0017534D01*
X0212785Y0017503D01*
X0212657Y0017477D01*
X0212527Y0017454D01*
X0212397Y0017435D01*
X0212267Y0017420D01*
X0212136Y0017409D01*
X0212004Y0017402D01*
X0211873Y0017399D01*
X0211741Y0017400D01*
X0211610Y0017405D01*
X0211479Y0017414D01*
X0211348Y0017427D01*
X0211218Y0017444D01*
X0211088Y0017465D01*
X0210959Y0017490D01*
X0210831Y0017518D01*
X0210703Y0017551D01*
X0210577Y0017587D01*
X0210452Y0017628D01*
X0210328Y0017672D01*
X0210205Y0017719D01*
X0210084Y0017771D01*
X0209965Y0017826D01*
X0209847Y0017885D01*
X0209732Y0017947D01*
X0209618Y0018013D01*
X0209506Y0018082D01*
X0209396Y0018154D01*
X0209289Y0018230D01*
X0209184Y0018309D01*
X0209081Y0018391D01*
X0208981Y0018476D01*
X0208884Y0018565D01*
X0208789Y0018656D01*
X0208697Y0018750D01*
X0208608Y0018847D01*
X0208522Y0018946D01*
X0208439Y0019048D01*
X0208359Y0019153D01*
X0208283Y0019259D01*
X0208210Y0019368D01*
X0208140Y0019480D01*
X0208073Y0019593D01*
X0208010Y0019708D01*
X0207950Y0019826D01*
X0207894Y0019944D01*
X0207842Y0020065D01*
X0207793Y0020187D01*
X0207748Y0020311D01*
X0207707Y0020435D01*
X0207670Y0020562D01*
X0207636Y0020689D01*
X0207606Y0020817D01*
X0207581Y0020946D01*
X0207559Y0021075D01*
X0207541Y0021205D01*
X0207527Y0021336D01*
X0207517Y0021467D01*
X0207511Y0021599D01*
X0207509Y0021730D01*
X0211840Y0013856D02*
X0212030Y0013858D01*
X0212220Y0013865D01*
X0212410Y0013877D01*
X0212600Y0013893D01*
X0212789Y0013913D01*
X0212978Y0013939D01*
X0213166Y0013968D01*
X0213353Y0014003D01*
X0213539Y0014042D01*
X0213724Y0014085D01*
X0213909Y0014133D01*
X0214092Y0014185D01*
X0214273Y0014241D01*
X0214453Y0014302D01*
X0214632Y0014368D01*
X0214809Y0014437D01*
X0214985Y0014511D01*
X0215158Y0014589D01*
X0215330Y0014672D01*
X0215499Y0014758D01*
X0215667Y0014848D01*
X0215832Y0014943D01*
X0215995Y0015041D01*
X0216155Y0015144D01*
X0216313Y0015250D01*
X0216468Y0015360D01*
X0216621Y0015473D01*
X0216771Y0015591D01*
X0216917Y0015712D01*
X0217061Y0015836D01*
X0217202Y0015964D01*
X0217340Y0016095D01*
X0217475Y0016230D01*
X0217606Y0016368D01*
X0217734Y0016509D01*
X0217858Y0016653D01*
X0217979Y0016799D01*
X0218097Y0016949D01*
X0218210Y0017102D01*
X0218320Y0017257D01*
X0218426Y0017415D01*
X0218529Y0017575D01*
X0218627Y0017738D01*
X0218722Y0017903D01*
X0218812Y0018071D01*
X0218898Y0018240D01*
X0218981Y0018412D01*
X0219059Y0018585D01*
X0219133Y0018761D01*
X0219202Y0018938D01*
X0219268Y0019117D01*
X0219329Y0019297D01*
X0219385Y0019478D01*
X0219437Y0019661D01*
X0219485Y0019846D01*
X0219528Y0020031D01*
X0219567Y0020217D01*
X0219602Y0020404D01*
X0219631Y0020592D01*
X0219657Y0020781D01*
X0219677Y0020970D01*
X0219693Y0021160D01*
X0219705Y0021350D01*
X0219712Y0021540D01*
X0219714Y0021730D01*
X0211840Y0013856D02*
X0211650Y0013858D01*
X0211460Y0013865D01*
X0211270Y0013877D01*
X0211080Y0013893D01*
X0210891Y0013913D01*
X0210702Y0013939D01*
X0210514Y0013968D01*
X0210327Y0014003D01*
X0210141Y0014042D01*
X0209956Y0014085D01*
X0209771Y0014133D01*
X0209588Y0014185D01*
X0209407Y0014241D01*
X0209227Y0014302D01*
X0209048Y0014368D01*
X0208871Y0014437D01*
X0208695Y0014511D01*
X0208522Y0014589D01*
X0208350Y0014672D01*
X0208181Y0014758D01*
X0208013Y0014848D01*
X0207848Y0014943D01*
X0207685Y0015041D01*
X0207525Y0015144D01*
X0207367Y0015250D01*
X0207212Y0015360D01*
X0207059Y0015473D01*
X0206909Y0015591D01*
X0206763Y0015712D01*
X0206619Y0015836D01*
X0206478Y0015964D01*
X0206340Y0016095D01*
X0206205Y0016230D01*
X0206074Y0016368D01*
X0205946Y0016509D01*
X0205822Y0016653D01*
X0205701Y0016799D01*
X0205583Y0016949D01*
X0205470Y0017102D01*
X0205360Y0017257D01*
X0205254Y0017415D01*
X0205151Y0017575D01*
X0205053Y0017738D01*
X0204958Y0017903D01*
X0204868Y0018071D01*
X0204782Y0018240D01*
X0204699Y0018412D01*
X0204621Y0018585D01*
X0204547Y0018761D01*
X0204478Y0018938D01*
X0204412Y0019117D01*
X0204351Y0019297D01*
X0204295Y0019478D01*
X0204243Y0019661D01*
X0204195Y0019846D01*
X0204152Y0020031D01*
X0204113Y0020217D01*
X0204078Y0020404D01*
X0204049Y0020592D01*
X0204023Y0020781D01*
X0204003Y0020970D01*
X0203987Y0021160D01*
X0203975Y0021350D01*
X0203968Y0021540D01*
X0203966Y0021730D01*
X0140974Y0021730D01*
X0140972Y0021920D01*
X0140965Y0022110D01*
X0140953Y0022300D01*
X0140937Y0022490D01*
X0140917Y0022679D01*
X0140891Y0022868D01*
X0140862Y0023056D01*
X0140827Y0023243D01*
X0140788Y0023429D01*
X0140745Y0023614D01*
X0140697Y0023799D01*
X0140645Y0023982D01*
X0140589Y0024163D01*
X0140528Y0024343D01*
X0140462Y0024522D01*
X0140393Y0024699D01*
X0140319Y0024875D01*
X0140241Y0025048D01*
X0140158Y0025220D01*
X0140072Y0025389D01*
X0139982Y0025557D01*
X0139887Y0025722D01*
X0139789Y0025885D01*
X0139686Y0026045D01*
X0139580Y0026203D01*
X0139470Y0026358D01*
X0139357Y0026511D01*
X0139239Y0026661D01*
X0139118Y0026807D01*
X0138994Y0026951D01*
X0138866Y0027092D01*
X0138735Y0027230D01*
X0138600Y0027365D01*
X0138462Y0027496D01*
X0138321Y0027624D01*
X0138177Y0027748D01*
X0138031Y0027869D01*
X0137881Y0027987D01*
X0137728Y0028100D01*
X0137573Y0028210D01*
X0137415Y0028316D01*
X0137255Y0028419D01*
X0137092Y0028517D01*
X0136927Y0028612D01*
X0136759Y0028702D01*
X0136590Y0028788D01*
X0136418Y0028871D01*
X0136245Y0028949D01*
X0136069Y0029023D01*
X0135892Y0029092D01*
X0135713Y0029158D01*
X0135533Y0029219D01*
X0135352Y0029275D01*
X0135169Y0029327D01*
X0134984Y0029375D01*
X0134799Y0029418D01*
X0134613Y0029457D01*
X0134426Y0029492D01*
X0134238Y0029521D01*
X0134049Y0029547D01*
X0133860Y0029567D01*
X0133670Y0029583D01*
X0133480Y0029595D01*
X0133290Y0029602D01*
X0133100Y0029604D01*
X0132910Y0029602D01*
X0132720Y0029595D01*
X0132530Y0029583D01*
X0132340Y0029567D01*
X0132151Y0029547D01*
X0131962Y0029521D01*
X0131774Y0029492D01*
X0131587Y0029457D01*
X0131401Y0029418D01*
X0131216Y0029375D01*
X0131031Y0029327D01*
X0130848Y0029275D01*
X0130667Y0029219D01*
X0130487Y0029158D01*
X0130308Y0029092D01*
X0130131Y0029023D01*
X0129955Y0028949D01*
X0129782Y0028871D01*
X0129610Y0028788D01*
X0129441Y0028702D01*
X0129273Y0028612D01*
X0129108Y0028517D01*
X0128945Y0028419D01*
X0128785Y0028316D01*
X0128627Y0028210D01*
X0128472Y0028100D01*
X0128319Y0027987D01*
X0128169Y0027869D01*
X0128023Y0027748D01*
X0127879Y0027624D01*
X0127738Y0027496D01*
X0127600Y0027365D01*
X0127465Y0027230D01*
X0127334Y0027092D01*
X0127206Y0026951D01*
X0127082Y0026807D01*
X0126961Y0026661D01*
X0126843Y0026511D01*
X0126730Y0026358D01*
X0126620Y0026203D01*
X0126514Y0026045D01*
X0126411Y0025885D01*
X0126313Y0025722D01*
X0126218Y0025557D01*
X0126128Y0025389D01*
X0126042Y0025220D01*
X0125959Y0025048D01*
X0125881Y0024875D01*
X0125807Y0024699D01*
X0125738Y0024522D01*
X0125672Y0024343D01*
X0125611Y0024163D01*
X0125555Y0023982D01*
X0125503Y0023799D01*
X0125455Y0023614D01*
X0125412Y0023429D01*
X0125373Y0023243D01*
X0125338Y0023056D01*
X0125309Y0022868D01*
X0125283Y0022679D01*
X0125263Y0022490D01*
X0125247Y0022300D01*
X0125235Y0022110D01*
X0125228Y0021920D01*
X0125226Y0021730D01*
X0062234Y0021730D01*
X0050029Y0021730D02*
X0050031Y0021861D01*
X0050037Y0021993D01*
X0050047Y0022124D01*
X0050061Y0022255D01*
X0050079Y0022385D01*
X0050101Y0022514D01*
X0050126Y0022643D01*
X0050156Y0022771D01*
X0050190Y0022898D01*
X0050227Y0023025D01*
X0050268Y0023149D01*
X0050313Y0023273D01*
X0050362Y0023395D01*
X0050414Y0023516D01*
X0050470Y0023634D01*
X0050530Y0023752D01*
X0050593Y0023867D01*
X0050660Y0023980D01*
X0050730Y0024092D01*
X0050803Y0024201D01*
X0050879Y0024307D01*
X0050959Y0024412D01*
X0051042Y0024514D01*
X0051128Y0024613D01*
X0051217Y0024710D01*
X0051309Y0024804D01*
X0051404Y0024895D01*
X0051501Y0024984D01*
X0051601Y0025069D01*
X0051704Y0025151D01*
X0051809Y0025230D01*
X0051916Y0025306D01*
X0052026Y0025378D01*
X0052138Y0025447D01*
X0052252Y0025513D01*
X0052367Y0025575D01*
X0052485Y0025634D01*
X0052604Y0025689D01*
X0052725Y0025741D01*
X0052848Y0025788D01*
X0052972Y0025832D01*
X0053097Y0025873D01*
X0053223Y0025909D01*
X0053351Y0025942D01*
X0053479Y0025970D01*
X0053608Y0025995D01*
X0053738Y0026016D01*
X0053868Y0026033D01*
X0053999Y0026046D01*
X0054130Y0026055D01*
X0054261Y0026060D01*
X0054393Y0026061D01*
X0054524Y0026058D01*
X0054656Y0026051D01*
X0054787Y0026040D01*
X0054917Y0026025D01*
X0055047Y0026006D01*
X0055177Y0025983D01*
X0055305Y0025957D01*
X0055433Y0025926D01*
X0055560Y0025891D01*
X0055686Y0025853D01*
X0055810Y0025811D01*
X0055934Y0025765D01*
X0056055Y0025715D01*
X0056175Y0025662D01*
X0056294Y0025605D01*
X0056411Y0025545D01*
X0056525Y0025481D01*
X0056638Y0025413D01*
X0056749Y0025342D01*
X0056858Y0025268D01*
X0056964Y0025191D01*
X0057068Y0025110D01*
X0057169Y0025027D01*
X0057268Y0024940D01*
X0057364Y0024850D01*
X0057457Y0024757D01*
X0057548Y0024662D01*
X0057635Y0024564D01*
X0057720Y0024463D01*
X0057801Y0024360D01*
X0057879Y0024254D01*
X0057954Y0024146D01*
X0058026Y0024036D01*
X0058094Y0023924D01*
X0058159Y0023810D01*
X0058220Y0023693D01*
X0058278Y0023575D01*
X0058332Y0023455D01*
X0058383Y0023334D01*
X0058430Y0023211D01*
X0058473Y0023087D01*
X0058512Y0022962D01*
X0058548Y0022835D01*
X0058579Y0022707D01*
X0058607Y0022579D01*
X0058631Y0022450D01*
X0058651Y0022320D01*
X0058667Y0022189D01*
X0058679Y0022058D01*
X0058687Y0021927D01*
X0058691Y0021796D01*
X0058691Y0021664D01*
X0058687Y0021533D01*
X0058679Y0021402D01*
X0058667Y0021271D01*
X0058651Y0021140D01*
X0058631Y0021010D01*
X0058607Y0020881D01*
X0058579Y0020753D01*
X0058548Y0020625D01*
X0058512Y0020498D01*
X0058473Y0020373D01*
X0058430Y0020249D01*
X0058383Y0020126D01*
X0058332Y0020005D01*
X0058278Y0019885D01*
X0058220Y0019767D01*
X0058159Y0019650D01*
X0058094Y0019536D01*
X0058026Y0019424D01*
X0057954Y0019314D01*
X0057879Y0019206D01*
X0057801Y0019100D01*
X0057720Y0018997D01*
X0057635Y0018896D01*
X0057548Y0018798D01*
X0057457Y0018703D01*
X0057364Y0018610D01*
X0057268Y0018520D01*
X0057169Y0018433D01*
X0057068Y0018350D01*
X0056964Y0018269D01*
X0056858Y0018192D01*
X0056749Y0018118D01*
X0056638Y0018047D01*
X0056526Y0017979D01*
X0056411Y0017915D01*
X0056294Y0017855D01*
X0056175Y0017798D01*
X0056055Y0017745D01*
X0055934Y0017695D01*
X0055810Y0017649D01*
X0055686Y0017607D01*
X0055560Y0017569D01*
X0055433Y0017534D01*
X0055305Y0017503D01*
X0055177Y0017477D01*
X0055047Y0017454D01*
X0054917Y0017435D01*
X0054787Y0017420D01*
X0054656Y0017409D01*
X0054524Y0017402D01*
X0054393Y0017399D01*
X0054261Y0017400D01*
X0054130Y0017405D01*
X0053999Y0017414D01*
X0053868Y0017427D01*
X0053738Y0017444D01*
X0053608Y0017465D01*
X0053479Y0017490D01*
X0053351Y0017518D01*
X0053223Y0017551D01*
X0053097Y0017587D01*
X0052972Y0017628D01*
X0052848Y0017672D01*
X0052725Y0017719D01*
X0052604Y0017771D01*
X0052485Y0017826D01*
X0052367Y0017885D01*
X0052252Y0017947D01*
X0052138Y0018013D01*
X0052026Y0018082D01*
X0051916Y0018154D01*
X0051809Y0018230D01*
X0051704Y0018309D01*
X0051601Y0018391D01*
X0051501Y0018476D01*
X0051404Y0018565D01*
X0051309Y0018656D01*
X0051217Y0018750D01*
X0051128Y0018847D01*
X0051042Y0018946D01*
X0050959Y0019048D01*
X0050879Y0019153D01*
X0050803Y0019259D01*
X0050730Y0019368D01*
X0050660Y0019480D01*
X0050593Y0019593D01*
X0050530Y0019708D01*
X0050470Y0019826D01*
X0050414Y0019944D01*
X0050362Y0020065D01*
X0050313Y0020187D01*
X0050268Y0020311D01*
X0050227Y0020435D01*
X0050190Y0020562D01*
X0050156Y0020689D01*
X0050126Y0020817D01*
X0050101Y0020946D01*
X0050079Y0021075D01*
X0050061Y0021205D01*
X0050047Y0021336D01*
X0050037Y0021467D01*
X0050031Y0021599D01*
X0050029Y0021730D01*
X0054360Y0013856D02*
X0054550Y0013858D01*
X0054740Y0013865D01*
X0054930Y0013877D01*
X0055120Y0013893D01*
X0055309Y0013913D01*
X0055498Y0013939D01*
X0055686Y0013968D01*
X0055873Y0014003D01*
X0056059Y0014042D01*
X0056244Y0014085D01*
X0056429Y0014133D01*
X0056612Y0014185D01*
X0056793Y0014241D01*
X0056973Y0014302D01*
X0057152Y0014368D01*
X0057329Y0014437D01*
X0057505Y0014511D01*
X0057678Y0014589D01*
X0057850Y0014672D01*
X0058019Y0014758D01*
X0058187Y0014848D01*
X0058352Y0014943D01*
X0058515Y0015041D01*
X0058675Y0015144D01*
X0058833Y0015250D01*
X0058988Y0015360D01*
X0059141Y0015473D01*
X0059291Y0015591D01*
X0059437Y0015712D01*
X0059581Y0015836D01*
X0059722Y0015964D01*
X0059860Y0016095D01*
X0059995Y0016230D01*
X0060126Y0016368D01*
X0060254Y0016509D01*
X0060378Y0016653D01*
X0060499Y0016799D01*
X0060617Y0016949D01*
X0060730Y0017102D01*
X0060840Y0017257D01*
X0060946Y0017415D01*
X0061049Y0017575D01*
X0061147Y0017738D01*
X0061242Y0017903D01*
X0061332Y0018071D01*
X0061418Y0018240D01*
X0061501Y0018412D01*
X0061579Y0018585D01*
X0061653Y0018761D01*
X0061722Y0018938D01*
X0061788Y0019117D01*
X0061849Y0019297D01*
X0061905Y0019478D01*
X0061957Y0019661D01*
X0062005Y0019846D01*
X0062048Y0020031D01*
X0062087Y0020217D01*
X0062122Y0020404D01*
X0062151Y0020592D01*
X0062177Y0020781D01*
X0062197Y0020970D01*
X0062213Y0021160D01*
X0062225Y0021350D01*
X0062232Y0021540D01*
X0062234Y0021730D01*
X0054360Y0013856D02*
X0054170Y0013858D01*
X0053980Y0013865D01*
X0053790Y0013877D01*
X0053600Y0013893D01*
X0053411Y0013913D01*
X0053222Y0013939D01*
X0053034Y0013968D01*
X0052847Y0014003D01*
X0052661Y0014042D01*
X0052476Y0014085D01*
X0052291Y0014133D01*
X0052108Y0014185D01*
X0051927Y0014241D01*
X0051747Y0014302D01*
X0051568Y0014368D01*
X0051391Y0014437D01*
X0051215Y0014511D01*
X0051042Y0014589D01*
X0050870Y0014672D01*
X0050701Y0014758D01*
X0050533Y0014848D01*
X0050368Y0014943D01*
X0050205Y0015041D01*
X0050045Y0015144D01*
X0049887Y0015250D01*
X0049732Y0015360D01*
X0049579Y0015473D01*
X0049429Y0015591D01*
X0049283Y0015712D01*
X0049139Y0015836D01*
X0048998Y0015964D01*
X0048860Y0016095D01*
X0048725Y0016230D01*
X0048594Y0016368D01*
X0048466Y0016509D01*
X0048342Y0016653D01*
X0048221Y0016799D01*
X0048103Y0016949D01*
X0047990Y0017102D01*
X0047880Y0017257D01*
X0047774Y0017415D01*
X0047671Y0017575D01*
X0047573Y0017738D01*
X0047478Y0017903D01*
X0047388Y0018071D01*
X0047302Y0018240D01*
X0047219Y0018412D01*
X0047141Y0018585D01*
X0047067Y0018761D01*
X0046998Y0018938D01*
X0046932Y0019117D01*
X0046871Y0019297D01*
X0046815Y0019478D01*
X0046763Y0019661D01*
X0046715Y0019846D01*
X0046672Y0020031D01*
X0046633Y0020217D01*
X0046598Y0020404D01*
X0046569Y0020592D01*
X0046543Y0020781D01*
X0046523Y0020970D01*
X0046507Y0021160D01*
X0046495Y0021350D01*
X0046488Y0021540D01*
X0046486Y0021730D01*
X0203966Y0100470D02*
X0203968Y0100660D01*
X0203975Y0100850D01*
X0203987Y0101040D01*
X0204003Y0101230D01*
X0204023Y0101419D01*
X0204049Y0101608D01*
X0204078Y0101796D01*
X0204113Y0101983D01*
X0204152Y0102169D01*
X0204195Y0102354D01*
X0204243Y0102539D01*
X0204295Y0102722D01*
X0204351Y0102903D01*
X0204412Y0103083D01*
X0204478Y0103262D01*
X0204547Y0103439D01*
X0204621Y0103615D01*
X0204699Y0103788D01*
X0204782Y0103960D01*
X0204868Y0104129D01*
X0204958Y0104297D01*
X0205053Y0104462D01*
X0205151Y0104625D01*
X0205254Y0104785D01*
X0205360Y0104943D01*
X0205470Y0105098D01*
X0205583Y0105251D01*
X0205701Y0105401D01*
X0205822Y0105547D01*
X0205946Y0105691D01*
X0206074Y0105832D01*
X0206205Y0105970D01*
X0206340Y0106105D01*
X0206478Y0106236D01*
X0206619Y0106364D01*
X0206763Y0106488D01*
X0206909Y0106609D01*
X0207059Y0106727D01*
X0207212Y0106840D01*
X0207367Y0106950D01*
X0207525Y0107056D01*
X0207685Y0107159D01*
X0207848Y0107257D01*
X0208013Y0107352D01*
X0208181Y0107442D01*
X0208350Y0107528D01*
X0208522Y0107611D01*
X0208695Y0107689D01*
X0208871Y0107763D01*
X0209048Y0107832D01*
X0209227Y0107898D01*
X0209407Y0107959D01*
X0209588Y0108015D01*
X0209771Y0108067D01*
X0209956Y0108115D01*
X0210141Y0108158D01*
X0210327Y0108197D01*
X0210514Y0108232D01*
X0210702Y0108261D01*
X0210891Y0108287D01*
X0211080Y0108307D01*
X0211270Y0108323D01*
X0211460Y0108335D01*
X0211650Y0108342D01*
X0211840Y0108344D01*
X0251210Y0068974D02*
X0251020Y0068972D01*
X0250830Y0068965D01*
X0250640Y0068953D01*
X0250450Y0068937D01*
X0250261Y0068917D01*
X0250072Y0068891D01*
X0249884Y0068862D01*
X0249697Y0068827D01*
X0249511Y0068788D01*
X0249326Y0068745D01*
X0249141Y0068697D01*
X0248958Y0068645D01*
X0248777Y0068589D01*
X0248597Y0068528D01*
X0248418Y0068462D01*
X0248241Y0068393D01*
X0248065Y0068319D01*
X0247892Y0068241D01*
X0247720Y0068158D01*
X0247551Y0068072D01*
X0247383Y0067982D01*
X0247218Y0067887D01*
X0247055Y0067789D01*
X0246895Y0067686D01*
X0246737Y0067580D01*
X0246582Y0067470D01*
X0246429Y0067357D01*
X0246279Y0067239D01*
X0246133Y0067118D01*
X0245989Y0066994D01*
X0245848Y0066866D01*
X0245710Y0066735D01*
X0245575Y0066600D01*
X0245444Y0066462D01*
X0245316Y0066321D01*
X0245192Y0066177D01*
X0245071Y0066031D01*
X0244953Y0065881D01*
X0244840Y0065728D01*
X0244730Y0065573D01*
X0244624Y0065415D01*
X0244521Y0065255D01*
X0244423Y0065092D01*
X0244328Y0064927D01*
X0244238Y0064759D01*
X0244152Y0064590D01*
X0244069Y0064418D01*
X0243991Y0064245D01*
X0243917Y0064069D01*
X0243848Y0063892D01*
X0243782Y0063713D01*
X0243721Y0063533D01*
X0243665Y0063352D01*
X0243613Y0063169D01*
X0243565Y0062984D01*
X0243522Y0062799D01*
X0243483Y0062613D01*
X0243448Y0062426D01*
X0243419Y0062238D01*
X0243393Y0062049D01*
X0243373Y0061860D01*
X0243357Y0061670D01*
X0243345Y0061480D01*
X0243338Y0061290D01*
X0243336Y0061100D01*
D13*
X0036100Y0068100D03*
D14*
X0036100Y0058100D03*
X0036100Y0048100D03*
D15*
X0072600Y0053600D03*
X0051600Y0071100D03*
X0028600Y0077600D03*
X0077600Y0086100D03*
X0120600Y0085100D03*
X0137600Y0053100D03*
X0218600Y0085600D03*
X0225600Y0054600D03*
D16*
X0228750Y0054511D02*
X0066450Y0054511D01*
X0066450Y0054100D02*
X0066450Y0058106D01*
X0066350Y0058608D01*
X0066154Y0059082D01*
X0065870Y0059507D01*
X0065507Y0059870D01*
X0065082Y0060154D01*
X0064608Y0060350D01*
X0064106Y0060450D01*
X0060100Y0060450D01*
X0060100Y0054100D01*
X0042100Y0054100D01*
X0036100Y0048100D01*
X0041275Y0048100D01*
X0041275Y0048507D01*
X0041147Y0049312D01*
X0040896Y0050086D01*
X0040526Y0050812D01*
X0040047Y0051471D01*
X0039471Y0052047D01*
X0038812Y0052526D01*
X0038086Y0052896D01*
X0037510Y0053083D01*
X0039031Y0053713D01*
X0040487Y0055169D01*
X0041275Y0057071D01*
X0041275Y0059129D01*
X0040487Y0061031D01*
X0039031Y0062487D01*
X0037973Y0062925D01*
X0039192Y0062925D01*
X0040148Y0063321D01*
X0040879Y0064052D01*
X0041275Y0065008D01*
X0041275Y0071192D01*
X0040879Y0072148D01*
X0040148Y0072879D01*
X0039192Y0073275D01*
X0033008Y0073275D01*
X0032052Y0072879D01*
X0031321Y0072148D01*
X0030925Y0071192D01*
X0030925Y0065008D01*
X0031321Y0064052D01*
X0032052Y0063321D01*
X0033008Y0062925D01*
X0034227Y0062925D01*
X0033169Y0062487D01*
X0031713Y0061031D01*
X0030925Y0059129D01*
X0030925Y0057071D01*
X0031713Y0055169D01*
X0033169Y0053713D01*
X0034690Y0053083D01*
X0034114Y0052896D01*
X0033388Y0052526D01*
X0032729Y0052047D01*
X0032153Y0051471D01*
X0031674Y0050812D01*
X0031304Y0050086D01*
X0031053Y0049312D01*
X0030925Y0048507D01*
X0030925Y0048100D01*
X0036100Y0048100D01*
X0036100Y0048100D01*
X0036100Y0048100D01*
X0041275Y0048100D01*
X0041275Y0047693D01*
X0041147Y0046888D01*
X0040896Y0046114D01*
X0040526Y0045388D01*
X0040047Y0044729D01*
X0039471Y0044153D01*
X0038812Y0043674D01*
X0038086Y0043304D01*
X0037312Y0043053D01*
X0036507Y0042925D01*
X0036100Y0042925D01*
X0036100Y0048100D01*
X0036100Y0048100D01*
X0030925Y0048100D01*
X0030925Y0047693D01*
X0031053Y0046888D01*
X0031304Y0046114D01*
X0031674Y0045388D01*
X0032153Y0044729D01*
X0032729Y0044153D01*
X0033388Y0043674D01*
X0034114Y0043304D01*
X0034888Y0043053D01*
X0035693Y0042925D01*
X0036100Y0042925D01*
X0036100Y0048100D01*
X0041275Y0048114D02*
X0055017Y0048114D01*
X0055118Y0048046D02*
X0054693Y0048330D01*
X0054330Y0048693D01*
X0054046Y0049118D01*
X0053850Y0049592D01*
X0053750Y0050094D01*
X0053750Y0054100D01*
X0060100Y0054100D01*
X0066450Y0054100D01*
X0060100Y0054100D01*
X0060100Y0054100D01*
X0060100Y0054100D01*
X0060100Y0047750D01*
X0064106Y0047750D01*
X0064608Y0047850D01*
X0065082Y0048046D01*
X0065507Y0048330D01*
X0065870Y0048693D01*
X0066154Y0049118D01*
X0066350Y0049592D01*
X0066450Y0050094D01*
X0066450Y0054100D01*
X0066450Y0051312D02*
X0229382Y0051312D01*
X0229717Y0050503D02*
X0231503Y0048717D01*
X0233837Y0047750D01*
X0236363Y0047750D01*
X0238697Y0048717D01*
X0240483Y0050503D01*
X0241450Y0052837D01*
X0241450Y0055363D01*
X0240483Y0057697D01*
X0238697Y0059483D01*
X0236363Y0060450D01*
X0233837Y0060450D01*
X0231503Y0059483D01*
X0229717Y0057697D01*
X0228750Y0055363D01*
X0228750Y0052837D01*
X0229717Y0050503D01*
X0232959Y0048114D02*
X0065183Y0048114D01*
X0060100Y0048114D02*
X0060100Y0048114D01*
X0060100Y0047750D02*
X0056094Y0047750D01*
X0055592Y0047850D01*
X0055118Y0048046D01*
X0060100Y0047750D02*
X0060100Y0054100D01*
X0060100Y0054100D01*
X0060100Y0054100D01*
X0060100Y0060450D01*
X0056094Y0060450D01*
X0055592Y0060350D01*
X0055118Y0060154D01*
X0054693Y0059870D01*
X0054330Y0059507D01*
X0054046Y0059082D01*
X0053850Y0058608D01*
X0053750Y0058106D01*
X0053750Y0054100D01*
X0060100Y0054100D01*
X0060100Y0054511D02*
X0060100Y0054511D01*
X0053750Y0054511D02*
X0039829Y0054511D01*
X0040163Y0051312D02*
X0053750Y0051312D01*
X0060100Y0051312D02*
X0060100Y0051312D01*
X0060100Y0057709D02*
X0060100Y0057709D01*
X0053750Y0057709D02*
X0041275Y0057709D01*
X0040538Y0060908D02*
X0240736Y0060908D01*
X0240736Y0059441D02*
X0241761Y0056286D01*
X0243712Y0053601D01*
X0246396Y0051651D01*
X0248610Y0050932D01*
X0248610Y0025667D01*
X0248585Y0025406D01*
X0248585Y0025406D01*
X0248385Y0024924D01*
X0248016Y0024555D01*
X0247534Y0024356D01*
X0247273Y0024330D01*
X0219197Y0024330D01*
X0218401Y0024000D01*
X0217716Y0025656D01*
X0215766Y0027605D01*
X0213219Y0028661D01*
X0210462Y0028661D01*
X0207914Y0027605D01*
X0205965Y0025656D01*
X0205279Y0024000D01*
X0204483Y0024330D01*
X0143268Y0024330D01*
X0142549Y0026544D01*
X0142549Y0026544D01*
X0140599Y0029228D01*
X0140599Y0029228D01*
X0137914Y0031179D01*
X0134759Y0032204D01*
X0131441Y0032204D01*
X0128286Y0031179D01*
X0125601Y0029228D01*
X0123651Y0026544D01*
X0122932Y0024330D01*
X0061717Y0024330D01*
X0060921Y0024000D01*
X0060235Y0025656D01*
X0058286Y0027605D01*
X0055738Y0028661D01*
X0052981Y0028661D01*
X0050434Y0027605D01*
X0048484Y0025656D01*
X0047799Y0024000D01*
X0047003Y0024330D01*
X0018927Y0024330D01*
X0018666Y0024356D01*
X0018184Y0024555D01*
X0017815Y0024924D01*
X0017615Y0025406D01*
X0017590Y0025667D01*
X0017590Y0050932D01*
X0019804Y0051651D01*
X0022488Y0053601D01*
X0022488Y0053601D01*
X0022488Y0053601D01*
X0024438Y0056286D01*
X0025464Y0059441D01*
X0025464Y0062759D01*
X0024438Y0065914D01*
X0024438Y0065914D01*
X0022488Y0068599D01*
X0019804Y0070549D01*
X0017590Y0071268D01*
X0017590Y0096533D01*
X0017615Y0096794D01*
X0017815Y0097276D01*
X0018184Y0097645D01*
X0018666Y0097844D01*
X0018927Y0097870D01*
X0047003Y0097870D01*
X0047799Y0098200D01*
X0048484Y0096544D01*
X0050434Y0094595D01*
X0052981Y0093539D01*
X0055738Y0093539D01*
X0058286Y0094595D01*
X0060235Y0096544D01*
X0060921Y0098200D01*
X0061717Y0097870D01*
X0122932Y0097870D01*
X0123651Y0095656D01*
X0123651Y0095656D01*
X0125601Y0092972D01*
X0125601Y0092972D01*
X0128286Y0091021D01*
X0131441Y0089996D01*
X0134759Y0089996D01*
X0137914Y0091021D01*
X0137914Y0091021D01*
X0140599Y0092972D01*
X0142549Y0095656D01*
X0143268Y0097870D01*
X0204483Y0097870D01*
X0205279Y0098200D01*
X0205965Y0096544D01*
X0207914Y0094595D01*
X0210462Y0093539D01*
X0213219Y0093539D01*
X0215766Y0094595D01*
X0217716Y0096544D01*
X0218401Y0098200D01*
X0219197Y0097870D01*
X0247273Y0097870D01*
X0247534Y0097844D01*
X0248016Y0097645D01*
X0248385Y0097276D01*
X0248585Y0096794D01*
X0248610Y0096533D01*
X0248610Y0071268D01*
X0246396Y0070549D01*
X0246396Y0070549D01*
X0243712Y0068599D01*
X0243712Y0068599D01*
X0241761Y0065914D01*
X0240736Y0062759D01*
X0240736Y0059441D01*
X0240471Y0057709D02*
X0241299Y0057709D01*
X0241761Y0056286D02*
X0241761Y0056286D01*
X0241450Y0054511D02*
X0243051Y0054511D01*
X0243712Y0053601D02*
X0243712Y0053601D01*
X0243712Y0053601D01*
X0246396Y0051651D02*
X0246396Y0051651D01*
X0247439Y0051312D02*
X0240818Y0051312D01*
X0237241Y0048114D02*
X0248610Y0048114D01*
X0248610Y0044915D02*
X0040182Y0044915D01*
X0036100Y0044915D02*
X0036100Y0044915D01*
X0032018Y0044915D02*
X0017590Y0044915D01*
X0017590Y0041717D02*
X0248610Y0041717D01*
X0248610Y0038518D02*
X0017590Y0038518D01*
X0017590Y0035320D02*
X0248610Y0035320D01*
X0248610Y0032121D02*
X0135014Y0032121D01*
X0131186Y0032121D02*
X0017590Y0032121D01*
X0017590Y0028923D02*
X0125379Y0028923D01*
X0125601Y0029228D02*
X0125601Y0029228D01*
X0125601Y0029228D01*
X0128286Y0031179D02*
X0128286Y0031179D01*
X0123651Y0026544D02*
X0123651Y0026544D01*
X0123385Y0025724D02*
X0060167Y0025724D01*
X0048552Y0025724D02*
X0017590Y0025724D01*
X0017590Y0048114D02*
X0030925Y0048114D01*
X0032037Y0051312D02*
X0018761Y0051312D01*
X0019804Y0051651D02*
X0019804Y0051651D01*
X0023149Y0054511D02*
X0032371Y0054511D01*
X0030925Y0057709D02*
X0024901Y0057709D01*
X0024438Y0056286D02*
X0024438Y0056286D01*
X0025464Y0060908D02*
X0031662Y0060908D01*
X0031299Y0064106D02*
X0025026Y0064106D01*
X0023428Y0067305D02*
X0030925Y0067305D01*
X0030925Y0070503D02*
X0019867Y0070503D01*
X0019804Y0070549D02*
X0019804Y0070549D01*
X0022488Y0068599D02*
X0022488Y0068599D01*
X0022488Y0068599D01*
X0017590Y0073702D02*
X0055722Y0073702D01*
X0056503Y0074483D02*
X0054717Y0072697D01*
X0053750Y0070363D01*
X0053750Y0067837D01*
X0054717Y0065503D01*
X0056503Y0063717D01*
X0058837Y0062750D01*
X0061363Y0062750D01*
X0063697Y0063717D01*
X0065483Y0065503D01*
X0066450Y0067837D01*
X0066450Y0070363D01*
X0065483Y0072697D01*
X0063697Y0074483D01*
X0061363Y0075450D01*
X0058837Y0075450D01*
X0056503Y0074483D01*
X0053808Y0070503D02*
X0041275Y0070503D01*
X0041275Y0067305D02*
X0053970Y0067305D01*
X0056114Y0064106D02*
X0040901Y0064106D01*
X0064086Y0064106D02*
X0241174Y0064106D01*
X0241761Y0065914D02*
X0241761Y0065914D01*
X0242772Y0067305D02*
X0066230Y0067305D01*
X0066392Y0070503D02*
X0246333Y0070503D01*
X0243712Y0068599D02*
X0243712Y0068599D01*
X0248610Y0073702D02*
X0064478Y0073702D01*
X0066450Y0057709D02*
X0229729Y0057709D01*
X0248610Y0076900D02*
X0017590Y0076900D01*
X0017590Y0080099D02*
X0248610Y0080099D01*
X0248610Y0083297D02*
X0017590Y0083297D01*
X0017590Y0086496D02*
X0248610Y0086496D01*
X0248610Y0089694D02*
X0017590Y0089694D01*
X0017590Y0092893D02*
X0125710Y0092893D01*
X0125601Y0092972D02*
X0125601Y0092972D01*
X0128286Y0091021D02*
X0128286Y0091021D01*
X0123510Y0096091D02*
X0059783Y0096091D01*
X0048937Y0096091D02*
X0017590Y0096091D01*
X0140490Y0092893D02*
X0248610Y0092893D01*
X0248610Y0096091D02*
X0217263Y0096091D01*
X0206417Y0096091D02*
X0142690Y0096091D01*
X0142549Y0095656D02*
X0142549Y0095656D01*
X0140599Y0092972D02*
X0140599Y0092972D01*
X0140599Y0092972D01*
X0137914Y0031179D02*
X0137914Y0031179D01*
X0140599Y0029228D02*
X0140599Y0029228D01*
X0140821Y0028923D02*
X0248610Y0028923D01*
X0248610Y0025724D02*
X0217647Y0025724D01*
X0206033Y0025724D02*
X0142815Y0025724D01*
M02*
