%
M48
M72
T01C0.0120
T02C0.0315
T03C0.0433
T04C0.0866
%
T01
X7950Y7890
X8950Y7890
X9950Y7890
X9960Y7080
X9200Y5890
X10200Y4640
X7950Y4390
X7950Y3640
X7950Y2390
X8950Y2390
X10200Y2390
X10200Y2890
X11600Y2490
X12450Y2240
X12950Y2390
X12800Y4090
T02
X6950Y5890
X6950Y4890
X6950Y3890
T03
X10700Y6640
X11700Y6640
X11700Y7640
X10700Y7640
T04
X9450Y1203
X9450Y9077
M30
