G75*
%MOIN*%
%OFA0B0*%
%FSLAX24Y24*%
%IPPOS*%
%LPD*%
%AMOC8*
5,1,8,0,0,1.08239X$1,22.5*
%
%ADD10C,0.0088*%
%ADD11R,0.0870X0.0240*%
%ADD12C,0.0650*%
%ADD13C,0.0000*%
%ADD14C,0.0010*%
%ADD15R,0.0515X0.0515*%
%ADD16C,0.0515*%
%ADD17C,0.0080*%
%ADD18C,0.0250*%
%ADD19C,0.0240*%
%ADD20C,0.0160*%
D10*
X008369Y002459D02*
X008369Y002721D01*
X008631Y002721D01*
X008631Y002459D01*
X008369Y002459D01*
X008369Y002546D02*
X008631Y002546D01*
X008631Y002633D02*
X008369Y002633D01*
X008369Y002720D02*
X008631Y002720D01*
X008369Y003059D02*
X008369Y003321D01*
X008631Y003321D01*
X008631Y003059D01*
X008369Y003059D01*
X008369Y003146D02*
X008631Y003146D01*
X008631Y003233D02*
X008369Y003233D01*
X008369Y003320D02*
X008631Y003320D01*
X008369Y003659D02*
X008369Y003921D01*
X008631Y003921D01*
X008631Y003659D01*
X008369Y003659D01*
X008369Y003746D02*
X008631Y003746D01*
X008631Y003833D02*
X008369Y003833D01*
X008369Y003920D02*
X008631Y003920D01*
X008369Y004259D02*
X008369Y004521D01*
X008631Y004521D01*
X008631Y004259D01*
X008369Y004259D01*
X008369Y004346D02*
X008631Y004346D01*
X008631Y004433D02*
X008369Y004433D01*
X008369Y004520D02*
X008631Y004520D01*
X008731Y005221D02*
X008469Y005221D01*
X008731Y005221D02*
X008731Y004959D01*
X008469Y004959D01*
X008469Y005221D01*
X008469Y005046D02*
X008731Y005046D01*
X008731Y005133D02*
X008469Y005133D01*
X008469Y005220D02*
X008731Y005220D01*
X009069Y005221D02*
X009331Y005221D01*
X009331Y004959D01*
X009069Y004959D01*
X009069Y005221D01*
X009069Y005046D02*
X009331Y005046D01*
X009331Y005133D02*
X009069Y005133D01*
X009069Y005220D02*
X009331Y005220D01*
X009769Y005171D02*
X010031Y005171D01*
X010031Y004909D01*
X009769Y004909D01*
X009769Y005171D01*
X009769Y004996D02*
X010031Y004996D01*
X010031Y005083D02*
X009769Y005083D01*
X009769Y005170D02*
X010031Y005170D01*
X010369Y005171D02*
X010631Y005171D01*
X010631Y004909D01*
X010369Y004909D01*
X010369Y005171D01*
X010369Y004996D02*
X010631Y004996D01*
X010631Y005083D02*
X010369Y005083D01*
X010369Y005170D02*
X010631Y005170D01*
X011019Y005171D02*
X011281Y005171D01*
X011281Y004909D01*
X011019Y004909D01*
X011019Y005171D01*
X011019Y004996D02*
X011281Y004996D01*
X011281Y005083D02*
X011019Y005083D01*
X011019Y005170D02*
X011281Y005170D01*
X011619Y005171D02*
X011881Y005171D01*
X011881Y004909D01*
X011619Y004909D01*
X011619Y005171D01*
X011619Y004996D02*
X011881Y004996D01*
X011881Y005083D02*
X011619Y005083D01*
X011619Y005170D02*
X011881Y005170D01*
X012169Y003971D02*
X012169Y003709D01*
X012169Y003971D02*
X012431Y003971D01*
X012431Y003709D01*
X012169Y003709D01*
X012169Y003796D02*
X012431Y003796D01*
X012431Y003883D02*
X012169Y003883D01*
X012169Y003970D02*
X012431Y003970D01*
X012931Y003971D02*
X012931Y003709D01*
X012669Y003709D01*
X012669Y003971D01*
X012931Y003971D01*
X012931Y003796D02*
X012669Y003796D01*
X012669Y003883D02*
X012931Y003883D01*
X012931Y003970D02*
X012669Y003970D01*
X012931Y003371D02*
X012931Y003109D01*
X012669Y003109D01*
X012669Y003371D01*
X012931Y003371D01*
X012931Y003196D02*
X012669Y003196D01*
X012669Y003283D02*
X012931Y003283D01*
X012931Y003370D02*
X012669Y003370D01*
X012169Y003371D02*
X012169Y003109D01*
X012169Y003371D02*
X012431Y003371D01*
X012431Y003109D01*
X012169Y003109D01*
X012169Y003196D02*
X012431Y003196D01*
X012431Y003283D02*
X012169Y003283D01*
X012169Y003370D02*
X012431Y003370D01*
X011969Y002371D02*
X011969Y002109D01*
X011969Y002371D02*
X012231Y002371D01*
X012231Y002109D01*
X011969Y002109D01*
X011969Y002196D02*
X012231Y002196D01*
X012231Y002283D02*
X011969Y002283D01*
X011969Y002370D02*
X012231Y002370D01*
X011731Y002371D02*
X011731Y002109D01*
X011469Y002109D01*
X011469Y002371D01*
X011731Y002371D01*
X011731Y002196D02*
X011469Y002196D01*
X011469Y002283D02*
X011731Y002283D01*
X011731Y002370D02*
X011469Y002370D01*
X011231Y002371D02*
X011231Y002109D01*
X010969Y002109D01*
X010969Y002371D01*
X011231Y002371D01*
X011231Y002196D02*
X010969Y002196D01*
X010969Y002283D02*
X011231Y002283D01*
X011231Y002370D02*
X010969Y002370D01*
X011231Y001771D02*
X011231Y001509D01*
X010969Y001509D01*
X010969Y001771D01*
X011231Y001771D01*
X011231Y001596D02*
X010969Y001596D01*
X010969Y001683D02*
X011231Y001683D01*
X011231Y001770D02*
X010969Y001770D01*
X011731Y001771D02*
X011731Y001509D01*
X011469Y001509D01*
X011469Y001771D01*
X011731Y001771D01*
X011731Y001596D02*
X011469Y001596D01*
X011469Y001683D02*
X011731Y001683D01*
X011731Y001770D02*
X011469Y001770D01*
X011969Y001771D02*
X011969Y001509D01*
X011969Y001771D02*
X012231Y001771D01*
X012231Y001509D01*
X011969Y001509D01*
X011969Y001596D02*
X012231Y001596D01*
X012231Y001683D02*
X011969Y001683D01*
X011969Y001770D02*
X012231Y001770D01*
D11*
X011430Y002840D03*
X011430Y003340D03*
X011430Y003840D03*
X011430Y004340D03*
X009370Y004340D03*
X009370Y003840D03*
X009370Y003340D03*
X009370Y002840D03*
D12*
X010700Y006640D03*
X011700Y006640D03*
X011700Y007640D03*
X010700Y007640D03*
D13*
X009017Y009077D02*
X009019Y009118D01*
X009025Y009159D01*
X009035Y009199D01*
X009048Y009238D01*
X009065Y009275D01*
X009086Y009311D01*
X009110Y009345D01*
X009137Y009376D01*
X009166Y009404D01*
X009199Y009430D01*
X009233Y009452D01*
X009270Y009471D01*
X009308Y009486D01*
X009348Y009498D01*
X009388Y009506D01*
X009429Y009510D01*
X009471Y009510D01*
X009512Y009506D01*
X009552Y009498D01*
X009592Y009486D01*
X009630Y009471D01*
X009666Y009452D01*
X009701Y009430D01*
X009734Y009404D01*
X009763Y009376D01*
X009790Y009345D01*
X009814Y009311D01*
X009835Y009275D01*
X009852Y009238D01*
X009865Y009199D01*
X009875Y009159D01*
X009881Y009118D01*
X009883Y009077D01*
X009881Y009036D01*
X009875Y008995D01*
X009865Y008955D01*
X009852Y008916D01*
X009835Y008879D01*
X009814Y008843D01*
X009790Y008809D01*
X009763Y008778D01*
X009734Y008750D01*
X009701Y008724D01*
X009667Y008702D01*
X009630Y008683D01*
X009592Y008668D01*
X009552Y008656D01*
X009512Y008648D01*
X009471Y008644D01*
X009429Y008644D01*
X009388Y008648D01*
X009348Y008656D01*
X009308Y008668D01*
X009270Y008683D01*
X009234Y008702D01*
X009199Y008724D01*
X009166Y008750D01*
X009137Y008778D01*
X009110Y008809D01*
X009086Y008843D01*
X009065Y008879D01*
X009048Y008916D01*
X009035Y008955D01*
X009025Y008995D01*
X009019Y009036D01*
X009017Y009077D01*
X009017Y001203D02*
X009019Y001244D01*
X009025Y001285D01*
X009035Y001325D01*
X009048Y001364D01*
X009065Y001401D01*
X009086Y001437D01*
X009110Y001471D01*
X009137Y001502D01*
X009166Y001530D01*
X009199Y001556D01*
X009233Y001578D01*
X009270Y001597D01*
X009308Y001612D01*
X009348Y001624D01*
X009388Y001632D01*
X009429Y001636D01*
X009471Y001636D01*
X009512Y001632D01*
X009552Y001624D01*
X009592Y001612D01*
X009630Y001597D01*
X009666Y001578D01*
X009701Y001556D01*
X009734Y001530D01*
X009763Y001502D01*
X009790Y001471D01*
X009814Y001437D01*
X009835Y001401D01*
X009852Y001364D01*
X009865Y001325D01*
X009875Y001285D01*
X009881Y001244D01*
X009883Y001203D01*
X009881Y001162D01*
X009875Y001121D01*
X009865Y001081D01*
X009852Y001042D01*
X009835Y001005D01*
X009814Y000969D01*
X009790Y000935D01*
X009763Y000904D01*
X009734Y000876D01*
X009701Y000850D01*
X009667Y000828D01*
X009630Y000809D01*
X009592Y000794D01*
X009552Y000782D01*
X009512Y000774D01*
X009471Y000770D01*
X009429Y000770D01*
X009388Y000774D01*
X009348Y000782D01*
X009308Y000794D01*
X009270Y000809D01*
X009234Y000828D01*
X009199Y000850D01*
X009166Y000876D01*
X009137Y000904D01*
X009110Y000935D01*
X009086Y000969D01*
X009065Y001005D01*
X009048Y001042D01*
X009035Y001081D01*
X009025Y001121D01*
X009019Y001162D01*
X009017Y001203D01*
D14*
X005513Y001518D02*
X005513Y004077D01*
X005515Y004097D01*
X005520Y004117D01*
X005529Y004136D01*
X005541Y004153D01*
X005555Y004167D01*
X005572Y004179D01*
X005591Y004188D01*
X005611Y004193D01*
X005631Y004195D01*
X005692Y004205D01*
X005751Y004218D01*
X005810Y004235D01*
X005867Y004256D01*
X005923Y004281D01*
X005978Y004309D01*
X006030Y004341D01*
X006080Y004376D01*
X006128Y004414D01*
X006174Y004455D01*
X006216Y004499D01*
X006256Y004545D01*
X006293Y004594D01*
X006326Y004645D01*
X006356Y004699D01*
X006383Y004754D01*
X006406Y004810D01*
X006425Y004868D01*
X006441Y004928D01*
X006453Y004988D01*
X006461Y005048D01*
X006465Y005109D01*
X006465Y005171D01*
X006461Y005232D01*
X006453Y005292D01*
X006441Y005352D01*
X006425Y005412D01*
X006406Y005470D01*
X006383Y005526D01*
X006356Y005581D01*
X006326Y005635D01*
X006293Y005686D01*
X006256Y005735D01*
X006216Y005781D01*
X006174Y005825D01*
X006128Y005866D01*
X006080Y005904D01*
X006030Y005939D01*
X005978Y005971D01*
X005923Y005999D01*
X005867Y006024D01*
X005810Y006045D01*
X005751Y006062D01*
X005692Y006075D01*
X005631Y006085D01*
X005611Y006087D01*
X005591Y006092D01*
X005572Y006101D01*
X005555Y006113D01*
X005541Y006127D01*
X005529Y006144D01*
X005520Y006163D01*
X005515Y006183D01*
X005513Y006203D01*
X005513Y008762D01*
X005515Y008795D01*
X005520Y008827D01*
X005528Y008859D01*
X005540Y008890D01*
X005555Y008920D01*
X005573Y008947D01*
X005594Y008973D01*
X005617Y008996D01*
X005643Y009017D01*
X005671Y009035D01*
X005700Y009050D01*
X005731Y009062D01*
X005763Y009070D01*
X005795Y009075D01*
X005828Y009077D01*
X008584Y009077D01*
X008604Y009079D01*
X008624Y009084D01*
X008643Y009093D01*
X008660Y009105D01*
X008674Y009119D01*
X008686Y009136D01*
X008695Y009155D01*
X008700Y009175D01*
X008702Y009195D01*
X008712Y009248D01*
X008726Y009299D01*
X008744Y009350D01*
X008765Y009399D01*
X008789Y009447D01*
X008817Y009492D01*
X008848Y009536D01*
X008882Y009577D01*
X008919Y009616D01*
X008958Y009653D01*
X009000Y009686D01*
X009044Y009716D01*
X009090Y009743D01*
X009138Y009767D01*
X009188Y009787D01*
X009239Y009804D01*
X009291Y009817D01*
X009343Y009826D01*
X009397Y009832D01*
X009450Y009834D01*
X009503Y009832D01*
X009557Y009826D01*
X009609Y009817D01*
X009661Y009804D01*
X009712Y009787D01*
X009762Y009767D01*
X009810Y009743D01*
X009856Y009716D01*
X009900Y009686D01*
X009942Y009653D01*
X009981Y009616D01*
X010018Y009577D01*
X010052Y009536D01*
X010083Y009492D01*
X010111Y009447D01*
X010135Y009399D01*
X010156Y009350D01*
X010174Y009299D01*
X010188Y009248D01*
X010198Y009195D01*
X010200Y009175D01*
X010205Y009155D01*
X010214Y009136D01*
X010226Y009119D01*
X010240Y009105D01*
X010257Y009093D01*
X010276Y009084D01*
X010296Y009079D01*
X010316Y009077D01*
X010277Y009077D02*
X013072Y009077D01*
X013105Y009075D01*
X013137Y009070D01*
X013169Y009062D01*
X013200Y009050D01*
X013230Y009035D01*
X013257Y009017D01*
X013283Y008996D01*
X013306Y008973D01*
X013327Y008947D01*
X013345Y008920D01*
X013360Y008890D01*
X013372Y008859D01*
X013380Y008827D01*
X013385Y008795D01*
X013387Y008762D01*
X013387Y006203D01*
X013385Y006183D01*
X013380Y006163D01*
X013371Y006144D01*
X013359Y006127D01*
X013345Y006113D01*
X013328Y006101D01*
X013309Y006092D01*
X013289Y006087D01*
X013269Y006085D01*
X013208Y006075D01*
X013149Y006062D01*
X013090Y006045D01*
X013033Y006024D01*
X012977Y005999D01*
X012922Y005971D01*
X012870Y005939D01*
X012820Y005904D01*
X012772Y005866D01*
X012726Y005825D01*
X012684Y005781D01*
X012644Y005735D01*
X012607Y005686D01*
X012574Y005635D01*
X012544Y005581D01*
X012517Y005526D01*
X012494Y005470D01*
X012475Y005412D01*
X012459Y005352D01*
X012447Y005292D01*
X012439Y005232D01*
X012435Y005171D01*
X012435Y005109D01*
X012439Y005048D01*
X012447Y004988D01*
X012459Y004928D01*
X012475Y004868D01*
X012494Y004810D01*
X012517Y004754D01*
X012544Y004699D01*
X012574Y004645D01*
X012607Y004594D01*
X012644Y004545D01*
X012684Y004499D01*
X012726Y004455D01*
X012772Y004414D01*
X012820Y004376D01*
X012870Y004341D01*
X012922Y004309D01*
X012977Y004281D01*
X013033Y004256D01*
X013090Y004235D01*
X013149Y004218D01*
X013208Y004205D01*
X013269Y004195D01*
X013289Y004193D01*
X013309Y004188D01*
X013328Y004179D01*
X013345Y004167D01*
X013359Y004153D01*
X013371Y004136D01*
X013380Y004117D01*
X013385Y004097D01*
X013387Y004077D01*
X013387Y001518D01*
X013385Y001485D01*
X013380Y001453D01*
X013372Y001421D01*
X013360Y001390D01*
X013345Y001360D01*
X013327Y001333D01*
X013306Y001307D01*
X013283Y001284D01*
X013257Y001263D01*
X013230Y001245D01*
X013200Y001230D01*
X013169Y001218D01*
X013137Y001210D01*
X013105Y001205D01*
X013072Y001203D01*
X010277Y001203D01*
X010262Y001201D01*
X010247Y001197D01*
X010233Y001190D01*
X010221Y001180D01*
X010211Y001168D01*
X010204Y001154D01*
X010200Y001139D01*
X010198Y001124D01*
X010190Y001071D01*
X010179Y001018D01*
X010164Y000967D01*
X010145Y000916D01*
X010123Y000868D01*
X010097Y000820D01*
X010068Y000775D01*
X010036Y000732D01*
X010001Y000691D01*
X009963Y000653D01*
X009922Y000618D01*
X009879Y000586D01*
X009834Y000557D01*
X009787Y000531D01*
X009738Y000508D01*
X009688Y000490D01*
X009636Y000474D01*
X009584Y000463D01*
X009531Y000455D01*
X009477Y000451D01*
X009423Y000451D01*
X009369Y000455D01*
X009316Y000463D01*
X009264Y000474D01*
X009212Y000490D01*
X009162Y000508D01*
X009113Y000531D01*
X009066Y000557D01*
X009021Y000586D01*
X008978Y000618D01*
X008937Y000653D01*
X008899Y000691D01*
X008864Y000732D01*
X008832Y000775D01*
X008803Y000820D01*
X008777Y000868D01*
X008755Y000916D01*
X008736Y000967D01*
X008721Y001018D01*
X008710Y001071D01*
X008702Y001124D01*
X008700Y001139D01*
X008696Y001154D01*
X008689Y001168D01*
X008679Y001180D01*
X008667Y001190D01*
X008653Y001197D01*
X008638Y001201D01*
X008623Y001203D01*
X005828Y001203D01*
X005795Y001205D01*
X005763Y001210D01*
X005731Y001218D01*
X005700Y001230D01*
X005671Y001245D01*
X005643Y001263D01*
X005617Y001284D01*
X005594Y001307D01*
X005573Y001333D01*
X005555Y001360D01*
X005540Y001390D01*
X005528Y001421D01*
X005520Y001453D01*
X005515Y001485D01*
X005513Y001518D01*
X005515Y001485D01*
X005520Y001453D01*
X005528Y001421D01*
X005540Y001390D01*
X005555Y001360D01*
X005573Y001333D01*
X005594Y001307D01*
X005617Y001284D01*
X005643Y001263D01*
X005671Y001245D01*
X005700Y001230D01*
X005731Y001218D01*
X005763Y001210D01*
X005795Y001205D01*
X005828Y001203D01*
X013072Y001203D02*
X013105Y001205D01*
X013137Y001210D01*
X013169Y001218D01*
X013200Y001230D01*
X013230Y001245D01*
X013257Y001263D01*
X013283Y001284D01*
X013306Y001307D01*
X013327Y001333D01*
X013345Y001360D01*
X013360Y001390D01*
X013372Y001421D01*
X013380Y001453D01*
X013385Y001485D01*
X013387Y001518D01*
X013385Y001485D01*
X013380Y001453D01*
X013372Y001421D01*
X013360Y001390D01*
X013345Y001360D01*
X013327Y001333D01*
X013306Y001307D01*
X013283Y001284D01*
X013257Y001263D01*
X013230Y001245D01*
X013200Y001230D01*
X013169Y001218D01*
X013137Y001210D01*
X013105Y001205D01*
X013072Y001203D01*
X013387Y008762D02*
X013385Y008795D01*
X013380Y008827D01*
X013372Y008859D01*
X013360Y008890D01*
X013345Y008920D01*
X013327Y008947D01*
X013306Y008973D01*
X013283Y008996D01*
X013257Y009017D01*
X013230Y009035D01*
X013200Y009050D01*
X013169Y009062D01*
X013137Y009070D01*
X013105Y009075D01*
X013072Y009077D01*
X013105Y009075D01*
X013137Y009070D01*
X013169Y009062D01*
X013200Y009050D01*
X013230Y009035D01*
X013257Y009017D01*
X013283Y008996D01*
X013306Y008973D01*
X013327Y008947D01*
X013345Y008920D01*
X013360Y008890D01*
X013372Y008859D01*
X013380Y008827D01*
X013385Y008795D01*
X013387Y008762D01*
X005828Y009077D02*
X005795Y009075D01*
X005763Y009070D01*
X005731Y009062D01*
X005700Y009050D01*
X005671Y009035D01*
X005643Y009017D01*
X005617Y008996D01*
X005594Y008973D01*
X005573Y008947D01*
X005555Y008920D01*
X005540Y008890D01*
X005528Y008859D01*
X005520Y008827D01*
X005515Y008795D01*
X005513Y008762D01*
D15*
X006950Y003890D03*
D16*
X006950Y004890D03*
X006950Y005890D03*
D17*
X006989Y005925D02*
X011480Y005925D01*
X011480Y005847D02*
X007347Y005847D01*
X007347Y005851D02*
X007347Y005851D01*
X007332Y005774D01*
X007302Y005702D01*
X007259Y005637D01*
X007203Y005581D01*
X007138Y005538D01*
X007066Y005508D01*
X006989Y005493D01*
X006989Y005493D01*
X006989Y005851D01*
X006989Y005929D01*
X006911Y005929D01*
X006911Y006287D01*
X006834Y006272D01*
X006762Y006242D01*
X006697Y006199D01*
X006641Y006143D01*
X006598Y006078D01*
X006568Y006006D01*
X006553Y005929D01*
X006553Y005929D01*
X006911Y005929D01*
X006911Y005851D01*
X006553Y005851D01*
X006568Y005774D01*
X006598Y005702D01*
X006641Y005637D01*
X006697Y005581D01*
X006762Y005538D01*
X006834Y005508D01*
X006911Y005493D01*
X006911Y005493D01*
X006911Y005851D01*
X006989Y005851D01*
X007347Y005851D01*
X007347Y005929D02*
X007347Y005929D01*
X007332Y006006D01*
X007302Y006078D01*
X007259Y006143D01*
X007203Y006199D01*
X007138Y006242D01*
X007066Y006272D01*
X006989Y006287D01*
X006989Y006287D01*
X006989Y005929D01*
X007347Y005929D01*
X007333Y006004D02*
X011480Y006004D01*
X011480Y006082D02*
X007300Y006082D01*
X007242Y006161D02*
X011480Y006161D01*
X011480Y006228D02*
X011480Y005292D01*
X011450Y005262D01*
X011357Y005355D01*
X010943Y005355D01*
X010848Y005260D01*
X010802Y005260D01*
X010707Y005355D01*
X010696Y005355D01*
X010520Y005531D01*
X010391Y005660D01*
X007409Y005660D01*
X007034Y005285D01*
X007029Y005287D01*
X006871Y005287D01*
X006725Y005227D01*
X006613Y005115D01*
X006610Y005108D01*
X006610Y005341D01*
X006468Y005716D01*
X006203Y006017D01*
X006203Y006017D01*
X006203Y006017D01*
X005848Y006204D01*
X005698Y006223D01*
X005691Y006230D01*
X005658Y006230D01*
X005658Y008250D01*
X006258Y008250D01*
X006340Y008332D01*
X006340Y008932D01*
X008654Y008932D01*
X008776Y009003D01*
X008847Y009125D01*
X008847Y009180D01*
X008871Y009277D01*
X008977Y009465D01*
X009140Y009605D01*
X009342Y009680D01*
X009558Y009680D01*
X009760Y009605D01*
X009923Y009465D01*
X010029Y009277D01*
X010053Y009180D01*
X010053Y009125D01*
X010124Y009003D01*
X010177Y008972D01*
X010217Y008932D01*
X012560Y008932D01*
X012560Y008332D01*
X012642Y008250D01*
X013242Y008250D01*
X013242Y006230D01*
X013209Y006230D01*
X013202Y006223D01*
X013052Y006204D01*
X013052Y006204D01*
X012697Y006017D01*
X012432Y005716D01*
X012290Y005341D01*
X012290Y004939D01*
X012432Y004564D01*
X012697Y004263D01*
X012903Y004155D01*
X012840Y004155D01*
X012840Y003880D01*
X012760Y003880D01*
X012760Y004155D01*
X012645Y004155D01*
X012598Y004142D01*
X012556Y004118D01*
X012550Y004112D01*
X012507Y004155D01*
X012093Y004155D01*
X011998Y004060D01*
X011963Y004060D01*
X011933Y004090D01*
X012005Y004162D01*
X012005Y004518D01*
X011923Y004600D01*
X011410Y004600D01*
X011410Y004778D01*
X011450Y004818D01*
X011543Y004725D01*
X011957Y004725D01*
X012065Y004833D01*
X012065Y005247D01*
X011957Y005355D01*
X011920Y005355D01*
X011920Y006228D01*
X011963Y006246D01*
X012094Y006377D01*
X012165Y006548D01*
X012165Y006732D01*
X012094Y006903D01*
X011963Y007034D01*
X011920Y007052D01*
X011920Y007228D01*
X011963Y007246D01*
X012094Y007377D01*
X012165Y007548D01*
X012165Y007732D01*
X012094Y007903D01*
X011963Y008034D01*
X011792Y008105D01*
X011608Y008105D01*
X011437Y008034D01*
X011306Y007903D01*
X011235Y007732D01*
X011235Y007548D01*
X011306Y007377D01*
X011437Y007246D01*
X011480Y007228D01*
X011480Y007052D01*
X011437Y007034D01*
X011306Y006903D01*
X011235Y006732D01*
X011235Y006548D01*
X011306Y006377D01*
X011437Y006246D01*
X011480Y006228D01*
X011454Y006239D02*
X010937Y006239D01*
X010944Y006242D02*
X011003Y006285D01*
X011055Y006337D01*
X011098Y006396D01*
X011131Y006462D01*
X011153Y006531D01*
X011164Y006600D01*
X010740Y006600D01*
X010740Y006680D01*
X010660Y006680D01*
X010660Y007104D01*
X010591Y007093D01*
X010522Y007071D01*
X010456Y007038D01*
X010397Y006995D01*
X010345Y006943D01*
X010302Y006884D01*
X010269Y006818D01*
X010247Y006749D01*
X010236Y006680D01*
X010660Y006680D01*
X010660Y006600D01*
X010236Y006600D01*
X010247Y006531D01*
X010269Y006462D01*
X010302Y006396D01*
X010345Y006337D01*
X010397Y006285D01*
X010456Y006242D01*
X010522Y006209D01*
X010591Y006187D01*
X010660Y006176D01*
X010660Y006600D01*
X010740Y006600D01*
X010740Y006176D01*
X010809Y006187D01*
X010878Y006209D01*
X010944Y006242D01*
X011035Y006318D02*
X011365Y006318D01*
X011298Y006396D02*
X011097Y006396D01*
X011135Y006475D02*
X011265Y006475D01*
X011235Y006553D02*
X011157Y006553D01*
X011235Y006632D02*
X010740Y006632D01*
X010740Y006680D02*
X011164Y006680D01*
X011153Y006749D01*
X011131Y006818D01*
X011098Y006884D01*
X011055Y006943D01*
X011003Y006995D01*
X010944Y007038D01*
X010878Y007071D01*
X010809Y007093D01*
X010740Y007104D01*
X010740Y006680D01*
X010740Y006710D02*
X010660Y006710D01*
X010660Y006632D02*
X005658Y006632D01*
X005658Y006710D02*
X010240Y006710D01*
X010260Y006789D02*
X005658Y006789D01*
X005658Y006867D02*
X010294Y006867D01*
X010348Y006946D02*
X005658Y006946D01*
X005658Y007024D02*
X010438Y007024D01*
X010522Y007209D02*
X010591Y007187D01*
X010660Y007176D01*
X010660Y007600D01*
X010236Y007600D01*
X010247Y007531D01*
X010269Y007462D01*
X010302Y007396D01*
X010345Y007337D01*
X010397Y007285D01*
X010456Y007242D01*
X010522Y007209D01*
X010433Y007260D02*
X005658Y007260D01*
X005658Y007338D02*
X010345Y007338D01*
X010292Y007417D02*
X005658Y007417D01*
X005658Y007495D02*
X010258Y007495D01*
X010240Y007574D02*
X005658Y007574D01*
X005658Y007652D02*
X010660Y007652D01*
X010660Y007680D02*
X010660Y007600D01*
X010740Y007600D01*
X010740Y007680D01*
X010660Y007680D01*
X010660Y008104D01*
X010591Y008093D01*
X010522Y008071D01*
X010456Y008038D01*
X010397Y007995D01*
X010345Y007943D01*
X010302Y007884D01*
X010269Y007818D01*
X010247Y007749D01*
X010236Y007680D01*
X010660Y007680D01*
X010660Y007731D02*
X010740Y007731D01*
X010740Y007680D02*
X010740Y008104D01*
X010809Y008093D01*
X010878Y008071D01*
X010944Y008038D01*
X011003Y007995D01*
X011055Y007943D01*
X011098Y007884D01*
X011131Y007818D01*
X011153Y007749D01*
X011164Y007680D01*
X010740Y007680D01*
X010740Y007652D02*
X011235Y007652D01*
X011235Y007574D02*
X011160Y007574D01*
X011164Y007600D02*
X010740Y007600D01*
X010740Y007176D01*
X010809Y007187D01*
X010878Y007209D01*
X010944Y007242D01*
X011003Y007285D01*
X011055Y007337D01*
X011098Y007396D01*
X011131Y007462D01*
X011153Y007531D01*
X011164Y007600D01*
X011142Y007495D02*
X011257Y007495D01*
X011289Y007417D02*
X011108Y007417D01*
X011055Y007338D02*
X011345Y007338D01*
X011423Y007260D02*
X010967Y007260D01*
X010773Y007181D02*
X011480Y007181D01*
X011480Y007103D02*
X010751Y007103D01*
X010740Y007103D02*
X010660Y007103D01*
X010649Y007103D02*
X005658Y007103D01*
X005658Y007181D02*
X010627Y007181D01*
X010660Y007181D02*
X010740Y007181D01*
X010740Y007260D02*
X010660Y007260D01*
X010660Y007338D02*
X010740Y007338D01*
X010740Y007417D02*
X010660Y007417D01*
X010660Y007495D02*
X010740Y007495D01*
X010740Y007574D02*
X010660Y007574D01*
X010660Y007809D02*
X010740Y007809D01*
X010740Y007888D02*
X010660Y007888D01*
X010660Y007966D02*
X010740Y007966D01*
X010740Y008045D02*
X010660Y008045D01*
X010930Y008045D02*
X011462Y008045D01*
X011369Y007966D02*
X011031Y007966D01*
X011095Y007888D02*
X011299Y007888D01*
X011267Y007809D02*
X011134Y007809D01*
X011156Y007731D02*
X011235Y007731D01*
X011938Y008045D02*
X013242Y008045D01*
X013242Y008123D02*
X005658Y008123D01*
X005658Y008045D02*
X010470Y008045D01*
X010369Y007966D02*
X005658Y007966D01*
X005658Y007888D02*
X010305Y007888D01*
X010266Y007809D02*
X005658Y007809D01*
X005658Y007731D02*
X010244Y007731D01*
X010660Y007024D02*
X010740Y007024D01*
X010740Y006946D02*
X010660Y006946D01*
X010660Y006867D02*
X010740Y006867D01*
X010740Y006789D02*
X010660Y006789D01*
X010962Y007024D02*
X011427Y007024D01*
X011348Y006946D02*
X011052Y006946D01*
X011106Y006867D02*
X011291Y006867D01*
X011258Y006789D02*
X011140Y006789D01*
X011160Y006710D02*
X011235Y006710D01*
X010740Y006553D02*
X010660Y006553D01*
X010660Y006475D02*
X010740Y006475D01*
X010740Y006396D02*
X010660Y006396D01*
X010660Y006318D02*
X010740Y006318D01*
X010740Y006239D02*
X010660Y006239D01*
X010463Y006239D02*
X007143Y006239D01*
X006989Y006239D02*
X006911Y006239D01*
X006911Y006287D02*
X006911Y006287D01*
X006757Y006239D02*
X005658Y006239D01*
X005658Y006318D02*
X010365Y006318D01*
X010303Y006396D02*
X005658Y006396D01*
X005658Y006475D02*
X010265Y006475D01*
X010243Y006553D02*
X005658Y006553D01*
X005848Y006204D02*
X005848Y006204D01*
X005930Y006161D02*
X006658Y006161D01*
X006600Y006082D02*
X006079Y006082D01*
X006214Y006004D02*
X006567Y006004D01*
X006553Y005851D02*
X006553Y005851D01*
X006553Y005847D02*
X006353Y005847D01*
X006284Y005925D02*
X006911Y005925D01*
X006911Y005847D02*
X006989Y005847D01*
X006989Y005768D02*
X006911Y005768D01*
X006911Y005690D02*
X006989Y005690D01*
X006989Y005611D02*
X006911Y005611D01*
X006911Y005533D02*
X006989Y005533D01*
X007126Y005533D02*
X007281Y005533D01*
X007233Y005611D02*
X007360Y005611D01*
X007294Y005690D02*
X011480Y005690D01*
X011480Y005768D02*
X007330Y005768D01*
X006989Y006004D02*
X006911Y006004D01*
X006911Y006082D02*
X006989Y006082D01*
X006989Y006161D02*
X006911Y006161D01*
X006570Y005768D02*
X006422Y005768D01*
X006468Y005716D02*
X006468Y005716D01*
X006478Y005690D02*
X006606Y005690D01*
X006667Y005611D02*
X006508Y005611D01*
X006538Y005533D02*
X006774Y005533D01*
X006567Y005454D02*
X007203Y005454D01*
X007124Y005376D02*
X006597Y005376D01*
X006610Y005297D02*
X007046Y005297D01*
X006716Y005219D02*
X006610Y005219D01*
X006610Y005140D02*
X006638Y005140D01*
X006557Y004799D02*
X006613Y004665D01*
X006725Y004553D01*
X006871Y004493D01*
X007029Y004493D01*
X007175Y004553D01*
X007287Y004665D01*
X007347Y004811D01*
X007347Y004969D01*
X007345Y004974D01*
X007591Y005220D01*
X007912Y005220D01*
X006980Y004287D01*
X006635Y004287D01*
X006553Y004205D01*
X006553Y003575D01*
X006635Y003493D01*
X007265Y003493D01*
X007347Y003575D01*
X007347Y003920D01*
X008258Y004830D01*
X008338Y004830D01*
X008393Y004775D01*
X008807Y004775D01*
X008900Y004868D01*
X008993Y004775D01*
X009110Y004775D01*
X009110Y004600D01*
X008877Y004600D01*
X008837Y004560D01*
X008815Y004560D01*
X008815Y004597D01*
X008707Y004705D01*
X008293Y004705D01*
X008185Y004597D01*
X008185Y004183D01*
X008278Y004090D01*
X008185Y003997D01*
X008185Y003583D01*
X008278Y003490D01*
X008185Y003397D01*
X008185Y002983D01*
X008283Y002884D01*
X008256Y002868D01*
X008222Y002834D01*
X008198Y002792D01*
X008185Y002745D01*
X008185Y002630D01*
X008460Y002630D01*
X008460Y002550D01*
X008540Y002550D01*
X008540Y002630D01*
X008815Y002630D01*
X008815Y002648D01*
X008823Y002634D01*
X008849Y002608D01*
X008881Y002590D01*
X008917Y002580D01*
X009350Y002580D01*
X009350Y002820D01*
X008795Y002820D01*
X008795Y002805D01*
X008778Y002834D01*
X008744Y002868D01*
X008717Y002884D01*
X008795Y002963D01*
X008795Y002860D01*
X009350Y002860D01*
X009350Y003080D01*
X009390Y003080D01*
X009390Y002860D01*
X009350Y002860D01*
X009350Y002820D01*
X009390Y002820D01*
X009390Y002860D01*
X009945Y002860D01*
X009945Y002978D01*
X009935Y003014D01*
X009917Y003046D01*
X009891Y003072D01*
X009868Y003085D01*
X009903Y003120D01*
X010291Y003120D01*
X010791Y003620D01*
X010897Y003620D01*
X010927Y003590D01*
X010855Y003518D01*
X010855Y003162D01*
X010927Y003090D01*
X010855Y003018D01*
X010855Y002662D01*
X010880Y002637D01*
X010880Y002542D01*
X010785Y002447D01*
X010785Y002033D01*
X010878Y001940D01*
X010785Y001847D01*
X010785Y001433D01*
X010870Y001348D01*
X010217Y001348D01*
X010217Y001348D01*
X010113Y001288D01*
X010063Y001202D01*
X010060Y001199D01*
X010060Y001196D01*
X010053Y001184D01*
X010053Y001135D01*
X010032Y001030D01*
X009932Y000833D01*
X009932Y000833D01*
X009767Y000685D01*
X009561Y000606D01*
X009339Y000606D01*
X009133Y000685D01*
X008968Y000833D01*
X008868Y001030D01*
X008847Y001135D01*
X008847Y001184D01*
X008840Y001196D01*
X008840Y001199D01*
X008837Y001202D01*
X008787Y001288D01*
X008787Y001288D01*
X008683Y001348D01*
X006340Y001348D01*
X006340Y001948D01*
X006258Y002030D01*
X005658Y002030D01*
X005658Y004050D01*
X005691Y004050D01*
X005698Y004057D01*
X005848Y004076D01*
X005848Y004076D01*
X006203Y004263D01*
X006468Y004564D01*
X006468Y004564D01*
X006557Y004799D01*
X006538Y004747D02*
X006579Y004747D01*
X006611Y004669D02*
X006508Y004669D01*
X006478Y004590D02*
X006687Y004590D01*
X006824Y004512D02*
X006422Y004512D01*
X006353Y004433D02*
X007126Y004433D01*
X007076Y004512D02*
X007204Y004512D01*
X007213Y004590D02*
X007283Y004590D01*
X007289Y004669D02*
X007361Y004669D01*
X007321Y004747D02*
X007440Y004747D01*
X007518Y004826D02*
X007347Y004826D01*
X007347Y004904D02*
X007597Y004904D01*
X007675Y004983D02*
X007354Y004983D01*
X007433Y005061D02*
X007754Y005061D01*
X007832Y005140D02*
X007511Y005140D01*
X007590Y005219D02*
X007911Y005219D01*
X008254Y004826D02*
X008342Y004826D01*
X008257Y004669D02*
X008097Y004669D01*
X008175Y004747D02*
X009110Y004747D01*
X009110Y004669D02*
X008743Y004669D01*
X008815Y004590D02*
X008868Y004590D01*
X008858Y004826D02*
X008942Y004826D01*
X009515Y005143D02*
X009515Y005220D01*
X009592Y005220D01*
X009585Y005195D01*
X009585Y005080D01*
X009860Y005080D01*
X009860Y005000D01*
X009618Y005000D01*
X009590Y005067D01*
X009515Y005143D01*
X009518Y005140D02*
X009585Y005140D01*
X009591Y005219D02*
X009515Y005219D01*
X009593Y005061D02*
X009860Y005061D01*
X009860Y005000D02*
X009940Y005000D01*
X009940Y004725D01*
X010055Y004725D01*
X010102Y004738D01*
X010144Y004762D01*
X010178Y004796D01*
X010194Y004823D01*
X010293Y004725D01*
X010707Y004725D01*
X010802Y004820D01*
X010848Y004820D01*
X010890Y004778D01*
X010890Y004553D01*
X010855Y004518D01*
X010855Y004162D01*
X010927Y004090D01*
X010897Y004060D01*
X010609Y004060D01*
X010480Y003931D01*
X010109Y003560D01*
X009903Y003560D01*
X009873Y003590D01*
X009945Y003662D01*
X009945Y004018D01*
X009873Y004090D01*
X009945Y004162D01*
X009945Y004518D01*
X009863Y004600D01*
X009630Y004600D01*
X009630Y004788D01*
X009656Y004762D01*
X009698Y004738D01*
X009745Y004725D01*
X009860Y004725D01*
X009860Y005000D01*
X009860Y004983D02*
X009940Y004983D01*
X009940Y004904D02*
X009860Y004904D01*
X009860Y004826D02*
X009940Y004826D01*
X009940Y004747D02*
X009860Y004747D01*
X009872Y004590D02*
X010890Y004590D01*
X010890Y004669D02*
X009630Y004669D01*
X009630Y004747D02*
X009681Y004747D01*
X009945Y004512D02*
X010855Y004512D01*
X010855Y004433D02*
X009945Y004433D01*
X009945Y004355D02*
X010855Y004355D01*
X010855Y004276D02*
X009945Y004276D01*
X009945Y004198D02*
X010855Y004198D01*
X010898Y004119D02*
X009902Y004119D01*
X009922Y004041D02*
X010590Y004041D01*
X010511Y003962D02*
X009945Y003962D01*
X009945Y003884D02*
X010433Y003884D01*
X010354Y003805D02*
X009945Y003805D01*
X009945Y003727D02*
X010276Y003727D01*
X010197Y003648D02*
X009931Y003648D01*
X009893Y003570D02*
X010119Y003570D01*
X010506Y003334D02*
X010855Y003334D01*
X010855Y003256D02*
X010427Y003256D01*
X010349Y003177D02*
X010855Y003177D01*
X010918Y003099D02*
X009882Y003099D01*
X009932Y003020D02*
X010858Y003020D01*
X010855Y002942D02*
X009945Y002942D01*
X009945Y002863D02*
X010855Y002863D01*
X010855Y002785D02*
X009945Y002785D01*
X009945Y002820D02*
X009390Y002820D01*
X009390Y002580D01*
X009823Y002580D01*
X009859Y002590D01*
X009891Y002608D01*
X009917Y002634D01*
X009935Y002666D01*
X009945Y002702D01*
X009945Y002820D01*
X009945Y002706D02*
X010855Y002706D01*
X010880Y002628D02*
X009911Y002628D01*
X009390Y002628D02*
X009350Y002628D01*
X009350Y002706D02*
X009390Y002706D01*
X009390Y002785D02*
X009350Y002785D01*
X009350Y002863D02*
X009390Y002863D01*
X009390Y002942D02*
X009350Y002942D01*
X009350Y003020D02*
X009390Y003020D01*
X008795Y002942D02*
X008774Y002942D01*
X008795Y002863D02*
X008749Y002863D01*
X008829Y002628D02*
X008540Y002628D01*
X008540Y002550D02*
X008815Y002550D01*
X008815Y002435D01*
X008802Y002388D01*
X008778Y002346D01*
X008744Y002312D01*
X008702Y002288D01*
X008655Y002275D01*
X008540Y002275D01*
X008540Y002550D01*
X008540Y002549D02*
X008460Y002549D01*
X008460Y002550D02*
X008460Y002275D01*
X008345Y002275D01*
X008298Y002288D01*
X008256Y002312D01*
X008222Y002346D01*
X008198Y002388D01*
X008185Y002435D01*
X008185Y002550D01*
X008460Y002550D01*
X008460Y002628D02*
X005658Y002628D01*
X005658Y002706D02*
X008185Y002706D01*
X008196Y002785D02*
X005658Y002785D01*
X005658Y002863D02*
X008251Y002863D01*
X008226Y002942D02*
X005658Y002942D01*
X005658Y003020D02*
X008185Y003020D01*
X008185Y003099D02*
X005658Y003099D01*
X005658Y003177D02*
X008185Y003177D01*
X008185Y003256D02*
X005658Y003256D01*
X005658Y003334D02*
X008185Y003334D01*
X008201Y003413D02*
X005658Y003413D01*
X005658Y003491D02*
X008276Y003491D01*
X008198Y003570D02*
X007343Y003570D01*
X007347Y003648D02*
X008185Y003648D01*
X008185Y003727D02*
X007347Y003727D01*
X007347Y003805D02*
X008185Y003805D01*
X008185Y003884D02*
X007347Y003884D01*
X007390Y003962D02*
X008185Y003962D01*
X008229Y004041D02*
X007469Y004041D01*
X007547Y004119D02*
X008248Y004119D01*
X008185Y004198D02*
X007626Y004198D01*
X007704Y004276D02*
X008185Y004276D01*
X008185Y004355D02*
X007783Y004355D01*
X007861Y004433D02*
X008185Y004433D01*
X008185Y004512D02*
X007940Y004512D01*
X008018Y004590D02*
X008185Y004590D01*
X007047Y004355D02*
X006284Y004355D01*
X006214Y004276D02*
X006624Y004276D01*
X006553Y004198D02*
X006079Y004198D01*
X006203Y004263D02*
X006203Y004263D01*
X005930Y004119D02*
X006553Y004119D01*
X006553Y004041D02*
X005658Y004041D01*
X005658Y003962D02*
X006553Y003962D01*
X006553Y003884D02*
X005658Y003884D01*
X005658Y003805D02*
X006553Y003805D01*
X006553Y003727D02*
X005658Y003727D01*
X005658Y003648D02*
X006553Y003648D01*
X006557Y003570D02*
X005658Y003570D01*
X005658Y002549D02*
X008185Y002549D01*
X008185Y002471D02*
X005658Y002471D01*
X005658Y002392D02*
X008196Y002392D01*
X008254Y002314D02*
X005658Y002314D01*
X005658Y002235D02*
X010785Y002235D01*
X010785Y002157D02*
X005658Y002157D01*
X005658Y002078D02*
X010785Y002078D01*
X010818Y002000D02*
X006288Y002000D01*
X006340Y001921D02*
X010859Y001921D01*
X010785Y001843D02*
X006340Y001843D01*
X006340Y001764D02*
X009308Y001764D01*
X009336Y001776D02*
X009125Y001689D01*
X008964Y001528D01*
X008877Y001317D01*
X008877Y001089D01*
X008964Y000878D01*
X009125Y000717D01*
X009336Y000630D01*
X009564Y000630D01*
X009775Y000717D01*
X009936Y000878D01*
X010023Y001089D01*
X010023Y001317D01*
X009936Y001528D01*
X009775Y001689D01*
X009564Y001776D01*
X009336Y001776D01*
X009123Y001686D02*
X006340Y001686D01*
X006340Y001607D02*
X009044Y001607D01*
X008966Y001529D02*
X006340Y001529D01*
X006340Y001450D02*
X008932Y001450D01*
X008900Y001372D02*
X006340Y001372D01*
X008460Y002314D02*
X008540Y002314D01*
X008540Y002392D02*
X008460Y002392D01*
X008460Y002471D02*
X008540Y002471D01*
X008746Y002314D02*
X010785Y002314D01*
X010785Y002392D02*
X008804Y002392D01*
X008815Y002471D02*
X010809Y002471D01*
X010880Y002549D02*
X008815Y002549D01*
X009592Y001764D02*
X010785Y001764D01*
X010785Y001686D02*
X009777Y001686D01*
X009856Y001607D02*
X010785Y001607D01*
X010785Y001529D02*
X009934Y001529D01*
X009968Y001450D02*
X010785Y001450D01*
X010846Y001372D02*
X010000Y001372D01*
X010023Y001293D02*
X010122Y001293D01*
X010113Y001288D02*
X010113Y001288D01*
X010113Y001288D01*
X010071Y001215D02*
X010023Y001215D01*
X010023Y001136D02*
X010053Y001136D01*
X010038Y001058D02*
X010010Y001058D01*
X010006Y000979D02*
X009978Y000979D01*
X009966Y000901D02*
X009945Y000901D01*
X009920Y000822D02*
X009880Y000822D01*
X009832Y000744D02*
X009801Y000744D01*
X009716Y000665D02*
X009650Y000665D01*
X009250Y000665D02*
X009184Y000665D01*
X009099Y000744D02*
X009068Y000744D01*
X009020Y000822D02*
X008980Y000822D01*
X008955Y000901D02*
X008934Y000901D01*
X008922Y000979D02*
X008894Y000979D01*
X008890Y001058D02*
X008862Y001058D01*
X008847Y001136D02*
X008877Y001136D01*
X008877Y001215D02*
X008829Y001215D01*
X008787Y001288D02*
X008787Y001288D01*
X008778Y001293D02*
X008877Y001293D01*
X008683Y001348D02*
X008683Y001348D01*
X011320Y002542D02*
X011320Y002580D01*
X011923Y002580D01*
X012005Y002662D01*
X012005Y003013D01*
X012093Y002925D01*
X012507Y002925D01*
X012550Y002968D01*
X012593Y002925D01*
X013007Y002925D01*
X013115Y003033D01*
X013115Y003447D01*
X013017Y003546D01*
X013044Y003562D01*
X013078Y003596D01*
X013102Y003638D01*
X013115Y003685D01*
X013115Y003800D01*
X012840Y003800D01*
X012840Y003880D01*
X013115Y003880D01*
X013115Y003995D01*
X013102Y004042D01*
X013085Y004072D01*
X013202Y004057D01*
X013209Y004050D01*
X013242Y004050D01*
X013242Y002030D01*
X012642Y002030D01*
X012560Y001948D01*
X012560Y001348D01*
X012330Y001348D01*
X012415Y001433D01*
X012415Y001847D01*
X012322Y001940D01*
X012369Y001987D01*
X012397Y001975D01*
X012503Y001975D01*
X012600Y002015D01*
X012675Y002090D01*
X012715Y002187D01*
X012715Y002293D01*
X012675Y002390D01*
X012600Y002465D01*
X012503Y002505D01*
X012397Y002505D01*
X012369Y002493D01*
X012307Y002555D01*
X011893Y002555D01*
X011850Y002512D01*
X011844Y002518D01*
X011802Y002542D01*
X011755Y002555D01*
X011640Y002555D01*
X011640Y002280D01*
X011560Y002280D01*
X011560Y002555D01*
X011445Y002555D01*
X011398Y002542D01*
X011356Y002518D01*
X011350Y002512D01*
X011320Y002542D01*
X011320Y002549D02*
X011424Y002549D01*
X011560Y002549D02*
X011640Y002549D01*
X011640Y002471D02*
X011560Y002471D01*
X011560Y002392D02*
X011640Y002392D01*
X011640Y002314D02*
X011560Y002314D01*
X011776Y002549D02*
X011887Y002549D01*
X011971Y002628D02*
X013242Y002628D01*
X013242Y002706D02*
X012005Y002706D01*
X012005Y002785D02*
X013242Y002785D01*
X013242Y002863D02*
X012005Y002863D01*
X012005Y002942D02*
X012076Y002942D01*
X012524Y002942D02*
X012576Y002942D01*
X013024Y002942D02*
X013242Y002942D01*
X013242Y003020D02*
X013103Y003020D01*
X013115Y003099D02*
X013242Y003099D01*
X013242Y003177D02*
X013115Y003177D01*
X013115Y003256D02*
X013242Y003256D01*
X013242Y003334D02*
X013115Y003334D01*
X013115Y003413D02*
X013242Y003413D01*
X013242Y003491D02*
X013071Y003491D01*
X013052Y003570D02*
X013242Y003570D01*
X013242Y003648D02*
X013105Y003648D01*
X013115Y003727D02*
X013242Y003727D01*
X013242Y003805D02*
X012840Y003805D01*
X012840Y003884D02*
X012760Y003884D01*
X012760Y003962D02*
X012840Y003962D01*
X012840Y004041D02*
X012760Y004041D01*
X012760Y004119D02*
X012840Y004119D01*
X012821Y004198D02*
X012005Y004198D01*
X012005Y004276D02*
X012686Y004276D01*
X012697Y004263D02*
X012697Y004263D01*
X012616Y004355D02*
X012005Y004355D01*
X012005Y004433D02*
X012547Y004433D01*
X012478Y004512D02*
X012005Y004512D01*
X011932Y004590D02*
X012422Y004590D01*
X012432Y004564D02*
X012432Y004564D01*
X012392Y004669D02*
X011410Y004669D01*
X011410Y004747D02*
X011520Y004747D01*
X011980Y004747D02*
X012362Y004747D01*
X012333Y004826D02*
X012058Y004826D01*
X012065Y004904D02*
X012303Y004904D01*
X012290Y004983D02*
X012065Y004983D01*
X012065Y005061D02*
X012290Y005061D01*
X012290Y005140D02*
X012065Y005140D01*
X012065Y005219D02*
X012290Y005219D01*
X012290Y005297D02*
X012015Y005297D01*
X011920Y005376D02*
X012303Y005376D01*
X012333Y005454D02*
X011920Y005454D01*
X011920Y005533D02*
X012362Y005533D01*
X012392Y005611D02*
X011920Y005611D01*
X011920Y005690D02*
X012422Y005690D01*
X012432Y005716D02*
X012432Y005716D01*
X012478Y005768D02*
X011920Y005768D01*
X011920Y005847D02*
X012547Y005847D01*
X012616Y005925D02*
X011920Y005925D01*
X011920Y006004D02*
X012686Y006004D01*
X012697Y006017D02*
X012697Y006017D01*
X012821Y006082D02*
X011920Y006082D01*
X011920Y006161D02*
X012970Y006161D01*
X013242Y006239D02*
X011946Y006239D01*
X012035Y006318D02*
X013242Y006318D01*
X013242Y006396D02*
X012102Y006396D01*
X012135Y006475D02*
X013242Y006475D01*
X013242Y006553D02*
X012165Y006553D01*
X012165Y006632D02*
X013242Y006632D01*
X013242Y006710D02*
X012165Y006710D01*
X012142Y006789D02*
X013242Y006789D01*
X013242Y006867D02*
X012109Y006867D01*
X012052Y006946D02*
X013242Y006946D01*
X013242Y007024D02*
X011973Y007024D01*
X011920Y007103D02*
X013242Y007103D01*
X013242Y007181D02*
X011920Y007181D01*
X011977Y007260D02*
X013242Y007260D01*
X013242Y007338D02*
X012055Y007338D01*
X012111Y007417D02*
X013242Y007417D01*
X013242Y007495D02*
X012143Y007495D01*
X012165Y007574D02*
X013242Y007574D01*
X013242Y007652D02*
X012165Y007652D01*
X012165Y007731D02*
X013242Y007731D01*
X013242Y007809D02*
X012133Y007809D01*
X012101Y007888D02*
X013242Y007888D01*
X013242Y007966D02*
X012031Y007966D01*
X012560Y008359D02*
X006340Y008359D01*
X006340Y008437D02*
X012560Y008437D01*
X012560Y008516D02*
X009592Y008516D01*
X009564Y008504D02*
X009775Y008591D01*
X009936Y008752D01*
X010023Y008963D01*
X010023Y009191D01*
X009936Y009402D01*
X009775Y009563D01*
X009564Y009650D01*
X009336Y009650D01*
X009125Y009563D01*
X008964Y009402D01*
X008877Y009191D01*
X008877Y008963D01*
X008964Y008752D01*
X009125Y008591D01*
X009336Y008504D01*
X009564Y008504D01*
X009777Y008594D02*
X012560Y008594D01*
X012560Y008673D02*
X009856Y008673D01*
X009934Y008751D02*
X012560Y008751D01*
X012560Y008830D02*
X009968Y008830D01*
X010000Y008908D02*
X012560Y008908D01*
X012612Y008280D02*
X006288Y008280D01*
X006340Y008516D02*
X009308Y008516D01*
X009123Y008594D02*
X006340Y008594D01*
X006340Y008673D02*
X009044Y008673D01*
X008966Y008751D02*
X006340Y008751D01*
X006340Y008830D02*
X008932Y008830D01*
X008900Y008908D02*
X006340Y008908D01*
X005658Y008202D02*
X013242Y008202D01*
X010151Y008987D02*
X010023Y008987D01*
X010023Y009065D02*
X010087Y009065D01*
X010124Y009003D02*
X010124Y009003D01*
X010124Y009003D01*
X010053Y009144D02*
X010023Y009144D01*
X010010Y009222D02*
X010042Y009222D01*
X010016Y009301D02*
X009978Y009301D01*
X009972Y009379D02*
X009945Y009379D01*
X009928Y009458D02*
X009880Y009458D01*
X009841Y009536D02*
X009801Y009536D01*
X009734Y009615D02*
X009650Y009615D01*
X009250Y009615D02*
X009166Y009615D01*
X009099Y009536D02*
X009059Y009536D01*
X009020Y009458D02*
X008972Y009458D01*
X008955Y009379D02*
X008928Y009379D01*
X008922Y009301D02*
X008884Y009301D01*
X008890Y009222D02*
X008858Y009222D01*
X008847Y009144D02*
X008877Y009144D01*
X008877Y009065D02*
X008813Y009065D01*
X008776Y009003D02*
X008776Y009003D01*
X008776Y009003D01*
X008749Y008987D02*
X008877Y008987D01*
X010440Y005611D02*
X011480Y005611D01*
X011480Y005533D02*
X010519Y005533D01*
X010597Y005454D02*
X011480Y005454D01*
X011480Y005376D02*
X010676Y005376D01*
X010765Y005297D02*
X010885Y005297D01*
X011415Y005297D02*
X011480Y005297D01*
X010890Y004747D02*
X010730Y004747D01*
X010270Y004747D02*
X010119Y004747D01*
X010741Y003570D02*
X010907Y003570D01*
X010855Y003491D02*
X010663Y003491D01*
X010584Y003413D02*
X010855Y003413D01*
X011962Y004119D02*
X012057Y004119D01*
X012543Y004119D02*
X012558Y004119D01*
X013103Y004041D02*
X013242Y004041D01*
X013242Y003962D02*
X013115Y003962D01*
X013115Y003884D02*
X013242Y003884D01*
X013242Y002549D02*
X012313Y002549D01*
X012585Y002471D02*
X013242Y002471D01*
X013242Y002392D02*
X012672Y002392D01*
X012706Y002314D02*
X013242Y002314D01*
X013242Y002235D02*
X012715Y002235D01*
X012702Y002157D02*
X013242Y002157D01*
X013242Y002078D02*
X012663Y002078D01*
X012612Y002000D02*
X012563Y002000D01*
X012560Y001921D02*
X012341Y001921D01*
X012415Y001843D02*
X012560Y001843D01*
X012560Y001764D02*
X012415Y001764D01*
X012415Y001686D02*
X012560Y001686D01*
X012560Y001607D02*
X012415Y001607D01*
X012415Y001529D02*
X012560Y001529D01*
X012560Y001450D02*
X012415Y001450D01*
X012354Y001372D02*
X012560Y001372D01*
D18*
X012450Y002240D03*
X012950Y002390D03*
X011600Y002490D03*
X010200Y002390D03*
X010200Y002890D03*
X008950Y002390D03*
X007950Y002390D03*
X007950Y003640D03*
X007950Y004390D03*
X009200Y005890D03*
X009960Y007080D03*
X009950Y007890D03*
X008950Y007890D03*
X007950Y007890D03*
X010200Y004640D03*
X012800Y004090D03*
D19*
X011430Y004340D02*
X011250Y004340D01*
X011150Y004440D01*
X011150Y005040D01*
X009370Y004920D02*
X009370Y004340D01*
X009370Y004920D02*
X009200Y005090D01*
X008600Y005090D02*
X008150Y005090D01*
X007019Y003959D01*
D20*
X006950Y003890D01*
X006950Y004890D02*
X007500Y005440D01*
X010300Y005440D01*
X010500Y005240D01*
X010500Y005040D01*
X011150Y005040D01*
X011700Y005090D02*
X011750Y005040D01*
X011700Y005090D02*
X011700Y006640D01*
X011700Y007640D01*
X009370Y004340D02*
X008550Y004340D01*
X008500Y004390D01*
X008500Y004290D01*
X008550Y003840D02*
X008500Y003790D01*
X008500Y003190D01*
X008550Y003840D02*
X009370Y003840D01*
X009370Y003340D02*
X010200Y003340D01*
X010700Y003840D01*
X011430Y003840D01*
X012300Y003840D01*
X012200Y003340D02*
X012300Y003240D01*
X012800Y003240D01*
X012200Y003340D02*
X011430Y003340D01*
X011430Y002840D02*
X011200Y002840D01*
X011100Y002740D01*
X011100Y002240D01*
X011100Y001640D02*
X011600Y001640D01*
X012100Y001640D01*
X012100Y002240D02*
X012450Y002240D01*
M02*
