G75*
%MOIN*%
%OFA0B0*%
%FSLAX24Y24*%
%IPPOS*%
%LPD*%
%AMOC8*
5,1,8,0,0,1.08239X$1,22.5*
%
%ADD10C,0.0490*%
%ADD11C,0.0690*%
%ADD12C,0.0000*%
%ADD13C,0.0906*%
%ADD14C,0.0010*%
%ADD15R,0.0555X0.0555*%
%ADD16C,0.0555*%
D10*
X006200Y002640D03*
X006200Y006640D03*
X006200Y007640D03*
D11*
X010700Y007640D03*
X011700Y007640D03*
X011700Y006640D03*
X010700Y006640D03*
D12*
X009017Y009077D02*
X009019Y009118D01*
X009025Y009159D01*
X009035Y009199D01*
X009048Y009238D01*
X009065Y009275D01*
X009086Y009311D01*
X009110Y009345D01*
X009137Y009376D01*
X009166Y009404D01*
X009199Y009430D01*
X009233Y009452D01*
X009270Y009471D01*
X009308Y009486D01*
X009348Y009498D01*
X009388Y009506D01*
X009429Y009510D01*
X009471Y009510D01*
X009512Y009506D01*
X009552Y009498D01*
X009592Y009486D01*
X009630Y009471D01*
X009666Y009452D01*
X009701Y009430D01*
X009734Y009404D01*
X009763Y009376D01*
X009790Y009345D01*
X009814Y009311D01*
X009835Y009275D01*
X009852Y009238D01*
X009865Y009199D01*
X009875Y009159D01*
X009881Y009118D01*
X009883Y009077D01*
X009881Y009036D01*
X009875Y008995D01*
X009865Y008955D01*
X009852Y008916D01*
X009835Y008879D01*
X009814Y008843D01*
X009790Y008809D01*
X009763Y008778D01*
X009734Y008750D01*
X009701Y008724D01*
X009667Y008702D01*
X009630Y008683D01*
X009592Y008668D01*
X009552Y008656D01*
X009512Y008648D01*
X009471Y008644D01*
X009429Y008644D01*
X009388Y008648D01*
X009348Y008656D01*
X009308Y008668D01*
X009270Y008683D01*
X009234Y008702D01*
X009199Y008724D01*
X009166Y008750D01*
X009137Y008778D01*
X009110Y008809D01*
X009086Y008843D01*
X009065Y008879D01*
X009048Y008916D01*
X009035Y008955D01*
X009025Y008995D01*
X009019Y009036D01*
X009017Y009077D01*
X009017Y001203D02*
X009019Y001244D01*
X009025Y001285D01*
X009035Y001325D01*
X009048Y001364D01*
X009065Y001401D01*
X009086Y001437D01*
X009110Y001471D01*
X009137Y001502D01*
X009166Y001530D01*
X009199Y001556D01*
X009233Y001578D01*
X009270Y001597D01*
X009308Y001612D01*
X009348Y001624D01*
X009388Y001632D01*
X009429Y001636D01*
X009471Y001636D01*
X009512Y001632D01*
X009552Y001624D01*
X009592Y001612D01*
X009630Y001597D01*
X009666Y001578D01*
X009701Y001556D01*
X009734Y001530D01*
X009763Y001502D01*
X009790Y001471D01*
X009814Y001437D01*
X009835Y001401D01*
X009852Y001364D01*
X009865Y001325D01*
X009875Y001285D01*
X009881Y001244D01*
X009883Y001203D01*
X009881Y001162D01*
X009875Y001121D01*
X009865Y001081D01*
X009852Y001042D01*
X009835Y001005D01*
X009814Y000969D01*
X009790Y000935D01*
X009763Y000904D01*
X009734Y000876D01*
X009701Y000850D01*
X009667Y000828D01*
X009630Y000809D01*
X009592Y000794D01*
X009552Y000782D01*
X009512Y000774D01*
X009471Y000770D01*
X009429Y000770D01*
X009388Y000774D01*
X009348Y000782D01*
X009308Y000794D01*
X009270Y000809D01*
X009234Y000828D01*
X009199Y000850D01*
X009166Y000876D01*
X009137Y000904D01*
X009110Y000935D01*
X009086Y000969D01*
X009065Y001005D01*
X009048Y001042D01*
X009035Y001081D01*
X009025Y001121D01*
X009019Y001162D01*
X009017Y001203D01*
D13*
X009450Y001203D03*
X009450Y009077D03*
D14*
X005513Y004077D02*
X005513Y001518D01*
X005515Y001485D01*
X005520Y001453D01*
X005528Y001421D01*
X005540Y001390D01*
X005555Y001360D01*
X005573Y001333D01*
X005594Y001307D01*
X005617Y001284D01*
X005643Y001263D01*
X005671Y001245D01*
X005700Y001230D01*
X005731Y001218D01*
X005763Y001210D01*
X005795Y001205D01*
X005828Y001203D01*
X008623Y001203D01*
X008638Y001201D01*
X008653Y001197D01*
X008667Y001190D01*
X008679Y001180D01*
X008689Y001168D01*
X008696Y001154D01*
X008700Y001139D01*
X008702Y001124D01*
X008710Y001071D01*
X008721Y001018D01*
X008736Y000967D01*
X008755Y000916D01*
X008777Y000868D01*
X008803Y000820D01*
X008832Y000775D01*
X008864Y000732D01*
X008899Y000691D01*
X008937Y000653D01*
X008978Y000618D01*
X009021Y000586D01*
X009066Y000557D01*
X009113Y000531D01*
X009162Y000508D01*
X009212Y000490D01*
X009264Y000474D01*
X009316Y000463D01*
X009369Y000455D01*
X009423Y000451D01*
X009477Y000451D01*
X009531Y000455D01*
X009584Y000463D01*
X009636Y000474D01*
X009688Y000490D01*
X009738Y000508D01*
X009787Y000531D01*
X009834Y000557D01*
X009879Y000586D01*
X009922Y000618D01*
X009963Y000653D01*
X010001Y000691D01*
X010036Y000732D01*
X010068Y000775D01*
X010097Y000820D01*
X010123Y000868D01*
X010145Y000916D01*
X010164Y000967D01*
X010179Y001018D01*
X010190Y001071D01*
X010198Y001124D01*
X010200Y001139D01*
X010204Y001154D01*
X010211Y001168D01*
X010221Y001180D01*
X010233Y001190D01*
X010247Y001197D01*
X010262Y001201D01*
X010277Y001203D01*
X013072Y001203D01*
X013105Y001205D01*
X013137Y001210D01*
X013169Y001218D01*
X013200Y001230D01*
X013230Y001245D01*
X013257Y001263D01*
X013283Y001284D01*
X013306Y001307D01*
X013327Y001333D01*
X013345Y001360D01*
X013360Y001390D01*
X013372Y001421D01*
X013380Y001453D01*
X013385Y001485D01*
X013387Y001518D01*
X013387Y004077D01*
X013385Y004097D01*
X013380Y004117D01*
X013371Y004136D01*
X013359Y004153D01*
X013345Y004167D01*
X013328Y004179D01*
X013309Y004188D01*
X013289Y004193D01*
X013269Y004195D01*
X013208Y004205D01*
X013149Y004218D01*
X013090Y004235D01*
X013033Y004256D01*
X012977Y004281D01*
X012922Y004309D01*
X012870Y004341D01*
X012820Y004376D01*
X012772Y004414D01*
X012726Y004455D01*
X012684Y004499D01*
X012644Y004545D01*
X012607Y004594D01*
X012574Y004645D01*
X012544Y004699D01*
X012517Y004754D01*
X012494Y004810D01*
X012475Y004868D01*
X012459Y004928D01*
X012447Y004988D01*
X012439Y005048D01*
X012435Y005109D01*
X012435Y005171D01*
X012439Y005232D01*
X012447Y005292D01*
X012459Y005352D01*
X012475Y005412D01*
X012494Y005470D01*
X012517Y005526D01*
X012544Y005581D01*
X012574Y005635D01*
X012607Y005686D01*
X012644Y005735D01*
X012684Y005781D01*
X012726Y005825D01*
X012772Y005866D01*
X012820Y005904D01*
X012870Y005939D01*
X012922Y005971D01*
X012977Y005999D01*
X013033Y006024D01*
X013090Y006045D01*
X013149Y006062D01*
X013208Y006075D01*
X013269Y006085D01*
X013289Y006087D01*
X013309Y006092D01*
X013328Y006101D01*
X013345Y006113D01*
X013359Y006127D01*
X013371Y006144D01*
X013380Y006163D01*
X013385Y006183D01*
X013387Y006203D01*
X013387Y008762D01*
X013385Y008795D01*
X013380Y008827D01*
X013372Y008859D01*
X013360Y008890D01*
X013345Y008920D01*
X013327Y008947D01*
X013306Y008973D01*
X013283Y008996D01*
X013257Y009017D01*
X013230Y009035D01*
X013200Y009050D01*
X013169Y009062D01*
X013137Y009070D01*
X013105Y009075D01*
X013072Y009077D01*
X010277Y009077D01*
X010316Y009077D02*
X010296Y009079D01*
X010276Y009084D01*
X010257Y009093D01*
X010240Y009105D01*
X010226Y009119D01*
X010214Y009136D01*
X010205Y009155D01*
X010200Y009175D01*
X010198Y009195D01*
X010188Y009248D01*
X010174Y009299D01*
X010156Y009350D01*
X010135Y009399D01*
X010111Y009447D01*
X010083Y009492D01*
X010052Y009536D01*
X010018Y009577D01*
X009981Y009616D01*
X009942Y009653D01*
X009900Y009686D01*
X009856Y009716D01*
X009810Y009743D01*
X009762Y009767D01*
X009712Y009787D01*
X009661Y009804D01*
X009609Y009817D01*
X009557Y009826D01*
X009503Y009832D01*
X009450Y009834D01*
X009397Y009832D01*
X009343Y009826D01*
X009291Y009817D01*
X009239Y009804D01*
X009188Y009787D01*
X009138Y009767D01*
X009090Y009743D01*
X009044Y009716D01*
X009000Y009686D01*
X008958Y009653D01*
X008919Y009616D01*
X008882Y009577D01*
X008848Y009536D01*
X008817Y009492D01*
X008789Y009447D01*
X008765Y009399D01*
X008744Y009350D01*
X008726Y009299D01*
X008712Y009248D01*
X008702Y009195D01*
X008700Y009175D01*
X008695Y009155D01*
X008686Y009136D01*
X008674Y009119D01*
X008660Y009105D01*
X008643Y009093D01*
X008624Y009084D01*
X008604Y009079D01*
X008584Y009077D01*
X005828Y009077D01*
X005795Y009075D01*
X005763Y009070D01*
X005731Y009062D01*
X005700Y009050D01*
X005671Y009035D01*
X005643Y009017D01*
X005617Y008996D01*
X005594Y008973D01*
X005573Y008947D01*
X005555Y008920D01*
X005540Y008890D01*
X005528Y008859D01*
X005520Y008827D01*
X005515Y008795D01*
X005513Y008762D01*
X005513Y006203D01*
X005515Y006183D01*
X005520Y006163D01*
X005529Y006144D01*
X005541Y006127D01*
X005555Y006113D01*
X005572Y006101D01*
X005591Y006092D01*
X005611Y006087D01*
X005631Y006085D01*
X005692Y006075D01*
X005751Y006062D01*
X005810Y006045D01*
X005867Y006024D01*
X005923Y005999D01*
X005978Y005971D01*
X006030Y005939D01*
X006080Y005904D01*
X006128Y005866D01*
X006174Y005825D01*
X006216Y005781D01*
X006256Y005735D01*
X006293Y005686D01*
X006326Y005635D01*
X006356Y005581D01*
X006383Y005526D01*
X006406Y005470D01*
X006425Y005412D01*
X006441Y005352D01*
X006453Y005292D01*
X006461Y005232D01*
X006465Y005171D01*
X006465Y005109D01*
X006461Y005048D01*
X006453Y004988D01*
X006441Y004928D01*
X006425Y004868D01*
X006406Y004810D01*
X006383Y004754D01*
X006356Y004699D01*
X006326Y004645D01*
X006293Y004594D01*
X006256Y004545D01*
X006216Y004499D01*
X006174Y004455D01*
X006128Y004414D01*
X006080Y004376D01*
X006030Y004341D01*
X005978Y004309D01*
X005923Y004281D01*
X005867Y004256D01*
X005810Y004235D01*
X005751Y004218D01*
X005692Y004205D01*
X005631Y004195D01*
X005611Y004193D01*
X005591Y004188D01*
X005572Y004179D01*
X005555Y004167D01*
X005541Y004153D01*
X005529Y004136D01*
X005520Y004117D01*
X005515Y004097D01*
X005513Y004077D01*
X005513Y001518D02*
X005515Y001485D01*
X005520Y001453D01*
X005528Y001421D01*
X005540Y001390D01*
X005555Y001360D01*
X005573Y001333D01*
X005594Y001307D01*
X005617Y001284D01*
X005643Y001263D01*
X005671Y001245D01*
X005700Y001230D01*
X005731Y001218D01*
X005763Y001210D01*
X005795Y001205D01*
X005828Y001203D01*
X013072Y001203D02*
X013105Y001205D01*
X013137Y001210D01*
X013169Y001218D01*
X013200Y001230D01*
X013230Y001245D01*
X013257Y001263D01*
X013283Y001284D01*
X013306Y001307D01*
X013327Y001333D01*
X013345Y001360D01*
X013360Y001390D01*
X013372Y001421D01*
X013380Y001453D01*
X013385Y001485D01*
X013387Y001518D01*
X013385Y001485D01*
X013380Y001453D01*
X013372Y001421D01*
X013360Y001390D01*
X013345Y001360D01*
X013327Y001333D01*
X013306Y001307D01*
X013283Y001284D01*
X013257Y001263D01*
X013230Y001245D01*
X013200Y001230D01*
X013169Y001218D01*
X013137Y001210D01*
X013105Y001205D01*
X013072Y001203D01*
X013387Y008762D02*
X013385Y008795D01*
X013380Y008827D01*
X013372Y008859D01*
X013360Y008890D01*
X013345Y008920D01*
X013327Y008947D01*
X013306Y008973D01*
X013283Y008996D01*
X013257Y009017D01*
X013230Y009035D01*
X013200Y009050D01*
X013169Y009062D01*
X013137Y009070D01*
X013105Y009075D01*
X013072Y009077D01*
X013105Y009075D01*
X013137Y009070D01*
X013169Y009062D01*
X013200Y009050D01*
X013230Y009035D01*
X013257Y009017D01*
X013283Y008996D01*
X013306Y008973D01*
X013327Y008947D01*
X013345Y008920D01*
X013360Y008890D01*
X013372Y008859D01*
X013380Y008827D01*
X013385Y008795D01*
X013387Y008762D01*
X005828Y009077D02*
X005795Y009075D01*
X005763Y009070D01*
X005731Y009062D01*
X005700Y009050D01*
X005671Y009035D01*
X005643Y009017D01*
X005617Y008996D01*
X005594Y008973D01*
X005573Y008947D01*
X005555Y008920D01*
X005540Y008890D01*
X005528Y008859D01*
X005520Y008827D01*
X005515Y008795D01*
X005513Y008762D01*
D15*
X006950Y003890D03*
D16*
X006950Y004890D03*
X006950Y005890D03*
M02*
