%
M48
M72
T01C0.01200
T02C0.03150
T03C0.04331
T04C0.08661
%
T01
X79500Y78900
X89500Y78900
X99500Y78900
X99600Y70800
X92000Y58900
X102000Y46400
X79500Y43900
X79500Y36400
X79500Y23900
X89500Y23900
X102000Y23900
X102000Y28900
X116000Y24900
X124500Y22400
X129500Y23900
X128000Y40900
T02
X69500Y58900
X69500Y48900
X69500Y38900
T03
X107000Y66400
X117000Y66400
X117000Y76400
X107000Y76400
T04
X94500Y12030
X94500Y90770
M30
