G75*
%MOIN*%
%OFA0B0*%
%FSLAX25Y25*%
%IPPOS*%
%LPD*%
%AMOC8*
5,1,8,0,0,1.08239X$1,22.5*
%
%ADD10C,0.00975*%
%ADD11R,0.09100X0.02800*%
%ADD12C,0.06896*%
%ADD13C,0.00000*%
%ADD14C,0.09061*%
%ADD15C,0.00100*%
%ADD16R,0.05550X0.05550*%
%ADD17C,0.05550*%
D10*
X0083537Y0024437D02*
X0083537Y0027363D01*
X0086463Y0027363D01*
X0086463Y0024437D01*
X0083537Y0024437D01*
X0083537Y0025411D02*
X0086463Y0025411D01*
X0086463Y0026385D02*
X0083537Y0026385D01*
X0083537Y0027359D02*
X0086463Y0027359D01*
X0083537Y0030437D02*
X0083537Y0033363D01*
X0086463Y0033363D01*
X0086463Y0030437D01*
X0083537Y0030437D01*
X0083537Y0031411D02*
X0086463Y0031411D01*
X0086463Y0032385D02*
X0083537Y0032385D01*
X0083537Y0033359D02*
X0086463Y0033359D01*
X0083537Y0036437D02*
X0083537Y0039363D01*
X0086463Y0039363D01*
X0086463Y0036437D01*
X0083537Y0036437D01*
X0083537Y0037411D02*
X0086463Y0037411D01*
X0086463Y0038385D02*
X0083537Y0038385D01*
X0083537Y0039359D02*
X0086463Y0039359D01*
X0083537Y0042437D02*
X0083537Y0045363D01*
X0086463Y0045363D01*
X0086463Y0042437D01*
X0083537Y0042437D01*
X0083537Y0043411D02*
X0086463Y0043411D01*
X0086463Y0044385D02*
X0083537Y0044385D01*
X0083537Y0045359D02*
X0086463Y0045359D01*
X0087463Y0052363D02*
X0084537Y0052363D01*
X0087463Y0052363D02*
X0087463Y0049437D01*
X0084537Y0049437D01*
X0084537Y0052363D01*
X0084537Y0050411D02*
X0087463Y0050411D01*
X0087463Y0051385D02*
X0084537Y0051385D01*
X0084537Y0052359D02*
X0087463Y0052359D01*
X0090537Y0052363D02*
X0093463Y0052363D01*
X0093463Y0049437D01*
X0090537Y0049437D01*
X0090537Y0052363D01*
X0090537Y0050411D02*
X0093463Y0050411D01*
X0093463Y0051385D02*
X0090537Y0051385D01*
X0090537Y0052359D02*
X0093463Y0052359D01*
X0097537Y0051863D02*
X0100463Y0051863D01*
X0100463Y0048937D01*
X0097537Y0048937D01*
X0097537Y0051863D01*
X0097537Y0049911D02*
X0100463Y0049911D01*
X0100463Y0050885D02*
X0097537Y0050885D01*
X0097537Y0051859D02*
X0100463Y0051859D01*
X0103537Y0051863D02*
X0106463Y0051863D01*
X0106463Y0048937D01*
X0103537Y0048937D01*
X0103537Y0051863D01*
X0103537Y0049911D02*
X0106463Y0049911D01*
X0106463Y0050885D02*
X0103537Y0050885D01*
X0103537Y0051859D02*
X0106463Y0051859D01*
X0110037Y0051863D02*
X0112963Y0051863D01*
X0112963Y0048937D01*
X0110037Y0048937D01*
X0110037Y0051863D01*
X0110037Y0049911D02*
X0112963Y0049911D01*
X0112963Y0050885D02*
X0110037Y0050885D01*
X0110037Y0051859D02*
X0112963Y0051859D01*
X0116037Y0051863D02*
X0118963Y0051863D01*
X0118963Y0048937D01*
X0116037Y0048937D01*
X0116037Y0051863D01*
X0116037Y0049911D02*
X0118963Y0049911D01*
X0118963Y0050885D02*
X0116037Y0050885D01*
X0116037Y0051859D02*
X0118963Y0051859D01*
X0121537Y0039863D02*
X0121537Y0036937D01*
X0121537Y0039863D02*
X0124463Y0039863D01*
X0124463Y0036937D01*
X0121537Y0036937D01*
X0121537Y0037911D02*
X0124463Y0037911D01*
X0124463Y0038885D02*
X0121537Y0038885D01*
X0121537Y0039859D02*
X0124463Y0039859D01*
X0129463Y0039863D02*
X0129463Y0036937D01*
X0126537Y0036937D01*
X0126537Y0039863D01*
X0129463Y0039863D01*
X0129463Y0037911D02*
X0126537Y0037911D01*
X0126537Y0038885D02*
X0129463Y0038885D01*
X0129463Y0039859D02*
X0126537Y0039859D01*
X0129463Y0033863D02*
X0129463Y0030937D01*
X0126537Y0030937D01*
X0126537Y0033863D01*
X0129463Y0033863D01*
X0129463Y0031911D02*
X0126537Y0031911D01*
X0126537Y0032885D02*
X0129463Y0032885D01*
X0129463Y0033859D02*
X0126537Y0033859D01*
X0121537Y0033863D02*
X0121537Y0030937D01*
X0121537Y0033863D02*
X0124463Y0033863D01*
X0124463Y0030937D01*
X0121537Y0030937D01*
X0121537Y0031911D02*
X0124463Y0031911D01*
X0124463Y0032885D02*
X0121537Y0032885D01*
X0121537Y0033859D02*
X0124463Y0033859D01*
X0119537Y0023863D02*
X0119537Y0020937D01*
X0119537Y0023863D02*
X0122463Y0023863D01*
X0122463Y0020937D01*
X0119537Y0020937D01*
X0119537Y0021911D02*
X0122463Y0021911D01*
X0122463Y0022885D02*
X0119537Y0022885D01*
X0119537Y0023859D02*
X0122463Y0023859D01*
X0117463Y0023863D02*
X0117463Y0020937D01*
X0114537Y0020937D01*
X0114537Y0023863D01*
X0117463Y0023863D01*
X0117463Y0021911D02*
X0114537Y0021911D01*
X0114537Y0022885D02*
X0117463Y0022885D01*
X0117463Y0023859D02*
X0114537Y0023859D01*
X0112463Y0023863D02*
X0112463Y0020937D01*
X0109537Y0020937D01*
X0109537Y0023863D01*
X0112463Y0023863D01*
X0112463Y0021911D02*
X0109537Y0021911D01*
X0109537Y0022885D02*
X0112463Y0022885D01*
X0112463Y0023859D02*
X0109537Y0023859D01*
X0112463Y0017863D02*
X0112463Y0014937D01*
X0109537Y0014937D01*
X0109537Y0017863D01*
X0112463Y0017863D01*
X0112463Y0015911D02*
X0109537Y0015911D01*
X0109537Y0016885D02*
X0112463Y0016885D01*
X0112463Y0017859D02*
X0109537Y0017859D01*
X0117463Y0017863D02*
X0117463Y0014937D01*
X0114537Y0014937D01*
X0114537Y0017863D01*
X0117463Y0017863D01*
X0117463Y0015911D02*
X0114537Y0015911D01*
X0114537Y0016885D02*
X0117463Y0016885D01*
X0117463Y0017859D02*
X0114537Y0017859D01*
X0119537Y0017863D02*
X0119537Y0014937D01*
X0119537Y0017863D02*
X0122463Y0017863D01*
X0122463Y0014937D01*
X0119537Y0014937D01*
X0119537Y0015911D02*
X0122463Y0015911D01*
X0122463Y0016885D02*
X0119537Y0016885D01*
X0119537Y0017859D02*
X0122463Y0017859D01*
D11*
X0114300Y0028400D03*
X0114300Y0033400D03*
X0114300Y0038400D03*
X0114300Y0043400D03*
X0093700Y0043400D03*
X0093700Y0038400D03*
X0093700Y0033400D03*
X0093700Y0028400D03*
D12*
X0107000Y0066400D03*
X0117000Y0066400D03*
X0117000Y0076400D03*
X0107000Y0076400D03*
D13*
X0090169Y0090770D02*
X0090171Y0090901D01*
X0090177Y0091033D01*
X0090187Y0091164D01*
X0090201Y0091295D01*
X0090219Y0091425D01*
X0090241Y0091554D01*
X0090266Y0091683D01*
X0090296Y0091811D01*
X0090330Y0091938D01*
X0090367Y0092065D01*
X0090408Y0092189D01*
X0090453Y0092313D01*
X0090502Y0092435D01*
X0090554Y0092556D01*
X0090610Y0092674D01*
X0090670Y0092792D01*
X0090733Y0092907D01*
X0090800Y0093020D01*
X0090870Y0093132D01*
X0090943Y0093241D01*
X0091019Y0093347D01*
X0091099Y0093452D01*
X0091182Y0093554D01*
X0091268Y0093653D01*
X0091357Y0093750D01*
X0091449Y0093844D01*
X0091544Y0093935D01*
X0091641Y0094024D01*
X0091741Y0094109D01*
X0091844Y0094191D01*
X0091949Y0094270D01*
X0092056Y0094346D01*
X0092166Y0094418D01*
X0092278Y0094487D01*
X0092392Y0094553D01*
X0092507Y0094615D01*
X0092625Y0094674D01*
X0092744Y0094729D01*
X0092865Y0094781D01*
X0092988Y0094828D01*
X0093112Y0094872D01*
X0093237Y0094913D01*
X0093363Y0094949D01*
X0093491Y0094982D01*
X0093619Y0095010D01*
X0093748Y0095035D01*
X0093878Y0095056D01*
X0094008Y0095073D01*
X0094139Y0095086D01*
X0094270Y0095095D01*
X0094401Y0095100D01*
X0094533Y0095101D01*
X0094664Y0095098D01*
X0094796Y0095091D01*
X0094927Y0095080D01*
X0095057Y0095065D01*
X0095187Y0095046D01*
X0095317Y0095023D01*
X0095445Y0094997D01*
X0095573Y0094966D01*
X0095700Y0094931D01*
X0095826Y0094893D01*
X0095950Y0094851D01*
X0096074Y0094805D01*
X0096195Y0094755D01*
X0096315Y0094702D01*
X0096434Y0094645D01*
X0096551Y0094585D01*
X0096665Y0094521D01*
X0096778Y0094453D01*
X0096889Y0094382D01*
X0096998Y0094308D01*
X0097104Y0094231D01*
X0097208Y0094150D01*
X0097309Y0094067D01*
X0097408Y0093980D01*
X0097504Y0093890D01*
X0097597Y0093797D01*
X0097688Y0093702D01*
X0097775Y0093604D01*
X0097860Y0093503D01*
X0097941Y0093400D01*
X0098019Y0093294D01*
X0098094Y0093186D01*
X0098166Y0093076D01*
X0098234Y0092964D01*
X0098299Y0092850D01*
X0098360Y0092733D01*
X0098418Y0092615D01*
X0098472Y0092495D01*
X0098523Y0092374D01*
X0098570Y0092251D01*
X0098613Y0092127D01*
X0098652Y0092002D01*
X0098688Y0091875D01*
X0098719Y0091747D01*
X0098747Y0091619D01*
X0098771Y0091490D01*
X0098791Y0091360D01*
X0098807Y0091229D01*
X0098819Y0091098D01*
X0098827Y0090967D01*
X0098831Y0090836D01*
X0098831Y0090704D01*
X0098827Y0090573D01*
X0098819Y0090442D01*
X0098807Y0090311D01*
X0098791Y0090180D01*
X0098771Y0090050D01*
X0098747Y0089921D01*
X0098719Y0089793D01*
X0098688Y0089665D01*
X0098652Y0089538D01*
X0098613Y0089413D01*
X0098570Y0089289D01*
X0098523Y0089166D01*
X0098472Y0089045D01*
X0098418Y0088925D01*
X0098360Y0088807D01*
X0098299Y0088690D01*
X0098234Y0088576D01*
X0098166Y0088464D01*
X0098094Y0088354D01*
X0098019Y0088246D01*
X0097941Y0088140D01*
X0097860Y0088037D01*
X0097775Y0087936D01*
X0097688Y0087838D01*
X0097597Y0087743D01*
X0097504Y0087650D01*
X0097408Y0087560D01*
X0097309Y0087473D01*
X0097208Y0087390D01*
X0097104Y0087309D01*
X0096998Y0087232D01*
X0096889Y0087158D01*
X0096778Y0087087D01*
X0096666Y0087019D01*
X0096551Y0086955D01*
X0096434Y0086895D01*
X0096315Y0086838D01*
X0096195Y0086785D01*
X0096074Y0086735D01*
X0095950Y0086689D01*
X0095826Y0086647D01*
X0095700Y0086609D01*
X0095573Y0086574D01*
X0095445Y0086543D01*
X0095317Y0086517D01*
X0095187Y0086494D01*
X0095057Y0086475D01*
X0094927Y0086460D01*
X0094796Y0086449D01*
X0094664Y0086442D01*
X0094533Y0086439D01*
X0094401Y0086440D01*
X0094270Y0086445D01*
X0094139Y0086454D01*
X0094008Y0086467D01*
X0093878Y0086484D01*
X0093748Y0086505D01*
X0093619Y0086530D01*
X0093491Y0086558D01*
X0093363Y0086591D01*
X0093237Y0086627D01*
X0093112Y0086668D01*
X0092988Y0086712D01*
X0092865Y0086759D01*
X0092744Y0086811D01*
X0092625Y0086866D01*
X0092507Y0086925D01*
X0092392Y0086987D01*
X0092278Y0087053D01*
X0092166Y0087122D01*
X0092056Y0087194D01*
X0091949Y0087270D01*
X0091844Y0087349D01*
X0091741Y0087431D01*
X0091641Y0087516D01*
X0091544Y0087605D01*
X0091449Y0087696D01*
X0091357Y0087790D01*
X0091268Y0087887D01*
X0091182Y0087986D01*
X0091099Y0088088D01*
X0091019Y0088193D01*
X0090943Y0088299D01*
X0090870Y0088408D01*
X0090800Y0088520D01*
X0090733Y0088633D01*
X0090670Y0088748D01*
X0090610Y0088866D01*
X0090554Y0088984D01*
X0090502Y0089105D01*
X0090453Y0089227D01*
X0090408Y0089351D01*
X0090367Y0089475D01*
X0090330Y0089602D01*
X0090296Y0089729D01*
X0090266Y0089857D01*
X0090241Y0089986D01*
X0090219Y0090115D01*
X0090201Y0090245D01*
X0090187Y0090376D01*
X0090177Y0090507D01*
X0090171Y0090639D01*
X0090169Y0090770D01*
X0090169Y0012030D02*
X0090171Y0012161D01*
X0090177Y0012293D01*
X0090187Y0012424D01*
X0090201Y0012555D01*
X0090219Y0012685D01*
X0090241Y0012814D01*
X0090266Y0012943D01*
X0090296Y0013071D01*
X0090330Y0013198D01*
X0090367Y0013325D01*
X0090408Y0013449D01*
X0090453Y0013573D01*
X0090502Y0013695D01*
X0090554Y0013816D01*
X0090610Y0013934D01*
X0090670Y0014052D01*
X0090733Y0014167D01*
X0090800Y0014280D01*
X0090870Y0014392D01*
X0090943Y0014501D01*
X0091019Y0014607D01*
X0091099Y0014712D01*
X0091182Y0014814D01*
X0091268Y0014913D01*
X0091357Y0015010D01*
X0091449Y0015104D01*
X0091544Y0015195D01*
X0091641Y0015284D01*
X0091741Y0015369D01*
X0091844Y0015451D01*
X0091949Y0015530D01*
X0092056Y0015606D01*
X0092166Y0015678D01*
X0092278Y0015747D01*
X0092392Y0015813D01*
X0092507Y0015875D01*
X0092625Y0015934D01*
X0092744Y0015989D01*
X0092865Y0016041D01*
X0092988Y0016088D01*
X0093112Y0016132D01*
X0093237Y0016173D01*
X0093363Y0016209D01*
X0093491Y0016242D01*
X0093619Y0016270D01*
X0093748Y0016295D01*
X0093878Y0016316D01*
X0094008Y0016333D01*
X0094139Y0016346D01*
X0094270Y0016355D01*
X0094401Y0016360D01*
X0094533Y0016361D01*
X0094664Y0016358D01*
X0094796Y0016351D01*
X0094927Y0016340D01*
X0095057Y0016325D01*
X0095187Y0016306D01*
X0095317Y0016283D01*
X0095445Y0016257D01*
X0095573Y0016226D01*
X0095700Y0016191D01*
X0095826Y0016153D01*
X0095950Y0016111D01*
X0096074Y0016065D01*
X0096195Y0016015D01*
X0096315Y0015962D01*
X0096434Y0015905D01*
X0096551Y0015845D01*
X0096665Y0015781D01*
X0096778Y0015713D01*
X0096889Y0015642D01*
X0096998Y0015568D01*
X0097104Y0015491D01*
X0097208Y0015410D01*
X0097309Y0015327D01*
X0097408Y0015240D01*
X0097504Y0015150D01*
X0097597Y0015057D01*
X0097688Y0014962D01*
X0097775Y0014864D01*
X0097860Y0014763D01*
X0097941Y0014660D01*
X0098019Y0014554D01*
X0098094Y0014446D01*
X0098166Y0014336D01*
X0098234Y0014224D01*
X0098299Y0014110D01*
X0098360Y0013993D01*
X0098418Y0013875D01*
X0098472Y0013755D01*
X0098523Y0013634D01*
X0098570Y0013511D01*
X0098613Y0013387D01*
X0098652Y0013262D01*
X0098688Y0013135D01*
X0098719Y0013007D01*
X0098747Y0012879D01*
X0098771Y0012750D01*
X0098791Y0012620D01*
X0098807Y0012489D01*
X0098819Y0012358D01*
X0098827Y0012227D01*
X0098831Y0012096D01*
X0098831Y0011964D01*
X0098827Y0011833D01*
X0098819Y0011702D01*
X0098807Y0011571D01*
X0098791Y0011440D01*
X0098771Y0011310D01*
X0098747Y0011181D01*
X0098719Y0011053D01*
X0098688Y0010925D01*
X0098652Y0010798D01*
X0098613Y0010673D01*
X0098570Y0010549D01*
X0098523Y0010426D01*
X0098472Y0010305D01*
X0098418Y0010185D01*
X0098360Y0010067D01*
X0098299Y0009950D01*
X0098234Y0009836D01*
X0098166Y0009724D01*
X0098094Y0009614D01*
X0098019Y0009506D01*
X0097941Y0009400D01*
X0097860Y0009297D01*
X0097775Y0009196D01*
X0097688Y0009098D01*
X0097597Y0009003D01*
X0097504Y0008910D01*
X0097408Y0008820D01*
X0097309Y0008733D01*
X0097208Y0008650D01*
X0097104Y0008569D01*
X0096998Y0008492D01*
X0096889Y0008418D01*
X0096778Y0008347D01*
X0096666Y0008279D01*
X0096551Y0008215D01*
X0096434Y0008155D01*
X0096315Y0008098D01*
X0096195Y0008045D01*
X0096074Y0007995D01*
X0095950Y0007949D01*
X0095826Y0007907D01*
X0095700Y0007869D01*
X0095573Y0007834D01*
X0095445Y0007803D01*
X0095317Y0007777D01*
X0095187Y0007754D01*
X0095057Y0007735D01*
X0094927Y0007720D01*
X0094796Y0007709D01*
X0094664Y0007702D01*
X0094533Y0007699D01*
X0094401Y0007700D01*
X0094270Y0007705D01*
X0094139Y0007714D01*
X0094008Y0007727D01*
X0093878Y0007744D01*
X0093748Y0007765D01*
X0093619Y0007790D01*
X0093491Y0007818D01*
X0093363Y0007851D01*
X0093237Y0007887D01*
X0093112Y0007928D01*
X0092988Y0007972D01*
X0092865Y0008019D01*
X0092744Y0008071D01*
X0092625Y0008126D01*
X0092507Y0008185D01*
X0092392Y0008247D01*
X0092278Y0008313D01*
X0092166Y0008382D01*
X0092056Y0008454D01*
X0091949Y0008530D01*
X0091844Y0008609D01*
X0091741Y0008691D01*
X0091641Y0008776D01*
X0091544Y0008865D01*
X0091449Y0008956D01*
X0091357Y0009050D01*
X0091268Y0009147D01*
X0091182Y0009246D01*
X0091099Y0009348D01*
X0091019Y0009453D01*
X0090943Y0009559D01*
X0090870Y0009668D01*
X0090800Y0009780D01*
X0090733Y0009893D01*
X0090670Y0010008D01*
X0090610Y0010126D01*
X0090554Y0010244D01*
X0090502Y0010365D01*
X0090453Y0010487D01*
X0090408Y0010611D01*
X0090367Y0010735D01*
X0090330Y0010862D01*
X0090296Y0010989D01*
X0090266Y0011117D01*
X0090241Y0011246D01*
X0090219Y0011375D01*
X0090201Y0011505D01*
X0090187Y0011636D01*
X0090177Y0011767D01*
X0090171Y0011899D01*
X0090169Y0012030D01*
D14*
X0094500Y0012030D03*
X0094500Y0090770D03*
D15*
X0055130Y0040770D02*
X0055130Y0015180D01*
X0055132Y0015070D01*
X0055138Y0014960D01*
X0055147Y0014851D01*
X0055161Y0014742D01*
X0055178Y0014633D01*
X0055199Y0014525D01*
X0055224Y0014418D01*
X0055252Y0014312D01*
X0055284Y0014207D01*
X0055320Y0014103D01*
X0055359Y0014000D01*
X0055402Y0013899D01*
X0055449Y0013799D01*
X0055499Y0013701D01*
X0055552Y0013605D01*
X0055609Y0013511D01*
X0055669Y0013419D01*
X0055732Y0013328D01*
X0055798Y0013241D01*
X0055867Y0013155D01*
X0055939Y0013072D01*
X0056014Y0012992D01*
X0056092Y0012914D01*
X0056172Y0012839D01*
X0056255Y0012767D01*
X0056341Y0012698D01*
X0056428Y0012632D01*
X0056519Y0012569D01*
X0056611Y0012509D01*
X0056705Y0012452D01*
X0056801Y0012399D01*
X0056899Y0012349D01*
X0056999Y0012302D01*
X0057100Y0012259D01*
X0057203Y0012220D01*
X0057307Y0012184D01*
X0057412Y0012152D01*
X0057518Y0012124D01*
X0057625Y0012099D01*
X0057733Y0012078D01*
X0057842Y0012061D01*
X0057951Y0012047D01*
X0058060Y0012038D01*
X0058170Y0012032D01*
X0058280Y0012030D01*
X0086232Y0012030D01*
X0086286Y0012028D01*
X0086339Y0012023D01*
X0086392Y0012014D01*
X0086444Y0012001D01*
X0086496Y0011985D01*
X0086546Y0011965D01*
X0086594Y0011942D01*
X0086641Y0011915D01*
X0086686Y0011886D01*
X0086729Y0011853D01*
X0086769Y0011818D01*
X0086807Y0011780D01*
X0086842Y0011740D01*
X0086875Y0011697D01*
X0086904Y0011652D01*
X0086931Y0011605D01*
X0086954Y0011557D01*
X0086974Y0011507D01*
X0086990Y0011455D01*
X0087003Y0011403D01*
X0087012Y0011350D01*
X0087017Y0011297D01*
X0087019Y0011243D01*
X0087041Y0011060D01*
X0087067Y0010878D01*
X0087097Y0010697D01*
X0087132Y0010516D01*
X0087171Y0010337D01*
X0087215Y0010158D01*
X0087262Y0009981D01*
X0087315Y0009805D01*
X0087371Y0009630D01*
X0087432Y0009456D01*
X0087497Y0009284D01*
X0087566Y0009114D01*
X0087639Y0008946D01*
X0087717Y0008779D01*
X0087798Y0008614D01*
X0087884Y0008452D01*
X0087973Y0008291D01*
X0088066Y0008133D01*
X0088164Y0007977D01*
X0088264Y0007823D01*
X0088369Y0007672D01*
X0088477Y0007524D01*
X0088589Y0007378D01*
X0088705Y0007235D01*
X0088824Y0007095D01*
X0088946Y0006957D01*
X0089071Y0006823D01*
X0089200Y0006692D01*
X0089332Y0006564D01*
X0089467Y0006440D01*
X0089605Y0006318D01*
X0089746Y0006201D01*
X0089890Y0006086D01*
X0090037Y0005975D01*
X0090186Y0005868D01*
X0090338Y0005765D01*
X0090492Y0005665D01*
X0090649Y0005569D01*
X0090808Y0005477D01*
X0090969Y0005388D01*
X0091132Y0005304D01*
X0091298Y0005224D01*
X0091465Y0005148D01*
X0091634Y0005075D01*
X0091805Y0005008D01*
X0091977Y0004944D01*
X0092151Y0004884D01*
X0092326Y0004829D01*
X0092503Y0004778D01*
X0092680Y0004731D01*
X0092859Y0004689D01*
X0093039Y0004651D01*
X0093220Y0004618D01*
X0093401Y0004589D01*
X0093583Y0004564D01*
X0093766Y0004544D01*
X0093949Y0004528D01*
X0094133Y0004517D01*
X0094316Y0004510D01*
X0094500Y0004508D01*
X0094684Y0004510D01*
X0094867Y0004517D01*
X0095051Y0004528D01*
X0095234Y0004544D01*
X0095417Y0004564D01*
X0095599Y0004589D01*
X0095780Y0004618D01*
X0095961Y0004651D01*
X0096141Y0004689D01*
X0096320Y0004731D01*
X0096497Y0004778D01*
X0096674Y0004829D01*
X0096849Y0004884D01*
X0097023Y0004944D01*
X0097195Y0005008D01*
X0097366Y0005075D01*
X0097535Y0005148D01*
X0097702Y0005224D01*
X0097868Y0005304D01*
X0098031Y0005388D01*
X0098192Y0005477D01*
X0098351Y0005569D01*
X0098508Y0005665D01*
X0098662Y0005765D01*
X0098814Y0005868D01*
X0098963Y0005975D01*
X0099110Y0006086D01*
X0099254Y0006201D01*
X0099395Y0006318D01*
X0099533Y0006440D01*
X0099668Y0006564D01*
X0099800Y0006692D01*
X0099929Y0006823D01*
X0100054Y0006957D01*
X0100176Y0007095D01*
X0100295Y0007235D01*
X0100411Y0007378D01*
X0100523Y0007524D01*
X0100631Y0007672D01*
X0100736Y0007823D01*
X0100836Y0007977D01*
X0100934Y0008133D01*
X0101027Y0008291D01*
X0101116Y0008452D01*
X0101202Y0008614D01*
X0101283Y0008779D01*
X0101361Y0008946D01*
X0101434Y0009114D01*
X0101503Y0009284D01*
X0101568Y0009456D01*
X0101629Y0009630D01*
X0101685Y0009805D01*
X0101738Y0009981D01*
X0101785Y0010158D01*
X0101829Y0010337D01*
X0101868Y0010516D01*
X0101903Y0010697D01*
X0101933Y0010878D01*
X0101959Y0011060D01*
X0101981Y0011243D01*
X0101983Y0011297D01*
X0101988Y0011350D01*
X0101997Y0011403D01*
X0102010Y0011455D01*
X0102026Y0011507D01*
X0102046Y0011557D01*
X0102069Y0011605D01*
X0102096Y0011652D01*
X0102125Y0011697D01*
X0102158Y0011740D01*
X0102193Y0011780D01*
X0102231Y0011818D01*
X0102271Y0011853D01*
X0102314Y0011886D01*
X0102359Y0011915D01*
X0102406Y0011942D01*
X0102454Y0011965D01*
X0102504Y0011985D01*
X0102556Y0012001D01*
X0102608Y0012014D01*
X0102661Y0012023D01*
X0102714Y0012028D01*
X0102768Y0012030D01*
X0130720Y0012030D01*
X0130830Y0012032D01*
X0130940Y0012038D01*
X0131049Y0012047D01*
X0131158Y0012061D01*
X0131267Y0012078D01*
X0131375Y0012099D01*
X0131482Y0012124D01*
X0131588Y0012152D01*
X0131693Y0012184D01*
X0131797Y0012220D01*
X0131900Y0012259D01*
X0132001Y0012302D01*
X0132101Y0012349D01*
X0132199Y0012399D01*
X0132295Y0012452D01*
X0132389Y0012509D01*
X0132481Y0012569D01*
X0132572Y0012632D01*
X0132659Y0012698D01*
X0132745Y0012767D01*
X0132828Y0012839D01*
X0132908Y0012914D01*
X0132986Y0012992D01*
X0133061Y0013072D01*
X0133133Y0013155D01*
X0133202Y0013241D01*
X0133268Y0013328D01*
X0133331Y0013419D01*
X0133391Y0013511D01*
X0133448Y0013605D01*
X0133501Y0013701D01*
X0133551Y0013799D01*
X0133598Y0013899D01*
X0133641Y0014000D01*
X0133680Y0014103D01*
X0133716Y0014207D01*
X0133748Y0014312D01*
X0133776Y0014418D01*
X0133801Y0014525D01*
X0133822Y0014633D01*
X0133839Y0014742D01*
X0133853Y0014851D01*
X0133862Y0014960D01*
X0133868Y0015070D01*
X0133870Y0015180D01*
X0133870Y0040770D01*
X0133868Y0040836D01*
X0133863Y0040902D01*
X0133853Y0040968D01*
X0133840Y0041033D01*
X0133824Y0041097D01*
X0133804Y0041160D01*
X0133780Y0041222D01*
X0133753Y0041282D01*
X0133723Y0041341D01*
X0133689Y0041398D01*
X0133652Y0041453D01*
X0133612Y0041506D01*
X0133570Y0041557D01*
X0133524Y0041605D01*
X0133476Y0041651D01*
X0133425Y0041693D01*
X0133372Y0041733D01*
X0133317Y0041770D01*
X0133260Y0041804D01*
X0133201Y0041834D01*
X0133141Y0041861D01*
X0133079Y0041885D01*
X0133016Y0041905D01*
X0132952Y0041921D01*
X0132887Y0041934D01*
X0132821Y0041944D01*
X0132755Y0041949D01*
X0132689Y0041951D01*
X0132689Y0041952D02*
X0132458Y0041983D01*
X0132227Y0042021D01*
X0131998Y0042064D01*
X0131770Y0042113D01*
X0131543Y0042167D01*
X0131317Y0042227D01*
X0131093Y0042292D01*
X0130870Y0042363D01*
X0130650Y0042439D01*
X0130431Y0042521D01*
X0130214Y0042608D01*
X0130000Y0042700D01*
X0129788Y0042797D01*
X0129578Y0042900D01*
X0129371Y0043008D01*
X0129167Y0043121D01*
X0128965Y0043238D01*
X0128767Y0043361D01*
X0128571Y0043489D01*
X0128379Y0043621D01*
X0128190Y0043758D01*
X0128004Y0043899D01*
X0127822Y0044045D01*
X0127643Y0044196D01*
X0127469Y0044351D01*
X0127298Y0044510D01*
X0127131Y0044673D01*
X0126968Y0044840D01*
X0126809Y0045011D01*
X0126655Y0045186D01*
X0126505Y0045365D01*
X0126359Y0045547D01*
X0126218Y0045733D01*
X0126081Y0045923D01*
X0125949Y0046115D01*
X0125822Y0046311D01*
X0125700Y0046510D01*
X0125582Y0046711D01*
X0125470Y0046916D01*
X0125362Y0047123D01*
X0125260Y0047333D01*
X0125163Y0047545D01*
X0125071Y0047760D01*
X0124985Y0047977D01*
X0124903Y0048196D01*
X0124828Y0048416D01*
X0124757Y0048639D01*
X0124692Y0048863D01*
X0124633Y0049089D01*
X0124579Y0049316D01*
X0124531Y0049544D01*
X0124488Y0049774D01*
X0124451Y0050004D01*
X0124419Y0050236D01*
X0124394Y0050468D01*
X0124374Y0050700D01*
X0124359Y0050933D01*
X0124351Y0051167D01*
X0124348Y0051400D01*
X0124351Y0051633D01*
X0124359Y0051867D01*
X0124374Y0052100D01*
X0124394Y0052332D01*
X0124419Y0052564D01*
X0124451Y0052796D01*
X0124488Y0053026D01*
X0124531Y0053256D01*
X0124579Y0053484D01*
X0124633Y0053711D01*
X0124692Y0053937D01*
X0124757Y0054161D01*
X0124828Y0054384D01*
X0124903Y0054604D01*
X0124985Y0054823D01*
X0125071Y0055040D01*
X0125163Y0055255D01*
X0125260Y0055467D01*
X0125362Y0055677D01*
X0125470Y0055884D01*
X0125582Y0056089D01*
X0125700Y0056290D01*
X0125822Y0056489D01*
X0125949Y0056685D01*
X0126081Y0056877D01*
X0126218Y0057067D01*
X0126359Y0057253D01*
X0126505Y0057435D01*
X0126655Y0057614D01*
X0126809Y0057789D01*
X0126968Y0057960D01*
X0127131Y0058127D01*
X0127298Y0058290D01*
X0127469Y0058449D01*
X0127643Y0058604D01*
X0127822Y0058755D01*
X0128004Y0058901D01*
X0128190Y0059042D01*
X0128379Y0059179D01*
X0128571Y0059311D01*
X0128767Y0059439D01*
X0128965Y0059562D01*
X0129167Y0059679D01*
X0129371Y0059792D01*
X0129578Y0059900D01*
X0129788Y0060003D01*
X0130000Y0060100D01*
X0130214Y0060192D01*
X0130431Y0060279D01*
X0130650Y0060361D01*
X0130870Y0060437D01*
X0131093Y0060508D01*
X0131317Y0060573D01*
X0131543Y0060633D01*
X0131770Y0060687D01*
X0131998Y0060736D01*
X0132227Y0060779D01*
X0132458Y0060817D01*
X0132689Y0060848D01*
X0132689Y0060849D02*
X0132755Y0060851D01*
X0132821Y0060856D01*
X0132887Y0060866D01*
X0132952Y0060879D01*
X0133016Y0060895D01*
X0133079Y0060915D01*
X0133141Y0060939D01*
X0133201Y0060966D01*
X0133260Y0060996D01*
X0133317Y0061030D01*
X0133372Y0061067D01*
X0133425Y0061107D01*
X0133476Y0061149D01*
X0133524Y0061195D01*
X0133570Y0061243D01*
X0133612Y0061294D01*
X0133652Y0061347D01*
X0133689Y0061402D01*
X0133723Y0061459D01*
X0133753Y0061518D01*
X0133780Y0061578D01*
X0133804Y0061640D01*
X0133824Y0061703D01*
X0133840Y0061767D01*
X0133853Y0061832D01*
X0133863Y0061898D01*
X0133868Y0061964D01*
X0133870Y0062030D01*
X0133870Y0087620D01*
X0133868Y0087730D01*
X0133862Y0087840D01*
X0133853Y0087949D01*
X0133839Y0088058D01*
X0133822Y0088167D01*
X0133801Y0088275D01*
X0133776Y0088382D01*
X0133748Y0088488D01*
X0133716Y0088593D01*
X0133680Y0088697D01*
X0133641Y0088800D01*
X0133598Y0088901D01*
X0133551Y0089001D01*
X0133501Y0089099D01*
X0133448Y0089195D01*
X0133391Y0089289D01*
X0133331Y0089381D01*
X0133268Y0089472D01*
X0133202Y0089559D01*
X0133133Y0089645D01*
X0133061Y0089728D01*
X0132986Y0089808D01*
X0132908Y0089886D01*
X0132828Y0089961D01*
X0132745Y0090033D01*
X0132659Y0090102D01*
X0132572Y0090168D01*
X0132481Y0090231D01*
X0132389Y0090291D01*
X0132295Y0090348D01*
X0132199Y0090401D01*
X0132101Y0090451D01*
X0132001Y0090498D01*
X0131900Y0090541D01*
X0131797Y0090580D01*
X0131693Y0090616D01*
X0131588Y0090648D01*
X0131482Y0090676D01*
X0131375Y0090701D01*
X0131267Y0090722D01*
X0131158Y0090739D01*
X0131049Y0090753D01*
X0130940Y0090762D01*
X0130830Y0090768D01*
X0130720Y0090770D01*
X0102768Y0090770D01*
X0103161Y0090770D02*
X0103095Y0090772D01*
X0103029Y0090777D01*
X0102963Y0090787D01*
X0102898Y0090800D01*
X0102834Y0090816D01*
X0102771Y0090836D01*
X0102709Y0090860D01*
X0102649Y0090887D01*
X0102590Y0090917D01*
X0102533Y0090951D01*
X0102478Y0090988D01*
X0102425Y0091028D01*
X0102374Y0091070D01*
X0102326Y0091116D01*
X0102280Y0091164D01*
X0102238Y0091215D01*
X0102198Y0091268D01*
X0102161Y0091323D01*
X0102127Y0091380D01*
X0102097Y0091439D01*
X0102070Y0091499D01*
X0102046Y0091561D01*
X0102026Y0091624D01*
X0102010Y0091688D01*
X0101997Y0091753D01*
X0101987Y0091819D01*
X0101982Y0091885D01*
X0101980Y0091951D01*
X0101949Y0092133D01*
X0101914Y0092314D01*
X0101874Y0092495D01*
X0101830Y0092674D01*
X0101781Y0092852D01*
X0101728Y0093029D01*
X0101671Y0093204D01*
X0101610Y0093379D01*
X0101544Y0093551D01*
X0101474Y0093722D01*
X0101400Y0093891D01*
X0101322Y0094058D01*
X0101240Y0094224D01*
X0101153Y0094387D01*
X0101063Y0094548D01*
X0100969Y0094707D01*
X0100871Y0094864D01*
X0100769Y0095018D01*
X0100664Y0095169D01*
X0100555Y0095318D01*
X0100442Y0095465D01*
X0100326Y0095608D01*
X0100206Y0095749D01*
X0100083Y0095886D01*
X0099957Y0096021D01*
X0099827Y0096152D01*
X0099694Y0096281D01*
X0099559Y0096406D01*
X0099420Y0096527D01*
X0099278Y0096646D01*
X0099133Y0096760D01*
X0098986Y0096872D01*
X0098836Y0096979D01*
X0098683Y0097083D01*
X0098528Y0097183D01*
X0098370Y0097279D01*
X0098210Y0097372D01*
X0098048Y0097460D01*
X0097884Y0097545D01*
X0097718Y0097625D01*
X0097550Y0097702D01*
X0097380Y0097774D01*
X0097208Y0097842D01*
X0097035Y0097906D01*
X0096860Y0097966D01*
X0096684Y0098021D01*
X0096507Y0098072D01*
X0096328Y0098119D01*
X0096149Y0098161D01*
X0095968Y0098199D01*
X0095786Y0098233D01*
X0095604Y0098262D01*
X0095421Y0098287D01*
X0095237Y0098307D01*
X0095053Y0098323D01*
X0094869Y0098334D01*
X0094685Y0098341D01*
X0094500Y0098343D01*
X0094315Y0098341D01*
X0094131Y0098334D01*
X0093947Y0098323D01*
X0093763Y0098307D01*
X0093579Y0098287D01*
X0093396Y0098262D01*
X0093214Y0098233D01*
X0093032Y0098199D01*
X0092851Y0098161D01*
X0092672Y0098119D01*
X0092493Y0098072D01*
X0092316Y0098021D01*
X0092140Y0097966D01*
X0091965Y0097906D01*
X0091792Y0097842D01*
X0091620Y0097774D01*
X0091450Y0097702D01*
X0091282Y0097625D01*
X0091116Y0097545D01*
X0090952Y0097460D01*
X0090790Y0097372D01*
X0090630Y0097279D01*
X0090472Y0097183D01*
X0090317Y0097083D01*
X0090164Y0096979D01*
X0090014Y0096872D01*
X0089867Y0096760D01*
X0089722Y0096646D01*
X0089580Y0096527D01*
X0089441Y0096406D01*
X0089306Y0096281D01*
X0089173Y0096152D01*
X0089043Y0096021D01*
X0088917Y0095886D01*
X0088794Y0095749D01*
X0088674Y0095608D01*
X0088558Y0095465D01*
X0088445Y0095318D01*
X0088336Y0095169D01*
X0088231Y0095018D01*
X0088129Y0094864D01*
X0088031Y0094707D01*
X0087937Y0094548D01*
X0087847Y0094387D01*
X0087760Y0094224D01*
X0087678Y0094058D01*
X0087600Y0093891D01*
X0087526Y0093722D01*
X0087456Y0093551D01*
X0087390Y0093379D01*
X0087329Y0093204D01*
X0087272Y0093029D01*
X0087219Y0092852D01*
X0087170Y0092674D01*
X0087126Y0092495D01*
X0087086Y0092314D01*
X0087051Y0092133D01*
X0087020Y0091951D01*
X0087018Y0091885D01*
X0087013Y0091819D01*
X0087003Y0091753D01*
X0086990Y0091688D01*
X0086974Y0091624D01*
X0086954Y0091561D01*
X0086930Y0091499D01*
X0086903Y0091439D01*
X0086873Y0091380D01*
X0086839Y0091323D01*
X0086802Y0091268D01*
X0086762Y0091215D01*
X0086720Y0091164D01*
X0086674Y0091116D01*
X0086626Y0091070D01*
X0086575Y0091028D01*
X0086522Y0090988D01*
X0086467Y0090951D01*
X0086410Y0090917D01*
X0086351Y0090887D01*
X0086291Y0090860D01*
X0086229Y0090836D01*
X0086166Y0090816D01*
X0086102Y0090800D01*
X0086037Y0090787D01*
X0085971Y0090777D01*
X0085905Y0090772D01*
X0085839Y0090770D01*
X0058280Y0090770D01*
X0058170Y0090768D01*
X0058060Y0090762D01*
X0057951Y0090753D01*
X0057842Y0090739D01*
X0057733Y0090722D01*
X0057625Y0090701D01*
X0057518Y0090676D01*
X0057412Y0090648D01*
X0057307Y0090616D01*
X0057203Y0090580D01*
X0057100Y0090541D01*
X0056999Y0090498D01*
X0056899Y0090451D01*
X0056801Y0090401D01*
X0056705Y0090348D01*
X0056611Y0090291D01*
X0056519Y0090231D01*
X0056428Y0090168D01*
X0056341Y0090102D01*
X0056255Y0090033D01*
X0056172Y0089961D01*
X0056092Y0089886D01*
X0056014Y0089808D01*
X0055939Y0089728D01*
X0055867Y0089645D01*
X0055798Y0089559D01*
X0055732Y0089472D01*
X0055669Y0089381D01*
X0055609Y0089289D01*
X0055552Y0089195D01*
X0055499Y0089099D01*
X0055449Y0089001D01*
X0055402Y0088901D01*
X0055359Y0088800D01*
X0055320Y0088697D01*
X0055284Y0088593D01*
X0055252Y0088488D01*
X0055224Y0088382D01*
X0055199Y0088275D01*
X0055178Y0088167D01*
X0055161Y0088058D01*
X0055147Y0087949D01*
X0055138Y0087840D01*
X0055132Y0087730D01*
X0055130Y0087620D01*
X0055130Y0062030D01*
X0055132Y0061964D01*
X0055137Y0061898D01*
X0055147Y0061832D01*
X0055160Y0061767D01*
X0055176Y0061703D01*
X0055196Y0061640D01*
X0055220Y0061578D01*
X0055247Y0061518D01*
X0055277Y0061459D01*
X0055311Y0061402D01*
X0055348Y0061347D01*
X0055388Y0061294D01*
X0055430Y0061243D01*
X0055476Y0061195D01*
X0055524Y0061149D01*
X0055575Y0061107D01*
X0055628Y0061067D01*
X0055683Y0061030D01*
X0055740Y0060996D01*
X0055799Y0060966D01*
X0055859Y0060939D01*
X0055921Y0060915D01*
X0055984Y0060895D01*
X0056048Y0060879D01*
X0056113Y0060866D01*
X0056179Y0060856D01*
X0056245Y0060851D01*
X0056311Y0060849D01*
X0056311Y0060848D02*
X0056542Y0060817D01*
X0056773Y0060779D01*
X0057002Y0060736D01*
X0057230Y0060687D01*
X0057457Y0060633D01*
X0057683Y0060573D01*
X0057907Y0060508D01*
X0058130Y0060437D01*
X0058350Y0060361D01*
X0058569Y0060279D01*
X0058786Y0060192D01*
X0059000Y0060100D01*
X0059212Y0060003D01*
X0059422Y0059900D01*
X0059629Y0059792D01*
X0059833Y0059679D01*
X0060035Y0059562D01*
X0060233Y0059439D01*
X0060429Y0059311D01*
X0060621Y0059179D01*
X0060810Y0059042D01*
X0060996Y0058901D01*
X0061178Y0058755D01*
X0061357Y0058604D01*
X0061531Y0058449D01*
X0061702Y0058290D01*
X0061869Y0058127D01*
X0062032Y0057960D01*
X0062191Y0057789D01*
X0062345Y0057614D01*
X0062495Y0057435D01*
X0062641Y0057253D01*
X0062782Y0057067D01*
X0062919Y0056877D01*
X0063051Y0056685D01*
X0063178Y0056489D01*
X0063300Y0056290D01*
X0063418Y0056089D01*
X0063530Y0055884D01*
X0063638Y0055677D01*
X0063740Y0055467D01*
X0063837Y0055255D01*
X0063929Y0055040D01*
X0064015Y0054823D01*
X0064097Y0054604D01*
X0064172Y0054384D01*
X0064243Y0054161D01*
X0064308Y0053937D01*
X0064367Y0053711D01*
X0064421Y0053484D01*
X0064469Y0053256D01*
X0064512Y0053026D01*
X0064549Y0052796D01*
X0064581Y0052564D01*
X0064606Y0052332D01*
X0064626Y0052100D01*
X0064641Y0051867D01*
X0064649Y0051633D01*
X0064652Y0051400D01*
X0064649Y0051167D01*
X0064641Y0050933D01*
X0064626Y0050700D01*
X0064606Y0050468D01*
X0064581Y0050236D01*
X0064549Y0050004D01*
X0064512Y0049774D01*
X0064469Y0049544D01*
X0064421Y0049316D01*
X0064367Y0049089D01*
X0064308Y0048863D01*
X0064243Y0048639D01*
X0064172Y0048416D01*
X0064097Y0048196D01*
X0064015Y0047977D01*
X0063929Y0047760D01*
X0063837Y0047545D01*
X0063740Y0047333D01*
X0063638Y0047123D01*
X0063530Y0046916D01*
X0063418Y0046711D01*
X0063300Y0046510D01*
X0063178Y0046311D01*
X0063051Y0046115D01*
X0062919Y0045923D01*
X0062782Y0045733D01*
X0062641Y0045547D01*
X0062495Y0045365D01*
X0062345Y0045186D01*
X0062191Y0045011D01*
X0062032Y0044840D01*
X0061869Y0044673D01*
X0061702Y0044510D01*
X0061531Y0044351D01*
X0061357Y0044196D01*
X0061178Y0044045D01*
X0060996Y0043899D01*
X0060810Y0043758D01*
X0060621Y0043621D01*
X0060429Y0043489D01*
X0060233Y0043361D01*
X0060035Y0043238D01*
X0059833Y0043121D01*
X0059629Y0043008D01*
X0059422Y0042900D01*
X0059212Y0042797D01*
X0059000Y0042700D01*
X0058786Y0042608D01*
X0058569Y0042521D01*
X0058350Y0042439D01*
X0058130Y0042363D01*
X0057907Y0042292D01*
X0057683Y0042227D01*
X0057457Y0042167D01*
X0057230Y0042113D01*
X0057002Y0042064D01*
X0056773Y0042021D01*
X0056542Y0041983D01*
X0056311Y0041952D01*
X0056311Y0041951D02*
X0056245Y0041949D01*
X0056179Y0041944D01*
X0056113Y0041934D01*
X0056048Y0041921D01*
X0055984Y0041905D01*
X0055921Y0041885D01*
X0055859Y0041861D01*
X0055799Y0041834D01*
X0055740Y0041804D01*
X0055683Y0041770D01*
X0055628Y0041733D01*
X0055575Y0041693D01*
X0055524Y0041651D01*
X0055476Y0041605D01*
X0055430Y0041557D01*
X0055388Y0041506D01*
X0055348Y0041453D01*
X0055311Y0041398D01*
X0055277Y0041341D01*
X0055247Y0041282D01*
X0055220Y0041222D01*
X0055196Y0041160D01*
X0055176Y0041097D01*
X0055160Y0041033D01*
X0055147Y0040968D01*
X0055137Y0040902D01*
X0055132Y0040836D01*
X0055130Y0040770D01*
X0055130Y0015180D02*
X0055132Y0015070D01*
X0055138Y0014960D01*
X0055147Y0014851D01*
X0055161Y0014742D01*
X0055178Y0014633D01*
X0055199Y0014525D01*
X0055224Y0014418D01*
X0055252Y0014312D01*
X0055284Y0014207D01*
X0055320Y0014103D01*
X0055359Y0014000D01*
X0055402Y0013899D01*
X0055449Y0013799D01*
X0055499Y0013701D01*
X0055552Y0013605D01*
X0055609Y0013511D01*
X0055669Y0013419D01*
X0055732Y0013328D01*
X0055798Y0013241D01*
X0055867Y0013155D01*
X0055939Y0013072D01*
X0056014Y0012992D01*
X0056092Y0012914D01*
X0056172Y0012839D01*
X0056255Y0012767D01*
X0056341Y0012698D01*
X0056428Y0012632D01*
X0056519Y0012569D01*
X0056611Y0012509D01*
X0056705Y0012452D01*
X0056801Y0012399D01*
X0056899Y0012349D01*
X0056999Y0012302D01*
X0057100Y0012259D01*
X0057203Y0012220D01*
X0057307Y0012184D01*
X0057412Y0012152D01*
X0057518Y0012124D01*
X0057625Y0012099D01*
X0057733Y0012078D01*
X0057842Y0012061D01*
X0057951Y0012047D01*
X0058060Y0012038D01*
X0058170Y0012032D01*
X0058280Y0012030D01*
X0130720Y0012030D02*
X0130830Y0012032D01*
X0130940Y0012038D01*
X0131049Y0012047D01*
X0131158Y0012061D01*
X0131267Y0012078D01*
X0131375Y0012099D01*
X0131482Y0012124D01*
X0131588Y0012152D01*
X0131693Y0012184D01*
X0131797Y0012220D01*
X0131900Y0012259D01*
X0132001Y0012302D01*
X0132101Y0012349D01*
X0132199Y0012399D01*
X0132295Y0012452D01*
X0132389Y0012509D01*
X0132481Y0012569D01*
X0132572Y0012632D01*
X0132659Y0012698D01*
X0132745Y0012767D01*
X0132828Y0012839D01*
X0132908Y0012914D01*
X0132986Y0012992D01*
X0133061Y0013072D01*
X0133133Y0013155D01*
X0133202Y0013241D01*
X0133268Y0013328D01*
X0133331Y0013419D01*
X0133391Y0013511D01*
X0133448Y0013605D01*
X0133501Y0013701D01*
X0133551Y0013799D01*
X0133598Y0013899D01*
X0133641Y0014000D01*
X0133680Y0014103D01*
X0133716Y0014207D01*
X0133748Y0014312D01*
X0133776Y0014418D01*
X0133801Y0014525D01*
X0133822Y0014633D01*
X0133839Y0014742D01*
X0133853Y0014851D01*
X0133862Y0014960D01*
X0133868Y0015070D01*
X0133870Y0015180D01*
X0133868Y0015070D01*
X0133862Y0014960D01*
X0133853Y0014851D01*
X0133839Y0014742D01*
X0133822Y0014633D01*
X0133801Y0014525D01*
X0133776Y0014418D01*
X0133748Y0014312D01*
X0133716Y0014207D01*
X0133680Y0014103D01*
X0133641Y0014000D01*
X0133598Y0013899D01*
X0133551Y0013799D01*
X0133501Y0013701D01*
X0133448Y0013605D01*
X0133391Y0013511D01*
X0133331Y0013419D01*
X0133268Y0013328D01*
X0133202Y0013241D01*
X0133133Y0013155D01*
X0133061Y0013072D01*
X0132986Y0012992D01*
X0132908Y0012914D01*
X0132828Y0012839D01*
X0132745Y0012767D01*
X0132659Y0012698D01*
X0132572Y0012632D01*
X0132481Y0012569D01*
X0132389Y0012509D01*
X0132295Y0012452D01*
X0132199Y0012399D01*
X0132101Y0012349D01*
X0132001Y0012302D01*
X0131900Y0012259D01*
X0131797Y0012220D01*
X0131693Y0012184D01*
X0131588Y0012152D01*
X0131482Y0012124D01*
X0131375Y0012099D01*
X0131267Y0012078D01*
X0131158Y0012061D01*
X0131049Y0012047D01*
X0130940Y0012038D01*
X0130830Y0012032D01*
X0130720Y0012030D01*
X0133870Y0087620D02*
X0133868Y0087730D01*
X0133862Y0087840D01*
X0133853Y0087949D01*
X0133839Y0088058D01*
X0133822Y0088167D01*
X0133801Y0088275D01*
X0133776Y0088382D01*
X0133748Y0088488D01*
X0133716Y0088593D01*
X0133680Y0088697D01*
X0133641Y0088800D01*
X0133598Y0088901D01*
X0133551Y0089001D01*
X0133501Y0089099D01*
X0133448Y0089195D01*
X0133391Y0089289D01*
X0133331Y0089381D01*
X0133268Y0089472D01*
X0133202Y0089559D01*
X0133133Y0089645D01*
X0133061Y0089728D01*
X0132986Y0089808D01*
X0132908Y0089886D01*
X0132828Y0089961D01*
X0132745Y0090033D01*
X0132659Y0090102D01*
X0132572Y0090168D01*
X0132481Y0090231D01*
X0132389Y0090291D01*
X0132295Y0090348D01*
X0132199Y0090401D01*
X0132101Y0090451D01*
X0132001Y0090498D01*
X0131900Y0090541D01*
X0131797Y0090580D01*
X0131693Y0090616D01*
X0131588Y0090648D01*
X0131482Y0090676D01*
X0131375Y0090701D01*
X0131267Y0090722D01*
X0131158Y0090739D01*
X0131049Y0090753D01*
X0130940Y0090762D01*
X0130830Y0090768D01*
X0130720Y0090770D01*
X0130830Y0090768D01*
X0130940Y0090762D01*
X0131049Y0090753D01*
X0131158Y0090739D01*
X0131267Y0090722D01*
X0131375Y0090701D01*
X0131482Y0090676D01*
X0131588Y0090648D01*
X0131693Y0090616D01*
X0131797Y0090580D01*
X0131900Y0090541D01*
X0132001Y0090498D01*
X0132101Y0090451D01*
X0132199Y0090401D01*
X0132295Y0090348D01*
X0132389Y0090291D01*
X0132481Y0090231D01*
X0132572Y0090168D01*
X0132659Y0090102D01*
X0132745Y0090033D01*
X0132828Y0089961D01*
X0132908Y0089886D01*
X0132986Y0089808D01*
X0133061Y0089728D01*
X0133133Y0089645D01*
X0133202Y0089559D01*
X0133268Y0089472D01*
X0133331Y0089381D01*
X0133391Y0089289D01*
X0133448Y0089195D01*
X0133501Y0089099D01*
X0133551Y0089001D01*
X0133598Y0088901D01*
X0133641Y0088800D01*
X0133680Y0088697D01*
X0133716Y0088593D01*
X0133748Y0088488D01*
X0133776Y0088382D01*
X0133801Y0088275D01*
X0133822Y0088167D01*
X0133839Y0088058D01*
X0133853Y0087949D01*
X0133862Y0087840D01*
X0133868Y0087730D01*
X0133870Y0087620D01*
X0058280Y0090770D02*
X0058170Y0090768D01*
X0058060Y0090762D01*
X0057951Y0090753D01*
X0057842Y0090739D01*
X0057733Y0090722D01*
X0057625Y0090701D01*
X0057518Y0090676D01*
X0057412Y0090648D01*
X0057307Y0090616D01*
X0057203Y0090580D01*
X0057100Y0090541D01*
X0056999Y0090498D01*
X0056899Y0090451D01*
X0056801Y0090401D01*
X0056705Y0090348D01*
X0056611Y0090291D01*
X0056519Y0090231D01*
X0056428Y0090168D01*
X0056341Y0090102D01*
X0056255Y0090033D01*
X0056172Y0089961D01*
X0056092Y0089886D01*
X0056014Y0089808D01*
X0055939Y0089728D01*
X0055867Y0089645D01*
X0055798Y0089559D01*
X0055732Y0089472D01*
X0055669Y0089381D01*
X0055609Y0089289D01*
X0055552Y0089195D01*
X0055499Y0089099D01*
X0055449Y0089001D01*
X0055402Y0088901D01*
X0055359Y0088800D01*
X0055320Y0088697D01*
X0055284Y0088593D01*
X0055252Y0088488D01*
X0055224Y0088382D01*
X0055199Y0088275D01*
X0055178Y0088167D01*
X0055161Y0088058D01*
X0055147Y0087949D01*
X0055138Y0087840D01*
X0055132Y0087730D01*
X0055130Y0087620D01*
D16*
X0069500Y0038900D03*
D17*
X0069500Y0048900D03*
X0069500Y0058900D03*
M02*
