G75*
%MOIN*%
%OFA0B0*%
%FSLAX25Y25*%
%IPPOS*%
%LPD*%
%AMOC8*
5,1,8,0,0,1.08239X$1,22.5*
%
%ADD10C,0.04500*%
%ADD11C,0.06496*%
%ADD12C,0.00000*%
%ADD13C,0.00100*%
%ADD14R,0.05150X0.05150*%
%ADD15C,0.05150*%
%ADD16C,0.00800*%
%ADD17C,0.02500*%
%ADD18C,0.01600*%
D10*
X0062000Y0026400D03*
X0062000Y0066400D03*
X0062000Y0076400D03*
D11*
X0107000Y0076400D03*
X0117000Y0076400D03*
X0117000Y0066400D03*
X0107000Y0066400D03*
D12*
X0090169Y0090770D02*
X0090171Y0090901D01*
X0090177Y0091033D01*
X0090187Y0091164D01*
X0090201Y0091295D01*
X0090219Y0091425D01*
X0090241Y0091554D01*
X0090266Y0091683D01*
X0090296Y0091811D01*
X0090330Y0091938D01*
X0090367Y0092065D01*
X0090408Y0092189D01*
X0090453Y0092313D01*
X0090502Y0092435D01*
X0090554Y0092556D01*
X0090610Y0092674D01*
X0090670Y0092792D01*
X0090733Y0092907D01*
X0090800Y0093020D01*
X0090870Y0093132D01*
X0090943Y0093241D01*
X0091019Y0093347D01*
X0091099Y0093452D01*
X0091182Y0093554D01*
X0091268Y0093653D01*
X0091357Y0093750D01*
X0091449Y0093844D01*
X0091544Y0093935D01*
X0091641Y0094024D01*
X0091741Y0094109D01*
X0091844Y0094191D01*
X0091949Y0094270D01*
X0092056Y0094346D01*
X0092166Y0094418D01*
X0092278Y0094487D01*
X0092392Y0094553D01*
X0092507Y0094615D01*
X0092625Y0094674D01*
X0092744Y0094729D01*
X0092865Y0094781D01*
X0092988Y0094828D01*
X0093112Y0094872D01*
X0093237Y0094913D01*
X0093363Y0094949D01*
X0093491Y0094982D01*
X0093619Y0095010D01*
X0093748Y0095035D01*
X0093878Y0095056D01*
X0094008Y0095073D01*
X0094139Y0095086D01*
X0094270Y0095095D01*
X0094401Y0095100D01*
X0094533Y0095101D01*
X0094664Y0095098D01*
X0094796Y0095091D01*
X0094927Y0095080D01*
X0095057Y0095065D01*
X0095187Y0095046D01*
X0095317Y0095023D01*
X0095445Y0094997D01*
X0095573Y0094966D01*
X0095700Y0094931D01*
X0095826Y0094893D01*
X0095950Y0094851D01*
X0096074Y0094805D01*
X0096195Y0094755D01*
X0096315Y0094702D01*
X0096434Y0094645D01*
X0096551Y0094585D01*
X0096665Y0094521D01*
X0096778Y0094453D01*
X0096889Y0094382D01*
X0096998Y0094308D01*
X0097104Y0094231D01*
X0097208Y0094150D01*
X0097309Y0094067D01*
X0097408Y0093980D01*
X0097504Y0093890D01*
X0097597Y0093797D01*
X0097688Y0093702D01*
X0097775Y0093604D01*
X0097860Y0093503D01*
X0097941Y0093400D01*
X0098019Y0093294D01*
X0098094Y0093186D01*
X0098166Y0093076D01*
X0098234Y0092964D01*
X0098299Y0092850D01*
X0098360Y0092733D01*
X0098418Y0092615D01*
X0098472Y0092495D01*
X0098523Y0092374D01*
X0098570Y0092251D01*
X0098613Y0092127D01*
X0098652Y0092002D01*
X0098688Y0091875D01*
X0098719Y0091747D01*
X0098747Y0091619D01*
X0098771Y0091490D01*
X0098791Y0091360D01*
X0098807Y0091229D01*
X0098819Y0091098D01*
X0098827Y0090967D01*
X0098831Y0090836D01*
X0098831Y0090704D01*
X0098827Y0090573D01*
X0098819Y0090442D01*
X0098807Y0090311D01*
X0098791Y0090180D01*
X0098771Y0090050D01*
X0098747Y0089921D01*
X0098719Y0089793D01*
X0098688Y0089665D01*
X0098652Y0089538D01*
X0098613Y0089413D01*
X0098570Y0089289D01*
X0098523Y0089166D01*
X0098472Y0089045D01*
X0098418Y0088925D01*
X0098360Y0088807D01*
X0098299Y0088690D01*
X0098234Y0088576D01*
X0098166Y0088464D01*
X0098094Y0088354D01*
X0098019Y0088246D01*
X0097941Y0088140D01*
X0097860Y0088037D01*
X0097775Y0087936D01*
X0097688Y0087838D01*
X0097597Y0087743D01*
X0097504Y0087650D01*
X0097408Y0087560D01*
X0097309Y0087473D01*
X0097208Y0087390D01*
X0097104Y0087309D01*
X0096998Y0087232D01*
X0096889Y0087158D01*
X0096778Y0087087D01*
X0096666Y0087019D01*
X0096551Y0086955D01*
X0096434Y0086895D01*
X0096315Y0086838D01*
X0096195Y0086785D01*
X0096074Y0086735D01*
X0095950Y0086689D01*
X0095826Y0086647D01*
X0095700Y0086609D01*
X0095573Y0086574D01*
X0095445Y0086543D01*
X0095317Y0086517D01*
X0095187Y0086494D01*
X0095057Y0086475D01*
X0094927Y0086460D01*
X0094796Y0086449D01*
X0094664Y0086442D01*
X0094533Y0086439D01*
X0094401Y0086440D01*
X0094270Y0086445D01*
X0094139Y0086454D01*
X0094008Y0086467D01*
X0093878Y0086484D01*
X0093748Y0086505D01*
X0093619Y0086530D01*
X0093491Y0086558D01*
X0093363Y0086591D01*
X0093237Y0086627D01*
X0093112Y0086668D01*
X0092988Y0086712D01*
X0092865Y0086759D01*
X0092744Y0086811D01*
X0092625Y0086866D01*
X0092507Y0086925D01*
X0092392Y0086987D01*
X0092278Y0087053D01*
X0092166Y0087122D01*
X0092056Y0087194D01*
X0091949Y0087270D01*
X0091844Y0087349D01*
X0091741Y0087431D01*
X0091641Y0087516D01*
X0091544Y0087605D01*
X0091449Y0087696D01*
X0091357Y0087790D01*
X0091268Y0087887D01*
X0091182Y0087986D01*
X0091099Y0088088D01*
X0091019Y0088193D01*
X0090943Y0088299D01*
X0090870Y0088408D01*
X0090800Y0088520D01*
X0090733Y0088633D01*
X0090670Y0088748D01*
X0090610Y0088866D01*
X0090554Y0088984D01*
X0090502Y0089105D01*
X0090453Y0089227D01*
X0090408Y0089351D01*
X0090367Y0089475D01*
X0090330Y0089602D01*
X0090296Y0089729D01*
X0090266Y0089857D01*
X0090241Y0089986D01*
X0090219Y0090115D01*
X0090201Y0090245D01*
X0090187Y0090376D01*
X0090177Y0090507D01*
X0090171Y0090639D01*
X0090169Y0090770D01*
X0090169Y0012030D02*
X0090171Y0012161D01*
X0090177Y0012293D01*
X0090187Y0012424D01*
X0090201Y0012555D01*
X0090219Y0012685D01*
X0090241Y0012814D01*
X0090266Y0012943D01*
X0090296Y0013071D01*
X0090330Y0013198D01*
X0090367Y0013325D01*
X0090408Y0013449D01*
X0090453Y0013573D01*
X0090502Y0013695D01*
X0090554Y0013816D01*
X0090610Y0013934D01*
X0090670Y0014052D01*
X0090733Y0014167D01*
X0090800Y0014280D01*
X0090870Y0014392D01*
X0090943Y0014501D01*
X0091019Y0014607D01*
X0091099Y0014712D01*
X0091182Y0014814D01*
X0091268Y0014913D01*
X0091357Y0015010D01*
X0091449Y0015104D01*
X0091544Y0015195D01*
X0091641Y0015284D01*
X0091741Y0015369D01*
X0091844Y0015451D01*
X0091949Y0015530D01*
X0092056Y0015606D01*
X0092166Y0015678D01*
X0092278Y0015747D01*
X0092392Y0015813D01*
X0092507Y0015875D01*
X0092625Y0015934D01*
X0092744Y0015989D01*
X0092865Y0016041D01*
X0092988Y0016088D01*
X0093112Y0016132D01*
X0093237Y0016173D01*
X0093363Y0016209D01*
X0093491Y0016242D01*
X0093619Y0016270D01*
X0093748Y0016295D01*
X0093878Y0016316D01*
X0094008Y0016333D01*
X0094139Y0016346D01*
X0094270Y0016355D01*
X0094401Y0016360D01*
X0094533Y0016361D01*
X0094664Y0016358D01*
X0094796Y0016351D01*
X0094927Y0016340D01*
X0095057Y0016325D01*
X0095187Y0016306D01*
X0095317Y0016283D01*
X0095445Y0016257D01*
X0095573Y0016226D01*
X0095700Y0016191D01*
X0095826Y0016153D01*
X0095950Y0016111D01*
X0096074Y0016065D01*
X0096195Y0016015D01*
X0096315Y0015962D01*
X0096434Y0015905D01*
X0096551Y0015845D01*
X0096665Y0015781D01*
X0096778Y0015713D01*
X0096889Y0015642D01*
X0096998Y0015568D01*
X0097104Y0015491D01*
X0097208Y0015410D01*
X0097309Y0015327D01*
X0097408Y0015240D01*
X0097504Y0015150D01*
X0097597Y0015057D01*
X0097688Y0014962D01*
X0097775Y0014864D01*
X0097860Y0014763D01*
X0097941Y0014660D01*
X0098019Y0014554D01*
X0098094Y0014446D01*
X0098166Y0014336D01*
X0098234Y0014224D01*
X0098299Y0014110D01*
X0098360Y0013993D01*
X0098418Y0013875D01*
X0098472Y0013755D01*
X0098523Y0013634D01*
X0098570Y0013511D01*
X0098613Y0013387D01*
X0098652Y0013262D01*
X0098688Y0013135D01*
X0098719Y0013007D01*
X0098747Y0012879D01*
X0098771Y0012750D01*
X0098791Y0012620D01*
X0098807Y0012489D01*
X0098819Y0012358D01*
X0098827Y0012227D01*
X0098831Y0012096D01*
X0098831Y0011964D01*
X0098827Y0011833D01*
X0098819Y0011702D01*
X0098807Y0011571D01*
X0098791Y0011440D01*
X0098771Y0011310D01*
X0098747Y0011181D01*
X0098719Y0011053D01*
X0098688Y0010925D01*
X0098652Y0010798D01*
X0098613Y0010673D01*
X0098570Y0010549D01*
X0098523Y0010426D01*
X0098472Y0010305D01*
X0098418Y0010185D01*
X0098360Y0010067D01*
X0098299Y0009950D01*
X0098234Y0009836D01*
X0098166Y0009724D01*
X0098094Y0009614D01*
X0098019Y0009506D01*
X0097941Y0009400D01*
X0097860Y0009297D01*
X0097775Y0009196D01*
X0097688Y0009098D01*
X0097597Y0009003D01*
X0097504Y0008910D01*
X0097408Y0008820D01*
X0097309Y0008733D01*
X0097208Y0008650D01*
X0097104Y0008569D01*
X0096998Y0008492D01*
X0096889Y0008418D01*
X0096778Y0008347D01*
X0096666Y0008279D01*
X0096551Y0008215D01*
X0096434Y0008155D01*
X0096315Y0008098D01*
X0096195Y0008045D01*
X0096074Y0007995D01*
X0095950Y0007949D01*
X0095826Y0007907D01*
X0095700Y0007869D01*
X0095573Y0007834D01*
X0095445Y0007803D01*
X0095317Y0007777D01*
X0095187Y0007754D01*
X0095057Y0007735D01*
X0094927Y0007720D01*
X0094796Y0007709D01*
X0094664Y0007702D01*
X0094533Y0007699D01*
X0094401Y0007700D01*
X0094270Y0007705D01*
X0094139Y0007714D01*
X0094008Y0007727D01*
X0093878Y0007744D01*
X0093748Y0007765D01*
X0093619Y0007790D01*
X0093491Y0007818D01*
X0093363Y0007851D01*
X0093237Y0007887D01*
X0093112Y0007928D01*
X0092988Y0007972D01*
X0092865Y0008019D01*
X0092744Y0008071D01*
X0092625Y0008126D01*
X0092507Y0008185D01*
X0092392Y0008247D01*
X0092278Y0008313D01*
X0092166Y0008382D01*
X0092056Y0008454D01*
X0091949Y0008530D01*
X0091844Y0008609D01*
X0091741Y0008691D01*
X0091641Y0008776D01*
X0091544Y0008865D01*
X0091449Y0008956D01*
X0091357Y0009050D01*
X0091268Y0009147D01*
X0091182Y0009246D01*
X0091099Y0009348D01*
X0091019Y0009453D01*
X0090943Y0009559D01*
X0090870Y0009668D01*
X0090800Y0009780D01*
X0090733Y0009893D01*
X0090670Y0010008D01*
X0090610Y0010126D01*
X0090554Y0010244D01*
X0090502Y0010365D01*
X0090453Y0010487D01*
X0090408Y0010611D01*
X0090367Y0010735D01*
X0090330Y0010862D01*
X0090296Y0010989D01*
X0090266Y0011117D01*
X0090241Y0011246D01*
X0090219Y0011375D01*
X0090201Y0011505D01*
X0090187Y0011636D01*
X0090177Y0011767D01*
X0090171Y0011899D01*
X0090169Y0012030D01*
D13*
X0055130Y0015180D02*
X0055130Y0040770D01*
X0055132Y0040836D01*
X0055137Y0040902D01*
X0055147Y0040968D01*
X0055160Y0041033D01*
X0055176Y0041097D01*
X0055196Y0041160D01*
X0055220Y0041222D01*
X0055247Y0041282D01*
X0055277Y0041341D01*
X0055311Y0041398D01*
X0055348Y0041453D01*
X0055388Y0041506D01*
X0055430Y0041557D01*
X0055476Y0041605D01*
X0055524Y0041651D01*
X0055575Y0041693D01*
X0055628Y0041733D01*
X0055683Y0041770D01*
X0055740Y0041804D01*
X0055799Y0041834D01*
X0055859Y0041861D01*
X0055921Y0041885D01*
X0055984Y0041905D01*
X0056048Y0041921D01*
X0056113Y0041934D01*
X0056179Y0041944D01*
X0056245Y0041949D01*
X0056311Y0041951D01*
X0056311Y0041952D02*
X0056542Y0041983D01*
X0056773Y0042021D01*
X0057002Y0042064D01*
X0057230Y0042113D01*
X0057457Y0042167D01*
X0057683Y0042227D01*
X0057907Y0042292D01*
X0058130Y0042363D01*
X0058350Y0042439D01*
X0058569Y0042521D01*
X0058786Y0042608D01*
X0059000Y0042700D01*
X0059212Y0042797D01*
X0059422Y0042900D01*
X0059629Y0043008D01*
X0059833Y0043121D01*
X0060035Y0043238D01*
X0060233Y0043361D01*
X0060429Y0043489D01*
X0060621Y0043621D01*
X0060810Y0043758D01*
X0060996Y0043899D01*
X0061178Y0044045D01*
X0061357Y0044196D01*
X0061531Y0044351D01*
X0061702Y0044510D01*
X0061869Y0044673D01*
X0062032Y0044840D01*
X0062191Y0045011D01*
X0062345Y0045186D01*
X0062495Y0045365D01*
X0062641Y0045547D01*
X0062782Y0045733D01*
X0062919Y0045923D01*
X0063051Y0046115D01*
X0063178Y0046311D01*
X0063300Y0046510D01*
X0063418Y0046711D01*
X0063530Y0046916D01*
X0063638Y0047123D01*
X0063740Y0047333D01*
X0063837Y0047545D01*
X0063929Y0047760D01*
X0064015Y0047977D01*
X0064097Y0048196D01*
X0064172Y0048416D01*
X0064243Y0048639D01*
X0064308Y0048863D01*
X0064367Y0049089D01*
X0064421Y0049316D01*
X0064469Y0049544D01*
X0064512Y0049774D01*
X0064549Y0050004D01*
X0064581Y0050236D01*
X0064606Y0050468D01*
X0064626Y0050700D01*
X0064641Y0050933D01*
X0064649Y0051167D01*
X0064652Y0051400D01*
X0064649Y0051633D01*
X0064641Y0051867D01*
X0064626Y0052100D01*
X0064606Y0052332D01*
X0064581Y0052564D01*
X0064549Y0052796D01*
X0064512Y0053026D01*
X0064469Y0053256D01*
X0064421Y0053484D01*
X0064367Y0053711D01*
X0064308Y0053937D01*
X0064243Y0054161D01*
X0064172Y0054384D01*
X0064097Y0054604D01*
X0064015Y0054823D01*
X0063929Y0055040D01*
X0063837Y0055255D01*
X0063740Y0055467D01*
X0063638Y0055677D01*
X0063530Y0055884D01*
X0063418Y0056089D01*
X0063300Y0056290D01*
X0063178Y0056489D01*
X0063051Y0056685D01*
X0062919Y0056877D01*
X0062782Y0057067D01*
X0062641Y0057253D01*
X0062495Y0057435D01*
X0062345Y0057614D01*
X0062191Y0057789D01*
X0062032Y0057960D01*
X0061869Y0058127D01*
X0061702Y0058290D01*
X0061531Y0058449D01*
X0061357Y0058604D01*
X0061178Y0058755D01*
X0060996Y0058901D01*
X0060810Y0059042D01*
X0060621Y0059179D01*
X0060429Y0059311D01*
X0060233Y0059439D01*
X0060035Y0059562D01*
X0059833Y0059679D01*
X0059629Y0059792D01*
X0059422Y0059900D01*
X0059212Y0060003D01*
X0059000Y0060100D01*
X0058786Y0060192D01*
X0058569Y0060279D01*
X0058350Y0060361D01*
X0058130Y0060437D01*
X0057907Y0060508D01*
X0057683Y0060573D01*
X0057457Y0060633D01*
X0057230Y0060687D01*
X0057002Y0060736D01*
X0056773Y0060779D01*
X0056542Y0060817D01*
X0056311Y0060848D01*
X0056311Y0060849D02*
X0056245Y0060851D01*
X0056179Y0060856D01*
X0056113Y0060866D01*
X0056048Y0060879D01*
X0055984Y0060895D01*
X0055921Y0060915D01*
X0055859Y0060939D01*
X0055799Y0060966D01*
X0055740Y0060996D01*
X0055683Y0061030D01*
X0055628Y0061067D01*
X0055575Y0061107D01*
X0055524Y0061149D01*
X0055476Y0061195D01*
X0055430Y0061243D01*
X0055388Y0061294D01*
X0055348Y0061347D01*
X0055311Y0061402D01*
X0055277Y0061459D01*
X0055247Y0061518D01*
X0055220Y0061578D01*
X0055196Y0061640D01*
X0055176Y0061703D01*
X0055160Y0061767D01*
X0055147Y0061832D01*
X0055137Y0061898D01*
X0055132Y0061964D01*
X0055130Y0062030D01*
X0055130Y0087620D01*
X0055132Y0087730D01*
X0055138Y0087840D01*
X0055147Y0087949D01*
X0055161Y0088058D01*
X0055178Y0088167D01*
X0055199Y0088275D01*
X0055224Y0088382D01*
X0055252Y0088488D01*
X0055284Y0088593D01*
X0055320Y0088697D01*
X0055359Y0088800D01*
X0055402Y0088901D01*
X0055449Y0089001D01*
X0055499Y0089099D01*
X0055552Y0089195D01*
X0055609Y0089289D01*
X0055669Y0089381D01*
X0055732Y0089472D01*
X0055798Y0089559D01*
X0055867Y0089645D01*
X0055939Y0089728D01*
X0056014Y0089808D01*
X0056092Y0089886D01*
X0056172Y0089961D01*
X0056255Y0090033D01*
X0056341Y0090102D01*
X0056428Y0090168D01*
X0056519Y0090231D01*
X0056611Y0090291D01*
X0056705Y0090348D01*
X0056801Y0090401D01*
X0056899Y0090451D01*
X0056999Y0090498D01*
X0057100Y0090541D01*
X0057203Y0090580D01*
X0057307Y0090616D01*
X0057412Y0090648D01*
X0057518Y0090676D01*
X0057625Y0090701D01*
X0057733Y0090722D01*
X0057842Y0090739D01*
X0057951Y0090753D01*
X0058060Y0090762D01*
X0058170Y0090768D01*
X0058280Y0090770D01*
X0085839Y0090770D01*
X0085905Y0090772D01*
X0085971Y0090777D01*
X0086037Y0090787D01*
X0086102Y0090800D01*
X0086166Y0090816D01*
X0086229Y0090836D01*
X0086291Y0090860D01*
X0086351Y0090887D01*
X0086410Y0090917D01*
X0086467Y0090951D01*
X0086522Y0090988D01*
X0086575Y0091028D01*
X0086626Y0091070D01*
X0086674Y0091116D01*
X0086720Y0091164D01*
X0086762Y0091215D01*
X0086802Y0091268D01*
X0086839Y0091323D01*
X0086873Y0091380D01*
X0086903Y0091439D01*
X0086930Y0091499D01*
X0086954Y0091561D01*
X0086974Y0091624D01*
X0086990Y0091688D01*
X0087003Y0091753D01*
X0087013Y0091819D01*
X0087018Y0091885D01*
X0087020Y0091951D01*
X0087051Y0092133D01*
X0087086Y0092314D01*
X0087126Y0092495D01*
X0087170Y0092674D01*
X0087219Y0092852D01*
X0087272Y0093029D01*
X0087329Y0093204D01*
X0087390Y0093379D01*
X0087456Y0093551D01*
X0087526Y0093722D01*
X0087600Y0093891D01*
X0087678Y0094058D01*
X0087760Y0094224D01*
X0087847Y0094387D01*
X0087937Y0094548D01*
X0088031Y0094707D01*
X0088129Y0094864D01*
X0088231Y0095018D01*
X0088336Y0095169D01*
X0088445Y0095318D01*
X0088558Y0095465D01*
X0088674Y0095608D01*
X0088794Y0095749D01*
X0088917Y0095886D01*
X0089043Y0096021D01*
X0089173Y0096152D01*
X0089306Y0096281D01*
X0089441Y0096406D01*
X0089580Y0096527D01*
X0089722Y0096646D01*
X0089867Y0096760D01*
X0090014Y0096872D01*
X0090164Y0096979D01*
X0090317Y0097083D01*
X0090472Y0097183D01*
X0090630Y0097279D01*
X0090790Y0097372D01*
X0090952Y0097460D01*
X0091116Y0097545D01*
X0091282Y0097625D01*
X0091450Y0097702D01*
X0091620Y0097774D01*
X0091792Y0097842D01*
X0091965Y0097906D01*
X0092140Y0097966D01*
X0092316Y0098021D01*
X0092493Y0098072D01*
X0092672Y0098119D01*
X0092851Y0098161D01*
X0093032Y0098199D01*
X0093214Y0098233D01*
X0093396Y0098262D01*
X0093579Y0098287D01*
X0093763Y0098307D01*
X0093947Y0098323D01*
X0094131Y0098334D01*
X0094315Y0098341D01*
X0094500Y0098343D01*
X0094685Y0098341D01*
X0094869Y0098334D01*
X0095053Y0098323D01*
X0095237Y0098307D01*
X0095421Y0098287D01*
X0095604Y0098262D01*
X0095786Y0098233D01*
X0095968Y0098199D01*
X0096149Y0098161D01*
X0096328Y0098119D01*
X0096507Y0098072D01*
X0096684Y0098021D01*
X0096860Y0097966D01*
X0097035Y0097906D01*
X0097208Y0097842D01*
X0097380Y0097774D01*
X0097550Y0097702D01*
X0097718Y0097625D01*
X0097884Y0097545D01*
X0098048Y0097460D01*
X0098210Y0097372D01*
X0098370Y0097279D01*
X0098528Y0097183D01*
X0098683Y0097083D01*
X0098836Y0096979D01*
X0098986Y0096872D01*
X0099133Y0096760D01*
X0099278Y0096646D01*
X0099420Y0096527D01*
X0099559Y0096406D01*
X0099694Y0096281D01*
X0099827Y0096152D01*
X0099957Y0096021D01*
X0100083Y0095886D01*
X0100206Y0095749D01*
X0100326Y0095608D01*
X0100442Y0095465D01*
X0100555Y0095318D01*
X0100664Y0095169D01*
X0100769Y0095018D01*
X0100871Y0094864D01*
X0100969Y0094707D01*
X0101063Y0094548D01*
X0101153Y0094387D01*
X0101240Y0094224D01*
X0101322Y0094058D01*
X0101400Y0093891D01*
X0101474Y0093722D01*
X0101544Y0093551D01*
X0101610Y0093379D01*
X0101671Y0093204D01*
X0101728Y0093029D01*
X0101781Y0092852D01*
X0101830Y0092674D01*
X0101874Y0092495D01*
X0101914Y0092314D01*
X0101949Y0092133D01*
X0101980Y0091951D01*
X0101982Y0091885D01*
X0101987Y0091819D01*
X0101997Y0091753D01*
X0102010Y0091688D01*
X0102026Y0091624D01*
X0102046Y0091561D01*
X0102070Y0091499D01*
X0102097Y0091439D01*
X0102127Y0091380D01*
X0102161Y0091323D01*
X0102198Y0091268D01*
X0102238Y0091215D01*
X0102280Y0091164D01*
X0102326Y0091116D01*
X0102374Y0091070D01*
X0102425Y0091028D01*
X0102478Y0090988D01*
X0102533Y0090951D01*
X0102590Y0090917D01*
X0102649Y0090887D01*
X0102709Y0090860D01*
X0102771Y0090836D01*
X0102834Y0090816D01*
X0102898Y0090800D01*
X0102963Y0090787D01*
X0103029Y0090777D01*
X0103095Y0090772D01*
X0103161Y0090770D01*
X0102768Y0090770D02*
X0130720Y0090770D01*
X0130830Y0090768D01*
X0130940Y0090762D01*
X0131049Y0090753D01*
X0131158Y0090739D01*
X0131267Y0090722D01*
X0131375Y0090701D01*
X0131482Y0090676D01*
X0131588Y0090648D01*
X0131693Y0090616D01*
X0131797Y0090580D01*
X0131900Y0090541D01*
X0132001Y0090498D01*
X0132101Y0090451D01*
X0132199Y0090401D01*
X0132295Y0090348D01*
X0132389Y0090291D01*
X0132481Y0090231D01*
X0132572Y0090168D01*
X0132659Y0090102D01*
X0132745Y0090033D01*
X0132828Y0089961D01*
X0132908Y0089886D01*
X0132986Y0089808D01*
X0133061Y0089728D01*
X0133133Y0089645D01*
X0133202Y0089559D01*
X0133268Y0089472D01*
X0133331Y0089381D01*
X0133391Y0089289D01*
X0133448Y0089195D01*
X0133501Y0089099D01*
X0133551Y0089001D01*
X0133598Y0088901D01*
X0133641Y0088800D01*
X0133680Y0088697D01*
X0133716Y0088593D01*
X0133748Y0088488D01*
X0133776Y0088382D01*
X0133801Y0088275D01*
X0133822Y0088167D01*
X0133839Y0088058D01*
X0133853Y0087949D01*
X0133862Y0087840D01*
X0133868Y0087730D01*
X0133870Y0087620D01*
X0133870Y0062030D01*
X0133868Y0061964D01*
X0133863Y0061898D01*
X0133853Y0061832D01*
X0133840Y0061767D01*
X0133824Y0061703D01*
X0133804Y0061640D01*
X0133780Y0061578D01*
X0133753Y0061518D01*
X0133723Y0061459D01*
X0133689Y0061402D01*
X0133652Y0061347D01*
X0133612Y0061294D01*
X0133570Y0061243D01*
X0133524Y0061195D01*
X0133476Y0061149D01*
X0133425Y0061107D01*
X0133372Y0061067D01*
X0133317Y0061030D01*
X0133260Y0060996D01*
X0133201Y0060966D01*
X0133141Y0060939D01*
X0133079Y0060915D01*
X0133016Y0060895D01*
X0132952Y0060879D01*
X0132887Y0060866D01*
X0132821Y0060856D01*
X0132755Y0060851D01*
X0132689Y0060849D01*
X0132689Y0060848D02*
X0132458Y0060817D01*
X0132227Y0060779D01*
X0131998Y0060736D01*
X0131770Y0060687D01*
X0131543Y0060633D01*
X0131317Y0060573D01*
X0131093Y0060508D01*
X0130870Y0060437D01*
X0130650Y0060361D01*
X0130431Y0060279D01*
X0130214Y0060192D01*
X0130000Y0060100D01*
X0129788Y0060003D01*
X0129578Y0059900D01*
X0129371Y0059792D01*
X0129167Y0059679D01*
X0128965Y0059562D01*
X0128767Y0059439D01*
X0128571Y0059311D01*
X0128379Y0059179D01*
X0128190Y0059042D01*
X0128004Y0058901D01*
X0127822Y0058755D01*
X0127643Y0058604D01*
X0127469Y0058449D01*
X0127298Y0058290D01*
X0127131Y0058127D01*
X0126968Y0057960D01*
X0126809Y0057789D01*
X0126655Y0057614D01*
X0126505Y0057435D01*
X0126359Y0057253D01*
X0126218Y0057067D01*
X0126081Y0056877D01*
X0125949Y0056685D01*
X0125822Y0056489D01*
X0125700Y0056290D01*
X0125582Y0056089D01*
X0125470Y0055884D01*
X0125362Y0055677D01*
X0125260Y0055467D01*
X0125163Y0055255D01*
X0125071Y0055040D01*
X0124985Y0054823D01*
X0124903Y0054604D01*
X0124828Y0054384D01*
X0124757Y0054161D01*
X0124692Y0053937D01*
X0124633Y0053711D01*
X0124579Y0053484D01*
X0124531Y0053256D01*
X0124488Y0053026D01*
X0124451Y0052796D01*
X0124419Y0052564D01*
X0124394Y0052332D01*
X0124374Y0052100D01*
X0124359Y0051867D01*
X0124351Y0051633D01*
X0124348Y0051400D01*
X0124351Y0051167D01*
X0124359Y0050933D01*
X0124374Y0050700D01*
X0124394Y0050468D01*
X0124419Y0050236D01*
X0124451Y0050004D01*
X0124488Y0049774D01*
X0124531Y0049544D01*
X0124579Y0049316D01*
X0124633Y0049089D01*
X0124692Y0048863D01*
X0124757Y0048639D01*
X0124828Y0048416D01*
X0124903Y0048196D01*
X0124985Y0047977D01*
X0125071Y0047760D01*
X0125163Y0047545D01*
X0125260Y0047333D01*
X0125362Y0047123D01*
X0125470Y0046916D01*
X0125582Y0046711D01*
X0125700Y0046510D01*
X0125822Y0046311D01*
X0125949Y0046115D01*
X0126081Y0045923D01*
X0126218Y0045733D01*
X0126359Y0045547D01*
X0126505Y0045365D01*
X0126655Y0045186D01*
X0126809Y0045011D01*
X0126968Y0044840D01*
X0127131Y0044673D01*
X0127298Y0044510D01*
X0127469Y0044351D01*
X0127643Y0044196D01*
X0127822Y0044045D01*
X0128004Y0043899D01*
X0128190Y0043758D01*
X0128379Y0043621D01*
X0128571Y0043489D01*
X0128767Y0043361D01*
X0128965Y0043238D01*
X0129167Y0043121D01*
X0129371Y0043008D01*
X0129578Y0042900D01*
X0129788Y0042797D01*
X0130000Y0042700D01*
X0130214Y0042608D01*
X0130431Y0042521D01*
X0130650Y0042439D01*
X0130870Y0042363D01*
X0131093Y0042292D01*
X0131317Y0042227D01*
X0131543Y0042167D01*
X0131770Y0042113D01*
X0131998Y0042064D01*
X0132227Y0042021D01*
X0132458Y0041983D01*
X0132689Y0041952D01*
X0132689Y0041951D02*
X0132755Y0041949D01*
X0132821Y0041944D01*
X0132887Y0041934D01*
X0132952Y0041921D01*
X0133016Y0041905D01*
X0133079Y0041885D01*
X0133141Y0041861D01*
X0133201Y0041834D01*
X0133260Y0041804D01*
X0133317Y0041770D01*
X0133372Y0041733D01*
X0133425Y0041693D01*
X0133476Y0041651D01*
X0133524Y0041605D01*
X0133570Y0041557D01*
X0133612Y0041506D01*
X0133652Y0041453D01*
X0133689Y0041398D01*
X0133723Y0041341D01*
X0133753Y0041282D01*
X0133780Y0041222D01*
X0133804Y0041160D01*
X0133824Y0041097D01*
X0133840Y0041033D01*
X0133853Y0040968D01*
X0133863Y0040902D01*
X0133868Y0040836D01*
X0133870Y0040770D01*
X0133870Y0015180D01*
X0133868Y0015070D01*
X0133862Y0014960D01*
X0133853Y0014851D01*
X0133839Y0014742D01*
X0133822Y0014633D01*
X0133801Y0014525D01*
X0133776Y0014418D01*
X0133748Y0014312D01*
X0133716Y0014207D01*
X0133680Y0014103D01*
X0133641Y0014000D01*
X0133598Y0013899D01*
X0133551Y0013799D01*
X0133501Y0013701D01*
X0133448Y0013605D01*
X0133391Y0013511D01*
X0133331Y0013419D01*
X0133268Y0013328D01*
X0133202Y0013241D01*
X0133133Y0013155D01*
X0133061Y0013072D01*
X0132986Y0012992D01*
X0132908Y0012914D01*
X0132828Y0012839D01*
X0132745Y0012767D01*
X0132659Y0012698D01*
X0132572Y0012632D01*
X0132481Y0012569D01*
X0132389Y0012509D01*
X0132295Y0012452D01*
X0132199Y0012399D01*
X0132101Y0012349D01*
X0132001Y0012302D01*
X0131900Y0012259D01*
X0131797Y0012220D01*
X0131693Y0012184D01*
X0131588Y0012152D01*
X0131482Y0012124D01*
X0131375Y0012099D01*
X0131267Y0012078D01*
X0131158Y0012061D01*
X0131049Y0012047D01*
X0130940Y0012038D01*
X0130830Y0012032D01*
X0130720Y0012030D01*
X0102768Y0012030D01*
X0102714Y0012028D01*
X0102661Y0012023D01*
X0102608Y0012014D01*
X0102556Y0012001D01*
X0102504Y0011985D01*
X0102454Y0011965D01*
X0102406Y0011942D01*
X0102359Y0011915D01*
X0102314Y0011886D01*
X0102271Y0011853D01*
X0102231Y0011818D01*
X0102193Y0011780D01*
X0102158Y0011740D01*
X0102125Y0011697D01*
X0102096Y0011652D01*
X0102069Y0011605D01*
X0102046Y0011557D01*
X0102026Y0011507D01*
X0102010Y0011455D01*
X0101997Y0011403D01*
X0101988Y0011350D01*
X0101983Y0011297D01*
X0101981Y0011243D01*
X0101959Y0011060D01*
X0101933Y0010878D01*
X0101903Y0010697D01*
X0101868Y0010516D01*
X0101829Y0010337D01*
X0101785Y0010158D01*
X0101738Y0009981D01*
X0101685Y0009805D01*
X0101629Y0009630D01*
X0101568Y0009456D01*
X0101503Y0009284D01*
X0101434Y0009114D01*
X0101361Y0008946D01*
X0101283Y0008779D01*
X0101202Y0008614D01*
X0101116Y0008452D01*
X0101027Y0008291D01*
X0100934Y0008133D01*
X0100836Y0007977D01*
X0100736Y0007823D01*
X0100631Y0007672D01*
X0100523Y0007524D01*
X0100411Y0007378D01*
X0100295Y0007235D01*
X0100176Y0007095D01*
X0100054Y0006957D01*
X0099929Y0006823D01*
X0099800Y0006692D01*
X0099668Y0006564D01*
X0099533Y0006440D01*
X0099395Y0006318D01*
X0099254Y0006201D01*
X0099110Y0006086D01*
X0098963Y0005975D01*
X0098814Y0005868D01*
X0098662Y0005765D01*
X0098508Y0005665D01*
X0098351Y0005569D01*
X0098192Y0005477D01*
X0098031Y0005388D01*
X0097868Y0005304D01*
X0097702Y0005224D01*
X0097535Y0005148D01*
X0097366Y0005075D01*
X0097195Y0005008D01*
X0097023Y0004944D01*
X0096849Y0004884D01*
X0096674Y0004829D01*
X0096497Y0004778D01*
X0096320Y0004731D01*
X0096141Y0004689D01*
X0095961Y0004651D01*
X0095780Y0004618D01*
X0095599Y0004589D01*
X0095417Y0004564D01*
X0095234Y0004544D01*
X0095051Y0004528D01*
X0094867Y0004517D01*
X0094684Y0004510D01*
X0094500Y0004508D01*
X0094316Y0004510D01*
X0094133Y0004517D01*
X0093949Y0004528D01*
X0093766Y0004544D01*
X0093583Y0004564D01*
X0093401Y0004589D01*
X0093220Y0004618D01*
X0093039Y0004651D01*
X0092859Y0004689D01*
X0092680Y0004731D01*
X0092503Y0004778D01*
X0092326Y0004829D01*
X0092151Y0004884D01*
X0091977Y0004944D01*
X0091805Y0005008D01*
X0091634Y0005075D01*
X0091465Y0005148D01*
X0091298Y0005224D01*
X0091132Y0005304D01*
X0090969Y0005388D01*
X0090808Y0005477D01*
X0090649Y0005569D01*
X0090492Y0005665D01*
X0090338Y0005765D01*
X0090186Y0005868D01*
X0090037Y0005975D01*
X0089890Y0006086D01*
X0089746Y0006201D01*
X0089605Y0006318D01*
X0089467Y0006440D01*
X0089332Y0006564D01*
X0089200Y0006692D01*
X0089071Y0006823D01*
X0088946Y0006957D01*
X0088824Y0007095D01*
X0088705Y0007235D01*
X0088589Y0007378D01*
X0088477Y0007524D01*
X0088369Y0007672D01*
X0088264Y0007823D01*
X0088164Y0007977D01*
X0088066Y0008133D01*
X0087973Y0008291D01*
X0087884Y0008452D01*
X0087798Y0008614D01*
X0087717Y0008779D01*
X0087639Y0008946D01*
X0087566Y0009114D01*
X0087497Y0009284D01*
X0087432Y0009456D01*
X0087371Y0009630D01*
X0087315Y0009805D01*
X0087262Y0009981D01*
X0087215Y0010158D01*
X0087171Y0010337D01*
X0087132Y0010516D01*
X0087097Y0010697D01*
X0087067Y0010878D01*
X0087041Y0011060D01*
X0087019Y0011243D01*
X0087017Y0011297D01*
X0087012Y0011350D01*
X0087003Y0011403D01*
X0086990Y0011455D01*
X0086974Y0011507D01*
X0086954Y0011557D01*
X0086931Y0011605D01*
X0086904Y0011652D01*
X0086875Y0011697D01*
X0086842Y0011740D01*
X0086807Y0011780D01*
X0086769Y0011818D01*
X0086729Y0011853D01*
X0086686Y0011886D01*
X0086641Y0011915D01*
X0086594Y0011942D01*
X0086546Y0011965D01*
X0086496Y0011985D01*
X0086444Y0012001D01*
X0086392Y0012014D01*
X0086339Y0012023D01*
X0086286Y0012028D01*
X0086232Y0012030D01*
X0058280Y0012030D01*
X0058170Y0012032D01*
X0058060Y0012038D01*
X0057951Y0012047D01*
X0057842Y0012061D01*
X0057733Y0012078D01*
X0057625Y0012099D01*
X0057518Y0012124D01*
X0057412Y0012152D01*
X0057307Y0012184D01*
X0057203Y0012220D01*
X0057100Y0012259D01*
X0056999Y0012302D01*
X0056899Y0012349D01*
X0056801Y0012399D01*
X0056705Y0012452D01*
X0056611Y0012509D01*
X0056519Y0012569D01*
X0056428Y0012632D01*
X0056341Y0012698D01*
X0056255Y0012767D01*
X0056172Y0012839D01*
X0056092Y0012914D01*
X0056014Y0012992D01*
X0055939Y0013072D01*
X0055867Y0013155D01*
X0055798Y0013241D01*
X0055732Y0013328D01*
X0055669Y0013419D01*
X0055609Y0013511D01*
X0055552Y0013605D01*
X0055499Y0013701D01*
X0055449Y0013799D01*
X0055402Y0013899D01*
X0055359Y0014000D01*
X0055320Y0014103D01*
X0055284Y0014207D01*
X0055252Y0014312D01*
X0055224Y0014418D01*
X0055199Y0014525D01*
X0055178Y0014633D01*
X0055161Y0014742D01*
X0055147Y0014851D01*
X0055138Y0014960D01*
X0055132Y0015070D01*
X0055130Y0015180D01*
X0055132Y0015070D01*
X0055138Y0014960D01*
X0055147Y0014851D01*
X0055161Y0014742D01*
X0055178Y0014633D01*
X0055199Y0014525D01*
X0055224Y0014418D01*
X0055252Y0014312D01*
X0055284Y0014207D01*
X0055320Y0014103D01*
X0055359Y0014000D01*
X0055402Y0013899D01*
X0055449Y0013799D01*
X0055499Y0013701D01*
X0055552Y0013605D01*
X0055609Y0013511D01*
X0055669Y0013419D01*
X0055732Y0013328D01*
X0055798Y0013241D01*
X0055867Y0013155D01*
X0055939Y0013072D01*
X0056014Y0012992D01*
X0056092Y0012914D01*
X0056172Y0012839D01*
X0056255Y0012767D01*
X0056341Y0012698D01*
X0056428Y0012632D01*
X0056519Y0012569D01*
X0056611Y0012509D01*
X0056705Y0012452D01*
X0056801Y0012399D01*
X0056899Y0012349D01*
X0056999Y0012302D01*
X0057100Y0012259D01*
X0057203Y0012220D01*
X0057307Y0012184D01*
X0057412Y0012152D01*
X0057518Y0012124D01*
X0057625Y0012099D01*
X0057733Y0012078D01*
X0057842Y0012061D01*
X0057951Y0012047D01*
X0058060Y0012038D01*
X0058170Y0012032D01*
X0058280Y0012030D01*
X0130720Y0012030D02*
X0130830Y0012032D01*
X0130940Y0012038D01*
X0131049Y0012047D01*
X0131158Y0012061D01*
X0131267Y0012078D01*
X0131375Y0012099D01*
X0131482Y0012124D01*
X0131588Y0012152D01*
X0131693Y0012184D01*
X0131797Y0012220D01*
X0131900Y0012259D01*
X0132001Y0012302D01*
X0132101Y0012349D01*
X0132199Y0012399D01*
X0132295Y0012452D01*
X0132389Y0012509D01*
X0132481Y0012569D01*
X0132572Y0012632D01*
X0132659Y0012698D01*
X0132745Y0012767D01*
X0132828Y0012839D01*
X0132908Y0012914D01*
X0132986Y0012992D01*
X0133061Y0013072D01*
X0133133Y0013155D01*
X0133202Y0013241D01*
X0133268Y0013328D01*
X0133331Y0013419D01*
X0133391Y0013511D01*
X0133448Y0013605D01*
X0133501Y0013701D01*
X0133551Y0013799D01*
X0133598Y0013899D01*
X0133641Y0014000D01*
X0133680Y0014103D01*
X0133716Y0014207D01*
X0133748Y0014312D01*
X0133776Y0014418D01*
X0133801Y0014525D01*
X0133822Y0014633D01*
X0133839Y0014742D01*
X0133853Y0014851D01*
X0133862Y0014960D01*
X0133868Y0015070D01*
X0133870Y0015180D01*
X0133868Y0015070D01*
X0133862Y0014960D01*
X0133853Y0014851D01*
X0133839Y0014742D01*
X0133822Y0014633D01*
X0133801Y0014525D01*
X0133776Y0014418D01*
X0133748Y0014312D01*
X0133716Y0014207D01*
X0133680Y0014103D01*
X0133641Y0014000D01*
X0133598Y0013899D01*
X0133551Y0013799D01*
X0133501Y0013701D01*
X0133448Y0013605D01*
X0133391Y0013511D01*
X0133331Y0013419D01*
X0133268Y0013328D01*
X0133202Y0013241D01*
X0133133Y0013155D01*
X0133061Y0013072D01*
X0132986Y0012992D01*
X0132908Y0012914D01*
X0132828Y0012839D01*
X0132745Y0012767D01*
X0132659Y0012698D01*
X0132572Y0012632D01*
X0132481Y0012569D01*
X0132389Y0012509D01*
X0132295Y0012452D01*
X0132199Y0012399D01*
X0132101Y0012349D01*
X0132001Y0012302D01*
X0131900Y0012259D01*
X0131797Y0012220D01*
X0131693Y0012184D01*
X0131588Y0012152D01*
X0131482Y0012124D01*
X0131375Y0012099D01*
X0131267Y0012078D01*
X0131158Y0012061D01*
X0131049Y0012047D01*
X0130940Y0012038D01*
X0130830Y0012032D01*
X0130720Y0012030D01*
X0133870Y0087620D02*
X0133868Y0087730D01*
X0133862Y0087840D01*
X0133853Y0087949D01*
X0133839Y0088058D01*
X0133822Y0088167D01*
X0133801Y0088275D01*
X0133776Y0088382D01*
X0133748Y0088488D01*
X0133716Y0088593D01*
X0133680Y0088697D01*
X0133641Y0088800D01*
X0133598Y0088901D01*
X0133551Y0089001D01*
X0133501Y0089099D01*
X0133448Y0089195D01*
X0133391Y0089289D01*
X0133331Y0089381D01*
X0133268Y0089472D01*
X0133202Y0089559D01*
X0133133Y0089645D01*
X0133061Y0089728D01*
X0132986Y0089808D01*
X0132908Y0089886D01*
X0132828Y0089961D01*
X0132745Y0090033D01*
X0132659Y0090102D01*
X0132572Y0090168D01*
X0132481Y0090231D01*
X0132389Y0090291D01*
X0132295Y0090348D01*
X0132199Y0090401D01*
X0132101Y0090451D01*
X0132001Y0090498D01*
X0131900Y0090541D01*
X0131797Y0090580D01*
X0131693Y0090616D01*
X0131588Y0090648D01*
X0131482Y0090676D01*
X0131375Y0090701D01*
X0131267Y0090722D01*
X0131158Y0090739D01*
X0131049Y0090753D01*
X0130940Y0090762D01*
X0130830Y0090768D01*
X0130720Y0090770D01*
X0130830Y0090768D01*
X0130940Y0090762D01*
X0131049Y0090753D01*
X0131158Y0090739D01*
X0131267Y0090722D01*
X0131375Y0090701D01*
X0131482Y0090676D01*
X0131588Y0090648D01*
X0131693Y0090616D01*
X0131797Y0090580D01*
X0131900Y0090541D01*
X0132001Y0090498D01*
X0132101Y0090451D01*
X0132199Y0090401D01*
X0132295Y0090348D01*
X0132389Y0090291D01*
X0132481Y0090231D01*
X0132572Y0090168D01*
X0132659Y0090102D01*
X0132745Y0090033D01*
X0132828Y0089961D01*
X0132908Y0089886D01*
X0132986Y0089808D01*
X0133061Y0089728D01*
X0133133Y0089645D01*
X0133202Y0089559D01*
X0133268Y0089472D01*
X0133331Y0089381D01*
X0133391Y0089289D01*
X0133448Y0089195D01*
X0133501Y0089099D01*
X0133551Y0089001D01*
X0133598Y0088901D01*
X0133641Y0088800D01*
X0133680Y0088697D01*
X0133716Y0088593D01*
X0133748Y0088488D01*
X0133776Y0088382D01*
X0133801Y0088275D01*
X0133822Y0088167D01*
X0133839Y0088058D01*
X0133853Y0087949D01*
X0133862Y0087840D01*
X0133868Y0087730D01*
X0133870Y0087620D01*
X0058280Y0090770D02*
X0058170Y0090768D01*
X0058060Y0090762D01*
X0057951Y0090753D01*
X0057842Y0090739D01*
X0057733Y0090722D01*
X0057625Y0090701D01*
X0057518Y0090676D01*
X0057412Y0090648D01*
X0057307Y0090616D01*
X0057203Y0090580D01*
X0057100Y0090541D01*
X0056999Y0090498D01*
X0056899Y0090451D01*
X0056801Y0090401D01*
X0056705Y0090348D01*
X0056611Y0090291D01*
X0056519Y0090231D01*
X0056428Y0090168D01*
X0056341Y0090102D01*
X0056255Y0090033D01*
X0056172Y0089961D01*
X0056092Y0089886D01*
X0056014Y0089808D01*
X0055939Y0089728D01*
X0055867Y0089645D01*
X0055798Y0089559D01*
X0055732Y0089472D01*
X0055669Y0089381D01*
X0055609Y0089289D01*
X0055552Y0089195D01*
X0055499Y0089099D01*
X0055449Y0089001D01*
X0055402Y0088901D01*
X0055359Y0088800D01*
X0055320Y0088697D01*
X0055284Y0088593D01*
X0055252Y0088488D01*
X0055224Y0088382D01*
X0055199Y0088275D01*
X0055178Y0088167D01*
X0055161Y0088058D01*
X0055147Y0087949D01*
X0055138Y0087840D01*
X0055132Y0087730D01*
X0055130Y0087620D01*
D14*
X0069500Y0038900D03*
D15*
X0069500Y0048900D03*
X0069500Y0058900D03*
D16*
X0069113Y0058587D02*
X0063422Y0058587D01*
X0062717Y0059385D02*
X0065544Y0059385D01*
X0065525Y0059291D02*
X0065525Y0059287D01*
X0069113Y0059287D01*
X0069113Y0058513D01*
X0065525Y0058513D01*
X0065525Y0058509D01*
X0065678Y0057741D01*
X0065978Y0057017D01*
X0066413Y0056366D01*
X0066966Y0055813D01*
X0067617Y0055378D01*
X0068341Y0055078D01*
X0069109Y0054925D01*
X0069113Y0054925D01*
X0069113Y0058513D01*
X0069887Y0058513D01*
X0069887Y0054925D01*
X0069891Y0054925D01*
X0070659Y0055078D01*
X0071383Y0055378D01*
X0072034Y0055813D01*
X0072587Y0056366D01*
X0073022Y0057017D01*
X0073322Y0057741D01*
X0073475Y0058509D01*
X0073475Y0058513D01*
X0069887Y0058513D01*
X0069887Y0059287D01*
X0069113Y0059287D01*
X0069113Y0062875D01*
X0069109Y0062875D01*
X0068341Y0062722D01*
X0067617Y0062422D01*
X0066966Y0061987D01*
X0066413Y0061434D01*
X0065978Y0060783D01*
X0065678Y0060059D01*
X0065525Y0059291D01*
X0065729Y0060184D02*
X0061993Y0060184D01*
X0062028Y0060165D02*
X0058481Y0062039D01*
X0056985Y0062226D01*
X0056912Y0062299D01*
X0056580Y0062299D01*
X0056580Y0087620D01*
X0056638Y0088060D01*
X0057078Y0088822D01*
X0057840Y0089262D01*
X0058280Y0089320D01*
X0086544Y0089320D01*
X0087765Y0090025D01*
X0088470Y0091246D01*
X0088470Y0091796D01*
X0088714Y0092774D01*
X0089766Y0094653D01*
X0091403Y0096052D01*
X0093423Y0096798D01*
X0095577Y0096798D01*
X0097597Y0096052D01*
X0099234Y0094653D01*
X0100286Y0092774D01*
X0100530Y0091796D01*
X0100530Y0091246D01*
X0101235Y0090025D01*
X0101235Y0090025D01*
X0101235Y0090025D01*
X0101772Y0089715D01*
X0102167Y0089320D01*
X0130720Y0089320D01*
X0131160Y0089262D01*
X0131922Y0088822D01*
X0132362Y0088060D01*
X0132420Y0087620D01*
X0132420Y0062299D01*
X0132088Y0062299D01*
X0132015Y0062226D01*
X0130519Y0062039D01*
X0130519Y0062039D01*
X0126972Y0060165D01*
X0124317Y0057158D01*
X0124317Y0057158D01*
X0122898Y0053406D01*
X0122898Y0049394D01*
X0124317Y0045642D01*
X0126972Y0042635D01*
X0130519Y0040761D01*
X0132015Y0040574D01*
X0132088Y0040501D01*
X0132420Y0040501D01*
X0132420Y0015780D01*
X0132420Y0015180D01*
X0132362Y0014740D01*
X0131922Y0013978D01*
X0131160Y0013538D01*
X0130720Y0013480D01*
X0102167Y0013480D01*
X0102166Y0013478D01*
X0101130Y0012880D01*
X0100630Y0012015D01*
X0100601Y0011992D01*
X0100598Y0011959D01*
X0100530Y0011842D01*
X0100530Y0011354D01*
X0100321Y0010305D01*
X0099317Y0008333D01*
X0099317Y0008333D01*
X0097672Y0006853D01*
X0095606Y0006060D01*
X0093394Y0006060D01*
X0091328Y0006853D01*
X0089683Y0008333D01*
X0088679Y0010305D01*
X0088470Y0011354D01*
X0088470Y0011842D01*
X0088402Y0011959D01*
X0088399Y0011992D01*
X0088370Y0012015D01*
X0087870Y0012880D01*
X0087870Y0012880D01*
X0086834Y0013478D01*
X0086833Y0013480D01*
X0058280Y0013480D01*
X0057840Y0013538D01*
X0057078Y0013978D01*
X0056638Y0014740D01*
X0056580Y0015180D01*
X0056580Y0040501D01*
X0056912Y0040501D01*
X0056985Y0040574D01*
X0058481Y0040761D01*
X0058481Y0040761D01*
X0062028Y0042635D01*
X0064683Y0045642D01*
X0064683Y0045642D01*
X0065573Y0047994D01*
X0066130Y0046648D01*
X0067248Y0045530D01*
X0068709Y0044925D01*
X0070291Y0044925D01*
X0071752Y0045530D01*
X0072870Y0046648D01*
X0073475Y0048109D01*
X0073475Y0049691D01*
X0073453Y0049742D01*
X0079700Y0055989D01*
X0079700Y0064311D01*
X0078411Y0065600D01*
X0075411Y0068600D01*
X0064962Y0068600D01*
X0064068Y0069494D01*
X0062726Y0070050D01*
X0061274Y0070050D01*
X0059932Y0069494D01*
X0058906Y0068468D01*
X0058350Y0067126D01*
X0058350Y0065674D01*
X0058906Y0064332D01*
X0059932Y0063306D01*
X0061274Y0062750D01*
X0062726Y0062750D01*
X0064068Y0063306D01*
X0064962Y0064200D01*
X0073589Y0064200D01*
X0075300Y0062489D01*
X0075300Y0057811D01*
X0070342Y0052853D01*
X0070291Y0052875D01*
X0068709Y0052875D01*
X0067248Y0052270D01*
X0066130Y0051152D01*
X0066102Y0051084D01*
X0066102Y0053406D01*
X0064683Y0057158D01*
X0062028Y0060165D01*
X0062028Y0060165D01*
X0062028Y0060165D01*
X0060482Y0060982D02*
X0066111Y0060982D01*
X0066759Y0061781D02*
X0058970Y0061781D01*
X0058481Y0062039D02*
X0058481Y0062039D01*
X0059860Y0063378D02*
X0056580Y0063378D01*
X0056580Y0064176D02*
X0059062Y0064176D01*
X0058640Y0064975D02*
X0056580Y0064975D01*
X0056580Y0065773D02*
X0058350Y0065773D01*
X0058350Y0066572D02*
X0056580Y0066572D01*
X0056580Y0067370D02*
X0058451Y0067370D01*
X0058782Y0068169D02*
X0056580Y0068169D01*
X0056580Y0068967D02*
X0059405Y0068967D01*
X0060588Y0069766D02*
X0056580Y0069766D01*
X0056580Y0070564D02*
X0104935Y0070564D01*
X0105216Y0070707D02*
X0104564Y0070375D01*
X0103972Y0069945D01*
X0103455Y0069428D01*
X0103025Y0068836D01*
X0102692Y0068184D01*
X0102466Y0067488D01*
X0102357Y0066800D01*
X0106600Y0066800D01*
X0106600Y0071043D01*
X0105912Y0070934D01*
X0105216Y0070707D01*
X0105912Y0071866D02*
X0105216Y0072092D01*
X0104564Y0072425D01*
X0103972Y0072855D01*
X0103455Y0073372D01*
X0103025Y0073964D01*
X0102692Y0074616D01*
X0102466Y0075312D01*
X0102357Y0076000D01*
X0106600Y0076000D01*
X0106600Y0076800D01*
X0106600Y0081043D01*
X0105912Y0080934D01*
X0105216Y0080707D01*
X0104564Y0080375D01*
X0103972Y0079945D01*
X0103455Y0079428D01*
X0103025Y0078836D01*
X0102692Y0078184D01*
X0102466Y0077488D01*
X0102357Y0076800D01*
X0106600Y0076800D01*
X0107400Y0076800D01*
X0107400Y0081043D01*
X0108088Y0080934D01*
X0108784Y0080707D01*
X0109436Y0080375D01*
X0110028Y0079945D01*
X0110545Y0079428D01*
X0110975Y0078836D01*
X0111307Y0078184D01*
X0111534Y0077488D01*
X0111643Y0076800D01*
X0107400Y0076800D01*
X0107400Y0076000D01*
X0111643Y0076000D01*
X0111534Y0075312D01*
X0111307Y0074616D01*
X0110975Y0073964D01*
X0110545Y0073372D01*
X0110028Y0072855D01*
X0109436Y0072425D01*
X0108784Y0072092D01*
X0108088Y0071866D01*
X0107400Y0071757D01*
X0107400Y0076000D01*
X0106600Y0076000D01*
X0106600Y0071757D01*
X0105912Y0071866D01*
X0106600Y0072161D02*
X0107400Y0072161D01*
X0107400Y0072960D02*
X0106600Y0072960D01*
X0106600Y0073758D02*
X0107400Y0073758D01*
X0107400Y0074557D02*
X0106600Y0074557D01*
X0106600Y0075355D02*
X0107400Y0075355D01*
X0107400Y0076154D02*
X0112352Y0076154D01*
X0112352Y0075475D02*
X0113060Y0073767D01*
X0114367Y0072460D01*
X0116075Y0071752D01*
X0117925Y0071752D01*
X0119633Y0072460D01*
X0120940Y0073767D01*
X0121648Y0075475D01*
X0121648Y0077325D01*
X0120940Y0079033D01*
X0119633Y0080340D01*
X0117925Y0081048D01*
X0116075Y0081048D01*
X0114367Y0080340D01*
X0113060Y0079033D01*
X0112352Y0077325D01*
X0112352Y0075475D01*
X0112402Y0075355D02*
X0111541Y0075355D01*
X0111277Y0074557D02*
X0112732Y0074557D01*
X0113068Y0073758D02*
X0110826Y0073758D01*
X0110133Y0072960D02*
X0113867Y0072960D01*
X0115087Y0072161D02*
X0108919Y0072161D01*
X0108784Y0070707D02*
X0108088Y0070934D01*
X0107400Y0071043D01*
X0107400Y0066800D01*
X0106600Y0066800D01*
X0106600Y0066000D01*
X0102357Y0066000D01*
X0102466Y0065312D01*
X0102692Y0064616D01*
X0103025Y0063964D01*
X0103455Y0063372D01*
X0103972Y0062855D01*
X0104564Y0062425D01*
X0105216Y0062092D01*
X0105912Y0061866D01*
X0106600Y0061757D01*
X0106600Y0066000D01*
X0107400Y0066000D01*
X0107400Y0066800D01*
X0111643Y0066800D01*
X0111534Y0067488D01*
X0111307Y0068184D01*
X0110975Y0068836D01*
X0110545Y0069428D01*
X0110028Y0069945D01*
X0109436Y0070375D01*
X0108784Y0070707D01*
X0109065Y0070564D02*
X0114908Y0070564D01*
X0114367Y0070340D02*
X0116075Y0071048D01*
X0117925Y0071048D01*
X0119633Y0070340D01*
X0120940Y0069033D01*
X0121648Y0067325D01*
X0121648Y0065475D01*
X0120940Y0063767D01*
X0119633Y0062460D01*
X0119200Y0062280D01*
X0119200Y0030811D01*
X0124961Y0025050D01*
X0125027Y0025050D01*
X0126001Y0024647D01*
X0126747Y0023901D01*
X0127150Y0022927D01*
X0127150Y0021873D01*
X0126747Y0020899D01*
X0126001Y0020153D01*
X0125027Y0019750D01*
X0123973Y0019750D01*
X0122999Y0020153D01*
X0122253Y0020899D01*
X0121850Y0021873D01*
X0121850Y0021939D01*
X0114800Y0028989D01*
X0114800Y0062280D01*
X0114367Y0062460D01*
X0113060Y0063767D01*
X0112352Y0065475D01*
X0112352Y0067325D01*
X0113060Y0069033D01*
X0114367Y0070340D01*
X0113792Y0069766D02*
X0110208Y0069766D01*
X0110880Y0068967D02*
X0113032Y0068967D01*
X0112702Y0068169D02*
X0111313Y0068169D01*
X0111552Y0067370D02*
X0112371Y0067370D01*
X0112352Y0066572D02*
X0107400Y0066572D01*
X0107400Y0066000D02*
X0111643Y0066000D01*
X0111534Y0065312D01*
X0111307Y0064616D01*
X0110975Y0063964D01*
X0110545Y0063372D01*
X0110028Y0062855D01*
X0109436Y0062425D01*
X0108784Y0062092D01*
X0108088Y0061866D01*
X0107400Y0061757D01*
X0107400Y0066000D01*
X0107400Y0065773D02*
X0106600Y0065773D01*
X0106600Y0064975D02*
X0107400Y0064975D01*
X0107400Y0064176D02*
X0106600Y0064176D01*
X0106600Y0063378D02*
X0107400Y0063378D01*
X0107400Y0062579D02*
X0106600Y0062579D01*
X0106600Y0061781D02*
X0107400Y0061781D01*
X0107547Y0061781D02*
X0114800Y0061781D01*
X0114800Y0060982D02*
X0079700Y0060982D01*
X0079700Y0060184D02*
X0114800Y0060184D01*
X0114800Y0059385D02*
X0079700Y0059385D01*
X0079700Y0058587D02*
X0114800Y0058587D01*
X0114800Y0057788D02*
X0079700Y0057788D01*
X0079700Y0056990D02*
X0114800Y0056990D01*
X0114800Y0056191D02*
X0079700Y0056191D01*
X0079104Y0055393D02*
X0114800Y0055393D01*
X0114800Y0054594D02*
X0078305Y0054594D01*
X0077507Y0053796D02*
X0114800Y0053796D01*
X0114800Y0052997D02*
X0076708Y0052997D01*
X0075910Y0052199D02*
X0114800Y0052199D01*
X0114800Y0051400D02*
X0075111Y0051400D01*
X0074313Y0050601D02*
X0114800Y0050601D01*
X0114800Y0049803D02*
X0073514Y0049803D01*
X0073475Y0049004D02*
X0114800Y0049004D01*
X0114800Y0048206D02*
X0073475Y0048206D01*
X0073184Y0047407D02*
X0114800Y0047407D01*
X0114800Y0046609D02*
X0072830Y0046609D01*
X0072032Y0045810D02*
X0114800Y0045810D01*
X0114800Y0045012D02*
X0070500Y0045012D01*
X0068500Y0045012D02*
X0064127Y0045012D01*
X0064747Y0045810D02*
X0066968Y0045810D01*
X0066170Y0046609D02*
X0065049Y0046609D01*
X0065351Y0047407D02*
X0065816Y0047407D01*
X0063422Y0044213D02*
X0114800Y0044213D01*
X0114800Y0043415D02*
X0062717Y0043415D01*
X0062028Y0042635D02*
X0062028Y0042635D01*
X0061993Y0042616D02*
X0066087Y0042616D01*
X0066345Y0042875D02*
X0065525Y0042055D01*
X0065525Y0035745D01*
X0066345Y0034925D01*
X0067300Y0034925D01*
X0067300Y0031311D01*
X0064775Y0028787D01*
X0064068Y0029494D01*
X0062726Y0030050D01*
X0061274Y0030050D01*
X0059932Y0029494D01*
X0058906Y0028468D01*
X0058350Y0027126D01*
X0058350Y0025674D01*
X0058906Y0024332D01*
X0059932Y0023306D01*
X0061274Y0022750D01*
X0062726Y0022750D01*
X0064068Y0023306D01*
X0064962Y0024200D01*
X0066411Y0024200D01*
X0070411Y0028200D01*
X0071700Y0029489D01*
X0071700Y0034925D01*
X0072655Y0034925D01*
X0073475Y0035745D01*
X0073475Y0042055D01*
X0072655Y0042875D01*
X0066345Y0042875D01*
X0065525Y0041818D02*
X0060482Y0041818D01*
X0058970Y0041019D02*
X0065525Y0041019D01*
X0065525Y0040221D02*
X0056580Y0040221D01*
X0056580Y0039422D02*
X0065525Y0039422D01*
X0065525Y0038624D02*
X0056580Y0038624D01*
X0056580Y0037825D02*
X0065525Y0037825D01*
X0065525Y0037027D02*
X0056580Y0037027D01*
X0056580Y0036228D02*
X0065525Y0036228D01*
X0065841Y0035430D02*
X0056580Y0035430D01*
X0056580Y0034631D02*
X0067300Y0034631D01*
X0067300Y0033833D02*
X0056580Y0033833D01*
X0056580Y0033034D02*
X0067300Y0033034D01*
X0067300Y0032236D02*
X0056580Y0032236D01*
X0056580Y0031437D02*
X0067300Y0031437D01*
X0066627Y0030639D02*
X0056580Y0030639D01*
X0056580Y0029840D02*
X0060767Y0029840D01*
X0059480Y0029042D02*
X0056580Y0029042D01*
X0056580Y0028243D02*
X0058813Y0028243D01*
X0058482Y0027445D02*
X0056580Y0027445D01*
X0056580Y0026646D02*
X0058350Y0026646D01*
X0058350Y0025848D02*
X0056580Y0025848D01*
X0056580Y0025049D02*
X0058609Y0025049D01*
X0058987Y0024251D02*
X0056580Y0024251D01*
X0056580Y0023452D02*
X0059786Y0023452D01*
X0056580Y0022654D02*
X0121135Y0022654D01*
X0121857Y0021855D02*
X0056580Y0021855D01*
X0056580Y0021057D02*
X0122188Y0021057D01*
X0122894Y0020258D02*
X0056580Y0020258D01*
X0056580Y0019460D02*
X0132420Y0019460D01*
X0132420Y0020258D02*
X0126106Y0020258D01*
X0126812Y0021057D02*
X0132420Y0021057D01*
X0132420Y0021855D02*
X0127143Y0021855D01*
X0127150Y0022654D02*
X0132420Y0022654D01*
X0132420Y0023452D02*
X0126933Y0023452D01*
X0126397Y0024251D02*
X0132420Y0024251D01*
X0132420Y0025049D02*
X0125029Y0025049D01*
X0124164Y0025848D02*
X0132420Y0025848D01*
X0132420Y0026646D02*
X0123365Y0026646D01*
X0122567Y0027445D02*
X0132420Y0027445D01*
X0132420Y0028243D02*
X0121768Y0028243D01*
X0120970Y0029042D02*
X0132420Y0029042D01*
X0132420Y0029840D02*
X0120171Y0029840D01*
X0119373Y0030639D02*
X0132420Y0030639D01*
X0132420Y0031437D02*
X0119200Y0031437D01*
X0119200Y0032236D02*
X0132420Y0032236D01*
X0132420Y0033034D02*
X0119200Y0033034D01*
X0119200Y0033833D02*
X0132420Y0033833D01*
X0132420Y0034631D02*
X0119200Y0034631D01*
X0119200Y0035430D02*
X0132420Y0035430D01*
X0132420Y0036228D02*
X0119200Y0036228D01*
X0119200Y0037027D02*
X0132420Y0037027D01*
X0132420Y0037825D02*
X0119200Y0037825D01*
X0119200Y0038624D02*
X0132420Y0038624D01*
X0132420Y0039422D02*
X0119200Y0039422D01*
X0119200Y0040221D02*
X0132420Y0040221D01*
X0130519Y0040761D02*
X0130519Y0040761D01*
X0130030Y0041019D02*
X0119200Y0041019D01*
X0119200Y0041818D02*
X0128518Y0041818D01*
X0127007Y0042616D02*
X0119200Y0042616D01*
X0119200Y0043415D02*
X0126283Y0043415D01*
X0126972Y0042635D02*
X0126972Y0042635D01*
X0125578Y0044213D02*
X0119200Y0044213D01*
X0119200Y0045012D02*
X0124873Y0045012D01*
X0124317Y0045642D02*
X0124317Y0045642D01*
X0124253Y0045810D02*
X0119200Y0045810D01*
X0119200Y0046609D02*
X0123951Y0046609D01*
X0123649Y0047407D02*
X0119200Y0047407D01*
X0119200Y0048206D02*
X0123347Y0048206D01*
X0123045Y0049004D02*
X0119200Y0049004D01*
X0119200Y0049803D02*
X0122898Y0049803D01*
X0122898Y0050601D02*
X0119200Y0050601D01*
X0119200Y0051400D02*
X0122898Y0051400D01*
X0122898Y0052199D02*
X0119200Y0052199D01*
X0119200Y0052997D02*
X0122898Y0052997D01*
X0123045Y0053796D02*
X0119200Y0053796D01*
X0119200Y0054594D02*
X0123347Y0054594D01*
X0123649Y0055393D02*
X0119200Y0055393D01*
X0119200Y0056191D02*
X0123951Y0056191D01*
X0124253Y0056990D02*
X0119200Y0056990D01*
X0119200Y0057788D02*
X0124873Y0057788D01*
X0125578Y0058587D02*
X0119200Y0058587D01*
X0119200Y0059385D02*
X0126283Y0059385D01*
X0126972Y0060165D02*
X0126972Y0060165D01*
X0127007Y0060184D02*
X0119200Y0060184D01*
X0119200Y0060982D02*
X0128518Y0060982D01*
X0130030Y0061781D02*
X0119200Y0061781D01*
X0119752Y0062579D02*
X0132420Y0062579D01*
X0132420Y0063378D02*
X0120551Y0063378D01*
X0121110Y0064176D02*
X0132420Y0064176D01*
X0132420Y0064975D02*
X0121441Y0064975D01*
X0121648Y0065773D02*
X0132420Y0065773D01*
X0132420Y0066572D02*
X0121648Y0066572D01*
X0121629Y0067370D02*
X0132420Y0067370D01*
X0132420Y0068169D02*
X0121298Y0068169D01*
X0120968Y0068967D02*
X0132420Y0068967D01*
X0132420Y0069766D02*
X0120208Y0069766D01*
X0119092Y0070564D02*
X0132420Y0070564D01*
X0132420Y0071363D02*
X0056580Y0071363D01*
X0056580Y0072161D02*
X0105081Y0072161D01*
X0103867Y0072960D02*
X0056580Y0072960D01*
X0056580Y0073758D02*
X0103174Y0073758D01*
X0102723Y0074557D02*
X0056580Y0074557D01*
X0056580Y0075355D02*
X0102459Y0075355D01*
X0102382Y0076952D02*
X0056580Y0076952D01*
X0056580Y0076154D02*
X0106600Y0076154D01*
X0106600Y0076952D02*
X0107400Y0076952D01*
X0107400Y0077751D02*
X0106600Y0077751D01*
X0106600Y0078549D02*
X0107400Y0078549D01*
X0107400Y0079348D02*
X0106600Y0079348D01*
X0106600Y0080146D02*
X0107400Y0080146D01*
X0107400Y0080945D02*
X0106600Y0080945D01*
X0105983Y0080945D02*
X0056580Y0080945D01*
X0056580Y0081743D02*
X0132420Y0081743D01*
X0132420Y0080945D02*
X0118173Y0080945D01*
X0119827Y0080146D02*
X0132420Y0080146D01*
X0132420Y0079348D02*
X0120625Y0079348D01*
X0121141Y0078549D02*
X0132420Y0078549D01*
X0132420Y0077751D02*
X0121471Y0077751D01*
X0121648Y0076952D02*
X0132420Y0076952D01*
X0132420Y0076154D02*
X0121648Y0076154D01*
X0121598Y0075355D02*
X0132420Y0075355D01*
X0132420Y0074557D02*
X0121268Y0074557D01*
X0120932Y0073758D02*
X0132420Y0073758D01*
X0132420Y0072960D02*
X0120133Y0072960D01*
X0118913Y0072161D02*
X0132420Y0072161D01*
X0132420Y0082542D02*
X0056580Y0082542D01*
X0056580Y0083340D02*
X0132420Y0083340D01*
X0132420Y0084139D02*
X0056580Y0084139D01*
X0056580Y0084937D02*
X0132420Y0084937D01*
X0132420Y0085736D02*
X0097322Y0085736D01*
X0097746Y0085912D02*
X0099358Y0087524D01*
X0100231Y0089630D01*
X0100231Y0091910D01*
X0099358Y0094016D01*
X0097746Y0095628D01*
X0095640Y0096501D01*
X0093360Y0096501D01*
X0091254Y0095628D01*
X0089642Y0094016D01*
X0088769Y0091910D01*
X0088769Y0089630D01*
X0089642Y0087524D01*
X0091254Y0085912D01*
X0093360Y0085039D01*
X0095640Y0085039D01*
X0097746Y0085912D01*
X0098369Y0086534D02*
X0132420Y0086534D01*
X0132420Y0087333D02*
X0099167Y0087333D01*
X0099610Y0088132D02*
X0132321Y0088132D01*
X0131736Y0088930D02*
X0099941Y0088930D01*
X0100231Y0089729D02*
X0101749Y0089729D01*
X0100945Y0090527D02*
X0100231Y0090527D01*
X0100231Y0091326D02*
X0100530Y0091326D01*
X0100448Y0092124D02*
X0100142Y0092124D01*
X0100203Y0092923D02*
X0099811Y0092923D01*
X0099756Y0093721D02*
X0099481Y0093721D01*
X0099309Y0094520D02*
X0098855Y0094520D01*
X0098456Y0095318D02*
X0098056Y0095318D01*
X0097422Y0096117D02*
X0096567Y0096117D01*
X0092433Y0096117D02*
X0091578Y0096117D01*
X0090944Y0095318D02*
X0090544Y0095318D01*
X0090145Y0094520D02*
X0089691Y0094520D01*
X0089519Y0093721D02*
X0089244Y0093721D01*
X0089189Y0092923D02*
X0088797Y0092923D01*
X0088858Y0092124D02*
X0088552Y0092124D01*
X0088470Y0091326D02*
X0088769Y0091326D01*
X0088769Y0090527D02*
X0088054Y0090527D01*
X0087765Y0090025D02*
X0087765Y0090025D01*
X0087765Y0090025D01*
X0087251Y0089729D02*
X0088769Y0089729D01*
X0089059Y0088930D02*
X0057264Y0088930D01*
X0056679Y0088132D02*
X0089390Y0088132D01*
X0089833Y0087333D02*
X0056580Y0087333D01*
X0056580Y0086534D02*
X0090631Y0086534D01*
X0091678Y0085736D02*
X0056580Y0085736D01*
X0056580Y0080146D02*
X0104249Y0080146D01*
X0103396Y0079348D02*
X0056580Y0079348D01*
X0056580Y0078549D02*
X0102879Y0078549D01*
X0102552Y0077751D02*
X0056580Y0077751D01*
X0063412Y0069766D02*
X0103792Y0069766D01*
X0103120Y0068967D02*
X0064595Y0068967D01*
X0064938Y0064176D02*
X0073613Y0064176D01*
X0074411Y0063378D02*
X0064140Y0063378D01*
X0067996Y0062579D02*
X0056580Y0062579D01*
X0064127Y0057788D02*
X0065668Y0057788D01*
X0065996Y0056990D02*
X0064747Y0056990D01*
X0064683Y0057158D02*
X0064683Y0057158D01*
X0065049Y0056191D02*
X0066588Y0056191D01*
X0067595Y0055393D02*
X0065351Y0055393D01*
X0065653Y0054594D02*
X0072083Y0054594D01*
X0071405Y0055393D02*
X0072881Y0055393D01*
X0072412Y0056191D02*
X0073680Y0056191D01*
X0073004Y0056990D02*
X0074478Y0056990D01*
X0075277Y0057788D02*
X0073331Y0057788D01*
X0073475Y0059287D02*
X0073475Y0059291D01*
X0073322Y0060059D01*
X0073022Y0060783D01*
X0072587Y0061434D01*
X0072034Y0061987D01*
X0071383Y0062422D01*
X0070659Y0062722D01*
X0069891Y0062875D01*
X0069887Y0062875D01*
X0069887Y0059287D01*
X0073475Y0059287D01*
X0073456Y0059385D02*
X0075300Y0059385D01*
X0075300Y0058587D02*
X0069887Y0058587D01*
X0069887Y0059385D02*
X0069113Y0059385D01*
X0069113Y0060184D02*
X0069887Y0060184D01*
X0069887Y0060982D02*
X0069113Y0060982D01*
X0069113Y0061781D02*
X0069887Y0061781D01*
X0069887Y0062579D02*
X0069113Y0062579D01*
X0071004Y0062579D02*
X0075210Y0062579D01*
X0075300Y0061781D02*
X0072241Y0061781D01*
X0072889Y0060982D02*
X0075300Y0060982D01*
X0075300Y0060184D02*
X0073271Y0060184D01*
X0069887Y0057788D02*
X0069113Y0057788D01*
X0069113Y0056990D02*
X0069887Y0056990D01*
X0069887Y0056191D02*
X0069113Y0056191D01*
X0069113Y0055393D02*
X0069887Y0055393D01*
X0071284Y0053796D02*
X0065955Y0053796D01*
X0066102Y0052997D02*
X0070486Y0052997D01*
X0067177Y0052199D02*
X0066102Y0052199D01*
X0066102Y0051400D02*
X0066379Y0051400D01*
X0072913Y0042616D02*
X0114800Y0042616D01*
X0114800Y0041818D02*
X0073475Y0041818D01*
X0073475Y0041019D02*
X0114800Y0041019D01*
X0114800Y0040221D02*
X0073475Y0040221D01*
X0073475Y0039422D02*
X0114800Y0039422D01*
X0114800Y0038624D02*
X0073475Y0038624D01*
X0073475Y0037825D02*
X0114800Y0037825D01*
X0114800Y0037027D02*
X0073475Y0037027D01*
X0073475Y0036228D02*
X0114800Y0036228D01*
X0114800Y0035430D02*
X0073159Y0035430D01*
X0071700Y0034631D02*
X0114800Y0034631D01*
X0114800Y0033833D02*
X0071700Y0033833D01*
X0071700Y0033034D02*
X0114800Y0033034D01*
X0114800Y0032236D02*
X0071700Y0032236D01*
X0071700Y0031437D02*
X0114800Y0031437D01*
X0114800Y0030639D02*
X0071700Y0030639D01*
X0071700Y0029840D02*
X0114800Y0029840D01*
X0114800Y0029042D02*
X0071253Y0029042D01*
X0070454Y0028243D02*
X0115546Y0028243D01*
X0116344Y0027445D02*
X0069656Y0027445D01*
X0068857Y0026646D02*
X0117143Y0026646D01*
X0117941Y0025848D02*
X0068059Y0025848D01*
X0067260Y0025049D02*
X0118740Y0025049D01*
X0119538Y0024251D02*
X0066462Y0024251D01*
X0064214Y0023452D02*
X0120337Y0023452D01*
X0132420Y0018661D02*
X0056580Y0018661D01*
X0056580Y0017863D02*
X0132420Y0017863D01*
X0132420Y0017064D02*
X0097322Y0017064D01*
X0097746Y0016888D02*
X0095640Y0017761D01*
X0093360Y0017761D01*
X0091254Y0016888D01*
X0089642Y0015276D01*
X0088769Y0013170D01*
X0088769Y0010890D01*
X0089642Y0008784D01*
X0091254Y0007172D01*
X0093360Y0006299D01*
X0095640Y0006299D01*
X0097746Y0007172D01*
X0099358Y0008784D01*
X0100231Y0010890D01*
X0100231Y0013170D01*
X0099358Y0015276D01*
X0097746Y0016888D01*
X0098369Y0016266D02*
X0132420Y0016266D01*
X0132420Y0015467D02*
X0099167Y0015467D01*
X0099610Y0014668D02*
X0132321Y0014668D01*
X0131736Y0013870D02*
X0099941Y0013870D01*
X0100231Y0013071D02*
X0101461Y0013071D01*
X0101130Y0012880D02*
X0101130Y0012880D01*
X0101130Y0012880D01*
X0100779Y0012273D02*
X0100231Y0012273D01*
X0100231Y0011474D02*
X0100530Y0011474D01*
X0100395Y0010676D02*
X0100142Y0010676D01*
X0100104Y0009877D02*
X0099811Y0009877D01*
X0099697Y0009079D02*
X0099481Y0009079D01*
X0099258Y0008280D02*
X0098855Y0008280D01*
X0098371Y0007482D02*
X0098056Y0007482D01*
X0097231Y0006683D02*
X0096567Y0006683D01*
X0092433Y0006683D02*
X0091769Y0006683D01*
X0090944Y0007482D02*
X0090629Y0007482D01*
X0090145Y0008280D02*
X0089742Y0008280D01*
X0089519Y0009079D02*
X0089303Y0009079D01*
X0089189Y0009877D02*
X0088896Y0009877D01*
X0088858Y0010676D02*
X0088605Y0010676D01*
X0088470Y0011474D02*
X0088769Y0011474D01*
X0088769Y0012273D02*
X0088221Y0012273D01*
X0087870Y0012880D02*
X0087870Y0012880D01*
X0087539Y0013071D02*
X0088769Y0013071D01*
X0089059Y0013870D02*
X0057264Y0013870D01*
X0056679Y0014668D02*
X0089390Y0014668D01*
X0089833Y0015467D02*
X0056580Y0015467D01*
X0056580Y0016266D02*
X0090631Y0016266D01*
X0091678Y0017064D02*
X0056580Y0017064D01*
X0064520Y0029042D02*
X0065030Y0029042D01*
X0065829Y0029840D02*
X0063233Y0029840D01*
X0079700Y0061781D02*
X0106453Y0061781D01*
X0104351Y0062579D02*
X0079700Y0062579D01*
X0079700Y0063378D02*
X0103451Y0063378D01*
X0102916Y0064176D02*
X0079700Y0064176D01*
X0079037Y0064975D02*
X0102576Y0064975D01*
X0102393Y0065773D02*
X0078238Y0065773D01*
X0077440Y0066572D02*
X0106600Y0066572D01*
X0106600Y0067370D02*
X0107400Y0067370D01*
X0107400Y0068169D02*
X0106600Y0068169D01*
X0106600Y0068967D02*
X0107400Y0068967D01*
X0107400Y0069766D02*
X0106600Y0069766D01*
X0106600Y0070564D02*
X0107400Y0070564D01*
X0102687Y0068169D02*
X0075843Y0068169D01*
X0076641Y0067370D02*
X0102448Y0067370D01*
X0109649Y0062579D02*
X0114248Y0062579D01*
X0113449Y0063378D02*
X0110549Y0063378D01*
X0111084Y0064176D02*
X0112890Y0064176D01*
X0112559Y0064975D02*
X0111424Y0064975D01*
X0111607Y0065773D02*
X0112352Y0065773D01*
X0112352Y0076952D02*
X0111618Y0076952D01*
X0111448Y0077751D02*
X0112529Y0077751D01*
X0112859Y0078549D02*
X0111121Y0078549D01*
X0110604Y0079348D02*
X0113375Y0079348D01*
X0114173Y0080146D02*
X0109751Y0080146D01*
X0108017Y0080945D02*
X0115827Y0080945D01*
D17*
X0099500Y0078900D03*
X0089500Y0078900D03*
X0079500Y0078900D03*
X0099600Y0070800D03*
X0092000Y0058900D03*
X0102000Y0046400D03*
X0079500Y0043900D03*
X0079500Y0036400D03*
X0079500Y0023900D03*
X0089500Y0023900D03*
X0102000Y0023900D03*
X0102000Y0028900D03*
X0116000Y0024900D03*
X0124500Y0022400D03*
X0129500Y0023900D03*
X0128000Y0040900D03*
D18*
X0117000Y0029900D02*
X0124500Y0022400D01*
X0117000Y0029900D02*
X0117000Y0066400D01*
X0077500Y0063400D02*
X0077500Y0056900D01*
X0069500Y0048900D01*
X0069500Y0038900D02*
X0069500Y0030400D01*
X0065500Y0026400D01*
X0062000Y0026400D01*
X0077500Y0063400D02*
X0074500Y0066400D01*
X0062000Y0066400D01*
M02*
