G75*
%MOIN*%
%OFA0B0*%
%FSLAX25Y25*%
%IPPOS*%
%LPD*%
%AMOC8*
5,1,8,0,0,1.08239X$1,22.5*
%
%ADD10R,0.00100X0.00100*%
%ADD11R,0.00300X0.00100*%
%ADD12R,0.00500X0.00100*%
%ADD13R,0.00600X0.00100*%
%ADD14R,0.02100X0.00100*%
%ADD15R,0.00400X0.00100*%
%ADD16R,0.00700X0.00100*%
%ADD17R,0.00800X0.00100*%
%ADD18R,0.02600X0.00100*%
%ADD19R,0.00900X0.00100*%
%ADD20R,0.02800X0.00100*%
%ADD21R,0.04600X0.00100*%
%ADD22R,0.02200X0.00100*%
%ADD23R,0.01100X0.00100*%
%ADD24R,0.01400X0.00100*%
%ADD25R,0.01000X0.00100*%
%ADD26R,0.04700X0.00100*%
%ADD27R,0.00200X0.00100*%
%ADD28R,0.02500X0.00100*%
%ADD29R,0.01500X0.00100*%
%ADD30R,0.01300X0.00100*%
%ADD31R,0.01800X0.00100*%
%ADD32R,0.03300X0.00100*%
%ADD33R,0.01900X0.00100*%
%ADD34R,0.01600X0.00100*%
%ADD35R,0.05900X0.00100*%
%ADD36R,0.04400X0.00100*%
%ADD37R,0.06200X0.00100*%
%ADD38R,0.05000X0.00100*%
%ADD39R,0.02300X0.00100*%
%ADD40R,0.03900X0.00100*%
%ADD41R,0.05600X0.00100*%
%ADD42R,0.05400X0.00100*%
%ADD43R,0.06100X0.00100*%
%ADD44C,0.00000*%
%ADD45C,0.00500*%
%ADD46C,0.00400*%
%ADD47C,0.00600*%
%ADD48C,0.00800*%
%ADD49C,0.00100*%
D10*
X0057400Y0080700D03*
X0065300Y0085600D03*
X0066600Y0086900D03*
X0067700Y0085600D03*
X0070100Y0083400D03*
X0070100Y0083300D03*
X0074600Y0080700D03*
X0076700Y0081000D03*
X0076700Y0082400D03*
X0077100Y0082500D03*
X0079100Y0082800D03*
X0080100Y0082600D03*
X0080600Y0082200D03*
X0081600Y0082300D03*
X0082000Y0084000D03*
X0081600Y0085300D03*
X0081500Y0086200D03*
X0081200Y0086900D03*
X0086900Y0084900D03*
X0082100Y0081100D03*
X0079600Y0081700D03*
D11*
X0079600Y0081800D03*
X0080100Y0082700D03*
X0079100Y0082700D03*
X0081600Y0082200D03*
X0082100Y0081200D03*
X0082900Y0082700D03*
X0081700Y0085200D03*
X0081500Y0086300D03*
X0076700Y0082600D03*
X0074600Y0080800D03*
X0072500Y0082400D03*
X0070100Y0083500D03*
X0067800Y0085500D03*
X0066600Y0086200D03*
X0065300Y0085500D03*
X0057400Y0080800D03*
D12*
X0057400Y0080900D03*
X0057800Y0081500D03*
X0057900Y0081700D03*
X0058000Y0081900D03*
X0058100Y0082200D03*
X0058100Y0082300D03*
X0058100Y0082400D03*
X0058200Y0082900D03*
X0058200Y0083000D03*
X0058200Y0083100D03*
X0058200Y0083200D03*
X0058200Y0083300D03*
X0058200Y0083400D03*
X0058200Y0083500D03*
X0058200Y0083600D03*
X0058200Y0083700D03*
X0058200Y0083800D03*
X0060300Y0083800D03*
X0060300Y0083700D03*
X0060300Y0083600D03*
X0060300Y0083500D03*
X0060300Y0083400D03*
X0060300Y0083300D03*
X0060300Y0083200D03*
X0060300Y0083100D03*
X0060300Y0083000D03*
X0060300Y0082900D03*
X0062300Y0082900D03*
X0062300Y0083000D03*
X0062300Y0083100D03*
X0062300Y0083200D03*
X0062300Y0083300D03*
X0062300Y0083400D03*
X0062300Y0083500D03*
X0062300Y0083600D03*
X0062300Y0083700D03*
X0062300Y0083800D03*
X0062300Y0082400D03*
X0062300Y0082300D03*
X0062300Y0082200D03*
X0064500Y0082200D03*
X0064500Y0082100D03*
X0064500Y0082000D03*
X0064500Y0081900D03*
X0064500Y0081800D03*
X0064500Y0081700D03*
X0064500Y0081600D03*
X0064500Y0081100D03*
X0064500Y0081000D03*
X0064500Y0080900D03*
X0064500Y0082300D03*
X0064500Y0082800D03*
X0064500Y0082900D03*
X0064500Y0083000D03*
X0064500Y0083100D03*
X0064500Y0083200D03*
X0064500Y0083300D03*
X0064500Y0083400D03*
X0067500Y0084900D03*
X0067600Y0085000D03*
X0067800Y0085400D03*
X0068600Y0083400D03*
X0068600Y0083300D03*
X0068600Y0083200D03*
X0068600Y0083100D03*
X0068600Y0083000D03*
X0068600Y0082900D03*
X0068600Y0082800D03*
X0068600Y0082300D03*
X0068600Y0082200D03*
X0068600Y0082100D03*
X0068600Y0082000D03*
X0068600Y0081900D03*
X0068600Y0081800D03*
X0068600Y0081700D03*
X0068600Y0081600D03*
X0068600Y0081100D03*
X0068600Y0081000D03*
X0068600Y0080900D03*
X0071000Y0080900D03*
X0071000Y0081000D03*
X0071000Y0081100D03*
X0071000Y0081200D03*
X0071000Y0081300D03*
X0071000Y0081400D03*
X0071000Y0081500D03*
X0071000Y0081600D03*
X0071000Y0081700D03*
X0071000Y0081800D03*
X0071000Y0081900D03*
X0071000Y0082000D03*
X0071000Y0082100D03*
X0071000Y0082200D03*
X0071000Y0082300D03*
X0071000Y0082400D03*
X0071000Y0082500D03*
X0071000Y0082600D03*
X0071000Y0082700D03*
X0071000Y0082800D03*
X0071000Y0082900D03*
X0071000Y0083000D03*
X0071000Y0083100D03*
X0071000Y0083200D03*
X0071000Y0083300D03*
X0071000Y0083400D03*
X0071000Y0083500D03*
X0071000Y0083600D03*
X0071000Y0083700D03*
X0071000Y0083800D03*
X0071000Y0083900D03*
X0071000Y0084000D03*
X0071000Y0084100D03*
X0071000Y0084200D03*
X0070400Y0084200D03*
X0070300Y0084000D03*
X0070100Y0083700D03*
X0071000Y0085400D03*
X0071100Y0085600D03*
X0071100Y0085700D03*
X0071200Y0085800D03*
X0071200Y0085900D03*
X0071300Y0086100D03*
X0071300Y0086200D03*
X0071400Y0086400D03*
X0071400Y0086500D03*
X0071500Y0086700D03*
X0073200Y0085400D03*
X0073200Y0085300D03*
X0073200Y0085200D03*
X0073100Y0085000D03*
X0073100Y0084900D03*
X0073000Y0084700D03*
X0072800Y0084100D03*
X0072800Y0084000D03*
X0072700Y0083800D03*
X0072700Y0083700D03*
X0072700Y0083600D03*
X0072600Y0083500D03*
X0073400Y0086000D03*
X0073400Y0086100D03*
X0073500Y0086300D03*
X0073500Y0086400D03*
X0073500Y0086500D03*
X0073600Y0086600D03*
X0073600Y0086700D03*
X0073600Y0086800D03*
X0077200Y0085700D03*
X0077200Y0085600D03*
X0077200Y0085500D03*
X0077200Y0085400D03*
X0077200Y0085300D03*
X0077200Y0085200D03*
X0077200Y0085100D03*
X0077200Y0085000D03*
X0077200Y0084900D03*
X0077200Y0084800D03*
X0077200Y0084700D03*
X0077200Y0084600D03*
X0077200Y0084500D03*
X0077200Y0084400D03*
X0077200Y0084300D03*
X0077200Y0084200D03*
X0077100Y0084100D03*
X0077100Y0084000D03*
X0077100Y0083900D03*
X0077100Y0083800D03*
X0077100Y0083700D03*
X0077000Y0083600D03*
X0077000Y0083500D03*
X0076900Y0083200D03*
X0076700Y0082700D03*
X0077200Y0082300D03*
X0077100Y0082100D03*
X0077000Y0081900D03*
X0076900Y0081700D03*
X0076800Y0081500D03*
X0076700Y0081400D03*
X0076700Y0081300D03*
X0076600Y0081200D03*
X0078100Y0081500D03*
X0078100Y0081600D03*
X0078100Y0081700D03*
X0078100Y0081800D03*
X0078100Y0081900D03*
X0078100Y0082000D03*
X0078100Y0082100D03*
X0078100Y0082200D03*
X0078100Y0082300D03*
X0078100Y0082400D03*
X0078100Y0082500D03*
X0079100Y0082600D03*
X0079200Y0082500D03*
X0079300Y0082400D03*
X0079600Y0081900D03*
X0080700Y0081800D03*
X0080700Y0081700D03*
X0080700Y0081600D03*
X0080700Y0081500D03*
X0080600Y0081400D03*
X0080800Y0082000D03*
X0081600Y0082100D03*
X0081700Y0082000D03*
X0081800Y0081800D03*
X0081900Y0081700D03*
X0082000Y0081600D03*
X0081700Y0082600D03*
X0082000Y0083200D03*
X0082100Y0083400D03*
X0082100Y0083500D03*
X0082100Y0083600D03*
X0082200Y0083800D03*
X0081300Y0084200D03*
X0081400Y0084400D03*
X0081500Y0084600D03*
X0081600Y0084800D03*
X0081700Y0085100D03*
X0080500Y0085100D03*
X0080500Y0085000D03*
X0080500Y0084900D03*
X0080500Y0084800D03*
X0080500Y0084700D03*
X0080500Y0084600D03*
X0080600Y0084500D03*
X0080600Y0084400D03*
X0080600Y0084300D03*
X0080600Y0084200D03*
X0080400Y0085200D03*
X0080400Y0085300D03*
X0080400Y0085400D03*
X0080400Y0085500D03*
X0080400Y0085600D03*
X0080400Y0085700D03*
X0080400Y0086200D03*
X0080400Y0086300D03*
X0080400Y0086400D03*
X0080400Y0086500D03*
X0080400Y0086600D03*
X0080400Y0086700D03*
X0080400Y0086800D03*
X0081500Y0086400D03*
X0085700Y0084700D03*
X0085700Y0084600D03*
X0085700Y0084500D03*
X0085400Y0083800D03*
X0086000Y0083800D03*
X0086100Y0083700D03*
X0071000Y0080800D03*
X0060300Y0085200D03*
X0060300Y0085300D03*
X0060300Y0085400D03*
X0060300Y0085500D03*
X0060300Y0085600D03*
X0060300Y0085700D03*
X0060300Y0085800D03*
X0060300Y0086300D03*
X0060300Y0086400D03*
X0060300Y0086500D03*
X0060300Y0086600D03*
X0060300Y0086700D03*
X0060300Y0086800D03*
X0060300Y0086900D03*
D13*
X0065250Y0085400D03*
X0065350Y0085300D03*
X0065350Y0085200D03*
X0065450Y0085100D03*
X0065550Y0085000D03*
X0066650Y0086300D03*
X0066650Y0086400D03*
X0066550Y0086500D03*
X0066550Y0086600D03*
X0066450Y0086700D03*
X0067750Y0085300D03*
X0067750Y0085200D03*
X0067650Y0085100D03*
X0070150Y0083800D03*
X0070250Y0083900D03*
X0070350Y0084100D03*
X0070950Y0085100D03*
X0070950Y0085200D03*
X0070950Y0085300D03*
X0071050Y0085500D03*
X0071250Y0086000D03*
X0071350Y0086300D03*
X0071450Y0086600D03*
X0072550Y0082300D03*
X0074150Y0081800D03*
X0074250Y0081900D03*
X0074350Y0082000D03*
X0074450Y0082100D03*
X0074550Y0082200D03*
X0074550Y0080900D03*
X0076650Y0082800D03*
X0076750Y0082900D03*
X0076750Y0083000D03*
X0076850Y0083100D03*
X0076950Y0083300D03*
X0076950Y0083400D03*
X0078150Y0081400D03*
X0079350Y0082300D03*
X0079450Y0082200D03*
X0079550Y0082100D03*
X0079650Y0082000D03*
X0080150Y0082800D03*
X0080250Y0083000D03*
X0080350Y0083100D03*
X0080450Y0083200D03*
X0080850Y0083600D03*
X0081150Y0083200D03*
X0082050Y0083300D03*
X0082150Y0083700D03*
X0081750Y0081900D03*
X0082050Y0081500D03*
X0082150Y0081400D03*
X0080750Y0081900D03*
X0085150Y0083600D03*
X0085250Y0083700D03*
X0086250Y0083600D03*
X0086950Y0084700D03*
X0087350Y0084400D03*
X0081450Y0086500D03*
X0081350Y0086600D03*
X0081250Y0086700D03*
X0058050Y0082100D03*
X0058050Y0082000D03*
X0057950Y0081800D03*
X0057850Y0081600D03*
X0057750Y0081400D03*
X0057650Y0081300D03*
X0057550Y0081200D03*
D14*
X0079300Y0080900D03*
D15*
X0080750Y0082100D03*
X0082150Y0081300D03*
X0083350Y0081100D03*
X0083350Y0081000D03*
X0083350Y0080900D03*
X0083350Y0081600D03*
X0083350Y0081700D03*
X0083350Y0081800D03*
X0083350Y0081900D03*
X0083350Y0082000D03*
X0083350Y0082100D03*
X0083350Y0082200D03*
X0083350Y0082300D03*
X0085150Y0082300D03*
X0085150Y0082200D03*
X0085150Y0082100D03*
X0085150Y0082000D03*
X0085150Y0081900D03*
X0085150Y0081800D03*
X0085150Y0081700D03*
X0085150Y0081600D03*
X0085150Y0081100D03*
X0085150Y0081000D03*
X0085150Y0080900D03*
X0086250Y0080900D03*
X0086250Y0081000D03*
X0086250Y0081100D03*
X0086250Y0081600D03*
X0086250Y0081700D03*
X0086250Y0081800D03*
X0086250Y0081900D03*
X0086250Y0082000D03*
X0086250Y0082100D03*
X0086250Y0082200D03*
X0086250Y0082300D03*
X0088050Y0082300D03*
X0088050Y0082200D03*
X0088050Y0082100D03*
X0088050Y0082000D03*
X0088050Y0081900D03*
X0088050Y0081800D03*
X0088050Y0081700D03*
X0088050Y0081600D03*
X0088050Y0081100D03*
X0088050Y0081000D03*
X0088050Y0080900D03*
X0087350Y0084300D03*
X0086950Y0084800D03*
X0086250Y0084800D03*
X0086250Y0084900D03*
X0086250Y0085400D03*
X0086250Y0085500D03*
X0086250Y0085600D03*
X0086250Y0085700D03*
X0086250Y0085800D03*
X0086250Y0085900D03*
X0086250Y0086000D03*
X0086250Y0086100D03*
X0085150Y0086100D03*
X0085150Y0086000D03*
X0085150Y0085900D03*
X0085150Y0085800D03*
X0085150Y0085700D03*
X0085150Y0085600D03*
X0085150Y0085500D03*
X0085150Y0085400D03*
X0085150Y0084900D03*
X0085150Y0084800D03*
X0085650Y0084800D03*
X0085650Y0084400D03*
X0085650Y0084300D03*
X0083350Y0084700D03*
X0083350Y0084800D03*
X0083350Y0084900D03*
X0083350Y0085400D03*
X0083350Y0085500D03*
X0083350Y0085600D03*
X0083350Y0085700D03*
X0083350Y0085800D03*
X0083350Y0085900D03*
X0083350Y0086000D03*
X0083350Y0086100D03*
X0081650Y0085000D03*
X0081650Y0084900D03*
X0081550Y0084700D03*
X0081450Y0084500D03*
X0081350Y0084300D03*
X0082150Y0083900D03*
X0079550Y0083900D03*
X0079550Y0084000D03*
X0079550Y0083800D03*
X0079550Y0083700D03*
X0079550Y0083600D03*
X0079550Y0083500D03*
X0078050Y0083500D03*
X0078050Y0083600D03*
X0078050Y0083700D03*
X0078050Y0083800D03*
X0078050Y0083900D03*
X0078050Y0084000D03*
X0078050Y0083000D03*
X0078050Y0082900D03*
X0077150Y0082400D03*
X0077150Y0082200D03*
X0077050Y0082000D03*
X0076950Y0081800D03*
X0076850Y0081600D03*
X0076650Y0081100D03*
X0072750Y0083900D03*
X0072850Y0084200D03*
X0073050Y0084800D03*
X0073150Y0085100D03*
X0073250Y0085500D03*
X0073450Y0086200D03*
X0070150Y0083600D03*
X0066550Y0086800D03*
X0065450Y0084900D03*
X0081250Y0086800D03*
X0088050Y0086100D03*
X0088050Y0086000D03*
X0088050Y0085900D03*
X0088050Y0085800D03*
X0088050Y0085700D03*
X0088050Y0085600D03*
X0088050Y0085500D03*
X0088050Y0085400D03*
X0088050Y0084900D03*
X0088050Y0084800D03*
X0088050Y0084700D03*
D16*
X0087200Y0084500D03*
X0087100Y0084600D03*
X0086400Y0083500D03*
X0085000Y0083500D03*
X0080900Y0083700D03*
X0080900Y0083800D03*
X0080500Y0081300D03*
X0078200Y0081300D03*
X0075300Y0083000D03*
X0075200Y0082900D03*
X0075100Y0082800D03*
X0075000Y0082700D03*
X0074900Y0082600D03*
X0074800Y0082500D03*
X0074700Y0082400D03*
X0074600Y0082300D03*
X0070900Y0084900D03*
X0070900Y0085000D03*
X0057500Y0081100D03*
X0057400Y0081000D03*
D17*
X0070850Y0084700D03*
X0070850Y0084800D03*
X0074550Y0081000D03*
X0080150Y0082900D03*
X0080850Y0083500D03*
X0081650Y0082700D03*
X0083150Y0082800D03*
X0086550Y0083400D03*
D18*
X0079350Y0081000D03*
D19*
X0080800Y0083400D03*
X0080900Y0083900D03*
X0084800Y0083400D03*
X0088200Y0082800D03*
X0074400Y0081100D03*
X0074200Y0081200D03*
X0074100Y0081300D03*
X0073900Y0081400D03*
X0073800Y0081500D03*
X0073300Y0081800D03*
X0073100Y0081900D03*
X0072900Y0082000D03*
X0072600Y0082200D03*
X0070800Y0084500D03*
X0070800Y0084600D03*
D20*
X0079350Y0081200D03*
X0079350Y0081100D03*
D21*
X0066550Y0081200D03*
X0066550Y0081300D03*
X0066550Y0081400D03*
X0066550Y0081500D03*
X0066550Y0082400D03*
X0066550Y0082500D03*
X0066550Y0082600D03*
X0066550Y0082700D03*
X0066550Y0083500D03*
X0066550Y0083600D03*
X0066550Y0083700D03*
X0066550Y0083800D03*
X0060250Y0083900D03*
X0060250Y0084000D03*
X0060250Y0084100D03*
X0060250Y0084200D03*
X0060250Y0082800D03*
X0060250Y0082700D03*
X0060250Y0082600D03*
D22*
X0084250Y0082600D03*
X0084250Y0082700D03*
X0084250Y0082500D03*
X0084250Y0082400D03*
X0084250Y0081500D03*
X0084250Y0081400D03*
X0084250Y0081300D03*
X0084250Y0081200D03*
X0087150Y0081200D03*
X0087150Y0081300D03*
X0087150Y0081400D03*
X0087150Y0081500D03*
X0087150Y0082400D03*
X0087150Y0082500D03*
X0087150Y0082600D03*
X0087750Y0083100D03*
X0087150Y0085000D03*
X0087150Y0085100D03*
X0087150Y0085200D03*
X0087150Y0085300D03*
X0087150Y0086200D03*
X0087150Y0086300D03*
X0087150Y0086400D03*
X0087150Y0086500D03*
X0084250Y0086500D03*
X0084250Y0086400D03*
X0084250Y0086300D03*
X0084250Y0086200D03*
X0084250Y0085300D03*
X0084250Y0085200D03*
X0084250Y0085100D03*
X0084250Y0085000D03*
D23*
X0081600Y0082900D03*
X0080800Y0083300D03*
X0073700Y0081600D03*
X0070700Y0084300D03*
D24*
X0073650Y0081700D03*
X0081550Y0083100D03*
X0083350Y0082900D03*
D25*
X0084550Y0083300D03*
X0086750Y0083300D03*
X0081650Y0082800D03*
X0080950Y0084000D03*
X0080950Y0084100D03*
X0072750Y0082100D03*
X0070750Y0084400D03*
D26*
X0060200Y0082500D03*
D27*
X0071350Y0086800D03*
X0072450Y0082500D03*
X0076650Y0082500D03*
D28*
X0087300Y0082700D03*
D29*
X0088000Y0082900D03*
D30*
X0087100Y0083200D03*
X0084200Y0083200D03*
X0081600Y0083000D03*
D31*
X0083450Y0083000D03*
X0087850Y0083000D03*
D32*
X0074000Y0083100D03*
X0074000Y0083200D03*
X0074000Y0083300D03*
X0074000Y0083400D03*
D33*
X0078800Y0083400D03*
X0078800Y0083300D03*
X0078800Y0083200D03*
X0078800Y0083100D03*
X0078800Y0084100D03*
X0078800Y0084200D03*
X0078800Y0084300D03*
X0078800Y0084400D03*
D34*
X0083850Y0083100D03*
D35*
X0085700Y0083900D03*
X0085700Y0084000D03*
X0085700Y0084100D03*
X0085700Y0084200D03*
D36*
X0073850Y0084300D03*
X0073850Y0084400D03*
X0073850Y0084500D03*
X0073850Y0084600D03*
D37*
X0066550Y0084600D03*
X0066550Y0084700D03*
X0066550Y0084800D03*
X0066550Y0084500D03*
X0066550Y0084400D03*
D38*
X0060250Y0084800D03*
X0060250Y0084900D03*
X0060250Y0085000D03*
X0060250Y0085100D03*
D39*
X0078800Y0085100D03*
X0078800Y0085200D03*
X0078800Y0085000D03*
X0078800Y0084900D03*
D40*
X0073900Y0085600D03*
X0073900Y0085700D03*
X0073900Y0085800D03*
X0073900Y0085900D03*
D41*
X0066550Y0085900D03*
X0066550Y0086000D03*
X0066550Y0086100D03*
X0066550Y0085800D03*
X0066550Y0085700D03*
D42*
X0079650Y0085800D03*
X0079650Y0085900D03*
X0079650Y0086000D03*
X0079650Y0086100D03*
D43*
X0060200Y0086100D03*
X0060200Y0086200D03*
X0060200Y0086000D03*
X0060200Y0085900D03*
D44*
X0090169Y0090770D02*
X0090171Y0090901D01*
X0090177Y0091033D01*
X0090187Y0091164D01*
X0090201Y0091295D01*
X0090219Y0091425D01*
X0090241Y0091554D01*
X0090266Y0091683D01*
X0090296Y0091811D01*
X0090330Y0091938D01*
X0090367Y0092065D01*
X0090408Y0092189D01*
X0090453Y0092313D01*
X0090502Y0092435D01*
X0090554Y0092556D01*
X0090610Y0092674D01*
X0090670Y0092792D01*
X0090733Y0092907D01*
X0090800Y0093020D01*
X0090870Y0093132D01*
X0090943Y0093241D01*
X0091019Y0093347D01*
X0091099Y0093452D01*
X0091182Y0093554D01*
X0091268Y0093653D01*
X0091357Y0093750D01*
X0091449Y0093844D01*
X0091544Y0093935D01*
X0091641Y0094024D01*
X0091741Y0094109D01*
X0091844Y0094191D01*
X0091949Y0094270D01*
X0092056Y0094346D01*
X0092166Y0094418D01*
X0092278Y0094487D01*
X0092392Y0094553D01*
X0092507Y0094615D01*
X0092625Y0094674D01*
X0092744Y0094729D01*
X0092865Y0094781D01*
X0092988Y0094828D01*
X0093112Y0094872D01*
X0093237Y0094913D01*
X0093363Y0094949D01*
X0093491Y0094982D01*
X0093619Y0095010D01*
X0093748Y0095035D01*
X0093878Y0095056D01*
X0094008Y0095073D01*
X0094139Y0095086D01*
X0094270Y0095095D01*
X0094401Y0095100D01*
X0094533Y0095101D01*
X0094664Y0095098D01*
X0094796Y0095091D01*
X0094927Y0095080D01*
X0095057Y0095065D01*
X0095187Y0095046D01*
X0095317Y0095023D01*
X0095445Y0094997D01*
X0095573Y0094966D01*
X0095700Y0094931D01*
X0095826Y0094893D01*
X0095950Y0094851D01*
X0096074Y0094805D01*
X0096195Y0094755D01*
X0096315Y0094702D01*
X0096434Y0094645D01*
X0096551Y0094585D01*
X0096665Y0094521D01*
X0096778Y0094453D01*
X0096889Y0094382D01*
X0096998Y0094308D01*
X0097104Y0094231D01*
X0097208Y0094150D01*
X0097309Y0094067D01*
X0097408Y0093980D01*
X0097504Y0093890D01*
X0097597Y0093797D01*
X0097688Y0093702D01*
X0097775Y0093604D01*
X0097860Y0093503D01*
X0097941Y0093400D01*
X0098019Y0093294D01*
X0098094Y0093186D01*
X0098166Y0093076D01*
X0098234Y0092964D01*
X0098299Y0092850D01*
X0098360Y0092733D01*
X0098418Y0092615D01*
X0098472Y0092495D01*
X0098523Y0092374D01*
X0098570Y0092251D01*
X0098613Y0092127D01*
X0098652Y0092002D01*
X0098688Y0091875D01*
X0098719Y0091747D01*
X0098747Y0091619D01*
X0098771Y0091490D01*
X0098791Y0091360D01*
X0098807Y0091229D01*
X0098819Y0091098D01*
X0098827Y0090967D01*
X0098831Y0090836D01*
X0098831Y0090704D01*
X0098827Y0090573D01*
X0098819Y0090442D01*
X0098807Y0090311D01*
X0098791Y0090180D01*
X0098771Y0090050D01*
X0098747Y0089921D01*
X0098719Y0089793D01*
X0098688Y0089665D01*
X0098652Y0089538D01*
X0098613Y0089413D01*
X0098570Y0089289D01*
X0098523Y0089166D01*
X0098472Y0089045D01*
X0098418Y0088925D01*
X0098360Y0088807D01*
X0098299Y0088690D01*
X0098234Y0088576D01*
X0098166Y0088464D01*
X0098094Y0088354D01*
X0098019Y0088246D01*
X0097941Y0088140D01*
X0097860Y0088037D01*
X0097775Y0087936D01*
X0097688Y0087838D01*
X0097597Y0087743D01*
X0097504Y0087650D01*
X0097408Y0087560D01*
X0097309Y0087473D01*
X0097208Y0087390D01*
X0097104Y0087309D01*
X0096998Y0087232D01*
X0096889Y0087158D01*
X0096778Y0087087D01*
X0096666Y0087019D01*
X0096551Y0086955D01*
X0096434Y0086895D01*
X0096315Y0086838D01*
X0096195Y0086785D01*
X0096074Y0086735D01*
X0095950Y0086689D01*
X0095826Y0086647D01*
X0095700Y0086609D01*
X0095573Y0086574D01*
X0095445Y0086543D01*
X0095317Y0086517D01*
X0095187Y0086494D01*
X0095057Y0086475D01*
X0094927Y0086460D01*
X0094796Y0086449D01*
X0094664Y0086442D01*
X0094533Y0086439D01*
X0094401Y0086440D01*
X0094270Y0086445D01*
X0094139Y0086454D01*
X0094008Y0086467D01*
X0093878Y0086484D01*
X0093748Y0086505D01*
X0093619Y0086530D01*
X0093491Y0086558D01*
X0093363Y0086591D01*
X0093237Y0086627D01*
X0093112Y0086668D01*
X0092988Y0086712D01*
X0092865Y0086759D01*
X0092744Y0086811D01*
X0092625Y0086866D01*
X0092507Y0086925D01*
X0092392Y0086987D01*
X0092278Y0087053D01*
X0092166Y0087122D01*
X0092056Y0087194D01*
X0091949Y0087270D01*
X0091844Y0087349D01*
X0091741Y0087431D01*
X0091641Y0087516D01*
X0091544Y0087605D01*
X0091449Y0087696D01*
X0091357Y0087790D01*
X0091268Y0087887D01*
X0091182Y0087986D01*
X0091099Y0088088D01*
X0091019Y0088193D01*
X0090943Y0088299D01*
X0090870Y0088408D01*
X0090800Y0088520D01*
X0090733Y0088633D01*
X0090670Y0088748D01*
X0090610Y0088866D01*
X0090554Y0088984D01*
X0090502Y0089105D01*
X0090453Y0089227D01*
X0090408Y0089351D01*
X0090367Y0089475D01*
X0090330Y0089602D01*
X0090296Y0089729D01*
X0090266Y0089857D01*
X0090241Y0089986D01*
X0090219Y0090115D01*
X0090201Y0090245D01*
X0090187Y0090376D01*
X0090177Y0090507D01*
X0090171Y0090639D01*
X0090169Y0090770D01*
X0094533Y0051100D02*
X0094500Y0051067D01*
X0094500Y0050933D01*
X0094533Y0050900D01*
X0094600Y0050900D01*
X0094633Y0050933D01*
X0094684Y0050933D02*
X0094684Y0050900D01*
X0094718Y0050900D01*
X0094718Y0050933D01*
X0094684Y0050933D01*
X0094684Y0051000D02*
X0094684Y0051033D01*
X0094718Y0051033D01*
X0094718Y0051000D01*
X0094684Y0051000D01*
X0094633Y0051067D02*
X0094600Y0051100D01*
X0094533Y0051100D01*
X0094776Y0050900D02*
X0094910Y0051100D01*
X0094960Y0051100D02*
X0094960Y0050933D01*
X0094994Y0050900D01*
X0095060Y0050900D01*
X0095094Y0050933D01*
X0095094Y0051100D01*
X0095178Y0051033D02*
X0095278Y0051033D01*
X0095329Y0051000D02*
X0095362Y0051033D01*
X0095429Y0051033D01*
X0095462Y0051000D01*
X0095462Y0050967D01*
X0095329Y0050967D01*
X0095329Y0051000D02*
X0095329Y0050933D01*
X0095362Y0050900D01*
X0095429Y0050900D01*
X0095513Y0050900D02*
X0095513Y0051033D01*
X0095513Y0050967D02*
X0095580Y0051033D01*
X0095613Y0051033D01*
X0095666Y0051000D02*
X0095700Y0051033D01*
X0095800Y0051033D01*
X0095766Y0050967D02*
X0095700Y0050967D01*
X0095666Y0051000D01*
X0095666Y0050900D02*
X0095766Y0050900D01*
X0095800Y0050933D01*
X0095766Y0050967D01*
X0095850Y0050900D02*
X0095984Y0051100D01*
X0096035Y0051100D02*
X0096168Y0050900D01*
X0096219Y0050900D02*
X0096285Y0050900D01*
X0096252Y0050900D02*
X0096252Y0051033D01*
X0096219Y0051033D01*
X0096252Y0051100D02*
X0096252Y0051134D01*
X0096168Y0051100D02*
X0096035Y0050900D01*
X0096342Y0050933D02*
X0096375Y0050967D01*
X0096475Y0050967D01*
X0096475Y0051000D02*
X0096475Y0050900D01*
X0096375Y0050900D01*
X0096342Y0050933D01*
X0096375Y0051033D02*
X0096442Y0051033D01*
X0096475Y0051000D01*
X0096526Y0051033D02*
X0096626Y0051033D01*
X0096659Y0051000D01*
X0096659Y0050900D01*
X0096710Y0050933D02*
X0096743Y0050900D01*
X0096843Y0050900D01*
X0096843Y0050867D02*
X0096843Y0051033D01*
X0096743Y0051033D01*
X0096710Y0051000D01*
X0096710Y0050933D01*
X0096777Y0050833D02*
X0096810Y0050833D01*
X0096843Y0050867D01*
X0096894Y0050900D02*
X0097027Y0050900D01*
X0097078Y0050900D02*
X0097145Y0050900D01*
X0097111Y0050900D02*
X0097111Y0051033D01*
X0097078Y0051033D01*
X0097027Y0051033D02*
X0096894Y0050900D01*
X0096894Y0051033D02*
X0097027Y0051033D01*
X0097111Y0051100D02*
X0097111Y0051134D01*
X0097334Y0051100D02*
X0097201Y0050900D01*
X0097385Y0050900D02*
X0097485Y0050900D01*
X0097518Y0050933D01*
X0097518Y0051067D01*
X0097485Y0051100D01*
X0097385Y0051100D01*
X0097385Y0050900D01*
X0097569Y0050933D02*
X0097569Y0051000D01*
X0097603Y0051033D01*
X0097669Y0051033D01*
X0097703Y0051000D01*
X0097703Y0050967D01*
X0097569Y0050967D01*
X0097569Y0050933D02*
X0097603Y0050900D01*
X0097669Y0050900D01*
X0097753Y0050900D02*
X0097853Y0050900D01*
X0097887Y0050933D01*
X0097853Y0050967D01*
X0097787Y0050967D01*
X0097753Y0051000D01*
X0097787Y0051033D01*
X0097887Y0051033D01*
X0097938Y0050967D02*
X0098038Y0051033D01*
X0098091Y0051033D02*
X0098158Y0051033D01*
X0098124Y0051067D02*
X0098124Y0050933D01*
X0098158Y0050900D01*
X0098214Y0050933D02*
X0098247Y0050900D01*
X0098314Y0050900D01*
X0098347Y0050933D01*
X0098347Y0051000D01*
X0098314Y0051033D01*
X0098247Y0051033D01*
X0098214Y0051000D01*
X0098214Y0050933D01*
X0098038Y0050900D02*
X0097938Y0050967D01*
X0097938Y0050900D02*
X0097938Y0051100D01*
X0098398Y0051033D02*
X0098498Y0051033D01*
X0098531Y0051000D01*
X0098531Y0050933D01*
X0098498Y0050900D01*
X0098398Y0050900D01*
X0098398Y0050833D02*
X0098398Y0051033D01*
X0098582Y0050900D02*
X0098715Y0051100D01*
X0098766Y0051100D02*
X0098766Y0050867D01*
X0098833Y0050867D02*
X0098833Y0051100D01*
X0098889Y0051100D02*
X0098956Y0051167D01*
X0099022Y0051100D01*
X0099073Y0051100D02*
X0099173Y0051100D01*
X0099207Y0051067D01*
X0099207Y0051000D01*
X0099257Y0051000D02*
X0099457Y0051000D01*
X0099391Y0051033D02*
X0099391Y0050900D01*
X0099524Y0050900D01*
X0099564Y0050900D02*
X0099698Y0051100D01*
X0099748Y0051067D02*
X0099748Y0051033D01*
X0099782Y0051000D01*
X0099848Y0051000D01*
X0099882Y0050967D01*
X0099882Y0050933D01*
X0099848Y0050900D01*
X0099782Y0050900D01*
X0099748Y0050933D01*
X0099748Y0051067D02*
X0099782Y0051100D01*
X0099848Y0051100D01*
X0099882Y0051067D01*
X0099932Y0051000D02*
X0099932Y0050933D01*
X0099966Y0050900D01*
X0100033Y0050900D01*
X0100066Y0050933D01*
X0100066Y0051000D01*
X0100033Y0051033D01*
X0099966Y0051033D01*
X0099932Y0051000D01*
X0100117Y0051033D02*
X0100117Y0050933D01*
X0100150Y0050900D01*
X0100250Y0050900D01*
X0100250Y0051033D01*
X0100301Y0051033D02*
X0100401Y0051033D01*
X0100434Y0051000D01*
X0100434Y0050900D01*
X0100485Y0050933D02*
X0100485Y0051000D01*
X0100518Y0051033D01*
X0100618Y0051033D01*
X0100618Y0051100D02*
X0100618Y0050900D01*
X0100518Y0050900D01*
X0100485Y0050933D01*
X0100669Y0050933D02*
X0100702Y0050933D01*
X0100702Y0050900D01*
X0100669Y0050900D01*
X0100669Y0050933D01*
X0100761Y0050900D02*
X0100861Y0050900D01*
X0100895Y0050933D01*
X0100895Y0051000D01*
X0100861Y0051033D01*
X0100761Y0051033D01*
X0100761Y0051100D02*
X0100761Y0050900D01*
X0100945Y0050900D02*
X0100945Y0051033D01*
X0100979Y0051033D01*
X0101012Y0051000D01*
X0101045Y0051033D01*
X0101079Y0051000D01*
X0101079Y0050900D01*
X0101129Y0050900D02*
X0101230Y0050900D01*
X0101263Y0050933D01*
X0101263Y0051000D01*
X0101230Y0051033D01*
X0101129Y0051033D01*
X0101129Y0050833D01*
X0101012Y0050900D02*
X0101012Y0051000D01*
X0100301Y0051033D02*
X0100301Y0050900D01*
X0099524Y0051100D02*
X0099391Y0051100D01*
X0099391Y0051033D01*
X0099324Y0051100D01*
X0099257Y0051033D01*
X0099257Y0050900D01*
X0099073Y0051000D02*
X0099073Y0051100D01*
X0099022Y0051033D02*
X0099022Y0050900D01*
X0098922Y0050900D01*
X0098889Y0050933D01*
X0098889Y0051033D01*
X0098900Y0050967D02*
X0098833Y0050967D01*
X0096526Y0050900D02*
X0096526Y0051033D01*
X0095278Y0050933D02*
X0095245Y0050967D01*
X0095178Y0050967D01*
X0095145Y0051000D01*
X0095178Y0051033D01*
X0095145Y0050900D02*
X0095245Y0050900D01*
X0095278Y0050933D01*
X0090169Y0012030D02*
X0090171Y0012161D01*
X0090177Y0012293D01*
X0090187Y0012424D01*
X0090201Y0012555D01*
X0090219Y0012685D01*
X0090241Y0012814D01*
X0090266Y0012943D01*
X0090296Y0013071D01*
X0090330Y0013198D01*
X0090367Y0013325D01*
X0090408Y0013449D01*
X0090453Y0013573D01*
X0090502Y0013695D01*
X0090554Y0013816D01*
X0090610Y0013934D01*
X0090670Y0014052D01*
X0090733Y0014167D01*
X0090800Y0014280D01*
X0090870Y0014392D01*
X0090943Y0014501D01*
X0091019Y0014607D01*
X0091099Y0014712D01*
X0091182Y0014814D01*
X0091268Y0014913D01*
X0091357Y0015010D01*
X0091449Y0015104D01*
X0091544Y0015195D01*
X0091641Y0015284D01*
X0091741Y0015369D01*
X0091844Y0015451D01*
X0091949Y0015530D01*
X0092056Y0015606D01*
X0092166Y0015678D01*
X0092278Y0015747D01*
X0092392Y0015813D01*
X0092507Y0015875D01*
X0092625Y0015934D01*
X0092744Y0015989D01*
X0092865Y0016041D01*
X0092988Y0016088D01*
X0093112Y0016132D01*
X0093237Y0016173D01*
X0093363Y0016209D01*
X0093491Y0016242D01*
X0093619Y0016270D01*
X0093748Y0016295D01*
X0093878Y0016316D01*
X0094008Y0016333D01*
X0094139Y0016346D01*
X0094270Y0016355D01*
X0094401Y0016360D01*
X0094533Y0016361D01*
X0094664Y0016358D01*
X0094796Y0016351D01*
X0094927Y0016340D01*
X0095057Y0016325D01*
X0095187Y0016306D01*
X0095317Y0016283D01*
X0095445Y0016257D01*
X0095573Y0016226D01*
X0095700Y0016191D01*
X0095826Y0016153D01*
X0095950Y0016111D01*
X0096074Y0016065D01*
X0096195Y0016015D01*
X0096315Y0015962D01*
X0096434Y0015905D01*
X0096551Y0015845D01*
X0096665Y0015781D01*
X0096778Y0015713D01*
X0096889Y0015642D01*
X0096998Y0015568D01*
X0097104Y0015491D01*
X0097208Y0015410D01*
X0097309Y0015327D01*
X0097408Y0015240D01*
X0097504Y0015150D01*
X0097597Y0015057D01*
X0097688Y0014962D01*
X0097775Y0014864D01*
X0097860Y0014763D01*
X0097941Y0014660D01*
X0098019Y0014554D01*
X0098094Y0014446D01*
X0098166Y0014336D01*
X0098234Y0014224D01*
X0098299Y0014110D01*
X0098360Y0013993D01*
X0098418Y0013875D01*
X0098472Y0013755D01*
X0098523Y0013634D01*
X0098570Y0013511D01*
X0098613Y0013387D01*
X0098652Y0013262D01*
X0098688Y0013135D01*
X0098719Y0013007D01*
X0098747Y0012879D01*
X0098771Y0012750D01*
X0098791Y0012620D01*
X0098807Y0012489D01*
X0098819Y0012358D01*
X0098827Y0012227D01*
X0098831Y0012096D01*
X0098831Y0011964D01*
X0098827Y0011833D01*
X0098819Y0011702D01*
X0098807Y0011571D01*
X0098791Y0011440D01*
X0098771Y0011310D01*
X0098747Y0011181D01*
X0098719Y0011053D01*
X0098688Y0010925D01*
X0098652Y0010798D01*
X0098613Y0010673D01*
X0098570Y0010549D01*
X0098523Y0010426D01*
X0098472Y0010305D01*
X0098418Y0010185D01*
X0098360Y0010067D01*
X0098299Y0009950D01*
X0098234Y0009836D01*
X0098166Y0009724D01*
X0098094Y0009614D01*
X0098019Y0009506D01*
X0097941Y0009400D01*
X0097860Y0009297D01*
X0097775Y0009196D01*
X0097688Y0009098D01*
X0097597Y0009003D01*
X0097504Y0008910D01*
X0097408Y0008820D01*
X0097309Y0008733D01*
X0097208Y0008650D01*
X0097104Y0008569D01*
X0096998Y0008492D01*
X0096889Y0008418D01*
X0096778Y0008347D01*
X0096666Y0008279D01*
X0096551Y0008215D01*
X0096434Y0008155D01*
X0096315Y0008098D01*
X0096195Y0008045D01*
X0096074Y0007995D01*
X0095950Y0007949D01*
X0095826Y0007907D01*
X0095700Y0007869D01*
X0095573Y0007834D01*
X0095445Y0007803D01*
X0095317Y0007777D01*
X0095187Y0007754D01*
X0095057Y0007735D01*
X0094927Y0007720D01*
X0094796Y0007709D01*
X0094664Y0007702D01*
X0094533Y0007699D01*
X0094401Y0007700D01*
X0094270Y0007705D01*
X0094139Y0007714D01*
X0094008Y0007727D01*
X0093878Y0007744D01*
X0093748Y0007765D01*
X0093619Y0007790D01*
X0093491Y0007818D01*
X0093363Y0007851D01*
X0093237Y0007887D01*
X0093112Y0007928D01*
X0092988Y0007972D01*
X0092865Y0008019D01*
X0092744Y0008071D01*
X0092625Y0008126D01*
X0092507Y0008185D01*
X0092392Y0008247D01*
X0092278Y0008313D01*
X0092166Y0008382D01*
X0092056Y0008454D01*
X0091949Y0008530D01*
X0091844Y0008609D01*
X0091741Y0008691D01*
X0091641Y0008776D01*
X0091544Y0008865D01*
X0091449Y0008956D01*
X0091357Y0009050D01*
X0091268Y0009147D01*
X0091182Y0009246D01*
X0091099Y0009348D01*
X0091019Y0009453D01*
X0090943Y0009559D01*
X0090870Y0009668D01*
X0090800Y0009780D01*
X0090733Y0009893D01*
X0090670Y0010008D01*
X0090610Y0010126D01*
X0090554Y0010244D01*
X0090502Y0010365D01*
X0090453Y0010487D01*
X0090408Y0010611D01*
X0090367Y0010735D01*
X0090330Y0010862D01*
X0090296Y0010989D01*
X0090266Y0011117D01*
X0090241Y0011246D01*
X0090219Y0011375D01*
X0090201Y0011505D01*
X0090187Y0011636D01*
X0090177Y0011767D01*
X0090171Y0011899D01*
X0090169Y0012030D01*
D45*
X0087974Y0019150D02*
X0085973Y0019150D01*
X0087974Y0021152D01*
X0087974Y0021652D01*
X0087474Y0022153D01*
X0086473Y0022153D01*
X0085973Y0021652D01*
X0084752Y0021652D02*
X0084752Y0020651D01*
X0084251Y0020151D01*
X0082750Y0020151D01*
X0083751Y0020151D02*
X0084752Y0019150D01*
X0082750Y0019150D02*
X0082750Y0022153D01*
X0084251Y0022153D01*
X0084752Y0021652D01*
X0082500Y0023400D02*
X0082500Y0034400D01*
X0087500Y0034400D01*
X0087500Y0023400D01*
X0082500Y0023400D01*
X0079500Y0028900D02*
X0079500Y0068900D01*
X0059500Y0068900D01*
X0057000Y0068900D01*
X0057000Y0058900D01*
X0059500Y0058900D01*
X0059500Y0038900D01*
X0057000Y0038900D01*
X0057000Y0028900D01*
X0059500Y0028900D01*
X0059500Y0038900D01*
X0059500Y0028900D02*
X0079500Y0028900D01*
X0082500Y0035400D02*
X0082500Y0046400D01*
X0087500Y0046400D01*
X0087500Y0035400D01*
X0082500Y0035400D01*
X0096500Y0047900D02*
X0096500Y0052900D01*
X0107500Y0052900D01*
X0107500Y0047900D01*
X0096500Y0047900D01*
X0094500Y0048400D02*
X0094500Y0053400D01*
X0083500Y0053400D01*
X0083500Y0048400D01*
X0094500Y0048400D01*
X0109000Y0047900D02*
X0109000Y0052900D01*
X0120000Y0052900D01*
X0120000Y0047900D01*
X0109000Y0047900D01*
X0120500Y0040900D02*
X0125500Y0040900D01*
X0130500Y0040900D01*
X0130500Y0029900D01*
X0125500Y0029900D01*
X0125500Y0040900D01*
X0125500Y0029900D01*
X0120500Y0029900D01*
X0120500Y0040900D01*
X0118500Y0024900D02*
X0113500Y0024900D01*
X0113500Y0013900D01*
X0108500Y0013900D01*
X0108500Y0024900D01*
X0113500Y0024900D01*
X0113500Y0013900D01*
X0118500Y0013900D01*
X0118500Y0024900D01*
X0123500Y0024900D01*
X0123500Y0013900D01*
X0118500Y0013900D01*
X0118500Y0024900D01*
X0059500Y0058900D02*
X0059500Y0068900D01*
X0094500Y0071400D02*
X0094505Y0071829D01*
X0094521Y0072259D01*
X0094547Y0072687D01*
X0094584Y0073115D01*
X0094632Y0073542D01*
X0094689Y0073968D01*
X0094758Y0074392D01*
X0094836Y0074814D01*
X0094925Y0075234D01*
X0095024Y0075652D01*
X0095134Y0076067D01*
X0095254Y0076480D01*
X0095383Y0076889D01*
X0095523Y0077296D01*
X0095673Y0077698D01*
X0095832Y0078097D01*
X0096001Y0078492D01*
X0096180Y0078882D01*
X0096369Y0079268D01*
X0096566Y0079649D01*
X0096773Y0080026D01*
X0096990Y0080397D01*
X0097215Y0080762D01*
X0097449Y0081122D01*
X0097692Y0081477D01*
X0097944Y0081825D01*
X0098204Y0082167D01*
X0098472Y0082502D01*
X0098749Y0082831D01*
X0099033Y0083152D01*
X0099326Y0083467D01*
X0099626Y0083774D01*
X0099933Y0084074D01*
X0100248Y0084367D01*
X0100569Y0084651D01*
X0100898Y0084928D01*
X0101233Y0085196D01*
X0101575Y0085456D01*
X0101923Y0085708D01*
X0102278Y0085951D01*
X0102638Y0086185D01*
X0103003Y0086410D01*
X0103374Y0086627D01*
X0103751Y0086834D01*
X0104132Y0087031D01*
X0104518Y0087220D01*
X0104908Y0087399D01*
X0105303Y0087568D01*
X0105702Y0087727D01*
X0106104Y0087877D01*
X0106511Y0088017D01*
X0106920Y0088146D01*
X0107333Y0088266D01*
X0107748Y0088376D01*
X0108166Y0088475D01*
X0108586Y0088564D01*
X0109008Y0088642D01*
X0109432Y0088711D01*
X0109858Y0088768D01*
X0110285Y0088816D01*
X0110713Y0088853D01*
X0111141Y0088879D01*
X0111571Y0088895D01*
X0112000Y0088900D01*
X0112429Y0088895D01*
X0112859Y0088879D01*
X0113287Y0088853D01*
X0113715Y0088816D01*
X0114142Y0088768D01*
X0114568Y0088711D01*
X0114992Y0088642D01*
X0115414Y0088564D01*
X0115834Y0088475D01*
X0116252Y0088376D01*
X0116667Y0088266D01*
X0117080Y0088146D01*
X0117489Y0088017D01*
X0117896Y0087877D01*
X0118298Y0087727D01*
X0118697Y0087568D01*
X0119092Y0087399D01*
X0119482Y0087220D01*
X0119868Y0087031D01*
X0120249Y0086834D01*
X0120626Y0086627D01*
X0120997Y0086410D01*
X0121362Y0086185D01*
X0121722Y0085951D01*
X0122077Y0085708D01*
X0122425Y0085456D01*
X0122767Y0085196D01*
X0123102Y0084928D01*
X0123431Y0084651D01*
X0123752Y0084367D01*
X0124067Y0084074D01*
X0124374Y0083774D01*
X0124674Y0083467D01*
X0124967Y0083152D01*
X0125251Y0082831D01*
X0125528Y0082502D01*
X0125796Y0082167D01*
X0126056Y0081825D01*
X0126308Y0081477D01*
X0126551Y0081122D01*
X0126785Y0080762D01*
X0127010Y0080397D01*
X0127227Y0080026D01*
X0127434Y0079649D01*
X0127631Y0079268D01*
X0127820Y0078882D01*
X0127999Y0078492D01*
X0128168Y0078097D01*
X0128327Y0077698D01*
X0128477Y0077296D01*
X0128617Y0076889D01*
X0128746Y0076480D01*
X0128866Y0076067D01*
X0128976Y0075652D01*
X0129075Y0075234D01*
X0129164Y0074814D01*
X0129242Y0074392D01*
X0129311Y0073968D01*
X0129368Y0073542D01*
X0129416Y0073115D01*
X0129453Y0072687D01*
X0129479Y0072259D01*
X0129495Y0071829D01*
X0129500Y0071400D01*
X0129495Y0070971D01*
X0129479Y0070541D01*
X0129453Y0070113D01*
X0129416Y0069685D01*
X0129368Y0069258D01*
X0129311Y0068832D01*
X0129242Y0068408D01*
X0129164Y0067986D01*
X0129075Y0067566D01*
X0128976Y0067148D01*
X0128866Y0066733D01*
X0128746Y0066320D01*
X0128617Y0065911D01*
X0128477Y0065504D01*
X0128327Y0065102D01*
X0128168Y0064703D01*
X0127999Y0064308D01*
X0127820Y0063918D01*
X0127631Y0063532D01*
X0127434Y0063151D01*
X0127227Y0062774D01*
X0127010Y0062403D01*
X0126785Y0062038D01*
X0126551Y0061678D01*
X0126308Y0061323D01*
X0126056Y0060975D01*
X0125796Y0060633D01*
X0125528Y0060298D01*
X0125251Y0059969D01*
X0124967Y0059648D01*
X0124674Y0059333D01*
X0124374Y0059026D01*
X0124067Y0058726D01*
X0123752Y0058433D01*
X0123431Y0058149D01*
X0123102Y0057872D01*
X0122767Y0057604D01*
X0122425Y0057344D01*
X0122077Y0057092D01*
X0121722Y0056849D01*
X0121362Y0056615D01*
X0120997Y0056390D01*
X0120626Y0056173D01*
X0120249Y0055966D01*
X0119868Y0055769D01*
X0119482Y0055580D01*
X0119092Y0055401D01*
X0118697Y0055232D01*
X0118298Y0055073D01*
X0117896Y0054923D01*
X0117489Y0054783D01*
X0117080Y0054654D01*
X0116667Y0054534D01*
X0116252Y0054424D01*
X0115834Y0054325D01*
X0115414Y0054236D01*
X0114992Y0054158D01*
X0114568Y0054089D01*
X0114142Y0054032D01*
X0113715Y0053984D01*
X0113287Y0053947D01*
X0112859Y0053921D01*
X0112429Y0053905D01*
X0112000Y0053900D01*
X0111571Y0053905D01*
X0111141Y0053921D01*
X0110713Y0053947D01*
X0110285Y0053984D01*
X0109858Y0054032D01*
X0109432Y0054089D01*
X0109008Y0054158D01*
X0108586Y0054236D01*
X0108166Y0054325D01*
X0107748Y0054424D01*
X0107333Y0054534D01*
X0106920Y0054654D01*
X0106511Y0054783D01*
X0106104Y0054923D01*
X0105702Y0055073D01*
X0105303Y0055232D01*
X0104908Y0055401D01*
X0104518Y0055580D01*
X0104132Y0055769D01*
X0103751Y0055966D01*
X0103374Y0056173D01*
X0103003Y0056390D01*
X0102638Y0056615D01*
X0102278Y0056849D01*
X0101923Y0057092D01*
X0101575Y0057344D01*
X0101233Y0057604D01*
X0100898Y0057872D01*
X0100569Y0058149D01*
X0100248Y0058433D01*
X0099933Y0058726D01*
X0099626Y0059026D01*
X0099326Y0059333D01*
X0099033Y0059648D01*
X0098749Y0059969D01*
X0098472Y0060298D01*
X0098204Y0060633D01*
X0097944Y0060975D01*
X0097692Y0061323D01*
X0097449Y0061678D01*
X0097215Y0062038D01*
X0096990Y0062403D01*
X0096773Y0062774D01*
X0096566Y0063151D01*
X0096369Y0063532D01*
X0096180Y0063918D01*
X0096001Y0064308D01*
X0095832Y0064703D01*
X0095673Y0065102D01*
X0095523Y0065504D01*
X0095383Y0065911D01*
X0095254Y0066320D01*
X0095134Y0066733D01*
X0095024Y0067148D01*
X0094925Y0067566D01*
X0094836Y0067986D01*
X0094758Y0068408D01*
X0094689Y0068832D01*
X0094632Y0069258D01*
X0094584Y0069685D01*
X0094547Y0070113D01*
X0094521Y0070541D01*
X0094505Y0070971D01*
X0094500Y0071400D01*
D46*
X0091800Y0070857D02*
X0091800Y0069823D01*
X0091800Y0070340D02*
X0088697Y0070340D01*
X0088697Y0069823D02*
X0088697Y0070857D01*
X0089214Y0071971D02*
X0091283Y0071971D01*
X0091800Y0072488D01*
X0091800Y0073523D01*
X0091283Y0074040D01*
X0091800Y0075194D02*
X0091800Y0077262D01*
X0091800Y0076228D02*
X0088697Y0076228D01*
X0089732Y0075194D01*
X0089214Y0074040D02*
X0088697Y0073523D01*
X0088697Y0072488D01*
X0089214Y0071971D01*
X0088697Y0068668D02*
X0091800Y0068668D01*
X0091800Y0066600D02*
X0088697Y0066600D01*
X0089732Y0067634D01*
X0088697Y0068668D01*
X0088474Y0057703D02*
X0087440Y0057703D01*
X0086923Y0057186D01*
X0085768Y0057186D02*
X0085251Y0057703D01*
X0084217Y0057703D01*
X0083700Y0057186D01*
X0083700Y0055117D01*
X0084217Y0054600D01*
X0085251Y0054600D01*
X0085768Y0055117D01*
X0086923Y0054600D02*
X0088991Y0056668D01*
X0088991Y0057186D01*
X0088474Y0057703D01*
X0088991Y0054600D02*
X0086923Y0054600D01*
X0096200Y0055117D02*
X0096717Y0054600D01*
X0097751Y0054600D01*
X0098268Y0055117D01*
X0099423Y0054600D02*
X0101491Y0054600D01*
X0100457Y0054600D02*
X0100457Y0057703D01*
X0099423Y0056668D01*
X0098268Y0057186D02*
X0097751Y0057703D01*
X0096717Y0057703D01*
X0096200Y0057186D01*
X0096200Y0055117D01*
X0107599Y0069798D02*
X0107599Y0072200D01*
X0115801Y0070999D02*
X0118203Y0070999D01*
X0117002Y0072200D02*
X0117002Y0069798D01*
X0121214Y0053391D02*
X0121732Y0053391D01*
X0122249Y0052874D01*
X0122766Y0053391D01*
X0123283Y0053391D01*
X0123800Y0052874D01*
X0123800Y0051840D01*
X0123283Y0051323D01*
X0123800Y0050168D02*
X0122766Y0049134D01*
X0122766Y0049651D02*
X0122766Y0048100D01*
X0123800Y0048100D02*
X0120697Y0048100D01*
X0120697Y0049651D01*
X0121214Y0050168D01*
X0122249Y0050168D01*
X0122766Y0049651D01*
X0121214Y0051323D02*
X0120697Y0051840D01*
X0120697Y0052874D01*
X0121214Y0053391D01*
X0122249Y0052874D02*
X0122249Y0052357D01*
X0122923Y0028703D02*
X0122923Y0027151D01*
X0123957Y0027668D01*
X0124474Y0027668D01*
X0124991Y0027151D01*
X0124991Y0026117D01*
X0124474Y0025600D01*
X0123440Y0025600D01*
X0122923Y0026117D01*
X0121768Y0025600D02*
X0120734Y0026634D01*
X0121251Y0026634D02*
X0119700Y0026634D01*
X0119700Y0025600D02*
X0119700Y0028703D01*
X0121251Y0028703D01*
X0121768Y0028186D01*
X0121768Y0027151D01*
X0121251Y0026634D01*
X0122923Y0028703D02*
X0124991Y0028703D01*
X0127200Y0028703D02*
X0128751Y0028703D01*
X0129268Y0028186D01*
X0129268Y0027151D01*
X0128751Y0026634D01*
X0127200Y0026634D01*
X0127200Y0025600D02*
X0127200Y0028703D01*
X0128234Y0026634D02*
X0129268Y0025600D01*
X0130423Y0027151D02*
X0132491Y0027151D01*
X0131974Y0025600D02*
X0131974Y0028703D01*
X0130423Y0027151D01*
X0127283Y0021891D02*
X0127800Y0021374D01*
X0127800Y0020340D01*
X0127283Y0019823D01*
X0127283Y0018668D02*
X0127800Y0018151D01*
X0127800Y0017117D01*
X0127283Y0016600D01*
X0125214Y0016600D01*
X0124697Y0017117D01*
X0124697Y0018151D01*
X0125214Y0018668D01*
X0125214Y0019823D02*
X0124697Y0020340D01*
X0124697Y0021374D01*
X0125214Y0021891D01*
X0125732Y0021891D01*
X0126249Y0021374D01*
X0126766Y0021891D01*
X0127283Y0021891D01*
X0126249Y0021374D02*
X0126249Y0020857D01*
X0106800Y0020340D02*
X0106800Y0021374D01*
X0106283Y0021891D01*
X0105766Y0021891D01*
X0105249Y0021374D01*
X0105249Y0019823D01*
X0106283Y0019823D01*
X0106800Y0020340D01*
X0105249Y0019823D02*
X0104214Y0020857D01*
X0103697Y0021891D01*
X0101800Y0019823D02*
X0101283Y0019823D01*
X0099214Y0021891D01*
X0098697Y0021891D01*
X0098697Y0019823D01*
X0099214Y0018668D02*
X0100249Y0018668D01*
X0100766Y0018151D01*
X0100766Y0016600D01*
X0101800Y0016600D02*
X0098697Y0016600D01*
X0098697Y0018151D01*
X0099214Y0018668D01*
X0100766Y0017634D02*
X0101800Y0018668D01*
X0103697Y0018151D02*
X0104214Y0018668D01*
X0105249Y0018668D01*
X0105766Y0018151D01*
X0105766Y0016600D01*
X0106800Y0016600D02*
X0103697Y0016600D01*
X0103697Y0018151D01*
X0105766Y0017634D02*
X0106800Y0018668D01*
X0096197Y0023100D02*
X0094462Y0023100D01*
X0095330Y0023100D02*
X0095330Y0025702D01*
X0094462Y0024835D01*
X0093435Y0025702D02*
X0093435Y0023534D01*
X0093001Y0023100D01*
X0092134Y0023100D01*
X0091700Y0023534D01*
X0091700Y0025702D01*
X0084300Y0029100D02*
X0079696Y0029100D01*
X0081998Y0029100D02*
X0081998Y0032169D01*
X0081231Y0033704D02*
X0079696Y0035239D01*
X0084300Y0035239D01*
X0084300Y0036773D02*
X0084300Y0033704D01*
X0084300Y0032169D02*
X0079696Y0032169D01*
X0082700Y0018203D02*
X0084251Y0018203D01*
X0084768Y0017686D01*
X0084768Y0016651D01*
X0084251Y0016134D01*
X0082700Y0016134D01*
X0082700Y0015100D02*
X0082700Y0018203D01*
X0083734Y0016134D02*
X0084768Y0015100D01*
X0085923Y0015100D02*
X0087991Y0015100D01*
X0086957Y0015100D02*
X0086957Y0018203D01*
X0085923Y0017168D01*
D47*
X0096126Y0026057D02*
X0096126Y0045743D01*
X0111874Y0045743D01*
X0111874Y0026057D01*
X0096126Y0026057D01*
D48*
X0099535Y0043000D02*
X0099537Y0043047D01*
X0099543Y0043094D01*
X0099553Y0043141D01*
X0099566Y0043186D01*
X0099584Y0043230D01*
X0099605Y0043272D01*
X0099629Y0043313D01*
X0099657Y0043351D01*
X0099688Y0043387D01*
X0099722Y0043420D01*
X0099758Y0043450D01*
X0099797Y0043477D01*
X0099838Y0043501D01*
X0099881Y0043521D01*
X0099925Y0043537D01*
X0099971Y0043550D01*
X0100017Y0043559D01*
X0100065Y0043564D01*
X0100112Y0043565D01*
X0100159Y0043562D01*
X0100206Y0043555D01*
X0100252Y0043544D01*
X0100297Y0043530D01*
X0100341Y0043511D01*
X0100382Y0043489D01*
X0100422Y0043464D01*
X0100460Y0043435D01*
X0100495Y0043404D01*
X0100528Y0043369D01*
X0100557Y0043332D01*
X0100583Y0043293D01*
X0100606Y0043251D01*
X0100625Y0043208D01*
X0100641Y0043163D01*
X0100653Y0043117D01*
X0100661Y0043071D01*
X0100665Y0043024D01*
X0100665Y0042976D01*
X0100661Y0042929D01*
X0100653Y0042883D01*
X0100641Y0042837D01*
X0100625Y0042792D01*
X0100606Y0042749D01*
X0100583Y0042707D01*
X0100557Y0042668D01*
X0100528Y0042631D01*
X0100495Y0042596D01*
X0100460Y0042565D01*
X0100422Y0042536D01*
X0100383Y0042511D01*
X0100341Y0042489D01*
X0100297Y0042470D01*
X0100252Y0042456D01*
X0100206Y0042445D01*
X0100159Y0042438D01*
X0100112Y0042435D01*
X0100065Y0042436D01*
X0100017Y0042441D01*
X0099971Y0042450D01*
X0099925Y0042463D01*
X0099881Y0042479D01*
X0099838Y0042499D01*
X0099797Y0042523D01*
X0099758Y0042550D01*
X0099722Y0042580D01*
X0099688Y0042613D01*
X0099657Y0042649D01*
X0099629Y0042687D01*
X0099605Y0042728D01*
X0099584Y0042770D01*
X0099566Y0042814D01*
X0099553Y0042859D01*
X0099543Y0042906D01*
X0099537Y0042953D01*
X0099535Y0043000D01*
D49*
X0055130Y0040770D02*
X0055130Y0015180D01*
X0055132Y0015070D01*
X0055138Y0014960D01*
X0055147Y0014851D01*
X0055161Y0014742D01*
X0055178Y0014633D01*
X0055199Y0014525D01*
X0055224Y0014418D01*
X0055252Y0014312D01*
X0055284Y0014207D01*
X0055320Y0014103D01*
X0055359Y0014000D01*
X0055402Y0013899D01*
X0055449Y0013799D01*
X0055499Y0013701D01*
X0055552Y0013605D01*
X0055609Y0013511D01*
X0055669Y0013419D01*
X0055732Y0013328D01*
X0055798Y0013241D01*
X0055867Y0013155D01*
X0055939Y0013072D01*
X0056014Y0012992D01*
X0056092Y0012914D01*
X0056172Y0012839D01*
X0056255Y0012767D01*
X0056341Y0012698D01*
X0056428Y0012632D01*
X0056519Y0012569D01*
X0056611Y0012509D01*
X0056705Y0012452D01*
X0056801Y0012399D01*
X0056899Y0012349D01*
X0056999Y0012302D01*
X0057100Y0012259D01*
X0057203Y0012220D01*
X0057307Y0012184D01*
X0057412Y0012152D01*
X0057518Y0012124D01*
X0057625Y0012099D01*
X0057733Y0012078D01*
X0057842Y0012061D01*
X0057951Y0012047D01*
X0058060Y0012038D01*
X0058170Y0012032D01*
X0058280Y0012030D01*
X0086232Y0012030D01*
X0086286Y0012028D01*
X0086339Y0012023D01*
X0086392Y0012014D01*
X0086444Y0012001D01*
X0086496Y0011985D01*
X0086546Y0011965D01*
X0086594Y0011942D01*
X0086641Y0011915D01*
X0086686Y0011886D01*
X0086729Y0011853D01*
X0086769Y0011818D01*
X0086807Y0011780D01*
X0086842Y0011740D01*
X0086875Y0011697D01*
X0086904Y0011652D01*
X0086931Y0011605D01*
X0086954Y0011557D01*
X0086974Y0011507D01*
X0086990Y0011455D01*
X0087003Y0011403D01*
X0087012Y0011350D01*
X0087017Y0011297D01*
X0087019Y0011243D01*
X0087041Y0011060D01*
X0087067Y0010878D01*
X0087097Y0010697D01*
X0087132Y0010516D01*
X0087171Y0010337D01*
X0087215Y0010158D01*
X0087262Y0009981D01*
X0087315Y0009805D01*
X0087371Y0009630D01*
X0087432Y0009456D01*
X0087497Y0009284D01*
X0087566Y0009114D01*
X0087639Y0008946D01*
X0087717Y0008779D01*
X0087798Y0008614D01*
X0087884Y0008452D01*
X0087973Y0008291D01*
X0088066Y0008133D01*
X0088164Y0007977D01*
X0088264Y0007823D01*
X0088369Y0007672D01*
X0088477Y0007524D01*
X0088589Y0007378D01*
X0088705Y0007235D01*
X0088824Y0007095D01*
X0088946Y0006957D01*
X0089071Y0006823D01*
X0089200Y0006692D01*
X0089332Y0006564D01*
X0089467Y0006440D01*
X0089605Y0006318D01*
X0089746Y0006201D01*
X0089890Y0006086D01*
X0090037Y0005975D01*
X0090186Y0005868D01*
X0090338Y0005765D01*
X0090492Y0005665D01*
X0090649Y0005569D01*
X0090808Y0005477D01*
X0090969Y0005388D01*
X0091132Y0005304D01*
X0091298Y0005224D01*
X0091465Y0005148D01*
X0091634Y0005075D01*
X0091805Y0005008D01*
X0091977Y0004944D01*
X0092151Y0004884D01*
X0092326Y0004829D01*
X0092503Y0004778D01*
X0092680Y0004731D01*
X0092859Y0004689D01*
X0093039Y0004651D01*
X0093220Y0004618D01*
X0093401Y0004589D01*
X0093583Y0004564D01*
X0093766Y0004544D01*
X0093949Y0004528D01*
X0094133Y0004517D01*
X0094316Y0004510D01*
X0094500Y0004508D01*
X0094684Y0004510D01*
X0094867Y0004517D01*
X0095051Y0004528D01*
X0095234Y0004544D01*
X0095417Y0004564D01*
X0095599Y0004589D01*
X0095780Y0004618D01*
X0095961Y0004651D01*
X0096141Y0004689D01*
X0096320Y0004731D01*
X0096497Y0004778D01*
X0096674Y0004829D01*
X0096849Y0004884D01*
X0097023Y0004944D01*
X0097195Y0005008D01*
X0097366Y0005075D01*
X0097535Y0005148D01*
X0097702Y0005224D01*
X0097868Y0005304D01*
X0098031Y0005388D01*
X0098192Y0005477D01*
X0098351Y0005569D01*
X0098508Y0005665D01*
X0098662Y0005765D01*
X0098814Y0005868D01*
X0098963Y0005975D01*
X0099110Y0006086D01*
X0099254Y0006201D01*
X0099395Y0006318D01*
X0099533Y0006440D01*
X0099668Y0006564D01*
X0099800Y0006692D01*
X0099929Y0006823D01*
X0100054Y0006957D01*
X0100176Y0007095D01*
X0100295Y0007235D01*
X0100411Y0007378D01*
X0100523Y0007524D01*
X0100631Y0007672D01*
X0100736Y0007823D01*
X0100836Y0007977D01*
X0100934Y0008133D01*
X0101027Y0008291D01*
X0101116Y0008452D01*
X0101202Y0008614D01*
X0101283Y0008779D01*
X0101361Y0008946D01*
X0101434Y0009114D01*
X0101503Y0009284D01*
X0101568Y0009456D01*
X0101629Y0009630D01*
X0101685Y0009805D01*
X0101738Y0009981D01*
X0101785Y0010158D01*
X0101829Y0010337D01*
X0101868Y0010516D01*
X0101903Y0010697D01*
X0101933Y0010878D01*
X0101959Y0011060D01*
X0101981Y0011243D01*
X0101983Y0011297D01*
X0101988Y0011350D01*
X0101997Y0011403D01*
X0102010Y0011455D01*
X0102026Y0011507D01*
X0102046Y0011557D01*
X0102069Y0011605D01*
X0102096Y0011652D01*
X0102125Y0011697D01*
X0102158Y0011740D01*
X0102193Y0011780D01*
X0102231Y0011818D01*
X0102271Y0011853D01*
X0102314Y0011886D01*
X0102359Y0011915D01*
X0102406Y0011942D01*
X0102454Y0011965D01*
X0102504Y0011985D01*
X0102556Y0012001D01*
X0102608Y0012014D01*
X0102661Y0012023D01*
X0102714Y0012028D01*
X0102768Y0012030D01*
X0130720Y0012030D01*
X0130830Y0012032D01*
X0130940Y0012038D01*
X0131049Y0012047D01*
X0131158Y0012061D01*
X0131267Y0012078D01*
X0131375Y0012099D01*
X0131482Y0012124D01*
X0131588Y0012152D01*
X0131693Y0012184D01*
X0131797Y0012220D01*
X0131900Y0012259D01*
X0132001Y0012302D01*
X0132101Y0012349D01*
X0132199Y0012399D01*
X0132295Y0012452D01*
X0132389Y0012509D01*
X0132481Y0012569D01*
X0132572Y0012632D01*
X0132659Y0012698D01*
X0132745Y0012767D01*
X0132828Y0012839D01*
X0132908Y0012914D01*
X0132986Y0012992D01*
X0133061Y0013072D01*
X0133133Y0013155D01*
X0133202Y0013241D01*
X0133268Y0013328D01*
X0133331Y0013419D01*
X0133391Y0013511D01*
X0133448Y0013605D01*
X0133501Y0013701D01*
X0133551Y0013799D01*
X0133598Y0013899D01*
X0133641Y0014000D01*
X0133680Y0014103D01*
X0133716Y0014207D01*
X0133748Y0014312D01*
X0133776Y0014418D01*
X0133801Y0014525D01*
X0133822Y0014633D01*
X0133839Y0014742D01*
X0133853Y0014851D01*
X0133862Y0014960D01*
X0133868Y0015070D01*
X0133870Y0015180D01*
X0133870Y0040770D01*
X0133868Y0040836D01*
X0133863Y0040902D01*
X0133853Y0040968D01*
X0133840Y0041033D01*
X0133824Y0041097D01*
X0133804Y0041160D01*
X0133780Y0041222D01*
X0133753Y0041282D01*
X0133723Y0041341D01*
X0133689Y0041398D01*
X0133652Y0041453D01*
X0133612Y0041506D01*
X0133570Y0041557D01*
X0133524Y0041605D01*
X0133476Y0041651D01*
X0133425Y0041693D01*
X0133372Y0041733D01*
X0133317Y0041770D01*
X0133260Y0041804D01*
X0133201Y0041834D01*
X0133141Y0041861D01*
X0133079Y0041885D01*
X0133016Y0041905D01*
X0132952Y0041921D01*
X0132887Y0041934D01*
X0132821Y0041944D01*
X0132755Y0041949D01*
X0132689Y0041951D01*
X0132689Y0041952D02*
X0132458Y0041983D01*
X0132227Y0042021D01*
X0131998Y0042064D01*
X0131770Y0042113D01*
X0131543Y0042167D01*
X0131317Y0042227D01*
X0131093Y0042292D01*
X0130870Y0042363D01*
X0130650Y0042439D01*
X0130431Y0042521D01*
X0130214Y0042608D01*
X0130000Y0042700D01*
X0129788Y0042797D01*
X0129578Y0042900D01*
X0129371Y0043008D01*
X0129167Y0043121D01*
X0128965Y0043238D01*
X0128767Y0043361D01*
X0128571Y0043489D01*
X0128379Y0043621D01*
X0128190Y0043758D01*
X0128004Y0043899D01*
X0127822Y0044045D01*
X0127643Y0044196D01*
X0127469Y0044351D01*
X0127298Y0044510D01*
X0127131Y0044673D01*
X0126968Y0044840D01*
X0126809Y0045011D01*
X0126655Y0045186D01*
X0126505Y0045365D01*
X0126359Y0045547D01*
X0126218Y0045733D01*
X0126081Y0045923D01*
X0125949Y0046115D01*
X0125822Y0046311D01*
X0125700Y0046510D01*
X0125582Y0046711D01*
X0125470Y0046916D01*
X0125362Y0047123D01*
X0125260Y0047333D01*
X0125163Y0047545D01*
X0125071Y0047760D01*
X0124985Y0047977D01*
X0124903Y0048196D01*
X0124828Y0048416D01*
X0124757Y0048639D01*
X0124692Y0048863D01*
X0124633Y0049089D01*
X0124579Y0049316D01*
X0124531Y0049544D01*
X0124488Y0049774D01*
X0124451Y0050004D01*
X0124419Y0050236D01*
X0124394Y0050468D01*
X0124374Y0050700D01*
X0124359Y0050933D01*
X0124351Y0051167D01*
X0124348Y0051400D01*
X0124351Y0051633D01*
X0124359Y0051867D01*
X0124374Y0052100D01*
X0124394Y0052332D01*
X0124419Y0052564D01*
X0124451Y0052796D01*
X0124488Y0053026D01*
X0124531Y0053256D01*
X0124579Y0053484D01*
X0124633Y0053711D01*
X0124692Y0053937D01*
X0124757Y0054161D01*
X0124828Y0054384D01*
X0124903Y0054604D01*
X0124985Y0054823D01*
X0125071Y0055040D01*
X0125163Y0055255D01*
X0125260Y0055467D01*
X0125362Y0055677D01*
X0125470Y0055884D01*
X0125582Y0056089D01*
X0125700Y0056290D01*
X0125822Y0056489D01*
X0125949Y0056685D01*
X0126081Y0056877D01*
X0126218Y0057067D01*
X0126359Y0057253D01*
X0126505Y0057435D01*
X0126655Y0057614D01*
X0126809Y0057789D01*
X0126968Y0057960D01*
X0127131Y0058127D01*
X0127298Y0058290D01*
X0127469Y0058449D01*
X0127643Y0058604D01*
X0127822Y0058755D01*
X0128004Y0058901D01*
X0128190Y0059042D01*
X0128379Y0059179D01*
X0128571Y0059311D01*
X0128767Y0059439D01*
X0128965Y0059562D01*
X0129167Y0059679D01*
X0129371Y0059792D01*
X0129578Y0059900D01*
X0129788Y0060003D01*
X0130000Y0060100D01*
X0130214Y0060192D01*
X0130431Y0060279D01*
X0130650Y0060361D01*
X0130870Y0060437D01*
X0131093Y0060508D01*
X0131317Y0060573D01*
X0131543Y0060633D01*
X0131770Y0060687D01*
X0131998Y0060736D01*
X0132227Y0060779D01*
X0132458Y0060817D01*
X0132689Y0060848D01*
X0132689Y0060849D02*
X0132755Y0060851D01*
X0132821Y0060856D01*
X0132887Y0060866D01*
X0132952Y0060879D01*
X0133016Y0060895D01*
X0133079Y0060915D01*
X0133141Y0060939D01*
X0133201Y0060966D01*
X0133260Y0060996D01*
X0133317Y0061030D01*
X0133372Y0061067D01*
X0133425Y0061107D01*
X0133476Y0061149D01*
X0133524Y0061195D01*
X0133570Y0061243D01*
X0133612Y0061294D01*
X0133652Y0061347D01*
X0133689Y0061402D01*
X0133723Y0061459D01*
X0133753Y0061518D01*
X0133780Y0061578D01*
X0133804Y0061640D01*
X0133824Y0061703D01*
X0133840Y0061767D01*
X0133853Y0061832D01*
X0133863Y0061898D01*
X0133868Y0061964D01*
X0133870Y0062030D01*
X0133870Y0087620D01*
X0133868Y0087730D01*
X0133862Y0087840D01*
X0133853Y0087949D01*
X0133839Y0088058D01*
X0133822Y0088167D01*
X0133801Y0088275D01*
X0133776Y0088382D01*
X0133748Y0088488D01*
X0133716Y0088593D01*
X0133680Y0088697D01*
X0133641Y0088800D01*
X0133598Y0088901D01*
X0133551Y0089001D01*
X0133501Y0089099D01*
X0133448Y0089195D01*
X0133391Y0089289D01*
X0133331Y0089381D01*
X0133268Y0089472D01*
X0133202Y0089559D01*
X0133133Y0089645D01*
X0133061Y0089728D01*
X0132986Y0089808D01*
X0132908Y0089886D01*
X0132828Y0089961D01*
X0132745Y0090033D01*
X0132659Y0090102D01*
X0132572Y0090168D01*
X0132481Y0090231D01*
X0132389Y0090291D01*
X0132295Y0090348D01*
X0132199Y0090401D01*
X0132101Y0090451D01*
X0132001Y0090498D01*
X0131900Y0090541D01*
X0131797Y0090580D01*
X0131693Y0090616D01*
X0131588Y0090648D01*
X0131482Y0090676D01*
X0131375Y0090701D01*
X0131267Y0090722D01*
X0131158Y0090739D01*
X0131049Y0090753D01*
X0130940Y0090762D01*
X0130830Y0090768D01*
X0130720Y0090770D01*
X0102768Y0090770D01*
X0103161Y0090770D02*
X0103095Y0090772D01*
X0103029Y0090777D01*
X0102963Y0090787D01*
X0102898Y0090800D01*
X0102834Y0090816D01*
X0102771Y0090836D01*
X0102709Y0090860D01*
X0102649Y0090887D01*
X0102590Y0090917D01*
X0102533Y0090951D01*
X0102478Y0090988D01*
X0102425Y0091028D01*
X0102374Y0091070D01*
X0102326Y0091116D01*
X0102280Y0091164D01*
X0102238Y0091215D01*
X0102198Y0091268D01*
X0102161Y0091323D01*
X0102127Y0091380D01*
X0102097Y0091439D01*
X0102070Y0091499D01*
X0102046Y0091561D01*
X0102026Y0091624D01*
X0102010Y0091688D01*
X0101997Y0091753D01*
X0101987Y0091819D01*
X0101982Y0091885D01*
X0101980Y0091951D01*
X0101949Y0092133D01*
X0101914Y0092314D01*
X0101874Y0092495D01*
X0101830Y0092674D01*
X0101781Y0092852D01*
X0101728Y0093029D01*
X0101671Y0093204D01*
X0101610Y0093379D01*
X0101544Y0093551D01*
X0101474Y0093722D01*
X0101400Y0093891D01*
X0101322Y0094058D01*
X0101240Y0094224D01*
X0101153Y0094387D01*
X0101063Y0094548D01*
X0100969Y0094707D01*
X0100871Y0094864D01*
X0100769Y0095018D01*
X0100664Y0095169D01*
X0100555Y0095318D01*
X0100442Y0095465D01*
X0100326Y0095608D01*
X0100206Y0095749D01*
X0100083Y0095886D01*
X0099957Y0096021D01*
X0099827Y0096152D01*
X0099694Y0096281D01*
X0099559Y0096406D01*
X0099420Y0096527D01*
X0099278Y0096646D01*
X0099133Y0096760D01*
X0098986Y0096872D01*
X0098836Y0096979D01*
X0098683Y0097083D01*
X0098528Y0097183D01*
X0098370Y0097279D01*
X0098210Y0097372D01*
X0098048Y0097460D01*
X0097884Y0097545D01*
X0097718Y0097625D01*
X0097550Y0097702D01*
X0097380Y0097774D01*
X0097208Y0097842D01*
X0097035Y0097906D01*
X0096860Y0097966D01*
X0096684Y0098021D01*
X0096507Y0098072D01*
X0096328Y0098119D01*
X0096149Y0098161D01*
X0095968Y0098199D01*
X0095786Y0098233D01*
X0095604Y0098262D01*
X0095421Y0098287D01*
X0095237Y0098307D01*
X0095053Y0098323D01*
X0094869Y0098334D01*
X0094685Y0098341D01*
X0094500Y0098343D01*
X0094315Y0098341D01*
X0094131Y0098334D01*
X0093947Y0098323D01*
X0093763Y0098307D01*
X0093579Y0098287D01*
X0093396Y0098262D01*
X0093214Y0098233D01*
X0093032Y0098199D01*
X0092851Y0098161D01*
X0092672Y0098119D01*
X0092493Y0098072D01*
X0092316Y0098021D01*
X0092140Y0097966D01*
X0091965Y0097906D01*
X0091792Y0097842D01*
X0091620Y0097774D01*
X0091450Y0097702D01*
X0091282Y0097625D01*
X0091116Y0097545D01*
X0090952Y0097460D01*
X0090790Y0097372D01*
X0090630Y0097279D01*
X0090472Y0097183D01*
X0090317Y0097083D01*
X0090164Y0096979D01*
X0090014Y0096872D01*
X0089867Y0096760D01*
X0089722Y0096646D01*
X0089580Y0096527D01*
X0089441Y0096406D01*
X0089306Y0096281D01*
X0089173Y0096152D01*
X0089043Y0096021D01*
X0088917Y0095886D01*
X0088794Y0095749D01*
X0088674Y0095608D01*
X0088558Y0095465D01*
X0088445Y0095318D01*
X0088336Y0095169D01*
X0088231Y0095018D01*
X0088129Y0094864D01*
X0088031Y0094707D01*
X0087937Y0094548D01*
X0087847Y0094387D01*
X0087760Y0094224D01*
X0087678Y0094058D01*
X0087600Y0093891D01*
X0087526Y0093722D01*
X0087456Y0093551D01*
X0087390Y0093379D01*
X0087329Y0093204D01*
X0087272Y0093029D01*
X0087219Y0092852D01*
X0087170Y0092674D01*
X0087126Y0092495D01*
X0087086Y0092314D01*
X0087051Y0092133D01*
X0087020Y0091951D01*
X0087018Y0091885D01*
X0087013Y0091819D01*
X0087003Y0091753D01*
X0086990Y0091688D01*
X0086974Y0091624D01*
X0086954Y0091561D01*
X0086930Y0091499D01*
X0086903Y0091439D01*
X0086873Y0091380D01*
X0086839Y0091323D01*
X0086802Y0091268D01*
X0086762Y0091215D01*
X0086720Y0091164D01*
X0086674Y0091116D01*
X0086626Y0091070D01*
X0086575Y0091028D01*
X0086522Y0090988D01*
X0086467Y0090951D01*
X0086410Y0090917D01*
X0086351Y0090887D01*
X0086291Y0090860D01*
X0086229Y0090836D01*
X0086166Y0090816D01*
X0086102Y0090800D01*
X0086037Y0090787D01*
X0085971Y0090777D01*
X0085905Y0090772D01*
X0085839Y0090770D01*
X0058280Y0090770D01*
X0058170Y0090768D01*
X0058060Y0090762D01*
X0057951Y0090753D01*
X0057842Y0090739D01*
X0057733Y0090722D01*
X0057625Y0090701D01*
X0057518Y0090676D01*
X0057412Y0090648D01*
X0057307Y0090616D01*
X0057203Y0090580D01*
X0057100Y0090541D01*
X0056999Y0090498D01*
X0056899Y0090451D01*
X0056801Y0090401D01*
X0056705Y0090348D01*
X0056611Y0090291D01*
X0056519Y0090231D01*
X0056428Y0090168D01*
X0056341Y0090102D01*
X0056255Y0090033D01*
X0056172Y0089961D01*
X0056092Y0089886D01*
X0056014Y0089808D01*
X0055939Y0089728D01*
X0055867Y0089645D01*
X0055798Y0089559D01*
X0055732Y0089472D01*
X0055669Y0089381D01*
X0055609Y0089289D01*
X0055552Y0089195D01*
X0055499Y0089099D01*
X0055449Y0089001D01*
X0055402Y0088901D01*
X0055359Y0088800D01*
X0055320Y0088697D01*
X0055284Y0088593D01*
X0055252Y0088488D01*
X0055224Y0088382D01*
X0055199Y0088275D01*
X0055178Y0088167D01*
X0055161Y0088058D01*
X0055147Y0087949D01*
X0055138Y0087840D01*
X0055132Y0087730D01*
X0055130Y0087620D01*
X0055130Y0062030D01*
X0055132Y0061964D01*
X0055137Y0061898D01*
X0055147Y0061832D01*
X0055160Y0061767D01*
X0055176Y0061703D01*
X0055196Y0061640D01*
X0055220Y0061578D01*
X0055247Y0061518D01*
X0055277Y0061459D01*
X0055311Y0061402D01*
X0055348Y0061347D01*
X0055388Y0061294D01*
X0055430Y0061243D01*
X0055476Y0061195D01*
X0055524Y0061149D01*
X0055575Y0061107D01*
X0055628Y0061067D01*
X0055683Y0061030D01*
X0055740Y0060996D01*
X0055799Y0060966D01*
X0055859Y0060939D01*
X0055921Y0060915D01*
X0055984Y0060895D01*
X0056048Y0060879D01*
X0056113Y0060866D01*
X0056179Y0060856D01*
X0056245Y0060851D01*
X0056311Y0060849D01*
X0056311Y0060848D02*
X0056542Y0060817D01*
X0056773Y0060779D01*
X0057002Y0060736D01*
X0057230Y0060687D01*
X0057457Y0060633D01*
X0057683Y0060573D01*
X0057907Y0060508D01*
X0058130Y0060437D01*
X0058350Y0060361D01*
X0058569Y0060279D01*
X0058786Y0060192D01*
X0059000Y0060100D01*
X0059212Y0060003D01*
X0059422Y0059900D01*
X0059629Y0059792D01*
X0059833Y0059679D01*
X0060035Y0059562D01*
X0060233Y0059439D01*
X0060429Y0059311D01*
X0060621Y0059179D01*
X0060810Y0059042D01*
X0060996Y0058901D01*
X0061178Y0058755D01*
X0061357Y0058604D01*
X0061531Y0058449D01*
X0061702Y0058290D01*
X0061869Y0058127D01*
X0062032Y0057960D01*
X0062191Y0057789D01*
X0062345Y0057614D01*
X0062495Y0057435D01*
X0062641Y0057253D01*
X0062782Y0057067D01*
X0062919Y0056877D01*
X0063051Y0056685D01*
X0063178Y0056489D01*
X0063300Y0056290D01*
X0063418Y0056089D01*
X0063530Y0055884D01*
X0063638Y0055677D01*
X0063740Y0055467D01*
X0063837Y0055255D01*
X0063929Y0055040D01*
X0064015Y0054823D01*
X0064097Y0054604D01*
X0064172Y0054384D01*
X0064243Y0054161D01*
X0064308Y0053937D01*
X0064367Y0053711D01*
X0064421Y0053484D01*
X0064469Y0053256D01*
X0064512Y0053026D01*
X0064549Y0052796D01*
X0064581Y0052564D01*
X0064606Y0052332D01*
X0064626Y0052100D01*
X0064641Y0051867D01*
X0064649Y0051633D01*
X0064652Y0051400D01*
X0064649Y0051167D01*
X0064641Y0050933D01*
X0064626Y0050700D01*
X0064606Y0050468D01*
X0064581Y0050236D01*
X0064549Y0050004D01*
X0064512Y0049774D01*
X0064469Y0049544D01*
X0064421Y0049316D01*
X0064367Y0049089D01*
X0064308Y0048863D01*
X0064243Y0048639D01*
X0064172Y0048416D01*
X0064097Y0048196D01*
X0064015Y0047977D01*
X0063929Y0047760D01*
X0063837Y0047545D01*
X0063740Y0047333D01*
X0063638Y0047123D01*
X0063530Y0046916D01*
X0063418Y0046711D01*
X0063300Y0046510D01*
X0063178Y0046311D01*
X0063051Y0046115D01*
X0062919Y0045923D01*
X0062782Y0045733D01*
X0062641Y0045547D01*
X0062495Y0045365D01*
X0062345Y0045186D01*
X0062191Y0045011D01*
X0062032Y0044840D01*
X0061869Y0044673D01*
X0061702Y0044510D01*
X0061531Y0044351D01*
X0061357Y0044196D01*
X0061178Y0044045D01*
X0060996Y0043899D01*
X0060810Y0043758D01*
X0060621Y0043621D01*
X0060429Y0043489D01*
X0060233Y0043361D01*
X0060035Y0043238D01*
X0059833Y0043121D01*
X0059629Y0043008D01*
X0059422Y0042900D01*
X0059212Y0042797D01*
X0059000Y0042700D01*
X0058786Y0042608D01*
X0058569Y0042521D01*
X0058350Y0042439D01*
X0058130Y0042363D01*
X0057907Y0042292D01*
X0057683Y0042227D01*
X0057457Y0042167D01*
X0057230Y0042113D01*
X0057002Y0042064D01*
X0056773Y0042021D01*
X0056542Y0041983D01*
X0056311Y0041952D01*
X0056311Y0041951D02*
X0056245Y0041949D01*
X0056179Y0041944D01*
X0056113Y0041934D01*
X0056048Y0041921D01*
X0055984Y0041905D01*
X0055921Y0041885D01*
X0055859Y0041861D01*
X0055799Y0041834D01*
X0055740Y0041804D01*
X0055683Y0041770D01*
X0055628Y0041733D01*
X0055575Y0041693D01*
X0055524Y0041651D01*
X0055476Y0041605D01*
X0055430Y0041557D01*
X0055388Y0041506D01*
X0055348Y0041453D01*
X0055311Y0041398D01*
X0055277Y0041341D01*
X0055247Y0041282D01*
X0055220Y0041222D01*
X0055196Y0041160D01*
X0055176Y0041097D01*
X0055160Y0041033D01*
X0055147Y0040968D01*
X0055137Y0040902D01*
X0055132Y0040836D01*
X0055130Y0040770D01*
X0055130Y0015180D02*
X0055132Y0015070D01*
X0055138Y0014960D01*
X0055147Y0014851D01*
X0055161Y0014742D01*
X0055178Y0014633D01*
X0055199Y0014525D01*
X0055224Y0014418D01*
X0055252Y0014312D01*
X0055284Y0014207D01*
X0055320Y0014103D01*
X0055359Y0014000D01*
X0055402Y0013899D01*
X0055449Y0013799D01*
X0055499Y0013701D01*
X0055552Y0013605D01*
X0055609Y0013511D01*
X0055669Y0013419D01*
X0055732Y0013328D01*
X0055798Y0013241D01*
X0055867Y0013155D01*
X0055939Y0013072D01*
X0056014Y0012992D01*
X0056092Y0012914D01*
X0056172Y0012839D01*
X0056255Y0012767D01*
X0056341Y0012698D01*
X0056428Y0012632D01*
X0056519Y0012569D01*
X0056611Y0012509D01*
X0056705Y0012452D01*
X0056801Y0012399D01*
X0056899Y0012349D01*
X0056999Y0012302D01*
X0057100Y0012259D01*
X0057203Y0012220D01*
X0057307Y0012184D01*
X0057412Y0012152D01*
X0057518Y0012124D01*
X0057625Y0012099D01*
X0057733Y0012078D01*
X0057842Y0012061D01*
X0057951Y0012047D01*
X0058060Y0012038D01*
X0058170Y0012032D01*
X0058280Y0012030D01*
X0130720Y0012030D02*
X0130830Y0012032D01*
X0130940Y0012038D01*
X0131049Y0012047D01*
X0131158Y0012061D01*
X0131267Y0012078D01*
X0131375Y0012099D01*
X0131482Y0012124D01*
X0131588Y0012152D01*
X0131693Y0012184D01*
X0131797Y0012220D01*
X0131900Y0012259D01*
X0132001Y0012302D01*
X0132101Y0012349D01*
X0132199Y0012399D01*
X0132295Y0012452D01*
X0132389Y0012509D01*
X0132481Y0012569D01*
X0132572Y0012632D01*
X0132659Y0012698D01*
X0132745Y0012767D01*
X0132828Y0012839D01*
X0132908Y0012914D01*
X0132986Y0012992D01*
X0133061Y0013072D01*
X0133133Y0013155D01*
X0133202Y0013241D01*
X0133268Y0013328D01*
X0133331Y0013419D01*
X0133391Y0013511D01*
X0133448Y0013605D01*
X0133501Y0013701D01*
X0133551Y0013799D01*
X0133598Y0013899D01*
X0133641Y0014000D01*
X0133680Y0014103D01*
X0133716Y0014207D01*
X0133748Y0014312D01*
X0133776Y0014418D01*
X0133801Y0014525D01*
X0133822Y0014633D01*
X0133839Y0014742D01*
X0133853Y0014851D01*
X0133862Y0014960D01*
X0133868Y0015070D01*
X0133870Y0015180D01*
X0133868Y0015070D01*
X0133862Y0014960D01*
X0133853Y0014851D01*
X0133839Y0014742D01*
X0133822Y0014633D01*
X0133801Y0014525D01*
X0133776Y0014418D01*
X0133748Y0014312D01*
X0133716Y0014207D01*
X0133680Y0014103D01*
X0133641Y0014000D01*
X0133598Y0013899D01*
X0133551Y0013799D01*
X0133501Y0013701D01*
X0133448Y0013605D01*
X0133391Y0013511D01*
X0133331Y0013419D01*
X0133268Y0013328D01*
X0133202Y0013241D01*
X0133133Y0013155D01*
X0133061Y0013072D01*
X0132986Y0012992D01*
X0132908Y0012914D01*
X0132828Y0012839D01*
X0132745Y0012767D01*
X0132659Y0012698D01*
X0132572Y0012632D01*
X0132481Y0012569D01*
X0132389Y0012509D01*
X0132295Y0012452D01*
X0132199Y0012399D01*
X0132101Y0012349D01*
X0132001Y0012302D01*
X0131900Y0012259D01*
X0131797Y0012220D01*
X0131693Y0012184D01*
X0131588Y0012152D01*
X0131482Y0012124D01*
X0131375Y0012099D01*
X0131267Y0012078D01*
X0131158Y0012061D01*
X0131049Y0012047D01*
X0130940Y0012038D01*
X0130830Y0012032D01*
X0130720Y0012030D01*
X0133870Y0087620D02*
X0133868Y0087730D01*
X0133862Y0087840D01*
X0133853Y0087949D01*
X0133839Y0088058D01*
X0133822Y0088167D01*
X0133801Y0088275D01*
X0133776Y0088382D01*
X0133748Y0088488D01*
X0133716Y0088593D01*
X0133680Y0088697D01*
X0133641Y0088800D01*
X0133598Y0088901D01*
X0133551Y0089001D01*
X0133501Y0089099D01*
X0133448Y0089195D01*
X0133391Y0089289D01*
X0133331Y0089381D01*
X0133268Y0089472D01*
X0133202Y0089559D01*
X0133133Y0089645D01*
X0133061Y0089728D01*
X0132986Y0089808D01*
X0132908Y0089886D01*
X0132828Y0089961D01*
X0132745Y0090033D01*
X0132659Y0090102D01*
X0132572Y0090168D01*
X0132481Y0090231D01*
X0132389Y0090291D01*
X0132295Y0090348D01*
X0132199Y0090401D01*
X0132101Y0090451D01*
X0132001Y0090498D01*
X0131900Y0090541D01*
X0131797Y0090580D01*
X0131693Y0090616D01*
X0131588Y0090648D01*
X0131482Y0090676D01*
X0131375Y0090701D01*
X0131267Y0090722D01*
X0131158Y0090739D01*
X0131049Y0090753D01*
X0130940Y0090762D01*
X0130830Y0090768D01*
X0130720Y0090770D01*
X0130830Y0090768D01*
X0130940Y0090762D01*
X0131049Y0090753D01*
X0131158Y0090739D01*
X0131267Y0090722D01*
X0131375Y0090701D01*
X0131482Y0090676D01*
X0131588Y0090648D01*
X0131693Y0090616D01*
X0131797Y0090580D01*
X0131900Y0090541D01*
X0132001Y0090498D01*
X0132101Y0090451D01*
X0132199Y0090401D01*
X0132295Y0090348D01*
X0132389Y0090291D01*
X0132481Y0090231D01*
X0132572Y0090168D01*
X0132659Y0090102D01*
X0132745Y0090033D01*
X0132828Y0089961D01*
X0132908Y0089886D01*
X0132986Y0089808D01*
X0133061Y0089728D01*
X0133133Y0089645D01*
X0133202Y0089559D01*
X0133268Y0089472D01*
X0133331Y0089381D01*
X0133391Y0089289D01*
X0133448Y0089195D01*
X0133501Y0089099D01*
X0133551Y0089001D01*
X0133598Y0088901D01*
X0133641Y0088800D01*
X0133680Y0088697D01*
X0133716Y0088593D01*
X0133748Y0088488D01*
X0133776Y0088382D01*
X0133801Y0088275D01*
X0133822Y0088167D01*
X0133839Y0088058D01*
X0133853Y0087949D01*
X0133862Y0087840D01*
X0133868Y0087730D01*
X0133870Y0087620D01*
X0058280Y0090770D02*
X0058170Y0090768D01*
X0058060Y0090762D01*
X0057951Y0090753D01*
X0057842Y0090739D01*
X0057733Y0090722D01*
X0057625Y0090701D01*
X0057518Y0090676D01*
X0057412Y0090648D01*
X0057307Y0090616D01*
X0057203Y0090580D01*
X0057100Y0090541D01*
X0056999Y0090498D01*
X0056899Y0090451D01*
X0056801Y0090401D01*
X0056705Y0090348D01*
X0056611Y0090291D01*
X0056519Y0090231D01*
X0056428Y0090168D01*
X0056341Y0090102D01*
X0056255Y0090033D01*
X0056172Y0089961D01*
X0056092Y0089886D01*
X0056014Y0089808D01*
X0055939Y0089728D01*
X0055867Y0089645D01*
X0055798Y0089559D01*
X0055732Y0089472D01*
X0055669Y0089381D01*
X0055609Y0089289D01*
X0055552Y0089195D01*
X0055499Y0089099D01*
X0055449Y0089001D01*
X0055402Y0088901D01*
X0055359Y0088800D01*
X0055320Y0088697D01*
X0055284Y0088593D01*
X0055252Y0088488D01*
X0055224Y0088382D01*
X0055199Y0088275D01*
X0055178Y0088167D01*
X0055161Y0088058D01*
X0055147Y0087949D01*
X0055138Y0087840D01*
X0055132Y0087730D01*
X0055130Y0087620D01*
M02*
