G75*
%MOIN*%
%OFA0B0*%
%FSLAX25Y25*%
%IPPOS*%
%LPD*%
%AMOC8*
5,1,8,0,0,1.08239X$1,22.5*
%
%ADD10R,0.02165X0.04724*%
%ADD11R,0.03500X0.04000*%
%ADD12R,0.04000X0.03500*%
%ADD13C,0.00000*%
%ADD14R,0.05150X0.05150*%
%ADD15C,0.05150*%
%ADD16C,0.02000*%
%ADD17C,0.01600*%
%ADD18C,0.03562*%
D10*
X0013060Y0021182D03*
X0016800Y0021182D03*
X0020540Y0021182D03*
X0020540Y0031418D03*
X0016800Y0031418D03*
X0013060Y0031418D03*
D11*
X0013100Y0037900D03*
X0020100Y0037900D03*
X0071700Y0019700D03*
X0078700Y0019700D03*
D12*
X0078800Y0031400D03*
X0078800Y0038400D03*
X0071700Y0038400D03*
X0071700Y0031400D03*
D13*
X0027115Y0014430D02*
X0010580Y0014430D01*
X0010470Y0014432D01*
X0010360Y0014438D01*
X0010251Y0014447D01*
X0010142Y0014461D01*
X0010033Y0014478D01*
X0009925Y0014499D01*
X0009818Y0014524D01*
X0009712Y0014552D01*
X0009607Y0014584D01*
X0009503Y0014620D01*
X0009400Y0014659D01*
X0009299Y0014702D01*
X0009199Y0014749D01*
X0009101Y0014799D01*
X0009005Y0014852D01*
X0008911Y0014909D01*
X0008819Y0014969D01*
X0008728Y0015032D01*
X0008641Y0015098D01*
X0008555Y0015167D01*
X0008472Y0015239D01*
X0008392Y0015314D01*
X0008314Y0015392D01*
X0008239Y0015472D01*
X0008167Y0015555D01*
X0008098Y0015641D01*
X0008032Y0015728D01*
X0007969Y0015819D01*
X0007909Y0015911D01*
X0007852Y0016005D01*
X0007799Y0016101D01*
X0007749Y0016199D01*
X0007702Y0016299D01*
X0007659Y0016400D01*
X0007620Y0016503D01*
X0007584Y0016607D01*
X0007552Y0016712D01*
X0007524Y0016818D01*
X0007499Y0016925D01*
X0007478Y0017033D01*
X0007461Y0017142D01*
X0007447Y0017251D01*
X0007438Y0017360D01*
X0007432Y0017470D01*
X0007430Y0017580D01*
X0007430Y0030965D01*
X0007430Y0041989D01*
X0007430Y0045139D01*
X0007432Y0045178D01*
X0007438Y0045216D01*
X0007447Y0045253D01*
X0007460Y0045290D01*
X0007477Y0045325D01*
X0007496Y0045358D01*
X0007519Y0045389D01*
X0007545Y0045418D01*
X0007574Y0045444D01*
X0007605Y0045467D01*
X0007638Y0045486D01*
X0007673Y0045503D01*
X0007710Y0045516D01*
X0007747Y0045525D01*
X0007785Y0045531D01*
X0007824Y0045533D01*
X0007430Y0041989D02*
X0007430Y0041202D01*
X0007430Y0034902D02*
X0007430Y0030965D01*
X0007824Y0045532D02*
X0008014Y0045534D01*
X0008204Y0045541D01*
X0008394Y0045553D01*
X0008584Y0045569D01*
X0008773Y0045589D01*
X0008962Y0045615D01*
X0009150Y0045644D01*
X0009337Y0045679D01*
X0009523Y0045718D01*
X0009708Y0045761D01*
X0009893Y0045809D01*
X0010076Y0045861D01*
X0010257Y0045917D01*
X0010437Y0045978D01*
X0010616Y0046044D01*
X0010793Y0046113D01*
X0010969Y0046187D01*
X0011142Y0046265D01*
X0011314Y0046348D01*
X0011483Y0046434D01*
X0011651Y0046524D01*
X0011816Y0046619D01*
X0011979Y0046717D01*
X0012139Y0046820D01*
X0012297Y0046926D01*
X0012452Y0047036D01*
X0012605Y0047149D01*
X0012755Y0047267D01*
X0012901Y0047388D01*
X0013045Y0047512D01*
X0013186Y0047640D01*
X0013324Y0047771D01*
X0013459Y0047906D01*
X0013590Y0048044D01*
X0013718Y0048185D01*
X0013842Y0048329D01*
X0013963Y0048475D01*
X0014081Y0048625D01*
X0014194Y0048778D01*
X0014304Y0048933D01*
X0014410Y0049091D01*
X0014513Y0049251D01*
X0014611Y0049414D01*
X0014706Y0049579D01*
X0014796Y0049747D01*
X0014882Y0049916D01*
X0014965Y0050088D01*
X0015043Y0050261D01*
X0015117Y0050437D01*
X0015186Y0050614D01*
X0015252Y0050793D01*
X0015313Y0050973D01*
X0015369Y0051154D01*
X0015421Y0051337D01*
X0015469Y0051522D01*
X0015512Y0051707D01*
X0015551Y0051893D01*
X0015586Y0052080D01*
X0015615Y0052268D01*
X0015641Y0052457D01*
X0015661Y0052646D01*
X0015677Y0052836D01*
X0015689Y0053026D01*
X0015696Y0053216D01*
X0015698Y0053406D01*
X0015698Y0053800D01*
X0015698Y0054194D01*
X0015696Y0054384D01*
X0015689Y0054574D01*
X0015677Y0054764D01*
X0015661Y0054954D01*
X0015641Y0055143D01*
X0015615Y0055332D01*
X0015586Y0055520D01*
X0015551Y0055707D01*
X0015512Y0055893D01*
X0015469Y0056078D01*
X0015421Y0056263D01*
X0015369Y0056446D01*
X0015313Y0056627D01*
X0015252Y0056807D01*
X0015186Y0056986D01*
X0015117Y0057163D01*
X0015043Y0057339D01*
X0014965Y0057512D01*
X0014882Y0057684D01*
X0014796Y0057853D01*
X0014706Y0058021D01*
X0014611Y0058186D01*
X0014513Y0058349D01*
X0014410Y0058509D01*
X0014304Y0058667D01*
X0014194Y0058822D01*
X0014081Y0058975D01*
X0013963Y0059125D01*
X0013842Y0059271D01*
X0013718Y0059415D01*
X0013590Y0059556D01*
X0013459Y0059694D01*
X0013324Y0059829D01*
X0013186Y0059960D01*
X0013045Y0060088D01*
X0012901Y0060212D01*
X0012755Y0060333D01*
X0012605Y0060451D01*
X0012452Y0060564D01*
X0012297Y0060674D01*
X0012139Y0060780D01*
X0011979Y0060883D01*
X0011816Y0060981D01*
X0011651Y0061076D01*
X0011483Y0061166D01*
X0011314Y0061252D01*
X0011142Y0061335D01*
X0010969Y0061413D01*
X0010793Y0061487D01*
X0010616Y0061556D01*
X0010437Y0061622D01*
X0010257Y0061683D01*
X0010076Y0061739D01*
X0009893Y0061791D01*
X0009708Y0061839D01*
X0009523Y0061882D01*
X0009337Y0061921D01*
X0009150Y0061956D01*
X0008962Y0061985D01*
X0008773Y0062011D01*
X0008584Y0062031D01*
X0008394Y0062047D01*
X0008204Y0062059D01*
X0008014Y0062066D01*
X0007824Y0062068D01*
X0007824Y0062067D02*
X0007785Y0062069D01*
X0007747Y0062075D01*
X0007710Y0062084D01*
X0007673Y0062097D01*
X0007638Y0062114D01*
X0007605Y0062133D01*
X0007574Y0062156D01*
X0007545Y0062182D01*
X0007519Y0062211D01*
X0007496Y0062242D01*
X0007477Y0062275D01*
X0007460Y0062310D01*
X0007447Y0062347D01*
X0007438Y0062384D01*
X0007432Y0062422D01*
X0007430Y0062461D01*
X0007430Y0065217D01*
X0007430Y0072698D01*
X0007430Y0090020D01*
X0007432Y0090130D01*
X0007438Y0090240D01*
X0007447Y0090349D01*
X0007461Y0090458D01*
X0007478Y0090567D01*
X0007499Y0090675D01*
X0007524Y0090782D01*
X0007552Y0090888D01*
X0007584Y0090993D01*
X0007620Y0091097D01*
X0007659Y0091200D01*
X0007702Y0091301D01*
X0007749Y0091401D01*
X0007799Y0091499D01*
X0007852Y0091595D01*
X0007909Y0091689D01*
X0007969Y0091781D01*
X0008032Y0091872D01*
X0008098Y0091959D01*
X0008167Y0092045D01*
X0008239Y0092128D01*
X0008314Y0092208D01*
X0008392Y0092286D01*
X0008472Y0092361D01*
X0008555Y0092433D01*
X0008641Y0092502D01*
X0008728Y0092568D01*
X0008819Y0092631D01*
X0008911Y0092691D01*
X0009005Y0092748D01*
X0009101Y0092801D01*
X0009199Y0092851D01*
X0009299Y0092898D01*
X0009400Y0092941D01*
X0009503Y0092980D01*
X0009607Y0093016D01*
X0009712Y0093048D01*
X0009818Y0093076D01*
X0009925Y0093101D01*
X0010033Y0093122D01*
X0010142Y0093139D01*
X0010251Y0093153D01*
X0010360Y0093162D01*
X0010470Y0093168D01*
X0010580Y0093170D01*
X0027902Y0093170D01*
X0034989Y0093170D01*
X0038139Y0093170D01*
X0038178Y0093172D01*
X0038216Y0093178D01*
X0038253Y0093187D01*
X0038290Y0093200D01*
X0038325Y0093217D01*
X0038358Y0093236D01*
X0038389Y0093259D01*
X0038418Y0093285D01*
X0038444Y0093314D01*
X0038467Y0093345D01*
X0038486Y0093378D01*
X0038503Y0093413D01*
X0038516Y0093450D01*
X0038525Y0093487D01*
X0038531Y0093525D01*
X0038533Y0093564D01*
X0034989Y0093170D02*
X0034202Y0093170D01*
X0038532Y0093564D02*
X0038534Y0093754D01*
X0038541Y0093944D01*
X0038553Y0094134D01*
X0038569Y0094324D01*
X0038589Y0094513D01*
X0038615Y0094702D01*
X0038644Y0094890D01*
X0038679Y0095077D01*
X0038718Y0095263D01*
X0038761Y0095448D01*
X0038809Y0095633D01*
X0038861Y0095816D01*
X0038917Y0095997D01*
X0038978Y0096177D01*
X0039044Y0096356D01*
X0039113Y0096533D01*
X0039187Y0096709D01*
X0039265Y0096882D01*
X0039348Y0097054D01*
X0039434Y0097223D01*
X0039524Y0097391D01*
X0039619Y0097556D01*
X0039717Y0097719D01*
X0039820Y0097879D01*
X0039926Y0098037D01*
X0040036Y0098192D01*
X0040149Y0098345D01*
X0040267Y0098495D01*
X0040388Y0098641D01*
X0040512Y0098785D01*
X0040640Y0098926D01*
X0040771Y0099064D01*
X0040906Y0099199D01*
X0041044Y0099330D01*
X0041185Y0099458D01*
X0041329Y0099582D01*
X0041475Y0099703D01*
X0041625Y0099821D01*
X0041778Y0099934D01*
X0041933Y0100044D01*
X0042091Y0100150D01*
X0042251Y0100253D01*
X0042414Y0100351D01*
X0042579Y0100446D01*
X0042747Y0100536D01*
X0042916Y0100622D01*
X0043088Y0100705D01*
X0043261Y0100783D01*
X0043437Y0100857D01*
X0043614Y0100926D01*
X0043793Y0100992D01*
X0043973Y0101053D01*
X0044154Y0101109D01*
X0044337Y0101161D01*
X0044522Y0101209D01*
X0044707Y0101252D01*
X0044893Y0101291D01*
X0045080Y0101326D01*
X0045268Y0101355D01*
X0045457Y0101381D01*
X0045646Y0101401D01*
X0045836Y0101417D01*
X0046026Y0101429D01*
X0046216Y0101436D01*
X0046406Y0101438D01*
X0047194Y0101438D01*
X0047384Y0101436D01*
X0047574Y0101429D01*
X0047764Y0101417D01*
X0047954Y0101401D01*
X0048143Y0101381D01*
X0048332Y0101355D01*
X0048520Y0101326D01*
X0048707Y0101291D01*
X0048893Y0101252D01*
X0049078Y0101209D01*
X0049263Y0101161D01*
X0049446Y0101109D01*
X0049627Y0101053D01*
X0049807Y0100992D01*
X0049986Y0100926D01*
X0050163Y0100857D01*
X0050339Y0100783D01*
X0050512Y0100705D01*
X0050684Y0100622D01*
X0050853Y0100536D01*
X0051021Y0100446D01*
X0051186Y0100351D01*
X0051349Y0100253D01*
X0051509Y0100150D01*
X0051667Y0100044D01*
X0051822Y0099934D01*
X0051975Y0099821D01*
X0052125Y0099703D01*
X0052271Y0099582D01*
X0052415Y0099458D01*
X0052556Y0099330D01*
X0052694Y0099199D01*
X0052829Y0099064D01*
X0052960Y0098926D01*
X0053088Y0098785D01*
X0053212Y0098641D01*
X0053333Y0098495D01*
X0053451Y0098345D01*
X0053564Y0098192D01*
X0053674Y0098037D01*
X0053780Y0097879D01*
X0053883Y0097719D01*
X0053981Y0097556D01*
X0054076Y0097391D01*
X0054166Y0097223D01*
X0054252Y0097054D01*
X0054335Y0096882D01*
X0054413Y0096709D01*
X0054487Y0096533D01*
X0054556Y0096356D01*
X0054622Y0096177D01*
X0054683Y0095997D01*
X0054739Y0095816D01*
X0054791Y0095633D01*
X0054839Y0095448D01*
X0054882Y0095263D01*
X0054921Y0095077D01*
X0054956Y0094890D01*
X0054985Y0094702D01*
X0055011Y0094513D01*
X0055031Y0094324D01*
X0055047Y0094134D01*
X0055059Y0093944D01*
X0055066Y0093754D01*
X0055068Y0093564D01*
X0055067Y0093564D02*
X0055069Y0093525D01*
X0055075Y0093487D01*
X0055084Y0093450D01*
X0055097Y0093413D01*
X0055114Y0093378D01*
X0055133Y0093345D01*
X0055156Y0093314D01*
X0055182Y0093285D01*
X0055211Y0093259D01*
X0055242Y0093236D01*
X0055275Y0093217D01*
X0055310Y0093200D01*
X0055347Y0093187D01*
X0055384Y0093178D01*
X0055422Y0093172D01*
X0055461Y0093170D01*
X0057036Y0093170D01*
X0059398Y0093170D01*
X0066485Y0093170D01*
X0083020Y0093170D01*
X0083130Y0093168D01*
X0083240Y0093162D01*
X0083349Y0093153D01*
X0083458Y0093139D01*
X0083567Y0093122D01*
X0083675Y0093101D01*
X0083782Y0093076D01*
X0083888Y0093048D01*
X0083993Y0093016D01*
X0084097Y0092980D01*
X0084200Y0092941D01*
X0084301Y0092898D01*
X0084401Y0092851D01*
X0084499Y0092801D01*
X0084595Y0092748D01*
X0084689Y0092691D01*
X0084781Y0092631D01*
X0084872Y0092568D01*
X0084959Y0092502D01*
X0085045Y0092433D01*
X0085128Y0092361D01*
X0085208Y0092286D01*
X0085286Y0092208D01*
X0085361Y0092128D01*
X0085433Y0092045D01*
X0085502Y0091959D01*
X0085568Y0091872D01*
X0085631Y0091781D01*
X0085691Y0091689D01*
X0085748Y0091595D01*
X0085801Y0091499D01*
X0085851Y0091401D01*
X0085898Y0091301D01*
X0085941Y0091200D01*
X0085980Y0091097D01*
X0086016Y0090993D01*
X0086048Y0090888D01*
X0086076Y0090782D01*
X0086101Y0090675D01*
X0086122Y0090567D01*
X0086139Y0090458D01*
X0086153Y0090349D01*
X0086162Y0090240D01*
X0086168Y0090130D01*
X0086170Y0090020D01*
X0086170Y0078997D01*
X0086170Y0063249D01*
X0086170Y0062461D01*
X0086168Y0062422D01*
X0086162Y0062384D01*
X0086153Y0062347D01*
X0086140Y0062310D01*
X0086123Y0062275D01*
X0086104Y0062242D01*
X0086081Y0062211D01*
X0086055Y0062182D01*
X0086026Y0062156D01*
X0085995Y0062133D01*
X0085962Y0062114D01*
X0085927Y0062097D01*
X0085890Y0062084D01*
X0085853Y0062075D01*
X0085815Y0062069D01*
X0085776Y0062067D01*
X0086170Y0063249D02*
X0086170Y0066398D01*
X0086170Y0072698D02*
X0086170Y0078997D01*
X0066485Y0093170D02*
X0065698Y0093170D01*
X0057036Y0093170D02*
X0055461Y0093170D01*
X0042469Y0093170D02*
X0042471Y0093301D01*
X0042477Y0093433D01*
X0042487Y0093564D01*
X0042501Y0093695D01*
X0042519Y0093825D01*
X0042541Y0093954D01*
X0042566Y0094083D01*
X0042596Y0094211D01*
X0042630Y0094338D01*
X0042667Y0094465D01*
X0042708Y0094589D01*
X0042753Y0094713D01*
X0042802Y0094835D01*
X0042854Y0094956D01*
X0042910Y0095074D01*
X0042970Y0095192D01*
X0043033Y0095307D01*
X0043100Y0095420D01*
X0043170Y0095532D01*
X0043243Y0095641D01*
X0043319Y0095747D01*
X0043399Y0095852D01*
X0043482Y0095954D01*
X0043568Y0096053D01*
X0043657Y0096150D01*
X0043749Y0096244D01*
X0043844Y0096335D01*
X0043941Y0096424D01*
X0044041Y0096509D01*
X0044144Y0096591D01*
X0044249Y0096670D01*
X0044356Y0096746D01*
X0044466Y0096818D01*
X0044578Y0096887D01*
X0044692Y0096953D01*
X0044807Y0097015D01*
X0044925Y0097074D01*
X0045044Y0097129D01*
X0045165Y0097181D01*
X0045288Y0097228D01*
X0045412Y0097272D01*
X0045537Y0097313D01*
X0045663Y0097349D01*
X0045791Y0097382D01*
X0045919Y0097410D01*
X0046048Y0097435D01*
X0046178Y0097456D01*
X0046308Y0097473D01*
X0046439Y0097486D01*
X0046570Y0097495D01*
X0046701Y0097500D01*
X0046833Y0097501D01*
X0046964Y0097498D01*
X0047096Y0097491D01*
X0047227Y0097480D01*
X0047357Y0097465D01*
X0047487Y0097446D01*
X0047617Y0097423D01*
X0047745Y0097397D01*
X0047873Y0097366D01*
X0048000Y0097331D01*
X0048126Y0097293D01*
X0048250Y0097251D01*
X0048374Y0097205D01*
X0048495Y0097155D01*
X0048615Y0097102D01*
X0048734Y0097045D01*
X0048851Y0096985D01*
X0048965Y0096921D01*
X0049078Y0096853D01*
X0049189Y0096782D01*
X0049298Y0096708D01*
X0049404Y0096631D01*
X0049508Y0096550D01*
X0049609Y0096467D01*
X0049708Y0096380D01*
X0049804Y0096290D01*
X0049897Y0096197D01*
X0049988Y0096102D01*
X0050075Y0096004D01*
X0050160Y0095903D01*
X0050241Y0095800D01*
X0050319Y0095694D01*
X0050394Y0095586D01*
X0050466Y0095476D01*
X0050534Y0095364D01*
X0050599Y0095250D01*
X0050660Y0095133D01*
X0050718Y0095015D01*
X0050772Y0094895D01*
X0050823Y0094774D01*
X0050870Y0094651D01*
X0050913Y0094527D01*
X0050952Y0094402D01*
X0050988Y0094275D01*
X0051019Y0094147D01*
X0051047Y0094019D01*
X0051071Y0093890D01*
X0051091Y0093760D01*
X0051107Y0093629D01*
X0051119Y0093498D01*
X0051127Y0093367D01*
X0051131Y0093236D01*
X0051131Y0093104D01*
X0051127Y0092973D01*
X0051119Y0092842D01*
X0051107Y0092711D01*
X0051091Y0092580D01*
X0051071Y0092450D01*
X0051047Y0092321D01*
X0051019Y0092193D01*
X0050988Y0092065D01*
X0050952Y0091938D01*
X0050913Y0091813D01*
X0050870Y0091689D01*
X0050823Y0091566D01*
X0050772Y0091445D01*
X0050718Y0091325D01*
X0050660Y0091207D01*
X0050599Y0091090D01*
X0050534Y0090976D01*
X0050466Y0090864D01*
X0050394Y0090754D01*
X0050319Y0090646D01*
X0050241Y0090540D01*
X0050160Y0090437D01*
X0050075Y0090336D01*
X0049988Y0090238D01*
X0049897Y0090143D01*
X0049804Y0090050D01*
X0049708Y0089960D01*
X0049609Y0089873D01*
X0049508Y0089790D01*
X0049404Y0089709D01*
X0049298Y0089632D01*
X0049189Y0089558D01*
X0049078Y0089487D01*
X0048966Y0089419D01*
X0048851Y0089355D01*
X0048734Y0089295D01*
X0048615Y0089238D01*
X0048495Y0089185D01*
X0048374Y0089135D01*
X0048250Y0089089D01*
X0048126Y0089047D01*
X0048000Y0089009D01*
X0047873Y0088974D01*
X0047745Y0088943D01*
X0047617Y0088917D01*
X0047487Y0088894D01*
X0047357Y0088875D01*
X0047227Y0088860D01*
X0047096Y0088849D01*
X0046964Y0088842D01*
X0046833Y0088839D01*
X0046701Y0088840D01*
X0046570Y0088845D01*
X0046439Y0088854D01*
X0046308Y0088867D01*
X0046178Y0088884D01*
X0046048Y0088905D01*
X0045919Y0088930D01*
X0045791Y0088958D01*
X0045663Y0088991D01*
X0045537Y0089027D01*
X0045412Y0089068D01*
X0045288Y0089112D01*
X0045165Y0089159D01*
X0045044Y0089211D01*
X0044925Y0089266D01*
X0044807Y0089325D01*
X0044692Y0089387D01*
X0044578Y0089453D01*
X0044466Y0089522D01*
X0044356Y0089594D01*
X0044249Y0089670D01*
X0044144Y0089749D01*
X0044041Y0089831D01*
X0043941Y0089916D01*
X0043844Y0090005D01*
X0043749Y0090096D01*
X0043657Y0090190D01*
X0043568Y0090287D01*
X0043482Y0090386D01*
X0043399Y0090488D01*
X0043319Y0090593D01*
X0043243Y0090699D01*
X0043170Y0090808D01*
X0043100Y0090920D01*
X0043033Y0091033D01*
X0042970Y0091148D01*
X0042910Y0091266D01*
X0042854Y0091384D01*
X0042802Y0091505D01*
X0042753Y0091627D01*
X0042708Y0091751D01*
X0042667Y0091875D01*
X0042630Y0092002D01*
X0042596Y0092129D01*
X0042566Y0092257D01*
X0042541Y0092386D01*
X0042519Y0092515D01*
X0042501Y0092645D01*
X0042487Y0092776D01*
X0042477Y0092907D01*
X0042471Y0093039D01*
X0042469Y0093170D01*
X0007430Y0066398D02*
X0007430Y0065217D01*
X0027115Y0014430D02*
X0034595Y0014430D01*
X0034202Y0014430D01*
X0034595Y0014430D02*
X0038139Y0014430D01*
X0038178Y0014428D01*
X0038216Y0014422D01*
X0038253Y0014413D01*
X0038290Y0014400D01*
X0038325Y0014383D01*
X0038358Y0014364D01*
X0038389Y0014341D01*
X0038418Y0014315D01*
X0038444Y0014286D01*
X0038467Y0014255D01*
X0038486Y0014222D01*
X0038503Y0014187D01*
X0038516Y0014150D01*
X0038525Y0014113D01*
X0038531Y0014075D01*
X0038533Y0014036D01*
X0038532Y0014036D02*
X0038534Y0013846D01*
X0038541Y0013656D01*
X0038553Y0013466D01*
X0038569Y0013276D01*
X0038589Y0013087D01*
X0038615Y0012898D01*
X0038644Y0012710D01*
X0038679Y0012523D01*
X0038718Y0012337D01*
X0038761Y0012152D01*
X0038809Y0011967D01*
X0038861Y0011784D01*
X0038917Y0011603D01*
X0038978Y0011423D01*
X0039044Y0011244D01*
X0039113Y0011067D01*
X0039187Y0010891D01*
X0039265Y0010718D01*
X0039348Y0010546D01*
X0039434Y0010377D01*
X0039524Y0010209D01*
X0039619Y0010044D01*
X0039717Y0009881D01*
X0039820Y0009721D01*
X0039926Y0009563D01*
X0040036Y0009408D01*
X0040149Y0009255D01*
X0040267Y0009105D01*
X0040388Y0008959D01*
X0040512Y0008815D01*
X0040640Y0008674D01*
X0040771Y0008536D01*
X0040906Y0008401D01*
X0041044Y0008270D01*
X0041185Y0008142D01*
X0041329Y0008018D01*
X0041475Y0007897D01*
X0041625Y0007779D01*
X0041778Y0007666D01*
X0041933Y0007556D01*
X0042091Y0007450D01*
X0042251Y0007347D01*
X0042414Y0007249D01*
X0042579Y0007154D01*
X0042747Y0007064D01*
X0042916Y0006978D01*
X0043088Y0006895D01*
X0043261Y0006817D01*
X0043437Y0006743D01*
X0043614Y0006674D01*
X0043793Y0006608D01*
X0043973Y0006547D01*
X0044154Y0006491D01*
X0044337Y0006439D01*
X0044522Y0006391D01*
X0044707Y0006348D01*
X0044893Y0006309D01*
X0045080Y0006274D01*
X0045268Y0006245D01*
X0045457Y0006219D01*
X0045646Y0006199D01*
X0045836Y0006183D01*
X0046026Y0006171D01*
X0046216Y0006164D01*
X0046406Y0006162D01*
X0046800Y0006162D01*
X0047194Y0006162D01*
X0047384Y0006164D01*
X0047574Y0006171D01*
X0047764Y0006183D01*
X0047954Y0006199D01*
X0048143Y0006219D01*
X0048332Y0006245D01*
X0048520Y0006274D01*
X0048707Y0006309D01*
X0048893Y0006348D01*
X0049078Y0006391D01*
X0049263Y0006439D01*
X0049446Y0006491D01*
X0049627Y0006547D01*
X0049807Y0006608D01*
X0049986Y0006674D01*
X0050163Y0006743D01*
X0050339Y0006817D01*
X0050512Y0006895D01*
X0050684Y0006978D01*
X0050853Y0007064D01*
X0051021Y0007154D01*
X0051186Y0007249D01*
X0051349Y0007347D01*
X0051509Y0007450D01*
X0051667Y0007556D01*
X0051822Y0007666D01*
X0051975Y0007779D01*
X0052125Y0007897D01*
X0052271Y0008018D01*
X0052415Y0008142D01*
X0052556Y0008270D01*
X0052694Y0008401D01*
X0052829Y0008536D01*
X0052960Y0008674D01*
X0053088Y0008815D01*
X0053212Y0008959D01*
X0053333Y0009105D01*
X0053451Y0009255D01*
X0053564Y0009408D01*
X0053674Y0009563D01*
X0053780Y0009721D01*
X0053883Y0009881D01*
X0053981Y0010044D01*
X0054076Y0010209D01*
X0054166Y0010377D01*
X0054252Y0010546D01*
X0054335Y0010718D01*
X0054413Y0010891D01*
X0054487Y0011067D01*
X0054556Y0011244D01*
X0054622Y0011423D01*
X0054683Y0011603D01*
X0054739Y0011784D01*
X0054791Y0011967D01*
X0054839Y0012152D01*
X0054882Y0012337D01*
X0054921Y0012523D01*
X0054956Y0012710D01*
X0054985Y0012898D01*
X0055011Y0013087D01*
X0055031Y0013276D01*
X0055047Y0013466D01*
X0055059Y0013656D01*
X0055066Y0013846D01*
X0055068Y0014036D01*
X0055074Y0014076D01*
X0055083Y0014115D01*
X0055096Y0014153D01*
X0055112Y0014190D01*
X0055132Y0014225D01*
X0055155Y0014258D01*
X0055180Y0014289D01*
X0055209Y0014318D01*
X0055240Y0014343D01*
X0055273Y0014366D01*
X0055308Y0014386D01*
X0055345Y0014402D01*
X0055383Y0014415D01*
X0055422Y0014424D01*
X0055462Y0014430D01*
X0055461Y0014430D02*
X0056643Y0014430D01*
X0058611Y0014430D01*
X0067272Y0014430D01*
X0083020Y0014430D01*
X0083130Y0014432D01*
X0083240Y0014438D01*
X0083349Y0014447D01*
X0083458Y0014461D01*
X0083567Y0014478D01*
X0083675Y0014499D01*
X0083782Y0014524D01*
X0083888Y0014552D01*
X0083993Y0014584D01*
X0084097Y0014620D01*
X0084200Y0014659D01*
X0084301Y0014702D01*
X0084401Y0014749D01*
X0084499Y0014799D01*
X0084595Y0014852D01*
X0084689Y0014909D01*
X0084781Y0014969D01*
X0084872Y0015032D01*
X0084959Y0015098D01*
X0085045Y0015167D01*
X0085128Y0015239D01*
X0085208Y0015314D01*
X0085286Y0015392D01*
X0085361Y0015472D01*
X0085433Y0015555D01*
X0085502Y0015641D01*
X0085568Y0015728D01*
X0085631Y0015819D01*
X0085691Y0015911D01*
X0085748Y0016005D01*
X0085801Y0016101D01*
X0085851Y0016199D01*
X0085898Y0016299D01*
X0085941Y0016400D01*
X0085980Y0016503D01*
X0086016Y0016607D01*
X0086048Y0016712D01*
X0086076Y0016818D01*
X0086101Y0016925D01*
X0086122Y0017033D01*
X0086139Y0017142D01*
X0086153Y0017251D01*
X0086162Y0017360D01*
X0086168Y0017470D01*
X0086170Y0017580D01*
X0086170Y0032540D01*
X0086170Y0041202D01*
X0086170Y0044351D01*
X0086170Y0045139D01*
X0086170Y0044351D01*
X0086170Y0045139D02*
X0086164Y0045179D01*
X0086155Y0045218D01*
X0086142Y0045256D01*
X0086126Y0045293D01*
X0086106Y0045328D01*
X0086084Y0045361D01*
X0086058Y0045392D01*
X0086029Y0045421D01*
X0085998Y0045447D01*
X0085965Y0045469D01*
X0085930Y0045489D01*
X0085893Y0045505D01*
X0085855Y0045518D01*
X0085816Y0045527D01*
X0085776Y0045533D01*
X0085776Y0045532D02*
X0085586Y0045534D01*
X0085396Y0045541D01*
X0085206Y0045553D01*
X0085016Y0045569D01*
X0084827Y0045589D01*
X0084638Y0045615D01*
X0084450Y0045644D01*
X0084263Y0045679D01*
X0084077Y0045718D01*
X0083892Y0045761D01*
X0083707Y0045809D01*
X0083524Y0045861D01*
X0083343Y0045917D01*
X0083163Y0045978D01*
X0082984Y0046044D01*
X0082807Y0046113D01*
X0082631Y0046187D01*
X0082458Y0046265D01*
X0082286Y0046348D01*
X0082117Y0046434D01*
X0081949Y0046524D01*
X0081784Y0046619D01*
X0081621Y0046717D01*
X0081461Y0046820D01*
X0081303Y0046926D01*
X0081148Y0047036D01*
X0080995Y0047149D01*
X0080845Y0047267D01*
X0080699Y0047388D01*
X0080555Y0047512D01*
X0080414Y0047640D01*
X0080276Y0047771D01*
X0080141Y0047906D01*
X0080010Y0048044D01*
X0079882Y0048185D01*
X0079758Y0048329D01*
X0079637Y0048475D01*
X0079519Y0048625D01*
X0079406Y0048778D01*
X0079296Y0048933D01*
X0079190Y0049091D01*
X0079087Y0049251D01*
X0078989Y0049414D01*
X0078894Y0049579D01*
X0078804Y0049747D01*
X0078718Y0049916D01*
X0078635Y0050088D01*
X0078557Y0050261D01*
X0078483Y0050437D01*
X0078414Y0050614D01*
X0078348Y0050793D01*
X0078287Y0050973D01*
X0078231Y0051154D01*
X0078179Y0051337D01*
X0078131Y0051522D01*
X0078088Y0051707D01*
X0078049Y0051893D01*
X0078014Y0052080D01*
X0077985Y0052268D01*
X0077959Y0052457D01*
X0077939Y0052646D01*
X0077923Y0052836D01*
X0077911Y0053026D01*
X0077904Y0053216D01*
X0077902Y0053406D01*
X0077902Y0053800D01*
X0077895Y0053993D01*
X0077893Y0054186D01*
X0077895Y0054380D01*
X0077903Y0054573D01*
X0077915Y0054766D01*
X0077931Y0054959D01*
X0077953Y0055151D01*
X0077979Y0055343D01*
X0078009Y0055534D01*
X0078045Y0055724D01*
X0078085Y0055913D01*
X0078130Y0056101D01*
X0078179Y0056288D01*
X0078233Y0056474D01*
X0078291Y0056659D01*
X0078354Y0056841D01*
X0078422Y0057023D01*
X0078494Y0057202D01*
X0078570Y0057380D01*
X0078651Y0057556D01*
X0078735Y0057730D01*
X0078825Y0057901D01*
X0078918Y0058071D01*
X0079015Y0058238D01*
X0079117Y0058403D01*
X0079222Y0058565D01*
X0079332Y0058724D01*
X0079445Y0058881D01*
X0079562Y0059035D01*
X0079683Y0059186D01*
X0079808Y0059334D01*
X0079936Y0059479D01*
X0080068Y0059621D01*
X0080203Y0059759D01*
X0080341Y0059894D01*
X0080483Y0060026D01*
X0080628Y0060154D01*
X0080776Y0060278D01*
X0080927Y0060399D01*
X0081081Y0060516D01*
X0081238Y0060630D01*
X0081397Y0060739D01*
X0081559Y0060844D01*
X0081724Y0060946D01*
X0081891Y0061043D01*
X0082061Y0061137D01*
X0082232Y0061226D01*
X0082406Y0061310D01*
X0082582Y0061391D01*
X0082760Y0061467D01*
X0082939Y0061539D01*
X0083121Y0061606D01*
X0083304Y0061669D01*
X0083488Y0061728D01*
X0083674Y0061782D01*
X0083861Y0061831D01*
X0084049Y0061876D01*
X0084238Y0061916D01*
X0084429Y0061951D01*
X0084620Y0061982D01*
X0084811Y0062008D01*
X0085003Y0062029D01*
X0085196Y0062046D01*
X0085389Y0062058D01*
X0085583Y0062065D01*
X0085776Y0062067D01*
X0086170Y0034902D02*
X0086170Y0032540D01*
X0067272Y0014430D02*
X0065698Y0014430D01*
X0059398Y0014430D02*
X0058611Y0014430D01*
X0056643Y0014430D02*
X0055461Y0014430D01*
X0042469Y0014430D02*
X0042471Y0014561D01*
X0042477Y0014693D01*
X0042487Y0014824D01*
X0042501Y0014955D01*
X0042519Y0015085D01*
X0042541Y0015214D01*
X0042566Y0015343D01*
X0042596Y0015471D01*
X0042630Y0015598D01*
X0042667Y0015725D01*
X0042708Y0015849D01*
X0042753Y0015973D01*
X0042802Y0016095D01*
X0042854Y0016216D01*
X0042910Y0016334D01*
X0042970Y0016452D01*
X0043033Y0016567D01*
X0043100Y0016680D01*
X0043170Y0016792D01*
X0043243Y0016901D01*
X0043319Y0017007D01*
X0043399Y0017112D01*
X0043482Y0017214D01*
X0043568Y0017313D01*
X0043657Y0017410D01*
X0043749Y0017504D01*
X0043844Y0017595D01*
X0043941Y0017684D01*
X0044041Y0017769D01*
X0044144Y0017851D01*
X0044249Y0017930D01*
X0044356Y0018006D01*
X0044466Y0018078D01*
X0044578Y0018147D01*
X0044692Y0018213D01*
X0044807Y0018275D01*
X0044925Y0018334D01*
X0045044Y0018389D01*
X0045165Y0018441D01*
X0045288Y0018488D01*
X0045412Y0018532D01*
X0045537Y0018573D01*
X0045663Y0018609D01*
X0045791Y0018642D01*
X0045919Y0018670D01*
X0046048Y0018695D01*
X0046178Y0018716D01*
X0046308Y0018733D01*
X0046439Y0018746D01*
X0046570Y0018755D01*
X0046701Y0018760D01*
X0046833Y0018761D01*
X0046964Y0018758D01*
X0047096Y0018751D01*
X0047227Y0018740D01*
X0047357Y0018725D01*
X0047487Y0018706D01*
X0047617Y0018683D01*
X0047745Y0018657D01*
X0047873Y0018626D01*
X0048000Y0018591D01*
X0048126Y0018553D01*
X0048250Y0018511D01*
X0048374Y0018465D01*
X0048495Y0018415D01*
X0048615Y0018362D01*
X0048734Y0018305D01*
X0048851Y0018245D01*
X0048965Y0018181D01*
X0049078Y0018113D01*
X0049189Y0018042D01*
X0049298Y0017968D01*
X0049404Y0017891D01*
X0049508Y0017810D01*
X0049609Y0017727D01*
X0049708Y0017640D01*
X0049804Y0017550D01*
X0049897Y0017457D01*
X0049988Y0017362D01*
X0050075Y0017264D01*
X0050160Y0017163D01*
X0050241Y0017060D01*
X0050319Y0016954D01*
X0050394Y0016846D01*
X0050466Y0016736D01*
X0050534Y0016624D01*
X0050599Y0016510D01*
X0050660Y0016393D01*
X0050718Y0016275D01*
X0050772Y0016155D01*
X0050823Y0016034D01*
X0050870Y0015911D01*
X0050913Y0015787D01*
X0050952Y0015662D01*
X0050988Y0015535D01*
X0051019Y0015407D01*
X0051047Y0015279D01*
X0051071Y0015150D01*
X0051091Y0015020D01*
X0051107Y0014889D01*
X0051119Y0014758D01*
X0051127Y0014627D01*
X0051131Y0014496D01*
X0051131Y0014364D01*
X0051127Y0014233D01*
X0051119Y0014102D01*
X0051107Y0013971D01*
X0051091Y0013840D01*
X0051071Y0013710D01*
X0051047Y0013581D01*
X0051019Y0013453D01*
X0050988Y0013325D01*
X0050952Y0013198D01*
X0050913Y0013073D01*
X0050870Y0012949D01*
X0050823Y0012826D01*
X0050772Y0012705D01*
X0050718Y0012585D01*
X0050660Y0012467D01*
X0050599Y0012350D01*
X0050534Y0012236D01*
X0050466Y0012124D01*
X0050394Y0012014D01*
X0050319Y0011906D01*
X0050241Y0011800D01*
X0050160Y0011697D01*
X0050075Y0011596D01*
X0049988Y0011498D01*
X0049897Y0011403D01*
X0049804Y0011310D01*
X0049708Y0011220D01*
X0049609Y0011133D01*
X0049508Y0011050D01*
X0049404Y0010969D01*
X0049298Y0010892D01*
X0049189Y0010818D01*
X0049078Y0010747D01*
X0048966Y0010679D01*
X0048851Y0010615D01*
X0048734Y0010555D01*
X0048615Y0010498D01*
X0048495Y0010445D01*
X0048374Y0010395D01*
X0048250Y0010349D01*
X0048126Y0010307D01*
X0048000Y0010269D01*
X0047873Y0010234D01*
X0047745Y0010203D01*
X0047617Y0010177D01*
X0047487Y0010154D01*
X0047357Y0010135D01*
X0047227Y0010120D01*
X0047096Y0010109D01*
X0046964Y0010102D01*
X0046833Y0010099D01*
X0046701Y0010100D01*
X0046570Y0010105D01*
X0046439Y0010114D01*
X0046308Y0010127D01*
X0046178Y0010144D01*
X0046048Y0010165D01*
X0045919Y0010190D01*
X0045791Y0010218D01*
X0045663Y0010251D01*
X0045537Y0010287D01*
X0045412Y0010328D01*
X0045288Y0010372D01*
X0045165Y0010419D01*
X0045044Y0010471D01*
X0044925Y0010526D01*
X0044807Y0010585D01*
X0044692Y0010647D01*
X0044578Y0010713D01*
X0044466Y0010782D01*
X0044356Y0010854D01*
X0044249Y0010930D01*
X0044144Y0011009D01*
X0044041Y0011091D01*
X0043941Y0011176D01*
X0043844Y0011265D01*
X0043749Y0011356D01*
X0043657Y0011450D01*
X0043568Y0011547D01*
X0043482Y0011646D01*
X0043399Y0011748D01*
X0043319Y0011853D01*
X0043243Y0011959D01*
X0043170Y0012068D01*
X0043100Y0012180D01*
X0043033Y0012293D01*
X0042970Y0012408D01*
X0042910Y0012526D01*
X0042854Y0012644D01*
X0042802Y0012765D01*
X0042753Y0012887D01*
X0042708Y0013011D01*
X0042667Y0013135D01*
X0042630Y0013262D01*
X0042596Y0013389D01*
X0042566Y0013517D01*
X0042541Y0013646D01*
X0042519Y0013775D01*
X0042501Y0013905D01*
X0042487Y0014036D01*
X0042477Y0014167D01*
X0042471Y0014299D01*
X0042469Y0014430D01*
X0027902Y0014430D02*
X0027115Y0014430D01*
D14*
X0036800Y0030800D03*
D15*
X0046800Y0030800D03*
X0056800Y0030800D03*
D16*
X0021800Y0047300D02*
X0013100Y0038600D01*
X0013100Y0037900D01*
X0013060Y0037860D01*
X0013060Y0031418D01*
X0016800Y0031418D02*
X0016800Y0034300D01*
X0020100Y0037600D01*
X0020100Y0037900D01*
X0020540Y0021182D02*
X0020500Y0021142D01*
X0020500Y0017700D01*
X0019600Y0016800D01*
X0013800Y0016800D01*
X0013060Y0017540D01*
X0013060Y0021182D01*
D17*
X0016800Y0021182D02*
X0016800Y0023300D01*
X0019300Y0025800D01*
X0041800Y0025800D01*
X0046800Y0030800D01*
X0051800Y0025800D01*
X0066800Y0025800D01*
X0071800Y0028300D01*
X0071800Y0031300D01*
X0071700Y0031400D01*
X0075131Y0027687D02*
X0083770Y0027687D01*
X0083770Y0029285D02*
X0082566Y0029285D01*
X0082600Y0029413D02*
X0082600Y0031325D01*
X0078875Y0031325D01*
X0078875Y0031475D01*
X0082600Y0031475D01*
X0082600Y0033387D01*
X0082477Y0033845D01*
X0082240Y0034255D01*
X0081962Y0034534D01*
X0082159Y0034615D01*
X0082835Y0035291D01*
X0083200Y0036173D01*
X0083200Y0038300D01*
X0083770Y0038300D01*
X0083770Y0032063D01*
X0083770Y0017580D01*
X0083756Y0017433D01*
X0083644Y0017163D01*
X0083437Y0016956D01*
X0083167Y0016844D01*
X0083020Y0016830D01*
X0082026Y0016830D01*
X0082127Y0017005D01*
X0082250Y0017463D01*
X0082250Y0019625D01*
X0078775Y0019625D01*
X0078775Y0019775D01*
X0078625Y0019775D01*
X0078625Y0023500D01*
X0076713Y0023500D01*
X0076255Y0023377D01*
X0075845Y0023140D01*
X0075566Y0022862D01*
X0075485Y0023059D01*
X0074809Y0023735D01*
X0073927Y0024100D01*
X0070555Y0024100D01*
X0073129Y0025387D01*
X0073613Y0025587D01*
X0073696Y0025670D01*
X0073800Y0025722D01*
X0074143Y0026118D01*
X0074513Y0026487D01*
X0074558Y0026596D01*
X0074634Y0026684D01*
X0074800Y0027180D01*
X0074964Y0027576D01*
X0075059Y0027615D01*
X0075674Y0028230D01*
X0075695Y0028210D01*
X0076105Y0027973D01*
X0076563Y0027850D01*
X0078725Y0027850D01*
X0078725Y0031325D01*
X0078875Y0031325D01*
X0078875Y0027850D01*
X0081037Y0027850D01*
X0081495Y0027973D01*
X0081905Y0028210D01*
X0082240Y0028545D01*
X0082477Y0028955D01*
X0082600Y0029413D01*
X0082600Y0030884D02*
X0083770Y0030884D01*
X0082400Y0031400D02*
X0084300Y0033300D01*
X0084300Y0040800D01*
X0081800Y0043300D01*
X0066800Y0043300D01*
X0056800Y0033300D01*
X0056800Y0030800D01*
X0049700Y0037900D01*
X0020100Y0037900D01*
X0020700Y0037300D01*
X0020175Y0037278D02*
X0020025Y0037278D01*
X0020025Y0037825D02*
X0020175Y0037825D01*
X0020175Y0037975D01*
X0023650Y0037975D01*
X0023650Y0038300D01*
X0067300Y0038300D01*
X0067300Y0036173D01*
X0067665Y0035291D01*
X0068056Y0034900D01*
X0067665Y0034509D01*
X0067300Y0033627D01*
X0067300Y0029628D01*
X0066045Y0029000D01*
X0060793Y0029000D01*
X0060854Y0029121D01*
X0061067Y0029776D01*
X0061175Y0030456D01*
X0061175Y0030800D01*
X0061175Y0031144D01*
X0061067Y0031824D01*
X0060854Y0032479D01*
X0060542Y0033093D01*
X0060137Y0033650D01*
X0059650Y0034137D01*
X0059093Y0034542D01*
X0058479Y0034854D01*
X0057824Y0035067D01*
X0057144Y0035175D01*
X0056800Y0035175D01*
X0056800Y0030800D01*
X0056800Y0030800D01*
X0061175Y0030800D01*
X0056800Y0030800D01*
X0056800Y0030800D01*
X0056800Y0030800D01*
X0052425Y0030800D01*
X0052425Y0031144D01*
X0052533Y0031824D01*
X0052746Y0032479D01*
X0053058Y0033093D01*
X0053463Y0033650D01*
X0053950Y0034137D01*
X0054507Y0034542D01*
X0055121Y0034854D01*
X0055776Y0035067D01*
X0056456Y0035175D01*
X0056800Y0035175D01*
X0056800Y0030800D01*
X0052425Y0030800D01*
X0052425Y0030456D01*
X0052533Y0029776D01*
X0052621Y0029504D01*
X0051775Y0030351D01*
X0051775Y0031790D01*
X0051017Y0033618D01*
X0049618Y0035017D01*
X0047790Y0035775D01*
X0045810Y0035775D01*
X0043982Y0035017D01*
X0042583Y0033618D01*
X0041825Y0031790D01*
X0041825Y0030351D01*
X0041775Y0030300D01*
X0041775Y0033852D01*
X0041409Y0034734D01*
X0040734Y0035409D01*
X0039852Y0035775D01*
X0033748Y0035775D01*
X0032866Y0035409D01*
X0032191Y0034734D01*
X0032142Y0034618D01*
X0023874Y0034618D01*
X0023657Y0035140D01*
X0023541Y0035256D01*
X0023650Y0035663D01*
X0023650Y0037825D01*
X0020175Y0037825D01*
X0020175Y0036180D01*
X0020025Y0036180D01*
X0020025Y0037825D01*
X0016800Y0034456D02*
X0016800Y0031418D01*
X0016800Y0034456D01*
X0016800Y0034456D01*
X0016800Y0034081D02*
X0016800Y0034081D01*
X0016800Y0032482D02*
X0016800Y0032482D01*
X0016800Y0031418D02*
X0016800Y0031418D01*
X0020540Y0031418D02*
X0033682Y0031418D01*
X0036800Y0030800D01*
X0033517Y0035679D02*
X0023650Y0035679D01*
X0023650Y0037278D02*
X0067300Y0037278D01*
X0067504Y0035679D02*
X0048020Y0035679D01*
X0045580Y0035679D02*
X0040083Y0035679D01*
X0041680Y0034081D02*
X0043045Y0034081D01*
X0042112Y0032482D02*
X0041775Y0032482D01*
X0041775Y0030884D02*
X0041825Y0030884D01*
X0050555Y0034081D02*
X0053894Y0034081D01*
X0052747Y0032482D02*
X0051488Y0032482D01*
X0051775Y0030884D02*
X0052425Y0030884D01*
X0056800Y0030884D02*
X0056800Y0030884D01*
X0056800Y0032482D02*
X0056800Y0032482D01*
X0056800Y0034081D02*
X0056800Y0034081D01*
X0059706Y0034081D02*
X0067488Y0034081D01*
X0067300Y0032482D02*
X0060853Y0032482D01*
X0061175Y0030884D02*
X0067300Y0030884D01*
X0066615Y0029285D02*
X0060908Y0029285D01*
X0058918Y0021182D02*
X0060400Y0019700D01*
X0071700Y0019700D01*
X0071335Y0024490D02*
X0083770Y0024490D01*
X0083770Y0022891D02*
X0081805Y0022891D01*
X0081890Y0022805D02*
X0081555Y0023140D01*
X0081145Y0023377D01*
X0080687Y0023500D01*
X0078775Y0023500D01*
X0078775Y0019775D01*
X0082250Y0019775D01*
X0082250Y0021937D01*
X0082127Y0022395D01*
X0081890Y0022805D01*
X0082250Y0021293D02*
X0083770Y0021293D01*
X0083770Y0019694D02*
X0078775Y0019694D01*
X0078700Y0019700D02*
X0078800Y0019800D01*
X0078800Y0031400D01*
X0082400Y0031400D01*
X0082600Y0032482D02*
X0083770Y0032482D01*
X0083770Y0034081D02*
X0082341Y0034081D01*
X0082996Y0035679D02*
X0083770Y0035679D01*
X0083770Y0037278D02*
X0083200Y0037278D01*
X0078800Y0038400D02*
X0071700Y0038400D01*
X0078725Y0030884D02*
X0078875Y0030884D01*
X0078875Y0029285D02*
X0078725Y0029285D01*
X0074117Y0026088D02*
X0083770Y0026088D01*
X0078775Y0022891D02*
X0078625Y0022891D01*
X0078625Y0021293D02*
X0078775Y0021293D01*
X0078700Y0019700D02*
X0078800Y0018800D01*
X0082250Y0018096D02*
X0083770Y0018096D01*
X0075595Y0022891D02*
X0075554Y0022891D01*
X0058918Y0021182D02*
X0020540Y0021182D01*
D18*
X0021800Y0047300D03*
M02*
