G75*
%MOIN*%
%OFA0B0*%
%FSLAX25Y25*%
%IPPOS*%
%LPD*%
%AMOC8*
5,1,8,0,0,1.08239X$1,22.5*
%
%ADD10C,0.01600*%
%ADD11C,0.00500*%
%ADD12R,0.00100X0.00100*%
%ADD13R,0.00100X0.00200*%
%ADD14R,0.00100X0.00800*%
%ADD15R,0.00100X0.00400*%
%ADD16R,0.00100X0.00300*%
%ADD17R,0.00100X0.00500*%
%ADD18R,0.00100X0.01000*%
%ADD19R,0.00100X0.00600*%
%ADD20R,0.00100X0.02100*%
%ADD21R,0.00100X0.01100*%
%ADD22R,0.00100X0.00900*%
%ADD23R,0.00100X0.02600*%
%ADD24R,0.00100X0.01200*%
%ADD25R,0.00100X0.01300*%
%ADD26R,0.00100X0.02800*%
%ADD27R,0.00100X0.01500*%
%ADD28R,0.00100X0.02200*%
%ADD29R,0.00100X0.03000*%
%ADD30R,0.00100X0.00700*%
%ADD31R,0.00100X0.01400*%
%ADD32R,0.00100X0.04400*%
%ADD33R,0.00100X0.02400*%
%ADD34R,0.00100X0.02500*%
%ADD35R,0.00100X0.01800*%
%ADD36R,0.00100X0.03400*%
%ADD37R,0.00100X0.03300*%
%ADD38R,0.00100X0.01900*%
%ADD39R,0.00100X0.01600*%
%ADD40R,0.00100X0.01700*%
%ADD41R,0.00100X0.05900*%
%ADD42R,0.00100X0.02700*%
%ADD43R,0.00100X0.02300*%
%ADD44R,0.00100X0.03900*%
%ADD45R,0.00100X0.05400*%
%ADD46R,0.00100X0.04200*%
%ADD47C,0.00000*%
%ADD48C,0.00600*%
%ADD49C,0.00300*%
%ADD50C,0.00400*%
%ADD51C,0.00591*%
D10*
X0023800Y0064300D02*
X0023807Y0064864D01*
X0023828Y0065429D01*
X0023862Y0065992D01*
X0023911Y0066554D01*
X0023973Y0067115D01*
X0024049Y0067675D01*
X0024139Y0068232D01*
X0024242Y0068787D01*
X0024359Y0069339D01*
X0024489Y0069889D01*
X0024633Y0070434D01*
X0024790Y0070977D01*
X0024961Y0071515D01*
X0025144Y0072048D01*
X0025341Y0072578D01*
X0025551Y0073102D01*
X0025773Y0073621D01*
X0026008Y0074134D01*
X0026256Y0074641D01*
X0026516Y0075142D01*
X0026788Y0075637D01*
X0027072Y0076124D01*
X0027368Y0076605D01*
X0027676Y0077078D01*
X0027996Y0077544D01*
X0028326Y0078001D01*
X0028668Y0078450D01*
X0029021Y0078891D01*
X0029384Y0079323D01*
X0029758Y0079746D01*
X0030142Y0080159D01*
X0030537Y0080563D01*
X0030941Y0080958D01*
X0031354Y0081342D01*
X0031777Y0081716D01*
X0032209Y0082079D01*
X0032650Y0082432D01*
X0033099Y0082774D01*
X0033556Y0083104D01*
X0034022Y0083424D01*
X0034495Y0083732D01*
X0034976Y0084028D01*
X0035463Y0084312D01*
X0035958Y0084584D01*
X0036459Y0084844D01*
X0036966Y0085092D01*
X0037479Y0085327D01*
X0037998Y0085549D01*
X0038522Y0085759D01*
X0039052Y0085956D01*
X0039585Y0086139D01*
X0040123Y0086310D01*
X0040666Y0086467D01*
X0041211Y0086611D01*
X0041761Y0086741D01*
X0042313Y0086858D01*
X0042868Y0086961D01*
X0043425Y0087051D01*
X0043985Y0087127D01*
X0044546Y0087189D01*
X0045108Y0087238D01*
X0045671Y0087272D01*
X0046236Y0087293D01*
X0046800Y0087300D01*
X0047364Y0087293D01*
X0047929Y0087272D01*
X0048492Y0087238D01*
X0049054Y0087189D01*
X0049615Y0087127D01*
X0050175Y0087051D01*
X0050732Y0086961D01*
X0051287Y0086858D01*
X0051839Y0086741D01*
X0052389Y0086611D01*
X0052934Y0086467D01*
X0053477Y0086310D01*
X0054015Y0086139D01*
X0054548Y0085956D01*
X0055078Y0085759D01*
X0055602Y0085549D01*
X0056121Y0085327D01*
X0056634Y0085092D01*
X0057141Y0084844D01*
X0057642Y0084584D01*
X0058137Y0084312D01*
X0058624Y0084028D01*
X0059105Y0083732D01*
X0059578Y0083424D01*
X0060044Y0083104D01*
X0060501Y0082774D01*
X0060950Y0082432D01*
X0061391Y0082079D01*
X0061823Y0081716D01*
X0062246Y0081342D01*
X0062659Y0080958D01*
X0063063Y0080563D01*
X0063458Y0080159D01*
X0063842Y0079746D01*
X0064216Y0079323D01*
X0064579Y0078891D01*
X0064932Y0078450D01*
X0065274Y0078001D01*
X0065604Y0077544D01*
X0065924Y0077078D01*
X0066232Y0076605D01*
X0066528Y0076124D01*
X0066812Y0075637D01*
X0067084Y0075142D01*
X0067344Y0074641D01*
X0067592Y0074134D01*
X0067827Y0073621D01*
X0068049Y0073102D01*
X0068259Y0072578D01*
X0068456Y0072048D01*
X0068639Y0071515D01*
X0068810Y0070977D01*
X0068967Y0070434D01*
X0069111Y0069889D01*
X0069241Y0069339D01*
X0069358Y0068787D01*
X0069461Y0068232D01*
X0069551Y0067675D01*
X0069627Y0067115D01*
X0069689Y0066554D01*
X0069738Y0065992D01*
X0069772Y0065429D01*
X0069793Y0064864D01*
X0069800Y0064300D01*
X0069793Y0063736D01*
X0069772Y0063171D01*
X0069738Y0062608D01*
X0069689Y0062046D01*
X0069627Y0061485D01*
X0069551Y0060925D01*
X0069461Y0060368D01*
X0069358Y0059813D01*
X0069241Y0059261D01*
X0069111Y0058711D01*
X0068967Y0058166D01*
X0068810Y0057623D01*
X0068639Y0057085D01*
X0068456Y0056552D01*
X0068259Y0056022D01*
X0068049Y0055498D01*
X0067827Y0054979D01*
X0067592Y0054466D01*
X0067344Y0053959D01*
X0067084Y0053458D01*
X0066812Y0052963D01*
X0066528Y0052476D01*
X0066232Y0051995D01*
X0065924Y0051522D01*
X0065604Y0051056D01*
X0065274Y0050599D01*
X0064932Y0050150D01*
X0064579Y0049709D01*
X0064216Y0049277D01*
X0063842Y0048854D01*
X0063458Y0048441D01*
X0063063Y0048037D01*
X0062659Y0047642D01*
X0062246Y0047258D01*
X0061823Y0046884D01*
X0061391Y0046521D01*
X0060950Y0046168D01*
X0060501Y0045826D01*
X0060044Y0045496D01*
X0059578Y0045176D01*
X0059105Y0044868D01*
X0058624Y0044572D01*
X0058137Y0044288D01*
X0057642Y0044016D01*
X0057141Y0043756D01*
X0056634Y0043508D01*
X0056121Y0043273D01*
X0055602Y0043051D01*
X0055078Y0042841D01*
X0054548Y0042644D01*
X0054015Y0042461D01*
X0053477Y0042290D01*
X0052934Y0042133D01*
X0052389Y0041989D01*
X0051839Y0041859D01*
X0051287Y0041742D01*
X0050732Y0041639D01*
X0050175Y0041549D01*
X0049615Y0041473D01*
X0049054Y0041411D01*
X0048492Y0041362D01*
X0047929Y0041328D01*
X0047364Y0041307D01*
X0046800Y0041300D01*
X0046236Y0041307D01*
X0045671Y0041328D01*
X0045108Y0041362D01*
X0044546Y0041411D01*
X0043985Y0041473D01*
X0043425Y0041549D01*
X0042868Y0041639D01*
X0042313Y0041742D01*
X0041761Y0041859D01*
X0041211Y0041989D01*
X0040666Y0042133D01*
X0040123Y0042290D01*
X0039585Y0042461D01*
X0039052Y0042644D01*
X0038522Y0042841D01*
X0037998Y0043051D01*
X0037479Y0043273D01*
X0036966Y0043508D01*
X0036459Y0043756D01*
X0035958Y0044016D01*
X0035463Y0044288D01*
X0034976Y0044572D01*
X0034495Y0044868D01*
X0034022Y0045176D01*
X0033556Y0045496D01*
X0033099Y0045826D01*
X0032650Y0046168D01*
X0032209Y0046521D01*
X0031777Y0046884D01*
X0031354Y0047258D01*
X0030941Y0047642D01*
X0030537Y0048037D01*
X0030142Y0048441D01*
X0029758Y0048854D01*
X0029384Y0049277D01*
X0029021Y0049709D01*
X0028668Y0050150D01*
X0028326Y0050599D01*
X0027996Y0051056D01*
X0027676Y0051522D01*
X0027368Y0051995D01*
X0027072Y0052476D01*
X0026788Y0052963D01*
X0026516Y0053458D01*
X0026256Y0053959D01*
X0026008Y0054466D01*
X0025773Y0054979D01*
X0025551Y0055498D01*
X0025341Y0056022D01*
X0025144Y0056552D01*
X0024961Y0057085D01*
X0024790Y0057623D01*
X0024633Y0058166D01*
X0024489Y0058711D01*
X0024359Y0059261D01*
X0024242Y0059813D01*
X0024139Y0060368D01*
X0024049Y0060925D01*
X0023973Y0061485D01*
X0023911Y0062046D01*
X0023862Y0062608D01*
X0023828Y0063171D01*
X0023807Y0063736D01*
X0023800Y0064300D01*
D11*
X0036132Y0076698D02*
X0036132Y0078950D01*
X0036132Y0076698D02*
X0036882Y0075947D01*
X0038384Y0075947D01*
X0039134Y0076698D01*
X0040736Y0075947D02*
X0042988Y0075947D01*
X0043738Y0076698D01*
X0043738Y0078199D01*
X0042988Y0078950D01*
X0040736Y0078950D01*
X0039134Y0078950D02*
X0039134Y0074446D01*
X0045340Y0075947D02*
X0045340Y0078950D01*
X0047592Y0078950D01*
X0048342Y0078199D01*
X0048342Y0075947D01*
X0049944Y0076698D02*
X0049944Y0078199D01*
X0050694Y0078950D01*
X0052195Y0078950D01*
X0052946Y0078199D01*
X0052946Y0076698D01*
X0052195Y0075947D01*
X0050694Y0075947D01*
X0049944Y0076698D01*
X0054547Y0074446D02*
X0057550Y0074446D01*
X0056049Y0074446D02*
X0056049Y0078950D01*
X0026100Y0064300D02*
X0026106Y0064808D01*
X0026125Y0065316D01*
X0026156Y0065823D01*
X0026200Y0066329D01*
X0026256Y0066834D01*
X0026324Y0067337D01*
X0026405Y0067839D01*
X0026498Y0068338D01*
X0026603Y0068835D01*
X0026720Y0069330D01*
X0026850Y0069821D01*
X0026991Y0070309D01*
X0027145Y0070793D01*
X0027310Y0071274D01*
X0027487Y0071750D01*
X0027676Y0072222D01*
X0027876Y0072688D01*
X0028087Y0073150D01*
X0028310Y0073607D01*
X0028544Y0074058D01*
X0028789Y0074503D01*
X0029045Y0074942D01*
X0029312Y0075374D01*
X0029589Y0075800D01*
X0029876Y0076219D01*
X0030174Y0076631D01*
X0030481Y0077035D01*
X0030799Y0077432D01*
X0031126Y0077821D01*
X0031462Y0078201D01*
X0031808Y0078573D01*
X0032163Y0078937D01*
X0032527Y0079292D01*
X0032899Y0079638D01*
X0033279Y0079974D01*
X0033668Y0080301D01*
X0034065Y0080619D01*
X0034469Y0080926D01*
X0034881Y0081224D01*
X0035300Y0081511D01*
X0035726Y0081788D01*
X0036158Y0082055D01*
X0036597Y0082311D01*
X0037042Y0082556D01*
X0037493Y0082790D01*
X0037950Y0083013D01*
X0038412Y0083224D01*
X0038878Y0083424D01*
X0039350Y0083613D01*
X0039826Y0083790D01*
X0040307Y0083955D01*
X0040791Y0084109D01*
X0041279Y0084250D01*
X0041770Y0084380D01*
X0042265Y0084497D01*
X0042762Y0084602D01*
X0043261Y0084695D01*
X0043763Y0084776D01*
X0044266Y0084844D01*
X0044771Y0084900D01*
X0045277Y0084944D01*
X0045784Y0084975D01*
X0046292Y0084994D01*
X0046800Y0085000D01*
X0047308Y0084994D01*
X0047816Y0084975D01*
X0048323Y0084944D01*
X0048829Y0084900D01*
X0049334Y0084844D01*
X0049837Y0084776D01*
X0050339Y0084695D01*
X0050838Y0084602D01*
X0051335Y0084497D01*
X0051830Y0084380D01*
X0052321Y0084250D01*
X0052809Y0084109D01*
X0053293Y0083955D01*
X0053774Y0083790D01*
X0054250Y0083613D01*
X0054722Y0083424D01*
X0055188Y0083224D01*
X0055650Y0083013D01*
X0056107Y0082790D01*
X0056558Y0082556D01*
X0057003Y0082311D01*
X0057442Y0082055D01*
X0057874Y0081788D01*
X0058300Y0081511D01*
X0058719Y0081224D01*
X0059131Y0080926D01*
X0059535Y0080619D01*
X0059932Y0080301D01*
X0060321Y0079974D01*
X0060701Y0079638D01*
X0061073Y0079292D01*
X0061437Y0078937D01*
X0061792Y0078573D01*
X0062138Y0078201D01*
X0062474Y0077821D01*
X0062801Y0077432D01*
X0063119Y0077035D01*
X0063426Y0076631D01*
X0063724Y0076219D01*
X0064011Y0075800D01*
X0064288Y0075374D01*
X0064555Y0074942D01*
X0064811Y0074503D01*
X0065056Y0074058D01*
X0065290Y0073607D01*
X0065513Y0073150D01*
X0065724Y0072688D01*
X0065924Y0072222D01*
X0066113Y0071750D01*
X0066290Y0071274D01*
X0066455Y0070793D01*
X0066609Y0070309D01*
X0066750Y0069821D01*
X0066880Y0069330D01*
X0066997Y0068835D01*
X0067102Y0068338D01*
X0067195Y0067839D01*
X0067276Y0067337D01*
X0067344Y0066834D01*
X0067400Y0066329D01*
X0067444Y0065823D01*
X0067475Y0065316D01*
X0067494Y0064808D01*
X0067500Y0064300D01*
X0067494Y0063792D01*
X0067475Y0063284D01*
X0067444Y0062777D01*
X0067400Y0062271D01*
X0067344Y0061766D01*
X0067276Y0061263D01*
X0067195Y0060761D01*
X0067102Y0060262D01*
X0066997Y0059765D01*
X0066880Y0059270D01*
X0066750Y0058779D01*
X0066609Y0058291D01*
X0066455Y0057807D01*
X0066290Y0057326D01*
X0066113Y0056850D01*
X0065924Y0056378D01*
X0065724Y0055912D01*
X0065513Y0055450D01*
X0065290Y0054993D01*
X0065056Y0054542D01*
X0064811Y0054097D01*
X0064555Y0053658D01*
X0064288Y0053226D01*
X0064011Y0052800D01*
X0063724Y0052381D01*
X0063426Y0051969D01*
X0063119Y0051565D01*
X0062801Y0051168D01*
X0062474Y0050779D01*
X0062138Y0050399D01*
X0061792Y0050027D01*
X0061437Y0049663D01*
X0061073Y0049308D01*
X0060701Y0048962D01*
X0060321Y0048626D01*
X0059932Y0048299D01*
X0059535Y0047981D01*
X0059131Y0047674D01*
X0058719Y0047376D01*
X0058300Y0047089D01*
X0057874Y0046812D01*
X0057442Y0046545D01*
X0057003Y0046289D01*
X0056558Y0046044D01*
X0056107Y0045810D01*
X0055650Y0045587D01*
X0055188Y0045376D01*
X0054722Y0045176D01*
X0054250Y0044987D01*
X0053774Y0044810D01*
X0053293Y0044645D01*
X0052809Y0044491D01*
X0052321Y0044350D01*
X0051830Y0044220D01*
X0051335Y0044103D01*
X0050838Y0043998D01*
X0050339Y0043905D01*
X0049837Y0043824D01*
X0049334Y0043756D01*
X0048829Y0043700D01*
X0048323Y0043656D01*
X0047816Y0043625D01*
X0047308Y0043606D01*
X0046800Y0043600D01*
X0046292Y0043606D01*
X0045784Y0043625D01*
X0045277Y0043656D01*
X0044771Y0043700D01*
X0044266Y0043756D01*
X0043763Y0043824D01*
X0043261Y0043905D01*
X0042762Y0043998D01*
X0042265Y0044103D01*
X0041770Y0044220D01*
X0041279Y0044350D01*
X0040791Y0044491D01*
X0040307Y0044645D01*
X0039826Y0044810D01*
X0039350Y0044987D01*
X0038878Y0045176D01*
X0038412Y0045376D01*
X0037950Y0045587D01*
X0037493Y0045810D01*
X0037042Y0046044D01*
X0036597Y0046289D01*
X0036158Y0046545D01*
X0035726Y0046812D01*
X0035300Y0047089D01*
X0034881Y0047376D01*
X0034469Y0047674D01*
X0034065Y0047981D01*
X0033668Y0048299D01*
X0033279Y0048626D01*
X0032899Y0048962D01*
X0032527Y0049308D01*
X0032163Y0049663D01*
X0031808Y0050027D01*
X0031462Y0050399D01*
X0031126Y0050779D01*
X0030799Y0051168D01*
X0030481Y0051565D01*
X0030174Y0051969D01*
X0029876Y0052381D01*
X0029589Y0052800D01*
X0029312Y0053226D01*
X0029045Y0053658D01*
X0028789Y0054097D01*
X0028544Y0054542D01*
X0028310Y0054993D01*
X0028087Y0055450D01*
X0027876Y0055912D01*
X0027676Y0056378D01*
X0027487Y0056850D01*
X0027310Y0057326D01*
X0027145Y0057807D01*
X0026991Y0058291D01*
X0026850Y0058779D01*
X0026720Y0059270D01*
X0026603Y0059765D01*
X0026498Y0060262D01*
X0026405Y0060761D01*
X0026324Y0061263D01*
X0026256Y0061766D01*
X0026200Y0062271D01*
X0026156Y0062777D01*
X0026125Y0063284D01*
X0026106Y0063792D01*
X0026100Y0064300D01*
X0026800Y0043300D02*
X0036800Y0043300D01*
X0036800Y0040800D01*
X0026800Y0040800D01*
X0026800Y0043300D01*
X0026800Y0040800D02*
X0026800Y0020800D01*
X0066800Y0020800D01*
X0066800Y0040800D01*
X0066800Y0043300D01*
X0056800Y0043300D01*
X0056800Y0040800D01*
X0036800Y0040800D01*
X0022600Y0040900D02*
X0022600Y0034900D01*
X0010600Y0034900D01*
X0010600Y0040900D01*
X0022600Y0040900D01*
X0056800Y0040800D02*
X0066800Y0040800D01*
X0068700Y0040900D02*
X0074700Y0040900D01*
X0074700Y0028900D01*
X0068700Y0028900D01*
X0068700Y0040900D01*
X0075800Y0040900D02*
X0081800Y0040900D01*
X0081800Y0028900D01*
X0075800Y0028900D01*
X0075800Y0040900D01*
X0077400Y0035300D02*
X0078800Y0034200D01*
X0080200Y0035300D01*
X0077400Y0035300D01*
X0081200Y0022700D02*
X0069200Y0022700D01*
X0069200Y0016700D01*
X0081200Y0016700D01*
X0081200Y0022700D01*
D12*
X0022500Y0052400D03*
X0020800Y0057600D03*
X0022500Y0058000D03*
X0019900Y0065200D03*
X0019800Y0065200D03*
X0022500Y0069700D03*
X0022200Y0071800D03*
X0020800Y0071800D03*
X0020700Y0072200D03*
X0020400Y0074200D03*
X0020600Y0075200D03*
X0021000Y0075700D03*
X0020900Y0076700D03*
X0022100Y0077200D03*
X0021500Y0074700D03*
X0019200Y0077100D03*
X0017900Y0076700D03*
X0017000Y0076600D03*
X0016300Y0076300D03*
X0018300Y0082000D03*
D13*
X0020700Y0071750D03*
X0020700Y0067550D03*
X0016400Y0066450D03*
X0020100Y0058650D03*
X0016400Y0053350D03*
X0022400Y0052450D03*
D14*
X0022400Y0054250D03*
X0022300Y0059050D03*
X0021700Y0061650D03*
X0021100Y0062350D03*
X0021700Y0063250D03*
X0018500Y0065950D03*
X0018400Y0065950D03*
X0022200Y0069650D03*
X0020300Y0075250D03*
X0019700Y0075950D03*
X0020500Y0076750D03*
X0020400Y0078250D03*
X0019800Y0081650D03*
D15*
X0020900Y0081350D03*
X0021000Y0081350D03*
X0021100Y0081350D03*
X0021200Y0081350D03*
X0021300Y0081350D03*
X0021400Y0081350D03*
X0021500Y0081350D03*
X0021600Y0081350D03*
X0022100Y0081350D03*
X0022200Y0081350D03*
X0022300Y0081350D03*
X0022300Y0080250D03*
X0022200Y0080250D03*
X0022100Y0080250D03*
X0021600Y0080250D03*
X0021500Y0080250D03*
X0021400Y0080250D03*
X0021300Y0080250D03*
X0021200Y0080250D03*
X0021100Y0080250D03*
X0021000Y0080250D03*
X0020900Y0080250D03*
X0020900Y0078450D03*
X0021000Y0078450D03*
X0021100Y0078450D03*
X0021200Y0078450D03*
X0021300Y0078450D03*
X0021400Y0078450D03*
X0021500Y0078450D03*
X0021600Y0078450D03*
X0022100Y0078450D03*
X0022200Y0078450D03*
X0022300Y0078450D03*
X0021900Y0077250D03*
X0021100Y0075850D03*
X0019700Y0074650D03*
X0019600Y0074650D03*
X0019500Y0074650D03*
X0019400Y0074650D03*
X0019300Y0074650D03*
X0019200Y0074650D03*
X0019200Y0073150D03*
X0019300Y0073150D03*
X0019400Y0073150D03*
X0019500Y0073150D03*
X0019600Y0073150D03*
X0019700Y0073150D03*
X0020200Y0073150D03*
X0020300Y0073150D03*
X0020800Y0072250D03*
X0021000Y0072250D03*
X0021200Y0072150D03*
X0021400Y0072050D03*
X0021600Y0071950D03*
X0022100Y0071750D03*
X0019300Y0067850D03*
X0019000Y0067950D03*
X0018400Y0068150D03*
X0018100Y0068250D03*
X0017700Y0068350D03*
X0017000Y0068550D03*
X0019600Y0065250D03*
X0019600Y0057850D03*
X0019500Y0057850D03*
X0019400Y0057850D03*
X0019300Y0057850D03*
X0019200Y0057850D03*
X0019100Y0057850D03*
X0019000Y0057850D03*
X0018900Y0057850D03*
X0018800Y0057850D03*
X0018700Y0057850D03*
X0018600Y0057850D03*
X0018500Y0057850D03*
X0018400Y0057850D03*
X0018300Y0057850D03*
X0018200Y0057850D03*
X0018100Y0057850D03*
X0018100Y0056750D03*
X0018200Y0056750D03*
X0018300Y0056750D03*
X0018400Y0056750D03*
X0018500Y0056750D03*
X0018600Y0056750D03*
X0018700Y0056750D03*
X0018800Y0056750D03*
X0018900Y0056750D03*
X0019000Y0056750D03*
X0019100Y0056750D03*
X0019200Y0056750D03*
X0019300Y0056750D03*
X0019400Y0056750D03*
X0019500Y0056750D03*
X0019600Y0056750D03*
X0020100Y0056750D03*
X0020200Y0056750D03*
X0020300Y0056750D03*
X0020400Y0056750D03*
X0020500Y0056750D03*
X0020600Y0056750D03*
X0020700Y0056750D03*
X0020800Y0056750D03*
X0020900Y0056750D03*
X0021000Y0056750D03*
X0021100Y0056750D03*
X0021200Y0056750D03*
X0021300Y0056750D03*
X0021400Y0056750D03*
X0021500Y0056750D03*
X0021600Y0056750D03*
X0022200Y0055450D03*
X0021900Y0054750D03*
X0021800Y0054750D03*
X0021700Y0054750D03*
X0021600Y0054750D03*
X0021500Y0054750D03*
X0021400Y0054750D03*
X0021300Y0054750D03*
X0021200Y0054750D03*
X0021100Y0054750D03*
X0021000Y0054750D03*
X0020900Y0054750D03*
X0020800Y0054750D03*
X0020300Y0054750D03*
X0020200Y0054750D03*
X0020100Y0054750D03*
X0020000Y0054750D03*
X0019900Y0054750D03*
X0019800Y0054750D03*
X0019700Y0054750D03*
X0019200Y0054750D03*
X0019100Y0054750D03*
X0019000Y0054750D03*
X0018900Y0054750D03*
X0018800Y0054750D03*
X0018700Y0054750D03*
X0018600Y0054750D03*
X0018500Y0054750D03*
X0018500Y0055650D03*
X0018400Y0055650D03*
X0018300Y0055650D03*
X0018200Y0055650D03*
X0018100Y0055650D03*
X0018600Y0055650D03*
X0018700Y0055650D03*
X0018800Y0055650D03*
X0018900Y0055650D03*
X0019000Y0055650D03*
X0019100Y0055650D03*
X0019200Y0055650D03*
X0019300Y0055650D03*
X0019400Y0055650D03*
X0019500Y0055650D03*
X0019600Y0055650D03*
X0020100Y0055650D03*
X0020200Y0055650D03*
X0020300Y0055650D03*
X0020300Y0053750D03*
X0020200Y0053750D03*
X0020100Y0053750D03*
X0020000Y0053750D03*
X0019900Y0053750D03*
X0019800Y0053750D03*
X0019700Y0053750D03*
X0019200Y0053750D03*
X0019100Y0053750D03*
X0019000Y0053750D03*
X0018900Y0053750D03*
X0018800Y0053750D03*
X0018700Y0053750D03*
X0018600Y0053750D03*
X0018500Y0053750D03*
X0018500Y0052750D03*
X0018600Y0052750D03*
X0018700Y0052750D03*
X0018800Y0052750D03*
X0018900Y0052750D03*
X0019000Y0052750D03*
X0019100Y0052750D03*
X0019200Y0052750D03*
X0019700Y0052750D03*
X0019800Y0052750D03*
X0019900Y0052750D03*
X0020000Y0052750D03*
X0020100Y0052750D03*
X0020200Y0052750D03*
X0020300Y0052750D03*
X0020800Y0052750D03*
X0020900Y0052750D03*
X0021000Y0052750D03*
X0021100Y0052750D03*
X0021200Y0052750D03*
X0021300Y0052650D03*
X0021400Y0052650D03*
X0021500Y0052650D03*
X0021600Y0052650D03*
X0021800Y0052550D03*
X0021900Y0052550D03*
X0022100Y0052450D03*
X0021900Y0053750D03*
X0021800Y0053750D03*
X0021700Y0053750D03*
X0021600Y0053750D03*
X0021500Y0053750D03*
X0021400Y0053750D03*
X0021300Y0053750D03*
X0021200Y0053750D03*
X0021100Y0053750D03*
X0021000Y0053750D03*
X0020900Y0053750D03*
X0020800Y0053750D03*
X0018000Y0052550D03*
X0017900Y0052650D03*
X0017600Y0052850D03*
X0016600Y0053350D03*
X0016600Y0056750D03*
X0016500Y0056750D03*
X0016700Y0056750D03*
X0016800Y0056750D03*
X0016900Y0056750D03*
X0017000Y0056750D03*
X0017100Y0056750D03*
X0017200Y0056750D03*
X0017300Y0056750D03*
X0017400Y0056750D03*
X0017500Y0056750D03*
X0017600Y0056750D03*
X0022200Y0058050D03*
X0022400Y0058050D03*
X0018900Y0076450D03*
X0018700Y0076550D03*
X0018500Y0076650D03*
X0018300Y0076750D03*
X0018200Y0076750D03*
X0019300Y0077250D03*
X0018500Y0078450D03*
X0018400Y0078450D03*
X0018300Y0078450D03*
X0017800Y0078450D03*
X0017700Y0078450D03*
X0017600Y0078450D03*
X0017500Y0078450D03*
X0017400Y0078450D03*
X0017300Y0078450D03*
X0017200Y0078450D03*
X0017100Y0078450D03*
X0017100Y0080250D03*
X0017200Y0080250D03*
X0017300Y0080250D03*
X0017400Y0080250D03*
X0017500Y0080250D03*
X0017600Y0080250D03*
X0017700Y0080250D03*
X0017800Y0080250D03*
X0018300Y0080250D03*
X0018400Y0080250D03*
X0018400Y0080750D03*
X0018800Y0080750D03*
X0018900Y0080750D03*
X0018400Y0081350D03*
X0018300Y0081350D03*
X0017800Y0081350D03*
X0017700Y0081350D03*
X0017600Y0081350D03*
X0017500Y0081350D03*
X0017400Y0081350D03*
X0017300Y0081350D03*
X0017200Y0081350D03*
X0017100Y0081350D03*
X0018400Y0082050D03*
X0018900Y0082450D03*
X0018500Y0083150D03*
X0018400Y0083150D03*
X0018300Y0083150D03*
X0017800Y0083150D03*
X0017700Y0083150D03*
X0017600Y0083150D03*
X0017500Y0083150D03*
X0017400Y0083150D03*
X0017300Y0083150D03*
X0017200Y0083150D03*
X0017100Y0083150D03*
X0020900Y0083150D03*
X0021000Y0083150D03*
X0021100Y0083150D03*
X0021200Y0083150D03*
X0021300Y0083150D03*
X0021400Y0083150D03*
X0021500Y0083150D03*
X0021600Y0083150D03*
X0022100Y0083150D03*
X0022200Y0083150D03*
X0022300Y0083150D03*
X0016400Y0076350D03*
D16*
X0016900Y0076600D03*
X0018000Y0076800D03*
X0020500Y0078000D03*
X0022000Y0077200D03*
X0021000Y0076700D03*
X0020500Y0075200D03*
X0020500Y0074200D03*
X0021400Y0074700D03*
X0020600Y0071800D03*
X0022400Y0069700D03*
X0020800Y0067600D03*
X0019700Y0065200D03*
X0022400Y0064400D03*
X0022400Y0060500D03*
X0019200Y0060400D03*
X0022300Y0052400D03*
D17*
X0022200Y0052400D03*
X0022000Y0052500D03*
X0021700Y0052600D03*
X0022000Y0054700D03*
X0021000Y0057500D03*
X0020900Y0057500D03*
X0021100Y0057600D03*
X0021200Y0057600D03*
X0021300Y0057700D03*
X0021400Y0057700D03*
X0021500Y0057800D03*
X0022000Y0058000D03*
X0022100Y0058000D03*
X0022300Y0058100D03*
X0021700Y0059600D03*
X0021600Y0059600D03*
X0021500Y0059600D03*
X0021400Y0059600D03*
X0021300Y0059600D03*
X0021200Y0059600D03*
X0021100Y0059600D03*
X0021000Y0059600D03*
X0020900Y0059600D03*
X0020800Y0059600D03*
X0020700Y0059600D03*
X0020600Y0059600D03*
X0020500Y0059600D03*
X0020400Y0059600D03*
X0020300Y0059600D03*
X0020200Y0059600D03*
X0020100Y0059600D03*
X0020000Y0059600D03*
X0019300Y0059600D03*
X0019200Y0059600D03*
X0019100Y0059600D03*
X0019000Y0059600D03*
X0018900Y0059600D03*
X0018800Y0059600D03*
X0018700Y0059600D03*
X0018600Y0059600D03*
X0018500Y0059600D03*
X0018400Y0059600D03*
X0018300Y0059600D03*
X0018200Y0059600D03*
X0018100Y0059600D03*
X0017600Y0059600D03*
X0017500Y0059600D03*
X0017400Y0059600D03*
X0017300Y0059600D03*
X0017200Y0059600D03*
X0017100Y0059600D03*
X0017000Y0059600D03*
X0016900Y0059600D03*
X0016800Y0059600D03*
X0016700Y0059600D03*
X0016600Y0059600D03*
X0016500Y0059600D03*
X0016400Y0059600D03*
X0016400Y0061700D03*
X0016500Y0061700D03*
X0016600Y0061700D03*
X0016700Y0061700D03*
X0016800Y0061700D03*
X0016900Y0061700D03*
X0017400Y0061700D03*
X0017500Y0061700D03*
X0017600Y0061700D03*
X0017700Y0061700D03*
X0017800Y0061700D03*
X0018500Y0061100D03*
X0018600Y0061100D03*
X0018700Y0061100D03*
X0018800Y0061100D03*
X0019300Y0061100D03*
X0019400Y0061100D03*
X0019500Y0061100D03*
X0019600Y0061100D03*
X0019700Y0061100D03*
X0020200Y0061100D03*
X0020300Y0061100D03*
X0020500Y0062400D03*
X0020600Y0062400D03*
X0020400Y0062500D03*
X0020300Y0062500D03*
X0020200Y0062500D03*
X0021300Y0062100D03*
X0020300Y0064000D03*
X0020200Y0064000D03*
X0019700Y0064000D03*
X0019600Y0064000D03*
X0019500Y0064000D03*
X0019400Y0064000D03*
X0019300Y0064000D03*
X0018800Y0064000D03*
X0018700Y0064000D03*
X0018600Y0064000D03*
X0018500Y0064000D03*
X0017800Y0063200D03*
X0017700Y0063200D03*
X0017600Y0063200D03*
X0017500Y0063200D03*
X0017400Y0063200D03*
X0016900Y0063200D03*
X0016800Y0063200D03*
X0016700Y0063200D03*
X0016600Y0063200D03*
X0016500Y0063200D03*
X0016400Y0063200D03*
X0017500Y0066200D03*
X0017600Y0066200D03*
X0017400Y0066300D03*
X0017300Y0066300D03*
X0017100Y0066400D03*
X0017000Y0066400D03*
X0016800Y0066500D03*
X0016700Y0066500D03*
X0016500Y0066600D03*
X0017100Y0068500D03*
X0017200Y0068500D03*
X0016900Y0068600D03*
X0016800Y0068600D03*
X0016700Y0068600D03*
X0016600Y0068700D03*
X0016500Y0068700D03*
X0016400Y0068700D03*
X0017800Y0068300D03*
X0017900Y0068300D03*
X0018000Y0068300D03*
X0018200Y0068200D03*
X0018300Y0068200D03*
X0018500Y0068100D03*
X0019100Y0067900D03*
X0019200Y0067900D03*
X0019400Y0067800D03*
X0019500Y0067800D03*
X0019600Y0067800D03*
X0019700Y0067700D03*
X0019700Y0066100D03*
X0019600Y0066100D03*
X0019500Y0066100D03*
X0019400Y0066100D03*
X0019300Y0066100D03*
X0019200Y0066100D03*
X0019100Y0066100D03*
X0019000Y0066100D03*
X0019000Y0065500D03*
X0019200Y0065400D03*
X0019500Y0065200D03*
X0019800Y0066100D03*
X0019900Y0066100D03*
X0020000Y0066100D03*
X0020100Y0066100D03*
X0020200Y0066100D03*
X0020300Y0066100D03*
X0020400Y0066100D03*
X0020500Y0066100D03*
X0020600Y0066100D03*
X0020700Y0066100D03*
X0020800Y0066100D03*
X0020900Y0066100D03*
X0021000Y0066100D03*
X0021100Y0066100D03*
X0021200Y0066100D03*
X0021300Y0066100D03*
X0021400Y0066100D03*
X0021500Y0066100D03*
X0021600Y0066100D03*
X0021700Y0066100D03*
X0021800Y0066100D03*
X0021900Y0066100D03*
X0022000Y0066100D03*
X0022100Y0066100D03*
X0022200Y0066100D03*
X0022300Y0066100D03*
X0022400Y0066100D03*
X0017800Y0066100D03*
X0022000Y0071700D03*
X0021900Y0071800D03*
X0021800Y0071800D03*
X0021700Y0071900D03*
X0021500Y0072000D03*
X0021300Y0072100D03*
X0021100Y0072200D03*
X0020900Y0072300D03*
X0020500Y0071800D03*
X0020000Y0072000D03*
X0019700Y0072100D03*
X0019600Y0072100D03*
X0019500Y0072200D03*
X0019400Y0072200D03*
X0019300Y0072200D03*
X0019200Y0072200D03*
X0019100Y0072200D03*
X0019000Y0072300D03*
X0018900Y0072300D03*
X0018800Y0072300D03*
X0018700Y0072300D03*
X0018600Y0072300D03*
X0018500Y0072300D03*
X0018400Y0072300D03*
X0018300Y0072300D03*
X0018200Y0072300D03*
X0018100Y0072300D03*
X0018000Y0072300D03*
X0017900Y0072300D03*
X0017800Y0072300D03*
X0017700Y0072300D03*
X0017600Y0072300D03*
X0017500Y0072300D03*
X0017500Y0075500D03*
X0017600Y0075500D03*
X0017700Y0075500D03*
X0017800Y0075500D03*
X0017900Y0075500D03*
X0018000Y0075500D03*
X0018100Y0075600D03*
X0018200Y0075600D03*
X0018300Y0075600D03*
X0018400Y0075600D03*
X0018500Y0075600D03*
X0018600Y0075600D03*
X0018700Y0075700D03*
X0018800Y0075700D03*
X0018900Y0075700D03*
X0019000Y0075700D03*
X0019000Y0076400D03*
X0018800Y0076500D03*
X0018600Y0076600D03*
X0018400Y0076700D03*
X0018100Y0076800D03*
X0016800Y0076600D03*
X0016800Y0075500D03*
X0016900Y0075500D03*
X0017000Y0075500D03*
X0016700Y0075500D03*
X0016600Y0075500D03*
X0016500Y0075500D03*
X0016400Y0075500D03*
X0019400Y0077300D03*
X0019600Y0077200D03*
X0019700Y0077200D03*
X0019800Y0077200D03*
X0020000Y0077100D03*
X0020600Y0076800D03*
X0021100Y0076700D03*
X0021200Y0076800D03*
X0021400Y0076900D03*
X0021500Y0077000D03*
X0021600Y0077100D03*
X0021200Y0075900D03*
X0021400Y0075800D03*
X0021500Y0075800D03*
X0021600Y0075800D03*
X0021700Y0075800D03*
X0021800Y0075700D03*
X0021300Y0074700D03*
X0020800Y0074400D03*
X0020700Y0074300D03*
X0020600Y0074200D03*
X0020700Y0073200D03*
X0020800Y0073200D03*
X0020900Y0073200D03*
X0021000Y0073200D03*
X0021100Y0073200D03*
X0021200Y0073200D03*
X0021300Y0073200D03*
X0021400Y0073200D03*
X0021500Y0073200D03*
X0021600Y0073200D03*
X0021700Y0073200D03*
X0019400Y0080500D03*
X0019400Y0081100D03*
X0019500Y0081200D03*
X0018700Y0080800D03*
X0018600Y0080800D03*
X0018500Y0080800D03*
X0017400Y0054400D03*
X0017500Y0054300D03*
X0017600Y0054200D03*
X0017700Y0054100D03*
X0017800Y0054100D03*
X0017900Y0054000D03*
X0018000Y0053900D03*
X0017400Y0053000D03*
X0017500Y0052900D03*
X0017700Y0052800D03*
X0017800Y0052700D03*
X0016900Y0053200D03*
X0016800Y0053300D03*
X0016700Y0053300D03*
X0016500Y0053400D03*
D18*
X0022300Y0054250D03*
X0021600Y0057550D03*
X0022200Y0059150D03*
X0021800Y0063450D03*
X0022200Y0064150D03*
X0018800Y0065850D03*
X0021100Y0067850D03*
X0019200Y0076050D03*
X0019100Y0076050D03*
X0020400Y0076750D03*
X0019900Y0079650D03*
X0019900Y0081850D03*
D19*
X0019600Y0081350D03*
X0019500Y0080350D03*
X0019600Y0080250D03*
X0018500Y0082050D03*
X0018800Y0082450D03*
X0019500Y0077250D03*
X0019900Y0077150D03*
X0020000Y0076250D03*
X0019600Y0075950D03*
X0020000Y0075550D03*
X0020100Y0075450D03*
X0020200Y0075350D03*
X0020400Y0075250D03*
X0021000Y0074550D03*
X0020900Y0074450D03*
X0021100Y0074650D03*
X0021200Y0074750D03*
X0021800Y0073250D03*
X0020300Y0071850D03*
X0020200Y0071850D03*
X0020100Y0071950D03*
X0019900Y0072050D03*
X0019800Y0072050D03*
X0020400Y0071750D03*
X0021000Y0069650D03*
X0021100Y0069550D03*
X0021200Y0069450D03*
X0021300Y0069350D03*
X0021400Y0069250D03*
X0022300Y0069650D03*
X0020900Y0067650D03*
X0019300Y0065350D03*
X0019400Y0065250D03*
X0019100Y0065450D03*
X0018100Y0066050D03*
X0018000Y0066050D03*
X0017900Y0066050D03*
X0017700Y0066150D03*
X0017200Y0066350D03*
X0016900Y0066450D03*
X0016600Y0066550D03*
X0021300Y0062750D03*
X0021400Y0062850D03*
X0021500Y0062950D03*
X0021400Y0062050D03*
X0021500Y0061950D03*
X0022300Y0060650D03*
X0021800Y0059550D03*
X0020000Y0058850D03*
X0019300Y0060250D03*
X0022300Y0064250D03*
X0021300Y0075850D03*
X0021300Y0076850D03*
X0021700Y0077150D03*
X0021800Y0077250D03*
X0016700Y0076550D03*
X0016600Y0076450D03*
X0016500Y0076350D03*
D20*
X0022300Y0074400D03*
X0022000Y0056200D03*
D21*
X0022200Y0054300D03*
X0022100Y0059200D03*
X0018900Y0065800D03*
X0021600Y0068800D03*
X0019900Y0075900D03*
X0020300Y0076700D03*
D22*
X0019800Y0075900D03*
X0019300Y0076000D03*
X0019800Y0079900D03*
X0020400Y0083300D03*
X0022100Y0069500D03*
X0022000Y0069300D03*
X0021900Y0069200D03*
X0021800Y0069000D03*
X0021700Y0068900D03*
X0021400Y0068400D03*
X0021300Y0068200D03*
X0021200Y0068000D03*
X0021000Y0067700D03*
X0018700Y0065900D03*
X0018600Y0065900D03*
X0021200Y0062400D03*
X0021800Y0061500D03*
X0021900Y0061300D03*
X0022200Y0060700D03*
D23*
X0020000Y0056750D03*
X0019900Y0056750D03*
X0019800Y0056750D03*
X0019700Y0056750D03*
X0018000Y0056750D03*
X0017900Y0056750D03*
X0017800Y0056750D03*
X0017700Y0056750D03*
X0022200Y0074450D03*
D24*
X0022100Y0064050D03*
X0021900Y0063750D03*
X0022000Y0061050D03*
X0022000Y0059150D03*
X0019400Y0059950D03*
X0022100Y0054350D03*
D25*
X0022100Y0055800D03*
X0021900Y0059200D03*
X0022100Y0060800D03*
X0019900Y0059200D03*
X0019800Y0059200D03*
X0020200Y0076700D03*
X0020000Y0079300D03*
X0020000Y0082200D03*
D26*
X0022000Y0074450D03*
X0022100Y0074450D03*
X0018300Y0053550D03*
D27*
X0022000Y0064000D03*
X0020300Y0083100D03*
D28*
X0020100Y0082850D03*
X0020600Y0082250D03*
X0020700Y0082250D03*
X0020800Y0082250D03*
X0021700Y0082250D03*
X0021800Y0082250D03*
X0021900Y0082250D03*
X0022000Y0082250D03*
X0022000Y0079350D03*
X0021900Y0079350D03*
X0021800Y0079350D03*
X0021700Y0079350D03*
X0020800Y0079350D03*
X0020700Y0079350D03*
X0020600Y0079350D03*
X0020500Y0079350D03*
X0018200Y0079350D03*
X0018100Y0079350D03*
X0018000Y0079350D03*
X0017900Y0079350D03*
X0017000Y0079350D03*
X0016900Y0079350D03*
X0016800Y0079350D03*
X0016700Y0079350D03*
X0016700Y0082250D03*
X0016800Y0082250D03*
X0016900Y0082250D03*
X0017000Y0082250D03*
X0017900Y0082250D03*
X0018000Y0082250D03*
X0018100Y0082250D03*
X0018200Y0082250D03*
X0021700Y0056950D03*
D29*
X0021800Y0056650D03*
X0021900Y0056650D03*
D30*
X0021600Y0061800D03*
X0021600Y0063100D03*
X0018300Y0066000D03*
X0018200Y0066000D03*
X0020900Y0069700D03*
X0020800Y0069800D03*
X0020700Y0069900D03*
X0020600Y0070000D03*
X0020500Y0070100D03*
X0020400Y0070200D03*
X0020300Y0070300D03*
X0020200Y0070400D03*
X0021900Y0073300D03*
X0021900Y0075600D03*
X0019500Y0076000D03*
X0019400Y0076000D03*
X0019700Y0080100D03*
X0019700Y0081500D03*
X0018700Y0082300D03*
X0018600Y0082200D03*
D31*
X0020300Y0078450D03*
X0020100Y0076650D03*
X0021500Y0068750D03*
X0019500Y0059850D03*
D32*
X0020700Y0062450D03*
X0020800Y0062450D03*
X0020900Y0062450D03*
X0021000Y0062450D03*
X0018900Y0068950D03*
X0018800Y0068950D03*
X0018700Y0068950D03*
X0018600Y0068950D03*
D33*
X0019300Y0053750D03*
X0019400Y0053750D03*
X0019500Y0053750D03*
X0019600Y0053750D03*
X0020400Y0053750D03*
X0020500Y0053750D03*
X0020600Y0053750D03*
X0020700Y0053750D03*
D34*
X0020500Y0082400D03*
D35*
X0020200Y0082950D03*
X0020200Y0078550D03*
X0019600Y0059650D03*
X0017200Y0053750D03*
X0017100Y0053750D03*
D36*
X0018100Y0062550D03*
X0018200Y0062550D03*
X0018300Y0062550D03*
X0018400Y0062550D03*
X0018900Y0062550D03*
X0019000Y0062550D03*
X0019100Y0062550D03*
X0019200Y0062550D03*
X0019800Y0062550D03*
X0019900Y0062550D03*
X0020000Y0062550D03*
X0020100Y0062550D03*
D37*
X0020100Y0069100D03*
X0020000Y0069100D03*
X0019900Y0069100D03*
X0019800Y0069100D03*
D38*
X0019800Y0073900D03*
X0019900Y0073900D03*
X0020000Y0073900D03*
X0020100Y0073900D03*
X0019100Y0073900D03*
X0019000Y0073900D03*
X0018900Y0073900D03*
X0018800Y0073900D03*
X0018000Y0059600D03*
X0017900Y0059600D03*
X0017800Y0059600D03*
X0017700Y0059600D03*
X0017300Y0053700D03*
D39*
X0020100Y0078950D03*
D40*
X0019700Y0059400D03*
X0017000Y0053800D03*
D41*
X0019000Y0080800D03*
X0019100Y0080800D03*
X0019200Y0080800D03*
X0019300Y0080800D03*
D42*
X0018400Y0053600D03*
X0018200Y0053600D03*
X0018100Y0053600D03*
D43*
X0018100Y0073900D03*
X0018000Y0073900D03*
X0018200Y0073900D03*
X0018300Y0073900D03*
D44*
X0017600Y0069000D03*
X0017500Y0069000D03*
X0017400Y0069000D03*
X0017300Y0069000D03*
D45*
X0017300Y0074750D03*
X0017200Y0074750D03*
X0017100Y0074750D03*
X0017400Y0074750D03*
D46*
X0017300Y0062550D03*
X0017200Y0062550D03*
X0017100Y0062550D03*
X0017000Y0062550D03*
D47*
X0011900Y0012800D02*
X0011833Y0012800D01*
X0011800Y0012833D01*
X0011800Y0012967D01*
X0011833Y0013000D01*
X0011900Y0013000D01*
X0011933Y0012967D01*
X0011984Y0012933D02*
X0011984Y0012900D01*
X0012018Y0012900D01*
X0012018Y0012933D01*
X0011984Y0012933D01*
X0011984Y0012833D02*
X0011984Y0012800D01*
X0012018Y0012800D01*
X0012018Y0012833D01*
X0011984Y0012833D01*
X0011933Y0012833D02*
X0011900Y0012800D01*
X0012076Y0012800D02*
X0012210Y0013000D01*
X0012260Y0013000D02*
X0012260Y0012833D01*
X0012294Y0012800D01*
X0012360Y0012800D01*
X0012394Y0012833D01*
X0012394Y0013000D01*
X0012478Y0012933D02*
X0012578Y0012933D01*
X0012629Y0012900D02*
X0012662Y0012933D01*
X0012729Y0012933D01*
X0012762Y0012900D01*
X0012762Y0012867D01*
X0012629Y0012867D01*
X0012629Y0012900D02*
X0012629Y0012833D01*
X0012662Y0012800D01*
X0012729Y0012800D01*
X0012813Y0012800D02*
X0012813Y0012933D01*
X0012813Y0012867D02*
X0012880Y0012933D01*
X0012913Y0012933D01*
X0012966Y0012900D02*
X0013000Y0012933D01*
X0013100Y0012933D01*
X0013066Y0012867D02*
X0013000Y0012867D01*
X0012966Y0012900D01*
X0012966Y0012800D02*
X0013066Y0012800D01*
X0013100Y0012833D01*
X0013066Y0012867D01*
X0013150Y0012800D02*
X0013284Y0013000D01*
X0013335Y0013000D02*
X0013468Y0012800D01*
X0013519Y0012800D02*
X0013585Y0012800D01*
X0013552Y0012800D02*
X0013552Y0012933D01*
X0013519Y0012933D01*
X0013552Y0013000D02*
X0013552Y0013034D01*
X0013468Y0013000D02*
X0013335Y0012800D01*
X0013642Y0012833D02*
X0013675Y0012867D01*
X0013775Y0012867D01*
X0013775Y0012900D02*
X0013775Y0012800D01*
X0013675Y0012800D01*
X0013642Y0012833D01*
X0013675Y0012933D02*
X0013742Y0012933D01*
X0013775Y0012900D01*
X0013826Y0012933D02*
X0013926Y0012933D01*
X0013959Y0012900D01*
X0013959Y0012800D01*
X0014010Y0012833D02*
X0014043Y0012800D01*
X0014143Y0012800D01*
X0014143Y0012767D02*
X0014143Y0012933D01*
X0014043Y0012933D01*
X0014010Y0012900D01*
X0014010Y0012833D01*
X0014077Y0012733D02*
X0014110Y0012733D01*
X0014143Y0012767D01*
X0014194Y0012800D02*
X0014327Y0012800D01*
X0014378Y0012800D02*
X0014445Y0012800D01*
X0014411Y0012800D02*
X0014411Y0012933D01*
X0014378Y0012933D01*
X0014327Y0012933D02*
X0014194Y0012800D01*
X0014194Y0012933D02*
X0014327Y0012933D01*
X0014411Y0013000D02*
X0014411Y0013034D01*
X0014634Y0013000D02*
X0014501Y0012800D01*
X0014685Y0012800D02*
X0014785Y0012800D01*
X0014818Y0012833D01*
X0014818Y0012967D01*
X0014785Y0013000D01*
X0014685Y0013000D01*
X0014685Y0012800D01*
X0014869Y0012833D02*
X0014869Y0012900D01*
X0014903Y0012933D01*
X0014969Y0012933D01*
X0015003Y0012900D01*
X0015003Y0012867D01*
X0014869Y0012867D01*
X0014869Y0012833D02*
X0014903Y0012800D01*
X0014969Y0012800D01*
X0015053Y0012800D02*
X0015153Y0012800D01*
X0015187Y0012833D01*
X0015153Y0012867D01*
X0015087Y0012867D01*
X0015053Y0012900D01*
X0015087Y0012933D01*
X0015187Y0012933D01*
X0015238Y0012867D02*
X0015338Y0012933D01*
X0015391Y0012933D02*
X0015458Y0012933D01*
X0015424Y0012967D02*
X0015424Y0012833D01*
X0015458Y0012800D01*
X0015514Y0012833D02*
X0015547Y0012800D01*
X0015614Y0012800D01*
X0015647Y0012833D01*
X0015647Y0012900D01*
X0015614Y0012933D01*
X0015547Y0012933D01*
X0015514Y0012900D01*
X0015514Y0012833D01*
X0015338Y0012800D02*
X0015238Y0012867D01*
X0015238Y0012800D02*
X0015238Y0013000D01*
X0015698Y0012933D02*
X0015798Y0012933D01*
X0015831Y0012900D01*
X0015831Y0012833D01*
X0015798Y0012800D01*
X0015698Y0012800D01*
X0015698Y0012733D02*
X0015698Y0012933D01*
X0015882Y0012800D02*
X0016015Y0013000D01*
X0016066Y0013000D02*
X0016066Y0012767D01*
X0016133Y0012767D02*
X0016133Y0013000D01*
X0016189Y0013000D02*
X0016256Y0013067D01*
X0016322Y0013000D01*
X0016373Y0013000D02*
X0016473Y0013000D01*
X0016507Y0012967D01*
X0016507Y0012900D01*
X0016557Y0012900D02*
X0016757Y0012900D01*
X0016691Y0012933D02*
X0016691Y0012800D01*
X0016824Y0012800D01*
X0016864Y0012800D02*
X0016998Y0013000D01*
X0017048Y0012933D02*
X0017115Y0012933D01*
X0017082Y0012967D02*
X0017082Y0012833D01*
X0017115Y0012800D01*
X0017171Y0012833D02*
X0017204Y0012800D01*
X0017271Y0012800D01*
X0017305Y0012833D01*
X0017305Y0012900D01*
X0017271Y0012933D01*
X0017204Y0012933D01*
X0017171Y0012900D01*
X0017171Y0012833D01*
X0017355Y0012833D02*
X0017389Y0012800D01*
X0017489Y0012800D01*
X0017489Y0012933D01*
X0017539Y0012900D02*
X0017539Y0012833D01*
X0017573Y0012800D01*
X0017673Y0012800D01*
X0017724Y0012800D02*
X0017724Y0013000D01*
X0017757Y0012933D02*
X0017824Y0012933D01*
X0017857Y0012900D01*
X0017857Y0012800D01*
X0017908Y0012800D02*
X0017941Y0012800D01*
X0017941Y0012833D01*
X0017908Y0012833D01*
X0017908Y0012800D01*
X0018000Y0012800D02*
X0018100Y0012800D01*
X0018133Y0012833D01*
X0018133Y0012900D01*
X0018100Y0012933D01*
X0018000Y0012933D01*
X0018000Y0013000D02*
X0018000Y0012800D01*
X0018184Y0012800D02*
X0018184Y0012933D01*
X0018217Y0012933D01*
X0018251Y0012900D01*
X0018284Y0012933D01*
X0018317Y0012900D01*
X0018317Y0012800D01*
X0018368Y0012800D02*
X0018468Y0012800D01*
X0018502Y0012833D01*
X0018502Y0012900D01*
X0018468Y0012933D01*
X0018368Y0012933D01*
X0018368Y0012733D01*
X0018251Y0012800D02*
X0018251Y0012900D01*
X0017757Y0012933D02*
X0017724Y0012900D01*
X0017673Y0012933D02*
X0017573Y0012933D01*
X0017539Y0012900D01*
X0017355Y0012933D02*
X0017355Y0012833D01*
X0016824Y0013000D02*
X0016691Y0013000D01*
X0016691Y0012933D01*
X0016624Y0013000D01*
X0016557Y0012933D01*
X0016557Y0012800D01*
X0016373Y0012900D02*
X0016373Y0013000D01*
X0016322Y0012933D02*
X0016322Y0012800D01*
X0016222Y0012800D01*
X0016189Y0012833D01*
X0016189Y0012933D01*
X0016200Y0012867D02*
X0016133Y0012867D01*
X0013826Y0012800D02*
X0013826Y0012933D01*
X0012578Y0012833D02*
X0012545Y0012867D01*
X0012478Y0012867D01*
X0012445Y0012900D01*
X0012478Y0012933D01*
X0012445Y0012800D02*
X0012545Y0012800D01*
X0012578Y0012833D01*
X0010580Y0014430D02*
X0027115Y0014430D01*
X0034595Y0014430D01*
X0034202Y0014430D01*
X0034595Y0014430D02*
X0038139Y0014430D01*
X0038178Y0014428D01*
X0038216Y0014422D01*
X0038253Y0014413D01*
X0038290Y0014400D01*
X0038325Y0014383D01*
X0038358Y0014364D01*
X0038389Y0014341D01*
X0038418Y0014315D01*
X0038444Y0014286D01*
X0038467Y0014255D01*
X0038486Y0014222D01*
X0038503Y0014187D01*
X0038516Y0014150D01*
X0038525Y0014113D01*
X0038531Y0014075D01*
X0038533Y0014036D01*
X0038532Y0014036D02*
X0038534Y0013846D01*
X0038541Y0013656D01*
X0038553Y0013466D01*
X0038569Y0013276D01*
X0038589Y0013087D01*
X0038615Y0012898D01*
X0038644Y0012710D01*
X0038679Y0012523D01*
X0038718Y0012337D01*
X0038761Y0012152D01*
X0038809Y0011967D01*
X0038861Y0011784D01*
X0038917Y0011603D01*
X0038978Y0011423D01*
X0039044Y0011244D01*
X0039113Y0011067D01*
X0039187Y0010891D01*
X0039265Y0010718D01*
X0039348Y0010546D01*
X0039434Y0010377D01*
X0039524Y0010209D01*
X0039619Y0010044D01*
X0039717Y0009881D01*
X0039820Y0009721D01*
X0039926Y0009563D01*
X0040036Y0009408D01*
X0040149Y0009255D01*
X0040267Y0009105D01*
X0040388Y0008959D01*
X0040512Y0008815D01*
X0040640Y0008674D01*
X0040771Y0008536D01*
X0040906Y0008401D01*
X0041044Y0008270D01*
X0041185Y0008142D01*
X0041329Y0008018D01*
X0041475Y0007897D01*
X0041625Y0007779D01*
X0041778Y0007666D01*
X0041933Y0007556D01*
X0042091Y0007450D01*
X0042251Y0007347D01*
X0042414Y0007249D01*
X0042579Y0007154D01*
X0042747Y0007064D01*
X0042916Y0006978D01*
X0043088Y0006895D01*
X0043261Y0006817D01*
X0043437Y0006743D01*
X0043614Y0006674D01*
X0043793Y0006608D01*
X0043973Y0006547D01*
X0044154Y0006491D01*
X0044337Y0006439D01*
X0044522Y0006391D01*
X0044707Y0006348D01*
X0044893Y0006309D01*
X0045080Y0006274D01*
X0045268Y0006245D01*
X0045457Y0006219D01*
X0045646Y0006199D01*
X0045836Y0006183D01*
X0046026Y0006171D01*
X0046216Y0006164D01*
X0046406Y0006162D01*
X0046800Y0006162D01*
X0047194Y0006162D01*
X0047384Y0006164D01*
X0047574Y0006171D01*
X0047764Y0006183D01*
X0047954Y0006199D01*
X0048143Y0006219D01*
X0048332Y0006245D01*
X0048520Y0006274D01*
X0048707Y0006309D01*
X0048893Y0006348D01*
X0049078Y0006391D01*
X0049263Y0006439D01*
X0049446Y0006491D01*
X0049627Y0006547D01*
X0049807Y0006608D01*
X0049986Y0006674D01*
X0050163Y0006743D01*
X0050339Y0006817D01*
X0050512Y0006895D01*
X0050684Y0006978D01*
X0050853Y0007064D01*
X0051021Y0007154D01*
X0051186Y0007249D01*
X0051349Y0007347D01*
X0051509Y0007450D01*
X0051667Y0007556D01*
X0051822Y0007666D01*
X0051975Y0007779D01*
X0052125Y0007897D01*
X0052271Y0008018D01*
X0052415Y0008142D01*
X0052556Y0008270D01*
X0052694Y0008401D01*
X0052829Y0008536D01*
X0052960Y0008674D01*
X0053088Y0008815D01*
X0053212Y0008959D01*
X0053333Y0009105D01*
X0053451Y0009255D01*
X0053564Y0009408D01*
X0053674Y0009563D01*
X0053780Y0009721D01*
X0053883Y0009881D01*
X0053981Y0010044D01*
X0054076Y0010209D01*
X0054166Y0010377D01*
X0054252Y0010546D01*
X0054335Y0010718D01*
X0054413Y0010891D01*
X0054487Y0011067D01*
X0054556Y0011244D01*
X0054622Y0011423D01*
X0054683Y0011603D01*
X0054739Y0011784D01*
X0054791Y0011967D01*
X0054839Y0012152D01*
X0054882Y0012337D01*
X0054921Y0012523D01*
X0054956Y0012710D01*
X0054985Y0012898D01*
X0055011Y0013087D01*
X0055031Y0013276D01*
X0055047Y0013466D01*
X0055059Y0013656D01*
X0055066Y0013846D01*
X0055068Y0014036D01*
X0055074Y0014076D01*
X0055083Y0014115D01*
X0055096Y0014153D01*
X0055112Y0014190D01*
X0055132Y0014225D01*
X0055155Y0014258D01*
X0055180Y0014289D01*
X0055209Y0014318D01*
X0055240Y0014343D01*
X0055273Y0014366D01*
X0055308Y0014386D01*
X0055345Y0014402D01*
X0055383Y0014415D01*
X0055422Y0014424D01*
X0055462Y0014430D01*
X0055461Y0014430D02*
X0056643Y0014430D01*
X0058611Y0014430D01*
X0067272Y0014430D01*
X0083020Y0014430D01*
X0083130Y0014432D01*
X0083240Y0014438D01*
X0083349Y0014447D01*
X0083458Y0014461D01*
X0083567Y0014478D01*
X0083675Y0014499D01*
X0083782Y0014524D01*
X0083888Y0014552D01*
X0083993Y0014584D01*
X0084097Y0014620D01*
X0084200Y0014659D01*
X0084301Y0014702D01*
X0084401Y0014749D01*
X0084499Y0014799D01*
X0084595Y0014852D01*
X0084689Y0014909D01*
X0084781Y0014969D01*
X0084872Y0015032D01*
X0084959Y0015098D01*
X0085045Y0015167D01*
X0085128Y0015239D01*
X0085208Y0015314D01*
X0085286Y0015392D01*
X0085361Y0015472D01*
X0085433Y0015555D01*
X0085502Y0015641D01*
X0085568Y0015728D01*
X0085631Y0015819D01*
X0085691Y0015911D01*
X0085748Y0016005D01*
X0085801Y0016101D01*
X0085851Y0016199D01*
X0085898Y0016299D01*
X0085941Y0016400D01*
X0085980Y0016503D01*
X0086016Y0016607D01*
X0086048Y0016712D01*
X0086076Y0016818D01*
X0086101Y0016925D01*
X0086122Y0017033D01*
X0086139Y0017142D01*
X0086153Y0017251D01*
X0086162Y0017360D01*
X0086168Y0017470D01*
X0086170Y0017580D01*
X0086170Y0032540D01*
X0086170Y0041202D01*
X0086170Y0044351D01*
X0086170Y0045139D01*
X0086170Y0044351D01*
X0086170Y0045139D02*
X0086164Y0045179D01*
X0086155Y0045218D01*
X0086142Y0045256D01*
X0086126Y0045293D01*
X0086106Y0045328D01*
X0086084Y0045361D01*
X0086058Y0045392D01*
X0086029Y0045421D01*
X0085998Y0045447D01*
X0085965Y0045469D01*
X0085930Y0045489D01*
X0085893Y0045505D01*
X0085855Y0045518D01*
X0085816Y0045527D01*
X0085776Y0045533D01*
X0085776Y0045532D02*
X0085586Y0045534D01*
X0085396Y0045541D01*
X0085206Y0045553D01*
X0085016Y0045569D01*
X0084827Y0045589D01*
X0084638Y0045615D01*
X0084450Y0045644D01*
X0084263Y0045679D01*
X0084077Y0045718D01*
X0083892Y0045761D01*
X0083707Y0045809D01*
X0083524Y0045861D01*
X0083343Y0045917D01*
X0083163Y0045978D01*
X0082984Y0046044D01*
X0082807Y0046113D01*
X0082631Y0046187D01*
X0082458Y0046265D01*
X0082286Y0046348D01*
X0082117Y0046434D01*
X0081949Y0046524D01*
X0081784Y0046619D01*
X0081621Y0046717D01*
X0081461Y0046820D01*
X0081303Y0046926D01*
X0081148Y0047036D01*
X0080995Y0047149D01*
X0080845Y0047267D01*
X0080699Y0047388D01*
X0080555Y0047512D01*
X0080414Y0047640D01*
X0080276Y0047771D01*
X0080141Y0047906D01*
X0080010Y0048044D01*
X0079882Y0048185D01*
X0079758Y0048329D01*
X0079637Y0048475D01*
X0079519Y0048625D01*
X0079406Y0048778D01*
X0079296Y0048933D01*
X0079190Y0049091D01*
X0079087Y0049251D01*
X0078989Y0049414D01*
X0078894Y0049579D01*
X0078804Y0049747D01*
X0078718Y0049916D01*
X0078635Y0050088D01*
X0078557Y0050261D01*
X0078483Y0050437D01*
X0078414Y0050614D01*
X0078348Y0050793D01*
X0078287Y0050973D01*
X0078231Y0051154D01*
X0078179Y0051337D01*
X0078131Y0051522D01*
X0078088Y0051707D01*
X0078049Y0051893D01*
X0078014Y0052080D01*
X0077985Y0052268D01*
X0077959Y0052457D01*
X0077939Y0052646D01*
X0077923Y0052836D01*
X0077911Y0053026D01*
X0077904Y0053216D01*
X0077902Y0053406D01*
X0077902Y0053800D01*
X0077895Y0053993D01*
X0077893Y0054186D01*
X0077895Y0054380D01*
X0077903Y0054573D01*
X0077915Y0054766D01*
X0077931Y0054959D01*
X0077953Y0055151D01*
X0077979Y0055343D01*
X0078009Y0055534D01*
X0078045Y0055724D01*
X0078085Y0055913D01*
X0078130Y0056101D01*
X0078179Y0056288D01*
X0078233Y0056474D01*
X0078291Y0056659D01*
X0078354Y0056841D01*
X0078422Y0057023D01*
X0078494Y0057202D01*
X0078570Y0057380D01*
X0078651Y0057556D01*
X0078735Y0057730D01*
X0078825Y0057901D01*
X0078918Y0058071D01*
X0079015Y0058238D01*
X0079117Y0058403D01*
X0079222Y0058565D01*
X0079332Y0058724D01*
X0079445Y0058881D01*
X0079562Y0059035D01*
X0079683Y0059186D01*
X0079808Y0059334D01*
X0079936Y0059479D01*
X0080068Y0059621D01*
X0080203Y0059759D01*
X0080341Y0059894D01*
X0080483Y0060026D01*
X0080628Y0060154D01*
X0080776Y0060278D01*
X0080927Y0060399D01*
X0081081Y0060516D01*
X0081238Y0060630D01*
X0081397Y0060739D01*
X0081559Y0060844D01*
X0081724Y0060946D01*
X0081891Y0061043D01*
X0082061Y0061137D01*
X0082232Y0061226D01*
X0082406Y0061310D01*
X0082582Y0061391D01*
X0082760Y0061467D01*
X0082939Y0061539D01*
X0083121Y0061606D01*
X0083304Y0061669D01*
X0083488Y0061728D01*
X0083674Y0061782D01*
X0083861Y0061831D01*
X0084049Y0061876D01*
X0084238Y0061916D01*
X0084429Y0061951D01*
X0084620Y0061982D01*
X0084811Y0062008D01*
X0085003Y0062029D01*
X0085196Y0062046D01*
X0085389Y0062058D01*
X0085583Y0062065D01*
X0085776Y0062067D01*
X0085815Y0062069D01*
X0085853Y0062075D01*
X0085890Y0062084D01*
X0085927Y0062097D01*
X0085962Y0062114D01*
X0085995Y0062133D01*
X0086026Y0062156D01*
X0086055Y0062182D01*
X0086081Y0062211D01*
X0086104Y0062242D01*
X0086123Y0062275D01*
X0086140Y0062310D01*
X0086153Y0062347D01*
X0086162Y0062384D01*
X0086168Y0062422D01*
X0086170Y0062461D01*
X0086170Y0063249D01*
X0086170Y0078997D01*
X0086170Y0072698D01*
X0086170Y0066398D02*
X0086170Y0063249D01*
X0086170Y0078997D02*
X0086170Y0090020D01*
X0086168Y0090130D01*
X0086162Y0090240D01*
X0086153Y0090349D01*
X0086139Y0090458D01*
X0086122Y0090567D01*
X0086101Y0090675D01*
X0086076Y0090782D01*
X0086048Y0090888D01*
X0086016Y0090993D01*
X0085980Y0091097D01*
X0085941Y0091200D01*
X0085898Y0091301D01*
X0085851Y0091401D01*
X0085801Y0091499D01*
X0085748Y0091595D01*
X0085691Y0091689D01*
X0085631Y0091781D01*
X0085568Y0091872D01*
X0085502Y0091959D01*
X0085433Y0092045D01*
X0085361Y0092128D01*
X0085286Y0092208D01*
X0085208Y0092286D01*
X0085128Y0092361D01*
X0085045Y0092433D01*
X0084959Y0092502D01*
X0084872Y0092568D01*
X0084781Y0092631D01*
X0084689Y0092691D01*
X0084595Y0092748D01*
X0084499Y0092801D01*
X0084401Y0092851D01*
X0084301Y0092898D01*
X0084200Y0092941D01*
X0084097Y0092980D01*
X0083993Y0093016D01*
X0083888Y0093048D01*
X0083782Y0093076D01*
X0083675Y0093101D01*
X0083567Y0093122D01*
X0083458Y0093139D01*
X0083349Y0093153D01*
X0083240Y0093162D01*
X0083130Y0093168D01*
X0083020Y0093170D01*
X0066485Y0093170D01*
X0059398Y0093170D01*
X0057036Y0093170D01*
X0055461Y0093170D01*
X0057036Y0093170D01*
X0055461Y0093170D02*
X0055422Y0093172D01*
X0055384Y0093178D01*
X0055347Y0093187D01*
X0055310Y0093200D01*
X0055275Y0093217D01*
X0055242Y0093236D01*
X0055211Y0093259D01*
X0055182Y0093285D01*
X0055156Y0093314D01*
X0055133Y0093345D01*
X0055114Y0093378D01*
X0055097Y0093413D01*
X0055084Y0093450D01*
X0055075Y0093487D01*
X0055069Y0093525D01*
X0055067Y0093564D01*
X0055068Y0093564D02*
X0055066Y0093754D01*
X0055059Y0093944D01*
X0055047Y0094134D01*
X0055031Y0094324D01*
X0055011Y0094513D01*
X0054985Y0094702D01*
X0054956Y0094890D01*
X0054921Y0095077D01*
X0054882Y0095263D01*
X0054839Y0095448D01*
X0054791Y0095633D01*
X0054739Y0095816D01*
X0054683Y0095997D01*
X0054622Y0096177D01*
X0054556Y0096356D01*
X0054487Y0096533D01*
X0054413Y0096709D01*
X0054335Y0096882D01*
X0054252Y0097054D01*
X0054166Y0097223D01*
X0054076Y0097391D01*
X0053981Y0097556D01*
X0053883Y0097719D01*
X0053780Y0097879D01*
X0053674Y0098037D01*
X0053564Y0098192D01*
X0053451Y0098345D01*
X0053333Y0098495D01*
X0053212Y0098641D01*
X0053088Y0098785D01*
X0052960Y0098926D01*
X0052829Y0099064D01*
X0052694Y0099199D01*
X0052556Y0099330D01*
X0052415Y0099458D01*
X0052271Y0099582D01*
X0052125Y0099703D01*
X0051975Y0099821D01*
X0051822Y0099934D01*
X0051667Y0100044D01*
X0051509Y0100150D01*
X0051349Y0100253D01*
X0051186Y0100351D01*
X0051021Y0100446D01*
X0050853Y0100536D01*
X0050684Y0100622D01*
X0050512Y0100705D01*
X0050339Y0100783D01*
X0050163Y0100857D01*
X0049986Y0100926D01*
X0049807Y0100992D01*
X0049627Y0101053D01*
X0049446Y0101109D01*
X0049263Y0101161D01*
X0049078Y0101209D01*
X0048893Y0101252D01*
X0048707Y0101291D01*
X0048520Y0101326D01*
X0048332Y0101355D01*
X0048143Y0101381D01*
X0047954Y0101401D01*
X0047764Y0101417D01*
X0047574Y0101429D01*
X0047384Y0101436D01*
X0047194Y0101438D01*
X0046406Y0101438D01*
X0046216Y0101436D01*
X0046026Y0101429D01*
X0045836Y0101417D01*
X0045646Y0101401D01*
X0045457Y0101381D01*
X0045268Y0101355D01*
X0045080Y0101326D01*
X0044893Y0101291D01*
X0044707Y0101252D01*
X0044522Y0101209D01*
X0044337Y0101161D01*
X0044154Y0101109D01*
X0043973Y0101053D01*
X0043793Y0100992D01*
X0043614Y0100926D01*
X0043437Y0100857D01*
X0043261Y0100783D01*
X0043088Y0100705D01*
X0042916Y0100622D01*
X0042747Y0100536D01*
X0042579Y0100446D01*
X0042414Y0100351D01*
X0042251Y0100253D01*
X0042091Y0100150D01*
X0041933Y0100044D01*
X0041778Y0099934D01*
X0041625Y0099821D01*
X0041475Y0099703D01*
X0041329Y0099582D01*
X0041185Y0099458D01*
X0041044Y0099330D01*
X0040906Y0099199D01*
X0040771Y0099064D01*
X0040640Y0098926D01*
X0040512Y0098785D01*
X0040388Y0098641D01*
X0040267Y0098495D01*
X0040149Y0098345D01*
X0040036Y0098192D01*
X0039926Y0098037D01*
X0039820Y0097879D01*
X0039717Y0097719D01*
X0039619Y0097556D01*
X0039524Y0097391D01*
X0039434Y0097223D01*
X0039348Y0097054D01*
X0039265Y0096882D01*
X0039187Y0096709D01*
X0039113Y0096533D01*
X0039044Y0096356D01*
X0038978Y0096177D01*
X0038917Y0095997D01*
X0038861Y0095816D01*
X0038809Y0095633D01*
X0038761Y0095448D01*
X0038718Y0095263D01*
X0038679Y0095077D01*
X0038644Y0094890D01*
X0038615Y0094702D01*
X0038589Y0094513D01*
X0038569Y0094324D01*
X0038553Y0094134D01*
X0038541Y0093944D01*
X0038534Y0093754D01*
X0038532Y0093564D01*
X0038533Y0093564D02*
X0038531Y0093525D01*
X0038525Y0093487D01*
X0038516Y0093450D01*
X0038503Y0093413D01*
X0038486Y0093378D01*
X0038467Y0093345D01*
X0038444Y0093314D01*
X0038418Y0093285D01*
X0038389Y0093259D01*
X0038358Y0093236D01*
X0038325Y0093217D01*
X0038290Y0093200D01*
X0038253Y0093187D01*
X0038216Y0093178D01*
X0038178Y0093172D01*
X0038139Y0093170D01*
X0034989Y0093170D01*
X0027902Y0093170D01*
X0010580Y0093170D01*
X0010470Y0093168D01*
X0010360Y0093162D01*
X0010251Y0093153D01*
X0010142Y0093139D01*
X0010033Y0093122D01*
X0009925Y0093101D01*
X0009818Y0093076D01*
X0009712Y0093048D01*
X0009607Y0093016D01*
X0009503Y0092980D01*
X0009400Y0092941D01*
X0009299Y0092898D01*
X0009199Y0092851D01*
X0009101Y0092801D01*
X0009005Y0092748D01*
X0008911Y0092691D01*
X0008819Y0092631D01*
X0008728Y0092568D01*
X0008641Y0092502D01*
X0008555Y0092433D01*
X0008472Y0092361D01*
X0008392Y0092286D01*
X0008314Y0092208D01*
X0008239Y0092128D01*
X0008167Y0092045D01*
X0008098Y0091959D01*
X0008032Y0091872D01*
X0007969Y0091781D01*
X0007909Y0091689D01*
X0007852Y0091595D01*
X0007799Y0091499D01*
X0007749Y0091401D01*
X0007702Y0091301D01*
X0007659Y0091200D01*
X0007620Y0091097D01*
X0007584Y0090993D01*
X0007552Y0090888D01*
X0007524Y0090782D01*
X0007499Y0090675D01*
X0007478Y0090567D01*
X0007461Y0090458D01*
X0007447Y0090349D01*
X0007438Y0090240D01*
X0007432Y0090130D01*
X0007430Y0090020D01*
X0007430Y0072698D01*
X0007430Y0065217D01*
X0007430Y0066398D01*
X0007430Y0065217D02*
X0007430Y0062461D01*
X0007432Y0062422D01*
X0007438Y0062384D01*
X0007447Y0062347D01*
X0007460Y0062310D01*
X0007477Y0062275D01*
X0007496Y0062242D01*
X0007519Y0062211D01*
X0007545Y0062182D01*
X0007574Y0062156D01*
X0007605Y0062133D01*
X0007638Y0062114D01*
X0007673Y0062097D01*
X0007710Y0062084D01*
X0007747Y0062075D01*
X0007785Y0062069D01*
X0007824Y0062067D01*
X0007824Y0062068D02*
X0008014Y0062066D01*
X0008204Y0062059D01*
X0008394Y0062047D01*
X0008584Y0062031D01*
X0008773Y0062011D01*
X0008962Y0061985D01*
X0009150Y0061956D01*
X0009337Y0061921D01*
X0009523Y0061882D01*
X0009708Y0061839D01*
X0009893Y0061791D01*
X0010076Y0061739D01*
X0010257Y0061683D01*
X0010437Y0061622D01*
X0010616Y0061556D01*
X0010793Y0061487D01*
X0010969Y0061413D01*
X0011142Y0061335D01*
X0011314Y0061252D01*
X0011483Y0061166D01*
X0011651Y0061076D01*
X0011816Y0060981D01*
X0011979Y0060883D01*
X0012139Y0060780D01*
X0012297Y0060674D01*
X0012452Y0060564D01*
X0012605Y0060451D01*
X0012755Y0060333D01*
X0012901Y0060212D01*
X0013045Y0060088D01*
X0013186Y0059960D01*
X0013324Y0059829D01*
X0013459Y0059694D01*
X0013590Y0059556D01*
X0013718Y0059415D01*
X0013842Y0059271D01*
X0013963Y0059125D01*
X0014081Y0058975D01*
X0014194Y0058822D01*
X0014304Y0058667D01*
X0014410Y0058509D01*
X0014513Y0058349D01*
X0014611Y0058186D01*
X0014706Y0058021D01*
X0014796Y0057853D01*
X0014882Y0057684D01*
X0014965Y0057512D01*
X0015043Y0057339D01*
X0015117Y0057163D01*
X0015186Y0056986D01*
X0015252Y0056807D01*
X0015313Y0056627D01*
X0015369Y0056446D01*
X0015421Y0056263D01*
X0015469Y0056078D01*
X0015512Y0055893D01*
X0015551Y0055707D01*
X0015586Y0055520D01*
X0015615Y0055332D01*
X0015641Y0055143D01*
X0015661Y0054954D01*
X0015677Y0054764D01*
X0015689Y0054574D01*
X0015696Y0054384D01*
X0015698Y0054194D01*
X0015698Y0053800D01*
X0015698Y0053406D01*
X0015696Y0053216D01*
X0015689Y0053026D01*
X0015677Y0052836D01*
X0015661Y0052646D01*
X0015641Y0052457D01*
X0015615Y0052268D01*
X0015586Y0052080D01*
X0015551Y0051893D01*
X0015512Y0051707D01*
X0015469Y0051522D01*
X0015421Y0051337D01*
X0015369Y0051154D01*
X0015313Y0050973D01*
X0015252Y0050793D01*
X0015186Y0050614D01*
X0015117Y0050437D01*
X0015043Y0050261D01*
X0014965Y0050088D01*
X0014882Y0049916D01*
X0014796Y0049747D01*
X0014706Y0049579D01*
X0014611Y0049414D01*
X0014513Y0049251D01*
X0014410Y0049091D01*
X0014304Y0048933D01*
X0014194Y0048778D01*
X0014081Y0048625D01*
X0013963Y0048475D01*
X0013842Y0048329D01*
X0013718Y0048185D01*
X0013590Y0048044D01*
X0013459Y0047906D01*
X0013324Y0047771D01*
X0013186Y0047640D01*
X0013045Y0047512D01*
X0012901Y0047388D01*
X0012755Y0047267D01*
X0012605Y0047149D01*
X0012452Y0047036D01*
X0012297Y0046926D01*
X0012139Y0046820D01*
X0011979Y0046717D01*
X0011816Y0046619D01*
X0011651Y0046524D01*
X0011483Y0046434D01*
X0011314Y0046348D01*
X0011142Y0046265D01*
X0010969Y0046187D01*
X0010793Y0046113D01*
X0010616Y0046044D01*
X0010437Y0045978D01*
X0010257Y0045917D01*
X0010076Y0045861D01*
X0009893Y0045809D01*
X0009708Y0045761D01*
X0009523Y0045718D01*
X0009337Y0045679D01*
X0009150Y0045644D01*
X0008962Y0045615D01*
X0008773Y0045589D01*
X0008584Y0045569D01*
X0008394Y0045553D01*
X0008204Y0045541D01*
X0008014Y0045534D01*
X0007824Y0045532D01*
X0007824Y0045533D02*
X0007785Y0045531D01*
X0007747Y0045525D01*
X0007710Y0045516D01*
X0007673Y0045503D01*
X0007638Y0045486D01*
X0007605Y0045467D01*
X0007574Y0045444D01*
X0007545Y0045418D01*
X0007519Y0045389D01*
X0007496Y0045358D01*
X0007477Y0045325D01*
X0007460Y0045290D01*
X0007447Y0045253D01*
X0007438Y0045216D01*
X0007432Y0045178D01*
X0007430Y0045139D01*
X0007430Y0041989D01*
X0007430Y0030965D01*
X0007430Y0034902D01*
X0007430Y0030965D02*
X0007430Y0017580D01*
X0007432Y0017470D01*
X0007438Y0017360D01*
X0007447Y0017251D01*
X0007461Y0017142D01*
X0007478Y0017033D01*
X0007499Y0016925D01*
X0007524Y0016818D01*
X0007552Y0016712D01*
X0007584Y0016607D01*
X0007620Y0016503D01*
X0007659Y0016400D01*
X0007702Y0016299D01*
X0007749Y0016199D01*
X0007799Y0016101D01*
X0007852Y0016005D01*
X0007909Y0015911D01*
X0007969Y0015819D01*
X0008032Y0015728D01*
X0008098Y0015641D01*
X0008167Y0015555D01*
X0008239Y0015472D01*
X0008314Y0015392D01*
X0008392Y0015314D01*
X0008472Y0015239D01*
X0008555Y0015167D01*
X0008641Y0015098D01*
X0008728Y0015032D01*
X0008819Y0014969D01*
X0008911Y0014909D01*
X0009005Y0014852D01*
X0009101Y0014799D01*
X0009199Y0014749D01*
X0009299Y0014702D01*
X0009400Y0014659D01*
X0009503Y0014620D01*
X0009607Y0014584D01*
X0009712Y0014552D01*
X0009818Y0014524D01*
X0009925Y0014499D01*
X0010033Y0014478D01*
X0010142Y0014461D01*
X0010251Y0014447D01*
X0010360Y0014438D01*
X0010470Y0014432D01*
X0010580Y0014430D01*
X0027115Y0014430D02*
X0027902Y0014430D01*
X0042469Y0014430D02*
X0042471Y0014561D01*
X0042477Y0014693D01*
X0042487Y0014824D01*
X0042501Y0014955D01*
X0042519Y0015085D01*
X0042541Y0015214D01*
X0042566Y0015343D01*
X0042596Y0015471D01*
X0042630Y0015598D01*
X0042667Y0015725D01*
X0042708Y0015849D01*
X0042753Y0015973D01*
X0042802Y0016095D01*
X0042854Y0016216D01*
X0042910Y0016334D01*
X0042970Y0016452D01*
X0043033Y0016567D01*
X0043100Y0016680D01*
X0043170Y0016792D01*
X0043243Y0016901D01*
X0043319Y0017007D01*
X0043399Y0017112D01*
X0043482Y0017214D01*
X0043568Y0017313D01*
X0043657Y0017410D01*
X0043749Y0017504D01*
X0043844Y0017595D01*
X0043941Y0017684D01*
X0044041Y0017769D01*
X0044144Y0017851D01*
X0044249Y0017930D01*
X0044356Y0018006D01*
X0044466Y0018078D01*
X0044578Y0018147D01*
X0044692Y0018213D01*
X0044807Y0018275D01*
X0044925Y0018334D01*
X0045044Y0018389D01*
X0045165Y0018441D01*
X0045288Y0018488D01*
X0045412Y0018532D01*
X0045537Y0018573D01*
X0045663Y0018609D01*
X0045791Y0018642D01*
X0045919Y0018670D01*
X0046048Y0018695D01*
X0046178Y0018716D01*
X0046308Y0018733D01*
X0046439Y0018746D01*
X0046570Y0018755D01*
X0046701Y0018760D01*
X0046833Y0018761D01*
X0046964Y0018758D01*
X0047096Y0018751D01*
X0047227Y0018740D01*
X0047357Y0018725D01*
X0047487Y0018706D01*
X0047617Y0018683D01*
X0047745Y0018657D01*
X0047873Y0018626D01*
X0048000Y0018591D01*
X0048126Y0018553D01*
X0048250Y0018511D01*
X0048374Y0018465D01*
X0048495Y0018415D01*
X0048615Y0018362D01*
X0048734Y0018305D01*
X0048851Y0018245D01*
X0048965Y0018181D01*
X0049078Y0018113D01*
X0049189Y0018042D01*
X0049298Y0017968D01*
X0049404Y0017891D01*
X0049508Y0017810D01*
X0049609Y0017727D01*
X0049708Y0017640D01*
X0049804Y0017550D01*
X0049897Y0017457D01*
X0049988Y0017362D01*
X0050075Y0017264D01*
X0050160Y0017163D01*
X0050241Y0017060D01*
X0050319Y0016954D01*
X0050394Y0016846D01*
X0050466Y0016736D01*
X0050534Y0016624D01*
X0050599Y0016510D01*
X0050660Y0016393D01*
X0050718Y0016275D01*
X0050772Y0016155D01*
X0050823Y0016034D01*
X0050870Y0015911D01*
X0050913Y0015787D01*
X0050952Y0015662D01*
X0050988Y0015535D01*
X0051019Y0015407D01*
X0051047Y0015279D01*
X0051071Y0015150D01*
X0051091Y0015020D01*
X0051107Y0014889D01*
X0051119Y0014758D01*
X0051127Y0014627D01*
X0051131Y0014496D01*
X0051131Y0014364D01*
X0051127Y0014233D01*
X0051119Y0014102D01*
X0051107Y0013971D01*
X0051091Y0013840D01*
X0051071Y0013710D01*
X0051047Y0013581D01*
X0051019Y0013453D01*
X0050988Y0013325D01*
X0050952Y0013198D01*
X0050913Y0013073D01*
X0050870Y0012949D01*
X0050823Y0012826D01*
X0050772Y0012705D01*
X0050718Y0012585D01*
X0050660Y0012467D01*
X0050599Y0012350D01*
X0050534Y0012236D01*
X0050466Y0012124D01*
X0050394Y0012014D01*
X0050319Y0011906D01*
X0050241Y0011800D01*
X0050160Y0011697D01*
X0050075Y0011596D01*
X0049988Y0011498D01*
X0049897Y0011403D01*
X0049804Y0011310D01*
X0049708Y0011220D01*
X0049609Y0011133D01*
X0049508Y0011050D01*
X0049404Y0010969D01*
X0049298Y0010892D01*
X0049189Y0010818D01*
X0049078Y0010747D01*
X0048966Y0010679D01*
X0048851Y0010615D01*
X0048734Y0010555D01*
X0048615Y0010498D01*
X0048495Y0010445D01*
X0048374Y0010395D01*
X0048250Y0010349D01*
X0048126Y0010307D01*
X0048000Y0010269D01*
X0047873Y0010234D01*
X0047745Y0010203D01*
X0047617Y0010177D01*
X0047487Y0010154D01*
X0047357Y0010135D01*
X0047227Y0010120D01*
X0047096Y0010109D01*
X0046964Y0010102D01*
X0046833Y0010099D01*
X0046701Y0010100D01*
X0046570Y0010105D01*
X0046439Y0010114D01*
X0046308Y0010127D01*
X0046178Y0010144D01*
X0046048Y0010165D01*
X0045919Y0010190D01*
X0045791Y0010218D01*
X0045663Y0010251D01*
X0045537Y0010287D01*
X0045412Y0010328D01*
X0045288Y0010372D01*
X0045165Y0010419D01*
X0045044Y0010471D01*
X0044925Y0010526D01*
X0044807Y0010585D01*
X0044692Y0010647D01*
X0044578Y0010713D01*
X0044466Y0010782D01*
X0044356Y0010854D01*
X0044249Y0010930D01*
X0044144Y0011009D01*
X0044041Y0011091D01*
X0043941Y0011176D01*
X0043844Y0011265D01*
X0043749Y0011356D01*
X0043657Y0011450D01*
X0043568Y0011547D01*
X0043482Y0011646D01*
X0043399Y0011748D01*
X0043319Y0011853D01*
X0043243Y0011959D01*
X0043170Y0012068D01*
X0043100Y0012180D01*
X0043033Y0012293D01*
X0042970Y0012408D01*
X0042910Y0012526D01*
X0042854Y0012644D01*
X0042802Y0012765D01*
X0042753Y0012887D01*
X0042708Y0013011D01*
X0042667Y0013135D01*
X0042630Y0013262D01*
X0042596Y0013389D01*
X0042566Y0013517D01*
X0042541Y0013646D01*
X0042519Y0013775D01*
X0042501Y0013905D01*
X0042487Y0014036D01*
X0042477Y0014167D01*
X0042471Y0014299D01*
X0042469Y0014430D01*
X0055461Y0014430D02*
X0056643Y0014430D01*
X0058611Y0014430D02*
X0059398Y0014430D01*
X0065698Y0014430D02*
X0067272Y0014430D01*
X0086170Y0032540D02*
X0086170Y0034902D01*
X0066485Y0093170D02*
X0065698Y0093170D01*
X0042469Y0093170D02*
X0042471Y0093301D01*
X0042477Y0093433D01*
X0042487Y0093564D01*
X0042501Y0093695D01*
X0042519Y0093825D01*
X0042541Y0093954D01*
X0042566Y0094083D01*
X0042596Y0094211D01*
X0042630Y0094338D01*
X0042667Y0094465D01*
X0042708Y0094589D01*
X0042753Y0094713D01*
X0042802Y0094835D01*
X0042854Y0094956D01*
X0042910Y0095074D01*
X0042970Y0095192D01*
X0043033Y0095307D01*
X0043100Y0095420D01*
X0043170Y0095532D01*
X0043243Y0095641D01*
X0043319Y0095747D01*
X0043399Y0095852D01*
X0043482Y0095954D01*
X0043568Y0096053D01*
X0043657Y0096150D01*
X0043749Y0096244D01*
X0043844Y0096335D01*
X0043941Y0096424D01*
X0044041Y0096509D01*
X0044144Y0096591D01*
X0044249Y0096670D01*
X0044356Y0096746D01*
X0044466Y0096818D01*
X0044578Y0096887D01*
X0044692Y0096953D01*
X0044807Y0097015D01*
X0044925Y0097074D01*
X0045044Y0097129D01*
X0045165Y0097181D01*
X0045288Y0097228D01*
X0045412Y0097272D01*
X0045537Y0097313D01*
X0045663Y0097349D01*
X0045791Y0097382D01*
X0045919Y0097410D01*
X0046048Y0097435D01*
X0046178Y0097456D01*
X0046308Y0097473D01*
X0046439Y0097486D01*
X0046570Y0097495D01*
X0046701Y0097500D01*
X0046833Y0097501D01*
X0046964Y0097498D01*
X0047096Y0097491D01*
X0047227Y0097480D01*
X0047357Y0097465D01*
X0047487Y0097446D01*
X0047617Y0097423D01*
X0047745Y0097397D01*
X0047873Y0097366D01*
X0048000Y0097331D01*
X0048126Y0097293D01*
X0048250Y0097251D01*
X0048374Y0097205D01*
X0048495Y0097155D01*
X0048615Y0097102D01*
X0048734Y0097045D01*
X0048851Y0096985D01*
X0048965Y0096921D01*
X0049078Y0096853D01*
X0049189Y0096782D01*
X0049298Y0096708D01*
X0049404Y0096631D01*
X0049508Y0096550D01*
X0049609Y0096467D01*
X0049708Y0096380D01*
X0049804Y0096290D01*
X0049897Y0096197D01*
X0049988Y0096102D01*
X0050075Y0096004D01*
X0050160Y0095903D01*
X0050241Y0095800D01*
X0050319Y0095694D01*
X0050394Y0095586D01*
X0050466Y0095476D01*
X0050534Y0095364D01*
X0050599Y0095250D01*
X0050660Y0095133D01*
X0050718Y0095015D01*
X0050772Y0094895D01*
X0050823Y0094774D01*
X0050870Y0094651D01*
X0050913Y0094527D01*
X0050952Y0094402D01*
X0050988Y0094275D01*
X0051019Y0094147D01*
X0051047Y0094019D01*
X0051071Y0093890D01*
X0051091Y0093760D01*
X0051107Y0093629D01*
X0051119Y0093498D01*
X0051127Y0093367D01*
X0051131Y0093236D01*
X0051131Y0093104D01*
X0051127Y0092973D01*
X0051119Y0092842D01*
X0051107Y0092711D01*
X0051091Y0092580D01*
X0051071Y0092450D01*
X0051047Y0092321D01*
X0051019Y0092193D01*
X0050988Y0092065D01*
X0050952Y0091938D01*
X0050913Y0091813D01*
X0050870Y0091689D01*
X0050823Y0091566D01*
X0050772Y0091445D01*
X0050718Y0091325D01*
X0050660Y0091207D01*
X0050599Y0091090D01*
X0050534Y0090976D01*
X0050466Y0090864D01*
X0050394Y0090754D01*
X0050319Y0090646D01*
X0050241Y0090540D01*
X0050160Y0090437D01*
X0050075Y0090336D01*
X0049988Y0090238D01*
X0049897Y0090143D01*
X0049804Y0090050D01*
X0049708Y0089960D01*
X0049609Y0089873D01*
X0049508Y0089790D01*
X0049404Y0089709D01*
X0049298Y0089632D01*
X0049189Y0089558D01*
X0049078Y0089487D01*
X0048966Y0089419D01*
X0048851Y0089355D01*
X0048734Y0089295D01*
X0048615Y0089238D01*
X0048495Y0089185D01*
X0048374Y0089135D01*
X0048250Y0089089D01*
X0048126Y0089047D01*
X0048000Y0089009D01*
X0047873Y0088974D01*
X0047745Y0088943D01*
X0047617Y0088917D01*
X0047487Y0088894D01*
X0047357Y0088875D01*
X0047227Y0088860D01*
X0047096Y0088849D01*
X0046964Y0088842D01*
X0046833Y0088839D01*
X0046701Y0088840D01*
X0046570Y0088845D01*
X0046439Y0088854D01*
X0046308Y0088867D01*
X0046178Y0088884D01*
X0046048Y0088905D01*
X0045919Y0088930D01*
X0045791Y0088958D01*
X0045663Y0088991D01*
X0045537Y0089027D01*
X0045412Y0089068D01*
X0045288Y0089112D01*
X0045165Y0089159D01*
X0045044Y0089211D01*
X0044925Y0089266D01*
X0044807Y0089325D01*
X0044692Y0089387D01*
X0044578Y0089453D01*
X0044466Y0089522D01*
X0044356Y0089594D01*
X0044249Y0089670D01*
X0044144Y0089749D01*
X0044041Y0089831D01*
X0043941Y0089916D01*
X0043844Y0090005D01*
X0043749Y0090096D01*
X0043657Y0090190D01*
X0043568Y0090287D01*
X0043482Y0090386D01*
X0043399Y0090488D01*
X0043319Y0090593D01*
X0043243Y0090699D01*
X0043170Y0090808D01*
X0043100Y0090920D01*
X0043033Y0091033D01*
X0042970Y0091148D01*
X0042910Y0091266D01*
X0042854Y0091384D01*
X0042802Y0091505D01*
X0042753Y0091627D01*
X0042708Y0091751D01*
X0042667Y0091875D01*
X0042630Y0092002D01*
X0042596Y0092129D01*
X0042566Y0092257D01*
X0042541Y0092386D01*
X0042519Y0092515D01*
X0042501Y0092645D01*
X0042487Y0092776D01*
X0042477Y0092907D01*
X0042471Y0093039D01*
X0042469Y0093170D01*
X0034989Y0093170D02*
X0034202Y0093170D01*
X0007430Y0041989D02*
X0007430Y0041202D01*
D48*
X0011202Y0029489D02*
X0011572Y0029489D01*
X0011202Y0029489D02*
X0011202Y0023111D01*
X0011572Y0023111D01*
X0014745Y0023111D02*
X0015115Y0023111D01*
X0018485Y0023111D02*
X0018855Y0023111D01*
X0022028Y0023111D02*
X0022398Y0023111D01*
X0022398Y0029489D01*
X0022028Y0029489D01*
X0020343Y0028072D02*
X0020345Y0028111D01*
X0020351Y0028150D01*
X0020361Y0028188D01*
X0020374Y0028225D01*
X0020391Y0028260D01*
X0020411Y0028294D01*
X0020435Y0028325D01*
X0020462Y0028354D01*
X0020491Y0028380D01*
X0020523Y0028403D01*
X0020557Y0028423D01*
X0020593Y0028439D01*
X0020630Y0028451D01*
X0020669Y0028460D01*
X0020708Y0028465D01*
X0020747Y0028466D01*
X0020786Y0028463D01*
X0020825Y0028456D01*
X0020862Y0028445D01*
X0020899Y0028431D01*
X0020934Y0028413D01*
X0020967Y0028392D01*
X0020998Y0028367D01*
X0021026Y0028340D01*
X0021051Y0028310D01*
X0021073Y0028277D01*
X0021092Y0028243D01*
X0021107Y0028207D01*
X0021119Y0028169D01*
X0021127Y0028131D01*
X0021131Y0028092D01*
X0021131Y0028052D01*
X0021127Y0028013D01*
X0021119Y0027975D01*
X0021107Y0027937D01*
X0021092Y0027901D01*
X0021073Y0027867D01*
X0021051Y0027834D01*
X0021026Y0027804D01*
X0020998Y0027777D01*
X0020967Y0027752D01*
X0020934Y0027731D01*
X0020899Y0027713D01*
X0020862Y0027699D01*
X0020825Y0027688D01*
X0020786Y0027681D01*
X0020747Y0027678D01*
X0020708Y0027679D01*
X0020669Y0027684D01*
X0020630Y0027693D01*
X0020593Y0027705D01*
X0020557Y0027721D01*
X0020523Y0027741D01*
X0020491Y0027764D01*
X0020462Y0027790D01*
X0020435Y0027819D01*
X0020411Y0027850D01*
X0020391Y0027884D01*
X0020374Y0027919D01*
X0020361Y0027956D01*
X0020351Y0027994D01*
X0020345Y0028033D01*
X0020343Y0028072D01*
X0018855Y0029489D02*
X0018485Y0029489D01*
X0015115Y0029489D02*
X0014745Y0029489D01*
D49*
X0014650Y0027652D02*
X0014650Y0025234D01*
X0015134Y0024750D01*
X0016101Y0024750D01*
X0016585Y0025234D01*
X0016585Y0027652D01*
X0017597Y0026685D02*
X0018564Y0027652D01*
X0018564Y0024750D01*
X0017597Y0024750D02*
X0019531Y0024750D01*
X0019131Y0042050D02*
X0017197Y0042050D01*
X0018164Y0042050D02*
X0018164Y0044952D01*
X0017197Y0043985D01*
X0016185Y0044469D02*
X0015701Y0044952D01*
X0014734Y0044952D01*
X0014250Y0044469D01*
X0014250Y0042534D01*
X0014734Y0042050D01*
X0015701Y0042050D01*
X0016185Y0042534D01*
X0069550Y0043017D02*
X0071001Y0043017D01*
X0071485Y0043501D01*
X0071485Y0044469D01*
X0071001Y0044952D01*
X0069550Y0044952D01*
X0069550Y0042050D01*
X0070517Y0043017D02*
X0071485Y0042050D01*
X0072497Y0042050D02*
X0074431Y0043985D01*
X0074431Y0044469D01*
X0073948Y0044952D01*
X0072980Y0044952D01*
X0072497Y0044469D01*
X0072497Y0042050D02*
X0074431Y0042050D01*
X0076550Y0042050D02*
X0078001Y0042050D01*
X0078485Y0042534D01*
X0078485Y0044469D01*
X0078001Y0044952D01*
X0076550Y0044952D01*
X0076550Y0042050D01*
X0079497Y0042050D02*
X0081431Y0042050D01*
X0080464Y0042050D02*
X0080464Y0044952D01*
X0079497Y0043985D01*
X0076671Y0026452D02*
X0076671Y0023550D01*
X0077638Y0023550D02*
X0075703Y0023550D01*
X0074692Y0023550D02*
X0073724Y0024517D01*
X0074208Y0024517D02*
X0072757Y0024517D01*
X0072757Y0023550D02*
X0072757Y0026452D01*
X0074208Y0026452D01*
X0074692Y0025969D01*
X0074692Y0025001D01*
X0074208Y0024517D01*
X0075703Y0025485D02*
X0076671Y0026452D01*
D50*
X0034673Y0016000D02*
X0031604Y0016000D01*
X0030069Y0016000D02*
X0030069Y0020604D01*
X0031604Y0019069D02*
X0033139Y0020604D01*
X0033139Y0016000D01*
X0030069Y0018302D02*
X0027000Y0018302D01*
X0027000Y0016000D02*
X0027000Y0020604D01*
D51*
X0042864Y0057746D02*
X0044348Y0058957D01*
X0044946Y0058649D01*
X0045794Y0060695D01*
X0045415Y0060907D01*
X0045097Y0061201D01*
X0044855Y0061562D01*
X0044705Y0061969D01*
X0044654Y0062400D01*
X0044707Y0062839D01*
X0044863Y0063252D01*
X0045112Y0063617D01*
X0045441Y0063911D01*
X0045831Y0064120D01*
X0046259Y0064229D01*
X0046701Y0064234D01*
X0047131Y0064134D01*
X0047525Y0063934D01*
X0047860Y0063646D01*
X0048118Y0063287D01*
X0048282Y0062877D01*
X0048345Y0062440D01*
X0048301Y0062000D01*
X0048155Y0061584D01*
X0047914Y0061214D01*
X0047591Y0060912D01*
X0047206Y0060695D01*
X0048054Y0058649D01*
X0048652Y0058957D01*
X0050136Y0057746D01*
X0051154Y0058764D01*
X0049943Y0060248D01*
X0050251Y0060846D01*
X0050456Y0061487D01*
X0052361Y0061680D01*
X0052361Y0063120D01*
X0050456Y0063313D01*
X0050251Y0063954D01*
X0049943Y0064552D01*
X0051154Y0066036D01*
X0050136Y0067054D01*
X0048652Y0065843D01*
X0048054Y0066151D01*
X0047413Y0066356D01*
X0047220Y0068261D01*
X0045780Y0068261D01*
X0045587Y0066356D01*
X0044946Y0066151D01*
X0044348Y0065843D01*
X0042864Y0067054D01*
X0041846Y0066036D01*
X0043057Y0064552D01*
X0042749Y0063954D01*
X0042544Y0063313D01*
X0040639Y0063120D01*
X0040639Y0061680D01*
X0042544Y0061487D01*
X0042749Y0060846D01*
X0043057Y0060248D01*
X0041846Y0058764D01*
X0042864Y0057746D01*
X0042542Y0058069D02*
X0043259Y0058069D01*
X0043982Y0058658D02*
X0041953Y0058658D01*
X0042240Y0059247D02*
X0045194Y0059247D01*
X0045438Y0059836D02*
X0042720Y0059836D01*
X0042966Y0060425D02*
X0045682Y0060425D01*
X0045299Y0061014D02*
X0042695Y0061014D01*
X0041398Y0061603D02*
X0044840Y0061603D01*
X0044679Y0062192D02*
X0040639Y0062192D01*
X0040639Y0062781D02*
X0044700Y0062781D01*
X0044944Y0063370D02*
X0042562Y0063370D01*
X0042752Y0063959D02*
X0045531Y0063959D01*
X0047475Y0063959D02*
X0050248Y0063959D01*
X0050438Y0063370D02*
X0048058Y0063370D01*
X0048296Y0062781D02*
X0052361Y0062781D01*
X0052361Y0062192D02*
X0048320Y0062192D01*
X0048162Y0061603D02*
X0051602Y0061603D01*
X0050305Y0061014D02*
X0047701Y0061014D01*
X0047318Y0060425D02*
X0050034Y0060425D01*
X0050280Y0059836D02*
X0047562Y0059836D01*
X0047806Y0059247D02*
X0050760Y0059247D01*
X0051047Y0058658D02*
X0049018Y0058658D01*
X0049741Y0058069D02*
X0050458Y0058069D01*
X0048071Y0058658D02*
X0048050Y0058658D01*
X0044950Y0058658D02*
X0044929Y0058658D01*
X0043055Y0064548D02*
X0049945Y0064548D01*
X0050421Y0065137D02*
X0042579Y0065137D01*
X0042099Y0065727D02*
X0050901Y0065727D01*
X0050874Y0066316D02*
X0049231Y0066316D01*
X0049953Y0066905D02*
X0050285Y0066905D01*
X0047540Y0066316D02*
X0045460Y0066316D01*
X0045642Y0066905D02*
X0047358Y0066905D01*
X0047298Y0067494D02*
X0045702Y0067494D01*
X0045762Y0068083D02*
X0047238Y0068083D01*
X0043769Y0066316D02*
X0042126Y0066316D01*
X0042715Y0066905D02*
X0043047Y0066905D01*
M02*
