G75*
%MOIN*%
%OFA0B0*%
%FSLAX24Y24*%
%IPPOS*%
%LPD*%
%AMOC8*
5,1,8,0,0,1.08239X$1,22.5*
%
%ADD10C,0.0000*%
%ADD11R,0.0595X0.0595*%
%ADD12C,0.0595*%
%ADD13C,0.0940*%
%ADD14C,0.0050*%
%ADD15C,0.0360*%
%ADD16C,0.0440*%
D10*
X000300Y000350D02*
X000300Y039720D01*
X063292Y039720D01*
X063292Y000350D01*
X000300Y000350D01*
D11*
X018300Y020850D03*
X033300Y018850D03*
D12*
X033300Y019850D03*
X033300Y020850D03*
X018300Y019850D03*
X018300Y018850D03*
D13*
X022331Y024050D03*
X024300Y024050D03*
X026269Y024050D03*
D14*
X029489Y024385D02*
X029484Y024452D01*
X029490Y024518D01*
X029508Y024582D01*
X029539Y024642D01*
X029581Y024694D01*
X029632Y024736D01*
X029690Y024769D01*
X029754Y024789D01*
X029820Y024796D01*
X029889Y024790D01*
X029956Y024770D01*
X030017Y024738D01*
X030071Y024694D01*
X030116Y024641D01*
X030149Y024580D01*
X030170Y024514D01*
X030177Y024445D01*
X030169Y024377D01*
X030148Y024312D01*
X030114Y024252D01*
X030069Y024200D01*
X030015Y024158D01*
X029954Y024127D01*
X029888Y024108D01*
X029820Y024103D01*
X029753Y024111D01*
X029689Y024132D01*
X029631Y024164D01*
X029580Y024208D01*
X029538Y024261D01*
X030119Y024261D01*
X030146Y024309D02*
X029513Y024309D01*
X029508Y024320D02*
X029489Y024385D01*
X029488Y024406D02*
X030172Y024406D01*
X030176Y024455D02*
X029484Y024455D01*
X029488Y024503D02*
X030171Y024503D01*
X030158Y024552D02*
X029499Y024552D01*
X029518Y024600D02*
X030138Y024600D01*
X030110Y024649D02*
X029545Y024649D01*
X029585Y024697D02*
X030068Y024697D01*
X030003Y024746D02*
X029648Y024746D01*
X029803Y024794D02*
X029841Y024794D01*
X030163Y024358D02*
X029497Y024358D01*
X029508Y024320D02*
X029538Y024261D01*
X029576Y024212D02*
X030080Y024212D01*
X030023Y024164D02*
X029632Y024164D01*
X029740Y024115D02*
X029913Y024115D01*
X030581Y024322D02*
X030562Y024387D01*
X030556Y024454D01*
X030562Y024520D01*
X030581Y024584D01*
X030612Y024642D01*
X030653Y024694D01*
X030704Y024737D01*
X030763Y024768D01*
X030826Y024788D01*
X030892Y024795D01*
X030961Y024788D01*
X031027Y024769D01*
X031088Y024736D01*
X031142Y024693D01*
X031186Y024640D01*
X031219Y024579D01*
X031239Y024513D01*
X031246Y024444D01*
X031238Y024377D01*
X031218Y024313D01*
X031185Y024254D01*
X031142Y024203D01*
X031089Y024161D01*
X031029Y024130D01*
X030964Y024111D01*
X030897Y024106D01*
X030830Y024113D01*
X030765Y024133D01*
X030706Y024166D01*
X030654Y024209D01*
X030612Y024262D01*
X030581Y024322D01*
X030587Y024309D02*
X031216Y024309D01*
X031232Y024358D02*
X030570Y024358D01*
X030560Y024406D02*
X031242Y024406D01*
X031245Y024455D02*
X030556Y024455D01*
X030560Y024503D02*
X031240Y024503D01*
X031227Y024552D02*
X030571Y024552D01*
X030589Y024600D02*
X031207Y024600D01*
X031178Y024649D02*
X030617Y024649D01*
X030657Y024697D02*
X031136Y024697D01*
X031071Y024746D02*
X030721Y024746D01*
X030884Y024794D02*
X030901Y024794D01*
X031650Y024586D02*
X031681Y024645D01*
X031723Y024696D01*
X031774Y024738D01*
X031833Y024770D01*
X031896Y024789D01*
X031962Y024796D01*
X032030Y024790D01*
X032096Y024771D01*
X032156Y024739D01*
X032209Y024696D01*
X032253Y024644D01*
X032286Y024584D01*
X032307Y024519D01*
X032314Y024451D01*
X032307Y024383D01*
X032286Y024318D01*
X032253Y024258D01*
X032209Y024206D01*
X032156Y024163D01*
X032096Y024131D01*
X032030Y024112D01*
X031962Y024106D01*
X031895Y024114D01*
X031831Y024135D01*
X031772Y024168D01*
X031721Y024212D01*
X031679Y024265D01*
X031648Y024325D01*
X031630Y024390D01*
X031625Y024457D01*
X031631Y024523D01*
X031650Y024586D01*
X031658Y024600D02*
X032277Y024600D01*
X032296Y024552D02*
X031640Y024552D01*
X031629Y024503D02*
X032308Y024503D01*
X032314Y024455D02*
X031625Y024455D01*
X031629Y024406D02*
X032309Y024406D01*
X032299Y024358D02*
X031639Y024358D01*
X031656Y024309D02*
X032281Y024309D01*
X032255Y024261D02*
X031682Y024261D01*
X031720Y024212D02*
X032215Y024212D01*
X032157Y024164D02*
X031780Y024164D01*
X031891Y024115D02*
X032041Y024115D01*
X032249Y024649D02*
X031684Y024649D01*
X031724Y024697D02*
X032209Y024697D01*
X032144Y024746D02*
X031788Y024746D01*
X031944Y024794D02*
X031983Y024794D01*
X031189Y024261D02*
X030613Y024261D01*
X030652Y024212D02*
X031150Y024212D01*
X031092Y024164D02*
X030710Y024164D01*
X030824Y024115D02*
X030977Y024115D01*
X034304Y024874D02*
X034306Y024913D01*
X034312Y024952D01*
X034322Y024990D01*
X034335Y025027D01*
X034352Y025062D01*
X034372Y025096D01*
X034396Y025127D01*
X034423Y025156D01*
X034452Y025182D01*
X034484Y025205D01*
X034518Y025225D01*
X034554Y025241D01*
X034591Y025253D01*
X034630Y025262D01*
X034669Y025267D01*
X034708Y025268D01*
X034747Y025265D01*
X034786Y025258D01*
X034823Y025247D01*
X034860Y025233D01*
X034895Y025215D01*
X034928Y025194D01*
X034959Y025169D01*
X034987Y025142D01*
X035012Y025112D01*
X035034Y025079D01*
X035053Y025045D01*
X035068Y025009D01*
X035080Y024971D01*
X035088Y024933D01*
X035092Y024894D01*
X035092Y024854D01*
X035088Y024815D01*
X035080Y024777D01*
X035068Y024739D01*
X035053Y024703D01*
X035034Y024669D01*
X035012Y024636D01*
X034987Y024606D01*
X034959Y024579D01*
X034928Y024554D01*
X034895Y024533D01*
X034860Y024515D01*
X034823Y024501D01*
X034786Y024490D01*
X034747Y024483D01*
X034708Y024480D01*
X034669Y024481D01*
X034630Y024486D01*
X034591Y024495D01*
X034554Y024507D01*
X034518Y024523D01*
X034484Y024543D01*
X034452Y024566D01*
X034423Y024592D01*
X034396Y024621D01*
X034372Y024652D01*
X034352Y024686D01*
X034335Y024721D01*
X034322Y024758D01*
X034312Y024796D01*
X034306Y024835D01*
X034304Y024874D01*
X034698Y025661D02*
X034752Y025659D01*
X034805Y025654D01*
X034858Y025645D01*
X034910Y025632D01*
X034962Y025616D01*
X035012Y025596D01*
X035060Y025573D01*
X035107Y025546D01*
X035152Y025517D01*
X035195Y025484D01*
X035235Y025449D01*
X035273Y025411D01*
X035308Y025371D01*
X035341Y025328D01*
X035370Y025283D01*
X035397Y025236D01*
X035420Y025188D01*
X035440Y025138D01*
X035456Y025086D01*
X035469Y025034D01*
X035478Y024981D01*
X035483Y024928D01*
X035485Y024874D01*
X035485Y014637D01*
X034304Y014637D02*
X034306Y014676D01*
X034312Y014715D01*
X034322Y014753D01*
X034335Y014790D01*
X034352Y014825D01*
X034372Y014859D01*
X034396Y014890D01*
X034423Y014919D01*
X034452Y014945D01*
X034484Y014968D01*
X034518Y014988D01*
X034554Y015004D01*
X034591Y015016D01*
X034630Y015025D01*
X034669Y015030D01*
X034708Y015031D01*
X034747Y015028D01*
X034786Y015021D01*
X034823Y015010D01*
X034860Y014996D01*
X034895Y014978D01*
X034928Y014957D01*
X034959Y014932D01*
X034987Y014905D01*
X035012Y014875D01*
X035034Y014842D01*
X035053Y014808D01*
X035068Y014772D01*
X035080Y014734D01*
X035088Y014696D01*
X035092Y014657D01*
X035092Y014617D01*
X035088Y014578D01*
X035080Y014540D01*
X035068Y014502D01*
X035053Y014466D01*
X035034Y014432D01*
X035012Y014399D01*
X034987Y014369D01*
X034959Y014342D01*
X034928Y014317D01*
X034895Y014296D01*
X034860Y014278D01*
X034823Y014264D01*
X034786Y014253D01*
X034747Y014246D01*
X034708Y014243D01*
X034669Y014244D01*
X034630Y014249D01*
X034591Y014258D01*
X034554Y014270D01*
X034518Y014286D01*
X034484Y014306D01*
X034452Y014329D01*
X034423Y014355D01*
X034396Y014384D01*
X034372Y014415D01*
X034352Y014449D01*
X034335Y014484D01*
X034322Y014521D01*
X034312Y014559D01*
X034306Y014598D01*
X034304Y014637D01*
X034698Y013850D02*
X034752Y013852D01*
X034805Y013857D01*
X034858Y013866D01*
X034910Y013879D01*
X034962Y013895D01*
X035012Y013915D01*
X035060Y013938D01*
X035107Y013965D01*
X035152Y013994D01*
X035195Y014027D01*
X035235Y014062D01*
X035273Y014100D01*
X035308Y014140D01*
X035341Y014183D01*
X035370Y014228D01*
X035397Y014275D01*
X035420Y014323D01*
X035440Y014373D01*
X035456Y014425D01*
X035469Y014477D01*
X035478Y014530D01*
X035483Y014583D01*
X035485Y014637D01*
X034698Y013850D02*
X016587Y013850D01*
X015800Y013850D01*
X015800Y014637D02*
X015800Y024874D01*
X016193Y024874D02*
X016195Y024913D01*
X016201Y024952D01*
X016211Y024990D01*
X016224Y025027D01*
X016241Y025062D01*
X016261Y025096D01*
X016285Y025127D01*
X016312Y025156D01*
X016341Y025182D01*
X016373Y025205D01*
X016407Y025225D01*
X016443Y025241D01*
X016480Y025253D01*
X016519Y025262D01*
X016558Y025267D01*
X016597Y025268D01*
X016636Y025265D01*
X016675Y025258D01*
X016712Y025247D01*
X016749Y025233D01*
X016784Y025215D01*
X016817Y025194D01*
X016848Y025169D01*
X016876Y025142D01*
X016901Y025112D01*
X016923Y025079D01*
X016942Y025045D01*
X016957Y025009D01*
X016969Y024971D01*
X016977Y024933D01*
X016981Y024894D01*
X016981Y024854D01*
X016977Y024815D01*
X016969Y024777D01*
X016957Y024739D01*
X016942Y024703D01*
X016923Y024669D01*
X016901Y024636D01*
X016876Y024606D01*
X016848Y024579D01*
X016817Y024554D01*
X016784Y024533D01*
X016749Y024515D01*
X016712Y024501D01*
X016675Y024490D01*
X016636Y024483D01*
X016597Y024480D01*
X016558Y024481D01*
X016519Y024486D01*
X016480Y024495D01*
X016443Y024507D01*
X016407Y024523D01*
X016373Y024543D01*
X016341Y024566D01*
X016312Y024592D01*
X016285Y024621D01*
X016261Y024652D01*
X016241Y024686D01*
X016224Y024721D01*
X016211Y024758D01*
X016201Y024796D01*
X016195Y024835D01*
X016193Y024874D01*
X015800Y024874D02*
X015802Y024928D01*
X015807Y024981D01*
X015816Y025034D01*
X015829Y025086D01*
X015845Y025138D01*
X015865Y025188D01*
X015888Y025236D01*
X015915Y025283D01*
X015944Y025328D01*
X015977Y025371D01*
X016012Y025411D01*
X016050Y025449D01*
X016090Y025484D01*
X016133Y025517D01*
X016178Y025546D01*
X016225Y025573D01*
X016273Y025596D01*
X016323Y025616D01*
X016375Y025632D01*
X016427Y025645D01*
X016480Y025654D01*
X016533Y025659D01*
X016587Y025661D01*
X034698Y025661D01*
X016193Y014637D02*
X016195Y014676D01*
X016201Y014715D01*
X016211Y014753D01*
X016224Y014790D01*
X016241Y014825D01*
X016261Y014859D01*
X016285Y014890D01*
X016312Y014919D01*
X016341Y014945D01*
X016373Y014968D01*
X016407Y014988D01*
X016443Y015004D01*
X016480Y015016D01*
X016519Y015025D01*
X016558Y015030D01*
X016597Y015031D01*
X016636Y015028D01*
X016675Y015021D01*
X016712Y015010D01*
X016749Y014996D01*
X016784Y014978D01*
X016817Y014957D01*
X016848Y014932D01*
X016876Y014905D01*
X016901Y014875D01*
X016923Y014842D01*
X016942Y014808D01*
X016957Y014772D01*
X016969Y014734D01*
X016977Y014696D01*
X016981Y014657D01*
X016981Y014617D01*
X016977Y014578D01*
X016969Y014540D01*
X016957Y014502D01*
X016942Y014466D01*
X016923Y014432D01*
X016901Y014399D01*
X016876Y014369D01*
X016848Y014342D01*
X016817Y014317D01*
X016784Y014296D01*
X016749Y014278D01*
X016712Y014264D01*
X016675Y014253D01*
X016636Y014246D01*
X016597Y014243D01*
X016558Y014244D01*
X016519Y014249D01*
X016480Y014258D01*
X016443Y014270D01*
X016407Y014286D01*
X016373Y014306D01*
X016341Y014329D01*
X016312Y014355D01*
X016285Y014384D01*
X016261Y014415D01*
X016241Y014449D01*
X016224Y014484D01*
X016211Y014521D01*
X016201Y014559D01*
X016195Y014598D01*
X016193Y014637D01*
X015800Y014637D02*
X015802Y014583D01*
X015807Y014530D01*
X015816Y014477D01*
X015829Y014425D01*
X015845Y014373D01*
X015865Y014323D01*
X015888Y014275D01*
X015915Y014228D01*
X015944Y014183D01*
X015977Y014140D01*
X016012Y014100D01*
X016050Y014062D01*
X016090Y014027D01*
X016133Y013994D01*
X016178Y013965D01*
X016225Y013938D01*
X016273Y013915D01*
X016323Y013895D01*
X016375Y013879D01*
X016427Y013866D01*
X016480Y013857D01*
X016533Y013852D01*
X016587Y013850D01*
D15*
X017600Y017050D03*
X023200Y017750D03*
X027200Y020850D03*
X029400Y020950D03*
X029400Y022950D03*
X023400Y022950D03*
X020700Y021350D03*
X017600Y022950D03*
X033300Y016950D03*
D16*
X025500Y017150D03*
M02*
