G75*
%MOIN*%
%OFA0B0*%
%FSLAX24Y24*%
%IPPOS*%
%LPD*%
%AMOC8*
5,1,8,0,0,1.08239X$1,22.5*
%
%ADD10C,0.0000*%
%ADD11R,0.0010X0.0040*%
%ADD12R,0.0010X0.0070*%
%ADD13R,0.0010X0.0100*%
%ADD14R,0.0010X0.0090*%
%ADD15R,0.0010X0.0120*%
%ADD16R,0.0010X0.0130*%
%ADD17R,0.0010X0.0020*%
%ADD18R,0.0010X0.0010*%
%ADD19R,0.0010X0.0110*%
%ADD20R,0.0010X0.0030*%
%ADD21R,0.0010X0.0050*%
%ADD22R,0.0010X0.0060*%
%ADD23R,0.0010X0.0080*%
%ADD24R,0.0010X0.0150*%
%ADD25R,0.0010X0.0170*%
%ADD26R,0.0010X0.0210*%
%ADD27R,0.0010X0.0160*%
%ADD28R,0.0010X0.0200*%
%ADD29R,0.0010X0.0220*%
%ADD30R,0.0010X0.0300*%
%ADD31R,0.0010X0.0370*%
%ADD32R,0.0010X0.0230*%
%ADD33R,0.0010X0.0520*%
%ADD34R,0.0010X0.0480*%
%ADD35R,0.0020X0.0010*%
%ADD36R,0.0050X0.0010*%
%ADD37R,0.0060X0.0010*%
%ADD38R,0.0080X0.0010*%
%ADD39R,0.0140X0.0010*%
%ADD40R,0.0100X0.0010*%
%ADD41R,0.0040X0.0010*%
%ADD42R,0.0200X0.0010*%
%ADD43R,0.0190X0.0010*%
%ADD44R,0.0030X0.0010*%
%ADD45R,0.0120X0.0010*%
%ADD46R,0.0070X0.0010*%
%ADD47R,0.0240X0.0010*%
%ADD48R,0.0150X0.0010*%
%ADD49R,0.0090X0.0010*%
%ADD50R,0.0270X0.0010*%
%ADD51R,0.0110X0.0010*%
%ADD52R,0.0180X0.0010*%
%ADD53R,0.0290X0.0010*%
%ADD54R,0.0130X0.0010*%
%ADD55R,0.0210X0.0010*%
%ADD56R,0.0320X0.0010*%
%ADD57R,0.0160X0.0010*%
%ADD58R,0.0330X0.0010*%
%ADD59R,0.0260X0.0010*%
%ADD60R,0.0570X0.0010*%
%ADD61R,0.0340X0.0010*%
%ADD62R,0.0170X0.0010*%
%ADD63R,0.0690X0.0010*%
%ADD64R,0.0350X0.0010*%
%ADD65R,0.0770X0.0010*%
%ADD66R,0.0360X0.0010*%
%ADD67R,0.0230X0.0010*%
%ADD68R,0.0840X0.0010*%
%ADD69R,0.0300X0.0010*%
%ADD70R,0.0280X0.0010*%
%ADD71R,0.0380X0.0010*%
%ADD72R,0.0250X0.0010*%
%ADD73R,0.0890X0.0010*%
%ADD74R,0.0310X0.0010*%
%ADD75R,0.0940X0.0010*%
%ADD76R,0.0370X0.0010*%
%ADD77R,0.0980X0.0010*%
%ADD78R,0.0390X0.0010*%
%ADD79R,0.1020X0.0010*%
%ADD80R,0.0400X0.0010*%
%ADD81R,0.1050X0.0010*%
%ADD82R,0.0410X0.0010*%
%ADD83R,0.0420X0.0010*%
%ADD84R,0.1080X0.0010*%
%ADD85R,0.0430X0.0010*%
%ADD86R,0.1110X0.0010*%
%ADD87R,0.0440X0.0010*%
%ADD88R,0.1140X0.0010*%
%ADD89R,0.0460X0.0010*%
%ADD90R,0.1170X0.0010*%
%ADD91R,0.1190X0.0010*%
%ADD92R,0.1220X0.0010*%
%ADD93R,0.0220X0.0010*%
%ADD94R,0.1230X0.0010*%
%ADD95R,0.1250X0.0010*%
%ADD96R,0.1280X0.0010*%
%ADD97R,0.0540X0.0010*%
%ADD98R,0.0480X0.0010*%
%ADD99R,0.0450X0.0010*%
%ADD100R,0.0630X0.0010*%
%ADD101R,0.1210X0.0010*%
%ADD102R,0.0590X0.0010*%
%ADD103R,0.0640X0.0010*%
%ADD104R,0.0910X0.0010*%
%ADD105R,0.0660X0.0010*%
%ADD106R,0.0650X0.0010*%
%ADD107R,0.0520X0.0010*%
%ADD108R,0.0470X0.0010*%
%ADD109R,0.0900X0.0010*%
%ADD110R,0.0920X0.0010*%
%ADD111R,0.1160X0.0010*%
%ADD112R,0.0490X0.0010*%
%ADD113R,0.0500X0.0010*%
%ADD114R,0.0600X0.0010*%
%ADD115R,0.1130X0.0010*%
%ADD116R,0.0510X0.0010*%
%ADD117R,0.0710X0.0010*%
%ADD118R,0.0850X0.0010*%
%ADD119R,0.0530X0.0010*%
%ADD120R,0.0950X0.0010*%
%ADD121R,0.0550X0.0010*%
%ADD122R,0.0780X0.0010*%
%ADD123R,0.0680X0.0010*%
%ADD124C,0.0040*%
%ADD125R,0.0760X0.0010*%
%ADD126C,0.0030*%
%ADD127C,0.0060*%
%ADD128C,0.0020*%
%ADD129C,0.0050*%
%ADD130C,0.0220*%
%ADD131C,0.0080*%
%ADD132R,0.0300X0.0150*%
%ADD133R,0.0089X0.0098*%
%ADD134C,0.0070*%
%ADD135R,0.0300X0.0180*%
%ADD136R,0.0014X0.0007*%
%ADD137R,0.0014X0.0007*%
%ADD138R,0.0014X0.0007*%
%ADD139R,0.0014X0.0007*%
%ADD140R,0.0021X0.0007*%
%ADD141R,0.0028X0.0007*%
%ADD142R,0.0028X0.0007*%
%ADD143R,0.0035X0.0007*%
%ADD144R,0.0042X0.0007*%
%ADD145R,0.0042X0.0007*%
%ADD146R,0.0042X0.0007*%
%ADD147R,0.0049X0.0007*%
%ADD148R,0.0056X0.0007*%
%ADD149R,0.0063X0.0007*%
%ADD150R,0.0063X0.0007*%
%ADD151R,0.0077X0.0007*%
%ADD152R,0.0077X0.0007*%
%ADD153R,0.0077X0.0007*%
%ADD154R,0.0077X0.0007*%
%ADD155R,0.0084X0.0007*%
%ADD156R,0.0091X0.0007*%
%ADD157R,0.0091X0.0007*%
%ADD158R,0.0105X0.0007*%
%ADD159R,0.0112X0.0007*%
%ADD160R,0.0112X0.0007*%
%ADD161R,0.0119X0.0007*%
%ADD162R,0.0133X0.0007*%
%ADD163R,0.0133X0.0007*%
%ADD164R,0.0140X0.0007*%
%ADD165R,0.0147X0.0007*%
%ADD166R,0.0161X0.0007*%
%ADD167R,0.0168X0.0007*%
%ADD168R,0.0168X0.0007*%
%ADD169R,0.0168X0.0007*%
%ADD170R,0.0168X0.0007*%
%ADD171R,0.0175X0.0007*%
%ADD172R,0.0189X0.0007*%
%ADD173R,0.0196X0.0007*%
%ADD174R,0.0203X0.0007*%
%ADD175R,0.0203X0.0007*%
%ADD176R,0.0203X0.0007*%
%ADD177R,0.0203X0.0007*%
%ADD178R,0.0217X0.0007*%
%ADD179R,0.0217X0.0007*%
%ADD180R,0.0224X0.0007*%
%ADD181R,0.0231X0.0007*%
%ADD182R,0.0231X0.0007*%
%ADD183R,0.0238X0.0007*%
%ADD184R,0.0231X0.0007*%
%ADD185R,0.0245X0.0007*%
%ADD186R,0.0252X0.0007*%
%ADD187R,0.0252X0.0007*%
%ADD188R,0.0259X0.0007*%
%ADD189R,0.0273X0.0007*%
%ADD190R,0.0273X0.0007*%
%ADD191R,0.0273X0.0007*%
%ADD192R,0.0273X0.0007*%
%ADD193R,0.0280X0.0007*%
%ADD194R,0.0287X0.0007*%
%ADD195R,0.0301X0.0007*%
%ADD196R,0.0301X0.0007*%
%ADD197R,0.0308X0.0007*%
%ADD198R,0.0308X0.0007*%
%ADD199R,0.0315X0.0007*%
%ADD200R,0.0322X0.0007*%
%ADD201R,0.0322X0.0007*%
%ADD202R,0.0336X0.0007*%
%ADD203R,0.0336X0.0007*%
%ADD204R,0.0343X0.0007*%
%ADD205R,0.0343X0.0007*%
%ADD206R,0.0350X0.0007*%
%ADD207R,0.0364X0.0007*%
%ADD208R,0.0364X0.0007*%
%ADD209R,0.0371X0.0007*%
%ADD210R,0.0371X0.0007*%
%ADD211R,0.0378X0.0007*%
%ADD212R,0.0378X0.0007*%
%ADD213R,0.0392X0.0007*%
%ADD214R,0.0392X0.0007*%
%ADD215R,0.0399X0.0007*%
%ADD216R,0.0399X0.0007*%
%ADD217R,0.0406X0.0007*%
%ADD218R,0.0406X0.0007*%
%ADD219R,0.0420X0.0007*%
%ADD220R,0.0427X0.0007*%
%ADD221R,0.0434X0.0007*%
%ADD222R,0.0434X0.0007*%
%ADD223R,0.0448X0.0007*%
%ADD224R,0.0448X0.0007*%
%ADD225R,0.0455X0.0007*%
%ADD226R,0.0462X0.0007*%
%ADD227R,0.0462X0.0007*%
%ADD228R,0.0469X0.0007*%
%ADD229R,0.0476X0.0007*%
%ADD230R,0.0483X0.0007*%
%ADD231R,0.0483X0.0007*%
%ADD232R,0.0490X0.0007*%
%ADD233R,0.0504X0.0007*%
%ADD234R,0.0511X0.0007*%
%ADD235R,0.0511X0.0007*%
%ADD236R,0.0518X0.0007*%
%ADD237R,0.0518X0.0007*%
%ADD238R,0.0532X0.0007*%
%ADD239R,0.0532X0.0007*%
%ADD240R,0.0532X0.0007*%
%ADD241R,0.0532X0.0007*%
%ADD242R,0.0539X0.0007*%
%ADD243R,0.0546X0.0007*%
%ADD244R,0.0546X0.0007*%
%ADD245R,0.0560X0.0007*%
%ADD246R,0.1127X0.0007*%
%ADD247R,0.1127X0.0007*%
%ADD248R,0.1099X0.0007*%
%ADD249R,0.1057X0.0007*%
%ADD250R,0.1001X0.0007*%
%ADD251R,0.0945X0.0007*%
%ADD252R,0.0903X0.0007*%
%ADD253R,0.0847X0.0007*%
%ADD254R,0.0791X0.0007*%
%ADD255R,0.0742X0.0007*%
%ADD256R,0.0693X0.0007*%
%ADD257R,0.0637X0.0007*%
%ADD258R,0.0581X0.0007*%
%ADD259R,0.0539X0.0007*%
%ADD260R,0.0427X0.0007*%
%ADD261R,0.0378X0.0007*%
%ADD262R,0.0280X0.0007*%
%ADD263R,0.0007X0.0007*%
%ADD264R,0.0007X0.0007*%
%ADD265R,0.0315X0.0007*%
%ADD266R,0.1379X0.0007*%
%ADD267R,0.1379X0.0007*%
%ADD268R,0.1386X0.0007*%
%ADD269R,0.1393X0.0007*%
%ADD270R,0.1393X0.0007*%
%ADD271R,0.0329X0.0007*%
%ADD272R,0.0070X0.0007*%
%ADD273R,0.0049X0.0007*%
%ADD274R,0.0049X0.0007*%
%ADD275R,0.0350X0.0007*%
%ADD276R,0.0070X0.0007*%
%ADD277R,0.0021X0.0007*%
%ADD278R,0.0357X0.0007*%
%ADD279R,0.0063X0.0007*%
%ADD280R,0.0035X0.0007*%
%ADD281R,0.0028X0.0007*%
%ADD282R,0.0364X0.0007*%
%ADD283R,0.0343X0.0007*%
%ADD284R,0.0042X0.0007*%
%ADD285R,0.0056X0.0007*%
%ADD286R,0.0364X0.0007*%
%ADD287R,0.0357X0.0007*%
%ADD288R,0.0028X0.0007*%
%ADD289R,0.0371X0.0007*%
%ADD290R,0.0007X0.0007*%
%ADD291R,0.0056X0.0007*%
%ADD292R,0.0378X0.0007*%
%ADD293R,0.0063X0.0007*%
%ADD294R,0.0392X0.0007*%
%ADD295R,0.0021X0.0007*%
%ADD296R,0.0385X0.0007*%
%ADD297R,0.0385X0.0007*%
%ADD298R,0.0007X0.0007*%
%ADD299R,0.0049X0.0007*%
%ADD300R,0.0357X0.0007*%
%ADD301R,0.0392X0.0007*%
%ADD302R,0.0406X0.0007*%
%ADD303R,0.1435X0.0007*%
%ADD304R,0.1442X0.0007*%
%ADD305R,0.1449X0.0007*%
%ADD306R,0.1449X0.0007*%
%ADD307R,0.0721X0.0007*%
%ADD308R,0.0721X0.0007*%
%ADD309R,0.0721X0.0007*%
%ADD310R,0.0714X0.0007*%
%ADD311R,0.0707X0.0007*%
%ADD312R,0.0707X0.0007*%
%ADD313R,0.0700X0.0007*%
%ADD314R,0.0693X0.0007*%
%ADD315R,0.0686X0.0007*%
%ADD316R,0.0686X0.0007*%
%ADD317R,0.0679X0.0007*%
%ADD318R,0.0679X0.0007*%
%ADD319R,0.0672X0.0007*%
%ADD320R,0.0665X0.0007*%
%ADD321R,0.0665X0.0007*%
%ADD322R,0.0658X0.0007*%
%ADD323R,0.0658X0.0007*%
%ADD324R,0.0658X0.0007*%
%ADD325R,0.0651X0.0007*%
%ADD326R,0.0644X0.0007*%
%ADD327R,0.0644X0.0007*%
%ADD328R,0.0644X0.0007*%
%ADD329R,0.0637X0.0007*%
%ADD330R,0.0637X0.0007*%
%ADD331R,0.0630X0.0007*%
%ADD332R,0.0630X0.0007*%
%ADD333R,0.0623X0.0007*%
%ADD334R,0.0623X0.0007*%
%ADD335R,0.0616X0.0007*%
%ADD336R,0.0623X0.0007*%
%ADD337R,0.0609X0.0007*%
%ADD338R,0.0609X0.0007*%
%ADD339R,0.0602X0.0007*%
%ADD340R,0.0602X0.0007*%
%ADD341R,0.0602X0.0007*%
%ADD342R,0.0595X0.0007*%
%ADD343R,0.0602X0.0007*%
%ADD344R,0.0588X0.0007*%
%ADD345R,0.0588X0.0007*%
%ADD346R,0.0581X0.0007*%
%ADD347R,0.0581X0.0007*%
%ADD348R,0.0574X0.0007*%
%ADD349R,0.0574X0.0007*%
%ADD350R,0.0567X0.0007*%
%ADD351R,0.0567X0.0007*%
%ADD352R,0.0553X0.0007*%
%ADD353R,0.0546X0.0007*%
%ADD354R,0.0553X0.0007*%
%ADD355R,0.0553X0.0007*%
%ADD356R,0.0539X0.0007*%
%ADD357R,0.0525X0.0007*%
%ADD358R,0.0525X0.0007*%
%ADD359R,0.0518X0.0007*%
%ADD360R,0.0511X0.0007*%
%ADD361R,0.0504X0.0007*%
%ADD362R,0.0497X0.0007*%
%ADD363R,0.0497X0.0007*%
%ADD364R,0.0497X0.0007*%
%ADD365R,0.0490X0.0007*%
%ADD366R,0.0469X0.0007*%
%ADD367R,0.0462X0.0007*%
%ADD368R,0.0441X0.0007*%
%ADD369R,0.0441X0.0007*%
%ADD370R,0.0441X0.0007*%
%ADD371R,0.0441X0.0007*%
%ADD372R,0.0427X0.0007*%
%ADD373R,0.0413X0.0007*%
%ADD374R,0.0420X0.0007*%
%ADD375R,0.0413X0.0007*%
%ADD376R,0.0399X0.0007*%
%ADD377R,0.0399X0.0007*%
%ADD378R,0.0357X0.0007*%
%ADD379R,0.0329X0.0007*%
%ADD380R,0.0322X0.0007*%
%ADD381R,0.0322X0.0007*%
%ADD382R,0.0308X0.0007*%
%ADD383R,0.0308X0.0007*%
%ADD384R,0.0301X0.0007*%
%ADD385R,0.0294X0.0007*%
%ADD386R,0.0294X0.0007*%
%ADD387R,0.0287X0.0007*%
%ADD388R,0.0287X0.0007*%
%ADD389R,0.0287X0.0007*%
%ADD390R,0.0266X0.0007*%
%ADD391R,0.0266X0.0007*%
%ADD392R,0.0266X0.0007*%
%ADD393R,0.0259X0.0007*%
%ADD394R,0.0259X0.0007*%
%ADD395R,0.0252X0.0007*%
%ADD396R,0.0245X0.0007*%
%ADD397R,0.0238X0.0007*%
%ADD398R,0.0238X0.0007*%
%ADD399R,0.0231X0.0007*%
%ADD400R,0.0224X0.0007*%
%ADD401R,0.0224X0.0007*%
%ADD402R,0.0224X0.0007*%
%ADD403R,0.0217X0.0007*%
%ADD404R,0.0210X0.0007*%
%ADD405R,0.0196X0.0007*%
%ADD406R,0.0189X0.0007*%
%ADD407R,0.0182X0.0007*%
%ADD408R,0.0182X0.0007*%
%ADD409R,0.0182X0.0007*%
%ADD410R,0.0175X0.0007*%
%ADD411R,0.0154X0.0007*%
%ADD412R,0.0154X0.0007*%
%ADD413R,0.0147X0.0007*%
%ADD414R,0.0147X0.0007*%
%ADD415R,0.0140X0.0007*%
%ADD416R,0.0133X0.0007*%
%ADD417R,0.0133X0.0007*%
%ADD418R,0.0126X0.0007*%
%ADD419R,0.0126X0.0007*%
%ADD420R,0.0112X0.0007*%
%ADD421R,0.0119X0.0007*%
%ADD422R,0.0112X0.0007*%
%ADD423R,0.0105X0.0007*%
%ADD424R,0.0098X0.0007*%
D10*
X000303Y000300D02*
X000310Y000300D01*
X000313Y000303D01*
X000310Y000300D01*
X000303Y000300D01*
X000300Y000303D01*
X000300Y000317D01*
X000303Y000320D01*
X000310Y000320D01*
X000313Y000317D01*
X000310Y000320D01*
X000303Y000320D01*
X000300Y000317D01*
X000300Y000303D01*
X000303Y000300D01*
X000310Y000300D01*
X000313Y000303D01*
X000310Y000300D01*
X000303Y000300D01*
X000300Y000303D01*
X000300Y000317D01*
X000303Y000320D01*
X000310Y000320D01*
X000313Y000317D01*
X000310Y000320D01*
X000303Y000320D01*
X000300Y000317D01*
X000300Y000303D01*
X000303Y000300D01*
X000318Y000300D02*
X000318Y000303D01*
X000322Y000303D01*
X000322Y000300D01*
X000318Y000300D01*
X000318Y000303D01*
X000322Y000303D01*
X000322Y000300D01*
X000318Y000300D01*
X000318Y000303D01*
X000322Y000303D01*
X000322Y000300D01*
X000318Y000300D01*
X000318Y000303D01*
X000322Y000303D01*
X000322Y000300D01*
X000318Y000300D01*
X000328Y000300D02*
X000341Y000320D01*
X000328Y000300D01*
X000341Y000320D01*
X000328Y000300D01*
X000322Y000310D02*
X000318Y000310D01*
X000318Y000313D01*
X000322Y000313D01*
X000322Y000310D01*
X000318Y000310D01*
X000318Y000313D01*
X000322Y000313D01*
X000322Y000310D01*
X000318Y000310D01*
X000318Y000313D01*
X000322Y000313D01*
X000322Y000310D01*
X000318Y000310D01*
X000318Y000313D01*
X000322Y000313D01*
X000322Y000310D01*
X000346Y000303D02*
X000349Y000300D01*
X000356Y000300D01*
X000359Y000303D01*
X000359Y000320D01*
X000359Y000303D01*
X000356Y000300D01*
X000349Y000300D01*
X000346Y000303D01*
X000346Y000320D01*
X000346Y000303D01*
X000349Y000300D01*
X000356Y000300D01*
X000359Y000303D01*
X000359Y000320D01*
X000359Y000303D01*
X000356Y000300D01*
X000349Y000300D01*
X000346Y000303D01*
X000346Y000320D01*
X000346Y000303D01*
X000364Y000300D02*
X000374Y000300D01*
X000378Y000303D01*
X000374Y000307D01*
X000368Y000307D01*
X000364Y000310D01*
X000368Y000313D01*
X000378Y000313D01*
X000368Y000313D01*
X000364Y000310D01*
X000368Y000307D01*
X000374Y000307D01*
X000378Y000303D01*
X000374Y000300D01*
X000364Y000300D01*
X000374Y000300D01*
X000378Y000303D01*
X000374Y000307D01*
X000368Y000307D01*
X000364Y000310D01*
X000368Y000313D01*
X000378Y000313D01*
X000368Y000313D01*
X000364Y000310D01*
X000368Y000307D01*
X000374Y000307D01*
X000378Y000303D01*
X000374Y000300D01*
X000364Y000300D01*
X000383Y000303D02*
X000383Y000310D01*
X000386Y000313D01*
X000393Y000313D01*
X000396Y000310D01*
X000396Y000307D01*
X000383Y000307D01*
X000396Y000307D01*
X000396Y000310D01*
X000393Y000313D01*
X000386Y000313D01*
X000383Y000310D01*
X000383Y000303D01*
X000386Y000300D01*
X000393Y000300D01*
X000386Y000300D01*
X000383Y000303D01*
X000383Y000310D01*
X000386Y000313D01*
X000393Y000313D01*
X000396Y000310D01*
X000396Y000307D01*
X000383Y000307D01*
X000396Y000307D01*
X000396Y000310D01*
X000393Y000313D01*
X000386Y000313D01*
X000383Y000310D01*
X000383Y000303D01*
X000386Y000300D01*
X000393Y000300D01*
X000386Y000300D01*
X000383Y000303D01*
X000401Y000300D02*
X000401Y000313D01*
X000401Y000300D01*
X000401Y000313D01*
X000401Y000300D01*
X000401Y000307D02*
X000408Y000313D01*
X000411Y000313D01*
X000408Y000313D01*
X000401Y000307D01*
X000408Y000313D01*
X000411Y000313D01*
X000408Y000313D01*
X000401Y000307D01*
X000417Y000310D02*
X000420Y000313D01*
X000430Y000313D01*
X000420Y000313D01*
X000417Y000310D01*
X000420Y000307D01*
X000427Y000307D01*
X000430Y000303D01*
X000427Y000300D01*
X000417Y000300D01*
X000427Y000300D01*
X000430Y000303D01*
X000427Y000307D01*
X000420Y000307D01*
X000417Y000310D01*
X000420Y000313D01*
X000430Y000313D01*
X000420Y000313D01*
X000417Y000310D01*
X000420Y000307D01*
X000427Y000307D01*
X000430Y000303D01*
X000427Y000300D01*
X000417Y000300D01*
X000427Y000300D01*
X000430Y000303D01*
X000427Y000307D01*
X000420Y000307D01*
X000417Y000310D01*
X000435Y000300D02*
X000448Y000320D01*
X000435Y000300D01*
X000448Y000320D01*
X000435Y000300D01*
X000453Y000300D02*
X000467Y000320D01*
X000453Y000300D01*
X000467Y000320D01*
X000453Y000300D01*
X000467Y000300D02*
X000453Y000320D01*
X000467Y000300D01*
X000453Y000320D01*
X000467Y000300D01*
X000472Y000300D02*
X000479Y000300D01*
X000472Y000300D01*
X000479Y000300D01*
X000472Y000300D01*
X000475Y000300D02*
X000475Y000313D01*
X000472Y000313D01*
X000475Y000313D01*
X000475Y000300D01*
X000475Y000313D01*
X000472Y000313D01*
X000475Y000313D01*
X000475Y000300D01*
X000484Y000303D02*
X000487Y000307D01*
X000497Y000307D01*
X000487Y000307D01*
X000484Y000303D01*
X000487Y000300D01*
X000497Y000300D01*
X000497Y000310D01*
X000494Y000313D01*
X000487Y000313D01*
X000494Y000313D01*
X000497Y000310D01*
X000497Y000300D01*
X000487Y000300D01*
X000484Y000303D01*
X000487Y000307D01*
X000497Y000307D01*
X000487Y000307D01*
X000484Y000303D01*
X000487Y000300D01*
X000497Y000300D01*
X000497Y000310D01*
X000494Y000313D01*
X000487Y000313D01*
X000494Y000313D01*
X000497Y000310D01*
X000497Y000300D01*
X000487Y000300D01*
X000484Y000303D01*
X000503Y000300D02*
X000503Y000313D01*
X000513Y000313D01*
X000516Y000310D01*
X000516Y000300D01*
X000516Y000310D01*
X000513Y000313D01*
X000503Y000313D01*
X000503Y000300D01*
X000503Y000313D01*
X000513Y000313D01*
X000516Y000310D01*
X000516Y000300D01*
X000516Y000310D01*
X000513Y000313D01*
X000503Y000313D01*
X000503Y000300D01*
X000521Y000303D02*
X000524Y000300D01*
X000534Y000300D01*
X000524Y000300D01*
X000521Y000303D01*
X000521Y000310D01*
X000524Y000313D01*
X000534Y000313D01*
X000534Y000297D01*
X000531Y000293D01*
X000528Y000293D01*
X000531Y000293D01*
X000534Y000297D01*
X000534Y000313D01*
X000524Y000313D01*
X000521Y000310D01*
X000521Y000303D01*
X000524Y000300D01*
X000534Y000300D01*
X000524Y000300D01*
X000521Y000303D01*
X000521Y000310D01*
X000524Y000313D01*
X000534Y000313D01*
X000534Y000297D01*
X000531Y000293D01*
X000528Y000293D01*
X000531Y000293D01*
X000534Y000297D01*
X000534Y000313D01*
X000524Y000313D01*
X000521Y000310D01*
X000521Y000303D01*
X000539Y000300D02*
X000553Y000300D01*
X000539Y000300D01*
X000553Y000313D01*
X000539Y000313D01*
X000553Y000313D01*
X000539Y000300D01*
X000553Y000300D01*
X000539Y000300D01*
X000553Y000313D01*
X000539Y000313D01*
X000553Y000313D01*
X000539Y000300D01*
X000558Y000300D02*
X000564Y000300D01*
X000558Y000300D01*
X000564Y000300D01*
X000558Y000300D01*
X000561Y000300D02*
X000561Y000313D01*
X000558Y000313D01*
X000561Y000313D01*
X000561Y000300D01*
X000561Y000313D01*
X000558Y000313D01*
X000561Y000313D01*
X000561Y000300D01*
X000570Y000300D02*
X000583Y000320D01*
X000570Y000300D01*
X000583Y000320D01*
X000570Y000300D01*
X000589Y000300D02*
X000599Y000300D01*
X000602Y000303D01*
X000602Y000317D01*
X000599Y000320D01*
X000589Y000320D01*
X000589Y000300D01*
X000599Y000300D01*
X000602Y000303D01*
X000602Y000317D01*
X000599Y000320D01*
X000589Y000320D01*
X000589Y000300D01*
X000599Y000300D01*
X000602Y000303D01*
X000602Y000317D01*
X000599Y000320D01*
X000589Y000320D01*
X000589Y000300D01*
X000599Y000300D01*
X000602Y000303D01*
X000602Y000317D01*
X000599Y000320D01*
X000589Y000320D01*
X000589Y000300D01*
X000607Y000303D02*
X000607Y000310D01*
X000610Y000313D01*
X000617Y000313D01*
X000620Y000310D01*
X000620Y000307D01*
X000607Y000307D01*
X000620Y000307D01*
X000620Y000310D01*
X000617Y000313D01*
X000610Y000313D01*
X000607Y000310D01*
X000607Y000303D01*
X000610Y000300D01*
X000617Y000300D01*
X000610Y000300D01*
X000607Y000303D01*
X000607Y000310D01*
X000610Y000313D01*
X000617Y000313D01*
X000620Y000310D01*
X000620Y000307D01*
X000607Y000307D01*
X000620Y000307D01*
X000620Y000310D01*
X000617Y000313D01*
X000610Y000313D01*
X000607Y000310D01*
X000607Y000303D01*
X000610Y000300D01*
X000617Y000300D01*
X000610Y000300D01*
X000607Y000303D01*
X000625Y000300D02*
X000635Y000300D01*
X000639Y000303D01*
X000635Y000307D01*
X000629Y000307D01*
X000625Y000310D01*
X000629Y000313D01*
X000639Y000313D01*
X000629Y000313D01*
X000625Y000310D01*
X000629Y000307D01*
X000635Y000307D01*
X000639Y000303D01*
X000635Y000300D01*
X000625Y000300D01*
X000635Y000300D01*
X000639Y000303D01*
X000635Y000307D01*
X000629Y000307D01*
X000625Y000310D01*
X000629Y000313D01*
X000639Y000313D01*
X000629Y000313D01*
X000625Y000310D01*
X000629Y000307D01*
X000635Y000307D01*
X000639Y000303D01*
X000635Y000300D01*
X000625Y000300D01*
X000644Y000300D02*
X000644Y000320D01*
X000644Y000300D01*
X000644Y000320D01*
X000644Y000300D01*
X000644Y000307D02*
X000654Y000313D01*
X000644Y000307D01*
X000654Y000300D01*
X000644Y000307D01*
X000654Y000313D01*
X000644Y000307D01*
X000654Y000300D01*
X000644Y000307D01*
X000659Y000313D02*
X000666Y000313D01*
X000659Y000313D01*
X000666Y000313D01*
X000659Y000313D01*
X000662Y000317D02*
X000662Y000303D01*
X000666Y000300D01*
X000662Y000303D01*
X000662Y000317D01*
X000662Y000303D01*
X000666Y000300D01*
X000662Y000303D01*
X000662Y000317D01*
X000671Y000310D02*
X000671Y000303D01*
X000675Y000300D01*
X000681Y000300D01*
X000685Y000303D01*
X000685Y000310D01*
X000681Y000313D01*
X000675Y000313D01*
X000671Y000310D01*
X000671Y000303D01*
X000675Y000300D01*
X000681Y000300D01*
X000685Y000303D01*
X000685Y000310D01*
X000681Y000313D01*
X000675Y000313D01*
X000671Y000310D01*
X000671Y000303D01*
X000675Y000300D01*
X000681Y000300D01*
X000685Y000303D01*
X000685Y000310D01*
X000681Y000313D01*
X000675Y000313D01*
X000671Y000310D01*
X000671Y000303D01*
X000675Y000300D01*
X000681Y000300D01*
X000685Y000303D01*
X000685Y000310D01*
X000681Y000313D01*
X000675Y000313D01*
X000671Y000310D01*
X000690Y000313D02*
X000700Y000313D01*
X000703Y000310D01*
X000703Y000303D01*
X000700Y000300D01*
X000690Y000300D01*
X000700Y000300D01*
X000703Y000303D01*
X000703Y000310D01*
X000700Y000313D01*
X000690Y000313D01*
X000690Y000293D01*
X000690Y000313D01*
X000700Y000313D01*
X000703Y000310D01*
X000703Y000303D01*
X000700Y000300D01*
X000690Y000300D01*
X000700Y000300D01*
X000703Y000303D01*
X000703Y000310D01*
X000700Y000313D01*
X000690Y000313D01*
X000690Y000293D01*
X000690Y000313D01*
X000708Y000300D02*
X000722Y000320D01*
X000708Y000300D01*
X000722Y000320D01*
X000708Y000300D01*
X000727Y000297D02*
X000727Y000320D01*
X000727Y000297D01*
X000727Y000320D01*
X000727Y000297D01*
X000733Y000297D02*
X000733Y000320D01*
X000733Y000297D01*
X000733Y000320D01*
X000733Y000297D01*
X000739Y000303D02*
X000742Y000300D01*
X000752Y000300D01*
X000752Y000313D01*
X000752Y000300D01*
X000742Y000300D01*
X000739Y000303D01*
X000739Y000313D01*
X000739Y000303D01*
X000742Y000300D01*
X000752Y000300D01*
X000752Y000313D01*
X000752Y000300D01*
X000742Y000300D01*
X000739Y000303D01*
X000739Y000313D01*
X000739Y000303D01*
X000740Y000307D02*
X000733Y000307D01*
X000740Y000307D01*
X000733Y000307D01*
X000740Y000307D01*
X000739Y000320D02*
X000746Y000327D01*
X000752Y000320D01*
X000746Y000327D01*
X000739Y000320D01*
X000746Y000327D01*
X000752Y000320D01*
X000746Y000327D01*
X000739Y000320D01*
X000757Y000320D02*
X000767Y000320D01*
X000771Y000317D01*
X000771Y000310D01*
X000771Y000317D01*
X000767Y000320D01*
X000757Y000320D01*
X000757Y000310D01*
X000757Y000320D01*
X000767Y000320D01*
X000771Y000317D01*
X000771Y000310D01*
X000771Y000317D01*
X000767Y000320D01*
X000757Y000320D01*
X000757Y000310D01*
X000757Y000320D01*
X000776Y000313D02*
X000782Y000320D01*
X000789Y000313D01*
X000789Y000300D01*
X000802Y000300D01*
X000789Y000300D01*
X000789Y000313D01*
X000789Y000320D01*
X000802Y000320D01*
X000789Y000320D01*
X000789Y000313D01*
X000782Y000320D01*
X000776Y000313D01*
X000776Y000300D01*
X000776Y000313D01*
X000782Y000320D01*
X000789Y000313D01*
X000789Y000300D01*
X000802Y000300D01*
X000789Y000300D01*
X000789Y000313D01*
X000789Y000320D01*
X000802Y000320D01*
X000789Y000320D01*
X000789Y000313D01*
X000782Y000320D01*
X000776Y000313D01*
X000776Y000300D01*
X000776Y000313D01*
X000776Y000310D02*
X000796Y000310D01*
X000776Y000310D01*
X000796Y000310D01*
X000776Y000310D01*
X000806Y000300D02*
X000820Y000320D01*
X000806Y000300D01*
X000820Y000320D01*
X000806Y000300D01*
X000825Y000300D02*
X000825Y000313D01*
X000832Y000320D01*
X000838Y000313D01*
X000838Y000300D01*
X000838Y000320D01*
X000840Y000320D02*
X000840Y000323D01*
X000840Y000320D01*
X000843Y000320D02*
X000853Y000320D01*
X000857Y000317D01*
X000857Y000303D01*
X000853Y000300D01*
X000843Y000300D01*
X000843Y000320D01*
X000847Y000320D02*
X000847Y000323D01*
X000847Y000320D01*
X000847Y000313D02*
X000850Y000310D01*
X000850Y000300D01*
X000857Y000307D01*
X000860Y000300D01*
X000862Y000303D02*
X000865Y000300D01*
X000868Y000300D01*
X000872Y000303D01*
X000872Y000320D01*
X000872Y000323D01*
X000875Y000320D02*
X000878Y000317D01*
X000878Y000313D01*
X000871Y000307D01*
X000869Y000310D02*
X000869Y000317D01*
X000866Y000320D01*
X000856Y000320D01*
X000856Y000310D01*
X000862Y000310D01*
X000865Y000313D01*
X000872Y000313D01*
X000875Y000310D01*
X000875Y000307D01*
X000862Y000307D01*
X000856Y000307D01*
X000856Y000320D01*
X000860Y000313D02*
X000857Y000307D01*
X000850Y000313D01*
X000847Y000313D01*
X000840Y000313D01*
X000847Y000313D01*
X000850Y000310D01*
X000850Y000300D01*
X000847Y000300D01*
X000843Y000303D01*
X000843Y000310D01*
X000847Y000313D01*
X000850Y000307D02*
X000840Y000307D01*
X000837Y000303D01*
X000840Y000300D01*
X000850Y000300D01*
X000840Y000300D01*
X000837Y000303D01*
X000840Y000307D01*
X000850Y000307D01*
X000838Y000307D02*
X000825Y000307D01*
X000838Y000307D01*
X000838Y000310D02*
X000825Y000310D01*
X000828Y000307D02*
X000828Y000297D01*
X000828Y000307D01*
X000835Y000307D02*
X000835Y000297D01*
X000835Y000307D01*
X000838Y000300D02*
X000825Y000320D01*
X000825Y000300D01*
X000825Y000323D02*
X000828Y000327D01*
X000835Y000327D01*
X000838Y000330D01*
X000865Y000323D02*
X000865Y000320D01*
X000868Y000320D02*
X000875Y000320D01*
X000868Y000320D01*
X000865Y000317D01*
X000862Y000310D02*
X000862Y000303D01*
X000865Y000300D01*
X000872Y000300D01*
X000871Y000300D02*
X000871Y000303D01*
X000874Y000303D02*
X000877Y000300D01*
X000884Y000300D01*
X000887Y000303D01*
X000887Y000310D01*
X000884Y000313D01*
X000877Y000313D01*
X000874Y000310D01*
X000874Y000303D01*
X000880Y000303D02*
X000883Y000303D01*
X000883Y000300D01*
X000880Y000300D01*
X000880Y000303D01*
X000883Y000300D01*
X000890Y000300D01*
X000893Y000303D01*
X000893Y000320D01*
X000896Y000317D01*
X000896Y000313D01*
X000890Y000307D01*
X000890Y000303D02*
X000890Y000300D01*
X000889Y000300D02*
X000899Y000300D01*
X000903Y000303D01*
X000903Y000310D01*
X000899Y000313D01*
X000889Y000313D01*
X000883Y000317D02*
X000886Y000320D01*
X000893Y000320D01*
X000889Y000320D02*
X000889Y000300D01*
X000892Y000300D02*
X000896Y000300D01*
X000896Y000303D01*
X000892Y000303D01*
X000892Y000300D01*
X000898Y000303D02*
X000902Y000300D01*
X000909Y000300D01*
X000912Y000303D01*
X000912Y000307D01*
X000909Y000310D01*
X000902Y000310D01*
X000898Y000313D01*
X000898Y000317D01*
X000902Y000320D01*
X000909Y000320D01*
X000912Y000317D01*
X000912Y000313D02*
X000902Y000313D01*
X000908Y000313D02*
X000911Y000313D01*
X000914Y000310D01*
X000918Y000313D01*
X000921Y000310D01*
X000921Y000300D01*
X000920Y000300D02*
X000920Y000313D01*
X000923Y000313D01*
X000927Y000310D01*
X000930Y000313D01*
X000933Y000310D01*
X000933Y000300D01*
X000935Y000300D02*
X000939Y000300D01*
X000939Y000303D01*
X000935Y000303D01*
X000935Y000300D01*
X000936Y000300D02*
X000926Y000300D01*
X000927Y000300D02*
X000927Y000310D01*
X000926Y000313D02*
X000936Y000313D01*
X000939Y000310D01*
X000939Y000303D01*
X000936Y000300D01*
X000938Y000300D02*
X000948Y000300D01*
X000958Y000300D01*
X000961Y000303D01*
X000961Y000310D01*
X000958Y000313D01*
X000948Y000313D01*
X000952Y000310D01*
X000952Y000303D01*
X000948Y000300D01*
X000948Y000320D01*
X000945Y000320D02*
X000945Y000300D01*
X000955Y000300D01*
X000958Y000303D01*
X000958Y000310D01*
X000955Y000313D01*
X000945Y000313D01*
X000948Y000313D02*
X000938Y000313D01*
X000938Y000293D01*
X000938Y000300D02*
X000942Y000300D01*
X000942Y000303D01*
X000938Y000303D01*
X000938Y000300D01*
X000930Y000300D02*
X000923Y000300D01*
X000920Y000303D01*
X000920Y000310D01*
X000923Y000313D01*
X000930Y000313D01*
X000933Y000310D01*
X000933Y000307D01*
X000920Y000307D01*
X000915Y000310D02*
X000912Y000313D01*
X000908Y000313D02*
X000902Y000307D01*
X000902Y000303D01*
X000905Y000300D01*
X000912Y000300D01*
X000915Y000303D01*
X000915Y000310D01*
X000914Y000310D02*
X000914Y000300D01*
X000912Y000300D02*
X000915Y000303D01*
X000912Y000300D02*
X000902Y000300D01*
X000902Y000320D01*
X000908Y000317D02*
X000908Y000320D01*
X000908Y000313D02*
X000908Y000300D01*
X000924Y000300D02*
X000924Y000320D01*
X000923Y000320D02*
X000930Y000323D01*
X000930Y000320D02*
X000917Y000320D01*
X000926Y000313D02*
X000926Y000293D01*
X000963Y000300D02*
X000963Y000313D01*
X000966Y000313D01*
X000969Y000313D01*
X000973Y000310D01*
X000976Y000313D01*
X000979Y000310D01*
X000979Y000300D01*
X000981Y000300D02*
X000991Y000300D01*
X000995Y000303D01*
X000995Y000310D01*
X000991Y000313D01*
X000981Y000313D01*
X000981Y000293D01*
X000984Y000293D02*
X000984Y000313D01*
X000994Y000313D01*
X000998Y000310D01*
X000998Y000303D01*
X000994Y000300D01*
X000984Y000300D01*
X000976Y000300D02*
X000976Y000310D01*
X000973Y000313D01*
X000970Y000310D01*
X000970Y000300D01*
X000973Y000300D02*
X000973Y000310D01*
X000970Y000310D02*
X000966Y000313D01*
X000966Y000300D01*
X000884Y000320D02*
X000884Y000323D01*
X000880Y000320D02*
X000880Y000303D01*
X000877Y000320D02*
X000877Y000323D01*
X000561Y000323D02*
X000561Y000320D01*
X000561Y000323D01*
X000561Y000320D01*
X000561Y000323D01*
X000475Y000323D02*
X000475Y000320D01*
X000475Y000323D01*
X000475Y000320D01*
X000475Y000323D01*
X000300Y000350D02*
X000300Y039720D01*
X063292Y039720D01*
X063292Y000350D01*
X000300Y000350D01*
D11*
X019890Y019325D03*
X020440Y019685D03*
X020260Y019945D03*
X020220Y019965D03*
X020210Y019965D03*
X020200Y019965D03*
X020190Y019965D03*
X020180Y019965D03*
X020170Y019965D03*
X020160Y019965D03*
X020150Y019965D03*
X020140Y019965D03*
X020130Y019965D03*
X020120Y019965D03*
X020110Y019965D03*
X020100Y019965D03*
X020090Y019965D03*
X020080Y019965D03*
X020070Y019965D03*
X020060Y019965D03*
X020050Y019965D03*
X020040Y019965D03*
X020030Y019965D03*
X020020Y019965D03*
X020010Y019965D03*
X020000Y019965D03*
X019990Y019965D03*
X019980Y019965D03*
X019970Y019965D03*
X019960Y019965D03*
X019950Y019965D03*
X019940Y019965D03*
X019930Y019965D03*
X019920Y019965D03*
X019910Y019965D03*
X019970Y020065D03*
X019980Y020065D03*
X019990Y020065D03*
X020000Y020065D03*
X020010Y020065D03*
X020020Y020065D03*
X020030Y020065D03*
X020040Y020065D03*
X020050Y020065D03*
X020060Y020065D03*
X020070Y020065D03*
X020080Y020065D03*
X020090Y020065D03*
X020100Y020065D03*
X020110Y020065D03*
X020120Y020065D03*
X020130Y020065D03*
X020140Y020065D03*
X020150Y020065D03*
X020160Y020065D03*
X020170Y020065D03*
X020180Y020065D03*
X020190Y020065D03*
X020170Y020155D03*
X020160Y020155D03*
X020150Y020155D03*
X020140Y020155D03*
X020130Y020155D03*
X020120Y020155D03*
X020080Y020155D03*
X020070Y020155D03*
X020060Y020155D03*
X020050Y020155D03*
X020040Y020155D03*
X020030Y020155D03*
X019990Y020155D03*
X019980Y020155D03*
X019970Y020155D03*
X019960Y020155D03*
X019950Y020155D03*
X019940Y020155D03*
X019930Y020155D03*
X019920Y020155D03*
X019910Y020155D03*
X019910Y020285D03*
X019920Y020285D03*
X019930Y020285D03*
X019940Y020285D03*
X019950Y020285D03*
X019960Y020285D03*
X019970Y020285D03*
X019980Y020285D03*
X019990Y020285D03*
X020030Y020285D03*
X020040Y020285D03*
X020050Y020285D03*
X020060Y020285D03*
X020070Y020285D03*
X020080Y020285D03*
X020120Y020285D03*
X020130Y020285D03*
X020140Y020285D03*
X020150Y020285D03*
X020160Y020285D03*
X020170Y020285D03*
X020170Y020405D03*
X020180Y020405D03*
X020190Y020405D03*
X020200Y020405D03*
X020210Y020405D03*
X020220Y020405D03*
X020230Y020405D03*
X020240Y020405D03*
X020250Y020405D03*
X020260Y020405D03*
X020280Y020465D03*
X020290Y020465D03*
X020320Y020455D03*
X020260Y020475D03*
X020250Y020475D03*
X020240Y020475D03*
X020230Y020485D03*
X020220Y020485D03*
X020210Y020485D03*
X020190Y020495D03*
X020180Y020495D03*
X020160Y020505D03*
X020160Y020405D03*
X020110Y020405D03*
X020100Y020405D03*
X020090Y020405D03*
X020080Y020405D03*
X020070Y020405D03*
X020060Y020405D03*
X020050Y020405D03*
X020040Y020405D03*
X020030Y020405D03*
X019970Y020405D03*
X019960Y020405D03*
X019950Y020405D03*
X019940Y020405D03*
X019930Y020405D03*
X019920Y020405D03*
X019910Y020405D03*
X019900Y020405D03*
X019890Y020405D03*
X019880Y020405D03*
X019870Y020405D03*
X019860Y020405D03*
X019850Y020405D03*
X019850Y020285D03*
X019860Y020285D03*
X019870Y020285D03*
X019880Y020285D03*
X019890Y020285D03*
X019900Y020285D03*
X020400Y020435D03*
X031210Y019425D03*
X031290Y019405D03*
X031320Y019395D03*
X031330Y019395D03*
X031350Y019385D03*
X031360Y019385D03*
X031370Y019385D03*
X031380Y019375D03*
X031390Y019375D03*
X031400Y019375D03*
X031420Y019365D03*
X031430Y019365D03*
X031450Y019355D03*
X031450Y019455D03*
X031440Y019455D03*
X031430Y019455D03*
X031420Y019455D03*
X031410Y019455D03*
X031400Y019455D03*
X031390Y019455D03*
X031380Y019455D03*
X031370Y019455D03*
X031360Y019455D03*
X031350Y019455D03*
X031500Y019455D03*
X031510Y019455D03*
X031520Y019455D03*
X031530Y019455D03*
X031540Y019455D03*
X031550Y019455D03*
X031560Y019455D03*
X031570Y019455D03*
X031580Y019455D03*
X031640Y019455D03*
X031650Y019455D03*
X031660Y019455D03*
X031670Y019455D03*
X031680Y019455D03*
X031690Y019455D03*
X031700Y019455D03*
X031710Y019455D03*
X031720Y019455D03*
X031730Y019455D03*
X031740Y019455D03*
X031750Y019455D03*
X031760Y019455D03*
X031760Y019575D03*
X031750Y019575D03*
X031740Y019575D03*
X031730Y019575D03*
X031720Y019575D03*
X031710Y019575D03*
X031700Y019575D03*
X031690Y019575D03*
X031680Y019575D03*
X031670Y019575D03*
X031660Y019575D03*
X031650Y019575D03*
X031640Y019575D03*
X031630Y019575D03*
X031620Y019575D03*
X031580Y019575D03*
X031570Y019575D03*
X031560Y019575D03*
X031550Y019575D03*
X031540Y019575D03*
X031530Y019575D03*
X031490Y019575D03*
X031480Y019575D03*
X031470Y019575D03*
X031460Y019575D03*
X031450Y019575D03*
X031440Y019575D03*
X031440Y019705D03*
X031450Y019705D03*
X031460Y019705D03*
X031470Y019705D03*
X031480Y019705D03*
X031490Y019705D03*
X031530Y019705D03*
X031540Y019705D03*
X031550Y019705D03*
X031560Y019705D03*
X031570Y019705D03*
X031580Y019705D03*
X031620Y019705D03*
X031630Y019705D03*
X031640Y019705D03*
X031650Y019705D03*
X031660Y019705D03*
X031670Y019705D03*
X031680Y019705D03*
X031690Y019705D03*
X031700Y019705D03*
X031640Y019795D03*
X031630Y019795D03*
X031620Y019795D03*
X031610Y019795D03*
X031600Y019795D03*
X031590Y019795D03*
X031580Y019795D03*
X031570Y019795D03*
X031560Y019795D03*
X031550Y019795D03*
X031540Y019795D03*
X031530Y019795D03*
X031520Y019795D03*
X031510Y019795D03*
X031500Y019795D03*
X031490Y019795D03*
X031480Y019795D03*
X031470Y019795D03*
X031460Y019795D03*
X031450Y019795D03*
X031440Y019795D03*
X031430Y019795D03*
X031420Y019795D03*
X031420Y019895D03*
X031410Y019895D03*
X031400Y019895D03*
X031390Y019895D03*
X031430Y019895D03*
X031440Y019895D03*
X031450Y019895D03*
X031460Y019895D03*
X031470Y019895D03*
X031480Y019895D03*
X031490Y019895D03*
X031500Y019895D03*
X031510Y019895D03*
X031520Y019895D03*
X031530Y019895D03*
X031540Y019895D03*
X031550Y019895D03*
X031560Y019895D03*
X031570Y019895D03*
X031580Y019895D03*
X031590Y019895D03*
X031600Y019895D03*
X031610Y019895D03*
X031620Y019895D03*
X031630Y019895D03*
X031640Y019895D03*
X031650Y019895D03*
X031660Y019895D03*
X031670Y019895D03*
X031680Y019895D03*
X031690Y019895D03*
X031700Y019895D03*
X031350Y019915D03*
D12*
X031290Y019850D03*
X031280Y019840D03*
X031270Y019830D03*
X031260Y019820D03*
X031250Y019810D03*
X031240Y019800D03*
X031230Y019790D03*
X031160Y019730D03*
X031150Y019740D03*
X031270Y019640D03*
X031280Y019630D03*
X031290Y019620D03*
X031750Y019660D03*
X020460Y020120D03*
X020450Y020130D03*
X020380Y020070D03*
X020370Y020060D03*
X020360Y020050D03*
X020350Y020040D03*
X020340Y020030D03*
X020330Y020020D03*
X020320Y020010D03*
X020340Y020220D03*
X020330Y020230D03*
X020320Y020240D03*
X019860Y020200D03*
X019910Y019850D03*
X020010Y019750D03*
X020020Y019740D03*
X020030Y019730D03*
X020040Y019720D03*
X020050Y019720D03*
X020060Y019710D03*
X020070Y019700D03*
X020090Y019690D03*
X020030Y019440D03*
X020020Y019430D03*
X020000Y019420D03*
X019990Y019410D03*
X019980Y019400D03*
X019970Y019390D03*
X020390Y019650D03*
X020400Y019660D03*
X020410Y019670D03*
X020420Y019680D03*
D13*
X020260Y019595D03*
X019930Y019835D03*
X019920Y019845D03*
X019860Y020025D03*
X019880Y020195D03*
X020430Y020125D03*
X019920Y019325D03*
X031180Y019735D03*
X031730Y019665D03*
X031750Y019835D03*
D14*
X031740Y019670D03*
X031330Y019910D03*
X020280Y019950D03*
X019960Y019800D03*
X019950Y019810D03*
X019940Y019820D03*
X019870Y020190D03*
X020270Y019590D03*
X019940Y019350D03*
X019930Y019340D03*
D15*
X019870Y020025D03*
X031740Y019835D03*
D16*
X031730Y019840D03*
X031720Y019840D03*
X019890Y020020D03*
X019880Y020020D03*
D17*
X019880Y019855D03*
X020450Y019685D03*
D18*
X020250Y019940D03*
X020240Y020310D03*
X019880Y019320D03*
X023160Y016500D03*
X023280Y016320D03*
X023710Y016330D03*
X024350Y016330D03*
X024410Y015890D03*
X024680Y015730D03*
X025420Y015890D03*
X025660Y015910D03*
X025660Y016060D03*
X025860Y016460D03*
X026270Y016290D03*
X026250Y016060D03*
X026250Y015910D03*
X025700Y015190D03*
X027390Y016290D03*
X028330Y016020D03*
X028240Y015590D03*
X028290Y015320D03*
X029290Y014680D03*
X023420Y014990D03*
X023280Y015140D03*
X023250Y015880D03*
X021800Y015540D03*
X021660Y016210D03*
X021780Y014720D03*
X031370Y019550D03*
X031360Y019920D03*
D19*
X031190Y019730D03*
X031720Y019670D03*
X020420Y020130D03*
X019890Y020190D03*
X020250Y019590D03*
D20*
X019890Y019850D03*
X020250Y020310D03*
X020460Y020430D03*
X019970Y020510D03*
X031150Y019430D03*
X031360Y019550D03*
X031640Y019350D03*
D21*
X031580Y019520D03*
X031440Y019360D03*
X031410Y019370D03*
X031340Y019390D03*
X031310Y019400D03*
X031300Y019400D03*
X031240Y019420D03*
X031230Y019420D03*
X031220Y019420D03*
X031200Y019430D03*
X031190Y019430D03*
X031180Y019430D03*
X031160Y019440D03*
X031210Y019690D03*
X031220Y020060D03*
X031230Y020060D03*
X031240Y020060D03*
X031250Y020060D03*
X031260Y020060D03*
X031270Y020060D03*
X031280Y020060D03*
X031290Y020060D03*
X031300Y020060D03*
X031310Y020060D03*
X031320Y020060D03*
X031330Y020060D03*
X031340Y020060D03*
X031350Y020060D03*
X031360Y020060D03*
X031370Y020060D03*
X031380Y020060D03*
X031510Y020040D03*
X031520Y020040D03*
X031530Y020040D03*
X031540Y020040D03*
X031550Y020040D03*
X031560Y020040D03*
X031570Y020040D03*
X031580Y020040D03*
X031590Y020040D03*
X031600Y020040D03*
X031610Y020040D03*
X031620Y020040D03*
X031630Y020040D03*
X031640Y020040D03*
X031650Y020040D03*
X031660Y020040D03*
X031670Y020040D03*
X031710Y019890D03*
X031710Y019700D03*
X031670Y020270D03*
X031660Y020270D03*
X031650Y020270D03*
X031640Y020270D03*
X031630Y020270D03*
X031620Y020270D03*
X031610Y020270D03*
X031600Y020270D03*
X031590Y020270D03*
X031580Y020270D03*
X031570Y020270D03*
X031560Y020270D03*
X031550Y020270D03*
X031540Y020270D03*
X031530Y020270D03*
X031520Y020270D03*
X031510Y020270D03*
X031500Y020270D03*
X031490Y020270D03*
X031480Y020270D03*
X031470Y020270D03*
X031460Y020270D03*
X031450Y020270D03*
X031440Y020270D03*
X031380Y020270D03*
X031370Y020270D03*
X031360Y020270D03*
X031350Y020270D03*
X031340Y020270D03*
X031330Y020270D03*
X031320Y020270D03*
X031310Y020270D03*
X031300Y020270D03*
X031290Y020270D03*
X031280Y020270D03*
X031270Y020270D03*
X031260Y020270D03*
X031250Y020270D03*
X031240Y020270D03*
X031230Y020270D03*
X031220Y020270D03*
X031210Y020270D03*
X031200Y020270D03*
X031190Y020270D03*
X031180Y020270D03*
X031170Y020270D03*
X031160Y020270D03*
X031220Y020490D03*
X031230Y020490D03*
X031240Y020490D03*
X031250Y020490D03*
X031260Y020490D03*
X031270Y020490D03*
X031280Y020490D03*
X031290Y020490D03*
X031300Y020490D03*
X031310Y020490D03*
X031320Y020490D03*
X031330Y020490D03*
X031340Y020490D03*
X031350Y020490D03*
X031360Y020490D03*
X031370Y020490D03*
X031380Y020490D03*
X031440Y020490D03*
X031450Y020490D03*
X031510Y020510D03*
X031520Y020510D03*
X031530Y020510D03*
X031540Y020510D03*
X031550Y020510D03*
X031560Y020510D03*
X031570Y020510D03*
X031580Y020510D03*
X031590Y020510D03*
X031600Y020510D03*
X031610Y020510D03*
X031620Y020510D03*
X031630Y020510D03*
X031640Y020510D03*
X031650Y020510D03*
X031660Y020510D03*
X031670Y020510D03*
X031730Y020510D03*
X031740Y020510D03*
X020450Y020420D03*
X020430Y020430D03*
X020420Y020430D03*
X020410Y020430D03*
X020390Y020440D03*
X020380Y020440D03*
X020370Y020440D03*
X020310Y020460D03*
X020300Y020460D03*
X020270Y020470D03*
X020200Y020490D03*
X020170Y020500D03*
X020030Y020340D03*
X019900Y020160D03*
X019900Y019970D03*
X019900Y019850D03*
X020190Y019640D03*
X020210Y019630D03*
X020240Y019620D03*
X020240Y019560D03*
X020230Y019550D03*
X020220Y019550D03*
X020210Y019540D03*
X020200Y019540D03*
X020180Y019530D03*
X020160Y019520D03*
X020140Y019510D03*
X020110Y019490D03*
X020090Y019480D03*
X020320Y019600D03*
X020340Y019610D03*
X020350Y019620D03*
X020400Y020170D03*
D22*
X020410Y020165D03*
X020390Y020175D03*
X020380Y020185D03*
X020370Y020195D03*
X020360Y020205D03*
X020350Y020215D03*
X020260Y020305D03*
X020440Y020425D03*
X020410Y020095D03*
X020400Y020085D03*
X020390Y020075D03*
X020270Y019945D03*
X020430Y019685D03*
X020380Y019645D03*
X020370Y019635D03*
X020360Y019625D03*
X020330Y019605D03*
X020310Y019595D03*
X020300Y019595D03*
X020230Y019625D03*
X020220Y019625D03*
X020200Y019635D03*
X020180Y019645D03*
X020170Y019645D03*
X020160Y019655D03*
X020150Y019655D03*
X020140Y019665D03*
X020130Y019665D03*
X020120Y019675D03*
X020110Y019675D03*
X020100Y019685D03*
X020080Y019695D03*
X020170Y019525D03*
X020190Y019535D03*
X020150Y019515D03*
X020130Y019505D03*
X020120Y019495D03*
X020100Y019485D03*
X020080Y019475D03*
X020070Y019465D03*
X020060Y019465D03*
X020050Y019455D03*
X020040Y019445D03*
X020010Y019425D03*
X019900Y019325D03*
X031170Y019435D03*
X031350Y019555D03*
X031260Y019645D03*
X031250Y019655D03*
X031240Y019665D03*
X031230Y019675D03*
X031220Y019685D03*
X031200Y019695D03*
X031200Y019765D03*
X031210Y019775D03*
X031220Y019785D03*
X031340Y019915D03*
D23*
X031320Y019895D03*
X031300Y019865D03*
X031170Y019735D03*
X031300Y019605D03*
X031330Y019565D03*
X031340Y019555D03*
X020440Y020125D03*
X020310Y019995D03*
X020290Y019965D03*
X020310Y020255D03*
X020280Y020295D03*
X020270Y020305D03*
X019970Y019785D03*
X019980Y019775D03*
X019990Y019765D03*
X020000Y019755D03*
X020280Y019595D03*
X020290Y019595D03*
X019960Y019375D03*
X019950Y019365D03*
X019910Y019325D03*
D24*
X019980Y020460D03*
X031630Y019400D03*
D25*
X031620Y019410D03*
X031610Y019640D03*
X031600Y019640D03*
X031590Y019640D03*
X031520Y019640D03*
X031510Y019640D03*
X031500Y019640D03*
X031430Y019640D03*
X031420Y019640D03*
X031410Y019640D03*
X031400Y019640D03*
X020210Y020220D03*
X020200Y020220D03*
X020190Y020220D03*
X020180Y020220D03*
X020110Y020220D03*
X020100Y020220D03*
X020090Y020220D03*
X020020Y020220D03*
X020010Y020220D03*
X020000Y020220D03*
X019990Y020450D03*
D26*
X020000Y020430D03*
X020010Y020430D03*
X031600Y019430D03*
X031610Y019430D03*
D27*
X031590Y019465D03*
X020020Y020395D03*
D28*
X020120Y020425D03*
X020130Y020425D03*
X020140Y020425D03*
X020150Y020425D03*
X031460Y019435D03*
X031470Y019435D03*
X031480Y019435D03*
X031490Y019435D03*
D29*
X031340Y019735D03*
X031330Y019735D03*
X020280Y020125D03*
X020270Y020125D03*
D30*
X020290Y020165D03*
X031320Y019695D03*
D31*
X031310Y019740D03*
X020300Y020120D03*
D32*
X020330Y020420D03*
X020340Y020420D03*
X020350Y020420D03*
X020360Y020420D03*
X031250Y019440D03*
X031260Y019440D03*
X031270Y019440D03*
X031280Y019440D03*
D33*
X031680Y020275D03*
X031690Y020275D03*
X031700Y020275D03*
X031710Y020275D03*
X031720Y020275D03*
D34*
X031430Y020275D03*
X031420Y020275D03*
X031410Y020275D03*
X031400Y020275D03*
X031390Y020275D03*
D35*
X028335Y016180D03*
X028245Y015420D03*
X027675Y014970D03*
X027305Y014700D03*
X028155Y014670D03*
X029285Y014690D03*
X029385Y015420D03*
X029385Y015590D03*
X026345Y015390D03*
X026175Y015400D03*
X026145Y015740D03*
X025695Y015200D03*
X024755Y014900D03*
X024415Y016070D03*
X025415Y016070D03*
D36*
X027360Y015270D03*
X027290Y014710D03*
X028160Y014680D03*
X023150Y016490D03*
X021780Y014740D03*
D37*
X021775Y015520D03*
X022195Y016380D03*
X024675Y015320D03*
X024855Y014690D03*
X025695Y015230D03*
X026135Y015720D03*
X027225Y015390D03*
X027695Y014990D03*
X026235Y014720D03*
D38*
X025695Y015250D03*
X026375Y015990D03*
X026575Y016470D03*
X026925Y016470D03*
X028805Y015430D03*
X028805Y015420D03*
X028805Y015410D03*
X028815Y015390D03*
X028165Y014690D03*
X027705Y015000D03*
X027275Y014720D03*
X023375Y014980D03*
X022175Y015820D03*
D39*
X021935Y015960D03*
X021945Y015980D03*
X023185Y015870D03*
X023115Y016460D03*
X024625Y015690D03*
X025755Y015460D03*
X025755Y015450D03*
X025765Y015470D03*
X025765Y015480D03*
X026125Y015660D03*
X026135Y015640D03*
X026145Y015620D03*
X026155Y015600D03*
X026165Y015580D03*
X026175Y015560D03*
X026185Y015540D03*
X026195Y015520D03*
X026115Y015690D03*
X026415Y015750D03*
X026415Y015760D03*
X026415Y015770D03*
X026415Y015780D03*
X026415Y015790D03*
X026415Y015800D03*
X026415Y015810D03*
X026415Y015820D03*
X026415Y015830D03*
X026415Y015840D03*
X026415Y015850D03*
X026415Y015860D03*
X026415Y015870D03*
X026615Y015990D03*
X026615Y016000D03*
X026615Y016010D03*
X026615Y016020D03*
X026615Y016030D03*
X026615Y016040D03*
X026615Y016050D03*
X026615Y016060D03*
X026615Y016070D03*
X026615Y016080D03*
X026615Y016090D03*
X026615Y016100D03*
X026615Y016110D03*
X026615Y016120D03*
X026615Y016130D03*
X026615Y016140D03*
X026615Y016150D03*
X026615Y016280D03*
X026615Y016290D03*
X026615Y016300D03*
X026615Y016310D03*
X026615Y016320D03*
X026615Y016330D03*
X026615Y016340D03*
X026615Y016350D03*
X026615Y016360D03*
X026615Y016370D03*
X026615Y016380D03*
X026615Y016390D03*
X026615Y016400D03*
X026615Y016410D03*
X026965Y016410D03*
X026965Y016400D03*
X026965Y016390D03*
X026965Y016380D03*
X026965Y016370D03*
X026965Y016360D03*
X026965Y016350D03*
X026965Y016340D03*
X026965Y016330D03*
X026965Y016320D03*
X026965Y016310D03*
X026965Y016300D03*
X026965Y016290D03*
X026965Y016280D03*
X026965Y016150D03*
X026965Y016140D03*
X026965Y016130D03*
X026965Y016120D03*
X026965Y016110D03*
X026965Y016100D03*
X026965Y016090D03*
X026965Y016080D03*
X026965Y016070D03*
X026965Y016060D03*
X026965Y016050D03*
X026965Y016040D03*
X026965Y016030D03*
X026965Y016020D03*
X026965Y016010D03*
X026965Y016000D03*
X026965Y015990D03*
X027175Y015870D03*
X027175Y015860D03*
X027175Y015850D03*
X027175Y015840D03*
X027175Y015830D03*
X027175Y015820D03*
X027175Y015810D03*
X027175Y015800D03*
X027175Y015790D03*
X027175Y015780D03*
X027175Y015770D03*
X027175Y015760D03*
X027175Y015750D03*
X027175Y015630D03*
X027175Y015620D03*
X027175Y015610D03*
X027175Y015600D03*
X027175Y015590D03*
X027175Y015580D03*
X027175Y015570D03*
X027175Y015560D03*
X027175Y015550D03*
X027175Y015540D03*
X027175Y015530D03*
X027175Y015520D03*
X027175Y015510D03*
X026855Y015090D03*
X026865Y015070D03*
X026875Y015060D03*
X026415Y015510D03*
X026415Y015520D03*
X026415Y015530D03*
X026415Y015540D03*
X026415Y015550D03*
X026415Y015560D03*
X026415Y015570D03*
X026415Y015580D03*
X026415Y015590D03*
X026415Y015600D03*
X026415Y015610D03*
X026415Y015620D03*
X026415Y015630D03*
X027325Y016150D03*
X028305Y015430D03*
X028885Y015190D03*
X028895Y015180D03*
X028895Y015170D03*
X028905Y015160D03*
X024895Y014700D03*
D40*
X026245Y014730D03*
X026205Y015440D03*
X026205Y016050D03*
X025705Y016050D03*
X024635Y015700D03*
X023125Y016470D03*
X021825Y015680D03*
X021775Y014760D03*
X028175Y014700D03*
X028845Y015290D03*
X028835Y015320D03*
X028835Y015330D03*
X028825Y015350D03*
D41*
X029275Y014700D03*
X027685Y014980D03*
X026195Y015120D03*
X026195Y015270D03*
X026185Y015410D03*
X026135Y015730D03*
X025695Y015220D03*
X025695Y015210D03*
X024665Y015720D03*
X022365Y016190D03*
X021785Y015530D03*
X027885Y016470D03*
X029215Y016180D03*
D42*
X029135Y016170D03*
X028705Y016420D03*
X028705Y016430D03*
X028705Y016440D03*
X028425Y016170D03*
X027965Y016440D03*
X027965Y016450D03*
X027965Y016460D03*
X028545Y015100D03*
X028535Y015090D03*
X028525Y015080D03*
X028525Y015070D03*
X028515Y015060D03*
X028975Y015050D03*
X028985Y015040D03*
X026955Y014980D03*
X025925Y015760D03*
X025925Y015770D03*
X025925Y015780D03*
X024735Y015370D03*
X024925Y014710D03*
X022475Y015970D03*
X021845Y015830D03*
X021835Y015820D03*
X021975Y015150D03*
X021905Y015010D03*
X021895Y015000D03*
X021885Y014980D03*
X021875Y014970D03*
X021755Y014800D03*
X025965Y016430D03*
X025965Y016450D03*
D43*
X025960Y016420D03*
X025110Y016460D03*
X025110Y016470D03*
X025930Y015810D03*
X025930Y015800D03*
X025930Y015790D03*
X025680Y015330D03*
X025670Y015320D03*
X025670Y015310D03*
X025950Y014760D03*
X025950Y014750D03*
X025950Y014740D03*
X025950Y014730D03*
X025950Y014720D03*
X025950Y014710D03*
X026600Y015000D03*
X026610Y015010D03*
X026620Y015020D03*
X026940Y014990D03*
X027230Y014760D03*
X027290Y015260D03*
X027750Y015040D03*
X028550Y015110D03*
X028560Y015120D03*
X028560Y015130D03*
X028570Y015140D03*
X028580Y015160D03*
X028960Y015070D03*
X028970Y015060D03*
X029230Y014770D03*
X028700Y016370D03*
X028700Y016380D03*
X028700Y016390D03*
X028700Y016400D03*
X028700Y016410D03*
X025090Y014910D03*
X024730Y015360D03*
X024730Y015380D03*
X024720Y015390D03*
X024720Y015400D03*
X024710Y015420D03*
X022470Y015960D03*
X022440Y016210D03*
X022130Y016370D03*
X021870Y015690D03*
X021890Y014990D03*
D44*
X021780Y014730D03*
X022380Y015140D03*
X021790Y015670D03*
X023270Y015310D03*
X024670Y015310D03*
X026220Y014710D03*
X027370Y015120D03*
X028280Y015310D03*
X028250Y015810D03*
X028250Y015980D03*
X027640Y015980D03*
X027640Y015810D03*
X027380Y016140D03*
X026280Y016140D03*
X028610Y016510D03*
D45*
X028205Y015970D03*
X027335Y016280D03*
X026325Y016280D03*
X026195Y015920D03*
X025805Y015570D03*
X025805Y015560D03*
X025795Y015540D03*
X025785Y015520D03*
X025685Y015270D03*
X026255Y014740D03*
X026835Y015120D03*
X028175Y014710D03*
X028875Y015220D03*
X028865Y015240D03*
X028865Y015250D03*
X028855Y015260D03*
X024705Y015340D03*
X023195Y015720D03*
X022405Y016200D03*
X021755Y015500D03*
X021775Y014770D03*
D46*
X021780Y014750D03*
X022410Y016000D03*
X021700Y016220D03*
X023140Y016480D03*
X024650Y015710D03*
X025690Y015240D03*
X026190Y015420D03*
X027220Y015990D03*
X028260Y015300D03*
X029270Y014710D03*
D47*
X029035Y014990D03*
X029025Y015000D03*
X028445Y014980D03*
X028185Y014750D03*
X027215Y014780D03*
X026535Y014950D03*
X026295Y014780D03*
X025905Y015650D03*
X025905Y015660D03*
X024945Y014720D03*
X021965Y015180D03*
X021795Y014880D03*
X021745Y014810D03*
X028715Y016470D03*
D48*
X028670Y016500D03*
X028400Y016030D03*
X028690Y015860D03*
X028690Y015850D03*
X028690Y015840D03*
X028690Y015830D03*
X028690Y015820D03*
X028690Y015810D03*
X028690Y015800D03*
X028690Y015790D03*
X028690Y015780D03*
X028690Y015770D03*
X028690Y015760D03*
X028690Y015750D03*
X028690Y015740D03*
X028690Y015730D03*
X028680Y015630D03*
X028680Y015620D03*
X028680Y015610D03*
X028680Y015600D03*
X028680Y015590D03*
X028680Y015580D03*
X029120Y015580D03*
X029120Y015590D03*
X029120Y015600D03*
X029130Y015620D03*
X029130Y015630D03*
X029130Y015640D03*
X029130Y015650D03*
X029130Y015660D03*
X029130Y015670D03*
X029130Y015680D03*
X029130Y015690D03*
X029130Y015700D03*
X029130Y015710D03*
X029130Y015720D03*
X029130Y015730D03*
X029130Y015740D03*
X029130Y015750D03*
X029130Y015760D03*
X029130Y015770D03*
X029130Y015780D03*
X029130Y015790D03*
X029130Y015800D03*
X029130Y015810D03*
X029130Y015820D03*
X029130Y015830D03*
X029130Y015840D03*
X029130Y015850D03*
X029130Y015860D03*
X029130Y015870D03*
X029130Y015880D03*
X029140Y016000D03*
X029140Y016010D03*
X029140Y016020D03*
X029140Y016030D03*
X027950Y016030D03*
X027950Y016040D03*
X027950Y016050D03*
X027950Y016060D03*
X027950Y016070D03*
X027950Y016080D03*
X027950Y016090D03*
X027950Y016100D03*
X027950Y016110D03*
X027950Y016120D03*
X027950Y016130D03*
X027950Y016140D03*
X027950Y016150D03*
X027950Y016160D03*
X027950Y016170D03*
X027950Y016180D03*
X027950Y016190D03*
X027950Y016200D03*
X027950Y016210D03*
X027950Y016220D03*
X027950Y016230D03*
X027950Y016240D03*
X027950Y016250D03*
X027950Y016260D03*
X027950Y016270D03*
X027950Y016280D03*
X027950Y016290D03*
X027950Y016300D03*
X027950Y016310D03*
X027950Y016320D03*
X027950Y016330D03*
X027950Y016340D03*
X027950Y016350D03*
X027950Y016360D03*
X027950Y016370D03*
X027950Y016380D03*
X027950Y016390D03*
X027950Y016020D03*
X027950Y016010D03*
X027950Y016000D03*
X027950Y015990D03*
X027950Y015980D03*
X027950Y015970D03*
X027950Y015820D03*
X027950Y015810D03*
X027950Y015800D03*
X027950Y015790D03*
X027950Y015780D03*
X027950Y015770D03*
X027950Y015760D03*
X027950Y015750D03*
X027950Y015740D03*
X027950Y015730D03*
X027950Y015720D03*
X027950Y015710D03*
X027950Y015700D03*
X027950Y015690D03*
X027950Y015680D03*
X027950Y015670D03*
X027950Y015660D03*
X027950Y015650D03*
X027950Y015640D03*
X027950Y015630D03*
X027950Y015620D03*
X027950Y015610D03*
X027950Y015600D03*
X027950Y015590D03*
X027950Y015580D03*
X027950Y015570D03*
X027950Y015560D03*
X027950Y015550D03*
X027950Y015540D03*
X027950Y015530D03*
X027950Y015520D03*
X027950Y015510D03*
X027950Y015500D03*
X027950Y015490D03*
X027950Y015480D03*
X027950Y015470D03*
X027950Y015460D03*
X027950Y015450D03*
X027950Y015440D03*
X027950Y015430D03*
X027950Y015420D03*
X027950Y015410D03*
X027950Y015400D03*
X027950Y015390D03*
X027950Y015380D03*
X027950Y015370D03*
X027950Y015360D03*
X027950Y015350D03*
X027950Y015340D03*
X027950Y015330D03*
X027950Y015320D03*
X027950Y015310D03*
X027950Y015300D03*
X027950Y015290D03*
X027950Y015280D03*
X027950Y015270D03*
X027950Y015260D03*
X027950Y015250D03*
X028910Y015150D03*
X028920Y015130D03*
X029240Y014750D03*
X028180Y014720D03*
X026890Y015040D03*
X026880Y015050D03*
X026680Y015110D03*
X026730Y015260D03*
X026730Y015270D03*
X026730Y015280D03*
X026740Y015310D03*
X026740Y015320D03*
X026740Y015330D03*
X026740Y015340D03*
X026740Y015350D03*
X026220Y015460D03*
X026220Y015470D03*
X026210Y015480D03*
X026210Y015490D03*
X026200Y015500D03*
X026200Y015510D03*
X026190Y015530D03*
X026180Y015550D03*
X026170Y015570D03*
X026160Y015590D03*
X026150Y015610D03*
X026140Y015630D03*
X026130Y015650D03*
X026120Y015670D03*
X026110Y015680D03*
X025950Y015570D03*
X025950Y015560D03*
X025950Y015550D03*
X025950Y015540D03*
X025950Y015530D03*
X025950Y015520D03*
X025950Y015510D03*
X025950Y015500D03*
X025950Y015490D03*
X025950Y015480D03*
X025950Y015470D03*
X025950Y015460D03*
X025950Y015450D03*
X025950Y015440D03*
X025950Y015430D03*
X025950Y015420D03*
X025950Y015410D03*
X025950Y015400D03*
X025950Y015390D03*
X025950Y015380D03*
X025950Y015370D03*
X025950Y015360D03*
X025950Y015350D03*
X025950Y015340D03*
X025950Y015330D03*
X025950Y015320D03*
X025950Y015310D03*
X025950Y015300D03*
X025950Y015290D03*
X025950Y015280D03*
X025950Y015270D03*
X025950Y015260D03*
X025950Y015250D03*
X025950Y015240D03*
X025950Y015230D03*
X025950Y015220D03*
X025950Y015210D03*
X025950Y015200D03*
X025950Y015190D03*
X025950Y015180D03*
X025950Y015170D03*
X025950Y015160D03*
X025950Y015150D03*
X025950Y015140D03*
X025950Y015130D03*
X025950Y015120D03*
X025950Y015110D03*
X025950Y015100D03*
X025950Y015090D03*
X025950Y015080D03*
X025950Y015070D03*
X025950Y015060D03*
X025950Y015050D03*
X025950Y015040D03*
X025950Y015030D03*
X025950Y015020D03*
X025950Y015010D03*
X025950Y015000D03*
X025950Y014990D03*
X025950Y014980D03*
X025950Y014970D03*
X025950Y014960D03*
X025950Y014950D03*
X025950Y014940D03*
X025950Y014930D03*
X025950Y014920D03*
X025680Y015290D03*
X025730Y015410D03*
X025740Y015420D03*
X025740Y015430D03*
X025750Y015440D03*
X025950Y015920D03*
X025950Y016050D03*
X025950Y016060D03*
X025950Y016070D03*
X025950Y016080D03*
X025950Y016090D03*
X025950Y016100D03*
X025950Y016110D03*
X025950Y016120D03*
X025950Y016130D03*
X025950Y016140D03*
X025950Y016150D03*
X025950Y016160D03*
X025950Y016170D03*
X025950Y016180D03*
X025950Y016190D03*
X025950Y016200D03*
X025950Y016210D03*
X025950Y016220D03*
X025950Y016230D03*
X025950Y016240D03*
X025950Y016250D03*
X025950Y016260D03*
X025950Y016270D03*
X025950Y016280D03*
X025950Y016290D03*
X025950Y016300D03*
X025950Y016310D03*
X025950Y016320D03*
X025950Y016330D03*
X026340Y016150D03*
X026610Y016420D03*
X026960Y016420D03*
X025350Y015900D03*
X024720Y015350D03*
X024270Y015350D03*
X024270Y015360D03*
X024270Y015370D03*
X024270Y015380D03*
X024270Y015390D03*
X024270Y015400D03*
X024270Y015410D03*
X024270Y015420D03*
X024270Y015430D03*
X024270Y015440D03*
X024270Y015450D03*
X024270Y015460D03*
X024270Y015470D03*
X024270Y015480D03*
X024270Y015490D03*
X024270Y015500D03*
X024270Y015510D03*
X024270Y015520D03*
X024270Y015530D03*
X024270Y015540D03*
X024270Y015550D03*
X024270Y015560D03*
X024270Y015570D03*
X024270Y015580D03*
X024270Y015590D03*
X024270Y015600D03*
X024270Y015610D03*
X024270Y015760D03*
X024270Y015770D03*
X024270Y015780D03*
X024270Y015790D03*
X024270Y015800D03*
X024270Y015810D03*
X024270Y015820D03*
X024270Y015830D03*
X024270Y015840D03*
X024270Y015850D03*
X024270Y015860D03*
X024270Y015870D03*
X024270Y015880D03*
X024270Y015890D03*
X024270Y015900D03*
X024270Y015910D03*
X024270Y015920D03*
X024270Y015930D03*
X024270Y015940D03*
X024270Y015950D03*
X024270Y015960D03*
X024270Y015970D03*
X024270Y015980D03*
X024270Y015990D03*
X024270Y016000D03*
X024270Y016010D03*
X024270Y016020D03*
X024270Y016030D03*
X024270Y016040D03*
X024270Y016050D03*
X024270Y016060D03*
X024270Y016070D03*
X024270Y016080D03*
X024270Y016090D03*
X024270Y016100D03*
X024270Y016110D03*
X024270Y016120D03*
X024270Y016130D03*
X024270Y016140D03*
X024270Y016150D03*
X024270Y016160D03*
X024270Y016170D03*
X024480Y015900D03*
X024270Y015340D03*
X024270Y015330D03*
X024270Y015320D03*
X024270Y015310D03*
X024270Y015300D03*
X024270Y015290D03*
X024270Y015280D03*
X024270Y015270D03*
X024270Y015260D03*
X024270Y015250D03*
X024270Y015240D03*
X024270Y015230D03*
X024270Y015220D03*
X024270Y015210D03*
X024270Y015070D03*
X024270Y015060D03*
X024270Y015050D03*
X024270Y015040D03*
X024270Y015030D03*
X024270Y015020D03*
X024270Y015010D03*
X023790Y015010D03*
X023790Y015020D03*
X023790Y015030D03*
X023790Y015040D03*
X023790Y015050D03*
X023790Y015060D03*
X023790Y015070D03*
X023790Y015000D03*
X023790Y014990D03*
X023790Y014980D03*
X023790Y014970D03*
X023790Y014960D03*
X023790Y014950D03*
X023790Y014940D03*
X023790Y014930D03*
X023790Y014920D03*
X023790Y015210D03*
X023790Y015220D03*
X023790Y015230D03*
X023790Y015240D03*
X023790Y015250D03*
X023790Y015260D03*
X023790Y015270D03*
X023790Y015280D03*
X023790Y015290D03*
X023790Y015300D03*
X023790Y015310D03*
X023790Y015320D03*
X023790Y015330D03*
X023790Y015340D03*
X023790Y015350D03*
X023790Y015360D03*
X023790Y015370D03*
X023790Y015380D03*
X023790Y015390D03*
X023790Y015400D03*
X023790Y015410D03*
X023790Y015420D03*
X023790Y015430D03*
X023790Y015440D03*
X023790Y015450D03*
X023790Y015460D03*
X023790Y015470D03*
X023790Y015480D03*
X023790Y015490D03*
X023790Y015500D03*
X023790Y015510D03*
X023790Y015520D03*
X023790Y015530D03*
X023790Y015540D03*
X023790Y015550D03*
X023790Y015560D03*
X023790Y015570D03*
X023790Y015580D03*
X023790Y015590D03*
X023790Y015600D03*
X023790Y015610D03*
X023790Y015760D03*
X023790Y015770D03*
X023790Y015780D03*
X023790Y015790D03*
X023790Y015800D03*
X023790Y015810D03*
X023790Y015820D03*
X023790Y015830D03*
X023790Y015840D03*
X023790Y015850D03*
X023790Y015860D03*
X023790Y015870D03*
X023790Y015880D03*
X023790Y015890D03*
X023790Y015900D03*
X023790Y015910D03*
X023790Y015920D03*
X023790Y015930D03*
X023790Y015940D03*
X023790Y015950D03*
X023790Y015960D03*
X023790Y015970D03*
X023790Y015980D03*
X023790Y015990D03*
X023790Y016000D03*
X023790Y016010D03*
X023790Y016020D03*
X023790Y016030D03*
X023790Y016040D03*
X023790Y016050D03*
X023790Y016060D03*
X023790Y016070D03*
X023790Y016080D03*
X023790Y016090D03*
X023790Y016100D03*
X023790Y016110D03*
X023790Y016120D03*
X023790Y016130D03*
X023790Y016140D03*
X023790Y016150D03*
X023790Y016160D03*
X023790Y016170D03*
X022460Y015900D03*
X022460Y015890D03*
X022460Y015880D03*
X022460Y015870D03*
X022460Y015860D03*
X022460Y015850D03*
X022460Y015840D03*
X022460Y015830D03*
X022460Y015820D03*
X022460Y015810D03*
X022460Y015800D03*
X022460Y015790D03*
X022460Y015780D03*
X022460Y015770D03*
X022460Y015760D03*
X022460Y015750D03*
X022460Y015740D03*
X022460Y015730D03*
X022460Y015720D03*
X022460Y015710D03*
X022460Y015700D03*
X022460Y015690D03*
X022460Y015680D03*
X022460Y015670D03*
X022460Y015660D03*
X022460Y015650D03*
X022460Y015640D03*
X022460Y015630D03*
X022460Y015620D03*
X022460Y015610D03*
X022460Y015600D03*
X022460Y015590D03*
X022460Y015580D03*
X022460Y015570D03*
X022460Y015560D03*
X022460Y015550D03*
X022460Y015540D03*
X022460Y015530D03*
X022460Y015520D03*
X022460Y015510D03*
X022460Y015500D03*
X022460Y015490D03*
X022460Y015480D03*
X022460Y015470D03*
X022460Y015460D03*
X022460Y015450D03*
X022460Y015440D03*
X022460Y015430D03*
X022460Y015420D03*
X022460Y015410D03*
X022460Y015400D03*
X022460Y015390D03*
X022460Y015380D03*
X022460Y015370D03*
X022460Y015360D03*
X022460Y015350D03*
X022460Y015340D03*
X022460Y015330D03*
X022460Y015320D03*
X022460Y015310D03*
X022460Y015300D03*
X022080Y015410D03*
X022080Y015420D03*
X022090Y015460D03*
X022090Y015470D03*
X022090Y015480D03*
X022100Y015510D03*
X022100Y015520D03*
X022100Y015530D03*
X022110Y015570D03*
X022110Y015580D03*
X022110Y015590D03*
X022120Y015660D03*
X022070Y015380D03*
X022070Y015370D03*
X022060Y015340D03*
X022060Y015330D03*
X022050Y015310D03*
X022050Y015300D03*
X022040Y015280D03*
X021750Y015490D03*
X021900Y015900D03*
X021910Y015920D03*
X021920Y015930D03*
X021920Y015940D03*
X021930Y015950D03*
X021940Y015970D03*
X021950Y015990D03*
X021950Y016000D03*
X021960Y016010D03*
X021960Y016020D03*
X021970Y016030D03*
X021970Y016040D03*
X021980Y016050D03*
X021990Y016070D03*
X021770Y014780D03*
D49*
X021770Y015510D03*
X023750Y016320D03*
X024310Y016320D03*
X024690Y015330D03*
X025690Y015260D03*
X026200Y015430D03*
X026130Y015710D03*
X028240Y015290D03*
X028810Y015400D03*
X028820Y015380D03*
X028820Y015370D03*
X028820Y015360D03*
X028830Y015340D03*
X029260Y014720D03*
D50*
X029060Y014970D03*
X028380Y014930D03*
X028370Y014920D03*
X026750Y015130D03*
X026500Y014930D03*
X026300Y014790D03*
X025890Y015580D03*
X025890Y015590D03*
X024960Y014730D03*
X022470Y016220D03*
X021960Y015210D03*
X022010Y015100D03*
X021760Y014840D03*
X021750Y014830D03*
D51*
X025060Y016510D03*
X025710Y015920D03*
X026120Y015700D03*
X027720Y015010D03*
X027260Y014730D03*
X028850Y015270D03*
X028850Y015280D03*
X028840Y015300D03*
X028840Y015310D03*
X029250Y014730D03*
D52*
X029235Y014760D03*
X028955Y015080D03*
X028945Y015090D03*
X028605Y015210D03*
X028595Y015190D03*
X028585Y015170D03*
X028575Y015150D03*
X028185Y014730D03*
X026935Y015000D03*
X026645Y015050D03*
X026635Y015040D03*
X026625Y015030D03*
X026265Y015130D03*
X026265Y015260D03*
X026275Y014760D03*
X025695Y015350D03*
X025685Y015340D03*
X025935Y015820D03*
X025935Y015830D03*
X025935Y015840D03*
X025955Y016400D03*
X025955Y016410D03*
X025105Y016440D03*
X025105Y016450D03*
X024605Y015680D03*
X024615Y015660D03*
X024615Y015650D03*
X024625Y015630D03*
X024685Y015480D03*
X024695Y015460D03*
X024695Y015450D03*
X024705Y015440D03*
X024705Y015430D03*
X024715Y015410D03*
X025095Y014920D03*
X023325Y014970D03*
X023195Y015150D03*
X023195Y015300D03*
X022455Y015150D03*
X021865Y015280D03*
X021855Y015290D03*
X021845Y015300D03*
X021845Y015310D03*
X021835Y015320D03*
X021825Y015330D03*
X021815Y015350D03*
X021805Y015360D03*
X021795Y015380D03*
X021785Y015390D03*
X021775Y015410D03*
X021765Y015430D03*
X021755Y015450D03*
X021745Y015470D03*
X021735Y015480D03*
X021855Y015840D03*
X021865Y015850D03*
X022465Y015940D03*
X022465Y015950D03*
X021765Y014790D03*
X026625Y016450D03*
X026625Y016460D03*
X026975Y016460D03*
X026975Y016450D03*
X027955Y016430D03*
X028695Y016360D03*
X028695Y016350D03*
X028695Y016340D03*
X028695Y016330D03*
X028695Y016320D03*
X028695Y016310D03*
X028695Y016300D03*
X028695Y016290D03*
X028695Y016280D03*
D53*
X028340Y014900D03*
X028190Y014770D03*
X027790Y015070D03*
X027050Y014920D03*
X026480Y014920D03*
X024970Y014740D03*
X029210Y014820D03*
D54*
X029250Y014740D03*
X028880Y015200D03*
X028880Y015210D03*
X028870Y015230D03*
X029330Y015580D03*
X028300Y015580D03*
X028200Y015820D03*
X027690Y015820D03*
X027690Y015970D03*
X028220Y015280D03*
X027730Y015020D03*
X027250Y014740D03*
X026860Y015080D03*
X026850Y015100D03*
X026840Y015110D03*
X026210Y015450D03*
X025800Y015550D03*
X025790Y015530D03*
X025780Y015510D03*
X025780Y015500D03*
X025770Y015490D03*
X025680Y015280D03*
D55*
X025920Y015730D03*
X025920Y015740D03*
X025920Y015750D03*
X025970Y016440D03*
X026590Y014990D03*
X026960Y014970D03*
X027220Y014770D03*
X026280Y014770D03*
X028180Y014740D03*
X028490Y015030D03*
X028500Y015040D03*
X028510Y015050D03*
X028180Y015260D03*
X028990Y015030D03*
X029230Y014780D03*
X022480Y015980D03*
X021970Y015160D03*
X021990Y015140D03*
X022000Y015130D03*
X021870Y014960D03*
X021860Y014950D03*
D56*
X022195Y015000D03*
X024975Y014750D03*
X026315Y014810D03*
X027805Y015080D03*
X028185Y014780D03*
X028295Y014870D03*
X029205Y014840D03*
D57*
X028925Y015120D03*
X028915Y015140D03*
X028635Y015290D03*
X028635Y015300D03*
X028645Y015320D03*
X028645Y015330D03*
X028645Y015340D03*
X028655Y015360D03*
X028655Y015370D03*
X028655Y015380D03*
X028655Y015390D03*
X028665Y015400D03*
X028665Y015410D03*
X028665Y015420D03*
X028665Y015430D03*
X028685Y015640D03*
X028685Y015650D03*
X028685Y015660D03*
X028685Y015670D03*
X028685Y015680D03*
X028685Y015690D03*
X028685Y015700D03*
X028685Y015710D03*
X028685Y015720D03*
X028695Y015870D03*
X028695Y015880D03*
X028695Y015890D03*
X028695Y015900D03*
X028695Y015910D03*
X028695Y015920D03*
X028695Y015930D03*
X028695Y015940D03*
X028695Y015950D03*
X028695Y015960D03*
X028695Y015970D03*
X028695Y015980D03*
X028695Y015990D03*
X028695Y016000D03*
X028695Y016010D03*
X028695Y016020D03*
X028695Y016030D03*
X028695Y016170D03*
X028695Y016180D03*
X028695Y016190D03*
X028695Y016200D03*
X028695Y016210D03*
X028695Y016220D03*
X028695Y016230D03*
X028695Y016240D03*
X029135Y015990D03*
X029135Y015980D03*
X029135Y015970D03*
X029135Y015960D03*
X029135Y015950D03*
X029135Y015940D03*
X029135Y015930D03*
X029135Y015920D03*
X029135Y015910D03*
X029135Y015900D03*
X029135Y015890D03*
X029125Y015610D03*
X029315Y015430D03*
X027945Y016400D03*
X026965Y016430D03*
X026615Y016430D03*
X025945Y016380D03*
X025945Y016370D03*
X025945Y016360D03*
X025945Y016350D03*
X025945Y016340D03*
X025345Y016060D03*
X025105Y016060D03*
X025105Y016070D03*
X025105Y016080D03*
X025105Y016090D03*
X025105Y016100D03*
X025105Y016110D03*
X025105Y016120D03*
X025105Y016130D03*
X025105Y016140D03*
X025105Y016150D03*
X025105Y016160D03*
X025105Y016170D03*
X025105Y016180D03*
X025105Y016190D03*
X025105Y016200D03*
X025105Y016210D03*
X025105Y016220D03*
X025105Y016230D03*
X025105Y016240D03*
X025105Y016250D03*
X025105Y016260D03*
X025105Y016270D03*
X025105Y016280D03*
X025105Y016290D03*
X025105Y016300D03*
X025105Y016310D03*
X025105Y016320D03*
X025105Y016330D03*
X025105Y016340D03*
X024485Y016060D03*
X025105Y015900D03*
X025105Y015890D03*
X025105Y015880D03*
X025105Y015870D03*
X025105Y015860D03*
X025105Y015850D03*
X025105Y015840D03*
X025105Y015830D03*
X025105Y015820D03*
X025105Y015810D03*
X025105Y015800D03*
X025105Y015790D03*
X025105Y015780D03*
X025105Y015770D03*
X025105Y015760D03*
X025105Y015750D03*
X025105Y015740D03*
X025105Y015730D03*
X025105Y015720D03*
X025105Y015710D03*
X025105Y015700D03*
X025105Y015690D03*
X025105Y015680D03*
X025105Y015670D03*
X025105Y015660D03*
X025105Y015650D03*
X025105Y015640D03*
X025105Y015630D03*
X025105Y015620D03*
X025105Y015610D03*
X025105Y015600D03*
X025105Y015590D03*
X025105Y015580D03*
X025105Y015570D03*
X025105Y015560D03*
X025105Y015550D03*
X025105Y015540D03*
X025105Y015530D03*
X025105Y015520D03*
X025105Y015510D03*
X025105Y015500D03*
X025105Y015490D03*
X025105Y015480D03*
X025105Y015470D03*
X025105Y015460D03*
X025105Y015450D03*
X025105Y015440D03*
X025105Y015430D03*
X025105Y015420D03*
X025105Y015410D03*
X025105Y015400D03*
X025105Y015390D03*
X025105Y015380D03*
X025105Y015370D03*
X025105Y015360D03*
X025105Y015350D03*
X025105Y015340D03*
X025105Y015330D03*
X025105Y015320D03*
X025105Y015310D03*
X025105Y015300D03*
X025105Y015290D03*
X025105Y015280D03*
X025105Y015270D03*
X025105Y015260D03*
X025105Y015250D03*
X025105Y015240D03*
X025105Y015230D03*
X025105Y015220D03*
X025105Y015210D03*
X025105Y015200D03*
X025105Y015190D03*
X025105Y015180D03*
X025105Y015170D03*
X025105Y015160D03*
X025105Y015150D03*
X025105Y015140D03*
X025105Y015130D03*
X025105Y015120D03*
X025105Y015110D03*
X025105Y015100D03*
X025105Y015090D03*
X025105Y015080D03*
X025105Y015070D03*
X025105Y015060D03*
X025105Y015050D03*
X025105Y015040D03*
X025105Y015030D03*
X025105Y015020D03*
X025105Y015010D03*
X025105Y015000D03*
X025105Y014990D03*
X025105Y014980D03*
X025105Y014970D03*
X025105Y014960D03*
X025105Y014950D03*
X025105Y014940D03*
X025715Y015380D03*
X025725Y015400D03*
X025945Y015880D03*
X025945Y015890D03*
X025945Y015900D03*
X025945Y015910D03*
X026745Y015390D03*
X026745Y015380D03*
X026745Y015370D03*
X026745Y015360D03*
X026735Y015300D03*
X026735Y015290D03*
X026685Y015120D03*
X026675Y015100D03*
X026675Y015090D03*
X026665Y015080D03*
X026905Y015030D03*
X027305Y015130D03*
X027235Y014750D03*
X026265Y014750D03*
X025945Y014910D03*
X024275Y014910D03*
X024275Y014920D03*
X024275Y014930D03*
X024275Y014940D03*
X024275Y014950D03*
X024275Y014960D03*
X024275Y014970D03*
X024275Y014980D03*
X024275Y014990D03*
X024275Y015000D03*
X024275Y014900D03*
X023785Y014900D03*
X023785Y014910D03*
X023785Y014890D03*
X023785Y014880D03*
X023785Y014870D03*
X023785Y014860D03*
X023785Y014850D03*
X023785Y014840D03*
X023785Y014830D03*
X023785Y014820D03*
X023785Y014810D03*
X022845Y015300D03*
X022845Y015310D03*
X022845Y015320D03*
X022845Y015330D03*
X022845Y015340D03*
X022845Y015350D03*
X022845Y015360D03*
X022845Y015370D03*
X022845Y015380D03*
X022845Y015390D03*
X022845Y015400D03*
X022845Y015410D03*
X022845Y015420D03*
X022845Y015430D03*
X022845Y015440D03*
X022845Y015450D03*
X022845Y015460D03*
X022845Y015470D03*
X022845Y015480D03*
X022845Y015490D03*
X022845Y015500D03*
X022845Y015510D03*
X022845Y015520D03*
X022845Y015530D03*
X022845Y015540D03*
X022845Y015550D03*
X022845Y015560D03*
X022845Y015570D03*
X022845Y015580D03*
X022845Y015590D03*
X022845Y015600D03*
X022845Y015610D03*
X022845Y015620D03*
X022845Y015630D03*
X022845Y015640D03*
X022845Y015650D03*
X022845Y015660D03*
X022845Y015670D03*
X022845Y015680D03*
X022845Y015690D03*
X022845Y015700D03*
X022845Y015710D03*
X022845Y015720D03*
X022845Y015870D03*
X022845Y015880D03*
X022845Y015890D03*
X022845Y015900D03*
X022845Y015910D03*
X022845Y015920D03*
X022845Y015930D03*
X022845Y015940D03*
X022845Y015950D03*
X022845Y015960D03*
X022845Y015970D03*
X022845Y015980D03*
X022845Y015990D03*
X022845Y016000D03*
X022845Y016010D03*
X022845Y016020D03*
X022845Y016030D03*
X022845Y016040D03*
X022845Y016050D03*
X022845Y016060D03*
X022845Y016070D03*
X022845Y016080D03*
X022845Y016090D03*
X022845Y016100D03*
X022845Y016110D03*
X022845Y016120D03*
X022845Y016130D03*
X022845Y016140D03*
X022845Y016150D03*
X022845Y016160D03*
X022845Y016170D03*
X022845Y016180D03*
X022845Y016190D03*
X022845Y016200D03*
X022845Y016210D03*
X022845Y016220D03*
X022845Y016230D03*
X022845Y016240D03*
X022465Y015930D03*
X022465Y015920D03*
X022465Y015910D03*
X022125Y015690D03*
X022125Y015680D03*
X022125Y015670D03*
X022115Y015650D03*
X022115Y015640D03*
X022115Y015630D03*
X022115Y015620D03*
X022115Y015610D03*
X022115Y015600D03*
X022105Y015560D03*
X022105Y015550D03*
X022105Y015540D03*
X022095Y015500D03*
X022095Y015490D03*
X022085Y015450D03*
X022085Y015440D03*
X022085Y015430D03*
X022075Y015400D03*
X022075Y015390D03*
X022065Y015360D03*
X022065Y015350D03*
X022055Y015320D03*
X022045Y015290D03*
X021885Y015880D03*
X021895Y015890D03*
X021905Y015910D03*
X021985Y016060D03*
X021995Y016080D03*
X021995Y016090D03*
X022005Y016100D03*
X022005Y016110D03*
X022015Y016120D03*
X022015Y016130D03*
X022025Y016140D03*
X022025Y016150D03*
X022035Y016170D03*
X022045Y016190D03*
X022055Y016210D03*
X022065Y016230D03*
D58*
X021950Y015260D03*
X024980Y014760D03*
X026440Y014900D03*
X027190Y014820D03*
X028280Y014860D03*
D59*
X028185Y014760D03*
X028395Y014940D03*
X028405Y014950D03*
X029215Y014810D03*
X027205Y014790D03*
X027025Y014930D03*
X025895Y015600D03*
X025895Y015610D03*
X023075Y016430D03*
D60*
X023070Y014770D03*
D61*
X022025Y015070D03*
X021945Y015270D03*
X022505Y016230D03*
X024985Y014770D03*
X026315Y014820D03*
X028265Y014850D03*
X029125Y014930D03*
X029205Y014850D03*
D62*
X028940Y015100D03*
X028930Y015110D03*
X028620Y015240D03*
X028620Y015250D03*
X028620Y015260D03*
X028630Y015270D03*
X028630Y015280D03*
X028640Y015310D03*
X028650Y015350D03*
X028610Y015230D03*
X028610Y015220D03*
X028600Y015200D03*
X028590Y015180D03*
X028200Y015270D03*
X027740Y015030D03*
X026920Y015010D03*
X026910Y015020D03*
X026660Y015070D03*
X026650Y015060D03*
X025950Y014900D03*
X025950Y014890D03*
X025950Y014880D03*
X025950Y014870D03*
X025950Y014860D03*
X025950Y014850D03*
X025950Y014840D03*
X025950Y014830D03*
X025950Y014820D03*
X025950Y014810D03*
X025950Y014800D03*
X025950Y014790D03*
X025950Y014780D03*
X025950Y014770D03*
X025670Y015300D03*
X025700Y015360D03*
X025710Y015370D03*
X025720Y015390D03*
X025940Y015850D03*
X025940Y015860D03*
X025940Y015870D03*
X025950Y016390D03*
X026620Y016440D03*
X026970Y016440D03*
X027950Y016420D03*
X027950Y016410D03*
X028690Y016270D03*
X028690Y016260D03*
X028690Y016250D03*
X025100Y016350D03*
X025100Y016360D03*
X025100Y016370D03*
X025100Y016380D03*
X025100Y016390D03*
X025100Y016400D03*
X025100Y016410D03*
X025100Y016420D03*
X025100Y016430D03*
X024610Y015670D03*
X024620Y015640D03*
X024630Y015620D03*
X024630Y015610D03*
X024640Y015600D03*
X024640Y015590D03*
X024640Y015580D03*
X024650Y015570D03*
X024650Y015560D03*
X024660Y015550D03*
X024660Y015540D03*
X024660Y015530D03*
X024670Y015520D03*
X024670Y015510D03*
X024680Y015500D03*
X024680Y015490D03*
X024690Y015470D03*
X025100Y014930D03*
X023100Y016450D03*
X022060Y016220D03*
X022050Y016200D03*
X022040Y016180D03*
X022030Y016160D03*
X021750Y016230D03*
X021880Y015870D03*
X021870Y015860D03*
X021750Y015460D03*
X021760Y015440D03*
X021770Y015420D03*
X021780Y015400D03*
X021800Y015370D03*
X021820Y015340D03*
D63*
X023010Y014780D03*
D64*
X022220Y014990D03*
X023040Y016410D03*
X024980Y014780D03*
X026420Y014890D03*
X027100Y014900D03*
X027180Y014830D03*
X028190Y014790D03*
X028250Y014840D03*
X029200Y014860D03*
D65*
X022970Y014790D03*
X022690Y016300D03*
D66*
X024985Y014800D03*
X024985Y014790D03*
X027825Y015090D03*
X028235Y014830D03*
D67*
X028450Y014990D03*
X028460Y015000D03*
X028470Y015010D03*
X029220Y014790D03*
X028710Y016460D03*
X026990Y014950D03*
X026550Y014960D03*
X025910Y015670D03*
X025910Y015680D03*
X025910Y015690D03*
X025120Y016490D03*
X025120Y016500D03*
X025070Y014900D03*
X022000Y015120D03*
X021830Y014910D03*
X021820Y014900D03*
X021810Y014890D03*
D68*
X022935Y014800D03*
D69*
X022175Y015010D03*
X022015Y015090D03*
X021955Y015230D03*
X021955Y015240D03*
X023055Y016420D03*
X026305Y014800D03*
X026465Y014910D03*
X028325Y014890D03*
X029095Y014950D03*
X029205Y014830D03*
D70*
X029075Y014960D03*
X028355Y014910D03*
X027195Y014800D03*
X023265Y014960D03*
X021955Y015220D03*
X021735Y014820D03*
D71*
X022035Y015050D03*
X022245Y014980D03*
X024985Y014820D03*
X024985Y014810D03*
X028185Y014800D03*
X028195Y014810D03*
D72*
X028420Y014960D03*
X028430Y014970D03*
X028160Y015250D03*
X027780Y015060D03*
X027010Y014940D03*
X026520Y014940D03*
X025900Y015620D03*
X025900Y015630D03*
X025900Y015640D03*
X028720Y016480D03*
X028720Y016490D03*
X029050Y014980D03*
X029220Y014800D03*
X022010Y015110D03*
X021960Y015190D03*
X021960Y015200D03*
X021790Y014870D03*
X021780Y014860D03*
X021770Y014850D03*
D73*
X022910Y014810D03*
X022840Y016340D03*
X028770Y016060D03*
X028770Y016050D03*
X028770Y016040D03*
D74*
X029110Y014940D03*
X028310Y014880D03*
X027190Y014810D03*
X027070Y014910D03*
X022020Y015080D03*
X021950Y015250D03*
D75*
X022885Y014820D03*
D76*
X022030Y015060D03*
X026320Y014830D03*
X026390Y014880D03*
X027180Y014840D03*
X028210Y014820D03*
X029150Y014920D03*
X029200Y014870D03*
D77*
X022875Y014830D03*
D78*
X024980Y014830D03*
X027180Y014850D03*
X029200Y014880D03*
D79*
X024915Y015910D03*
X024915Y015920D03*
X024915Y015930D03*
X024915Y015940D03*
X024915Y015950D03*
X024915Y015960D03*
X024915Y015970D03*
X024915Y015980D03*
X024915Y015990D03*
X024915Y016000D03*
X024915Y016010D03*
X024915Y016020D03*
X024915Y016030D03*
X024915Y016040D03*
X024915Y016050D03*
X022855Y014840D03*
X022785Y016330D03*
D80*
X022535Y016240D03*
X024985Y014840D03*
X026325Y014840D03*
X026365Y014870D03*
X028075Y015220D03*
X028075Y015230D03*
X028075Y015240D03*
X029175Y014910D03*
D81*
X022840Y014850D03*
D82*
X022280Y014970D03*
X022040Y015040D03*
X023020Y016400D03*
X024980Y014860D03*
X024980Y014850D03*
X027140Y014890D03*
X027840Y015100D03*
X029200Y014890D03*
D83*
X028065Y015210D03*
X027175Y014860D03*
X026325Y014850D03*
X024975Y014870D03*
D84*
X022825Y014860D03*
D85*
X023190Y014950D03*
X021990Y015700D03*
X024970Y014890D03*
X024970Y014880D03*
X026340Y014860D03*
X029200Y014900D03*
D86*
X022810Y014870D03*
D87*
X021985Y015710D03*
X021985Y015720D03*
X021985Y015730D03*
X027175Y014870D03*
X027855Y015110D03*
D88*
X022805Y014880D03*
D89*
X022315Y014960D03*
X027175Y014880D03*
D90*
X022790Y014890D03*
D91*
X022780Y014900D03*
D92*
X022775Y014910D03*
D93*
X021965Y015170D03*
X021855Y014940D03*
X021845Y014930D03*
X021835Y014920D03*
X022485Y015990D03*
X023085Y016440D03*
X025115Y016480D03*
X025915Y015720D03*
X025915Y015710D03*
X025915Y015700D03*
X026575Y014980D03*
X026565Y014970D03*
X026975Y014960D03*
X027765Y015050D03*
X028485Y015020D03*
X029005Y015020D03*
X029015Y015010D03*
X028705Y016450D03*
D94*
X022770Y014920D03*
D95*
X022760Y014930D03*
D96*
X022755Y014940D03*
D97*
X022375Y014950D03*
X021935Y016340D03*
X027895Y015130D03*
D98*
X027875Y015120D03*
X022055Y015020D03*
X021975Y015790D03*
D99*
X021980Y015760D03*
X021980Y015750D03*
X021980Y015740D03*
X022050Y015030D03*
D100*
X024030Y015080D03*
X024030Y015090D03*
X024030Y015100D03*
X024030Y015110D03*
X024030Y015120D03*
X024030Y015130D03*
X024030Y015140D03*
X024030Y015150D03*
X024030Y015160D03*
X024030Y015170D03*
X024030Y015180D03*
X024030Y015190D03*
X024030Y015200D03*
X024030Y015620D03*
X024030Y015630D03*
X024030Y015640D03*
X024030Y015650D03*
X024030Y015660D03*
X024030Y015670D03*
X024030Y015680D03*
X024030Y015690D03*
X024030Y015700D03*
X024030Y015710D03*
X024030Y015720D03*
X024030Y015730D03*
X024030Y015740D03*
X024030Y015750D03*
X024030Y016180D03*
X024030Y016190D03*
X024030Y016200D03*
X024030Y016210D03*
X024030Y016220D03*
X024030Y016230D03*
X024030Y016240D03*
X024030Y016250D03*
X024030Y016260D03*
D101*
X026780Y015250D03*
X026780Y015240D03*
X026780Y015230D03*
X026780Y015220D03*
X026780Y015210D03*
X026780Y015200D03*
X026780Y015190D03*
X026780Y015180D03*
X026780Y015170D03*
X026780Y015160D03*
X026780Y015150D03*
X026780Y015140D03*
D102*
X027920Y015140D03*
X027980Y015180D03*
D103*
X027945Y015150D03*
X027945Y015830D03*
X027945Y015840D03*
X027945Y015850D03*
X027945Y015860D03*
X027945Y015870D03*
X027945Y015880D03*
X027945Y015890D03*
X027945Y015900D03*
X027945Y015910D03*
X027945Y015920D03*
X027945Y015930D03*
X027945Y015940D03*
X027945Y015950D03*
X027945Y015960D03*
D104*
X028780Y016150D03*
X028780Y016160D03*
X026800Y015960D03*
X026800Y015950D03*
X026800Y015440D03*
X026800Y015430D03*
X026800Y015420D03*
X022830Y015230D03*
X022830Y015220D03*
X022830Y015210D03*
X022830Y015200D03*
X022830Y015190D03*
X022830Y015180D03*
X022830Y015170D03*
X022830Y015160D03*
D105*
X027945Y015160D03*
D106*
X027950Y015170D03*
X024030Y016270D03*
X024030Y016280D03*
X024030Y016290D03*
X024030Y016300D03*
X024030Y016310D03*
X022640Y016280D03*
D107*
X021925Y016300D03*
X021925Y016310D03*
X028015Y015190D03*
D108*
X028040Y015200D03*
X023000Y016390D03*
X021980Y015780D03*
X021980Y015770D03*
D109*
X022835Y015290D03*
X022835Y015280D03*
X022835Y015270D03*
X022835Y015260D03*
X022835Y015250D03*
X022835Y015240D03*
X026795Y015450D03*
X026795Y015460D03*
X026795Y015470D03*
X026795Y015480D03*
X026795Y015490D03*
X026795Y015500D03*
X026795Y015640D03*
X026795Y015650D03*
X026795Y015660D03*
X026795Y015670D03*
X026795Y015680D03*
X026795Y015690D03*
X026795Y015700D03*
X026795Y015710D03*
X026795Y015720D03*
X026795Y015730D03*
X026795Y015740D03*
X026795Y015880D03*
X026795Y015890D03*
X026795Y015900D03*
X026795Y015910D03*
X026795Y015920D03*
X026795Y015930D03*
X026795Y015940D03*
X028775Y016070D03*
X028775Y016080D03*
X028775Y016090D03*
X028775Y016100D03*
X028775Y016110D03*
X028775Y016120D03*
X028775Y016130D03*
X028775Y016140D03*
D110*
X026795Y015980D03*
X026795Y015970D03*
X026795Y015410D03*
X026795Y015400D03*
D111*
X028815Y015440D03*
X028815Y015450D03*
X028815Y015460D03*
X028815Y015470D03*
X028815Y015480D03*
X028815Y015490D03*
X028815Y015500D03*
X028815Y015510D03*
X028815Y015520D03*
X028815Y015530D03*
X028815Y015540D03*
X028815Y015550D03*
X028815Y015560D03*
X028815Y015570D03*
D112*
X023010Y015730D03*
X023010Y015740D03*
X023010Y015750D03*
X023010Y015760D03*
X023010Y015770D03*
X023010Y015780D03*
X023010Y015790D03*
X023010Y015800D03*
X023010Y015810D03*
X023010Y015820D03*
X023010Y015830D03*
X023010Y015840D03*
X023010Y015850D03*
X023010Y015860D03*
X021970Y015800D03*
X021910Y016240D03*
X021910Y016250D03*
D113*
X021915Y016260D03*
X021915Y016270D03*
X021965Y015810D03*
D114*
X022625Y016250D03*
X022625Y016260D03*
X022625Y016270D03*
X022955Y016370D03*
X025955Y016040D03*
X025955Y016030D03*
X025955Y016020D03*
X025955Y016010D03*
X025955Y016000D03*
X025955Y015990D03*
X025955Y015980D03*
X025955Y015970D03*
X025955Y015960D03*
X025955Y015950D03*
X025955Y015940D03*
X025955Y015930D03*
D115*
X026830Y016160D03*
X026830Y016170D03*
X026830Y016180D03*
X026830Y016190D03*
X026830Y016200D03*
X026830Y016210D03*
X026830Y016220D03*
X026830Y016230D03*
X026830Y016240D03*
X026830Y016250D03*
X026830Y016260D03*
X026830Y016270D03*
D116*
X021920Y016280D03*
X021920Y016290D03*
D117*
X022660Y016290D03*
D118*
X022720Y016310D03*
D119*
X022980Y016380D03*
X021930Y016330D03*
X021930Y016320D03*
D120*
X022760Y016320D03*
D121*
X021940Y016350D03*
X021940Y016360D03*
D122*
X022885Y016350D03*
D123*
X022925Y016360D03*
D124*
X021090Y019005D02*
X021090Y019312D01*
X021090Y019465D02*
X020707Y019465D01*
X020630Y019542D01*
X020630Y019696D01*
X020707Y019772D01*
X021090Y019772D01*
X021014Y019926D02*
X020860Y019926D01*
X020783Y020002D01*
X020783Y020233D01*
X020630Y020233D02*
X021090Y020233D01*
X021090Y020002D01*
X021014Y019926D01*
X021090Y020386D02*
X020630Y020386D01*
X021090Y020693D01*
X020630Y020693D01*
X020630Y020847D02*
X020630Y021000D01*
X020630Y020923D02*
X021090Y020923D01*
X021090Y020847D02*
X021090Y021000D01*
X021090Y019158D02*
X020630Y019158D01*
X017280Y020949D02*
X016820Y020949D01*
X017050Y020949D02*
X017050Y021256D01*
X016973Y021410D02*
X016820Y021563D01*
X017280Y021563D01*
X017280Y021410D02*
X017280Y021717D01*
X017280Y021256D02*
X016820Y021256D01*
X026649Y021320D02*
X026649Y021780D01*
X026879Y021780D01*
X026956Y021704D01*
X026956Y021550D01*
X026879Y021473D01*
X026649Y021473D01*
X026803Y021473D02*
X026956Y021320D01*
X027110Y021320D02*
X027417Y021627D01*
X027417Y021704D01*
X027340Y021780D01*
X027186Y021780D01*
X027110Y021704D01*
X027110Y021320D02*
X027417Y021320D01*
X030420Y021319D02*
X030420Y021012D01*
X030420Y021165D02*
X030880Y021165D01*
X030803Y020858D02*
X030420Y020858D01*
X030420Y020552D02*
X030803Y020552D01*
X030880Y020628D01*
X030880Y020782D01*
X030803Y020858D01*
X030650Y020398D02*
X030727Y020321D01*
X030727Y020091D01*
X030880Y020091D02*
X030420Y020091D01*
X030420Y020321D01*
X030496Y020398D01*
X030650Y020398D01*
X030420Y019938D02*
X030420Y019631D01*
X030420Y019784D02*
X030880Y019784D01*
X030803Y019477D02*
X030420Y019477D01*
X030420Y019170D02*
X030803Y019170D01*
X030880Y019247D01*
X030880Y019401D01*
X030803Y019477D01*
X030803Y019017D02*
X030496Y019017D01*
X030420Y018940D01*
X030420Y018787D01*
X030496Y018710D01*
X030803Y018710D01*
X030880Y018787D01*
X030880Y018940D01*
X030803Y019017D01*
X034320Y018561D02*
X034320Y018407D01*
X034396Y018330D01*
X034320Y018177D02*
X034780Y018177D01*
X034780Y018330D02*
X034473Y018637D01*
X034396Y018637D01*
X034320Y018561D01*
X034550Y018177D02*
X034550Y017870D01*
X034780Y017870D02*
X034320Y017870D01*
X034780Y018330D02*
X034780Y018637D01*
X033678Y024111D02*
X033678Y024269D01*
X033402Y024269D02*
X033402Y024111D01*
D125*
X024755Y022290D03*
D126*
X023085Y020803D02*
X023085Y020610D01*
X022892Y020803D01*
X022843Y020803D01*
X022795Y020755D01*
X022795Y020658D01*
X022843Y020610D01*
X022843Y020508D02*
X022795Y020460D01*
X022795Y020363D01*
X022843Y020315D01*
X023037Y020315D01*
X023085Y020363D01*
X023085Y020460D01*
X023037Y020508D01*
X022590Y020037D02*
X022350Y020037D01*
X022318Y019719D01*
X022211Y019685D01*
X022111Y019634D01*
X021864Y019836D01*
X021694Y019666D01*
X021896Y019419D01*
X021845Y019319D01*
X021811Y019212D01*
X021493Y019180D01*
X021493Y018940D01*
X021811Y018908D01*
X021845Y018801D01*
X021896Y018701D01*
X021694Y018454D01*
X021864Y018284D01*
X022111Y018486D01*
X022211Y018435D01*
X022352Y018776D01*
X022299Y018804D01*
X022252Y018842D01*
X022214Y018889D01*
X022186Y018942D01*
X022168Y019000D01*
X022162Y019060D01*
X022169Y019123D01*
X022188Y019183D01*
X022219Y019238D01*
X022261Y019285D01*
X022311Y019323D01*
X022368Y019350D01*
X022430Y019365D01*
X022493Y019367D01*
X022555Y019356D01*
X022614Y019332D01*
X022666Y019297D01*
X022710Y019252D01*
X022745Y019199D01*
X022767Y019140D01*
X022777Y019077D01*
X022774Y019014D01*
X022758Y018953D01*
X022730Y018896D01*
X022692Y018847D01*
X023110Y018847D01*
X023119Y018875D02*
X022714Y018875D01*
X022734Y018904D02*
X023128Y018904D01*
X023129Y018908D02*
X023447Y018940D01*
X023447Y019180D01*
X023129Y019212D01*
X023095Y019319D01*
X023044Y019419D01*
X023246Y019666D01*
X023076Y019836D01*
X022829Y019634D01*
X022729Y019685D01*
X022622Y019719D01*
X022590Y020037D01*
X022592Y020015D02*
X022348Y020015D01*
X022345Y019987D02*
X022595Y019987D01*
X022598Y019958D02*
X022342Y019958D01*
X022339Y019930D02*
X022601Y019930D01*
X022604Y019901D02*
X022336Y019901D01*
X022333Y019873D02*
X022607Y019873D01*
X022610Y019844D02*
X022330Y019844D01*
X022328Y019816D02*
X022612Y019816D01*
X022615Y019787D02*
X022325Y019787D01*
X022322Y019759D02*
X022618Y019759D01*
X022621Y019730D02*
X022319Y019730D01*
X022263Y019702D02*
X022677Y019702D01*
X022752Y019673D02*
X022188Y019673D01*
X022132Y019645D02*
X022808Y019645D01*
X022842Y019645D02*
X023228Y019645D01*
X023238Y019673D02*
X022877Y019673D01*
X022912Y019702D02*
X023210Y019702D01*
X023181Y019730D02*
X022947Y019730D01*
X022982Y019759D02*
X023153Y019759D01*
X023124Y019787D02*
X023017Y019787D01*
X023052Y019816D02*
X023096Y019816D01*
X023205Y019616D02*
X021735Y019616D01*
X021758Y019588D02*
X023182Y019588D01*
X023158Y019559D02*
X021782Y019559D01*
X021805Y019531D02*
X023135Y019531D01*
X023112Y019502D02*
X021828Y019502D01*
X021851Y019474D02*
X023089Y019474D01*
X023066Y019445D02*
X021874Y019445D01*
X021895Y019417D02*
X023045Y019417D01*
X023060Y019388D02*
X021880Y019388D01*
X021866Y019360D02*
X022408Y019360D01*
X022328Y019331D02*
X021851Y019331D01*
X021840Y019303D02*
X022284Y019303D01*
X022251Y019274D02*
X021830Y019274D01*
X021821Y019246D02*
X022226Y019246D01*
X022207Y019217D02*
X021812Y019217D01*
X021579Y019189D02*
X022191Y019189D01*
X022181Y019160D02*
X021493Y019160D01*
X021493Y019132D02*
X022172Y019132D01*
X022167Y019103D02*
X021493Y019103D01*
X021493Y019075D02*
X022164Y019075D01*
X022164Y019046D02*
X021493Y019046D01*
X021493Y019018D02*
X022167Y019018D01*
X022172Y018989D02*
X021493Y018989D01*
X021493Y018961D02*
X022180Y018961D01*
X022191Y018932D02*
X021571Y018932D01*
X021812Y018904D02*
X022206Y018904D01*
X022226Y018875D02*
X021821Y018875D01*
X021830Y018847D02*
X022249Y018847D01*
X022282Y018818D02*
X021839Y018818D01*
X021851Y018790D02*
X022326Y018790D01*
X022346Y018761D02*
X021865Y018761D01*
X021880Y018733D02*
X022334Y018733D01*
X022323Y018704D02*
X021895Y018704D01*
X021875Y018676D02*
X022311Y018676D01*
X022299Y018647D02*
X021852Y018647D01*
X021829Y018619D02*
X022287Y018619D01*
X022275Y018590D02*
X021805Y018590D01*
X021782Y018562D02*
X022264Y018562D01*
X022252Y018533D02*
X021759Y018533D01*
X021736Y018505D02*
X022240Y018505D01*
X022228Y018476D02*
X022131Y018476D01*
X022099Y018476D02*
X021712Y018476D01*
X021701Y018448D02*
X022064Y018448D01*
X022029Y018419D02*
X021729Y018419D01*
X021758Y018391D02*
X021994Y018391D01*
X021959Y018362D02*
X021786Y018362D01*
X021815Y018334D02*
X021924Y018334D01*
X021889Y018305D02*
X021843Y018305D01*
X022186Y018448D02*
X022216Y018448D01*
X022653Y018619D02*
X023111Y018619D01*
X023088Y018647D02*
X022641Y018647D01*
X022629Y018676D02*
X023065Y018676D01*
X023044Y018701D02*
X023095Y018801D01*
X023129Y018908D01*
X023101Y018818D02*
X022658Y018818D01*
X022643Y018806D02*
X022588Y018776D01*
X022729Y018435D01*
X022829Y018486D01*
X023076Y018284D01*
X023246Y018454D01*
X023044Y018701D01*
X023045Y018704D02*
X022617Y018704D01*
X022606Y018733D02*
X023060Y018733D01*
X023075Y018761D02*
X022594Y018761D01*
X022613Y018790D02*
X023089Y018790D01*
X023135Y018590D02*
X022665Y018590D01*
X022676Y018562D02*
X023158Y018562D01*
X023181Y018533D02*
X022688Y018533D01*
X022700Y018505D02*
X023204Y018505D01*
X023228Y018476D02*
X022841Y018476D01*
X022809Y018476D02*
X022712Y018476D01*
X022724Y018448D02*
X022754Y018448D01*
X022876Y018448D02*
X023239Y018448D01*
X023211Y018419D02*
X022911Y018419D01*
X022946Y018391D02*
X023182Y018391D01*
X023154Y018362D02*
X022981Y018362D01*
X023016Y018334D02*
X023125Y018334D01*
X023097Y018305D02*
X023051Y018305D01*
X022643Y018806D02*
X022692Y018847D01*
X022748Y018932D02*
X023369Y018932D01*
X023447Y018961D02*
X022760Y018961D01*
X022768Y018989D02*
X023447Y018989D01*
X023447Y019018D02*
X022774Y019018D01*
X022776Y019046D02*
X023447Y019046D01*
X023447Y019075D02*
X022777Y019075D01*
X022773Y019103D02*
X023447Y019103D01*
X023447Y019132D02*
X022768Y019132D01*
X022759Y019160D02*
X023447Y019160D01*
X023361Y019189D02*
X022748Y019189D01*
X022733Y019217D02*
X023128Y019217D01*
X023119Y019246D02*
X022714Y019246D01*
X022689Y019274D02*
X023110Y019274D01*
X023100Y019303D02*
X022658Y019303D01*
X022615Y019331D02*
X023089Y019331D01*
X023074Y019360D02*
X022532Y019360D01*
X022098Y019645D02*
X021712Y019645D01*
X021702Y019673D02*
X022063Y019673D01*
X022028Y019702D02*
X021730Y019702D01*
X021759Y019730D02*
X021993Y019730D01*
X021958Y019759D02*
X021787Y019759D01*
X021816Y019787D02*
X021923Y019787D01*
X021888Y019816D02*
X021844Y019816D01*
X019665Y020733D02*
X019617Y020685D01*
X019520Y020685D01*
X019472Y020733D01*
X019472Y020782D01*
X019520Y020830D01*
X019617Y020830D01*
X019665Y020878D01*
X019665Y020927D01*
X019617Y020975D01*
X019520Y020975D01*
X019472Y020927D01*
X019370Y020975D02*
X019274Y020975D01*
X019322Y020975D02*
X019322Y020685D01*
X019370Y020685D02*
X019274Y020685D01*
X019174Y020733D02*
X019126Y020685D01*
X019029Y020685D01*
X018980Y020733D01*
X018980Y020830D01*
X019077Y020830D01*
X018980Y020927D02*
X019029Y020975D01*
X019126Y020975D01*
X019174Y020927D01*
X019174Y020733D01*
X032425Y022716D02*
X032425Y022861D01*
X032473Y022909D01*
X032570Y022909D01*
X032618Y022861D01*
X032618Y022716D01*
X032618Y022812D02*
X032715Y022909D01*
X032715Y023010D02*
X032715Y023204D01*
X032715Y023107D02*
X032425Y023107D01*
X032522Y023010D01*
X032425Y022716D02*
X032715Y022716D01*
X032945Y022660D02*
X032993Y022708D01*
X033090Y022708D01*
X033138Y022660D01*
X033138Y022515D01*
X033138Y022612D02*
X033235Y022708D01*
X033187Y022810D02*
X033235Y022858D01*
X033235Y022955D01*
X033187Y023003D01*
X033138Y023003D01*
X033090Y022955D01*
X033090Y022906D01*
X033090Y022955D02*
X033042Y023003D01*
X032993Y023003D01*
X032945Y022955D01*
X032945Y022858D01*
X032993Y022810D01*
X032945Y022660D02*
X032945Y022515D01*
X033235Y022515D01*
X033981Y023441D02*
X034271Y023441D01*
X034271Y023635D01*
X034271Y023736D02*
X034271Y023929D01*
X034271Y024031D02*
X034271Y024176D01*
X034223Y024224D01*
X034029Y024224D01*
X033981Y024176D01*
X033981Y024031D01*
X034271Y024031D01*
X034126Y023833D02*
X034126Y023736D01*
X033981Y023736D02*
X034271Y023736D01*
X033981Y023736D02*
X033981Y023929D01*
X034029Y024325D02*
X033981Y024374D01*
X033981Y024470D01*
X034029Y024519D01*
X034078Y024519D01*
X034271Y024325D01*
X034271Y024519D01*
D127*
X026255Y020009D02*
X026255Y018691D01*
X024345Y018694D02*
X024345Y020009D01*
X026160Y020108D02*
X026170Y020108D01*
D128*
X024544Y018911D02*
X024546Y018938D01*
X024552Y018965D01*
X024561Y018991D01*
X024574Y019015D01*
X024590Y019038D01*
X024609Y019057D01*
X024631Y019074D01*
X024655Y019088D01*
X024680Y019098D01*
X024707Y019105D01*
X024734Y019108D01*
X024762Y019107D01*
X024789Y019102D01*
X024815Y019094D01*
X024839Y019082D01*
X024862Y019066D01*
X024883Y019048D01*
X024900Y019027D01*
X024915Y019003D01*
X024926Y018978D01*
X024934Y018952D01*
X024938Y018925D01*
X024938Y018897D01*
X024934Y018870D01*
X024926Y018844D01*
X024915Y018819D01*
X024900Y018795D01*
X024883Y018774D01*
X024862Y018756D01*
X024840Y018740D01*
X024815Y018728D01*
X024789Y018720D01*
X024762Y018715D01*
X024734Y018714D01*
X024707Y018717D01*
X024680Y018724D01*
X024655Y018734D01*
X024631Y018748D01*
X024609Y018765D01*
X024590Y018784D01*
X024574Y018807D01*
X024561Y018831D01*
X024552Y018857D01*
X024546Y018884D01*
X024544Y018911D01*
D129*
X024150Y018907D02*
X024150Y019057D01*
X024075Y019132D01*
X024150Y019292D02*
X024150Y019593D01*
X024150Y019442D02*
X023700Y019442D01*
X023850Y019292D01*
X023775Y019132D02*
X023700Y019057D01*
X023700Y018907D01*
X023775Y018832D01*
X024075Y018832D01*
X024150Y018907D01*
X024150Y018675D02*
X024150Y018525D01*
X024150Y018600D02*
X023700Y018600D01*
X023700Y018525D02*
X023700Y018675D01*
X019550Y018850D02*
X019550Y017850D01*
X019300Y017850D01*
X019300Y018850D01*
X019550Y018850D01*
X019300Y018850D02*
X019300Y020850D01*
X019550Y020850D01*
X019550Y021850D01*
X019300Y021850D01*
X019300Y020850D01*
X019300Y021850D02*
X017300Y021850D01*
X017300Y017850D01*
X019300Y017850D01*
X016193Y014637D02*
X016195Y014676D01*
X016201Y014715D01*
X016211Y014753D01*
X016224Y014790D01*
X016241Y014825D01*
X016261Y014859D01*
X016285Y014890D01*
X016312Y014919D01*
X016341Y014945D01*
X016373Y014968D01*
X016407Y014988D01*
X016443Y015004D01*
X016480Y015016D01*
X016519Y015025D01*
X016558Y015030D01*
X016597Y015031D01*
X016636Y015028D01*
X016675Y015021D01*
X016712Y015010D01*
X016749Y014996D01*
X016784Y014978D01*
X016817Y014957D01*
X016848Y014932D01*
X016876Y014905D01*
X016901Y014875D01*
X016923Y014842D01*
X016942Y014808D01*
X016957Y014772D01*
X016969Y014734D01*
X016977Y014696D01*
X016981Y014657D01*
X016981Y014617D01*
X016977Y014578D01*
X016969Y014540D01*
X016957Y014502D01*
X016942Y014466D01*
X016923Y014432D01*
X016901Y014399D01*
X016876Y014369D01*
X016848Y014342D01*
X016817Y014317D01*
X016784Y014296D01*
X016749Y014278D01*
X016712Y014264D01*
X016675Y014253D01*
X016636Y014246D01*
X016597Y014243D01*
X016558Y014244D01*
X016519Y014249D01*
X016480Y014258D01*
X016443Y014270D01*
X016407Y014286D01*
X016373Y014306D01*
X016341Y014329D01*
X016312Y014355D01*
X016285Y014384D01*
X016261Y014415D01*
X016241Y014449D01*
X016224Y014484D01*
X016211Y014521D01*
X016201Y014559D01*
X016195Y014598D01*
X016193Y014637D01*
X015800Y014637D02*
X015800Y024874D01*
X016193Y024874D02*
X016195Y024913D01*
X016201Y024952D01*
X016211Y024990D01*
X016224Y025027D01*
X016241Y025062D01*
X016261Y025096D01*
X016285Y025127D01*
X016312Y025156D01*
X016341Y025182D01*
X016373Y025205D01*
X016407Y025225D01*
X016443Y025241D01*
X016480Y025253D01*
X016519Y025262D01*
X016558Y025267D01*
X016597Y025268D01*
X016636Y025265D01*
X016675Y025258D01*
X016712Y025247D01*
X016749Y025233D01*
X016784Y025215D01*
X016817Y025194D01*
X016848Y025169D01*
X016876Y025142D01*
X016901Y025112D01*
X016923Y025079D01*
X016942Y025045D01*
X016957Y025009D01*
X016969Y024971D01*
X016977Y024933D01*
X016981Y024894D01*
X016981Y024854D01*
X016977Y024815D01*
X016969Y024777D01*
X016957Y024739D01*
X016942Y024703D01*
X016923Y024669D01*
X016901Y024636D01*
X016876Y024606D01*
X016848Y024579D01*
X016817Y024554D01*
X016784Y024533D01*
X016749Y024515D01*
X016712Y024501D01*
X016675Y024490D01*
X016636Y024483D01*
X016597Y024480D01*
X016558Y024481D01*
X016519Y024486D01*
X016480Y024495D01*
X016443Y024507D01*
X016407Y024523D01*
X016373Y024543D01*
X016341Y024566D01*
X016312Y024592D01*
X016285Y024621D01*
X016261Y024652D01*
X016241Y024686D01*
X016224Y024721D01*
X016211Y024758D01*
X016201Y024796D01*
X016195Y024835D01*
X016193Y024874D01*
X015800Y024874D02*
X015802Y024928D01*
X015807Y024981D01*
X015816Y025034D01*
X015829Y025086D01*
X015845Y025138D01*
X015865Y025188D01*
X015888Y025236D01*
X015915Y025283D01*
X015944Y025328D01*
X015977Y025371D01*
X016012Y025411D01*
X016050Y025449D01*
X016090Y025484D01*
X016133Y025517D01*
X016178Y025546D01*
X016225Y025573D01*
X016273Y025596D01*
X016323Y025616D01*
X016375Y025632D01*
X016427Y025645D01*
X016480Y025654D01*
X016533Y025659D01*
X016587Y025661D01*
X034698Y025661D01*
X034304Y024874D02*
X034306Y024913D01*
X034312Y024952D01*
X034322Y024990D01*
X034335Y025027D01*
X034352Y025062D01*
X034372Y025096D01*
X034396Y025127D01*
X034423Y025156D01*
X034452Y025182D01*
X034484Y025205D01*
X034518Y025225D01*
X034554Y025241D01*
X034591Y025253D01*
X034630Y025262D01*
X034669Y025267D01*
X034708Y025268D01*
X034747Y025265D01*
X034786Y025258D01*
X034823Y025247D01*
X034860Y025233D01*
X034895Y025215D01*
X034928Y025194D01*
X034959Y025169D01*
X034987Y025142D01*
X035012Y025112D01*
X035034Y025079D01*
X035053Y025045D01*
X035068Y025009D01*
X035080Y024971D01*
X035088Y024933D01*
X035092Y024894D01*
X035092Y024854D01*
X035088Y024815D01*
X035080Y024777D01*
X035068Y024739D01*
X035053Y024703D01*
X035034Y024669D01*
X035012Y024636D01*
X034987Y024606D01*
X034959Y024579D01*
X034928Y024554D01*
X034895Y024533D01*
X034860Y024515D01*
X034823Y024501D01*
X034786Y024490D01*
X034747Y024483D01*
X034708Y024480D01*
X034669Y024481D01*
X034630Y024486D01*
X034591Y024495D01*
X034554Y024507D01*
X034518Y024523D01*
X034484Y024543D01*
X034452Y024566D01*
X034423Y024592D01*
X034396Y024621D01*
X034372Y024652D01*
X034352Y024686D01*
X034335Y024721D01*
X034322Y024758D01*
X034312Y024796D01*
X034306Y024835D01*
X034304Y024874D01*
X034698Y025661D02*
X034752Y025659D01*
X034805Y025654D01*
X034858Y025645D01*
X034910Y025632D01*
X034962Y025616D01*
X035012Y025596D01*
X035060Y025573D01*
X035107Y025546D01*
X035152Y025517D01*
X035195Y025484D01*
X035235Y025449D01*
X035273Y025411D01*
X035308Y025371D01*
X035341Y025328D01*
X035370Y025283D01*
X035397Y025236D01*
X035420Y025188D01*
X035440Y025138D01*
X035456Y025086D01*
X035469Y025034D01*
X035478Y024981D01*
X035483Y024928D01*
X035485Y024874D01*
X035485Y014637D01*
X034304Y014637D02*
X034306Y014676D01*
X034312Y014715D01*
X034322Y014753D01*
X034335Y014790D01*
X034352Y014825D01*
X034372Y014859D01*
X034396Y014890D01*
X034423Y014919D01*
X034452Y014945D01*
X034484Y014968D01*
X034518Y014988D01*
X034554Y015004D01*
X034591Y015016D01*
X034630Y015025D01*
X034669Y015030D01*
X034708Y015031D01*
X034747Y015028D01*
X034786Y015021D01*
X034823Y015010D01*
X034860Y014996D01*
X034895Y014978D01*
X034928Y014957D01*
X034959Y014932D01*
X034987Y014905D01*
X035012Y014875D01*
X035034Y014842D01*
X035053Y014808D01*
X035068Y014772D01*
X035080Y014734D01*
X035088Y014696D01*
X035092Y014657D01*
X035092Y014617D01*
X035088Y014578D01*
X035080Y014540D01*
X035068Y014502D01*
X035053Y014466D01*
X035034Y014432D01*
X035012Y014399D01*
X034987Y014369D01*
X034959Y014342D01*
X034928Y014317D01*
X034895Y014296D01*
X034860Y014278D01*
X034823Y014264D01*
X034786Y014253D01*
X034747Y014246D01*
X034708Y014243D01*
X034669Y014244D01*
X034630Y014249D01*
X034591Y014258D01*
X034554Y014270D01*
X034518Y014286D01*
X034484Y014306D01*
X034452Y014329D01*
X034423Y014355D01*
X034396Y014384D01*
X034372Y014415D01*
X034352Y014449D01*
X034335Y014484D01*
X034322Y014521D01*
X034312Y014559D01*
X034306Y014598D01*
X034304Y014637D01*
X034698Y013850D02*
X034752Y013852D01*
X034805Y013857D01*
X034858Y013866D01*
X034910Y013879D01*
X034962Y013895D01*
X035012Y013915D01*
X035060Y013938D01*
X035107Y013965D01*
X035152Y013994D01*
X035195Y014027D01*
X035235Y014062D01*
X035273Y014100D01*
X035308Y014140D01*
X035341Y014183D01*
X035370Y014228D01*
X035397Y014275D01*
X035420Y014323D01*
X035440Y014373D01*
X035456Y014425D01*
X035469Y014477D01*
X035478Y014530D01*
X035483Y014583D01*
X035485Y014637D01*
X034698Y013850D02*
X016587Y013850D01*
X015800Y013850D01*
X015800Y014637D02*
X015802Y014583D01*
X015807Y014530D01*
X015816Y014477D01*
X015829Y014425D01*
X015845Y014373D01*
X015865Y014323D01*
X015888Y014275D01*
X015915Y014228D01*
X015944Y014183D01*
X015977Y014140D01*
X016012Y014100D01*
X016050Y014062D01*
X016090Y014027D01*
X016133Y013994D01*
X016178Y013965D01*
X016225Y013938D01*
X016273Y013915D01*
X016323Y013895D01*
X016375Y013879D01*
X016427Y013866D01*
X016480Y013857D01*
X016533Y013852D01*
X016587Y013850D01*
X032050Y017850D02*
X032050Y018850D01*
X032300Y018850D01*
X032300Y017850D01*
X032050Y017850D01*
X032300Y017850D02*
X034300Y017850D01*
X034300Y021850D01*
X032300Y021850D01*
X032050Y021850D01*
X032050Y020850D01*
X032300Y020850D01*
X032300Y018850D01*
X032300Y020850D02*
X032300Y021850D01*
D130*
X023412Y020650D02*
X023388Y020650D01*
D131*
X021013Y021924D02*
X021013Y025507D01*
X027587Y025507D01*
X027587Y021924D01*
X021013Y021924D01*
X021013Y024719D02*
X027587Y024719D01*
X027587Y025507D02*
X027587Y026294D01*
X027154Y026294D01*
X027154Y025546D01*
X025639Y025546D02*
X025639Y027948D01*
X025442Y028066D01*
X023158Y028066D01*
X022961Y027948D01*
X022961Y025546D01*
X023001Y025625D02*
X025599Y025831D01*
X025599Y026028D02*
X023001Y025822D01*
X023001Y026019D02*
X025599Y026225D01*
X025599Y026422D02*
X023001Y026215D01*
X023001Y026412D02*
X025599Y026619D01*
X025599Y026816D02*
X023001Y026609D01*
X023001Y026806D02*
X025599Y027013D01*
X025599Y027209D02*
X023001Y027003D01*
X023001Y027200D02*
X025599Y027406D01*
X025599Y027603D02*
X023001Y027396D01*
X023001Y027593D02*
X025599Y027800D01*
X025511Y027997D02*
X023001Y027790D01*
X023158Y028066D02*
X023158Y029444D01*
X025442Y029444D01*
X025442Y028066D01*
X028611Y025306D02*
X028611Y023594D01*
X033189Y023594D01*
X033189Y025306D01*
X028611Y025306D01*
D132*
X033560Y022840D03*
D133*
X033427Y024141D03*
D134*
X031280Y023256D02*
X031070Y023045D01*
X030845Y023150D02*
X030740Y023256D01*
X030530Y023256D01*
X030425Y023150D01*
X030425Y023045D01*
X030530Y022940D01*
X030740Y022940D01*
X030845Y022835D01*
X030845Y022730D01*
X030740Y022625D01*
X030530Y022625D01*
X030425Y022730D01*
X031070Y022625D02*
X031490Y022625D01*
X031280Y022625D02*
X031280Y023256D01*
D135*
X032000Y022950D03*
D136*
X028303Y019017D03*
X028303Y018968D03*
X028268Y018933D03*
X028198Y019003D03*
X027813Y018198D03*
D137*
X027924Y018968D03*
X027994Y019052D03*
X028036Y019003D03*
X028064Y019017D03*
X028134Y018947D03*
X028386Y018933D03*
X028519Y018982D03*
X028659Y018198D03*
D138*
X028268Y018940D03*
X028303Y019024D03*
X028198Y019010D03*
X028093Y018996D03*
X027813Y018205D03*
X027358Y020214D03*
X029108Y020200D03*
D139*
X029114Y020214D03*
X028134Y018954D03*
X028134Y018940D03*
X028036Y018996D03*
X027994Y018940D03*
X028659Y018205D03*
D140*
X028656Y018212D03*
X028481Y018933D03*
X028523Y019003D03*
X028523Y019038D03*
X028481Y019052D03*
X028264Y018947D03*
X028138Y018968D03*
X027991Y018947D03*
X027816Y018212D03*
X027361Y020207D03*
X029104Y020193D03*
X029111Y020207D03*
D141*
X029100Y020186D03*
X028309Y018954D03*
X028260Y018961D03*
X028064Y019024D03*
X027924Y019031D03*
X027924Y018961D03*
X027819Y018219D03*
D142*
X027988Y018954D03*
X027988Y019031D03*
X028141Y018975D03*
X028198Y018989D03*
X028198Y018996D03*
X028526Y019010D03*
X028526Y019024D03*
X028526Y019031D03*
X028526Y018961D03*
X028653Y018219D03*
X027371Y020179D03*
X027371Y020186D03*
D143*
X029097Y020179D03*
X028376Y019045D03*
X028313Y019045D03*
X028257Y018989D03*
X028257Y018975D03*
X028145Y018989D03*
X028145Y018996D03*
X028068Y019031D03*
X027984Y019024D03*
X027984Y018961D03*
X028376Y018954D03*
X028530Y018954D03*
X027823Y018226D03*
D144*
X028653Y018226D03*
X028534Y018940D03*
X028373Y018961D03*
X028316Y018940D03*
X028254Y018996D03*
X028149Y019010D03*
X028373Y019031D03*
X029094Y020165D03*
X027379Y020165D03*
D145*
X027924Y019038D03*
X027980Y019017D03*
X027980Y018968D03*
X027819Y018233D03*
D146*
X028653Y018233D03*
X028534Y018947D03*
X028373Y019038D03*
X028316Y019052D03*
X028254Y019003D03*
X028149Y019017D03*
D147*
X028152Y019024D03*
X028152Y019031D03*
X027977Y019010D03*
X028369Y019024D03*
X028649Y018240D03*
X027823Y018240D03*
X027382Y020151D03*
D148*
X027973Y019003D03*
X028155Y019038D03*
X028155Y019052D03*
X028365Y019017D03*
X028645Y018247D03*
X027826Y018247D03*
D149*
X027830Y018254D03*
X027970Y018996D03*
X027389Y020130D03*
D150*
X027928Y018940D03*
X028243Y019045D03*
X028362Y019010D03*
X028642Y018254D03*
D151*
X028355Y018996D03*
X027830Y018261D03*
X027396Y020116D03*
X029069Y020109D03*
D152*
X027403Y020109D03*
X028453Y019031D03*
X028453Y019024D03*
X028453Y019010D03*
X028453Y018975D03*
X028453Y018961D03*
X028453Y018954D03*
X028642Y018261D03*
D153*
X028201Y018933D03*
X027830Y018268D03*
X029069Y020102D03*
D154*
X027403Y020102D03*
X028453Y019038D03*
X028453Y019017D03*
X028453Y019003D03*
X028453Y018982D03*
X028453Y018968D03*
X028453Y018947D03*
X028642Y018268D03*
D155*
X028638Y018275D03*
X027833Y018275D03*
X027406Y020095D03*
X029065Y020095D03*
D156*
X029062Y020088D03*
X027837Y018282D03*
D157*
X028635Y018282D03*
X027410Y020088D03*
D158*
X027837Y018296D03*
X027837Y018289D03*
X028635Y018289D03*
X028635Y018296D03*
D159*
X027840Y018303D03*
D160*
X028631Y018303D03*
D161*
X028628Y018310D03*
X027844Y018310D03*
X027431Y020039D03*
X027424Y020046D03*
X029041Y020039D03*
D162*
X027844Y018317D03*
D163*
X028628Y018317D03*
X027438Y020018D03*
D164*
X027441Y020011D03*
X029030Y020011D03*
X028625Y018331D03*
X028625Y018324D03*
X027848Y018324D03*
X027848Y018331D03*
D165*
X027851Y018338D03*
X028621Y018338D03*
D166*
X028621Y018345D03*
X027851Y018345D03*
X027459Y019976D03*
X027452Y019990D03*
X029013Y019976D03*
D167*
X027854Y018352D03*
D168*
X028618Y018352D03*
D169*
X027854Y018359D03*
X029009Y019969D03*
D170*
X027463Y019969D03*
X028618Y018359D03*
D171*
X028614Y018366D03*
X027858Y018366D03*
X027466Y019955D03*
D172*
X027858Y018373D03*
X028614Y018373D03*
D173*
X028610Y018380D03*
X027861Y018380D03*
X027483Y019920D03*
X027476Y019934D03*
X028988Y019920D03*
D174*
X028985Y019913D03*
X027480Y019927D03*
X027865Y018387D03*
D175*
X028607Y018387D03*
X027487Y019913D03*
D176*
X027865Y018394D03*
D177*
X028607Y018394D03*
D178*
X027865Y018401D03*
X027494Y019899D03*
D179*
X028978Y019899D03*
X028607Y018401D03*
D180*
X028603Y018408D03*
X027868Y018408D03*
X028974Y019892D03*
D181*
X028964Y019871D03*
X027508Y019871D03*
X027872Y018415D03*
D182*
X028600Y018415D03*
D183*
X027869Y018422D03*
X027511Y019857D03*
D184*
X028600Y018422D03*
D185*
X028600Y018429D03*
X027872Y018429D03*
X027515Y019850D03*
X028957Y019850D03*
D186*
X027875Y018436D03*
D187*
X028596Y018436D03*
D188*
X028593Y018443D03*
X027879Y018443D03*
X027529Y019822D03*
D189*
X027879Y018450D03*
D190*
X028593Y018450D03*
D191*
X027879Y018457D03*
X027536Y019808D03*
X028936Y019808D03*
D192*
X028593Y018457D03*
D193*
X028590Y018464D03*
X027883Y018464D03*
X027540Y019801D03*
X028933Y019801D03*
D194*
X028929Y019794D03*
X028586Y018471D03*
X027886Y018471D03*
D195*
X027886Y018478D03*
X028586Y018478D03*
D196*
X028586Y018485D03*
X027886Y018485D03*
X027557Y019766D03*
D197*
X027560Y019752D03*
X027889Y018492D03*
D198*
X028583Y018492D03*
X028911Y019752D03*
D199*
X028908Y019745D03*
X028236Y018856D03*
X028579Y018499D03*
X027893Y018499D03*
X027564Y019745D03*
D200*
X028898Y019731D03*
X027896Y018506D03*
D201*
X028575Y018506D03*
D202*
X028575Y018513D03*
X027896Y018513D03*
D203*
X027896Y018520D03*
X027700Y018940D03*
X027581Y019710D03*
X028890Y019710D03*
X028575Y018520D03*
D204*
X027900Y018527D03*
X027704Y018947D03*
X027690Y019052D03*
X027585Y019703D03*
D205*
X028887Y019703D03*
X028572Y018527D03*
D206*
X028569Y018534D03*
X027904Y018534D03*
X027708Y018961D03*
X027694Y019045D03*
X027589Y019696D03*
X028876Y019689D03*
X028884Y019696D03*
D207*
X027700Y019031D03*
X027903Y018541D03*
X028568Y018541D03*
D208*
X028568Y018548D03*
X027903Y018548D03*
X028869Y019668D03*
D209*
X028866Y019661D03*
X028754Y018961D03*
X027907Y018555D03*
X027711Y018975D03*
X027711Y019010D03*
X027704Y019024D03*
X027606Y019661D03*
D210*
X028565Y018555D03*
D211*
X027910Y018562D03*
X027714Y018982D03*
X027714Y019003D03*
X027609Y019647D03*
D212*
X028863Y019647D03*
X028758Y019017D03*
X028561Y018562D03*
D213*
X028750Y018996D03*
X027910Y018569D03*
D214*
X028561Y018569D03*
X028758Y019031D03*
X028849Y019626D03*
X027624Y019626D03*
D215*
X027627Y019619D03*
X028754Y019045D03*
X028747Y018989D03*
X028558Y018576D03*
X027914Y018576D03*
D216*
X027914Y018583D03*
X028558Y018583D03*
X027627Y019612D03*
D217*
X027918Y018590D03*
D218*
X028554Y018590D03*
X028841Y019605D03*
X027630Y019605D03*
D219*
X027645Y019577D03*
X028828Y019577D03*
X028555Y018597D03*
X027918Y018597D03*
D220*
X027921Y018604D03*
X027921Y018611D03*
X028551Y018611D03*
X028551Y018604D03*
X028824Y019570D03*
D221*
X028820Y019563D03*
X027651Y019563D03*
X027924Y018618D03*
D222*
X028548Y018618D03*
D223*
X027924Y018625D03*
X027665Y019535D03*
D224*
X028806Y019535D03*
X028548Y018625D03*
D225*
X028544Y018632D03*
X027928Y018632D03*
X027669Y019528D03*
X028803Y019528D03*
D226*
X027673Y019521D03*
X027931Y018639D03*
D227*
X028540Y018639D03*
X028540Y018646D03*
X028799Y019521D03*
D228*
X028796Y019514D03*
X028789Y019500D03*
X027683Y019500D03*
X027676Y019514D03*
X027928Y018646D03*
D229*
X027931Y018653D03*
X028540Y018653D03*
X028785Y019493D03*
X027686Y019493D03*
D230*
X027690Y019486D03*
X028236Y018835D03*
X027935Y018660D03*
D231*
X028537Y018660D03*
X028782Y019486D03*
D232*
X028779Y019472D03*
X028534Y018667D03*
X027939Y018667D03*
X027694Y019472D03*
D233*
X027938Y018681D03*
X027938Y018674D03*
X028533Y018674D03*
X028533Y018681D03*
X028764Y019451D03*
D234*
X028761Y019437D03*
X027711Y019437D03*
X027942Y018688D03*
D235*
X028530Y018688D03*
D236*
X027945Y018695D03*
X027714Y019430D03*
D237*
X028758Y019430D03*
X028526Y018695D03*
D238*
X027945Y018702D03*
D239*
X028526Y018702D03*
X028744Y019402D03*
X027729Y019402D03*
D240*
X027945Y018709D03*
D241*
X028526Y018709D03*
X028744Y019409D03*
X027729Y019409D03*
D242*
X027732Y019395D03*
X027949Y018716D03*
X028523Y018716D03*
D243*
X027953Y018723D03*
D244*
X028519Y018723D03*
X028736Y019388D03*
X027735Y019388D03*
D245*
X027750Y019360D03*
X027953Y018730D03*
X028520Y018730D03*
X028723Y019360D03*
D246*
X028236Y018737D03*
D247*
X028236Y018744D03*
D248*
X028236Y018751D03*
D249*
X028236Y018758D03*
D250*
X028236Y018765D03*
D251*
X028236Y018772D03*
D252*
X028236Y018779D03*
D253*
X028236Y018786D03*
D254*
X028236Y018793D03*
D255*
X028233Y018800D03*
D256*
X028236Y018807D03*
X027844Y019157D03*
D257*
X027809Y019234D03*
X027809Y019241D03*
X028236Y018814D03*
D258*
X028236Y018821D03*
X027767Y019325D03*
D259*
X028236Y018828D03*
D260*
X028236Y018842D03*
D261*
X028233Y018849D03*
X028758Y019024D03*
X028863Y019654D03*
D262*
X028785Y018863D03*
X027686Y018863D03*
D263*
X027837Y018863D03*
X027998Y018933D03*
X027928Y019017D03*
X028607Y018863D03*
X029118Y020228D03*
D264*
X027354Y020228D03*
X028096Y019003D03*
X028131Y018933D03*
X027865Y018863D03*
X028635Y018863D03*
D265*
X028236Y018863D03*
D266*
X028236Y018870D03*
D267*
X028236Y018877D03*
D268*
X028233Y018884D03*
D269*
X028236Y018891D03*
X028236Y018905D03*
X028236Y018919D03*
X028236Y018926D03*
D270*
X028236Y018912D03*
X028236Y018898D03*
D271*
X027697Y018933D03*
X027578Y019717D03*
X028894Y019717D03*
D272*
X029080Y020123D03*
X027393Y020123D03*
X028065Y019052D03*
X028065Y018968D03*
X028065Y018947D03*
X028065Y018933D03*
X027925Y018933D03*
X028359Y019003D03*
D273*
X028320Y018933D03*
X028250Y019017D03*
X029090Y020158D03*
D274*
X027382Y020158D03*
X028068Y019038D03*
X027977Y018982D03*
X027928Y018947D03*
X028201Y018968D03*
X028369Y018968D03*
X028537Y018933D03*
D275*
X028765Y018933D03*
X028876Y019682D03*
X027595Y019682D03*
D276*
X028065Y018975D03*
X028065Y018961D03*
X028065Y018954D03*
X028065Y018940D03*
X028198Y018940D03*
X028359Y018989D03*
X029073Y020116D03*
X029080Y020130D03*
D277*
X027361Y020200D03*
X027928Y019024D03*
X027991Y019045D03*
X028089Y018989D03*
X028138Y018961D03*
X028264Y018954D03*
X028306Y018961D03*
X028306Y019031D03*
X028383Y018940D03*
X028481Y018940D03*
X028481Y018989D03*
X028481Y018996D03*
X028523Y018975D03*
X028481Y019045D03*
D278*
X028761Y018940D03*
X027599Y019675D03*
D279*
X027389Y020137D03*
X028201Y018947D03*
D280*
X028257Y018982D03*
X028313Y018947D03*
X028145Y019003D03*
X027375Y020172D03*
X029097Y020172D03*
D281*
X027364Y020193D03*
X028085Y018982D03*
X028260Y018968D03*
X028309Y019038D03*
X028379Y019052D03*
X028379Y018947D03*
D282*
X028758Y018947D03*
X027603Y019668D03*
D283*
X027704Y018954D03*
D284*
X027924Y018954D03*
X027980Y018975D03*
D285*
X028198Y018961D03*
X028198Y018954D03*
D286*
X028758Y018954D03*
D287*
X027711Y018968D03*
D288*
X027988Y019038D03*
X028044Y018982D03*
X028141Y018982D03*
X028526Y018968D03*
X028526Y019017D03*
D289*
X028754Y018968D03*
X027711Y019017D03*
D290*
X028096Y019010D03*
X028299Y019010D03*
X028299Y018975D03*
X027354Y020221D03*
D291*
X027385Y020144D03*
X029086Y020144D03*
X028365Y018975D03*
X028246Y019024D03*
X028246Y019031D03*
X028155Y019045D03*
X028064Y019045D03*
X027973Y018989D03*
X027924Y019045D03*
D292*
X027714Y018989D03*
X027609Y019654D03*
X028855Y019640D03*
X028750Y018975D03*
D293*
X028362Y018982D03*
X028243Y019038D03*
X028243Y019052D03*
X027928Y019052D03*
X029083Y020137D03*
D294*
X028750Y018982D03*
D295*
X028040Y018989D03*
D296*
X027718Y018996D03*
X027613Y019640D03*
X028754Y019010D03*
D297*
X028754Y019003D03*
X028852Y019633D03*
X027620Y019633D03*
D298*
X028033Y019010D03*
X029118Y020221D03*
D299*
X029090Y020151D03*
X028250Y019010D03*
D300*
X027697Y019038D03*
D301*
X028758Y019038D03*
D302*
X028750Y019052D03*
X028834Y019598D03*
D303*
X028236Y019059D03*
D304*
X028233Y019066D03*
D305*
X028236Y019073D03*
X028236Y019087D03*
D306*
X028236Y019094D03*
X028236Y019101D03*
X028236Y019080D03*
D307*
X028600Y019108D03*
X027865Y019108D03*
D308*
X027865Y019115D03*
D309*
X028607Y019115D03*
D310*
X028610Y019122D03*
X027861Y019122D03*
D311*
X027858Y019129D03*
X027858Y019136D03*
D312*
X028614Y019136D03*
X028614Y019129D03*
D313*
X028618Y019143D03*
X027855Y019143D03*
D314*
X027851Y019150D03*
X028621Y019150D03*
D315*
X028624Y019157D03*
D316*
X028631Y019164D03*
X028631Y019171D03*
X027840Y019171D03*
X027840Y019164D03*
D317*
X027837Y019178D03*
D318*
X028635Y019178D03*
D319*
X028639Y019185D03*
X027834Y019185D03*
D320*
X027830Y019192D03*
X028642Y019192D03*
D321*
X028649Y019206D03*
X027823Y019206D03*
X027823Y019199D03*
D322*
X028645Y019199D03*
D323*
X027819Y019213D03*
D324*
X028653Y019213D03*
D325*
X028656Y019220D03*
X027816Y019220D03*
D326*
X027813Y019227D03*
D327*
X028659Y019227D03*
D328*
X028659Y019234D03*
D329*
X028663Y019241D03*
D330*
X027802Y019248D03*
D331*
X028666Y019248D03*
D332*
X028674Y019255D03*
X027799Y019255D03*
D333*
X027795Y019262D03*
D334*
X028677Y019262D03*
D335*
X028680Y019276D03*
X027791Y019276D03*
X027791Y019269D03*
D336*
X028677Y019269D03*
D337*
X028684Y019283D03*
X027788Y019283D03*
D338*
X027781Y019290D03*
D339*
X028688Y019290D03*
D340*
X027778Y019297D03*
D341*
X028694Y019297D03*
D342*
X028698Y019311D03*
X027774Y019311D03*
X027774Y019304D03*
D343*
X028694Y019304D03*
D344*
X027770Y019318D03*
D345*
X028701Y019318D03*
D346*
X028705Y019325D03*
D347*
X027760Y019332D03*
D348*
X028708Y019332D03*
D349*
X028708Y019339D03*
X028715Y019346D03*
X027756Y019346D03*
X027756Y019339D03*
D350*
X027753Y019353D03*
D351*
X028719Y019353D03*
D352*
X028726Y019367D03*
X027746Y019367D03*
D353*
X027743Y019374D03*
D354*
X027739Y019381D03*
X028726Y019374D03*
D355*
X028733Y019381D03*
D356*
X028740Y019395D03*
D357*
X028747Y019416D03*
X027725Y019416D03*
D358*
X027718Y019423D03*
D359*
X028750Y019423D03*
D360*
X028761Y019444D03*
X027711Y019444D03*
D361*
X027708Y019451D03*
D362*
X027704Y019458D03*
D363*
X028768Y019458D03*
D364*
X027697Y019465D03*
D365*
X027694Y019479D03*
X028771Y019465D03*
X028779Y019479D03*
D366*
X027676Y019507D03*
D367*
X028793Y019507D03*
D368*
X027662Y019542D03*
D369*
X028810Y019542D03*
D370*
X028817Y019556D03*
X027662Y019549D03*
D371*
X027655Y019556D03*
X028810Y019549D03*
D372*
X027648Y019570D03*
D373*
X027641Y019584D03*
X027641Y019591D03*
X028831Y019591D03*
D374*
X028828Y019584D03*
D375*
X027634Y019598D03*
D376*
X028845Y019612D03*
D377*
X028845Y019619D03*
D378*
X028873Y019675D03*
X027592Y019689D03*
D379*
X027578Y019724D03*
X027571Y019731D03*
X028894Y019724D03*
D380*
X027568Y019738D03*
D381*
X028904Y019738D03*
D382*
X027560Y019759D03*
D383*
X028911Y019759D03*
D384*
X028915Y019766D03*
D385*
X028918Y019773D03*
X027553Y019773D03*
D386*
X027546Y019780D03*
D387*
X027543Y019794D03*
X028922Y019780D03*
D388*
X027543Y019787D03*
D389*
X028929Y019787D03*
D390*
X027533Y019815D03*
D391*
X027525Y019829D03*
X028939Y019815D03*
D392*
X028939Y019822D03*
D393*
X028943Y019829D03*
X027522Y019836D03*
D394*
X028950Y019836D03*
D395*
X028954Y019843D03*
X027519Y019843D03*
D396*
X028957Y019857D03*
D397*
X027511Y019864D03*
D398*
X028960Y019864D03*
D399*
X027501Y019878D03*
D400*
X028968Y019878D03*
D401*
X027498Y019885D03*
D402*
X028974Y019885D03*
D403*
X027494Y019892D03*
D404*
X027490Y019906D03*
X028981Y019906D03*
D405*
X028988Y019927D03*
D406*
X028992Y019934D03*
X028999Y019941D03*
X027473Y019941D03*
D407*
X027469Y019948D03*
D408*
X029003Y019948D03*
D409*
X029003Y019955D03*
D410*
X029006Y019962D03*
X027466Y019962D03*
D411*
X027455Y019983D03*
X027448Y019997D03*
X029016Y019983D03*
X029023Y019997D03*
D412*
X029016Y019990D03*
D413*
X027445Y020004D03*
D414*
X029027Y020004D03*
D415*
X029030Y020018D03*
D416*
X027438Y020025D03*
D417*
X029034Y020025D03*
D418*
X027434Y020032D03*
D419*
X029038Y020032D03*
D420*
X029044Y020046D03*
X027420Y020060D03*
D421*
X027424Y020053D03*
X029048Y020053D03*
D422*
X029051Y020060D03*
D423*
X029055Y020067D03*
X027417Y020067D03*
D424*
X027414Y020074D03*
X027414Y020081D03*
X029059Y020081D03*
X029059Y020074D03*
M02*
