%
M48
M72
T01C0.0120
T02C0.0200
T03C0.0315
T04C0.0400
T05C0.0472
%
T01
X17600Y22950
X20700Y21350
X23400Y22950
X27200Y20850
X29400Y20950
X29400Y22950
X23200Y17750
X17600Y17050
X33300Y16950
T02
X25500Y17150
T03
X33300Y18850
X33300Y19850
X33300Y20850
X18300Y20850
X18300Y19850
X18300Y18850
T04
X31970Y24450
X30900Y24450
X29830Y24450
T05
X26269Y24050
X24300Y24050
X22331Y24050
M30
