G75*
%MOIN*%
%OFA0B0*%
%FSLAX24Y24*%
%IPPOS*%
%LPD*%
%AMOC8*
5,1,8,0,0,1.08239X$1,22.5*
%
%ADD10C,0.0000*%
%ADD11R,0.0236X0.0630*%
%ADD12R,0.0515X0.0515*%
%ADD13C,0.0515*%
%ADD14R,0.0394X0.0433*%
%ADD15C,0.0860*%
%ADD16R,0.0315X0.0315*%
%ADD17C,0.0740*%
%ADD18C,0.0050*%
%ADD19C,0.0240*%
%ADD20C,0.0280*%
%ADD21C,0.0320*%
%ADD22C,0.0160*%
%ADD23C,0.0360*%
D10*
X000300Y000350D02*
X000300Y039720D01*
X063292Y039720D01*
X063292Y000350D01*
X000300Y000350D01*
D11*
X024550Y018305D03*
X025046Y018305D03*
X025546Y018305D03*
X026046Y018305D03*
X026050Y020395D03*
X025550Y020395D03*
X025050Y020395D03*
X024550Y020395D03*
D12*
X018300Y020850D03*
X033300Y018850D03*
D13*
X033300Y019850D03*
X033300Y020850D03*
X018300Y019850D03*
X018300Y018850D03*
D14*
X023400Y020315D03*
X023400Y020985D03*
X032000Y022615D03*
X032000Y023285D03*
X033560Y023175D03*
X033560Y022505D03*
D15*
X026269Y024050D03*
X024300Y024050D03*
X022331Y024050D03*
D16*
X033540Y023895D03*
X033540Y024485D03*
D17*
X031970Y024450D03*
X030900Y024450D03*
X029830Y024450D03*
D18*
X034304Y024874D02*
X034306Y024913D01*
X034312Y024952D01*
X034322Y024990D01*
X034335Y025027D01*
X034352Y025062D01*
X034372Y025096D01*
X034396Y025127D01*
X034423Y025156D01*
X034452Y025182D01*
X034484Y025205D01*
X034518Y025225D01*
X034554Y025241D01*
X034591Y025253D01*
X034630Y025262D01*
X034669Y025267D01*
X034708Y025268D01*
X034747Y025265D01*
X034786Y025258D01*
X034823Y025247D01*
X034860Y025233D01*
X034895Y025215D01*
X034928Y025194D01*
X034959Y025169D01*
X034987Y025142D01*
X035012Y025112D01*
X035034Y025079D01*
X035053Y025045D01*
X035068Y025009D01*
X035080Y024971D01*
X035088Y024933D01*
X035092Y024894D01*
X035092Y024854D01*
X035088Y024815D01*
X035080Y024777D01*
X035068Y024739D01*
X035053Y024703D01*
X035034Y024669D01*
X035012Y024636D01*
X034987Y024606D01*
X034959Y024579D01*
X034928Y024554D01*
X034895Y024533D01*
X034860Y024515D01*
X034823Y024501D01*
X034786Y024490D01*
X034747Y024483D01*
X034708Y024480D01*
X034669Y024481D01*
X034630Y024486D01*
X034591Y024495D01*
X034554Y024507D01*
X034518Y024523D01*
X034484Y024543D01*
X034452Y024566D01*
X034423Y024592D01*
X034396Y024621D01*
X034372Y024652D01*
X034352Y024686D01*
X034335Y024721D01*
X034322Y024758D01*
X034312Y024796D01*
X034306Y024835D01*
X034304Y024874D01*
X034698Y025661D02*
X034752Y025659D01*
X034805Y025654D01*
X034858Y025645D01*
X034910Y025632D01*
X034962Y025616D01*
X035012Y025596D01*
X035060Y025573D01*
X035107Y025546D01*
X035152Y025517D01*
X035195Y025484D01*
X035235Y025449D01*
X035273Y025411D01*
X035308Y025371D01*
X035341Y025328D01*
X035370Y025283D01*
X035397Y025236D01*
X035420Y025188D01*
X035440Y025138D01*
X035456Y025086D01*
X035469Y025034D01*
X035478Y024981D01*
X035483Y024928D01*
X035485Y024874D01*
X035485Y014637D01*
X034304Y014637D02*
X034306Y014676D01*
X034312Y014715D01*
X034322Y014753D01*
X034335Y014790D01*
X034352Y014825D01*
X034372Y014859D01*
X034396Y014890D01*
X034423Y014919D01*
X034452Y014945D01*
X034484Y014968D01*
X034518Y014988D01*
X034554Y015004D01*
X034591Y015016D01*
X034630Y015025D01*
X034669Y015030D01*
X034708Y015031D01*
X034747Y015028D01*
X034786Y015021D01*
X034823Y015010D01*
X034860Y014996D01*
X034895Y014978D01*
X034928Y014957D01*
X034959Y014932D01*
X034987Y014905D01*
X035012Y014875D01*
X035034Y014842D01*
X035053Y014808D01*
X035068Y014772D01*
X035080Y014734D01*
X035088Y014696D01*
X035092Y014657D01*
X035092Y014617D01*
X035088Y014578D01*
X035080Y014540D01*
X035068Y014502D01*
X035053Y014466D01*
X035034Y014432D01*
X035012Y014399D01*
X034987Y014369D01*
X034959Y014342D01*
X034928Y014317D01*
X034895Y014296D01*
X034860Y014278D01*
X034823Y014264D01*
X034786Y014253D01*
X034747Y014246D01*
X034708Y014243D01*
X034669Y014244D01*
X034630Y014249D01*
X034591Y014258D01*
X034554Y014270D01*
X034518Y014286D01*
X034484Y014306D01*
X034452Y014329D01*
X034423Y014355D01*
X034396Y014384D01*
X034372Y014415D01*
X034352Y014449D01*
X034335Y014484D01*
X034322Y014521D01*
X034312Y014559D01*
X034306Y014598D01*
X034304Y014637D01*
X034698Y013850D02*
X034752Y013852D01*
X034805Y013857D01*
X034858Y013866D01*
X034910Y013879D01*
X034962Y013895D01*
X035012Y013915D01*
X035060Y013938D01*
X035107Y013965D01*
X035152Y013994D01*
X035195Y014027D01*
X035235Y014062D01*
X035273Y014100D01*
X035308Y014140D01*
X035341Y014183D01*
X035370Y014228D01*
X035397Y014275D01*
X035420Y014323D01*
X035440Y014373D01*
X035456Y014425D01*
X035469Y014477D01*
X035478Y014530D01*
X035483Y014583D01*
X035485Y014637D01*
X034698Y013850D02*
X016587Y013850D01*
X015800Y013850D01*
X015800Y014637D02*
X015800Y024874D01*
X016193Y024874D02*
X016195Y024913D01*
X016201Y024952D01*
X016211Y024990D01*
X016224Y025027D01*
X016241Y025062D01*
X016261Y025096D01*
X016285Y025127D01*
X016312Y025156D01*
X016341Y025182D01*
X016373Y025205D01*
X016407Y025225D01*
X016443Y025241D01*
X016480Y025253D01*
X016519Y025262D01*
X016558Y025267D01*
X016597Y025268D01*
X016636Y025265D01*
X016675Y025258D01*
X016712Y025247D01*
X016749Y025233D01*
X016784Y025215D01*
X016817Y025194D01*
X016848Y025169D01*
X016876Y025142D01*
X016901Y025112D01*
X016923Y025079D01*
X016942Y025045D01*
X016957Y025009D01*
X016969Y024971D01*
X016977Y024933D01*
X016981Y024894D01*
X016981Y024854D01*
X016977Y024815D01*
X016969Y024777D01*
X016957Y024739D01*
X016942Y024703D01*
X016923Y024669D01*
X016901Y024636D01*
X016876Y024606D01*
X016848Y024579D01*
X016817Y024554D01*
X016784Y024533D01*
X016749Y024515D01*
X016712Y024501D01*
X016675Y024490D01*
X016636Y024483D01*
X016597Y024480D01*
X016558Y024481D01*
X016519Y024486D01*
X016480Y024495D01*
X016443Y024507D01*
X016407Y024523D01*
X016373Y024543D01*
X016341Y024566D01*
X016312Y024592D01*
X016285Y024621D01*
X016261Y024652D01*
X016241Y024686D01*
X016224Y024721D01*
X016211Y024758D01*
X016201Y024796D01*
X016195Y024835D01*
X016193Y024874D01*
X015800Y024874D02*
X015802Y024928D01*
X015807Y024981D01*
X015816Y025034D01*
X015829Y025086D01*
X015845Y025138D01*
X015865Y025188D01*
X015888Y025236D01*
X015915Y025283D01*
X015944Y025328D01*
X015977Y025371D01*
X016012Y025411D01*
X016050Y025449D01*
X016090Y025484D01*
X016133Y025517D01*
X016178Y025546D01*
X016225Y025573D01*
X016273Y025596D01*
X016323Y025616D01*
X016375Y025632D01*
X016427Y025645D01*
X016480Y025654D01*
X016533Y025659D01*
X016587Y025661D01*
X034698Y025661D01*
X016193Y014637D02*
X016195Y014676D01*
X016201Y014715D01*
X016211Y014753D01*
X016224Y014790D01*
X016241Y014825D01*
X016261Y014859D01*
X016285Y014890D01*
X016312Y014919D01*
X016341Y014945D01*
X016373Y014968D01*
X016407Y014988D01*
X016443Y015004D01*
X016480Y015016D01*
X016519Y015025D01*
X016558Y015030D01*
X016597Y015031D01*
X016636Y015028D01*
X016675Y015021D01*
X016712Y015010D01*
X016749Y014996D01*
X016784Y014978D01*
X016817Y014957D01*
X016848Y014932D01*
X016876Y014905D01*
X016901Y014875D01*
X016923Y014842D01*
X016942Y014808D01*
X016957Y014772D01*
X016969Y014734D01*
X016977Y014696D01*
X016981Y014657D01*
X016981Y014617D01*
X016977Y014578D01*
X016969Y014540D01*
X016957Y014502D01*
X016942Y014466D01*
X016923Y014432D01*
X016901Y014399D01*
X016876Y014369D01*
X016848Y014342D01*
X016817Y014317D01*
X016784Y014296D01*
X016749Y014278D01*
X016712Y014264D01*
X016675Y014253D01*
X016636Y014246D01*
X016597Y014243D01*
X016558Y014244D01*
X016519Y014249D01*
X016480Y014258D01*
X016443Y014270D01*
X016407Y014286D01*
X016373Y014306D01*
X016341Y014329D01*
X016312Y014355D01*
X016285Y014384D01*
X016261Y014415D01*
X016241Y014449D01*
X016224Y014484D01*
X016211Y014521D01*
X016201Y014559D01*
X016195Y014598D01*
X016193Y014637D01*
X015800Y014637D02*
X015802Y014583D01*
X015807Y014530D01*
X015816Y014477D01*
X015829Y014425D01*
X015845Y014373D01*
X015865Y014323D01*
X015888Y014275D01*
X015915Y014228D01*
X015944Y014183D01*
X015977Y014140D01*
X016012Y014100D01*
X016050Y014062D01*
X016090Y014027D01*
X016133Y013994D01*
X016178Y013965D01*
X016225Y013938D01*
X016273Y013915D01*
X016323Y013895D01*
X016375Y013879D01*
X016427Y013866D01*
X016480Y013857D01*
X016533Y013852D01*
X016587Y013850D01*
D19*
X017478Y014395D02*
X017526Y014637D01*
X017455Y014997D01*
X017251Y015301D01*
X016947Y015505D01*
X016587Y015576D01*
X016345Y015528D01*
X016345Y023983D01*
X016587Y023935D01*
X016947Y024006D01*
X016949Y024008D01*
X016836Y023895D01*
X016735Y023794D01*
X016680Y023662D01*
X016680Y019778D01*
X016735Y019646D01*
X016836Y019545D01*
X016968Y019490D01*
X017900Y019490D01*
X017996Y019394D01*
X018187Y019315D01*
X018117Y019292D01*
X018050Y019258D01*
X017989Y019214D01*
X017936Y019161D01*
X017892Y019100D01*
X017858Y019033D01*
X017834Y018962D01*
X017823Y018888D01*
X017823Y018850D01*
X017823Y018812D01*
X017834Y018738D01*
X017858Y018667D01*
X017892Y018600D01*
X017936Y018539D01*
X017989Y018486D01*
X018050Y018442D01*
X018117Y018408D01*
X018188Y018384D01*
X018262Y018373D01*
X018300Y018373D01*
X018338Y018373D01*
X018412Y018384D01*
X018483Y018408D01*
X018550Y018442D01*
X018611Y018486D01*
X018664Y018539D01*
X018708Y018600D01*
X018742Y018667D01*
X018766Y018738D01*
X018777Y018812D01*
X018777Y018850D01*
X018777Y018888D01*
X018766Y018962D01*
X018742Y019033D01*
X018708Y019100D01*
X018664Y019161D01*
X018611Y019214D01*
X018550Y019258D01*
X018483Y019292D01*
X018413Y019315D01*
X018604Y019394D01*
X018620Y019410D01*
X018648Y019410D01*
X018960Y019098D01*
X018960Y016592D01*
X019027Y016431D01*
X019617Y015841D01*
X019741Y015717D01*
X019902Y015650D01*
X033658Y015650D01*
X033819Y015717D01*
X034729Y016627D01*
X034853Y016751D01*
X034920Y016912D01*
X034920Y019368D01*
X034910Y019392D01*
X034910Y023977D01*
X034940Y023983D01*
X034940Y015528D01*
X034698Y015576D01*
X034338Y015505D01*
X034034Y015301D01*
X033830Y014997D01*
X033759Y014637D01*
X033807Y014395D01*
X017478Y014395D01*
X017483Y014422D02*
X033802Y014422D01*
X033763Y014660D02*
X017522Y014660D01*
X017474Y014899D02*
X033811Y014899D01*
X033924Y015137D02*
X017361Y015137D01*
X017140Y015376D02*
X034145Y015376D01*
X033955Y015853D02*
X034940Y015853D01*
X034940Y016091D02*
X034193Y016091D01*
X034432Y016330D02*
X034940Y016330D01*
X034940Y016568D02*
X034670Y016568D01*
X034876Y016807D02*
X034940Y016807D01*
X034920Y017045D02*
X034940Y017045D01*
X034920Y017284D02*
X034940Y017284D01*
X034920Y017522D02*
X034940Y017522D01*
X034920Y017761D02*
X034940Y017761D01*
X034920Y017999D02*
X034940Y017999D01*
X034920Y018238D02*
X034940Y018238D01*
X034920Y018476D02*
X034940Y018476D01*
X034920Y018715D02*
X034940Y018715D01*
X034920Y018953D02*
X034940Y018953D01*
X034920Y019192D02*
X034940Y019192D01*
X034940Y019430D02*
X034910Y019430D01*
X034910Y019669D02*
X034940Y019669D01*
X034940Y019907D02*
X034910Y019907D01*
X034910Y020146D02*
X034940Y020146D01*
X034940Y020384D02*
X034910Y020384D01*
X034910Y020623D02*
X034940Y020623D01*
X034940Y020861D02*
X034910Y020861D01*
X034910Y021100D02*
X034940Y021100D01*
X034940Y021338D02*
X034910Y021338D01*
X034910Y021577D02*
X034940Y021577D01*
X034940Y021815D02*
X034910Y021815D01*
X034910Y022054D02*
X034940Y022054D01*
X034940Y022292D02*
X034910Y022292D01*
X034910Y022531D02*
X034940Y022531D01*
X034940Y022769D02*
X034910Y022769D01*
X034910Y023008D02*
X034940Y023008D01*
X034940Y023246D02*
X034910Y023246D01*
X034910Y023485D02*
X034940Y023485D01*
X034940Y023723D02*
X034910Y023723D01*
X034910Y023962D02*
X034940Y023962D01*
X034190Y023821D02*
X034190Y020192D01*
X034149Y020233D01*
X033988Y020300D01*
X033610Y020300D01*
X033604Y020306D01*
X033413Y020385D01*
X033483Y020408D01*
X033550Y020442D01*
X033611Y020486D01*
X033664Y020539D01*
X033708Y020600D01*
X033742Y020667D01*
X033766Y020738D01*
X033777Y020812D01*
X033777Y020850D01*
X033777Y020888D01*
X033766Y020962D01*
X033742Y021033D01*
X033708Y021100D01*
X033664Y021161D01*
X033611Y021214D01*
X033550Y021258D01*
X033483Y021292D01*
X033412Y021316D01*
X033338Y021327D01*
X033300Y021327D01*
X033262Y021327D01*
X033188Y021316D01*
X033117Y021292D01*
X033050Y021258D01*
X032989Y021214D01*
X032936Y021161D01*
X032892Y021100D01*
X032858Y021033D01*
X032834Y020962D01*
X032823Y020888D01*
X032823Y020850D01*
X032823Y020812D01*
X032834Y020738D01*
X032858Y020667D01*
X032892Y020600D01*
X032936Y020539D01*
X032989Y020486D01*
X033050Y020442D01*
X033117Y020408D01*
X033187Y020385D01*
X032996Y020306D01*
X032940Y020250D01*
X032666Y020250D01*
X032400Y020516D01*
X032400Y022206D01*
X032434Y022240D01*
X032477Y022343D01*
X032477Y022888D01*
X032451Y022950D01*
X032477Y023012D01*
X032477Y023557D01*
X032434Y023660D01*
X032370Y023724D01*
X032370Y023931D01*
X032521Y024082D01*
X032620Y024321D01*
X032620Y024579D01*
X032521Y024818D01*
X032338Y025001D01*
X032099Y025100D01*
X031841Y025100D01*
X031602Y025001D01*
X031435Y024834D01*
X031268Y025001D01*
X031029Y025100D01*
X030771Y025100D01*
X030532Y025001D01*
X030349Y024818D01*
X030328Y024768D01*
X030280Y024834D01*
X030214Y024900D01*
X030139Y024955D01*
X030056Y024997D01*
X029968Y025025D01*
X029876Y025040D01*
X029830Y025040D01*
X029830Y024450D01*
X029830Y024450D01*
X029830Y023860D01*
X029876Y023860D01*
X029968Y023875D01*
X030056Y023903D01*
X030139Y023945D01*
X030214Y024000D01*
X030280Y024066D01*
X030328Y024132D01*
X030349Y024082D01*
X030500Y023931D01*
X030500Y022616D01*
X030034Y022150D01*
X025620Y022150D01*
X025473Y022089D01*
X025023Y021639D01*
X024823Y021439D01*
X024711Y021327D01*
X024650Y021180D01*
X024650Y020990D01*
X024376Y020990D01*
X024273Y020947D01*
X024195Y020868D01*
X024164Y020795D01*
X023817Y020795D01*
X023817Y020985D01*
X023817Y021230D01*
X023802Y021286D01*
X023773Y021336D01*
X023732Y021377D01*
X023682Y021406D01*
X023626Y021421D01*
X023400Y021421D01*
X023174Y021421D01*
X023118Y021406D01*
X023068Y021377D01*
X023027Y021336D01*
X022998Y021286D01*
X022983Y021230D01*
X022983Y020985D01*
X023400Y020985D01*
X023400Y021421D01*
X023400Y020985D01*
X023400Y020985D01*
X023400Y020985D01*
X023817Y020985D01*
X023400Y020985D01*
X023400Y020985D01*
X022983Y020985D01*
X022983Y020795D01*
X022921Y020795D01*
X022800Y020916D01*
X022800Y023514D01*
X022933Y023648D01*
X023041Y023909D01*
X023041Y024191D01*
X022933Y024452D01*
X022734Y024652D01*
X022473Y024760D01*
X022190Y024760D01*
X021929Y024652D01*
X021730Y024452D01*
X021708Y024400D01*
X017418Y024400D01*
X017363Y024377D01*
X017455Y024514D01*
X017526Y024874D01*
X017478Y025116D01*
X033807Y025116D01*
X033768Y024917D01*
X033753Y024923D01*
X033327Y024923D01*
X033224Y024880D01*
X033145Y024801D01*
X033103Y024698D01*
X033103Y024272D01*
X033137Y024190D01*
X033103Y024108D01*
X033103Y023682D01*
X033145Y023579D01*
X033150Y023574D01*
X033126Y023550D01*
X033083Y023447D01*
X033083Y022902D01*
X033126Y022800D01*
X033150Y022776D01*
X033143Y022751D01*
X033143Y022505D01*
X033143Y022260D01*
X033158Y022204D01*
X033187Y022154D01*
X033228Y022113D01*
X033278Y022084D01*
X033334Y022069D01*
X033560Y022069D01*
X033786Y022069D01*
X033842Y022084D01*
X033892Y022113D01*
X033933Y022154D01*
X033962Y022204D01*
X033977Y022260D01*
X033977Y022505D01*
X033560Y022505D01*
X033560Y022069D01*
X033560Y022505D01*
X033560Y022505D01*
X033560Y022505D01*
X033143Y022505D01*
X033560Y022505D01*
X033560Y022505D01*
X033977Y022505D01*
X033977Y022751D01*
X033970Y022776D01*
X033994Y022800D01*
X034037Y022902D01*
X034037Y023447D01*
X033994Y023550D01*
X033944Y023600D01*
X033977Y023682D01*
X033977Y024033D01*
X034190Y023821D01*
X034190Y023723D02*
X033977Y023723D01*
X033977Y023962D02*
X034049Y023962D01*
X033103Y023962D02*
X032401Y023962D01*
X032371Y023723D02*
X033103Y023723D01*
X033099Y023485D02*
X032477Y023485D01*
X032477Y023246D02*
X033083Y023246D01*
X033083Y023008D02*
X032475Y023008D01*
X032477Y022769D02*
X033148Y022769D01*
X033143Y022531D02*
X032477Y022531D01*
X032456Y022292D02*
X033143Y022292D01*
X033560Y022292D02*
X033560Y022292D01*
X033977Y022292D02*
X034190Y022292D01*
X034190Y022054D02*
X032400Y022054D01*
X032400Y021815D02*
X034190Y021815D01*
X034190Y021577D02*
X032400Y021577D01*
X032400Y021338D02*
X034190Y021338D01*
X034190Y021100D02*
X033709Y021100D01*
X033777Y020861D02*
X034190Y020861D01*
X034190Y020623D02*
X033720Y020623D01*
X033777Y020850D02*
X033300Y020850D01*
X033300Y020850D01*
X033300Y021327D01*
X033300Y020850D01*
X033777Y020850D01*
X033300Y020850D02*
X033300Y020850D01*
X033300Y020850D01*
X032823Y020850D01*
X033300Y020850D01*
X033300Y020861D02*
X033300Y020861D01*
X033300Y021100D02*
X033300Y021100D01*
X032891Y021100D02*
X032400Y021100D01*
X032400Y020861D02*
X032823Y020861D01*
X032880Y020623D02*
X032400Y020623D01*
X032532Y020384D02*
X033185Y020384D01*
X033415Y020384D02*
X034190Y020384D01*
X033300Y019850D02*
X032500Y019850D01*
X032000Y020350D01*
X032000Y022615D01*
X031523Y022531D02*
X031300Y022531D01*
X031300Y022370D02*
X031300Y023931D01*
X031435Y024066D01*
X031570Y023931D01*
X031570Y023664D01*
X031566Y023660D01*
X031523Y023557D01*
X031523Y023012D01*
X031549Y022950D01*
X031523Y022888D01*
X031523Y022343D01*
X031566Y022240D01*
X031600Y022206D01*
X031600Y020270D01*
X031661Y020123D01*
X031773Y020011D01*
X032273Y019511D01*
X032420Y019450D01*
X032940Y019450D01*
X032996Y019394D01*
X033012Y019387D01*
X032987Y019387D01*
X032884Y019345D01*
X032805Y019266D01*
X032798Y019250D01*
X031066Y019250D01*
X029739Y020577D01*
X029627Y020689D01*
X029480Y020750D01*
X026448Y020750D01*
X026448Y020766D01*
X026405Y020868D01*
X026327Y020947D01*
X026224Y020990D01*
X025876Y020990D01*
X025800Y020958D01*
X025724Y020990D01*
X025506Y020990D01*
X025589Y021073D01*
X025866Y021350D01*
X030280Y021350D01*
X030427Y021411D01*
X030539Y021523D01*
X031239Y022223D01*
X031300Y022370D01*
X031268Y022292D02*
X031544Y022292D01*
X031600Y022054D02*
X031069Y022054D01*
X030831Y021815D02*
X031600Y021815D01*
X031600Y021577D02*
X030592Y021577D01*
X030200Y021750D02*
X025700Y021750D01*
X025250Y021300D01*
X025100Y021150D01*
X025050Y021100D01*
X025050Y020395D01*
X024550Y020395D02*
X023480Y020395D01*
X022755Y020395D01*
X022400Y020750D01*
X022400Y023981D01*
X022331Y024050D01*
X022965Y023723D02*
X023667Y023723D01*
X023698Y023648D02*
X023898Y023448D01*
X024159Y023340D01*
X024441Y023340D01*
X024702Y023448D01*
X024902Y023648D01*
X025010Y023909D01*
X025010Y024191D01*
X024902Y024452D01*
X024702Y024652D01*
X024441Y024760D01*
X024159Y024760D01*
X023898Y024652D01*
X023698Y024452D01*
X023590Y024191D01*
X023590Y023909D01*
X023698Y023648D01*
X023861Y023485D02*
X022800Y023485D01*
X022800Y023246D02*
X030500Y023246D01*
X030500Y023008D02*
X022800Y023008D01*
X022800Y022769D02*
X030500Y022769D01*
X030415Y022531D02*
X022800Y022531D01*
X022800Y022292D02*
X030176Y022292D01*
X030200Y021750D02*
X030900Y022450D01*
X030900Y024450D01*
X031354Y024916D02*
X031516Y024916D01*
X031970Y024450D02*
X031970Y023315D01*
X032000Y023285D01*
X031523Y023246D02*
X031300Y023246D01*
X031300Y023008D02*
X031525Y023008D01*
X031523Y022769D02*
X031300Y022769D01*
X031300Y023485D02*
X031523Y023485D01*
X031570Y023723D02*
X031300Y023723D01*
X031331Y023962D02*
X031539Y023962D01*
X030500Y023723D02*
X026830Y023723D01*
X026810Y023688D02*
X026853Y023762D01*
X026885Y023841D01*
X026907Y023923D01*
X026919Y024007D01*
X026919Y024050D01*
X026919Y024093D01*
X026907Y024177D01*
X026885Y024259D01*
X026853Y024338D01*
X026810Y024412D01*
X026758Y024479D01*
X026698Y024540D01*
X026630Y024592D01*
X026557Y024634D01*
X026478Y024667D01*
X026396Y024689D01*
X026311Y024700D01*
X026269Y024700D01*
X026269Y024050D01*
X026919Y024050D01*
X026269Y024050D01*
X026269Y024050D01*
X026269Y023400D01*
X026311Y023400D01*
X026396Y023411D01*
X026478Y023433D01*
X026557Y023466D01*
X026630Y023508D01*
X026698Y023560D01*
X026758Y023621D01*
X026810Y023688D01*
X026912Y023962D02*
X029499Y023962D01*
X029521Y023945D02*
X029604Y023903D01*
X029692Y023875D01*
X029784Y023860D01*
X029830Y023860D01*
X029830Y024450D01*
X029830Y024450D01*
X029830Y024450D01*
X029240Y024450D01*
X029240Y024496D01*
X029255Y024588D01*
X029283Y024676D01*
X029325Y024759D01*
X029380Y024834D01*
X029446Y024900D01*
X029521Y024955D01*
X029604Y024997D01*
X029692Y025025D01*
X029784Y025040D01*
X029830Y025040D01*
X029830Y024450D01*
X029240Y024450D01*
X029240Y024404D01*
X029255Y024312D01*
X029283Y024224D01*
X029325Y024141D01*
X029380Y024066D01*
X029446Y024000D01*
X029521Y023945D01*
X029830Y023962D02*
X029830Y023962D01*
X029830Y024200D02*
X029830Y024200D01*
X029830Y024439D02*
X029830Y024439D01*
X029830Y024677D02*
X029830Y024677D01*
X029830Y024916D02*
X029830Y024916D01*
X030193Y024916D02*
X030446Y024916D01*
X030469Y023962D02*
X030161Y023962D01*
X029295Y024200D02*
X026901Y024200D01*
X026790Y024439D02*
X029240Y024439D01*
X029284Y024677D02*
X026440Y024677D01*
X026269Y024677D02*
X026268Y024677D01*
X026268Y024700D02*
X026268Y024050D01*
X025619Y024050D01*
X025619Y024007D01*
X025630Y023923D01*
X025652Y023841D01*
X025684Y023762D01*
X025727Y023688D01*
X025779Y023621D01*
X025839Y023560D01*
X025907Y023508D01*
X025980Y023466D01*
X026059Y023433D01*
X026141Y023411D01*
X026226Y023400D01*
X026268Y023400D01*
X026268Y024050D01*
X026268Y024050D01*
X025619Y024050D01*
X025619Y024093D01*
X025630Y024177D01*
X025652Y024259D01*
X025684Y024338D01*
X025727Y024412D01*
X025779Y024479D01*
X025839Y024540D01*
X025907Y024592D01*
X025980Y024634D01*
X026059Y024667D01*
X026141Y024689D01*
X026226Y024700D01*
X026268Y024700D01*
X026097Y024677D02*
X024642Y024677D01*
X024908Y024439D02*
X025747Y024439D01*
X025636Y024200D02*
X025006Y024200D01*
X025010Y023962D02*
X025625Y023962D01*
X025707Y023723D02*
X024933Y023723D01*
X024739Y023485D02*
X025948Y023485D01*
X026268Y023485D02*
X026269Y023485D01*
X026268Y023723D02*
X026269Y023723D01*
X026268Y023962D02*
X026269Y023962D01*
X026268Y024050D02*
X026269Y024050D01*
X026268Y024050D01*
X026268Y024200D02*
X026269Y024200D01*
X026268Y024439D02*
X026269Y024439D01*
X026589Y023485D02*
X030500Y023485D01*
X032570Y024200D02*
X033132Y024200D01*
X033103Y024439D02*
X032620Y024439D01*
X032580Y024677D02*
X033103Y024677D01*
X033309Y024916D02*
X032424Y024916D01*
X034021Y023485D02*
X034190Y023485D01*
X034190Y023246D02*
X034037Y023246D01*
X034037Y023008D02*
X034190Y023008D01*
X034190Y022769D02*
X033972Y022769D01*
X033977Y022531D02*
X034190Y022531D01*
X031600Y021338D02*
X025854Y021338D01*
X025615Y021100D02*
X031600Y021100D01*
X031600Y020861D02*
X026409Y020861D01*
X026050Y020395D02*
X026095Y020350D01*
X029400Y020350D01*
X030900Y018850D01*
X033300Y018850D01*
X033837Y018953D02*
X034040Y018953D01*
X034040Y019098D02*
X034040Y017182D01*
X033388Y016530D01*
X020172Y016530D01*
X019840Y016862D01*
X019840Y019368D01*
X019773Y019529D01*
X019649Y019653D01*
X019079Y020223D01*
X018918Y020290D01*
X018620Y020290D01*
X018604Y020306D01*
X018588Y020313D01*
X018613Y020313D01*
X018716Y020355D01*
X018795Y020434D01*
X018802Y020450D01*
X019634Y020450D01*
X020290Y019794D01*
X020290Y017970D01*
X020351Y017823D01*
X020463Y017711D01*
X021273Y016901D01*
X021420Y016840D01*
X024620Y016840D01*
X024767Y016901D01*
X024879Y017013D01*
X025040Y017174D01*
X025040Y017058D01*
X025110Y016889D01*
X025239Y016760D01*
X025408Y016690D01*
X025591Y016690D01*
X025761Y016760D01*
X025890Y016889D01*
X025960Y017058D01*
X025960Y017241D01*
X025946Y017275D01*
X025946Y017770D01*
X026046Y017770D01*
X026046Y018305D01*
X026046Y018305D01*
X026046Y017770D01*
X026193Y017770D01*
X026249Y017785D01*
X026299Y017814D01*
X026340Y017855D01*
X026369Y017905D01*
X026384Y017961D01*
X026384Y018305D01*
X026046Y018305D01*
X026046Y018305D01*
X026046Y018840D01*
X025899Y018840D01*
X025853Y018828D01*
X025823Y018857D01*
X025720Y018900D01*
X025372Y018900D01*
X025296Y018869D01*
X025220Y018900D01*
X024950Y018900D01*
X024950Y019800D01*
X025224Y019800D01*
X025300Y019831D01*
X025376Y019800D01*
X025724Y019800D01*
X025800Y019831D01*
X025876Y019800D01*
X026224Y019800D01*
X026327Y019843D01*
X026405Y019921D01*
X026417Y019950D01*
X029234Y019950D01*
X030673Y018511D01*
X030820Y018450D01*
X032798Y018450D01*
X032805Y018434D01*
X032884Y018355D01*
X032987Y018313D01*
X033613Y018313D01*
X033716Y018355D01*
X033795Y018434D01*
X033837Y018537D01*
X033837Y019163D01*
X033795Y019266D01*
X033716Y019345D01*
X033613Y019387D01*
X033588Y019387D01*
X033604Y019394D01*
X033630Y019420D01*
X033718Y019420D01*
X034040Y019098D01*
X033946Y019192D02*
X033826Y019192D01*
X033837Y018715D02*
X034040Y018715D01*
X034040Y018476D02*
X033812Y018476D01*
X034040Y018238D02*
X026384Y018238D01*
X026384Y018305D02*
X026384Y018649D01*
X026369Y018705D01*
X026340Y018755D01*
X026299Y018796D01*
X026249Y018825D01*
X026193Y018840D01*
X026046Y018840D01*
X026046Y018305D01*
X026046Y018305D01*
X026384Y018305D01*
X026384Y018476D02*
X030758Y018476D01*
X030470Y018715D02*
X026364Y018715D01*
X026046Y018715D02*
X026046Y018715D01*
X026046Y018476D02*
X026046Y018476D01*
X026046Y018238D02*
X026046Y018238D01*
X026046Y017999D02*
X026046Y017999D01*
X025946Y017761D02*
X034040Y017761D01*
X034040Y017999D02*
X026384Y017999D01*
X025946Y017522D02*
X034040Y017522D01*
X034040Y017284D02*
X025946Y017284D01*
X025954Y017045D02*
X033903Y017045D01*
X033664Y016807D02*
X025807Y016807D01*
X025500Y017150D02*
X025546Y017196D01*
X025546Y018305D01*
X025046Y018305D02*
X025046Y017746D01*
X024540Y017240D01*
X021500Y017240D01*
X020690Y018050D01*
X020690Y019960D01*
X019800Y020850D01*
X018300Y020850D01*
X017763Y020861D02*
X017400Y020861D01*
X017400Y020623D02*
X017763Y020623D01*
X017763Y020537D02*
X017805Y020434D01*
X017884Y020355D01*
X017987Y020313D01*
X018012Y020313D01*
X017996Y020306D01*
X017900Y020210D01*
X017400Y020210D01*
X017400Y023441D01*
X017639Y023680D01*
X021716Y023680D01*
X021730Y023648D01*
X021929Y023448D01*
X022000Y023419D01*
X022000Y020670D01*
X022061Y020523D01*
X022529Y020056D01*
X022676Y019995D01*
X022943Y019995D01*
X022966Y019940D01*
X023045Y019861D01*
X023147Y019819D01*
X023653Y019819D01*
X023755Y019861D01*
X023834Y019940D01*
X023857Y019995D01*
X024150Y019995D01*
X024150Y018226D01*
X024152Y018221D01*
X024152Y017934D01*
X024195Y017832D01*
X024273Y017753D01*
X024376Y017710D01*
X024444Y017710D01*
X024374Y017640D01*
X021666Y017640D01*
X021090Y018216D01*
X021090Y020040D01*
X021029Y020187D01*
X020027Y021189D01*
X019880Y021250D01*
X019720Y021250D01*
X018802Y021250D01*
X018795Y021266D01*
X018716Y021345D01*
X018613Y021387D01*
X017987Y021387D01*
X017884Y021345D01*
X017805Y021266D01*
X017763Y021163D01*
X017763Y020537D01*
X017855Y020384D02*
X017400Y020384D01*
X017400Y021100D02*
X017763Y021100D01*
X017877Y021338D02*
X017400Y021338D01*
X017400Y021577D02*
X022000Y021577D01*
X022000Y021815D02*
X017400Y021815D01*
X017400Y022054D02*
X022000Y022054D01*
X022000Y022292D02*
X017400Y022292D01*
X017400Y022531D02*
X022000Y022531D01*
X022000Y022769D02*
X017400Y022769D01*
X017400Y023008D02*
X022000Y023008D01*
X022000Y023246D02*
X017400Y023246D01*
X017444Y023485D02*
X021893Y023485D01*
X023041Y023962D02*
X023590Y023962D01*
X023594Y024200D02*
X023038Y024200D01*
X022939Y024439D02*
X023692Y024439D01*
X023958Y024677D02*
X022673Y024677D01*
X021990Y024677D02*
X017487Y024677D01*
X017518Y024916D02*
X029467Y024916D01*
X025438Y022054D02*
X022800Y022054D01*
X022800Y021815D02*
X025199Y021815D01*
X024961Y021577D02*
X022800Y021577D01*
X022800Y021338D02*
X023029Y021338D01*
X022983Y021100D02*
X022800Y021100D01*
X022855Y020861D02*
X022983Y020861D01*
X023400Y021100D02*
X023400Y021100D01*
X023400Y021338D02*
X023400Y021338D01*
X023771Y021338D02*
X024722Y021338D01*
X024650Y021100D02*
X023817Y021100D01*
X023817Y020861D02*
X024191Y020861D01*
X024550Y020395D02*
X024550Y018305D01*
X024150Y018238D02*
X021090Y018238D01*
X021090Y018476D02*
X024150Y018476D01*
X024150Y018715D02*
X021090Y018715D01*
X021090Y018953D02*
X024150Y018953D01*
X024150Y019192D02*
X021090Y019192D01*
X021090Y019430D02*
X024150Y019430D01*
X024150Y019669D02*
X021090Y019669D01*
X021090Y019907D02*
X022999Y019907D01*
X022439Y020146D02*
X021046Y020146D01*
X020832Y020384D02*
X022200Y020384D01*
X022020Y020623D02*
X020593Y020623D01*
X020355Y020861D02*
X022000Y020861D01*
X022000Y021100D02*
X020116Y021100D01*
X019700Y020384D02*
X018745Y020384D01*
X019157Y020146D02*
X019939Y020146D01*
X020177Y019907D02*
X019395Y019907D01*
X019634Y019669D02*
X020290Y019669D01*
X020290Y019430D02*
X019814Y019430D01*
X019840Y019192D02*
X020290Y019192D01*
X020290Y018953D02*
X019840Y018953D01*
X019840Y018715D02*
X020290Y018715D01*
X020290Y018476D02*
X019840Y018476D01*
X019840Y018238D02*
X020290Y018238D01*
X020290Y017999D02*
X019840Y017999D01*
X019840Y017761D02*
X020414Y017761D01*
X020652Y017522D02*
X019840Y017522D01*
X019840Y017284D02*
X020891Y017284D01*
X021129Y017045D02*
X019840Y017045D01*
X019896Y016807D02*
X025193Y016807D01*
X025046Y017045D02*
X024911Y017045D01*
X024266Y017761D02*
X021545Y017761D01*
X021307Y017999D02*
X024152Y017999D01*
X024950Y018953D02*
X030231Y018953D01*
X029993Y019192D02*
X024950Y019192D01*
X024950Y019430D02*
X029754Y019430D01*
X029516Y019669D02*
X024950Y019669D01*
X024150Y019907D02*
X023801Y019907D01*
X023400Y020315D02*
X023480Y020395D01*
X022000Y021338D02*
X018723Y021338D01*
X016680Y021338D02*
X016345Y021338D01*
X016345Y021100D02*
X016680Y021100D01*
X016680Y020861D02*
X016345Y020861D01*
X016345Y020623D02*
X016680Y020623D01*
X016680Y020384D02*
X016345Y020384D01*
X016345Y020146D02*
X016680Y020146D01*
X016680Y019907D02*
X016345Y019907D01*
X016345Y019669D02*
X016726Y019669D01*
X016345Y019430D02*
X017960Y019430D01*
X017966Y019192D02*
X016345Y019192D01*
X016345Y018953D02*
X017833Y018953D01*
X017823Y018850D02*
X018300Y018850D01*
X018777Y018850D01*
X018300Y018850D01*
X018300Y018850D01*
X018300Y018373D01*
X018300Y018850D01*
X018300Y018850D01*
X018300Y018850D01*
X017823Y018850D01*
X017842Y018715D02*
X016345Y018715D01*
X016345Y018476D02*
X018002Y018476D01*
X018300Y018476D02*
X018300Y018476D01*
X018300Y018715D02*
X018300Y018715D01*
X018598Y018476D02*
X018960Y018476D01*
X018960Y018238D02*
X016345Y018238D01*
X016345Y017999D02*
X018960Y017999D01*
X018960Y017761D02*
X016345Y017761D01*
X016345Y017522D02*
X018960Y017522D01*
X018960Y017284D02*
X016345Y017284D01*
X016345Y017045D02*
X018960Y017045D01*
X018960Y016807D02*
X016345Y016807D01*
X016345Y016568D02*
X018970Y016568D01*
X019128Y016330D02*
X016345Y016330D01*
X016345Y016091D02*
X019367Y016091D01*
X019605Y015853D02*
X016345Y015853D01*
X016345Y015614D02*
X034940Y015614D01*
X033426Y016568D02*
X020134Y016568D01*
X018960Y018715D02*
X018758Y018715D01*
X018767Y018953D02*
X018960Y018953D01*
X018866Y019192D02*
X018634Y019192D01*
X016680Y021577D02*
X016345Y021577D01*
X016345Y021815D02*
X016680Y021815D01*
X016680Y022054D02*
X016345Y022054D01*
X016345Y022292D02*
X016680Y022292D01*
X016680Y022531D02*
X016345Y022531D01*
X016345Y022769D02*
X016680Y022769D01*
X016680Y023008D02*
X016345Y023008D01*
X016345Y023246D02*
X016680Y023246D01*
X016680Y023485D02*
X016345Y023485D01*
X016345Y023723D02*
X016705Y023723D01*
X016721Y023962D02*
X016902Y023962D01*
X016454Y023962D02*
X016345Y023962D01*
X017404Y024439D02*
X021724Y024439D01*
X026391Y019907D02*
X029277Y019907D01*
X030170Y020146D02*
X031652Y020146D01*
X031600Y020384D02*
X029932Y020384D01*
X029693Y020623D02*
X031600Y020623D01*
X031877Y019907D02*
X030409Y019907D01*
X030647Y019669D02*
X032116Y019669D01*
X032960Y019430D02*
X030886Y019430D01*
D20*
X029400Y020950D03*
X027200Y020850D03*
X029400Y022950D03*
X023400Y022950D03*
X020700Y021350D03*
X017600Y022950D03*
X023200Y017750D03*
X017600Y017050D03*
X033300Y016950D03*
D21*
X033570Y016090D02*
X034480Y017000D01*
X034480Y019100D01*
X034480Y019280D01*
X033900Y019860D01*
X033310Y019860D01*
X033300Y019850D01*
X033570Y016090D02*
X019990Y016090D01*
X019400Y016680D01*
X019400Y019280D01*
X018830Y019850D01*
X018300Y019850D01*
D22*
X017040Y019850D01*
X017040Y023590D01*
X017490Y024040D01*
X022270Y024040D01*
X022400Y023910D01*
X022400Y020750D01*
X033540Y023195D02*
X033560Y023175D01*
X033540Y023195D02*
X033540Y023895D01*
X033540Y024485D02*
X034035Y024485D01*
X034550Y023970D01*
X034550Y019170D01*
X034480Y019100D01*
D23*
X025500Y017150D03*
M02*
