G75*
%MOIN*%
%OFA0B0*%
%FSLAX24Y24*%
%IPPOS*%
%LPD*%
%AMOC8*
5,1,8,0,0,1.08239X$1,22.5*
%
%ADD10C,0.0000*%
%ADD11R,0.0316X0.0710*%
%ADD12R,0.0595X0.0595*%
%ADD13C,0.0595*%
%ADD14R,0.0474X0.0513*%
%ADD15C,0.0940*%
%ADD16R,0.0395X0.0395*%
%ADD17C,0.0050*%
%ADD18C,0.0360*%
%ADD19C,0.0440*%
D10*
X000300Y000350D02*
X000300Y039720D01*
X063292Y039720D01*
X063292Y000350D01*
X000300Y000350D01*
D11*
X024550Y018305D03*
X025046Y018305D03*
X025546Y018305D03*
X026046Y018305D03*
X026050Y020395D03*
X025550Y020395D03*
X025050Y020395D03*
X024550Y020395D03*
D12*
X018300Y020850D03*
X033300Y018850D03*
D13*
X033300Y019850D03*
X033300Y020850D03*
X018300Y019850D03*
X018300Y018850D03*
D14*
X023400Y020315D03*
X023400Y020985D03*
X032000Y022615D03*
X032000Y023285D03*
X033560Y023175D03*
X033560Y022505D03*
D15*
X026269Y024050D03*
X024300Y024050D03*
X022331Y024050D03*
D16*
X033540Y023895D03*
X033540Y024485D03*
D17*
X034304Y024874D02*
X034306Y024913D01*
X034312Y024952D01*
X034322Y024990D01*
X034335Y025027D01*
X034352Y025062D01*
X034372Y025096D01*
X034396Y025127D01*
X034423Y025156D01*
X034452Y025182D01*
X034484Y025205D01*
X034518Y025225D01*
X034554Y025241D01*
X034591Y025253D01*
X034630Y025262D01*
X034669Y025267D01*
X034708Y025268D01*
X034747Y025265D01*
X034786Y025258D01*
X034823Y025247D01*
X034860Y025233D01*
X034895Y025215D01*
X034928Y025194D01*
X034959Y025169D01*
X034987Y025142D01*
X035012Y025112D01*
X035034Y025079D01*
X035053Y025045D01*
X035068Y025009D01*
X035080Y024971D01*
X035088Y024933D01*
X035092Y024894D01*
X035092Y024854D01*
X035088Y024815D01*
X035080Y024777D01*
X035068Y024739D01*
X035053Y024703D01*
X035034Y024669D01*
X035012Y024636D01*
X034987Y024606D01*
X034959Y024579D01*
X034928Y024554D01*
X034895Y024533D01*
X034860Y024515D01*
X034823Y024501D01*
X034786Y024490D01*
X034747Y024483D01*
X034708Y024480D01*
X034669Y024481D01*
X034630Y024486D01*
X034591Y024495D01*
X034554Y024507D01*
X034518Y024523D01*
X034484Y024543D01*
X034452Y024566D01*
X034423Y024592D01*
X034396Y024621D01*
X034372Y024652D01*
X034352Y024686D01*
X034335Y024721D01*
X034322Y024758D01*
X034312Y024796D01*
X034306Y024835D01*
X034304Y024874D01*
X034698Y025661D02*
X034752Y025659D01*
X034805Y025654D01*
X034858Y025645D01*
X034910Y025632D01*
X034962Y025616D01*
X035012Y025596D01*
X035060Y025573D01*
X035107Y025546D01*
X035152Y025517D01*
X035195Y025484D01*
X035235Y025449D01*
X035273Y025411D01*
X035308Y025371D01*
X035341Y025328D01*
X035370Y025283D01*
X035397Y025236D01*
X035420Y025188D01*
X035440Y025138D01*
X035456Y025086D01*
X035469Y025034D01*
X035478Y024981D01*
X035483Y024928D01*
X035485Y024874D01*
X035485Y014637D01*
X034304Y014637D02*
X034306Y014676D01*
X034312Y014715D01*
X034322Y014753D01*
X034335Y014790D01*
X034352Y014825D01*
X034372Y014859D01*
X034396Y014890D01*
X034423Y014919D01*
X034452Y014945D01*
X034484Y014968D01*
X034518Y014988D01*
X034554Y015004D01*
X034591Y015016D01*
X034630Y015025D01*
X034669Y015030D01*
X034708Y015031D01*
X034747Y015028D01*
X034786Y015021D01*
X034823Y015010D01*
X034860Y014996D01*
X034895Y014978D01*
X034928Y014957D01*
X034959Y014932D01*
X034987Y014905D01*
X035012Y014875D01*
X035034Y014842D01*
X035053Y014808D01*
X035068Y014772D01*
X035080Y014734D01*
X035088Y014696D01*
X035092Y014657D01*
X035092Y014617D01*
X035088Y014578D01*
X035080Y014540D01*
X035068Y014502D01*
X035053Y014466D01*
X035034Y014432D01*
X035012Y014399D01*
X034987Y014369D01*
X034959Y014342D01*
X034928Y014317D01*
X034895Y014296D01*
X034860Y014278D01*
X034823Y014264D01*
X034786Y014253D01*
X034747Y014246D01*
X034708Y014243D01*
X034669Y014244D01*
X034630Y014249D01*
X034591Y014258D01*
X034554Y014270D01*
X034518Y014286D01*
X034484Y014306D01*
X034452Y014329D01*
X034423Y014355D01*
X034396Y014384D01*
X034372Y014415D01*
X034352Y014449D01*
X034335Y014484D01*
X034322Y014521D01*
X034312Y014559D01*
X034306Y014598D01*
X034304Y014637D01*
X034698Y013850D02*
X034752Y013852D01*
X034805Y013857D01*
X034858Y013866D01*
X034910Y013879D01*
X034962Y013895D01*
X035012Y013915D01*
X035060Y013938D01*
X035107Y013965D01*
X035152Y013994D01*
X035195Y014027D01*
X035235Y014062D01*
X035273Y014100D01*
X035308Y014140D01*
X035341Y014183D01*
X035370Y014228D01*
X035397Y014275D01*
X035420Y014323D01*
X035440Y014373D01*
X035456Y014425D01*
X035469Y014477D01*
X035478Y014530D01*
X035483Y014583D01*
X035485Y014637D01*
X034698Y013850D02*
X016587Y013850D01*
X015800Y013850D01*
X015800Y014637D02*
X015800Y024874D01*
X016193Y024874D02*
X016195Y024913D01*
X016201Y024952D01*
X016211Y024990D01*
X016224Y025027D01*
X016241Y025062D01*
X016261Y025096D01*
X016285Y025127D01*
X016312Y025156D01*
X016341Y025182D01*
X016373Y025205D01*
X016407Y025225D01*
X016443Y025241D01*
X016480Y025253D01*
X016519Y025262D01*
X016558Y025267D01*
X016597Y025268D01*
X016636Y025265D01*
X016675Y025258D01*
X016712Y025247D01*
X016749Y025233D01*
X016784Y025215D01*
X016817Y025194D01*
X016848Y025169D01*
X016876Y025142D01*
X016901Y025112D01*
X016923Y025079D01*
X016942Y025045D01*
X016957Y025009D01*
X016969Y024971D01*
X016977Y024933D01*
X016981Y024894D01*
X016981Y024854D01*
X016977Y024815D01*
X016969Y024777D01*
X016957Y024739D01*
X016942Y024703D01*
X016923Y024669D01*
X016901Y024636D01*
X016876Y024606D01*
X016848Y024579D01*
X016817Y024554D01*
X016784Y024533D01*
X016749Y024515D01*
X016712Y024501D01*
X016675Y024490D01*
X016636Y024483D01*
X016597Y024480D01*
X016558Y024481D01*
X016519Y024486D01*
X016480Y024495D01*
X016443Y024507D01*
X016407Y024523D01*
X016373Y024543D01*
X016341Y024566D01*
X016312Y024592D01*
X016285Y024621D01*
X016261Y024652D01*
X016241Y024686D01*
X016224Y024721D01*
X016211Y024758D01*
X016201Y024796D01*
X016195Y024835D01*
X016193Y024874D01*
X015800Y024874D02*
X015802Y024928D01*
X015807Y024981D01*
X015816Y025034D01*
X015829Y025086D01*
X015845Y025138D01*
X015865Y025188D01*
X015888Y025236D01*
X015915Y025283D01*
X015944Y025328D01*
X015977Y025371D01*
X016012Y025411D01*
X016050Y025449D01*
X016090Y025484D01*
X016133Y025517D01*
X016178Y025546D01*
X016225Y025573D01*
X016273Y025596D01*
X016323Y025616D01*
X016375Y025632D01*
X016427Y025645D01*
X016480Y025654D01*
X016533Y025659D01*
X016587Y025661D01*
X034698Y025661D01*
X032127Y024527D02*
X032141Y024490D01*
X032147Y024450D01*
X032142Y024411D01*
X032128Y024374D01*
X032106Y024340D01*
X032078Y024313D01*
X032044Y024292D01*
X032006Y024280D01*
X031967Y024276D01*
X031929Y024281D01*
X031892Y024294D01*
X031860Y024315D01*
X031833Y024342D01*
X031812Y024375D01*
X031800Y024412D01*
X031796Y024450D01*
X031799Y024488D01*
X031811Y024525D01*
X031831Y024557D01*
X031857Y024585D01*
X031889Y024606D01*
X031925Y024620D01*
X031963Y024625D01*
X032003Y024621D01*
X032041Y024609D01*
X032076Y024589D01*
X032105Y024561D01*
X032127Y024527D01*
X032136Y024503D02*
X031804Y024503D01*
X031796Y024455D02*
X032146Y024455D01*
X032140Y024406D02*
X031802Y024406D01*
X031823Y024358D02*
X032118Y024358D01*
X032072Y024309D02*
X031868Y024309D01*
X031827Y024552D02*
X032111Y024552D01*
X032057Y024600D02*
X031880Y024600D01*
X031069Y024486D02*
X031075Y024446D01*
X031070Y024407D01*
X031056Y024369D01*
X031034Y024336D01*
X031006Y024309D01*
X030972Y024288D01*
X030934Y024276D01*
X030895Y024272D01*
X030857Y024277D01*
X030820Y024290D01*
X030788Y024311D01*
X030761Y024338D01*
X030740Y024371D01*
X030728Y024408D01*
X030724Y024446D01*
X030727Y024484D01*
X030739Y024521D01*
X030759Y024553D01*
X030785Y024581D01*
X030817Y024602D01*
X030853Y024616D01*
X030891Y024621D01*
X030931Y024617D01*
X030969Y024605D01*
X031004Y024585D01*
X031033Y024557D01*
X031055Y024523D01*
X031069Y024486D01*
X031063Y024503D02*
X030734Y024503D01*
X030725Y024455D02*
X031074Y024455D01*
X031070Y024406D02*
X030728Y024406D01*
X030749Y024358D02*
X031048Y024358D01*
X031006Y024309D02*
X030790Y024309D01*
X030758Y024552D02*
X031037Y024552D01*
X030978Y024600D02*
X030814Y024600D01*
X030000Y024489D02*
X030005Y024449D01*
X030000Y024410D01*
X029986Y024372D01*
X029965Y024339D01*
X029936Y024312D01*
X029902Y024291D01*
X029864Y024279D01*
X029825Y024275D01*
X029787Y024280D01*
X029750Y024293D01*
X029718Y024314D01*
X029691Y024341D01*
X029670Y024374D01*
X029658Y024411D01*
X029654Y024449D01*
X029657Y024487D01*
X029669Y024524D01*
X029689Y024556D01*
X029715Y024584D01*
X029747Y024605D01*
X029783Y024619D01*
X029821Y024624D01*
X029861Y024620D01*
X029899Y024608D01*
X029934Y024588D01*
X029963Y024560D01*
X029985Y024526D01*
X030000Y024489D01*
X029994Y024503D02*
X029663Y024503D01*
X029655Y024455D02*
X030004Y024455D01*
X029999Y024406D02*
X029660Y024406D01*
X029681Y024358D02*
X029976Y024358D01*
X029932Y024309D02*
X029725Y024309D01*
X029686Y024552D02*
X029969Y024552D01*
X029913Y024600D02*
X029739Y024600D01*
X016193Y014637D02*
X016195Y014676D01*
X016201Y014715D01*
X016211Y014753D01*
X016224Y014790D01*
X016241Y014825D01*
X016261Y014859D01*
X016285Y014890D01*
X016312Y014919D01*
X016341Y014945D01*
X016373Y014968D01*
X016407Y014988D01*
X016443Y015004D01*
X016480Y015016D01*
X016519Y015025D01*
X016558Y015030D01*
X016597Y015031D01*
X016636Y015028D01*
X016675Y015021D01*
X016712Y015010D01*
X016749Y014996D01*
X016784Y014978D01*
X016817Y014957D01*
X016848Y014932D01*
X016876Y014905D01*
X016901Y014875D01*
X016923Y014842D01*
X016942Y014808D01*
X016957Y014772D01*
X016969Y014734D01*
X016977Y014696D01*
X016981Y014657D01*
X016981Y014617D01*
X016977Y014578D01*
X016969Y014540D01*
X016957Y014502D01*
X016942Y014466D01*
X016923Y014432D01*
X016901Y014399D01*
X016876Y014369D01*
X016848Y014342D01*
X016817Y014317D01*
X016784Y014296D01*
X016749Y014278D01*
X016712Y014264D01*
X016675Y014253D01*
X016636Y014246D01*
X016597Y014243D01*
X016558Y014244D01*
X016519Y014249D01*
X016480Y014258D01*
X016443Y014270D01*
X016407Y014286D01*
X016373Y014306D01*
X016341Y014329D01*
X016312Y014355D01*
X016285Y014384D01*
X016261Y014415D01*
X016241Y014449D01*
X016224Y014484D01*
X016211Y014521D01*
X016201Y014559D01*
X016195Y014598D01*
X016193Y014637D01*
X015800Y014637D02*
X015802Y014583D01*
X015807Y014530D01*
X015816Y014477D01*
X015829Y014425D01*
X015845Y014373D01*
X015865Y014323D01*
X015888Y014275D01*
X015915Y014228D01*
X015944Y014183D01*
X015977Y014140D01*
X016012Y014100D01*
X016050Y014062D01*
X016090Y014027D01*
X016133Y013994D01*
X016178Y013965D01*
X016225Y013938D01*
X016273Y013915D01*
X016323Y013895D01*
X016375Y013879D01*
X016427Y013866D01*
X016480Y013857D01*
X016533Y013852D01*
X016587Y013850D01*
D18*
X017600Y017050D03*
X023200Y017750D03*
X027200Y020850D03*
X029400Y020950D03*
X029400Y022950D03*
X023400Y022950D03*
X020700Y021350D03*
X017600Y022950D03*
X033300Y016950D03*
D19*
X025500Y017150D03*
M02*
