%
M48
M72
T01C0.02362
T02C0.02400
T03C0.03150
T04C0.04724
T05C0.12598
%
T01
X206400Y180400
X207300Y156000
X226600Y156100
X227200Y135200
X206900Y135200
X207500Y104600
X309900Y155700
X361000Y133500
X361400Y96500
X361000Y198500
T02
X262200Y159700
T03
X149200Y155700
X149200Y145700
X149200Y135700
X381200Y135400
X381200Y145400
X381200Y155400
T04
X238815Y206000
X258500Y206000
X278185Y206000
T05
X124300Y225900
X124200Y72500
X409400Y72100
X411400Y226700
M30
