G75*
%MOIN*%
%OFA0B0*%
%FSLAX24Y24*%
%IPPOS*%
%LPD*%
%AMOC8*
5,1,8,0,0,1.08239X$1,22.5*
%
%ADD10R,0.0394X0.0433*%
%ADD11R,0.0236X0.0630*%
%ADD12R,0.0315X0.0315*%
%ADD13C,0.0050*%
%ADD14R,0.0709X0.0709*%
%ADD15C,0.0709*%
%ADD16C,0.0000*%
%ADD17R,0.0515X0.0515*%
%ADD18C,0.0515*%
%ADD19C,0.0240*%
%ADD20C,0.0100*%
%ADD21C,0.0280*%
%ADD22C,0.0400*%
D10*
X008660Y005365D03*
X008660Y006035D03*
X018177Y008389D03*
X018177Y009059D03*
D11*
X011210Y005995D03*
X010710Y005995D03*
X010210Y005995D03*
X009710Y005995D03*
X009710Y003905D03*
X010206Y003905D03*
X010706Y003905D03*
X011206Y003905D03*
D12*
X018177Y010297D03*
X018177Y010888D03*
D13*
X001287Y000880D02*
X000500Y000880D01*
X001287Y000880D02*
X019398Y000880D01*
X019004Y001667D02*
X019006Y001706D01*
X019012Y001745D01*
X019022Y001783D01*
X019035Y001820D01*
X019052Y001855D01*
X019072Y001889D01*
X019096Y001920D01*
X019123Y001949D01*
X019152Y001975D01*
X019184Y001998D01*
X019218Y002018D01*
X019254Y002034D01*
X019291Y002046D01*
X019330Y002055D01*
X019369Y002060D01*
X019408Y002061D01*
X019447Y002058D01*
X019486Y002051D01*
X019523Y002040D01*
X019560Y002026D01*
X019595Y002008D01*
X019628Y001987D01*
X019659Y001962D01*
X019687Y001935D01*
X019712Y001905D01*
X019734Y001872D01*
X019753Y001838D01*
X019768Y001802D01*
X019780Y001764D01*
X019788Y001726D01*
X019792Y001687D01*
X019792Y001647D01*
X019788Y001608D01*
X019780Y001570D01*
X019768Y001532D01*
X019753Y001496D01*
X019734Y001462D01*
X019712Y001429D01*
X019687Y001399D01*
X019659Y001372D01*
X019628Y001347D01*
X019595Y001326D01*
X019560Y001308D01*
X019523Y001294D01*
X019486Y001283D01*
X019447Y001276D01*
X019408Y001273D01*
X019369Y001274D01*
X019330Y001279D01*
X019291Y001288D01*
X019254Y001300D01*
X019218Y001316D01*
X019184Y001336D01*
X019152Y001359D01*
X019123Y001385D01*
X019096Y001414D01*
X019072Y001445D01*
X019052Y001479D01*
X019035Y001514D01*
X019022Y001551D01*
X019012Y001589D01*
X019006Y001628D01*
X019004Y001667D01*
X019398Y000880D02*
X019452Y000882D01*
X019505Y000887D01*
X019558Y000896D01*
X019610Y000909D01*
X019662Y000925D01*
X019712Y000945D01*
X019760Y000968D01*
X019807Y000995D01*
X019852Y001024D01*
X019895Y001057D01*
X019935Y001092D01*
X019973Y001130D01*
X020008Y001170D01*
X020041Y001213D01*
X020070Y001258D01*
X020097Y001305D01*
X020120Y001353D01*
X020140Y001403D01*
X020156Y001455D01*
X020169Y001507D01*
X020178Y001560D01*
X020183Y001613D01*
X020185Y001667D01*
X020185Y011904D01*
X019004Y011904D02*
X019006Y011943D01*
X019012Y011982D01*
X019022Y012020D01*
X019035Y012057D01*
X019052Y012092D01*
X019072Y012126D01*
X019096Y012157D01*
X019123Y012186D01*
X019152Y012212D01*
X019184Y012235D01*
X019218Y012255D01*
X019254Y012271D01*
X019291Y012283D01*
X019330Y012292D01*
X019369Y012297D01*
X019408Y012298D01*
X019447Y012295D01*
X019486Y012288D01*
X019523Y012277D01*
X019560Y012263D01*
X019595Y012245D01*
X019628Y012224D01*
X019659Y012199D01*
X019687Y012172D01*
X019712Y012142D01*
X019734Y012109D01*
X019753Y012075D01*
X019768Y012039D01*
X019780Y012001D01*
X019788Y011963D01*
X019792Y011924D01*
X019792Y011884D01*
X019788Y011845D01*
X019780Y011807D01*
X019768Y011769D01*
X019753Y011733D01*
X019734Y011699D01*
X019712Y011666D01*
X019687Y011636D01*
X019659Y011609D01*
X019628Y011584D01*
X019595Y011563D01*
X019560Y011545D01*
X019523Y011531D01*
X019486Y011520D01*
X019447Y011513D01*
X019408Y011510D01*
X019369Y011511D01*
X019330Y011516D01*
X019291Y011525D01*
X019254Y011537D01*
X019218Y011553D01*
X019184Y011573D01*
X019152Y011596D01*
X019123Y011622D01*
X019096Y011651D01*
X019072Y011682D01*
X019052Y011716D01*
X019035Y011751D01*
X019022Y011788D01*
X019012Y011826D01*
X019006Y011865D01*
X019004Y011904D01*
X019398Y012691D02*
X019452Y012689D01*
X019505Y012684D01*
X019558Y012675D01*
X019610Y012662D01*
X019662Y012646D01*
X019712Y012626D01*
X019760Y012603D01*
X019807Y012576D01*
X019852Y012547D01*
X019895Y012514D01*
X019935Y012479D01*
X019973Y012441D01*
X020008Y012401D01*
X020041Y012358D01*
X020070Y012313D01*
X020097Y012266D01*
X020120Y012218D01*
X020140Y012168D01*
X020156Y012116D01*
X020169Y012064D01*
X020178Y012011D01*
X020183Y011958D01*
X020185Y011904D01*
X019398Y012691D02*
X001287Y012691D01*
X000893Y011904D02*
X000895Y011943D01*
X000901Y011982D01*
X000911Y012020D01*
X000924Y012057D01*
X000941Y012092D01*
X000961Y012126D01*
X000985Y012157D01*
X001012Y012186D01*
X001041Y012212D01*
X001073Y012235D01*
X001107Y012255D01*
X001143Y012271D01*
X001180Y012283D01*
X001219Y012292D01*
X001258Y012297D01*
X001297Y012298D01*
X001336Y012295D01*
X001375Y012288D01*
X001412Y012277D01*
X001449Y012263D01*
X001484Y012245D01*
X001517Y012224D01*
X001548Y012199D01*
X001576Y012172D01*
X001601Y012142D01*
X001623Y012109D01*
X001642Y012075D01*
X001657Y012039D01*
X001669Y012001D01*
X001677Y011963D01*
X001681Y011924D01*
X001681Y011884D01*
X001677Y011845D01*
X001669Y011807D01*
X001657Y011769D01*
X001642Y011733D01*
X001623Y011699D01*
X001601Y011666D01*
X001576Y011636D01*
X001548Y011609D01*
X001517Y011584D01*
X001484Y011563D01*
X001449Y011545D01*
X001412Y011531D01*
X001375Y011520D01*
X001336Y011513D01*
X001297Y011510D01*
X001258Y011511D01*
X001219Y011516D01*
X001180Y011525D01*
X001143Y011537D01*
X001107Y011553D01*
X001073Y011573D01*
X001041Y011596D01*
X001012Y011622D01*
X000985Y011651D01*
X000961Y011682D01*
X000941Y011716D01*
X000924Y011751D01*
X000911Y011788D01*
X000901Y011826D01*
X000895Y011865D01*
X000893Y011904D01*
X000500Y011904D02*
X000500Y001667D01*
X000893Y001667D02*
X000895Y001706D01*
X000901Y001745D01*
X000911Y001783D01*
X000924Y001820D01*
X000941Y001855D01*
X000961Y001889D01*
X000985Y001920D01*
X001012Y001949D01*
X001041Y001975D01*
X001073Y001998D01*
X001107Y002018D01*
X001143Y002034D01*
X001180Y002046D01*
X001219Y002055D01*
X001258Y002060D01*
X001297Y002061D01*
X001336Y002058D01*
X001375Y002051D01*
X001412Y002040D01*
X001449Y002026D01*
X001484Y002008D01*
X001517Y001987D01*
X001548Y001962D01*
X001576Y001935D01*
X001601Y001905D01*
X001623Y001872D01*
X001642Y001838D01*
X001657Y001802D01*
X001669Y001764D01*
X001677Y001726D01*
X001681Y001687D01*
X001681Y001647D01*
X001677Y001608D01*
X001669Y001570D01*
X001657Y001532D01*
X001642Y001496D01*
X001623Y001462D01*
X001601Y001429D01*
X001576Y001399D01*
X001548Y001372D01*
X001517Y001347D01*
X001484Y001326D01*
X001449Y001308D01*
X001412Y001294D01*
X001375Y001283D01*
X001336Y001276D01*
X001297Y001273D01*
X001258Y001274D01*
X001219Y001279D01*
X001180Y001288D01*
X001143Y001300D01*
X001107Y001316D01*
X001073Y001336D01*
X001041Y001359D01*
X001012Y001385D01*
X000985Y001414D01*
X000961Y001445D01*
X000941Y001479D01*
X000924Y001514D01*
X000911Y001551D01*
X000901Y001589D01*
X000895Y001628D01*
X000893Y001667D01*
X000500Y001667D02*
X000502Y001613D01*
X000507Y001560D01*
X000516Y001507D01*
X000529Y001455D01*
X000545Y001403D01*
X000565Y001353D01*
X000588Y001305D01*
X000615Y001258D01*
X000644Y001213D01*
X000677Y001170D01*
X000712Y001130D01*
X000750Y001092D01*
X000790Y001057D01*
X000833Y001024D01*
X000878Y000995D01*
X000925Y000968D01*
X000973Y000945D01*
X001023Y000925D01*
X001075Y000909D01*
X001127Y000896D01*
X001180Y000887D01*
X001233Y000882D01*
X001287Y000880D01*
X000500Y011904D02*
X000502Y011958D01*
X000507Y012011D01*
X000516Y012064D01*
X000529Y012116D01*
X000545Y012168D01*
X000565Y012218D01*
X000588Y012266D01*
X000615Y012313D01*
X000644Y012358D01*
X000677Y012401D01*
X000712Y012441D01*
X000750Y012479D01*
X000790Y012514D01*
X000833Y012547D01*
X000878Y012576D01*
X000925Y012603D01*
X000973Y012626D01*
X001023Y012646D01*
X001075Y012662D01*
X001127Y012675D01*
X001180Y012684D01*
X001233Y012689D01*
X001287Y012691D01*
D14*
X008985Y007650D03*
D15*
X010560Y007650D03*
X012135Y007650D03*
D16*
X012293Y011587D02*
X012295Y011617D01*
X012301Y011647D01*
X012310Y011676D01*
X012323Y011703D01*
X012340Y011728D01*
X012359Y011751D01*
X012382Y011772D01*
X012407Y011789D01*
X012433Y011803D01*
X012462Y011813D01*
X012491Y011820D01*
X012521Y011823D01*
X012552Y011822D01*
X012582Y011817D01*
X012611Y011808D01*
X012638Y011796D01*
X012664Y011781D01*
X012688Y011762D01*
X012709Y011740D01*
X012727Y011716D01*
X012742Y011689D01*
X012753Y011661D01*
X012761Y011632D01*
X012765Y011602D01*
X012765Y011572D01*
X012761Y011542D01*
X012753Y011513D01*
X012742Y011485D01*
X012727Y011458D01*
X012709Y011434D01*
X012688Y011412D01*
X012664Y011393D01*
X012638Y011378D01*
X012611Y011366D01*
X012582Y011357D01*
X012552Y011352D01*
X012521Y011351D01*
X012491Y011354D01*
X012462Y011361D01*
X012433Y011371D01*
X012407Y011385D01*
X012382Y011402D01*
X012359Y011423D01*
X012340Y011446D01*
X012323Y011471D01*
X012310Y011498D01*
X012301Y011527D01*
X012295Y011557D01*
X012293Y011587D01*
X008355Y011587D02*
X008357Y011617D01*
X008363Y011647D01*
X008372Y011676D01*
X008385Y011703D01*
X008402Y011728D01*
X008421Y011751D01*
X008444Y011772D01*
X008469Y011789D01*
X008495Y011803D01*
X008524Y011813D01*
X008553Y011820D01*
X008583Y011823D01*
X008614Y011822D01*
X008644Y011817D01*
X008673Y011808D01*
X008700Y011796D01*
X008726Y011781D01*
X008750Y011762D01*
X008771Y011740D01*
X008789Y011716D01*
X008804Y011689D01*
X008815Y011661D01*
X008823Y011632D01*
X008827Y011602D01*
X008827Y011572D01*
X008823Y011542D01*
X008815Y011513D01*
X008804Y011485D01*
X008789Y011458D01*
X008771Y011434D01*
X008750Y011412D01*
X008726Y011393D01*
X008700Y011378D01*
X008673Y011366D01*
X008644Y011357D01*
X008614Y011352D01*
X008583Y011351D01*
X008553Y011354D01*
X008524Y011361D01*
X008495Y011371D01*
X008469Y011385D01*
X008444Y011402D01*
X008421Y011423D01*
X008402Y011446D01*
X008385Y011471D01*
X008372Y011498D01*
X008363Y011527D01*
X008357Y011557D01*
X008355Y011587D01*
D17*
X003226Y007636D03*
X017379Y005676D03*
D18*
X017379Y006676D03*
X017379Y007676D03*
X003226Y006636D03*
X003226Y005636D03*
D19*
X003226Y006636D02*
X007274Y006636D01*
X007860Y006050D01*
X008645Y006050D01*
X008660Y006035D01*
X008660Y007325D01*
X008985Y007650D01*
X011660Y010150D01*
X012360Y010650D01*
X017360Y010650D01*
X017660Y010950D01*
X018114Y010950D01*
X018177Y010888D01*
X018214Y010950D01*
X019260Y010950D01*
X019460Y010550D01*
X019460Y007150D01*
X018986Y006676D01*
X017379Y006676D01*
X017475Y005995D02*
X017160Y005995D01*
X017379Y005776D01*
X017379Y005676D01*
X017160Y005995D02*
X011210Y005995D01*
X009710Y005995D02*
X008700Y005995D01*
X008660Y006035D01*
X009710Y005995D02*
X009710Y003905D01*
X010206Y003905D02*
X010206Y003196D01*
X010060Y003050D01*
X009960Y002950D01*
X002460Y002950D01*
X002160Y003250D01*
X002160Y006950D01*
X002846Y007636D01*
X003226Y007636D01*
X010660Y004650D02*
X010672Y004648D01*
X010683Y004644D01*
X010693Y004637D01*
X010700Y004627D01*
X010704Y004616D01*
X010706Y004604D01*
X010706Y003905D01*
X013860Y007450D02*
X014799Y008389D01*
X018177Y008389D01*
X018177Y009059D02*
X018177Y010297D01*
D20*
X018544Y010305D02*
X019130Y010305D01*
X019130Y010403D02*
X018544Y010403D01*
X018544Y010502D02*
X019115Y010502D01*
X019130Y010472D02*
X019056Y010620D01*
X018521Y010620D01*
X018493Y010593D01*
X018544Y010542D01*
X018544Y010053D01*
X018507Y010015D01*
X018507Y009439D01*
X018583Y009362D01*
X018583Y008755D01*
X018505Y008677D01*
X018513Y008664D01*
X018523Y008626D01*
X018523Y008438D01*
X018225Y008438D01*
X018225Y008341D01*
X018523Y008341D01*
X018523Y008153D01*
X018513Y008115D01*
X018493Y008081D01*
X018465Y008053D01*
X018431Y008033D01*
X018393Y008023D01*
X018225Y008023D01*
X018225Y008341D01*
X018128Y008341D01*
X017830Y008341D01*
X017830Y008153D01*
X017840Y008115D01*
X017860Y008081D01*
X017888Y008053D01*
X017922Y008033D01*
X017960Y008023D01*
X018128Y008023D01*
X018128Y008341D01*
X018128Y008438D01*
X017830Y008438D01*
X017830Y008626D01*
X017840Y008664D01*
X017848Y008677D01*
X017770Y008755D01*
X017770Y009362D01*
X017847Y009439D01*
X017847Y010015D01*
X017809Y010053D01*
X017809Y010542D01*
X017860Y010593D01*
X017832Y010620D01*
X017797Y010620D01*
X017547Y010370D01*
X017426Y010320D01*
X012466Y010320D01*
X011869Y009894D01*
X009550Y007726D01*
X009550Y007209D01*
X009427Y007086D01*
X008990Y007086D01*
X008990Y006415D01*
X009067Y006338D01*
X009067Y006325D01*
X009382Y006325D01*
X009382Y006397D01*
X009505Y006520D01*
X009915Y006520D01*
X009960Y006475D01*
X010005Y006520D01*
X010415Y006520D01*
X010460Y006475D01*
X010505Y006520D01*
X010915Y006520D01*
X010960Y006475D01*
X011005Y006520D01*
X011415Y006520D01*
X011538Y006397D01*
X011538Y006325D01*
X017069Y006325D01*
X016983Y006411D01*
X016912Y006583D01*
X016912Y006768D01*
X016983Y006940D01*
X017114Y007072D01*
X017286Y007143D01*
X017472Y007143D01*
X017644Y007072D01*
X017710Y007006D01*
X018849Y007006D01*
X019130Y007287D01*
X019130Y010472D01*
X019066Y010600D02*
X018501Y010600D01*
X018544Y010206D02*
X019130Y010206D01*
X019130Y010108D02*
X018544Y010108D01*
X018507Y010009D02*
X019130Y010009D01*
X019130Y009911D02*
X018507Y009911D01*
X018507Y009812D02*
X019130Y009812D01*
X019130Y009714D02*
X018507Y009714D01*
X018507Y009615D02*
X019130Y009615D01*
X019130Y009517D02*
X018507Y009517D01*
X018528Y009418D02*
X019130Y009418D01*
X019130Y009320D02*
X018583Y009320D01*
X018583Y009221D02*
X019130Y009221D01*
X019130Y009123D02*
X018583Y009123D01*
X018583Y009024D02*
X019130Y009024D01*
X019130Y008926D02*
X018583Y008926D01*
X018583Y008827D02*
X019130Y008827D01*
X019130Y008729D02*
X018557Y008729D01*
X018522Y008630D02*
X019130Y008630D01*
X019130Y008532D02*
X018523Y008532D01*
X018523Y008335D02*
X019130Y008335D01*
X019130Y008433D02*
X018225Y008433D01*
X018128Y008433D02*
X010306Y008433D01*
X010201Y008335D02*
X017830Y008335D01*
X017830Y008236D02*
X010095Y008236D01*
X009990Y008138D02*
X010262Y008138D01*
X010240Y008128D02*
X010082Y007970D01*
X009996Y007762D01*
X009996Y007538D01*
X010082Y007330D01*
X010240Y007172D01*
X010448Y007086D01*
X010672Y007086D01*
X010880Y007172D01*
X011038Y007330D01*
X011124Y007538D01*
X011124Y007762D01*
X011038Y007970D01*
X010880Y008128D01*
X010672Y008214D01*
X010448Y008214D01*
X010240Y008128D01*
X010151Y008039D02*
X009885Y008039D01*
X009779Y007941D02*
X010070Y007941D01*
X010029Y007842D02*
X009674Y007842D01*
X009569Y007744D02*
X009996Y007744D01*
X009996Y007645D02*
X009550Y007645D01*
X009550Y007547D02*
X009996Y007547D01*
X010033Y007448D02*
X009550Y007448D01*
X009550Y007350D02*
X010074Y007350D01*
X010161Y007251D02*
X009550Y007251D01*
X009493Y007153D02*
X010286Y007153D01*
X010834Y007153D02*
X012052Y007153D01*
X012085Y007153D02*
X012185Y007153D01*
X012185Y007147D02*
X012253Y007158D01*
X012328Y007183D01*
X012399Y007219D01*
X012463Y007265D01*
X012519Y007321D01*
X012566Y007386D01*
X012602Y007456D01*
X012627Y007532D01*
X012638Y007600D01*
X012185Y007600D01*
X012185Y007700D01*
X012638Y007700D01*
X012627Y007768D01*
X012602Y007844D01*
X012566Y007914D01*
X012519Y007979D01*
X012463Y008035D01*
X012399Y008081D01*
X012328Y008117D01*
X012253Y008142D01*
X012185Y008153D01*
X012185Y007700D01*
X012085Y007700D01*
X012085Y008153D01*
X012017Y008142D01*
X011941Y008117D01*
X011870Y008081D01*
X011806Y008035D01*
X011750Y007979D01*
X011703Y007914D01*
X011667Y007844D01*
X011643Y007768D01*
X011632Y007700D01*
X012085Y007700D01*
X012085Y007600D01*
X012185Y007600D01*
X012185Y007147D01*
X012218Y007153D02*
X018996Y007153D01*
X019094Y007251D02*
X012444Y007251D01*
X012540Y007350D02*
X017135Y007350D01*
X017114Y007365D02*
X017166Y007327D01*
X017223Y007298D01*
X017284Y007278D01*
X017347Y007268D01*
X017350Y007268D01*
X017350Y007647D01*
X016972Y007647D01*
X016972Y007643D01*
X016982Y007580D01*
X017002Y007519D01*
X017031Y007462D01*
X017068Y007410D01*
X017114Y007365D01*
X017041Y007448D02*
X012598Y007448D01*
X012629Y007547D02*
X016993Y007547D01*
X016972Y007645D02*
X012185Y007645D01*
X012185Y007547D02*
X012085Y007547D01*
X012085Y007600D02*
X012085Y007147D01*
X012017Y007158D01*
X011941Y007183D01*
X011870Y007219D01*
X011806Y007265D01*
X011750Y007321D01*
X011703Y007386D01*
X011667Y007456D01*
X011643Y007532D01*
X011632Y007600D01*
X012085Y007600D01*
X012085Y007645D02*
X011124Y007645D01*
X011124Y007547D02*
X011641Y007547D01*
X011672Y007448D02*
X011087Y007448D01*
X011046Y007350D02*
X011730Y007350D01*
X011826Y007251D02*
X010959Y007251D01*
X011124Y007744D02*
X011639Y007744D01*
X011667Y007842D02*
X011091Y007842D01*
X011050Y007941D02*
X011722Y007941D01*
X011812Y008039D02*
X010969Y008039D01*
X010858Y008138D02*
X012003Y008138D01*
X012085Y008138D02*
X012185Y008138D01*
X012266Y008138D02*
X017834Y008138D01*
X017911Y008039D02*
X017563Y008039D01*
X017536Y008053D02*
X017475Y008073D01*
X017411Y008083D01*
X017408Y008083D01*
X017408Y007704D01*
X017787Y007704D01*
X017787Y007708D01*
X017777Y007771D01*
X017757Y007832D01*
X017728Y007889D01*
X017690Y007941D01*
X017645Y007986D01*
X017593Y008024D01*
X017536Y008053D01*
X017408Y008039D02*
X017350Y008039D01*
X017350Y008083D02*
X017347Y008083D01*
X017284Y008073D01*
X017223Y008053D01*
X017166Y008024D01*
X017114Y007986D01*
X017068Y007941D01*
X017031Y007889D01*
X017002Y007832D01*
X016982Y007771D01*
X016972Y007708D01*
X016972Y007704D01*
X017350Y007704D01*
X017350Y007647D01*
X017408Y007647D01*
X017408Y007704D01*
X017350Y007704D01*
X017350Y008083D01*
X017350Y007941D02*
X017408Y007941D01*
X017408Y007842D02*
X017350Y007842D01*
X017350Y007744D02*
X017408Y007744D01*
X017408Y007647D02*
X017787Y007647D01*
X017787Y007643D01*
X017777Y007580D01*
X017757Y007519D01*
X017728Y007462D01*
X017690Y007410D01*
X017645Y007365D01*
X017593Y007327D01*
X017536Y007298D01*
X017475Y007278D01*
X017411Y007268D01*
X017408Y007268D01*
X017408Y007647D01*
X017408Y007645D02*
X017350Y007645D01*
X017350Y007547D02*
X017408Y007547D01*
X017408Y007448D02*
X017350Y007448D01*
X017350Y007350D02*
X017408Y007350D01*
X017624Y007350D02*
X019130Y007350D01*
X019130Y007448D02*
X017718Y007448D01*
X017766Y007547D02*
X019130Y007547D01*
X019130Y007645D02*
X017787Y007645D01*
X017781Y007744D02*
X019130Y007744D01*
X019130Y007842D02*
X017752Y007842D01*
X017690Y007941D02*
X019130Y007941D01*
X019130Y008039D02*
X018442Y008039D01*
X018519Y008138D02*
X019130Y008138D01*
X019130Y008236D02*
X018523Y008236D01*
X018225Y008236D02*
X018128Y008236D01*
X018128Y008138D02*
X018225Y008138D01*
X018225Y008039D02*
X018128Y008039D01*
X018128Y008335D02*
X018225Y008335D01*
X017830Y008532D02*
X010412Y008532D01*
X010517Y008630D02*
X017831Y008630D01*
X017796Y008729D02*
X010622Y008729D01*
X010728Y008827D02*
X017770Y008827D01*
X017770Y008926D02*
X010833Y008926D01*
X010939Y009024D02*
X017770Y009024D01*
X017770Y009123D02*
X011044Y009123D01*
X011149Y009221D02*
X017770Y009221D01*
X017770Y009320D02*
X011255Y009320D01*
X011360Y009418D02*
X017826Y009418D01*
X017847Y009517D02*
X011466Y009517D01*
X011571Y009615D02*
X017847Y009615D01*
X017847Y009714D02*
X011676Y009714D01*
X011782Y009812D02*
X017847Y009812D01*
X017847Y009911D02*
X011892Y009911D01*
X012030Y010009D02*
X017847Y010009D01*
X017809Y010108D02*
X012168Y010108D01*
X012306Y010206D02*
X017809Y010206D01*
X017809Y010305D02*
X012444Y010305D01*
X011998Y010797D02*
X000975Y010797D01*
X000975Y010699D02*
X011860Y010699D01*
X011722Y010600D02*
X000975Y010600D01*
X000975Y010502D02*
X011584Y010502D01*
X011503Y010444D02*
X011483Y010436D01*
X011451Y010406D01*
X011415Y010380D01*
X011403Y010361D01*
X009106Y008214D01*
X008544Y008214D01*
X008421Y008091D01*
X008421Y007552D01*
X008380Y007512D01*
X008330Y007390D01*
X008330Y006415D01*
X008295Y006380D01*
X007997Y006380D01*
X007461Y006915D01*
X007340Y006966D01*
X003557Y006966D01*
X003491Y007032D01*
X003319Y007103D01*
X003133Y007103D01*
X002961Y007032D01*
X002830Y006900D01*
X002758Y006728D01*
X002758Y006543D01*
X002830Y006371D01*
X002961Y006239D01*
X003133Y006168D01*
X003319Y006168D01*
X003491Y006239D01*
X003557Y006306D01*
X007138Y006306D01*
X007580Y005863D01*
X007673Y005770D01*
X007794Y005720D01*
X008264Y005720D01*
X008331Y005653D01*
X008323Y005640D01*
X008313Y005602D01*
X008313Y005414D01*
X008612Y005414D01*
X008612Y005317D01*
X008708Y005317D01*
X008708Y004999D01*
X008877Y004999D01*
X008915Y005009D01*
X008949Y005029D01*
X008977Y005057D01*
X008997Y005091D01*
X009007Y005129D01*
X009007Y005317D01*
X008708Y005317D01*
X008708Y005414D01*
X009007Y005414D01*
X009007Y005602D01*
X008997Y005640D01*
X008989Y005653D01*
X009001Y005665D01*
X009380Y005665D01*
X009380Y003839D01*
X009382Y003835D01*
X009382Y003503D01*
X009505Y003380D01*
X009876Y003380D01*
X009876Y003334D01*
X009840Y003297D01*
X009839Y003296D01*
X009823Y003280D01*
X002597Y003280D01*
X002490Y003387D01*
X002490Y006813D01*
X002863Y007186D01*
X002881Y007168D01*
X003570Y007168D01*
X003693Y007291D01*
X003693Y007980D01*
X003570Y008103D01*
X002881Y008103D01*
X002758Y007980D01*
X002758Y007957D01*
X002659Y007915D01*
X002566Y007822D01*
X001973Y007230D01*
X001880Y007137D01*
X001830Y007016D01*
X001830Y003184D01*
X001880Y003063D01*
X002180Y002763D01*
X002273Y002670D01*
X002394Y002620D01*
X010026Y002620D01*
X010147Y002670D01*
X010340Y002863D01*
X010486Y003009D01*
X010536Y003130D01*
X010536Y003380D01*
X010911Y003380D01*
X010999Y003468D01*
X011030Y003450D01*
X011068Y003440D01*
X011197Y003440D01*
X011197Y003896D01*
X011215Y003896D01*
X011215Y003440D01*
X011344Y003440D01*
X011382Y003450D01*
X011416Y003470D01*
X011444Y003498D01*
X011464Y003532D01*
X011474Y003570D01*
X011474Y003896D01*
X011215Y003896D01*
X011215Y003914D01*
X011474Y003914D01*
X011474Y004240D01*
X011464Y004278D01*
X011444Y004312D01*
X011416Y004340D01*
X011382Y004360D01*
X011344Y004370D01*
X011215Y004370D01*
X011215Y003914D01*
X011197Y003914D01*
X011197Y004370D01*
X011068Y004370D01*
X011036Y004361D01*
X011036Y004487D01*
X011070Y004568D01*
X011070Y004732D01*
X011008Y004882D01*
X010892Y004998D01*
X010742Y005060D01*
X010578Y005060D01*
X010428Y004998D01*
X010312Y004882D01*
X010250Y004732D01*
X010250Y004568D01*
X010307Y004430D01*
X010040Y004430D01*
X010040Y005470D01*
X010415Y005470D01*
X010460Y005515D01*
X010505Y005470D01*
X010915Y005470D01*
X010960Y005515D01*
X011005Y005470D01*
X011415Y005470D01*
X011538Y005593D01*
X011538Y005665D01*
X016912Y005665D01*
X016912Y005331D01*
X017035Y005208D01*
X017724Y005208D01*
X017847Y005331D01*
X017847Y006020D01*
X017804Y006062D01*
X017755Y006182D01*
X017662Y006275D01*
X017646Y006281D01*
X017710Y006346D01*
X019051Y006346D01*
X019172Y006396D01*
X019647Y006870D01*
X019710Y006933D01*
X019710Y002459D01*
X019488Y002531D01*
X019129Y002494D01*
X018816Y002313D01*
X018604Y002021D01*
X018529Y001667D01*
X018595Y001355D01*
X002078Y001355D01*
X002137Y001487D01*
X002137Y001848D01*
X001990Y002178D01*
X001722Y002420D01*
X001378Y002531D01*
X001019Y002494D01*
X000975Y002468D01*
X000975Y011103D01*
X001019Y011077D01*
X001378Y011040D01*
X001722Y011151D01*
X001990Y011393D01*
X002137Y011723D01*
X002137Y012084D01*
X002078Y012216D01*
X008317Y012216D01*
X008203Y012169D01*
X008010Y011976D01*
X007905Y011724D01*
X007905Y011451D01*
X008010Y011198D01*
X008203Y011005D01*
X008455Y010901D01*
X008728Y010901D01*
X008980Y011005D01*
X009173Y011198D01*
X009278Y011451D01*
X009278Y011724D01*
X009173Y011976D01*
X008980Y012169D01*
X008866Y012216D01*
X012254Y012216D01*
X012140Y012169D01*
X011947Y011976D01*
X011842Y011724D01*
X011842Y011451D01*
X011947Y011198D01*
X012140Y011005D01*
X012244Y010962D01*
X012222Y010957D01*
X012199Y010940D01*
X012173Y010930D01*
X012146Y010903D01*
X011503Y010444D01*
X011446Y010403D02*
X000975Y010403D01*
X000975Y010305D02*
X011342Y010305D01*
X011237Y010206D02*
X000975Y010206D01*
X000975Y010108D02*
X011131Y010108D01*
X011026Y010009D02*
X000975Y010009D01*
X000975Y009911D02*
X010920Y009911D01*
X010815Y009812D02*
X000975Y009812D01*
X000975Y009714D02*
X010710Y009714D01*
X010604Y009615D02*
X000975Y009615D01*
X000975Y009517D02*
X010499Y009517D01*
X010394Y009418D02*
X000975Y009418D01*
X000975Y009320D02*
X010288Y009320D01*
X010183Y009221D02*
X000975Y009221D01*
X000975Y009123D02*
X010077Y009123D01*
X009972Y009024D02*
X000975Y009024D01*
X000975Y008926D02*
X009867Y008926D01*
X009761Y008827D02*
X000975Y008827D01*
X000975Y008729D02*
X009656Y008729D01*
X009550Y008630D02*
X000975Y008630D01*
X000975Y008532D02*
X009445Y008532D01*
X009340Y008433D02*
X000975Y008433D01*
X000975Y008335D02*
X009234Y008335D01*
X009129Y008236D02*
X000975Y008236D01*
X000975Y008138D02*
X008467Y008138D01*
X008421Y008039D02*
X003634Y008039D01*
X003693Y007941D02*
X008421Y007941D01*
X008421Y007842D02*
X003693Y007842D01*
X003693Y007744D02*
X008421Y007744D01*
X008421Y007645D02*
X003693Y007645D01*
X003693Y007547D02*
X008415Y007547D01*
X008354Y007448D02*
X003693Y007448D01*
X003693Y007350D02*
X008330Y007350D01*
X008330Y007251D02*
X003653Y007251D01*
X003437Y007054D02*
X008330Y007054D01*
X008330Y006956D02*
X007364Y006956D01*
X007520Y006857D02*
X008330Y006857D01*
X008330Y006759D02*
X007618Y006759D01*
X007717Y006660D02*
X008330Y006660D01*
X008330Y006562D02*
X007815Y006562D01*
X007914Y006463D02*
X008330Y006463D01*
X008990Y006463D02*
X009448Y006463D01*
X009382Y006365D02*
X009041Y006365D01*
X008990Y006562D02*
X016920Y006562D01*
X016912Y006660D02*
X008990Y006660D01*
X008990Y006759D02*
X016912Y006759D01*
X016948Y006857D02*
X008990Y006857D01*
X008990Y006956D02*
X016998Y006956D01*
X017097Y007054D02*
X008990Y007054D01*
X008330Y007153D02*
X002829Y007153D01*
X002731Y007054D02*
X003015Y007054D01*
X002885Y006956D02*
X002632Y006956D01*
X002534Y006857D02*
X002812Y006857D01*
X002771Y006759D02*
X002490Y006759D01*
X002490Y006660D02*
X002758Y006660D01*
X002758Y006562D02*
X002490Y006562D01*
X002490Y006463D02*
X002791Y006463D01*
X002836Y006365D02*
X002490Y006365D01*
X002490Y006266D02*
X002934Y006266D01*
X003069Y006013D02*
X003012Y005984D01*
X002960Y005946D01*
X002915Y005901D01*
X002877Y005849D01*
X002848Y005792D01*
X002828Y005731D01*
X002818Y005668D01*
X002818Y005664D01*
X003197Y005664D01*
X003197Y005607D01*
X002818Y005607D01*
X002818Y005603D01*
X002828Y005540D01*
X002848Y005479D01*
X002877Y005422D01*
X002915Y005370D01*
X002960Y005325D01*
X003012Y005287D01*
X003069Y005258D01*
X003130Y005238D01*
X003194Y005228D01*
X003197Y005228D01*
X003197Y005607D01*
X003255Y005607D01*
X003255Y005664D01*
X003633Y005664D01*
X003633Y005668D01*
X003623Y005731D01*
X003604Y005792D01*
X003574Y005849D01*
X003537Y005901D01*
X003491Y005946D01*
X003439Y005984D01*
X003382Y006013D01*
X003321Y006033D01*
X003258Y006043D01*
X003255Y006043D01*
X003255Y005664D01*
X003197Y005664D01*
X003197Y006043D01*
X003194Y006043D01*
X003130Y006033D01*
X003069Y006013D01*
X002994Y005971D02*
X002490Y005971D01*
X002490Y006069D02*
X007374Y006069D01*
X007276Y006168D02*
X002490Y006168D01*
X002490Y005872D02*
X002894Y005872D01*
X002842Y005774D02*
X002490Y005774D01*
X002490Y005675D02*
X002820Y005675D01*
X002823Y005577D02*
X002490Y005577D01*
X002490Y005478D02*
X002849Y005478D01*
X002908Y005380D02*
X002490Y005380D01*
X002490Y005281D02*
X003024Y005281D01*
X003197Y005281D02*
X003255Y005281D01*
X003255Y005228D02*
X003258Y005228D01*
X003321Y005238D01*
X003382Y005258D01*
X003439Y005287D01*
X003491Y005325D01*
X003537Y005370D01*
X003574Y005422D01*
X003604Y005479D01*
X003623Y005540D01*
X003633Y005603D01*
X003633Y005607D01*
X003255Y005607D01*
X003255Y005228D01*
X003255Y005380D02*
X003197Y005380D01*
X003197Y005478D02*
X003255Y005478D01*
X003255Y005577D02*
X003197Y005577D01*
X003197Y005675D02*
X003255Y005675D01*
X003255Y005774D02*
X003197Y005774D01*
X003197Y005872D02*
X003255Y005872D01*
X003255Y005971D02*
X003197Y005971D01*
X003458Y005971D02*
X007473Y005971D01*
X007571Y005872D02*
X003558Y005872D01*
X003610Y005774D02*
X007670Y005774D01*
X008309Y005675D02*
X003632Y005675D01*
X003629Y005577D02*
X008313Y005577D01*
X008313Y005478D02*
X003603Y005478D01*
X003544Y005380D02*
X008612Y005380D01*
X008612Y005317D02*
X008313Y005317D01*
X008313Y005129D01*
X008323Y005091D01*
X008343Y005057D01*
X008371Y005029D01*
X008405Y005009D01*
X008443Y004999D01*
X008612Y004999D01*
X008612Y005317D01*
X008612Y005281D02*
X008708Y005281D01*
X008708Y005183D02*
X008612Y005183D01*
X008612Y005084D02*
X008708Y005084D01*
X008993Y005084D02*
X009380Y005084D01*
X009380Y004986D02*
X002490Y004986D01*
X002490Y005084D02*
X008327Y005084D01*
X008313Y005183D02*
X002490Y005183D01*
X002490Y004887D02*
X009380Y004887D01*
X009380Y004789D02*
X002490Y004789D01*
X002490Y004690D02*
X009380Y004690D01*
X009380Y004592D02*
X002490Y004592D01*
X002490Y004493D02*
X009380Y004493D01*
X009380Y004395D02*
X002490Y004395D01*
X002490Y004296D02*
X009380Y004296D01*
X009380Y004198D02*
X002490Y004198D01*
X002490Y004099D02*
X009380Y004099D01*
X009380Y004001D02*
X002490Y004001D01*
X002490Y003902D02*
X009380Y003902D01*
X009382Y003804D02*
X002490Y003804D01*
X002490Y003705D02*
X009382Y003705D01*
X009382Y003607D02*
X002490Y003607D01*
X002490Y003508D02*
X009382Y003508D01*
X009476Y003410D02*
X002490Y003410D01*
X002566Y003311D02*
X009853Y003311D01*
X010060Y003150D02*
X010160Y003250D01*
X010260Y003250D02*
X010060Y003050D01*
X010060Y003150D01*
X010295Y002819D02*
X019710Y002819D01*
X019710Y002917D02*
X010394Y002917D01*
X010488Y003016D02*
X019710Y003016D01*
X019710Y003114D02*
X010529Y003114D01*
X010536Y003213D02*
X019710Y003213D01*
X019710Y003311D02*
X010536Y003311D01*
X010941Y003410D02*
X019710Y003410D01*
X019710Y003508D02*
X011450Y003508D01*
X011474Y003607D02*
X019710Y003607D01*
X019710Y003705D02*
X011474Y003705D01*
X011474Y003804D02*
X019710Y003804D01*
X019710Y003902D02*
X011215Y003902D01*
X011215Y003804D02*
X011197Y003804D01*
X011197Y003705D02*
X011215Y003705D01*
X011215Y003607D02*
X011197Y003607D01*
X011197Y003508D02*
X011215Y003508D01*
X011197Y004001D02*
X011215Y004001D01*
X011215Y004099D02*
X011197Y004099D01*
X011197Y004198D02*
X011215Y004198D01*
X011215Y004296D02*
X011197Y004296D01*
X011036Y004395D02*
X019710Y004395D01*
X019710Y004493D02*
X011039Y004493D01*
X011070Y004592D02*
X019710Y004592D01*
X019710Y004690D02*
X011070Y004690D01*
X011046Y004789D02*
X019710Y004789D01*
X019710Y004887D02*
X011003Y004887D01*
X010904Y004986D02*
X019710Y004986D01*
X019710Y005084D02*
X010040Y005084D01*
X010040Y004986D02*
X010416Y004986D01*
X010317Y004887D02*
X010040Y004887D01*
X010040Y004789D02*
X010274Y004789D01*
X010250Y004690D02*
X010040Y004690D01*
X010040Y004592D02*
X010250Y004592D01*
X010281Y004493D02*
X010040Y004493D01*
X010040Y005183D02*
X019710Y005183D01*
X019710Y005281D02*
X017797Y005281D01*
X017847Y005380D02*
X019710Y005380D01*
X019710Y005478D02*
X017847Y005478D01*
X017847Y005577D02*
X019710Y005577D01*
X019710Y005675D02*
X017847Y005675D01*
X017847Y005774D02*
X019710Y005774D01*
X019710Y005872D02*
X017847Y005872D01*
X017847Y005971D02*
X019710Y005971D01*
X019710Y006069D02*
X017802Y006069D01*
X017761Y006168D02*
X019710Y006168D01*
X019710Y006266D02*
X017671Y006266D01*
X017029Y006365D02*
X011538Y006365D01*
X011472Y006463D02*
X016961Y006463D01*
X017662Y007054D02*
X018897Y007054D01*
X019437Y006660D02*
X019710Y006660D01*
X019710Y006562D02*
X019338Y006562D01*
X019240Y006463D02*
X019710Y006463D01*
X019710Y006365D02*
X019097Y006365D01*
X019535Y006759D02*
X019710Y006759D01*
X019710Y006857D02*
X019634Y006857D01*
X017195Y008039D02*
X012457Y008039D01*
X012547Y007941D02*
X017068Y007941D01*
X017007Y007842D02*
X012603Y007842D01*
X012631Y007744D02*
X016977Y007744D01*
X016912Y005577D02*
X011522Y005577D01*
X011423Y005478D02*
X016912Y005478D01*
X016912Y005380D02*
X010040Y005380D01*
X010040Y005281D02*
X016962Y005281D01*
X019710Y004296D02*
X011454Y004296D01*
X011474Y004198D02*
X019710Y004198D01*
X019710Y004099D02*
X011474Y004099D01*
X011474Y004001D02*
X019710Y004001D01*
X019710Y002720D02*
X010197Y002720D01*
X010029Y002622D02*
X019710Y002622D01*
X019710Y002523D02*
X019514Y002523D01*
X019409Y002523D02*
X001404Y002523D01*
X001299Y002523D02*
X000975Y002523D01*
X000975Y002622D02*
X002391Y002622D01*
X002223Y002720D02*
X000975Y002720D01*
X000975Y002819D02*
X002125Y002819D01*
X002026Y002917D02*
X000975Y002917D01*
X000975Y003016D02*
X001928Y003016D01*
X001859Y003114D02*
X000975Y003114D01*
X000975Y003213D02*
X001830Y003213D01*
X001830Y003311D02*
X000975Y003311D01*
X000975Y003410D02*
X001830Y003410D01*
X001830Y003508D02*
X000975Y003508D01*
X000975Y003607D02*
X001830Y003607D01*
X001830Y003705D02*
X000975Y003705D01*
X000975Y003804D02*
X001830Y003804D01*
X001830Y003902D02*
X000975Y003902D01*
X000975Y004001D02*
X001830Y004001D01*
X001830Y004099D02*
X000975Y004099D01*
X000975Y004198D02*
X001830Y004198D01*
X001830Y004296D02*
X000975Y004296D01*
X000975Y004395D02*
X001830Y004395D01*
X001830Y004493D02*
X000975Y004493D01*
X000975Y004592D02*
X001830Y004592D01*
X001830Y004690D02*
X000975Y004690D01*
X000975Y004789D02*
X001830Y004789D01*
X001830Y004887D02*
X000975Y004887D01*
X000975Y004986D02*
X001830Y004986D01*
X001830Y005084D02*
X000975Y005084D01*
X000975Y005183D02*
X001830Y005183D01*
X001830Y005281D02*
X000975Y005281D01*
X000975Y005380D02*
X001830Y005380D01*
X001830Y005478D02*
X000975Y005478D01*
X000975Y005577D02*
X001830Y005577D01*
X001830Y005675D02*
X000975Y005675D01*
X000975Y005774D02*
X001830Y005774D01*
X001830Y005872D02*
X000975Y005872D01*
X000975Y005971D02*
X001830Y005971D01*
X001830Y006069D02*
X000975Y006069D01*
X000975Y006168D02*
X001830Y006168D01*
X001830Y006266D02*
X000975Y006266D01*
X000975Y006365D02*
X001830Y006365D01*
X001830Y006463D02*
X000975Y006463D01*
X000975Y006562D02*
X001830Y006562D01*
X001830Y006660D02*
X000975Y006660D01*
X000975Y006759D02*
X001830Y006759D01*
X001830Y006857D02*
X000975Y006857D01*
X000975Y006956D02*
X001830Y006956D01*
X001846Y007054D02*
X000975Y007054D01*
X000975Y007153D02*
X001896Y007153D01*
X001994Y007251D02*
X000975Y007251D01*
X000975Y007350D02*
X002093Y007350D01*
X002191Y007448D02*
X000975Y007448D01*
X000975Y007547D02*
X002290Y007547D01*
X002388Y007645D02*
X000975Y007645D01*
X000975Y007744D02*
X002487Y007744D01*
X002566Y007822D02*
X002566Y007822D01*
X002585Y007842D02*
X000975Y007842D01*
X000975Y007941D02*
X002720Y007941D01*
X002817Y008039D02*
X000975Y008039D01*
X003518Y006266D02*
X007177Y006266D01*
X008313Y005281D02*
X003428Y005281D01*
X001707Y002425D02*
X019010Y002425D01*
X018839Y002326D02*
X001826Y002326D01*
X001935Y002228D02*
X018754Y002228D01*
X018683Y002129D02*
X002012Y002129D01*
X002056Y002031D02*
X018611Y002031D01*
X018585Y001932D02*
X002100Y001932D01*
X002137Y001834D02*
X018564Y001834D01*
X018543Y001735D02*
X002137Y001735D01*
X002137Y001637D02*
X018536Y001637D01*
X018556Y001538D02*
X002137Y001538D01*
X002116Y001440D02*
X018577Y001440D01*
X010997Y005478D02*
X010923Y005478D01*
X010497Y005478D02*
X010423Y005478D01*
X009380Y005478D02*
X009007Y005478D01*
X009007Y005577D02*
X009380Y005577D01*
X009380Y005380D02*
X008708Y005380D01*
X009007Y005281D02*
X009380Y005281D01*
X009380Y005183D02*
X009007Y005183D01*
X012085Y007251D02*
X012185Y007251D01*
X012185Y007350D02*
X012085Y007350D01*
X012085Y007448D02*
X012185Y007448D01*
X012185Y007744D02*
X012085Y007744D01*
X012085Y007842D02*
X012185Y007842D01*
X012185Y007941D02*
X012085Y007941D01*
X012085Y008039D02*
X012185Y008039D01*
X012136Y010896D02*
X000975Y010896D01*
X000975Y010994D02*
X008230Y010994D01*
X008116Y011093D02*
X001541Y011093D01*
X001766Y011191D02*
X008017Y011191D01*
X007972Y011290D02*
X001875Y011290D01*
X001985Y011388D02*
X007931Y011388D01*
X007905Y011487D02*
X002032Y011487D01*
X002076Y011585D02*
X007905Y011585D01*
X007905Y011684D02*
X002120Y011684D01*
X002137Y011782D02*
X007930Y011782D01*
X007970Y011881D02*
X002137Y011881D01*
X002137Y011979D02*
X008013Y011979D01*
X008112Y012078D02*
X002137Y012078D01*
X002096Y012176D02*
X008220Y012176D01*
X008963Y012176D02*
X012157Y012176D01*
X012049Y012078D02*
X009071Y012078D01*
X009170Y011979D02*
X011950Y011979D01*
X011907Y011881D02*
X009213Y011881D01*
X009253Y011782D02*
X011867Y011782D01*
X011842Y011684D02*
X009278Y011684D01*
X009278Y011585D02*
X011842Y011585D01*
X011842Y011487D02*
X009278Y011487D01*
X009252Y011388D02*
X011868Y011388D01*
X011909Y011290D02*
X009211Y011290D01*
X009166Y011191D02*
X011954Y011191D01*
X012053Y011093D02*
X009067Y011093D01*
X008953Y010994D02*
X012167Y010994D01*
X017580Y010403D02*
X017809Y010403D01*
X017809Y010502D02*
X017678Y010502D01*
X017777Y010600D02*
X017852Y010600D01*
X000993Y011093D02*
X000975Y011093D01*
D21*
X004060Y009450D03*
X005860Y010450D03*
X007560Y008150D03*
X007560Y005850D03*
X007560Y004650D03*
X012560Y004750D03*
X012560Y006750D03*
X013860Y007450D03*
D22*
X010660Y004650D03*
M02*
