G75*
%MOIN*%
%OFA0B0*%
%FSLAX25Y25*%
%IPPOS*%
%LPD*%
%AMOC8*
5,1,8,0,0,1.08239X$1,22.5*
%
%ADD10C,0.00000*%
%ADD11C,0.13398*%
%ADD12R,0.04737X0.05131*%
%ADD13R,0.05950X0.05950*%
%ADD14C,0.05950*%
%ADD15R,0.03162X0.07099*%
%ADD16C,0.09400*%
%ADD17R,0.03950X0.03950*%
%ADD18C,0.04762*%
%ADD19C,0.04800*%
D10*
X0001000Y0001000D02*
X0001000Y0394701D01*
X0630921Y0394701D01*
X0630921Y0001000D01*
X0001000Y0001000D01*
X0117901Y0072500D02*
X0117903Y0072658D01*
X0117909Y0072816D01*
X0117919Y0072974D01*
X0117933Y0073132D01*
X0117951Y0073289D01*
X0117972Y0073446D01*
X0117998Y0073602D01*
X0118028Y0073758D01*
X0118061Y0073913D01*
X0118099Y0074066D01*
X0118140Y0074219D01*
X0118185Y0074371D01*
X0118234Y0074522D01*
X0118287Y0074671D01*
X0118343Y0074819D01*
X0118403Y0074965D01*
X0118467Y0075110D01*
X0118535Y0075253D01*
X0118606Y0075395D01*
X0118680Y0075535D01*
X0118758Y0075672D01*
X0118840Y0075808D01*
X0118924Y0075942D01*
X0119013Y0076073D01*
X0119104Y0076202D01*
X0119199Y0076329D01*
X0119296Y0076454D01*
X0119397Y0076576D01*
X0119501Y0076695D01*
X0119608Y0076812D01*
X0119718Y0076926D01*
X0119831Y0077037D01*
X0119946Y0077146D01*
X0120064Y0077251D01*
X0120185Y0077353D01*
X0120308Y0077453D01*
X0120434Y0077549D01*
X0120562Y0077642D01*
X0120692Y0077732D01*
X0120825Y0077818D01*
X0120960Y0077902D01*
X0121096Y0077981D01*
X0121235Y0078058D01*
X0121376Y0078130D01*
X0121518Y0078200D01*
X0121662Y0078265D01*
X0121808Y0078327D01*
X0121955Y0078385D01*
X0122104Y0078440D01*
X0122254Y0078491D01*
X0122405Y0078538D01*
X0122557Y0078581D01*
X0122710Y0078620D01*
X0122865Y0078656D01*
X0123020Y0078687D01*
X0123176Y0078715D01*
X0123332Y0078739D01*
X0123489Y0078759D01*
X0123647Y0078775D01*
X0123804Y0078787D01*
X0123963Y0078795D01*
X0124121Y0078799D01*
X0124279Y0078799D01*
X0124437Y0078795D01*
X0124596Y0078787D01*
X0124753Y0078775D01*
X0124911Y0078759D01*
X0125068Y0078739D01*
X0125224Y0078715D01*
X0125380Y0078687D01*
X0125535Y0078656D01*
X0125690Y0078620D01*
X0125843Y0078581D01*
X0125995Y0078538D01*
X0126146Y0078491D01*
X0126296Y0078440D01*
X0126445Y0078385D01*
X0126592Y0078327D01*
X0126738Y0078265D01*
X0126882Y0078200D01*
X0127024Y0078130D01*
X0127165Y0078058D01*
X0127304Y0077981D01*
X0127440Y0077902D01*
X0127575Y0077818D01*
X0127708Y0077732D01*
X0127838Y0077642D01*
X0127966Y0077549D01*
X0128092Y0077453D01*
X0128215Y0077353D01*
X0128336Y0077251D01*
X0128454Y0077146D01*
X0128569Y0077037D01*
X0128682Y0076926D01*
X0128792Y0076812D01*
X0128899Y0076695D01*
X0129003Y0076576D01*
X0129104Y0076454D01*
X0129201Y0076329D01*
X0129296Y0076202D01*
X0129387Y0076073D01*
X0129476Y0075942D01*
X0129560Y0075808D01*
X0129642Y0075672D01*
X0129720Y0075535D01*
X0129794Y0075395D01*
X0129865Y0075253D01*
X0129933Y0075110D01*
X0129997Y0074965D01*
X0130057Y0074819D01*
X0130113Y0074671D01*
X0130166Y0074522D01*
X0130215Y0074371D01*
X0130260Y0074219D01*
X0130301Y0074066D01*
X0130339Y0073913D01*
X0130372Y0073758D01*
X0130402Y0073602D01*
X0130428Y0073446D01*
X0130449Y0073289D01*
X0130467Y0073132D01*
X0130481Y0072974D01*
X0130491Y0072816D01*
X0130497Y0072658D01*
X0130499Y0072500D01*
X0130497Y0072342D01*
X0130491Y0072184D01*
X0130481Y0072026D01*
X0130467Y0071868D01*
X0130449Y0071711D01*
X0130428Y0071554D01*
X0130402Y0071398D01*
X0130372Y0071242D01*
X0130339Y0071087D01*
X0130301Y0070934D01*
X0130260Y0070781D01*
X0130215Y0070629D01*
X0130166Y0070478D01*
X0130113Y0070329D01*
X0130057Y0070181D01*
X0129997Y0070035D01*
X0129933Y0069890D01*
X0129865Y0069747D01*
X0129794Y0069605D01*
X0129720Y0069465D01*
X0129642Y0069328D01*
X0129560Y0069192D01*
X0129476Y0069058D01*
X0129387Y0068927D01*
X0129296Y0068798D01*
X0129201Y0068671D01*
X0129104Y0068546D01*
X0129003Y0068424D01*
X0128899Y0068305D01*
X0128792Y0068188D01*
X0128682Y0068074D01*
X0128569Y0067963D01*
X0128454Y0067854D01*
X0128336Y0067749D01*
X0128215Y0067647D01*
X0128092Y0067547D01*
X0127966Y0067451D01*
X0127838Y0067358D01*
X0127708Y0067268D01*
X0127575Y0067182D01*
X0127440Y0067098D01*
X0127304Y0067019D01*
X0127165Y0066942D01*
X0127024Y0066870D01*
X0126882Y0066800D01*
X0126738Y0066735D01*
X0126592Y0066673D01*
X0126445Y0066615D01*
X0126296Y0066560D01*
X0126146Y0066509D01*
X0125995Y0066462D01*
X0125843Y0066419D01*
X0125690Y0066380D01*
X0125535Y0066344D01*
X0125380Y0066313D01*
X0125224Y0066285D01*
X0125068Y0066261D01*
X0124911Y0066241D01*
X0124753Y0066225D01*
X0124596Y0066213D01*
X0124437Y0066205D01*
X0124279Y0066201D01*
X0124121Y0066201D01*
X0123963Y0066205D01*
X0123804Y0066213D01*
X0123647Y0066225D01*
X0123489Y0066241D01*
X0123332Y0066261D01*
X0123176Y0066285D01*
X0123020Y0066313D01*
X0122865Y0066344D01*
X0122710Y0066380D01*
X0122557Y0066419D01*
X0122405Y0066462D01*
X0122254Y0066509D01*
X0122104Y0066560D01*
X0121955Y0066615D01*
X0121808Y0066673D01*
X0121662Y0066735D01*
X0121518Y0066800D01*
X0121376Y0066870D01*
X0121235Y0066942D01*
X0121096Y0067019D01*
X0120960Y0067098D01*
X0120825Y0067182D01*
X0120692Y0067268D01*
X0120562Y0067358D01*
X0120434Y0067451D01*
X0120308Y0067547D01*
X0120185Y0067647D01*
X0120064Y0067749D01*
X0119946Y0067854D01*
X0119831Y0067963D01*
X0119718Y0068074D01*
X0119608Y0068188D01*
X0119501Y0068305D01*
X0119397Y0068424D01*
X0119296Y0068546D01*
X0119199Y0068671D01*
X0119104Y0068798D01*
X0119013Y0068927D01*
X0118924Y0069058D01*
X0118840Y0069192D01*
X0118758Y0069328D01*
X0118680Y0069465D01*
X0118606Y0069605D01*
X0118535Y0069747D01*
X0118467Y0069890D01*
X0118403Y0070035D01*
X0118343Y0070181D01*
X0118287Y0070329D01*
X0118234Y0070478D01*
X0118185Y0070629D01*
X0118140Y0070781D01*
X0118099Y0070934D01*
X0118061Y0071087D01*
X0118028Y0071242D01*
X0117998Y0071398D01*
X0117972Y0071554D01*
X0117951Y0071711D01*
X0117933Y0071868D01*
X0117919Y0072026D01*
X0117909Y0072184D01*
X0117903Y0072342D01*
X0117901Y0072500D01*
X0118001Y0225900D02*
X0118003Y0226058D01*
X0118009Y0226216D01*
X0118019Y0226374D01*
X0118033Y0226532D01*
X0118051Y0226689D01*
X0118072Y0226846D01*
X0118098Y0227002D01*
X0118128Y0227158D01*
X0118161Y0227313D01*
X0118199Y0227466D01*
X0118240Y0227619D01*
X0118285Y0227771D01*
X0118334Y0227922D01*
X0118387Y0228071D01*
X0118443Y0228219D01*
X0118503Y0228365D01*
X0118567Y0228510D01*
X0118635Y0228653D01*
X0118706Y0228795D01*
X0118780Y0228935D01*
X0118858Y0229072D01*
X0118940Y0229208D01*
X0119024Y0229342D01*
X0119113Y0229473D01*
X0119204Y0229602D01*
X0119299Y0229729D01*
X0119396Y0229854D01*
X0119497Y0229976D01*
X0119601Y0230095D01*
X0119708Y0230212D01*
X0119818Y0230326D01*
X0119931Y0230437D01*
X0120046Y0230546D01*
X0120164Y0230651D01*
X0120285Y0230753D01*
X0120408Y0230853D01*
X0120534Y0230949D01*
X0120662Y0231042D01*
X0120792Y0231132D01*
X0120925Y0231218D01*
X0121060Y0231302D01*
X0121196Y0231381D01*
X0121335Y0231458D01*
X0121476Y0231530D01*
X0121618Y0231600D01*
X0121762Y0231665D01*
X0121908Y0231727D01*
X0122055Y0231785D01*
X0122204Y0231840D01*
X0122354Y0231891D01*
X0122505Y0231938D01*
X0122657Y0231981D01*
X0122810Y0232020D01*
X0122965Y0232056D01*
X0123120Y0232087D01*
X0123276Y0232115D01*
X0123432Y0232139D01*
X0123589Y0232159D01*
X0123747Y0232175D01*
X0123904Y0232187D01*
X0124063Y0232195D01*
X0124221Y0232199D01*
X0124379Y0232199D01*
X0124537Y0232195D01*
X0124696Y0232187D01*
X0124853Y0232175D01*
X0125011Y0232159D01*
X0125168Y0232139D01*
X0125324Y0232115D01*
X0125480Y0232087D01*
X0125635Y0232056D01*
X0125790Y0232020D01*
X0125943Y0231981D01*
X0126095Y0231938D01*
X0126246Y0231891D01*
X0126396Y0231840D01*
X0126545Y0231785D01*
X0126692Y0231727D01*
X0126838Y0231665D01*
X0126982Y0231600D01*
X0127124Y0231530D01*
X0127265Y0231458D01*
X0127404Y0231381D01*
X0127540Y0231302D01*
X0127675Y0231218D01*
X0127808Y0231132D01*
X0127938Y0231042D01*
X0128066Y0230949D01*
X0128192Y0230853D01*
X0128315Y0230753D01*
X0128436Y0230651D01*
X0128554Y0230546D01*
X0128669Y0230437D01*
X0128782Y0230326D01*
X0128892Y0230212D01*
X0128999Y0230095D01*
X0129103Y0229976D01*
X0129204Y0229854D01*
X0129301Y0229729D01*
X0129396Y0229602D01*
X0129487Y0229473D01*
X0129576Y0229342D01*
X0129660Y0229208D01*
X0129742Y0229072D01*
X0129820Y0228935D01*
X0129894Y0228795D01*
X0129965Y0228653D01*
X0130033Y0228510D01*
X0130097Y0228365D01*
X0130157Y0228219D01*
X0130213Y0228071D01*
X0130266Y0227922D01*
X0130315Y0227771D01*
X0130360Y0227619D01*
X0130401Y0227466D01*
X0130439Y0227313D01*
X0130472Y0227158D01*
X0130502Y0227002D01*
X0130528Y0226846D01*
X0130549Y0226689D01*
X0130567Y0226532D01*
X0130581Y0226374D01*
X0130591Y0226216D01*
X0130597Y0226058D01*
X0130599Y0225900D01*
X0130597Y0225742D01*
X0130591Y0225584D01*
X0130581Y0225426D01*
X0130567Y0225268D01*
X0130549Y0225111D01*
X0130528Y0224954D01*
X0130502Y0224798D01*
X0130472Y0224642D01*
X0130439Y0224487D01*
X0130401Y0224334D01*
X0130360Y0224181D01*
X0130315Y0224029D01*
X0130266Y0223878D01*
X0130213Y0223729D01*
X0130157Y0223581D01*
X0130097Y0223435D01*
X0130033Y0223290D01*
X0129965Y0223147D01*
X0129894Y0223005D01*
X0129820Y0222865D01*
X0129742Y0222728D01*
X0129660Y0222592D01*
X0129576Y0222458D01*
X0129487Y0222327D01*
X0129396Y0222198D01*
X0129301Y0222071D01*
X0129204Y0221946D01*
X0129103Y0221824D01*
X0128999Y0221705D01*
X0128892Y0221588D01*
X0128782Y0221474D01*
X0128669Y0221363D01*
X0128554Y0221254D01*
X0128436Y0221149D01*
X0128315Y0221047D01*
X0128192Y0220947D01*
X0128066Y0220851D01*
X0127938Y0220758D01*
X0127808Y0220668D01*
X0127675Y0220582D01*
X0127540Y0220498D01*
X0127404Y0220419D01*
X0127265Y0220342D01*
X0127124Y0220270D01*
X0126982Y0220200D01*
X0126838Y0220135D01*
X0126692Y0220073D01*
X0126545Y0220015D01*
X0126396Y0219960D01*
X0126246Y0219909D01*
X0126095Y0219862D01*
X0125943Y0219819D01*
X0125790Y0219780D01*
X0125635Y0219744D01*
X0125480Y0219713D01*
X0125324Y0219685D01*
X0125168Y0219661D01*
X0125011Y0219641D01*
X0124853Y0219625D01*
X0124696Y0219613D01*
X0124537Y0219605D01*
X0124379Y0219601D01*
X0124221Y0219601D01*
X0124063Y0219605D01*
X0123904Y0219613D01*
X0123747Y0219625D01*
X0123589Y0219641D01*
X0123432Y0219661D01*
X0123276Y0219685D01*
X0123120Y0219713D01*
X0122965Y0219744D01*
X0122810Y0219780D01*
X0122657Y0219819D01*
X0122505Y0219862D01*
X0122354Y0219909D01*
X0122204Y0219960D01*
X0122055Y0220015D01*
X0121908Y0220073D01*
X0121762Y0220135D01*
X0121618Y0220200D01*
X0121476Y0220270D01*
X0121335Y0220342D01*
X0121196Y0220419D01*
X0121060Y0220498D01*
X0120925Y0220582D01*
X0120792Y0220668D01*
X0120662Y0220758D01*
X0120534Y0220851D01*
X0120408Y0220947D01*
X0120285Y0221047D01*
X0120164Y0221149D01*
X0120046Y0221254D01*
X0119931Y0221363D01*
X0119818Y0221474D01*
X0119708Y0221588D01*
X0119601Y0221705D01*
X0119497Y0221824D01*
X0119396Y0221946D01*
X0119299Y0222071D01*
X0119204Y0222198D01*
X0119113Y0222327D01*
X0119024Y0222458D01*
X0118940Y0222592D01*
X0118858Y0222728D01*
X0118780Y0222865D01*
X0118706Y0223005D01*
X0118635Y0223147D01*
X0118567Y0223290D01*
X0118503Y0223435D01*
X0118443Y0223581D01*
X0118387Y0223729D01*
X0118334Y0223878D01*
X0118285Y0224029D01*
X0118240Y0224181D01*
X0118199Y0224334D01*
X0118161Y0224487D01*
X0118128Y0224642D01*
X0118098Y0224798D01*
X0118072Y0224954D01*
X0118051Y0225111D01*
X0118033Y0225268D01*
X0118019Y0225426D01*
X0118009Y0225584D01*
X0118003Y0225742D01*
X0118001Y0225900D01*
X0403101Y0072100D02*
X0403103Y0072258D01*
X0403109Y0072416D01*
X0403119Y0072574D01*
X0403133Y0072732D01*
X0403151Y0072889D01*
X0403172Y0073046D01*
X0403198Y0073202D01*
X0403228Y0073358D01*
X0403261Y0073513D01*
X0403299Y0073666D01*
X0403340Y0073819D01*
X0403385Y0073971D01*
X0403434Y0074122D01*
X0403487Y0074271D01*
X0403543Y0074419D01*
X0403603Y0074565D01*
X0403667Y0074710D01*
X0403735Y0074853D01*
X0403806Y0074995D01*
X0403880Y0075135D01*
X0403958Y0075272D01*
X0404040Y0075408D01*
X0404124Y0075542D01*
X0404213Y0075673D01*
X0404304Y0075802D01*
X0404399Y0075929D01*
X0404496Y0076054D01*
X0404597Y0076176D01*
X0404701Y0076295D01*
X0404808Y0076412D01*
X0404918Y0076526D01*
X0405031Y0076637D01*
X0405146Y0076746D01*
X0405264Y0076851D01*
X0405385Y0076953D01*
X0405508Y0077053D01*
X0405634Y0077149D01*
X0405762Y0077242D01*
X0405892Y0077332D01*
X0406025Y0077418D01*
X0406160Y0077502D01*
X0406296Y0077581D01*
X0406435Y0077658D01*
X0406576Y0077730D01*
X0406718Y0077800D01*
X0406862Y0077865D01*
X0407008Y0077927D01*
X0407155Y0077985D01*
X0407304Y0078040D01*
X0407454Y0078091D01*
X0407605Y0078138D01*
X0407757Y0078181D01*
X0407910Y0078220D01*
X0408065Y0078256D01*
X0408220Y0078287D01*
X0408376Y0078315D01*
X0408532Y0078339D01*
X0408689Y0078359D01*
X0408847Y0078375D01*
X0409004Y0078387D01*
X0409163Y0078395D01*
X0409321Y0078399D01*
X0409479Y0078399D01*
X0409637Y0078395D01*
X0409796Y0078387D01*
X0409953Y0078375D01*
X0410111Y0078359D01*
X0410268Y0078339D01*
X0410424Y0078315D01*
X0410580Y0078287D01*
X0410735Y0078256D01*
X0410890Y0078220D01*
X0411043Y0078181D01*
X0411195Y0078138D01*
X0411346Y0078091D01*
X0411496Y0078040D01*
X0411645Y0077985D01*
X0411792Y0077927D01*
X0411938Y0077865D01*
X0412082Y0077800D01*
X0412224Y0077730D01*
X0412365Y0077658D01*
X0412504Y0077581D01*
X0412640Y0077502D01*
X0412775Y0077418D01*
X0412908Y0077332D01*
X0413038Y0077242D01*
X0413166Y0077149D01*
X0413292Y0077053D01*
X0413415Y0076953D01*
X0413536Y0076851D01*
X0413654Y0076746D01*
X0413769Y0076637D01*
X0413882Y0076526D01*
X0413992Y0076412D01*
X0414099Y0076295D01*
X0414203Y0076176D01*
X0414304Y0076054D01*
X0414401Y0075929D01*
X0414496Y0075802D01*
X0414587Y0075673D01*
X0414676Y0075542D01*
X0414760Y0075408D01*
X0414842Y0075272D01*
X0414920Y0075135D01*
X0414994Y0074995D01*
X0415065Y0074853D01*
X0415133Y0074710D01*
X0415197Y0074565D01*
X0415257Y0074419D01*
X0415313Y0074271D01*
X0415366Y0074122D01*
X0415415Y0073971D01*
X0415460Y0073819D01*
X0415501Y0073666D01*
X0415539Y0073513D01*
X0415572Y0073358D01*
X0415602Y0073202D01*
X0415628Y0073046D01*
X0415649Y0072889D01*
X0415667Y0072732D01*
X0415681Y0072574D01*
X0415691Y0072416D01*
X0415697Y0072258D01*
X0415699Y0072100D01*
X0415697Y0071942D01*
X0415691Y0071784D01*
X0415681Y0071626D01*
X0415667Y0071468D01*
X0415649Y0071311D01*
X0415628Y0071154D01*
X0415602Y0070998D01*
X0415572Y0070842D01*
X0415539Y0070687D01*
X0415501Y0070534D01*
X0415460Y0070381D01*
X0415415Y0070229D01*
X0415366Y0070078D01*
X0415313Y0069929D01*
X0415257Y0069781D01*
X0415197Y0069635D01*
X0415133Y0069490D01*
X0415065Y0069347D01*
X0414994Y0069205D01*
X0414920Y0069065D01*
X0414842Y0068928D01*
X0414760Y0068792D01*
X0414676Y0068658D01*
X0414587Y0068527D01*
X0414496Y0068398D01*
X0414401Y0068271D01*
X0414304Y0068146D01*
X0414203Y0068024D01*
X0414099Y0067905D01*
X0413992Y0067788D01*
X0413882Y0067674D01*
X0413769Y0067563D01*
X0413654Y0067454D01*
X0413536Y0067349D01*
X0413415Y0067247D01*
X0413292Y0067147D01*
X0413166Y0067051D01*
X0413038Y0066958D01*
X0412908Y0066868D01*
X0412775Y0066782D01*
X0412640Y0066698D01*
X0412504Y0066619D01*
X0412365Y0066542D01*
X0412224Y0066470D01*
X0412082Y0066400D01*
X0411938Y0066335D01*
X0411792Y0066273D01*
X0411645Y0066215D01*
X0411496Y0066160D01*
X0411346Y0066109D01*
X0411195Y0066062D01*
X0411043Y0066019D01*
X0410890Y0065980D01*
X0410735Y0065944D01*
X0410580Y0065913D01*
X0410424Y0065885D01*
X0410268Y0065861D01*
X0410111Y0065841D01*
X0409953Y0065825D01*
X0409796Y0065813D01*
X0409637Y0065805D01*
X0409479Y0065801D01*
X0409321Y0065801D01*
X0409163Y0065805D01*
X0409004Y0065813D01*
X0408847Y0065825D01*
X0408689Y0065841D01*
X0408532Y0065861D01*
X0408376Y0065885D01*
X0408220Y0065913D01*
X0408065Y0065944D01*
X0407910Y0065980D01*
X0407757Y0066019D01*
X0407605Y0066062D01*
X0407454Y0066109D01*
X0407304Y0066160D01*
X0407155Y0066215D01*
X0407008Y0066273D01*
X0406862Y0066335D01*
X0406718Y0066400D01*
X0406576Y0066470D01*
X0406435Y0066542D01*
X0406296Y0066619D01*
X0406160Y0066698D01*
X0406025Y0066782D01*
X0405892Y0066868D01*
X0405762Y0066958D01*
X0405634Y0067051D01*
X0405508Y0067147D01*
X0405385Y0067247D01*
X0405264Y0067349D01*
X0405146Y0067454D01*
X0405031Y0067563D01*
X0404918Y0067674D01*
X0404808Y0067788D01*
X0404701Y0067905D01*
X0404597Y0068024D01*
X0404496Y0068146D01*
X0404399Y0068271D01*
X0404304Y0068398D01*
X0404213Y0068527D01*
X0404124Y0068658D01*
X0404040Y0068792D01*
X0403958Y0068928D01*
X0403880Y0069065D01*
X0403806Y0069205D01*
X0403735Y0069347D01*
X0403667Y0069490D01*
X0403603Y0069635D01*
X0403543Y0069781D01*
X0403487Y0069929D01*
X0403434Y0070078D01*
X0403385Y0070229D01*
X0403340Y0070381D01*
X0403299Y0070534D01*
X0403261Y0070687D01*
X0403228Y0070842D01*
X0403198Y0070998D01*
X0403172Y0071154D01*
X0403151Y0071311D01*
X0403133Y0071468D01*
X0403119Y0071626D01*
X0403109Y0071784D01*
X0403103Y0071942D01*
X0403101Y0072100D01*
X0405101Y0226700D02*
X0405103Y0226858D01*
X0405109Y0227016D01*
X0405119Y0227174D01*
X0405133Y0227332D01*
X0405151Y0227489D01*
X0405172Y0227646D01*
X0405198Y0227802D01*
X0405228Y0227958D01*
X0405261Y0228113D01*
X0405299Y0228266D01*
X0405340Y0228419D01*
X0405385Y0228571D01*
X0405434Y0228722D01*
X0405487Y0228871D01*
X0405543Y0229019D01*
X0405603Y0229165D01*
X0405667Y0229310D01*
X0405735Y0229453D01*
X0405806Y0229595D01*
X0405880Y0229735D01*
X0405958Y0229872D01*
X0406040Y0230008D01*
X0406124Y0230142D01*
X0406213Y0230273D01*
X0406304Y0230402D01*
X0406399Y0230529D01*
X0406496Y0230654D01*
X0406597Y0230776D01*
X0406701Y0230895D01*
X0406808Y0231012D01*
X0406918Y0231126D01*
X0407031Y0231237D01*
X0407146Y0231346D01*
X0407264Y0231451D01*
X0407385Y0231553D01*
X0407508Y0231653D01*
X0407634Y0231749D01*
X0407762Y0231842D01*
X0407892Y0231932D01*
X0408025Y0232018D01*
X0408160Y0232102D01*
X0408296Y0232181D01*
X0408435Y0232258D01*
X0408576Y0232330D01*
X0408718Y0232400D01*
X0408862Y0232465D01*
X0409008Y0232527D01*
X0409155Y0232585D01*
X0409304Y0232640D01*
X0409454Y0232691D01*
X0409605Y0232738D01*
X0409757Y0232781D01*
X0409910Y0232820D01*
X0410065Y0232856D01*
X0410220Y0232887D01*
X0410376Y0232915D01*
X0410532Y0232939D01*
X0410689Y0232959D01*
X0410847Y0232975D01*
X0411004Y0232987D01*
X0411163Y0232995D01*
X0411321Y0232999D01*
X0411479Y0232999D01*
X0411637Y0232995D01*
X0411796Y0232987D01*
X0411953Y0232975D01*
X0412111Y0232959D01*
X0412268Y0232939D01*
X0412424Y0232915D01*
X0412580Y0232887D01*
X0412735Y0232856D01*
X0412890Y0232820D01*
X0413043Y0232781D01*
X0413195Y0232738D01*
X0413346Y0232691D01*
X0413496Y0232640D01*
X0413645Y0232585D01*
X0413792Y0232527D01*
X0413938Y0232465D01*
X0414082Y0232400D01*
X0414224Y0232330D01*
X0414365Y0232258D01*
X0414504Y0232181D01*
X0414640Y0232102D01*
X0414775Y0232018D01*
X0414908Y0231932D01*
X0415038Y0231842D01*
X0415166Y0231749D01*
X0415292Y0231653D01*
X0415415Y0231553D01*
X0415536Y0231451D01*
X0415654Y0231346D01*
X0415769Y0231237D01*
X0415882Y0231126D01*
X0415992Y0231012D01*
X0416099Y0230895D01*
X0416203Y0230776D01*
X0416304Y0230654D01*
X0416401Y0230529D01*
X0416496Y0230402D01*
X0416587Y0230273D01*
X0416676Y0230142D01*
X0416760Y0230008D01*
X0416842Y0229872D01*
X0416920Y0229735D01*
X0416994Y0229595D01*
X0417065Y0229453D01*
X0417133Y0229310D01*
X0417197Y0229165D01*
X0417257Y0229019D01*
X0417313Y0228871D01*
X0417366Y0228722D01*
X0417415Y0228571D01*
X0417460Y0228419D01*
X0417501Y0228266D01*
X0417539Y0228113D01*
X0417572Y0227958D01*
X0417602Y0227802D01*
X0417628Y0227646D01*
X0417649Y0227489D01*
X0417667Y0227332D01*
X0417681Y0227174D01*
X0417691Y0227016D01*
X0417697Y0226858D01*
X0417699Y0226700D01*
X0417697Y0226542D01*
X0417691Y0226384D01*
X0417681Y0226226D01*
X0417667Y0226068D01*
X0417649Y0225911D01*
X0417628Y0225754D01*
X0417602Y0225598D01*
X0417572Y0225442D01*
X0417539Y0225287D01*
X0417501Y0225134D01*
X0417460Y0224981D01*
X0417415Y0224829D01*
X0417366Y0224678D01*
X0417313Y0224529D01*
X0417257Y0224381D01*
X0417197Y0224235D01*
X0417133Y0224090D01*
X0417065Y0223947D01*
X0416994Y0223805D01*
X0416920Y0223665D01*
X0416842Y0223528D01*
X0416760Y0223392D01*
X0416676Y0223258D01*
X0416587Y0223127D01*
X0416496Y0222998D01*
X0416401Y0222871D01*
X0416304Y0222746D01*
X0416203Y0222624D01*
X0416099Y0222505D01*
X0415992Y0222388D01*
X0415882Y0222274D01*
X0415769Y0222163D01*
X0415654Y0222054D01*
X0415536Y0221949D01*
X0415415Y0221847D01*
X0415292Y0221747D01*
X0415166Y0221651D01*
X0415038Y0221558D01*
X0414908Y0221468D01*
X0414775Y0221382D01*
X0414640Y0221298D01*
X0414504Y0221219D01*
X0414365Y0221142D01*
X0414224Y0221070D01*
X0414082Y0221000D01*
X0413938Y0220935D01*
X0413792Y0220873D01*
X0413645Y0220815D01*
X0413496Y0220760D01*
X0413346Y0220709D01*
X0413195Y0220662D01*
X0413043Y0220619D01*
X0412890Y0220580D01*
X0412735Y0220544D01*
X0412580Y0220513D01*
X0412424Y0220485D01*
X0412268Y0220461D01*
X0412111Y0220441D01*
X0411953Y0220425D01*
X0411796Y0220413D01*
X0411637Y0220405D01*
X0411479Y0220401D01*
X0411321Y0220401D01*
X0411163Y0220405D01*
X0411004Y0220413D01*
X0410847Y0220425D01*
X0410689Y0220441D01*
X0410532Y0220461D01*
X0410376Y0220485D01*
X0410220Y0220513D01*
X0410065Y0220544D01*
X0409910Y0220580D01*
X0409757Y0220619D01*
X0409605Y0220662D01*
X0409454Y0220709D01*
X0409304Y0220760D01*
X0409155Y0220815D01*
X0409008Y0220873D01*
X0408862Y0220935D01*
X0408718Y0221000D01*
X0408576Y0221070D01*
X0408435Y0221142D01*
X0408296Y0221219D01*
X0408160Y0221298D01*
X0408025Y0221382D01*
X0407892Y0221468D01*
X0407762Y0221558D01*
X0407634Y0221651D01*
X0407508Y0221747D01*
X0407385Y0221847D01*
X0407264Y0221949D01*
X0407146Y0222054D01*
X0407031Y0222163D01*
X0406918Y0222274D01*
X0406808Y0222388D01*
X0406701Y0222505D01*
X0406597Y0222624D01*
X0406496Y0222746D01*
X0406399Y0222871D01*
X0406304Y0222998D01*
X0406213Y0223127D01*
X0406124Y0223258D01*
X0406040Y0223392D01*
X0405958Y0223528D01*
X0405880Y0223665D01*
X0405806Y0223805D01*
X0405735Y0223947D01*
X0405667Y0224090D01*
X0405603Y0224235D01*
X0405543Y0224381D01*
X0405487Y0224529D01*
X0405434Y0224678D01*
X0405385Y0224829D01*
X0405340Y0224981D01*
X0405299Y0225134D01*
X0405261Y0225287D01*
X0405228Y0225442D01*
X0405198Y0225598D01*
X0405172Y0225754D01*
X0405151Y0225911D01*
X0405133Y0226068D01*
X0405119Y0226226D01*
X0405109Y0226384D01*
X0405103Y0226542D01*
X0405101Y0226700D01*
D11*
X0411400Y0226700D03*
X0409400Y0072100D03*
X0124200Y0072500D03*
X0124300Y0225900D03*
D12*
X0187200Y0208946D03*
X0187200Y0202254D03*
X0286000Y0136846D03*
X0286000Y0130154D03*
D13*
X0381200Y0135400D03*
X0149200Y0155700D03*
D14*
X0149200Y0145700D03*
X0149200Y0135700D03*
X0381200Y0145400D03*
X0381200Y0155400D03*
D15*
X0273500Y0151449D03*
X0268539Y0151449D03*
X0263539Y0151449D03*
X0258539Y0151449D03*
X0258500Y0130551D03*
X0263500Y0130551D03*
X0268500Y0130551D03*
X0273500Y0130551D03*
D16*
X0278185Y0206000D03*
X0258500Y0206000D03*
X0238815Y0206000D03*
D17*
X0202500Y0207953D03*
X0202500Y0202047D03*
D18*
X0206400Y0180400D03*
X0207300Y0156000D03*
X0226600Y0156100D03*
X0227200Y0135200D03*
X0206900Y0135200D03*
X0207500Y0104600D03*
X0309900Y0155700D03*
X0361000Y0133500D03*
X0361400Y0096500D03*
X0361000Y0198500D03*
D19*
X0262200Y0159700D03*
M02*
