%
M48
M72
T01C0.0120
T02C0.0240
T03C0.0315
T04C0.0472
%
T01
X12560Y4750
X12560Y6750
X13860Y7450
X5860Y10450
X4060Y9450
X7560Y8150
X7560Y5850
X7560Y4650
T02
X10660Y4650
T03
X17379Y5676
X17379Y6676
X17379Y7676
X3226Y7636
X3226Y6636
X3226Y5636
T04
X12135Y7650
X10560Y7650
X8985Y7650
X8591Y11587
X12529Y11587
M30
