G75*
%MOIN*%
%OFA0B0*%
%FSLAX24Y24*%
%IPPOS*%
%LPD*%
%AMOC8*
5,1,8,0,0,1.08239X$1,22.5*
%
%ADD10C,0.0000*%
%ADD11C,0.0906*%
%ADD12R,0.0571X0.0571*%
%ADD13C,0.0571*%
%ADD14R,0.0555X0.0555*%
%ADD15C,0.0555*%
D10*
X001143Y000658D02*
X001143Y002390D01*
X001143Y003099D01*
X001143Y003414D01*
X001142Y003424D01*
X001138Y003434D01*
X001132Y003442D01*
X001124Y003448D01*
X001114Y003452D01*
X001104Y003453D01*
X001143Y003099D02*
X001143Y003020D01*
X001104Y003454D02*
X001050Y003456D01*
X000997Y003461D01*
X000944Y003470D01*
X000892Y003483D01*
X000840Y003499D01*
X000790Y003519D01*
X000742Y003542D01*
X000695Y003569D01*
X000650Y003598D01*
X000607Y003631D01*
X000567Y003666D01*
X000529Y003704D01*
X000494Y003744D01*
X000461Y003787D01*
X000432Y003832D01*
X000405Y003879D01*
X000382Y003927D01*
X000362Y003977D01*
X000346Y004029D01*
X000333Y004081D01*
X000324Y004134D01*
X000319Y004187D01*
X000317Y004241D01*
X000316Y004241D02*
X000316Y004319D01*
X000317Y004319D02*
X000319Y004373D01*
X000324Y004426D01*
X000333Y004479D01*
X000346Y004531D01*
X000362Y004583D01*
X000382Y004633D01*
X000405Y004681D01*
X000432Y004728D01*
X000461Y004773D01*
X000494Y004816D01*
X000529Y004856D01*
X000567Y004894D01*
X000607Y004929D01*
X000650Y004962D01*
X000695Y004991D01*
X000742Y005018D01*
X000790Y005041D01*
X000840Y005061D01*
X000892Y005077D01*
X000944Y005090D01*
X000997Y005099D01*
X001050Y005104D01*
X001104Y005106D01*
X001104Y005107D02*
X001114Y005108D01*
X001124Y005112D01*
X001132Y005118D01*
X001138Y005127D01*
X001142Y005136D01*
X001143Y005146D01*
X001143Y005304D01*
X001143Y005540D01*
X001143Y006249D01*
X001143Y007902D01*
X001145Y007935D01*
X001150Y007967D01*
X001158Y007999D01*
X001170Y008030D01*
X001185Y008060D01*
X001203Y008087D01*
X001224Y008113D01*
X001247Y008136D01*
X001273Y008157D01*
X001301Y008175D01*
X001330Y008190D01*
X001361Y008202D01*
X001393Y008210D01*
X001425Y008215D01*
X001458Y008217D01*
X002560Y008217D01*
X004135Y008217D01*
X004214Y008217D01*
X004224Y008216D01*
X004234Y008212D01*
X004242Y008206D01*
X004248Y008198D01*
X004252Y008188D01*
X004253Y008178D01*
X004135Y008217D02*
X003820Y008217D01*
X003190Y008217D02*
X002560Y008217D01*
X001143Y006249D02*
X001143Y006170D01*
X001143Y005304D02*
X001143Y005146D01*
X000710Y004280D02*
X000712Y004321D01*
X000718Y004362D01*
X000728Y004402D01*
X000741Y004441D01*
X000758Y004478D01*
X000779Y004514D01*
X000803Y004548D01*
X000830Y004579D01*
X000859Y004607D01*
X000892Y004633D01*
X000926Y004655D01*
X000963Y004674D01*
X001001Y004689D01*
X001041Y004701D01*
X001081Y004709D01*
X001122Y004713D01*
X001164Y004713D01*
X001205Y004709D01*
X001245Y004701D01*
X001285Y004689D01*
X001323Y004674D01*
X001359Y004655D01*
X001394Y004633D01*
X001427Y004607D01*
X001456Y004579D01*
X001483Y004548D01*
X001507Y004514D01*
X001528Y004478D01*
X001545Y004441D01*
X001558Y004402D01*
X001568Y004362D01*
X001574Y004321D01*
X001576Y004280D01*
X001574Y004239D01*
X001568Y004198D01*
X001558Y004158D01*
X001545Y004119D01*
X001528Y004082D01*
X001507Y004046D01*
X001483Y004012D01*
X001456Y003981D01*
X001427Y003953D01*
X001394Y003927D01*
X001360Y003905D01*
X001323Y003886D01*
X001285Y003871D01*
X001245Y003859D01*
X001205Y003851D01*
X001164Y003847D01*
X001122Y003847D01*
X001081Y003851D01*
X001041Y003859D01*
X001001Y003871D01*
X000963Y003886D01*
X000927Y003905D01*
X000892Y003927D01*
X000859Y003953D01*
X000830Y003981D01*
X000803Y004012D01*
X000779Y004046D01*
X000758Y004082D01*
X000741Y004119D01*
X000728Y004158D01*
X000718Y004198D01*
X000712Y004239D01*
X000710Y004280D01*
X001143Y000658D02*
X001145Y000625D01*
X001150Y000593D01*
X001158Y000561D01*
X001170Y000530D01*
X001185Y000500D01*
X001203Y000473D01*
X001224Y000447D01*
X001247Y000424D01*
X001273Y000403D01*
X001301Y000385D01*
X001330Y000370D01*
X001361Y000358D01*
X001393Y000350D01*
X001425Y000345D01*
X001458Y000343D01*
X003190Y000343D01*
X003938Y000343D01*
X003820Y000343D01*
X003938Y000343D02*
X004214Y000343D01*
X004224Y000344D01*
X004234Y000348D01*
X004242Y000354D01*
X004248Y000362D01*
X004252Y000372D01*
X004253Y000382D01*
X004254Y000382D02*
X004256Y000436D01*
X004261Y000489D01*
X004270Y000542D01*
X004283Y000594D01*
X004299Y000646D01*
X004319Y000696D01*
X004342Y000744D01*
X004369Y000791D01*
X004398Y000836D01*
X004431Y000879D01*
X004466Y000919D01*
X004504Y000957D01*
X004544Y000992D01*
X004587Y001025D01*
X004632Y001054D01*
X004679Y001081D01*
X004727Y001104D01*
X004777Y001124D01*
X004829Y001140D01*
X004881Y001153D01*
X004934Y001162D01*
X004987Y001167D01*
X005041Y001169D01*
X005041Y001170D02*
X005080Y001170D01*
X005119Y001170D01*
X005119Y001169D02*
X005173Y001167D01*
X005226Y001162D01*
X005279Y001153D01*
X005331Y001140D01*
X005383Y001124D01*
X005433Y001104D01*
X005481Y001081D01*
X005528Y001054D01*
X005573Y001025D01*
X005616Y000992D01*
X005656Y000957D01*
X005694Y000919D01*
X005729Y000879D01*
X005762Y000836D01*
X005791Y000791D01*
X005818Y000744D01*
X005841Y000696D01*
X005861Y000646D01*
X005877Y000594D01*
X005890Y000542D01*
X005899Y000489D01*
X005904Y000436D01*
X005906Y000382D01*
X005907Y000382D02*
X005908Y000372D01*
X005912Y000363D01*
X005918Y000354D01*
X005927Y000348D01*
X005936Y000344D01*
X005946Y000343D01*
X006261Y000343D01*
X007363Y000343D01*
X006970Y000343D01*
X007363Y000343D02*
X008702Y000343D01*
X008735Y000345D01*
X008767Y000350D01*
X008799Y000358D01*
X008830Y000370D01*
X008860Y000385D01*
X008887Y000403D01*
X008913Y000424D01*
X008936Y000447D01*
X008957Y000473D01*
X008975Y000500D01*
X008990Y000530D01*
X009002Y000561D01*
X009010Y000593D01*
X009015Y000625D01*
X009017Y000658D01*
X009017Y002311D01*
X009017Y003060D01*
X009017Y003020D01*
X009017Y003060D02*
X009017Y003414D01*
X009018Y003424D01*
X009022Y003434D01*
X009028Y003442D01*
X009037Y003448D01*
X009046Y003452D01*
X009056Y003453D01*
X009056Y003454D02*
X009110Y003456D01*
X009163Y003461D01*
X009216Y003470D01*
X009268Y003483D01*
X009320Y003499D01*
X009370Y003519D01*
X009418Y003542D01*
X009465Y003569D01*
X009510Y003598D01*
X009553Y003631D01*
X009593Y003666D01*
X009631Y003704D01*
X009666Y003744D01*
X009699Y003787D01*
X009728Y003832D01*
X009755Y003879D01*
X009778Y003927D01*
X009798Y003977D01*
X009814Y004029D01*
X009827Y004081D01*
X009836Y004134D01*
X009841Y004187D01*
X009843Y004241D01*
X009844Y004241D02*
X009844Y004280D01*
X009844Y004319D01*
X009843Y004319D02*
X009841Y004373D01*
X009836Y004426D01*
X009827Y004479D01*
X009814Y004531D01*
X009798Y004583D01*
X009778Y004633D01*
X009755Y004681D01*
X009728Y004728D01*
X009699Y004773D01*
X009666Y004816D01*
X009631Y004856D01*
X009593Y004894D01*
X009553Y004929D01*
X009510Y004962D01*
X009465Y004991D01*
X009418Y005018D01*
X009370Y005041D01*
X009320Y005061D01*
X009268Y005077D01*
X009216Y005090D01*
X009163Y005099D01*
X009110Y005104D01*
X009056Y005106D01*
X009057Y005106D02*
X009045Y005109D01*
X009034Y005115D01*
X009026Y005123D01*
X009020Y005134D01*
X009017Y005146D01*
X009017Y005264D01*
X009017Y005461D01*
X009017Y006327D01*
X009017Y007902D01*
X009015Y007935D01*
X009010Y007967D01*
X009002Y007999D01*
X008990Y008030D01*
X008975Y008060D01*
X008957Y008087D01*
X008936Y008113D01*
X008913Y008136D01*
X008887Y008157D01*
X008860Y008175D01*
X008830Y008190D01*
X008799Y008202D01*
X008767Y008210D01*
X008735Y008215D01*
X008702Y008217D01*
X007206Y008217D01*
X006340Y008217D01*
X006025Y008217D01*
X005946Y008217D01*
X006025Y008217D01*
X005946Y008218D02*
X005934Y008215D01*
X005923Y008209D01*
X005915Y008201D01*
X005909Y008190D01*
X005906Y008178D01*
X005904Y008124D01*
X005899Y008071D01*
X005890Y008018D01*
X005877Y007966D01*
X005861Y007914D01*
X005841Y007864D01*
X005818Y007816D01*
X005791Y007769D01*
X005762Y007724D01*
X005729Y007681D01*
X005694Y007641D01*
X005656Y007603D01*
X005616Y007568D01*
X005573Y007535D01*
X005528Y007506D01*
X005481Y007479D01*
X005433Y007456D01*
X005383Y007436D01*
X005331Y007420D01*
X005279Y007407D01*
X005226Y007398D01*
X005173Y007393D01*
X005119Y007391D01*
X005119Y007390D02*
X005080Y007390D01*
X005080Y007391D02*
X005025Y007390D01*
X004970Y007393D01*
X004915Y007400D01*
X004860Y007411D01*
X004807Y007426D01*
X004754Y007444D01*
X004703Y007466D01*
X004654Y007492D01*
X004607Y007521D01*
X004562Y007553D01*
X004519Y007589D01*
X004479Y007627D01*
X004441Y007668D01*
X004407Y007711D01*
X004376Y007757D01*
X004348Y007805D01*
X004323Y007855D01*
X004302Y007906D01*
X004285Y007959D01*
X004272Y008013D01*
X004262Y008067D01*
X004256Y008123D01*
X004254Y008178D01*
X006970Y008217D02*
X007206Y008217D01*
X009017Y006327D02*
X009017Y006170D01*
X009017Y005540D02*
X009017Y005461D01*
X009017Y005264D02*
X009017Y005146D01*
X008584Y004280D02*
X008586Y004321D01*
X008592Y004362D01*
X008602Y004402D01*
X008615Y004441D01*
X008632Y004478D01*
X008653Y004514D01*
X008677Y004548D01*
X008704Y004579D01*
X008733Y004607D01*
X008766Y004633D01*
X008800Y004655D01*
X008837Y004674D01*
X008875Y004689D01*
X008915Y004701D01*
X008955Y004709D01*
X008996Y004713D01*
X009038Y004713D01*
X009079Y004709D01*
X009119Y004701D01*
X009159Y004689D01*
X009197Y004674D01*
X009233Y004655D01*
X009268Y004633D01*
X009301Y004607D01*
X009330Y004579D01*
X009357Y004548D01*
X009381Y004514D01*
X009402Y004478D01*
X009419Y004441D01*
X009432Y004402D01*
X009442Y004362D01*
X009448Y004321D01*
X009450Y004280D01*
X009448Y004239D01*
X009442Y004198D01*
X009432Y004158D01*
X009419Y004119D01*
X009402Y004082D01*
X009381Y004046D01*
X009357Y004012D01*
X009330Y003981D01*
X009301Y003953D01*
X009268Y003927D01*
X009234Y003905D01*
X009197Y003886D01*
X009159Y003871D01*
X009119Y003859D01*
X009079Y003851D01*
X009038Y003847D01*
X008996Y003847D01*
X008955Y003851D01*
X008915Y003859D01*
X008875Y003871D01*
X008837Y003886D01*
X008801Y003905D01*
X008766Y003927D01*
X008733Y003953D01*
X008704Y003981D01*
X008677Y004012D01*
X008653Y004046D01*
X008632Y004082D01*
X008615Y004119D01*
X008602Y004158D01*
X008592Y004198D01*
X008586Y004239D01*
X008584Y004280D01*
X009017Y002390D02*
X009017Y002311D01*
X006340Y000343D02*
X006261Y000343D01*
D11*
X009017Y004280D03*
X001143Y004280D03*
D12*
X006938Y003729D03*
D13*
X007922Y003729D03*
X007922Y004831D03*
X006938Y004831D03*
D14*
X002680Y005180D03*
D15*
X002680Y004180D03*
X002680Y003180D03*
M02*
