G75*
%MOIN*%
%OFA0B0*%
%FSLAX24Y24*%
%IPPOS*%
%LPD*%
%AMOC8*
5,1,8,0,0,1.08239X$1,22.5*
%
%ADD10C,0.0030*%
%ADD11C,0.0060*%
%ADD12R,0.0010X0.0010*%
%ADD13R,0.0050X0.0010*%
%ADD14R,0.0040X0.0010*%
%ADD15R,0.0020X0.0010*%
%ADD16R,0.0030X0.0010*%
%ADD17R,0.0360X0.0010*%
%ADD18R,0.0060X0.0010*%
%ADD19R,0.0410X0.0010*%
%ADD20R,0.0090X0.0010*%
%ADD21R,0.0080X0.0010*%
%ADD22R,0.0450X0.0010*%
%ADD23R,0.0130X0.0010*%
%ADD24R,0.0110X0.0010*%
%ADD25R,0.0290X0.0010*%
%ADD26R,0.0070X0.0010*%
%ADD27R,0.0470X0.0010*%
%ADD28R,0.0120X0.0010*%
%ADD29R,0.0490X0.0010*%
%ADD30R,0.0100X0.0010*%
%ADD31R,0.0140X0.0010*%
%ADD32R,0.0160X0.0010*%
%ADD33R,0.0430X0.0010*%
%ADD34R,0.0170X0.0010*%
%ADD35R,0.0340X0.0010*%
%ADD36R,0.0420X0.0010*%
%ADD37R,0.0210X0.0010*%
%ADD38R,0.0200X0.0010*%
%ADD39R,0.0310X0.0010*%
%ADD40R,0.0150X0.0010*%
%ADD41R,0.0330X0.0010*%
%ADD42R,0.0400X0.0010*%
%ADD43R,0.0300X0.0010*%
%ADD44C,0.0100*%
%ADD45C,0.0080*%
%ADD46C,0.0050*%
%ADD47C,0.0000*%
%ADD48C,0.0040*%
%ADD49R,0.0014X0.0007*%
%ADD50R,0.0014X0.0007*%
%ADD51R,0.0014X0.0007*%
%ADD52R,0.0014X0.0007*%
%ADD53R,0.0021X0.0007*%
%ADD54R,0.0028X0.0007*%
%ADD55R,0.0028X0.0007*%
%ADD56R,0.0035X0.0007*%
%ADD57R,0.0042X0.0007*%
%ADD58R,0.0042X0.0007*%
%ADD59R,0.0042X0.0007*%
%ADD60R,0.0049X0.0007*%
%ADD61R,0.0056X0.0007*%
%ADD62R,0.0063X0.0007*%
%ADD63R,0.0063X0.0007*%
%ADD64R,0.0077X0.0007*%
%ADD65R,0.0077X0.0007*%
%ADD66R,0.0077X0.0007*%
%ADD67R,0.0077X0.0007*%
%ADD68R,0.0084X0.0007*%
%ADD69R,0.0091X0.0007*%
%ADD70R,0.0091X0.0007*%
%ADD71R,0.0105X0.0007*%
%ADD72R,0.0112X0.0007*%
%ADD73R,0.0112X0.0007*%
%ADD74R,0.0119X0.0007*%
%ADD75R,0.0133X0.0007*%
%ADD76R,0.0133X0.0007*%
%ADD77R,0.0140X0.0007*%
%ADD78R,0.0147X0.0007*%
%ADD79R,0.0161X0.0007*%
%ADD80R,0.0168X0.0007*%
%ADD81R,0.0168X0.0007*%
%ADD82R,0.0168X0.0007*%
%ADD83R,0.0168X0.0007*%
%ADD84R,0.0175X0.0007*%
%ADD85R,0.0189X0.0007*%
%ADD86R,0.0196X0.0007*%
%ADD87R,0.0203X0.0007*%
%ADD88R,0.0203X0.0007*%
%ADD89R,0.0203X0.0007*%
%ADD90R,0.0203X0.0007*%
%ADD91R,0.0217X0.0007*%
%ADD92R,0.0217X0.0007*%
%ADD93R,0.0224X0.0007*%
%ADD94R,0.0231X0.0007*%
%ADD95R,0.0231X0.0007*%
%ADD96R,0.0238X0.0007*%
%ADD97R,0.0231X0.0007*%
%ADD98R,0.0245X0.0007*%
%ADD99R,0.0252X0.0007*%
%ADD100R,0.0252X0.0007*%
%ADD101R,0.0259X0.0007*%
%ADD102R,0.0273X0.0007*%
%ADD103R,0.0273X0.0007*%
%ADD104R,0.0273X0.0007*%
%ADD105R,0.0273X0.0007*%
%ADD106R,0.0280X0.0007*%
%ADD107R,0.0287X0.0007*%
%ADD108R,0.0301X0.0007*%
%ADD109R,0.0301X0.0007*%
%ADD110R,0.0308X0.0007*%
%ADD111R,0.0308X0.0007*%
%ADD112R,0.0315X0.0007*%
%ADD113R,0.0322X0.0007*%
%ADD114R,0.0322X0.0007*%
%ADD115R,0.0336X0.0007*%
%ADD116R,0.0336X0.0007*%
%ADD117R,0.0343X0.0007*%
%ADD118R,0.0343X0.0007*%
%ADD119R,0.0350X0.0007*%
%ADD120R,0.0364X0.0007*%
%ADD121R,0.0364X0.0007*%
%ADD122R,0.0371X0.0007*%
%ADD123R,0.0371X0.0007*%
%ADD124R,0.0378X0.0007*%
%ADD125R,0.0378X0.0007*%
%ADD126R,0.0392X0.0007*%
%ADD127R,0.0392X0.0007*%
%ADD128R,0.0399X0.0007*%
%ADD129R,0.0399X0.0007*%
%ADD130R,0.0406X0.0007*%
%ADD131R,0.0406X0.0007*%
%ADD132R,0.0420X0.0007*%
%ADD133R,0.0427X0.0007*%
%ADD134R,0.0434X0.0007*%
%ADD135R,0.0434X0.0007*%
%ADD136R,0.0448X0.0007*%
%ADD137R,0.0448X0.0007*%
%ADD138R,0.0455X0.0007*%
%ADD139R,0.0462X0.0007*%
%ADD140R,0.0462X0.0007*%
%ADD141R,0.0469X0.0007*%
%ADD142R,0.0476X0.0007*%
%ADD143R,0.0483X0.0007*%
%ADD144R,0.0483X0.0007*%
%ADD145R,0.0490X0.0007*%
%ADD146R,0.0504X0.0007*%
%ADD147R,0.0511X0.0007*%
%ADD148R,0.0511X0.0007*%
%ADD149R,0.0518X0.0007*%
%ADD150R,0.0518X0.0007*%
%ADD151R,0.0532X0.0007*%
%ADD152R,0.0532X0.0007*%
%ADD153R,0.0532X0.0007*%
%ADD154R,0.0532X0.0007*%
%ADD155R,0.0539X0.0007*%
%ADD156R,0.0546X0.0007*%
%ADD157R,0.0546X0.0007*%
%ADD158R,0.0560X0.0007*%
%ADD159R,0.1127X0.0007*%
%ADD160R,0.1127X0.0007*%
%ADD161R,0.1099X0.0007*%
%ADD162R,0.1057X0.0007*%
%ADD163R,0.1001X0.0007*%
%ADD164R,0.0945X0.0007*%
%ADD165R,0.0903X0.0007*%
%ADD166R,0.0847X0.0007*%
%ADD167R,0.0791X0.0007*%
%ADD168R,0.0742X0.0007*%
%ADD169R,0.0693X0.0007*%
%ADD170R,0.0637X0.0007*%
%ADD171R,0.0581X0.0007*%
%ADD172R,0.0539X0.0007*%
%ADD173R,0.0427X0.0007*%
%ADD174R,0.0378X0.0007*%
%ADD175R,0.0280X0.0007*%
%ADD176R,0.0007X0.0007*%
%ADD177R,0.0007X0.0007*%
%ADD178R,0.0315X0.0007*%
%ADD179R,0.1379X0.0007*%
%ADD180R,0.1379X0.0007*%
%ADD181R,0.1386X0.0007*%
%ADD182R,0.1393X0.0007*%
%ADD183R,0.1393X0.0007*%
%ADD184R,0.0329X0.0007*%
%ADD185R,0.0070X0.0007*%
%ADD186R,0.0049X0.0007*%
%ADD187R,0.0049X0.0007*%
%ADD188R,0.0350X0.0007*%
%ADD189R,0.0070X0.0007*%
%ADD190R,0.0021X0.0007*%
%ADD191R,0.0357X0.0007*%
%ADD192R,0.0063X0.0007*%
%ADD193R,0.0035X0.0007*%
%ADD194R,0.0028X0.0007*%
%ADD195R,0.0364X0.0007*%
%ADD196R,0.0343X0.0007*%
%ADD197R,0.0042X0.0007*%
%ADD198R,0.0056X0.0007*%
%ADD199R,0.0364X0.0007*%
%ADD200R,0.0357X0.0007*%
%ADD201R,0.0028X0.0007*%
%ADD202R,0.0371X0.0007*%
%ADD203R,0.0007X0.0007*%
%ADD204R,0.0056X0.0007*%
%ADD205R,0.0378X0.0007*%
%ADD206R,0.0063X0.0007*%
%ADD207R,0.0392X0.0007*%
%ADD208R,0.0021X0.0007*%
%ADD209R,0.0385X0.0007*%
%ADD210R,0.0385X0.0007*%
%ADD211R,0.0007X0.0007*%
%ADD212R,0.0049X0.0007*%
%ADD213R,0.0357X0.0007*%
%ADD214R,0.0392X0.0007*%
%ADD215R,0.0406X0.0007*%
%ADD216R,0.1435X0.0007*%
%ADD217R,0.1442X0.0007*%
%ADD218R,0.1449X0.0007*%
%ADD219R,0.1449X0.0007*%
%ADD220R,0.0721X0.0007*%
%ADD221R,0.0721X0.0007*%
%ADD222R,0.0721X0.0007*%
%ADD223R,0.0714X0.0007*%
%ADD224R,0.0707X0.0007*%
%ADD225R,0.0707X0.0007*%
%ADD226R,0.0700X0.0007*%
%ADD227R,0.0693X0.0007*%
%ADD228R,0.0686X0.0007*%
%ADD229R,0.0686X0.0007*%
%ADD230R,0.0679X0.0007*%
%ADD231R,0.0679X0.0007*%
%ADD232R,0.0672X0.0007*%
%ADD233R,0.0665X0.0007*%
%ADD234R,0.0665X0.0007*%
%ADD235R,0.0658X0.0007*%
%ADD236R,0.0658X0.0007*%
%ADD237R,0.0658X0.0007*%
%ADD238R,0.0651X0.0007*%
%ADD239R,0.0644X0.0007*%
%ADD240R,0.0644X0.0007*%
%ADD241R,0.0644X0.0007*%
%ADD242R,0.0637X0.0007*%
%ADD243R,0.0637X0.0007*%
%ADD244R,0.0630X0.0007*%
%ADD245R,0.0630X0.0007*%
%ADD246R,0.0623X0.0007*%
%ADD247R,0.0623X0.0007*%
%ADD248R,0.0616X0.0007*%
%ADD249R,0.0623X0.0007*%
%ADD250R,0.0609X0.0007*%
%ADD251R,0.0609X0.0007*%
%ADD252R,0.0602X0.0007*%
%ADD253R,0.0602X0.0007*%
%ADD254R,0.0602X0.0007*%
%ADD255R,0.0595X0.0007*%
%ADD256R,0.0602X0.0007*%
%ADD257R,0.0588X0.0007*%
%ADD258R,0.0588X0.0007*%
%ADD259R,0.0581X0.0007*%
%ADD260R,0.0581X0.0007*%
%ADD261R,0.0574X0.0007*%
%ADD262R,0.0574X0.0007*%
%ADD263R,0.0567X0.0007*%
%ADD264R,0.0567X0.0007*%
%ADD265R,0.0553X0.0007*%
%ADD266R,0.0546X0.0007*%
%ADD267R,0.0553X0.0007*%
%ADD268R,0.0553X0.0007*%
%ADD269R,0.0539X0.0007*%
%ADD270R,0.0525X0.0007*%
%ADD271R,0.0525X0.0007*%
%ADD272R,0.0518X0.0007*%
%ADD273R,0.0511X0.0007*%
%ADD274R,0.0504X0.0007*%
%ADD275R,0.0497X0.0007*%
%ADD276R,0.0497X0.0007*%
%ADD277R,0.0497X0.0007*%
%ADD278R,0.0490X0.0007*%
%ADD279R,0.0469X0.0007*%
%ADD280R,0.0462X0.0007*%
%ADD281R,0.0441X0.0007*%
%ADD282R,0.0441X0.0007*%
%ADD283R,0.0441X0.0007*%
%ADD284R,0.0441X0.0007*%
%ADD285R,0.0427X0.0007*%
%ADD286R,0.0413X0.0007*%
%ADD287R,0.0420X0.0007*%
%ADD288R,0.0413X0.0007*%
%ADD289R,0.0399X0.0007*%
%ADD290R,0.0399X0.0007*%
%ADD291R,0.0357X0.0007*%
%ADD292R,0.0329X0.0007*%
%ADD293R,0.0322X0.0007*%
%ADD294R,0.0322X0.0007*%
%ADD295R,0.0308X0.0007*%
%ADD296R,0.0308X0.0007*%
%ADD297R,0.0301X0.0007*%
%ADD298R,0.0294X0.0007*%
%ADD299R,0.0294X0.0007*%
%ADD300R,0.0287X0.0007*%
%ADD301R,0.0287X0.0007*%
%ADD302R,0.0287X0.0007*%
%ADD303R,0.0266X0.0007*%
%ADD304R,0.0266X0.0007*%
%ADD305R,0.0266X0.0007*%
%ADD306R,0.0259X0.0007*%
%ADD307R,0.0259X0.0007*%
%ADD308R,0.0252X0.0007*%
%ADD309R,0.0245X0.0007*%
%ADD310R,0.0238X0.0007*%
%ADD311R,0.0238X0.0007*%
%ADD312R,0.0231X0.0007*%
%ADD313R,0.0224X0.0007*%
%ADD314R,0.0224X0.0007*%
%ADD315R,0.0224X0.0007*%
%ADD316R,0.0217X0.0007*%
%ADD317R,0.0210X0.0007*%
%ADD318R,0.0196X0.0007*%
%ADD319R,0.0189X0.0007*%
%ADD320R,0.0182X0.0007*%
%ADD321R,0.0182X0.0007*%
%ADD322R,0.0182X0.0007*%
%ADD323R,0.0175X0.0007*%
%ADD324R,0.0154X0.0007*%
%ADD325R,0.0154X0.0007*%
%ADD326R,0.0147X0.0007*%
%ADD327R,0.0147X0.0007*%
%ADD328R,0.0140X0.0007*%
%ADD329R,0.0133X0.0007*%
%ADD330R,0.0133X0.0007*%
%ADD331R,0.0126X0.0007*%
%ADD332R,0.0126X0.0007*%
%ADD333R,0.0112X0.0007*%
%ADD334R,0.0119X0.0007*%
%ADD335R,0.0112X0.0007*%
%ADD336R,0.0105X0.0007*%
%ADD337R,0.0098X0.0007*%
D10*
X003326Y003103D02*
X003375Y003055D01*
X003520Y003055D01*
X003520Y003345D01*
X003375Y003345D01*
X003326Y003297D01*
X003326Y003103D01*
X003621Y003055D02*
X003621Y003345D01*
X003814Y003345D02*
X003621Y003055D01*
X003814Y003055D02*
X003814Y003345D01*
X003915Y003297D02*
X003964Y003345D01*
X004061Y003345D01*
X004109Y003297D01*
X004109Y003103D01*
X004061Y003055D01*
X003964Y003055D01*
X003915Y003103D01*
X003915Y003200D01*
X004012Y003200D01*
X003942Y004095D02*
X003845Y004192D01*
X003845Y004385D01*
X003744Y004337D02*
X003744Y004143D01*
X003696Y004095D01*
X003599Y004095D01*
X003551Y004143D01*
X003450Y004143D02*
X003401Y004095D01*
X003305Y004095D01*
X003256Y004143D01*
X003450Y004143D02*
X003450Y004337D01*
X003401Y004385D01*
X003305Y004385D01*
X003256Y004337D01*
X003551Y004337D02*
X003599Y004385D01*
X003696Y004385D01*
X003744Y004337D01*
X004039Y004385D02*
X004039Y004192D01*
X003942Y004095D01*
X003892Y004995D02*
X003796Y004995D01*
X003747Y005043D01*
X003747Y005092D01*
X003796Y005140D01*
X003892Y005140D01*
X003941Y005188D01*
X003941Y005237D01*
X003892Y005285D01*
X003796Y005285D01*
X003747Y005237D01*
X003646Y005285D02*
X003549Y005285D01*
X003598Y005285D02*
X003598Y004995D01*
X003646Y004995D02*
X003549Y004995D01*
X003450Y005043D02*
X003401Y004995D01*
X003305Y004995D01*
X003256Y005043D01*
X003256Y005140D01*
X003353Y005140D01*
X003450Y005237D02*
X003450Y005043D01*
X003450Y005237D02*
X003401Y005285D01*
X003305Y005285D01*
X003256Y005237D01*
X003892Y004995D02*
X003941Y005043D01*
X005243Y006445D02*
X005340Y006445D01*
X005388Y006493D01*
X005388Y006735D01*
X005490Y006638D02*
X005586Y006735D01*
X005586Y006445D01*
X005490Y006445D02*
X005683Y006445D01*
X005243Y006445D02*
X005195Y006493D01*
X005195Y006735D01*
X006195Y007743D02*
X006243Y007695D01*
X006340Y007695D01*
X006388Y007743D01*
X006490Y007695D02*
X006683Y007695D01*
X006586Y007695D02*
X006586Y007985D01*
X006490Y007888D01*
X006388Y007937D02*
X006340Y007985D01*
X006243Y007985D01*
X006195Y007937D01*
X006195Y007743D01*
X007584Y007704D02*
X007584Y007995D01*
X007729Y007995D01*
X007777Y007946D01*
X007777Y007849D01*
X007729Y007801D01*
X007584Y007801D01*
X007681Y007801D02*
X007777Y007704D01*
X007879Y007849D02*
X008072Y007849D01*
X008024Y007704D02*
X008024Y007995D01*
X007879Y007849D01*
X007840Y001735D02*
X007695Y001735D01*
X007695Y001445D01*
X007695Y001542D02*
X007840Y001542D01*
X007888Y001590D01*
X007888Y001687D01*
X007840Y001735D01*
X007990Y001687D02*
X008038Y001735D01*
X008135Y001735D01*
X008183Y001687D01*
X008183Y001638D01*
X007990Y001445D01*
X008183Y001445D01*
X007888Y001445D02*
X007792Y001542D01*
X007183Y001445D02*
X006990Y001445D01*
X007086Y001445D02*
X007086Y001735D01*
X006990Y001638D01*
X006888Y001590D02*
X006840Y001542D01*
X006695Y001542D01*
X006792Y001542D02*
X006888Y001445D01*
X006888Y001590D02*
X006888Y001687D01*
X006840Y001735D01*
X006695Y001735D01*
X006695Y001445D01*
X006183Y001493D02*
X006135Y001445D01*
X006038Y001445D01*
X005990Y001493D01*
X005888Y001445D02*
X005792Y001542D01*
X005840Y001542D02*
X005695Y001542D01*
X005695Y001445D02*
X005695Y001735D01*
X005840Y001735D01*
X005888Y001687D01*
X005888Y001590D01*
X005840Y001542D01*
X005990Y001687D02*
X006038Y001735D01*
X006135Y001735D01*
X006183Y001687D01*
X006183Y001638D01*
X006135Y001590D01*
X006183Y001542D01*
X006183Y001493D01*
X006135Y001590D02*
X006086Y001590D01*
X005183Y001445D02*
X004990Y001445D01*
X005086Y001445D02*
X005086Y001735D01*
X004990Y001638D01*
X004888Y001687D02*
X004840Y001735D01*
X004695Y001735D01*
X004695Y001445D01*
X004840Y001445D01*
X004888Y001493D01*
X004888Y001687D01*
D11*
X004873Y002210D02*
X005020Y002357D01*
X004947Y002357D02*
X004873Y002430D01*
X004873Y002577D01*
X004947Y002650D01*
X005167Y002650D01*
X005167Y002210D01*
X005167Y002357D02*
X004947Y002357D01*
X004706Y002357D02*
X004413Y002357D01*
X004413Y002430D01*
X004486Y002504D01*
X004633Y002504D01*
X004706Y002430D01*
X004706Y002283D01*
X004633Y002210D01*
X004486Y002210D01*
X004173Y002210D02*
X004173Y002577D01*
X004099Y002650D01*
X003939Y002650D02*
X003866Y002650D01*
X003866Y002210D01*
X003939Y002210D02*
X003792Y002210D01*
X003632Y002283D02*
X003559Y002210D01*
X003412Y002210D01*
X003339Y002357D02*
X003632Y002357D01*
X003632Y002430D02*
X003632Y002283D01*
X003632Y002430D02*
X003559Y002504D01*
X003412Y002504D01*
X003339Y002430D01*
X003339Y002357D01*
X003172Y002430D02*
X003172Y002283D01*
X003098Y002210D01*
X002878Y002210D01*
X002638Y002283D02*
X002565Y002210D01*
X002638Y002283D02*
X002638Y002577D01*
X002711Y002504D02*
X002565Y002504D01*
X002405Y002504D02*
X002331Y002504D01*
X002331Y002210D01*
X002258Y002210D02*
X002405Y002210D01*
X002098Y002504D02*
X001951Y002210D01*
X001804Y002504D01*
X001637Y002430D02*
X001564Y002504D01*
X001417Y002504D01*
X001344Y002430D01*
X001344Y002357D01*
X001637Y002357D01*
X001637Y002430D02*
X001637Y002283D01*
X001564Y002210D01*
X001417Y002210D01*
X002331Y002650D02*
X002331Y002724D01*
X002878Y002504D02*
X003098Y002504D01*
X003172Y002430D01*
X004099Y002430D02*
X004246Y002430D01*
X005794Y002504D02*
X006014Y002504D01*
X006088Y002430D01*
X006088Y002283D01*
X006014Y002210D01*
X005794Y002210D01*
X005794Y002650D01*
X006254Y002430D02*
X006254Y002357D01*
X006548Y002357D01*
X006548Y002430D02*
X006548Y002283D01*
X006475Y002210D01*
X006328Y002210D01*
X006254Y002430D02*
X006328Y002504D01*
X006475Y002504D01*
X006548Y002430D01*
X006712Y002504D02*
X006785Y002504D01*
X006932Y002357D01*
X006932Y002210D02*
X006932Y002504D01*
X007099Y002430D02*
X007099Y002210D01*
X007319Y002210D01*
X007392Y002283D01*
X007319Y002357D01*
X007099Y002357D01*
X007099Y002430D02*
X007172Y002504D01*
X007319Y002504D01*
X007556Y002504D02*
X007629Y002504D01*
X007776Y002357D01*
X007776Y002210D02*
X007776Y002504D01*
X007936Y002430D02*
X008083Y002430D01*
X008009Y002577D02*
X007936Y002650D01*
X008009Y002577D02*
X008009Y002210D01*
X008249Y002210D02*
X008249Y002430D01*
X008323Y002504D01*
X008543Y002504D01*
X008543Y002210D01*
X008703Y002210D02*
X008850Y002210D01*
X008777Y002210D02*
X008777Y002650D01*
X008850Y002650D02*
X008703Y002650D01*
X008630Y001900D02*
X008777Y001900D01*
X008850Y001827D01*
X008850Y001754D01*
X008777Y001680D01*
X008630Y001680D01*
X008556Y001607D01*
X008556Y001533D01*
X008630Y001460D01*
X008777Y001460D01*
X008850Y001533D01*
X008556Y001827D02*
X008630Y001900D01*
X008390Y001680D02*
X008316Y001754D01*
X008169Y001754D01*
X008096Y001680D01*
X008096Y001607D01*
X008390Y001607D01*
X008390Y001680D02*
X008390Y001533D01*
X008316Y001460D01*
X008169Y001460D01*
X007929Y001460D02*
X007929Y001754D01*
X007709Y001754D01*
X007636Y001680D01*
X007636Y001460D01*
X007469Y001460D02*
X007249Y001460D01*
X007175Y001533D01*
X007249Y001607D01*
X007395Y001607D01*
X007469Y001680D01*
X007395Y001754D01*
X007175Y001754D01*
X007008Y001680D02*
X007008Y001533D01*
X006935Y001460D01*
X006788Y001460D01*
X006715Y001533D01*
X006715Y001680D01*
X006788Y001754D01*
X006935Y001754D01*
X007008Y001680D01*
X006548Y001607D02*
X006401Y001754D01*
X006328Y001754D01*
X006548Y001754D02*
X006548Y001460D01*
X006060Y004120D02*
X006060Y005540D01*
X006930Y006070D02*
X007070Y005930D01*
X007250Y006050D01*
X007330Y006010D01*
X007470Y006350D01*
X007430Y006330D02*
X007280Y006530D01*
X007330Y006780D01*
X007530Y006880D01*
X007730Y006880D01*
X007880Y006730D01*
X007880Y006430D01*
X007730Y006330D01*
X007880Y006080D01*
X007930Y006080D01*
X008080Y005980D01*
X008180Y006080D01*
X008080Y006230D01*
X008180Y006480D01*
X008380Y006530D01*
X008380Y006680D01*
X008180Y006680D01*
X008080Y006930D01*
X008230Y007130D01*
X008080Y007230D01*
X007930Y007080D01*
X007730Y007180D01*
X007680Y007380D01*
X007530Y007380D01*
X007480Y007180D01*
X007280Y007080D01*
X007080Y007230D01*
X006980Y007130D01*
X007080Y006930D01*
X006980Y006680D01*
X006780Y006680D01*
X006780Y006530D01*
X007030Y006480D01*
X007080Y006230D01*
X006980Y006080D01*
X007080Y005980D01*
X007230Y006080D01*
X007330Y006030D01*
X007430Y006330D01*
X007413Y006353D02*
X007055Y006353D01*
X007044Y006412D02*
X007369Y006412D01*
X007325Y006470D02*
X007032Y006470D01*
X006980Y006450D02*
X006760Y006490D01*
X006760Y006690D01*
X006980Y006730D01*
X006990Y006704D02*
X007315Y006704D01*
X007303Y006646D02*
X006780Y006646D01*
X006780Y006587D02*
X007291Y006587D01*
X007281Y006529D02*
X006787Y006529D01*
X007067Y006295D02*
X007418Y006295D01*
X007399Y006236D02*
X007079Y006236D01*
X007060Y006250D02*
X006930Y006070D01*
X006999Y006061D02*
X007201Y006061D01*
X007269Y006061D02*
X007340Y006061D01*
X007360Y006119D02*
X007006Y006119D01*
X007045Y006178D02*
X007379Y006178D01*
X007113Y006002D02*
X007058Y006002D01*
X007710Y006350D02*
X007860Y006010D01*
X007930Y006050D01*
X008110Y005930D01*
X008250Y006070D01*
X008130Y006250D01*
X008082Y006236D02*
X007786Y006236D01*
X007751Y006295D02*
X008106Y006295D01*
X008129Y006353D02*
X007765Y006353D01*
X007852Y006412D02*
X008153Y006412D01*
X008176Y006470D02*
X007880Y006470D01*
X007880Y006529D02*
X008374Y006529D01*
X008380Y006587D02*
X007880Y006587D01*
X007880Y006646D02*
X008380Y006646D01*
X008430Y006690D02*
X008200Y006730D01*
X008170Y006704D02*
X007880Y006704D01*
X007847Y006763D02*
X008147Y006763D01*
X008124Y006821D02*
X007789Y006821D01*
X007730Y006880D02*
X008100Y006880D01*
X008120Y006920D02*
X008250Y007110D01*
X008110Y007250D01*
X007920Y007120D01*
X007964Y007114D02*
X008218Y007114D01*
X008174Y007055D02*
X007017Y007055D01*
X006988Y007114D02*
X007235Y007114D01*
X007270Y007120D02*
X007070Y007250D01*
X006930Y007110D01*
X007070Y006920D01*
X007076Y006938D02*
X008086Y006938D01*
X008130Y006997D02*
X007047Y006997D01*
X007060Y006880D02*
X007529Y006880D01*
X007412Y006821D02*
X007036Y006821D01*
X007013Y006763D02*
X007327Y006763D01*
X007065Y006918D02*
X007043Y006883D01*
X007023Y006847D01*
X007005Y006809D01*
X006990Y006770D01*
X006978Y006730D01*
X007347Y007114D02*
X007863Y007114D01*
X007746Y007172D02*
X007464Y007172D01*
X007450Y007190D02*
X007500Y007430D01*
X007690Y007430D01*
X007740Y007190D01*
X007717Y007231D02*
X007493Y007231D01*
X007507Y007289D02*
X007703Y007289D01*
X007688Y007348D02*
X007522Y007348D01*
X007157Y007172D02*
X007022Y007172D01*
X007470Y006350D02*
X007442Y006366D01*
X007415Y006385D01*
X007392Y006407D01*
X007371Y006432D01*
X007353Y006460D01*
X007338Y006489D01*
X007328Y006520D01*
X007320Y006551D01*
X007317Y006584D01*
X007318Y006616D01*
X007322Y006649D01*
X007331Y006680D01*
X007343Y006710D01*
X007358Y006739D01*
X007377Y006766D01*
X007399Y006790D01*
X007423Y006811D01*
X007450Y006830D01*
X007479Y006845D01*
X007510Y006856D01*
X007541Y006864D01*
X007574Y006868D01*
X007606Y006868D01*
X007639Y006864D01*
X007670Y006856D01*
X007701Y006845D01*
X007730Y006830D01*
X007757Y006811D01*
X007781Y006790D01*
X007803Y006766D01*
X007822Y006739D01*
X007837Y006710D01*
X007849Y006680D01*
X007858Y006649D01*
X007862Y006616D01*
X007863Y006584D01*
X007860Y006551D01*
X007852Y006520D01*
X007842Y006489D01*
X007827Y006460D01*
X007809Y006432D01*
X007788Y006407D01*
X007765Y006385D01*
X007738Y006366D01*
X007710Y006350D01*
X007821Y006178D02*
X008115Y006178D01*
X008154Y006119D02*
X007857Y006119D01*
X007959Y006061D02*
X008161Y006061D01*
X008102Y006002D02*
X008047Y006002D01*
X008210Y006450D02*
X008430Y006490D01*
X008430Y006690D01*
X008167Y007172D02*
X008022Y007172D01*
X008208Y006434D02*
X008193Y006387D01*
X008175Y006341D01*
X008153Y006297D01*
X008128Y006255D01*
X007918Y007116D02*
X007876Y007139D01*
X007833Y007158D01*
X007788Y007175D01*
X007742Y007187D01*
X007450Y007191D02*
X007404Y007179D01*
X007358Y007163D01*
X007314Y007143D01*
X007271Y007120D01*
X006981Y006451D02*
X006991Y006409D01*
X007004Y006368D01*
X007020Y006328D01*
X007039Y006289D01*
X007061Y006252D01*
X008202Y006732D02*
X008191Y006772D01*
X008177Y006811D01*
X008161Y006848D01*
X008142Y006885D01*
X008121Y006920D01*
X004200Y005540D02*
X004200Y004120D01*
D12*
X002580Y001310D03*
X002330Y001160D03*
X002420Y001080D03*
X002400Y000910D03*
X002440Y000780D03*
X002230Y000710D03*
X001740Y000710D03*
X001590Y000910D03*
X001610Y001100D03*
X001710Y001130D03*
X001720Y001310D03*
X002270Y001300D03*
X002750Y001080D03*
X002780Y000910D03*
X002870Y000890D03*
X003040Y000970D03*
X003000Y001070D03*
X003660Y000700D03*
X004040Y000710D03*
D13*
X003910Y000860D03*
X003900Y000870D03*
X003900Y000880D03*
X003890Y000890D03*
X003880Y000910D03*
X003820Y000910D03*
X003820Y000900D03*
X003810Y000880D03*
X003850Y001000D03*
X003850Y001010D03*
X003850Y001020D03*
X003850Y001030D03*
X003850Y001040D03*
X003850Y001050D03*
X003860Y001070D03*
X003860Y001080D03*
X003860Y001090D03*
X003860Y001100D03*
X003860Y001110D03*
X003860Y001120D03*
X003860Y001130D03*
X003860Y001140D03*
X003860Y001150D03*
X003860Y001160D03*
X003860Y001210D03*
X003860Y001220D03*
X003860Y001230D03*
X003860Y001240D03*
X003860Y001250D03*
X003860Y001260D03*
X003860Y001270D03*
X003860Y001280D03*
X003860Y001290D03*
X003860Y001300D03*
X003860Y001310D03*
X004010Y001160D03*
X004010Y001150D03*
X004010Y001140D03*
X004010Y001130D03*
X004010Y001120D03*
X004010Y001110D03*
X004010Y001100D03*
X004010Y001090D03*
X004010Y001080D03*
X004010Y001070D03*
X004010Y001060D03*
X004010Y001050D03*
X004010Y001040D03*
X004010Y001030D03*
X004010Y001020D03*
X004010Y001010D03*
X004010Y001000D03*
X003600Y001000D03*
X003600Y001010D03*
X003600Y001020D03*
X003600Y001030D03*
X003600Y001040D03*
X003600Y001050D03*
X003600Y001060D03*
X003600Y001070D03*
X003600Y001080D03*
X003600Y001090D03*
X003600Y001100D03*
X003600Y001110D03*
X003600Y001120D03*
X003600Y001170D03*
X003600Y001180D03*
X003600Y001190D03*
X003600Y001200D03*
X003600Y001210D03*
X003600Y001220D03*
X003600Y001230D03*
X003600Y001240D03*
X003600Y001250D03*
X003600Y001260D03*
X003600Y001270D03*
X003600Y001280D03*
X003600Y001290D03*
X003600Y001300D03*
X003600Y001310D03*
X003400Y001100D03*
X003400Y001090D03*
X003400Y001080D03*
X003400Y001070D03*
X003400Y001020D03*
X003400Y001010D03*
X003400Y001000D03*
X003400Y000990D03*
X003400Y000980D03*
X003400Y000930D03*
X003400Y000920D03*
X003290Y000810D03*
X003220Y000830D03*
X003110Y000920D03*
X003110Y000930D03*
X003110Y000980D03*
X003110Y000990D03*
X003110Y001000D03*
X003110Y001010D03*
X003110Y001020D03*
X003110Y001070D03*
X003110Y001080D03*
X003110Y001090D03*
X003110Y001100D03*
X003020Y001020D03*
X003010Y001030D03*
X003030Y001010D03*
X003040Y001000D03*
X003040Y000990D03*
X002890Y000970D03*
X002880Y000950D03*
X002870Y000930D03*
X002870Y000920D03*
X002790Y000940D03*
X002790Y000950D03*
X002780Y000970D03*
X002770Y000990D03*
X002770Y001000D03*
X002760Y001010D03*
X002760Y001020D03*
X002760Y001030D03*
X002750Y001040D03*
X002750Y001050D03*
X002740Y001060D03*
X002670Y001060D03*
X002670Y001070D03*
X002670Y001080D03*
X002670Y001090D03*
X002670Y001100D03*
X002670Y001110D03*
X002670Y001120D03*
X002670Y001130D03*
X002670Y001140D03*
X002670Y001150D03*
X002670Y001160D03*
X002670Y001170D03*
X002600Y001240D03*
X002530Y001170D03*
X002530Y001160D03*
X002530Y001150D03*
X002530Y001140D03*
X002530Y001130D03*
X002530Y001120D03*
X002530Y001110D03*
X002530Y001100D03*
X002530Y001090D03*
X002530Y001080D03*
X002530Y001070D03*
X002530Y001060D03*
X002530Y001050D03*
X002530Y001040D03*
X002530Y001030D03*
X002530Y001020D03*
X002530Y001010D03*
X002530Y001000D03*
X002530Y000990D03*
X002520Y000980D03*
X002520Y000970D03*
X002520Y000960D03*
X002520Y000950D03*
X002510Y000930D03*
X002510Y000920D03*
X002500Y000900D03*
X002390Y000920D03*
X002390Y000940D03*
X002410Y000990D03*
X002420Y001020D03*
X002430Y001040D03*
X002430Y001050D03*
X002310Y001040D03*
X002310Y001030D03*
X002310Y001020D03*
X002310Y001010D03*
X002310Y001000D03*
X002310Y000990D03*
X002310Y000980D03*
X002310Y000970D03*
X002310Y000960D03*
X002310Y000950D03*
X002310Y000940D03*
X002310Y000930D03*
X002310Y000920D03*
X002310Y000910D03*
X002310Y000900D03*
X002310Y000890D03*
X002310Y000880D03*
X002310Y000870D03*
X002310Y000860D03*
X002310Y000850D03*
X002310Y000840D03*
X002310Y000830D03*
X002240Y000740D03*
X002120Y000740D03*
X002120Y000730D03*
X002120Y000720D03*
X002120Y000710D03*
X002120Y000790D03*
X002120Y000800D03*
X002120Y000810D03*
X002120Y000820D03*
X002120Y000830D03*
X002120Y000880D03*
X002120Y000890D03*
X002120Y000900D03*
X002120Y000910D03*
X002120Y000920D03*
X002120Y000970D03*
X002120Y000980D03*
X002120Y000990D03*
X002120Y001000D03*
X002120Y001010D03*
X002120Y001020D03*
X002000Y001070D03*
X002000Y001080D03*
X002000Y001090D03*
X002000Y001100D03*
X002000Y001110D03*
X002000Y001120D03*
X002000Y001170D03*
X002000Y001180D03*
X002000Y001190D03*
X002000Y001200D03*
X002000Y001210D03*
X002000Y001220D03*
X002130Y001290D03*
X002280Y001260D03*
X002310Y001220D03*
X002670Y001050D03*
X002670Y001040D03*
X002670Y001030D03*
X002670Y001020D03*
X002670Y001010D03*
X002670Y001000D03*
X002670Y000990D03*
X002670Y000980D03*
X002670Y000970D03*
X002670Y000960D03*
X002670Y000950D03*
X002670Y000940D03*
X002670Y000930D03*
X002670Y000920D03*
X002670Y000910D03*
X002670Y000900D03*
X002670Y000890D03*
X002670Y000880D03*
X002670Y000870D03*
X002440Y000800D03*
X002950Y001120D03*
X002950Y001130D03*
X003430Y000720D03*
X003520Y000820D03*
X003600Y000900D03*
X003600Y000910D03*
X003600Y000920D03*
X003600Y000930D03*
X003600Y000940D03*
X003600Y000950D03*
X003600Y000960D03*
X003600Y000970D03*
X003600Y000980D03*
X003600Y000990D03*
X001880Y000990D03*
X001880Y001000D03*
X001880Y001010D03*
X001880Y001020D03*
X001880Y000980D03*
X001880Y000970D03*
X001880Y000920D03*
X001880Y000910D03*
X001880Y000900D03*
X001880Y000890D03*
X001880Y000880D03*
X001880Y000830D03*
X001880Y000820D03*
X001880Y000810D03*
X001880Y000800D03*
X001880Y000790D03*
X001880Y000740D03*
X001880Y000730D03*
X001880Y000720D03*
X001880Y000710D03*
X001750Y000770D03*
X001750Y000780D03*
X001760Y000790D03*
X001760Y000800D03*
X001760Y000810D03*
X001770Y000820D03*
X001770Y000830D03*
X001770Y000840D03*
X001770Y000850D03*
X001780Y000860D03*
X001780Y000870D03*
X001780Y000880D03*
X001780Y000890D03*
X001780Y000900D03*
X001780Y000910D03*
X001780Y000920D03*
X001790Y000930D03*
X001790Y000940D03*
X001790Y000950D03*
X001790Y000960D03*
X001790Y000970D03*
X001790Y000980D03*
X001790Y000990D03*
X001790Y001000D03*
X001790Y001010D03*
X001790Y001020D03*
X001790Y001030D03*
X001790Y001040D03*
X001790Y001050D03*
X001790Y001060D03*
X001790Y001070D03*
X001790Y001080D03*
X001790Y001090D03*
X001790Y001100D03*
X001790Y001110D03*
X001790Y001120D03*
X001790Y001170D03*
X001790Y001180D03*
X001790Y001190D03*
X001790Y001200D03*
X001790Y001210D03*
X001790Y001220D03*
X001720Y001270D03*
X001720Y001280D03*
X001730Y001290D03*
X001710Y001260D03*
X001700Y001240D03*
X001690Y001230D03*
X001680Y001210D03*
X001670Y001200D03*
X001620Y001130D03*
X001690Y001070D03*
X001700Y001080D03*
X001710Y001100D03*
X001720Y001110D03*
X001680Y001050D03*
X001670Y001040D03*
X001670Y000960D03*
X001670Y000950D03*
X001670Y000940D03*
X001670Y000930D03*
X001670Y000920D03*
X001670Y000910D03*
X001670Y000900D03*
X001670Y000890D03*
X001670Y000880D03*
X001670Y000870D03*
X001670Y000860D03*
X001670Y000850D03*
X001670Y000840D03*
X001670Y000830D03*
X001670Y000820D03*
X001670Y000810D03*
X001670Y000800D03*
X001670Y000790D03*
X001670Y000780D03*
X001670Y000770D03*
X001670Y000760D03*
X001670Y000750D03*
X001670Y000740D03*
X001670Y000730D03*
X001670Y000720D03*
X001670Y000710D03*
X001740Y000750D03*
D14*
X001735Y000730D03*
X001595Y000940D03*
X001615Y001120D03*
X001715Y001120D03*
X001725Y001300D03*
X002335Y001180D03*
X002435Y001070D03*
X002575Y001300D03*
X002745Y001070D03*
X002905Y001020D03*
X002905Y001010D03*
X002905Y001000D03*
X002895Y000990D03*
X002895Y000980D03*
X002885Y000960D03*
X002875Y000940D03*
X002955Y000940D03*
X002955Y000930D03*
X002955Y000920D03*
X002955Y000910D03*
X002955Y000900D03*
X002955Y000890D03*
X002955Y000880D03*
X002955Y000870D03*
X002955Y000860D03*
X002955Y000850D03*
X002955Y000840D03*
X002955Y000830D03*
X002955Y000820D03*
X002955Y000810D03*
X002955Y000800D03*
X002955Y000790D03*
X002955Y000780D03*
X002955Y000770D03*
X002955Y000760D03*
X002955Y000750D03*
X002955Y000740D03*
X002955Y000730D03*
X002955Y000720D03*
X002955Y000710D03*
X002805Y000770D03*
X002795Y000920D03*
X002955Y000950D03*
X002955Y000960D03*
X002955Y000970D03*
X002955Y000980D03*
X002955Y000990D03*
X002955Y001000D03*
X002955Y001010D03*
X002955Y001020D03*
X002955Y001180D03*
X002955Y001190D03*
X002955Y001200D03*
X002955Y001210D03*
X002955Y001220D03*
X002955Y001230D03*
X002955Y001240D03*
X002955Y001250D03*
X002955Y001260D03*
X002955Y001270D03*
X002955Y001280D03*
X002955Y001290D03*
X002955Y001300D03*
X002955Y001310D03*
X003175Y001310D03*
X003175Y001300D03*
X003175Y001290D03*
X003175Y001280D03*
X003175Y001270D03*
X003175Y001260D03*
X003175Y001210D03*
X003175Y001200D03*
X003175Y001190D03*
X003175Y001180D03*
X003175Y001170D03*
X003325Y001170D03*
X003325Y001180D03*
X003325Y001190D03*
X003325Y001200D03*
X003325Y001210D03*
X003325Y001260D03*
X003325Y001270D03*
X003325Y001280D03*
X003325Y001290D03*
X003325Y001300D03*
X003325Y001310D03*
X003245Y000930D03*
X003245Y000920D03*
X003245Y000910D03*
X003235Y000900D03*
X003235Y000890D03*
X003285Y000820D03*
X003665Y000710D03*
X003885Y000900D03*
X003855Y001060D03*
X004035Y000720D03*
X002235Y000730D03*
D15*
X002235Y000720D03*
X002595Y001230D03*
X003045Y000710D03*
X003435Y000710D03*
X003505Y000810D03*
X001615Y001110D03*
D16*
X001590Y000930D03*
X001590Y000920D03*
X001740Y000720D03*
X002330Y001170D03*
X002270Y001290D03*
X002440Y000790D03*
X002870Y000900D03*
X002870Y000910D03*
X003040Y000980D03*
X003000Y001060D03*
X003270Y000830D03*
X003690Y000910D03*
D17*
X002625Y000720D03*
D18*
X002665Y000860D03*
X002795Y000930D03*
X002785Y000960D03*
X002775Y000980D03*
X002945Y001080D03*
X002945Y001090D03*
X002945Y001100D03*
X002945Y001110D03*
X003215Y000820D03*
X003205Y000810D03*
X003195Y000800D03*
X003305Y000800D03*
X003315Y000790D03*
X003065Y000720D03*
X002505Y000910D03*
X002495Y000890D03*
X002495Y000880D03*
X002485Y000870D03*
X002485Y000860D03*
X002475Y000850D03*
X002465Y000840D03*
X002515Y000940D03*
X002405Y000970D03*
X002405Y000980D03*
X002415Y001000D03*
X002415Y001010D03*
X002425Y001030D03*
X002435Y001060D03*
X002395Y000960D03*
X002395Y000950D03*
X002385Y000930D03*
X002305Y000820D03*
X002335Y001190D03*
X002325Y001200D03*
X002315Y001210D03*
X002305Y001230D03*
X002295Y001240D03*
X002285Y001250D03*
X002275Y001270D03*
X002265Y001280D03*
X002575Y001290D03*
X002585Y001280D03*
X002585Y001270D03*
X002595Y001260D03*
X002605Y001250D03*
X001745Y000760D03*
X001735Y000740D03*
X001595Y000950D03*
X001605Y000960D03*
X001665Y001030D03*
X001685Y001060D03*
X001705Y001090D03*
X001635Y001160D03*
X001645Y001170D03*
X001655Y001180D03*
X001665Y001190D03*
X001685Y001220D03*
X001705Y001250D03*
X001625Y001150D03*
X003675Y000900D03*
X003765Y000820D03*
X003775Y000830D03*
X003785Y000840D03*
X003785Y000850D03*
X003795Y000860D03*
X003805Y000870D03*
X003815Y000890D03*
X003915Y000850D03*
X003925Y000840D03*
X003935Y000830D03*
X004035Y000730D03*
X003665Y000720D03*
D19*
X003890Y000960D03*
X003890Y000970D03*
X003890Y000980D03*
X003890Y000990D03*
X003260Y001220D03*
X003260Y001230D03*
X003260Y001240D03*
X003260Y001250D03*
X002600Y000730D03*
D20*
X002360Y000780D03*
X003070Y000730D03*
X003130Y000760D03*
X003150Y000770D03*
X003670Y000730D03*
X003680Y000740D03*
X003850Y000920D03*
X003850Y000930D03*
X004000Y000770D03*
X004030Y000740D03*
X001650Y000990D03*
X001650Y001000D03*
D21*
X001655Y001010D03*
X002305Y000810D03*
X002935Y001030D03*
X003335Y000780D03*
X003355Y000770D03*
X003415Y000730D03*
X003535Y000830D03*
X003695Y000750D03*
X003705Y000760D03*
X003715Y000770D03*
X003845Y000940D03*
X003975Y000790D03*
X003985Y000780D03*
D22*
X002590Y000740D03*
D23*
X002600Y000810D03*
X002310Y000790D03*
X002960Y001040D03*
X003080Y000740D03*
X003410Y000750D03*
X003550Y000840D03*
X003640Y000880D03*
X003640Y000890D03*
D24*
X003410Y000740D03*
X003380Y000760D03*
X004030Y000750D03*
X002590Y000800D03*
X001640Y000970D03*
D25*
X002000Y000960D03*
X002000Y000950D03*
X002000Y000940D03*
X002000Y000930D03*
X002000Y000870D03*
X002000Y000860D03*
X002000Y000850D03*
X002000Y000840D03*
X002000Y000780D03*
X002000Y000770D03*
X002000Y000760D03*
X002000Y000750D03*
X002000Y001030D03*
X002000Y001040D03*
X002000Y001050D03*
X002000Y001060D03*
D26*
X001660Y001020D03*
X001620Y001140D03*
X002240Y000750D03*
X002250Y000760D03*
X002260Y000770D03*
X002270Y000780D03*
X002440Y000810D03*
X002450Y000820D03*
X002460Y000830D03*
X002660Y000850D03*
X002940Y001060D03*
X002940Y001070D03*
X003180Y000790D03*
X003170Y000780D03*
X003240Y000840D03*
X003730Y000780D03*
X003740Y000790D03*
X003750Y000800D03*
X003760Y000810D03*
X003940Y000820D03*
X003950Y000810D03*
X003960Y000800D03*
X003850Y000950D03*
D27*
X002580Y000750D03*
D28*
X002385Y000770D03*
X002275Y001050D03*
X002275Y001060D03*
X002275Y001070D03*
X002275Y001080D03*
X002275Y001090D03*
X002965Y001050D03*
X003105Y000750D03*
D29*
X002580Y000760D03*
D30*
X002305Y000800D03*
X001645Y000980D03*
X004015Y000760D03*
D31*
X002605Y000820D03*
D32*
X002605Y000830D03*
X002605Y000840D03*
X003565Y000850D03*
X003625Y000870D03*
D33*
X003250Y000870D03*
X003250Y000880D03*
X003250Y000860D03*
X003250Y000850D03*
D34*
X003590Y000860D03*
D35*
X003255Y000940D03*
X003255Y000950D03*
X003255Y000960D03*
X003255Y000970D03*
X003255Y001030D03*
X003255Y001040D03*
X003255Y001050D03*
X003255Y001060D03*
X003255Y001110D03*
X003255Y001120D03*
X003255Y001130D03*
X003255Y001140D03*
D36*
X002595Y001180D03*
X002595Y001190D03*
X002595Y001200D03*
X002595Y001210D03*
X002595Y001220D03*
X001975Y001160D03*
X001975Y001150D03*
X001975Y001140D03*
X001975Y001130D03*
D37*
X003600Y001130D03*
X003600Y001140D03*
X003600Y001150D03*
X003600Y001160D03*
D38*
X002955Y001160D03*
X002955Y001170D03*
X002955Y001150D03*
X002955Y001140D03*
D39*
X003880Y001170D03*
X003880Y001180D03*
X003880Y001190D03*
X003880Y001200D03*
D40*
X002080Y001280D03*
X001840Y001230D03*
D41*
X001930Y001240D03*
D42*
X001965Y001250D03*
X001965Y001260D03*
D43*
X002015Y001270D03*
D44*
X006974Y005902D02*
X006974Y007358D01*
X007368Y007358D01*
X008392Y007358D02*
X008786Y007358D01*
X008786Y005902D01*
X008037Y005902D02*
X007723Y005902D01*
D45*
X005783Y005220D02*
X005785Y005235D01*
X005791Y005248D01*
X005800Y005260D01*
X005811Y005269D01*
X005825Y005275D01*
X005840Y005277D01*
X005855Y005275D01*
X005868Y005269D01*
X005880Y005260D01*
X005889Y005249D01*
X005895Y005235D01*
X005897Y005220D01*
X005895Y005205D01*
X005889Y005192D01*
X005880Y005180D01*
X005869Y005171D01*
X005855Y005165D01*
X005840Y005163D01*
X005825Y005165D01*
X005812Y005171D01*
X005800Y005180D01*
X005791Y005191D01*
X005785Y005205D01*
X005783Y005220D01*
D46*
X006465Y005540D02*
X006465Y003020D01*
X008395Y003020D01*
X008395Y005203D01*
X008058Y005540D01*
X006465Y005540D01*
X006230Y006230D02*
X006730Y006230D01*
X006730Y007330D01*
X006230Y007330D01*
X006230Y006230D01*
X007233Y005343D02*
X007627Y005343D01*
X007627Y005225D01*
X007233Y005225D02*
X007233Y005343D01*
X007233Y005225D02*
X007197Y005204D01*
X007163Y005181D01*
X007132Y005154D01*
X007103Y005125D01*
X007076Y005093D01*
X007053Y005058D01*
X007034Y005022D01*
X007018Y004984D01*
X007005Y004945D01*
X006996Y004904D01*
X006991Y004863D01*
X006990Y004822D01*
X006993Y004781D01*
X007000Y004740D01*
X007010Y004700D01*
X007024Y004661D01*
X007042Y004624D01*
X007063Y004588D01*
X007087Y004555D01*
X007115Y004524D01*
X007145Y004496D01*
X007178Y004471D01*
X007213Y004448D01*
X007249Y004430D01*
X007288Y004415D01*
X007328Y004403D01*
X007368Y004395D01*
X007409Y004391D01*
X007451Y004391D01*
X007492Y004395D01*
X007532Y004403D01*
X007572Y004415D01*
X007611Y004430D01*
X007647Y004448D01*
X007682Y004471D01*
X007715Y004496D01*
X007745Y004524D01*
X007773Y004555D01*
X007797Y004588D01*
X007818Y004624D01*
X007836Y004661D01*
X007850Y004700D01*
X007860Y004740D01*
X007867Y004781D01*
X007870Y004822D01*
X007869Y004863D01*
X007864Y004904D01*
X007855Y004945D01*
X007842Y004984D01*
X007826Y005022D01*
X007807Y005058D01*
X007784Y005093D01*
X007757Y005125D01*
X007728Y005154D01*
X007697Y005181D01*
X007663Y005204D01*
X007627Y005225D01*
X007627Y003335D02*
X007663Y003356D01*
X007697Y003379D01*
X007728Y003406D01*
X007757Y003435D01*
X007784Y003467D01*
X007807Y003502D01*
X007826Y003538D01*
X007842Y003576D01*
X007855Y003615D01*
X007864Y003656D01*
X007869Y003697D01*
X007870Y003738D01*
X007867Y003779D01*
X007860Y003820D01*
X007850Y003860D01*
X007836Y003899D01*
X007818Y003936D01*
X007797Y003972D01*
X007773Y004005D01*
X007745Y004036D01*
X007715Y004064D01*
X007682Y004089D01*
X007647Y004112D01*
X007611Y004130D01*
X007572Y004145D01*
X007532Y004157D01*
X007492Y004165D01*
X007451Y004169D01*
X007409Y004169D01*
X007368Y004165D01*
X007328Y004157D01*
X007288Y004145D01*
X007249Y004130D01*
X007213Y004112D01*
X007178Y004089D01*
X007145Y004064D01*
X007115Y004036D01*
X007087Y004005D01*
X007063Y003972D01*
X007042Y003936D01*
X007024Y003899D01*
X007010Y003860D01*
X007000Y003820D01*
X006993Y003779D01*
X006990Y003738D01*
X006991Y003697D01*
X006996Y003656D01*
X007005Y003615D01*
X007018Y003576D01*
X007034Y003538D01*
X007053Y003502D01*
X007076Y003467D01*
X007103Y003435D01*
X007132Y003406D01*
X007163Y003379D01*
X007197Y003356D01*
X007233Y003335D01*
X007233Y003217D01*
X007627Y003217D01*
X007627Y003335D01*
X007705Y002930D02*
X008155Y002930D01*
X008155Y001930D01*
X007705Y001930D01*
X007705Y002930D01*
X007155Y002930D02*
X007155Y001930D01*
X006705Y001930D01*
X006705Y002930D01*
X007155Y002930D01*
X006155Y002930D02*
X005705Y002930D01*
X005705Y001930D01*
X006155Y001930D01*
X006155Y002930D01*
X005230Y003030D02*
X005230Y001830D01*
X004630Y001830D01*
X004630Y003030D01*
X005230Y003030D01*
X004930Y002500D02*
X004790Y002390D01*
X005070Y002390D01*
X004930Y002500D01*
X003930Y002180D02*
X003930Y003180D01*
X003680Y003180D01*
X003680Y005180D01*
X003930Y005180D01*
X003930Y006180D01*
X003680Y006180D01*
X003680Y005180D01*
X003680Y006180D02*
X001680Y006180D01*
X001680Y002180D01*
X003680Y002180D01*
X003930Y002180D01*
X003680Y002180D02*
X003680Y003180D01*
D47*
X001143Y002390D02*
X001143Y000658D01*
X001145Y000625D01*
X001150Y000593D01*
X001158Y000561D01*
X001170Y000530D01*
X001185Y000500D01*
X001203Y000473D01*
X001224Y000447D01*
X001247Y000424D01*
X001273Y000403D01*
X001301Y000385D01*
X001330Y000370D01*
X001361Y000358D01*
X001393Y000350D01*
X001425Y000345D01*
X001458Y000343D01*
X003190Y000343D01*
X003938Y000343D01*
X003820Y000343D01*
X003938Y000343D02*
X004214Y000343D01*
X004224Y000344D01*
X004234Y000348D01*
X004242Y000354D01*
X004248Y000362D01*
X004252Y000372D01*
X004253Y000382D01*
X004254Y000382D02*
X004256Y000436D01*
X004261Y000489D01*
X004270Y000542D01*
X004283Y000594D01*
X004299Y000646D01*
X004319Y000696D01*
X004342Y000744D01*
X004369Y000791D01*
X004398Y000836D01*
X004431Y000879D01*
X004466Y000919D01*
X004504Y000957D01*
X004544Y000992D01*
X004587Y001025D01*
X004632Y001054D01*
X004679Y001081D01*
X004727Y001104D01*
X004777Y001124D01*
X004829Y001140D01*
X004881Y001153D01*
X004934Y001162D01*
X004987Y001167D01*
X005041Y001169D01*
X005041Y001170D02*
X005080Y001170D01*
X005119Y001170D01*
X005119Y001169D02*
X005173Y001167D01*
X005226Y001162D01*
X005279Y001153D01*
X005331Y001140D01*
X005383Y001124D01*
X005433Y001104D01*
X005481Y001081D01*
X005528Y001054D01*
X005573Y001025D01*
X005616Y000992D01*
X005656Y000957D01*
X005694Y000919D01*
X005729Y000879D01*
X005762Y000836D01*
X005791Y000791D01*
X005818Y000744D01*
X005841Y000696D01*
X005861Y000646D01*
X005877Y000594D01*
X005890Y000542D01*
X005899Y000489D01*
X005904Y000436D01*
X005906Y000382D01*
X005907Y000382D02*
X005908Y000372D01*
X005912Y000363D01*
X005918Y000354D01*
X005927Y000348D01*
X005936Y000344D01*
X005946Y000343D01*
X006261Y000343D01*
X007363Y000343D01*
X006970Y000343D01*
X007363Y000343D02*
X008702Y000343D01*
X008735Y000345D01*
X008767Y000350D01*
X008799Y000358D01*
X008830Y000370D01*
X008860Y000385D01*
X008887Y000403D01*
X008913Y000424D01*
X008936Y000447D01*
X008957Y000473D01*
X008975Y000500D01*
X008990Y000530D01*
X009002Y000561D01*
X009010Y000593D01*
X009015Y000625D01*
X009017Y000658D01*
X009017Y002311D01*
X009017Y003060D01*
X009017Y003020D01*
X009017Y003060D02*
X009017Y003414D01*
X009018Y003424D01*
X009022Y003434D01*
X009028Y003442D01*
X009037Y003448D01*
X009046Y003452D01*
X009056Y003453D01*
X009056Y003454D02*
X009110Y003456D01*
X009163Y003461D01*
X009216Y003470D01*
X009268Y003483D01*
X009320Y003499D01*
X009370Y003519D01*
X009418Y003542D01*
X009465Y003569D01*
X009510Y003598D01*
X009553Y003631D01*
X009593Y003666D01*
X009631Y003704D01*
X009666Y003744D01*
X009699Y003787D01*
X009728Y003832D01*
X009755Y003879D01*
X009778Y003927D01*
X009798Y003977D01*
X009814Y004029D01*
X009827Y004081D01*
X009836Y004134D01*
X009841Y004187D01*
X009843Y004241D01*
X009844Y004241D02*
X009844Y004280D01*
X009844Y004319D01*
X009843Y004319D02*
X009841Y004373D01*
X009836Y004426D01*
X009827Y004479D01*
X009814Y004531D01*
X009798Y004583D01*
X009778Y004633D01*
X009755Y004681D01*
X009728Y004728D01*
X009699Y004773D01*
X009666Y004816D01*
X009631Y004856D01*
X009593Y004894D01*
X009553Y004929D01*
X009510Y004962D01*
X009465Y004991D01*
X009418Y005018D01*
X009370Y005041D01*
X009320Y005061D01*
X009268Y005077D01*
X009216Y005090D01*
X009163Y005099D01*
X009110Y005104D01*
X009056Y005106D01*
X009057Y005106D02*
X009045Y005109D01*
X009034Y005115D01*
X009026Y005123D01*
X009020Y005134D01*
X009017Y005146D01*
X009017Y005264D01*
X009017Y005461D01*
X009017Y006327D01*
X009017Y007902D01*
X009015Y007935D01*
X009010Y007967D01*
X009002Y007999D01*
X008990Y008030D01*
X008975Y008060D01*
X008957Y008087D01*
X008936Y008113D01*
X008913Y008136D01*
X008887Y008157D01*
X008860Y008175D01*
X008830Y008190D01*
X008799Y008202D01*
X008767Y008210D01*
X008735Y008215D01*
X008702Y008217D01*
X007206Y008217D01*
X006340Y008217D01*
X006025Y008217D01*
X005946Y008217D01*
X006025Y008217D01*
X005946Y008218D02*
X005934Y008215D01*
X005923Y008209D01*
X005915Y008201D01*
X005909Y008190D01*
X005906Y008178D01*
X005904Y008124D01*
X005899Y008071D01*
X005890Y008018D01*
X005877Y007966D01*
X005861Y007914D01*
X005841Y007864D01*
X005818Y007816D01*
X005791Y007769D01*
X005762Y007724D01*
X005729Y007681D01*
X005694Y007641D01*
X005656Y007603D01*
X005616Y007568D01*
X005573Y007535D01*
X005528Y007506D01*
X005481Y007479D01*
X005433Y007456D01*
X005383Y007436D01*
X005331Y007420D01*
X005279Y007407D01*
X005226Y007398D01*
X005173Y007393D01*
X005119Y007391D01*
X005119Y007390D02*
X005080Y007390D01*
X005080Y007391D02*
X005025Y007390D01*
X004970Y007393D01*
X004915Y007400D01*
X004860Y007411D01*
X004807Y007426D01*
X004754Y007444D01*
X004703Y007466D01*
X004654Y007492D01*
X004607Y007521D01*
X004562Y007553D01*
X004519Y007589D01*
X004479Y007627D01*
X004441Y007668D01*
X004407Y007711D01*
X004376Y007757D01*
X004348Y007805D01*
X004323Y007855D01*
X004302Y007906D01*
X004285Y007959D01*
X004272Y008013D01*
X004262Y008067D01*
X004256Y008123D01*
X004254Y008178D01*
X004253Y008178D02*
X004252Y008188D01*
X004248Y008198D01*
X004242Y008206D01*
X004234Y008212D01*
X004224Y008216D01*
X004214Y008217D01*
X004135Y008217D01*
X002560Y008217D01*
X003190Y008217D01*
X002560Y008217D02*
X001458Y008217D01*
X001425Y008215D01*
X001393Y008210D01*
X001361Y008202D01*
X001330Y008190D01*
X001301Y008175D01*
X001273Y008157D01*
X001247Y008136D01*
X001224Y008113D01*
X001203Y008087D01*
X001185Y008060D01*
X001170Y008030D01*
X001158Y007999D01*
X001150Y007967D01*
X001145Y007935D01*
X001143Y007902D01*
X001143Y006249D01*
X001143Y005540D01*
X001143Y005304D01*
X001143Y005146D01*
X001143Y005304D01*
X001143Y005146D02*
X001142Y005136D01*
X001138Y005127D01*
X001132Y005118D01*
X001124Y005112D01*
X001114Y005108D01*
X001104Y005107D01*
X001104Y005106D02*
X001050Y005104D01*
X000997Y005099D01*
X000944Y005090D01*
X000892Y005077D01*
X000840Y005061D01*
X000790Y005041D01*
X000742Y005018D01*
X000695Y004991D01*
X000650Y004962D01*
X000607Y004929D01*
X000567Y004894D01*
X000529Y004856D01*
X000494Y004816D01*
X000461Y004773D01*
X000432Y004728D01*
X000405Y004681D01*
X000382Y004633D01*
X000362Y004583D01*
X000346Y004531D01*
X000333Y004479D01*
X000324Y004426D01*
X000319Y004373D01*
X000317Y004319D01*
X000316Y004319D02*
X000316Y004241D01*
X000317Y004241D02*
X000319Y004187D01*
X000324Y004134D01*
X000333Y004081D01*
X000346Y004029D01*
X000362Y003977D01*
X000382Y003927D01*
X000405Y003879D01*
X000432Y003832D01*
X000461Y003787D01*
X000494Y003744D01*
X000529Y003704D01*
X000567Y003666D01*
X000607Y003631D01*
X000650Y003598D01*
X000695Y003569D01*
X000742Y003542D01*
X000790Y003519D01*
X000840Y003499D01*
X000892Y003483D01*
X000944Y003470D01*
X000997Y003461D01*
X001050Y003456D01*
X001104Y003454D01*
X001104Y003453D02*
X001114Y003452D01*
X001124Y003448D01*
X001132Y003442D01*
X001138Y003434D01*
X001142Y003424D01*
X001143Y003414D01*
X001143Y003099D01*
X001143Y002390D01*
X001143Y003020D02*
X001143Y003099D01*
X000710Y004280D02*
X000712Y004321D01*
X000718Y004362D01*
X000728Y004402D01*
X000741Y004441D01*
X000758Y004478D01*
X000779Y004514D01*
X000803Y004548D01*
X000830Y004579D01*
X000859Y004607D01*
X000892Y004633D01*
X000926Y004655D01*
X000963Y004674D01*
X001001Y004689D01*
X001041Y004701D01*
X001081Y004709D01*
X001122Y004713D01*
X001164Y004713D01*
X001205Y004709D01*
X001245Y004701D01*
X001285Y004689D01*
X001323Y004674D01*
X001359Y004655D01*
X001394Y004633D01*
X001427Y004607D01*
X001456Y004579D01*
X001483Y004548D01*
X001507Y004514D01*
X001528Y004478D01*
X001545Y004441D01*
X001558Y004402D01*
X001568Y004362D01*
X001574Y004321D01*
X001576Y004280D01*
X001574Y004239D01*
X001568Y004198D01*
X001558Y004158D01*
X001545Y004119D01*
X001528Y004082D01*
X001507Y004046D01*
X001483Y004012D01*
X001456Y003981D01*
X001427Y003953D01*
X001394Y003927D01*
X001360Y003905D01*
X001323Y003886D01*
X001285Y003871D01*
X001245Y003859D01*
X001205Y003851D01*
X001164Y003847D01*
X001122Y003847D01*
X001081Y003851D01*
X001041Y003859D01*
X001001Y003871D01*
X000963Y003886D01*
X000927Y003905D01*
X000892Y003927D01*
X000859Y003953D01*
X000830Y003981D01*
X000803Y004012D01*
X000779Y004046D01*
X000758Y004082D01*
X000741Y004119D01*
X000728Y004158D01*
X000718Y004198D01*
X000712Y004239D01*
X000710Y004280D01*
X001143Y006170D02*
X001143Y006249D01*
X003820Y008217D02*
X004135Y008217D01*
X006970Y008217D02*
X007206Y008217D01*
X009017Y006327D02*
X009017Y006170D01*
X009017Y005540D02*
X009017Y005461D01*
X009017Y005264D02*
X009017Y005146D01*
X008584Y004280D02*
X008586Y004321D01*
X008592Y004362D01*
X008602Y004402D01*
X008615Y004441D01*
X008632Y004478D01*
X008653Y004514D01*
X008677Y004548D01*
X008704Y004579D01*
X008733Y004607D01*
X008766Y004633D01*
X008800Y004655D01*
X008837Y004674D01*
X008875Y004689D01*
X008915Y004701D01*
X008955Y004709D01*
X008996Y004713D01*
X009038Y004713D01*
X009079Y004709D01*
X009119Y004701D01*
X009159Y004689D01*
X009197Y004674D01*
X009233Y004655D01*
X009268Y004633D01*
X009301Y004607D01*
X009330Y004579D01*
X009357Y004548D01*
X009381Y004514D01*
X009402Y004478D01*
X009419Y004441D01*
X009432Y004402D01*
X009442Y004362D01*
X009448Y004321D01*
X009450Y004280D01*
X009448Y004239D01*
X009442Y004198D01*
X009432Y004158D01*
X009419Y004119D01*
X009402Y004082D01*
X009381Y004046D01*
X009357Y004012D01*
X009330Y003981D01*
X009301Y003953D01*
X009268Y003927D01*
X009234Y003905D01*
X009197Y003886D01*
X009159Y003871D01*
X009119Y003859D01*
X009079Y003851D01*
X009038Y003847D01*
X008996Y003847D01*
X008955Y003851D01*
X008915Y003859D01*
X008875Y003871D01*
X008837Y003886D01*
X008801Y003905D01*
X008766Y003927D01*
X008733Y003953D01*
X008704Y003981D01*
X008677Y004012D01*
X008653Y004046D01*
X008632Y004082D01*
X008615Y004119D01*
X008602Y004158D01*
X008592Y004198D01*
X008586Y004239D01*
X008584Y004280D01*
X009017Y002390D02*
X009017Y002311D01*
X006340Y000343D02*
X006261Y000343D01*
D48*
X001660Y005279D02*
X001200Y005279D01*
X001430Y005279D02*
X001430Y005586D01*
X001353Y005740D02*
X001200Y005893D01*
X001660Y005893D01*
X001660Y005740D02*
X001660Y006047D01*
X001660Y005586D02*
X001200Y005586D01*
D49*
X003378Y006378D03*
X003378Y006427D03*
X003413Y006343D03*
X003483Y006413D03*
X003868Y005608D03*
D50*
X003546Y006357D03*
X003616Y006427D03*
X003644Y006413D03*
X003686Y006462D03*
X003756Y006378D03*
X003294Y006343D03*
X003161Y006392D03*
X003021Y005608D03*
D51*
X003413Y006350D03*
X003378Y006434D03*
X003483Y006420D03*
X003588Y006406D03*
X003868Y005615D03*
X004323Y007624D03*
X002573Y007610D03*
D52*
X002566Y007624D03*
X003644Y006406D03*
X003686Y006350D03*
X003546Y006350D03*
X003546Y006364D03*
X003021Y005615D03*
D53*
X003024Y005622D03*
X003199Y006343D03*
X003157Y006413D03*
X003157Y006448D03*
X003199Y006462D03*
X003416Y006357D03*
X003542Y006378D03*
X003689Y006357D03*
X003864Y005622D03*
X004319Y007617D03*
X002576Y007603D03*
X002569Y007617D03*
D54*
X002580Y007596D03*
X003616Y006434D03*
X003756Y006441D03*
X003756Y006371D03*
X003420Y006371D03*
X003371Y006364D03*
X003861Y005629D03*
D55*
X003693Y006364D03*
X003693Y006441D03*
X003539Y006385D03*
X003483Y006399D03*
X003483Y006406D03*
X003154Y006420D03*
X003154Y006434D03*
X003154Y006441D03*
X003154Y006371D03*
X003028Y005629D03*
X004309Y007589D03*
X004309Y007596D03*
D56*
X003696Y006434D03*
X003696Y006371D03*
X003612Y006441D03*
X003535Y006406D03*
X003535Y006399D03*
X003423Y006399D03*
X003423Y006385D03*
X003367Y006455D03*
X003304Y006455D03*
X003304Y006364D03*
X003150Y006364D03*
X003857Y005636D03*
X002583Y007589D03*
D57*
X002586Y007575D03*
X003308Y006441D03*
X003308Y006371D03*
X003364Y006350D03*
X003426Y006406D03*
X003531Y006420D03*
X003146Y006350D03*
X003028Y005636D03*
X004301Y007575D03*
D58*
X003756Y006448D03*
X003700Y006427D03*
X003700Y006378D03*
X003861Y005643D03*
D59*
X003146Y006357D03*
X003308Y006448D03*
X003364Y006462D03*
X003426Y006413D03*
X003531Y006427D03*
X003028Y005643D03*
D60*
X003031Y005650D03*
X003857Y005650D03*
X003703Y006420D03*
X003528Y006434D03*
X003528Y006441D03*
X003311Y006434D03*
X004298Y007561D03*
D61*
X003525Y006462D03*
X003525Y006448D03*
X003707Y006413D03*
X003315Y006427D03*
X003035Y005657D03*
X003854Y005657D03*
D62*
X003850Y005664D03*
X003710Y006406D03*
X004291Y007540D03*
D63*
X003437Y006455D03*
X003318Y006420D03*
X003752Y006350D03*
X003038Y005664D03*
D64*
X003850Y005671D03*
X003325Y006406D03*
X002611Y007519D03*
X004284Y007526D03*
D65*
X004277Y007519D03*
X003227Y006441D03*
X003227Y006434D03*
X003227Y006420D03*
X003227Y006385D03*
X003227Y006371D03*
X003227Y006364D03*
X003038Y005671D03*
D66*
X003479Y006343D03*
X003850Y005678D03*
X002611Y007512D03*
D67*
X003227Y006448D03*
X003227Y006427D03*
X003227Y006413D03*
X003227Y006392D03*
X003227Y006378D03*
X003227Y006357D03*
X003038Y005678D03*
X004277Y007512D03*
D68*
X004274Y007505D03*
X002615Y007505D03*
X003042Y005685D03*
X003847Y005685D03*
D69*
X003843Y005692D03*
X002618Y007498D03*
D70*
X004270Y007498D03*
X003045Y005692D03*
D71*
X003045Y005699D03*
X003045Y005706D03*
X003843Y005706D03*
X003843Y005699D03*
D72*
X003840Y005713D03*
D73*
X003049Y005713D03*
D74*
X003052Y005720D03*
X003836Y005720D03*
X004249Y007449D03*
X004256Y007456D03*
X002639Y007449D03*
D75*
X003836Y005727D03*
D76*
X003052Y005727D03*
X004242Y007428D03*
D77*
X004239Y007421D03*
X002650Y007421D03*
X003055Y005741D03*
X003055Y005734D03*
X003833Y005734D03*
X003833Y005741D03*
D78*
X003829Y005748D03*
X003059Y005748D03*
D79*
X003059Y005755D03*
X003829Y005755D03*
X004221Y007386D03*
X004228Y007400D03*
X002667Y007386D03*
D80*
X003826Y005762D03*
D81*
X003063Y005762D03*
D82*
X003826Y005769D03*
X002671Y007379D03*
D83*
X004218Y007379D03*
X003063Y005769D03*
D84*
X003066Y005776D03*
X003822Y005776D03*
X004214Y007365D03*
D85*
X003822Y005783D03*
X003066Y005783D03*
D86*
X003070Y005790D03*
X003819Y005790D03*
X004197Y007330D03*
X004204Y007344D03*
X002692Y007330D03*
D87*
X002695Y007323D03*
X004200Y007337D03*
X003815Y005797D03*
D88*
X003073Y005797D03*
X004193Y007323D03*
D89*
X003815Y005804D03*
D90*
X003073Y005804D03*
D91*
X003815Y005811D03*
X004186Y007309D03*
D92*
X002702Y007309D03*
X003073Y005811D03*
D93*
X003077Y005818D03*
X003812Y005818D03*
X002706Y007302D03*
D94*
X002716Y007281D03*
X004172Y007281D03*
X003808Y005825D03*
D95*
X003080Y005825D03*
D96*
X003811Y005832D03*
X004169Y007267D03*
D97*
X003080Y005832D03*
D98*
X003080Y005839D03*
X003808Y005839D03*
X004165Y007260D03*
X002723Y007260D03*
D99*
X003805Y005846D03*
D100*
X003084Y005846D03*
D101*
X003087Y005853D03*
X003801Y005853D03*
X004151Y007232D03*
D102*
X003801Y005860D03*
D103*
X003087Y005860D03*
D104*
X003801Y005867D03*
X004144Y007218D03*
X002744Y007218D03*
D105*
X003087Y005867D03*
D106*
X003090Y005874D03*
X003798Y005874D03*
X004140Y007211D03*
X002748Y007211D03*
D107*
X002751Y007204D03*
X003094Y005881D03*
X003794Y005881D03*
D108*
X003794Y005888D03*
X003094Y005888D03*
D109*
X003094Y005895D03*
X003794Y005895D03*
X004123Y007176D03*
D110*
X004120Y007162D03*
X003791Y005902D03*
D111*
X003098Y005902D03*
X002769Y007162D03*
D112*
X002772Y007155D03*
X003444Y006266D03*
X003101Y005909D03*
X003787Y005909D03*
X004116Y007155D03*
D113*
X002783Y007141D03*
X003784Y005916D03*
D114*
X003105Y005916D03*
D115*
X003105Y005923D03*
X003784Y005923D03*
D116*
X003784Y005930D03*
X003980Y006350D03*
X004099Y007120D03*
X002790Y007120D03*
X003105Y005930D03*
D117*
X003780Y005937D03*
X003976Y006357D03*
X003990Y006462D03*
X004095Y007113D03*
D118*
X002793Y007113D03*
X003108Y005937D03*
D119*
X003111Y005944D03*
X003776Y005944D03*
X003973Y006371D03*
X003986Y006455D03*
X004091Y007106D03*
X002804Y007099D03*
X002796Y007106D03*
D120*
X003980Y006441D03*
X003777Y005951D03*
X003112Y005951D03*
D121*
X003112Y005958D03*
X003777Y005958D03*
X002811Y007078D03*
D122*
X002814Y007071D03*
X002926Y006371D03*
X003773Y005965D03*
X003969Y006385D03*
X003969Y006420D03*
X003976Y006434D03*
X004074Y007071D03*
D123*
X003115Y005965D03*
D124*
X003770Y005972D03*
X003966Y006392D03*
X003966Y006413D03*
X004071Y007057D03*
D125*
X002923Y006427D03*
X003119Y005972D03*
X002818Y007057D03*
D126*
X002930Y006406D03*
X003770Y005979D03*
D127*
X003119Y005979D03*
X002923Y006441D03*
X002831Y007036D03*
X004056Y007036D03*
D128*
X004053Y007029D03*
X002933Y006399D03*
X002926Y006455D03*
X003122Y005986D03*
X003766Y005986D03*
D129*
X003766Y005993D03*
X003122Y005993D03*
X004053Y007022D03*
D130*
X003763Y006000D03*
D131*
X003126Y006000D03*
X002839Y007015D03*
X004050Y007015D03*
D132*
X004035Y006987D03*
X002853Y006987D03*
X003125Y006007D03*
X003763Y006007D03*
D133*
X003759Y006014D03*
X003759Y006021D03*
X003129Y006021D03*
X003129Y006014D03*
X002856Y006980D03*
D134*
X002860Y006973D03*
X003756Y006028D03*
X004029Y006973D03*
D135*
X003133Y006028D03*
D136*
X003756Y006035D03*
X004015Y006945D03*
D137*
X003133Y006035D03*
X002874Y006945D03*
D138*
X002877Y006938D03*
X003136Y006042D03*
X003752Y006042D03*
X004011Y006938D03*
D139*
X004008Y006931D03*
X003749Y006049D03*
D140*
X003140Y006049D03*
X003140Y006056D03*
X002881Y006931D03*
D141*
X002884Y006924D03*
X002891Y006910D03*
X003752Y006056D03*
X003997Y006910D03*
X004004Y006924D03*
D142*
X003994Y006903D03*
X003749Y006063D03*
X003140Y006063D03*
X002895Y006903D03*
D143*
X003444Y006245D03*
X003745Y006070D03*
X003990Y006896D03*
D144*
X003143Y006070D03*
X002898Y006896D03*
D145*
X002901Y006882D03*
X003146Y006077D03*
X003741Y006077D03*
X003986Y006882D03*
D146*
X003742Y006091D03*
X003742Y006084D03*
X003147Y006084D03*
X003147Y006091D03*
X002916Y006861D03*
D147*
X002919Y006847D03*
X003738Y006098D03*
X003969Y006847D03*
D148*
X003150Y006098D03*
D149*
X003735Y006105D03*
X003966Y006840D03*
D150*
X003154Y006105D03*
X002923Y006840D03*
D151*
X003735Y006112D03*
D152*
X003154Y006112D03*
X002936Y006812D03*
X003951Y006812D03*
D153*
X003735Y006119D03*
D154*
X003154Y006119D03*
X002936Y006819D03*
X003951Y006819D03*
D155*
X003948Y006805D03*
X003731Y006126D03*
X003157Y006126D03*
D156*
X003728Y006133D03*
D157*
X003161Y006133D03*
X002944Y006798D03*
X003945Y006798D03*
D158*
X003930Y006770D03*
X003728Y006140D03*
X003160Y006140D03*
X002958Y006770D03*
D159*
X003444Y006147D03*
D160*
X003444Y006154D03*
D161*
X003444Y006161D03*
D162*
X003444Y006168D03*
D163*
X003444Y006175D03*
D164*
X003444Y006182D03*
D165*
X003444Y006189D03*
D166*
X003444Y006196D03*
D167*
X003444Y006203D03*
D168*
X003448Y006210D03*
D169*
X003444Y006217D03*
X003836Y006567D03*
D170*
X003871Y006644D03*
X003871Y006651D03*
X003444Y006224D03*
D171*
X003444Y006231D03*
X003913Y006735D03*
D172*
X003444Y006238D03*
D173*
X003444Y006252D03*
D174*
X003448Y006259D03*
X002923Y006434D03*
X002818Y007064D03*
D175*
X002895Y006273D03*
X003994Y006273D03*
D176*
X003843Y006273D03*
X003682Y006343D03*
X003752Y006427D03*
X003073Y006273D03*
X002562Y007638D03*
D177*
X003584Y006413D03*
X003549Y006343D03*
X003815Y006273D03*
X003045Y006273D03*
X004326Y007638D03*
D178*
X003444Y006273D03*
D179*
X003444Y006280D03*
D180*
X003444Y006287D03*
D181*
X003448Y006294D03*
D182*
X003444Y006301D03*
X003444Y006315D03*
X003444Y006329D03*
X003444Y006336D03*
D183*
X003444Y006322D03*
X003444Y006308D03*
D184*
X003983Y006343D03*
X004102Y007127D03*
X002786Y007127D03*
D185*
X002600Y007533D03*
X003615Y006462D03*
X003615Y006378D03*
X003615Y006357D03*
X003615Y006343D03*
X003755Y006343D03*
X003321Y006413D03*
X004288Y007533D03*
D186*
X003430Y006427D03*
X003360Y006343D03*
X002590Y007568D03*
D187*
X003311Y006378D03*
X003143Y006343D03*
X003479Y006378D03*
X003612Y006448D03*
X003703Y006392D03*
X003752Y006357D03*
X004298Y007568D03*
D188*
X004085Y007092D03*
X002915Y006343D03*
X002804Y007092D03*
D189*
X002608Y007526D03*
X002600Y007540D03*
X003321Y006399D03*
X003483Y006350D03*
X003615Y006350D03*
X003615Y006364D03*
X003615Y006371D03*
X003615Y006385D03*
D190*
X003591Y006399D03*
X003542Y006371D03*
X003689Y006455D03*
X003752Y006434D03*
X003416Y006364D03*
X003374Y006371D03*
X003374Y006441D03*
X003297Y006350D03*
X003199Y006350D03*
X003199Y006399D03*
X003199Y006406D03*
X003157Y006385D03*
X003199Y006455D03*
X004319Y007610D03*
D191*
X004081Y007085D03*
X002919Y006350D03*
D192*
X003479Y006357D03*
X004291Y007547D03*
D193*
X004305Y007582D03*
X003535Y006413D03*
X003423Y006392D03*
X003367Y006357D03*
X002583Y007582D03*
D194*
X003301Y006462D03*
X003371Y006448D03*
X003420Y006378D03*
X003301Y006357D03*
X003595Y006392D03*
X004316Y007603D03*
D195*
X004078Y007078D03*
X002923Y006357D03*
D196*
X003976Y006364D03*
D197*
X003756Y006364D03*
X003700Y006385D03*
D198*
X003483Y006371D03*
X003483Y006364D03*
D199*
X002923Y006364D03*
D200*
X003969Y006378D03*
D201*
X003693Y006448D03*
X003636Y006392D03*
X003539Y006392D03*
X003154Y006378D03*
X003154Y006427D03*
D202*
X002926Y006378D03*
X003969Y006427D03*
D203*
X003584Y006420D03*
X003381Y006420D03*
X003381Y006385D03*
X004326Y007631D03*
D204*
X004295Y007554D03*
X003756Y006455D03*
X003707Y006399D03*
X003616Y006455D03*
X003525Y006455D03*
X003434Y006441D03*
X003434Y006434D03*
X003315Y006385D03*
X002594Y007554D03*
D205*
X002825Y007050D03*
X002930Y006385D03*
X003966Y006399D03*
X004071Y007064D03*
D206*
X003752Y006462D03*
X003437Y006462D03*
X003437Y006448D03*
X003318Y006392D03*
X002597Y007547D03*
D207*
X002930Y006392D03*
D208*
X003640Y006399D03*
D209*
X003962Y006406D03*
X004067Y007050D03*
X002926Y006420D03*
D210*
X002926Y006413D03*
X002828Y007043D03*
X004060Y007043D03*
D211*
X003647Y006420D03*
X002562Y007631D03*
D212*
X002590Y007561D03*
X003430Y006420D03*
D213*
X003983Y006448D03*
D214*
X002923Y006448D03*
D215*
X002930Y006462D03*
X002846Y007008D03*
D216*
X003444Y006469D03*
D217*
X003448Y006476D03*
D218*
X003444Y006483D03*
X003444Y006497D03*
D219*
X003444Y006504D03*
X003444Y006511D03*
X003444Y006490D03*
D220*
X003815Y006518D03*
X003080Y006518D03*
D221*
X003815Y006525D03*
D222*
X003073Y006525D03*
D223*
X003070Y006532D03*
X003819Y006532D03*
D224*
X003822Y006539D03*
X003822Y006546D03*
D225*
X003066Y006546D03*
X003066Y006539D03*
D226*
X003063Y006553D03*
X003825Y006553D03*
D227*
X003829Y006560D03*
X003059Y006560D03*
D228*
X003056Y006567D03*
D229*
X003049Y006574D03*
X003049Y006581D03*
X003840Y006581D03*
X003840Y006574D03*
D230*
X003843Y006588D03*
D231*
X003045Y006588D03*
D232*
X003041Y006595D03*
X003846Y006595D03*
D233*
X003850Y006602D03*
X003038Y006602D03*
D234*
X003031Y006616D03*
X003857Y006616D03*
X003857Y006609D03*
D235*
X003035Y006609D03*
D236*
X003861Y006623D03*
D237*
X003028Y006623D03*
D238*
X003024Y006630D03*
X003864Y006630D03*
D239*
X003868Y006637D03*
D240*
X003021Y006637D03*
D241*
X003021Y006644D03*
D242*
X003017Y006651D03*
D243*
X003878Y006658D03*
D244*
X003014Y006658D03*
D245*
X003006Y006665D03*
X003881Y006665D03*
D246*
X003885Y006672D03*
D247*
X003003Y006672D03*
D248*
X003000Y006686D03*
X003889Y006686D03*
X003889Y006679D03*
D249*
X003003Y006679D03*
D250*
X002996Y006693D03*
X003892Y006693D03*
D251*
X003899Y006700D03*
D252*
X002993Y006700D03*
D253*
X003903Y006707D03*
D254*
X002986Y006707D03*
D255*
X002982Y006721D03*
X003906Y006721D03*
X003906Y006714D03*
D256*
X002986Y006714D03*
D257*
X003910Y006728D03*
D258*
X002979Y006728D03*
D259*
X002975Y006735D03*
D260*
X003920Y006742D03*
D261*
X002972Y006742D03*
D262*
X002972Y006749D03*
X002965Y006756D03*
X003924Y006756D03*
X003924Y006749D03*
D263*
X003927Y006763D03*
D264*
X002961Y006763D03*
D265*
X002954Y006777D03*
X003934Y006777D03*
D266*
X003938Y006784D03*
D267*
X003941Y006791D03*
X002954Y006784D03*
D268*
X002947Y006791D03*
D269*
X002940Y006805D03*
D270*
X002933Y006826D03*
X003955Y006826D03*
D271*
X003962Y006833D03*
D272*
X002930Y006833D03*
D273*
X002919Y006854D03*
X003969Y006854D03*
D274*
X003973Y006861D03*
D275*
X003976Y006868D03*
D276*
X002912Y006868D03*
D277*
X003983Y006875D03*
D278*
X003986Y006889D03*
X002909Y006875D03*
X002901Y006889D03*
D279*
X004004Y006917D03*
D280*
X002888Y006917D03*
D281*
X004018Y006952D03*
D282*
X002870Y006952D03*
D283*
X002863Y006966D03*
X004018Y006959D03*
D284*
X004025Y006966D03*
X002870Y006959D03*
D285*
X004032Y006980D03*
D286*
X004039Y006994D03*
X004039Y007001D03*
X002849Y007001D03*
D287*
X002853Y006994D03*
D288*
X004046Y007008D03*
D289*
X002835Y007022D03*
D290*
X002835Y007029D03*
D291*
X002807Y007085D03*
X004088Y007099D03*
D292*
X004102Y007134D03*
X004109Y007141D03*
X002786Y007134D03*
D293*
X004113Y007148D03*
D294*
X002776Y007148D03*
D295*
X004120Y007169D03*
D296*
X002769Y007169D03*
D297*
X002765Y007176D03*
D298*
X002762Y007183D03*
X004127Y007183D03*
D299*
X004134Y007190D03*
D300*
X004137Y007204D03*
X002758Y007190D03*
D301*
X004137Y007197D03*
D302*
X002751Y007197D03*
D303*
X004148Y007225D03*
D304*
X004155Y007239D03*
X002741Y007225D03*
D305*
X002741Y007232D03*
D306*
X002737Y007239D03*
X004158Y007246D03*
D307*
X002730Y007246D03*
D308*
X002726Y007253D03*
X004161Y007253D03*
D309*
X002723Y007267D03*
D310*
X004169Y007274D03*
D311*
X002720Y007274D03*
D312*
X004179Y007288D03*
D313*
X002713Y007288D03*
D314*
X004183Y007295D03*
D315*
X002706Y007295D03*
D316*
X004186Y007302D03*
D317*
X004190Y007316D03*
X002699Y007316D03*
D318*
X002692Y007337D03*
D319*
X002688Y007344D03*
X002681Y007351D03*
X004207Y007351D03*
D320*
X004211Y007358D03*
D321*
X002678Y007358D03*
D322*
X002678Y007365D03*
D323*
X002674Y007372D03*
X004214Y007372D03*
D324*
X004225Y007393D03*
X004232Y007407D03*
X002664Y007393D03*
X002657Y007407D03*
D325*
X002664Y007400D03*
D326*
X004235Y007414D03*
D327*
X002653Y007414D03*
D328*
X002650Y007428D03*
D329*
X004242Y007435D03*
D330*
X002646Y007435D03*
D331*
X004246Y007442D03*
D332*
X002643Y007442D03*
D333*
X002636Y007456D03*
X004260Y007470D03*
D334*
X004256Y007463D03*
X002632Y007463D03*
D335*
X002629Y007470D03*
D336*
X002625Y007477D03*
X004263Y007477D03*
D337*
X004266Y007484D03*
X004266Y007491D03*
X002621Y007491D03*
X002621Y007484D03*
M02*
