G75*
%MOIN*%
%OFA0B0*%
%FSLAX24Y24*%
%IPPOS*%
%LPD*%
%AMOC8*
5,1,8,0,0,1.08239X$1,22.5*
%
%ADD10C,0.0000*%
%ADD11R,0.0531X0.0531*%
%ADD12C,0.0531*%
%ADD13R,0.0515X0.0515*%
%ADD14C,0.0515*%
%ADD15C,0.0160*%
%ADD16C,0.0250*%
D10*
X001143Y000658D02*
X001143Y002390D01*
X001143Y003099D01*
X001143Y003414D01*
X001142Y003424D01*
X001138Y003434D01*
X001132Y003442D01*
X001124Y003448D01*
X001114Y003452D01*
X001104Y003453D01*
X001143Y003099D02*
X001143Y003020D01*
X001104Y003454D02*
X001050Y003456D01*
X000997Y003461D01*
X000944Y003470D01*
X000892Y003483D01*
X000840Y003499D01*
X000790Y003519D01*
X000742Y003542D01*
X000695Y003569D01*
X000650Y003598D01*
X000607Y003631D01*
X000567Y003666D01*
X000529Y003704D01*
X000494Y003744D01*
X000461Y003787D01*
X000432Y003832D01*
X000405Y003879D01*
X000382Y003927D01*
X000362Y003977D01*
X000346Y004029D01*
X000333Y004081D01*
X000324Y004134D01*
X000319Y004187D01*
X000317Y004241D01*
X000316Y004241D02*
X000316Y004319D01*
X000317Y004319D02*
X000319Y004373D01*
X000324Y004426D01*
X000333Y004479D01*
X000346Y004531D01*
X000362Y004583D01*
X000382Y004633D01*
X000405Y004681D01*
X000432Y004728D01*
X000461Y004773D01*
X000494Y004816D01*
X000529Y004856D01*
X000567Y004894D01*
X000607Y004929D01*
X000650Y004962D01*
X000695Y004991D01*
X000742Y005018D01*
X000790Y005041D01*
X000840Y005061D01*
X000892Y005077D01*
X000944Y005090D01*
X000997Y005099D01*
X001050Y005104D01*
X001104Y005106D01*
X001104Y005107D02*
X001114Y005108D01*
X001124Y005112D01*
X001132Y005118D01*
X001138Y005127D01*
X001142Y005136D01*
X001143Y005146D01*
X001143Y005304D01*
X001143Y005540D01*
X001143Y006249D01*
X001143Y007902D01*
X001145Y007935D01*
X001150Y007967D01*
X001158Y007999D01*
X001170Y008030D01*
X001185Y008060D01*
X001203Y008087D01*
X001224Y008113D01*
X001247Y008136D01*
X001273Y008157D01*
X001301Y008175D01*
X001330Y008190D01*
X001361Y008202D01*
X001393Y008210D01*
X001425Y008215D01*
X001458Y008217D01*
X002560Y008217D01*
X004135Y008217D01*
X004214Y008217D01*
X004224Y008216D01*
X004234Y008212D01*
X004242Y008206D01*
X004248Y008198D01*
X004252Y008188D01*
X004253Y008178D01*
X004135Y008217D02*
X003820Y008217D01*
X003190Y008217D02*
X002560Y008217D01*
X001143Y006249D02*
X001143Y006170D01*
X001143Y005304D02*
X001143Y005146D01*
X000710Y004280D02*
X000712Y004321D01*
X000718Y004362D01*
X000728Y004402D01*
X000741Y004441D01*
X000758Y004478D01*
X000779Y004514D01*
X000803Y004548D01*
X000830Y004579D01*
X000859Y004607D01*
X000892Y004633D01*
X000926Y004655D01*
X000963Y004674D01*
X001001Y004689D01*
X001041Y004701D01*
X001081Y004709D01*
X001122Y004713D01*
X001164Y004713D01*
X001205Y004709D01*
X001245Y004701D01*
X001285Y004689D01*
X001323Y004674D01*
X001359Y004655D01*
X001394Y004633D01*
X001427Y004607D01*
X001456Y004579D01*
X001483Y004548D01*
X001507Y004514D01*
X001528Y004478D01*
X001545Y004441D01*
X001558Y004402D01*
X001568Y004362D01*
X001574Y004321D01*
X001576Y004280D01*
X001574Y004239D01*
X001568Y004198D01*
X001558Y004158D01*
X001545Y004119D01*
X001528Y004082D01*
X001507Y004046D01*
X001483Y004012D01*
X001456Y003981D01*
X001427Y003953D01*
X001394Y003927D01*
X001360Y003905D01*
X001323Y003886D01*
X001285Y003871D01*
X001245Y003859D01*
X001205Y003851D01*
X001164Y003847D01*
X001122Y003847D01*
X001081Y003851D01*
X001041Y003859D01*
X001001Y003871D01*
X000963Y003886D01*
X000927Y003905D01*
X000892Y003927D01*
X000859Y003953D01*
X000830Y003981D01*
X000803Y004012D01*
X000779Y004046D01*
X000758Y004082D01*
X000741Y004119D01*
X000728Y004158D01*
X000718Y004198D01*
X000712Y004239D01*
X000710Y004280D01*
X001143Y000658D02*
X001145Y000625D01*
X001150Y000593D01*
X001158Y000561D01*
X001170Y000530D01*
X001185Y000500D01*
X001203Y000473D01*
X001224Y000447D01*
X001247Y000424D01*
X001273Y000403D01*
X001301Y000385D01*
X001330Y000370D01*
X001361Y000358D01*
X001393Y000350D01*
X001425Y000345D01*
X001458Y000343D01*
X003190Y000343D01*
X003938Y000343D01*
X003820Y000343D01*
X003938Y000343D02*
X004214Y000343D01*
X004224Y000344D01*
X004234Y000348D01*
X004242Y000354D01*
X004248Y000362D01*
X004252Y000372D01*
X004253Y000382D01*
X004254Y000382D02*
X004256Y000436D01*
X004261Y000489D01*
X004270Y000542D01*
X004283Y000594D01*
X004299Y000646D01*
X004319Y000696D01*
X004342Y000744D01*
X004369Y000791D01*
X004398Y000836D01*
X004431Y000879D01*
X004466Y000919D01*
X004504Y000957D01*
X004544Y000992D01*
X004587Y001025D01*
X004632Y001054D01*
X004679Y001081D01*
X004727Y001104D01*
X004777Y001124D01*
X004829Y001140D01*
X004881Y001153D01*
X004934Y001162D01*
X004987Y001167D01*
X005041Y001169D01*
X005041Y001170D02*
X005080Y001170D01*
X005119Y001170D01*
X005119Y001169D02*
X005173Y001167D01*
X005226Y001162D01*
X005279Y001153D01*
X005331Y001140D01*
X005383Y001124D01*
X005433Y001104D01*
X005481Y001081D01*
X005528Y001054D01*
X005573Y001025D01*
X005616Y000992D01*
X005656Y000957D01*
X005694Y000919D01*
X005729Y000879D01*
X005762Y000836D01*
X005791Y000791D01*
X005818Y000744D01*
X005841Y000696D01*
X005861Y000646D01*
X005877Y000594D01*
X005890Y000542D01*
X005899Y000489D01*
X005904Y000436D01*
X005906Y000382D01*
X005907Y000382D02*
X005908Y000372D01*
X005912Y000363D01*
X005918Y000354D01*
X005927Y000348D01*
X005936Y000344D01*
X005946Y000343D01*
X006261Y000343D01*
X007363Y000343D01*
X006970Y000343D01*
X007363Y000343D02*
X008702Y000343D01*
X008735Y000345D01*
X008767Y000350D01*
X008799Y000358D01*
X008830Y000370D01*
X008860Y000385D01*
X008887Y000403D01*
X008913Y000424D01*
X008936Y000447D01*
X008957Y000473D01*
X008975Y000500D01*
X008990Y000530D01*
X009002Y000561D01*
X009010Y000593D01*
X009015Y000625D01*
X009017Y000658D01*
X009017Y002311D01*
X009017Y003060D01*
X009017Y003020D01*
X009017Y003060D02*
X009017Y003414D01*
X009018Y003424D01*
X009022Y003434D01*
X009028Y003442D01*
X009037Y003448D01*
X009046Y003452D01*
X009056Y003453D01*
X009056Y003454D02*
X009110Y003456D01*
X009163Y003461D01*
X009216Y003470D01*
X009268Y003483D01*
X009320Y003499D01*
X009370Y003519D01*
X009418Y003542D01*
X009465Y003569D01*
X009510Y003598D01*
X009553Y003631D01*
X009593Y003666D01*
X009631Y003704D01*
X009666Y003744D01*
X009699Y003787D01*
X009728Y003832D01*
X009755Y003879D01*
X009778Y003927D01*
X009798Y003977D01*
X009814Y004029D01*
X009827Y004081D01*
X009836Y004134D01*
X009841Y004187D01*
X009843Y004241D01*
X009844Y004241D02*
X009844Y004280D01*
X009844Y004319D01*
X009843Y004319D02*
X009841Y004373D01*
X009836Y004426D01*
X009827Y004479D01*
X009814Y004531D01*
X009798Y004583D01*
X009778Y004633D01*
X009755Y004681D01*
X009728Y004728D01*
X009699Y004773D01*
X009666Y004816D01*
X009631Y004856D01*
X009593Y004894D01*
X009553Y004929D01*
X009510Y004962D01*
X009465Y004991D01*
X009418Y005018D01*
X009370Y005041D01*
X009320Y005061D01*
X009268Y005077D01*
X009216Y005090D01*
X009163Y005099D01*
X009110Y005104D01*
X009056Y005106D01*
X009057Y005106D02*
X009045Y005109D01*
X009034Y005115D01*
X009026Y005123D01*
X009020Y005134D01*
X009017Y005146D01*
X009017Y005264D01*
X009017Y005461D01*
X009017Y006327D01*
X009017Y007902D01*
X009015Y007935D01*
X009010Y007967D01*
X009002Y007999D01*
X008990Y008030D01*
X008975Y008060D01*
X008957Y008087D01*
X008936Y008113D01*
X008913Y008136D01*
X008887Y008157D01*
X008860Y008175D01*
X008830Y008190D01*
X008799Y008202D01*
X008767Y008210D01*
X008735Y008215D01*
X008702Y008217D01*
X007206Y008217D01*
X006340Y008217D01*
X006025Y008217D01*
X005946Y008217D01*
X006025Y008217D01*
X005946Y008218D02*
X005934Y008215D01*
X005923Y008209D01*
X005915Y008201D01*
X005909Y008190D01*
X005906Y008178D01*
X005904Y008124D01*
X005899Y008071D01*
X005890Y008018D01*
X005877Y007966D01*
X005861Y007914D01*
X005841Y007864D01*
X005818Y007816D01*
X005791Y007769D01*
X005762Y007724D01*
X005729Y007681D01*
X005694Y007641D01*
X005656Y007603D01*
X005616Y007568D01*
X005573Y007535D01*
X005528Y007506D01*
X005481Y007479D01*
X005433Y007456D01*
X005383Y007436D01*
X005331Y007420D01*
X005279Y007407D01*
X005226Y007398D01*
X005173Y007393D01*
X005119Y007391D01*
X005119Y007390D02*
X005080Y007390D01*
X005080Y007391D02*
X005025Y007390D01*
X004970Y007393D01*
X004915Y007400D01*
X004860Y007411D01*
X004807Y007426D01*
X004754Y007444D01*
X004703Y007466D01*
X004654Y007492D01*
X004607Y007521D01*
X004562Y007553D01*
X004519Y007589D01*
X004479Y007627D01*
X004441Y007668D01*
X004407Y007711D01*
X004376Y007757D01*
X004348Y007805D01*
X004323Y007855D01*
X004302Y007906D01*
X004285Y007959D01*
X004272Y008013D01*
X004262Y008067D01*
X004256Y008123D01*
X004254Y008178D01*
X006970Y008217D02*
X007206Y008217D01*
X009017Y006327D02*
X009017Y006170D01*
X009017Y005540D02*
X009017Y005461D01*
X009017Y005264D02*
X009017Y005146D01*
X008584Y004280D02*
X008586Y004321D01*
X008592Y004362D01*
X008602Y004402D01*
X008615Y004441D01*
X008632Y004478D01*
X008653Y004514D01*
X008677Y004548D01*
X008704Y004579D01*
X008733Y004607D01*
X008766Y004633D01*
X008800Y004655D01*
X008837Y004674D01*
X008875Y004689D01*
X008915Y004701D01*
X008955Y004709D01*
X008996Y004713D01*
X009038Y004713D01*
X009079Y004709D01*
X009119Y004701D01*
X009159Y004689D01*
X009197Y004674D01*
X009233Y004655D01*
X009268Y004633D01*
X009301Y004607D01*
X009330Y004579D01*
X009357Y004548D01*
X009381Y004514D01*
X009402Y004478D01*
X009419Y004441D01*
X009432Y004402D01*
X009442Y004362D01*
X009448Y004321D01*
X009450Y004280D01*
X009448Y004239D01*
X009442Y004198D01*
X009432Y004158D01*
X009419Y004119D01*
X009402Y004082D01*
X009381Y004046D01*
X009357Y004012D01*
X009330Y003981D01*
X009301Y003953D01*
X009268Y003927D01*
X009234Y003905D01*
X009197Y003886D01*
X009159Y003871D01*
X009119Y003859D01*
X009079Y003851D01*
X009038Y003847D01*
X008996Y003847D01*
X008955Y003851D01*
X008915Y003859D01*
X008875Y003871D01*
X008837Y003886D01*
X008801Y003905D01*
X008766Y003927D01*
X008733Y003953D01*
X008704Y003981D01*
X008677Y004012D01*
X008653Y004046D01*
X008632Y004082D01*
X008615Y004119D01*
X008602Y004158D01*
X008592Y004198D01*
X008586Y004239D01*
X008584Y004280D01*
X009017Y002390D02*
X009017Y002311D01*
X006340Y000343D02*
X006261Y000343D01*
D11*
X006938Y003729D03*
D12*
X007922Y003729D03*
X007922Y004831D03*
X006938Y004831D03*
D13*
X002680Y005180D03*
D14*
X002680Y004180D03*
X002680Y003180D03*
D15*
X002680Y003180D01*
X002680Y003617D01*
X002714Y003617D01*
X002782Y003607D01*
X002848Y003585D01*
X002909Y003554D01*
X002965Y003514D01*
X003014Y003465D01*
X003054Y003409D01*
X003085Y003348D01*
X003107Y003282D01*
X003117Y003214D01*
X003117Y003180D01*
X002680Y003180D01*
X002680Y003180D01*
X002680Y003180D01*
X002243Y003180D01*
X002243Y003146D01*
X002253Y003078D01*
X002275Y003012D01*
X002306Y002951D01*
X002346Y002895D01*
X002395Y002846D01*
X002451Y002806D01*
X002512Y002775D01*
X002578Y002753D01*
X002646Y002743D01*
X002680Y002743D01*
X002714Y002743D01*
X002782Y002753D01*
X002848Y002775D01*
X002909Y002806D01*
X002965Y002846D01*
X003014Y002895D01*
X003054Y002951D01*
X003085Y003012D01*
X003107Y003078D01*
X003117Y003146D01*
X003117Y003180D01*
X002680Y003180D01*
X002680Y003617D01*
X002646Y003617D01*
X002578Y003607D01*
X002512Y003585D01*
X002451Y003554D01*
X002395Y003514D01*
X002346Y003465D01*
X002306Y003409D01*
X002275Y003348D01*
X002253Y003282D01*
X002243Y003214D01*
X002243Y003180D01*
X002680Y003180D01*
X002680Y002743D01*
X002680Y003180D01*
X002680Y003180D01*
X002680Y003208D02*
X002680Y003208D01*
X002680Y003050D02*
X002680Y003050D01*
X002680Y002891D02*
X002680Y002891D01*
X003010Y002891D02*
X008837Y002891D01*
X008837Y002733D02*
X001323Y002733D01*
X001323Y002891D02*
X002350Y002891D01*
X002262Y003050D02*
X001323Y003050D01*
X001323Y003208D02*
X002243Y003208D01*
X002284Y003367D02*
X001323Y003367D01*
X001323Y003488D02*
X001301Y003510D01*
X001264Y003574D01*
X001264Y003574D01*
X001200Y003612D01*
X001178Y003633D01*
X001104Y003633D01*
X001009Y003641D01*
X000828Y003699D01*
X000674Y003811D01*
X000562Y003965D01*
X000504Y004146D01*
X000496Y004241D01*
X000496Y004319D01*
X000504Y004414D01*
X000562Y004595D01*
X000674Y004749D01*
X000828Y004861D01*
X001009Y004919D01*
X001104Y004927D01*
X001178Y004927D01*
X001200Y004948D01*
X001264Y004986D01*
X001301Y005050D01*
X001323Y005072D01*
X001323Y007902D01*
X001326Y007928D01*
X001346Y007977D01*
X001383Y008014D01*
X001432Y008034D01*
X001458Y008037D01*
X004073Y008037D01*
X004073Y008019D01*
X004174Y007719D01*
X004365Y007467D01*
X004626Y007289D01*
X004626Y007289D01*
X004931Y007203D01*
X005084Y007210D01*
X005273Y007210D01*
X005564Y007305D01*
X005564Y007305D01*
X005812Y007485D01*
X005812Y007485D01*
X005812Y007485D01*
X005992Y007733D01*
X006087Y008024D01*
X006087Y008037D01*
X007281Y008037D01*
X008627Y008037D01*
X008702Y008037D01*
X008728Y008034D01*
X008777Y008014D01*
X008814Y007977D01*
X008834Y007928D01*
X008837Y007902D01*
X008837Y005211D01*
X008831Y005203D01*
X008837Y005137D01*
X008837Y005072D01*
X008844Y005064D01*
X008846Y005049D01*
X008959Y004935D01*
X008975Y004934D01*
X008982Y004927D01*
X009048Y004927D01*
X009113Y004920D01*
X009115Y004922D01*
X009151Y004919D01*
X009332Y004861D01*
X009486Y004749D01*
X009598Y004595D01*
X009656Y004414D01*
X009664Y004319D01*
X009664Y004241D01*
X009656Y004146D01*
X009598Y003965D01*
X009486Y003811D01*
X009332Y003699D01*
X009151Y003641D01*
X009056Y003633D01*
X008982Y003633D01*
X008960Y003612D01*
X008896Y003574D01*
X008859Y003510D01*
X008837Y003488D01*
X008837Y000658D01*
X008834Y000632D01*
X008814Y000583D01*
X008777Y000546D01*
X008728Y000526D01*
X008702Y000523D01*
X006087Y000523D01*
X006087Y000536D01*
X005992Y000827D01*
X005812Y001075D01*
X005812Y001075D01*
X005812Y001075D01*
X005564Y001255D01*
X005273Y001350D01*
X004887Y001350D01*
X004596Y001255D01*
X004348Y001075D01*
X004348Y001075D01*
X004348Y001075D01*
X004168Y000827D01*
X004073Y000536D01*
X004073Y000523D01*
X001458Y000523D01*
X001432Y000526D01*
X001383Y000546D01*
X001346Y000583D01*
X001326Y000632D01*
X001323Y000658D01*
X001323Y003488D01*
X001293Y003525D02*
X002411Y003525D01*
X002680Y003525D02*
X002680Y003525D01*
X002680Y003367D02*
X002680Y003367D01*
X002949Y003525D02*
X006492Y003525D01*
X006492Y003389D02*
X006598Y003283D01*
X007278Y003283D01*
X007384Y003389D01*
X007384Y004069D01*
X007278Y004175D01*
X006598Y004175D01*
X006492Y004069D01*
X006492Y003389D01*
X006514Y003367D02*
X003076Y003367D01*
X003117Y003208D02*
X008837Y003208D01*
X008837Y003050D02*
X003098Y003050D01*
X002767Y003743D02*
X002593Y003743D01*
X002432Y003809D01*
X002309Y003932D01*
X002243Y004093D01*
X002243Y004267D01*
X002309Y004428D01*
X002432Y004551D01*
X002593Y004617D01*
X002767Y004617D01*
X002928Y004551D01*
X003051Y004428D01*
X003117Y004267D01*
X003117Y004093D01*
X003051Y003932D01*
X002928Y003809D01*
X002767Y003743D01*
X002961Y003842D02*
X006492Y003842D01*
X006492Y003684D02*
X001305Y003684D01*
X001265Y003667D02*
X001490Y003760D01*
X001663Y003933D01*
X001756Y004158D01*
X001756Y004402D01*
X001663Y004627D01*
X001490Y004800D01*
X001265Y004893D01*
X001021Y004893D01*
X000796Y004800D01*
X000623Y004627D01*
X000530Y004402D01*
X000530Y004158D01*
X000623Y003933D01*
X000796Y003760D01*
X001021Y003667D01*
X001265Y003667D01*
X001264Y003574D02*
X001264Y003574D01*
X000981Y003684D02*
X000877Y003684D01*
X000714Y003842D02*
X000652Y003842D01*
X000595Y004001D02*
X000551Y004001D01*
X000530Y004159D02*
X000503Y004159D01*
X000496Y004318D02*
X000530Y004318D01*
X000524Y004476D02*
X000561Y004476D01*
X000591Y004635D02*
X000630Y004635D01*
X000735Y004793D02*
X000789Y004793D01*
X001205Y004952D02*
X002243Y004952D01*
X002243Y004848D02*
X002348Y004743D01*
X003012Y004743D01*
X003117Y004848D01*
X003117Y005512D01*
X003012Y005617D01*
X002348Y005617D01*
X002243Y005512D01*
X002243Y004848D01*
X002297Y004793D02*
X001497Y004793D01*
X001655Y004635D02*
X006538Y004635D01*
X006525Y004660D02*
X006557Y004598D01*
X006598Y004541D01*
X006647Y004491D01*
X006704Y004450D01*
X006767Y004418D01*
X006833Y004396D01*
X006903Y004385D01*
X006938Y004385D01*
X006973Y004385D01*
X007042Y004396D01*
X007109Y004418D01*
X007171Y004450D01*
X007228Y004491D01*
X007278Y004541D01*
X007319Y004598D01*
X007351Y004660D01*
X007373Y004727D01*
X007384Y004796D01*
X007384Y004831D01*
X006938Y004831D01*
X006938Y004385D01*
X006938Y004831D01*
X006938Y004831D01*
X006938Y004831D01*
X007384Y004831D01*
X007384Y004866D01*
X007373Y004936D01*
X007351Y005002D01*
X007319Y005065D01*
X007315Y005071D01*
X007476Y004909D01*
X007476Y004743D01*
X007544Y004579D01*
X007670Y004453D01*
X007833Y004385D01*
X008011Y004385D01*
X008175Y004453D01*
X008300Y004579D01*
X008368Y004743D01*
X008368Y004920D01*
X008300Y005084D01*
X008175Y005209D01*
X008011Y005277D01*
X007844Y005277D01*
X006294Y006827D01*
X006221Y006900D01*
X006125Y006940D01*
X005049Y006940D01*
X004941Y006985D01*
X004819Y006985D01*
X004707Y006939D01*
X004621Y006853D01*
X004575Y006741D01*
X004575Y006619D01*
X004621Y006507D01*
X004707Y006421D01*
X004819Y006375D01*
X004941Y006375D01*
X005049Y006420D01*
X005966Y006420D01*
X007178Y005208D01*
X007171Y005212D01*
X007109Y005244D01*
X007042Y005266D01*
X006973Y005277D01*
X006938Y005277D01*
X006938Y004831D01*
X006492Y004831D01*
X006492Y004796D01*
X006503Y004727D01*
X006525Y004660D01*
X006493Y004793D02*
X003063Y004793D01*
X003117Y004952D02*
X006508Y004952D01*
X006503Y004936D02*
X006492Y004866D01*
X006492Y004831D01*
X006938Y004831D01*
X006938Y004831D01*
X006938Y004831D01*
X006938Y005277D01*
X006903Y005277D01*
X006833Y005266D01*
X006767Y005244D01*
X006704Y005212D01*
X006647Y005171D01*
X006598Y005122D01*
X006557Y005065D01*
X006525Y005002D01*
X006503Y004936D01*
X006589Y005110D02*
X003117Y005110D01*
X003117Y005269D02*
X006850Y005269D01*
X006938Y005269D02*
X006938Y005269D01*
X007026Y005269D02*
X007117Y005269D01*
X006959Y005427D02*
X003117Y005427D01*
X003044Y005586D02*
X006800Y005586D01*
X006642Y005744D02*
X001323Y005744D01*
X001323Y005586D02*
X002316Y005586D01*
X002243Y005427D02*
X001323Y005427D01*
X001323Y005269D02*
X002243Y005269D01*
X002243Y005110D02*
X001323Y005110D01*
X001264Y004986D02*
X001264Y004986D01*
X001264Y004986D01*
X001725Y004476D02*
X002357Y004476D01*
X002263Y004318D02*
X001756Y004318D01*
X001756Y004159D02*
X002243Y004159D01*
X002281Y004001D02*
X001691Y004001D01*
X001572Y003842D02*
X002399Y003842D01*
X003079Y004001D02*
X006492Y004001D01*
X006582Y004159D02*
X003117Y004159D01*
X003097Y004318D02*
X008404Y004318D01*
X008404Y004402D02*
X008404Y004158D01*
X008497Y003933D01*
X008670Y003760D01*
X008895Y003667D01*
X009139Y003667D01*
X009364Y003760D01*
X009537Y003933D01*
X009630Y004158D01*
X009630Y004402D01*
X009537Y004627D01*
X009364Y004800D01*
X009139Y004893D01*
X008895Y004893D01*
X008670Y004800D01*
X008497Y004627D01*
X008404Y004402D01*
X008435Y004476D02*
X008197Y004476D01*
X008323Y004635D02*
X008505Y004635D01*
X008368Y004793D02*
X008663Y004793D01*
X008846Y005049D02*
X008846Y005049D01*
X008837Y005110D02*
X008274Y005110D01*
X008355Y004952D02*
X008943Y004952D01*
X008959Y004935D02*
X008959Y004935D01*
X008837Y005269D02*
X008031Y005269D01*
X007694Y005427D02*
X008837Y005427D01*
X008837Y005586D02*
X007535Y005586D01*
X007377Y005744D02*
X008837Y005744D01*
X008837Y005903D02*
X007218Y005903D01*
X007060Y006061D02*
X008837Y006061D01*
X008837Y006220D02*
X006901Y006220D01*
X006743Y006378D02*
X008837Y006378D01*
X008837Y006537D02*
X006584Y006537D01*
X006426Y006695D02*
X008837Y006695D01*
X008837Y006854D02*
X006267Y006854D01*
X006073Y006680D02*
X004880Y006680D01*
X004575Y006695D02*
X001323Y006695D01*
X001323Y006537D02*
X004609Y006537D01*
X004812Y006378D02*
X001323Y006378D01*
X001323Y006220D02*
X006166Y006220D01*
X006008Y006378D02*
X004948Y006378D01*
X004622Y006854D02*
X001323Y006854D01*
X001323Y007012D02*
X008837Y007012D01*
X008837Y007171D02*
X001323Y007171D01*
X001323Y007329D02*
X004567Y007329D01*
X004365Y007467D02*
X004365Y007467D01*
X004365Y007467D01*
X004349Y007488D02*
X001323Y007488D01*
X001323Y007646D02*
X004230Y007646D01*
X004174Y007719D02*
X004174Y007719D01*
X004145Y007805D02*
X001323Y007805D01*
X001340Y007963D02*
X004092Y007963D01*
X004931Y007203D02*
X004931Y007203D01*
X005597Y007329D02*
X008837Y007329D01*
X008837Y007488D02*
X005814Y007488D01*
X005929Y007646D02*
X008837Y007646D01*
X008837Y007805D02*
X006015Y007805D01*
X005992Y007733D02*
X005992Y007733D01*
X006067Y007963D02*
X008820Y007963D01*
X006483Y005903D02*
X001323Y005903D01*
X001323Y006061D02*
X006325Y006061D01*
X006073Y006680D02*
X007922Y004831D01*
X007521Y004635D02*
X007338Y004635D01*
X007383Y004793D02*
X007476Y004793D01*
X007434Y004952D02*
X007367Y004952D01*
X006938Y004952D02*
X006938Y004952D01*
X006938Y005110D02*
X006938Y005110D01*
X006938Y004793D02*
X006938Y004793D01*
X006938Y004635D02*
X006938Y004635D01*
X006938Y004476D02*
X006938Y004476D01*
X007207Y004476D02*
X007647Y004476D01*
X007796Y004159D02*
X007294Y004159D01*
X007384Y004001D02*
X007563Y004001D01*
X007544Y003981D02*
X007476Y003817D01*
X007476Y003640D01*
X007544Y003476D01*
X007670Y003351D01*
X007833Y003283D01*
X008011Y003283D01*
X008175Y003351D01*
X008300Y003476D01*
X008368Y003640D01*
X008368Y003817D01*
X008300Y003981D01*
X008175Y004107D01*
X008011Y004175D01*
X007833Y004175D01*
X007670Y004107D01*
X007544Y003981D01*
X007487Y003842D02*
X007384Y003842D01*
X007384Y003684D02*
X007476Y003684D01*
X007524Y003525D02*
X007384Y003525D01*
X007362Y003367D02*
X007654Y003367D01*
X008190Y003367D02*
X008837Y003367D01*
X008867Y003525D02*
X008320Y003525D01*
X008368Y003684D02*
X008855Y003684D01*
X008896Y003574D02*
X008896Y003574D01*
X008896Y003574D01*
X009179Y003684D02*
X009283Y003684D01*
X009446Y003842D02*
X009508Y003842D01*
X009565Y004001D02*
X009609Y004001D01*
X009630Y004159D02*
X009657Y004159D01*
X009664Y004318D02*
X009630Y004318D01*
X009636Y004476D02*
X009599Y004476D01*
X009569Y004635D02*
X009530Y004635D01*
X009425Y004793D02*
X009371Y004793D01*
X008404Y004159D02*
X008048Y004159D01*
X008281Y004001D02*
X008469Y004001D01*
X008358Y003842D02*
X008588Y003842D01*
X008837Y002574D02*
X001323Y002574D01*
X001323Y002416D02*
X008837Y002416D01*
X008837Y002257D02*
X001323Y002257D01*
X001323Y002099D02*
X008837Y002099D01*
X008837Y001940D02*
X001323Y001940D01*
X001323Y001782D02*
X008837Y001782D01*
X008837Y001623D02*
X001323Y001623D01*
X001323Y001465D02*
X008837Y001465D01*
X008837Y001306D02*
X005407Y001306D01*
X005564Y001255D02*
X005564Y001255D01*
X005712Y001148D02*
X008837Y001148D01*
X008837Y000989D02*
X005874Y000989D01*
X005990Y000831D02*
X008837Y000831D01*
X008837Y000672D02*
X006042Y000672D01*
X005992Y000827D02*
X005992Y000827D01*
X004753Y001306D02*
X001323Y001306D01*
X001323Y001148D02*
X004448Y001148D01*
X004596Y001255D02*
X004596Y001255D01*
X004286Y000989D02*
X001323Y000989D01*
X001323Y000831D02*
X004170Y000831D01*
X004168Y000827D02*
X004168Y000827D01*
X004118Y000672D02*
X001323Y000672D01*
X003003Y004476D02*
X006668Y004476D01*
D16*
X004880Y006680D03*
M02*
