G75*
%MOIN*%
%OFA0B0*%
%FSLAX24Y24*%
%IPPOS*%
%LPD*%
%AMOC8*
5,1,8,0,0,1.08239X$1,22.5*
%
%ADD10R,0.0395X0.0395*%
%ADD11R,0.0474X0.0513*%
%ADD12R,0.1025X0.0710*%
%ADD13R,0.0560X0.0960*%
%ADD14R,0.1497X0.0946*%
%ADD15C,0.0050*%
%ADD16R,0.0595X0.0595*%
%ADD17C,0.0595*%
%ADD18C,0.0966*%
%ADD19R,0.1261X0.1261*%
%ADD20R,0.0513X0.0474*%
%ADD21C,0.0360*%
D10*
X008600Y009543D03*
X008600Y010134D03*
D11*
X008600Y011103D03*
X008600Y011773D03*
X014380Y004578D03*
X014380Y003909D03*
D12*
X013335Y003983D03*
X013335Y005164D03*
X008720Y006168D03*
X008720Y007349D03*
D13*
X010080Y006369D03*
X010990Y006369D03*
X011900Y006369D03*
D14*
X010990Y003929D03*
D15*
X001957Y000949D02*
X001170Y000949D01*
X001957Y000949D02*
X020068Y000949D01*
X019674Y001736D02*
X019676Y001775D01*
X019682Y001814D01*
X019692Y001852D01*
X019705Y001889D01*
X019722Y001924D01*
X019742Y001958D01*
X019766Y001989D01*
X019793Y002018D01*
X019822Y002044D01*
X019854Y002067D01*
X019888Y002087D01*
X019924Y002103D01*
X019961Y002115D01*
X020000Y002124D01*
X020039Y002129D01*
X020078Y002130D01*
X020117Y002127D01*
X020156Y002120D01*
X020193Y002109D01*
X020230Y002095D01*
X020265Y002077D01*
X020298Y002056D01*
X020329Y002031D01*
X020357Y002004D01*
X020382Y001974D01*
X020404Y001941D01*
X020423Y001907D01*
X020438Y001871D01*
X020450Y001833D01*
X020458Y001795D01*
X020462Y001756D01*
X020462Y001716D01*
X020458Y001677D01*
X020450Y001639D01*
X020438Y001601D01*
X020423Y001565D01*
X020404Y001531D01*
X020382Y001498D01*
X020357Y001468D01*
X020329Y001441D01*
X020298Y001416D01*
X020265Y001395D01*
X020230Y001377D01*
X020193Y001363D01*
X020156Y001352D01*
X020117Y001345D01*
X020078Y001342D01*
X020039Y001343D01*
X020000Y001348D01*
X019961Y001357D01*
X019924Y001369D01*
X019888Y001385D01*
X019854Y001405D01*
X019822Y001428D01*
X019793Y001454D01*
X019766Y001483D01*
X019742Y001514D01*
X019722Y001548D01*
X019705Y001583D01*
X019692Y001620D01*
X019682Y001658D01*
X019676Y001697D01*
X019674Y001736D01*
X020068Y000949D02*
X020122Y000951D01*
X020175Y000956D01*
X020228Y000965D01*
X020280Y000978D01*
X020332Y000994D01*
X020382Y001014D01*
X020430Y001037D01*
X020477Y001064D01*
X020522Y001093D01*
X020565Y001126D01*
X020605Y001161D01*
X020643Y001199D01*
X020678Y001239D01*
X020711Y001282D01*
X020740Y001327D01*
X020767Y001374D01*
X020790Y001422D01*
X020810Y001472D01*
X020826Y001524D01*
X020839Y001576D01*
X020848Y001629D01*
X020853Y001682D01*
X020855Y001736D01*
X020855Y011972D01*
X019674Y011972D02*
X019676Y012011D01*
X019682Y012050D01*
X019692Y012088D01*
X019705Y012125D01*
X019722Y012160D01*
X019742Y012194D01*
X019766Y012225D01*
X019793Y012254D01*
X019822Y012280D01*
X019854Y012303D01*
X019888Y012323D01*
X019924Y012339D01*
X019961Y012351D01*
X020000Y012360D01*
X020039Y012365D01*
X020078Y012366D01*
X020117Y012363D01*
X020156Y012356D01*
X020193Y012345D01*
X020230Y012331D01*
X020265Y012313D01*
X020298Y012292D01*
X020329Y012267D01*
X020357Y012240D01*
X020382Y012210D01*
X020404Y012177D01*
X020423Y012143D01*
X020438Y012107D01*
X020450Y012069D01*
X020458Y012031D01*
X020462Y011992D01*
X020462Y011952D01*
X020458Y011913D01*
X020450Y011875D01*
X020438Y011837D01*
X020423Y011801D01*
X020404Y011767D01*
X020382Y011734D01*
X020357Y011704D01*
X020329Y011677D01*
X020298Y011652D01*
X020265Y011631D01*
X020230Y011613D01*
X020193Y011599D01*
X020156Y011588D01*
X020117Y011581D01*
X020078Y011578D01*
X020039Y011579D01*
X020000Y011584D01*
X019961Y011593D01*
X019924Y011605D01*
X019888Y011621D01*
X019854Y011641D01*
X019822Y011664D01*
X019793Y011690D01*
X019766Y011719D01*
X019742Y011750D01*
X019722Y011784D01*
X019705Y011819D01*
X019692Y011856D01*
X019682Y011894D01*
X019676Y011933D01*
X019674Y011972D01*
X020068Y012759D02*
X020122Y012757D01*
X020175Y012752D01*
X020228Y012743D01*
X020280Y012730D01*
X020332Y012714D01*
X020382Y012694D01*
X020430Y012671D01*
X020477Y012644D01*
X020522Y012615D01*
X020565Y012582D01*
X020605Y012547D01*
X020643Y012509D01*
X020678Y012469D01*
X020711Y012426D01*
X020740Y012381D01*
X020767Y012334D01*
X020790Y012286D01*
X020810Y012236D01*
X020826Y012184D01*
X020839Y012132D01*
X020848Y012079D01*
X020853Y012026D01*
X020855Y011972D01*
X020068Y012760D02*
X001957Y012760D01*
X001563Y011972D02*
X001565Y012011D01*
X001571Y012050D01*
X001581Y012088D01*
X001594Y012125D01*
X001611Y012160D01*
X001631Y012194D01*
X001655Y012225D01*
X001682Y012254D01*
X001711Y012280D01*
X001743Y012303D01*
X001777Y012323D01*
X001813Y012339D01*
X001850Y012351D01*
X001889Y012360D01*
X001928Y012365D01*
X001967Y012366D01*
X002006Y012363D01*
X002045Y012356D01*
X002082Y012345D01*
X002119Y012331D01*
X002154Y012313D01*
X002187Y012292D01*
X002218Y012267D01*
X002246Y012240D01*
X002271Y012210D01*
X002293Y012177D01*
X002312Y012143D01*
X002327Y012107D01*
X002339Y012069D01*
X002347Y012031D01*
X002351Y011992D01*
X002351Y011952D01*
X002347Y011913D01*
X002339Y011875D01*
X002327Y011837D01*
X002312Y011801D01*
X002293Y011767D01*
X002271Y011734D01*
X002246Y011704D01*
X002218Y011677D01*
X002187Y011652D01*
X002154Y011631D01*
X002119Y011613D01*
X002082Y011599D01*
X002045Y011588D01*
X002006Y011581D01*
X001967Y011578D01*
X001928Y011579D01*
X001889Y011584D01*
X001850Y011593D01*
X001813Y011605D01*
X001777Y011621D01*
X001743Y011641D01*
X001711Y011664D01*
X001682Y011690D01*
X001655Y011719D01*
X001631Y011750D01*
X001611Y011784D01*
X001594Y011819D01*
X001581Y011856D01*
X001571Y011894D01*
X001565Y011933D01*
X001563Y011972D01*
X001170Y011972D02*
X001172Y012026D01*
X001177Y012079D01*
X001186Y012132D01*
X001199Y012184D01*
X001215Y012236D01*
X001235Y012286D01*
X001258Y012334D01*
X001285Y012381D01*
X001314Y012426D01*
X001347Y012469D01*
X001382Y012509D01*
X001420Y012547D01*
X001460Y012582D01*
X001503Y012615D01*
X001548Y012644D01*
X001595Y012671D01*
X001643Y012694D01*
X001693Y012714D01*
X001745Y012730D01*
X001797Y012743D01*
X001850Y012752D01*
X001903Y012757D01*
X001957Y012759D01*
X001170Y011972D02*
X001170Y001736D01*
X001563Y001736D02*
X001565Y001775D01*
X001571Y001814D01*
X001581Y001852D01*
X001594Y001889D01*
X001611Y001924D01*
X001631Y001958D01*
X001655Y001989D01*
X001682Y002018D01*
X001711Y002044D01*
X001743Y002067D01*
X001777Y002087D01*
X001813Y002103D01*
X001850Y002115D01*
X001889Y002124D01*
X001928Y002129D01*
X001967Y002130D01*
X002006Y002127D01*
X002045Y002120D01*
X002082Y002109D01*
X002119Y002095D01*
X002154Y002077D01*
X002187Y002056D01*
X002218Y002031D01*
X002246Y002004D01*
X002271Y001974D01*
X002293Y001941D01*
X002312Y001907D01*
X002327Y001871D01*
X002339Y001833D01*
X002347Y001795D01*
X002351Y001756D01*
X002351Y001716D01*
X002347Y001677D01*
X002339Y001639D01*
X002327Y001601D01*
X002312Y001565D01*
X002293Y001531D01*
X002271Y001498D01*
X002246Y001468D01*
X002218Y001441D01*
X002187Y001416D01*
X002154Y001395D01*
X002119Y001377D01*
X002082Y001363D01*
X002045Y001352D01*
X002006Y001345D01*
X001967Y001342D01*
X001928Y001343D01*
X001889Y001348D01*
X001850Y001357D01*
X001813Y001369D01*
X001777Y001385D01*
X001743Y001405D01*
X001711Y001428D01*
X001682Y001454D01*
X001655Y001483D01*
X001631Y001514D01*
X001611Y001548D01*
X001594Y001583D01*
X001581Y001620D01*
X001571Y001658D01*
X001565Y001697D01*
X001563Y001736D01*
X001170Y001736D02*
X001172Y001682D01*
X001177Y001629D01*
X001186Y001576D01*
X001199Y001524D01*
X001215Y001472D01*
X001235Y001422D01*
X001258Y001374D01*
X001285Y001327D01*
X001314Y001282D01*
X001347Y001239D01*
X001382Y001199D01*
X001420Y001161D01*
X001460Y001126D01*
X001503Y001093D01*
X001548Y001064D01*
X001595Y001037D01*
X001643Y001014D01*
X001693Y000994D01*
X001745Y000978D01*
X001797Y000965D01*
X001850Y000956D01*
X001903Y000951D01*
X001957Y000949D01*
D16*
X004127Y003679D03*
X006087Y009958D03*
X015938Y003679D03*
X017898Y009958D03*
D17*
X016898Y009958D03*
X015898Y009958D03*
X016938Y003679D03*
X017938Y003679D03*
X006127Y003679D03*
X005127Y003679D03*
X005087Y009958D03*
X004087Y009958D03*
D18*
X010225Y009545D02*
X010225Y008659D01*
X011485Y008659D02*
X011485Y009545D01*
X013572Y009545D02*
X013572Y008659D01*
D19*
X011485Y011543D03*
D20*
X010795Y007603D03*
X010125Y007603D03*
D21*
X008820Y008699D03*
X003220Y005949D03*
X007810Y004929D03*
X008930Y004299D03*
X011050Y001849D03*
X017420Y002149D03*
X019190Y005449D03*
X019130Y007199D03*
M02*
