G75*
%MOIN*%
%OFA0B0*%
%FSLAX24Y24*%
%IPPOS*%
%LPD*%
%AMOC8*
5,1,8,0,0,1.08239X$1,22.5*
%
%ADD10C,0.0050*%
%ADD11R,0.0515X0.0515*%
%ADD12C,0.0515*%
%ADD13C,0.0886*%
%ADD14R,0.1181X0.1181*%
%ADD15C,0.0240*%
%ADD16C,0.0280*%
%ADD17C,0.0320*%
D10*
X001170Y000949D02*
X001957Y000949D01*
X020068Y000949D01*
X019674Y001736D02*
X019676Y001775D01*
X019682Y001814D01*
X019692Y001852D01*
X019705Y001889D01*
X019722Y001924D01*
X019742Y001958D01*
X019766Y001989D01*
X019793Y002018D01*
X019822Y002044D01*
X019854Y002067D01*
X019888Y002087D01*
X019924Y002103D01*
X019961Y002115D01*
X020000Y002124D01*
X020039Y002129D01*
X020078Y002130D01*
X020117Y002127D01*
X020156Y002120D01*
X020193Y002109D01*
X020230Y002095D01*
X020265Y002077D01*
X020298Y002056D01*
X020329Y002031D01*
X020357Y002004D01*
X020382Y001974D01*
X020404Y001941D01*
X020423Y001907D01*
X020438Y001871D01*
X020450Y001833D01*
X020458Y001795D01*
X020462Y001756D01*
X020462Y001716D01*
X020458Y001677D01*
X020450Y001639D01*
X020438Y001601D01*
X020423Y001565D01*
X020404Y001531D01*
X020382Y001498D01*
X020357Y001468D01*
X020329Y001441D01*
X020298Y001416D01*
X020265Y001395D01*
X020230Y001377D01*
X020193Y001363D01*
X020156Y001352D01*
X020117Y001345D01*
X020078Y001342D01*
X020039Y001343D01*
X020000Y001348D01*
X019961Y001357D01*
X019924Y001369D01*
X019888Y001385D01*
X019854Y001405D01*
X019822Y001428D01*
X019793Y001454D01*
X019766Y001483D01*
X019742Y001514D01*
X019722Y001548D01*
X019705Y001583D01*
X019692Y001620D01*
X019682Y001658D01*
X019676Y001697D01*
X019674Y001736D01*
X020068Y000949D02*
X020122Y000951D01*
X020175Y000956D01*
X020228Y000965D01*
X020280Y000978D01*
X020332Y000994D01*
X020382Y001014D01*
X020430Y001037D01*
X020477Y001064D01*
X020522Y001093D01*
X020565Y001126D01*
X020605Y001161D01*
X020643Y001199D01*
X020678Y001239D01*
X020711Y001282D01*
X020740Y001327D01*
X020767Y001374D01*
X020790Y001422D01*
X020810Y001472D01*
X020826Y001524D01*
X020839Y001576D01*
X020848Y001629D01*
X020853Y001682D01*
X020855Y001736D01*
X020855Y011972D01*
X019674Y011972D02*
X019676Y012011D01*
X019682Y012050D01*
X019692Y012088D01*
X019705Y012125D01*
X019722Y012160D01*
X019742Y012194D01*
X019766Y012225D01*
X019793Y012254D01*
X019822Y012280D01*
X019854Y012303D01*
X019888Y012323D01*
X019924Y012339D01*
X019961Y012351D01*
X020000Y012360D01*
X020039Y012365D01*
X020078Y012366D01*
X020117Y012363D01*
X020156Y012356D01*
X020193Y012345D01*
X020230Y012331D01*
X020265Y012313D01*
X020298Y012292D01*
X020329Y012267D01*
X020357Y012240D01*
X020382Y012210D01*
X020404Y012177D01*
X020423Y012143D01*
X020438Y012107D01*
X020450Y012069D01*
X020458Y012031D01*
X020462Y011992D01*
X020462Y011952D01*
X020458Y011913D01*
X020450Y011875D01*
X020438Y011837D01*
X020423Y011801D01*
X020404Y011767D01*
X020382Y011734D01*
X020357Y011704D01*
X020329Y011677D01*
X020298Y011652D01*
X020265Y011631D01*
X020230Y011613D01*
X020193Y011599D01*
X020156Y011588D01*
X020117Y011581D01*
X020078Y011578D01*
X020039Y011579D01*
X020000Y011584D01*
X019961Y011593D01*
X019924Y011605D01*
X019888Y011621D01*
X019854Y011641D01*
X019822Y011664D01*
X019793Y011690D01*
X019766Y011719D01*
X019742Y011750D01*
X019722Y011784D01*
X019705Y011819D01*
X019692Y011856D01*
X019682Y011894D01*
X019676Y011933D01*
X019674Y011972D01*
X020068Y012759D02*
X020122Y012757D01*
X020175Y012752D01*
X020228Y012743D01*
X020280Y012730D01*
X020332Y012714D01*
X020382Y012694D01*
X020430Y012671D01*
X020477Y012644D01*
X020522Y012615D01*
X020565Y012582D01*
X020605Y012547D01*
X020643Y012509D01*
X020678Y012469D01*
X020711Y012426D01*
X020740Y012381D01*
X020767Y012334D01*
X020790Y012286D01*
X020810Y012236D01*
X020826Y012184D01*
X020839Y012132D01*
X020848Y012079D01*
X020853Y012026D01*
X020855Y011972D01*
X020068Y012760D02*
X001957Y012760D01*
X001563Y011972D02*
X001565Y012011D01*
X001571Y012050D01*
X001581Y012088D01*
X001594Y012125D01*
X001611Y012160D01*
X001631Y012194D01*
X001655Y012225D01*
X001682Y012254D01*
X001711Y012280D01*
X001743Y012303D01*
X001777Y012323D01*
X001813Y012339D01*
X001850Y012351D01*
X001889Y012360D01*
X001928Y012365D01*
X001967Y012366D01*
X002006Y012363D01*
X002045Y012356D01*
X002082Y012345D01*
X002119Y012331D01*
X002154Y012313D01*
X002187Y012292D01*
X002218Y012267D01*
X002246Y012240D01*
X002271Y012210D01*
X002293Y012177D01*
X002312Y012143D01*
X002327Y012107D01*
X002339Y012069D01*
X002347Y012031D01*
X002351Y011992D01*
X002351Y011952D01*
X002347Y011913D01*
X002339Y011875D01*
X002327Y011837D01*
X002312Y011801D01*
X002293Y011767D01*
X002271Y011734D01*
X002246Y011704D01*
X002218Y011677D01*
X002187Y011652D01*
X002154Y011631D01*
X002119Y011613D01*
X002082Y011599D01*
X002045Y011588D01*
X002006Y011581D01*
X001967Y011578D01*
X001928Y011579D01*
X001889Y011584D01*
X001850Y011593D01*
X001813Y011605D01*
X001777Y011621D01*
X001743Y011641D01*
X001711Y011664D01*
X001682Y011690D01*
X001655Y011719D01*
X001631Y011750D01*
X001611Y011784D01*
X001594Y011819D01*
X001581Y011856D01*
X001571Y011894D01*
X001565Y011933D01*
X001563Y011972D01*
X001170Y011972D02*
X001172Y012026D01*
X001177Y012079D01*
X001186Y012132D01*
X001199Y012184D01*
X001215Y012236D01*
X001235Y012286D01*
X001258Y012334D01*
X001285Y012381D01*
X001314Y012426D01*
X001347Y012469D01*
X001382Y012509D01*
X001420Y012547D01*
X001460Y012582D01*
X001503Y012615D01*
X001548Y012644D01*
X001595Y012671D01*
X001643Y012694D01*
X001693Y012714D01*
X001745Y012730D01*
X001797Y012743D01*
X001850Y012752D01*
X001903Y012757D01*
X001957Y012759D01*
X001170Y011972D02*
X001170Y001736D01*
X001563Y001736D02*
X001565Y001775D01*
X001571Y001814D01*
X001581Y001852D01*
X001594Y001889D01*
X001611Y001924D01*
X001631Y001958D01*
X001655Y001989D01*
X001682Y002018D01*
X001711Y002044D01*
X001743Y002067D01*
X001777Y002087D01*
X001813Y002103D01*
X001850Y002115D01*
X001889Y002124D01*
X001928Y002129D01*
X001967Y002130D01*
X002006Y002127D01*
X002045Y002120D01*
X002082Y002109D01*
X002119Y002095D01*
X002154Y002077D01*
X002187Y002056D01*
X002218Y002031D01*
X002246Y002004D01*
X002271Y001974D01*
X002293Y001941D01*
X002312Y001907D01*
X002327Y001871D01*
X002339Y001833D01*
X002347Y001795D01*
X002351Y001756D01*
X002351Y001716D01*
X002347Y001677D01*
X002339Y001639D01*
X002327Y001601D01*
X002312Y001565D01*
X002293Y001531D01*
X002271Y001498D01*
X002246Y001468D01*
X002218Y001441D01*
X002187Y001416D01*
X002154Y001395D01*
X002119Y001377D01*
X002082Y001363D01*
X002045Y001352D01*
X002006Y001345D01*
X001967Y001342D01*
X001928Y001343D01*
X001889Y001348D01*
X001850Y001357D01*
X001813Y001369D01*
X001777Y001385D01*
X001743Y001405D01*
X001711Y001428D01*
X001682Y001454D01*
X001655Y001483D01*
X001631Y001514D01*
X001611Y001548D01*
X001594Y001583D01*
X001581Y001620D01*
X001571Y001658D01*
X001565Y001697D01*
X001563Y001736D01*
X001170Y001736D02*
X001172Y001682D01*
X001177Y001629D01*
X001186Y001576D01*
X001199Y001524D01*
X001215Y001472D01*
X001235Y001422D01*
X001258Y001374D01*
X001285Y001327D01*
X001314Y001282D01*
X001347Y001239D01*
X001382Y001199D01*
X001420Y001161D01*
X001460Y001126D01*
X001503Y001093D01*
X001548Y001064D01*
X001595Y001037D01*
X001643Y001014D01*
X001693Y000994D01*
X001745Y000978D01*
X001797Y000965D01*
X001850Y000956D01*
X001903Y000951D01*
X001957Y000949D01*
D11*
X004127Y003679D03*
X006087Y009958D03*
X015938Y003679D03*
X017898Y009958D03*
D12*
X016898Y009958D03*
X015898Y009958D03*
X016938Y003679D03*
X017938Y003679D03*
X006127Y003679D03*
X005127Y003679D03*
X005087Y009958D03*
X004087Y009958D03*
D13*
X010225Y009545D02*
X010225Y008659D01*
X011485Y008659D02*
X011485Y009545D01*
X013572Y009545D02*
X013572Y008659D01*
D14*
X011485Y011543D03*
D15*
X012356Y011646D02*
X019194Y011646D01*
X019200Y011613D02*
X019404Y011309D01*
X019708Y011105D01*
X020068Y011034D01*
X020310Y011082D01*
X020310Y002627D01*
X020068Y002675D01*
X019708Y002603D01*
X019404Y002400D01*
X019200Y002095D01*
X019129Y001736D01*
X019177Y001494D01*
X002848Y001494D01*
X002896Y001736D01*
X002825Y002095D01*
X002621Y002400D01*
X002317Y002603D01*
X001957Y002675D01*
X001715Y002627D01*
X001715Y011082D01*
X001957Y011034D01*
X002317Y011105D01*
X002621Y011309D01*
X002825Y011613D01*
X002896Y011972D01*
X002848Y012215D01*
X010625Y012215D01*
X010614Y012189D01*
X010614Y010897D01*
X010616Y010893D01*
X010446Y010893D01*
X010107Y011232D01*
X009960Y011293D01*
X005690Y011293D01*
X005543Y011232D01*
X005431Y011120D01*
X004900Y010589D01*
X004788Y010477D01*
X004747Y010379D01*
X004631Y010263D01*
X004552Y010072D01*
X004530Y010142D01*
X004495Y010209D01*
X004451Y010269D01*
X004398Y010323D01*
X004337Y010367D01*
X004270Y010401D01*
X004199Y010424D01*
X004125Y010436D01*
X004087Y010436D01*
X004049Y010436D01*
X003975Y010424D01*
X003904Y010401D01*
X003837Y010367D01*
X003776Y010323D01*
X003723Y010269D01*
X003679Y010209D01*
X003645Y010142D01*
X003621Y010070D01*
X003610Y009996D01*
X003610Y009958D01*
X003610Y009921D01*
X003621Y009847D01*
X003645Y009775D01*
X003679Y009708D01*
X003723Y009647D01*
X003776Y009594D01*
X003837Y009550D01*
X003904Y009516D01*
X003975Y009493D01*
X004049Y009481D01*
X004087Y009481D01*
X004087Y009958D01*
X004087Y009481D01*
X004125Y009481D01*
X004199Y009493D01*
X004270Y009516D01*
X004337Y009550D01*
X004398Y009594D01*
X004451Y009647D01*
X004495Y009708D01*
X004530Y009775D01*
X004552Y009845D01*
X004631Y009654D01*
X004783Y009503D01*
X004980Y009421D01*
X005194Y009421D01*
X005391Y009503D01*
X005540Y009651D01*
X005540Y008916D01*
X004798Y008173D01*
X002442Y008173D01*
X002281Y008106D01*
X002157Y007983D01*
X001897Y007723D01*
X001830Y007561D01*
X001830Y004566D01*
X001897Y004404D01*
X002021Y004280D01*
X002995Y003306D01*
X003157Y003239D01*
X003656Y003239D01*
X003711Y003184D01*
X003814Y003142D01*
X004440Y003142D01*
X004543Y003184D01*
X004622Y003263D01*
X004664Y003366D01*
X004664Y003391D01*
X004671Y003375D01*
X004823Y003224D01*
X005000Y003150D01*
X005000Y002764D01*
X005061Y002617D01*
X005173Y002504D01*
X005433Y002244D01*
X005580Y002183D01*
X016390Y002183D01*
X016537Y002244D01*
X016649Y002357D01*
X017237Y002945D01*
X017298Y003092D01*
X017298Y003279D01*
X017394Y003375D01*
X017473Y003566D01*
X017496Y003496D01*
X017530Y003429D01*
X017574Y003368D01*
X017627Y003315D01*
X017688Y003271D01*
X017755Y003237D01*
X017826Y003213D01*
X017900Y003202D01*
X017938Y003202D01*
X017938Y003679D01*
X017938Y003679D01*
X017938Y003202D01*
X017976Y003202D01*
X018050Y003213D01*
X018121Y003237D01*
X018188Y003271D01*
X018249Y003315D01*
X018302Y003368D01*
X018346Y003429D01*
X018381Y003496D01*
X018404Y003567D01*
X018416Y003642D01*
X018416Y003679D01*
X017938Y003679D01*
X017938Y003679D01*
X018416Y003679D01*
X018416Y003717D01*
X018404Y003791D01*
X018381Y003863D01*
X018346Y003929D01*
X018302Y003990D01*
X018249Y004043D01*
X018188Y004088D01*
X018121Y004122D01*
X018050Y004145D01*
X017976Y004157D01*
X017938Y004157D01*
X017900Y004157D01*
X017826Y004145D01*
X017755Y004122D01*
X017688Y004088D01*
X017627Y004043D01*
X017574Y003990D01*
X017530Y003929D01*
X017496Y003863D01*
X017473Y003793D01*
X017394Y003984D01*
X017338Y004039D01*
X017338Y009638D01*
X017354Y009654D01*
X017361Y009671D01*
X017361Y009645D01*
X017403Y009542D01*
X017482Y009464D01*
X017585Y009421D01*
X018211Y009421D01*
X018314Y009464D01*
X018393Y009542D01*
X018436Y009645D01*
X018436Y010272D01*
X018393Y010375D01*
X018314Y010453D01*
X018211Y010496D01*
X017585Y010496D01*
X017482Y010453D01*
X017403Y010375D01*
X017361Y010272D01*
X017361Y010246D01*
X017354Y010263D01*
X017202Y010414D01*
X017200Y010415D01*
X017200Y011063D01*
X017139Y011210D01*
X017027Y011322D01*
X016917Y011432D01*
X016770Y011493D01*
X015230Y011493D01*
X015083Y011432D01*
X014971Y011320D01*
X014670Y011019D01*
X014653Y011012D01*
X014541Y010900D01*
X014534Y010893D01*
X012354Y010893D01*
X012356Y010897D01*
X012356Y012189D01*
X012345Y012215D01*
X019177Y012215D01*
X019129Y011972D01*
X019200Y011613D01*
X019338Y011407D02*
X016942Y011407D01*
X017156Y011169D02*
X019613Y011169D01*
X020310Y010930D02*
X017200Y010930D01*
X017200Y010692D02*
X020310Y010692D01*
X020310Y010453D02*
X018314Y010453D01*
X018436Y010215D02*
X020310Y010215D01*
X020310Y009976D02*
X018436Y009976D01*
X018436Y009738D02*
X020310Y009738D01*
X020310Y009499D02*
X018350Y009499D01*
X017446Y009499D02*
X017338Y009499D01*
X017338Y009261D02*
X020310Y009261D01*
X020310Y009022D02*
X017338Y009022D01*
X017338Y008784D02*
X020310Y008784D01*
X020310Y008545D02*
X017338Y008545D01*
X017338Y008307D02*
X020310Y008307D01*
X020310Y008068D02*
X017338Y008068D01*
X017338Y007830D02*
X020310Y007830D01*
X020310Y007591D02*
X017338Y007591D01*
X017338Y007353D02*
X020310Y007353D01*
X020310Y007114D02*
X017338Y007114D01*
X017338Y006876D02*
X020310Y006876D01*
X020310Y006637D02*
X017338Y006637D01*
X017338Y006399D02*
X020310Y006399D01*
X020310Y006160D02*
X017338Y006160D01*
X017338Y005922D02*
X020310Y005922D01*
X020310Y005683D02*
X017338Y005683D01*
X017338Y005445D02*
X020310Y005445D01*
X020310Y005206D02*
X017338Y005206D01*
X017338Y004968D02*
X020310Y004968D01*
X020310Y004729D02*
X017338Y004729D01*
X017338Y004491D02*
X020310Y004491D01*
X020310Y004252D02*
X017338Y004252D01*
X017364Y004014D02*
X017597Y004014D01*
X017938Y004014D02*
X017938Y004014D01*
X017938Y004157D02*
X017938Y003679D01*
X017938Y003679D01*
X017938Y004157D01*
X018279Y004014D02*
X020310Y004014D01*
X020310Y003775D02*
X018406Y003775D01*
X018394Y003537D02*
X020310Y003537D01*
X020310Y003298D02*
X018226Y003298D01*
X017938Y003298D02*
X017938Y003298D01*
X017650Y003298D02*
X017317Y003298D01*
X017285Y003060D02*
X020310Y003060D01*
X020310Y002821D02*
X017114Y002821D01*
X016875Y002583D02*
X019678Y002583D01*
X019367Y002344D02*
X016637Y002344D01*
X016310Y002583D02*
X005660Y002583D01*
X005400Y002843D01*
X005400Y003406D01*
X005127Y003679D01*
X004701Y004014D02*
X004656Y004014D01*
X004664Y003992D02*
X004622Y004095D01*
X004543Y004174D01*
X004440Y004217D01*
X003814Y004217D01*
X003711Y004174D01*
X003656Y004119D01*
X003426Y004119D01*
X002710Y004836D01*
X002710Y007291D01*
X002712Y007293D01*
X005068Y007293D01*
X005229Y007360D01*
X006229Y008360D01*
X006353Y008484D01*
X006420Y008646D01*
X006420Y009429D01*
X006503Y009464D01*
X006582Y009542D01*
X006624Y009645D01*
X006624Y010272D01*
X006582Y010375D01*
X006503Y010453D01*
X006406Y010493D01*
X009714Y010493D01*
X009941Y010267D01*
X009981Y010227D01*
X009816Y010158D01*
X009612Y009955D01*
X009502Y009689D01*
X009502Y008516D01*
X009612Y008250D01*
X009816Y008047D01*
X010081Y007936D01*
X010369Y007936D01*
X010635Y008047D01*
X010838Y008250D01*
X010888Y008369D01*
X010889Y008366D01*
X010933Y008290D01*
X010985Y008221D01*
X011047Y008160D01*
X011116Y008107D01*
X011191Y008064D01*
X011271Y008030D01*
X011355Y008008D01*
X011442Y007996D01*
X011457Y007996D01*
X011457Y009075D01*
X011513Y009075D01*
X011513Y009130D01*
X012148Y009130D01*
X012148Y009589D01*
X012137Y009675D01*
X012114Y009759D01*
X012081Y009839D01*
X012037Y009914D01*
X011984Y009983D01*
X011923Y010045D01*
X011860Y010093D01*
X013197Y010093D01*
X013134Y010045D01*
X013072Y009983D01*
X013019Y009914D01*
X012976Y009839D01*
X012942Y009759D01*
X012920Y009675D01*
X012909Y009589D01*
X012909Y009130D01*
X013544Y009130D01*
X013544Y009075D01*
X012909Y009075D01*
X012909Y008616D01*
X012920Y008530D01*
X012942Y008446D01*
X012976Y008366D01*
X013019Y008290D01*
X013072Y008221D01*
X013134Y008160D01*
X013202Y008107D01*
X013278Y008064D01*
X013358Y008030D01*
X013442Y008008D01*
X013528Y007996D01*
X013544Y007996D01*
X013544Y009075D01*
X013599Y009075D01*
X013599Y009130D01*
X014234Y009130D01*
X014234Y009589D01*
X014223Y009675D01*
X014201Y009759D01*
X014167Y009839D01*
X014124Y009914D01*
X014071Y009983D01*
X014010Y010045D01*
X013946Y010093D01*
X014780Y010093D01*
X014927Y010154D01*
X015100Y010327D01*
X015117Y010334D01*
X015476Y010693D01*
X016400Y010693D01*
X016400Y010161D01*
X016363Y010072D01*
X016341Y010142D01*
X016306Y010209D01*
X016262Y010269D01*
X016209Y010323D01*
X016148Y010367D01*
X016081Y010401D01*
X016010Y010424D01*
X015936Y010436D01*
X015898Y010436D01*
X015860Y010436D01*
X015786Y010424D01*
X015715Y010401D01*
X015648Y010367D01*
X015587Y010323D01*
X015534Y010269D01*
X015490Y010209D01*
X015456Y010142D01*
X015432Y010070D01*
X015421Y009996D01*
X015421Y009958D01*
X015421Y009921D01*
X015432Y009847D01*
X015456Y009775D01*
X015490Y009708D01*
X015534Y009647D01*
X015587Y009594D01*
X015648Y009550D01*
X015715Y009516D01*
X015786Y009493D01*
X015860Y009481D01*
X015898Y009481D01*
X015898Y009958D01*
X015898Y009958D01*
X015898Y009481D01*
X015936Y009481D01*
X016010Y009493D01*
X016081Y009516D01*
X016148Y009550D01*
X016209Y009594D01*
X016262Y009647D01*
X016306Y009708D01*
X016341Y009775D01*
X016363Y009845D01*
X016442Y009654D01*
X016458Y009638D01*
X016458Y004035D01*
X016433Y004095D01*
X016354Y004174D01*
X016251Y004217D01*
X015625Y004217D01*
X015522Y004174D01*
X015443Y004095D01*
X015401Y003992D01*
X015401Y003366D01*
X015443Y003263D01*
X015522Y003184D01*
X015625Y003142D01*
X016251Y003142D01*
X016339Y003178D01*
X016144Y002983D01*
X005826Y002983D01*
X005800Y003009D01*
X005800Y003331D01*
X005816Y003315D01*
X005877Y003271D01*
X005944Y003237D01*
X006015Y003213D01*
X006089Y003202D01*
X006127Y003202D01*
X006165Y003202D01*
X006239Y003213D01*
X006310Y003237D01*
X006377Y003271D01*
X006438Y003315D01*
X006491Y003368D01*
X006535Y003429D01*
X006570Y003496D01*
X006593Y003567D01*
X006604Y003642D01*
X006604Y003679D01*
X006127Y003679D01*
X006127Y003202D01*
X006127Y003679D01*
X006127Y003679D01*
X006127Y003679D01*
X006604Y003679D01*
X006604Y003717D01*
X006593Y003791D01*
X006570Y003863D01*
X006535Y003929D01*
X006491Y003990D01*
X006438Y004043D01*
X006377Y004088D01*
X006310Y004122D01*
X006239Y004145D01*
X006165Y004157D01*
X006127Y004157D01*
X006089Y004157D01*
X006015Y004145D01*
X005944Y004122D01*
X005877Y004088D01*
X005816Y004043D01*
X005763Y003990D01*
X005719Y003929D01*
X005685Y003863D01*
X005662Y003793D01*
X005583Y003984D01*
X005431Y004135D01*
X005234Y004217D01*
X005020Y004217D01*
X004823Y004135D01*
X004671Y003984D01*
X004664Y003967D01*
X004664Y003992D01*
X005553Y004014D02*
X005786Y004014D01*
X006127Y004014D02*
X006127Y004014D01*
X006127Y004157D02*
X006127Y003679D01*
X006127Y003679D01*
X006127Y004157D01*
X006468Y004014D02*
X015409Y004014D01*
X015401Y003775D02*
X006595Y003775D01*
X006583Y003537D02*
X015401Y003537D01*
X015429Y003298D02*
X006415Y003298D01*
X006127Y003298D02*
X006127Y003298D01*
X005839Y003298D02*
X005800Y003298D01*
X005800Y003060D02*
X016221Y003060D01*
X016310Y002583D02*
X016898Y003171D01*
X016898Y003719D01*
X017461Y003537D02*
X017482Y003537D01*
X017938Y003537D02*
X017938Y003537D01*
X017938Y003775D02*
X017938Y003775D01*
X016458Y004252D02*
X003293Y004252D01*
X003055Y004491D02*
X016458Y004491D01*
X016458Y004729D02*
X002816Y004729D01*
X002710Y004968D02*
X016458Y004968D01*
X016458Y005206D02*
X002710Y005206D01*
X002710Y005445D02*
X016458Y005445D01*
X016458Y005683D02*
X002710Y005683D01*
X002710Y005922D02*
X016458Y005922D01*
X016458Y006160D02*
X002710Y006160D01*
X002710Y006399D02*
X016458Y006399D01*
X016458Y006637D02*
X002710Y006637D01*
X002710Y006876D02*
X016458Y006876D01*
X016458Y007114D02*
X002710Y007114D01*
X001830Y007114D02*
X001715Y007114D01*
X001715Y007353D02*
X001830Y007353D01*
X001843Y007591D02*
X001715Y007591D01*
X001715Y007830D02*
X002004Y007830D01*
X002243Y008068D02*
X001715Y008068D01*
X001715Y008307D02*
X004931Y008307D01*
X005170Y008545D02*
X001715Y008545D01*
X001715Y008784D02*
X005408Y008784D01*
X005540Y009022D02*
X001715Y009022D01*
X001715Y009261D02*
X005540Y009261D01*
X005540Y009499D02*
X005383Y009499D01*
X004791Y009499D02*
X004219Y009499D01*
X004087Y009499D02*
X004087Y009499D01*
X003955Y009499D02*
X001715Y009499D01*
X001715Y009738D02*
X003664Y009738D01*
X003610Y009958D02*
X004087Y009958D01*
X004087Y009958D01*
X004087Y009958D01*
X003610Y009958D01*
X003610Y009976D02*
X001715Y009976D01*
X001715Y010215D02*
X003683Y010215D01*
X004087Y010215D02*
X004087Y010215D01*
X004087Y010436D02*
X004087Y009958D01*
X004087Y009958D01*
X004087Y010436D01*
X004491Y010215D02*
X004611Y010215D01*
X004778Y010453D02*
X001715Y010453D01*
X001715Y010692D02*
X005003Y010692D01*
X004900Y010589D02*
X004900Y010589D01*
X005127Y010250D02*
X005127Y009998D01*
X005087Y009958D01*
X005127Y010250D02*
X005770Y010893D01*
X009880Y010893D01*
X010280Y010493D01*
X014700Y010493D01*
X014880Y010673D01*
X014890Y010673D01*
X015310Y011093D01*
X016690Y011093D01*
X016800Y010983D01*
X016800Y010056D01*
X016898Y009958D01*
X016408Y009738D02*
X016322Y009738D01*
X016458Y009499D02*
X016030Y009499D01*
X015898Y009499D02*
X015898Y009499D01*
X015766Y009499D02*
X014234Y009499D01*
X014234Y009261D02*
X016458Y009261D01*
X016458Y009022D02*
X014234Y009022D01*
X014234Y009075D02*
X013599Y009075D01*
X013599Y007996D01*
X013615Y007996D01*
X013701Y008008D01*
X013785Y008030D01*
X013865Y008064D01*
X013941Y008107D01*
X014010Y008160D01*
X014071Y008221D01*
X014124Y008290D01*
X014167Y008366D01*
X014201Y008446D01*
X014223Y008530D01*
X014234Y008616D01*
X014234Y009075D01*
X014234Y008784D02*
X016458Y008784D01*
X016458Y008545D02*
X014225Y008545D01*
X014133Y008307D02*
X016458Y008307D01*
X016458Y008068D02*
X013874Y008068D01*
X013599Y008068D02*
X013544Y008068D01*
X013544Y008307D02*
X013599Y008307D01*
X013599Y008545D02*
X013544Y008545D01*
X013544Y008784D02*
X013599Y008784D01*
X013599Y009022D02*
X013544Y009022D01*
X012909Y009022D02*
X012148Y009022D01*
X012148Y009075D02*
X011513Y009075D01*
X011513Y007996D01*
X011528Y007996D01*
X011615Y008008D01*
X011699Y008030D01*
X011779Y008064D01*
X011854Y008107D01*
X011923Y008160D01*
X011984Y008221D01*
X012037Y008290D01*
X012081Y008366D01*
X012114Y008446D01*
X012137Y008530D01*
X012148Y008616D01*
X012148Y009075D01*
X012148Y009261D02*
X012909Y009261D01*
X012909Y009499D02*
X012148Y009499D01*
X012120Y009738D02*
X012937Y009738D01*
X013067Y009976D02*
X011990Y009976D01*
X012356Y010930D02*
X014571Y010930D01*
X014820Y011169D02*
X012356Y011169D01*
X012356Y011407D02*
X015058Y011407D01*
X015474Y010692D02*
X016400Y010692D01*
X016400Y010453D02*
X015236Y010453D01*
X014987Y010215D02*
X015494Y010215D01*
X015421Y009976D02*
X014076Y009976D01*
X014206Y009738D02*
X015475Y009738D01*
X015421Y009958D02*
X015898Y009958D01*
X015898Y009958D01*
X015421Y009958D01*
X015898Y009958D02*
X015898Y010436D01*
X015898Y009958D01*
X015898Y009958D01*
X015898Y009976D02*
X015898Y009976D01*
X015898Y009738D02*
X015898Y009738D01*
X015898Y010215D02*
X015898Y010215D01*
X016302Y010215D02*
X016400Y010215D01*
X017200Y010453D02*
X017482Y010453D01*
X019146Y011884D02*
X012356Y011884D01*
X012356Y012123D02*
X019159Y012123D01*
X012909Y008784D02*
X012148Y008784D01*
X012139Y008545D02*
X012918Y008545D01*
X013010Y008307D02*
X012047Y008307D01*
X011787Y008068D02*
X013269Y008068D01*
X011513Y008068D02*
X011457Y008068D01*
X011457Y008307D02*
X011513Y008307D01*
X011183Y008068D02*
X010656Y008068D01*
X010862Y008307D02*
X010923Y008307D01*
X011457Y008545D02*
X011513Y008545D01*
X011513Y008784D02*
X011457Y008784D01*
X011457Y009022D02*
X011513Y009022D01*
X009794Y008068D02*
X005937Y008068D01*
X006176Y008307D02*
X009589Y008307D01*
X009502Y008545D02*
X006378Y008545D01*
X006420Y008784D02*
X009502Y008784D01*
X009502Y009022D02*
X006420Y009022D01*
X006420Y009261D02*
X009502Y009261D01*
X009502Y009499D02*
X006539Y009499D01*
X006624Y009738D02*
X009522Y009738D01*
X009634Y009976D02*
X006624Y009976D01*
X006624Y010215D02*
X009953Y010215D01*
X009754Y010453D02*
X006503Y010453D01*
X005480Y011169D02*
X002412Y011169D01*
X002687Y011407D02*
X010614Y011407D01*
X010614Y011646D02*
X002831Y011646D01*
X002879Y011884D02*
X010614Y011884D01*
X010614Y012123D02*
X002866Y012123D01*
X001715Y010930D02*
X005241Y010930D01*
X004087Y009976D02*
X004087Y009976D01*
X004087Y009738D02*
X004087Y009738D01*
X004510Y009738D02*
X004597Y009738D01*
X005699Y007830D02*
X016458Y007830D01*
X016458Y007591D02*
X005460Y007591D01*
X005211Y007353D02*
X016458Y007353D01*
X010614Y010930D02*
X010409Y010930D01*
X010614Y011169D02*
X010170Y011169D01*
X001830Y006876D02*
X001715Y006876D01*
X001715Y006637D02*
X001830Y006637D01*
X001830Y006399D02*
X001715Y006399D01*
X001715Y006160D02*
X001830Y006160D01*
X001830Y005922D02*
X001715Y005922D01*
X001715Y005683D02*
X001830Y005683D01*
X001830Y005445D02*
X001715Y005445D01*
X001715Y005206D02*
X001830Y005206D01*
X001830Y004968D02*
X001715Y004968D01*
X001715Y004729D02*
X001830Y004729D01*
X001861Y004491D02*
X001715Y004491D01*
X001715Y004252D02*
X002049Y004252D01*
X002287Y004014D02*
X001715Y004014D01*
X001715Y003775D02*
X002526Y003775D01*
X002764Y003537D02*
X001715Y003537D01*
X001715Y003298D02*
X003014Y003298D01*
X002347Y002583D02*
X005095Y002583D01*
X005000Y002821D02*
X001715Y002821D01*
X001715Y003060D02*
X005000Y003060D01*
X004748Y003298D02*
X004636Y003298D01*
X005333Y002344D02*
X002658Y002344D01*
X002818Y002106D02*
X019207Y002106D01*
X019155Y001867D02*
X002870Y001867D01*
X002875Y001629D02*
X019150Y001629D01*
X006127Y003537D02*
X006127Y003537D01*
X006127Y003775D02*
X006127Y003775D01*
D16*
X007810Y004929D03*
X008930Y004299D03*
X011050Y001849D03*
X017420Y002149D03*
X019190Y005449D03*
X019130Y007199D03*
X008820Y008699D03*
X003220Y005949D03*
D17*
X002270Y004653D02*
X002270Y007473D01*
X002530Y007733D01*
X004980Y007733D01*
X005980Y008733D01*
X005980Y009851D01*
X006087Y009958D01*
X002270Y004653D02*
X003244Y003679D01*
X004127Y003679D01*
X016898Y003719D02*
X016938Y003679D01*
X016898Y003719D02*
X016898Y009958D01*
M02*
