G75*
%MOIN*%
%OFA0B0*%
%FSLAX24Y24*%
%IPPOS*%
%LPD*%
%AMOC8*
5,1,8,0,0,1.08239X$1,22.5*
%
%ADD10C,0.0030*%
%ADD11C,0.0050*%
D10*
X003941Y004421D02*
X004003Y004360D01*
X003941Y004421D02*
X003941Y004545D01*
X004003Y004606D01*
X004064Y004606D01*
X004126Y004545D01*
X004126Y004421D01*
X004188Y004360D01*
X004250Y004360D01*
X004311Y004421D01*
X004311Y004545D01*
X004250Y004606D01*
X004311Y004728D02*
X004311Y004851D01*
X004311Y004790D02*
X003941Y004790D01*
X003941Y004851D02*
X003941Y004728D01*
X004003Y004973D02*
X003941Y005035D01*
X003941Y005159D01*
X004003Y005220D01*
X004126Y005220D01*
X004126Y005097D01*
X004003Y004973D02*
X004250Y004973D01*
X004311Y005035D01*
X004311Y005159D01*
X004250Y005220D01*
X005021Y005269D02*
X005021Y005145D01*
X005083Y005083D01*
X005330Y005083D01*
X005391Y005145D01*
X005391Y005269D01*
X005330Y005330D01*
X005083Y005330D02*
X005021Y005269D01*
X005083Y004962D02*
X005021Y004900D01*
X005021Y004777D01*
X005083Y004715D01*
X005330Y004715D01*
X005391Y004777D01*
X005391Y004900D01*
X005330Y004962D01*
X005391Y004594D02*
X005144Y004594D01*
X005021Y004470D01*
X005144Y004347D01*
X005391Y004347D01*
X006001Y004439D02*
X006063Y004377D01*
X006310Y004377D01*
X006371Y004439D01*
X006371Y004562D01*
X006310Y004624D01*
X006186Y004624D02*
X006186Y004500D01*
X006186Y004624D02*
X006063Y004624D01*
X006001Y004562D01*
X006001Y004439D01*
X006001Y004745D02*
X006371Y004745D01*
X006001Y004992D01*
X006371Y004992D01*
X006371Y005113D02*
X006001Y005113D01*
X006001Y005299D01*
X006063Y005360D01*
X006310Y005360D01*
X006371Y005299D01*
X006371Y005113D01*
X004198Y008186D02*
X003951Y008186D01*
X003889Y008247D01*
X003889Y008371D01*
X003951Y008433D01*
X004074Y008433D01*
X004074Y008309D01*
X004198Y008186D02*
X004259Y008247D01*
X004259Y008371D01*
X004198Y008433D01*
X004259Y008554D02*
X003889Y008554D01*
X003889Y008801D02*
X004259Y008801D01*
X004259Y008922D02*
X004259Y009108D01*
X004198Y009169D01*
X003951Y009169D01*
X003889Y009108D01*
X003889Y008922D01*
X004259Y008922D01*
X004259Y008554D02*
X003889Y008801D01*
X004979Y008766D02*
X005041Y008704D01*
X005288Y008704D01*
X005349Y008766D01*
X005349Y008889D01*
X005288Y008951D01*
X005288Y009072D02*
X005041Y009072D01*
X004979Y009134D01*
X004979Y009258D01*
X005041Y009319D01*
X005288Y009319D02*
X005349Y009258D01*
X005349Y009134D01*
X005288Y009072D01*
X005041Y008951D02*
X004979Y008889D01*
X004979Y008766D01*
X005102Y008583D02*
X004979Y008459D01*
X005102Y008336D01*
X005349Y008336D01*
X005349Y008583D02*
X005102Y008583D01*
X005930Y008596D02*
X005930Y008473D01*
X005992Y008411D01*
X006115Y008473D02*
X006177Y008411D01*
X006239Y008411D01*
X006300Y008473D01*
X006300Y008596D01*
X006239Y008658D01*
X006300Y008780D02*
X006300Y008903D01*
X006300Y008841D02*
X005930Y008841D01*
X005930Y008780D02*
X005930Y008903D01*
X005992Y009025D02*
X005930Y009087D01*
X005930Y009210D01*
X005992Y009272D01*
X006115Y009272D01*
X006115Y009149D01*
X006239Y009272D02*
X006300Y009210D01*
X006300Y009087D01*
X006239Y009025D01*
X005992Y009025D01*
X005992Y008658D02*
X005930Y008596D01*
X005992Y008658D02*
X006054Y008658D01*
X006115Y008596D01*
X006115Y008473D01*
X015689Y008554D02*
X016059Y008554D01*
X015689Y008801D01*
X016059Y008801D01*
X016059Y008922D02*
X016059Y009108D01*
X015998Y009169D01*
X015751Y009169D01*
X015689Y009108D01*
X015689Y008922D01*
X016059Y008922D01*
X016759Y008994D02*
X016821Y008932D01*
X017068Y008932D01*
X017129Y008994D01*
X017129Y009118D01*
X017068Y009179D01*
X016821Y009179D02*
X016759Y009118D01*
X016759Y008994D01*
X016821Y008811D02*
X016759Y008749D01*
X016759Y008626D01*
X016821Y008564D01*
X017068Y008564D01*
X017129Y008626D01*
X017129Y008749D01*
X017068Y008811D01*
X017129Y008443D02*
X016882Y008443D01*
X016759Y008319D01*
X016882Y008196D01*
X017129Y008196D01*
X017759Y008547D02*
X017759Y008671D01*
X017821Y008733D01*
X017882Y008733D01*
X017944Y008671D01*
X017944Y008547D01*
X018006Y008486D01*
X018068Y008486D01*
X018129Y008547D01*
X018129Y008671D01*
X018068Y008733D01*
X018129Y008854D02*
X018129Y008977D01*
X018129Y008916D02*
X017759Y008916D01*
X017759Y008977D02*
X017759Y008854D01*
X017821Y009100D02*
X017759Y009161D01*
X017759Y009285D01*
X017821Y009346D01*
X017944Y009346D01*
X017944Y009223D01*
X017821Y009100D02*
X018068Y009100D01*
X018129Y009161D01*
X018129Y009285D01*
X018068Y009346D01*
X017759Y008547D02*
X017821Y008486D01*
X016059Y008371D02*
X016059Y008247D01*
X015998Y008186D01*
X015751Y008186D01*
X015689Y008247D01*
X015689Y008371D01*
X015751Y008433D01*
X015874Y008433D01*
X015874Y008309D01*
X015998Y008433D02*
X016059Y008371D01*
X016743Y005390D02*
X016681Y005329D01*
X016681Y005205D01*
X016743Y005143D01*
X016990Y005143D01*
X017051Y005205D01*
X017051Y005329D01*
X016990Y005390D01*
X016990Y005022D02*
X017051Y004960D01*
X017051Y004837D01*
X016990Y004775D01*
X016743Y004775D01*
X016681Y004837D01*
X016681Y004960D01*
X016743Y005022D01*
X016804Y004654D02*
X017051Y004654D01*
X016804Y004654D02*
X016681Y004530D01*
X016804Y004407D01*
X017051Y004407D01*
X017741Y004499D02*
X017741Y004622D01*
X017803Y004684D01*
X017926Y004684D01*
X017926Y004560D01*
X017803Y004437D02*
X017741Y004499D01*
X017803Y004437D02*
X018050Y004437D01*
X018111Y004499D01*
X018111Y004622D01*
X018050Y004684D01*
X018111Y004805D02*
X017741Y004805D01*
X017741Y005052D02*
X018111Y004805D01*
X018111Y005052D02*
X017741Y005052D01*
X017741Y005173D02*
X017741Y005359D01*
X017803Y005420D01*
X018050Y005420D01*
X018111Y005359D01*
X018111Y005173D01*
X017741Y005173D01*
X016151Y005099D02*
X016151Y004975D01*
X016090Y004913D01*
X015843Y004913D01*
X015781Y004975D01*
X015781Y005099D01*
X015843Y005160D01*
X015966Y005160D01*
X015966Y005037D01*
X016090Y005160D02*
X016151Y005099D01*
X016151Y004791D02*
X016151Y004668D01*
X016151Y004730D02*
X015781Y004730D01*
X015781Y004791D02*
X015781Y004668D01*
X015843Y004546D02*
X015781Y004485D01*
X015781Y004361D01*
X015843Y004300D01*
X015966Y004361D02*
X015966Y004485D01*
X015904Y004546D01*
X015843Y004546D01*
X015966Y004361D02*
X016028Y004300D01*
X016090Y004300D01*
X016151Y004361D01*
X016151Y004485D01*
X016090Y004546D01*
D11*
X001957Y000949D02*
X001170Y000949D01*
X001957Y000949D02*
X020068Y000949D01*
X019674Y001736D02*
X019676Y001775D01*
X019682Y001814D01*
X019692Y001852D01*
X019705Y001889D01*
X019722Y001924D01*
X019742Y001958D01*
X019766Y001989D01*
X019793Y002018D01*
X019822Y002044D01*
X019854Y002067D01*
X019888Y002087D01*
X019924Y002103D01*
X019961Y002115D01*
X020000Y002124D01*
X020039Y002129D01*
X020078Y002130D01*
X020117Y002127D01*
X020156Y002120D01*
X020193Y002109D01*
X020230Y002095D01*
X020265Y002077D01*
X020298Y002056D01*
X020329Y002031D01*
X020357Y002004D01*
X020382Y001974D01*
X020404Y001941D01*
X020423Y001907D01*
X020438Y001871D01*
X020450Y001833D01*
X020458Y001795D01*
X020462Y001756D01*
X020462Y001716D01*
X020458Y001677D01*
X020450Y001639D01*
X020438Y001601D01*
X020423Y001565D01*
X020404Y001531D01*
X020382Y001498D01*
X020357Y001468D01*
X020329Y001441D01*
X020298Y001416D01*
X020265Y001395D01*
X020230Y001377D01*
X020193Y001363D01*
X020156Y001352D01*
X020117Y001345D01*
X020078Y001342D01*
X020039Y001343D01*
X020000Y001348D01*
X019961Y001357D01*
X019924Y001369D01*
X019888Y001385D01*
X019854Y001405D01*
X019822Y001428D01*
X019793Y001454D01*
X019766Y001483D01*
X019742Y001514D01*
X019722Y001548D01*
X019705Y001583D01*
X019692Y001620D01*
X019682Y001658D01*
X019676Y001697D01*
X019674Y001736D01*
X020068Y000949D02*
X020122Y000951D01*
X020175Y000956D01*
X020228Y000965D01*
X020280Y000978D01*
X020332Y000994D01*
X020382Y001014D01*
X020430Y001037D01*
X020477Y001064D01*
X020522Y001093D01*
X020565Y001126D01*
X020605Y001161D01*
X020643Y001199D01*
X020678Y001239D01*
X020711Y001282D01*
X020740Y001327D01*
X020767Y001374D01*
X020790Y001422D01*
X020810Y001472D01*
X020826Y001524D01*
X020839Y001576D01*
X020848Y001629D01*
X020853Y001682D01*
X020855Y001736D01*
X020855Y011972D01*
X019674Y011972D02*
X019676Y012011D01*
X019682Y012050D01*
X019692Y012088D01*
X019705Y012125D01*
X019722Y012160D01*
X019742Y012194D01*
X019766Y012225D01*
X019793Y012254D01*
X019822Y012280D01*
X019854Y012303D01*
X019888Y012323D01*
X019924Y012339D01*
X019961Y012351D01*
X020000Y012360D01*
X020039Y012365D01*
X020078Y012366D01*
X020117Y012363D01*
X020156Y012356D01*
X020193Y012345D01*
X020230Y012331D01*
X020265Y012313D01*
X020298Y012292D01*
X020329Y012267D01*
X020357Y012240D01*
X020382Y012210D01*
X020404Y012177D01*
X020423Y012143D01*
X020438Y012107D01*
X020450Y012069D01*
X020458Y012031D01*
X020462Y011992D01*
X020462Y011952D01*
X020458Y011913D01*
X020450Y011875D01*
X020438Y011837D01*
X020423Y011801D01*
X020404Y011767D01*
X020382Y011734D01*
X020357Y011704D01*
X020329Y011677D01*
X020298Y011652D01*
X020265Y011631D01*
X020230Y011613D01*
X020193Y011599D01*
X020156Y011588D01*
X020117Y011581D01*
X020078Y011578D01*
X020039Y011579D01*
X020000Y011584D01*
X019961Y011593D01*
X019924Y011605D01*
X019888Y011621D01*
X019854Y011641D01*
X019822Y011664D01*
X019793Y011690D01*
X019766Y011719D01*
X019742Y011750D01*
X019722Y011784D01*
X019705Y011819D01*
X019692Y011856D01*
X019682Y011894D01*
X019676Y011933D01*
X019674Y011972D01*
X020068Y012759D02*
X020122Y012757D01*
X020175Y012752D01*
X020228Y012743D01*
X020280Y012730D01*
X020332Y012714D01*
X020382Y012694D01*
X020430Y012671D01*
X020477Y012644D01*
X020522Y012615D01*
X020565Y012582D01*
X020605Y012547D01*
X020643Y012509D01*
X020678Y012469D01*
X020711Y012426D01*
X020740Y012381D01*
X020767Y012334D01*
X020790Y012286D01*
X020810Y012236D01*
X020826Y012184D01*
X020839Y012132D01*
X020848Y012079D01*
X020853Y012026D01*
X020855Y011972D01*
X020068Y012760D02*
X001957Y012760D01*
X001563Y011972D02*
X001565Y012011D01*
X001571Y012050D01*
X001581Y012088D01*
X001594Y012125D01*
X001611Y012160D01*
X001631Y012194D01*
X001655Y012225D01*
X001682Y012254D01*
X001711Y012280D01*
X001743Y012303D01*
X001777Y012323D01*
X001813Y012339D01*
X001850Y012351D01*
X001889Y012360D01*
X001928Y012365D01*
X001967Y012366D01*
X002006Y012363D01*
X002045Y012356D01*
X002082Y012345D01*
X002119Y012331D01*
X002154Y012313D01*
X002187Y012292D01*
X002218Y012267D01*
X002246Y012240D01*
X002271Y012210D01*
X002293Y012177D01*
X002312Y012143D01*
X002327Y012107D01*
X002339Y012069D01*
X002347Y012031D01*
X002351Y011992D01*
X002351Y011952D01*
X002347Y011913D01*
X002339Y011875D01*
X002327Y011837D01*
X002312Y011801D01*
X002293Y011767D01*
X002271Y011734D01*
X002246Y011704D01*
X002218Y011677D01*
X002187Y011652D01*
X002154Y011631D01*
X002119Y011613D01*
X002082Y011599D01*
X002045Y011588D01*
X002006Y011581D01*
X001967Y011578D01*
X001928Y011579D01*
X001889Y011584D01*
X001850Y011593D01*
X001813Y011605D01*
X001777Y011621D01*
X001743Y011641D01*
X001711Y011664D01*
X001682Y011690D01*
X001655Y011719D01*
X001631Y011750D01*
X001611Y011784D01*
X001594Y011819D01*
X001581Y011856D01*
X001571Y011894D01*
X001565Y011933D01*
X001563Y011972D01*
X001170Y011972D02*
X001172Y012026D01*
X001177Y012079D01*
X001186Y012132D01*
X001199Y012184D01*
X001215Y012236D01*
X001235Y012286D01*
X001258Y012334D01*
X001285Y012381D01*
X001314Y012426D01*
X001347Y012469D01*
X001382Y012509D01*
X001420Y012547D01*
X001460Y012582D01*
X001503Y012615D01*
X001548Y012644D01*
X001595Y012671D01*
X001643Y012694D01*
X001693Y012714D01*
X001745Y012730D01*
X001797Y012743D01*
X001850Y012752D01*
X001903Y012757D01*
X001957Y012759D01*
X001170Y011972D02*
X001170Y001736D01*
X001563Y001736D02*
X001565Y001775D01*
X001571Y001814D01*
X001581Y001852D01*
X001594Y001889D01*
X001611Y001924D01*
X001631Y001958D01*
X001655Y001989D01*
X001682Y002018D01*
X001711Y002044D01*
X001743Y002067D01*
X001777Y002087D01*
X001813Y002103D01*
X001850Y002115D01*
X001889Y002124D01*
X001928Y002129D01*
X001967Y002130D01*
X002006Y002127D01*
X002045Y002120D01*
X002082Y002109D01*
X002119Y002095D01*
X002154Y002077D01*
X002187Y002056D01*
X002218Y002031D01*
X002246Y002004D01*
X002271Y001974D01*
X002293Y001941D01*
X002312Y001907D01*
X002327Y001871D01*
X002339Y001833D01*
X002347Y001795D01*
X002351Y001756D01*
X002351Y001716D01*
X002347Y001677D01*
X002339Y001639D01*
X002327Y001601D01*
X002312Y001565D01*
X002293Y001531D01*
X002271Y001498D01*
X002246Y001468D01*
X002218Y001441D01*
X002187Y001416D01*
X002154Y001395D01*
X002119Y001377D01*
X002082Y001363D01*
X002045Y001352D01*
X002006Y001345D01*
X001967Y001342D01*
X001928Y001343D01*
X001889Y001348D01*
X001850Y001357D01*
X001813Y001369D01*
X001777Y001385D01*
X001743Y001405D01*
X001711Y001428D01*
X001682Y001454D01*
X001655Y001483D01*
X001631Y001514D01*
X001611Y001548D01*
X001594Y001583D01*
X001581Y001620D01*
X001571Y001658D01*
X001565Y001697D01*
X001563Y001736D01*
X001170Y001736D02*
X001172Y001682D01*
X001177Y001629D01*
X001186Y001576D01*
X001199Y001524D01*
X001215Y001472D01*
X001235Y001422D01*
X001258Y001374D01*
X001285Y001327D01*
X001314Y001282D01*
X001347Y001239D01*
X001382Y001199D01*
X001420Y001161D01*
X001460Y001126D01*
X001503Y001093D01*
X001548Y001064D01*
X001595Y001037D01*
X001643Y001014D01*
X001693Y000994D01*
X001745Y000978D01*
X001797Y000965D01*
X001850Y000956D01*
X001903Y000951D01*
X001957Y000949D01*
M02*
