%
M48
M72
T01C0.0120
T02C0.0315
T03C0.0591
T04C0.0787
%
T01
X17420Y2149
X19190Y5449
X19130Y7199
X11050Y1849
X8930Y4299
X7810Y4929
X3220Y5949
X8820Y8699
T02
X17938Y3679
X16938Y3679
X15938Y3679
X6127Y3679
X5127Y3679
X4127Y3679
X4087Y9958
X5087Y9958
X6087Y9958
X15898Y9958
X16898Y9958
X17898Y9958
T03
X13572Y9102
X11485Y9102
X10225Y9102
T04
X11485Y11543
M30
