G75*
%MOIN*%
%OFA0B0*%
%FSLAX24Y24*%
%IPPOS*%
%LPD*%
%AMOC8*
5,1,8,0,0,1.08239X$1,22.5*
%
%ADD10C,0.0000*%
%ADD11C,0.4500*%
%ADD12R,0.0515X0.0515*%
%ADD13C,0.0515*%
%ADD14C,0.0160*%
%ADD15C,0.0240*%
%ADD16C,0.0356*%
D10*
X001058Y001443D02*
X002711Y001443D01*
X003460Y001443D01*
X003420Y001443D01*
X003460Y001443D02*
X003814Y001443D01*
X003824Y001442D01*
X003834Y001438D01*
X003842Y001432D01*
X003848Y001424D01*
X003852Y001414D01*
X003853Y001404D01*
X003854Y001404D02*
X003856Y001350D01*
X003861Y001297D01*
X003870Y001244D01*
X003883Y001192D01*
X003899Y001140D01*
X003919Y001090D01*
X003942Y001042D01*
X003969Y000995D01*
X003998Y000950D01*
X004031Y000907D01*
X004066Y000867D01*
X004104Y000829D01*
X004144Y000794D01*
X004187Y000761D01*
X004232Y000732D01*
X004279Y000705D01*
X004327Y000682D01*
X004377Y000662D01*
X004429Y000646D01*
X004481Y000633D01*
X004534Y000624D01*
X004587Y000619D01*
X004641Y000617D01*
X004641Y000616D02*
X004680Y000616D01*
X004719Y000616D01*
X004719Y000617D02*
X004773Y000619D01*
X004826Y000624D01*
X004879Y000633D01*
X004931Y000646D01*
X004983Y000662D01*
X005033Y000682D01*
X005081Y000705D01*
X005128Y000732D01*
X005173Y000761D01*
X005216Y000794D01*
X005256Y000829D01*
X005294Y000867D01*
X005329Y000907D01*
X005362Y000950D01*
X005391Y000995D01*
X005418Y001042D01*
X005441Y001090D01*
X005461Y001140D01*
X005477Y001192D01*
X005490Y001244D01*
X005499Y001297D01*
X005504Y001350D01*
X005506Y001404D01*
X005506Y001403D02*
X005509Y001415D01*
X005515Y001426D01*
X005523Y001434D01*
X005534Y001440D01*
X005546Y001443D01*
X005664Y001443D01*
X005861Y001443D01*
X006727Y001443D01*
X008302Y001443D01*
X008335Y001445D01*
X008367Y001450D01*
X008399Y001458D01*
X008430Y001470D01*
X008460Y001485D01*
X008487Y001503D01*
X008513Y001524D01*
X008536Y001547D01*
X008557Y001573D01*
X008575Y001600D01*
X008590Y001630D01*
X008602Y001661D01*
X008610Y001693D01*
X008615Y001725D01*
X008617Y001758D01*
X008617Y003254D01*
X008617Y004120D01*
X008617Y004435D01*
X008617Y004514D01*
X008617Y004435D01*
X008618Y004514D02*
X008615Y004526D01*
X008609Y004537D01*
X008601Y004545D01*
X008590Y004551D01*
X008578Y004554D01*
X008524Y004556D01*
X008471Y004561D01*
X008418Y004570D01*
X008366Y004583D01*
X008314Y004599D01*
X008264Y004619D01*
X008216Y004642D01*
X008169Y004669D01*
X008124Y004698D01*
X008081Y004731D01*
X008041Y004766D01*
X008003Y004804D01*
X007968Y004844D01*
X007935Y004887D01*
X007906Y004932D01*
X007879Y004979D01*
X007856Y005027D01*
X007836Y005077D01*
X007820Y005129D01*
X007807Y005181D01*
X007798Y005234D01*
X007793Y005287D01*
X007791Y005341D01*
X007790Y005341D02*
X007790Y005380D01*
X007791Y005380D02*
X007790Y005435D01*
X007793Y005490D01*
X007800Y005545D01*
X007811Y005600D01*
X007826Y005653D01*
X007844Y005706D01*
X007866Y005757D01*
X007892Y005806D01*
X007921Y005853D01*
X007953Y005898D01*
X007989Y005941D01*
X008027Y005981D01*
X008068Y006019D01*
X008111Y006053D01*
X008157Y006084D01*
X008205Y006112D01*
X008255Y006137D01*
X008306Y006158D01*
X008359Y006175D01*
X008413Y006188D01*
X008467Y006198D01*
X008523Y006204D01*
X008578Y006206D01*
X008578Y006207D02*
X008588Y006208D01*
X008598Y006212D01*
X008606Y006218D01*
X008612Y006227D01*
X008616Y006236D01*
X008617Y006246D01*
X008617Y006325D01*
X008617Y007900D01*
X008617Y007270D01*
X008617Y006640D02*
X008617Y006325D01*
X008617Y007900D02*
X008617Y009002D01*
X008615Y009035D01*
X008610Y009067D01*
X008602Y009099D01*
X008590Y009130D01*
X008575Y009160D01*
X008557Y009187D01*
X008536Y009213D01*
X008513Y009236D01*
X008487Y009257D01*
X008460Y009275D01*
X008430Y009290D01*
X008399Y009302D01*
X008367Y009310D01*
X008335Y009315D01*
X008302Y009317D01*
X006649Y009317D01*
X005940Y009317D01*
X005704Y009317D01*
X005546Y009317D01*
X005704Y009317D01*
X005546Y009317D02*
X005536Y009318D01*
X005527Y009322D01*
X005518Y009328D01*
X005512Y009337D01*
X005508Y009346D01*
X005507Y009356D01*
X005506Y009356D02*
X005504Y009410D01*
X005499Y009463D01*
X005490Y009516D01*
X005477Y009568D01*
X005461Y009620D01*
X005441Y009670D01*
X005418Y009718D01*
X005391Y009765D01*
X005362Y009810D01*
X005329Y009853D01*
X005294Y009893D01*
X005256Y009931D01*
X005216Y009966D01*
X005173Y009999D01*
X005128Y010028D01*
X005081Y010055D01*
X005033Y010078D01*
X004983Y010098D01*
X004931Y010114D01*
X004879Y010127D01*
X004826Y010136D01*
X004773Y010141D01*
X004719Y010143D01*
X004719Y010144D02*
X004641Y010144D01*
X004641Y010143D02*
X004587Y010141D01*
X004534Y010136D01*
X004481Y010127D01*
X004429Y010114D01*
X004377Y010098D01*
X004327Y010078D01*
X004279Y010055D01*
X004232Y010028D01*
X004187Y009999D01*
X004144Y009966D01*
X004104Y009931D01*
X004066Y009893D01*
X004031Y009853D01*
X003998Y009810D01*
X003969Y009765D01*
X003942Y009718D01*
X003919Y009670D01*
X003899Y009620D01*
X003883Y009568D01*
X003870Y009516D01*
X003861Y009463D01*
X003856Y009410D01*
X003854Y009356D01*
X003853Y009356D02*
X003852Y009346D01*
X003848Y009337D01*
X003842Y009328D01*
X003834Y009322D01*
X003824Y009318D01*
X003814Y009317D01*
X003499Y009317D01*
X002790Y009317D01*
X001058Y009317D01*
X001025Y009315D01*
X000993Y009310D01*
X000961Y009302D01*
X000930Y009290D01*
X000901Y009275D01*
X000873Y009257D01*
X000847Y009236D01*
X000824Y009213D01*
X000803Y009187D01*
X000785Y009160D01*
X000770Y009130D01*
X000758Y009099D01*
X000750Y009067D01*
X000745Y009035D01*
X000743Y009002D01*
X000743Y007270D01*
X000743Y006522D01*
X000743Y006640D01*
X000743Y006522D02*
X000743Y006246D01*
X000744Y006236D01*
X000748Y006227D01*
X000754Y006218D01*
X000763Y006212D01*
X000772Y006208D01*
X000782Y006207D01*
X000782Y006206D02*
X000836Y006204D01*
X000889Y006199D01*
X000942Y006190D01*
X000994Y006177D01*
X001046Y006161D01*
X001096Y006141D01*
X001144Y006118D01*
X001191Y006091D01*
X001236Y006062D01*
X001279Y006029D01*
X001319Y005994D01*
X001357Y005956D01*
X001392Y005916D01*
X001425Y005873D01*
X001454Y005828D01*
X001481Y005781D01*
X001504Y005733D01*
X001524Y005683D01*
X001540Y005631D01*
X001553Y005579D01*
X001562Y005526D01*
X001567Y005473D01*
X001569Y005419D01*
X001570Y005419D02*
X001570Y005380D01*
X001570Y005341D01*
X001569Y005341D02*
X001567Y005287D01*
X001562Y005234D01*
X001553Y005181D01*
X001540Y005129D01*
X001524Y005077D01*
X001504Y005027D01*
X001481Y004979D01*
X001454Y004932D01*
X001425Y004887D01*
X001392Y004844D01*
X001357Y004804D01*
X001319Y004766D01*
X001279Y004731D01*
X001236Y004698D01*
X001191Y004669D01*
X001144Y004642D01*
X001096Y004619D01*
X001046Y004599D01*
X000994Y004583D01*
X000942Y004570D01*
X000889Y004561D01*
X000836Y004556D01*
X000782Y004554D01*
X000782Y004553D02*
X000772Y004552D01*
X000763Y004548D01*
X000754Y004542D01*
X000748Y004534D01*
X000744Y004524D01*
X000743Y004514D01*
X000743Y004199D01*
X000743Y003097D01*
X000743Y003490D01*
X000743Y003097D02*
X000743Y001758D01*
X000745Y001725D01*
X000750Y001693D01*
X000758Y001661D01*
X000770Y001630D01*
X000785Y001600D01*
X000803Y001573D01*
X000824Y001547D01*
X000847Y001524D01*
X000873Y001503D01*
X000901Y001485D01*
X000930Y001470D01*
X000961Y001458D01*
X000993Y001450D01*
X001025Y001445D01*
X001058Y001443D01*
X002711Y001443D02*
X002790Y001443D01*
X004247Y001443D02*
X004249Y001484D01*
X004255Y001525D01*
X004265Y001565D01*
X004278Y001604D01*
X004295Y001641D01*
X004316Y001677D01*
X004340Y001711D01*
X004367Y001742D01*
X004396Y001770D01*
X004429Y001796D01*
X004463Y001818D01*
X004500Y001837D01*
X004538Y001852D01*
X004578Y001864D01*
X004618Y001872D01*
X004659Y001876D01*
X004701Y001876D01*
X004742Y001872D01*
X004782Y001864D01*
X004822Y001852D01*
X004860Y001837D01*
X004896Y001818D01*
X004931Y001796D01*
X004964Y001770D01*
X004993Y001742D01*
X005020Y001711D01*
X005044Y001677D01*
X005065Y001641D01*
X005082Y001604D01*
X005095Y001565D01*
X005105Y001525D01*
X005111Y001484D01*
X005113Y001443D01*
X005111Y001402D01*
X005105Y001361D01*
X005095Y001321D01*
X005082Y001282D01*
X005065Y001245D01*
X005044Y001209D01*
X005020Y001175D01*
X004993Y001144D01*
X004964Y001116D01*
X004931Y001090D01*
X004897Y001068D01*
X004860Y001049D01*
X004822Y001034D01*
X004782Y001022D01*
X004742Y001014D01*
X004701Y001010D01*
X004659Y001010D01*
X004618Y001014D01*
X004578Y001022D01*
X004538Y001034D01*
X004500Y001049D01*
X004464Y001068D01*
X004429Y001090D01*
X004396Y001116D01*
X004367Y001144D01*
X004340Y001175D01*
X004316Y001209D01*
X004295Y001245D01*
X004278Y001282D01*
X004265Y001321D01*
X004255Y001361D01*
X004249Y001402D01*
X004247Y001443D01*
X005546Y001443D02*
X005664Y001443D01*
X005861Y001443D02*
X005940Y001443D01*
X006570Y001443D02*
X006727Y001443D01*
X008617Y003254D02*
X008617Y003490D01*
X006649Y009317D02*
X006570Y009317D01*
X004247Y009317D02*
X004249Y009358D01*
X004255Y009399D01*
X004265Y009439D01*
X004278Y009478D01*
X004295Y009515D01*
X004316Y009551D01*
X004340Y009585D01*
X004367Y009616D01*
X004396Y009644D01*
X004429Y009670D01*
X004463Y009692D01*
X004500Y009711D01*
X004538Y009726D01*
X004578Y009738D01*
X004618Y009746D01*
X004659Y009750D01*
X004701Y009750D01*
X004742Y009746D01*
X004782Y009738D01*
X004822Y009726D01*
X004860Y009711D01*
X004896Y009692D01*
X004931Y009670D01*
X004964Y009644D01*
X004993Y009616D01*
X005020Y009585D01*
X005044Y009551D01*
X005065Y009515D01*
X005082Y009478D01*
X005095Y009439D01*
X005105Y009399D01*
X005111Y009358D01*
X005113Y009317D01*
X005111Y009276D01*
X005105Y009235D01*
X005095Y009195D01*
X005082Y009156D01*
X005065Y009119D01*
X005044Y009083D01*
X005020Y009049D01*
X004993Y009018D01*
X004964Y008990D01*
X004931Y008964D01*
X004897Y008942D01*
X004860Y008923D01*
X004822Y008908D01*
X004782Y008896D01*
X004742Y008888D01*
X004701Y008884D01*
X004659Y008884D01*
X004618Y008888D01*
X004578Y008896D01*
X004538Y008908D01*
X004500Y008923D01*
X004464Y008942D01*
X004429Y008964D01*
X004396Y008990D01*
X004367Y009018D01*
X004340Y009049D01*
X004316Y009083D01*
X004295Y009119D01*
X004278Y009156D01*
X004265Y009195D01*
X004255Y009235D01*
X004249Y009276D01*
X004247Y009317D01*
X003499Y009317D02*
X003420Y009317D01*
X000743Y004199D02*
X000743Y004120D01*
D11*
X004680Y006430D03*
D12*
X003680Y003080D03*
D13*
X004680Y003080D03*
X005680Y003080D03*
D14*
X006117Y003080D01*
X005680Y003080D01*
X005680Y003080D01*
X005680Y003080D01*
X005680Y003517D01*
X005714Y003517D01*
X005782Y003507D01*
X005848Y003485D01*
X005909Y003454D01*
X005965Y003414D01*
X006014Y003365D01*
X006054Y003309D01*
X006085Y003248D01*
X006107Y003182D01*
X006117Y003114D01*
X006117Y003080D01*
X006117Y003046D01*
X006107Y002978D01*
X006085Y002912D01*
X006054Y002851D01*
X006014Y002795D01*
X005965Y002746D01*
X005909Y002706D01*
X005848Y002675D01*
X005782Y002653D01*
X005714Y002643D01*
X005680Y002643D01*
X005680Y003080D01*
X005680Y003080D01*
X005680Y003080D01*
X005243Y003080D01*
X005243Y003046D01*
X005253Y002978D01*
X005275Y002912D01*
X005306Y002851D01*
X005346Y002795D01*
X005395Y002746D01*
X005451Y002706D01*
X005512Y002675D01*
X005578Y002653D01*
X005646Y002643D01*
X005680Y002643D01*
X005680Y003080D01*
X005680Y003517D01*
X005646Y003517D01*
X005578Y003507D01*
X005512Y003485D01*
X005451Y003454D01*
X005395Y003414D01*
X005346Y003365D01*
X005306Y003309D01*
X005275Y003248D01*
X005253Y003182D01*
X005243Y003114D01*
X005243Y003080D01*
X005680Y003080D01*
X005680Y003074D02*
X005680Y003074D01*
X005680Y003232D02*
X005680Y003232D01*
X005680Y003391D02*
X005680Y003391D01*
X005988Y003391D02*
X008377Y003391D01*
X008377Y003549D02*
X004848Y003549D01*
X004779Y003577D02*
X004581Y003577D01*
X004398Y003502D01*
X004258Y003362D01*
X004183Y003179D01*
X004183Y002981D01*
X004258Y002798D01*
X004398Y002658D01*
X004581Y002583D01*
X004779Y002583D01*
X004962Y002658D01*
X005102Y002798D01*
X005177Y002981D01*
X005177Y003179D01*
X005102Y003362D01*
X004962Y003502D01*
X004779Y003577D01*
X004512Y003549D02*
X004054Y003549D01*
X004073Y003541D02*
X003985Y003577D01*
X003375Y003577D01*
X003287Y003541D01*
X003219Y003473D01*
X003183Y003385D01*
X003183Y002775D01*
X003219Y002687D01*
X003287Y002619D01*
X003375Y002583D01*
X003985Y002583D01*
X004073Y002619D01*
X004141Y002687D01*
X004177Y002775D01*
X004177Y003385D01*
X004141Y003473D01*
X004073Y003541D01*
X004175Y003391D02*
X004287Y003391D01*
X004204Y003232D02*
X004177Y003232D01*
X004177Y003074D02*
X004183Y003074D01*
X004177Y002915D02*
X004210Y002915D01*
X004170Y002757D02*
X004300Y002757D01*
X004544Y002598D02*
X004023Y002598D01*
X004299Y002014D02*
X004546Y002116D01*
X004814Y002116D01*
X005061Y002014D01*
X005251Y001824D01*
X005345Y001596D01*
X005422Y001672D01*
X005422Y001672D01*
X005487Y001678D01*
X005498Y001683D01*
X005534Y001683D01*
X005570Y001686D01*
X005582Y001683D01*
X008302Y001683D01*
X008317Y001684D01*
X008344Y001696D01*
X008364Y001716D01*
X008376Y001743D01*
X008377Y001758D01*
X008377Y001806D01*
X008377Y003206D01*
X008377Y003830D01*
X000983Y003830D01*
X000983Y001758D01*
X000984Y001743D01*
X000996Y001716D01*
X001016Y001696D01*
X001043Y001684D01*
X001058Y001683D01*
X003889Y001683D01*
X004018Y001608D01*
X004018Y001608D01*
X004018Y001608D01*
X004019Y001607D01*
X004109Y001824D01*
X004299Y002014D01*
X004249Y001964D02*
X000983Y001964D01*
X000983Y002123D02*
X008377Y002123D01*
X008377Y001964D02*
X005111Y001964D01*
X005258Y001806D02*
X008377Y001806D01*
X008377Y002281D02*
X000983Y002281D01*
X000983Y002440D02*
X008377Y002440D01*
X008377Y002598D02*
X004816Y002598D01*
X005060Y002757D02*
X005385Y002757D01*
X005274Y002915D02*
X005150Y002915D01*
X005177Y003074D02*
X005243Y003074D01*
X005269Y003232D02*
X005156Y003232D01*
X005073Y003391D02*
X005372Y003391D01*
X005680Y002915D02*
X005680Y002915D01*
X005680Y002757D02*
X005680Y002757D01*
X005975Y002757D02*
X008377Y002757D01*
X008377Y002915D02*
X006086Y002915D01*
X006117Y003074D02*
X008377Y003074D01*
X008377Y003232D02*
X006091Y003232D01*
X005397Y001647D02*
X005324Y001647D01*
X004102Y001806D02*
X000983Y001806D01*
X000983Y002598D02*
X003337Y002598D01*
X003190Y002757D02*
X000983Y002757D01*
X000983Y002915D02*
X003183Y002915D01*
X003183Y003074D02*
X000983Y003074D01*
X000983Y003232D02*
X003183Y003232D01*
X003185Y003391D02*
X000983Y003391D01*
X000983Y003549D02*
X003306Y003549D01*
X003951Y001647D02*
X004036Y001647D01*
X000983Y003708D02*
X008377Y003708D01*
D15*
X004680Y006430D02*
X003880Y006430D01*
X002180Y004730D01*
D16*
X002180Y004730D03*
M02*
