G75*
%MOIN*%
%OFA0B0*%
%FSLAX24Y24*%
%IPPOS*%
%LPD*%
%AMOC8*
5,1,8,0,0,1.08239X$1,22.5*
%
%ADD10C,0.0160*%
%ADD11C,0.0050*%
%ADD12R,0.0010X0.0010*%
%ADD13R,0.0010X0.0020*%
%ADD14R,0.0010X0.0080*%
%ADD15R,0.0010X0.0040*%
%ADD16R,0.0010X0.0030*%
%ADD17R,0.0010X0.0050*%
%ADD18R,0.0010X0.0100*%
%ADD19R,0.0010X0.0060*%
%ADD20R,0.0010X0.0210*%
%ADD21R,0.0010X0.0110*%
%ADD22R,0.0010X0.0090*%
%ADD23R,0.0010X0.0260*%
%ADD24R,0.0010X0.0120*%
%ADD25R,0.0010X0.0130*%
%ADD26R,0.0010X0.0280*%
%ADD27R,0.0010X0.0150*%
%ADD28R,0.0010X0.0220*%
%ADD29R,0.0010X0.0300*%
%ADD30R,0.0010X0.0070*%
%ADD31R,0.0010X0.0140*%
%ADD32R,0.0010X0.0440*%
%ADD33R,0.0010X0.0240*%
%ADD34R,0.0010X0.0250*%
%ADD35R,0.0010X0.0180*%
%ADD36R,0.0010X0.0340*%
%ADD37R,0.0010X0.0330*%
%ADD38R,0.0010X0.0190*%
%ADD39R,0.0010X0.0160*%
%ADD40R,0.0010X0.0170*%
%ADD41R,0.0010X0.0590*%
%ADD42R,0.0010X0.0270*%
%ADD43R,0.0010X0.0230*%
%ADD44R,0.0010X0.0390*%
%ADD45R,0.0010X0.0540*%
%ADD46R,0.0010X0.0420*%
%ADD47C,0.0000*%
%ADD48C,0.0060*%
%ADD49C,0.0030*%
%ADD50C,0.0040*%
%ADD51C,0.0059*%
%ADD52R,0.0001X0.0002*%
%ADD53R,0.0001X0.0002*%
%ADD54R,0.0001X0.0002*%
%ADD55R,0.0001X0.0002*%
%ADD56R,0.0001X0.0002*%
%ADD57R,0.0001X0.0004*%
%ADD58R,0.0001X0.0003*%
%ADD59R,0.0001X0.0004*%
%ADD60R,0.0001X0.0004*%
%ADD61R,0.0001X0.0005*%
%ADD62R,0.0001X0.0005*%
%ADD63R,0.0001X0.0007*%
%ADD64R,0.0001X0.0007*%
%ADD65R,0.0001X0.0007*%
%ADD66R,0.0001X0.0007*%
%ADD67R,0.0001X0.0008*%
%ADD68R,0.0001X0.0008*%
%ADD69R,0.0001X0.0009*%
%ADD70R,0.0001X0.0010*%
%ADD71R,0.0001X0.0010*%
%ADD72R,0.0001X0.0010*%
%ADD73R,0.0001X0.0010*%
%ADD74R,0.0001X0.0011*%
%ADD75R,0.0001X0.0011*%
%ADD76R,0.0001X0.0013*%
%ADD77R,0.0001X0.0013*%
%ADD78R,0.0001X0.0013*%
%ADD79R,0.0001X0.0013*%
%ADD80R,0.0001X0.0014*%
%ADD81R,0.0001X0.0014*%
%ADD82R,0.0001X0.0015*%
%ADD83R,0.0001X0.0016*%
%ADD84R,0.0001X0.0017*%
%ADD85R,0.0001X0.0018*%
%ADD86R,0.0001X0.0018*%
%ADD87R,0.0001X0.0018*%
%ADD88R,0.0001X0.0018*%
%ADD89R,0.0001X0.0019*%
%ADD90R,0.0001X0.0019*%
%ADD91R,0.0001X0.0019*%
%ADD92R,0.0001X0.0020*%
%ADD93R,0.0001X0.0020*%
%ADD94R,0.0001X0.0020*%
%ADD95R,0.0001X0.0022*%
%ADD96R,0.0001X0.0022*%
%ADD97R,0.0001X0.0022*%
%ADD98R,0.0001X0.0023*%
%ADD99R,0.0001X0.0024*%
%ADD100R,0.0001X0.0024*%
%ADD101R,0.0001X0.0025*%
%ADD102R,0.0001X0.0025*%
%ADD103R,0.0001X0.0025*%
%ADD104R,0.0001X0.0025*%
%ADD105R,0.0001X0.0026*%
%ADD106R,0.0001X0.0026*%
%ADD107R,0.0001X0.0026*%
%ADD108R,0.0001X0.0027*%
%ADD109R,0.0001X0.0027*%
%ADD110R,0.0001X0.0028*%
%ADD111R,0.0001X0.0029*%
%ADD112R,0.0001X0.0028*%
%ADD113R,0.0001X0.0029*%
%ADD114R,0.0001X0.0029*%
%ADD115R,0.0001X0.0029*%
%ADD116R,0.0001X0.0030*%
%ADD117R,0.0001X0.0031*%
%ADD118R,0.0001X0.0031*%
%ADD119R,0.0001X0.0032*%
%ADD120R,0.0001X0.0032*%
%ADD121R,0.0001X0.0032*%
%ADD122R,0.0001X0.0033*%
%ADD123R,0.0001X0.0033*%
%ADD124R,0.0001X0.0034*%
%ADD125R,0.0001X0.0033*%
%ADD126R,0.0001X0.0035*%
%ADD127R,0.0001X0.0035*%
%ADD128R,0.0001X0.0035*%
%ADD129R,0.0001X0.0037*%
%ADD130R,0.0001X0.0037*%
%ADD131R,0.0001X0.0037*%
%ADD132R,0.0001X0.0037*%
%ADD133R,0.0001X0.0037*%
%ADD134R,0.0001X0.0038*%
%ADD135R,0.0001X0.0038*%
%ADD136R,0.0001X0.0039*%
%ADD137R,0.0001X0.0040*%
%ADD138R,0.0001X0.0040*%
%ADD139R,0.0001X0.0041*%
%ADD140R,0.0001X0.0041*%
%ADD141R,0.0001X0.0041*%
%ADD142R,0.0001X0.0042*%
%ADD143R,0.0001X0.0042*%
%ADD144R,0.0001X0.0043*%
%ADD145R,0.0001X0.0043*%
%ADD146R,0.0001X0.0044*%
%ADD147R,0.0001X0.0044*%
%ADD148R,0.0001X0.0044*%
%ADD149R,0.0001X0.0045*%
%ADD150R,0.0001X0.0046*%
%ADD151R,0.0001X0.0045*%
%ADD152R,0.0001X0.0046*%
%ADD153R,0.0001X0.0046*%
%ADD154R,0.0001X0.0047*%
%ADD155R,0.0001X0.0047*%
%ADD156R,0.0001X0.0047*%
%ADD157R,0.0001X0.0048*%
%ADD158R,0.0001X0.0048*%
%ADD159R,0.0001X0.0049*%
%ADD160R,0.0001X0.0050*%
%ADD161R,0.0001X0.0050*%
%ADD162R,0.0001X0.0050*%
%ADD163R,0.0001X0.0050*%
%ADD164R,0.0001X0.0050*%
%ADD165R,0.0001X0.0050*%
%ADD166R,0.0001X0.0052*%
%ADD167R,0.0001X0.0052*%
%ADD168R,0.0001X0.0052*%
%ADD169R,0.0001X0.0053*%
%ADD170R,0.0001X0.0054*%
%ADD171R,0.0001X0.0054*%
%ADD172R,0.0001X0.0054*%
%ADD173R,0.0001X0.0054*%
%ADD174R,0.0001X0.0055*%
%ADD175R,0.0001X0.0056*%
%ADD176R,0.0001X0.0055*%
%ADD177R,0.0001X0.0056*%
%ADD178R,0.0001X0.0056*%
%ADD179R,0.0001X0.0056*%
%ADD180R,0.0001X0.0057*%
%ADD181R,0.0001X0.0057*%
%ADD182R,0.0001X0.0058*%
%ADD183R,0.0001X0.0058*%
%ADD184R,0.0001X0.0058*%
%ADD185R,0.0001X0.0059*%
%ADD186R,0.0001X0.0059*%
%ADD187R,0.0001X0.0061*%
%ADD188R,0.0001X0.0061*%
%ADD189R,0.0001X0.0061*%
%ADD190R,0.0001X0.0062*%
%ADD191R,0.0001X0.0062*%
%ADD192R,0.0001X0.0064*%
%ADD193R,0.0001X0.0063*%
%ADD194R,0.0001X0.0064*%
%ADD195R,0.0001X0.0064*%
%ADD196R,0.0001X0.0065*%
%ADD197R,0.0001X0.0065*%
%ADD198R,0.0001X0.0066*%
%ADD199R,0.0001X0.0066*%
%ADD200R,0.0001X0.0067*%
%ADD201R,0.0001X0.0067*%
%ADD202R,0.0001X0.0067*%
%ADD203R,0.0001X0.0067*%
%ADD204R,0.0001X0.0068*%
%ADD205R,0.0001X0.0069*%
%ADD206R,0.0001X0.0069*%
%ADD207R,0.0001X0.0070*%
%ADD208R,0.0001X0.0070*%
%ADD209R,0.0001X0.0071*%
%ADD210R,0.0001X0.0071*%
%ADD211R,0.0001X0.0071*%
%ADD212R,0.0001X0.0072*%
%ADD213R,0.0001X0.0072*%
%ADD214R,0.0001X0.0073*%
%ADD215R,0.0001X0.0073*%
%ADD216R,0.0001X0.0074*%
%ADD217R,0.0001X0.0074*%
%ADD218R,0.0001X0.0074*%
%ADD219R,0.0001X0.0075*%
%ADD220R,0.0001X0.0076*%
%ADD221R,0.0001X0.0076*%
%ADD222R,0.0001X0.0076*%
%ADD223R,0.0001X0.0076*%
%ADD224R,0.0001X0.0077*%
%ADD225R,0.0001X0.0078*%
%ADD226R,0.0001X0.0078*%
%ADD227R,0.0001X0.0079*%
%ADD228R,0.0001X0.0080*%
%ADD229R,0.0001X0.0080*%
%ADD230R,0.0001X0.0080*%
%ADD231R,0.0001X0.0080*%
%ADD232R,0.0001X0.0081*%
%ADD233R,0.0001X0.0082*%
%ADD234R,0.0001X0.0082*%
%ADD235R,0.0001X0.0082*%
%ADD236R,0.0001X0.0083*%
%ADD237R,0.0001X0.0083*%
%ADD238R,0.0001X0.0084*%
%ADD239R,0.0001X0.0085*%
%ADD240R,0.0001X0.0085*%
%ADD241R,0.0001X0.0086*%
%ADD242R,0.0001X0.0085*%
%ADD243R,0.0001X0.0086*%
%ADD244R,0.0001X0.0087*%
%ADD245R,0.0001X0.0087*%
%ADD246R,0.0001X0.0087*%
%ADD247R,0.0001X0.0088*%
%ADD248R,0.0001X0.0088*%
%ADD249R,0.0001X0.0089*%
%ADD250R,0.0001X0.0089*%
%ADD251R,0.0001X0.0089*%
%ADD252R,0.0001X0.0089*%
%ADD253R,0.0001X0.0091*%
%ADD254R,0.0001X0.0091*%
%ADD255R,0.0001X0.0091*%
%ADD256R,0.0001X0.0092*%
%ADD257R,0.0001X0.0093*%
%ADD258R,0.0001X0.0093*%
%ADD259R,0.0001X0.0093*%
%ADD260R,0.0001X0.0094*%
%ADD261R,0.0001X0.0094*%
%ADD262R,0.0001X0.0094*%
%ADD263R,0.0001X0.0094*%
%ADD264R,0.0001X0.0095*%
%ADD265R,0.0001X0.0095*%
%ADD266R,0.0001X0.0096*%
%ADD267R,0.0001X0.0097*%
%ADD268R,0.0001X0.0097*%
%ADD269R,0.0001X0.0098*%
%ADD270R,0.0001X0.0097*%
%ADD271R,0.0001X0.0098*%
%ADD272R,0.0001X0.0098*%
%ADD273R,0.0001X0.0098*%
%ADD274R,0.0001X0.0099*%
%ADD275R,0.0001X0.0100*%
%ADD276R,0.0001X0.0100*%
%ADD277R,0.0001X0.0100*%
%ADD278R,0.0001X0.0101*%
%ADD279R,0.0001X0.0102*%
%ADD280R,0.0001X0.0102*%
%ADD281R,0.0001X0.0102*%
%ADD282R,0.0001X0.0102*%
%ADD283R,0.0001X0.0103*%
%ADD284R,0.0001X0.0104*%
%ADD285R,0.0001X0.0104*%
%ADD286R,0.0001X0.0104*%
%ADD287R,0.0001X0.0104*%
%ADD288R,0.0001X0.0104*%
%ADD289R,0.0001X0.0106*%
%ADD290R,0.0001X0.0106*%
%ADD291R,0.0001X0.0106*%
%ADD292R,0.0001X0.0106*%
%ADD293R,0.0001X0.0106*%
%ADD294R,0.0001X0.0106*%
%ADD295R,0.0001X0.0107*%
%ADD296R,0.0001X0.0108*%
%ADD297R,0.0001X0.0109*%
%ADD298R,0.0001X0.0109*%
%ADD299R,0.0001X0.0109*%
%ADD300R,0.0001X0.0110*%
%ADD301R,0.0001X0.0110*%
%ADD302R,0.0001X0.0110*%
%ADD303R,0.0001X0.0110*%
%ADD304R,0.0001X0.0111*%
%ADD305R,0.0001X0.0112*%
%ADD306R,0.0001X0.0112*%
%ADD307R,0.0001X0.0112*%
%ADD308R,0.0001X0.0113*%
%ADD309R,0.0001X0.0113*%
%ADD310R,0.0001X0.0113*%
%ADD311R,0.0001X0.0115*%
%ADD312R,0.0001X0.0114*%
%ADD313R,0.0001X0.0115*%
%ADD314R,0.0001X0.0115*%
%ADD315R,0.0001X0.0116*%
%ADD316R,0.0001X0.0116*%
%ADD317R,0.0001X0.0116*%
%ADD318R,0.0001X0.0116*%
%ADD319R,0.0001X0.0117*%
%ADD320R,0.0001X0.0117*%
%ADD321R,0.0001X0.0119*%
%ADD322R,0.0001X0.0119*%
%ADD323R,0.0001X0.0119*%
%ADD324R,0.0001X0.0120*%
%ADD325R,0.0001X0.0121*%
%ADD326R,0.0001X0.0121*%
%ADD327R,0.0001X0.0121*%
%ADD328R,0.0001X0.0121*%
%ADD329R,0.0001X0.0121*%
%ADD330R,0.0001X0.0122*%
%ADD331R,0.0001X0.0123*%
%ADD332R,0.0001X0.0123*%
%ADD333R,0.0001X0.0124*%
%ADD334R,0.0001X0.0124*%
%ADD335R,0.0001X0.0125*%
%ADD336R,0.0001X0.0126*%
%ADD337R,0.0001X0.0126*%
%ADD338R,0.0001X0.0127*%
%ADD339R,0.0001X0.0127*%
%ADD340R,0.0001X0.0127*%
%ADD341R,0.0001X0.0128*%
%ADD342R,0.0001X0.0128*%
%ADD343R,0.0001X0.0128*%
%ADD344R,0.0001X0.0130*%
%ADD345R,0.0001X0.0130*%
%ADD346R,0.0001X0.0130*%
%ADD347R,0.0001X0.0131*%
%ADD348R,0.0001X0.0131*%
%ADD349R,0.0001X0.0131*%
%ADD350R,0.0001X0.0132*%
%ADD351R,0.0001X0.0133*%
%ADD352R,0.0001X0.0133*%
%ADD353R,0.0001X0.0134*%
%ADD354R,0.0001X0.0134*%
%ADD355R,0.0001X0.0136*%
%ADD356R,0.0001X0.0135*%
%ADD357R,0.0001X0.0136*%
%ADD358R,0.0001X0.0136*%
%ADD359R,0.0001X0.0136*%
%ADD360R,0.0001X0.0137*%
%ADD361R,0.0001X0.0137*%
%ADD362R,0.0001X0.0138*%
%ADD363R,0.0001X0.0138*%
%ADD364R,0.0001X0.0139*%
%ADD365R,0.0001X0.0139*%
%ADD366R,0.0001X0.0140*%
%ADD367R,0.0001X0.0139*%
%ADD368R,0.0001X0.0141*%
%ADD369R,0.0001X0.0141*%
%ADD370R,0.0001X0.0141*%
%ADD371R,0.0001X0.0141*%
%ADD372R,0.0001X0.0143*%
%ADD373R,0.0001X0.0143*%
%ADD374R,0.0001X0.0143*%
%ADD375R,0.0001X0.0143*%
%ADD376R,0.0001X0.0145*%
%ADD377R,0.0001X0.0145*%
%ADD378R,0.0001X0.0145*%
%ADD379R,0.0001X0.0145*%
%ADD380R,0.0001X0.0145*%
%ADD381R,0.0001X0.0146*%
%ADD382R,0.0001X0.0147*%
%ADD383R,0.0001X0.0147*%
%ADD384R,0.0001X0.0148*%
%ADD385R,0.0001X0.0148*%
%ADD386R,0.0001X0.0148*%
%ADD387R,0.0001X0.0149*%
%ADD388R,0.0001X0.0149*%
%ADD389R,0.0001X0.0149*%
%ADD390R,0.0001X0.0149*%
%ADD391R,0.0001X0.0150*%
%ADD392R,0.0001X0.0151*%
%ADD393R,0.0001X0.0151*%
%ADD394R,0.0001X0.0151*%
%ADD395R,0.0001X0.0151*%
%ADD396R,0.0001X0.0152*%
%ADD397R,0.0001X0.0152*%
%ADD398R,0.0001X0.0153*%
%ADD399R,0.0001X0.0154*%
%ADD400R,0.0001X0.0154*%
%ADD401R,0.0001X0.0154*%
%ADD402R,0.0001X0.0154*%
%ADD403R,0.0001X0.0155*%
%ADD404R,0.0001X0.0156*%
%ADD405R,0.0001X0.0156*%
%ADD406R,0.0001X0.0156*%
%ADD407R,0.0001X0.0156*%
%ADD408R,0.0001X0.0158*%
%ADD409R,0.0001X0.0158*%
%ADD410R,0.0001X0.0159*%
%ADD411R,0.0001X0.0159*%
%ADD412R,0.0001X0.0160*%
%ADD413R,0.0001X0.0160*%
%ADD414R,0.0001X0.0160*%
%ADD415R,0.0001X0.0160*%
%ADD416R,0.0001X0.0161*%
%ADD417R,0.0001X0.0162*%
%ADD418R,0.0001X0.0161*%
%ADD419R,0.0001X0.0162*%
%ADD420R,0.0001X0.0162*%
%ADD421R,0.0001X0.0163*%
%ADD422R,0.0001X0.0163*%
%ADD423R,0.0001X0.0164*%
%ADD424R,0.0001X0.0164*%
%ADD425R,0.0001X0.0165*%
%ADD426R,0.0001X0.0166*%
%ADD427R,0.0001X0.0167*%
%ADD428R,0.0001X0.0167*%
%ADD429R,0.0001X0.0169*%
%ADD430R,0.0001X0.0169*%
%ADD431R,0.0001X0.0169*%
%ADD432R,0.0001X0.0170*%
%ADD433R,0.0001X0.0170*%
%ADD434R,0.0001X0.0169*%
%ADD435R,0.0001X0.0171*%
%ADD436R,0.0001X0.0172*%
%ADD437R,0.0001X0.0172*%
%ADD438R,0.0001X0.0173*%
%ADD439R,0.0001X0.0174*%
%ADD440R,0.0001X0.0174*%
%ADD441R,0.0001X0.0175*%
%ADD442R,0.0001X0.0175*%
%ADD443R,0.0001X0.0175*%
%ADD444R,0.0001X0.0176*%
%ADD445R,0.0001X0.0176*%
%ADD446R,0.0001X0.0177*%
%ADD447R,0.0001X0.0178*%
%ADD448R,0.0001X0.0178*%
%ADD449R,0.0001X0.0178*%
%ADD450R,0.0001X0.0178*%
%ADD451R,0.0001X0.0180*%
%ADD452R,0.0001X0.0180*%
%ADD453R,0.0001X0.0181*%
%ADD454R,0.0001X0.0181*%
%ADD455R,0.0001X0.0181*%
%ADD456R,0.0001X0.0181*%
%ADD457R,0.0001X0.0182*%
%ADD458R,0.0001X0.0182*%
%ADD459R,0.0001X0.0182*%
%ADD460R,0.0001X0.0182*%
%ADD461R,0.0001X0.0183*%
%ADD462R,0.0001X0.0184*%
%ADD463R,0.0001X0.0184*%
%ADD464R,0.0001X0.0185*%
%ADD465R,0.0001X0.0185*%
%ADD466R,0.0001X0.0185*%
%ADD467R,0.0001X0.0185*%
%ADD468R,0.0001X0.0185*%
%ADD469R,0.0001X0.0187*%
%ADD470R,0.0001X0.0186*%
%ADD471R,0.0001X0.0188*%
%ADD472R,0.0001X0.0188*%
%ADD473R,0.0001X0.0188*%
%ADD474R,0.0001X0.0188*%
%ADD475R,0.0001X0.0189*%
%ADD476R,0.0001X0.0189*%
%ADD477R,0.0001X0.0190*%
%ADD478R,0.0001X0.0190*%
%ADD479R,0.0001X0.0191*%
%ADD480R,0.0001X0.0191*%
%ADD481R,0.0001X0.0192*%
%ADD482R,0.0001X0.0191*%
%ADD483R,0.0001X0.0193*%
%ADD484R,0.0001X0.0193*%
%ADD485R,0.0001X0.0193*%
%ADD486R,0.0001X0.0193*%
%ADD487R,0.0001X0.0194*%
%ADD488R,0.0001X0.0194*%
%ADD489R,0.0001X0.0195*%
%ADD490R,0.0001X0.0195*%
%ADD491R,0.0001X0.0197*%
%ADD492R,0.0001X0.0197*%
%ADD493R,0.0001X0.0197*%
%ADD494R,0.0001X0.0198*%
%ADD495R,0.0001X0.0199*%
%ADD496R,0.0001X0.0199*%
%ADD497R,0.0001X0.0200*%
%ADD498R,0.0001X0.0200*%
%ADD499R,0.0001X0.0200*%
%ADD500R,0.0001X0.0201*%
%ADD501R,0.0001X0.0202*%
%ADD502R,0.0001X0.0202*%
%ADD503R,0.0001X0.0203*%
%ADD504R,0.0001X0.0203*%
%ADD505R,0.0001X0.0204*%
%ADD506R,0.0001X0.0203*%
%ADD507R,0.0001X0.0205*%
%ADD508R,0.0001X0.0205*%
%ADD509R,0.0001X0.0205*%
%ADD510R,0.0001X0.0205*%
%ADD511R,0.0001X0.0206*%
%ADD512R,0.0001X0.0206*%
%ADD513R,0.0001X0.0206*%
%ADD514R,0.0001X0.0208*%
%ADD515R,0.0001X0.0208*%
%ADD516R,0.0001X0.0208*%
%ADD517R,0.0001X0.0208*%
%ADD518R,0.0001X0.0209*%
%ADD519R,0.0001X0.0210*%
%ADD520R,0.0001X0.0210*%
%ADD521R,0.0001X0.0211*%
%ADD522R,0.0001X0.0211*%
%ADD523R,0.0001X0.0212*%
%ADD524R,0.0001X0.0212*%
%ADD525R,0.0001X0.0213*%
%ADD526R,0.0001X0.0213*%
%ADD527R,0.0001X0.0214*%
%ADD528R,0.0001X0.0215*%
%ADD529R,0.0001X0.0215*%
%ADD530R,0.0001X0.0215*%
%ADD531R,0.0001X0.0216*%
%ADD532R,0.0001X0.0217*%
%ADD533R,0.0001X0.0217*%
%ADD534R,0.0001X0.0217*%
%ADD535R,0.0001X0.0218*%
%ADD536R,0.0001X0.0219*%
%ADD537R,0.0001X0.0219*%
%ADD538R,0.0001X0.0220*%
%ADD539R,0.0001X0.0220*%
%ADD540R,0.0001X0.0220*%
%ADD541R,0.0001X0.0221*%
%ADD542R,0.0001X0.0221*%
%ADD543R,0.0001X0.0222*%
%ADD544R,0.0001X0.0223*%
%ADD545R,0.0001X0.0223*%
%ADD546R,0.0001X0.0223*%
%ADD547R,0.0001X0.0224*%
%ADD548R,0.0001X0.0224*%
%ADD549R,0.0001X0.0225*%
%ADD550R,0.0001X0.0226*%
%ADD551R,0.0001X0.0226*%
%ADD552R,0.0001X0.0227*%
%ADD553R,0.0001X0.0227*%
%ADD554R,0.0001X0.0227*%
%ADD555R,0.0001X0.0228*%
%ADD556R,0.0001X0.0228*%
%ADD557R,0.0001X0.0228*%
%ADD558R,0.0001X0.0229*%
%ADD559R,0.0001X0.0230*%
%ADD560R,0.0001X0.0230*%
%ADD561R,0.0001X0.0230*%
%ADD562R,0.0001X0.0230*%
%ADD563R,0.0001X0.0230*%
%ADD564R,0.0001X0.0232*%
%ADD565R,0.0001X0.0232*%
%ADD566R,0.0001X0.0232*%
%ADD567R,0.0001X0.0232*%
%ADD568R,0.0001X0.0233*%
%ADD569R,0.0001X0.0233*%
%ADD570R,0.0001X0.0234*%
%ADD571R,0.0001X0.0234*%
%ADD572R,0.0001X0.0234*%
%ADD573R,0.0001X0.0234*%
%ADD574R,0.0001X0.0235*%
%ADD575R,0.0001X0.0236*%
%ADD576R,0.0001X0.0236*%
%ADD577R,0.0001X0.0237*%
%ADD578R,0.0001X0.0237*%
%ADD579R,0.0001X0.0238*%
%ADD580R,0.0001X0.0239*%
%ADD581R,0.0001X0.0238*%
%ADD582R,0.0001X0.0239*%
%ADD583R,0.0001X0.0239*%
%ADD584R,0.0001X0.0240*%
%ADD585R,0.0001X0.0241*%
%ADD586R,0.0001X0.0241*%
%ADD587R,0.0001X0.0242*%
%ADD588R,0.0001X0.0242*%
%ADD589R,0.0001X0.0242*%
%ADD590R,0.0001X0.0243*%
%ADD591R,0.0001X0.0243*%
%ADD592R,0.0001X0.0244*%
%ADD593R,0.0001X0.0245*%
%ADD594R,0.0001X0.0245*%
%ADD595R,0.0001X0.0245*%
%ADD596R,0.0001X0.0246*%
%ADD597R,0.0001X0.0245*%
%ADD598R,0.0001X0.0247*%
%ADD599R,0.0001X0.0247*%
%ADD600R,0.0001X0.0247*%
%ADD601R,0.0001X0.0248*%
%ADD602R,0.0001X0.0248*%
%ADD603R,0.0001X0.0249*%
%ADD604R,0.0001X0.0249*%
%ADD605R,0.0001X0.0249*%
%ADD606R,0.0001X0.0250*%
%ADD607R,0.0001X0.0250*%
%ADD608R,0.0001X0.0250*%
%ADD609R,0.0001X0.0251*%
%ADD610R,0.0001X0.0251*%
%ADD611R,0.0001X0.0251*%
%ADD612R,0.0001X0.0252*%
%ADD613R,0.0001X0.0252*%
%ADD614R,0.0001X0.0253*%
%ADD615R,0.0001X0.0254*%
%ADD616R,0.0001X0.0254*%
%ADD617R,0.0001X0.0254*%
%ADD618R,0.0001X0.0255*%
%ADD619R,0.0001X0.0256*%
%ADD620R,0.0001X0.0256*%
%ADD621R,0.0001X0.0257*%
%ADD622R,0.0001X0.0257*%
%ADD623R,0.0001X0.0257*%
%ADD624R,0.0001X0.0257*%
%ADD625R,0.0001X0.0258*%
%ADD626R,0.0001X0.0258*%
%ADD627R,0.0001X0.0259*%
%ADD628R,0.0001X0.0259*%
%ADD629R,0.0001X0.0260*%
%ADD630R,0.0001X0.0260*%
%ADD631R,0.0001X0.0262*%
%ADD632R,0.0001X0.0262*%
%ADD633R,0.0001X0.0262*%
%ADD634R,0.0001X0.0262*%
%ADD635R,0.0001X0.0262*%
%ADD636R,0.0001X0.0262*%
%ADD637R,0.0001X0.0263*%
%ADD638R,0.0001X0.0264*%
%ADD639R,0.0001X0.0265*%
%ADD640R,0.0001X0.0265*%
%ADD641R,0.0001X0.0265*%
%ADD642R,0.0001X0.0266*%
%ADD643R,0.0001X0.0266*%
%ADD644R,0.0001X0.0267*%
%ADD645R,0.0001X0.0267*%
%ADD646R,0.0001X0.0267*%
%ADD647R,0.0001X0.0267*%
%ADD648R,0.0001X0.0268*%
%ADD649R,0.0001X0.0268*%
%ADD650R,0.0001X0.0268*%
%ADD651R,0.0001X0.0269*%
%ADD652R,0.0001X0.0269*%
%ADD653R,0.0001X0.0269*%
%ADD654R,0.0001X0.0271*%
%ADD655R,0.0001X0.0271*%
%ADD656R,0.0001X0.0271*%
%ADD657R,0.0001X0.0271*%
%ADD658R,0.0001X0.0272*%
%ADD659R,0.0001X0.0273*%
%ADD660R,0.0001X0.0272*%
%ADD661R,0.0001X0.0273*%
%ADD662R,0.0001X0.0274*%
%ADD663R,0.0001X0.0274*%
%ADD664R,0.0001X0.0274*%
%ADD665R,0.0001X0.0275*%
%ADD666R,0.0001X0.0276*%
%ADD667R,0.0001X0.0275*%
%ADD668R,0.0001X0.0277*%
%ADD669R,0.0001X0.0277*%
%ADD670R,0.0001X0.0277*%
%ADD671R,0.0001X0.0278*%
%ADD672R,0.0001X0.0278*%
%ADD673R,0.0001X0.0279*%
%ADD674R,0.0001X0.0279*%
%ADD675R,0.0001X0.0280*%
%ADD676R,0.0001X0.0280*%
%ADD677R,0.0001X0.0281*%
%ADD678R,0.0001X0.0281*%
%ADD679R,0.0001X0.0281*%
%ADD680R,0.0001X0.0282*%
%ADD681R,0.0001X0.0283*%
%ADD682R,0.0001X0.0284*%
%ADD683R,0.0001X0.0284*%
%ADD684R,0.0001X0.0284*%
%ADD685R,0.0001X0.0284*%
%ADD686R,0.0001X0.0284*%
%ADD687R,0.0001X0.0284*%
%ADD688R,0.0001X0.0286*%
%ADD689R,0.0001X0.0286*%
%ADD690R,0.0001X0.0286*%
%ADD691R,0.0001X0.0286*%
%ADD692R,0.0001X0.0287*%
%ADD693R,0.0001X0.0288*%
%ADD694R,0.0001X0.0288*%
%ADD695R,0.0001X0.0289*%
%ADD696R,0.0001X0.0289*%
%ADD697R,0.0001X0.0289*%
%ADD698R,0.0001X0.0290*%
%ADD699R,0.0001X0.0290*%
%ADD700R,0.0001X0.0290*%
%ADD701R,0.0001X0.0290*%
%ADD702R,0.0001X0.0291*%
%ADD703R,0.0001X0.0292*%
%ADD704R,0.0001X0.0292*%
%ADD705R,0.0001X0.0292*%
%ADD706R,0.0001X0.0292*%
%ADD707R,0.0001X0.0293*%
%ADD708R,0.0001X0.0293*%
%ADD709R,0.0001X0.0294*%
%ADD710R,0.0001X0.0294*%
%ADD711R,0.0001X0.0295*%
%ADD712R,0.0001X0.0295*%
%ADD713R,0.0001X0.0295*%
%ADD714R,0.0001X0.0296*%
%ADD715R,0.0001X0.0296*%
%ADD716R,0.0001X0.0296*%
%ADD717R,0.0001X0.0297*%
%ADD718R,0.0001X0.0297*%
%ADD719R,0.0001X0.0297*%
%ADD720R,0.0001X0.0298*%
%ADD721R,0.0001X0.0299*%
%ADD722R,0.0001X0.0299*%
%ADD723R,0.0001X0.0299*%
%ADD724R,0.0001X0.0301*%
%ADD725R,0.0001X0.0300*%
%ADD726R,0.0001X0.0301*%
%ADD727R,0.0001X0.0301*%
%ADD728R,0.0001X0.0301*%
%ADD729R,0.0001X0.0302*%
%ADD730R,0.0001X0.0303*%
%ADD731R,0.0001X0.0303*%
%ADD732R,0.0001X0.0303*%
%ADD733R,0.0001X0.0303*%
%ADD734R,0.0001X0.0608*%
%ADD735R,0.0001X0.0609*%
%ADD736R,0.0001X0.0609*%
%ADD737R,0.0001X0.0610*%
%ADD738R,0.0001X0.0610*%
%ADD739R,0.0001X0.0610*%
%ADD740R,0.0001X0.0611*%
%ADD741R,0.0001X0.0611*%
%ADD742R,0.0001X0.0608*%
%ADD743R,0.0001X0.0605*%
%ADD744R,0.0001X0.0601*%
%ADD745R,0.0001X0.0595*%
%ADD746R,0.0001X0.0591*%
%ADD747R,0.0001X0.0585*%
%ADD748R,0.0001X0.0581*%
%ADD749R,0.0001X0.0578*%
%ADD750R,0.0001X0.0571*%
%ADD751R,0.0001X0.0568*%
%ADD752R,0.0001X0.0565*%
%ADD753R,0.0001X0.0561*%
%ADD754R,0.0001X0.0554*%
%ADD755R,0.0001X0.0551*%
%ADD756R,0.0001X0.0544*%
%ADD757R,0.0001X0.0542*%
%ADD758R,0.0001X0.0537*%
%ADD759R,0.0001X0.0531*%
%ADD760R,0.0001X0.0527*%
%ADD761R,0.0001X0.0524*%
%ADD762R,0.0001X0.0521*%
%ADD763R,0.0001X0.0514*%
%ADD764R,0.0001X0.0511*%
%ADD765R,0.0001X0.0504*%
%ADD766R,0.0001X0.0501*%
%ADD767R,0.0001X0.0498*%
%ADD768R,0.0001X0.0491*%
%ADD769R,0.0001X0.0488*%
%ADD770R,0.0001X0.0484*%
%ADD771R,0.0001X0.0481*%
%ADD772R,0.0001X0.0475*%
%ADD773R,0.0001X0.0471*%
%ADD774R,0.0001X0.0465*%
%ADD775R,0.0001X0.0460*%
%ADD776R,0.0001X0.0458*%
%ADD777R,0.0001X0.0451*%
%ADD778R,0.0001X0.0448*%
%ADD779R,0.0001X0.0445*%
%ADD780R,0.0001X0.0441*%
%ADD781R,0.0001X0.0435*%
%ADD782R,0.0001X0.0431*%
%ADD783R,0.0001X0.0424*%
%ADD784R,0.0001X0.0421*%
%ADD785R,0.0001X0.0417*%
%ADD786R,0.0001X0.0411*%
%ADD787R,0.0001X0.0407*%
%ADD788R,0.0001X0.0404*%
%ADD789R,0.0001X0.0401*%
%ADD790R,0.0001X0.0394*%
%ADD791R,0.0001X0.0391*%
%ADD792R,0.0001X0.0384*%
%ADD793R,0.0001X0.0381*%
%ADD794R,0.0001X0.0377*%
%ADD795R,0.0001X0.0371*%
%ADD796R,0.0001X0.0368*%
%ADD797R,0.0001X0.0364*%
%ADD798R,0.0001X0.0361*%
%ADD799R,0.0001X0.0353*%
%ADD800R,0.0001X0.0351*%
%ADD801R,0.0001X0.0344*%
%ADD802R,0.0001X0.0340*%
%ADD803R,0.0001X0.0338*%
%ADD804R,0.0001X0.0331*%
%ADD805R,0.0001X0.0328*%
%ADD806R,0.0001X0.0325*%
%ADD807R,0.0001X0.0321*%
%ADD808R,0.0001X0.0314*%
%ADD809R,0.0001X0.0310*%
%ADD810R,0.0001X0.0304*%
%ADD811R,0.0001X0.0301*%
%ADD812R,0.0001X0.0287*%
%ADD813R,0.0001X0.0271*%
%ADD814R,0.0001X0.0261*%
%ADD815R,0.0001X0.0247*%
%ADD816R,0.0001X0.0244*%
%ADD817R,0.0001X0.0241*%
%ADD818R,0.0001X0.0233*%
%ADD819R,0.0001X0.0231*%
%ADD820R,0.0001X0.0224*%
%ADD821R,0.0001X0.0220*%
%ADD822R,0.0001X0.0218*%
%ADD823R,0.0001X0.0203*%
%ADD824R,0.0001X0.0201*%
%ADD825R,0.0001X0.0194*%
%ADD826R,0.0001X0.0190*%
%ADD827R,0.0001X0.0028*%
%ADD828R,0.0001X0.0072*%
%ADD829R,0.0001X0.0177*%
%ADD830R,0.0001X0.0091*%
%ADD831R,0.0001X0.0179*%
%ADD832R,0.0001X0.0164*%
%ADD833R,0.0001X0.0179*%
%ADD834R,0.0001X0.0164*%
%ADD835R,0.0001X0.0748*%
%ADD836R,0.0001X0.0748*%
%ADD837R,0.0001X0.0749*%
%ADD838R,0.0001X0.0749*%
%ADD839R,0.0001X0.0750*%
%ADD840R,0.0001X0.0750*%
%ADD841R,0.0001X0.0751*%
%ADD842R,0.0001X0.0751*%
%ADD843R,0.0001X0.0752*%
%ADD844R,0.0001X0.0752*%
%ADD845R,0.0001X0.0754*%
%ADD846R,0.0001X0.0754*%
%ADD847R,0.0001X0.0755*%
%ADD848R,0.0001X0.0755*%
%ADD849R,0.0001X0.0756*%
%ADD850R,0.0001X0.0756*%
%ADD851R,0.0001X0.0757*%
%ADD852R,0.0001X0.0757*%
%ADD853R,0.0001X0.0007*%
%ADD854R,0.0001X0.0007*%
%ADD855R,0.0001X0.0034*%
%ADD856R,0.0001X0.0031*%
%ADD857R,0.0001X0.0008*%
%ADD858R,0.0001X0.0008*%
%ADD859R,0.0001X0.0179*%
%ADD860R,0.0001X0.0008*%
%ADD861R,0.0001X0.0179*%
%ADD862R,0.0001X0.0043*%
%ADD863R,0.0001X0.0008*%
%ADD864R,0.0001X0.0044*%
%ADD865R,0.0001X0.0007*%
%ADD866R,0.0001X0.0044*%
%ADD867R,0.0001X0.0032*%
%ADD868R,0.0001X0.0009*%
%ADD869R,0.0001X0.0010*%
%ADD870R,0.0001X0.0190*%
%ADD871R,0.0001X0.0179*%
%ADD872R,0.0001X0.0009*%
%ADD873R,0.0001X0.0029*%
%ADD874R,0.0001X0.0041*%
%ADD875R,0.0001X0.0010*%
%ADD876R,0.0001X0.0043*%
%ADD877R,0.0001X0.0031*%
%ADD878R,0.0001X0.0181*%
%ADD879R,0.0001X0.0040*%
%ADD880R,0.0001X0.0031*%
%ADD881R,0.0001X0.0011*%
%ADD882R,0.0001X0.0028*%
%ADD883R,0.0001X0.0192*%
%ADD884R,0.0001X0.0182*%
%ADD885R,0.0001X0.0043*%
%ADD886R,0.0001X0.0012*%
%ADD887R,0.0001X0.0028*%
%ADD888R,0.0001X0.0038*%
%ADD889R,0.0001X0.0183*%
%ADD890R,0.0001X0.0041*%
%ADD891R,0.0001X0.0029*%
%ADD892R,0.0001X0.0027*%
%ADD893R,0.0001X0.0194*%
%ADD894R,0.0001X0.0035*%
%ADD895R,0.0001X0.0012*%
%ADD896R,0.0001X0.0040*%
%ADD897R,0.0001X0.0014*%
%ADD898R,0.0001X0.0184*%
%ADD899R,0.0001X0.0035*%
%ADD900R,0.0001X0.0034*%
%ADD901R,0.0001X0.0015*%
%ADD902R,0.0001X0.0185*%
%ADD903R,0.0001X0.0014*%
%ADD904R,0.0001X0.0039*%
%ADD905R,0.0001X0.0016*%
%ADD906R,0.0001X0.0025*%
%ADD907R,0.0001X0.0016*%
%ADD908R,0.0001X0.0196*%
%ADD909R,0.0001X0.0186*%
%ADD910R,0.0001X0.0014*%
%ADD911R,0.0001X0.0010*%
%ADD912R,0.0001X0.0038*%
%ADD913R,0.0001X0.0011*%
%ADD914R,0.0001X0.0017*%
%ADD915R,0.0001X0.0040*%
%ADD916R,0.0001X0.0196*%
%ADD917R,0.0001X0.0017*%
%ADD918R,0.0001X0.0187*%
%ADD919R,0.0001X0.0016*%
%ADD920R,0.0001X0.0023*%
%ADD921R,0.0001X0.0197*%
%ADD922R,0.0001X0.0028*%
%ADD923R,0.0001X0.0016*%
%ADD924R,0.0001X0.0023*%
%ADD925R,0.0001X0.0019*%
%ADD926R,0.0001X0.0023*%
%ADD927R,0.0001X0.0036*%
%ADD928R,0.0001X0.0198*%
%ADD929R,0.0001X0.0189*%
%ADD930R,0.0001X0.0022*%
%ADD931R,0.0001X0.0199*%
%ADD932R,0.0001X0.0025*%
%ADD933R,0.0001X0.0017*%
%ADD934R,0.0001X0.0012*%
%ADD935R,0.0001X0.0035*%
%ADD936R,0.0001X0.0021*%
%ADD937R,0.0001X0.0020*%
%ADD938R,0.0001X0.0022*%
%ADD939R,0.0001X0.0199*%
%ADD940R,0.0001X0.0190*%
%ADD941R,0.0001X0.0021*%
%ADD942R,0.0001X0.0019*%
%ADD943R,0.0001X0.0191*%
%ADD944R,0.0001X0.0019*%
%ADD945R,0.0001X0.0200*%
%ADD946R,0.0001X0.0192*%
%ADD947R,0.0001X0.0021*%
%ADD948R,0.0001X0.0020*%
%ADD949R,0.0001X0.0021*%
%ADD950R,0.0001X0.0203*%
%ADD951R,0.0001X0.0016*%
%ADD952R,0.0001X0.0203*%
%ADD953R,0.0001X0.0196*%
%ADD954R,0.0001X0.0023*%
%ADD955R,0.0001X0.0026*%
%ADD956R,0.0001X0.0204*%
%ADD957R,0.0001X0.0196*%
%ADD958R,0.0001X0.0023*%
%ADD959R,0.0001X0.0013*%
%ADD960R,0.0001X0.0017*%
%ADD961R,0.0001X0.0205*%
%ADD962R,0.0001X0.0197*%
%ADD963R,0.0001X0.0016*%
%ADD964R,0.0001X0.0205*%
%ADD965R,0.0001X0.0206*%
%ADD966R,0.0001X0.0206*%
%ADD967R,0.0001X0.0009*%
%ADD968R,0.0001X0.0016*%
%ADD969R,0.0001X0.0030*%
%ADD970R,0.0001X0.0207*%
%ADD971R,0.0001X0.0200*%
%ADD972R,0.0001X0.0207*%
%ADD973R,0.0001X0.0006*%
%ADD974R,0.0001X0.0202*%
%ADD975R,0.0001X0.0005*%
%ADD976R,0.0001X0.0209*%
%ADD977R,0.0001X0.0004*%
%ADD978R,0.0001X0.0209*%
%ADD979R,0.0001X0.0003*%
%ADD980R,0.0001X0.0017*%
%ADD981R,0.0001X0.0034*%
%ADD982R,0.0001X0.0012*%
%ADD983R,0.0001X0.0211*%
%ADD984R,0.0001X0.0001*%
%ADD985R,0.0001X0.0020*%
%ADD986R,0.0001X0.0020*%
%ADD987R,0.0001X0.0005*%
%ADD988R,0.0001X0.0036*%
%ADD989R,0.0001X0.0212*%
%ADD990R,0.0001X0.0205*%
%ADD991R,0.0001X0.0212*%
%ADD992R,0.0001X0.0031*%
%ADD993R,0.0001X0.0020*%
%ADD994R,0.0001X0.0004*%
%ADD995R,0.0001X0.0214*%
%ADD996R,0.0001X0.0215*%
%ADD997R,0.0001X0.0001*%
%ADD998R,0.0001X0.0217*%
%ADD999R,0.0001X0.0034*%
%ADD1000R,0.0001X0.0211*%
%ADD1001R,0.0001X0.0042*%
%ADD1002R,0.0001X0.0215*%
%ADD1003R,0.0001X0.0211*%
%ADD1004R,0.0001X0.0014*%
%ADD1005R,0.0001X0.0215*%
%ADD1006R,0.0001X0.0211*%
%ADD1007R,0.0001X0.0036*%
%ADD1008R,0.0001X0.0213*%
%ADD1009R,0.0001X0.0022*%
%ADD1010R,0.0001X0.0211*%
%ADD1011R,0.0001X0.0034*%
%ADD1012R,0.0001X0.0043*%
%ADD1013R,0.0001X0.0001*%
%ADD1014R,0.0001X0.0209*%
%ADD1015R,0.0001X0.0011*%
%ADD1016R,0.0001X0.0002*%
%ADD1017R,0.0001X0.0005*%
%ADD1018R,0.0001X0.0023*%
%ADD1019R,0.0001X0.0001*%
%ADD1020R,0.0001X0.0026*%
%ADD1021R,0.0001X0.0209*%
%ADD1022R,0.0001X0.0025*%
%ADD1023R,0.0001X0.0006*%
%ADD1024R,0.0001X0.0205*%
%ADD1025R,0.0001X0.0025*%
%ADD1026R,0.0001X0.0005*%
%ADD1027R,0.0001X0.0006*%
%ADD1028R,0.0001X0.0005*%
%ADD1029R,0.0001X0.0003*%
%ADD1030R,0.0001X0.0027*%
%ADD1031R,0.0001X0.0013*%
%ADD1032R,0.0001X0.0201*%
%ADD1033R,0.0001X0.0001*%
%ADD1034R,0.0001X0.0200*%
%ADD1035R,0.0001X0.0029*%
%ADD1036R,0.0001X0.0014*%
%ADD1037R,0.0001X0.0209*%
%ADD1038R,0.0001X0.0199*%
%ADD1039R,0.0001X0.0031*%
%ADD1040R,0.0001X0.0032*%
%ADD1041R,0.0001X0.0032*%
%ADD1042R,0.0001X0.0196*%
%ADD1043R,0.0001X0.0031*%
%ADD1044R,0.0001X0.0214*%
%ADD1045R,0.0001X0.0194*%
%ADD1046R,0.0001X0.0193*%
%ADD1047R,0.0001X0.0033*%
%ADD1048R,0.0001X0.0216*%
%ADD1049R,0.0001X0.0217*%
%ADD1050R,0.0001X0.0193*%
%ADD1051R,0.0001X0.0218*%
%ADD1052R,0.0001X0.0040*%
%ADD1053R,0.0001X0.0221*%
%ADD1054R,0.0001X0.0039*%
%ADD1055R,0.0001X0.0036*%
%ADD1056R,0.0001X0.0222*%
%ADD1057R,0.0001X0.0224*%
%ADD1058R,0.0001X0.0010*%
%ADD1059R,0.0001X0.0226*%
%ADD1060R,0.0001X0.0229*%
%ADD1061R,0.0001X0.0365*%
%ADD1062R,0.0001X0.0406*%
%ADD1063R,0.0001X0.0779*%
%ADD1064R,0.0001X0.0779*%
%ADD1065R,0.0001X0.0780*%
%ADD1066R,0.0001X0.0780*%
%ADD1067R,0.0001X0.0781*%
%ADD1068R,0.0001X0.0781*%
%ADD1069R,0.0001X0.0782*%
%ADD1070R,0.0001X0.0782*%
%ADD1071R,0.0001X0.0784*%
%ADD1072R,0.0001X0.0784*%
%ADD1073R,0.0001X0.0785*%
%ADD1074R,0.0001X0.0785*%
%ADD1075R,0.0001X0.0786*%
%ADD1076R,0.0001X0.0786*%
%ADD1077R,0.0001X0.0787*%
%ADD1078R,0.0001X0.0787*%
%ADD1079R,0.0001X0.0393*%
%ADD1080R,0.0001X0.0392*%
%ADD1081R,0.0001X0.0392*%
%ADD1082R,0.0001X0.0392*%
%ADD1083R,0.0001X0.0391*%
%ADD1084R,0.0001X0.0391*%
%ADD1085R,0.0001X0.0390*%
%ADD1086R,0.0001X0.0389*%
%ADD1087R,0.0001X0.0389*%
%ADD1088R,0.0001X0.0389*%
%ADD1089R,0.0001X0.0388*%
%ADD1090R,0.0001X0.0388*%
%ADD1091R,0.0001X0.0388*%
%ADD1092R,0.0001X0.0388*%
%ADD1093R,0.0001X0.0387*%
%ADD1094R,0.0001X0.0386*%
%ADD1095R,0.0001X0.0386*%
%ADD1096R,0.0001X0.0385*%
%ADD1097R,0.0001X0.0385*%
%ADD1098R,0.0001X0.0385*%
%ADD1099R,0.0001X0.0384*%
%ADD1100R,0.0001X0.0383*%
%ADD1101R,0.0001X0.0383*%
%ADD1102R,0.0001X0.0383*%
%ADD1103R,0.0001X0.0383*%
%ADD1104R,0.0001X0.0382*%
%ADD1105R,0.0001X0.0382*%
%ADD1106R,0.0001X0.0381*%
%ADD1107R,0.0001X0.0381*%
%ADD1108R,0.0001X0.0380*%
%ADD1109R,0.0001X0.0380*%
%ADD1110R,0.0001X0.0380*%
%ADD1111R,0.0001X0.0379*%
%ADD1112R,0.0001X0.0380*%
%ADD1113R,0.0001X0.0379*%
%ADD1114R,0.0001X0.0377*%
%ADD1115R,0.0001X0.0377*%
%ADD1116R,0.0001X0.0376*%
%ADD1117R,0.0001X0.0376*%
%ADD1118R,0.0001X0.0376*%
%ADD1119R,0.0001X0.0375*%
%ADD1120R,0.0001X0.0376*%
%ADD1121R,0.0001X0.0374*%
%ADD1122R,0.0001X0.0374*%
%ADD1123R,0.0001X0.0374*%
%ADD1124R,0.0001X0.0373*%
%ADD1125R,0.0001X0.0373*%
%ADD1126R,0.0001X0.0372*%
%ADD1127R,0.0001X0.0371*%
%ADD1128R,0.0001X0.0371*%
%ADD1129R,0.0001X0.0370*%
%ADD1130R,0.0001X0.0370*%
%ADD1131R,0.0001X0.0370*%
%ADD1132R,0.0001X0.0370*%
%ADD1133R,0.0001X0.0369*%
%ADD1134R,0.0001X0.0368*%
%ADD1135R,0.0001X0.0368*%
%ADD1136R,0.0001X0.0367*%
%ADD1137R,0.0001X0.0367*%
%ADD1138R,0.0001X0.0366*%
%ADD1139R,0.0001X0.0365*%
%ADD1140R,0.0001X0.0365*%
%ADD1141R,0.0001X0.0364*%
%ADD1142R,0.0001X0.0364*%
%ADD1143R,0.0001X0.0364*%
%ADD1144R,0.0001X0.0363*%
%ADD1145R,0.0001X0.0362*%
%ADD1146R,0.0001X0.0362*%
%ADD1147R,0.0001X0.0362*%
%ADD1148R,0.0001X0.0361*%
%ADD1149R,0.0001X0.0361*%
%ADD1150R,0.0001X0.0361*%
%ADD1151R,0.0001X0.0360*%
%ADD1152R,0.0001X0.0359*%
%ADD1153R,0.0001X0.0359*%
%ADD1154R,0.0001X0.0359*%
%ADD1155R,0.0001X0.0358*%
%ADD1156R,0.0001X0.0358*%
%ADD1157R,0.0001X0.0358*%
%ADD1158R,0.0001X0.0358*%
%ADD1159R,0.0001X0.0357*%
%ADD1160R,0.0001X0.0356*%
%ADD1161R,0.0001X0.0356*%
%ADD1162R,0.0001X0.0356*%
%ADD1163R,0.0001X0.0355*%
%ADD1164R,0.0001X0.0355*%
%ADD1165R,0.0001X0.0355*%
%ADD1166R,0.0001X0.0354*%
%ADD1167R,0.0001X0.0353*%
%ADD1168R,0.0001X0.0353*%
%ADD1169R,0.0001X0.0353*%
%ADD1170R,0.0001X0.0352*%
%ADD1171R,0.0001X0.0352*%
%ADD1172R,0.0001X0.0350*%
%ADD1173R,0.0001X0.0350*%
%ADD1174R,0.0001X0.0349*%
%ADD1175R,0.0001X0.0349*%
%ADD1176R,0.0001X0.0349*%
%ADD1177R,0.0001X0.0348*%
%ADD1178R,0.0001X0.0347*%
%ADD1179R,0.0001X0.0347*%
%ADD1180R,0.0001X0.0347*%
%ADD1181R,0.0001X0.0347*%
%ADD1182R,0.0001X0.0347*%
%ADD1183R,0.0001X0.0346*%
%ADD1184R,0.0001X0.0346*%
%ADD1185R,0.0001X0.0345*%
%ADD1186R,0.0001X0.0345*%
%ADD1187R,0.0001X0.0344*%
%ADD1188R,0.0001X0.0344*%
%ADD1189R,0.0001X0.0343*%
%ADD1190R,0.0001X0.0343*%
%ADD1191R,0.0001X0.0343*%
%ADD1192R,0.0001X0.0342*%
%ADD1193R,0.0001X0.0342*%
%ADD1194R,0.0001X0.0341*%
%ADD1195R,0.0001X0.0341*%
%ADD1196R,0.0001X0.0341*%
%ADD1197R,0.0001X0.0340*%
%ADD1198R,0.0001X0.0340*%
%ADD1199R,0.0001X0.0339*%
%ADD1200R,0.0001X0.0338*%
%ADD1201R,0.0001X0.0338*%
%ADD1202R,0.0001X0.0337*%
%ADD1203R,0.0001X0.0337*%
%ADD1204R,0.0001X0.0337*%
%ADD1205R,0.0001X0.0336*%
%ADD1206R,0.0001X0.0336*%
%ADD1207R,0.0001X0.0335*%
%ADD1208R,0.0001X0.0335*%
%ADD1209R,0.0001X0.0334*%
%ADD1210R,0.0001X0.0334*%
%ADD1211R,0.0001X0.0333*%
%ADD1212R,0.0001X0.0333*%
%ADD1213R,0.0001X0.0332*%
%ADD1214R,0.0001X0.0332*%
%ADD1215R,0.0001X0.0332*%
%ADD1216R,0.0001X0.0331*%
%ADD1217R,0.0001X0.0331*%
%ADD1218R,0.0001X0.0330*%
%ADD1219R,0.0001X0.0330*%
%ADD1220R,0.0001X0.0329*%
%ADD1221R,0.0001X0.0329*%
%ADD1222R,0.0001X0.0329*%
%ADD1223R,0.0001X0.0328*%
%ADD1224R,0.0001X0.0327*%
%ADD1225R,0.0001X0.0326*%
%ADD1226R,0.0001X0.0326*%
%ADD1227R,0.0001X0.0326*%
%ADD1228R,0.0001X0.0326*%
%ADD1229R,0.0001X0.0326*%
%ADD1230R,0.0001X0.0323*%
%ADD1231R,0.0001X0.0323*%
%ADD1232R,0.0001X0.0323*%
%ADD1233R,0.0001X0.0323*%
%ADD1234R,0.0001X0.0323*%
%ADD1235R,0.0001X0.0322*%
%ADD1236R,0.0001X0.0322*%
%ADD1237R,0.0001X0.0321*%
%ADD1238R,0.0001X0.0322*%
%ADD1239R,0.0001X0.0322*%
%ADD1240R,0.0001X0.0320*%
%ADD1241R,0.0001X0.0320*%
%ADD1242R,0.0001X0.0320*%
%ADD1243R,0.0001X0.0319*%
%ADD1244R,0.0001X0.0319*%
%ADD1245R,0.0001X0.0319*%
%ADD1246R,0.0001X0.0318*%
%ADD1247R,0.0001X0.0317*%
%ADD1248R,0.0001X0.0317*%
%ADD1249R,0.0001X0.0317*%
%ADD1250R,0.0001X0.0316*%
%ADD1251R,0.0001X0.0316*%
%ADD1252R,0.0001X0.0315*%
%ADD1253R,0.0001X0.0314*%
%ADD1254R,0.0001X0.0314*%
%ADD1255R,0.0001X0.0314*%
%ADD1256R,0.0001X0.0313*%
%ADD1257R,0.0001X0.0313*%
%ADD1258R,0.0001X0.0312*%
%ADD1259R,0.0001X0.0312*%
%ADD1260R,0.0001X0.0311*%
%ADD1261R,0.0001X0.0311*%
%ADD1262R,0.0001X0.0311*%
%ADD1263R,0.0001X0.0310*%
%ADD1264R,0.0001X0.0309*%
%ADD1265R,0.0001X0.0309*%
%ADD1266R,0.0001X0.0308*%
%ADD1267R,0.0001X0.0308*%
%ADD1268R,0.0001X0.0308*%
%ADD1269R,0.0001X0.0307*%
%ADD1270R,0.0001X0.0307*%
%ADD1271R,0.0001X0.0307*%
%ADD1272R,0.0001X0.0306*%
%ADD1273R,0.0001X0.0305*%
%ADD1274R,0.0001X0.0305*%
%ADD1275R,0.0001X0.0305*%
%ADD1276R,0.0001X0.0304*%
%ADD1277R,0.0001X0.0304*%
%ADD1278R,0.0001X0.0302*%
%ADD1279R,0.0001X0.0302*%
%ADD1280R,0.0001X0.0301*%
%ADD1281R,0.0001X0.0301*%
%ADD1282R,0.0001X0.0300*%
%ADD1283R,0.0001X0.0299*%
%ADD1284R,0.0001X0.0298*%
%ADD1285R,0.0001X0.0298*%
%ADD1286R,0.0001X0.0298*%
%ADD1287R,0.0001X0.0297*%
%ADD1288R,0.0001X0.0296*%
%ADD1289R,0.0001X0.0295*%
%ADD1290R,0.0001X0.0295*%
%ADD1291R,0.0001X0.0294*%
%ADD1292R,0.0001X0.0293*%
%ADD1293R,0.0001X0.0293*%
%ADD1294R,0.0001X0.0292*%
%ADD1295R,0.0001X0.0292*%
%ADD1296R,0.0001X0.0290*%
%ADD1297R,0.0001X0.0288*%
%ADD1298R,0.0001X0.0288*%
%ADD1299R,0.0001X0.0287*%
%ADD1300R,0.0001X0.0287*%
%ADD1301R,0.0001X0.0286*%
%ADD1302R,0.0001X0.0286*%
%ADD1303R,0.0001X0.0285*%
%ADD1304R,0.0001X0.0284*%
%ADD1305R,0.0001X0.0284*%
%ADD1306R,0.0001X0.0283*%
%ADD1307R,0.0001X0.0282*%
%ADD1308R,0.0001X0.0281*%
%ADD1309R,0.0001X0.0280*%
%ADD1310R,0.0001X0.0280*%
%ADD1311R,0.0001X0.0279*%
%ADD1312R,0.0001X0.0278*%
%ADD1313R,0.0001X0.0277*%
%ADD1314R,0.0001X0.0277*%
%ADD1315R,0.0001X0.0275*%
%ADD1316R,0.0001X0.0275*%
%ADD1317R,0.0001X0.0274*%
%ADD1318R,0.0001X0.0275*%
%ADD1319R,0.0001X0.0273*%
%ADD1320R,0.0001X0.0273*%
%ADD1321R,0.0001X0.0272*%
%ADD1322R,0.0001X0.0271*%
%ADD1323R,0.0001X0.0271*%
%ADD1324R,0.0001X0.0270*%
%ADD1325R,0.0001X0.0269*%
%ADD1326R,0.0001X0.0266*%
%ADD1327R,0.0001X0.0265*%
%ADD1328R,0.0001X0.0266*%
%ADD1329R,0.0001X0.0265*%
%ADD1330R,0.0001X0.0263*%
%ADD1331R,0.0001X0.0263*%
%ADD1332R,0.0001X0.0261*%
%ADD1333R,0.0001X0.0261*%
%ADD1334R,0.0001X0.0260*%
%ADD1335R,0.0001X0.0259*%
%ADD1336R,0.0001X0.0259*%
%ADD1337R,0.0001X0.0257*%
%ADD1338R,0.0001X0.0256*%
%ADD1339R,0.0001X0.0256*%
%ADD1340R,0.0001X0.0254*%
%ADD1341R,0.0001X0.0255*%
%ADD1342R,0.0001X0.0254*%
%ADD1343R,0.0001X0.0253*%
%ADD1344R,0.0001X0.0253*%
%ADD1345R,0.0001X0.0253*%
%ADD1346R,0.0001X0.0251*%
%ADD1347R,0.0001X0.0250*%
%ADD1348R,0.0001X0.0250*%
%ADD1349R,0.0001X0.0250*%
%ADD1350R,0.0001X0.0249*%
%ADD1351R,0.0001X0.0248*%
%ADD1352R,0.0001X0.0247*%
%ADD1353R,0.0001X0.0246*%
%ADD1354R,0.0001X0.0246*%
%ADD1355R,0.0001X0.0245*%
%ADD1356R,0.0001X0.0244*%
%ADD1357R,0.0001X0.0242*%
%ADD1358R,0.0001X0.0242*%
%ADD1359R,0.0001X0.0241*%
%ADD1360R,0.0001X0.0241*%
%ADD1361R,0.0001X0.0240*%
%ADD1362R,0.0001X0.0239*%
%ADD1363R,0.0001X0.0238*%
%ADD1364R,0.0001X0.0238*%
%ADD1365R,0.0001X0.0237*%
%ADD1366R,0.0001X0.0236*%
%ADD1367R,0.0001X0.0235*%
%ADD1368R,0.0001X0.0235*%
%ADD1369R,0.0001X0.0235*%
%ADD1370R,0.0001X0.0233*%
%ADD1371R,0.0001X0.0233*%
%ADD1372R,0.0001X0.0232*%
%ADD1373R,0.0001X0.0231*%
%ADD1374R,0.0001X0.0230*%
%ADD1375R,0.0001X0.0229*%
%ADD1376R,0.0001X0.0227*%
%ADD1377R,0.0001X0.0226*%
%ADD1378R,0.0001X0.0226*%
%ADD1379R,0.0001X0.0226*%
%ADD1380R,0.0001X0.0225*%
%ADD1381R,0.0001X0.0224*%
%ADD1382R,0.0001X0.0223*%
%ADD1383R,0.0001X0.0222*%
%ADD1384R,0.0001X0.0220*%
%ADD1385R,0.0001X0.0218*%
%ADD1386R,0.0001X0.0218*%
%ADD1387R,0.0001X0.0218*%
%ADD1388R,0.0001X0.0217*%
%ADD1389R,0.0001X0.0216*%
%ADD1390R,0.0001X0.0214*%
%ADD1391R,0.0001X0.0213*%
%ADD1392R,0.0001X0.0206*%
%ADD1393R,0.0001X0.0204*%
%ADD1394R,0.0001X0.0202*%
%ADD1395R,0.0001X0.0202*%
%ADD1396R,0.0001X0.0202*%
%ADD1397R,0.0001X0.0198*%
%ADD1398R,0.0001X0.0194*%
%ADD1399R,0.0001X0.0194*%
%ADD1400R,0.0001X0.0191*%
%ADD1401R,0.0001X0.0190*%
%ADD1402R,0.0001X0.0189*%
%ADD1403R,0.0001X0.0187*%
%ADD1404R,0.0001X0.0187*%
%ADD1405R,0.0001X0.0187*%
%ADD1406R,0.0001X0.0186*%
%ADD1407R,0.0001X0.0185*%
%ADD1408R,0.0001X0.0184*%
%ADD1409R,0.0001X0.0183*%
%ADD1410R,0.0001X0.0181*%
%ADD1411R,0.0001X0.0179*%
%ADD1412R,0.0001X0.0179*%
%ADD1413R,0.0001X0.0178*%
%ADD1414R,0.0001X0.0177*%
%ADD1415R,0.0001X0.0176*%
%ADD1416R,0.0001X0.0176*%
%ADD1417R,0.0001X0.0175*%
%ADD1418R,0.0001X0.0174*%
%ADD1419R,0.0001X0.0173*%
%ADD1420R,0.0001X0.0172*%
%ADD1421R,0.0001X0.0172*%
%ADD1422R,0.0001X0.0172*%
%ADD1423R,0.0001X0.0171*%
%ADD1424R,0.0001X0.0170*%
%ADD1425R,0.0001X0.0170*%
%ADD1426R,0.0001X0.0169*%
%ADD1427R,0.0001X0.0170*%
%ADD1428R,0.0001X0.0168*%
%ADD1429R,0.0001X0.0168*%
%ADD1430R,0.0001X0.0167*%
%ADD1431R,0.0001X0.0166*%
%ADD1432R,0.0001X0.0165*%
%ADD1433R,0.0001X0.0164*%
%ADD1434R,0.0001X0.0164*%
%ADD1435R,0.0001X0.0164*%
%ADD1436R,0.0001X0.0163*%
%ADD1437R,0.0001X0.0163*%
%ADD1438R,0.0001X0.0163*%
%ADD1439R,0.0001X0.0163*%
%ADD1440R,0.0001X0.0162*%
%ADD1441R,0.0001X0.0160*%
%ADD1442R,0.0001X0.0160*%
%ADD1443R,0.0001X0.0160*%
%ADD1444R,0.0001X0.0158*%
%ADD1445R,0.0001X0.0158*%
%ADD1446R,0.0001X0.0157*%
%ADD1447R,0.0001X0.0157*%
%ADD1448R,0.0001X0.0157*%
%ADD1449R,0.0001X0.0155*%
%ADD1450R,0.0001X0.0155*%
%ADD1451R,0.0001X0.0155*%
%ADD1452R,0.0001X0.0153*%
%ADD1453R,0.0001X0.0152*%
%ADD1454R,0.0001X0.0152*%
%ADD1455R,0.0001X0.0151*%
%ADD1456R,0.0001X0.0149*%
%ADD1457R,0.0001X0.0149*%
%ADD1458R,0.0001X0.0148*%
%ADD1459R,0.0001X0.0147*%
%ADD1460R,0.0001X0.0146*%
%ADD1461R,0.0001X0.0146*%
%ADD1462R,0.0001X0.0146*%
%ADD1463R,0.0001X0.0145*%
%ADD1464R,0.0001X0.0144*%
%ADD1465R,0.0001X0.0143*%
%ADD1466R,0.0001X0.0142*%
%ADD1467R,0.0001X0.0142*%
%ADD1468R,0.0001X0.0142*%
%ADD1469R,0.0001X0.0140*%
%ADD1470R,0.0001X0.0140*%
%ADD1471R,0.0001X0.0138*%
%ADD1472R,0.0001X0.0137*%
%ADD1473R,0.0001X0.0136*%
%ADD1474R,0.0001X0.0134*%
%ADD1475R,0.0001X0.0135*%
%ADD1476R,0.0001X0.0133*%
%ADD1477R,0.0001X0.0133*%
%ADD1478R,0.0001X0.0132*%
%ADD1479R,0.0001X0.0131*%
%ADD1480R,0.0001X0.0130*%
%ADD1481R,0.0001X0.0129*%
%ADD1482R,0.0001X0.0129*%
%ADD1483R,0.0001X0.0128*%
%ADD1484R,0.0001X0.0128*%
%ADD1485R,0.0001X0.0127*%
%ADD1486R,0.0001X0.0127*%
%ADD1487R,0.0001X0.0125*%
%ADD1488R,0.0001X0.0124*%
%ADD1489R,0.0001X0.0122*%
%ADD1490R,0.0001X0.0122*%
%ADD1491R,0.0001X0.0122*%
%ADD1492R,0.0001X0.0121*%
%ADD1493R,0.0001X0.0121*%
%ADD1494R,0.0001X0.0120*%
%ADD1495R,0.0001X0.0119*%
%ADD1496R,0.0001X0.0119*%
%ADD1497R,0.0001X0.0118*%
%ADD1498R,0.0001X0.0118*%
%ADD1499R,0.0001X0.0118*%
%ADD1500R,0.0001X0.0116*%
%ADD1501R,0.0001X0.0116*%
%ADD1502R,0.0001X0.0113*%
%ADD1503R,0.0001X0.0112*%
%ADD1504R,0.0001X0.0111*%
%ADD1505R,0.0001X0.0110*%
%ADD1506R,0.0001X0.0110*%
%ADD1507R,0.0001X0.0110*%
%ADD1508R,0.0001X0.0109*%
%ADD1509R,0.0001X0.0108*%
%ADD1510R,0.0001X0.0107*%
%ADD1511R,0.0001X0.0106*%
%ADD1512R,0.0001X0.0105*%
%ADD1513R,0.0001X0.0103*%
%ADD1514R,0.0001X0.0103*%
%ADD1515R,0.0001X0.0103*%
%ADD1516R,0.0001X0.0103*%
%ADD1517R,0.0001X0.0101*%
%ADD1518R,0.0001X0.0101*%
%ADD1519R,0.0001X0.0101*%
%ADD1520R,0.0001X0.0100*%
%ADD1521R,0.0001X0.0100*%
%ADD1522R,0.0001X0.0100*%
%ADD1523R,0.0001X0.0096*%
%ADD1524R,0.0001X0.0095*%
%ADD1525R,0.0001X0.0095*%
%ADD1526R,0.0001X0.0094*%
%ADD1527R,0.0001X0.0092*%
%ADD1528R,0.0001X0.0091*%
%ADD1529R,0.0001X0.0091*%
%ADD1530R,0.0001X0.0091*%
%ADD1531R,0.0001X0.0091*%
%ADD1532R,0.0001X0.0089*%
%ADD1533R,0.0001X0.0089*%
%ADD1534R,0.0001X0.0089*%
%ADD1535R,0.0001X0.0087*%
%ADD1536R,0.0001X0.0085*%
%ADD1537R,0.0001X0.0085*%
%ADD1538R,0.0001X0.0085*%
%ADD1539R,0.0001X0.0083*%
%ADD1540R,0.0001X0.0083*%
%ADD1541R,0.0001X0.0082*%
%ADD1542R,0.0001X0.0081*%
%ADD1543R,0.0001X0.0081*%
%ADD1544R,0.0001X0.0080*%
%ADD1545R,0.0001X0.0080*%
%ADD1546R,0.0001X0.0079*%
%ADD1547R,0.0001X0.0079*%
%ADD1548R,0.0001X0.0078*%
%ADD1549R,0.0001X0.0078*%
%ADD1550R,0.0001X0.0077*%
%ADD1551R,0.0001X0.0077*%
%ADD1552R,0.0001X0.0077*%
%ADD1553R,0.0001X0.0076*%
%ADD1554R,0.0001X0.0075*%
%ADD1555R,0.0001X0.0076*%
%ADD1556R,0.0001X0.0074*%
%ADD1557R,0.0001X0.0074*%
%ADD1558R,0.0001X0.0074*%
%ADD1559R,0.0001X0.0073*%
%ADD1560R,0.0001X0.0072*%
%ADD1561R,0.0001X0.0070*%
%ADD1562R,0.0001X0.0069*%
%ADD1563R,0.0001X0.0068*%
%ADD1564R,0.0001X0.0068*%
%ADD1565R,0.0001X0.0066*%
%ADD1566R,0.0001X0.0065*%
%ADD1567R,0.0001X0.0065*%
%ADD1568R,0.0001X0.0065*%
%ADD1569R,0.0001X0.0065*%
%ADD1570R,0.0001X0.0063*%
%ADD1571R,0.0001X0.0062*%
%ADD1572R,0.0001X0.0061*%
%ADD1573R,0.0001X0.0061*%
%ADD1574R,0.0001X0.0061*%
%ADD1575R,0.0001X0.0060*%
%ADD1576R,0.0001X0.0059*%
%ADD1577R,0.0001X0.0059*%
%ADD1578R,0.0001X0.0058*%
%ADD1579R,0.0001X0.0056*%
%ADD1580R,0.0001X0.0055*%
%ADD1581R,0.0001X0.0053*%
%ADD1582R,0.0001X0.0053*%
%ADD1583R,0.0001X0.0052*%
%ADD1584R,0.0001X0.0052*%
%ADD1585R,0.0001X0.0052*%
%ADD1586R,0.0001X0.0052*%
%ADD1587R,0.0001X0.0051*%
%ADD1588R,0.0001X0.0051*%
%ADD1589R,0.0001X0.0049*%
%ADD1590R,0.0001X0.0048*%
%ADD1591R,0.0001X0.0047*%
%ADD1592R,0.0001X0.0046*%
%ADD1593R,0.0001X0.0046*%
%ADD1594R,0.0001X0.0040*%
%ADD1595R,0.0001X0.0038*%
%ADD1596R,0.0001X0.0035*%
%ADD1597R,0.0001X0.0028*%
%ADD1598R,0.0001X0.0026*%
%ADD1599R,0.0001X0.0014*%
%ADD1600R,0.0001X0.0011*%
%ADD1601R,0.0001X0.0006*%
D10*
X002380Y006430D02*
X002382Y006526D01*
X002388Y006621D01*
X002398Y006716D01*
X002412Y006811D01*
X002430Y006905D01*
X002451Y006998D01*
X002477Y007090D01*
X002506Y007182D01*
X002539Y007271D01*
X002576Y007360D01*
X002617Y007446D01*
X002661Y007531D01*
X002708Y007614D01*
X002759Y007695D01*
X002814Y007774D01*
X002871Y007851D01*
X002932Y007925D01*
X002996Y007996D01*
X003062Y008065D01*
X003132Y008131D01*
X003204Y008194D01*
X003278Y008253D01*
X003355Y008310D01*
X003435Y008364D01*
X003516Y008414D01*
X003600Y008461D01*
X003685Y008504D01*
X003772Y008543D01*
X003861Y008579D01*
X003951Y008611D01*
X004042Y008640D01*
X004135Y008664D01*
X004228Y008685D01*
X004323Y008702D01*
X004417Y008715D01*
X004513Y008724D01*
X004608Y008729D01*
X004704Y008730D01*
X004800Y008727D01*
X004895Y008720D01*
X004990Y008709D01*
X005085Y008694D01*
X005178Y008675D01*
X005271Y008653D01*
X005363Y008626D01*
X005454Y008596D01*
X005544Y008562D01*
X005631Y008524D01*
X005718Y008483D01*
X005802Y008438D01*
X005885Y008389D01*
X005965Y008337D01*
X006043Y008282D01*
X006119Y008224D01*
X006193Y008163D01*
X006264Y008098D01*
X006332Y008031D01*
X006397Y007961D01*
X006459Y007888D01*
X006518Y007813D01*
X006574Y007735D01*
X006627Y007655D01*
X006676Y007573D01*
X006722Y007489D01*
X006764Y007403D01*
X006803Y007316D01*
X006838Y007227D01*
X006869Y007136D01*
X006896Y007045D01*
X006920Y006952D01*
X006940Y006858D01*
X006956Y006764D01*
X006968Y006669D01*
X006976Y006573D01*
X006980Y006478D01*
X006980Y006382D01*
X006976Y006287D01*
X006968Y006191D01*
X006956Y006096D01*
X006940Y006002D01*
X006920Y005908D01*
X006896Y005815D01*
X006869Y005724D01*
X006838Y005633D01*
X006803Y005544D01*
X006764Y005457D01*
X006722Y005371D01*
X006676Y005287D01*
X006627Y005205D01*
X006574Y005125D01*
X006518Y005047D01*
X006459Y004972D01*
X006397Y004899D01*
X006332Y004829D01*
X006264Y004762D01*
X006193Y004697D01*
X006119Y004636D01*
X006043Y004578D01*
X005965Y004523D01*
X005885Y004471D01*
X005802Y004422D01*
X005718Y004377D01*
X005631Y004336D01*
X005544Y004298D01*
X005454Y004264D01*
X005363Y004234D01*
X005271Y004207D01*
X005178Y004185D01*
X005085Y004166D01*
X004990Y004151D01*
X004895Y004140D01*
X004800Y004133D01*
X004704Y004130D01*
X004608Y004131D01*
X004513Y004136D01*
X004417Y004145D01*
X004323Y004158D01*
X004228Y004175D01*
X004135Y004196D01*
X004042Y004220D01*
X003951Y004249D01*
X003861Y004281D01*
X003772Y004317D01*
X003685Y004356D01*
X003600Y004399D01*
X003516Y004446D01*
X003435Y004496D01*
X003355Y004550D01*
X003278Y004607D01*
X003204Y004666D01*
X003132Y004729D01*
X003062Y004795D01*
X002996Y004864D01*
X002932Y004935D01*
X002871Y005009D01*
X002814Y005086D01*
X002759Y005165D01*
X002708Y005246D01*
X002661Y005329D01*
X002617Y005414D01*
X002576Y005500D01*
X002539Y005589D01*
X002506Y005678D01*
X002477Y005770D01*
X002451Y005862D01*
X002430Y005955D01*
X002412Y006049D01*
X002398Y006144D01*
X002388Y006239D01*
X002382Y006334D01*
X002380Y006430D01*
D11*
X003613Y007670D02*
X003613Y007895D01*
X003613Y007670D02*
X003688Y007595D01*
X003838Y007595D01*
X003913Y007670D01*
X004074Y007595D02*
X004299Y007595D01*
X004374Y007670D01*
X004374Y007820D01*
X004299Y007895D01*
X004074Y007895D01*
X003913Y007895D02*
X003913Y007445D01*
X004534Y007595D02*
X004534Y007895D01*
X004759Y007895D01*
X004834Y007820D01*
X004834Y007595D01*
X004994Y007670D02*
X004994Y007820D01*
X005069Y007895D01*
X005220Y007895D01*
X005295Y007820D01*
X005295Y007670D01*
X005220Y007595D01*
X005069Y007595D01*
X004994Y007670D01*
X005455Y007445D02*
X005755Y007445D01*
X005605Y007445D02*
X005605Y007895D01*
X002610Y006430D02*
X002612Y006521D01*
X002618Y006612D01*
X002628Y006702D01*
X002642Y006792D01*
X002660Y006881D01*
X002682Y006969D01*
X002707Y007057D01*
X002737Y007143D01*
X002770Y007227D01*
X002807Y007311D01*
X002847Y007392D01*
X002891Y007472D01*
X002939Y007549D01*
X002989Y007625D01*
X003044Y007698D01*
X003101Y007768D01*
X003161Y007836D01*
X003224Y007902D01*
X003290Y007964D01*
X003359Y008024D01*
X003430Y008080D01*
X003504Y008134D01*
X003580Y008184D01*
X003658Y008230D01*
X003738Y008273D01*
X003820Y008313D01*
X003904Y008349D01*
X003989Y008381D01*
X004075Y008410D01*
X004163Y008434D01*
X004251Y008455D01*
X004340Y008472D01*
X004430Y008485D01*
X004521Y008494D01*
X004612Y008499D01*
X004703Y008500D01*
X004794Y008497D01*
X004884Y008490D01*
X004975Y008479D01*
X005064Y008464D01*
X005153Y008445D01*
X005241Y008422D01*
X005328Y008396D01*
X005414Y008365D01*
X005498Y008331D01*
X005581Y008294D01*
X005662Y008252D01*
X005741Y008207D01*
X005818Y008159D01*
X005893Y008107D01*
X005966Y008052D01*
X006036Y007994D01*
X006103Y007933D01*
X006168Y007869D01*
X006229Y007803D01*
X006288Y007733D01*
X006344Y007661D01*
X006396Y007587D01*
X006446Y007511D01*
X006491Y007432D01*
X006534Y007351D01*
X006572Y007269D01*
X006607Y007185D01*
X006639Y007100D01*
X006666Y007013D01*
X006690Y006925D01*
X006710Y006837D01*
X006726Y006747D01*
X006738Y006657D01*
X006746Y006566D01*
X006750Y006475D01*
X006750Y006385D01*
X006746Y006294D01*
X006738Y006203D01*
X006726Y006113D01*
X006710Y006023D01*
X006690Y005935D01*
X006666Y005847D01*
X006639Y005760D01*
X006607Y005675D01*
X006572Y005591D01*
X006534Y005509D01*
X006491Y005428D01*
X006446Y005349D01*
X006396Y005273D01*
X006344Y005199D01*
X006288Y005127D01*
X006229Y005057D01*
X006168Y004991D01*
X006103Y004927D01*
X006036Y004866D01*
X005966Y004808D01*
X005893Y004753D01*
X005818Y004701D01*
X005741Y004653D01*
X005662Y004608D01*
X005581Y004566D01*
X005498Y004529D01*
X005414Y004495D01*
X005328Y004464D01*
X005241Y004438D01*
X005153Y004415D01*
X005064Y004396D01*
X004975Y004381D01*
X004884Y004370D01*
X004794Y004363D01*
X004703Y004360D01*
X004612Y004361D01*
X004521Y004366D01*
X004430Y004375D01*
X004340Y004388D01*
X004251Y004405D01*
X004163Y004426D01*
X004075Y004450D01*
X003989Y004479D01*
X003904Y004511D01*
X003820Y004547D01*
X003738Y004587D01*
X003658Y004630D01*
X003580Y004676D01*
X003504Y004726D01*
X003430Y004780D01*
X003359Y004836D01*
X003290Y004896D01*
X003224Y004958D01*
X003161Y005024D01*
X003101Y005092D01*
X003044Y005162D01*
X002989Y005235D01*
X002939Y005311D01*
X002891Y005388D01*
X002847Y005468D01*
X002807Y005549D01*
X002770Y005633D01*
X002737Y005717D01*
X002707Y005803D01*
X002682Y005891D01*
X002660Y005979D01*
X002642Y006068D01*
X002628Y006158D01*
X002618Y006248D01*
X002612Y006339D01*
X002610Y006430D01*
X002680Y004330D02*
X003680Y004330D01*
X003680Y004080D01*
X002680Y004080D01*
X002680Y004330D01*
X002680Y004080D02*
X002680Y002080D01*
X006680Y002080D01*
X006680Y004080D01*
X006680Y004330D01*
X005680Y004330D01*
X005680Y004080D01*
X003680Y004080D01*
X002260Y004090D02*
X002260Y003490D01*
X001060Y003490D01*
X001060Y004090D01*
X002260Y004090D01*
X005680Y004080D02*
X006680Y004080D01*
X006870Y004090D02*
X007470Y004090D01*
X007470Y002890D01*
X006870Y002890D01*
X006870Y004090D01*
X007580Y004090D02*
X008180Y004090D01*
X008180Y002890D01*
X007580Y002890D01*
X007580Y004090D01*
X007740Y003530D02*
X007880Y003420D01*
X008020Y003530D01*
X007740Y003530D01*
X008120Y002270D02*
X006920Y002270D01*
X006920Y001670D01*
X008120Y001670D01*
X008120Y002270D01*
D12*
X002250Y005240D03*
X002080Y005760D03*
X002250Y005800D03*
X001990Y006520D03*
X001980Y006520D03*
X002250Y006970D03*
X002220Y007180D03*
X002080Y007180D03*
X002070Y007220D03*
X002040Y007420D03*
X002060Y007520D03*
X002100Y007570D03*
X002090Y007670D03*
X002210Y007720D03*
X002150Y007470D03*
X001920Y007710D03*
X001790Y007670D03*
X001700Y007660D03*
X001630Y007630D03*
X001830Y008200D03*
D13*
X002070Y007175D03*
X002070Y006755D03*
X001640Y006645D03*
X002010Y005865D03*
X001640Y005335D03*
X002240Y005245D03*
D14*
X002240Y005425D03*
X002230Y005905D03*
X002170Y006165D03*
X002110Y006235D03*
X002170Y006325D03*
X001850Y006595D03*
X001840Y006595D03*
X002220Y006965D03*
X002030Y007525D03*
X001970Y007595D03*
X002050Y007675D03*
X002040Y007825D03*
X001980Y008165D03*
D15*
X002090Y008135D03*
X002100Y008135D03*
X002110Y008135D03*
X002120Y008135D03*
X002130Y008135D03*
X002140Y008135D03*
X002150Y008135D03*
X002160Y008135D03*
X002210Y008135D03*
X002220Y008135D03*
X002230Y008135D03*
X002230Y008025D03*
X002220Y008025D03*
X002210Y008025D03*
X002160Y008025D03*
X002150Y008025D03*
X002140Y008025D03*
X002130Y008025D03*
X002120Y008025D03*
X002110Y008025D03*
X002100Y008025D03*
X002090Y008025D03*
X002090Y007845D03*
X002100Y007845D03*
X002110Y007845D03*
X002120Y007845D03*
X002130Y007845D03*
X002140Y007845D03*
X002150Y007845D03*
X002160Y007845D03*
X002210Y007845D03*
X002220Y007845D03*
X002230Y007845D03*
X002190Y007725D03*
X002110Y007585D03*
X001970Y007465D03*
X001960Y007465D03*
X001950Y007465D03*
X001940Y007465D03*
X001930Y007465D03*
X001920Y007465D03*
X001920Y007315D03*
X001930Y007315D03*
X001940Y007315D03*
X001950Y007315D03*
X001960Y007315D03*
X001970Y007315D03*
X002020Y007315D03*
X002030Y007315D03*
X002080Y007225D03*
X002100Y007225D03*
X002120Y007215D03*
X002140Y007205D03*
X002160Y007195D03*
X002210Y007175D03*
X001930Y006785D03*
X001900Y006795D03*
X001840Y006815D03*
X001810Y006825D03*
X001770Y006835D03*
X001700Y006855D03*
X001960Y006525D03*
X001960Y005785D03*
X001950Y005785D03*
X001940Y005785D03*
X001930Y005785D03*
X001920Y005785D03*
X001910Y005785D03*
X001900Y005785D03*
X001890Y005785D03*
X001880Y005785D03*
X001870Y005785D03*
X001860Y005785D03*
X001850Y005785D03*
X001840Y005785D03*
X001830Y005785D03*
X001820Y005785D03*
X001810Y005785D03*
X001810Y005675D03*
X001820Y005675D03*
X001830Y005675D03*
X001840Y005675D03*
X001850Y005675D03*
X001860Y005675D03*
X001870Y005675D03*
X001880Y005675D03*
X001890Y005675D03*
X001900Y005675D03*
X001910Y005675D03*
X001920Y005675D03*
X001930Y005675D03*
X001940Y005675D03*
X001950Y005675D03*
X001960Y005675D03*
X002010Y005675D03*
X002020Y005675D03*
X002030Y005675D03*
X002040Y005675D03*
X002050Y005675D03*
X002060Y005675D03*
X002070Y005675D03*
X002080Y005675D03*
X002090Y005675D03*
X002100Y005675D03*
X002110Y005675D03*
X002120Y005675D03*
X002130Y005675D03*
X002140Y005675D03*
X002150Y005675D03*
X002160Y005675D03*
X002220Y005545D03*
X002190Y005475D03*
X002180Y005475D03*
X002170Y005475D03*
X002160Y005475D03*
X002150Y005475D03*
X002140Y005475D03*
X002130Y005475D03*
X002120Y005475D03*
X002110Y005475D03*
X002100Y005475D03*
X002090Y005475D03*
X002080Y005475D03*
X002030Y005475D03*
X002020Y005475D03*
X002010Y005475D03*
X002000Y005475D03*
X001990Y005475D03*
X001980Y005475D03*
X001970Y005475D03*
X001920Y005475D03*
X001910Y005475D03*
X001900Y005475D03*
X001890Y005475D03*
X001880Y005475D03*
X001870Y005475D03*
X001860Y005475D03*
X001850Y005475D03*
X001850Y005565D03*
X001840Y005565D03*
X001830Y005565D03*
X001820Y005565D03*
X001810Y005565D03*
X001860Y005565D03*
X001870Y005565D03*
X001880Y005565D03*
X001890Y005565D03*
X001900Y005565D03*
X001910Y005565D03*
X001920Y005565D03*
X001930Y005565D03*
X001940Y005565D03*
X001950Y005565D03*
X001960Y005565D03*
X002010Y005565D03*
X002020Y005565D03*
X002030Y005565D03*
X002030Y005375D03*
X002020Y005375D03*
X002010Y005375D03*
X002000Y005375D03*
X001990Y005375D03*
X001980Y005375D03*
X001970Y005375D03*
X001920Y005375D03*
X001910Y005375D03*
X001900Y005375D03*
X001890Y005375D03*
X001880Y005375D03*
X001870Y005375D03*
X001860Y005375D03*
X001850Y005375D03*
X001850Y005275D03*
X001860Y005275D03*
X001870Y005275D03*
X001880Y005275D03*
X001890Y005275D03*
X001900Y005275D03*
X001910Y005275D03*
X001920Y005275D03*
X001970Y005275D03*
X001980Y005275D03*
X001990Y005275D03*
X002000Y005275D03*
X002010Y005275D03*
X002020Y005275D03*
X002030Y005275D03*
X002080Y005275D03*
X002090Y005275D03*
X002100Y005275D03*
X002110Y005275D03*
X002120Y005275D03*
X002130Y005265D03*
X002140Y005265D03*
X002150Y005265D03*
X002160Y005265D03*
X002180Y005255D03*
X002190Y005255D03*
X002210Y005245D03*
X002190Y005375D03*
X002180Y005375D03*
X002170Y005375D03*
X002160Y005375D03*
X002150Y005375D03*
X002140Y005375D03*
X002130Y005375D03*
X002120Y005375D03*
X002110Y005375D03*
X002100Y005375D03*
X002090Y005375D03*
X002080Y005375D03*
X001800Y005255D03*
X001790Y005265D03*
X001760Y005285D03*
X001660Y005335D03*
X001660Y005675D03*
X001650Y005675D03*
X001670Y005675D03*
X001680Y005675D03*
X001690Y005675D03*
X001700Y005675D03*
X001710Y005675D03*
X001720Y005675D03*
X001730Y005675D03*
X001740Y005675D03*
X001750Y005675D03*
X001760Y005675D03*
X002220Y005805D03*
X002240Y005805D03*
X001890Y007645D03*
X001870Y007655D03*
X001850Y007665D03*
X001830Y007675D03*
X001820Y007675D03*
X001930Y007725D03*
X001850Y007845D03*
X001840Y007845D03*
X001830Y007845D03*
X001780Y007845D03*
X001770Y007845D03*
X001760Y007845D03*
X001750Y007845D03*
X001740Y007845D03*
X001730Y007845D03*
X001720Y007845D03*
X001710Y007845D03*
X001710Y008025D03*
X001720Y008025D03*
X001730Y008025D03*
X001740Y008025D03*
X001750Y008025D03*
X001760Y008025D03*
X001770Y008025D03*
X001780Y008025D03*
X001830Y008025D03*
X001840Y008025D03*
X001840Y008075D03*
X001880Y008075D03*
X001890Y008075D03*
X001840Y008135D03*
X001830Y008135D03*
X001780Y008135D03*
X001770Y008135D03*
X001760Y008135D03*
X001750Y008135D03*
X001740Y008135D03*
X001730Y008135D03*
X001720Y008135D03*
X001710Y008135D03*
X001840Y008205D03*
X001890Y008245D03*
X001850Y008315D03*
X001840Y008315D03*
X001830Y008315D03*
X001780Y008315D03*
X001770Y008315D03*
X001760Y008315D03*
X001750Y008315D03*
X001740Y008315D03*
X001730Y008315D03*
X001720Y008315D03*
X001710Y008315D03*
X002090Y008315D03*
X002100Y008315D03*
X002110Y008315D03*
X002120Y008315D03*
X002130Y008315D03*
X002140Y008315D03*
X002150Y008315D03*
X002160Y008315D03*
X002210Y008315D03*
X002220Y008315D03*
X002230Y008315D03*
X001640Y007635D03*
D16*
X001690Y007660D03*
X001800Y007680D03*
X002050Y007800D03*
X002200Y007720D03*
X002100Y007670D03*
X002050Y007520D03*
X002050Y007420D03*
X002140Y007470D03*
X002060Y007180D03*
X002240Y006970D03*
X002080Y006760D03*
X001970Y006520D03*
X002240Y006440D03*
X002240Y006050D03*
X001920Y006040D03*
X002230Y005240D03*
D17*
X002220Y005240D03*
X002200Y005250D03*
X002170Y005260D03*
X002200Y005470D03*
X002100Y005750D03*
X002090Y005750D03*
X002110Y005760D03*
X002120Y005760D03*
X002130Y005770D03*
X002140Y005770D03*
X002150Y005780D03*
X002200Y005800D03*
X002210Y005800D03*
X002230Y005810D03*
X002170Y005960D03*
X002160Y005960D03*
X002150Y005960D03*
X002140Y005960D03*
X002130Y005960D03*
X002120Y005960D03*
X002110Y005960D03*
X002100Y005960D03*
X002090Y005960D03*
X002080Y005960D03*
X002070Y005960D03*
X002060Y005960D03*
X002050Y005960D03*
X002040Y005960D03*
X002030Y005960D03*
X002020Y005960D03*
X002010Y005960D03*
X002000Y005960D03*
X001930Y005960D03*
X001920Y005960D03*
X001910Y005960D03*
X001900Y005960D03*
X001890Y005960D03*
X001880Y005960D03*
X001870Y005960D03*
X001860Y005960D03*
X001850Y005960D03*
X001840Y005960D03*
X001830Y005960D03*
X001820Y005960D03*
X001810Y005960D03*
X001760Y005960D03*
X001750Y005960D03*
X001740Y005960D03*
X001730Y005960D03*
X001720Y005960D03*
X001710Y005960D03*
X001700Y005960D03*
X001690Y005960D03*
X001680Y005960D03*
X001670Y005960D03*
X001660Y005960D03*
X001650Y005960D03*
X001640Y005960D03*
X001640Y006170D03*
X001650Y006170D03*
X001660Y006170D03*
X001670Y006170D03*
X001680Y006170D03*
X001690Y006170D03*
X001740Y006170D03*
X001750Y006170D03*
X001760Y006170D03*
X001770Y006170D03*
X001780Y006170D03*
X001850Y006110D03*
X001860Y006110D03*
X001870Y006110D03*
X001880Y006110D03*
X001930Y006110D03*
X001940Y006110D03*
X001950Y006110D03*
X001960Y006110D03*
X001970Y006110D03*
X002020Y006110D03*
X002030Y006110D03*
X002050Y006240D03*
X002060Y006240D03*
X002040Y006250D03*
X002030Y006250D03*
X002020Y006250D03*
X002130Y006210D03*
X002030Y006400D03*
X002020Y006400D03*
X001970Y006400D03*
X001960Y006400D03*
X001950Y006400D03*
X001940Y006400D03*
X001930Y006400D03*
X001880Y006400D03*
X001870Y006400D03*
X001860Y006400D03*
X001850Y006400D03*
X001780Y006320D03*
X001770Y006320D03*
X001760Y006320D03*
X001750Y006320D03*
X001740Y006320D03*
X001690Y006320D03*
X001680Y006320D03*
X001670Y006320D03*
X001660Y006320D03*
X001650Y006320D03*
X001640Y006320D03*
X001750Y006620D03*
X001760Y006620D03*
X001740Y006630D03*
X001730Y006630D03*
X001710Y006640D03*
X001700Y006640D03*
X001680Y006650D03*
X001670Y006650D03*
X001650Y006660D03*
X001710Y006850D03*
X001720Y006850D03*
X001690Y006860D03*
X001680Y006860D03*
X001670Y006860D03*
X001660Y006870D03*
X001650Y006870D03*
X001640Y006870D03*
X001780Y006830D03*
X001790Y006830D03*
X001800Y006830D03*
X001820Y006820D03*
X001830Y006820D03*
X001850Y006810D03*
X001910Y006790D03*
X001920Y006790D03*
X001940Y006780D03*
X001950Y006780D03*
X001960Y006780D03*
X001970Y006770D03*
X001970Y006610D03*
X001960Y006610D03*
X001950Y006610D03*
X001940Y006610D03*
X001930Y006610D03*
X001920Y006610D03*
X001910Y006610D03*
X001900Y006610D03*
X001900Y006550D03*
X001920Y006540D03*
X001950Y006520D03*
X001980Y006610D03*
X001990Y006610D03*
X002000Y006610D03*
X002010Y006610D03*
X002020Y006610D03*
X002030Y006610D03*
X002040Y006610D03*
X002050Y006610D03*
X002060Y006610D03*
X002070Y006610D03*
X002080Y006610D03*
X002090Y006610D03*
X002100Y006610D03*
X002110Y006610D03*
X002120Y006610D03*
X002130Y006610D03*
X002140Y006610D03*
X002150Y006610D03*
X002160Y006610D03*
X002170Y006610D03*
X002180Y006610D03*
X002190Y006610D03*
X002200Y006610D03*
X002210Y006610D03*
X002220Y006610D03*
X002230Y006610D03*
X002240Y006610D03*
X001780Y006610D03*
X002200Y007170D03*
X002190Y007180D03*
X002180Y007180D03*
X002170Y007190D03*
X002150Y007200D03*
X002130Y007210D03*
X002110Y007220D03*
X002090Y007230D03*
X002050Y007180D03*
X002000Y007200D03*
X001970Y007210D03*
X001960Y007210D03*
X001950Y007220D03*
X001940Y007220D03*
X001930Y007220D03*
X001920Y007220D03*
X001910Y007220D03*
X001900Y007230D03*
X001890Y007230D03*
X001880Y007230D03*
X001870Y007230D03*
X001860Y007230D03*
X001850Y007230D03*
X001840Y007230D03*
X001830Y007230D03*
X001820Y007230D03*
X001810Y007230D03*
X001800Y007230D03*
X001790Y007230D03*
X001780Y007230D03*
X001770Y007230D03*
X001760Y007230D03*
X001750Y007230D03*
X001750Y007550D03*
X001760Y007550D03*
X001770Y007550D03*
X001780Y007550D03*
X001790Y007550D03*
X001800Y007550D03*
X001810Y007560D03*
X001820Y007560D03*
X001830Y007560D03*
X001840Y007560D03*
X001850Y007560D03*
X001860Y007560D03*
X001870Y007570D03*
X001880Y007570D03*
X001890Y007570D03*
X001900Y007570D03*
X001900Y007640D03*
X001880Y007650D03*
X001860Y007660D03*
X001840Y007670D03*
X001810Y007680D03*
X001680Y007660D03*
X001680Y007550D03*
X001690Y007550D03*
X001700Y007550D03*
X001670Y007550D03*
X001660Y007550D03*
X001650Y007550D03*
X001640Y007550D03*
X001940Y007730D03*
X001960Y007720D03*
X001970Y007720D03*
X001980Y007720D03*
X002000Y007710D03*
X002060Y007680D03*
X002110Y007670D03*
X002120Y007680D03*
X002140Y007690D03*
X002150Y007700D03*
X002160Y007710D03*
X002120Y007590D03*
X002140Y007580D03*
X002150Y007580D03*
X002160Y007580D03*
X002170Y007580D03*
X002180Y007570D03*
X002130Y007470D03*
X002080Y007440D03*
X002070Y007430D03*
X002060Y007420D03*
X002070Y007320D03*
X002080Y007320D03*
X002090Y007320D03*
X002100Y007320D03*
X002110Y007320D03*
X002120Y007320D03*
X002130Y007320D03*
X002140Y007320D03*
X002150Y007320D03*
X002160Y007320D03*
X002170Y007320D03*
X001940Y008050D03*
X001940Y008110D03*
X001950Y008120D03*
X001870Y008080D03*
X001860Y008080D03*
X001850Y008080D03*
X001740Y005440D03*
X001750Y005430D03*
X001760Y005420D03*
X001770Y005410D03*
X001780Y005410D03*
X001790Y005400D03*
X001800Y005390D03*
X001740Y005300D03*
X001750Y005290D03*
X001770Y005280D03*
X001780Y005270D03*
X001690Y005320D03*
X001680Y005330D03*
X001670Y005330D03*
X001650Y005340D03*
D18*
X002230Y005425D03*
X002160Y005755D03*
X002220Y005915D03*
X002180Y006345D03*
X002220Y006415D03*
X001880Y006585D03*
X002110Y006785D03*
X001920Y007605D03*
X001910Y007605D03*
X002040Y007675D03*
X001990Y007965D03*
X001990Y008185D03*
D19*
X001960Y008135D03*
X001950Y008035D03*
X001960Y008025D03*
X001850Y008205D03*
X001880Y008245D03*
X001950Y007725D03*
X001990Y007715D03*
X002000Y007625D03*
X001960Y007595D03*
X002000Y007555D03*
X002010Y007545D03*
X002020Y007535D03*
X002040Y007525D03*
X002100Y007455D03*
X002090Y007445D03*
X002110Y007465D03*
X002120Y007475D03*
X002180Y007325D03*
X002030Y007185D03*
X002020Y007185D03*
X002010Y007195D03*
X001990Y007205D03*
X001980Y007205D03*
X002040Y007175D03*
X002100Y006965D03*
X002110Y006955D03*
X002120Y006945D03*
X002130Y006935D03*
X002140Y006925D03*
X002230Y006965D03*
X002090Y006765D03*
X001930Y006535D03*
X001940Y006525D03*
X001910Y006545D03*
X001810Y006605D03*
X001800Y006605D03*
X001790Y006605D03*
X001770Y006615D03*
X001720Y006635D03*
X001690Y006645D03*
X001660Y006655D03*
X002130Y006275D03*
X002140Y006285D03*
X002150Y006295D03*
X002140Y006205D03*
X002150Y006195D03*
X002230Y006065D03*
X002180Y005955D03*
X002000Y005885D03*
X001930Y006025D03*
X002230Y006425D03*
X002130Y007585D03*
X002130Y007685D03*
X002170Y007715D03*
X002180Y007725D03*
X001670Y007655D03*
X001660Y007645D03*
X001650Y007635D03*
D20*
X002230Y007440D03*
X002200Y005620D03*
D21*
X002220Y005430D03*
X002210Y005920D03*
X001890Y006580D03*
X002160Y006880D03*
X001990Y007590D03*
X002030Y007670D03*
D22*
X001980Y007590D03*
X001930Y007600D03*
X001980Y007990D03*
X002040Y008330D03*
X002210Y006950D03*
X002200Y006930D03*
X002190Y006920D03*
X002180Y006900D03*
X002170Y006890D03*
X002140Y006840D03*
X002130Y006820D03*
X002120Y006800D03*
X002100Y006770D03*
X001870Y006590D03*
X001860Y006590D03*
X002120Y006240D03*
X002180Y006150D03*
X002190Y006130D03*
X002220Y006070D03*
D23*
X002000Y005675D03*
X001990Y005675D03*
X001980Y005675D03*
X001970Y005675D03*
X001800Y005675D03*
X001790Y005675D03*
X001780Y005675D03*
X001770Y005675D03*
X002220Y007445D03*
D24*
X002210Y006405D03*
X002190Y006375D03*
X002200Y006105D03*
X002200Y005915D03*
X001940Y005995D03*
X002210Y005435D03*
D25*
X002210Y005580D03*
X002190Y005920D03*
X002210Y006080D03*
X001990Y005920D03*
X001980Y005920D03*
X002020Y007670D03*
X002000Y007930D03*
X002000Y008220D03*
D26*
X002200Y007445D03*
X002210Y007445D03*
X001830Y005355D03*
D27*
X002200Y006400D03*
X002030Y008310D03*
D28*
X002010Y008285D03*
X002060Y008225D03*
X002070Y008225D03*
X002080Y008225D03*
X002170Y008225D03*
X002180Y008225D03*
X002190Y008225D03*
X002200Y008225D03*
X002200Y007935D03*
X002190Y007935D03*
X002180Y007935D03*
X002170Y007935D03*
X002080Y007935D03*
X002070Y007935D03*
X002060Y007935D03*
X002050Y007935D03*
X001820Y007935D03*
X001810Y007935D03*
X001800Y007935D03*
X001790Y007935D03*
X001700Y007935D03*
X001690Y007935D03*
X001680Y007935D03*
X001670Y007935D03*
X001670Y008225D03*
X001680Y008225D03*
X001690Y008225D03*
X001700Y008225D03*
X001790Y008225D03*
X001800Y008225D03*
X001810Y008225D03*
X001820Y008225D03*
X002170Y005695D03*
D29*
X002180Y005665D03*
X002190Y005665D03*
D30*
X002160Y006180D03*
X002160Y006310D03*
X001830Y006600D03*
X001820Y006600D03*
X002090Y006970D03*
X002080Y006980D03*
X002070Y006990D03*
X002060Y007000D03*
X002050Y007010D03*
X002040Y007020D03*
X002030Y007030D03*
X002020Y007040D03*
X002190Y007330D03*
X002190Y007560D03*
X001950Y007600D03*
X001940Y007600D03*
X001970Y008010D03*
X001970Y008150D03*
X001870Y008230D03*
X001860Y008220D03*
D31*
X002030Y007845D03*
X002010Y007665D03*
X002150Y006875D03*
X001950Y005985D03*
D32*
X002070Y006245D03*
X002080Y006245D03*
X002090Y006245D03*
X002100Y006245D03*
X001890Y006895D03*
X001880Y006895D03*
X001870Y006895D03*
X001860Y006895D03*
D33*
X001930Y005375D03*
X001940Y005375D03*
X001950Y005375D03*
X001960Y005375D03*
X002040Y005375D03*
X002050Y005375D03*
X002060Y005375D03*
X002070Y005375D03*
D34*
X002050Y008240D03*
D35*
X002020Y008295D03*
X002020Y007855D03*
X001960Y005965D03*
X001720Y005375D03*
X001710Y005375D03*
D36*
X001810Y006255D03*
X001820Y006255D03*
X001830Y006255D03*
X001840Y006255D03*
X001890Y006255D03*
X001900Y006255D03*
X001910Y006255D03*
X001920Y006255D03*
X001980Y006255D03*
X001990Y006255D03*
X002000Y006255D03*
X002010Y006255D03*
D37*
X002010Y006910D03*
X002000Y006910D03*
X001990Y006910D03*
X001980Y006910D03*
D38*
X001980Y007390D03*
X001990Y007390D03*
X002000Y007390D03*
X002010Y007390D03*
X001910Y007390D03*
X001900Y007390D03*
X001890Y007390D03*
X001880Y007390D03*
X001800Y005960D03*
X001790Y005960D03*
X001780Y005960D03*
X001770Y005960D03*
X001730Y005370D03*
D39*
X002010Y007895D03*
D40*
X001970Y005940D03*
X001700Y005380D03*
D41*
X001900Y008080D03*
X001910Y008080D03*
X001920Y008080D03*
X001930Y008080D03*
D42*
X001840Y005360D03*
X001820Y005360D03*
X001810Y005360D03*
D43*
X001810Y007390D03*
X001800Y007390D03*
X001820Y007390D03*
X001830Y007390D03*
D44*
X001760Y006900D03*
X001750Y006900D03*
X001740Y006900D03*
X001730Y006900D03*
D45*
X001730Y007475D03*
X001720Y007475D03*
X001710Y007475D03*
X001740Y007475D03*
D46*
X001730Y006255D03*
X001720Y006255D03*
X001710Y006255D03*
X001700Y006255D03*
D47*
X001183Y001280D02*
X001190Y001280D01*
X001193Y001283D01*
X001198Y001280D02*
X001198Y001283D01*
X001202Y001283D01*
X001202Y001280D01*
X001198Y001280D01*
X001208Y001280D02*
X001221Y001300D01*
X001226Y001300D02*
X001226Y001283D01*
X001229Y001280D01*
X001236Y001280D01*
X001239Y001283D01*
X001239Y001300D01*
X001248Y001293D02*
X001258Y001293D01*
X001263Y001290D02*
X001266Y001293D01*
X001273Y001293D01*
X001276Y001290D01*
X001276Y001287D01*
X001263Y001287D01*
X001263Y001290D02*
X001263Y001283D01*
X001266Y001280D01*
X001273Y001280D01*
X001281Y001280D02*
X001281Y001293D01*
X001281Y001287D02*
X001288Y001293D01*
X001291Y001293D01*
X001297Y001290D02*
X001300Y001293D01*
X001310Y001293D01*
X001307Y001287D02*
X001300Y001287D01*
X001297Y001290D01*
X001297Y001280D02*
X001307Y001280D01*
X001310Y001283D01*
X001307Y001287D01*
X001315Y001280D02*
X001328Y001300D01*
X001333Y001300D02*
X001347Y001280D01*
X001352Y001280D02*
X001359Y001280D01*
X001355Y001280D02*
X001355Y001293D01*
X001352Y001293D01*
X001355Y001300D02*
X001355Y001303D01*
X001347Y001300D02*
X001333Y001280D01*
X001364Y001283D02*
X001367Y001287D01*
X001377Y001287D01*
X001377Y001290D02*
X001377Y001280D01*
X001367Y001280D01*
X001364Y001283D01*
X001367Y001293D02*
X001374Y001293D01*
X001377Y001290D01*
X001383Y001293D02*
X001393Y001293D01*
X001396Y001290D01*
X001396Y001280D01*
X001401Y001283D02*
X001404Y001280D01*
X001414Y001280D01*
X001414Y001277D02*
X001414Y001293D01*
X001404Y001293D01*
X001401Y001290D01*
X001401Y001283D01*
X001408Y001273D02*
X001411Y001273D01*
X001414Y001277D01*
X001419Y001280D02*
X001433Y001280D01*
X001438Y001280D02*
X001444Y001280D01*
X001441Y001280D02*
X001441Y001293D01*
X001438Y001293D01*
X001433Y001293D02*
X001419Y001280D01*
X001419Y001293D02*
X001433Y001293D01*
X001441Y001300D02*
X001441Y001303D01*
X001463Y001300D02*
X001450Y001280D01*
X001469Y001280D02*
X001479Y001280D01*
X001482Y001283D01*
X001482Y001297D01*
X001479Y001300D01*
X001469Y001300D01*
X001469Y001280D01*
X001487Y001283D02*
X001487Y001290D01*
X001490Y001293D01*
X001497Y001293D01*
X001500Y001290D01*
X001500Y001287D01*
X001487Y001287D01*
X001487Y001283D02*
X001490Y001280D01*
X001497Y001280D01*
X001505Y001280D02*
X001515Y001280D01*
X001519Y001283D01*
X001515Y001287D01*
X001509Y001287D01*
X001505Y001290D01*
X001509Y001293D01*
X001519Y001293D01*
X001524Y001287D02*
X001534Y001293D01*
X001539Y001293D02*
X001546Y001293D01*
X001542Y001297D02*
X001542Y001283D01*
X001546Y001280D01*
X001551Y001283D02*
X001555Y001280D01*
X001561Y001280D01*
X001565Y001283D01*
X001565Y001290D01*
X001561Y001293D01*
X001555Y001293D01*
X001551Y001290D01*
X001551Y001283D01*
X001534Y001280D02*
X001524Y001287D01*
X001524Y001280D02*
X001524Y001300D01*
X001570Y001293D02*
X001580Y001293D01*
X001583Y001290D01*
X001583Y001283D01*
X001580Y001280D01*
X001570Y001280D01*
X001570Y001273D02*
X001570Y001293D01*
X001588Y001280D02*
X001602Y001300D01*
X001607Y001300D02*
X001607Y001277D01*
X001613Y001277D02*
X001613Y001300D01*
X001619Y001300D02*
X001626Y001307D01*
X001632Y001300D01*
X001637Y001300D02*
X001647Y001300D01*
X001651Y001297D01*
X001651Y001290D01*
X001656Y001290D02*
X001676Y001290D01*
X001669Y001293D02*
X001669Y001280D01*
X001682Y001280D01*
X001686Y001280D02*
X001700Y001300D01*
X001705Y001293D02*
X001712Y001293D01*
X001708Y001297D02*
X001708Y001283D01*
X001712Y001280D01*
X001717Y001283D02*
X001720Y001280D01*
X001727Y001280D01*
X001730Y001283D01*
X001730Y001290D01*
X001727Y001293D01*
X001720Y001293D01*
X001717Y001290D01*
X001717Y001283D01*
X001736Y001283D02*
X001739Y001280D01*
X001749Y001280D01*
X001749Y001293D01*
X001754Y001290D02*
X001754Y001283D01*
X001757Y001280D01*
X001767Y001280D01*
X001772Y001280D02*
X001772Y001300D01*
X001776Y001293D02*
X001782Y001293D01*
X001786Y001290D01*
X001786Y001280D01*
X001791Y001280D02*
X001794Y001280D01*
X001794Y001283D01*
X001791Y001283D01*
X001791Y001280D01*
X001800Y001280D02*
X001810Y001280D01*
X001813Y001283D01*
X001813Y001290D01*
X001810Y001293D01*
X001800Y001293D01*
X001800Y001300D02*
X001800Y001280D01*
X001818Y001280D02*
X001818Y001293D01*
X001822Y001293D01*
X001825Y001290D01*
X001828Y001293D01*
X001832Y001290D01*
X001832Y001280D01*
X001837Y001280D02*
X001847Y001280D01*
X001850Y001283D01*
X001850Y001290D01*
X001847Y001293D01*
X001837Y001293D01*
X001837Y001273D01*
X001825Y001280D02*
X001825Y001290D01*
X001776Y001293D02*
X001772Y001290D01*
X001767Y001293D02*
X001757Y001293D01*
X001754Y001290D01*
X001736Y001293D02*
X001736Y001283D01*
X001682Y001300D02*
X001669Y001300D01*
X001669Y001293D01*
X001662Y001300D01*
X001656Y001293D01*
X001656Y001280D01*
X001637Y001290D02*
X001637Y001300D01*
X001632Y001293D02*
X001632Y001280D01*
X001622Y001280D01*
X001619Y001283D01*
X001619Y001293D01*
X001620Y001287D02*
X001613Y001287D01*
X001383Y001280D02*
X001383Y001293D01*
X001258Y001283D02*
X001254Y001287D01*
X001248Y001287D01*
X001244Y001290D01*
X001248Y001293D01*
X001244Y001280D02*
X001254Y001280D01*
X001258Y001283D01*
X001202Y001290D02*
X001198Y001290D01*
X001198Y001293D01*
X001202Y001293D01*
X001202Y001290D01*
X001193Y001297D02*
X001190Y001300D01*
X001183Y001300D01*
X001180Y001297D01*
X001180Y001283D01*
X001183Y001280D01*
X001058Y001443D02*
X002711Y001443D01*
X003460Y001443D01*
X003420Y001443D01*
X003460Y001443D02*
X003814Y001443D01*
X003824Y001442D01*
X003834Y001438D01*
X003842Y001432D01*
X003848Y001424D01*
X003852Y001414D01*
X003853Y001404D01*
X003854Y001404D02*
X003856Y001350D01*
X003861Y001297D01*
X003870Y001244D01*
X003883Y001192D01*
X003899Y001140D01*
X003919Y001090D01*
X003942Y001042D01*
X003969Y000995D01*
X003998Y000950D01*
X004031Y000907D01*
X004066Y000867D01*
X004104Y000829D01*
X004144Y000794D01*
X004187Y000761D01*
X004232Y000732D01*
X004279Y000705D01*
X004327Y000682D01*
X004377Y000662D01*
X004429Y000646D01*
X004481Y000633D01*
X004534Y000624D01*
X004587Y000619D01*
X004641Y000617D01*
X004641Y000616D02*
X004680Y000616D01*
X004719Y000616D01*
X004719Y000617D02*
X004773Y000619D01*
X004826Y000624D01*
X004879Y000633D01*
X004931Y000646D01*
X004983Y000662D01*
X005033Y000682D01*
X005081Y000705D01*
X005128Y000732D01*
X005173Y000761D01*
X005216Y000794D01*
X005256Y000829D01*
X005294Y000867D01*
X005329Y000907D01*
X005362Y000950D01*
X005391Y000995D01*
X005418Y001042D01*
X005441Y001090D01*
X005461Y001140D01*
X005477Y001192D01*
X005490Y001244D01*
X005499Y001297D01*
X005504Y001350D01*
X005506Y001404D01*
X005506Y001403D02*
X005509Y001415D01*
X005515Y001426D01*
X005523Y001434D01*
X005534Y001440D01*
X005546Y001443D01*
X005664Y001443D01*
X005861Y001443D01*
X006727Y001443D01*
X008302Y001443D01*
X008335Y001445D01*
X008367Y001450D01*
X008399Y001458D01*
X008430Y001470D01*
X008460Y001485D01*
X008487Y001503D01*
X008513Y001524D01*
X008536Y001547D01*
X008557Y001573D01*
X008575Y001600D01*
X008590Y001630D01*
X008602Y001661D01*
X008610Y001693D01*
X008615Y001725D01*
X008617Y001758D01*
X008617Y003254D01*
X008617Y004120D01*
X008617Y004435D01*
X008617Y004514D01*
X008617Y004435D01*
X008618Y004514D02*
X008615Y004526D01*
X008609Y004537D01*
X008601Y004545D01*
X008590Y004551D01*
X008578Y004554D01*
X008524Y004556D01*
X008471Y004561D01*
X008418Y004570D01*
X008366Y004583D01*
X008314Y004599D01*
X008264Y004619D01*
X008216Y004642D01*
X008169Y004669D01*
X008124Y004698D01*
X008081Y004731D01*
X008041Y004766D01*
X008003Y004804D01*
X007968Y004844D01*
X007935Y004887D01*
X007906Y004932D01*
X007879Y004979D01*
X007856Y005027D01*
X007836Y005077D01*
X007820Y005129D01*
X007807Y005181D01*
X007798Y005234D01*
X007793Y005287D01*
X007791Y005341D01*
X007790Y005341D02*
X007790Y005380D01*
X007791Y005380D02*
X007790Y005435D01*
X007793Y005490D01*
X007800Y005545D01*
X007811Y005600D01*
X007826Y005653D01*
X007844Y005706D01*
X007866Y005757D01*
X007892Y005806D01*
X007921Y005853D01*
X007953Y005898D01*
X007989Y005941D01*
X008027Y005981D01*
X008068Y006019D01*
X008111Y006053D01*
X008157Y006084D01*
X008205Y006112D01*
X008255Y006137D01*
X008306Y006158D01*
X008359Y006175D01*
X008413Y006188D01*
X008467Y006198D01*
X008523Y006204D01*
X008578Y006206D01*
X008578Y006207D02*
X008588Y006208D01*
X008598Y006212D01*
X008606Y006218D01*
X008612Y006227D01*
X008616Y006236D01*
X008617Y006246D01*
X008617Y006325D01*
X008617Y007900D01*
X008617Y007270D01*
X008382Y007630D02*
X008383Y007630D01*
X008382Y007630D02*
X008382Y007631D01*
X008382Y007631D01*
X008382Y007631D01*
X008382Y007631D01*
X008382Y007631D01*
X008382Y007631D01*
X008382Y007630D02*
X008382Y007630D01*
X008382Y007630D01*
X008383Y007631D02*
X008383Y007631D01*
X008383Y007631D01*
X008383Y007631D01*
X008383Y007631D01*
X008383Y007632D02*
X008382Y007632D01*
X008382Y007633D02*
X008383Y007634D01*
X008382Y007634D01*
X008382Y007634D01*
X008382Y007634D01*
X008382Y007634D01*
X008383Y007634D01*
X008382Y007635D02*
X008383Y007635D01*
X008383Y007635D01*
X008383Y007636D01*
X008382Y007636D01*
X008383Y007636D01*
X008382Y007637D01*
X008382Y007638D01*
X008383Y007638D01*
X008382Y007638D01*
X008383Y007638D01*
X008383Y007637D01*
X008383Y007637D01*
X008382Y007637D01*
X008382Y007637D01*
X008383Y007638D02*
X008383Y007637D01*
X008383Y007636D01*
X008383Y007635D01*
X008383Y007635D01*
X008382Y007634D02*
X008382Y007635D01*
X008382Y007636D01*
X008382Y007636D01*
X008382Y007638D02*
X008382Y007638D01*
X008382Y007639D01*
X008383Y007639D02*
X008382Y007640D01*
X008383Y007641D01*
X008382Y007641D01*
X008383Y007640D01*
X008382Y007641D02*
X008382Y007642D01*
X008383Y007642D01*
X008382Y007642D01*
X008382Y007642D01*
X008382Y007643D01*
X008383Y007643D01*
X008382Y007643D01*
X008382Y007643D01*
X008382Y007642D01*
X008383Y007643D02*
X008382Y007644D01*
X008383Y007644D01*
X008383Y007645D02*
X008383Y007645D01*
X008382Y007645D01*
X008382Y007645D01*
X008382Y007645D01*
X008382Y007646D02*
X008382Y007646D01*
X008382Y007646D01*
X008383Y007646D01*
X008383Y007646D01*
X008383Y007646D01*
X008382Y007646D01*
X008382Y007646D01*
X008383Y007647D02*
X008383Y007647D01*
X008383Y007647D01*
X008383Y007647D01*
X008383Y007647D01*
X008383Y007648D01*
X008383Y007648D01*
X008382Y007648D01*
X008382Y007647D01*
X008383Y007647D01*
X008382Y007648D02*
X008382Y007648D01*
X008382Y007649D01*
X008382Y007649D01*
X008382Y007649D01*
X008383Y007649D01*
X008382Y007649D01*
X008382Y007649D01*
X008382Y007650D01*
X008382Y007650D01*
X008383Y007650D01*
X008383Y007649D01*
X008383Y007648D02*
X008382Y007648D01*
X008383Y007649D02*
X008382Y007649D01*
X008383Y007650D02*
X008383Y007650D01*
X008382Y007634D02*
X008383Y007633D01*
X008617Y007900D02*
X008617Y009002D01*
X008615Y009035D01*
X008610Y009067D01*
X008602Y009099D01*
X008590Y009130D01*
X008575Y009160D01*
X008557Y009187D01*
X008536Y009213D01*
X008513Y009236D01*
X008487Y009257D01*
X008460Y009275D01*
X008430Y009290D01*
X008399Y009302D01*
X008367Y009310D01*
X008335Y009315D01*
X008302Y009317D01*
X006649Y009317D01*
X005940Y009317D01*
X005704Y009317D01*
X005546Y009317D01*
X005704Y009317D01*
X005546Y009317D02*
X005536Y009318D01*
X005527Y009322D01*
X005518Y009328D01*
X005512Y009337D01*
X005508Y009346D01*
X005507Y009356D01*
X005506Y009356D02*
X005504Y009410D01*
X005499Y009463D01*
X005490Y009516D01*
X005477Y009568D01*
X005461Y009620D01*
X005441Y009670D01*
X005418Y009718D01*
X005391Y009765D01*
X005362Y009810D01*
X005329Y009853D01*
X005294Y009893D01*
X005256Y009931D01*
X005216Y009966D01*
X005173Y009999D01*
X005128Y010028D01*
X005081Y010055D01*
X005033Y010078D01*
X004983Y010098D01*
X004931Y010114D01*
X004879Y010127D01*
X004826Y010136D01*
X004773Y010141D01*
X004719Y010143D01*
X004719Y010144D02*
X004641Y010144D01*
X004641Y010143D02*
X004587Y010141D01*
X004534Y010136D01*
X004481Y010127D01*
X004429Y010114D01*
X004377Y010098D01*
X004327Y010078D01*
X004279Y010055D01*
X004232Y010028D01*
X004187Y009999D01*
X004144Y009966D01*
X004104Y009931D01*
X004066Y009893D01*
X004031Y009853D01*
X003998Y009810D01*
X003969Y009765D01*
X003942Y009718D01*
X003919Y009670D01*
X003899Y009620D01*
X003883Y009568D01*
X003870Y009516D01*
X003861Y009463D01*
X003856Y009410D01*
X003854Y009356D01*
X003853Y009356D02*
X003852Y009346D01*
X003848Y009337D01*
X003842Y009328D01*
X003834Y009322D01*
X003824Y009318D01*
X003814Y009317D01*
X003499Y009317D01*
X002790Y009317D01*
X001058Y009317D01*
X001025Y009315D01*
X000993Y009310D01*
X000961Y009302D01*
X000930Y009290D01*
X000901Y009275D01*
X000873Y009257D01*
X000847Y009236D01*
X000824Y009213D01*
X000803Y009187D01*
X000785Y009160D01*
X000770Y009130D01*
X000758Y009099D01*
X000750Y009067D01*
X000745Y009035D01*
X000743Y009002D01*
X000743Y007270D01*
X000743Y006522D01*
X000743Y006640D01*
X000743Y006522D02*
X000743Y006246D01*
X000744Y006236D01*
X000748Y006227D01*
X000754Y006218D01*
X000763Y006212D01*
X000772Y006208D01*
X000782Y006207D01*
X000782Y006206D02*
X000836Y006204D01*
X000889Y006199D01*
X000942Y006190D01*
X000994Y006177D01*
X001046Y006161D01*
X001096Y006141D01*
X001144Y006118D01*
X001191Y006091D01*
X001236Y006062D01*
X001279Y006029D01*
X001319Y005994D01*
X001357Y005956D01*
X001392Y005916D01*
X001425Y005873D01*
X001454Y005828D01*
X001481Y005781D01*
X001504Y005733D01*
X001524Y005683D01*
X001540Y005631D01*
X001553Y005579D01*
X001562Y005526D01*
X001567Y005473D01*
X001569Y005419D01*
X001570Y005419D02*
X001570Y005380D01*
X001570Y005341D01*
X001569Y005341D02*
X001567Y005287D01*
X001562Y005234D01*
X001553Y005181D01*
X001540Y005129D01*
X001524Y005077D01*
X001504Y005027D01*
X001481Y004979D01*
X001454Y004932D01*
X001425Y004887D01*
X001392Y004844D01*
X001357Y004804D01*
X001319Y004766D01*
X001279Y004731D01*
X001236Y004698D01*
X001191Y004669D01*
X001144Y004642D01*
X001096Y004619D01*
X001046Y004599D01*
X000994Y004583D01*
X000942Y004570D01*
X000889Y004561D01*
X000836Y004556D01*
X000782Y004554D01*
X000782Y004553D02*
X000772Y004552D01*
X000763Y004548D01*
X000754Y004542D01*
X000748Y004534D01*
X000744Y004524D01*
X000743Y004514D01*
X000743Y004199D01*
X000743Y003097D01*
X000743Y003490D01*
X000743Y003097D02*
X000743Y001758D01*
X000745Y001725D01*
X000750Y001693D01*
X000758Y001661D01*
X000770Y001630D01*
X000785Y001600D01*
X000803Y001573D01*
X000824Y001547D01*
X000847Y001524D01*
X000873Y001503D01*
X000901Y001485D01*
X000930Y001470D01*
X000961Y001458D01*
X000993Y001450D01*
X001025Y001445D01*
X001058Y001443D01*
X002711Y001443D02*
X002790Y001443D01*
X004247Y001443D02*
X004249Y001484D01*
X004255Y001525D01*
X004265Y001565D01*
X004278Y001604D01*
X004295Y001641D01*
X004316Y001677D01*
X004340Y001711D01*
X004367Y001742D01*
X004396Y001770D01*
X004429Y001796D01*
X004463Y001818D01*
X004500Y001837D01*
X004538Y001852D01*
X004578Y001864D01*
X004618Y001872D01*
X004659Y001876D01*
X004701Y001876D01*
X004742Y001872D01*
X004782Y001864D01*
X004822Y001852D01*
X004860Y001837D01*
X004896Y001818D01*
X004931Y001796D01*
X004964Y001770D01*
X004993Y001742D01*
X005020Y001711D01*
X005044Y001677D01*
X005065Y001641D01*
X005082Y001604D01*
X005095Y001565D01*
X005105Y001525D01*
X005111Y001484D01*
X005113Y001443D01*
X005111Y001402D01*
X005105Y001361D01*
X005095Y001321D01*
X005082Y001282D01*
X005065Y001245D01*
X005044Y001209D01*
X005020Y001175D01*
X004993Y001144D01*
X004964Y001116D01*
X004931Y001090D01*
X004897Y001068D01*
X004860Y001049D01*
X004822Y001034D01*
X004782Y001022D01*
X004742Y001014D01*
X004701Y001010D01*
X004659Y001010D01*
X004618Y001014D01*
X004578Y001022D01*
X004538Y001034D01*
X004500Y001049D01*
X004464Y001068D01*
X004429Y001090D01*
X004396Y001116D01*
X004367Y001144D01*
X004340Y001175D01*
X004316Y001209D01*
X004295Y001245D01*
X004278Y001282D01*
X004265Y001321D01*
X004255Y001361D01*
X004249Y001402D01*
X004247Y001443D01*
X005546Y001443D02*
X005664Y001443D01*
X005861Y001443D02*
X005940Y001443D01*
X006570Y001443D02*
X006727Y001443D01*
X008617Y003254D02*
X008617Y003490D01*
X008617Y006325D02*
X008617Y006640D01*
X006649Y009317D02*
X006570Y009317D01*
X004247Y009317D02*
X004249Y009358D01*
X004255Y009399D01*
X004265Y009439D01*
X004278Y009478D01*
X004295Y009515D01*
X004316Y009551D01*
X004340Y009585D01*
X004367Y009616D01*
X004396Y009644D01*
X004429Y009670D01*
X004463Y009692D01*
X004500Y009711D01*
X004538Y009726D01*
X004578Y009738D01*
X004618Y009746D01*
X004659Y009750D01*
X004701Y009750D01*
X004742Y009746D01*
X004782Y009738D01*
X004822Y009726D01*
X004860Y009711D01*
X004896Y009692D01*
X004931Y009670D01*
X004964Y009644D01*
X004993Y009616D01*
X005020Y009585D01*
X005044Y009551D01*
X005065Y009515D01*
X005082Y009478D01*
X005095Y009439D01*
X005105Y009399D01*
X005111Y009358D01*
X005113Y009317D01*
X005111Y009276D01*
X005105Y009235D01*
X005095Y009195D01*
X005082Y009156D01*
X005065Y009119D01*
X005044Y009083D01*
X005020Y009049D01*
X004993Y009018D01*
X004964Y008990D01*
X004931Y008964D01*
X004897Y008942D01*
X004860Y008923D01*
X004822Y008908D01*
X004782Y008896D01*
X004742Y008888D01*
X004701Y008884D01*
X004659Y008884D01*
X004618Y008888D01*
X004578Y008896D01*
X004538Y008908D01*
X004500Y008923D01*
X004464Y008942D01*
X004429Y008964D01*
X004396Y008990D01*
X004367Y009018D01*
X004340Y009049D01*
X004316Y009083D01*
X004295Y009119D01*
X004278Y009156D01*
X004265Y009195D01*
X004255Y009235D01*
X004249Y009276D01*
X004247Y009317D01*
X003499Y009317D02*
X003420Y009317D01*
X000743Y004199D02*
X000743Y004120D01*
D48*
X001120Y002949D02*
X001157Y002949D01*
X001120Y002949D02*
X001120Y002311D01*
X001157Y002311D01*
X001474Y002311D02*
X001511Y002311D01*
X001849Y002311D02*
X001886Y002311D01*
X002203Y002311D02*
X002240Y002311D01*
X002240Y002949D01*
X002203Y002949D01*
X002035Y002807D02*
X002037Y002819D01*
X002042Y002830D01*
X002051Y002839D01*
X002062Y002844D01*
X002074Y002846D01*
X002086Y002844D01*
X002097Y002839D01*
X002106Y002830D01*
X002111Y002819D01*
X002113Y002807D01*
X002111Y002795D01*
X002106Y002784D01*
X002097Y002775D01*
X002086Y002770D01*
X002074Y002768D01*
X002062Y002770D01*
X002051Y002775D01*
X002042Y002784D01*
X002037Y002795D01*
X002035Y002807D01*
X001886Y002949D02*
X001849Y002949D01*
X001511Y002949D02*
X001474Y002949D01*
D49*
X001465Y002765D02*
X001465Y002523D01*
X001513Y002475D01*
X001610Y002475D01*
X001658Y002523D01*
X001658Y002765D01*
X001760Y002668D02*
X001856Y002765D01*
X001856Y002475D01*
X001760Y002475D02*
X001953Y002475D01*
X001913Y004205D02*
X001720Y004205D01*
X001816Y004205D02*
X001816Y004495D01*
X001720Y004398D01*
X001618Y004447D02*
X001570Y004495D01*
X001473Y004495D01*
X001425Y004447D01*
X001425Y004253D01*
X001473Y004205D01*
X001570Y004205D01*
X001618Y004253D01*
X006955Y004205D02*
X006955Y004495D01*
X007100Y004495D01*
X007148Y004447D01*
X007148Y004350D01*
X007100Y004302D01*
X006955Y004302D01*
X007052Y004302D02*
X007148Y004205D01*
X007250Y004205D02*
X007443Y004398D01*
X007443Y004447D01*
X007395Y004495D01*
X007298Y004495D01*
X007250Y004447D01*
X007250Y004205D02*
X007443Y004205D01*
X007655Y004205D02*
X007800Y004205D01*
X007848Y004253D01*
X007848Y004447D01*
X007800Y004495D01*
X007655Y004495D01*
X007655Y004205D01*
X007950Y004205D02*
X008143Y004205D01*
X008046Y004205D02*
X008046Y004495D01*
X007950Y004398D01*
X007667Y002645D02*
X007667Y002355D01*
X007570Y002355D02*
X007764Y002355D01*
X007570Y002548D02*
X007667Y002645D01*
X007469Y002597D02*
X007469Y002500D01*
X007421Y002452D01*
X007276Y002452D01*
X007372Y002452D02*
X007469Y002355D01*
X007276Y002355D02*
X007276Y002645D01*
X007421Y002645D01*
X007469Y002597D01*
D50*
X003467Y001600D02*
X003160Y001600D01*
X003007Y001600D02*
X003007Y002060D01*
X003160Y001907D02*
X003314Y002060D01*
X003314Y001600D01*
X003007Y001830D02*
X002700Y001830D01*
X002700Y001600D02*
X002700Y002060D01*
D51*
X004286Y005775D02*
X004435Y005896D01*
X004495Y005865D01*
X004579Y006069D01*
X004542Y006091D01*
X004510Y006120D01*
X004486Y006156D01*
X004471Y006197D01*
X004465Y006240D01*
X004471Y006284D01*
X004486Y006325D01*
X004511Y006362D01*
X004544Y006391D01*
X004583Y006412D01*
X004626Y006423D01*
X004670Y006423D01*
X004713Y006413D01*
X004752Y006393D01*
X004786Y006365D01*
X004812Y006329D01*
X004828Y006288D01*
X004834Y006244D01*
X004830Y006200D01*
X004815Y006158D01*
X004791Y006121D01*
X004759Y006091D01*
X004721Y006069D01*
X004805Y005865D01*
X004865Y005896D01*
X005014Y005775D01*
X005115Y005876D01*
X004994Y006025D01*
X005025Y006085D01*
X005046Y006149D01*
X005236Y006168D01*
X005236Y006312D01*
X005046Y006331D01*
X005025Y006395D01*
X004750Y006395D01*
X004806Y006337D02*
X005044Y006337D01*
X005025Y006395D02*
X004994Y006455D01*
X005115Y006604D01*
X005014Y006705D01*
X004865Y006584D01*
X004805Y006615D01*
X004741Y006636D01*
X004722Y006826D01*
X004578Y006826D01*
X004559Y006636D01*
X004495Y006615D01*
X004435Y006584D01*
X004286Y006705D01*
X004185Y006604D01*
X004306Y006455D01*
X004275Y006395D01*
X004551Y006395D01*
X004495Y006337D02*
X004256Y006337D01*
X004254Y006331D02*
X004064Y006312D01*
X004064Y006168D01*
X004254Y006149D01*
X004275Y006085D01*
X004306Y006025D01*
X004185Y005876D01*
X004286Y005775D01*
X004242Y005819D02*
X004341Y005819D01*
X004412Y005877D02*
X004185Y005877D01*
X004232Y005934D02*
X004523Y005934D01*
X004500Y005877D02*
X004471Y005877D01*
X004547Y005992D02*
X004279Y005992D01*
X004293Y006050D02*
X004571Y006050D01*
X004524Y006107D02*
X004268Y006107D01*
X004097Y006165D02*
X004482Y006165D01*
X004468Y006222D02*
X004064Y006222D01*
X004064Y006280D02*
X004470Y006280D01*
X004304Y006452D02*
X004996Y006452D01*
X005039Y006510D02*
X004261Y006510D01*
X004214Y006568D02*
X005086Y006568D01*
X005094Y006625D02*
X004915Y006625D01*
X004986Y006683D02*
X005036Y006683D01*
X004774Y006625D02*
X004526Y006625D01*
X004563Y006683D02*
X004737Y006683D01*
X004731Y006740D02*
X004569Y006740D01*
X004575Y006798D02*
X004725Y006798D01*
X004385Y006625D02*
X004206Y006625D01*
X004264Y006683D02*
X004314Y006683D01*
X004275Y006395D02*
X004254Y006331D01*
X004729Y006050D02*
X005007Y006050D01*
X005021Y005992D02*
X004753Y005992D01*
X004777Y005934D02*
X005068Y005934D01*
X005115Y005877D02*
X004888Y005877D01*
X004829Y005877D02*
X004800Y005877D01*
X004959Y005819D02*
X005058Y005819D01*
X005032Y006107D02*
X004776Y006107D01*
X004818Y006165D02*
X005203Y006165D01*
X005236Y006222D02*
X004832Y006222D01*
X004829Y006280D02*
X005236Y006280D01*
D52*
X007076Y007901D03*
X007077Y007901D03*
X007737Y008213D03*
X007737Y008213D03*
X007754Y008213D03*
X007731Y008267D03*
X007739Y008288D03*
X007739Y008288D03*
X007730Y008359D03*
X007749Y008411D03*
X008179Y008609D03*
X008180Y008609D03*
X008179Y008150D03*
X008180Y008150D03*
X007077Y008857D03*
X007076Y008858D03*
D53*
X008178Y008150D03*
D54*
X008178Y008609D03*
D55*
X007750Y008411D03*
X007741Y008411D03*
X007731Y008308D03*
X007731Y008308D03*
X007731Y008267D03*
X008178Y008150D03*
X007077Y007901D03*
X007077Y008857D03*
D56*
X008178Y008609D03*
D57*
X007739Y008412D03*
X007733Y008308D03*
X007733Y008268D03*
X007733Y008268D03*
X008177Y008150D03*
X007079Y007902D03*
X007079Y008856D03*
D58*
X007079Y008856D03*
X007740Y008412D03*
X007751Y008412D03*
X007731Y008359D03*
X007731Y008359D03*
X008177Y008609D03*
X007079Y007902D03*
D59*
X008177Y008150D03*
D60*
X007734Y008268D03*
X008177Y008609D03*
X007080Y008856D03*
X007080Y007902D03*
D61*
X007080Y007903D03*
X007734Y008268D03*
X007752Y008413D03*
X008176Y008608D03*
X008176Y008150D03*
X007080Y008855D03*
D62*
X007081Y008855D03*
X007082Y008855D03*
X007737Y008413D03*
X007737Y008288D03*
X007735Y008268D03*
X008175Y008151D03*
X008175Y008608D03*
X007082Y007904D03*
X007081Y007903D03*
D63*
X007734Y008213D03*
X007736Y008269D03*
X007736Y008414D03*
X008175Y008151D03*
D64*
X007736Y008288D03*
X007736Y008306D03*
X008175Y008608D03*
D65*
X007781Y008463D03*
X007754Y008414D03*
X007736Y008414D03*
X007779Y008396D03*
X007780Y008396D03*
X007779Y008323D03*
X007737Y008269D03*
X007781Y008252D03*
X008174Y008151D03*
X008174Y008151D03*
X007085Y007905D03*
X007084Y007904D03*
X007085Y008854D03*
X007084Y008854D03*
D66*
X007737Y008306D03*
X007737Y008306D03*
X008174Y008608D03*
X008174Y008608D03*
D67*
X008173Y008607D03*
X007779Y008396D03*
X007755Y008414D03*
X007777Y008324D03*
X007738Y008306D03*
X007738Y008270D03*
X008173Y008151D03*
D68*
X008172Y008151D03*
X007776Y008324D03*
X007776Y008324D03*
X007739Y008305D03*
X007737Y008359D03*
X008172Y008607D03*
X007088Y008853D03*
X007088Y007906D03*
D69*
X007733Y008213D03*
X007739Y008305D03*
X008172Y008151D03*
D70*
X007774Y008324D03*
X007773Y008324D03*
X007740Y008305D03*
X007740Y008270D03*
X007774Y008395D03*
X007775Y008395D03*
X007733Y008415D03*
X008172Y008607D03*
D71*
X008171Y008607D03*
X007757Y008415D03*
X007773Y008324D03*
X007740Y008305D03*
X008171Y008152D03*
X007089Y007906D03*
X007089Y008852D03*
D72*
X007741Y008304D03*
X007741Y008271D03*
X007772Y008325D03*
X008171Y008152D03*
D73*
X007759Y008213D03*
X007714Y008250D03*
X007773Y008395D03*
X007757Y008415D03*
X007733Y008415D03*
X007778Y008461D03*
X007778Y008511D03*
X007778Y008511D03*
X007779Y008511D03*
X007780Y008511D03*
X007781Y008511D03*
X007776Y008511D03*
X007776Y008511D03*
X007775Y008511D03*
X007774Y008511D03*
X007773Y008511D03*
X007772Y008511D03*
X008171Y008607D03*
D74*
X008169Y008606D03*
X007754Y008532D03*
X007741Y008532D03*
X007722Y008532D03*
X007731Y008416D03*
X007770Y008394D03*
X007771Y008394D03*
X007741Y008359D03*
X007769Y008325D03*
X007769Y008325D03*
X007742Y008304D03*
X007733Y008288D03*
X007742Y008271D03*
X007743Y008271D03*
X007716Y008250D03*
X007731Y008213D03*
X007776Y008250D03*
X008169Y008152D03*
X008170Y008152D03*
D75*
X007776Y008250D03*
X007760Y008213D03*
X007715Y008250D03*
X007770Y008325D03*
X007771Y008325D03*
X007740Y008359D03*
X007772Y008395D03*
X007758Y008416D03*
X007731Y008416D03*
X007778Y008461D03*
X007754Y008532D03*
X007721Y008511D03*
X007720Y008511D03*
X007719Y008511D03*
X007718Y008511D03*
X007718Y008511D03*
X007716Y008511D03*
X007716Y008511D03*
X007715Y008511D03*
X007714Y008511D03*
X007713Y008511D03*
X008170Y008606D03*
X007091Y008851D03*
X007089Y008852D03*
X007091Y007907D03*
X007089Y007906D03*
D76*
X007093Y007908D03*
X007717Y008249D03*
X007732Y008288D03*
X007766Y008326D03*
X007768Y008394D03*
X008169Y008606D03*
X008169Y008153D03*
D77*
X008168Y008153D03*
X007820Y008012D03*
X007774Y008249D03*
X007744Y008272D03*
X007766Y008326D03*
X007767Y008326D03*
X007767Y008394D03*
X007760Y008417D03*
X007730Y008417D03*
X007776Y008460D03*
X007820Y008746D03*
X008168Y008606D03*
D78*
X008168Y008606D03*
X007755Y008533D03*
X007729Y008417D03*
X007766Y008393D03*
X007767Y008393D03*
X007743Y008359D03*
X007764Y008326D03*
X007765Y008326D03*
X007745Y008303D03*
X007745Y008272D03*
X007718Y008249D03*
X008168Y008153D03*
X007094Y007908D03*
X007094Y007908D03*
X007094Y008850D03*
X007094Y008850D03*
D79*
X007723Y008533D03*
X007775Y008459D03*
X007760Y008417D03*
X007766Y008393D03*
X007743Y008359D03*
X007773Y008249D03*
X008167Y008153D03*
D80*
X007745Y008273D03*
X007745Y008303D03*
X007764Y008327D03*
X008167Y008606D03*
D81*
X007757Y008534D03*
X007724Y008534D03*
X007774Y008459D03*
X007761Y008418D03*
X007763Y008393D03*
X007745Y008359D03*
X007744Y008359D03*
X007761Y008327D03*
X007763Y008327D03*
X007746Y008273D03*
X007719Y008248D03*
X007728Y008418D03*
X008166Y008153D03*
D82*
X008166Y008153D03*
X007771Y008248D03*
X007720Y008248D03*
X007729Y008213D03*
X007731Y008288D03*
X007761Y008327D03*
X007763Y008393D03*
X007727Y008418D03*
X007713Y008459D03*
X007758Y008534D03*
X008166Y008606D03*
X008166Y008606D03*
X007097Y008849D03*
X007096Y008849D03*
X007097Y007910D03*
X007096Y007909D03*
D83*
X007098Y007910D03*
X007727Y008418D03*
X008165Y008605D03*
X008165Y008154D03*
X007098Y008848D03*
D84*
X007100Y008848D03*
X007725Y008535D03*
X007760Y008535D03*
X007725Y008419D03*
X007758Y008392D03*
X007748Y008359D03*
X007756Y008328D03*
X007749Y008301D03*
X007749Y008274D03*
X007769Y008247D03*
X007769Y008247D03*
X007763Y008213D03*
X007722Y008247D03*
X007722Y008247D03*
X008164Y008153D03*
X008165Y008153D03*
X008164Y008605D03*
X008165Y008605D03*
X007100Y007910D03*
D85*
X007753Y008329D03*
X008163Y008154D03*
D86*
X007764Y008213D03*
X007749Y008359D03*
X007755Y008391D03*
X007736Y008536D03*
X007727Y008536D03*
X008163Y008605D03*
X007102Y008846D03*
X007102Y007912D03*
D87*
X007751Y008300D03*
X007754Y008329D03*
X007754Y008329D03*
X008163Y008154D03*
D88*
X007767Y008246D03*
X007751Y008275D03*
X007724Y008246D03*
X007727Y008213D03*
X007748Y008359D03*
X007755Y008391D03*
X007756Y008391D03*
X007765Y008419D03*
X007770Y008457D03*
X007716Y008457D03*
X007724Y008419D03*
X007727Y008536D03*
X007736Y008536D03*
X007761Y008536D03*
X008163Y008605D03*
X007101Y008847D03*
X007101Y007911D03*
D89*
X007752Y008390D03*
X008162Y008154D03*
D90*
X007752Y008275D03*
X007752Y008275D03*
X007752Y008300D03*
X007752Y008300D03*
X007751Y008329D03*
X007751Y008359D03*
X007750Y008359D03*
X007722Y008420D03*
X007718Y008456D03*
X007769Y008456D03*
X007763Y008536D03*
X007763Y008536D03*
X007733Y008536D03*
X007733Y008536D03*
X007731Y008536D03*
X007731Y008536D03*
X007730Y008536D03*
X008162Y008605D03*
D91*
X007753Y008390D03*
X007766Y008246D03*
X007725Y008246D03*
X008162Y008154D03*
X007104Y007912D03*
X007104Y008846D03*
D92*
X007764Y008537D03*
X007751Y008390D03*
X007753Y008276D03*
X008162Y008604D03*
D93*
X007764Y008537D03*
X007769Y008456D03*
X007767Y008420D03*
X007752Y008390D03*
X007722Y008420D03*
X007718Y008456D03*
X007728Y008288D03*
X007726Y008246D03*
X007725Y008246D03*
X007765Y008246D03*
X007766Y008246D03*
X008161Y008154D03*
X007104Y007913D03*
X007104Y008846D03*
D94*
X007105Y008845D03*
X007765Y008537D03*
X007767Y008420D03*
X007751Y008390D03*
X007750Y008390D03*
X007749Y008390D03*
X007748Y008330D03*
X007748Y008330D03*
X007754Y008276D03*
X007764Y008245D03*
X008160Y008155D03*
X008160Y008604D03*
X008161Y008604D03*
X007105Y007913D03*
D95*
X007747Y008389D03*
X008160Y008155D03*
D96*
X008160Y008604D03*
X007745Y008330D03*
D97*
X007744Y008331D03*
X007726Y008288D03*
X007729Y008244D03*
X007763Y008244D03*
X007746Y008389D03*
X007746Y008389D03*
X007769Y008421D03*
X007719Y008421D03*
X008159Y008604D03*
X008159Y008155D03*
X007109Y007914D03*
X007109Y007914D03*
X007107Y007914D03*
X007109Y008844D03*
X007109Y008844D03*
X007107Y008844D03*
D98*
X007722Y008455D03*
X007766Y008455D03*
X007745Y008389D03*
X007744Y008389D03*
X007743Y008331D03*
X007742Y008331D03*
X007724Y008213D03*
X007767Y008213D03*
X007769Y008538D03*
X007769Y008538D03*
X008159Y008604D03*
X008159Y008155D03*
D99*
X008158Y008155D03*
X007760Y008243D03*
X007740Y008332D03*
X007742Y008388D03*
X007717Y008422D03*
X007723Y008454D03*
X008158Y008603D03*
D100*
X008157Y008603D03*
X007771Y008539D03*
X007764Y008454D03*
X007718Y008422D03*
X007742Y008388D03*
X007739Y008332D03*
X007731Y008243D03*
X007767Y008213D03*
X008157Y008155D03*
X007111Y007915D03*
X007110Y007915D03*
X007111Y008843D03*
X007110Y008843D03*
D101*
X007112Y008843D03*
X007724Y008454D03*
X007716Y008423D03*
X007740Y008388D03*
X007741Y008388D03*
X007771Y008423D03*
X007739Y008332D03*
X007737Y008332D03*
X007772Y008539D03*
X008157Y008156D03*
X007112Y007916D03*
D102*
X007731Y008243D03*
X007760Y008243D03*
X008157Y008603D03*
D103*
X007772Y008539D03*
X007764Y008454D03*
X007738Y008332D03*
X007725Y008288D03*
X008156Y008156D03*
X007112Y007916D03*
X007112Y008843D03*
D104*
X007773Y008539D03*
X007772Y008423D03*
X007740Y008388D03*
X007732Y008243D03*
X007758Y008243D03*
X008156Y008603D03*
D105*
X007774Y008540D03*
X007763Y008453D03*
X007772Y008423D03*
X007737Y008387D03*
X007736Y008333D03*
X007735Y008333D03*
X007724Y008288D03*
X007733Y008243D03*
X007758Y008243D03*
X007769Y008213D03*
X007722Y008213D03*
X008156Y008156D03*
D106*
X007757Y008242D03*
X007734Y008333D03*
X007733Y008333D03*
X007737Y008387D03*
X007715Y008424D03*
X007725Y008453D03*
X007773Y008424D03*
X007775Y008540D03*
X008155Y008603D03*
X008156Y008603D03*
X007115Y008842D03*
X007114Y008842D03*
X007114Y007916D03*
X007115Y007916D03*
D107*
X008155Y008156D03*
D108*
X008154Y008156D03*
X007734Y008242D03*
X007735Y008387D03*
X007736Y008387D03*
X007714Y008424D03*
X007776Y008540D03*
D109*
X007761Y008453D03*
X007726Y008453D03*
X007733Y008333D03*
X007724Y008288D03*
X007722Y008213D03*
X007769Y008213D03*
X008154Y008603D03*
X007116Y008841D03*
X007116Y007917D03*
D110*
X007117Y007918D03*
X007723Y008287D03*
X007730Y008333D03*
X007734Y008386D03*
X007713Y008424D03*
X008154Y008602D03*
X008154Y008156D03*
X007117Y008840D03*
D111*
X007760Y008452D03*
X007728Y008334D03*
X008153Y008156D03*
X008153Y008602D03*
D112*
X008153Y008602D03*
X007819Y008738D03*
X007778Y008541D03*
X007728Y008452D03*
X007713Y008424D03*
X007733Y008386D03*
X007730Y008334D03*
X007729Y008334D03*
X007722Y008288D03*
X007736Y008241D03*
X007755Y008241D03*
X007775Y008424D03*
X007118Y008840D03*
X007118Y008840D03*
X007118Y007918D03*
X007118Y007918D03*
D113*
X007119Y007919D03*
X007720Y008213D03*
X007737Y008241D03*
X007754Y008241D03*
X007722Y008288D03*
X007726Y008334D03*
X007727Y008334D03*
X007729Y008385D03*
X007730Y008385D03*
X007776Y008425D03*
X007759Y008451D03*
X007729Y008451D03*
X007779Y008541D03*
X008153Y008157D03*
X007119Y008840D03*
D114*
X007727Y008334D03*
X007762Y008360D03*
X007730Y008385D03*
X007779Y008541D03*
X008152Y008157D03*
D115*
X008152Y008602D03*
D116*
X008151Y008602D03*
X007780Y008542D03*
X007730Y008451D03*
X007776Y008425D03*
X007728Y008385D03*
X007763Y008359D03*
X007725Y008335D03*
X007771Y008213D03*
X008151Y008157D03*
X007120Y007919D03*
X007120Y008839D03*
D117*
X007121Y008839D03*
X007724Y008335D03*
X007724Y008335D03*
X007763Y008360D03*
X007758Y008451D03*
X007719Y008213D03*
X008151Y008157D03*
X008151Y008601D03*
X007121Y007919D03*
D118*
X007723Y008335D03*
X007764Y008359D03*
X008150Y008157D03*
X008150Y008601D03*
D119*
X008150Y008601D03*
X007778Y008426D03*
X007757Y008450D03*
X007731Y008450D03*
X007724Y008384D03*
X007724Y008384D03*
X007764Y008360D03*
X007721Y008336D03*
X007721Y008288D03*
X007740Y008240D03*
X007751Y008240D03*
X007772Y008213D03*
X008150Y008157D03*
X007122Y007920D03*
X007122Y008838D03*
D120*
X007124Y008838D03*
X007719Y008336D03*
X007720Y008336D03*
X007720Y008287D03*
X008149Y008158D03*
X007124Y007920D03*
D121*
X007722Y008384D03*
X007765Y008359D03*
X007750Y008239D03*
X007741Y008239D03*
X008149Y008601D03*
D122*
X008148Y008158D03*
X007719Y008336D03*
D123*
X007721Y008384D03*
X007766Y008360D03*
X007742Y008239D03*
X008148Y008601D03*
D124*
X007780Y008427D03*
X007755Y008449D03*
X007733Y008449D03*
X007721Y008383D03*
X007720Y008383D03*
X007716Y008336D03*
X007767Y008359D03*
X007742Y008239D03*
X007718Y008213D03*
X008148Y008158D03*
X007126Y007921D03*
X007126Y008837D03*
D125*
X007125Y008837D03*
X007124Y008838D03*
X007722Y008384D03*
X007766Y008360D03*
X007779Y008427D03*
X007756Y008450D03*
X007733Y008450D03*
X007719Y008288D03*
X007749Y008239D03*
X007773Y008213D03*
X007718Y008213D03*
X008148Y008601D03*
X007125Y007921D03*
X007124Y007920D03*
D126*
X007127Y007922D03*
X007128Y007922D03*
X007718Y008383D03*
X007735Y008449D03*
X007754Y008449D03*
X007744Y008238D03*
X008147Y008158D03*
X008147Y008600D03*
X007128Y008836D03*
X007127Y008836D03*
D127*
X007717Y008383D03*
X007747Y008238D03*
X008147Y008158D03*
X008147Y008600D03*
D128*
X008146Y008600D03*
X007754Y008448D03*
X007736Y008448D03*
X007716Y008382D03*
X007716Y008382D03*
X007713Y008337D03*
X007718Y008288D03*
X007745Y008238D03*
X007746Y008238D03*
X007769Y008360D03*
X008146Y008159D03*
X007129Y007922D03*
X007129Y008836D03*
D129*
X007713Y008382D03*
X007714Y008382D03*
X007770Y008360D03*
X007752Y008448D03*
X007737Y008448D03*
X007716Y008213D03*
X008145Y008159D03*
D130*
X008145Y008600D03*
X007718Y008288D03*
X007131Y007923D03*
X007131Y008835D03*
D131*
X007130Y008835D03*
X007713Y008382D03*
X007770Y008360D03*
X007775Y008213D03*
X008145Y008159D03*
X007130Y007923D03*
D132*
X007132Y007924D03*
X007132Y008835D03*
X008145Y008600D03*
D133*
X008144Y008600D03*
X007752Y008448D03*
X007737Y008448D03*
X008144Y008159D03*
D134*
X008144Y008159D03*
X007776Y008213D03*
X007133Y007924D03*
X007133Y008834D03*
D135*
X007739Y008447D03*
X007751Y008447D03*
X008144Y008600D03*
D136*
X008143Y008600D03*
X008143Y008159D03*
X007773Y008360D03*
D137*
X007749Y008446D03*
X007740Y008446D03*
X007714Y008213D03*
X008142Y008159D03*
X008142Y008159D03*
X007135Y007925D03*
X007135Y008833D03*
D138*
X008142Y008599D03*
X008142Y008599D03*
D139*
X008141Y008159D03*
D140*
X008141Y008599D03*
X007742Y008446D03*
D141*
X007742Y008445D03*
X007748Y008445D03*
X007776Y008360D03*
X007715Y008288D03*
X007713Y008213D03*
X007778Y008213D03*
X008140Y008160D03*
X008141Y008160D03*
X008141Y008599D03*
X007139Y008832D03*
X007139Y008832D03*
X007139Y007926D03*
X007139Y007926D03*
D142*
X008140Y008599D03*
D143*
X007743Y008445D03*
X008139Y008160D03*
D144*
X008139Y008598D03*
X007746Y008445D03*
X007714Y008288D03*
X007140Y007927D03*
X007140Y008831D03*
D145*
X008139Y008599D03*
X008139Y008160D03*
D146*
X008138Y008160D03*
X007779Y008213D03*
X007778Y008360D03*
X007143Y007928D03*
X007143Y008830D03*
D147*
X007713Y008288D03*
X007754Y008288D03*
X007755Y008288D03*
X007756Y008288D03*
X007757Y008288D03*
X007758Y008288D03*
X007759Y008288D03*
X007760Y008288D03*
X007761Y008288D03*
X007761Y008288D03*
X007763Y008288D03*
X007763Y008288D03*
X007764Y008288D03*
X007765Y008288D03*
X007766Y008288D03*
X007767Y008288D03*
X007767Y008288D03*
X007769Y008288D03*
X007769Y008288D03*
X007770Y008288D03*
X007771Y008288D03*
X007772Y008288D03*
X007773Y008288D03*
X007774Y008288D03*
X007775Y008288D03*
X007776Y008288D03*
X007776Y008288D03*
X007778Y008288D03*
X007778Y008288D03*
X007779Y008288D03*
X007780Y008288D03*
X007781Y008288D03*
X007745Y008444D03*
X008138Y008598D03*
D148*
X008138Y008598D03*
X008138Y008161D03*
X007780Y008213D03*
X007142Y007928D03*
X007142Y008830D03*
D149*
X008137Y008598D03*
X008137Y008161D03*
D150*
X008136Y008161D03*
X007781Y008213D03*
X007781Y008360D03*
D151*
X007780Y008360D03*
X007779Y008360D03*
X008136Y008598D03*
X007144Y008829D03*
X007144Y007929D03*
D152*
X007146Y007929D03*
X007146Y007929D03*
X007146Y008829D03*
X007146Y008829D03*
X008136Y008161D03*
D153*
X008136Y008597D03*
D154*
X008135Y008161D03*
X007147Y007930D03*
X007147Y008828D03*
D155*
X008135Y008598D03*
D156*
X008135Y008597D03*
X008134Y008162D03*
X008135Y008162D03*
D157*
X008134Y008597D03*
X007149Y008827D03*
X007149Y007931D03*
D158*
X007149Y007931D03*
X007149Y008827D03*
X008133Y008597D03*
X008133Y008162D03*
D159*
X008133Y008162D03*
X008133Y008597D03*
D160*
X008132Y008162D03*
X007152Y007932D03*
X007152Y008826D03*
D161*
X008132Y008597D03*
D162*
X008132Y008163D03*
D163*
X008132Y008596D03*
X007151Y008827D03*
X007151Y007931D03*
D164*
X008131Y008163D03*
D165*
X008131Y008596D03*
X007152Y008826D03*
X007152Y007932D03*
D166*
X008130Y008163D03*
D167*
X008130Y008596D03*
D168*
X008130Y008596D03*
X008130Y008163D03*
D169*
X008129Y008163D03*
X008129Y008596D03*
X007156Y008825D03*
X007156Y007933D03*
D170*
X008129Y008163D03*
D171*
X008129Y008596D03*
D172*
X008128Y008163D03*
X007158Y007934D03*
X007158Y008824D03*
D173*
X008128Y008596D03*
D174*
X008127Y008595D03*
X008127Y008163D03*
X007159Y007935D03*
X007159Y008823D03*
D175*
X008127Y008163D03*
D176*
X008127Y008595D03*
X007160Y008823D03*
X007160Y007935D03*
D177*
X008126Y008163D03*
D178*
X008126Y008595D03*
X007162Y008823D03*
X007162Y007936D03*
D179*
X007161Y007936D03*
X007163Y007936D03*
X007163Y008822D03*
X007161Y008823D03*
X008126Y008595D03*
X008126Y008164D03*
D180*
X008125Y008164D03*
X007163Y007936D03*
X007163Y008822D03*
D181*
X008125Y008595D03*
D182*
X008124Y008164D03*
X007165Y007937D03*
X007165Y008821D03*
D183*
X007164Y008821D03*
X007164Y007937D03*
X008124Y008594D03*
D184*
X008124Y008164D03*
D185*
X008124Y008594D03*
D186*
X008123Y008594D03*
X008123Y008594D03*
X008123Y008165D03*
X008123Y008165D03*
X007167Y007938D03*
X007167Y008820D03*
D187*
X008122Y008594D03*
X008122Y008165D03*
D188*
X008121Y008165D03*
D189*
X008121Y008594D03*
X007169Y008819D03*
X007169Y007939D03*
D190*
X007170Y007940D03*
X007170Y008819D03*
X008121Y008594D03*
X008121Y008165D03*
D191*
X008120Y008165D03*
X008120Y008594D03*
D192*
X008119Y008165D03*
X008120Y008165D03*
X007174Y007941D03*
X007173Y007940D03*
X007174Y008817D03*
X007173Y008818D03*
D193*
X007172Y008818D03*
X007172Y007940D03*
X008119Y008593D03*
X008120Y008593D03*
D194*
X008118Y008166D03*
X007173Y007941D03*
X007173Y008817D03*
D195*
X008118Y008593D03*
D196*
X008117Y008166D03*
X008118Y008166D03*
X007175Y008816D03*
D197*
X007175Y007942D03*
X008117Y008593D03*
X008118Y008593D03*
D198*
X008117Y008166D03*
D199*
X008117Y008593D03*
D200*
X008116Y008166D03*
X007178Y007943D03*
X007178Y008815D03*
D201*
X008116Y008592D03*
D202*
X008115Y008592D03*
X008115Y008167D03*
D203*
X008115Y008167D03*
X008115Y008592D03*
X007179Y008815D03*
X007179Y007944D03*
D204*
X008114Y008167D03*
D205*
X008114Y008592D03*
X008114Y008592D03*
D206*
X008114Y008167D03*
X007182Y007944D03*
X007182Y008814D03*
D207*
X007183Y008813D03*
X007183Y007945D03*
X008113Y008167D03*
X008113Y008591D03*
D208*
X008112Y008591D03*
X008112Y008168D03*
X007184Y007946D03*
X007184Y008813D03*
D209*
X007184Y008812D03*
X007184Y007946D03*
X008112Y008167D03*
D210*
X008112Y008591D03*
D211*
X008111Y008591D03*
X008111Y008168D03*
X007185Y007946D03*
X007185Y008812D03*
D212*
X007185Y008812D03*
X007186Y008812D03*
X007187Y008811D03*
X007187Y007947D03*
X007186Y007946D03*
X007185Y007946D03*
X008110Y008168D03*
X008111Y008168D03*
D213*
X008111Y008591D03*
D214*
X008110Y008591D03*
X007188Y008811D03*
X007188Y007947D03*
D215*
X008109Y008168D03*
X008109Y008591D03*
D216*
X008109Y008168D03*
D217*
X008109Y008591D03*
D218*
X008108Y008590D03*
X008108Y008169D03*
D219*
X008108Y008169D03*
X008108Y008590D03*
X007191Y008810D03*
X007191Y007949D03*
D220*
X008107Y008169D03*
D221*
X008107Y008590D03*
D222*
X008106Y008169D03*
X007193Y007950D03*
X007193Y008808D03*
D223*
X008106Y008590D03*
D224*
X008106Y008590D03*
X008106Y008169D03*
D225*
X008105Y008169D03*
X007196Y007951D03*
X007196Y008807D03*
D226*
X008105Y008590D03*
D227*
X008105Y008589D03*
X008104Y008589D03*
X008104Y008169D03*
X008105Y008169D03*
D228*
X008103Y008170D03*
D229*
X008103Y008589D03*
D230*
X008102Y008588D03*
X008103Y008170D03*
D231*
X008103Y008589D03*
D232*
X008102Y008170D03*
D233*
X008102Y008170D03*
X008102Y008589D03*
D234*
X008101Y008589D03*
X008101Y008170D03*
D235*
X008100Y008171D03*
X008100Y008588D03*
X007203Y008804D03*
X007202Y008804D03*
X007202Y007954D03*
X007203Y007954D03*
D236*
X008100Y008171D03*
D237*
X008100Y008588D03*
D238*
X008099Y008588D03*
X008099Y008588D03*
X008099Y008171D03*
X008099Y008171D03*
X007205Y007955D03*
X007205Y008803D03*
D239*
X007207Y008802D03*
X007207Y007956D03*
X008098Y008171D03*
D240*
X008098Y008587D03*
D241*
X008097Y008171D03*
X007208Y007956D03*
X007208Y007956D03*
X007208Y008802D03*
X007208Y008802D03*
D242*
X008097Y008587D03*
D243*
X008097Y008587D03*
X008097Y008171D03*
D244*
X008096Y008172D03*
D245*
X008096Y008587D03*
X007209Y008801D03*
X007209Y007957D03*
D246*
X008096Y008172D03*
D247*
X008096Y008587D03*
X007210Y008801D03*
X007210Y007957D03*
D248*
X007211Y007958D03*
X007211Y008801D03*
X008095Y008587D03*
X008095Y008172D03*
D249*
X008094Y008172D03*
X007212Y008800D03*
D250*
X007212Y007958D03*
X008094Y008587D03*
D251*
X008094Y008586D03*
X008094Y008172D03*
X007213Y008799D03*
D252*
X007214Y008799D03*
X007212Y008800D03*
X007212Y007958D03*
X008093Y008172D03*
X008093Y008586D03*
D253*
X008093Y008586D03*
X008093Y008172D03*
X007215Y007960D03*
X007214Y007959D03*
X007215Y008798D03*
D254*
X008092Y008173D03*
D255*
X008092Y008586D03*
D256*
X008091Y008586D03*
X008091Y008173D03*
D257*
X008091Y008173D03*
X007219Y007961D03*
X007218Y007961D03*
X007217Y007961D03*
X007219Y008797D03*
D258*
X007218Y008798D03*
X007217Y008798D03*
X008091Y008586D03*
D259*
X008090Y008173D03*
X007218Y007961D03*
X007218Y008797D03*
D260*
X008090Y008585D03*
D261*
X008090Y008585D03*
X008090Y008173D03*
D262*
X008089Y008174D03*
X007220Y007962D03*
X007220Y008796D03*
D263*
X008089Y008585D03*
D264*
X008088Y008585D03*
X008088Y008174D03*
X007222Y007963D03*
X007222Y008795D03*
D265*
X008088Y008585D03*
X008088Y008174D03*
D266*
X008087Y008174D03*
D267*
X008087Y008585D03*
X007224Y008795D03*
X007224Y007964D03*
D268*
X007224Y007964D03*
X007224Y008795D03*
X008087Y008585D03*
X008087Y008174D03*
D269*
X008086Y008174D03*
X008085Y008584D03*
X007226Y008794D03*
X007225Y008794D03*
X007225Y007964D03*
X007226Y007964D03*
D270*
X008086Y008584D03*
D271*
X008085Y008174D03*
D272*
X008085Y008174D03*
X007226Y007964D03*
X007226Y008794D03*
D273*
X008085Y008584D03*
D274*
X008084Y008584D03*
X008084Y008175D03*
X007227Y007965D03*
X007227Y007965D03*
X007227Y008793D03*
X007227Y008793D03*
D275*
X008084Y008584D03*
X008084Y008175D03*
D276*
X008083Y008175D03*
D277*
X008083Y008583D03*
D278*
X008082Y008584D03*
X008082Y008175D03*
X007231Y007967D03*
X007231Y008791D03*
D279*
X008082Y008176D03*
D280*
X008082Y008583D03*
D281*
X008081Y008176D03*
D282*
X008081Y008583D03*
D283*
X008081Y008583D03*
X008081Y008176D03*
X007232Y007967D03*
X007232Y008791D03*
D284*
X007235Y008790D03*
X007235Y007968D03*
X008079Y008176D03*
X008080Y008176D03*
D285*
X008080Y008583D03*
D286*
X008079Y008583D03*
D287*
X008079Y008176D03*
X007235Y007969D03*
X007235Y008789D03*
D288*
X008079Y008583D03*
D289*
X008078Y008176D03*
D290*
X008078Y008583D03*
D291*
X008078Y008177D03*
D292*
X008078Y008582D03*
X007238Y008789D03*
X007238Y007970D03*
D293*
X007239Y007970D03*
X007239Y008788D03*
X008077Y008177D03*
D294*
X008077Y008582D03*
D295*
X008076Y008582D03*
X008076Y008177D03*
X007240Y007971D03*
X007240Y008787D03*
D296*
X008076Y008582D03*
X008076Y008177D03*
D297*
X008075Y008177D03*
X007241Y007971D03*
X007241Y008787D03*
D298*
X008075Y008582D03*
D299*
X008075Y008581D03*
X008075Y008178D03*
D300*
X008074Y008177D03*
X008074Y008581D03*
D301*
X008073Y008178D03*
D302*
X008073Y008581D03*
X007245Y008785D03*
X007245Y007973D03*
D303*
X008073Y008178D03*
D304*
X008073Y008581D03*
D305*
X008072Y008178D03*
D306*
X008072Y008581D03*
X007246Y008785D03*
X007246Y007974D03*
D307*
X007247Y007974D03*
X007247Y008784D03*
X008072Y008581D03*
X008072Y008178D03*
D308*
X008071Y008178D03*
D309*
X008070Y008580D03*
X008071Y008580D03*
X007250Y008783D03*
X007249Y008783D03*
X007249Y007975D03*
X007250Y007975D03*
D310*
X008070Y008178D03*
D311*
X008070Y008178D03*
D312*
X008070Y008580D03*
X007250Y008783D03*
X007250Y007975D03*
D313*
X007251Y007976D03*
X007251Y008782D03*
X008069Y008579D03*
X008069Y008179D03*
X008069Y008179D03*
D314*
X008069Y008580D03*
X007251Y008783D03*
X007251Y007976D03*
D315*
X007252Y007976D03*
X008068Y008179D03*
D316*
X008068Y008580D03*
X007252Y008782D03*
D317*
X007253Y008781D03*
X007253Y007977D03*
X007253Y007976D03*
X008067Y008179D03*
D318*
X008067Y008580D03*
D319*
X008067Y008579D03*
X008067Y008180D03*
X007255Y007977D03*
X007254Y007977D03*
X007254Y008781D03*
X007255Y008781D03*
D320*
X008066Y008579D03*
X008066Y008180D03*
D321*
X008066Y008180D03*
X008065Y008180D03*
D322*
X008065Y008579D03*
X008066Y008579D03*
D323*
X008064Y008180D03*
D324*
X008064Y008578D03*
X007260Y008778D03*
X007259Y008779D03*
X007260Y007980D03*
X007259Y007980D03*
D325*
X008064Y008180D03*
D326*
X008064Y008579D03*
D327*
X008063Y008180D03*
D328*
X008063Y008180D03*
X008063Y008578D03*
X008063Y008578D03*
D329*
X008062Y008180D03*
D330*
X008062Y008578D03*
D331*
X008061Y008181D03*
X008061Y008181D03*
D332*
X008061Y008578D03*
X008061Y008578D03*
X007264Y008777D03*
X007264Y007982D03*
D333*
X007265Y007982D03*
X007265Y008776D03*
X008060Y008577D03*
X008060Y008181D03*
D334*
X008060Y008181D03*
X008060Y008577D03*
X007266Y008775D03*
X007266Y007983D03*
D335*
X007268Y007983D03*
X007268Y008775D03*
X008059Y008181D03*
D336*
X008058Y008182D03*
X008059Y008577D03*
X007268Y008774D03*
X007268Y007984D03*
D337*
X008058Y008182D03*
X008058Y008577D03*
D338*
X008058Y008577D03*
X008057Y008577D03*
X007269Y008774D03*
X007269Y007984D03*
D339*
X008057Y008182D03*
D340*
X008057Y008182D03*
X007271Y007985D03*
X007271Y008773D03*
D341*
X008057Y008577D03*
D342*
X008056Y008182D03*
X008055Y008182D03*
X007272Y007985D03*
X007272Y008773D03*
D343*
X008055Y008576D03*
X008056Y008576D03*
D344*
X008055Y008182D03*
X007275Y007987D03*
X007275Y008771D03*
D345*
X008055Y008576D03*
D346*
X008054Y008576D03*
X008054Y008183D03*
X007275Y007987D03*
X007275Y008771D03*
D347*
X007277Y008770D03*
X007277Y007988D03*
X008054Y008183D03*
D348*
X008054Y008576D03*
X007276Y008771D03*
X007276Y007987D03*
D349*
X007277Y007988D03*
X007277Y008771D03*
X008053Y008576D03*
X008053Y008183D03*
D350*
X008052Y008183D03*
X008052Y008575D03*
X008052Y008575D03*
D351*
X008052Y008183D03*
D352*
X008051Y008183D03*
X008051Y008575D03*
X007280Y008769D03*
X007280Y007989D03*
D353*
X008050Y008184D03*
X008051Y008184D03*
D354*
X008051Y008575D03*
X008050Y008575D03*
D355*
X008049Y008184D03*
D356*
X008049Y008574D03*
X007283Y008768D03*
X007283Y007991D03*
D357*
X007284Y007991D03*
X007284Y008767D03*
X008049Y008184D03*
D358*
X008049Y008575D03*
D359*
X008048Y008184D03*
X007284Y007991D03*
X007284Y008767D03*
D360*
X007285Y008767D03*
X007285Y007991D03*
X008048Y008185D03*
X008048Y008574D03*
X008048Y008574D03*
D361*
X008047Y008574D03*
X008047Y008184D03*
X007286Y007992D03*
X007286Y008766D03*
D362*
X007289Y008765D03*
X007289Y007993D03*
X008046Y008185D03*
D363*
X008046Y008574D03*
X007287Y008765D03*
X007287Y007993D03*
D364*
X007289Y007994D03*
X007289Y008765D03*
X008046Y008574D03*
X008046Y008185D03*
D365*
X008045Y008185D03*
X008045Y008574D03*
X007290Y008764D03*
X007290Y007994D03*
D366*
X007290Y008764D03*
X008045Y008185D03*
D367*
X008045Y008574D03*
D368*
X008044Y008186D03*
D369*
X008044Y008573D03*
D370*
X008043Y008186D03*
D371*
X008043Y008573D03*
D372*
X008042Y008186D03*
X008043Y008186D03*
D373*
X008042Y008573D03*
X008043Y008573D03*
X007294Y008763D03*
X007294Y007996D03*
D374*
X007295Y007997D03*
X007295Y008762D03*
X008042Y008573D03*
X008042Y008186D03*
D375*
X008041Y008186D03*
X008041Y008573D03*
X007296Y008762D03*
X007296Y007997D03*
D376*
X008040Y008186D03*
X008040Y008573D03*
D377*
X008040Y008186D03*
D378*
X008040Y008572D03*
D379*
X008039Y008186D03*
X007298Y007998D03*
X007298Y008761D03*
D380*
X008039Y008572D03*
D381*
X008039Y008572D03*
X008039Y008187D03*
X007300Y007999D03*
X007300Y008760D03*
D382*
X008038Y008187D03*
D383*
X008038Y008572D03*
D384*
X008037Y008187D03*
X007302Y007999D03*
X007302Y008759D03*
D385*
X008037Y008572D03*
D386*
X008037Y008571D03*
X008037Y008187D03*
X007302Y008000D03*
X007302Y008759D03*
D387*
X007303Y008758D03*
X007303Y008000D03*
X008036Y008188D03*
D388*
X008036Y008571D03*
D389*
X008036Y008187D03*
X007304Y008001D03*
X007304Y008757D03*
D390*
X008036Y008571D03*
D391*
X008035Y008571D03*
X007817Y008677D03*
X007305Y008757D03*
X007305Y008001D03*
X007817Y008081D03*
X008035Y008188D03*
D392*
X008034Y008188D03*
X007307Y008002D03*
X007307Y008756D03*
D393*
X007306Y008757D03*
X007306Y008001D03*
X008034Y008571D03*
D394*
X008034Y008188D03*
X007307Y008002D03*
X007307Y008756D03*
D395*
X008034Y008571D03*
D396*
X008033Y008188D03*
X008033Y008188D03*
X007309Y008755D03*
D397*
X008033Y008570D03*
X008033Y008570D03*
D398*
X008032Y008189D03*
X007310Y008003D03*
X007310Y008755D03*
D399*
X008032Y008570D03*
D400*
X008031Y008570D03*
X008031Y008189D03*
X008031Y008189D03*
X007311Y008004D03*
X007311Y008755D03*
D401*
X007311Y008754D03*
X007313Y008754D03*
X007313Y008004D03*
X007311Y008004D03*
X008031Y008570D03*
D402*
X008030Y008570D03*
X008030Y008189D03*
D403*
X008030Y008189D03*
X008030Y008570D03*
D404*
X008029Y008189D03*
X007316Y008006D03*
X007314Y008005D03*
X007316Y008752D03*
X007314Y008753D03*
D405*
X008029Y008569D03*
D406*
X008028Y008189D03*
D407*
X008028Y008569D03*
D408*
X008027Y008190D03*
X008028Y008190D03*
D409*
X008027Y008569D03*
X008028Y008569D03*
X007319Y008751D03*
X007317Y008751D03*
X007319Y008007D03*
X007317Y008007D03*
D410*
X007320Y008008D03*
X007320Y008750D03*
X008027Y008568D03*
X008027Y008190D03*
D411*
X008026Y008190D03*
X008026Y008568D03*
D412*
X008025Y008190D03*
X007322Y008749D03*
D413*
X007322Y008009D03*
X008025Y008568D03*
D414*
X008025Y008190D03*
D415*
X008025Y008568D03*
D416*
X008024Y008568D03*
X008024Y008191D03*
D417*
X008024Y008191D03*
D418*
X008024Y008568D03*
X007323Y008749D03*
X007323Y008009D03*
D419*
X008023Y008191D03*
D420*
X008023Y008568D03*
X007323Y008749D03*
X007323Y008009D03*
D421*
X008022Y008191D03*
X008022Y008191D03*
D422*
X008022Y008568D03*
X008022Y008568D03*
D423*
X008021Y008191D03*
D424*
X008021Y008567D03*
X007327Y008747D03*
D425*
X007329Y008746D03*
X007329Y008012D03*
X008021Y008192D03*
X008021Y008567D03*
D426*
X008020Y008567D03*
X008019Y008567D03*
X008019Y008192D03*
X008020Y008192D03*
D427*
X008019Y008192D03*
X008019Y008567D03*
D428*
X008018Y008567D03*
X008018Y008567D03*
X007817Y008379D03*
X008018Y008192D03*
X008018Y008192D03*
X007332Y008013D03*
X007332Y008745D03*
D429*
X008017Y008566D03*
X008017Y008193D03*
D430*
X008016Y008193D03*
X008016Y008566D03*
D431*
X008016Y008566D03*
X007334Y008744D03*
X007334Y008744D03*
X007334Y008015D03*
X007334Y008015D03*
D432*
X008016Y008193D03*
D433*
X008015Y008193D03*
D434*
X008015Y008566D03*
X007335Y008743D03*
X007335Y008015D03*
D435*
X008014Y008193D03*
X008015Y008193D03*
X008015Y008565D03*
X008014Y008565D03*
D436*
X008013Y008193D03*
D437*
X008013Y008565D03*
X007340Y008741D03*
X007340Y008018D03*
D438*
X007341Y008018D03*
X007341Y008740D03*
X008012Y008565D03*
X008013Y008565D03*
X008012Y008194D03*
X008013Y008194D03*
D439*
X008012Y008194D03*
D440*
X008012Y008564D03*
X007342Y008740D03*
X007342Y008018D03*
D441*
X007343Y008019D03*
X007818Y008379D03*
X008011Y008194D03*
X008011Y008565D03*
X007343Y008739D03*
D442*
X007345Y008739D03*
X007345Y008020D03*
X008010Y008194D03*
D443*
X008010Y008564D03*
D444*
X008010Y008564D03*
X008010Y008195D03*
D445*
X008009Y008195D03*
X008009Y008564D03*
D446*
X008009Y008195D03*
X007781Y008089D03*
X007347Y008738D03*
D447*
X008009Y008564D03*
D448*
X008008Y008195D03*
D449*
X008008Y008564D03*
D450*
X008007Y008564D03*
X008007Y008564D03*
X008007Y008195D03*
X008007Y008195D03*
X007780Y008089D03*
X007349Y008022D03*
X007349Y008736D03*
D451*
X008006Y008563D03*
X008006Y008195D03*
D452*
X008006Y008195D03*
X007778Y008090D03*
X007352Y008023D03*
X007352Y008735D03*
X008006Y008563D03*
D453*
X007819Y008379D03*
X008005Y008196D03*
X007353Y008024D03*
X007353Y008735D03*
D454*
X008005Y008563D03*
D455*
X008004Y008196D03*
X007354Y008024D03*
X007354Y008734D03*
D456*
X008004Y008563D03*
D457*
X008004Y008196D03*
D458*
X008004Y008563D03*
X007355Y008734D03*
X007355Y008024D03*
D459*
X008003Y008196D03*
D460*
X007776Y008090D03*
X008003Y008563D03*
D461*
X008003Y008562D03*
X008003Y008196D03*
X007775Y008091D03*
D462*
X007773Y008091D03*
X008002Y008196D03*
X008002Y008562D03*
D463*
X007820Y008379D03*
X008001Y008196D03*
D464*
X008001Y008562D03*
D465*
X008001Y008197D03*
X007772Y008092D03*
X007361Y008027D03*
X007360Y008027D03*
X007359Y008027D03*
X007360Y008731D03*
X007361Y008731D03*
X007359Y008732D03*
D466*
X008001Y008562D03*
D467*
X008000Y008197D03*
D468*
X008000Y008562D03*
D469*
X007999Y008561D03*
X007999Y008197D03*
X008000Y008197D03*
X007771Y008092D03*
D470*
X008000Y008561D03*
D471*
X007998Y008561D03*
X007998Y008198D03*
X007770Y008093D03*
D472*
X007998Y008198D03*
X007998Y008561D03*
D473*
X007781Y008664D03*
X007997Y008198D03*
X007769Y008093D03*
D474*
X007364Y008029D03*
X007364Y008029D03*
X007997Y008561D03*
X007364Y008729D03*
X007364Y008729D03*
D475*
X007997Y008198D03*
D476*
X007997Y008561D03*
X007365Y008729D03*
X007365Y008029D03*
D477*
X007366Y008030D03*
X007996Y008198D03*
X007780Y008663D03*
X007779Y008663D03*
X007366Y008728D03*
D478*
X007367Y008728D03*
X007996Y008561D03*
X007713Y008085D03*
X007367Y008030D03*
D479*
X007714Y008085D03*
X007715Y008086D03*
X007767Y008094D03*
X007995Y008199D03*
X007995Y008560D03*
X007778Y008663D03*
D480*
X007995Y008560D03*
X007995Y008199D03*
X007713Y008085D03*
X007368Y008031D03*
X007368Y008727D03*
D481*
X007994Y008199D03*
D482*
X007994Y008560D03*
X007778Y008663D03*
X007370Y008727D03*
X007369Y008727D03*
X007369Y008031D03*
X007370Y008031D03*
D483*
X007371Y008032D03*
X007371Y008033D03*
X007716Y008087D03*
X007718Y008087D03*
X007765Y008094D03*
X007994Y008199D03*
X007776Y008663D03*
X007371Y008726D03*
X007371Y008726D03*
D484*
X007994Y008560D03*
D485*
X007993Y008560D03*
X007993Y008199D03*
D486*
X007992Y008199D03*
X007992Y008560D03*
X007776Y008662D03*
X007373Y008725D03*
X007373Y008033D03*
D487*
X007374Y008034D03*
X007375Y008034D03*
X007721Y008089D03*
X007992Y008199D03*
X007375Y008724D03*
X007374Y008724D03*
D488*
X007774Y008662D03*
X007992Y008560D03*
X007763Y008095D03*
X007719Y008088D03*
D489*
X007721Y008089D03*
X007991Y008199D03*
X007991Y008559D03*
X007773Y008661D03*
D490*
X007773Y008661D03*
X007991Y008559D03*
X007991Y008199D03*
X007763Y008095D03*
X007720Y008088D03*
X007376Y008034D03*
X007376Y008724D03*
D491*
X007379Y008722D03*
X007771Y008661D03*
X007989Y008559D03*
X007990Y008559D03*
X007989Y008200D03*
X007990Y008200D03*
X007761Y008096D03*
X007724Y008090D03*
X007724Y008090D03*
X007379Y008036D03*
D492*
X007989Y008200D03*
D493*
X007725Y008091D03*
X007989Y008559D03*
X007770Y008661D03*
D494*
X007988Y008559D03*
X007988Y008200D03*
X007725Y008091D03*
D495*
X007988Y008200D03*
X007988Y008559D03*
D496*
X007987Y008200D03*
X007758Y008096D03*
X007727Y008092D03*
X007382Y008037D03*
X007382Y008721D03*
D497*
X007987Y008558D03*
D498*
X007767Y008660D03*
X007382Y008721D03*
X007986Y008201D03*
X007382Y008037D03*
D499*
X007383Y008038D03*
X007757Y008097D03*
X007986Y008201D03*
X007986Y008558D03*
X007986Y008558D03*
X007767Y008660D03*
X007383Y008720D03*
D500*
X007985Y008201D03*
D501*
X007730Y008094D03*
X007985Y008558D03*
D502*
X007985Y008558D03*
X007984Y008558D03*
X007764Y008660D03*
X007386Y008719D03*
X007731Y008094D03*
X007731Y008094D03*
X007755Y008097D03*
X007984Y008201D03*
X007985Y008201D03*
X007386Y008039D03*
D503*
X007983Y008201D03*
X007764Y008659D03*
D504*
X007983Y008557D03*
X007755Y008098D03*
X007732Y008094D03*
D505*
X007734Y008095D03*
X007754Y008098D03*
X007983Y008201D03*
X007982Y008557D03*
X007761Y008659D03*
D506*
X007983Y008557D03*
X007754Y008098D03*
X007733Y008094D03*
D507*
X007982Y008202D03*
D508*
X007982Y008202D03*
D509*
X007753Y008098D03*
X007982Y008557D03*
D510*
X007981Y008202D03*
X007752Y008099D03*
D511*
X007737Y008097D03*
X007980Y008202D03*
X007980Y008556D03*
X007981Y008556D03*
X007392Y008716D03*
X007392Y008042D03*
D512*
X007751Y008099D03*
X007980Y008202D03*
D513*
X007738Y008097D03*
X007980Y008556D03*
D514*
X007823Y008379D03*
X007979Y008203D03*
X007979Y008203D03*
X007750Y008099D03*
X007749Y008099D03*
X007739Y008098D03*
X007395Y008044D03*
X007394Y008043D03*
X007395Y008714D03*
X007394Y008715D03*
D515*
X007757Y008658D03*
X007979Y008556D03*
X007979Y008556D03*
D516*
X007978Y008556D03*
X007757Y008657D03*
X007736Y008660D03*
X007395Y008715D03*
X007740Y008098D03*
X007749Y008100D03*
X007978Y008203D03*
X007395Y008043D03*
D517*
X007977Y008203D03*
X007736Y008660D03*
D518*
X007737Y008660D03*
X007737Y008660D03*
X007735Y008660D03*
X007734Y008660D03*
X007733Y008660D03*
X007977Y008555D03*
X007748Y008100D03*
X007740Y008098D03*
D519*
X007743Y008100D03*
X007977Y008203D03*
X007977Y008555D03*
X007740Y008659D03*
X007729Y008661D03*
X007399Y008713D03*
X007399Y008045D03*
D520*
X007398Y008045D03*
X007976Y008203D03*
X007976Y008555D03*
X007755Y008657D03*
X007742Y008659D03*
X007740Y008659D03*
X007727Y008661D03*
X007398Y008713D03*
D521*
X007400Y008712D03*
X007724Y008661D03*
X007725Y008661D03*
X007726Y008661D03*
X007741Y008659D03*
X007823Y008379D03*
X007976Y008204D03*
X007744Y008100D03*
X007400Y008046D03*
D522*
X007724Y008660D03*
X007743Y008658D03*
X007976Y008555D03*
D523*
X007975Y008555D03*
X007744Y008657D03*
X007401Y008711D03*
X007974Y008204D03*
X007975Y008204D03*
X007401Y008047D03*
D524*
X007403Y008047D03*
X007722Y008660D03*
X007722Y008660D03*
X007745Y008657D03*
X007752Y008656D03*
X007974Y008555D03*
X007403Y008711D03*
D525*
X007751Y008655D03*
X007974Y008555D03*
X007974Y008204D03*
D526*
X007973Y008204D03*
X007973Y008555D03*
X007403Y008048D03*
D527*
X007405Y008049D03*
X007973Y008204D03*
X007973Y008555D03*
X007405Y008709D03*
D528*
X007406Y008709D03*
X007972Y008204D03*
X007406Y008049D03*
D529*
X007972Y008554D03*
D530*
X007971Y008554D03*
X007749Y008655D03*
X007407Y008709D03*
X007971Y008205D03*
X007407Y008049D03*
D531*
X007407Y008050D03*
X007971Y008204D03*
X007971Y008554D03*
X007748Y008654D03*
X007407Y008708D03*
D532*
X007970Y008205D03*
D533*
X007970Y008554D03*
D534*
X007970Y008554D03*
X007748Y008654D03*
X007409Y008708D03*
X007969Y008205D03*
X007970Y008205D03*
X007409Y008050D03*
D535*
X007969Y008553D03*
D536*
X007968Y008553D03*
X007968Y008205D03*
D537*
X007968Y008205D03*
X007968Y008553D03*
X007716Y008658D03*
D538*
X007967Y008206D03*
D539*
X007967Y008553D03*
X007716Y008658D03*
X007414Y008705D03*
X007413Y008706D03*
X007412Y008706D03*
X007414Y008053D03*
X007413Y008052D03*
X007412Y008052D03*
D540*
X007967Y008206D03*
X007967Y008553D03*
D541*
X007965Y008552D03*
X007965Y008206D03*
X007966Y008206D03*
X007416Y008054D03*
X007416Y008705D03*
D542*
X007415Y008705D03*
X007966Y008553D03*
X007415Y008053D03*
D543*
X007965Y008206D03*
D544*
X007965Y008552D03*
X007417Y008704D03*
X007417Y008054D03*
D545*
X007964Y008207D03*
X007964Y008207D03*
X007964Y008552D03*
D546*
X007964Y008552D03*
X007418Y008704D03*
X007418Y008704D03*
X007418Y008054D03*
X007418Y008054D03*
D547*
X007963Y008207D03*
X007963Y008552D03*
D548*
X007962Y008552D03*
X007962Y008207D03*
X007421Y008056D03*
X007420Y008056D03*
X007420Y008703D03*
X007421Y008703D03*
D549*
X007422Y008702D03*
X007422Y008702D03*
X007962Y008552D03*
X007962Y008207D03*
X007422Y008057D03*
X007422Y008057D03*
D550*
X007961Y008208D03*
D551*
X007961Y008551D03*
D552*
X007961Y008208D03*
X007960Y008208D03*
X007424Y008058D03*
D553*
X007424Y008701D03*
X007960Y008551D03*
X007961Y008551D03*
D554*
X007959Y008208D03*
X007426Y008058D03*
X007425Y008058D03*
X007425Y008700D03*
X007426Y008700D03*
D555*
X007959Y008551D03*
D556*
X007959Y008208D03*
X007427Y008059D03*
X007427Y008699D03*
D557*
X007959Y008551D03*
D558*
X007958Y008551D03*
X007958Y008208D03*
X007428Y008059D03*
X007428Y008699D03*
D559*
X007429Y008698D03*
X007430Y008698D03*
X007429Y008060D03*
X007430Y008060D03*
X007958Y008208D03*
D560*
X007958Y008550D03*
D561*
X007957Y008208D03*
D562*
X007957Y008550D03*
D563*
X007956Y008550D03*
X007956Y008209D03*
X007431Y008061D03*
X007431Y008697D03*
D564*
X007956Y008550D03*
X007956Y008209D03*
D565*
X007955Y008209D03*
D566*
X007955Y008550D03*
D567*
X007955Y008209D03*
D568*
X007955Y008550D03*
X007433Y008696D03*
X007433Y008696D03*
X007433Y008062D03*
X007433Y008062D03*
D569*
X007954Y008209D03*
D570*
X007954Y008549D03*
X007436Y008695D03*
X007435Y008695D03*
X007435Y008063D03*
X007436Y008063D03*
D571*
X007953Y008209D03*
D572*
X007953Y008549D03*
D573*
X007953Y008209D03*
D574*
X007952Y008210D03*
X007952Y008549D03*
X007953Y008549D03*
D575*
X007952Y008549D03*
X007952Y008210D03*
X007438Y008064D03*
X007438Y008694D03*
D576*
X007439Y008694D03*
X007951Y008549D03*
X007951Y008210D03*
X007439Y008065D03*
D577*
X007950Y008210D03*
D578*
X007950Y008549D03*
D579*
X007950Y008548D03*
X007950Y008210D03*
D580*
X007949Y008210D03*
X007949Y008210D03*
X007949Y008548D03*
X007443Y008692D03*
X007443Y008066D03*
D581*
X007442Y008066D03*
X007441Y008066D03*
X007442Y008692D03*
X007441Y008693D03*
X007949Y008548D03*
D582*
X007948Y008211D03*
X007443Y008067D03*
X007443Y008691D03*
D583*
X007948Y008548D03*
D584*
X007947Y008548D03*
X007947Y008548D03*
X007947Y008211D03*
X007947Y008211D03*
X007445Y008067D03*
X007444Y008067D03*
X007444Y008691D03*
X007445Y008691D03*
D585*
X007946Y008211D03*
D586*
X007946Y008547D03*
D587*
X007946Y008547D03*
X007946Y008211D03*
X007448Y008069D03*
X007448Y008069D03*
X007448Y008689D03*
X007448Y008690D03*
D588*
X007945Y008212D03*
D589*
X007945Y008547D03*
D590*
X007944Y008212D03*
X007450Y008070D03*
X007449Y008070D03*
X007449Y008688D03*
X007450Y008688D03*
D591*
X007944Y008547D03*
D592*
X007944Y008546D03*
X007944Y008212D03*
X007451Y008071D03*
X007451Y008688D03*
D593*
X007452Y008687D03*
X007943Y008212D03*
X007943Y008212D03*
X007452Y008071D03*
D594*
X007943Y008546D03*
X007943Y008546D03*
D595*
X007942Y008546D03*
X007942Y008213D03*
D596*
X007941Y008212D03*
X007454Y008072D03*
X007454Y008072D03*
X007454Y008686D03*
X007454Y008686D03*
D597*
X007941Y008546D03*
D598*
X007941Y008546D03*
X007941Y008213D03*
D599*
X007940Y008213D03*
X007457Y008073D03*
X007457Y008685D03*
D600*
X007940Y008546D03*
D601*
X007940Y008213D03*
D602*
X007940Y008546D03*
X007458Y008684D03*
X007458Y008074D03*
D603*
X007939Y008213D03*
D604*
X007939Y008546D03*
D605*
X007938Y008213D03*
D606*
X007938Y008545D03*
D607*
X007938Y008213D03*
X007459Y008684D03*
D608*
X007460Y008684D03*
X007938Y008545D03*
X007460Y008075D03*
D609*
X007937Y008214D03*
X007937Y008545D03*
D610*
X007937Y008545D03*
X007937Y008214D03*
X007462Y008076D03*
X007462Y008682D03*
D611*
X007463Y008682D03*
X007829Y008379D03*
X007936Y008214D03*
X007936Y008545D03*
X007463Y008076D03*
D612*
X007935Y008214D03*
D613*
X007935Y008545D03*
X007463Y008682D03*
X007463Y008076D03*
D614*
X007935Y008214D03*
X007935Y008545D03*
D615*
X007934Y008544D03*
X007934Y008214D03*
X007466Y008078D03*
X007466Y008681D03*
D616*
X007467Y008680D03*
X007934Y008215D03*
X007467Y008078D03*
D617*
X007934Y008544D03*
D618*
X007933Y008544D03*
X007933Y008215D03*
D619*
X007932Y008215D03*
X007932Y008215D03*
D620*
X007932Y008544D03*
X007932Y008544D03*
D621*
X007931Y008543D03*
X007931Y008215D03*
D622*
X007931Y008215D03*
X007931Y008543D03*
X007470Y008678D03*
X007470Y008080D03*
D623*
X007472Y008081D03*
X007829Y008379D03*
X007930Y008216D03*
X007472Y008678D03*
D624*
X007471Y008678D03*
X007930Y008543D03*
X007471Y008080D03*
D625*
X007473Y008081D03*
X007929Y008216D03*
X007473Y008677D03*
D626*
X007929Y008543D03*
D627*
X007929Y008216D03*
D628*
X007929Y008543D03*
X007475Y008676D03*
X007475Y008082D03*
D629*
X007476Y008082D03*
X007928Y008216D03*
X007928Y008543D03*
X007476Y008676D03*
D630*
X007476Y008675D03*
X007928Y008542D03*
X007928Y008216D03*
X007476Y008083D03*
D631*
X007479Y008084D03*
X007927Y008216D03*
X007479Y008674D03*
D632*
X007927Y008542D03*
D633*
X007926Y008216D03*
D634*
X007926Y008542D03*
D635*
X007926Y008542D03*
X007926Y008217D03*
X007480Y008084D03*
X007479Y008084D03*
X007479Y008674D03*
X007480Y008674D03*
D636*
X007925Y008542D03*
X007925Y008217D03*
D637*
X007925Y008217D03*
X007482Y008085D03*
X007482Y008085D03*
X007482Y008673D03*
X007482Y008673D03*
D638*
X007830Y008379D03*
X007924Y008217D03*
X007924Y008542D03*
X007925Y008542D03*
D639*
X007923Y008541D03*
X007923Y008217D03*
X007483Y008086D03*
X007483Y008672D03*
D640*
X007923Y008218D03*
D641*
X007923Y008541D03*
D642*
X007922Y008217D03*
X007485Y008087D03*
X007485Y008671D03*
D643*
X007486Y008671D03*
X007922Y008541D03*
X007486Y008088D03*
D644*
X007922Y008218D03*
D645*
X007922Y008541D03*
D646*
X007921Y008218D03*
D647*
X007921Y008541D03*
X007487Y008670D03*
X007487Y008088D03*
D648*
X007489Y008088D03*
X007920Y008218D03*
X007489Y008670D03*
D649*
X007488Y008670D03*
X007920Y008540D03*
X007488Y008088D03*
D650*
X007488Y008088D03*
X007920Y008218D03*
X007920Y008541D03*
X007488Y008670D03*
D651*
X007919Y008218D03*
D652*
X007919Y008540D03*
X007919Y008540D03*
D653*
X007919Y008219D03*
X007491Y008090D03*
X007490Y008089D03*
X007491Y008669D03*
X007490Y008669D03*
D654*
X007918Y008219D03*
D655*
X007918Y008540D03*
X007492Y008668D03*
X007492Y008090D03*
D656*
X007917Y008219D03*
D657*
X007917Y008540D03*
X007493Y008668D03*
X007493Y008090D03*
D658*
X007494Y008091D03*
X007917Y008219D03*
X007917Y008540D03*
X007494Y008667D03*
D659*
X007916Y008219D03*
D660*
X007916Y008539D03*
D661*
X007916Y008539D03*
X007915Y008539D03*
X007916Y008219D03*
X007497Y008093D03*
D662*
X007497Y008093D03*
X007914Y008220D03*
X007915Y008220D03*
X007914Y008539D03*
X007497Y008665D03*
D663*
X007914Y008220D03*
D664*
X007832Y008379D03*
X007914Y008539D03*
D665*
X007913Y008539D03*
X007913Y008220D03*
D666*
X007913Y008220D03*
X007500Y008094D03*
X007500Y008664D03*
D667*
X007913Y008538D03*
D668*
X007912Y008220D03*
D669*
X007912Y008538D03*
X007502Y008664D03*
X007502Y008094D03*
D670*
X007503Y008095D03*
X007911Y008221D03*
X007911Y008538D03*
X007503Y008663D03*
D671*
X007504Y008663D03*
X007911Y008538D03*
X007911Y008221D03*
X007504Y008096D03*
D672*
X007505Y008096D03*
X007910Y008221D03*
X007505Y008662D03*
D673*
X007910Y008538D03*
D674*
X007910Y008538D03*
X007909Y008538D03*
X007909Y008221D03*
X007910Y008221D03*
X007505Y008096D03*
X007505Y008662D03*
D675*
X007507Y008661D03*
X007908Y008221D03*
X007507Y008097D03*
D676*
X007908Y008537D03*
D677*
X007908Y008538D03*
X007908Y008221D03*
X007509Y008098D03*
X007509Y008660D03*
D678*
X007907Y008222D03*
D679*
X007832Y008379D03*
X007907Y008537D03*
D680*
X007907Y008537D03*
X007907Y008222D03*
X007511Y008099D03*
X007511Y008659D03*
D681*
X007512Y008658D03*
X007512Y008658D03*
X007906Y008537D03*
X007906Y008222D03*
X007512Y008100D03*
X007512Y008100D03*
D682*
X007514Y008100D03*
X007905Y008222D03*
X007514Y008658D03*
D683*
X007905Y008537D03*
X007833Y008379D03*
D684*
X007905Y008222D03*
D685*
X007905Y008537D03*
D686*
X007904Y008223D03*
X007904Y008223D03*
X007514Y008101D03*
X007514Y008658D03*
D687*
X007904Y008536D03*
X007904Y008536D03*
D688*
X007903Y008223D03*
X007517Y008102D03*
D689*
X007903Y008536D03*
X007517Y008656D03*
D690*
X007902Y008223D03*
D691*
X007902Y008536D03*
D692*
X007902Y008536D03*
X007902Y008223D03*
X007518Y008656D03*
X007517Y008656D03*
D693*
X007520Y008654D03*
X007901Y008223D03*
X007520Y008104D03*
D694*
X007901Y008536D03*
D695*
X007901Y008223D03*
D696*
X007901Y008535D03*
X007521Y008654D03*
X007521Y008104D03*
D697*
X007521Y008104D03*
X007899Y008224D03*
X007900Y008224D03*
X007900Y008535D03*
X007521Y008654D03*
D698*
X007523Y008653D03*
X007898Y008535D03*
X007899Y008535D03*
X007523Y008105D03*
D699*
X007524Y008105D03*
X007899Y008224D03*
X007524Y008653D03*
D700*
X007899Y008535D03*
D701*
X007898Y008224D03*
X007523Y008105D03*
X007523Y008653D03*
D702*
X007524Y008652D03*
X007834Y008379D03*
X007898Y008224D03*
X007524Y008106D03*
D703*
X007898Y008534D03*
D704*
X007897Y008224D03*
D705*
X007897Y008534D03*
D706*
X007896Y008534D03*
X007896Y008225D03*
X007527Y008107D03*
X007527Y008651D03*
D707*
X007896Y008225D03*
D708*
X007896Y008534D03*
D709*
X007895Y008225D03*
X007528Y008107D03*
X007528Y008651D03*
D710*
X007895Y008534D03*
D711*
X007895Y008534D03*
X007895Y008225D03*
X007894Y008225D03*
D712*
X007894Y008533D03*
D713*
X007893Y008533D03*
X007893Y008225D03*
D714*
X007893Y008225D03*
D715*
X007893Y008534D03*
X007532Y008649D03*
X007532Y008109D03*
D716*
X007533Y008110D03*
X007892Y008225D03*
X007533Y008649D03*
D717*
X007892Y008533D03*
X007835Y008379D03*
D718*
X007892Y008226D03*
X007533Y008110D03*
X007533Y008648D03*
D719*
X007892Y008533D03*
D720*
X007891Y008533D03*
X007891Y008226D03*
X007536Y008111D03*
X007536Y008111D03*
X007536Y008647D03*
X007536Y008647D03*
D721*
X007890Y008226D03*
D722*
X007890Y008533D03*
D723*
X007890Y008532D03*
X007890Y008226D03*
X007537Y008112D03*
X007537Y008646D03*
D724*
X007889Y008532D03*
X007889Y008226D03*
X007889Y008226D03*
D725*
X007889Y008532D03*
X007539Y008645D03*
X007539Y008113D03*
D726*
X007888Y008227D03*
D727*
X007888Y008532D03*
X007541Y008644D03*
X007541Y008114D03*
D728*
X007541Y008113D03*
X007887Y008227D03*
X007541Y008645D03*
D729*
X007887Y008532D03*
D730*
X007887Y008227D03*
X007544Y008115D03*
X007544Y008643D03*
D731*
X007887Y008532D03*
D732*
X007886Y008227D03*
D733*
X007886Y008532D03*
D734*
X007886Y008379D03*
X007885Y008379D03*
D735*
X007884Y008379D03*
X007883Y008379D03*
X007883Y008379D03*
D736*
X007884Y008379D03*
D737*
X007882Y008379D03*
D738*
X007881Y008379D03*
D739*
X007881Y008379D03*
D740*
X007880Y008379D03*
X007878Y008379D03*
D741*
X007878Y008379D03*
X007877Y008379D03*
X007879Y008379D03*
X007880Y008379D03*
D742*
X007877Y008379D03*
D743*
X007876Y008379D03*
D744*
X007875Y008379D03*
D745*
X007875Y008379D03*
D746*
X007874Y008379D03*
D747*
X007874Y008379D03*
D748*
X007873Y008379D03*
D749*
X007872Y008379D03*
D750*
X007872Y008379D03*
D751*
X007871Y008379D03*
D752*
X007871Y008379D03*
D753*
X007870Y008379D03*
D754*
X007869Y008379D03*
D755*
X007869Y008379D03*
D756*
X007868Y008379D03*
D757*
X007868Y008379D03*
D758*
X007867Y008379D03*
D759*
X007866Y008379D03*
D760*
X007866Y008379D03*
D761*
X007865Y008379D03*
D762*
X007865Y008379D03*
D763*
X007864Y008379D03*
D764*
X007863Y008379D03*
D765*
X007863Y008379D03*
D766*
X007862Y008379D03*
D767*
X007862Y008379D03*
D768*
X007861Y008379D03*
D769*
X007860Y008379D03*
D770*
X007860Y008379D03*
D771*
X007859Y008379D03*
D772*
X007859Y008379D03*
D773*
X007858Y008379D03*
D774*
X007857Y008379D03*
D775*
X007857Y008379D03*
D776*
X007856Y008379D03*
D777*
X007856Y008379D03*
D778*
X007855Y008379D03*
D779*
X007854Y008379D03*
D780*
X007854Y008379D03*
D781*
X007853Y008379D03*
D782*
X007853Y008379D03*
D783*
X007852Y008379D03*
D784*
X007851Y008379D03*
D785*
X007851Y008379D03*
D786*
X007850Y008379D03*
D787*
X007850Y008379D03*
D788*
X007849Y008379D03*
D789*
X007848Y008379D03*
D790*
X007848Y008379D03*
D791*
X007847Y008379D03*
X007682Y008180D03*
X007682Y008578D03*
D792*
X007847Y008379D03*
D793*
X007846Y008379D03*
X007666Y008173D03*
X007666Y008585D03*
D794*
X007661Y008588D03*
X007845Y008379D03*
X007661Y008171D03*
D795*
X007652Y008166D03*
X007845Y008379D03*
X007652Y008592D03*
D796*
X007646Y008594D03*
X007844Y008379D03*
X007646Y008164D03*
D797*
X007844Y008379D03*
D798*
X007843Y008379D03*
X007633Y008157D03*
X007633Y008601D03*
D799*
X007623Y008606D03*
X007842Y008379D03*
X007623Y008153D03*
D800*
X007619Y008151D03*
X007619Y008151D03*
X007842Y008379D03*
X007619Y008607D03*
X007619Y008607D03*
D801*
X007841Y008379D03*
D802*
X007841Y008379D03*
D803*
X007840Y008379D03*
X007598Y008141D03*
X007598Y008141D03*
X007598Y008617D03*
X007598Y008618D03*
D804*
X007587Y008622D03*
X007839Y008379D03*
X007587Y008136D03*
D805*
X007582Y008133D03*
X007839Y008379D03*
X007582Y008625D03*
D806*
X007578Y008627D03*
X007577Y008627D03*
X007838Y008379D03*
X007578Y008131D03*
X007577Y008131D03*
D807*
X007838Y008379D03*
X007572Y008630D03*
D808*
X007837Y008379D03*
D809*
X007836Y008379D03*
X007554Y008120D03*
X007554Y008638D03*
D810*
X007545Y008643D03*
X007836Y008379D03*
X007545Y008115D03*
D811*
X007835Y008379D03*
D812*
X007833Y008379D03*
X007518Y008103D03*
D813*
X007831Y008379D03*
D814*
X007830Y008379D03*
D815*
X007828Y008379D03*
D816*
X007827Y008379D03*
X007452Y008071D03*
X007452Y008687D03*
D817*
X007827Y008379D03*
D818*
X007826Y008379D03*
D819*
X007826Y008379D03*
X007816Y008121D03*
X007816Y008637D03*
D820*
X007825Y008379D03*
D821*
X007824Y008379D03*
D822*
X007824Y008379D03*
D823*
X007822Y008379D03*
D824*
X007821Y008379D03*
X007729Y008093D03*
X007765Y008660D03*
X007766Y008660D03*
X007385Y008720D03*
X007384Y008720D03*
D825*
X007775Y008662D03*
X007821Y008379D03*
X007764Y008094D03*
D826*
X007820Y008379D03*
D827*
X007819Y008020D03*
D828*
X007818Y008042D03*
X007818Y008716D03*
D829*
X007818Y008379D03*
X007348Y008021D03*
X007348Y008737D03*
D830*
X007818Y008707D03*
X007818Y008051D03*
D831*
X007817Y008095D03*
X007350Y008022D03*
X007350Y008736D03*
D832*
X007817Y008379D03*
X007327Y008011D03*
D833*
X007817Y008663D03*
D834*
X007816Y008379D03*
X007326Y008011D03*
X007326Y008011D03*
D835*
X007811Y008379D03*
X007812Y008379D03*
X007812Y008379D03*
X007814Y008379D03*
X007814Y008379D03*
X007815Y008379D03*
D836*
X007815Y008379D03*
X007813Y008379D03*
X007811Y008379D03*
D837*
X007810Y008379D03*
X007809Y008379D03*
X007808Y008379D03*
X007808Y008379D03*
D838*
X007809Y008379D03*
D839*
X007807Y008379D03*
X007805Y008379D03*
D840*
X007805Y008379D03*
X007806Y008379D03*
X007806Y008379D03*
D841*
X007804Y008379D03*
X007803Y008379D03*
X007802Y008379D03*
X007801Y008379D03*
X007800Y008379D03*
X007799Y008379D03*
X007799Y008379D03*
D842*
X007800Y008379D03*
X007802Y008379D03*
X007803Y008379D03*
D843*
X007798Y008379D03*
X007796Y008379D03*
D844*
X007796Y008379D03*
X007797Y008379D03*
X007797Y008379D03*
D845*
X007795Y008379D03*
X007794Y008379D03*
X007793Y008379D03*
X007793Y008379D03*
D846*
X007794Y008379D03*
X007792Y008379D03*
D847*
X007791Y008379D03*
X007791Y008379D03*
X007790Y008379D03*
X007789Y008379D03*
X007788Y008379D03*
X007787Y008379D03*
D848*
X007787Y008379D03*
X007788Y008379D03*
X007790Y008379D03*
D849*
X007786Y008379D03*
X007785Y008379D03*
X007784Y008379D03*
X007784Y008379D03*
D850*
X007785Y008379D03*
D851*
X007783Y008379D03*
X007781Y008379D03*
D852*
X007782Y008379D03*
X007782Y008379D03*
D853*
X007781Y008323D03*
X007780Y008323D03*
X007736Y008288D03*
D854*
X007737Y008269D03*
X007734Y008213D03*
X007757Y008213D03*
X007736Y008359D03*
X007735Y008359D03*
X007754Y008414D03*
X007781Y008397D03*
D855*
X007781Y008427D03*
X007734Y008449D03*
X007767Y008360D03*
X007716Y008337D03*
D856*
X007727Y008385D03*
X007739Y008240D03*
X007752Y008240D03*
X007781Y008542D03*
D857*
X007780Y008252D03*
D858*
X007758Y008213D03*
X007733Y008213D03*
X007735Y008288D03*
X007778Y008324D03*
X007778Y008324D03*
X007737Y008359D03*
X007735Y008414D03*
X007778Y008396D03*
X007780Y008462D03*
X007752Y008531D03*
D859*
X007779Y008089D03*
D860*
X007779Y008251D03*
X007739Y008270D03*
X007778Y008396D03*
X007755Y008414D03*
X007734Y008414D03*
X007779Y008462D03*
X007086Y008853D03*
X007086Y008853D03*
X007086Y007905D03*
X007086Y007905D03*
D861*
X007779Y008090D03*
D862*
X007779Y008213D03*
X007777Y008360D03*
D863*
X007777Y008396D03*
X007779Y008251D03*
D864*
X007779Y008288D03*
X007777Y008288D03*
X007775Y008288D03*
X007773Y008288D03*
X007772Y008288D03*
X007770Y008288D03*
X007768Y008288D03*
X007766Y008288D03*
X007764Y008288D03*
X007762Y008288D03*
X007760Y008288D03*
X007758Y008288D03*
X007757Y008288D03*
X007755Y008288D03*
X007745Y008444D03*
X007142Y008831D03*
X007142Y007928D03*
D865*
X007085Y007905D03*
X007736Y008359D03*
X007779Y008323D03*
X007085Y008854D03*
D866*
X007143Y008830D03*
X007779Y008360D03*
X007143Y007929D03*
D867*
X007732Y008450D03*
X007757Y008450D03*
X007779Y008426D03*
D868*
X007775Y008396D03*
X007734Y008415D03*
X007738Y008359D03*
X007775Y008324D03*
X007740Y008270D03*
X007779Y008462D03*
X007087Y008853D03*
X007087Y007905D03*
D869*
X007732Y008213D03*
X007777Y008250D03*
X007740Y008359D03*
X007773Y008395D03*
X007773Y008511D03*
X007775Y008511D03*
X007777Y008511D03*
X007779Y008511D03*
X007753Y008532D03*
D870*
X007779Y008663D03*
X007768Y008093D03*
D871*
X007778Y008090D03*
X007350Y008022D03*
X007350Y008736D03*
D872*
X007088Y008852D03*
X007713Y008251D03*
X007739Y008270D03*
X007734Y008288D03*
X007775Y008324D03*
X007776Y008396D03*
X007776Y008396D03*
X007756Y008415D03*
X007752Y008531D03*
X007778Y008251D03*
X007088Y007906D03*
D873*
X007721Y008213D03*
X007737Y008241D03*
X007754Y008241D03*
X007770Y008213D03*
X007761Y008359D03*
X007731Y008386D03*
X007731Y008386D03*
X007778Y008541D03*
D874*
X007748Y008446D03*
X007778Y008213D03*
X007137Y007926D03*
X007137Y008832D03*
D875*
X007739Y008359D03*
X007739Y008359D03*
X007778Y008251D03*
D876*
X007778Y008360D03*
X007746Y008444D03*
X007744Y008444D03*
X007141Y008831D03*
X007141Y007927D03*
D877*
X007122Y007919D03*
X007725Y008384D03*
X007726Y008384D03*
X007778Y008426D03*
X007731Y008450D03*
X007739Y008240D03*
X007752Y008240D03*
X007122Y008839D03*
D878*
X007777Y008090D03*
D879*
X007777Y008213D03*
X007740Y008446D03*
D880*
X007730Y008451D03*
X007777Y008426D03*
X007721Y008288D03*
X007772Y008213D03*
X007121Y007919D03*
X007121Y008839D03*
D881*
X007091Y008851D03*
X007777Y008460D03*
X007758Y008416D03*
X007770Y008394D03*
X007770Y008325D03*
X007775Y008250D03*
X007091Y007907D03*
D882*
X007721Y008213D03*
X007736Y008241D03*
X007755Y008241D03*
X007732Y008386D03*
X007760Y008452D03*
X007777Y008541D03*
D883*
X007777Y008663D03*
X007370Y008726D03*
X007370Y008032D03*
D884*
X007355Y008024D03*
X007776Y008090D03*
X007355Y008734D03*
D885*
X007776Y008360D03*
D886*
X007742Y008359D03*
X007767Y008326D03*
X007743Y008304D03*
X007776Y008460D03*
X007092Y008851D03*
X007092Y008851D03*
X007092Y007908D03*
X007092Y007908D03*
D887*
X007727Y008452D03*
X007761Y008452D03*
X007774Y008424D03*
X007734Y008386D03*
X007733Y008386D03*
X007731Y008333D03*
X007731Y008333D03*
X007735Y008242D03*
X007756Y008242D03*
X007776Y008540D03*
D888*
X007771Y008360D03*
X007716Y008288D03*
X007776Y008213D03*
X007133Y007924D03*
X007133Y008834D03*
D889*
X007775Y008091D03*
D890*
X007775Y008360D03*
X007138Y007926D03*
X007138Y008832D03*
D891*
X007775Y008425D03*
D892*
X007773Y008424D03*
X007775Y008540D03*
X007757Y008242D03*
D893*
X007764Y008094D03*
X007775Y008662D03*
D894*
X007775Y008213D03*
X007716Y008213D03*
D895*
X007716Y008249D03*
X007733Y008287D03*
X007775Y008249D03*
X007769Y008394D03*
X007769Y008394D03*
X007759Y008416D03*
X007751Y008510D03*
X007750Y008510D03*
X007749Y008510D03*
X007748Y008510D03*
X007748Y008510D03*
X007746Y008510D03*
X007746Y008510D03*
X007745Y008510D03*
X007744Y008510D03*
X007743Y008510D03*
X007742Y008510D03*
D896*
X007741Y008496D03*
X007740Y008496D03*
X007739Y008496D03*
X007739Y008496D03*
X007737Y008496D03*
X007737Y008496D03*
X007736Y008496D03*
X007735Y008496D03*
X007734Y008496D03*
X007733Y008496D03*
X007733Y008496D03*
X007731Y008496D03*
X007731Y008496D03*
X007730Y008496D03*
X007729Y008496D03*
X007728Y008496D03*
X007727Y008496D03*
X007726Y008496D03*
X007725Y008496D03*
X007724Y008496D03*
X007724Y008496D03*
X007722Y008496D03*
X007722Y008496D03*
X007752Y008496D03*
X007752Y008496D03*
X007754Y008496D03*
X007754Y008496D03*
X007755Y008496D03*
X007756Y008496D03*
X007757Y008496D03*
X007758Y008496D03*
X007759Y008496D03*
X007760Y008496D03*
X007761Y008496D03*
X007761Y008496D03*
X007763Y008496D03*
X007763Y008496D03*
X007764Y008496D03*
X007765Y008496D03*
X007766Y008496D03*
X007767Y008496D03*
X007767Y008496D03*
X007769Y008496D03*
X007769Y008496D03*
X007770Y008496D03*
X007771Y008496D03*
X007741Y008446D03*
X007774Y008360D03*
X007775Y008360D03*
D897*
X007763Y008327D03*
X007731Y008288D03*
X007746Y008273D03*
X007775Y008459D03*
D898*
X007774Y008091D03*
X007358Y008026D03*
X007358Y008733D03*
D899*
X007714Y008337D03*
X007715Y008337D03*
X007774Y008213D03*
D900*
X007773Y008213D03*
X007749Y008239D03*
X007717Y008336D03*
X007734Y008449D03*
D901*
X007713Y008459D03*
X007773Y008459D03*
X007762Y008418D03*
X007762Y008393D03*
X007745Y008359D03*
X007760Y008327D03*
X007747Y008302D03*
X007747Y008273D03*
X007762Y008213D03*
X007097Y007910D03*
X007097Y008849D03*
D902*
X007358Y008732D03*
X007358Y008026D03*
X007773Y008092D03*
D903*
X007761Y008213D03*
X007730Y008213D03*
X007718Y008249D03*
X007772Y008249D03*
X007773Y008249D03*
X007765Y008393D03*
X007764Y008393D03*
X007761Y008417D03*
X007756Y008534D03*
X007740Y008534D03*
D904*
X007739Y008447D03*
X007750Y008447D03*
X007772Y008360D03*
X007773Y008360D03*
X007716Y008288D03*
X007134Y007925D03*
D905*
X007098Y007910D03*
X007714Y008458D03*
X007773Y008458D03*
X007763Y008418D03*
X007746Y008359D03*
X007746Y008359D03*
X007759Y008328D03*
X007760Y008328D03*
X007748Y008302D03*
X007748Y008274D03*
X007098Y008848D03*
D906*
X007724Y008454D03*
X007716Y008423D03*
X007739Y008388D03*
X007739Y008388D03*
X007763Y008454D03*
X007773Y008539D03*
X007759Y008243D03*
X007733Y008243D03*
D907*
X007748Y008274D03*
X007759Y008392D03*
X007760Y008392D03*
X007763Y008418D03*
X007726Y008418D03*
X007715Y008458D03*
X007772Y008458D03*
X007759Y008535D03*
X007739Y008535D03*
X007099Y008848D03*
X007099Y007910D03*
D908*
X007377Y008035D03*
X007722Y008089D03*
X007772Y008661D03*
X007377Y008723D03*
D909*
X007772Y008092D03*
D910*
X007772Y008248D03*
X007762Y008327D03*
X007764Y008393D03*
X007757Y008534D03*
X007740Y008534D03*
D911*
X007772Y008325D03*
X007734Y008288D03*
D912*
X007717Y008288D03*
X007715Y008213D03*
X007772Y008360D03*
X007751Y008447D03*
X007738Y008447D03*
D913*
X007732Y008416D03*
X007772Y008395D03*
X007742Y008271D03*
X007715Y008250D03*
X007715Y008511D03*
X007713Y008511D03*
X007717Y008511D03*
X007719Y008511D03*
X007721Y008511D03*
D914*
X007738Y008535D03*
X007715Y008458D03*
X007772Y008458D03*
X007764Y008419D03*
X007758Y008392D03*
X007747Y008359D03*
X007757Y008328D03*
X007749Y008301D03*
D915*
X007713Y008213D03*
X007749Y008446D03*
X007751Y008496D03*
X007753Y008496D03*
X007755Y008496D03*
X007757Y008496D03*
X007758Y008496D03*
X007760Y008496D03*
X007762Y008496D03*
X007764Y008496D03*
X007766Y008496D03*
X007768Y008496D03*
X007770Y008496D03*
X007772Y008496D03*
X007742Y008496D03*
X007740Y008496D03*
X007738Y008496D03*
X007736Y008496D03*
X007734Y008496D03*
X007732Y008496D03*
X007730Y008496D03*
X007728Y008496D03*
X007727Y008496D03*
X007725Y008496D03*
X007723Y008496D03*
D916*
X007772Y008661D03*
X007378Y008723D03*
X007378Y008036D03*
D917*
X007101Y007911D03*
X007724Y008419D03*
X007716Y008457D03*
X007771Y008457D03*
X007764Y008419D03*
X007755Y008328D03*
X007750Y008301D03*
X007730Y008288D03*
X007729Y008288D03*
X007750Y008274D03*
X007101Y008847D03*
D918*
X007770Y008092D03*
D919*
X007770Y008248D03*
X007721Y008248D03*
X007761Y008392D03*
X007761Y008392D03*
X007739Y008534D03*
X007724Y008534D03*
D920*
X007770Y008538D03*
X007765Y008454D03*
X007770Y008422D03*
X007743Y008388D03*
X007718Y008422D03*
X007722Y008454D03*
X007725Y008288D03*
X007761Y008244D03*
D921*
X007770Y008661D03*
X007379Y008722D03*
X007379Y008036D03*
D922*
X007770Y008213D03*
D923*
X007770Y008247D03*
X007749Y008274D03*
X007730Y008288D03*
X007721Y008247D03*
X007725Y008535D03*
D924*
X007719Y008422D03*
X007745Y008389D03*
X007770Y008422D03*
X007742Y008331D03*
X007110Y007915D03*
X007110Y008844D03*
D925*
X007717Y008457D03*
X007723Y008420D03*
X007770Y008457D03*
X007762Y008536D03*
X007734Y008536D03*
X007728Y008536D03*
X007751Y008300D03*
X007751Y008275D03*
X007728Y008288D03*
X007727Y008213D03*
D926*
X007730Y008244D03*
X007743Y008388D03*
X007770Y008538D03*
D927*
X007769Y008359D03*
X007746Y008238D03*
X007130Y007923D03*
X007130Y008836D03*
D928*
X007769Y008660D03*
X007760Y008096D03*
D929*
X007769Y008093D03*
X007365Y008729D03*
D930*
X007107Y008845D03*
X007721Y008455D03*
X007720Y008421D03*
X007748Y008389D03*
X007769Y008421D03*
X007767Y008455D03*
X007767Y008538D03*
X007767Y008538D03*
X007763Y008245D03*
X007728Y008245D03*
X007107Y007914D03*
D931*
X007380Y008037D03*
X007381Y008037D03*
X007726Y008091D03*
X007759Y008096D03*
X007769Y008660D03*
X007381Y008721D03*
X007380Y008721D03*
D932*
X007723Y008213D03*
X007768Y008213D03*
D933*
X007768Y008247D03*
X007723Y008247D03*
X007757Y008391D03*
X007760Y008535D03*
D934*
X007742Y008359D03*
X007768Y008326D03*
X007743Y008304D03*
X007743Y008272D03*
X007760Y008213D03*
D935*
X007717Y008213D03*
X007713Y008337D03*
X007768Y008359D03*
D936*
X007747Y008330D03*
X007749Y008390D03*
X007768Y008421D03*
X007766Y008537D03*
D937*
X007768Y008456D03*
X007719Y008456D03*
X007721Y008420D03*
X007727Y008245D03*
D938*
X007728Y008244D03*
X007725Y008213D03*
X007766Y008213D03*
X007727Y008288D03*
X007743Y008331D03*
X007721Y008455D03*
X007766Y008455D03*
X007768Y008538D03*
X007108Y008844D03*
X007108Y007914D03*
D939*
X007768Y008660D03*
D940*
X007767Y008093D03*
D941*
X007727Y008288D03*
X007746Y008330D03*
X007746Y008330D03*
X007748Y008390D03*
X007721Y008421D03*
X007720Y008456D03*
X007719Y008456D03*
X007767Y008456D03*
X007766Y008537D03*
D942*
X007735Y008536D03*
X007734Y008536D03*
X007729Y008536D03*
X007728Y008536D03*
X007766Y008420D03*
X007754Y008391D03*
X007754Y008391D03*
X007749Y008360D03*
X007752Y008329D03*
X007752Y008329D03*
X007767Y008246D03*
X007764Y008213D03*
X007724Y008246D03*
X007103Y007912D03*
X007103Y007912D03*
X007103Y008846D03*
X007103Y008846D03*
D943*
X007766Y008094D03*
X007715Y008086D03*
D944*
X007751Y008329D03*
X007766Y008420D03*
X007732Y008536D03*
X007730Y008536D03*
D945*
X007766Y008660D03*
X007383Y008720D03*
X007757Y008097D03*
X007383Y008038D03*
D946*
X007716Y008086D03*
X007766Y008094D03*
D947*
X007766Y008213D03*
X007725Y008213D03*
X007727Y008245D03*
X007106Y007913D03*
X007106Y008845D03*
D948*
X007726Y008213D03*
X007765Y008213D03*
X007750Y008330D03*
X007749Y008330D03*
D949*
X007764Y008245D03*
X007106Y007913D03*
X007106Y008845D03*
D950*
X007763Y008659D03*
D951*
X007758Y008328D03*
X007757Y008328D03*
X007748Y008301D03*
X007763Y008213D03*
D952*
X007733Y008095D03*
X007388Y008040D03*
X007388Y008040D03*
X007763Y008659D03*
X007388Y008718D03*
X007388Y008718D03*
D953*
X007376Y008724D03*
X007762Y008095D03*
X007376Y008035D03*
D954*
X007762Y008244D03*
D955*
X007734Y008242D03*
X007734Y008333D03*
X007736Y008387D03*
X007762Y008453D03*
D956*
X007762Y008659D03*
X007734Y008095D03*
D957*
X007761Y008096D03*
D958*
X007761Y008244D03*
X007730Y008244D03*
D959*
X007731Y008213D03*
X007761Y008213D03*
X007744Y008303D03*
D960*
X007757Y008391D03*
X007728Y008213D03*
X007726Y008535D03*
X007737Y008535D03*
X007737Y008535D03*
X007761Y008535D03*
D961*
X007761Y008658D03*
X007390Y008717D03*
X007389Y008717D03*
X007736Y008096D03*
X007735Y008096D03*
X007390Y008041D03*
X007389Y008041D03*
D962*
X007723Y008090D03*
X007760Y008096D03*
D963*
X007760Y008392D03*
X007758Y008534D03*
D964*
X007760Y008658D03*
D965*
X007760Y008658D03*
X007391Y008717D03*
X007391Y008042D03*
D966*
X007392Y008043D03*
X007737Y008097D03*
X007751Y008100D03*
X007759Y008658D03*
X007392Y008716D03*
D967*
X007758Y008213D03*
D968*
X007728Y008213D03*
X007758Y008328D03*
D969*
X007725Y008335D03*
X007728Y008385D03*
X007758Y008451D03*
X007753Y008240D03*
X007738Y008240D03*
D970*
X007393Y008043D03*
X007758Y008658D03*
X007393Y008715D03*
D971*
X007758Y008097D03*
D972*
X007739Y008097D03*
X007394Y008043D03*
X007758Y008658D03*
X007394Y008715D03*
D973*
X007757Y008213D03*
D974*
X007756Y008097D03*
D975*
X007756Y008213D03*
X007735Y008213D03*
X007735Y008307D03*
D976*
X007756Y008658D03*
X007733Y008661D03*
X007731Y008661D03*
X007731Y008661D03*
X007396Y008714D03*
X007396Y008044D03*
D977*
X007736Y008213D03*
X007755Y008213D03*
X007737Y008288D03*
X007733Y008307D03*
X007733Y008359D03*
X007739Y008412D03*
X007752Y008412D03*
X007722Y008529D03*
D978*
X007739Y008660D03*
X007739Y008660D03*
X007730Y008661D03*
X007728Y008661D03*
X007727Y008661D03*
X007755Y008657D03*
X007398Y008714D03*
X007397Y008714D03*
X007741Y008099D03*
X007742Y008099D03*
X007748Y008100D03*
X007398Y008045D03*
X007397Y008045D03*
D979*
X007078Y007902D03*
X007736Y008213D03*
X007755Y008213D03*
X007732Y008267D03*
X007738Y008288D03*
X007078Y008856D03*
D980*
X007100Y008847D03*
X007725Y008419D03*
X007755Y008328D03*
X007100Y007911D03*
D981*
X007719Y008288D03*
X007715Y008337D03*
X007755Y008449D03*
D982*
X007730Y008416D03*
X007743Y008510D03*
X007745Y008510D03*
X007747Y008510D03*
X007749Y008510D03*
X007755Y008533D03*
D983*
X007754Y008657D03*
X007754Y008657D03*
X007742Y008658D03*
D984*
X007743Y008411D03*
X007748Y008411D03*
X007728Y008359D03*
X007729Y008309D03*
X007729Y008266D03*
X007754Y008213D03*
D985*
X007754Y008299D03*
X007752Y008359D03*
D986*
X007749Y008330D03*
X007753Y008300D03*
D987*
X007734Y008359D03*
X007753Y008413D03*
D988*
X007753Y008448D03*
X007736Y008448D03*
X007715Y008382D03*
D989*
X007753Y008657D03*
X007743Y008658D03*
X007723Y008661D03*
X007402Y008711D03*
X007402Y008047D03*
D990*
X007752Y008098D03*
D991*
X007752Y008656D03*
D992*
X007751Y008240D03*
X007740Y008240D03*
D993*
X007751Y008359D03*
D994*
X007732Y008359D03*
X007740Y008412D03*
X007751Y008412D03*
X007751Y008529D03*
D995*
X007751Y008655D03*
X007746Y008656D03*
X007721Y008660D03*
X007404Y008710D03*
X007404Y008049D03*
D996*
X007406Y008049D03*
X007719Y008660D03*
X007750Y008655D03*
X007406Y008709D03*
D997*
X007076Y008857D03*
X007749Y008411D03*
X007730Y008266D03*
X007076Y007901D03*
D998*
X007749Y008654D03*
D999*
X007719Y008383D03*
X007718Y008383D03*
X007743Y008238D03*
X007748Y008238D03*
X007748Y008238D03*
D1000*
X007747Y008100D03*
X007725Y008661D03*
D1001*
X007747Y008445D03*
X007140Y008831D03*
X007140Y007927D03*
D1002*
X007719Y008660D03*
X007747Y008655D03*
D1003*
X007401Y008712D03*
X007745Y008101D03*
X007746Y008101D03*
X007746Y008101D03*
X007401Y008046D03*
D1004*
X007095Y007909D03*
X007746Y008302D03*
X007746Y008302D03*
X007095Y008849D03*
D1005*
X007746Y008656D03*
D1006*
X007400Y008712D03*
X007745Y008101D03*
X007400Y008046D03*
D1007*
X007745Y008238D03*
D1008*
X007745Y008657D03*
X007721Y008660D03*
D1009*
X007745Y008330D03*
D1010*
X007743Y008100D03*
D1011*
X007743Y008238D03*
X007719Y008383D03*
X007127Y008837D03*
X007127Y007922D03*
D1012*
X007713Y008288D03*
X007743Y008445D03*
D1013*
X007742Y008411D03*
X007730Y008266D03*
D1014*
X007742Y008099D03*
X007397Y008044D03*
X007730Y008661D03*
X007732Y008661D03*
X007397Y008714D03*
D1015*
X007742Y008304D03*
D1016*
X007730Y008309D03*
X007730Y008359D03*
X007742Y008411D03*
D1017*
X007738Y008413D03*
X007742Y008529D03*
X007082Y008855D03*
X007082Y007903D03*
D1018*
X007724Y008213D03*
X007740Y008331D03*
X007741Y008331D03*
D1019*
X007728Y008359D03*
X007740Y008288D03*
X007738Y008213D03*
X006939Y007943D03*
D1020*
X007113Y007916D03*
X007715Y008423D03*
X007725Y008453D03*
X007738Y008387D03*
D1021*
X007738Y008660D03*
X007734Y008660D03*
D1022*
X007737Y008332D03*
X007113Y007916D03*
X007113Y008842D03*
D1023*
X007737Y008413D03*
X007736Y008306D03*
X007736Y008269D03*
D1024*
X007736Y008096D03*
D1025*
X007736Y008332D03*
D1026*
X007734Y008307D03*
X007733Y008359D03*
D1027*
X007734Y008359D03*
X007083Y007904D03*
X007083Y008854D03*
D1028*
X007734Y008307D03*
D1029*
X007732Y008308D03*
D1030*
X007732Y008333D03*
X007727Y008453D03*
X007115Y008841D03*
X007115Y007917D03*
D1031*
X007730Y008213D03*
X007093Y008850D03*
D1032*
X007730Y008093D03*
X007385Y008039D03*
X007384Y008039D03*
D1033*
X007075Y007900D03*
X007730Y008309D03*
X007729Y008359D03*
X007075Y008858D03*
D1034*
X007728Y008093D03*
D1035*
X007728Y008334D03*
X007728Y008452D03*
X007119Y008840D03*
X007119Y007918D03*
D1036*
X007719Y008249D03*
X007728Y008417D03*
D1037*
X007728Y008661D03*
D1038*
X007727Y008092D03*
X007728Y008092D03*
D1039*
X007727Y008385D03*
D1040*
X007725Y008384D03*
X007721Y008336D03*
X007719Y008213D03*
X007123Y007920D03*
X007123Y008838D03*
D1041*
X007125Y008838D03*
X007723Y008384D03*
X007125Y007921D03*
D1042*
X007377Y008035D03*
X007722Y008090D03*
X007377Y008723D03*
D1043*
X007722Y008335D03*
X007722Y008335D03*
D1044*
X007720Y008660D03*
D1045*
X007719Y008088D03*
D1046*
X007718Y008088D03*
D1047*
X007718Y008336D03*
X007718Y008336D03*
D1048*
X007718Y008659D03*
D1049*
X007718Y008659D03*
X007409Y008708D03*
X007409Y008050D03*
D1050*
X007372Y008033D03*
X007717Y008087D03*
X007372Y008726D03*
D1051*
X007717Y008659D03*
D1052*
X007715Y008288D03*
X007136Y007925D03*
X007136Y008833D03*
D1053*
X007415Y008705D03*
X007715Y008658D03*
X007415Y008053D03*
D1054*
X007715Y008213D03*
X007134Y008834D03*
D1055*
X007131Y008835D03*
X007715Y008382D03*
X007131Y007923D03*
D1056*
X007715Y008657D03*
D1057*
X007714Y008656D03*
D1058*
X007713Y008251D03*
D1059*
X007423Y008057D03*
X007713Y008655D03*
D1060*
X007713Y008654D03*
X007427Y008699D03*
X007427Y008059D03*
D1061*
X007641Y008162D03*
X007643Y008162D03*
X007712Y008172D03*
X007643Y008596D03*
X007641Y008597D03*
D1062*
X007712Y008566D03*
D1063*
X007712Y008379D03*
D1064*
X007711Y008379D03*
D1065*
X007710Y008379D03*
X007709Y008379D03*
X007709Y008379D03*
X007707Y008379D03*
X007707Y008379D03*
D1066*
X007706Y008379D03*
X007708Y008379D03*
X007710Y008379D03*
D1067*
X007706Y008379D03*
X007705Y008379D03*
X007704Y008379D03*
X007703Y008379D03*
X007703Y008379D03*
X007701Y008379D03*
X007700Y008379D03*
D1068*
X007700Y008379D03*
X007704Y008379D03*
D1069*
X007702Y008379D03*
X007698Y008379D03*
X007697Y008379D03*
D1070*
X007697Y008379D03*
X007698Y008379D03*
X007699Y008379D03*
X007701Y008379D03*
D1071*
X007696Y008379D03*
X007695Y008379D03*
X007694Y008379D03*
X007694Y008379D03*
D1072*
X007695Y008379D03*
D1073*
X007693Y008379D03*
X007691Y008379D03*
D1074*
X007691Y008379D03*
X007692Y008379D03*
X007692Y008379D03*
D1075*
X007690Y008379D03*
X007689Y008379D03*
X007688Y008379D03*
X007688Y008379D03*
D1076*
X007689Y008379D03*
D1077*
X007687Y008379D03*
X007685Y008379D03*
D1078*
X007686Y008379D03*
X007686Y008379D03*
D1079*
X007685Y008182D03*
X007685Y008576D03*
D1080*
X007684Y008576D03*
X007684Y008182D03*
D1081*
X007683Y008181D03*
X007683Y008577D03*
D1082*
X007683Y008577D03*
X007683Y008181D03*
D1083*
X007682Y008180D03*
X007682Y008578D03*
D1084*
X007681Y008578D03*
X007681Y008180D03*
D1085*
X007680Y008180D03*
X007680Y008578D03*
D1086*
X007680Y008579D03*
X007680Y008180D03*
D1087*
X007679Y008180D03*
X007679Y008179D03*
X007679Y008579D03*
X007679Y008579D03*
D1088*
X007678Y008579D03*
X007678Y008179D03*
D1089*
X007677Y008178D03*
X007677Y008580D03*
D1090*
X007677Y008580D03*
X007677Y008178D03*
D1091*
X007676Y008178D03*
X007676Y008580D03*
D1092*
X007676Y008581D03*
X007676Y008178D03*
D1093*
X007675Y008177D03*
X007675Y008581D03*
D1094*
X007674Y008581D03*
X007674Y008177D03*
D1095*
X007674Y008177D03*
X007674Y008581D03*
D1096*
X007673Y008581D03*
X007673Y008177D03*
D1097*
X007673Y008177D03*
X007673Y008582D03*
D1098*
X007672Y008582D03*
X007672Y008176D03*
D1099*
X007671Y008176D03*
X007671Y008176D03*
X007671Y008583D03*
X007671Y008583D03*
D1100*
X007670Y008583D03*
X007670Y008175D03*
D1101*
X007670Y008175D03*
X007670Y008583D03*
D1102*
X007669Y008584D03*
X007669Y008175D03*
D1103*
X007668Y008175D03*
X007668Y008584D03*
D1104*
X007668Y008584D03*
X007668Y008174D03*
D1105*
X007667Y008174D03*
X007667Y008584D03*
D1106*
X007667Y008174D03*
D1107*
X007667Y008585D03*
D1108*
X007665Y008585D03*
X007665Y008173D03*
D1109*
X007665Y008173D03*
X007665Y008585D03*
D1110*
X007664Y008586D03*
X007664Y008172D03*
D1111*
X007664Y008172D03*
X007664Y008586D03*
D1112*
X007663Y008586D03*
X007663Y008172D03*
D1113*
X007662Y008171D03*
X007662Y008171D03*
X007662Y008587D03*
X007662Y008587D03*
D1114*
X007661Y008588D03*
X007661Y008171D03*
D1115*
X007660Y008170D03*
X007659Y008170D03*
X007659Y008588D03*
X007660Y008588D03*
D1116*
X007659Y008589D03*
X007659Y008169D03*
D1117*
X007658Y008169D03*
X007658Y008589D03*
D1118*
X007658Y008589D03*
X007658Y008169D03*
D1119*
X007657Y008169D03*
X007657Y008589D03*
D1120*
X007656Y008590D03*
X007656Y008169D03*
D1121*
X007656Y008168D03*
X007656Y008590D03*
D1122*
X007655Y008590D03*
X007655Y008168D03*
D1123*
X007655Y008168D03*
X007654Y008168D03*
X007654Y008591D03*
X007655Y008591D03*
D1124*
X007653Y008591D03*
X007653Y008167D03*
D1125*
X007653Y008167D03*
X007653Y008591D03*
D1126*
X007652Y008591D03*
X007651Y008592D03*
X007652Y008167D03*
X007651Y008166D03*
D1127*
X007650Y008165D03*
X007650Y008593D03*
D1128*
X007650Y008593D03*
X007650Y008165D03*
D1129*
X007649Y008165D03*
X007649Y008593D03*
D1130*
X007649Y008594D03*
X007649Y008165D03*
D1131*
X007648Y008164D03*
D1132*
X007648Y008594D03*
D1133*
X007647Y008594D03*
X007647Y008164D03*
D1134*
X007647Y008164D03*
X007647Y008594D03*
D1135*
X007646Y008594D03*
X007646Y008164D03*
D1136*
X007645Y008163D03*
X007644Y008163D03*
X007644Y008595D03*
X007645Y008595D03*
D1137*
X007644Y008595D03*
X007644Y008163D03*
D1138*
X007643Y008163D03*
X007643Y008596D03*
D1139*
X007642Y008597D03*
X007642Y008162D03*
D1140*
X007641Y008161D03*
X007641Y008597D03*
D1141*
X007640Y008597D03*
X007640Y008161D03*
D1142*
X007640Y008161D03*
X007639Y008160D03*
X007640Y008598D03*
X007639Y008598D03*
D1143*
X007638Y008598D03*
X007638Y008160D03*
D1144*
X007638Y008160D03*
X007638Y008598D03*
D1145*
X007637Y008599D03*
X007637Y008159D03*
D1146*
X007637Y008159D03*
X007637Y008599D03*
D1147*
X007636Y008599D03*
X007636Y008159D03*
D1148*
X007635Y008158D03*
X007635Y008600D03*
D1149*
X007635Y008600D03*
X007635Y008158D03*
D1150*
X007634Y008158D03*
X007634Y008600D03*
D1151*
X007634Y008600D03*
X007632Y008601D03*
X007634Y008158D03*
X007632Y008157D03*
D1152*
X007632Y008157D03*
X007632Y008601D03*
D1153*
X007631Y008602D03*
X007631Y008156D03*
D1154*
X007631Y008156D03*
X007631Y008602D03*
D1155*
X007630Y008602D03*
X007630Y008156D03*
D1156*
X007629Y008156D03*
X007629Y008603D03*
D1157*
X007629Y008155D03*
D1158*
X007629Y008603D03*
D1159*
X007628Y008603D03*
X007628Y008155D03*
D1160*
X007628Y008155D03*
X007628Y008604D03*
D1161*
X007627Y008604D03*
X007627Y008155D03*
D1162*
X007626Y008154D03*
X007626Y008604D03*
D1163*
X007626Y008604D03*
X007626Y008154D03*
D1164*
X007625Y008154D03*
X007625Y008604D03*
D1165*
X007625Y008605D03*
X007624Y008605D03*
X007624Y008153D03*
X007625Y008153D03*
D1166*
X007623Y008153D03*
X007623Y008605D03*
D1167*
X007622Y008606D03*
X007622Y008152D03*
D1168*
X007622Y008152D03*
X007622Y008606D03*
D1169*
X007621Y008606D03*
X007621Y008152D03*
D1170*
X007620Y008151D03*
X007620Y008607D03*
D1171*
X007620Y008607D03*
X007620Y008151D03*
D1172*
X007618Y008150D03*
X007618Y008608D03*
D1173*
X007617Y008608D03*
X007617Y008150D03*
D1174*
X007617Y008150D03*
X007617Y008608D03*
D1175*
X007616Y008608D03*
X007616Y008150D03*
D1176*
X007616Y008150D03*
X007615Y008149D03*
X007616Y008609D03*
X007615Y008609D03*
D1177*
X007614Y008609D03*
X007614Y008149D03*
D1178*
X007614Y008148D03*
X007614Y008610D03*
D1179*
X007613Y008610D03*
X007613Y008148D03*
D1180*
X007613Y008148D03*
X007613Y008610D03*
D1181*
X007612Y008148D03*
D1182*
X007612Y008611D03*
D1183*
X007611Y008147D03*
X007611Y008147D03*
D1184*
X007611Y008611D03*
X007611Y008611D03*
D1185*
X007610Y008612D03*
X007610Y008147D03*
D1186*
X007610Y008147D03*
X007609Y008146D03*
X007610Y008612D03*
X007609Y008612D03*
D1187*
X007608Y008613D03*
X007608Y008146D03*
D1188*
X007608Y008145D03*
X007607Y008145D03*
X007607Y008613D03*
X007608Y008613D03*
D1189*
X007607Y008613D03*
X007607Y008145D03*
D1190*
X007606Y008144D03*
X007606Y008614D03*
D1191*
X007605Y008614D03*
X007605Y008144D03*
D1192*
X007605Y008144D03*
X007605Y008614D03*
D1193*
X007604Y008614D03*
X007604Y008144D03*
D1194*
X007604Y008144D03*
X007604Y008615D03*
D1195*
X007603Y008615D03*
X007603Y008143D03*
D1196*
X007602Y008143D03*
X007602Y008143D03*
X007602Y008615D03*
X007602Y008615D03*
D1197*
X007601Y008616D03*
X007601Y008142D03*
D1198*
X007601Y008142D03*
X007601Y008616D03*
D1199*
X007600Y008616D03*
X007600Y008142D03*
D1200*
X007599Y008141D03*
X007599Y008617D03*
D1201*
X007599Y008617D03*
X007599Y008141D03*
D1202*
X007597Y008140D03*
X007597Y008618D03*
D1203*
X007596Y008618D03*
X007596Y008140D03*
D1204*
X007596Y008140D03*
X007596Y008618D03*
D1205*
X007595Y008618D03*
X007595Y008140D03*
D1206*
X007595Y008139D03*
X007595Y008619D03*
D1207*
X007594Y008619D03*
X007594Y008139D03*
D1208*
X007593Y008139D03*
X007593Y008620D03*
D1209*
X007593Y008620D03*
X007592Y008620D03*
X007592Y008138D03*
X007593Y008138D03*
D1210*
X007592Y008138D03*
X007592Y008620D03*
D1211*
X007591Y008138D03*
D1212*
X007591Y008621D03*
D1213*
X007590Y008621D03*
X007590Y008137D03*
D1214*
X007590Y008137D03*
X007590Y008621D03*
D1215*
X007589Y008621D03*
X007589Y008137D03*
D1216*
X007589Y008136D03*
X007589Y008622D03*
D1217*
X007588Y008622D03*
X007588Y008136D03*
D1218*
X007587Y008135D03*
X007586Y008135D03*
X007587Y008623D03*
X007586Y008623D03*
D1219*
X007586Y008623D03*
X007586Y008135D03*
D1220*
X007585Y008135D03*
X007585Y008624D03*
D1221*
X007584Y008624D03*
X007584Y008134D03*
D1222*
X007584Y008134D03*
X007584Y008624D03*
D1223*
X007583Y008624D03*
X007583Y008624D03*
X007583Y008134D03*
X007583Y008134D03*
D1224*
X007581Y008133D03*
X007581Y008625D03*
D1225*
X007581Y008626D03*
X007581Y008133D03*
D1226*
X007580Y008133D03*
X007580Y008626D03*
D1227*
X007580Y008626D03*
X007580Y008132D03*
D1228*
X007579Y008132D03*
X007579Y008627D03*
D1229*
X007578Y008627D03*
X007578Y008132D03*
D1230*
X007577Y008130D03*
X007577Y008628D03*
D1231*
X007576Y008628D03*
X007576Y008130D03*
D1232*
X007575Y008130D03*
X007575Y008628D03*
D1233*
X007575Y008628D03*
X007575Y008130D03*
D1234*
X007574Y008130D03*
X007574Y008629D03*
D1235*
X007574Y008629D03*
X007574Y008129D03*
D1236*
X007573Y008129D03*
X007573Y008629D03*
D1237*
X007572Y008129D03*
D1238*
X007572Y008128D03*
D1239*
X007572Y008630D03*
D1240*
X007571Y008630D03*
X007571Y008128D03*
D1241*
X007571Y008128D03*
X007571Y008630D03*
D1242*
X007570Y008631D03*
X007569Y008631D03*
X007569Y008127D03*
X007570Y008127D03*
D1243*
X007569Y008127D03*
X007569Y008631D03*
D1244*
X007568Y008632D03*
X007568Y008126D03*
D1245*
X007568Y008126D03*
X007568Y008632D03*
D1246*
X007567Y008632D03*
X007567Y008126D03*
D1247*
X007566Y008126D03*
X007566Y008126D03*
X007566Y008633D03*
X007566Y008633D03*
D1248*
X007565Y008633D03*
X007565Y008125D03*
D1249*
X007565Y008125D03*
X007564Y008125D03*
X007564Y008633D03*
X007565Y008633D03*
D1250*
X007563Y008634D03*
X007563Y008124D03*
D1251*
X007563Y008124D03*
X007563Y008634D03*
D1252*
X007562Y008634D03*
X007562Y008124D03*
D1253*
X007562Y008124D03*
X007562Y008635D03*
D1254*
X007561Y008635D03*
X007561Y008123D03*
D1255*
X007560Y008123D03*
X007560Y008635D03*
D1256*
X007560Y008635D03*
X007560Y008123D03*
D1257*
X007559Y008123D03*
X007559Y008122D03*
X007559Y008636D03*
X007559Y008636D03*
D1258*
X007558Y008636D03*
X007558Y008122D03*
D1259*
X007557Y008122D03*
X007557Y008636D03*
D1260*
X007557Y008637D03*
X007557Y008121D03*
D1261*
X007556Y008121D03*
X007556Y008637D03*
D1262*
X007556Y008638D03*
X007555Y008638D03*
X007555Y008120D03*
X007556Y008120D03*
D1263*
X007554Y008120D03*
X007554Y008638D03*
D1264*
X007553Y008120D03*
D1265*
X007553Y008639D03*
D1266*
X007553Y008639D03*
X007553Y008119D03*
D1267*
X007552Y008119D03*
X007552Y008639D03*
D1268*
X007551Y008639D03*
X007551Y008119D03*
D1269*
X007551Y008118D03*
X007550Y008118D03*
X007549Y008118D03*
X007550Y008640D03*
X007551Y008640D03*
X007549Y008641D03*
D1270*
X007550Y008640D03*
X007550Y008118D03*
D1271*
X007548Y008117D03*
X007548Y008641D03*
D1272*
X007548Y008641D03*
X007548Y008117D03*
D1273*
X007547Y008117D03*
X007547Y008642D03*
D1274*
X007547Y008642D03*
X007547Y008116D03*
D1275*
X007546Y008116D03*
X007546Y008643D03*
D1276*
X007545Y008643D03*
X007545Y008115D03*
D1277*
X007544Y008115D03*
X007544Y008643D03*
D1278*
X007543Y008644D03*
X007543Y008114D03*
D1279*
X007542Y008114D03*
X007542Y008644D03*
D1280*
X007542Y008644D03*
X007542Y008114D03*
D1281*
X007540Y008113D03*
X007540Y008645D03*
D1282*
X007539Y008645D03*
X007539Y008113D03*
D1283*
X007538Y008112D03*
X007538Y008112D03*
X007538Y008646D03*
X007538Y008646D03*
D1284*
X007535Y008647D03*
X007535Y008111D03*
D1285*
X007535Y008110D03*
D1286*
X007535Y008648D03*
D1287*
X007534Y008648D03*
X007534Y008110D03*
D1288*
X007532Y008109D03*
X007532Y008649D03*
D1289*
X007531Y008650D03*
X007530Y008650D03*
X007530Y008109D03*
X007531Y008109D03*
D1290*
X007530Y008108D03*
X007530Y008650D03*
D1291*
X007529Y008650D03*
X007529Y008108D03*
D1292*
X007529Y008108D03*
X007529Y008651D03*
D1293*
X007527Y008651D03*
X007527Y008107D03*
D1294*
X007526Y008106D03*
X007526Y008652D03*
D1295*
X007526Y008652D03*
X007525Y008652D03*
X007525Y008106D03*
X007526Y008106D03*
D1296*
X007522Y008105D03*
X007522Y008654D03*
D1297*
X007520Y008103D03*
X007519Y008103D03*
D1298*
X007519Y008655D03*
X007520Y008655D03*
D1299*
X007518Y008655D03*
D1300*
X007517Y008103D03*
X007518Y008103D03*
D1301*
X007516Y008102D03*
D1302*
X007516Y008656D03*
D1303*
X007515Y008657D03*
X007515Y008102D03*
D1304*
X007515Y008101D03*
D1305*
X007515Y008657D03*
D1306*
X007513Y008658D03*
X007513Y008100D03*
D1307*
X007511Y008099D03*
X007510Y008099D03*
X007510Y008659D03*
X007511Y008659D03*
D1308*
X007509Y008660D03*
X007509Y008098D03*
D1309*
X007508Y008098D03*
X007508Y008097D03*
X007508Y008660D03*
X007508Y008661D03*
D1310*
X007506Y008661D03*
X007506Y008097D03*
D1311*
X007506Y008097D03*
X007506Y008661D03*
D1312*
X007503Y008663D03*
X007503Y008096D03*
D1313*
X007502Y008095D03*
X007502Y008663D03*
D1314*
X007501Y008664D03*
X007501Y008094D03*
D1315*
X007500Y008094D03*
X007500Y008664D03*
D1316*
X007499Y008665D03*
X007499Y008094D03*
D1317*
X007499Y008093D03*
X007499Y008665D03*
D1318*
X007498Y008665D03*
X007498Y008093D03*
D1319*
X007496Y008092D03*
X007497Y008666D03*
X007496Y008666D03*
D1320*
X007496Y008666D03*
X007496Y008092D03*
D1321*
X007495Y008092D03*
X007495Y008666D03*
D1322*
X007494Y008667D03*
X007494Y008091D03*
D1323*
X007493Y008090D03*
X007493Y008668D03*
D1324*
X007491Y008668D03*
X007491Y008090D03*
D1325*
X007490Y008089D03*
X007490Y008669D03*
D1326*
X007487Y008671D03*
X007487Y008088D03*
D1327*
X007485Y008087D03*
X007485Y008671D03*
D1328*
X007484Y008672D03*
X007484Y008087D03*
D1329*
X007484Y008086D03*
X007484Y008672D03*
D1330*
X007481Y008673D03*
X007481Y008085D03*
D1331*
X007481Y008085D03*
X007481Y008674D03*
D1332*
X007478Y008084D03*
D1333*
X007478Y008083D03*
X007478Y008675D03*
X007478Y008675D03*
D1334*
X007477Y008675D03*
X007477Y008083D03*
D1335*
X007475Y008081D03*
X007474Y008081D03*
X007474Y008677D03*
X007475Y008677D03*
D1336*
X007473Y008677D03*
X007473Y008081D03*
D1337*
X007472Y008080D03*
X007472Y008678D03*
D1338*
X007470Y008679D03*
X007470Y008079D03*
D1339*
X007469Y008079D03*
X007469Y008079D03*
X007469Y008679D03*
X007469Y008679D03*
D1340*
X007468Y008680D03*
X007468Y008079D03*
D1341*
X007467Y008078D03*
X007467Y008680D03*
D1342*
X007466Y008681D03*
X007466Y008078D03*
D1343*
X007465Y008077D03*
X007465Y008681D03*
D1344*
X007464Y008681D03*
X007464Y008077D03*
D1345*
X007464Y008076D03*
X007464Y008682D03*
D1346*
X007461Y008683D03*
X007461Y008075D03*
D1347*
X007461Y008075D03*
X007461Y008683D03*
D1348*
X007460Y008684D03*
X007460Y008075D03*
D1349*
X007459Y008074D03*
D1350*
X007458Y008074D03*
X007458Y008684D03*
D1351*
X007457Y008685D03*
X007457Y008073D03*
D1352*
X007456Y008073D03*
X007456Y008685D03*
D1353*
X007455Y008686D03*
X007455Y008073D03*
D1354*
X007455Y008073D03*
X007455Y008686D03*
D1355*
X007453Y008687D03*
X007453Y008071D03*
D1356*
X007451Y008070D03*
X007451Y008688D03*
D1357*
X007449Y008689D03*
X007449Y008069D03*
D1358*
X007447Y008069D03*
X007447Y008690D03*
D1359*
X007446Y008690D03*
X007446Y008068D03*
D1360*
X007446Y008068D03*
X007446Y008690D03*
D1361*
X007445Y008690D03*
X007445Y008068D03*
D1362*
X007442Y008066D03*
X007442Y008692D03*
D1363*
X007440Y008065D03*
D1364*
X007440Y008693D03*
D1365*
X007440Y008693D03*
X007440Y008065D03*
D1366*
X007439Y008064D03*
X007439Y008694D03*
D1367*
X007437Y008694D03*
X007437Y008064D03*
D1368*
X007437Y008064D03*
X007437Y008695D03*
D1369*
X007436Y008695D03*
X007436Y008064D03*
D1370*
X007434Y008063D03*
X007434Y008696D03*
D1371*
X007434Y008696D03*
X007434Y008062D03*
D1372*
X007432Y008062D03*
X007432Y008696D03*
D1373*
X007431Y008697D03*
X007431Y008061D03*
D1374*
X007430Y008060D03*
X007430Y008698D03*
D1375*
X007428Y008698D03*
X007428Y008060D03*
D1376*
X007425Y008058D03*
X007425Y008700D03*
D1377*
X007424Y008057D03*
D1378*
X007424Y008701D03*
D1379*
X007423Y008701D03*
D1380*
X007421Y008702D03*
X007421Y008056D03*
D1381*
X007419Y008055D03*
X007419Y008703D03*
D1382*
X007419Y008703D03*
X007419Y008055D03*
D1383*
X007416Y008054D03*
X007416Y008704D03*
D1384*
X007413Y008705D03*
X007413Y008053D03*
D1385*
X007412Y008051D03*
X007412Y008707D03*
D1386*
X007411Y008707D03*
X007411Y008051D03*
D1387*
X007410Y008051D03*
X007410Y008707D03*
D1388*
X007410Y008707D03*
X007410Y008051D03*
D1389*
X007408Y008050D03*
X007408Y008708D03*
D1390*
X007404Y008710D03*
X007404Y008048D03*
D1391*
X007403Y008711D03*
D1392*
X007391Y008717D03*
X007391Y008042D03*
D1393*
X007389Y008041D03*
X007389Y008718D03*
D1394*
X007387Y008718D03*
X007387Y008040D03*
D1395*
X007386Y008040D03*
X007386Y008718D03*
D1396*
X007385Y008719D03*
X007385Y008039D03*
D1397*
X007380Y008036D03*
X007380Y008722D03*
D1398*
X007374Y008725D03*
X007374Y008034D03*
D1399*
X007373Y008033D03*
X007373Y008725D03*
D1400*
X007368Y008728D03*
X007368Y008030D03*
D1401*
X007367Y008030D03*
X007367Y008728D03*
D1402*
X007365Y008030D03*
D1403*
X007363Y008028D03*
X007363Y008730D03*
D1404*
X007362Y008730D03*
X007362Y008028D03*
D1405*
X007362Y008028D03*
X007362Y008730D03*
D1406*
X007361Y008731D03*
X007361Y008028D03*
D1407*
X007359Y008026D03*
X007359Y008732D03*
D1408*
X007357Y008733D03*
X007357Y008026D03*
D1409*
X007356Y008025D03*
X007356Y008025D03*
X007356Y008733D03*
X007356Y008733D03*
D1410*
X007353Y008735D03*
X007353Y008024D03*
D1411*
X007352Y008023D03*
X007352Y008735D03*
D1412*
X007351Y008735D03*
X007351Y008023D03*
D1413*
X007349Y008021D03*
X007347Y008021D03*
X007349Y008737D03*
X007347Y008737D03*
D1414*
X007347Y008021D03*
D1415*
X007346Y008020D03*
X007346Y008738D03*
D1416*
X007346Y008738D03*
X007344Y008739D03*
X007346Y008020D03*
X007344Y008019D03*
D1417*
X007344Y008019D03*
X007344Y008739D03*
D1418*
X007343Y008740D03*
X007343Y008018D03*
D1419*
X007341Y008018D03*
X007341Y008741D03*
D1420*
X007340Y008741D03*
X007340Y008017D03*
D1421*
X007339Y008017D03*
X007339Y008741D03*
D1422*
X007338Y008741D03*
X007338Y008017D03*
D1423*
X007338Y008016D03*
X007338Y008742D03*
D1424*
X007337Y008742D03*
X007337Y008016D03*
D1425*
X007337Y008016D03*
X007337Y008742D03*
D1426*
X007336Y008743D03*
X007336Y008015D03*
D1427*
X007335Y008015D03*
X007335Y008743D03*
D1428*
X007333Y008744D03*
X007333Y008014D03*
D1429*
X007332Y008014D03*
X007332Y008744D03*
D1430*
X007331Y008745D03*
X007331Y008013D03*
D1431*
X007331Y008013D03*
X007330Y008013D03*
X007330Y008745D03*
X007331Y008745D03*
D1432*
X007329Y008746D03*
X007329Y008012D03*
D1433*
X007328Y008012D03*
X007328Y008012D03*
D1434*
X007328Y008746D03*
X007328Y008746D03*
D1435*
X007326Y008747D03*
X007326Y008747D03*
D1436*
X007325Y008010D03*
D1437*
X007325Y008748D03*
D1438*
X007325Y008010D03*
D1439*
X007325Y008748D03*
D1440*
X007324Y008749D03*
X007324Y008009D03*
D1441*
X007322Y008009D03*
D1442*
X007322Y008749D03*
D1443*
X007321Y008750D03*
X007320Y008750D03*
X007320Y008008D03*
X007321Y008008D03*
D1444*
X007319Y008008D03*
X007319Y008750D03*
D1445*
X007318Y008751D03*
X007318Y008007D03*
D1446*
X007317Y008006D03*
X007317Y008752D03*
D1447*
X007316Y008752D03*
X007316Y008006D03*
D1448*
X007315Y008006D03*
X007315Y008753D03*
D1449*
X007314Y008753D03*
X007314Y008005D03*
D1450*
X007313Y008005D03*
X007313Y008754D03*
D1451*
X007312Y008754D03*
X007312Y008004D03*
D1452*
X007310Y008003D03*
X007310Y008755D03*
D1453*
X007309Y008003D03*
D1454*
X007308Y008003D03*
X007308Y008756D03*
D1455*
X007308Y008756D03*
X007308Y008002D03*
D1456*
X007305Y008001D03*
X007305Y008757D03*
D1457*
X007304Y008758D03*
X007304Y008000D03*
D1458*
X007301Y007999D03*
X007301Y008759D03*
D1459*
X007301Y008759D03*
X007301Y007999D03*
D1460*
X007299Y007998D03*
X007299Y008760D03*
D1461*
X007299Y008760D03*
X007299Y007998D03*
D1462*
X007298Y007998D03*
X007298Y008760D03*
D1463*
X007297Y008761D03*
X007297Y007997D03*
D1464*
X007296Y007997D03*
X007296Y008761D03*
D1465*
X007295Y008762D03*
X007295Y007996D03*
D1466*
X007293Y007995D03*
X007293Y008763D03*
D1467*
X007293Y008763D03*
X007292Y008763D03*
X007292Y007995D03*
X007293Y007995D03*
D1468*
X007292Y007994D03*
X007292Y008764D03*
D1469*
X007291Y008764D03*
X007291Y007994D03*
D1470*
X007290Y007994D03*
D1471*
X007288Y007993D03*
X007288Y008765D03*
D1472*
X007287Y008766D03*
X007287Y007992D03*
D1473*
X007286Y007992D03*
X007286Y008766D03*
D1474*
X007283Y008768D03*
X007281Y008769D03*
X007281Y008769D03*
X007283Y007990D03*
X007281Y007990D03*
X007281Y007990D03*
D1475*
X007282Y007990D03*
X007282Y008768D03*
D1476*
X007280Y008769D03*
X007280Y007989D03*
D1477*
X007279Y007989D03*
X007279Y008769D03*
D1478*
X007278Y008770D03*
X007278Y007989D03*
D1479*
X007278Y007988D03*
X007278Y008770D03*
D1480*
X007274Y008771D03*
X007274Y007987D03*
D1481*
X007274Y007986D03*
X007274Y008772D03*
D1482*
X007273Y008772D03*
X007273Y007986D03*
D1483*
X007272Y007985D03*
D1484*
X007272Y008773D03*
D1485*
X007271Y008773D03*
X007270Y008774D03*
X007271Y007985D03*
X007270Y007984D03*
D1486*
X007269Y007984D03*
X007269Y008774D03*
D1487*
X007267Y008775D03*
X007267Y007983D03*
D1488*
X007266Y007983D03*
X007265Y007982D03*
X007266Y008776D03*
X007265Y008776D03*
D1489*
X007263Y008777D03*
X007263Y007981D03*
D1490*
X007263Y007981D03*
X007263Y008777D03*
D1491*
X007262Y008777D03*
X007262Y007981D03*
D1492*
X007262Y007981D03*
X007262Y008778D03*
D1493*
X007261Y008778D03*
X007261Y007980D03*
D1494*
X007260Y007980D03*
X007260Y008778D03*
D1495*
X007259Y008779D03*
X007259Y007979D03*
D1496*
X007258Y007979D03*
X007258Y008779D03*
D1497*
X007257Y008780D03*
X007257Y007979D03*
D1498*
X007257Y007978D03*
X007256Y007978D03*
X007257Y008780D03*
X007256Y008780D03*
D1499*
X007256Y008780D03*
X007256Y007978D03*
D1500*
X007254Y007977D03*
X007254Y008781D03*
D1501*
X007253Y008782D03*
D1502*
X007248Y008784D03*
X007248Y007975D03*
D1503*
X007248Y007974D03*
X007247Y007974D03*
X007248Y008784D03*
X007247Y008784D03*
D1504*
X007245Y008785D03*
X007245Y007973D03*
D1505*
X007244Y007973D03*
X007244Y008786D03*
D1506*
X007244Y008786D03*
X007244Y007972D03*
D1507*
X007243Y007972D03*
X007243Y008786D03*
D1508*
X007242Y008786D03*
X007242Y007972D03*
D1509*
X007242Y007972D03*
X007241Y007971D03*
X007242Y008786D03*
X007241Y008787D03*
D1510*
X007239Y008788D03*
X007238Y008788D03*
X007239Y007970D03*
X007238Y007970D03*
D1511*
X007237Y007969D03*
X007237Y008789D03*
D1512*
X007236Y008789D03*
X007236Y008789D03*
X007236Y007969D03*
X007236Y007969D03*
D1513*
X007234Y007968D03*
X007234Y008790D03*
X007233Y008791D03*
D1514*
X007233Y007968D03*
D1515*
X007233Y008790D03*
D1516*
X007233Y007968D03*
D1517*
X007232Y007967D03*
X007232Y008791D03*
D1518*
X007230Y008792D03*
X007230Y007967D03*
D1519*
X007230Y007966D03*
X007230Y008792D03*
D1520*
X007229Y008792D03*
X007229Y007966D03*
D1521*
X007229Y007966D03*
X007229Y008793D03*
D1522*
X007228Y008793D03*
X007228Y007966D03*
D1523*
X007223Y007963D03*
X007223Y007963D03*
X007223Y008795D03*
X007223Y008795D03*
D1524*
X007221Y008795D03*
X007221Y007963D03*
D1525*
X007221Y007962D03*
X007221Y008796D03*
D1526*
X007220Y008796D03*
X007220Y007962D03*
D1527*
X007217Y007961D03*
X007217Y008798D03*
D1528*
X007216Y008798D03*
X007216Y007960D03*
D1529*
X007215Y007959D03*
D1530*
X007215Y008799D03*
D1531*
X007214Y008799D03*
D1532*
X007214Y007959D03*
D1533*
X007213Y007959D03*
D1534*
X007211Y007958D03*
X007211Y008800D03*
D1535*
X007209Y008801D03*
X007209Y007957D03*
D1536*
X007206Y007956D03*
X007206Y008802D03*
D1537*
X007206Y008803D03*
X007206Y007955D03*
D1538*
X007205Y007955D03*
X007205Y008803D03*
D1539*
X007204Y008804D03*
X007204Y007955D03*
D1540*
X007203Y007955D03*
X007203Y008804D03*
D1541*
X007202Y008804D03*
X007202Y007954D03*
D1542*
X007201Y007953D03*
X007200Y007953D03*
X007201Y008805D03*
X007200Y008805D03*
D1543*
X007200Y008805D03*
X007200Y007953D03*
D1544*
X007199Y007953D03*
X007199Y008806D03*
D1545*
X007199Y008806D03*
X007199Y007952D03*
D1546*
X007198Y007952D03*
X007198Y008806D03*
D1547*
X007197Y008807D03*
X007197Y008807D03*
X007197Y007952D03*
X007197Y007952D03*
D1548*
X007196Y007951D03*
X007196Y008807D03*
D1549*
X007195Y008808D03*
X007195Y007951D03*
D1550*
X007194Y007950D03*
D1551*
X007194Y008808D03*
D1552*
X007194Y008808D03*
X007194Y007950D03*
D1553*
X007193Y007949D03*
X007193Y008809D03*
D1554*
X007192Y008809D03*
X007192Y007949D03*
D1555*
X007191Y007949D03*
X007191Y008809D03*
D1556*
X007190Y008809D03*
X007190Y007949D03*
D1557*
X007190Y007949D03*
X007190Y008810D03*
D1558*
X007189Y008810D03*
X007189Y007948D03*
D1559*
X007188Y007948D03*
X007188Y008810D03*
D1560*
X007187Y008811D03*
X007187Y007947D03*
D1561*
X007182Y007945D03*
X007182Y008813D03*
D1562*
X007181Y008814D03*
X007181Y007944D03*
D1563*
X007181Y007944D03*
X007180Y007944D03*
X007180Y008814D03*
X007181Y008814D03*
D1564*
X007179Y008814D03*
X007179Y007944D03*
D1565*
X007178Y007943D03*
X007176Y007942D03*
X007178Y008815D03*
X007176Y008816D03*
D1566*
X007177Y008816D03*
X007177Y007943D03*
D1567*
X007176Y007942D03*
X007176Y008816D03*
D1568*
X007175Y007942D03*
D1569*
X007175Y008816D03*
D1570*
X007172Y008818D03*
X007172Y007940D03*
D1571*
X007171Y007940D03*
X007171Y008818D03*
D1572*
X007170Y008819D03*
X007170Y007939D03*
D1573*
X007169Y007938D03*
X007169Y008820D03*
D1574*
X007168Y008820D03*
X007168Y007938D03*
D1575*
X007167Y007938D03*
X007167Y008820D03*
D1576*
X007166Y008820D03*
X007166Y007938D03*
D1577*
X007166Y007938D03*
X007166Y008821D03*
D1578*
X007164Y008821D03*
X007164Y007937D03*
D1579*
X007161Y007935D03*
X007161Y008823D03*
D1580*
X007160Y008823D03*
X007160Y007935D03*
D1581*
X007158Y007934D03*
X007157Y007934D03*
X007157Y008824D03*
X007158Y008824D03*
D1582*
X007157Y008825D03*
X007157Y007934D03*
D1583*
X007155Y007933D03*
D1584*
X007155Y008825D03*
D1585*
X007155Y007933D03*
D1586*
X007155Y008825D03*
D1587*
X007154Y008825D03*
X007154Y008826D03*
X007154Y007933D03*
X007154Y007932D03*
D1588*
X007153Y007932D03*
X007153Y008826D03*
D1589*
X007151Y008827D03*
X007150Y008827D03*
X007150Y007931D03*
X007151Y007931D03*
D1590*
X007148Y007930D03*
X007148Y008828D03*
D1591*
X007148Y008828D03*
X007148Y007930D03*
D1592*
X007145Y007929D03*
X007145Y008829D03*
D1593*
X007145Y008829D03*
X007145Y007929D03*
D1594*
X007137Y007926D03*
X007136Y007925D03*
X007137Y008832D03*
X007136Y008833D03*
D1595*
X007134Y008834D03*
X007134Y007924D03*
D1596*
X007128Y007922D03*
X007128Y008836D03*
D1597*
X007116Y008841D03*
X007116Y007917D03*
D1598*
X007113Y008842D03*
D1599*
X007095Y008849D03*
X007095Y007909D03*
D1600*
X007090Y007907D03*
X007090Y008852D03*
D1601*
X007083Y008854D03*
X007083Y007904D03*
M02*
