G75*
%MOIN*%
%OFA0B0*%
%FSLAX24Y24*%
%IPPOS*%
%LPD*%
%AMOC8*
5,1,8,0,0,1.08239X$1,22.5*
%
%ADD10R,0.0490X0.0440*%
%ADD11C,0.0098*%
%ADD12C,0.0000*%
%ADD13C,0.0906*%
%ADD14C,0.0631*%
%ADD15R,0.0555X0.0555*%
%ADD16C,0.0555*%
D10*
X002990Y006950D03*
X003790Y007300D03*
X002990Y007650D03*
D11*
X002286Y007746D02*
X002286Y007454D01*
X001994Y007454D01*
X001994Y007746D01*
X002286Y007746D01*
X002286Y007551D02*
X001994Y007551D01*
X001994Y007648D02*
X002286Y007648D01*
X002286Y007745D02*
X001994Y007745D01*
X002286Y007146D02*
X002286Y006854D01*
X001994Y006854D01*
X001994Y007146D01*
X002286Y007146D01*
X002286Y006951D02*
X001994Y006951D01*
X001994Y007048D02*
X002286Y007048D01*
X002286Y007145D02*
X001994Y007145D01*
D12*
X001203Y003434D02*
X001203Y000678D01*
X001205Y000645D01*
X001210Y000613D01*
X001218Y000581D01*
X001230Y000550D01*
X001245Y000520D01*
X001263Y000493D01*
X001284Y000467D01*
X001307Y000444D01*
X001333Y000423D01*
X001361Y000405D01*
X001390Y000390D01*
X001421Y000378D01*
X001453Y000370D01*
X001485Y000365D01*
X001518Y000363D01*
X004274Y000363D01*
X004284Y000364D01*
X004294Y000368D01*
X004302Y000374D01*
X004308Y000382D01*
X004312Y000392D01*
X004313Y000402D01*
X004314Y000402D02*
X004316Y000456D01*
X004321Y000509D01*
X004330Y000562D01*
X004343Y000614D01*
X004359Y000666D01*
X004379Y000716D01*
X004402Y000764D01*
X004429Y000811D01*
X004458Y000856D01*
X004491Y000899D01*
X004526Y000939D01*
X004564Y000977D01*
X004604Y001012D01*
X004647Y001045D01*
X004692Y001074D01*
X004739Y001101D01*
X004787Y001124D01*
X004837Y001144D01*
X004889Y001160D01*
X004941Y001173D01*
X004994Y001182D01*
X005047Y001187D01*
X005101Y001189D01*
X005101Y001190D02*
X005179Y001190D01*
X005179Y001189D02*
X005233Y001187D01*
X005286Y001182D01*
X005339Y001173D01*
X005391Y001160D01*
X005443Y001144D01*
X005493Y001124D01*
X005541Y001101D01*
X005588Y001074D01*
X005633Y001045D01*
X005676Y001012D01*
X005716Y000977D01*
X005754Y000939D01*
X005789Y000899D01*
X005822Y000856D01*
X005851Y000811D01*
X005878Y000764D01*
X005901Y000716D01*
X005921Y000666D01*
X005937Y000614D01*
X005950Y000562D01*
X005959Y000509D01*
X005964Y000456D01*
X005966Y000402D01*
X005967Y000402D02*
X005968Y000392D01*
X005972Y000383D01*
X005978Y000374D01*
X005987Y000368D01*
X005996Y000364D01*
X006006Y000363D01*
X008762Y000363D01*
X008795Y000365D01*
X008827Y000370D01*
X008859Y000378D01*
X008890Y000390D01*
X008920Y000405D01*
X008947Y000423D01*
X008973Y000444D01*
X008996Y000467D01*
X009017Y000493D01*
X009035Y000520D01*
X009050Y000550D01*
X009062Y000581D01*
X009070Y000613D01*
X009075Y000645D01*
X009077Y000678D01*
X009077Y003434D01*
X009078Y003444D01*
X009082Y003454D01*
X009088Y003462D01*
X009097Y003468D01*
X009106Y003472D01*
X009116Y003473D01*
X009116Y003474D02*
X009170Y003476D01*
X009223Y003481D01*
X009276Y003490D01*
X009328Y003503D01*
X009380Y003519D01*
X009430Y003539D01*
X009478Y003562D01*
X009525Y003589D01*
X009570Y003618D01*
X009613Y003651D01*
X009653Y003686D01*
X009691Y003724D01*
X009726Y003764D01*
X009759Y003807D01*
X009788Y003852D01*
X009815Y003899D01*
X009838Y003947D01*
X009858Y003997D01*
X009874Y004049D01*
X009887Y004101D01*
X009896Y004154D01*
X009901Y004207D01*
X009903Y004261D01*
X009904Y004261D02*
X009904Y004339D01*
X009903Y004339D02*
X009901Y004393D01*
X009896Y004446D01*
X009887Y004499D01*
X009874Y004551D01*
X009858Y004603D01*
X009838Y004653D01*
X009815Y004701D01*
X009788Y004748D01*
X009759Y004793D01*
X009726Y004836D01*
X009691Y004876D01*
X009653Y004914D01*
X009613Y004949D01*
X009570Y004982D01*
X009525Y005011D01*
X009478Y005038D01*
X009430Y005061D01*
X009380Y005081D01*
X009328Y005097D01*
X009276Y005110D01*
X009223Y005119D01*
X009170Y005124D01*
X009116Y005126D01*
X009116Y005127D02*
X009106Y005128D01*
X009097Y005132D01*
X009088Y005138D01*
X009082Y005147D01*
X009078Y005156D01*
X009077Y005166D01*
X009077Y007922D01*
X009075Y007955D01*
X009070Y007987D01*
X009062Y008019D01*
X009050Y008050D01*
X009035Y008080D01*
X009017Y008107D01*
X008996Y008133D01*
X008973Y008156D01*
X008947Y008177D01*
X008920Y008195D01*
X008890Y008210D01*
X008859Y008222D01*
X008827Y008230D01*
X008795Y008235D01*
X008762Y008237D01*
X006006Y008237D01*
X005996Y008236D01*
X005987Y008232D01*
X005978Y008226D01*
X005972Y008218D01*
X005968Y008208D01*
X005967Y008198D01*
X005966Y008198D02*
X005964Y008144D01*
X005959Y008091D01*
X005950Y008038D01*
X005937Y007986D01*
X005921Y007934D01*
X005901Y007884D01*
X005878Y007836D01*
X005851Y007789D01*
X005822Y007744D01*
X005789Y007701D01*
X005754Y007661D01*
X005716Y007623D01*
X005676Y007588D01*
X005633Y007555D01*
X005588Y007526D01*
X005541Y007499D01*
X005493Y007476D01*
X005443Y007456D01*
X005391Y007440D01*
X005339Y007427D01*
X005286Y007418D01*
X005233Y007413D01*
X005179Y007411D01*
X005179Y007410D02*
X005101Y007410D01*
X005101Y007411D02*
X005047Y007413D01*
X004994Y007418D01*
X004941Y007427D01*
X004889Y007440D01*
X004837Y007456D01*
X004787Y007476D01*
X004739Y007499D01*
X004692Y007526D01*
X004647Y007555D01*
X004604Y007588D01*
X004564Y007623D01*
X004526Y007661D01*
X004491Y007701D01*
X004458Y007744D01*
X004429Y007789D01*
X004402Y007836D01*
X004379Y007884D01*
X004359Y007934D01*
X004343Y007986D01*
X004330Y008038D01*
X004321Y008091D01*
X004316Y008144D01*
X004314Y008198D01*
X004313Y008198D02*
X004312Y008208D01*
X004308Y008218D01*
X004302Y008226D01*
X004294Y008232D01*
X004284Y008236D01*
X004274Y008237D01*
X001518Y008237D01*
X001485Y008235D01*
X001453Y008230D01*
X001421Y008222D01*
X001390Y008210D01*
X001361Y008195D01*
X001333Y008177D01*
X001307Y008156D01*
X001284Y008133D01*
X001263Y008107D01*
X001245Y008080D01*
X001230Y008050D01*
X001218Y008019D01*
X001210Y007987D01*
X001205Y007955D01*
X001203Y007922D01*
X001203Y005166D01*
X001202Y005156D01*
X001198Y005147D01*
X001192Y005138D01*
X001184Y005132D01*
X001174Y005128D01*
X001164Y005127D01*
X001164Y005126D02*
X001110Y005124D01*
X001057Y005119D01*
X001004Y005110D01*
X000952Y005097D01*
X000900Y005081D01*
X000850Y005061D01*
X000802Y005038D01*
X000755Y005011D01*
X000710Y004982D01*
X000667Y004949D01*
X000627Y004914D01*
X000589Y004876D01*
X000554Y004836D01*
X000521Y004793D01*
X000492Y004748D01*
X000465Y004701D01*
X000442Y004653D01*
X000422Y004603D01*
X000406Y004551D01*
X000393Y004499D01*
X000384Y004446D01*
X000379Y004393D01*
X000377Y004339D01*
X000376Y004339D02*
X000376Y004261D01*
X000377Y004261D02*
X000379Y004207D01*
X000384Y004154D01*
X000393Y004101D01*
X000406Y004049D01*
X000422Y003997D01*
X000442Y003947D01*
X000465Y003899D01*
X000492Y003852D01*
X000521Y003807D01*
X000554Y003764D01*
X000589Y003724D01*
X000627Y003686D01*
X000667Y003651D01*
X000710Y003618D01*
X000755Y003589D01*
X000802Y003562D01*
X000850Y003539D01*
X000900Y003519D01*
X000952Y003503D01*
X001004Y003490D01*
X001057Y003481D01*
X001110Y003476D01*
X001164Y003474D01*
X001164Y003473D02*
X001174Y003472D01*
X001184Y003468D01*
X001192Y003462D01*
X001198Y003454D01*
X001202Y003444D01*
X001203Y003434D01*
X000770Y004300D02*
X000772Y004341D01*
X000778Y004382D01*
X000788Y004422D01*
X000801Y004461D01*
X000818Y004498D01*
X000839Y004534D01*
X000863Y004568D01*
X000890Y004599D01*
X000919Y004627D01*
X000952Y004653D01*
X000986Y004675D01*
X001023Y004694D01*
X001061Y004709D01*
X001101Y004721D01*
X001141Y004729D01*
X001182Y004733D01*
X001224Y004733D01*
X001265Y004729D01*
X001305Y004721D01*
X001345Y004709D01*
X001383Y004694D01*
X001419Y004675D01*
X001454Y004653D01*
X001487Y004627D01*
X001516Y004599D01*
X001543Y004568D01*
X001567Y004534D01*
X001588Y004498D01*
X001605Y004461D01*
X001618Y004422D01*
X001628Y004382D01*
X001634Y004341D01*
X001636Y004300D01*
X001634Y004259D01*
X001628Y004218D01*
X001618Y004178D01*
X001605Y004139D01*
X001588Y004102D01*
X001567Y004066D01*
X001543Y004032D01*
X001516Y004001D01*
X001487Y003973D01*
X001454Y003947D01*
X001420Y003925D01*
X001383Y003906D01*
X001345Y003891D01*
X001305Y003879D01*
X001265Y003871D01*
X001224Y003867D01*
X001182Y003867D01*
X001141Y003871D01*
X001101Y003879D01*
X001061Y003891D01*
X001023Y003906D01*
X000987Y003925D01*
X000952Y003947D01*
X000919Y003973D01*
X000890Y004001D01*
X000863Y004032D01*
X000839Y004066D01*
X000818Y004102D01*
X000801Y004139D01*
X000788Y004178D01*
X000778Y004218D01*
X000772Y004259D01*
X000770Y004300D01*
X008644Y004300D02*
X008646Y004341D01*
X008652Y004382D01*
X008662Y004422D01*
X008675Y004461D01*
X008692Y004498D01*
X008713Y004534D01*
X008737Y004568D01*
X008764Y004599D01*
X008793Y004627D01*
X008826Y004653D01*
X008860Y004675D01*
X008897Y004694D01*
X008935Y004709D01*
X008975Y004721D01*
X009015Y004729D01*
X009056Y004733D01*
X009098Y004733D01*
X009139Y004729D01*
X009179Y004721D01*
X009219Y004709D01*
X009257Y004694D01*
X009293Y004675D01*
X009328Y004653D01*
X009361Y004627D01*
X009390Y004599D01*
X009417Y004568D01*
X009441Y004534D01*
X009462Y004498D01*
X009479Y004461D01*
X009492Y004422D01*
X009502Y004382D01*
X009508Y004341D01*
X009510Y004300D01*
X009508Y004259D01*
X009502Y004218D01*
X009492Y004178D01*
X009479Y004139D01*
X009462Y004102D01*
X009441Y004066D01*
X009417Y004032D01*
X009390Y004001D01*
X009361Y003973D01*
X009328Y003947D01*
X009294Y003925D01*
X009257Y003906D01*
X009219Y003891D01*
X009179Y003879D01*
X009139Y003871D01*
X009098Y003867D01*
X009056Y003867D01*
X009015Y003871D01*
X008975Y003879D01*
X008935Y003891D01*
X008897Y003906D01*
X008861Y003925D01*
X008826Y003947D01*
X008793Y003973D01*
X008764Y004001D01*
X008737Y004032D01*
X008713Y004066D01*
X008692Y004102D01*
X008675Y004139D01*
X008662Y004178D01*
X008652Y004218D01*
X008646Y004259D01*
X008644Y004300D01*
D13*
X009077Y004300D03*
X001203Y004300D03*
D14*
X006140Y002804D03*
X006140Y005796D03*
D15*
X002790Y005350D03*
D16*
X002790Y004350D03*
X002790Y003350D03*
M02*
