G75*
%MOIN*%
%OFA0B0*%
%FSLAX24Y24*%
%IPPOS*%
%LPD*%
%AMOC8*
5,1,8,0,0,1.08239X$1,22.5*
%
%ADD10R,0.0450X0.0400*%
%ADD11C,0.0088*%
%ADD12C,0.0000*%
%ADD13C,0.0591*%
%ADD14R,0.0515X0.0515*%
%ADD15C,0.0515*%
%ADD16C,0.0080*%
%ADD17C,0.0250*%
%ADD18C,0.0320*%
%ADD19C,0.0160*%
D10*
X002990Y006950D03*
X003790Y007300D03*
X002990Y007650D03*
D11*
X002271Y007731D02*
X002271Y007469D01*
X002009Y007469D01*
X002009Y007731D01*
X002271Y007731D01*
X002271Y007556D02*
X002009Y007556D01*
X002009Y007643D02*
X002271Y007643D01*
X002271Y007730D02*
X002009Y007730D01*
X002271Y007131D02*
X002271Y006869D01*
X002009Y006869D01*
X002009Y007131D01*
X002271Y007131D01*
X002271Y006956D02*
X002009Y006956D01*
X002009Y007043D02*
X002271Y007043D01*
X002271Y007130D02*
X002009Y007130D01*
D12*
X001203Y003434D02*
X001203Y000678D01*
X001205Y000645D01*
X001210Y000613D01*
X001218Y000581D01*
X001230Y000550D01*
X001245Y000520D01*
X001263Y000493D01*
X001284Y000467D01*
X001307Y000444D01*
X001333Y000423D01*
X001361Y000405D01*
X001390Y000390D01*
X001421Y000378D01*
X001453Y000370D01*
X001485Y000365D01*
X001518Y000363D01*
X004274Y000363D01*
X004284Y000364D01*
X004294Y000368D01*
X004302Y000374D01*
X004308Y000382D01*
X004312Y000392D01*
X004313Y000402D01*
X004314Y000402D02*
X004316Y000456D01*
X004321Y000509D01*
X004330Y000562D01*
X004343Y000614D01*
X004359Y000666D01*
X004379Y000716D01*
X004402Y000764D01*
X004429Y000811D01*
X004458Y000856D01*
X004491Y000899D01*
X004526Y000939D01*
X004564Y000977D01*
X004604Y001012D01*
X004647Y001045D01*
X004692Y001074D01*
X004739Y001101D01*
X004787Y001124D01*
X004837Y001144D01*
X004889Y001160D01*
X004941Y001173D01*
X004994Y001182D01*
X005047Y001187D01*
X005101Y001189D01*
X005101Y001190D02*
X005179Y001190D01*
X005179Y001189D02*
X005233Y001187D01*
X005286Y001182D01*
X005339Y001173D01*
X005391Y001160D01*
X005443Y001144D01*
X005493Y001124D01*
X005541Y001101D01*
X005588Y001074D01*
X005633Y001045D01*
X005676Y001012D01*
X005716Y000977D01*
X005754Y000939D01*
X005789Y000899D01*
X005822Y000856D01*
X005851Y000811D01*
X005878Y000764D01*
X005901Y000716D01*
X005921Y000666D01*
X005937Y000614D01*
X005950Y000562D01*
X005959Y000509D01*
X005964Y000456D01*
X005966Y000402D01*
X005967Y000402D02*
X005968Y000392D01*
X005972Y000383D01*
X005978Y000374D01*
X005987Y000368D01*
X005996Y000364D01*
X006006Y000363D01*
X008762Y000363D01*
X008795Y000365D01*
X008827Y000370D01*
X008859Y000378D01*
X008890Y000390D01*
X008920Y000405D01*
X008947Y000423D01*
X008973Y000444D01*
X008996Y000467D01*
X009017Y000493D01*
X009035Y000520D01*
X009050Y000550D01*
X009062Y000581D01*
X009070Y000613D01*
X009075Y000645D01*
X009077Y000678D01*
X009077Y003434D01*
X009078Y003444D01*
X009082Y003454D01*
X009088Y003462D01*
X009097Y003468D01*
X009106Y003472D01*
X009116Y003473D01*
X009116Y003474D02*
X009170Y003476D01*
X009223Y003481D01*
X009276Y003490D01*
X009328Y003503D01*
X009380Y003519D01*
X009430Y003539D01*
X009478Y003562D01*
X009525Y003589D01*
X009570Y003618D01*
X009613Y003651D01*
X009653Y003686D01*
X009691Y003724D01*
X009726Y003764D01*
X009759Y003807D01*
X009788Y003852D01*
X009815Y003899D01*
X009838Y003947D01*
X009858Y003997D01*
X009874Y004049D01*
X009887Y004101D01*
X009896Y004154D01*
X009901Y004207D01*
X009903Y004261D01*
X009904Y004261D02*
X009904Y004339D01*
X009903Y004339D02*
X009901Y004393D01*
X009896Y004446D01*
X009887Y004499D01*
X009874Y004551D01*
X009858Y004603D01*
X009838Y004653D01*
X009815Y004701D01*
X009788Y004748D01*
X009759Y004793D01*
X009726Y004836D01*
X009691Y004876D01*
X009653Y004914D01*
X009613Y004949D01*
X009570Y004982D01*
X009525Y005011D01*
X009478Y005038D01*
X009430Y005061D01*
X009380Y005081D01*
X009328Y005097D01*
X009276Y005110D01*
X009223Y005119D01*
X009170Y005124D01*
X009116Y005126D01*
X009116Y005127D02*
X009106Y005128D01*
X009097Y005132D01*
X009088Y005138D01*
X009082Y005147D01*
X009078Y005156D01*
X009077Y005166D01*
X009077Y007922D01*
X009075Y007955D01*
X009070Y007987D01*
X009062Y008019D01*
X009050Y008050D01*
X009035Y008080D01*
X009017Y008107D01*
X008996Y008133D01*
X008973Y008156D01*
X008947Y008177D01*
X008920Y008195D01*
X008890Y008210D01*
X008859Y008222D01*
X008827Y008230D01*
X008795Y008235D01*
X008762Y008237D01*
X006006Y008237D01*
X005996Y008236D01*
X005987Y008232D01*
X005978Y008226D01*
X005972Y008218D01*
X005968Y008208D01*
X005967Y008198D01*
X005966Y008198D02*
X005964Y008144D01*
X005959Y008091D01*
X005950Y008038D01*
X005937Y007986D01*
X005921Y007934D01*
X005901Y007884D01*
X005878Y007836D01*
X005851Y007789D01*
X005822Y007744D01*
X005789Y007701D01*
X005754Y007661D01*
X005716Y007623D01*
X005676Y007588D01*
X005633Y007555D01*
X005588Y007526D01*
X005541Y007499D01*
X005493Y007476D01*
X005443Y007456D01*
X005391Y007440D01*
X005339Y007427D01*
X005286Y007418D01*
X005233Y007413D01*
X005179Y007411D01*
X005179Y007410D02*
X005101Y007410D01*
X005101Y007411D02*
X005047Y007413D01*
X004994Y007418D01*
X004941Y007427D01*
X004889Y007440D01*
X004837Y007456D01*
X004787Y007476D01*
X004739Y007499D01*
X004692Y007526D01*
X004647Y007555D01*
X004604Y007588D01*
X004564Y007623D01*
X004526Y007661D01*
X004491Y007701D01*
X004458Y007744D01*
X004429Y007789D01*
X004402Y007836D01*
X004379Y007884D01*
X004359Y007934D01*
X004343Y007986D01*
X004330Y008038D01*
X004321Y008091D01*
X004316Y008144D01*
X004314Y008198D01*
X004313Y008198D02*
X004312Y008208D01*
X004308Y008218D01*
X004302Y008226D01*
X004294Y008232D01*
X004284Y008236D01*
X004274Y008237D01*
X001518Y008237D01*
X001485Y008235D01*
X001453Y008230D01*
X001421Y008222D01*
X001390Y008210D01*
X001361Y008195D01*
X001333Y008177D01*
X001307Y008156D01*
X001284Y008133D01*
X001263Y008107D01*
X001245Y008080D01*
X001230Y008050D01*
X001218Y008019D01*
X001210Y007987D01*
X001205Y007955D01*
X001203Y007922D01*
X001203Y005166D01*
X001202Y005156D01*
X001198Y005147D01*
X001192Y005138D01*
X001184Y005132D01*
X001174Y005128D01*
X001164Y005127D01*
X001164Y005126D02*
X001110Y005124D01*
X001057Y005119D01*
X001004Y005110D01*
X000952Y005097D01*
X000900Y005081D01*
X000850Y005061D01*
X000802Y005038D01*
X000755Y005011D01*
X000710Y004982D01*
X000667Y004949D01*
X000627Y004914D01*
X000589Y004876D01*
X000554Y004836D01*
X000521Y004793D01*
X000492Y004748D01*
X000465Y004701D01*
X000442Y004653D01*
X000422Y004603D01*
X000406Y004551D01*
X000393Y004499D01*
X000384Y004446D01*
X000379Y004393D01*
X000377Y004339D01*
X000376Y004339D02*
X000376Y004261D01*
X000377Y004261D02*
X000379Y004207D01*
X000384Y004154D01*
X000393Y004101D01*
X000406Y004049D01*
X000422Y003997D01*
X000442Y003947D01*
X000465Y003899D01*
X000492Y003852D01*
X000521Y003807D01*
X000554Y003764D01*
X000589Y003724D01*
X000627Y003686D01*
X000667Y003651D01*
X000710Y003618D01*
X000755Y003589D01*
X000802Y003562D01*
X000850Y003539D01*
X000900Y003519D01*
X000952Y003503D01*
X001004Y003490D01*
X001057Y003481D01*
X001110Y003476D01*
X001164Y003474D01*
X001164Y003473D02*
X001174Y003472D01*
X001184Y003468D01*
X001192Y003462D01*
X001198Y003454D01*
X001202Y003444D01*
X001203Y003434D01*
X000770Y004300D02*
X000772Y004341D01*
X000778Y004382D01*
X000788Y004422D01*
X000801Y004461D01*
X000818Y004498D01*
X000839Y004534D01*
X000863Y004568D01*
X000890Y004599D01*
X000919Y004627D01*
X000952Y004653D01*
X000986Y004675D01*
X001023Y004694D01*
X001061Y004709D01*
X001101Y004721D01*
X001141Y004729D01*
X001182Y004733D01*
X001224Y004733D01*
X001265Y004729D01*
X001305Y004721D01*
X001345Y004709D01*
X001383Y004694D01*
X001419Y004675D01*
X001454Y004653D01*
X001487Y004627D01*
X001516Y004599D01*
X001543Y004568D01*
X001567Y004534D01*
X001588Y004498D01*
X001605Y004461D01*
X001618Y004422D01*
X001628Y004382D01*
X001634Y004341D01*
X001636Y004300D01*
X001634Y004259D01*
X001628Y004218D01*
X001618Y004178D01*
X001605Y004139D01*
X001588Y004102D01*
X001567Y004066D01*
X001543Y004032D01*
X001516Y004001D01*
X001487Y003973D01*
X001454Y003947D01*
X001420Y003925D01*
X001383Y003906D01*
X001345Y003891D01*
X001305Y003879D01*
X001265Y003871D01*
X001224Y003867D01*
X001182Y003867D01*
X001141Y003871D01*
X001101Y003879D01*
X001061Y003891D01*
X001023Y003906D01*
X000987Y003925D01*
X000952Y003947D01*
X000919Y003973D01*
X000890Y004001D01*
X000863Y004032D01*
X000839Y004066D01*
X000818Y004102D01*
X000801Y004139D01*
X000788Y004178D01*
X000778Y004218D01*
X000772Y004259D01*
X000770Y004300D01*
X008644Y004300D02*
X008646Y004341D01*
X008652Y004382D01*
X008662Y004422D01*
X008675Y004461D01*
X008692Y004498D01*
X008713Y004534D01*
X008737Y004568D01*
X008764Y004599D01*
X008793Y004627D01*
X008826Y004653D01*
X008860Y004675D01*
X008897Y004694D01*
X008935Y004709D01*
X008975Y004721D01*
X009015Y004729D01*
X009056Y004733D01*
X009098Y004733D01*
X009139Y004729D01*
X009179Y004721D01*
X009219Y004709D01*
X009257Y004694D01*
X009293Y004675D01*
X009328Y004653D01*
X009361Y004627D01*
X009390Y004599D01*
X009417Y004568D01*
X009441Y004534D01*
X009462Y004498D01*
X009479Y004461D01*
X009492Y004422D01*
X009502Y004382D01*
X009508Y004341D01*
X009510Y004300D01*
X009508Y004259D01*
X009502Y004218D01*
X009492Y004178D01*
X009479Y004139D01*
X009462Y004102D01*
X009441Y004066D01*
X009417Y004032D01*
X009390Y004001D01*
X009361Y003973D01*
X009328Y003947D01*
X009294Y003925D01*
X009257Y003906D01*
X009219Y003891D01*
X009179Y003879D01*
X009139Y003871D01*
X009098Y003867D01*
X009056Y003867D01*
X009015Y003871D01*
X008975Y003879D01*
X008935Y003891D01*
X008897Y003906D01*
X008861Y003925D01*
X008826Y003947D01*
X008793Y003973D01*
X008764Y004001D01*
X008737Y004032D01*
X008713Y004066D01*
X008692Y004102D01*
X008675Y004139D01*
X008662Y004178D01*
X008652Y004218D01*
X008646Y004259D01*
X008644Y004300D01*
D13*
X006140Y002804D03*
X006140Y005796D03*
D14*
X002790Y005350D03*
D15*
X002790Y004350D03*
X002790Y003350D03*
D16*
X002829Y003358D02*
X005158Y003358D01*
X005236Y003279D02*
X003181Y003279D01*
X003187Y003311D02*
X003172Y003234D01*
X003142Y003162D01*
X003099Y003097D01*
X003043Y003041D01*
X002978Y002998D01*
X002906Y002968D01*
X002829Y002953D01*
X002829Y002953D01*
X002829Y003311D01*
X002829Y003389D01*
X002751Y003389D01*
X002751Y003747D01*
X002674Y003732D01*
X002602Y003702D01*
X002537Y003659D01*
X002481Y003603D01*
X002438Y003538D01*
X002408Y003466D01*
X002393Y003389D01*
X002393Y003389D01*
X002751Y003389D01*
X002751Y003311D01*
X002393Y003311D01*
X002408Y003234D01*
X002438Y003162D01*
X002481Y003097D01*
X002537Y003041D01*
X002602Y002998D01*
X002674Y002968D01*
X002751Y002953D01*
X002751Y002953D01*
X002751Y003311D01*
X002829Y003311D01*
X003187Y003311D01*
X003187Y003311D01*
X003187Y003389D02*
X003187Y003389D01*
X003172Y003466D01*
X003142Y003538D01*
X003099Y003603D01*
X003043Y003659D01*
X002978Y003702D01*
X002906Y003732D01*
X002829Y003747D01*
X002829Y003747D01*
X002829Y003389D01*
X003187Y003389D01*
X003178Y003436D02*
X005079Y003436D01*
X005001Y003515D02*
X003152Y003515D01*
X003105Y003593D02*
X004922Y003593D01*
X004844Y003672D02*
X003024Y003672D01*
X002829Y003672D02*
X002751Y003672D01*
X002751Y003747D02*
X002751Y003747D01*
X002751Y003593D02*
X002829Y003593D01*
X002829Y003515D02*
X002751Y003515D01*
X002751Y003436D02*
X002829Y003436D01*
X002751Y003358D02*
X001343Y003358D01*
X001343Y003436D02*
X002402Y003436D01*
X002428Y003515D02*
X001324Y003515D01*
X001329Y003505D02*
X001295Y003565D01*
X001235Y003600D01*
X001222Y003613D01*
X001164Y003613D01*
X001062Y003621D01*
X000870Y003684D01*
X000706Y003803D01*
X000587Y003967D01*
X000524Y004159D01*
X000516Y004261D01*
X000516Y004339D01*
X000524Y004441D01*
X000587Y004633D01*
X000706Y004797D01*
X000870Y004916D01*
X001062Y004979D01*
X001164Y004987D01*
X001222Y004987D01*
X001235Y005000D01*
X001295Y005035D01*
X001329Y005095D01*
X001343Y005108D01*
X001343Y007922D01*
X001349Y007967D01*
X001394Y008046D01*
X001473Y008091D01*
X001518Y008097D01*
X004173Y008097D01*
X004173Y008051D01*
X004264Y007771D01*
X004437Y007534D01*
X004674Y007361D01*
X004674Y007361D01*
X004954Y007270D01*
X005237Y007270D01*
X005326Y007270D01*
X005326Y007270D01*
X005606Y007361D01*
X005843Y007534D01*
X006016Y007771D01*
X006016Y007771D01*
X006107Y008051D01*
X006107Y008097D01*
X008762Y008097D01*
X008807Y008091D01*
X008886Y008046D01*
X008931Y007967D01*
X008937Y007922D01*
X008937Y005108D01*
X008951Y005095D01*
X008985Y005035D01*
X008985Y005035D01*
X009045Y005000D01*
X009058Y004987D01*
X009116Y004987D01*
X009218Y004979D01*
X009410Y004916D01*
X009574Y004797D01*
X009693Y004633D01*
X009756Y004441D01*
X009764Y004339D01*
X009764Y004261D01*
X009756Y004159D01*
X009693Y003967D01*
X009574Y003803D01*
X009410Y003684D01*
X009218Y003621D01*
X009116Y003613D01*
X009058Y003613D01*
X009045Y003600D01*
X008985Y003565D01*
X008951Y003505D01*
X008937Y003492D01*
X008937Y000678D01*
X008931Y000633D01*
X008886Y000554D01*
X008807Y000509D01*
X008762Y000503D01*
X006107Y000503D01*
X006107Y000549D01*
X006016Y000829D01*
X005843Y001066D01*
X005606Y001239D01*
X005606Y001239D01*
X005326Y001330D01*
X004954Y001330D01*
X004674Y001239D01*
X004437Y001066D01*
X004264Y000829D01*
X004264Y000829D01*
X004173Y000549D01*
X004173Y000503D01*
X001518Y000503D01*
X001473Y000509D01*
X001394Y000554D01*
X001349Y000633D01*
X001343Y000678D01*
X001343Y003492D01*
X001329Y003505D01*
X001295Y003565D02*
X001295Y003565D01*
X001246Y003593D02*
X002475Y003593D01*
X002556Y003672D02*
X000906Y003672D01*
X001032Y003750D02*
X000778Y003750D01*
X000864Y003829D02*
X000687Y003829D01*
X000630Y003907D02*
X000785Y003907D01*
X000717Y003975D02*
X000878Y003814D01*
X001089Y003727D01*
X001317Y003727D01*
X001528Y003814D01*
X001689Y003975D01*
X001776Y004186D01*
X001776Y004414D01*
X001689Y004625D01*
X001528Y004786D01*
X001317Y004873D01*
X001089Y004873D01*
X000878Y004786D01*
X000717Y004625D01*
X000630Y004414D01*
X000630Y004186D01*
X000717Y003975D01*
X000713Y003986D02*
X000581Y003986D01*
X000555Y004064D02*
X000680Y004064D01*
X000648Y004143D02*
X000530Y004143D01*
X000519Y004221D02*
X000630Y004221D01*
X000630Y004300D02*
X000516Y004300D01*
X000519Y004379D02*
X000630Y004379D01*
X000648Y004457D02*
X000530Y004457D01*
X000555Y004536D02*
X000680Y004536D01*
X000713Y004614D02*
X000581Y004614D01*
X000630Y004693D02*
X000785Y004693D01*
X000864Y004771D02*
X000687Y004771D01*
X000778Y004850D02*
X001032Y004850D01*
X000906Y004928D02*
X009374Y004928D01*
X009248Y004850D02*
X009502Y004850D01*
X009416Y004771D02*
X009593Y004771D01*
X009650Y004693D02*
X009495Y004693D01*
X009563Y004625D02*
X009402Y004786D01*
X009191Y004873D01*
X008963Y004873D01*
X008752Y004786D01*
X008591Y004625D01*
X008504Y004414D01*
X008504Y004186D01*
X008591Y003975D01*
X008752Y003814D01*
X008963Y003727D01*
X009191Y003727D01*
X009402Y003814D01*
X009563Y003975D01*
X009650Y004186D01*
X009650Y004414D01*
X009563Y004625D01*
X009567Y004614D02*
X009699Y004614D01*
X009725Y004536D02*
X009600Y004536D01*
X009632Y004457D02*
X009750Y004457D01*
X009761Y004379D02*
X009650Y004379D01*
X009650Y004300D02*
X009764Y004300D01*
X009761Y004221D02*
X009650Y004221D01*
X009632Y004143D02*
X009750Y004143D01*
X009725Y004064D02*
X009600Y004064D01*
X009567Y003986D02*
X009699Y003986D01*
X009650Y003907D02*
X009495Y003907D01*
X009416Y003829D02*
X009593Y003829D01*
X009502Y003750D02*
X009248Y003750D01*
X009374Y003672D02*
X005696Y003672D01*
X005618Y003750D02*
X008906Y003750D01*
X008738Y003829D02*
X005539Y003829D01*
X005461Y003907D02*
X008659Y003907D01*
X008587Y003986D02*
X005382Y003986D01*
X005304Y004064D02*
X008554Y004064D01*
X008522Y004143D02*
X005225Y004143D01*
X005208Y004161D02*
X005201Y004163D01*
X004794Y004570D01*
X004710Y004654D01*
X004600Y004700D01*
X002984Y004700D01*
X002869Y004747D01*
X002711Y004747D01*
X002565Y004687D01*
X002453Y004575D01*
X002393Y004429D01*
X002393Y004271D01*
X002453Y004125D01*
X002565Y004013D01*
X002711Y003953D01*
X002869Y003953D01*
X003015Y004013D01*
X003102Y004100D01*
X004416Y004100D01*
X005705Y002811D01*
X005705Y002717D01*
X005771Y002557D01*
X005893Y002435D01*
X006053Y002369D01*
X006227Y002369D01*
X006387Y002435D01*
X006509Y002557D01*
X006575Y002717D01*
X006575Y002891D01*
X006509Y003051D01*
X006387Y003173D01*
X006227Y003239D01*
X006129Y003239D01*
X005208Y004161D01*
X005143Y004221D02*
X008504Y004221D01*
X008504Y004300D02*
X005064Y004300D01*
X004986Y004379D02*
X008504Y004379D01*
X008522Y004457D02*
X004907Y004457D01*
X004829Y004536D02*
X008554Y004536D01*
X008587Y004614D02*
X004750Y004614D01*
X004618Y004693D02*
X008659Y004693D01*
X008738Y004771D02*
X001542Y004771D01*
X001621Y004693D02*
X002578Y004693D01*
X002492Y004614D02*
X001693Y004614D01*
X001726Y004536D02*
X002437Y004536D01*
X002404Y004457D02*
X001758Y004457D01*
X001776Y004379D02*
X002393Y004379D01*
X002393Y004300D02*
X001776Y004300D01*
X001776Y004221D02*
X002413Y004221D01*
X002446Y004143D02*
X001758Y004143D01*
X001726Y004064D02*
X002513Y004064D01*
X002630Y003986D02*
X001693Y003986D01*
X001621Y003907D02*
X004608Y003907D01*
X004687Y003829D02*
X001542Y003829D01*
X001374Y003750D02*
X004765Y003750D01*
X004530Y003986D02*
X002950Y003986D01*
X003067Y004064D02*
X004451Y004064D01*
X005315Y003201D02*
X003159Y003201D01*
X003116Y003122D02*
X005393Y003122D01*
X005472Y003044D02*
X003046Y003044D01*
X002894Y002965D02*
X005550Y002965D01*
X005629Y002887D02*
X001343Y002887D01*
X001343Y002965D02*
X002686Y002965D01*
X002751Y002965D02*
X002829Y002965D01*
X002829Y003044D02*
X002751Y003044D01*
X002751Y003122D02*
X002829Y003122D01*
X002829Y003201D02*
X002751Y003201D01*
X002751Y003279D02*
X002829Y003279D01*
X002534Y003044D02*
X001343Y003044D01*
X001343Y003122D02*
X002464Y003122D01*
X002421Y003201D02*
X001343Y003201D01*
X001343Y003279D02*
X002399Y003279D01*
X002393Y003311D02*
X002393Y003311D01*
X001343Y002808D02*
X005705Y002808D01*
X005705Y002730D02*
X001343Y002730D01*
X001343Y002651D02*
X005732Y002651D01*
X005765Y002573D02*
X001343Y002573D01*
X001343Y002494D02*
X005834Y002494D01*
X005939Y002416D02*
X001343Y002416D01*
X001343Y002337D02*
X008937Y002337D01*
X008937Y002259D02*
X001343Y002259D01*
X001343Y002180D02*
X008937Y002180D01*
X008937Y002102D02*
X001343Y002102D01*
X001343Y002023D02*
X008937Y002023D01*
X008937Y001945D02*
X001343Y001945D01*
X001343Y001866D02*
X008937Y001866D01*
X008937Y001788D02*
X001343Y001788D01*
X001343Y001709D02*
X008937Y001709D01*
X008937Y001631D02*
X001343Y001631D01*
X001343Y001552D02*
X008937Y001552D01*
X008937Y001474D02*
X001343Y001474D01*
X001343Y001395D02*
X008937Y001395D01*
X008937Y001317D02*
X005366Y001317D01*
X005606Y001238D02*
X008937Y001238D01*
X008937Y001160D02*
X005714Y001160D01*
X005822Y001081D02*
X008937Y001081D01*
X008937Y001003D02*
X005889Y001003D01*
X005843Y001066D02*
X005843Y001066D01*
X005843Y001066D01*
X005946Y000924D02*
X008937Y000924D01*
X008937Y000846D02*
X006003Y000846D01*
X006016Y000829D02*
X006016Y000829D01*
X006036Y000767D02*
X008937Y000767D01*
X008937Y000689D02*
X006061Y000689D01*
X006087Y000610D02*
X008918Y000610D01*
X008847Y000532D02*
X006107Y000532D01*
X004914Y001317D02*
X001343Y001317D01*
X001343Y001238D02*
X004674Y001238D01*
X004674Y001239D02*
X004674Y001239D01*
X004566Y001160D02*
X001343Y001160D01*
X001343Y001081D02*
X004458Y001081D01*
X004437Y001066D02*
X004437Y001066D01*
X004437Y001066D01*
X004391Y001003D02*
X001343Y001003D01*
X001343Y000924D02*
X004334Y000924D01*
X004277Y000846D02*
X001343Y000846D01*
X001343Y000767D02*
X004244Y000767D01*
X004219Y000689D02*
X001343Y000689D01*
X001362Y000610D02*
X004193Y000610D01*
X004173Y000532D02*
X001433Y000532D01*
X005775Y003593D02*
X009034Y003593D01*
X008985Y003565D02*
X008985Y003565D01*
X008985Y003565D01*
X008956Y003515D02*
X005853Y003515D01*
X005932Y003436D02*
X008937Y003436D01*
X008937Y003358D02*
X006010Y003358D01*
X006089Y003279D02*
X008937Y003279D01*
X008937Y003201D02*
X006319Y003201D01*
X006437Y003122D02*
X008937Y003122D01*
X008937Y003044D02*
X006512Y003044D01*
X006544Y002965D02*
X008937Y002965D01*
X008937Y002887D02*
X006575Y002887D01*
X006575Y002808D02*
X008937Y002808D01*
X008937Y002730D02*
X006575Y002730D01*
X006548Y002651D02*
X008937Y002651D01*
X008937Y002573D02*
X006515Y002573D01*
X006446Y002494D02*
X008937Y002494D01*
X008937Y002416D02*
X006341Y002416D01*
X008906Y004850D02*
X001374Y004850D01*
X001295Y005035D02*
X001295Y005035D01*
X001295Y005035D01*
X001246Y005007D02*
X002421Y005007D01*
X002393Y005035D02*
X002475Y004953D01*
X003105Y004953D01*
X003187Y005035D01*
X003187Y005665D01*
X003105Y005747D01*
X002475Y005747D01*
X002471Y005744D01*
X002440Y005774D01*
X002440Y006778D01*
X002455Y006793D01*
X002455Y007207D01*
X002362Y007300D01*
X002455Y007393D01*
X002455Y007430D01*
X002625Y007430D01*
X002625Y007392D01*
X002707Y007310D01*
X003273Y007310D01*
X003355Y007392D01*
X003355Y007908D01*
X003273Y007990D01*
X002707Y007990D01*
X002625Y007908D01*
X002625Y007870D01*
X002392Y007870D01*
X002347Y007915D01*
X001933Y007915D01*
X001825Y007807D01*
X001825Y007393D01*
X001918Y007300D01*
X001825Y007207D01*
X001825Y006793D01*
X001840Y006778D01*
X001840Y005590D01*
X001886Y005480D01*
X001970Y005396D01*
X002270Y005096D01*
X002380Y005050D01*
X002393Y005050D01*
X002393Y005035D01*
X002296Y005085D02*
X001324Y005085D01*
X001343Y005164D02*
X002202Y005164D01*
X002124Y005242D02*
X001343Y005242D01*
X001343Y005321D02*
X002045Y005321D01*
X001967Y005399D02*
X001343Y005399D01*
X001343Y005478D02*
X001888Y005478D01*
X001854Y005556D02*
X001343Y005556D01*
X001343Y005635D02*
X001840Y005635D01*
X001840Y005713D02*
X001343Y005713D01*
X001343Y005792D02*
X001840Y005792D01*
X001840Y005870D02*
X001343Y005870D01*
X001343Y005949D02*
X001840Y005949D01*
X001840Y006027D02*
X001343Y006027D01*
X001343Y006106D02*
X001840Y006106D01*
X001840Y006184D02*
X001343Y006184D01*
X001343Y006263D02*
X001840Y006263D01*
X001840Y006341D02*
X001343Y006341D01*
X001343Y006420D02*
X001840Y006420D01*
X001840Y006498D02*
X001343Y006498D01*
X001343Y006577D02*
X001840Y006577D01*
X001840Y006655D02*
X001343Y006655D01*
X001343Y006734D02*
X001840Y006734D01*
X001825Y006812D02*
X001343Y006812D01*
X001343Y006891D02*
X001825Y006891D01*
X001825Y006969D02*
X001343Y006969D01*
X001343Y007048D02*
X001825Y007048D01*
X001825Y007126D02*
X001343Y007126D01*
X001343Y007205D02*
X001825Y007205D01*
X001901Y007283D02*
X001343Y007283D01*
X001343Y007362D02*
X001856Y007362D01*
X001825Y007440D02*
X001343Y007440D01*
X001343Y007519D02*
X001825Y007519D01*
X001825Y007597D02*
X001343Y007597D01*
X001343Y007676D02*
X001825Y007676D01*
X001825Y007754D02*
X001343Y007754D01*
X001343Y007833D02*
X001850Y007833D01*
X001929Y007911D02*
X001343Y007911D01*
X001362Y007990D02*
X002707Y007990D01*
X002628Y007911D02*
X002351Y007911D01*
X002424Y007362D02*
X002655Y007362D01*
X002711Y007280D02*
X002679Y007262D01*
X002653Y007236D01*
X002635Y007204D01*
X002625Y007168D01*
X002625Y006990D01*
X002950Y006990D01*
X002950Y007290D01*
X002747Y007290D01*
X002711Y007280D01*
X002720Y007283D02*
X002379Y007283D01*
X002455Y007205D02*
X002635Y007205D01*
X002625Y007126D02*
X002455Y007126D01*
X002455Y007048D02*
X002625Y007048D01*
X002625Y006910D02*
X002625Y006732D01*
X002635Y006696D01*
X002653Y006664D01*
X002679Y006638D01*
X002711Y006620D01*
X002747Y006610D01*
X002950Y006610D01*
X002950Y006910D01*
X003030Y006910D01*
X003030Y006990D01*
X002950Y006990D01*
X002950Y006910D01*
X002625Y006910D01*
X002625Y006891D02*
X002455Y006891D01*
X002455Y006969D02*
X002950Y006969D01*
X002950Y006891D02*
X003030Y006891D01*
X003030Y006910D02*
X003030Y006610D01*
X003233Y006610D01*
X003269Y006620D01*
X003301Y006638D01*
X003327Y006664D01*
X003345Y006696D01*
X003355Y006732D01*
X003355Y006910D01*
X003030Y006910D01*
X003030Y006969D02*
X003498Y006969D01*
X003507Y006960D02*
X003425Y007042D01*
X003425Y007558D01*
X003507Y007640D01*
X004073Y007640D01*
X004155Y007558D01*
X004155Y007246D01*
X005385Y006016D01*
X005760Y006016D01*
X005771Y006043D01*
X005893Y006165D01*
X006053Y006231D01*
X006227Y006231D01*
X006387Y006165D01*
X006509Y006043D01*
X006575Y005883D01*
X006575Y005709D01*
X006509Y005549D01*
X006387Y005427D01*
X006227Y005361D01*
X006053Y005361D01*
X005893Y005427D01*
X005771Y005549D01*
X005760Y005576D01*
X005203Y005576D01*
X003819Y006960D01*
X003507Y006960D01*
X003425Y007048D02*
X003355Y007048D01*
X003355Y006990D02*
X003355Y007168D01*
X003345Y007204D01*
X003327Y007236D01*
X003301Y007262D01*
X003269Y007280D01*
X003233Y007290D01*
X003030Y007290D01*
X003030Y006990D01*
X003355Y006990D01*
X003355Y006891D02*
X003888Y006891D01*
X003967Y006812D02*
X003355Y006812D01*
X003355Y006734D02*
X004045Y006734D01*
X004124Y006655D02*
X003318Y006655D01*
X003030Y006655D02*
X002950Y006655D01*
X002950Y006734D02*
X003030Y006734D01*
X003030Y006812D02*
X002950Y006812D01*
X002950Y007048D02*
X003030Y007048D01*
X003030Y007126D02*
X002950Y007126D01*
X002950Y007205D02*
X003030Y007205D01*
X003030Y007283D02*
X002950Y007283D01*
X003260Y007283D02*
X003425Y007283D01*
X003425Y007205D02*
X003345Y007205D01*
X003355Y007126D02*
X003425Y007126D01*
X003425Y007362D02*
X003324Y007362D01*
X003355Y007440D02*
X003425Y007440D01*
X003425Y007519D02*
X003355Y007519D01*
X003355Y007597D02*
X003464Y007597D01*
X003355Y007676D02*
X004334Y007676D01*
X004277Y007754D02*
X003355Y007754D01*
X003355Y007833D02*
X004244Y007833D01*
X004264Y007771D02*
X004264Y007771D01*
X004219Y007911D02*
X003352Y007911D01*
X003273Y007990D02*
X004193Y007990D01*
X004173Y008068D02*
X001433Y008068D01*
X002455Y006812D02*
X002625Y006812D01*
X002625Y006734D02*
X002440Y006734D01*
X002440Y006655D02*
X002662Y006655D01*
X002440Y006577D02*
X004202Y006577D01*
X004281Y006498D02*
X002440Y006498D01*
X002440Y006420D02*
X004359Y006420D01*
X004438Y006341D02*
X002440Y006341D01*
X002440Y006263D02*
X004516Y006263D01*
X004595Y006184D02*
X002440Y006184D01*
X002440Y006106D02*
X004673Y006106D01*
X004752Y006027D02*
X002440Y006027D01*
X002440Y005949D02*
X004830Y005949D01*
X004909Y005870D02*
X002440Y005870D01*
X002440Y005792D02*
X004987Y005792D01*
X005066Y005713D02*
X003140Y005713D01*
X003187Y005635D02*
X005144Y005635D01*
X005374Y006027D02*
X005765Y006027D01*
X005834Y006106D02*
X005296Y006106D01*
X005217Y006184D02*
X005939Y006184D01*
X006341Y006184D02*
X008937Y006184D01*
X008937Y006106D02*
X006446Y006106D01*
X006515Y006027D02*
X008937Y006027D01*
X008937Y005949D02*
X006548Y005949D01*
X006575Y005870D02*
X008937Y005870D01*
X008937Y005792D02*
X006575Y005792D01*
X006575Y005713D02*
X008937Y005713D01*
X008937Y005635D02*
X006544Y005635D01*
X006512Y005556D02*
X008937Y005556D01*
X008937Y005478D02*
X006437Y005478D01*
X006319Y005399D02*
X008937Y005399D01*
X008937Y005321D02*
X003187Y005321D01*
X003187Y005399D02*
X005961Y005399D01*
X005843Y005478D02*
X003187Y005478D01*
X003187Y005556D02*
X005768Y005556D01*
X005139Y006263D02*
X008937Y006263D01*
X008937Y006341D02*
X005060Y006341D01*
X004982Y006420D02*
X008937Y006420D01*
X008937Y006498D02*
X004903Y006498D01*
X004825Y006577D02*
X008937Y006577D01*
X008937Y006655D02*
X004746Y006655D01*
X004668Y006734D02*
X008937Y006734D01*
X008937Y006812D02*
X004589Y006812D01*
X004511Y006891D02*
X008937Y006891D01*
X008937Y006969D02*
X004432Y006969D01*
X004354Y007048D02*
X008937Y007048D01*
X008937Y007126D02*
X004275Y007126D01*
X004197Y007205D02*
X008937Y007205D01*
X008937Y007283D02*
X005366Y007283D01*
X005606Y007361D02*
X005606Y007361D01*
X005606Y007362D02*
X008937Y007362D01*
X008937Y007440D02*
X005714Y007440D01*
X005822Y007519D02*
X008937Y007519D01*
X008937Y007597D02*
X005889Y007597D01*
X005843Y007534D02*
X005843Y007534D01*
X005843Y007534D01*
X005946Y007676D02*
X008937Y007676D01*
X008937Y007754D02*
X006003Y007754D01*
X006036Y007833D02*
X008937Y007833D01*
X008937Y007911D02*
X006061Y007911D01*
X006087Y007990D02*
X008918Y007990D01*
X008847Y008068D02*
X006107Y008068D01*
X004914Y007283D02*
X004155Y007283D01*
X004155Y007362D02*
X004674Y007362D01*
X004566Y007440D02*
X004155Y007440D01*
X004155Y007519D02*
X004458Y007519D01*
X004437Y007534D02*
X004437Y007534D01*
X004437Y007534D01*
X004391Y007597D02*
X004116Y007597D01*
X003187Y005242D02*
X008937Y005242D01*
X008937Y005164D02*
X003187Y005164D01*
X003187Y005085D02*
X008956Y005085D01*
X009034Y005007D02*
X003159Y005007D01*
D17*
X003890Y006300D03*
X007140Y006050D03*
X007140Y002800D03*
X003890Y001550D03*
D18*
X006136Y002804D02*
X004540Y004400D01*
X002840Y004400D01*
X002790Y004350D01*
X002790Y005350D02*
X002440Y005350D01*
X002140Y005650D01*
X002140Y007000D01*
X005038Y003906D02*
X006140Y002804D01*
X006136Y002804D01*
D19*
X006140Y005796D02*
X005294Y005796D01*
X003790Y007300D01*
X002990Y007650D02*
X002140Y007650D01*
X002140Y007600D01*
M02*
