G75*
%MOIN*%
%OFA0B0*%
%FSLAX25Y25*%
%IPPOS*%
%LPD*%
%AMOC8*
5,1,8,0,0,1.08239X$1,22.5*
%
%ADD10C,0.00600*%
%ADD11R,0.00500X0.00100*%
%ADD12R,0.01600X0.00100*%
%ADD13R,0.00400X0.00100*%
%ADD14R,0.01800X0.00100*%
%ADD15R,0.01900X0.00100*%
%ADD16R,0.02100X0.00100*%
%ADD17R,0.02200X0.00100*%
%ADD18R,0.00100X0.00100*%
%ADD19R,0.00600X0.00100*%
%ADD20R,0.01100X0.00100*%
%ADD21R,0.02600X0.00100*%
%ADD22R,0.03400X0.00100*%
%ADD23R,0.00900X0.00100*%
%ADD24R,0.02800X0.00100*%
%ADD25R,0.01700X0.00100*%
%ADD26R,0.02900X0.00100*%
%ADD27R,0.00300X0.00100*%
%ADD28R,0.02500X0.00100*%
%ADD29R,0.00200X0.00100*%
%ADD30R,0.00800X0.00100*%
%ADD31R,0.01400X0.00100*%
%ADD32R,0.01500X0.00100*%
%ADD33R,0.01300X0.00100*%
%ADD34R,0.01000X0.00100*%
%ADD35R,0.00700X0.00100*%
%ADD36R,0.03100X0.00100*%
%ADD37R,0.01200X0.00100*%
%ADD38R,0.05900X0.00100*%
%ADD39R,0.02000X0.00100*%
%ADD40R,0.02400X0.00100*%
%ADD41C,0.00500*%
%ADD42C,0.00400*%
%ADD43C,0.00000*%
%ADD44C,0.01000*%
D10*
X0059200Y0013902D02*
X0062136Y0013902D01*
X0060668Y0015370D02*
X0060668Y0012434D01*
D11*
X0063400Y0068200D03*
X0063400Y0068300D03*
X0063400Y0068400D03*
X0063400Y0068500D03*
X0063400Y0068600D03*
X0063400Y0068700D03*
X0063400Y0068800D03*
X0063400Y0068900D03*
X0063400Y0069000D03*
X0063400Y0069100D03*
X0063400Y0069200D03*
X0063400Y0069700D03*
X0063400Y0069800D03*
X0063400Y0069900D03*
X0063400Y0070000D03*
X0063400Y0070500D03*
X0063400Y0070600D03*
X0063400Y0070700D03*
X0063400Y0070800D03*
X0063400Y0070900D03*
X0063400Y0071400D03*
X0063400Y0071500D03*
X0063400Y0071600D03*
X0063400Y0071700D03*
X0063400Y0071800D03*
X0063000Y0072700D03*
X0062900Y0072800D03*
X0062800Y0072900D03*
X0062100Y0073000D03*
X0061900Y0072700D03*
X0062700Y0074000D03*
X0064100Y0072900D03*
X0064200Y0073000D03*
X0064400Y0073300D03*
X0064500Y0073400D03*
X0066000Y0073100D03*
X0066000Y0073000D03*
X0066000Y0072900D03*
X0066000Y0072800D03*
X0066000Y0072700D03*
X0066000Y0072600D03*
X0066000Y0072500D03*
X0066000Y0072400D03*
X0066000Y0072300D03*
X0066000Y0072200D03*
X0066000Y0072100D03*
X0066000Y0072000D03*
X0066000Y0071900D03*
X0066000Y0071800D03*
X0066000Y0071700D03*
X0066000Y0071600D03*
X0066000Y0071500D03*
X0066000Y0071400D03*
X0066000Y0071300D03*
X0066000Y0071200D03*
X0066000Y0071100D03*
X0066000Y0071000D03*
X0066000Y0070900D03*
X0066000Y0070800D03*
X0066000Y0070700D03*
X0066000Y0070600D03*
X0066000Y0070500D03*
X0066000Y0070400D03*
X0066000Y0070300D03*
X0066000Y0070200D03*
X0066000Y0070100D03*
X0066000Y0070000D03*
X0066000Y0069500D03*
X0066000Y0069400D03*
X0066000Y0069300D03*
X0066000Y0069200D03*
X0067200Y0069200D03*
X0067200Y0069300D03*
X0067200Y0069400D03*
X0067200Y0069500D03*
X0067200Y0070000D03*
X0067200Y0070100D03*
X0067200Y0070200D03*
X0067200Y0070300D03*
X0067200Y0070400D03*
X0067200Y0070500D03*
X0067200Y0070600D03*
X0067200Y0070700D03*
X0067200Y0070800D03*
X0067200Y0070900D03*
X0067200Y0071000D03*
X0067200Y0071100D03*
X0067200Y0071200D03*
X0067200Y0071300D03*
X0067200Y0071400D03*
X0067200Y0071500D03*
X0067200Y0071600D03*
X0067200Y0071700D03*
X0067200Y0071800D03*
X0067200Y0071900D03*
X0067200Y0072000D03*
X0067200Y0072100D03*
X0067200Y0072200D03*
X0067200Y0072300D03*
X0067200Y0072400D03*
X0067200Y0072500D03*
X0067200Y0072600D03*
X0067200Y0072700D03*
X0067200Y0072800D03*
X0067200Y0072900D03*
X0067200Y0073000D03*
X0067200Y0073100D03*
X0068300Y0073100D03*
X0068300Y0073000D03*
X0068300Y0072900D03*
X0068300Y0072800D03*
X0068300Y0072700D03*
X0068300Y0072600D03*
X0068300Y0072500D03*
X0068300Y0072400D03*
X0068300Y0072300D03*
X0068300Y0072200D03*
X0068300Y0072100D03*
X0068300Y0072000D03*
X0068300Y0071900D03*
X0068300Y0071800D03*
X0068300Y0071700D03*
X0068300Y0071600D03*
X0068300Y0071500D03*
X0068300Y0071400D03*
X0068300Y0071300D03*
X0068300Y0071200D03*
X0068300Y0071100D03*
X0069600Y0072300D03*
X0069400Y0072600D03*
X0069300Y0072700D03*
X0069100Y0073600D03*
X0069100Y0073700D03*
X0069200Y0073800D03*
X0069200Y0073900D03*
X0069300Y0074100D03*
X0070900Y0073100D03*
X0070900Y0073000D03*
X0070900Y0072900D03*
X0070900Y0072800D03*
X0070900Y0072700D03*
X0070900Y0072600D03*
X0070900Y0072500D03*
X0070900Y0072400D03*
X0070900Y0072300D03*
X0070900Y0072200D03*
X0070900Y0072100D03*
X0070900Y0072000D03*
X0071200Y0070300D03*
X0071200Y0070200D03*
X0071200Y0070100D03*
X0071200Y0070000D03*
X0071200Y0069900D03*
X0071200Y0069800D03*
X0071200Y0069700D03*
X0071200Y0069600D03*
X0071200Y0069500D03*
X0071200Y0069400D03*
X0071100Y0069000D03*
X0071100Y0068900D03*
X0074600Y0071200D03*
X0075200Y0071200D03*
X0075300Y0071100D03*
X0074900Y0071900D03*
X0074900Y0072000D03*
X0074900Y0072100D03*
X0061500Y0068900D03*
X0061300Y0069500D03*
X0061200Y0069800D03*
X0061100Y0070100D03*
D12*
X0069950Y0068300D03*
X0073050Y0070500D03*
D13*
X0072550Y0069700D03*
X0072550Y0069600D03*
X0072550Y0069500D03*
X0072550Y0069400D03*
X0072550Y0069300D03*
X0072550Y0069200D03*
X0072550Y0069100D03*
X0072550Y0069000D03*
X0072550Y0068500D03*
X0072550Y0068400D03*
X0072550Y0068300D03*
X0071150Y0069100D03*
X0071150Y0069200D03*
X0071150Y0069300D03*
X0071250Y0070400D03*
X0071250Y0070500D03*
X0071250Y0070600D03*
X0072550Y0072100D03*
X0072550Y0072200D03*
X0072550Y0072300D03*
X0072550Y0072800D03*
X0072550Y0072900D03*
X0072550Y0073000D03*
X0072550Y0073100D03*
X0072550Y0073200D03*
X0072550Y0073300D03*
X0072550Y0073400D03*
X0072550Y0073500D03*
X0074350Y0073500D03*
X0074350Y0073400D03*
X0074350Y0073300D03*
X0074350Y0073200D03*
X0074350Y0073100D03*
X0074350Y0073000D03*
X0074350Y0072900D03*
X0074350Y0072800D03*
X0074350Y0072300D03*
X0074350Y0072200D03*
X0074850Y0072200D03*
X0074850Y0071800D03*
X0074850Y0071700D03*
X0075450Y0072200D03*
X0075450Y0072300D03*
X0075450Y0072800D03*
X0075450Y0072900D03*
X0075450Y0073000D03*
X0075450Y0073100D03*
X0075450Y0073200D03*
X0075450Y0073300D03*
X0075450Y0073400D03*
X0075450Y0073500D03*
X0076150Y0072200D03*
X0076550Y0071700D03*
X0077250Y0072100D03*
X0077250Y0072200D03*
X0077250Y0072300D03*
X0077250Y0072800D03*
X0077250Y0072900D03*
X0077250Y0073000D03*
X0077250Y0073100D03*
X0077250Y0073200D03*
X0077250Y0073300D03*
X0077250Y0073400D03*
X0077250Y0073500D03*
X0077250Y0069700D03*
X0077250Y0069600D03*
X0077250Y0069500D03*
X0077250Y0069400D03*
X0077250Y0069300D03*
X0077250Y0069200D03*
X0077250Y0069100D03*
X0077250Y0069000D03*
X0077250Y0068500D03*
X0077250Y0068400D03*
X0077250Y0068300D03*
X0075450Y0068300D03*
X0075450Y0068400D03*
X0075450Y0068500D03*
X0075450Y0069000D03*
X0075450Y0069100D03*
X0075450Y0069200D03*
X0075450Y0069300D03*
X0075450Y0069400D03*
X0075450Y0069500D03*
X0075450Y0069600D03*
X0075450Y0069700D03*
X0074350Y0069700D03*
X0074350Y0069600D03*
X0074350Y0069500D03*
X0074350Y0069400D03*
X0074350Y0069300D03*
X0074350Y0069200D03*
X0074350Y0069100D03*
X0074350Y0069000D03*
X0074350Y0068500D03*
X0074350Y0068400D03*
X0074350Y0068300D03*
X0062750Y0073000D03*
X0061250Y0072700D03*
X0061250Y0072600D03*
X0061250Y0072500D03*
X0061250Y0072400D03*
X0061250Y0072300D03*
X0061250Y0072200D03*
X0061250Y0072100D03*
X0061250Y0072000D03*
X0061250Y0071900D03*
X0061250Y0071800D03*
X0061250Y0071700D03*
X0061250Y0071600D03*
X0061250Y0071500D03*
X0061250Y0071400D03*
X0061250Y0071300D03*
X0061250Y0071200D03*
X0060350Y0071200D03*
X0060350Y0071300D03*
X0060350Y0071400D03*
X0060350Y0071500D03*
X0060350Y0071600D03*
X0060350Y0071700D03*
X0060350Y0071800D03*
X0060350Y0071900D03*
X0060350Y0072000D03*
X0060350Y0072100D03*
X0060350Y0072200D03*
X0060350Y0072300D03*
X0060350Y0072400D03*
X0060350Y0072500D03*
X0060350Y0072600D03*
X0060350Y0072700D03*
X0060350Y0073200D03*
X0060350Y0073300D03*
X0060350Y0073400D03*
X0060350Y0073500D03*
X0060350Y0073600D03*
X0060350Y0073700D03*
X0060350Y0073800D03*
X0060350Y0073900D03*
X0060350Y0074000D03*
X0060350Y0074100D03*
X0060350Y0074200D03*
X0059550Y0072700D03*
X0059550Y0072600D03*
X0059550Y0072500D03*
X0059550Y0072400D03*
X0059550Y0072300D03*
X0059550Y0072200D03*
X0059550Y0072100D03*
X0059550Y0072000D03*
X0059550Y0071900D03*
X0059550Y0071800D03*
X0059550Y0071700D03*
X0059550Y0071600D03*
X0059550Y0071500D03*
X0059550Y0071400D03*
X0059550Y0071300D03*
X0059550Y0071200D03*
X0059550Y0070700D03*
X0059550Y0070600D03*
X0059550Y0070500D03*
X0060350Y0070500D03*
X0060350Y0070600D03*
X0060350Y0070700D03*
X0060350Y0070400D03*
X0060350Y0070300D03*
X0060350Y0070200D03*
X0060350Y0070100D03*
X0060350Y0070000D03*
X0060350Y0069900D03*
X0060350Y0069800D03*
X0060350Y0069700D03*
X0060350Y0069600D03*
X0060350Y0069500D03*
X0060350Y0069400D03*
X0061250Y0069600D03*
X0061250Y0069700D03*
X0061150Y0069900D03*
X0061150Y0070000D03*
X0061450Y0069000D03*
X0061550Y0068800D03*
X0059250Y0068800D03*
D14*
X0059950Y0069000D03*
X0070050Y0068400D03*
X0072650Y0070400D03*
X0077050Y0070400D03*
D15*
X0070100Y0068500D03*
X0060600Y0069300D03*
D16*
X0060400Y0070800D03*
X0060400Y0070900D03*
X0060400Y0071000D03*
X0060400Y0071100D03*
X0060400Y0072800D03*
X0060400Y0072900D03*
X0060400Y0073000D03*
X0060400Y0073100D03*
X0070100Y0068600D03*
D17*
X0070150Y0068700D03*
X0073450Y0068700D03*
X0073450Y0068600D03*
X0073450Y0068800D03*
X0073450Y0068900D03*
X0073450Y0069800D03*
X0073450Y0069900D03*
X0073450Y0070000D03*
X0073450Y0070100D03*
X0073450Y0072400D03*
X0073450Y0072500D03*
X0073450Y0072600D03*
X0073450Y0072700D03*
X0073450Y0073600D03*
X0073450Y0073700D03*
X0073450Y0073800D03*
X0073450Y0073900D03*
X0076350Y0073900D03*
X0076350Y0073800D03*
X0076350Y0073700D03*
X0076350Y0073600D03*
X0076350Y0072700D03*
X0076350Y0072600D03*
X0076350Y0072500D03*
X0076350Y0072400D03*
X0076950Y0070500D03*
X0076350Y0070000D03*
X0076350Y0069900D03*
X0076350Y0069800D03*
X0076350Y0068900D03*
X0076350Y0068800D03*
X0076350Y0068700D03*
X0076350Y0068600D03*
D18*
X0076100Y0072300D03*
X0069600Y0072100D03*
X0069300Y0072900D03*
X0061900Y0072400D03*
X0061400Y0068700D03*
D19*
X0061850Y0072600D03*
X0061950Y0072800D03*
X0062050Y0072900D03*
X0062450Y0073400D03*
X0062650Y0073900D03*
X0062750Y0074100D03*
X0064250Y0073100D03*
X0064350Y0073200D03*
X0064050Y0072800D03*
X0063050Y0072600D03*
X0069250Y0074000D03*
X0069450Y0072500D03*
X0069550Y0072400D03*
X0070850Y0071900D03*
X0070950Y0068800D03*
X0074350Y0071000D03*
X0074450Y0071100D03*
X0075450Y0071000D03*
X0076550Y0071800D03*
X0076150Y0072100D03*
D20*
X0064600Y0071800D03*
X0064200Y0072000D03*
X0062700Y0072000D03*
X0059600Y0068900D03*
D21*
X0060350Y0069100D03*
X0060350Y0069200D03*
X0063450Y0073500D03*
D22*
X0063450Y0069600D03*
X0063450Y0069500D03*
X0063450Y0069400D03*
X0063450Y0069300D03*
X0069750Y0070700D03*
X0069750Y0070800D03*
X0069750Y0070900D03*
X0069750Y0071000D03*
D23*
X0074000Y0070800D03*
X0077400Y0070200D03*
X0063400Y0072400D03*
X0062400Y0073200D03*
X0062100Y0071700D03*
X0061100Y0069400D03*
D24*
X0069150Y0069500D03*
X0069150Y0069600D03*
X0069150Y0069700D03*
X0069150Y0069800D03*
D25*
X0070200Y0071600D03*
X0070200Y0071700D03*
X0066600Y0073200D03*
X0066600Y0073300D03*
X0066600Y0073400D03*
X0066600Y0073500D03*
X0066600Y0069900D03*
X0066600Y0069800D03*
X0066600Y0069700D03*
X0066600Y0069600D03*
D26*
X0063400Y0070100D03*
X0063400Y0070200D03*
X0063400Y0070300D03*
X0063400Y0070400D03*
D27*
X0064900Y0071600D03*
X0061900Y0072500D03*
X0069300Y0072800D03*
X0069600Y0072200D03*
X0072100Y0070100D03*
D28*
X0076500Y0070100D03*
X0063500Y0073600D03*
X0063500Y0073700D03*
D29*
X0062650Y0074200D03*
X0061850Y0071500D03*
X0061150Y0070200D03*
X0068250Y0072300D03*
X0069450Y0071800D03*
D30*
X0072350Y0070200D03*
X0075750Y0070800D03*
D31*
X0072550Y0070300D03*
X0070150Y0071400D03*
X0064550Y0071900D03*
X0063450Y0072200D03*
D32*
X0070200Y0071500D03*
X0077200Y0070300D03*
D33*
X0076300Y0070600D03*
X0073400Y0070600D03*
X0062200Y0071800D03*
D34*
X0063450Y0072300D03*
X0062450Y0073100D03*
X0073750Y0070700D03*
X0075950Y0070700D03*
D35*
X0075600Y0070900D03*
X0076400Y0071900D03*
X0076300Y0072000D03*
X0074200Y0070900D03*
X0070800Y0071800D03*
X0064700Y0071700D03*
X0063800Y0072600D03*
X0063900Y0072700D03*
X0062400Y0073300D03*
X0062000Y0071600D03*
D36*
X0063400Y0071300D03*
X0063400Y0071200D03*
X0063400Y0071100D03*
X0063400Y0071000D03*
X0069600Y0073200D03*
X0069600Y0073300D03*
X0069600Y0073400D03*
X0069600Y0073500D03*
D37*
X0070050Y0071300D03*
X0063450Y0072500D03*
X0062450Y0071900D03*
D38*
X0074900Y0071600D03*
X0074900Y0071500D03*
X0074900Y0071400D03*
X0074900Y0071300D03*
D39*
X0063450Y0072100D03*
D40*
X0063550Y0073800D03*
D41*
X0040400Y0061900D02*
X0040400Y0051900D01*
X0037900Y0051900D01*
X0037900Y0061900D01*
X0040400Y0061900D01*
X0037900Y0061900D02*
X0017900Y0061900D01*
X0017900Y0021900D01*
X0037900Y0021900D01*
X0040400Y0021900D01*
X0040400Y0031900D01*
X0037900Y0031900D01*
X0037900Y0051900D01*
X0036400Y0065650D02*
X0032900Y0065650D01*
X0036400Y0065650D02*
X0036400Y0068650D01*
X0031400Y0070650D02*
X0031400Y0072150D01*
X0036400Y0074150D02*
X0036400Y0077150D01*
X0032900Y0077150D01*
X0023900Y0076900D02*
X0023900Y0065900D01*
X0018900Y0065900D01*
X0018900Y0076900D01*
X0023900Y0076900D01*
X0056282Y0041400D02*
X0056284Y0041543D01*
X0056290Y0041686D01*
X0056300Y0041828D01*
X0056314Y0041970D01*
X0056332Y0042112D01*
X0056354Y0042254D01*
X0056379Y0042394D01*
X0056409Y0042534D01*
X0056443Y0042673D01*
X0056480Y0042811D01*
X0056522Y0042948D01*
X0056567Y0043083D01*
X0056616Y0043217D01*
X0056668Y0043350D01*
X0056724Y0043482D01*
X0056784Y0043611D01*
X0056848Y0043739D01*
X0056915Y0043866D01*
X0056986Y0043990D01*
X0057060Y0044112D01*
X0057137Y0044232D01*
X0057218Y0044350D01*
X0057302Y0044466D01*
X0057389Y0044579D01*
X0057479Y0044690D01*
X0057573Y0044798D01*
X0057669Y0044904D01*
X0057768Y0045006D01*
X0057871Y0045106D01*
X0057975Y0045203D01*
X0058083Y0045298D01*
X0058193Y0045389D01*
X0058306Y0045477D01*
X0058421Y0045561D01*
X0058538Y0045643D01*
X0058658Y0045721D01*
X0058779Y0045796D01*
X0058903Y0045868D01*
X0059029Y0045936D01*
X0059156Y0046000D01*
X0059286Y0046061D01*
X0059417Y0046118D01*
X0059549Y0046172D01*
X0059683Y0046221D01*
X0059818Y0046268D01*
X0059955Y0046310D01*
X0060093Y0046348D01*
X0060231Y0046383D01*
X0060371Y0046413D01*
X0060511Y0046440D01*
X0060652Y0046463D01*
X0060794Y0046482D01*
X0060936Y0046497D01*
X0061079Y0046508D01*
X0061221Y0046515D01*
X0061364Y0046518D01*
X0061507Y0046517D01*
X0061650Y0046512D01*
X0061793Y0046503D01*
X0061935Y0046490D01*
X0062077Y0046473D01*
X0062218Y0046452D01*
X0062359Y0046427D01*
X0062499Y0046399D01*
X0062638Y0046366D01*
X0062776Y0046329D01*
X0062913Y0046289D01*
X0063049Y0046245D01*
X0063184Y0046197D01*
X0063317Y0046145D01*
X0063449Y0046090D01*
X0063579Y0046031D01*
X0063708Y0045968D01*
X0063834Y0045902D01*
X0063959Y0045832D01*
X0064082Y0045759D01*
X0064202Y0045683D01*
X0064321Y0045603D01*
X0064437Y0045519D01*
X0064551Y0045433D01*
X0064662Y0045343D01*
X0064771Y0045251D01*
X0064877Y0045155D01*
X0064981Y0045057D01*
X0065082Y0044955D01*
X0065179Y0044851D01*
X0065274Y0044744D01*
X0065366Y0044635D01*
X0065455Y0044523D01*
X0065541Y0044408D01*
X0065623Y0044292D01*
X0065702Y0044172D01*
X0065778Y0044051D01*
X0065850Y0043928D01*
X0065919Y0043803D01*
X0065984Y0043676D01*
X0066046Y0043547D01*
X0066104Y0043416D01*
X0066159Y0043284D01*
X0066209Y0043150D01*
X0066256Y0043015D01*
X0066300Y0042879D01*
X0066339Y0042742D01*
X0066374Y0042603D01*
X0066406Y0042464D01*
X0066434Y0042324D01*
X0066458Y0042183D01*
X0066478Y0042041D01*
X0066494Y0041899D01*
X0066506Y0041757D01*
X0066514Y0041614D01*
X0066518Y0041471D01*
X0066518Y0041329D01*
X0066514Y0041186D01*
X0066506Y0041043D01*
X0066494Y0040901D01*
X0066478Y0040759D01*
X0066458Y0040617D01*
X0066434Y0040476D01*
X0066406Y0040336D01*
X0066374Y0040197D01*
X0066339Y0040058D01*
X0066300Y0039921D01*
X0066256Y0039785D01*
X0066209Y0039650D01*
X0066159Y0039516D01*
X0066104Y0039384D01*
X0066046Y0039253D01*
X0065984Y0039124D01*
X0065919Y0038997D01*
X0065850Y0038872D01*
X0065778Y0038749D01*
X0065702Y0038628D01*
X0065623Y0038508D01*
X0065541Y0038392D01*
X0065455Y0038277D01*
X0065366Y0038165D01*
X0065274Y0038056D01*
X0065179Y0037949D01*
X0065082Y0037845D01*
X0064981Y0037743D01*
X0064877Y0037645D01*
X0064771Y0037549D01*
X0064662Y0037457D01*
X0064551Y0037367D01*
X0064437Y0037281D01*
X0064321Y0037197D01*
X0064202Y0037117D01*
X0064082Y0037041D01*
X0063959Y0036968D01*
X0063834Y0036898D01*
X0063708Y0036832D01*
X0063579Y0036769D01*
X0063449Y0036710D01*
X0063317Y0036655D01*
X0063184Y0036603D01*
X0063049Y0036555D01*
X0062913Y0036511D01*
X0062776Y0036471D01*
X0062638Y0036434D01*
X0062499Y0036401D01*
X0062359Y0036373D01*
X0062218Y0036348D01*
X0062077Y0036327D01*
X0061935Y0036310D01*
X0061793Y0036297D01*
X0061650Y0036288D01*
X0061507Y0036283D01*
X0061364Y0036282D01*
X0061221Y0036285D01*
X0061079Y0036292D01*
X0060936Y0036303D01*
X0060794Y0036318D01*
X0060652Y0036337D01*
X0060511Y0036360D01*
X0060371Y0036387D01*
X0060231Y0036417D01*
X0060093Y0036452D01*
X0059955Y0036490D01*
X0059818Y0036532D01*
X0059683Y0036579D01*
X0059549Y0036628D01*
X0059417Y0036682D01*
X0059286Y0036739D01*
X0059156Y0036800D01*
X0059029Y0036864D01*
X0058903Y0036932D01*
X0058779Y0037004D01*
X0058658Y0037079D01*
X0058538Y0037157D01*
X0058421Y0037239D01*
X0058306Y0037323D01*
X0058193Y0037411D01*
X0058083Y0037502D01*
X0057975Y0037597D01*
X0057871Y0037694D01*
X0057768Y0037794D01*
X0057669Y0037896D01*
X0057573Y0038002D01*
X0057479Y0038110D01*
X0057389Y0038221D01*
X0057302Y0038334D01*
X0057218Y0038450D01*
X0057137Y0038568D01*
X0057060Y0038688D01*
X0056986Y0038810D01*
X0056915Y0038934D01*
X0056848Y0039061D01*
X0056784Y0039189D01*
X0056724Y0039318D01*
X0056668Y0039450D01*
X0056616Y0039583D01*
X0056567Y0039717D01*
X0056522Y0039852D01*
X0056480Y0039989D01*
X0056443Y0040127D01*
X0056409Y0040266D01*
X0056379Y0040406D01*
X0056354Y0040546D01*
X0056332Y0040688D01*
X0056314Y0040830D01*
X0056300Y0040972D01*
X0056290Y0041114D01*
X0056284Y0041257D01*
X0056282Y0041400D01*
X0037778Y0041400D02*
X0037785Y0041980D01*
X0037806Y0042559D01*
X0037842Y0043138D01*
X0037892Y0043715D01*
X0037956Y0044292D01*
X0038034Y0044866D01*
X0038126Y0045438D01*
X0038232Y0046008D01*
X0038352Y0046576D01*
X0038486Y0047140D01*
X0038634Y0047700D01*
X0038795Y0048257D01*
X0038970Y0048810D01*
X0039159Y0049358D01*
X0039361Y0049901D01*
X0039576Y0050440D01*
X0039805Y0050973D01*
X0040046Y0051500D01*
X0040300Y0052021D01*
X0040567Y0052535D01*
X0040847Y0053043D01*
X0041139Y0053544D01*
X0041443Y0054038D01*
X0041759Y0054524D01*
X0042087Y0055002D01*
X0042427Y0055472D01*
X0042778Y0055933D01*
X0043140Y0056386D01*
X0043513Y0056829D01*
X0043897Y0057264D01*
X0044292Y0057688D01*
X0044697Y0058103D01*
X0045112Y0058508D01*
X0045536Y0058903D01*
X0045971Y0059287D01*
X0046414Y0059660D01*
X0046867Y0060022D01*
X0047328Y0060373D01*
X0047798Y0060713D01*
X0048276Y0061041D01*
X0048762Y0061357D01*
X0049256Y0061661D01*
X0049757Y0061953D01*
X0050265Y0062233D01*
X0050779Y0062500D01*
X0051300Y0062754D01*
X0051827Y0062995D01*
X0052360Y0063224D01*
X0052899Y0063439D01*
X0053442Y0063641D01*
X0053990Y0063830D01*
X0054543Y0064005D01*
X0055100Y0064166D01*
X0055660Y0064314D01*
X0056224Y0064448D01*
X0056792Y0064568D01*
X0057362Y0064674D01*
X0057934Y0064766D01*
X0058508Y0064844D01*
X0059085Y0064908D01*
X0059662Y0064958D01*
X0060241Y0064994D01*
X0060820Y0065015D01*
X0061400Y0065022D01*
X0061980Y0065015D01*
X0062559Y0064994D01*
X0063138Y0064958D01*
X0063715Y0064908D01*
X0064292Y0064844D01*
X0064866Y0064766D01*
X0065438Y0064674D01*
X0066008Y0064568D01*
X0066576Y0064448D01*
X0067140Y0064314D01*
X0067700Y0064166D01*
X0068257Y0064005D01*
X0068810Y0063830D01*
X0069358Y0063641D01*
X0069901Y0063439D01*
X0070440Y0063224D01*
X0070973Y0062995D01*
X0071500Y0062754D01*
X0072021Y0062500D01*
X0072535Y0062233D01*
X0073043Y0061953D01*
X0073544Y0061661D01*
X0074038Y0061357D01*
X0074524Y0061041D01*
X0075002Y0060713D01*
X0075472Y0060373D01*
X0075933Y0060022D01*
X0076386Y0059660D01*
X0076829Y0059287D01*
X0077264Y0058903D01*
X0077688Y0058508D01*
X0078103Y0058103D01*
X0078508Y0057688D01*
X0078903Y0057264D01*
X0079287Y0056829D01*
X0079660Y0056386D01*
X0080022Y0055933D01*
X0080373Y0055472D01*
X0080713Y0055002D01*
X0081041Y0054524D01*
X0081357Y0054038D01*
X0081661Y0053544D01*
X0081953Y0053043D01*
X0082233Y0052535D01*
X0082500Y0052021D01*
X0082754Y0051500D01*
X0082995Y0050973D01*
X0083224Y0050440D01*
X0083439Y0049901D01*
X0083641Y0049358D01*
X0083830Y0048810D01*
X0084005Y0048257D01*
X0084166Y0047700D01*
X0084314Y0047140D01*
X0084448Y0046576D01*
X0084568Y0046008D01*
X0084674Y0045438D01*
X0084766Y0044866D01*
X0084844Y0044292D01*
X0084908Y0043715D01*
X0084958Y0043138D01*
X0084994Y0042559D01*
X0085015Y0041980D01*
X0085022Y0041400D01*
X0085015Y0040820D01*
X0084994Y0040241D01*
X0084958Y0039662D01*
X0084908Y0039085D01*
X0084844Y0038508D01*
X0084766Y0037934D01*
X0084674Y0037362D01*
X0084568Y0036792D01*
X0084448Y0036224D01*
X0084314Y0035660D01*
X0084166Y0035100D01*
X0084005Y0034543D01*
X0083830Y0033990D01*
X0083641Y0033442D01*
X0083439Y0032899D01*
X0083224Y0032360D01*
X0082995Y0031827D01*
X0082754Y0031300D01*
X0082500Y0030779D01*
X0082233Y0030265D01*
X0081953Y0029757D01*
X0081661Y0029256D01*
X0081357Y0028762D01*
X0081041Y0028276D01*
X0080713Y0027798D01*
X0080373Y0027328D01*
X0080022Y0026867D01*
X0079660Y0026414D01*
X0079287Y0025971D01*
X0078903Y0025536D01*
X0078508Y0025112D01*
X0078103Y0024697D01*
X0077688Y0024292D01*
X0077264Y0023897D01*
X0076829Y0023513D01*
X0076386Y0023140D01*
X0075933Y0022778D01*
X0075472Y0022427D01*
X0075002Y0022087D01*
X0074524Y0021759D01*
X0074038Y0021443D01*
X0073544Y0021139D01*
X0073043Y0020847D01*
X0072535Y0020567D01*
X0072021Y0020300D01*
X0071500Y0020046D01*
X0070973Y0019805D01*
X0070440Y0019576D01*
X0069901Y0019361D01*
X0069358Y0019159D01*
X0068810Y0018970D01*
X0068257Y0018795D01*
X0067700Y0018634D01*
X0067140Y0018486D01*
X0066576Y0018352D01*
X0066008Y0018232D01*
X0065438Y0018126D01*
X0064866Y0018034D01*
X0064292Y0017956D01*
X0063715Y0017892D01*
X0063138Y0017842D01*
X0062559Y0017806D01*
X0061980Y0017785D01*
X0061400Y0017778D01*
X0060820Y0017785D01*
X0060241Y0017806D01*
X0059662Y0017842D01*
X0059085Y0017892D01*
X0058508Y0017956D01*
X0057934Y0018034D01*
X0057362Y0018126D01*
X0056792Y0018232D01*
X0056224Y0018352D01*
X0055660Y0018486D01*
X0055100Y0018634D01*
X0054543Y0018795D01*
X0053990Y0018970D01*
X0053442Y0019159D01*
X0052899Y0019361D01*
X0052360Y0019576D01*
X0051827Y0019805D01*
X0051300Y0020046D01*
X0050779Y0020300D01*
X0050265Y0020567D01*
X0049757Y0020847D01*
X0049256Y0021139D01*
X0048762Y0021443D01*
X0048276Y0021759D01*
X0047798Y0022087D01*
X0047328Y0022427D01*
X0046867Y0022778D01*
X0046414Y0023140D01*
X0045971Y0023513D01*
X0045536Y0023897D01*
X0045112Y0024292D01*
X0044697Y0024697D01*
X0044292Y0025112D01*
X0043897Y0025536D01*
X0043513Y0025971D01*
X0043140Y0026414D01*
X0042778Y0026867D01*
X0042427Y0027328D01*
X0042087Y0027798D01*
X0041759Y0028276D01*
X0041443Y0028762D01*
X0041139Y0029256D01*
X0040847Y0029757D01*
X0040567Y0030265D01*
X0040300Y0030779D01*
X0040046Y0031300D01*
X0039805Y0031827D01*
X0039576Y0032360D01*
X0039361Y0032899D01*
X0039159Y0033442D01*
X0038970Y0033990D01*
X0038795Y0034543D01*
X0038634Y0035100D01*
X0038486Y0035660D01*
X0038352Y0036224D01*
X0038232Y0036792D01*
X0038126Y0037362D01*
X0038034Y0037934D01*
X0037956Y0038508D01*
X0037892Y0039085D01*
X0037842Y0039662D01*
X0037806Y0040241D01*
X0037785Y0040820D01*
X0037778Y0041400D01*
X0037900Y0031900D02*
X0037900Y0021900D01*
D42*
X0017700Y0052892D02*
X0013096Y0052892D01*
X0015398Y0052892D02*
X0015398Y0055961D01*
X0014631Y0057496D02*
X0013096Y0059031D01*
X0017700Y0059031D01*
X0017700Y0060565D02*
X0017700Y0057496D01*
X0017700Y0055961D02*
X0013096Y0055961D01*
X0014597Y0069100D02*
X0014597Y0070651D01*
X0015114Y0071168D01*
X0016149Y0071168D01*
X0016666Y0070651D01*
X0016666Y0069100D01*
X0017700Y0069100D02*
X0014597Y0069100D01*
X0016666Y0070134D02*
X0017700Y0071168D01*
X0017700Y0072323D02*
X0017700Y0074391D01*
X0017700Y0073357D02*
X0014597Y0073357D01*
X0015632Y0072323D01*
X0041097Y0073357D02*
X0044200Y0073357D01*
X0044200Y0072323D02*
X0044200Y0074391D01*
X0042132Y0072323D02*
X0041097Y0073357D01*
X0041614Y0071168D02*
X0041097Y0070651D01*
X0041097Y0069617D01*
X0041614Y0069100D01*
X0043683Y0069100D01*
X0044200Y0069617D01*
X0044200Y0070651D01*
X0043683Y0071168D01*
X0041614Y0071168D01*
X0043166Y0070134D02*
X0044200Y0071168D01*
D43*
X0012030Y0032739D02*
X0012030Y0005180D01*
X0012032Y0005070D01*
X0012038Y0004960D01*
X0012047Y0004851D01*
X0012061Y0004742D01*
X0012078Y0004633D01*
X0012099Y0004525D01*
X0012124Y0004418D01*
X0012152Y0004312D01*
X0012184Y0004207D01*
X0012220Y0004103D01*
X0012259Y0004000D01*
X0012302Y0003899D01*
X0012349Y0003799D01*
X0012399Y0003701D01*
X0012452Y0003605D01*
X0012509Y0003511D01*
X0012569Y0003419D01*
X0012632Y0003328D01*
X0012698Y0003241D01*
X0012767Y0003155D01*
X0012839Y0003072D01*
X0012914Y0002992D01*
X0012992Y0002914D01*
X0013072Y0002839D01*
X0013155Y0002767D01*
X0013241Y0002698D01*
X0013328Y0002632D01*
X0013419Y0002569D01*
X0013511Y0002509D01*
X0013605Y0002452D01*
X0013701Y0002399D01*
X0013799Y0002349D01*
X0013899Y0002302D01*
X0014000Y0002259D01*
X0014103Y0002220D01*
X0014207Y0002184D01*
X0014312Y0002152D01*
X0014418Y0002124D01*
X0014525Y0002099D01*
X0014633Y0002078D01*
X0014742Y0002061D01*
X0014851Y0002047D01*
X0014960Y0002038D01*
X0015070Y0002032D01*
X0015180Y0002030D01*
X0042739Y0002030D01*
X0042778Y0002032D01*
X0042816Y0002038D01*
X0042853Y0002047D01*
X0042890Y0002060D01*
X0042925Y0002077D01*
X0042958Y0002096D01*
X0042989Y0002119D01*
X0043018Y0002145D01*
X0043044Y0002174D01*
X0043067Y0002205D01*
X0043086Y0002238D01*
X0043103Y0002273D01*
X0043116Y0002310D01*
X0043125Y0002347D01*
X0043131Y0002385D01*
X0043133Y0002424D01*
X0043132Y0002424D02*
X0043134Y0002614D01*
X0043141Y0002804D01*
X0043153Y0002994D01*
X0043169Y0003184D01*
X0043189Y0003373D01*
X0043215Y0003562D01*
X0043244Y0003750D01*
X0043279Y0003937D01*
X0043318Y0004123D01*
X0043361Y0004308D01*
X0043409Y0004493D01*
X0043461Y0004676D01*
X0043517Y0004857D01*
X0043578Y0005037D01*
X0043644Y0005216D01*
X0043713Y0005393D01*
X0043787Y0005569D01*
X0043865Y0005742D01*
X0043948Y0005914D01*
X0044034Y0006083D01*
X0044124Y0006251D01*
X0044219Y0006416D01*
X0044317Y0006579D01*
X0044420Y0006739D01*
X0044526Y0006897D01*
X0044636Y0007052D01*
X0044749Y0007205D01*
X0044867Y0007355D01*
X0044988Y0007501D01*
X0045112Y0007645D01*
X0045240Y0007786D01*
X0045371Y0007924D01*
X0045506Y0008059D01*
X0045644Y0008190D01*
X0045785Y0008318D01*
X0045929Y0008442D01*
X0046075Y0008563D01*
X0046225Y0008681D01*
X0046378Y0008794D01*
X0046533Y0008904D01*
X0046691Y0009010D01*
X0046851Y0009113D01*
X0047014Y0009211D01*
X0047179Y0009306D01*
X0047347Y0009396D01*
X0047516Y0009482D01*
X0047688Y0009565D01*
X0047861Y0009643D01*
X0048037Y0009717D01*
X0048214Y0009786D01*
X0048393Y0009852D01*
X0048573Y0009913D01*
X0048754Y0009969D01*
X0048937Y0010021D01*
X0049122Y0010069D01*
X0049307Y0010112D01*
X0049493Y0010151D01*
X0049680Y0010186D01*
X0049868Y0010215D01*
X0050057Y0010241D01*
X0050246Y0010261D01*
X0050436Y0010277D01*
X0050626Y0010289D01*
X0050816Y0010296D01*
X0051006Y0010298D01*
X0051794Y0010298D01*
X0051984Y0010296D01*
X0052174Y0010289D01*
X0052364Y0010277D01*
X0052554Y0010261D01*
X0052743Y0010241D01*
X0052932Y0010215D01*
X0053120Y0010186D01*
X0053307Y0010151D01*
X0053493Y0010112D01*
X0053678Y0010069D01*
X0053863Y0010021D01*
X0054046Y0009969D01*
X0054227Y0009913D01*
X0054407Y0009852D01*
X0054586Y0009786D01*
X0054763Y0009717D01*
X0054939Y0009643D01*
X0055112Y0009565D01*
X0055284Y0009482D01*
X0055453Y0009396D01*
X0055621Y0009306D01*
X0055786Y0009211D01*
X0055949Y0009113D01*
X0056109Y0009010D01*
X0056267Y0008904D01*
X0056422Y0008794D01*
X0056575Y0008681D01*
X0056725Y0008563D01*
X0056871Y0008442D01*
X0057015Y0008318D01*
X0057156Y0008190D01*
X0057294Y0008059D01*
X0057429Y0007924D01*
X0057560Y0007786D01*
X0057688Y0007645D01*
X0057812Y0007501D01*
X0057933Y0007355D01*
X0058051Y0007205D01*
X0058164Y0007052D01*
X0058274Y0006897D01*
X0058380Y0006739D01*
X0058483Y0006579D01*
X0058581Y0006416D01*
X0058676Y0006251D01*
X0058766Y0006083D01*
X0058852Y0005914D01*
X0058935Y0005742D01*
X0059013Y0005569D01*
X0059087Y0005393D01*
X0059156Y0005216D01*
X0059222Y0005037D01*
X0059283Y0004857D01*
X0059339Y0004676D01*
X0059391Y0004493D01*
X0059439Y0004308D01*
X0059482Y0004123D01*
X0059521Y0003937D01*
X0059556Y0003750D01*
X0059585Y0003562D01*
X0059611Y0003373D01*
X0059631Y0003184D01*
X0059647Y0002994D01*
X0059659Y0002804D01*
X0059666Y0002614D01*
X0059668Y0002424D01*
X0059667Y0002424D02*
X0059669Y0002385D01*
X0059675Y0002347D01*
X0059684Y0002310D01*
X0059697Y0002273D01*
X0059714Y0002238D01*
X0059733Y0002205D01*
X0059756Y0002174D01*
X0059782Y0002145D01*
X0059811Y0002119D01*
X0059842Y0002096D01*
X0059875Y0002077D01*
X0059910Y0002060D01*
X0059947Y0002047D01*
X0059984Y0002038D01*
X0060022Y0002032D01*
X0060061Y0002030D01*
X0087620Y0002030D01*
X0087730Y0002032D01*
X0087840Y0002038D01*
X0087949Y0002047D01*
X0088058Y0002061D01*
X0088167Y0002078D01*
X0088275Y0002099D01*
X0088382Y0002124D01*
X0088488Y0002152D01*
X0088593Y0002184D01*
X0088697Y0002220D01*
X0088800Y0002259D01*
X0088901Y0002302D01*
X0089001Y0002349D01*
X0089099Y0002399D01*
X0089195Y0002452D01*
X0089289Y0002509D01*
X0089381Y0002569D01*
X0089472Y0002632D01*
X0089559Y0002698D01*
X0089645Y0002767D01*
X0089728Y0002839D01*
X0089808Y0002914D01*
X0089886Y0002992D01*
X0089961Y0003072D01*
X0090033Y0003155D01*
X0090102Y0003241D01*
X0090168Y0003328D01*
X0090231Y0003419D01*
X0090291Y0003511D01*
X0090348Y0003605D01*
X0090401Y0003701D01*
X0090451Y0003799D01*
X0090498Y0003899D01*
X0090541Y0004000D01*
X0090580Y0004103D01*
X0090616Y0004207D01*
X0090648Y0004312D01*
X0090676Y0004418D01*
X0090701Y0004525D01*
X0090722Y0004633D01*
X0090739Y0004742D01*
X0090753Y0004851D01*
X0090762Y0004960D01*
X0090768Y0005070D01*
X0090770Y0005180D01*
X0090770Y0032739D01*
X0090772Y0032778D01*
X0090778Y0032816D01*
X0090787Y0032853D01*
X0090800Y0032890D01*
X0090817Y0032925D01*
X0090836Y0032958D01*
X0090859Y0032989D01*
X0090885Y0033018D01*
X0090914Y0033044D01*
X0090945Y0033067D01*
X0090978Y0033086D01*
X0091013Y0033103D01*
X0091050Y0033116D01*
X0091087Y0033125D01*
X0091125Y0033131D01*
X0091164Y0033133D01*
X0091164Y0033132D02*
X0091354Y0033134D01*
X0091544Y0033141D01*
X0091734Y0033153D01*
X0091924Y0033169D01*
X0092113Y0033189D01*
X0092302Y0033215D01*
X0092490Y0033244D01*
X0092677Y0033279D01*
X0092863Y0033318D01*
X0093048Y0033361D01*
X0093233Y0033409D01*
X0093416Y0033461D01*
X0093597Y0033517D01*
X0093777Y0033578D01*
X0093956Y0033644D01*
X0094133Y0033713D01*
X0094309Y0033787D01*
X0094482Y0033865D01*
X0094654Y0033948D01*
X0094823Y0034034D01*
X0094991Y0034124D01*
X0095156Y0034219D01*
X0095319Y0034317D01*
X0095479Y0034420D01*
X0095637Y0034526D01*
X0095792Y0034636D01*
X0095945Y0034749D01*
X0096095Y0034867D01*
X0096241Y0034988D01*
X0096385Y0035112D01*
X0096526Y0035240D01*
X0096664Y0035371D01*
X0096799Y0035506D01*
X0096930Y0035644D01*
X0097058Y0035785D01*
X0097182Y0035929D01*
X0097303Y0036075D01*
X0097421Y0036225D01*
X0097534Y0036378D01*
X0097644Y0036533D01*
X0097750Y0036691D01*
X0097853Y0036851D01*
X0097951Y0037014D01*
X0098046Y0037179D01*
X0098136Y0037347D01*
X0098222Y0037516D01*
X0098305Y0037688D01*
X0098383Y0037861D01*
X0098457Y0038037D01*
X0098526Y0038214D01*
X0098592Y0038393D01*
X0098653Y0038573D01*
X0098709Y0038754D01*
X0098761Y0038937D01*
X0098809Y0039122D01*
X0098852Y0039307D01*
X0098891Y0039493D01*
X0098926Y0039680D01*
X0098955Y0039868D01*
X0098981Y0040057D01*
X0099001Y0040246D01*
X0099017Y0040436D01*
X0099029Y0040626D01*
X0099036Y0040816D01*
X0099038Y0041006D01*
X0099038Y0041794D01*
X0099036Y0041984D01*
X0099029Y0042174D01*
X0099017Y0042364D01*
X0099001Y0042554D01*
X0098981Y0042743D01*
X0098955Y0042932D01*
X0098926Y0043120D01*
X0098891Y0043307D01*
X0098852Y0043493D01*
X0098809Y0043678D01*
X0098761Y0043863D01*
X0098709Y0044046D01*
X0098653Y0044227D01*
X0098592Y0044407D01*
X0098526Y0044586D01*
X0098457Y0044763D01*
X0098383Y0044939D01*
X0098305Y0045112D01*
X0098222Y0045284D01*
X0098136Y0045453D01*
X0098046Y0045621D01*
X0097951Y0045786D01*
X0097853Y0045949D01*
X0097750Y0046109D01*
X0097644Y0046267D01*
X0097534Y0046422D01*
X0097421Y0046575D01*
X0097303Y0046725D01*
X0097182Y0046871D01*
X0097058Y0047015D01*
X0096930Y0047156D01*
X0096799Y0047294D01*
X0096664Y0047429D01*
X0096526Y0047560D01*
X0096385Y0047688D01*
X0096241Y0047812D01*
X0096095Y0047933D01*
X0095945Y0048051D01*
X0095792Y0048164D01*
X0095637Y0048274D01*
X0095479Y0048380D01*
X0095319Y0048483D01*
X0095156Y0048581D01*
X0094991Y0048676D01*
X0094823Y0048766D01*
X0094654Y0048852D01*
X0094482Y0048935D01*
X0094309Y0049013D01*
X0094133Y0049087D01*
X0093956Y0049156D01*
X0093777Y0049222D01*
X0093597Y0049283D01*
X0093416Y0049339D01*
X0093233Y0049391D01*
X0093048Y0049439D01*
X0092863Y0049482D01*
X0092677Y0049521D01*
X0092490Y0049556D01*
X0092302Y0049585D01*
X0092113Y0049611D01*
X0091924Y0049631D01*
X0091734Y0049647D01*
X0091544Y0049659D01*
X0091354Y0049666D01*
X0091164Y0049668D01*
X0091164Y0049667D02*
X0091125Y0049669D01*
X0091087Y0049675D01*
X0091050Y0049684D01*
X0091013Y0049697D01*
X0090978Y0049714D01*
X0090945Y0049733D01*
X0090914Y0049756D01*
X0090885Y0049782D01*
X0090859Y0049811D01*
X0090836Y0049842D01*
X0090817Y0049875D01*
X0090800Y0049910D01*
X0090787Y0049947D01*
X0090778Y0049984D01*
X0090772Y0050022D01*
X0090770Y0050061D01*
X0090770Y0077620D01*
X0090768Y0077730D01*
X0090762Y0077840D01*
X0090753Y0077949D01*
X0090739Y0078058D01*
X0090722Y0078167D01*
X0090701Y0078275D01*
X0090676Y0078382D01*
X0090648Y0078488D01*
X0090616Y0078593D01*
X0090580Y0078697D01*
X0090541Y0078800D01*
X0090498Y0078901D01*
X0090451Y0079001D01*
X0090401Y0079099D01*
X0090348Y0079195D01*
X0090291Y0079289D01*
X0090231Y0079381D01*
X0090168Y0079472D01*
X0090102Y0079559D01*
X0090033Y0079645D01*
X0089961Y0079728D01*
X0089886Y0079808D01*
X0089808Y0079886D01*
X0089728Y0079961D01*
X0089645Y0080033D01*
X0089559Y0080102D01*
X0089472Y0080168D01*
X0089381Y0080231D01*
X0089289Y0080291D01*
X0089195Y0080348D01*
X0089099Y0080401D01*
X0089001Y0080451D01*
X0088901Y0080498D01*
X0088800Y0080541D01*
X0088697Y0080580D01*
X0088593Y0080616D01*
X0088488Y0080648D01*
X0088382Y0080676D01*
X0088275Y0080701D01*
X0088167Y0080722D01*
X0088058Y0080739D01*
X0087949Y0080753D01*
X0087840Y0080762D01*
X0087730Y0080768D01*
X0087620Y0080770D01*
X0060061Y0080770D01*
X0060022Y0080768D01*
X0059984Y0080762D01*
X0059947Y0080753D01*
X0059910Y0080740D01*
X0059875Y0080723D01*
X0059842Y0080704D01*
X0059811Y0080681D01*
X0059782Y0080655D01*
X0059756Y0080626D01*
X0059733Y0080595D01*
X0059714Y0080562D01*
X0059697Y0080527D01*
X0059684Y0080490D01*
X0059675Y0080453D01*
X0059669Y0080415D01*
X0059667Y0080376D01*
X0059668Y0080376D02*
X0059666Y0080186D01*
X0059659Y0079996D01*
X0059647Y0079806D01*
X0059631Y0079616D01*
X0059611Y0079427D01*
X0059585Y0079238D01*
X0059556Y0079050D01*
X0059521Y0078863D01*
X0059482Y0078677D01*
X0059439Y0078492D01*
X0059391Y0078307D01*
X0059339Y0078124D01*
X0059283Y0077943D01*
X0059222Y0077763D01*
X0059156Y0077584D01*
X0059087Y0077407D01*
X0059013Y0077231D01*
X0058935Y0077058D01*
X0058852Y0076886D01*
X0058766Y0076717D01*
X0058676Y0076549D01*
X0058581Y0076384D01*
X0058483Y0076221D01*
X0058380Y0076061D01*
X0058274Y0075903D01*
X0058164Y0075748D01*
X0058051Y0075595D01*
X0057933Y0075445D01*
X0057812Y0075299D01*
X0057688Y0075155D01*
X0057560Y0075014D01*
X0057429Y0074876D01*
X0057294Y0074741D01*
X0057156Y0074610D01*
X0057015Y0074482D01*
X0056871Y0074358D01*
X0056725Y0074237D01*
X0056575Y0074119D01*
X0056422Y0074006D01*
X0056267Y0073896D01*
X0056109Y0073790D01*
X0055949Y0073687D01*
X0055786Y0073589D01*
X0055621Y0073494D01*
X0055453Y0073404D01*
X0055284Y0073318D01*
X0055112Y0073235D01*
X0054939Y0073157D01*
X0054763Y0073083D01*
X0054586Y0073014D01*
X0054407Y0072948D01*
X0054227Y0072887D01*
X0054046Y0072831D01*
X0053863Y0072779D01*
X0053678Y0072731D01*
X0053493Y0072688D01*
X0053307Y0072649D01*
X0053120Y0072614D01*
X0052932Y0072585D01*
X0052743Y0072559D01*
X0052554Y0072539D01*
X0052364Y0072523D01*
X0052174Y0072511D01*
X0051984Y0072504D01*
X0051794Y0072502D01*
X0051006Y0072502D01*
X0050816Y0072504D01*
X0050626Y0072511D01*
X0050436Y0072523D01*
X0050246Y0072539D01*
X0050057Y0072559D01*
X0049868Y0072585D01*
X0049680Y0072614D01*
X0049493Y0072649D01*
X0049307Y0072688D01*
X0049122Y0072731D01*
X0048937Y0072779D01*
X0048754Y0072831D01*
X0048573Y0072887D01*
X0048393Y0072948D01*
X0048214Y0073014D01*
X0048037Y0073083D01*
X0047861Y0073157D01*
X0047688Y0073235D01*
X0047516Y0073318D01*
X0047347Y0073404D01*
X0047179Y0073494D01*
X0047014Y0073589D01*
X0046851Y0073687D01*
X0046691Y0073790D01*
X0046533Y0073896D01*
X0046378Y0074006D01*
X0046225Y0074119D01*
X0046075Y0074237D01*
X0045929Y0074358D01*
X0045785Y0074482D01*
X0045644Y0074610D01*
X0045506Y0074741D01*
X0045371Y0074876D01*
X0045240Y0075014D01*
X0045112Y0075155D01*
X0044988Y0075299D01*
X0044867Y0075445D01*
X0044749Y0075595D01*
X0044636Y0075748D01*
X0044526Y0075903D01*
X0044420Y0076061D01*
X0044317Y0076221D01*
X0044219Y0076384D01*
X0044124Y0076549D01*
X0044034Y0076717D01*
X0043948Y0076886D01*
X0043865Y0077058D01*
X0043787Y0077231D01*
X0043713Y0077407D01*
X0043644Y0077584D01*
X0043578Y0077763D01*
X0043517Y0077943D01*
X0043461Y0078124D01*
X0043409Y0078307D01*
X0043361Y0078492D01*
X0043318Y0078677D01*
X0043279Y0078863D01*
X0043244Y0079050D01*
X0043215Y0079238D01*
X0043189Y0079427D01*
X0043169Y0079616D01*
X0043153Y0079806D01*
X0043141Y0079996D01*
X0043134Y0080186D01*
X0043132Y0080376D01*
X0043133Y0080376D02*
X0043131Y0080415D01*
X0043125Y0080453D01*
X0043116Y0080490D01*
X0043103Y0080527D01*
X0043086Y0080562D01*
X0043067Y0080595D01*
X0043044Y0080626D01*
X0043018Y0080655D01*
X0042989Y0080681D01*
X0042958Y0080704D01*
X0042925Y0080723D01*
X0042890Y0080740D01*
X0042853Y0080753D01*
X0042816Y0080762D01*
X0042778Y0080768D01*
X0042739Y0080770D01*
X0015180Y0080770D01*
X0015070Y0080768D01*
X0014960Y0080762D01*
X0014851Y0080753D01*
X0014742Y0080739D01*
X0014633Y0080722D01*
X0014525Y0080701D01*
X0014418Y0080676D01*
X0014312Y0080648D01*
X0014207Y0080616D01*
X0014103Y0080580D01*
X0014000Y0080541D01*
X0013899Y0080498D01*
X0013799Y0080451D01*
X0013701Y0080401D01*
X0013605Y0080348D01*
X0013511Y0080291D01*
X0013419Y0080231D01*
X0013328Y0080168D01*
X0013241Y0080102D01*
X0013155Y0080033D01*
X0013072Y0079961D01*
X0012992Y0079886D01*
X0012914Y0079808D01*
X0012839Y0079728D01*
X0012767Y0079645D01*
X0012698Y0079559D01*
X0012632Y0079472D01*
X0012569Y0079381D01*
X0012509Y0079289D01*
X0012452Y0079195D01*
X0012399Y0079099D01*
X0012349Y0079001D01*
X0012302Y0078901D01*
X0012259Y0078800D01*
X0012220Y0078697D01*
X0012184Y0078593D01*
X0012152Y0078488D01*
X0012124Y0078382D01*
X0012099Y0078275D01*
X0012078Y0078167D01*
X0012061Y0078058D01*
X0012047Y0077949D01*
X0012038Y0077840D01*
X0012032Y0077730D01*
X0012030Y0077620D01*
X0012030Y0050061D01*
X0012028Y0050022D01*
X0012022Y0049984D01*
X0012013Y0049947D01*
X0012000Y0049910D01*
X0011983Y0049875D01*
X0011964Y0049842D01*
X0011941Y0049811D01*
X0011915Y0049782D01*
X0011886Y0049756D01*
X0011855Y0049733D01*
X0011822Y0049714D01*
X0011787Y0049697D01*
X0011750Y0049684D01*
X0011713Y0049675D01*
X0011675Y0049669D01*
X0011636Y0049667D01*
X0011636Y0049668D02*
X0011446Y0049666D01*
X0011256Y0049659D01*
X0011066Y0049647D01*
X0010876Y0049631D01*
X0010687Y0049611D01*
X0010498Y0049585D01*
X0010310Y0049556D01*
X0010123Y0049521D01*
X0009937Y0049482D01*
X0009752Y0049439D01*
X0009567Y0049391D01*
X0009384Y0049339D01*
X0009203Y0049283D01*
X0009023Y0049222D01*
X0008844Y0049156D01*
X0008667Y0049087D01*
X0008491Y0049013D01*
X0008318Y0048935D01*
X0008146Y0048852D01*
X0007977Y0048766D01*
X0007809Y0048676D01*
X0007644Y0048581D01*
X0007481Y0048483D01*
X0007321Y0048380D01*
X0007163Y0048274D01*
X0007008Y0048164D01*
X0006855Y0048051D01*
X0006705Y0047933D01*
X0006559Y0047812D01*
X0006415Y0047688D01*
X0006274Y0047560D01*
X0006136Y0047429D01*
X0006001Y0047294D01*
X0005870Y0047156D01*
X0005742Y0047015D01*
X0005618Y0046871D01*
X0005497Y0046725D01*
X0005379Y0046575D01*
X0005266Y0046422D01*
X0005156Y0046267D01*
X0005050Y0046109D01*
X0004947Y0045949D01*
X0004849Y0045786D01*
X0004754Y0045621D01*
X0004664Y0045453D01*
X0004578Y0045284D01*
X0004495Y0045112D01*
X0004417Y0044939D01*
X0004343Y0044763D01*
X0004274Y0044586D01*
X0004208Y0044407D01*
X0004147Y0044227D01*
X0004091Y0044046D01*
X0004039Y0043863D01*
X0003991Y0043678D01*
X0003948Y0043493D01*
X0003909Y0043307D01*
X0003874Y0043120D01*
X0003845Y0042932D01*
X0003819Y0042743D01*
X0003799Y0042554D01*
X0003783Y0042364D01*
X0003771Y0042174D01*
X0003764Y0041984D01*
X0003762Y0041794D01*
X0003762Y0041006D01*
X0003764Y0040816D01*
X0003771Y0040626D01*
X0003783Y0040436D01*
X0003799Y0040246D01*
X0003819Y0040057D01*
X0003845Y0039868D01*
X0003874Y0039680D01*
X0003909Y0039493D01*
X0003948Y0039307D01*
X0003991Y0039122D01*
X0004039Y0038937D01*
X0004091Y0038754D01*
X0004147Y0038573D01*
X0004208Y0038393D01*
X0004274Y0038214D01*
X0004343Y0038037D01*
X0004417Y0037861D01*
X0004495Y0037688D01*
X0004578Y0037516D01*
X0004664Y0037347D01*
X0004754Y0037179D01*
X0004849Y0037014D01*
X0004947Y0036851D01*
X0005050Y0036691D01*
X0005156Y0036533D01*
X0005266Y0036378D01*
X0005379Y0036225D01*
X0005497Y0036075D01*
X0005618Y0035929D01*
X0005742Y0035785D01*
X0005870Y0035644D01*
X0006001Y0035506D01*
X0006136Y0035371D01*
X0006274Y0035240D01*
X0006415Y0035112D01*
X0006559Y0034988D01*
X0006705Y0034867D01*
X0006855Y0034749D01*
X0007008Y0034636D01*
X0007163Y0034526D01*
X0007321Y0034420D01*
X0007481Y0034317D01*
X0007644Y0034219D01*
X0007809Y0034124D01*
X0007977Y0034034D01*
X0008146Y0033948D01*
X0008318Y0033865D01*
X0008491Y0033787D01*
X0008667Y0033713D01*
X0008844Y0033644D01*
X0009023Y0033578D01*
X0009203Y0033517D01*
X0009384Y0033461D01*
X0009567Y0033409D01*
X0009752Y0033361D01*
X0009937Y0033318D01*
X0010123Y0033279D01*
X0010310Y0033244D01*
X0010498Y0033215D01*
X0010687Y0033189D01*
X0010876Y0033169D01*
X0011066Y0033153D01*
X0011256Y0033141D01*
X0011446Y0033134D01*
X0011636Y0033132D01*
X0011636Y0033133D02*
X0011675Y0033131D01*
X0011713Y0033125D01*
X0011750Y0033116D01*
X0011787Y0033103D01*
X0011822Y0033086D01*
X0011855Y0033067D01*
X0011886Y0033044D01*
X0011915Y0033018D01*
X0011941Y0032989D01*
X0011964Y0032958D01*
X0011983Y0032925D01*
X0012000Y0032890D01*
X0012013Y0032853D01*
X0012022Y0032816D01*
X0012028Y0032778D01*
X0012030Y0032739D01*
X0007699Y0041400D02*
X0007701Y0041531D01*
X0007707Y0041663D01*
X0007717Y0041794D01*
X0007731Y0041925D01*
X0007749Y0042055D01*
X0007771Y0042184D01*
X0007796Y0042313D01*
X0007826Y0042441D01*
X0007860Y0042568D01*
X0007897Y0042695D01*
X0007938Y0042819D01*
X0007983Y0042943D01*
X0008032Y0043065D01*
X0008084Y0043186D01*
X0008140Y0043304D01*
X0008200Y0043422D01*
X0008263Y0043537D01*
X0008330Y0043650D01*
X0008400Y0043762D01*
X0008473Y0043871D01*
X0008549Y0043977D01*
X0008629Y0044082D01*
X0008712Y0044184D01*
X0008798Y0044283D01*
X0008887Y0044380D01*
X0008979Y0044474D01*
X0009074Y0044565D01*
X0009171Y0044654D01*
X0009271Y0044739D01*
X0009374Y0044821D01*
X0009479Y0044900D01*
X0009586Y0044976D01*
X0009696Y0045048D01*
X0009808Y0045117D01*
X0009922Y0045183D01*
X0010037Y0045245D01*
X0010155Y0045304D01*
X0010274Y0045359D01*
X0010395Y0045411D01*
X0010518Y0045458D01*
X0010642Y0045502D01*
X0010767Y0045543D01*
X0010893Y0045579D01*
X0011021Y0045612D01*
X0011149Y0045640D01*
X0011278Y0045665D01*
X0011408Y0045686D01*
X0011538Y0045703D01*
X0011669Y0045716D01*
X0011800Y0045725D01*
X0011931Y0045730D01*
X0012063Y0045731D01*
X0012194Y0045728D01*
X0012326Y0045721D01*
X0012457Y0045710D01*
X0012587Y0045695D01*
X0012717Y0045676D01*
X0012847Y0045653D01*
X0012975Y0045627D01*
X0013103Y0045596D01*
X0013230Y0045561D01*
X0013356Y0045523D01*
X0013480Y0045481D01*
X0013604Y0045435D01*
X0013725Y0045385D01*
X0013845Y0045332D01*
X0013964Y0045275D01*
X0014081Y0045215D01*
X0014195Y0045151D01*
X0014308Y0045083D01*
X0014419Y0045012D01*
X0014528Y0044938D01*
X0014634Y0044861D01*
X0014738Y0044780D01*
X0014839Y0044697D01*
X0014938Y0044610D01*
X0015034Y0044520D01*
X0015127Y0044427D01*
X0015218Y0044332D01*
X0015305Y0044234D01*
X0015390Y0044133D01*
X0015471Y0044030D01*
X0015549Y0043924D01*
X0015624Y0043816D01*
X0015696Y0043706D01*
X0015764Y0043594D01*
X0015829Y0043480D01*
X0015890Y0043363D01*
X0015948Y0043245D01*
X0016002Y0043125D01*
X0016053Y0043004D01*
X0016100Y0042881D01*
X0016143Y0042757D01*
X0016182Y0042632D01*
X0016218Y0042505D01*
X0016249Y0042377D01*
X0016277Y0042249D01*
X0016301Y0042120D01*
X0016321Y0041990D01*
X0016337Y0041859D01*
X0016349Y0041728D01*
X0016357Y0041597D01*
X0016361Y0041466D01*
X0016361Y0041334D01*
X0016357Y0041203D01*
X0016349Y0041072D01*
X0016337Y0040941D01*
X0016321Y0040810D01*
X0016301Y0040680D01*
X0016277Y0040551D01*
X0016249Y0040423D01*
X0016218Y0040295D01*
X0016182Y0040168D01*
X0016143Y0040043D01*
X0016100Y0039919D01*
X0016053Y0039796D01*
X0016002Y0039675D01*
X0015948Y0039555D01*
X0015890Y0039437D01*
X0015829Y0039320D01*
X0015764Y0039206D01*
X0015696Y0039094D01*
X0015624Y0038984D01*
X0015549Y0038876D01*
X0015471Y0038770D01*
X0015390Y0038667D01*
X0015305Y0038566D01*
X0015218Y0038468D01*
X0015127Y0038373D01*
X0015034Y0038280D01*
X0014938Y0038190D01*
X0014839Y0038103D01*
X0014738Y0038020D01*
X0014634Y0037939D01*
X0014528Y0037862D01*
X0014419Y0037788D01*
X0014308Y0037717D01*
X0014196Y0037649D01*
X0014081Y0037585D01*
X0013964Y0037525D01*
X0013845Y0037468D01*
X0013725Y0037415D01*
X0013604Y0037365D01*
X0013480Y0037319D01*
X0013356Y0037277D01*
X0013230Y0037239D01*
X0013103Y0037204D01*
X0012975Y0037173D01*
X0012847Y0037147D01*
X0012717Y0037124D01*
X0012587Y0037105D01*
X0012457Y0037090D01*
X0012326Y0037079D01*
X0012194Y0037072D01*
X0012063Y0037069D01*
X0011931Y0037070D01*
X0011800Y0037075D01*
X0011669Y0037084D01*
X0011538Y0037097D01*
X0011408Y0037114D01*
X0011278Y0037135D01*
X0011149Y0037160D01*
X0011021Y0037188D01*
X0010893Y0037221D01*
X0010767Y0037257D01*
X0010642Y0037298D01*
X0010518Y0037342D01*
X0010395Y0037389D01*
X0010274Y0037441D01*
X0010155Y0037496D01*
X0010037Y0037555D01*
X0009922Y0037617D01*
X0009808Y0037683D01*
X0009696Y0037752D01*
X0009586Y0037824D01*
X0009479Y0037900D01*
X0009374Y0037979D01*
X0009271Y0038061D01*
X0009171Y0038146D01*
X0009074Y0038235D01*
X0008979Y0038326D01*
X0008887Y0038420D01*
X0008798Y0038517D01*
X0008712Y0038616D01*
X0008629Y0038718D01*
X0008549Y0038823D01*
X0008473Y0038929D01*
X0008400Y0039038D01*
X0008330Y0039150D01*
X0008263Y0039263D01*
X0008200Y0039378D01*
X0008140Y0039496D01*
X0008084Y0039614D01*
X0008032Y0039735D01*
X0007983Y0039857D01*
X0007938Y0039981D01*
X0007897Y0040105D01*
X0007860Y0040232D01*
X0007826Y0040359D01*
X0007796Y0040487D01*
X0007771Y0040616D01*
X0007749Y0040745D01*
X0007731Y0040875D01*
X0007717Y0041006D01*
X0007707Y0041137D01*
X0007701Y0041269D01*
X0007699Y0041400D01*
X0086439Y0041400D02*
X0086441Y0041531D01*
X0086447Y0041663D01*
X0086457Y0041794D01*
X0086471Y0041925D01*
X0086489Y0042055D01*
X0086511Y0042184D01*
X0086536Y0042313D01*
X0086566Y0042441D01*
X0086600Y0042568D01*
X0086637Y0042695D01*
X0086678Y0042819D01*
X0086723Y0042943D01*
X0086772Y0043065D01*
X0086824Y0043186D01*
X0086880Y0043304D01*
X0086940Y0043422D01*
X0087003Y0043537D01*
X0087070Y0043650D01*
X0087140Y0043762D01*
X0087213Y0043871D01*
X0087289Y0043977D01*
X0087369Y0044082D01*
X0087452Y0044184D01*
X0087538Y0044283D01*
X0087627Y0044380D01*
X0087719Y0044474D01*
X0087814Y0044565D01*
X0087911Y0044654D01*
X0088011Y0044739D01*
X0088114Y0044821D01*
X0088219Y0044900D01*
X0088326Y0044976D01*
X0088436Y0045048D01*
X0088548Y0045117D01*
X0088662Y0045183D01*
X0088777Y0045245D01*
X0088895Y0045304D01*
X0089014Y0045359D01*
X0089135Y0045411D01*
X0089258Y0045458D01*
X0089382Y0045502D01*
X0089507Y0045543D01*
X0089633Y0045579D01*
X0089761Y0045612D01*
X0089889Y0045640D01*
X0090018Y0045665D01*
X0090148Y0045686D01*
X0090278Y0045703D01*
X0090409Y0045716D01*
X0090540Y0045725D01*
X0090671Y0045730D01*
X0090803Y0045731D01*
X0090934Y0045728D01*
X0091066Y0045721D01*
X0091197Y0045710D01*
X0091327Y0045695D01*
X0091457Y0045676D01*
X0091587Y0045653D01*
X0091715Y0045627D01*
X0091843Y0045596D01*
X0091970Y0045561D01*
X0092096Y0045523D01*
X0092220Y0045481D01*
X0092344Y0045435D01*
X0092465Y0045385D01*
X0092585Y0045332D01*
X0092704Y0045275D01*
X0092821Y0045215D01*
X0092935Y0045151D01*
X0093048Y0045083D01*
X0093159Y0045012D01*
X0093268Y0044938D01*
X0093374Y0044861D01*
X0093478Y0044780D01*
X0093579Y0044697D01*
X0093678Y0044610D01*
X0093774Y0044520D01*
X0093867Y0044427D01*
X0093958Y0044332D01*
X0094045Y0044234D01*
X0094130Y0044133D01*
X0094211Y0044030D01*
X0094289Y0043924D01*
X0094364Y0043816D01*
X0094436Y0043706D01*
X0094504Y0043594D01*
X0094569Y0043480D01*
X0094630Y0043363D01*
X0094688Y0043245D01*
X0094742Y0043125D01*
X0094793Y0043004D01*
X0094840Y0042881D01*
X0094883Y0042757D01*
X0094922Y0042632D01*
X0094958Y0042505D01*
X0094989Y0042377D01*
X0095017Y0042249D01*
X0095041Y0042120D01*
X0095061Y0041990D01*
X0095077Y0041859D01*
X0095089Y0041728D01*
X0095097Y0041597D01*
X0095101Y0041466D01*
X0095101Y0041334D01*
X0095097Y0041203D01*
X0095089Y0041072D01*
X0095077Y0040941D01*
X0095061Y0040810D01*
X0095041Y0040680D01*
X0095017Y0040551D01*
X0094989Y0040423D01*
X0094958Y0040295D01*
X0094922Y0040168D01*
X0094883Y0040043D01*
X0094840Y0039919D01*
X0094793Y0039796D01*
X0094742Y0039675D01*
X0094688Y0039555D01*
X0094630Y0039437D01*
X0094569Y0039320D01*
X0094504Y0039206D01*
X0094436Y0039094D01*
X0094364Y0038984D01*
X0094289Y0038876D01*
X0094211Y0038770D01*
X0094130Y0038667D01*
X0094045Y0038566D01*
X0093958Y0038468D01*
X0093867Y0038373D01*
X0093774Y0038280D01*
X0093678Y0038190D01*
X0093579Y0038103D01*
X0093478Y0038020D01*
X0093374Y0037939D01*
X0093268Y0037862D01*
X0093159Y0037788D01*
X0093048Y0037717D01*
X0092936Y0037649D01*
X0092821Y0037585D01*
X0092704Y0037525D01*
X0092585Y0037468D01*
X0092465Y0037415D01*
X0092344Y0037365D01*
X0092220Y0037319D01*
X0092096Y0037277D01*
X0091970Y0037239D01*
X0091843Y0037204D01*
X0091715Y0037173D01*
X0091587Y0037147D01*
X0091457Y0037124D01*
X0091327Y0037105D01*
X0091197Y0037090D01*
X0091066Y0037079D01*
X0090934Y0037072D01*
X0090803Y0037069D01*
X0090671Y0037070D01*
X0090540Y0037075D01*
X0090409Y0037084D01*
X0090278Y0037097D01*
X0090148Y0037114D01*
X0090018Y0037135D01*
X0089889Y0037160D01*
X0089761Y0037188D01*
X0089633Y0037221D01*
X0089507Y0037257D01*
X0089382Y0037298D01*
X0089258Y0037342D01*
X0089135Y0037389D01*
X0089014Y0037441D01*
X0088895Y0037496D01*
X0088777Y0037555D01*
X0088662Y0037617D01*
X0088548Y0037683D01*
X0088436Y0037752D01*
X0088326Y0037824D01*
X0088219Y0037900D01*
X0088114Y0037979D01*
X0088011Y0038061D01*
X0087911Y0038146D01*
X0087814Y0038235D01*
X0087719Y0038326D01*
X0087627Y0038420D01*
X0087538Y0038517D01*
X0087452Y0038616D01*
X0087369Y0038718D01*
X0087289Y0038823D01*
X0087213Y0038929D01*
X0087140Y0039038D01*
X0087070Y0039150D01*
X0087003Y0039263D01*
X0086940Y0039378D01*
X0086880Y0039496D01*
X0086824Y0039614D01*
X0086772Y0039735D01*
X0086723Y0039857D01*
X0086678Y0039981D01*
X0086637Y0040105D01*
X0086600Y0040232D01*
X0086566Y0040359D01*
X0086536Y0040487D01*
X0086511Y0040616D01*
X0086489Y0040745D01*
X0086471Y0040875D01*
X0086457Y0041006D01*
X0086447Y0041137D01*
X0086441Y0041269D01*
X0086439Y0041400D01*
D44*
X0056400Y0026400D02*
X0053900Y0026400D01*
X0051400Y0026400D01*
X0053900Y0026400D02*
X0053900Y0028900D01*
X0053900Y0026400D02*
X0053900Y0023900D01*
M02*
