G75*
%MOIN*%
%OFA0B0*%
%FSLAX25Y25*%
%IPPOS*%
%LPD*%
%AMOC8*
5,1,8,0,0,1.08239X$1,22.5*
%
%ADD10C,0.00000*%
%ADD11C,0.05906*%
%ADD12R,0.05150X0.05150*%
%ADD13C,0.05150*%
%ADD14C,0.00800*%
%ADD15C,0.02500*%
D10*
X0012030Y0005180D02*
X0012030Y0032739D01*
X0012028Y0032778D01*
X0012022Y0032816D01*
X0012013Y0032853D01*
X0012000Y0032890D01*
X0011983Y0032925D01*
X0011964Y0032958D01*
X0011941Y0032989D01*
X0011915Y0033018D01*
X0011886Y0033044D01*
X0011855Y0033067D01*
X0011822Y0033086D01*
X0011787Y0033103D01*
X0011750Y0033116D01*
X0011713Y0033125D01*
X0011675Y0033131D01*
X0011636Y0033133D01*
X0011636Y0033132D02*
X0011446Y0033134D01*
X0011256Y0033141D01*
X0011066Y0033153D01*
X0010876Y0033169D01*
X0010687Y0033189D01*
X0010498Y0033215D01*
X0010310Y0033244D01*
X0010123Y0033279D01*
X0009937Y0033318D01*
X0009752Y0033361D01*
X0009567Y0033409D01*
X0009384Y0033461D01*
X0009203Y0033517D01*
X0009023Y0033578D01*
X0008844Y0033644D01*
X0008667Y0033713D01*
X0008491Y0033787D01*
X0008318Y0033865D01*
X0008146Y0033948D01*
X0007977Y0034034D01*
X0007809Y0034124D01*
X0007644Y0034219D01*
X0007481Y0034317D01*
X0007321Y0034420D01*
X0007163Y0034526D01*
X0007008Y0034636D01*
X0006855Y0034749D01*
X0006705Y0034867D01*
X0006559Y0034988D01*
X0006415Y0035112D01*
X0006274Y0035240D01*
X0006136Y0035371D01*
X0006001Y0035506D01*
X0005870Y0035644D01*
X0005742Y0035785D01*
X0005618Y0035929D01*
X0005497Y0036075D01*
X0005379Y0036225D01*
X0005266Y0036378D01*
X0005156Y0036533D01*
X0005050Y0036691D01*
X0004947Y0036851D01*
X0004849Y0037014D01*
X0004754Y0037179D01*
X0004664Y0037347D01*
X0004578Y0037516D01*
X0004495Y0037688D01*
X0004417Y0037861D01*
X0004343Y0038037D01*
X0004274Y0038214D01*
X0004208Y0038393D01*
X0004147Y0038573D01*
X0004091Y0038754D01*
X0004039Y0038937D01*
X0003991Y0039122D01*
X0003948Y0039307D01*
X0003909Y0039493D01*
X0003874Y0039680D01*
X0003845Y0039868D01*
X0003819Y0040057D01*
X0003799Y0040246D01*
X0003783Y0040436D01*
X0003771Y0040626D01*
X0003764Y0040816D01*
X0003762Y0041006D01*
X0003762Y0041794D01*
X0003764Y0041984D01*
X0003771Y0042174D01*
X0003783Y0042364D01*
X0003799Y0042554D01*
X0003819Y0042743D01*
X0003845Y0042932D01*
X0003874Y0043120D01*
X0003909Y0043307D01*
X0003948Y0043493D01*
X0003991Y0043678D01*
X0004039Y0043863D01*
X0004091Y0044046D01*
X0004147Y0044227D01*
X0004208Y0044407D01*
X0004274Y0044586D01*
X0004343Y0044763D01*
X0004417Y0044939D01*
X0004495Y0045112D01*
X0004578Y0045284D01*
X0004664Y0045453D01*
X0004754Y0045621D01*
X0004849Y0045786D01*
X0004947Y0045949D01*
X0005050Y0046109D01*
X0005156Y0046267D01*
X0005266Y0046422D01*
X0005379Y0046575D01*
X0005497Y0046725D01*
X0005618Y0046871D01*
X0005742Y0047015D01*
X0005870Y0047156D01*
X0006001Y0047294D01*
X0006136Y0047429D01*
X0006274Y0047560D01*
X0006415Y0047688D01*
X0006559Y0047812D01*
X0006705Y0047933D01*
X0006855Y0048051D01*
X0007008Y0048164D01*
X0007163Y0048274D01*
X0007321Y0048380D01*
X0007481Y0048483D01*
X0007644Y0048581D01*
X0007809Y0048676D01*
X0007977Y0048766D01*
X0008146Y0048852D01*
X0008318Y0048935D01*
X0008491Y0049013D01*
X0008667Y0049087D01*
X0008844Y0049156D01*
X0009023Y0049222D01*
X0009203Y0049283D01*
X0009384Y0049339D01*
X0009567Y0049391D01*
X0009752Y0049439D01*
X0009937Y0049482D01*
X0010123Y0049521D01*
X0010310Y0049556D01*
X0010498Y0049585D01*
X0010687Y0049611D01*
X0010876Y0049631D01*
X0011066Y0049647D01*
X0011256Y0049659D01*
X0011446Y0049666D01*
X0011636Y0049668D01*
X0011636Y0049667D02*
X0011675Y0049669D01*
X0011713Y0049675D01*
X0011750Y0049684D01*
X0011787Y0049697D01*
X0011822Y0049714D01*
X0011855Y0049733D01*
X0011886Y0049756D01*
X0011915Y0049782D01*
X0011941Y0049811D01*
X0011964Y0049842D01*
X0011983Y0049875D01*
X0012000Y0049910D01*
X0012013Y0049947D01*
X0012022Y0049984D01*
X0012028Y0050022D01*
X0012030Y0050061D01*
X0012030Y0077620D01*
X0012032Y0077730D01*
X0012038Y0077840D01*
X0012047Y0077949D01*
X0012061Y0078058D01*
X0012078Y0078167D01*
X0012099Y0078275D01*
X0012124Y0078382D01*
X0012152Y0078488D01*
X0012184Y0078593D01*
X0012220Y0078697D01*
X0012259Y0078800D01*
X0012302Y0078901D01*
X0012349Y0079001D01*
X0012399Y0079099D01*
X0012452Y0079195D01*
X0012509Y0079289D01*
X0012569Y0079381D01*
X0012632Y0079472D01*
X0012698Y0079559D01*
X0012767Y0079645D01*
X0012839Y0079728D01*
X0012914Y0079808D01*
X0012992Y0079886D01*
X0013072Y0079961D01*
X0013155Y0080033D01*
X0013241Y0080102D01*
X0013328Y0080168D01*
X0013419Y0080231D01*
X0013511Y0080291D01*
X0013605Y0080348D01*
X0013701Y0080401D01*
X0013799Y0080451D01*
X0013899Y0080498D01*
X0014000Y0080541D01*
X0014103Y0080580D01*
X0014207Y0080616D01*
X0014312Y0080648D01*
X0014418Y0080676D01*
X0014525Y0080701D01*
X0014633Y0080722D01*
X0014742Y0080739D01*
X0014851Y0080753D01*
X0014960Y0080762D01*
X0015070Y0080768D01*
X0015180Y0080770D01*
X0042739Y0080770D01*
X0042778Y0080768D01*
X0042816Y0080762D01*
X0042853Y0080753D01*
X0042890Y0080740D01*
X0042925Y0080723D01*
X0042958Y0080704D01*
X0042989Y0080681D01*
X0043018Y0080655D01*
X0043044Y0080626D01*
X0043067Y0080595D01*
X0043086Y0080562D01*
X0043103Y0080527D01*
X0043116Y0080490D01*
X0043125Y0080453D01*
X0043131Y0080415D01*
X0043133Y0080376D01*
X0043132Y0080376D02*
X0043134Y0080186D01*
X0043141Y0079996D01*
X0043153Y0079806D01*
X0043169Y0079616D01*
X0043189Y0079427D01*
X0043215Y0079238D01*
X0043244Y0079050D01*
X0043279Y0078863D01*
X0043318Y0078677D01*
X0043361Y0078492D01*
X0043409Y0078307D01*
X0043461Y0078124D01*
X0043517Y0077943D01*
X0043578Y0077763D01*
X0043644Y0077584D01*
X0043713Y0077407D01*
X0043787Y0077231D01*
X0043865Y0077058D01*
X0043948Y0076886D01*
X0044034Y0076717D01*
X0044124Y0076549D01*
X0044219Y0076384D01*
X0044317Y0076221D01*
X0044420Y0076061D01*
X0044526Y0075903D01*
X0044636Y0075748D01*
X0044749Y0075595D01*
X0044867Y0075445D01*
X0044988Y0075299D01*
X0045112Y0075155D01*
X0045240Y0075014D01*
X0045371Y0074876D01*
X0045506Y0074741D01*
X0045644Y0074610D01*
X0045785Y0074482D01*
X0045929Y0074358D01*
X0046075Y0074237D01*
X0046225Y0074119D01*
X0046378Y0074006D01*
X0046533Y0073896D01*
X0046691Y0073790D01*
X0046851Y0073687D01*
X0047014Y0073589D01*
X0047179Y0073494D01*
X0047347Y0073404D01*
X0047516Y0073318D01*
X0047688Y0073235D01*
X0047861Y0073157D01*
X0048037Y0073083D01*
X0048214Y0073014D01*
X0048393Y0072948D01*
X0048573Y0072887D01*
X0048754Y0072831D01*
X0048937Y0072779D01*
X0049122Y0072731D01*
X0049307Y0072688D01*
X0049493Y0072649D01*
X0049680Y0072614D01*
X0049868Y0072585D01*
X0050057Y0072559D01*
X0050246Y0072539D01*
X0050436Y0072523D01*
X0050626Y0072511D01*
X0050816Y0072504D01*
X0051006Y0072502D01*
X0051794Y0072502D01*
X0051984Y0072504D01*
X0052174Y0072511D01*
X0052364Y0072523D01*
X0052554Y0072539D01*
X0052743Y0072559D01*
X0052932Y0072585D01*
X0053120Y0072614D01*
X0053307Y0072649D01*
X0053493Y0072688D01*
X0053678Y0072731D01*
X0053863Y0072779D01*
X0054046Y0072831D01*
X0054227Y0072887D01*
X0054407Y0072948D01*
X0054586Y0073014D01*
X0054763Y0073083D01*
X0054939Y0073157D01*
X0055112Y0073235D01*
X0055284Y0073318D01*
X0055453Y0073404D01*
X0055621Y0073494D01*
X0055786Y0073589D01*
X0055949Y0073687D01*
X0056109Y0073790D01*
X0056267Y0073896D01*
X0056422Y0074006D01*
X0056575Y0074119D01*
X0056725Y0074237D01*
X0056871Y0074358D01*
X0057015Y0074482D01*
X0057156Y0074610D01*
X0057294Y0074741D01*
X0057429Y0074876D01*
X0057560Y0075014D01*
X0057688Y0075155D01*
X0057812Y0075299D01*
X0057933Y0075445D01*
X0058051Y0075595D01*
X0058164Y0075748D01*
X0058274Y0075903D01*
X0058380Y0076061D01*
X0058483Y0076221D01*
X0058581Y0076384D01*
X0058676Y0076549D01*
X0058766Y0076717D01*
X0058852Y0076886D01*
X0058935Y0077058D01*
X0059013Y0077231D01*
X0059087Y0077407D01*
X0059156Y0077584D01*
X0059222Y0077763D01*
X0059283Y0077943D01*
X0059339Y0078124D01*
X0059391Y0078307D01*
X0059439Y0078492D01*
X0059482Y0078677D01*
X0059521Y0078863D01*
X0059556Y0079050D01*
X0059585Y0079238D01*
X0059611Y0079427D01*
X0059631Y0079616D01*
X0059647Y0079806D01*
X0059659Y0079996D01*
X0059666Y0080186D01*
X0059668Y0080376D01*
X0059667Y0080376D02*
X0059669Y0080415D01*
X0059675Y0080453D01*
X0059684Y0080490D01*
X0059697Y0080527D01*
X0059714Y0080562D01*
X0059733Y0080595D01*
X0059756Y0080626D01*
X0059782Y0080655D01*
X0059811Y0080681D01*
X0059842Y0080704D01*
X0059875Y0080723D01*
X0059910Y0080740D01*
X0059947Y0080753D01*
X0059984Y0080762D01*
X0060022Y0080768D01*
X0060061Y0080770D01*
X0087620Y0080770D01*
X0087730Y0080768D01*
X0087840Y0080762D01*
X0087949Y0080753D01*
X0088058Y0080739D01*
X0088167Y0080722D01*
X0088275Y0080701D01*
X0088382Y0080676D01*
X0088488Y0080648D01*
X0088593Y0080616D01*
X0088697Y0080580D01*
X0088800Y0080541D01*
X0088901Y0080498D01*
X0089001Y0080451D01*
X0089099Y0080401D01*
X0089195Y0080348D01*
X0089289Y0080291D01*
X0089381Y0080231D01*
X0089472Y0080168D01*
X0089559Y0080102D01*
X0089645Y0080033D01*
X0089728Y0079961D01*
X0089808Y0079886D01*
X0089886Y0079808D01*
X0089961Y0079728D01*
X0090033Y0079645D01*
X0090102Y0079559D01*
X0090168Y0079472D01*
X0090231Y0079381D01*
X0090291Y0079289D01*
X0090348Y0079195D01*
X0090401Y0079099D01*
X0090451Y0079001D01*
X0090498Y0078901D01*
X0090541Y0078800D01*
X0090580Y0078697D01*
X0090616Y0078593D01*
X0090648Y0078488D01*
X0090676Y0078382D01*
X0090701Y0078275D01*
X0090722Y0078167D01*
X0090739Y0078058D01*
X0090753Y0077949D01*
X0090762Y0077840D01*
X0090768Y0077730D01*
X0090770Y0077620D01*
X0090770Y0050061D01*
X0090772Y0050022D01*
X0090778Y0049984D01*
X0090787Y0049947D01*
X0090800Y0049910D01*
X0090817Y0049875D01*
X0090836Y0049842D01*
X0090859Y0049811D01*
X0090885Y0049782D01*
X0090914Y0049756D01*
X0090945Y0049733D01*
X0090978Y0049714D01*
X0091013Y0049697D01*
X0091050Y0049684D01*
X0091087Y0049675D01*
X0091125Y0049669D01*
X0091164Y0049667D01*
X0091164Y0049668D02*
X0091354Y0049666D01*
X0091544Y0049659D01*
X0091734Y0049647D01*
X0091924Y0049631D01*
X0092113Y0049611D01*
X0092302Y0049585D01*
X0092490Y0049556D01*
X0092677Y0049521D01*
X0092863Y0049482D01*
X0093048Y0049439D01*
X0093233Y0049391D01*
X0093416Y0049339D01*
X0093597Y0049283D01*
X0093777Y0049222D01*
X0093956Y0049156D01*
X0094133Y0049087D01*
X0094309Y0049013D01*
X0094482Y0048935D01*
X0094654Y0048852D01*
X0094823Y0048766D01*
X0094991Y0048676D01*
X0095156Y0048581D01*
X0095319Y0048483D01*
X0095479Y0048380D01*
X0095637Y0048274D01*
X0095792Y0048164D01*
X0095945Y0048051D01*
X0096095Y0047933D01*
X0096241Y0047812D01*
X0096385Y0047688D01*
X0096526Y0047560D01*
X0096664Y0047429D01*
X0096799Y0047294D01*
X0096930Y0047156D01*
X0097058Y0047015D01*
X0097182Y0046871D01*
X0097303Y0046725D01*
X0097421Y0046575D01*
X0097534Y0046422D01*
X0097644Y0046267D01*
X0097750Y0046109D01*
X0097853Y0045949D01*
X0097951Y0045786D01*
X0098046Y0045621D01*
X0098136Y0045453D01*
X0098222Y0045284D01*
X0098305Y0045112D01*
X0098383Y0044939D01*
X0098457Y0044763D01*
X0098526Y0044586D01*
X0098592Y0044407D01*
X0098653Y0044227D01*
X0098709Y0044046D01*
X0098761Y0043863D01*
X0098809Y0043678D01*
X0098852Y0043493D01*
X0098891Y0043307D01*
X0098926Y0043120D01*
X0098955Y0042932D01*
X0098981Y0042743D01*
X0099001Y0042554D01*
X0099017Y0042364D01*
X0099029Y0042174D01*
X0099036Y0041984D01*
X0099038Y0041794D01*
X0099038Y0041006D01*
X0099036Y0040816D01*
X0099029Y0040626D01*
X0099017Y0040436D01*
X0099001Y0040246D01*
X0098981Y0040057D01*
X0098955Y0039868D01*
X0098926Y0039680D01*
X0098891Y0039493D01*
X0098852Y0039307D01*
X0098809Y0039122D01*
X0098761Y0038937D01*
X0098709Y0038754D01*
X0098653Y0038573D01*
X0098592Y0038393D01*
X0098526Y0038214D01*
X0098457Y0038037D01*
X0098383Y0037861D01*
X0098305Y0037688D01*
X0098222Y0037516D01*
X0098136Y0037347D01*
X0098046Y0037179D01*
X0097951Y0037014D01*
X0097853Y0036851D01*
X0097750Y0036691D01*
X0097644Y0036533D01*
X0097534Y0036378D01*
X0097421Y0036225D01*
X0097303Y0036075D01*
X0097182Y0035929D01*
X0097058Y0035785D01*
X0096930Y0035644D01*
X0096799Y0035506D01*
X0096664Y0035371D01*
X0096526Y0035240D01*
X0096385Y0035112D01*
X0096241Y0034988D01*
X0096095Y0034867D01*
X0095945Y0034749D01*
X0095792Y0034636D01*
X0095637Y0034526D01*
X0095479Y0034420D01*
X0095319Y0034317D01*
X0095156Y0034219D01*
X0094991Y0034124D01*
X0094823Y0034034D01*
X0094654Y0033948D01*
X0094482Y0033865D01*
X0094309Y0033787D01*
X0094133Y0033713D01*
X0093956Y0033644D01*
X0093777Y0033578D01*
X0093597Y0033517D01*
X0093416Y0033461D01*
X0093233Y0033409D01*
X0093048Y0033361D01*
X0092863Y0033318D01*
X0092677Y0033279D01*
X0092490Y0033244D01*
X0092302Y0033215D01*
X0092113Y0033189D01*
X0091924Y0033169D01*
X0091734Y0033153D01*
X0091544Y0033141D01*
X0091354Y0033134D01*
X0091164Y0033132D01*
X0091164Y0033133D02*
X0091125Y0033131D01*
X0091087Y0033125D01*
X0091050Y0033116D01*
X0091013Y0033103D01*
X0090978Y0033086D01*
X0090945Y0033067D01*
X0090914Y0033044D01*
X0090885Y0033018D01*
X0090859Y0032989D01*
X0090836Y0032958D01*
X0090817Y0032925D01*
X0090800Y0032890D01*
X0090787Y0032853D01*
X0090778Y0032816D01*
X0090772Y0032778D01*
X0090770Y0032739D01*
X0090770Y0005180D01*
X0090768Y0005070D01*
X0090762Y0004960D01*
X0090753Y0004851D01*
X0090739Y0004742D01*
X0090722Y0004633D01*
X0090701Y0004525D01*
X0090676Y0004418D01*
X0090648Y0004312D01*
X0090616Y0004207D01*
X0090580Y0004103D01*
X0090541Y0004000D01*
X0090498Y0003899D01*
X0090451Y0003799D01*
X0090401Y0003701D01*
X0090348Y0003605D01*
X0090291Y0003511D01*
X0090231Y0003419D01*
X0090168Y0003328D01*
X0090102Y0003241D01*
X0090033Y0003155D01*
X0089961Y0003072D01*
X0089886Y0002992D01*
X0089808Y0002914D01*
X0089728Y0002839D01*
X0089645Y0002767D01*
X0089559Y0002698D01*
X0089472Y0002632D01*
X0089381Y0002569D01*
X0089289Y0002509D01*
X0089195Y0002452D01*
X0089099Y0002399D01*
X0089001Y0002349D01*
X0088901Y0002302D01*
X0088800Y0002259D01*
X0088697Y0002220D01*
X0088593Y0002184D01*
X0088488Y0002152D01*
X0088382Y0002124D01*
X0088275Y0002099D01*
X0088167Y0002078D01*
X0088058Y0002061D01*
X0087949Y0002047D01*
X0087840Y0002038D01*
X0087730Y0002032D01*
X0087620Y0002030D01*
X0060061Y0002030D01*
X0060022Y0002032D01*
X0059984Y0002038D01*
X0059947Y0002047D01*
X0059910Y0002060D01*
X0059875Y0002077D01*
X0059842Y0002096D01*
X0059811Y0002119D01*
X0059782Y0002145D01*
X0059756Y0002174D01*
X0059733Y0002205D01*
X0059714Y0002238D01*
X0059697Y0002273D01*
X0059684Y0002310D01*
X0059675Y0002347D01*
X0059669Y0002385D01*
X0059667Y0002424D01*
X0059668Y0002424D02*
X0059666Y0002614D01*
X0059659Y0002804D01*
X0059647Y0002994D01*
X0059631Y0003184D01*
X0059611Y0003373D01*
X0059585Y0003562D01*
X0059556Y0003750D01*
X0059521Y0003937D01*
X0059482Y0004123D01*
X0059439Y0004308D01*
X0059391Y0004493D01*
X0059339Y0004676D01*
X0059283Y0004857D01*
X0059222Y0005037D01*
X0059156Y0005216D01*
X0059087Y0005393D01*
X0059013Y0005569D01*
X0058935Y0005742D01*
X0058852Y0005914D01*
X0058766Y0006083D01*
X0058676Y0006251D01*
X0058581Y0006416D01*
X0058483Y0006579D01*
X0058380Y0006739D01*
X0058274Y0006897D01*
X0058164Y0007052D01*
X0058051Y0007205D01*
X0057933Y0007355D01*
X0057812Y0007501D01*
X0057688Y0007645D01*
X0057560Y0007786D01*
X0057429Y0007924D01*
X0057294Y0008059D01*
X0057156Y0008190D01*
X0057015Y0008318D01*
X0056871Y0008442D01*
X0056725Y0008563D01*
X0056575Y0008681D01*
X0056422Y0008794D01*
X0056267Y0008904D01*
X0056109Y0009010D01*
X0055949Y0009113D01*
X0055786Y0009211D01*
X0055621Y0009306D01*
X0055453Y0009396D01*
X0055284Y0009482D01*
X0055112Y0009565D01*
X0054939Y0009643D01*
X0054763Y0009717D01*
X0054586Y0009786D01*
X0054407Y0009852D01*
X0054227Y0009913D01*
X0054046Y0009969D01*
X0053863Y0010021D01*
X0053678Y0010069D01*
X0053493Y0010112D01*
X0053307Y0010151D01*
X0053120Y0010186D01*
X0052932Y0010215D01*
X0052743Y0010241D01*
X0052554Y0010261D01*
X0052364Y0010277D01*
X0052174Y0010289D01*
X0051984Y0010296D01*
X0051794Y0010298D01*
X0051006Y0010298D01*
X0050816Y0010296D01*
X0050626Y0010289D01*
X0050436Y0010277D01*
X0050246Y0010261D01*
X0050057Y0010241D01*
X0049868Y0010215D01*
X0049680Y0010186D01*
X0049493Y0010151D01*
X0049307Y0010112D01*
X0049122Y0010069D01*
X0048937Y0010021D01*
X0048754Y0009969D01*
X0048573Y0009913D01*
X0048393Y0009852D01*
X0048214Y0009786D01*
X0048037Y0009717D01*
X0047861Y0009643D01*
X0047688Y0009565D01*
X0047516Y0009482D01*
X0047347Y0009396D01*
X0047179Y0009306D01*
X0047014Y0009211D01*
X0046851Y0009113D01*
X0046691Y0009010D01*
X0046533Y0008904D01*
X0046378Y0008794D01*
X0046225Y0008681D01*
X0046075Y0008563D01*
X0045929Y0008442D01*
X0045785Y0008318D01*
X0045644Y0008190D01*
X0045506Y0008059D01*
X0045371Y0007924D01*
X0045240Y0007786D01*
X0045112Y0007645D01*
X0044988Y0007501D01*
X0044867Y0007355D01*
X0044749Y0007205D01*
X0044636Y0007052D01*
X0044526Y0006897D01*
X0044420Y0006739D01*
X0044317Y0006579D01*
X0044219Y0006416D01*
X0044124Y0006251D01*
X0044034Y0006083D01*
X0043948Y0005914D01*
X0043865Y0005742D01*
X0043787Y0005569D01*
X0043713Y0005393D01*
X0043644Y0005216D01*
X0043578Y0005037D01*
X0043517Y0004857D01*
X0043461Y0004676D01*
X0043409Y0004493D01*
X0043361Y0004308D01*
X0043318Y0004123D01*
X0043279Y0003937D01*
X0043244Y0003750D01*
X0043215Y0003562D01*
X0043189Y0003373D01*
X0043169Y0003184D01*
X0043153Y0002994D01*
X0043141Y0002804D01*
X0043134Y0002614D01*
X0043132Y0002424D01*
X0043133Y0002424D02*
X0043131Y0002385D01*
X0043125Y0002347D01*
X0043116Y0002310D01*
X0043103Y0002273D01*
X0043086Y0002238D01*
X0043067Y0002205D01*
X0043044Y0002174D01*
X0043018Y0002145D01*
X0042989Y0002119D01*
X0042958Y0002096D01*
X0042925Y0002077D01*
X0042890Y0002060D01*
X0042853Y0002047D01*
X0042816Y0002038D01*
X0042778Y0002032D01*
X0042739Y0002030D01*
X0015180Y0002030D01*
X0015070Y0002032D01*
X0014960Y0002038D01*
X0014851Y0002047D01*
X0014742Y0002061D01*
X0014633Y0002078D01*
X0014525Y0002099D01*
X0014418Y0002124D01*
X0014312Y0002152D01*
X0014207Y0002184D01*
X0014103Y0002220D01*
X0014000Y0002259D01*
X0013899Y0002302D01*
X0013799Y0002349D01*
X0013701Y0002399D01*
X0013605Y0002452D01*
X0013511Y0002509D01*
X0013419Y0002569D01*
X0013328Y0002632D01*
X0013241Y0002698D01*
X0013155Y0002767D01*
X0013072Y0002839D01*
X0012992Y0002914D01*
X0012914Y0002992D01*
X0012839Y0003072D01*
X0012767Y0003155D01*
X0012698Y0003241D01*
X0012632Y0003328D01*
X0012569Y0003419D01*
X0012509Y0003511D01*
X0012452Y0003605D01*
X0012399Y0003701D01*
X0012349Y0003799D01*
X0012302Y0003899D01*
X0012259Y0004000D01*
X0012220Y0004103D01*
X0012184Y0004207D01*
X0012152Y0004312D01*
X0012124Y0004418D01*
X0012099Y0004525D01*
X0012078Y0004633D01*
X0012061Y0004742D01*
X0012047Y0004851D01*
X0012038Y0004960D01*
X0012032Y0005070D01*
X0012030Y0005180D01*
X0007699Y0041400D02*
X0007701Y0041531D01*
X0007707Y0041663D01*
X0007717Y0041794D01*
X0007731Y0041925D01*
X0007749Y0042055D01*
X0007771Y0042184D01*
X0007796Y0042313D01*
X0007826Y0042441D01*
X0007860Y0042568D01*
X0007897Y0042695D01*
X0007938Y0042819D01*
X0007983Y0042943D01*
X0008032Y0043065D01*
X0008084Y0043186D01*
X0008140Y0043304D01*
X0008200Y0043422D01*
X0008263Y0043537D01*
X0008330Y0043650D01*
X0008400Y0043762D01*
X0008473Y0043871D01*
X0008549Y0043977D01*
X0008629Y0044082D01*
X0008712Y0044184D01*
X0008798Y0044283D01*
X0008887Y0044380D01*
X0008979Y0044474D01*
X0009074Y0044565D01*
X0009171Y0044654D01*
X0009271Y0044739D01*
X0009374Y0044821D01*
X0009479Y0044900D01*
X0009586Y0044976D01*
X0009696Y0045048D01*
X0009808Y0045117D01*
X0009922Y0045183D01*
X0010037Y0045245D01*
X0010155Y0045304D01*
X0010274Y0045359D01*
X0010395Y0045411D01*
X0010518Y0045458D01*
X0010642Y0045502D01*
X0010767Y0045543D01*
X0010893Y0045579D01*
X0011021Y0045612D01*
X0011149Y0045640D01*
X0011278Y0045665D01*
X0011408Y0045686D01*
X0011538Y0045703D01*
X0011669Y0045716D01*
X0011800Y0045725D01*
X0011931Y0045730D01*
X0012063Y0045731D01*
X0012194Y0045728D01*
X0012326Y0045721D01*
X0012457Y0045710D01*
X0012587Y0045695D01*
X0012717Y0045676D01*
X0012847Y0045653D01*
X0012975Y0045627D01*
X0013103Y0045596D01*
X0013230Y0045561D01*
X0013356Y0045523D01*
X0013480Y0045481D01*
X0013604Y0045435D01*
X0013725Y0045385D01*
X0013845Y0045332D01*
X0013964Y0045275D01*
X0014081Y0045215D01*
X0014195Y0045151D01*
X0014308Y0045083D01*
X0014419Y0045012D01*
X0014528Y0044938D01*
X0014634Y0044861D01*
X0014738Y0044780D01*
X0014839Y0044697D01*
X0014938Y0044610D01*
X0015034Y0044520D01*
X0015127Y0044427D01*
X0015218Y0044332D01*
X0015305Y0044234D01*
X0015390Y0044133D01*
X0015471Y0044030D01*
X0015549Y0043924D01*
X0015624Y0043816D01*
X0015696Y0043706D01*
X0015764Y0043594D01*
X0015829Y0043480D01*
X0015890Y0043363D01*
X0015948Y0043245D01*
X0016002Y0043125D01*
X0016053Y0043004D01*
X0016100Y0042881D01*
X0016143Y0042757D01*
X0016182Y0042632D01*
X0016218Y0042505D01*
X0016249Y0042377D01*
X0016277Y0042249D01*
X0016301Y0042120D01*
X0016321Y0041990D01*
X0016337Y0041859D01*
X0016349Y0041728D01*
X0016357Y0041597D01*
X0016361Y0041466D01*
X0016361Y0041334D01*
X0016357Y0041203D01*
X0016349Y0041072D01*
X0016337Y0040941D01*
X0016321Y0040810D01*
X0016301Y0040680D01*
X0016277Y0040551D01*
X0016249Y0040423D01*
X0016218Y0040295D01*
X0016182Y0040168D01*
X0016143Y0040043D01*
X0016100Y0039919D01*
X0016053Y0039796D01*
X0016002Y0039675D01*
X0015948Y0039555D01*
X0015890Y0039437D01*
X0015829Y0039320D01*
X0015764Y0039206D01*
X0015696Y0039094D01*
X0015624Y0038984D01*
X0015549Y0038876D01*
X0015471Y0038770D01*
X0015390Y0038667D01*
X0015305Y0038566D01*
X0015218Y0038468D01*
X0015127Y0038373D01*
X0015034Y0038280D01*
X0014938Y0038190D01*
X0014839Y0038103D01*
X0014738Y0038020D01*
X0014634Y0037939D01*
X0014528Y0037862D01*
X0014419Y0037788D01*
X0014308Y0037717D01*
X0014196Y0037649D01*
X0014081Y0037585D01*
X0013964Y0037525D01*
X0013845Y0037468D01*
X0013725Y0037415D01*
X0013604Y0037365D01*
X0013480Y0037319D01*
X0013356Y0037277D01*
X0013230Y0037239D01*
X0013103Y0037204D01*
X0012975Y0037173D01*
X0012847Y0037147D01*
X0012717Y0037124D01*
X0012587Y0037105D01*
X0012457Y0037090D01*
X0012326Y0037079D01*
X0012194Y0037072D01*
X0012063Y0037069D01*
X0011931Y0037070D01*
X0011800Y0037075D01*
X0011669Y0037084D01*
X0011538Y0037097D01*
X0011408Y0037114D01*
X0011278Y0037135D01*
X0011149Y0037160D01*
X0011021Y0037188D01*
X0010893Y0037221D01*
X0010767Y0037257D01*
X0010642Y0037298D01*
X0010518Y0037342D01*
X0010395Y0037389D01*
X0010274Y0037441D01*
X0010155Y0037496D01*
X0010037Y0037555D01*
X0009922Y0037617D01*
X0009808Y0037683D01*
X0009696Y0037752D01*
X0009586Y0037824D01*
X0009479Y0037900D01*
X0009374Y0037979D01*
X0009271Y0038061D01*
X0009171Y0038146D01*
X0009074Y0038235D01*
X0008979Y0038326D01*
X0008887Y0038420D01*
X0008798Y0038517D01*
X0008712Y0038616D01*
X0008629Y0038718D01*
X0008549Y0038823D01*
X0008473Y0038929D01*
X0008400Y0039038D01*
X0008330Y0039150D01*
X0008263Y0039263D01*
X0008200Y0039378D01*
X0008140Y0039496D01*
X0008084Y0039614D01*
X0008032Y0039735D01*
X0007983Y0039857D01*
X0007938Y0039981D01*
X0007897Y0040105D01*
X0007860Y0040232D01*
X0007826Y0040359D01*
X0007796Y0040487D01*
X0007771Y0040616D01*
X0007749Y0040745D01*
X0007731Y0040875D01*
X0007717Y0041006D01*
X0007707Y0041137D01*
X0007701Y0041269D01*
X0007699Y0041400D01*
X0086439Y0041400D02*
X0086441Y0041531D01*
X0086447Y0041663D01*
X0086457Y0041794D01*
X0086471Y0041925D01*
X0086489Y0042055D01*
X0086511Y0042184D01*
X0086536Y0042313D01*
X0086566Y0042441D01*
X0086600Y0042568D01*
X0086637Y0042695D01*
X0086678Y0042819D01*
X0086723Y0042943D01*
X0086772Y0043065D01*
X0086824Y0043186D01*
X0086880Y0043304D01*
X0086940Y0043422D01*
X0087003Y0043537D01*
X0087070Y0043650D01*
X0087140Y0043762D01*
X0087213Y0043871D01*
X0087289Y0043977D01*
X0087369Y0044082D01*
X0087452Y0044184D01*
X0087538Y0044283D01*
X0087627Y0044380D01*
X0087719Y0044474D01*
X0087814Y0044565D01*
X0087911Y0044654D01*
X0088011Y0044739D01*
X0088114Y0044821D01*
X0088219Y0044900D01*
X0088326Y0044976D01*
X0088436Y0045048D01*
X0088548Y0045117D01*
X0088662Y0045183D01*
X0088777Y0045245D01*
X0088895Y0045304D01*
X0089014Y0045359D01*
X0089135Y0045411D01*
X0089258Y0045458D01*
X0089382Y0045502D01*
X0089507Y0045543D01*
X0089633Y0045579D01*
X0089761Y0045612D01*
X0089889Y0045640D01*
X0090018Y0045665D01*
X0090148Y0045686D01*
X0090278Y0045703D01*
X0090409Y0045716D01*
X0090540Y0045725D01*
X0090671Y0045730D01*
X0090803Y0045731D01*
X0090934Y0045728D01*
X0091066Y0045721D01*
X0091197Y0045710D01*
X0091327Y0045695D01*
X0091457Y0045676D01*
X0091587Y0045653D01*
X0091715Y0045627D01*
X0091843Y0045596D01*
X0091970Y0045561D01*
X0092096Y0045523D01*
X0092220Y0045481D01*
X0092344Y0045435D01*
X0092465Y0045385D01*
X0092585Y0045332D01*
X0092704Y0045275D01*
X0092821Y0045215D01*
X0092935Y0045151D01*
X0093048Y0045083D01*
X0093159Y0045012D01*
X0093268Y0044938D01*
X0093374Y0044861D01*
X0093478Y0044780D01*
X0093579Y0044697D01*
X0093678Y0044610D01*
X0093774Y0044520D01*
X0093867Y0044427D01*
X0093958Y0044332D01*
X0094045Y0044234D01*
X0094130Y0044133D01*
X0094211Y0044030D01*
X0094289Y0043924D01*
X0094364Y0043816D01*
X0094436Y0043706D01*
X0094504Y0043594D01*
X0094569Y0043480D01*
X0094630Y0043363D01*
X0094688Y0043245D01*
X0094742Y0043125D01*
X0094793Y0043004D01*
X0094840Y0042881D01*
X0094883Y0042757D01*
X0094922Y0042632D01*
X0094958Y0042505D01*
X0094989Y0042377D01*
X0095017Y0042249D01*
X0095041Y0042120D01*
X0095061Y0041990D01*
X0095077Y0041859D01*
X0095089Y0041728D01*
X0095097Y0041597D01*
X0095101Y0041466D01*
X0095101Y0041334D01*
X0095097Y0041203D01*
X0095089Y0041072D01*
X0095077Y0040941D01*
X0095061Y0040810D01*
X0095041Y0040680D01*
X0095017Y0040551D01*
X0094989Y0040423D01*
X0094958Y0040295D01*
X0094922Y0040168D01*
X0094883Y0040043D01*
X0094840Y0039919D01*
X0094793Y0039796D01*
X0094742Y0039675D01*
X0094688Y0039555D01*
X0094630Y0039437D01*
X0094569Y0039320D01*
X0094504Y0039206D01*
X0094436Y0039094D01*
X0094364Y0038984D01*
X0094289Y0038876D01*
X0094211Y0038770D01*
X0094130Y0038667D01*
X0094045Y0038566D01*
X0093958Y0038468D01*
X0093867Y0038373D01*
X0093774Y0038280D01*
X0093678Y0038190D01*
X0093579Y0038103D01*
X0093478Y0038020D01*
X0093374Y0037939D01*
X0093268Y0037862D01*
X0093159Y0037788D01*
X0093048Y0037717D01*
X0092936Y0037649D01*
X0092821Y0037585D01*
X0092704Y0037525D01*
X0092585Y0037468D01*
X0092465Y0037415D01*
X0092344Y0037365D01*
X0092220Y0037319D01*
X0092096Y0037277D01*
X0091970Y0037239D01*
X0091843Y0037204D01*
X0091715Y0037173D01*
X0091587Y0037147D01*
X0091457Y0037124D01*
X0091327Y0037105D01*
X0091197Y0037090D01*
X0091066Y0037079D01*
X0090934Y0037072D01*
X0090803Y0037069D01*
X0090671Y0037070D01*
X0090540Y0037075D01*
X0090409Y0037084D01*
X0090278Y0037097D01*
X0090148Y0037114D01*
X0090018Y0037135D01*
X0089889Y0037160D01*
X0089761Y0037188D01*
X0089633Y0037221D01*
X0089507Y0037257D01*
X0089382Y0037298D01*
X0089258Y0037342D01*
X0089135Y0037389D01*
X0089014Y0037441D01*
X0088895Y0037496D01*
X0088777Y0037555D01*
X0088662Y0037617D01*
X0088548Y0037683D01*
X0088436Y0037752D01*
X0088326Y0037824D01*
X0088219Y0037900D01*
X0088114Y0037979D01*
X0088011Y0038061D01*
X0087911Y0038146D01*
X0087814Y0038235D01*
X0087719Y0038326D01*
X0087627Y0038420D01*
X0087538Y0038517D01*
X0087452Y0038616D01*
X0087369Y0038718D01*
X0087289Y0038823D01*
X0087213Y0038929D01*
X0087140Y0039038D01*
X0087070Y0039150D01*
X0087003Y0039263D01*
X0086940Y0039378D01*
X0086880Y0039496D01*
X0086824Y0039614D01*
X0086772Y0039735D01*
X0086723Y0039857D01*
X0086678Y0039981D01*
X0086637Y0040105D01*
X0086600Y0040232D01*
X0086566Y0040359D01*
X0086536Y0040487D01*
X0086511Y0040616D01*
X0086489Y0040745D01*
X0086471Y0040875D01*
X0086457Y0041006D01*
X0086447Y0041137D01*
X0086441Y0041269D01*
X0086439Y0041400D01*
D11*
X0061400Y0026439D03*
X0061400Y0056361D03*
D12*
X0027900Y0051900D03*
D13*
X0027900Y0041900D03*
X0027900Y0031900D03*
D14*
X0028287Y0031818D02*
X0089370Y0031818D01*
X0089370Y0032616D02*
X0031810Y0032616D01*
X0031875Y0032291D02*
X0031722Y0033059D01*
X0031422Y0033783D01*
X0030987Y0034434D01*
X0030434Y0034987D01*
X0029783Y0035422D01*
X0029059Y0035722D01*
X0028291Y0035875D01*
X0028287Y0035875D01*
X0028287Y0032287D01*
X0027513Y0032287D01*
X0027513Y0031513D01*
X0023925Y0031513D01*
X0023925Y0031509D01*
X0024078Y0030741D01*
X0024378Y0030017D01*
X0024813Y0029366D01*
X0025366Y0028813D01*
X0026017Y0028378D01*
X0026741Y0028078D01*
X0027509Y0027925D01*
X0027513Y0027925D01*
X0027513Y0031513D01*
X0028287Y0031513D01*
X0028287Y0027925D01*
X0028291Y0027925D01*
X0029059Y0028078D01*
X0029783Y0028378D01*
X0030434Y0028813D01*
X0030987Y0029366D01*
X0031422Y0030017D01*
X0031722Y0030741D01*
X0031875Y0031509D01*
X0031875Y0031513D01*
X0028287Y0031513D01*
X0028287Y0032287D01*
X0031875Y0032287D01*
X0031875Y0032291D01*
X0031777Y0031019D02*
X0089370Y0031019D01*
X0089370Y0030221D02*
X0063645Y0030221D01*
X0063866Y0030129D02*
X0062266Y0030792D01*
X0060534Y0030792D01*
X0058934Y0030129D01*
X0057710Y0028905D01*
X0057047Y0027305D01*
X0057047Y0025574D01*
X0057710Y0023974D01*
X0058934Y0022749D01*
X0060534Y0022087D01*
X0062266Y0022087D01*
X0063866Y0022749D01*
X0065090Y0023974D01*
X0065753Y0025574D01*
X0065753Y0027305D01*
X0065090Y0028905D01*
X0063866Y0030129D01*
X0064573Y0029422D02*
X0089370Y0029422D01*
X0089370Y0028624D02*
X0065207Y0028624D01*
X0065537Y0027825D02*
X0089370Y0027825D01*
X0089370Y0027027D02*
X0065753Y0027027D01*
X0065753Y0026228D02*
X0089370Y0026228D01*
X0089370Y0025430D02*
X0065693Y0025430D01*
X0065362Y0024631D02*
X0089370Y0024631D01*
X0089370Y0023833D02*
X0064949Y0023833D01*
X0064151Y0023034D02*
X0089370Y0023034D01*
X0089370Y0022236D02*
X0062626Y0022236D01*
X0060174Y0022236D02*
X0013430Y0022236D01*
X0013430Y0023034D02*
X0058649Y0023034D01*
X0057851Y0023833D02*
X0013430Y0023833D01*
X0013430Y0024631D02*
X0057438Y0024631D01*
X0057107Y0025430D02*
X0013430Y0025430D01*
X0013430Y0026228D02*
X0057047Y0026228D01*
X0057047Y0027027D02*
X0013430Y0027027D01*
X0013430Y0027825D02*
X0057263Y0027825D01*
X0057593Y0028624D02*
X0030151Y0028624D01*
X0031025Y0029422D02*
X0058227Y0029422D01*
X0059155Y0030221D02*
X0031507Y0030221D01*
X0028287Y0030221D02*
X0027513Y0030221D01*
X0027513Y0031019D02*
X0028287Y0031019D01*
X0027513Y0031818D02*
X0013430Y0031818D01*
X0013430Y0032616D02*
X0023990Y0032616D01*
X0023925Y0032291D02*
X0024078Y0033059D01*
X0024378Y0033783D01*
X0024813Y0034434D01*
X0025366Y0034987D01*
X0026017Y0035422D01*
X0026741Y0035722D01*
X0027509Y0035875D01*
X0027513Y0035875D01*
X0027513Y0032287D01*
X0023925Y0032287D01*
X0023925Y0032291D01*
X0024022Y0031019D02*
X0013430Y0031019D01*
X0013430Y0030221D02*
X0024293Y0030221D01*
X0024775Y0029422D02*
X0013430Y0029422D01*
X0013430Y0028624D02*
X0025649Y0028624D01*
X0027513Y0028624D02*
X0028287Y0028624D01*
X0028287Y0029422D02*
X0027513Y0029422D01*
X0027513Y0032616D02*
X0028287Y0032616D01*
X0028287Y0033415D02*
X0027513Y0033415D01*
X0027513Y0034213D02*
X0028287Y0034213D01*
X0028287Y0035012D02*
X0027513Y0035012D01*
X0027513Y0035810D02*
X0028287Y0035810D01*
X0028615Y0035810D02*
X0089289Y0035810D01*
X0089630Y0035669D02*
X0087524Y0036542D01*
X0085912Y0038154D01*
X0085039Y0040260D01*
X0085039Y0042540D01*
X0085912Y0044646D01*
X0087524Y0046258D01*
X0089630Y0047131D01*
X0091910Y0047131D01*
X0094016Y0046258D01*
X0095628Y0044646D01*
X0096501Y0042540D01*
X0096501Y0040260D01*
X0095628Y0038154D01*
X0094016Y0036542D01*
X0091910Y0035669D01*
X0089630Y0035669D01*
X0090584Y0034532D02*
X0090448Y0034397D01*
X0089851Y0034052D01*
X0089851Y0034052D01*
X0089851Y0034052D01*
X0089506Y0033454D01*
X0089370Y0033318D01*
X0089370Y0005180D01*
X0089310Y0004727D01*
X0088858Y0003942D01*
X0088073Y0003490D01*
X0087620Y0003430D01*
X0061068Y0003430D01*
X0061068Y0003892D01*
X0060160Y0006686D01*
X0060160Y0006686D01*
X0058433Y0009063D01*
X0056056Y0010790D01*
X0053263Y0011698D01*
X0049537Y0011698D01*
X0046744Y0010790D01*
X0046743Y0010790D01*
X0044367Y0009063D01*
X0042640Y0006686D01*
X0041732Y0003892D01*
X0041732Y0003430D01*
X0015180Y0003430D01*
X0014727Y0003490D01*
X0013942Y0003942D01*
X0013490Y0004727D01*
X0013430Y0005180D01*
X0013430Y0033318D01*
X0013294Y0033454D01*
X0012949Y0034052D01*
X0012352Y0034397D01*
X0012216Y0034532D01*
X0011636Y0034532D01*
X0010623Y0034612D01*
X0008697Y0035238D01*
X0007058Y0036428D01*
X0005868Y0038067D01*
X0005242Y0039994D01*
X0005162Y0041006D01*
X0005162Y0041794D01*
X0005242Y0042806D01*
X0005868Y0044733D01*
X0007058Y0046372D01*
X0008697Y0047562D01*
X0010623Y0048188D01*
X0011636Y0048268D01*
X0012216Y0048268D01*
X0012352Y0048403D01*
X0012949Y0048748D01*
X0012949Y0048748D01*
X0013294Y0049346D01*
X0013430Y0049482D01*
X0013430Y0077620D01*
X0013490Y0078073D01*
X0013942Y0078858D01*
X0014727Y0079310D01*
X0015180Y0079370D01*
X0041732Y0079370D01*
X0041732Y0078908D01*
X0042640Y0076114D01*
X0042640Y0076114D01*
X0044367Y0073737D01*
X0046743Y0072010D01*
X0046744Y0072010D01*
X0049537Y0071102D01*
X0052374Y0071102D01*
X0053263Y0071102D01*
X0056056Y0072010D01*
X0056056Y0072010D01*
X0058433Y0073737D01*
X0058433Y0073737D01*
X0060160Y0076114D01*
X0061068Y0078908D01*
X0061068Y0079370D01*
X0087620Y0079370D01*
X0088073Y0079310D01*
X0088858Y0078858D01*
X0089310Y0078073D01*
X0089370Y0077620D01*
X0089370Y0049482D01*
X0089506Y0049346D01*
X0089851Y0048748D01*
X0090448Y0048403D01*
X0090584Y0048268D01*
X0091164Y0048268D01*
X0092177Y0048188D01*
X0094103Y0047562D01*
X0095742Y0046372D01*
X0096932Y0044733D01*
X0097558Y0042806D01*
X0097638Y0041794D01*
X0097638Y0041006D01*
X0097558Y0039994D01*
X0096932Y0038067D01*
X0095742Y0036428D01*
X0094103Y0035238D01*
X0092177Y0034612D01*
X0091164Y0034532D01*
X0090584Y0034532D01*
X0090131Y0034213D02*
X0031135Y0034213D01*
X0031575Y0033415D02*
X0089466Y0033415D01*
X0092251Y0035810D02*
X0094891Y0035810D01*
X0094083Y0036609D02*
X0095873Y0036609D01*
X0096453Y0037407D02*
X0094882Y0037407D01*
X0095650Y0038206D02*
X0096977Y0038206D01*
X0097237Y0039004D02*
X0095981Y0039004D01*
X0096311Y0039803D02*
X0097496Y0039803D01*
X0097606Y0040601D02*
X0096501Y0040601D01*
X0096501Y0041400D02*
X0097638Y0041400D01*
X0097606Y0042199D02*
X0096501Y0042199D01*
X0096311Y0042997D02*
X0097496Y0042997D01*
X0097237Y0043796D02*
X0095981Y0043796D01*
X0095650Y0044594D02*
X0096977Y0044594D01*
X0096453Y0045393D02*
X0094882Y0045393D01*
X0094083Y0046191D02*
X0095873Y0046191D01*
X0094891Y0046990D02*
X0092251Y0046990D01*
X0093407Y0047788D02*
X0009393Y0047788D01*
X0010549Y0046990D02*
X0007909Y0046990D01*
X0008717Y0046191D02*
X0006927Y0046191D01*
X0006347Y0045393D02*
X0007918Y0045393D01*
X0007172Y0044646D02*
X0006299Y0042540D01*
X0006299Y0040260D01*
X0007172Y0038154D01*
X0008784Y0036542D01*
X0010890Y0035669D01*
X0013170Y0035669D01*
X0015276Y0036542D01*
X0016888Y0038154D01*
X0017761Y0040260D01*
X0017761Y0042540D01*
X0016888Y0044646D01*
X0015276Y0046258D01*
X0013170Y0047131D01*
X0010890Y0047131D01*
X0008784Y0046258D01*
X0007172Y0044646D01*
X0007150Y0044594D02*
X0005823Y0044594D01*
X0005563Y0043796D02*
X0006819Y0043796D01*
X0006489Y0042997D02*
X0005304Y0042997D01*
X0005194Y0042199D02*
X0006299Y0042199D01*
X0006299Y0041400D02*
X0005162Y0041400D01*
X0005194Y0040601D02*
X0006299Y0040601D01*
X0006489Y0039803D02*
X0005304Y0039803D01*
X0005563Y0039004D02*
X0006819Y0039004D01*
X0007150Y0038206D02*
X0005823Y0038206D01*
X0006347Y0037407D02*
X0007918Y0037407D01*
X0008717Y0036609D02*
X0006927Y0036609D01*
X0007909Y0035810D02*
X0010549Y0035810D01*
X0009393Y0035012D02*
X0025403Y0035012D01*
X0024665Y0034213D02*
X0012669Y0034213D01*
X0012949Y0034052D02*
X0012949Y0034052D01*
X0012949Y0034052D01*
X0013334Y0033415D02*
X0024225Y0033415D01*
X0027185Y0035810D02*
X0013511Y0035810D01*
X0015343Y0036609D02*
X0087457Y0036609D01*
X0086658Y0037407D02*
X0016142Y0037407D01*
X0016910Y0038206D02*
X0026432Y0038206D01*
X0027109Y0037925D02*
X0028691Y0037925D01*
X0030152Y0038530D01*
X0031270Y0039648D01*
X0031875Y0041109D01*
X0031875Y0042691D01*
X0031270Y0044152D01*
X0030152Y0045270D01*
X0028691Y0045875D01*
X0027109Y0045875D01*
X0025648Y0045270D01*
X0024530Y0044152D01*
X0023925Y0042691D01*
X0023925Y0041109D01*
X0024530Y0039648D01*
X0025648Y0038530D01*
X0027109Y0037925D01*
X0025174Y0039004D02*
X0017241Y0039004D01*
X0017571Y0039803D02*
X0024466Y0039803D01*
X0024136Y0040601D02*
X0017761Y0040601D01*
X0017761Y0041400D02*
X0023925Y0041400D01*
X0023925Y0042199D02*
X0017761Y0042199D01*
X0017571Y0042997D02*
X0024052Y0042997D01*
X0024383Y0043796D02*
X0017241Y0043796D01*
X0016910Y0044594D02*
X0024973Y0044594D01*
X0025945Y0045393D02*
X0016142Y0045393D01*
X0015343Y0046191D02*
X0087457Y0046191D01*
X0086658Y0045393D02*
X0029855Y0045393D01*
X0030827Y0044594D02*
X0085890Y0044594D01*
X0085559Y0043796D02*
X0031417Y0043796D01*
X0031748Y0042997D02*
X0085229Y0042997D01*
X0085039Y0042199D02*
X0031875Y0042199D01*
X0031875Y0041400D02*
X0085039Y0041400D01*
X0085039Y0040601D02*
X0031664Y0040601D01*
X0031334Y0039803D02*
X0085229Y0039803D01*
X0085559Y0039004D02*
X0030626Y0039004D01*
X0029368Y0038206D02*
X0085890Y0038206D01*
X0093407Y0035012D02*
X0030397Y0035012D01*
X0031055Y0047925D02*
X0024745Y0047925D01*
X0023925Y0048745D01*
X0023925Y0055055D01*
X0024745Y0055875D01*
X0031055Y0055875D01*
X0031875Y0055055D01*
X0031875Y0048745D01*
X0031055Y0047925D01*
X0031716Y0048587D02*
X0090131Y0048587D01*
X0089851Y0048748D02*
X0089851Y0048748D01*
X0089851Y0048748D01*
X0089466Y0049385D02*
X0031875Y0049385D01*
X0031875Y0050184D02*
X0089370Y0050184D01*
X0089370Y0050982D02*
X0031875Y0050982D01*
X0031875Y0051781D02*
X0089370Y0051781D01*
X0089370Y0052579D02*
X0063645Y0052579D01*
X0063866Y0052671D02*
X0062266Y0052008D01*
X0060534Y0052008D01*
X0058934Y0052671D01*
X0057710Y0053895D01*
X0057047Y0055495D01*
X0057047Y0057226D01*
X0057710Y0058826D01*
X0058934Y0060051D01*
X0060534Y0060713D01*
X0062266Y0060713D01*
X0063866Y0060051D01*
X0065090Y0058826D01*
X0065753Y0057226D01*
X0065753Y0055495D01*
X0065090Y0053895D01*
X0063866Y0052671D01*
X0064573Y0053378D02*
X0089370Y0053378D01*
X0089370Y0054176D02*
X0065207Y0054176D01*
X0065537Y0054975D02*
X0089370Y0054975D01*
X0089370Y0055773D02*
X0065753Y0055773D01*
X0065753Y0056572D02*
X0089370Y0056572D01*
X0089370Y0057370D02*
X0065693Y0057370D01*
X0065362Y0058169D02*
X0089370Y0058169D01*
X0089370Y0058967D02*
X0064949Y0058967D01*
X0064151Y0059766D02*
X0089370Y0059766D01*
X0089370Y0060564D02*
X0062626Y0060564D01*
X0060174Y0060564D02*
X0013430Y0060564D01*
X0013430Y0059766D02*
X0058649Y0059766D01*
X0057851Y0058967D02*
X0013430Y0058967D01*
X0013430Y0058169D02*
X0057438Y0058169D01*
X0057107Y0057370D02*
X0013430Y0057370D01*
X0013430Y0056572D02*
X0057047Y0056572D01*
X0057047Y0055773D02*
X0031156Y0055773D01*
X0031875Y0054975D02*
X0057263Y0054975D01*
X0057593Y0054176D02*
X0031875Y0054176D01*
X0031875Y0053378D02*
X0058227Y0053378D01*
X0059155Y0052579D02*
X0031875Y0052579D01*
X0024644Y0055773D02*
X0013430Y0055773D01*
X0013430Y0054975D02*
X0023925Y0054975D01*
X0023925Y0054176D02*
X0013430Y0054176D01*
X0013430Y0053378D02*
X0023925Y0053378D01*
X0023925Y0052579D02*
X0013430Y0052579D01*
X0013430Y0051781D02*
X0023925Y0051781D01*
X0023925Y0050982D02*
X0013430Y0050982D01*
X0013430Y0050184D02*
X0023925Y0050184D01*
X0023925Y0049385D02*
X0013334Y0049385D01*
X0012669Y0048587D02*
X0024084Y0048587D01*
X0013511Y0046990D02*
X0089289Y0046990D01*
X0089370Y0061363D02*
X0013430Y0061363D01*
X0013430Y0062161D02*
X0089370Y0062161D01*
X0089370Y0062960D02*
X0013430Y0062960D01*
X0013430Y0063758D02*
X0089370Y0063758D01*
X0089370Y0064557D02*
X0013430Y0064557D01*
X0013430Y0065355D02*
X0089370Y0065355D01*
X0089370Y0066154D02*
X0013430Y0066154D01*
X0013430Y0066952D02*
X0089370Y0066952D01*
X0089370Y0067751D02*
X0013430Y0067751D01*
X0013430Y0068549D02*
X0089370Y0068549D01*
X0089370Y0069348D02*
X0013430Y0069348D01*
X0013430Y0070146D02*
X0089370Y0070146D01*
X0089370Y0070945D02*
X0013430Y0070945D01*
X0013430Y0071743D02*
X0047564Y0071743D01*
X0046012Y0072542D02*
X0013430Y0072542D01*
X0013430Y0073340D02*
X0044913Y0073340D01*
X0044367Y0073737D02*
X0044367Y0073737D01*
X0044367Y0073737D01*
X0044075Y0074139D02*
X0013430Y0074139D01*
X0013430Y0074937D02*
X0043495Y0074937D01*
X0042914Y0075736D02*
X0013430Y0075736D01*
X0013430Y0076534D02*
X0042503Y0076534D01*
X0042244Y0077333D02*
X0013430Y0077333D01*
X0013523Y0078132D02*
X0041984Y0078132D01*
X0041732Y0078930D02*
X0014068Y0078930D01*
X0053263Y0071102D02*
X0053263Y0071102D01*
X0055236Y0071743D02*
X0089370Y0071743D01*
X0089370Y0072542D02*
X0056788Y0072542D01*
X0057887Y0073340D02*
X0089370Y0073340D01*
X0089370Y0074139D02*
X0058725Y0074139D01*
X0058433Y0073737D02*
X0058433Y0073737D01*
X0059305Y0074937D02*
X0089370Y0074937D01*
X0089370Y0075736D02*
X0059886Y0075736D01*
X0060160Y0076114D02*
X0060160Y0076114D01*
X0060297Y0076534D02*
X0089370Y0076534D01*
X0089370Y0077333D02*
X0060556Y0077333D01*
X0060816Y0078132D02*
X0089277Y0078132D01*
X0088732Y0078930D02*
X0061068Y0078930D01*
X0089370Y0021437D02*
X0013430Y0021437D01*
X0013430Y0020639D02*
X0089370Y0020639D01*
X0089370Y0019840D02*
X0013430Y0019840D01*
X0013430Y0019042D02*
X0089370Y0019042D01*
X0089370Y0018243D02*
X0013430Y0018243D01*
X0013430Y0017445D02*
X0089370Y0017445D01*
X0089370Y0016646D02*
X0013430Y0016646D01*
X0013430Y0015848D02*
X0089370Y0015848D01*
X0089370Y0015049D02*
X0013430Y0015049D01*
X0013430Y0014251D02*
X0089370Y0014251D01*
X0089370Y0013452D02*
X0013430Y0013452D01*
X0013430Y0012654D02*
X0089370Y0012654D01*
X0089370Y0011855D02*
X0013430Y0011855D01*
X0013430Y0011057D02*
X0047564Y0011057D01*
X0046012Y0010258D02*
X0013430Y0010258D01*
X0013430Y0009460D02*
X0044913Y0009460D01*
X0044367Y0009063D02*
X0044367Y0009063D01*
X0044367Y0009063D01*
X0044075Y0008661D02*
X0013430Y0008661D01*
X0013430Y0007863D02*
X0043495Y0007863D01*
X0042914Y0007064D02*
X0013430Y0007064D01*
X0013430Y0006266D02*
X0042503Y0006266D01*
X0042640Y0006686D02*
X0042640Y0006686D01*
X0042244Y0005467D02*
X0013430Y0005467D01*
X0013523Y0004668D02*
X0041984Y0004668D01*
X0041732Y0003870D02*
X0014068Y0003870D01*
X0055236Y0011057D02*
X0089370Y0011057D01*
X0089370Y0010258D02*
X0056788Y0010258D01*
X0056056Y0010790D02*
X0056056Y0010790D01*
X0057887Y0009460D02*
X0089370Y0009460D01*
X0089370Y0008661D02*
X0058725Y0008661D01*
X0058433Y0009063D02*
X0058433Y0009063D01*
X0058433Y0009063D01*
X0059305Y0007863D02*
X0089370Y0007863D01*
X0089370Y0007064D02*
X0059886Y0007064D01*
X0060297Y0006266D02*
X0089370Y0006266D01*
X0089370Y0005467D02*
X0060556Y0005467D01*
X0060816Y0004668D02*
X0089277Y0004668D01*
X0089310Y0004727D02*
X0089310Y0004727D01*
X0088732Y0003870D02*
X0061068Y0003870D01*
D15*
X0038900Y0013900D03*
X0071400Y0026400D03*
X0071400Y0058900D03*
X0038900Y0061400D03*
M02*
