G75*
%MOIN*%
%OFA0B0*%
%FSLAX24Y24*%
%IPPOS*%
%LPD*%
%AMOC8*
5,1,8,0,0,1.08239X$1,22.5*
%
%ADD10C,0.0515*%
%ADD11R,0.0236X0.0630*%
%ADD12C,0.0050*%
%ADD13R,0.0394X0.0433*%
%ADD14R,0.0800X0.0260*%
%ADD15C,0.0075*%
%ADD16R,0.0515X0.0515*%
%ADD17C,0.0160*%
%ADD18C,0.0240*%
%ADD19R,0.0396X0.0396*%
D10*
X014462Y006120D03*
X015462Y006120D03*
X016462Y006120D03*
X017462Y006120D03*
X018462Y006120D03*
X016269Y003662D03*
X015269Y003662D03*
X015462Y010120D03*
X016462Y010120D03*
X017462Y010120D03*
X018462Y010120D03*
X014462Y010120D03*
D11*
X010170Y004615D03*
X009670Y004615D03*
X009170Y004615D03*
X008670Y004615D03*
X008670Y002525D03*
X009166Y002525D03*
X009666Y002525D03*
X010166Y002525D03*
D12*
X006177Y000870D02*
X005390Y000870D01*
X006177Y000870D02*
X024288Y000870D01*
X023894Y001657D02*
X023896Y001696D01*
X023902Y001735D01*
X023912Y001773D01*
X023925Y001810D01*
X023942Y001845D01*
X023962Y001879D01*
X023986Y001910D01*
X024013Y001939D01*
X024042Y001965D01*
X024074Y001988D01*
X024108Y002008D01*
X024144Y002024D01*
X024181Y002036D01*
X024220Y002045D01*
X024259Y002050D01*
X024298Y002051D01*
X024337Y002048D01*
X024376Y002041D01*
X024413Y002030D01*
X024450Y002016D01*
X024485Y001998D01*
X024518Y001977D01*
X024549Y001952D01*
X024577Y001925D01*
X024602Y001895D01*
X024624Y001862D01*
X024643Y001828D01*
X024658Y001792D01*
X024670Y001754D01*
X024678Y001716D01*
X024682Y001677D01*
X024682Y001637D01*
X024678Y001598D01*
X024670Y001560D01*
X024658Y001522D01*
X024643Y001486D01*
X024624Y001452D01*
X024602Y001419D01*
X024577Y001389D01*
X024549Y001362D01*
X024518Y001337D01*
X024485Y001316D01*
X024450Y001298D01*
X024413Y001284D01*
X024376Y001273D01*
X024337Y001266D01*
X024298Y001263D01*
X024259Y001264D01*
X024220Y001269D01*
X024181Y001278D01*
X024144Y001290D01*
X024108Y001306D01*
X024074Y001326D01*
X024042Y001349D01*
X024013Y001375D01*
X023986Y001404D01*
X023962Y001435D01*
X023942Y001469D01*
X023925Y001504D01*
X023912Y001541D01*
X023902Y001579D01*
X023896Y001618D01*
X023894Y001657D01*
X024288Y000870D02*
X024342Y000872D01*
X024395Y000877D01*
X024448Y000886D01*
X024500Y000899D01*
X024552Y000915D01*
X024602Y000935D01*
X024650Y000958D01*
X024697Y000985D01*
X024742Y001014D01*
X024785Y001047D01*
X024825Y001082D01*
X024863Y001120D01*
X024898Y001160D01*
X024931Y001203D01*
X024960Y001248D01*
X024987Y001295D01*
X025010Y001343D01*
X025030Y001393D01*
X025046Y001445D01*
X025059Y001497D01*
X025068Y001550D01*
X025073Y001603D01*
X025075Y001657D01*
X025075Y011894D01*
X023894Y011894D02*
X023896Y011933D01*
X023902Y011972D01*
X023912Y012010D01*
X023925Y012047D01*
X023942Y012082D01*
X023962Y012116D01*
X023986Y012147D01*
X024013Y012176D01*
X024042Y012202D01*
X024074Y012225D01*
X024108Y012245D01*
X024144Y012261D01*
X024181Y012273D01*
X024220Y012282D01*
X024259Y012287D01*
X024298Y012288D01*
X024337Y012285D01*
X024376Y012278D01*
X024413Y012267D01*
X024450Y012253D01*
X024485Y012235D01*
X024518Y012214D01*
X024549Y012189D01*
X024577Y012162D01*
X024602Y012132D01*
X024624Y012099D01*
X024643Y012065D01*
X024658Y012029D01*
X024670Y011991D01*
X024678Y011953D01*
X024682Y011914D01*
X024682Y011874D01*
X024678Y011835D01*
X024670Y011797D01*
X024658Y011759D01*
X024643Y011723D01*
X024624Y011689D01*
X024602Y011656D01*
X024577Y011626D01*
X024549Y011599D01*
X024518Y011574D01*
X024485Y011553D01*
X024450Y011535D01*
X024413Y011521D01*
X024376Y011510D01*
X024337Y011503D01*
X024298Y011500D01*
X024259Y011501D01*
X024220Y011506D01*
X024181Y011515D01*
X024144Y011527D01*
X024108Y011543D01*
X024074Y011563D01*
X024042Y011586D01*
X024013Y011612D01*
X023986Y011641D01*
X023962Y011672D01*
X023942Y011706D01*
X023925Y011741D01*
X023912Y011778D01*
X023902Y011816D01*
X023896Y011855D01*
X023894Y011894D01*
X024288Y012681D02*
X024342Y012679D01*
X024395Y012674D01*
X024448Y012665D01*
X024500Y012652D01*
X024552Y012636D01*
X024602Y012616D01*
X024650Y012593D01*
X024697Y012566D01*
X024742Y012537D01*
X024785Y012504D01*
X024825Y012469D01*
X024863Y012431D01*
X024898Y012391D01*
X024931Y012348D01*
X024960Y012303D01*
X024987Y012256D01*
X025010Y012208D01*
X025030Y012158D01*
X025046Y012106D01*
X025059Y012054D01*
X025068Y012001D01*
X025073Y011948D01*
X025075Y011894D01*
X024288Y012681D02*
X006177Y012681D01*
X005783Y011894D02*
X005785Y011933D01*
X005791Y011972D01*
X005801Y012010D01*
X005814Y012047D01*
X005831Y012082D01*
X005851Y012116D01*
X005875Y012147D01*
X005902Y012176D01*
X005931Y012202D01*
X005963Y012225D01*
X005997Y012245D01*
X006033Y012261D01*
X006070Y012273D01*
X006109Y012282D01*
X006148Y012287D01*
X006187Y012288D01*
X006226Y012285D01*
X006265Y012278D01*
X006302Y012267D01*
X006339Y012253D01*
X006374Y012235D01*
X006407Y012214D01*
X006438Y012189D01*
X006466Y012162D01*
X006491Y012132D01*
X006513Y012099D01*
X006532Y012065D01*
X006547Y012029D01*
X006559Y011991D01*
X006567Y011953D01*
X006571Y011914D01*
X006571Y011874D01*
X006567Y011835D01*
X006559Y011797D01*
X006547Y011759D01*
X006532Y011723D01*
X006513Y011689D01*
X006491Y011656D01*
X006466Y011626D01*
X006438Y011599D01*
X006407Y011574D01*
X006374Y011553D01*
X006339Y011535D01*
X006302Y011521D01*
X006265Y011510D01*
X006226Y011503D01*
X006187Y011500D01*
X006148Y011501D01*
X006109Y011506D01*
X006070Y011515D01*
X006033Y011527D01*
X005997Y011543D01*
X005963Y011563D01*
X005931Y011586D01*
X005902Y011612D01*
X005875Y011641D01*
X005851Y011672D01*
X005831Y011706D01*
X005814Y011741D01*
X005801Y011778D01*
X005791Y011816D01*
X005785Y011855D01*
X005783Y011894D01*
X005390Y011894D02*
X005392Y011948D01*
X005397Y012001D01*
X005406Y012054D01*
X005419Y012106D01*
X005435Y012158D01*
X005455Y012208D01*
X005478Y012256D01*
X005505Y012303D01*
X005534Y012348D01*
X005567Y012391D01*
X005602Y012431D01*
X005640Y012469D01*
X005680Y012504D01*
X005723Y012537D01*
X005768Y012566D01*
X005815Y012593D01*
X005863Y012616D01*
X005913Y012636D01*
X005965Y012652D01*
X006017Y012665D01*
X006070Y012674D01*
X006123Y012679D01*
X006177Y012681D01*
X005390Y011894D02*
X005390Y001657D01*
X005783Y001657D02*
X005785Y001696D01*
X005791Y001735D01*
X005801Y001773D01*
X005814Y001810D01*
X005831Y001845D01*
X005851Y001879D01*
X005875Y001910D01*
X005902Y001939D01*
X005931Y001965D01*
X005963Y001988D01*
X005997Y002008D01*
X006033Y002024D01*
X006070Y002036D01*
X006109Y002045D01*
X006148Y002050D01*
X006187Y002051D01*
X006226Y002048D01*
X006265Y002041D01*
X006302Y002030D01*
X006339Y002016D01*
X006374Y001998D01*
X006407Y001977D01*
X006438Y001952D01*
X006466Y001925D01*
X006491Y001895D01*
X006513Y001862D01*
X006532Y001828D01*
X006547Y001792D01*
X006559Y001754D01*
X006567Y001716D01*
X006571Y001677D01*
X006571Y001637D01*
X006567Y001598D01*
X006559Y001560D01*
X006547Y001522D01*
X006532Y001486D01*
X006513Y001452D01*
X006491Y001419D01*
X006466Y001389D01*
X006438Y001362D01*
X006407Y001337D01*
X006374Y001316D01*
X006339Y001298D01*
X006302Y001284D01*
X006265Y001273D01*
X006226Y001266D01*
X006187Y001263D01*
X006148Y001264D01*
X006109Y001269D01*
X006070Y001278D01*
X006033Y001290D01*
X005997Y001306D01*
X005963Y001326D01*
X005931Y001349D01*
X005902Y001375D01*
X005875Y001404D01*
X005851Y001435D01*
X005831Y001469D01*
X005814Y001504D01*
X005801Y001541D01*
X005791Y001579D01*
X005785Y001618D01*
X005783Y001657D01*
X005390Y001657D02*
X005392Y001603D01*
X005397Y001550D01*
X005406Y001497D01*
X005419Y001445D01*
X005435Y001393D01*
X005455Y001343D01*
X005478Y001295D01*
X005505Y001248D01*
X005534Y001203D01*
X005567Y001160D01*
X005602Y001120D01*
X005640Y001082D01*
X005680Y001047D01*
X005723Y001014D01*
X005768Y000985D01*
X005815Y000958D01*
X005863Y000935D01*
X005913Y000915D01*
X005965Y000899D01*
X006017Y000886D01*
X006070Y000877D01*
X006123Y000872D01*
X006177Y000870D01*
D13*
X011890Y002535D03*
X011890Y003205D03*
X023123Y009223D03*
X023123Y009892D03*
D14*
X011100Y009420D03*
X011100Y008920D03*
X011100Y008420D03*
X011100Y007920D03*
X011100Y007420D03*
X011100Y006920D03*
X011100Y006420D03*
X008680Y006420D03*
X008680Y006920D03*
X008680Y007420D03*
X008680Y007920D03*
X008680Y008420D03*
X008680Y008920D03*
X008680Y009420D03*
D15*
X022985Y010719D02*
X022985Y010945D01*
X023261Y010945D01*
X023261Y010719D01*
X022985Y010719D01*
X022985Y010793D02*
X023261Y010793D01*
X023261Y010867D02*
X022985Y010867D01*
X022985Y010941D02*
X023261Y010941D01*
X022985Y011319D02*
X022985Y011545D01*
X023261Y011545D01*
X023261Y011319D01*
X022985Y011319D01*
X022985Y011393D02*
X023261Y011393D01*
X023261Y011467D02*
X022985Y011467D01*
X022985Y011541D02*
X023261Y011541D01*
D16*
X014269Y003662D03*
D17*
X015269Y003662D02*
X015269Y004833D01*
X015207Y004896D01*
X015307Y004996D01*
X019207Y004996D01*
X019407Y005196D01*
X019407Y007996D01*
X019357Y008046D01*
X022807Y011496D01*
X023060Y011496D01*
X023074Y011494D01*
X023088Y011490D01*
X023100Y011482D01*
X023110Y011472D01*
X023118Y011460D01*
X023122Y011446D01*
X023124Y011432D01*
X023123Y010832D02*
X023123Y009892D01*
X023123Y009223D02*
X023007Y009106D01*
X023007Y005296D01*
X022160Y004449D01*
X017057Y004449D01*
X016269Y003662D01*
X016207Y003587D02*
X016207Y003396D01*
X015346Y002535D01*
X011890Y002535D01*
X011750Y002535D01*
X010166Y002525D01*
X009707Y002484D02*
X009666Y002525D01*
X009707Y002484D02*
X009707Y001996D01*
X014207Y001996D01*
X011890Y003205D02*
X011886Y003795D01*
X011907Y003816D01*
X011907Y004296D01*
X012707Y005096D01*
X012807Y005096D01*
X012807Y006296D01*
X012183Y006920D01*
X011100Y006920D01*
X010983Y006920D01*
X011100Y006420D02*
X010807Y006127D01*
X010807Y004096D01*
X010607Y003896D01*
X010007Y003896D01*
X009670Y004233D01*
X009670Y004615D01*
X010170Y004615D02*
X010207Y004652D01*
X010207Y005396D01*
X010007Y005596D01*
X010007Y009096D01*
X009683Y009420D01*
X008680Y009420D01*
X008680Y008920D02*
X007983Y008920D01*
X007807Y009096D01*
X007807Y009696D01*
X008107Y009996D01*
X011007Y009996D01*
X011207Y009796D01*
X011207Y009520D01*
X011307Y009420D01*
X017983Y009420D01*
X019357Y008046D01*
X017407Y008096D02*
X017407Y006175D01*
X017462Y006120D01*
X016462Y006120D02*
X016407Y006175D01*
X016407Y007696D01*
X015683Y008420D01*
X011100Y008420D01*
X011100Y007920D02*
X014583Y007920D01*
X015407Y007096D01*
X015407Y006175D01*
X015462Y006120D01*
X014462Y006120D02*
X014462Y006541D01*
X013607Y007396D01*
X011100Y007420D01*
X011100Y008920D02*
X016583Y008920D01*
X017407Y008096D01*
X017462Y010120D02*
X017407Y010175D01*
X017407Y011096D01*
X016607Y011896D01*
X007707Y011896D01*
X006407Y010596D01*
X006407Y008396D01*
X007383Y007420D01*
X008680Y007420D01*
X008680Y007920D02*
X007683Y007920D01*
X006907Y008696D01*
X006907Y010496D01*
X007707Y011296D01*
X015807Y011296D01*
X016507Y010596D01*
X016507Y010165D01*
X016462Y010120D01*
X015462Y010120D02*
X015407Y010175D01*
X015407Y010696D01*
X015307Y010796D01*
X008107Y010796D01*
X007407Y010096D01*
X007407Y008896D01*
X007883Y008420D01*
X008680Y008420D01*
X008680Y006920D02*
X006931Y006920D01*
X006907Y006896D01*
X008131Y006420D02*
X008680Y006420D01*
X009207Y005396D02*
X009170Y005359D01*
X009170Y004615D01*
X008670Y004615D02*
X008690Y004365D01*
X008690Y003670D01*
X009155Y003205D01*
X011890Y003205D01*
X011886Y003795D02*
X011885Y003930D01*
X012807Y005096D02*
X015007Y005096D01*
X015207Y004896D01*
X009166Y002525D02*
X009166Y001861D01*
X009344Y001683D01*
X011100Y009420D02*
X011307Y009420D01*
D18*
X009707Y008972D02*
X009707Y005536D01*
X009753Y005426D01*
X009907Y005272D01*
X009907Y005122D01*
X009879Y005150D01*
X009625Y005150D01*
X009625Y005685D01*
X009496Y005814D01*
X008918Y005814D01*
X008789Y005685D01*
X008789Y005150D01*
X008461Y005150D01*
X008332Y005021D01*
X008332Y004209D01*
X008390Y004151D01*
X008390Y003610D01*
X008436Y003500D01*
X008520Y003416D01*
X008876Y003060D01*
X008461Y003060D01*
X008332Y002931D01*
X008332Y002119D01*
X008461Y001990D01*
X008866Y001990D01*
X008866Y001802D01*
X008912Y001691D01*
X008926Y001677D01*
X008926Y001394D01*
X009055Y001265D01*
X009633Y001265D01*
X009762Y001394D01*
X009762Y001696D01*
X013800Y001696D01*
X013918Y001578D01*
X014496Y001578D01*
X014625Y001707D01*
X014625Y002285D01*
X014496Y002414D01*
X013918Y002414D01*
X013800Y002296D01*
X012307Y002296D01*
X012307Y002535D01*
X011890Y002535D01*
X011890Y002535D01*
X011473Y002535D01*
X011473Y002296D01*
X010504Y002296D01*
X010504Y002525D01*
X010166Y002525D01*
X010166Y002525D01*
X010504Y002525D01*
X010504Y002869D01*
X010495Y002905D01*
X011473Y002905D01*
X011473Y002897D01*
X011505Y002865D01*
X011488Y002837D01*
X011473Y002781D01*
X011473Y002535D01*
X011890Y002535D01*
X011890Y002535D01*
X012307Y002535D01*
X012307Y002781D01*
X012292Y002837D01*
X012275Y002865D01*
X012307Y002897D01*
X012307Y003512D01*
X012187Y003632D01*
X012187Y003708D01*
X012207Y003756D01*
X012207Y004172D01*
X012831Y004796D01*
X014883Y004796D01*
X014953Y004726D01*
X014969Y004709D01*
X014969Y004037D01*
X014865Y003932D01*
X014792Y003757D01*
X014792Y003567D01*
X014865Y003391D01*
X014999Y003257D01*
X015174Y003184D01*
X015364Y003184D01*
X015540Y003257D01*
X015674Y003391D01*
X015747Y003567D01*
X015747Y003757D01*
X015674Y003932D01*
X015569Y004037D01*
X015569Y004696D01*
X019267Y004696D01*
X019377Y004742D01*
X019661Y005026D01*
X019707Y005136D01*
X019707Y007972D01*
X022728Y010993D01*
X022728Y010668D01*
X022768Y010574D01*
X022823Y010518D01*
X022823Y010317D01*
X022707Y010200D01*
X022707Y009584D01*
X022738Y009553D01*
X022722Y009524D01*
X022707Y009468D01*
X022707Y009223D01*
X023123Y009223D01*
X023123Y009223D01*
X022707Y009223D01*
X022707Y008977D01*
X022722Y008921D01*
X022751Y008871D01*
X022792Y008830D01*
X022842Y008801D01*
X022898Y008786D01*
X023123Y008786D01*
X023123Y009223D01*
X023123Y009223D01*
X023540Y009223D01*
X023540Y009468D01*
X023525Y009524D01*
X023509Y009553D01*
X023540Y009584D01*
X023540Y010200D01*
X023423Y010317D01*
X023423Y010518D01*
X023479Y010574D01*
X023518Y010668D01*
X023518Y010996D01*
X023479Y011091D01*
X023438Y011132D01*
X023479Y011174D01*
X023518Y011268D01*
X023518Y011596D01*
X023479Y011691D01*
X023407Y011763D01*
X023312Y011802D01*
X022935Y011802D01*
X022920Y011796D01*
X022747Y011796D01*
X022637Y011750D01*
X019357Y008470D01*
X018153Y009674D01*
X018043Y009720D01*
X017737Y009720D01*
X017867Y009850D01*
X017940Y010025D01*
X017940Y010215D01*
X017867Y010390D01*
X017733Y010525D01*
X017707Y010535D01*
X017707Y011156D01*
X017661Y011266D01*
X017577Y011350D01*
X016777Y012150D01*
X016667Y012196D01*
X007647Y012196D01*
X007537Y012150D01*
X007453Y012066D01*
X006153Y010766D01*
X006107Y010656D01*
X006107Y008336D01*
X006153Y008226D01*
X006237Y008142D01*
X007065Y007314D01*
X006618Y007314D01*
X006489Y007185D01*
X006489Y006607D01*
X006618Y006478D01*
X007196Y006478D01*
X007325Y006607D01*
X007325Y006620D01*
X008071Y006620D01*
X008060Y006579D01*
X008060Y006420D01*
X008680Y006420D01*
X009300Y006420D01*
X009300Y006579D01*
X009285Y006635D01*
X009267Y006666D01*
X009300Y006699D01*
X009300Y007141D01*
X009271Y007170D01*
X009300Y007199D01*
X009300Y007641D01*
X009271Y007670D01*
X009300Y007699D01*
X009300Y008141D01*
X009271Y008170D01*
X009300Y008199D01*
X009300Y008641D01*
X009271Y008670D01*
X009300Y008699D01*
X009300Y009120D01*
X009559Y009120D01*
X009707Y008972D01*
X009674Y009005D02*
X009300Y009005D01*
X009300Y008766D02*
X009707Y008766D01*
X009707Y008528D02*
X009300Y008528D01*
X009300Y008289D02*
X009707Y008289D01*
X009707Y008051D02*
X009300Y008051D01*
X009300Y007812D02*
X009707Y007812D01*
X009707Y007574D02*
X009300Y007574D01*
X009300Y007335D02*
X009707Y007335D01*
X009707Y007097D02*
X009300Y007097D01*
X009300Y006858D02*
X009707Y006858D01*
X009707Y006620D02*
X009289Y006620D01*
X009300Y006420D02*
X008680Y006420D01*
X008680Y006420D01*
X008680Y006070D01*
X009109Y006070D01*
X009165Y006085D01*
X009215Y006114D01*
X009256Y006155D01*
X009285Y006205D01*
X009300Y006261D01*
X009300Y006420D01*
X009300Y006381D02*
X009707Y006381D01*
X009707Y006143D02*
X009244Y006143D01*
X009707Y005904D02*
X005735Y005904D01*
X005735Y005666D02*
X008789Y005666D01*
X008789Y005427D02*
X005735Y005427D01*
X005735Y005189D02*
X008789Y005189D01*
X008332Y004950D02*
X005735Y004950D01*
X005735Y004712D02*
X008332Y004712D01*
X008332Y004473D02*
X005735Y004473D01*
X005735Y004235D02*
X008332Y004235D01*
X008390Y003996D02*
X005735Y003996D01*
X005735Y003758D02*
X008390Y003758D01*
X008428Y003519D02*
X005735Y003519D01*
X005735Y003281D02*
X008655Y003281D01*
X008443Y003042D02*
X005735Y003042D01*
X005735Y002804D02*
X008332Y002804D01*
X008332Y002565D02*
X005735Y002565D01*
X005735Y002327D02*
X005908Y002327D01*
X006013Y002378D02*
X005735Y002244D01*
X005735Y011307D01*
X006013Y011173D01*
X006342Y011173D01*
X006638Y011316D01*
X006638Y011316D01*
X006638Y011316D01*
X006843Y011573D01*
X006843Y011573D01*
X006916Y011894D01*
X006843Y012214D01*
X006843Y012214D01*
X006746Y012336D01*
X023719Y012336D01*
X023622Y012214D01*
X023549Y011894D01*
X023549Y011894D01*
X023622Y011573D01*
X023827Y011316D01*
X023827Y011316D01*
X024123Y011173D01*
X024452Y011173D01*
X024730Y011307D01*
X024730Y002244D01*
X024452Y002378D01*
X024123Y002378D01*
X023827Y002235D01*
X023827Y002235D01*
X023827Y002235D01*
X023622Y001978D01*
X023549Y001657D01*
X023622Y001337D01*
X023622Y001337D01*
X023719Y001215D01*
X006746Y001215D01*
X006843Y001337D01*
X006916Y001657D01*
X006843Y001978D01*
X006638Y002235D01*
X006342Y002378D01*
X006013Y002378D01*
X006447Y002327D02*
X008332Y002327D01*
X008362Y002088D02*
X006755Y002088D01*
X006843Y001978D02*
X006843Y001978D01*
X006872Y001850D02*
X008866Y001850D01*
X008926Y001611D02*
X006906Y001611D01*
X006851Y001373D02*
X008947Y001373D01*
X009741Y001373D02*
X023614Y001373D01*
X023559Y001611D02*
X014530Y001611D01*
X014625Y001850D02*
X023593Y001850D01*
X023622Y001978D02*
X023622Y001978D01*
X023710Y002088D02*
X014625Y002088D01*
X014583Y002327D02*
X024018Y002327D01*
X024557Y002327D02*
X024730Y002327D01*
X024730Y002565D02*
X012307Y002565D01*
X012307Y002327D02*
X013831Y002327D01*
X013884Y001611D02*
X009762Y001611D01*
X010504Y002327D02*
X011473Y002327D01*
X011473Y002565D02*
X010504Y002565D01*
X010504Y002804D02*
X011479Y002804D01*
X012301Y002804D02*
X024730Y002804D01*
X024730Y003042D02*
X012307Y003042D01*
X012307Y003281D02*
X013824Y003281D01*
X013792Y003313D02*
X013921Y003184D01*
X014618Y003184D01*
X014747Y003313D01*
X014747Y004010D01*
X014618Y004139D01*
X013921Y004139D01*
X013792Y004010D01*
X013792Y003313D01*
X013792Y003519D02*
X012300Y003519D01*
X012207Y003758D02*
X013792Y003758D01*
X013792Y003996D02*
X012207Y003996D01*
X012270Y004235D02*
X014969Y004235D01*
X014929Y003996D02*
X014747Y003996D01*
X014747Y003758D02*
X014792Y003758D01*
X014812Y003519D02*
X014747Y003519D01*
X014715Y003281D02*
X014975Y003281D01*
X015564Y003281D02*
X015981Y003281D01*
X015958Y003298D02*
X016019Y003254D01*
X016086Y003219D01*
X016158Y003196D01*
X016232Y003184D01*
X016269Y003184D01*
X016269Y003662D01*
X016269Y003662D01*
X015792Y003662D01*
X015792Y003699D01*
X015804Y003774D01*
X015827Y003845D01*
X015861Y003912D01*
X015905Y003973D01*
X015958Y004026D01*
X016019Y004070D01*
X016086Y004104D01*
X016158Y004128D01*
X016232Y004139D01*
X016269Y004139D01*
X016269Y003662D01*
X015792Y003662D01*
X015792Y003624D01*
X015804Y003550D01*
X015827Y003479D01*
X015861Y003412D01*
X015905Y003351D01*
X015958Y003298D01*
X016269Y003281D02*
X016269Y003281D01*
X016269Y003184D02*
X016307Y003184D01*
X016381Y003196D01*
X016453Y003219D01*
X016520Y003254D01*
X016581Y003298D01*
X016634Y003351D01*
X016678Y003412D01*
X016712Y003479D01*
X016735Y003550D01*
X016747Y003624D01*
X016747Y003662D01*
X016747Y003699D01*
X016735Y003774D01*
X016712Y003845D01*
X016678Y003912D01*
X016634Y003973D01*
X016581Y004026D01*
X016520Y004070D01*
X016453Y004104D01*
X016381Y004128D01*
X016307Y004139D01*
X016269Y004139D01*
X016269Y003662D01*
X016269Y003662D01*
X016269Y003662D01*
X016269Y003184D01*
X016558Y003281D02*
X024730Y003281D01*
X024730Y003519D02*
X016725Y003519D01*
X016747Y003662D02*
X016269Y003662D01*
X016747Y003662D01*
X016738Y003758D02*
X024730Y003758D01*
X024730Y003996D02*
X016610Y003996D01*
X016269Y003996D02*
X016269Y003996D01*
X015929Y003996D02*
X015610Y003996D01*
X015569Y004235D02*
X024730Y004235D01*
X024730Y004473D02*
X015569Y004473D01*
X014969Y004473D02*
X012509Y004473D01*
X012747Y004712D02*
X014967Y004712D01*
X014953Y004726D02*
X014953Y004726D01*
X015746Y003758D02*
X015801Y003758D01*
X015814Y003519D02*
X015727Y003519D01*
X016269Y003519D02*
X016269Y003519D01*
X016269Y003662D02*
X016269Y003662D01*
X016269Y003758D02*
X016269Y003758D01*
X019305Y004712D02*
X024730Y004712D01*
X024730Y004950D02*
X019586Y004950D01*
X019707Y005189D02*
X024730Y005189D01*
X024730Y005427D02*
X019707Y005427D01*
X019707Y005666D02*
X024730Y005666D01*
X024730Y005904D02*
X019707Y005904D01*
X019707Y006143D02*
X024730Y006143D01*
X024730Y006381D02*
X019707Y006381D01*
X019707Y006620D02*
X024730Y006620D01*
X024730Y006858D02*
X019707Y006858D01*
X019707Y007097D02*
X024730Y007097D01*
X024730Y007335D02*
X019707Y007335D01*
X019707Y007574D02*
X024730Y007574D01*
X024730Y007812D02*
X019707Y007812D01*
X019786Y008051D02*
X024730Y008051D01*
X024730Y008289D02*
X020025Y008289D01*
X020263Y008528D02*
X024730Y008528D01*
X024730Y008766D02*
X020502Y008766D01*
X020740Y009005D02*
X022707Y009005D01*
X022707Y009243D02*
X020979Y009243D01*
X021217Y009482D02*
X022710Y009482D01*
X022707Y009720D02*
X021456Y009720D01*
X021694Y009959D02*
X022707Y009959D01*
X022707Y010197D02*
X021933Y010197D01*
X022171Y010436D02*
X022823Y010436D01*
X022728Y010674D02*
X022410Y010674D01*
X022648Y010913D02*
X022728Y010913D01*
X022277Y011390D02*
X017537Y011390D01*
X017707Y011151D02*
X022038Y011151D01*
X021800Y010913D02*
X017707Y010913D01*
X017707Y010674D02*
X021561Y010674D01*
X021323Y010436D02*
X018821Y010436D01*
X018867Y010390D02*
X018733Y010525D01*
X018557Y010597D01*
X018367Y010597D01*
X018192Y010525D01*
X018057Y010390D01*
X017985Y010215D01*
X017985Y010025D01*
X018057Y009850D01*
X018192Y009715D01*
X018367Y009643D01*
X018557Y009643D01*
X018733Y009715D01*
X018867Y009850D01*
X018940Y010025D01*
X018940Y010215D01*
X018867Y010390D01*
X018940Y010197D02*
X021084Y010197D01*
X020846Y009959D02*
X018912Y009959D01*
X018738Y009720D02*
X020607Y009720D01*
X020369Y009482D02*
X018345Y009482D01*
X018186Y009720D02*
X017738Y009720D01*
X017912Y009959D02*
X018012Y009959D01*
X017985Y010197D02*
X017940Y010197D01*
X017821Y010436D02*
X018103Y010436D01*
X017299Y011628D02*
X022515Y011628D01*
X023505Y011628D02*
X023609Y011628D01*
X023622Y011573D02*
X023622Y011573D01*
X023555Y011867D02*
X017060Y011867D01*
X016822Y012105D02*
X023597Y012105D01*
X023622Y012214D02*
X023622Y012214D01*
X023518Y011390D02*
X023768Y011390D01*
X023457Y011151D02*
X024730Y011151D01*
X024730Y010913D02*
X023518Y010913D01*
X023518Y010674D02*
X024730Y010674D01*
X024730Y010436D02*
X023423Y010436D01*
X023540Y010197D02*
X024730Y010197D01*
X024730Y009959D02*
X023540Y009959D01*
X023540Y009720D02*
X024730Y009720D01*
X024730Y009482D02*
X023537Y009482D01*
X023540Y009243D02*
X024730Y009243D01*
X024730Y009005D02*
X023540Y009005D01*
X023540Y008977D02*
X023540Y009223D01*
X023123Y009223D01*
X023123Y009223D01*
X023123Y008786D01*
X023349Y008786D01*
X023405Y008801D01*
X023455Y008830D01*
X023496Y008871D01*
X023525Y008921D01*
X023540Y008977D01*
X023123Y009005D02*
X023123Y009005D01*
X020130Y009243D02*
X018584Y009243D01*
X018822Y009005D02*
X019892Y009005D01*
X019653Y008766D02*
X019061Y008766D01*
X019299Y008528D02*
X019415Y008528D01*
X009907Y005189D02*
X009625Y005189D01*
X009625Y005427D02*
X009752Y005427D01*
X009707Y005666D02*
X009625Y005666D01*
X008680Y006070D02*
X008680Y006420D01*
X008680Y006420D01*
X008680Y006420D01*
X008060Y006420D01*
X008060Y006261D01*
X008075Y006205D01*
X008104Y006155D01*
X008145Y006114D01*
X008195Y006085D01*
X008251Y006070D01*
X008680Y006070D01*
X008680Y006143D02*
X008680Y006143D01*
X008680Y006381D02*
X008680Y006381D01*
X008116Y006143D02*
X005735Y006143D01*
X005735Y006381D02*
X008060Y006381D01*
X008071Y006620D02*
X007325Y006620D01*
X006489Y006620D02*
X005735Y006620D01*
X005735Y006858D02*
X006489Y006858D01*
X006489Y007097D02*
X005735Y007097D01*
X005735Y007335D02*
X007043Y007335D01*
X006805Y007574D02*
X005735Y007574D01*
X005735Y007812D02*
X006566Y007812D01*
X006328Y008051D02*
X005735Y008051D01*
X005735Y008289D02*
X006126Y008289D01*
X006107Y008528D02*
X005735Y008528D01*
X005735Y008766D02*
X006107Y008766D01*
X006107Y009005D02*
X005735Y009005D01*
X005735Y009243D02*
X006107Y009243D01*
X006107Y009482D02*
X005735Y009482D01*
X005735Y009720D02*
X006107Y009720D01*
X006107Y009959D02*
X005735Y009959D01*
X005735Y010197D02*
X006107Y010197D01*
X006107Y010436D02*
X005735Y010436D01*
X005735Y010674D02*
X006115Y010674D01*
X006300Y010913D02*
X005735Y010913D01*
X005735Y011151D02*
X006538Y011151D01*
X006697Y011390D02*
X006777Y011390D01*
X006856Y011628D02*
X007015Y011628D01*
X006910Y011867D02*
X007254Y011867D01*
X007492Y012105D02*
X006868Y012105D01*
X006638Y002235D02*
X006638Y002235D01*
X006843Y001337D02*
X006843Y001337D01*
X023549Y001657D02*
X023549Y001657D01*
D19*
X014207Y001996D03*
X009344Y001683D03*
X009207Y005396D03*
X006907Y006896D03*
M02*
