%
M48
M72
T01C0.0236
T02C0.0315
%
T01
X18057Y1846
X12807Y3646
X11207Y4596
X10157Y3346
X12707Y2496
X7657Y4746
X7107Y2396
X17607Y5596
X20607Y11796
X13107Y11796
T02
X22326Y5821
X22326Y6821
X22326Y7821
X17281Y6514
X16281Y6514
X15281Y6514
X14281Y6514
X13281Y6514
X8173Y6781
X8173Y7781
X8173Y5781
X13281Y10514
X14281Y10514
X15281Y10514
X16281Y10514
X17281Y10514
M30
