G75*
%MOIN*%
%OFA0B0*%
%FSLAX24Y24*%
%IPPOS*%
%LPD*%
%AMOC8*
5,1,8,0,0,1.08239X$1,22.5*
%
%ADD10C,0.0030*%
%ADD11C,0.0050*%
D10*
X014175Y004307D02*
X014237Y004245D01*
X014175Y004307D02*
X014175Y004430D01*
X014237Y004492D01*
X014298Y004492D01*
X014360Y004430D01*
X014360Y004307D01*
X014422Y004245D01*
X014484Y004245D01*
X014545Y004307D01*
X014545Y004430D01*
X014484Y004492D01*
X014545Y004613D02*
X014545Y004737D01*
X014545Y004675D02*
X014175Y004675D01*
X014175Y004613D02*
X014175Y004737D01*
X014237Y004859D02*
X014175Y004921D01*
X014175Y005044D01*
X014237Y005106D01*
X014360Y005106D01*
X014360Y004982D01*
X014237Y004859D02*
X014484Y004859D01*
X014545Y004921D01*
X014545Y005044D01*
X014484Y005106D01*
X015105Y005083D02*
X015105Y005207D01*
X015167Y005269D01*
X015105Y005083D02*
X015167Y005022D01*
X015414Y005022D01*
X015475Y005083D01*
X015475Y005207D01*
X015414Y005269D01*
X015414Y004900D02*
X015475Y004838D01*
X015475Y004715D01*
X015414Y004653D01*
X015167Y004653D01*
X015105Y004715D01*
X015105Y004838D01*
X015167Y004900D01*
X015228Y004532D02*
X015475Y004532D01*
X015228Y004532D02*
X015105Y004408D01*
X015228Y004285D01*
X015475Y004285D01*
X016205Y004347D02*
X016205Y004470D01*
X016267Y004532D01*
X016390Y004532D01*
X016390Y004408D01*
X016267Y004285D02*
X016205Y004347D01*
X016267Y004285D02*
X016514Y004285D01*
X016575Y004347D01*
X016575Y004470D01*
X016514Y004532D01*
X016575Y004653D02*
X016205Y004900D01*
X016575Y004900D01*
X016575Y005022D02*
X016575Y005207D01*
X016514Y005269D01*
X016267Y005269D01*
X016205Y005207D01*
X016205Y005022D01*
X016575Y005022D01*
X016575Y004653D02*
X016205Y004653D01*
D11*
X006177Y000870D02*
X005390Y000870D01*
X006177Y000870D02*
X024288Y000870D01*
X023894Y001657D02*
X023896Y001696D01*
X023902Y001735D01*
X023912Y001773D01*
X023925Y001810D01*
X023942Y001845D01*
X023962Y001879D01*
X023986Y001910D01*
X024013Y001939D01*
X024042Y001965D01*
X024074Y001988D01*
X024108Y002008D01*
X024144Y002024D01*
X024181Y002036D01*
X024220Y002045D01*
X024259Y002050D01*
X024298Y002051D01*
X024337Y002048D01*
X024376Y002041D01*
X024413Y002030D01*
X024450Y002016D01*
X024485Y001998D01*
X024518Y001977D01*
X024549Y001952D01*
X024577Y001925D01*
X024602Y001895D01*
X024624Y001862D01*
X024643Y001828D01*
X024658Y001792D01*
X024670Y001754D01*
X024678Y001716D01*
X024682Y001677D01*
X024682Y001637D01*
X024678Y001598D01*
X024670Y001560D01*
X024658Y001522D01*
X024643Y001486D01*
X024624Y001452D01*
X024602Y001419D01*
X024577Y001389D01*
X024549Y001362D01*
X024518Y001337D01*
X024485Y001316D01*
X024450Y001298D01*
X024413Y001284D01*
X024376Y001273D01*
X024337Y001266D01*
X024298Y001263D01*
X024259Y001264D01*
X024220Y001269D01*
X024181Y001278D01*
X024144Y001290D01*
X024108Y001306D01*
X024074Y001326D01*
X024042Y001349D01*
X024013Y001375D01*
X023986Y001404D01*
X023962Y001435D01*
X023942Y001469D01*
X023925Y001504D01*
X023912Y001541D01*
X023902Y001579D01*
X023896Y001618D01*
X023894Y001657D01*
X024288Y000870D02*
X024342Y000872D01*
X024395Y000877D01*
X024448Y000886D01*
X024500Y000899D01*
X024552Y000915D01*
X024602Y000935D01*
X024650Y000958D01*
X024697Y000985D01*
X024742Y001014D01*
X024785Y001047D01*
X024825Y001082D01*
X024863Y001120D01*
X024898Y001160D01*
X024931Y001203D01*
X024960Y001248D01*
X024987Y001295D01*
X025010Y001343D01*
X025030Y001393D01*
X025046Y001445D01*
X025059Y001497D01*
X025068Y001550D01*
X025073Y001603D01*
X025075Y001657D01*
X025075Y011894D01*
X023894Y011894D02*
X023896Y011933D01*
X023902Y011972D01*
X023912Y012010D01*
X023925Y012047D01*
X023942Y012082D01*
X023962Y012116D01*
X023986Y012147D01*
X024013Y012176D01*
X024042Y012202D01*
X024074Y012225D01*
X024108Y012245D01*
X024144Y012261D01*
X024181Y012273D01*
X024220Y012282D01*
X024259Y012287D01*
X024298Y012288D01*
X024337Y012285D01*
X024376Y012278D01*
X024413Y012267D01*
X024450Y012253D01*
X024485Y012235D01*
X024518Y012214D01*
X024549Y012189D01*
X024577Y012162D01*
X024602Y012132D01*
X024624Y012099D01*
X024643Y012065D01*
X024658Y012029D01*
X024670Y011991D01*
X024678Y011953D01*
X024682Y011914D01*
X024682Y011874D01*
X024678Y011835D01*
X024670Y011797D01*
X024658Y011759D01*
X024643Y011723D01*
X024624Y011689D01*
X024602Y011656D01*
X024577Y011626D01*
X024549Y011599D01*
X024518Y011574D01*
X024485Y011553D01*
X024450Y011535D01*
X024413Y011521D01*
X024376Y011510D01*
X024337Y011503D01*
X024298Y011500D01*
X024259Y011501D01*
X024220Y011506D01*
X024181Y011515D01*
X024144Y011527D01*
X024108Y011543D01*
X024074Y011563D01*
X024042Y011586D01*
X024013Y011612D01*
X023986Y011641D01*
X023962Y011672D01*
X023942Y011706D01*
X023925Y011741D01*
X023912Y011778D01*
X023902Y011816D01*
X023896Y011855D01*
X023894Y011894D01*
X024288Y012681D02*
X024342Y012679D01*
X024395Y012674D01*
X024448Y012665D01*
X024500Y012652D01*
X024552Y012636D01*
X024602Y012616D01*
X024650Y012593D01*
X024697Y012566D01*
X024742Y012537D01*
X024785Y012504D01*
X024825Y012469D01*
X024863Y012431D01*
X024898Y012391D01*
X024931Y012348D01*
X024960Y012303D01*
X024987Y012256D01*
X025010Y012208D01*
X025030Y012158D01*
X025046Y012106D01*
X025059Y012054D01*
X025068Y012001D01*
X025073Y011948D01*
X025075Y011894D01*
X024288Y012681D02*
X006177Y012681D01*
X005783Y011894D02*
X005785Y011933D01*
X005791Y011972D01*
X005801Y012010D01*
X005814Y012047D01*
X005831Y012082D01*
X005851Y012116D01*
X005875Y012147D01*
X005902Y012176D01*
X005931Y012202D01*
X005963Y012225D01*
X005997Y012245D01*
X006033Y012261D01*
X006070Y012273D01*
X006109Y012282D01*
X006148Y012287D01*
X006187Y012288D01*
X006226Y012285D01*
X006265Y012278D01*
X006302Y012267D01*
X006339Y012253D01*
X006374Y012235D01*
X006407Y012214D01*
X006438Y012189D01*
X006466Y012162D01*
X006491Y012132D01*
X006513Y012099D01*
X006532Y012065D01*
X006547Y012029D01*
X006559Y011991D01*
X006567Y011953D01*
X006571Y011914D01*
X006571Y011874D01*
X006567Y011835D01*
X006559Y011797D01*
X006547Y011759D01*
X006532Y011723D01*
X006513Y011689D01*
X006491Y011656D01*
X006466Y011626D01*
X006438Y011599D01*
X006407Y011574D01*
X006374Y011553D01*
X006339Y011535D01*
X006302Y011521D01*
X006265Y011510D01*
X006226Y011503D01*
X006187Y011500D01*
X006148Y011501D01*
X006109Y011506D01*
X006070Y011515D01*
X006033Y011527D01*
X005997Y011543D01*
X005963Y011563D01*
X005931Y011586D01*
X005902Y011612D01*
X005875Y011641D01*
X005851Y011672D01*
X005831Y011706D01*
X005814Y011741D01*
X005801Y011778D01*
X005791Y011816D01*
X005785Y011855D01*
X005783Y011894D01*
X005390Y011894D02*
X005392Y011948D01*
X005397Y012001D01*
X005406Y012054D01*
X005419Y012106D01*
X005435Y012158D01*
X005455Y012208D01*
X005478Y012256D01*
X005505Y012303D01*
X005534Y012348D01*
X005567Y012391D01*
X005602Y012431D01*
X005640Y012469D01*
X005680Y012504D01*
X005723Y012537D01*
X005768Y012566D01*
X005815Y012593D01*
X005863Y012616D01*
X005913Y012636D01*
X005965Y012652D01*
X006017Y012665D01*
X006070Y012674D01*
X006123Y012679D01*
X006177Y012681D01*
X005390Y011894D02*
X005390Y001657D01*
X005783Y001657D02*
X005785Y001696D01*
X005791Y001735D01*
X005801Y001773D01*
X005814Y001810D01*
X005831Y001845D01*
X005851Y001879D01*
X005875Y001910D01*
X005902Y001939D01*
X005931Y001965D01*
X005963Y001988D01*
X005997Y002008D01*
X006033Y002024D01*
X006070Y002036D01*
X006109Y002045D01*
X006148Y002050D01*
X006187Y002051D01*
X006226Y002048D01*
X006265Y002041D01*
X006302Y002030D01*
X006339Y002016D01*
X006374Y001998D01*
X006407Y001977D01*
X006438Y001952D01*
X006466Y001925D01*
X006491Y001895D01*
X006513Y001862D01*
X006532Y001828D01*
X006547Y001792D01*
X006559Y001754D01*
X006567Y001716D01*
X006571Y001677D01*
X006571Y001637D01*
X006567Y001598D01*
X006559Y001560D01*
X006547Y001522D01*
X006532Y001486D01*
X006513Y001452D01*
X006491Y001419D01*
X006466Y001389D01*
X006438Y001362D01*
X006407Y001337D01*
X006374Y001316D01*
X006339Y001298D01*
X006302Y001284D01*
X006265Y001273D01*
X006226Y001266D01*
X006187Y001263D01*
X006148Y001264D01*
X006109Y001269D01*
X006070Y001278D01*
X006033Y001290D01*
X005997Y001306D01*
X005963Y001326D01*
X005931Y001349D01*
X005902Y001375D01*
X005875Y001404D01*
X005851Y001435D01*
X005831Y001469D01*
X005814Y001504D01*
X005801Y001541D01*
X005791Y001579D01*
X005785Y001618D01*
X005783Y001657D01*
X005390Y001657D02*
X005392Y001603D01*
X005397Y001550D01*
X005406Y001497D01*
X005419Y001445D01*
X005435Y001393D01*
X005455Y001343D01*
X005478Y001295D01*
X005505Y001248D01*
X005534Y001203D01*
X005567Y001160D01*
X005602Y001120D01*
X005640Y001082D01*
X005680Y001047D01*
X005723Y001014D01*
X005768Y000985D01*
X005815Y000958D01*
X005863Y000935D01*
X005913Y000915D01*
X005965Y000899D01*
X006017Y000886D01*
X006070Y000877D01*
X006123Y000872D01*
X006177Y000870D01*
M02*
