G75*
%MOIN*%
%OFA0B0*%
%FSLAX24Y24*%
%IPPOS*%
%LPD*%
%AMOC8*
5,1,8,0,0,1.08239X$1,22.5*
%
%ADD10C,0.0000*%
%ADD11R,0.0236X0.0630*%
%ADD12R,0.0315X0.0315*%
%ADD13R,0.0394X0.0433*%
%ADD14R,0.0515X0.0515*%
%ADD15C,0.0515*%
%ADD16C,0.0050*%
%ADD17C,0.0100*%
%ADD18C,0.0260*%
%ADD19C,0.0320*%
%ADD20C,0.0240*%
D10*
X000300Y000350D02*
X000300Y039720D01*
X063292Y039720D01*
X063292Y000350D01*
X000300Y000350D01*
D11*
X023150Y015305D03*
X023646Y015305D03*
X024146Y015305D03*
X024646Y015305D03*
X024650Y017395D03*
X024150Y017395D03*
X023650Y017395D03*
X023150Y017395D03*
D12*
X031430Y020355D03*
X031430Y020945D03*
D13*
X031400Y019755D03*
X031400Y019085D03*
X022200Y017985D03*
X022200Y017315D03*
D14*
X017400Y017550D03*
X031400Y015550D03*
D15*
X031400Y016550D03*
X031400Y017550D03*
X017400Y016550D03*
X017400Y015550D03*
D16*
X014693Y011637D02*
X014695Y011676D01*
X014701Y011715D01*
X014711Y011753D01*
X014724Y011790D01*
X014741Y011825D01*
X014761Y011859D01*
X014785Y011890D01*
X014812Y011919D01*
X014841Y011945D01*
X014873Y011968D01*
X014907Y011988D01*
X014943Y012004D01*
X014980Y012016D01*
X015019Y012025D01*
X015058Y012030D01*
X015097Y012031D01*
X015136Y012028D01*
X015175Y012021D01*
X015212Y012010D01*
X015249Y011996D01*
X015284Y011978D01*
X015317Y011957D01*
X015348Y011932D01*
X015376Y011905D01*
X015401Y011875D01*
X015423Y011842D01*
X015442Y011808D01*
X015457Y011772D01*
X015469Y011734D01*
X015477Y011696D01*
X015481Y011657D01*
X015481Y011617D01*
X015477Y011578D01*
X015469Y011540D01*
X015457Y011502D01*
X015442Y011466D01*
X015423Y011432D01*
X015401Y011399D01*
X015376Y011369D01*
X015348Y011342D01*
X015317Y011317D01*
X015284Y011296D01*
X015249Y011278D01*
X015212Y011264D01*
X015175Y011253D01*
X015136Y011246D01*
X015097Y011243D01*
X015058Y011244D01*
X015019Y011249D01*
X014980Y011258D01*
X014943Y011270D01*
X014907Y011286D01*
X014873Y011306D01*
X014841Y011329D01*
X014812Y011355D01*
X014785Y011384D01*
X014761Y011415D01*
X014741Y011449D01*
X014724Y011484D01*
X014711Y011521D01*
X014701Y011559D01*
X014695Y011598D01*
X014693Y011637D01*
X014300Y011637D02*
X014300Y021874D01*
X014693Y021874D02*
X014695Y021913D01*
X014701Y021952D01*
X014711Y021990D01*
X014724Y022027D01*
X014741Y022062D01*
X014761Y022096D01*
X014785Y022127D01*
X014812Y022156D01*
X014841Y022182D01*
X014873Y022205D01*
X014907Y022225D01*
X014943Y022241D01*
X014980Y022253D01*
X015019Y022262D01*
X015058Y022267D01*
X015097Y022268D01*
X015136Y022265D01*
X015175Y022258D01*
X015212Y022247D01*
X015249Y022233D01*
X015284Y022215D01*
X015317Y022194D01*
X015348Y022169D01*
X015376Y022142D01*
X015401Y022112D01*
X015423Y022079D01*
X015442Y022045D01*
X015457Y022009D01*
X015469Y021971D01*
X015477Y021933D01*
X015481Y021894D01*
X015481Y021854D01*
X015477Y021815D01*
X015469Y021777D01*
X015457Y021739D01*
X015442Y021703D01*
X015423Y021669D01*
X015401Y021636D01*
X015376Y021606D01*
X015348Y021579D01*
X015317Y021554D01*
X015284Y021533D01*
X015249Y021515D01*
X015212Y021501D01*
X015175Y021490D01*
X015136Y021483D01*
X015097Y021480D01*
X015058Y021481D01*
X015019Y021486D01*
X014980Y021495D01*
X014943Y021507D01*
X014907Y021523D01*
X014873Y021543D01*
X014841Y021566D01*
X014812Y021592D01*
X014785Y021621D01*
X014761Y021652D01*
X014741Y021686D01*
X014724Y021721D01*
X014711Y021758D01*
X014701Y021796D01*
X014695Y021835D01*
X014693Y021874D01*
X014300Y021874D02*
X014302Y021928D01*
X014307Y021981D01*
X014316Y022034D01*
X014329Y022086D01*
X014345Y022138D01*
X014365Y022188D01*
X014388Y022236D01*
X014415Y022283D01*
X014444Y022328D01*
X014477Y022371D01*
X014512Y022411D01*
X014550Y022449D01*
X014590Y022484D01*
X014633Y022517D01*
X014678Y022546D01*
X014725Y022573D01*
X014773Y022596D01*
X014823Y022616D01*
X014875Y022632D01*
X014927Y022645D01*
X014980Y022654D01*
X015033Y022659D01*
X015087Y022661D01*
X033198Y022661D01*
X032804Y021874D02*
X032806Y021913D01*
X032812Y021952D01*
X032822Y021990D01*
X032835Y022027D01*
X032852Y022062D01*
X032872Y022096D01*
X032896Y022127D01*
X032923Y022156D01*
X032952Y022182D01*
X032984Y022205D01*
X033018Y022225D01*
X033054Y022241D01*
X033091Y022253D01*
X033130Y022262D01*
X033169Y022267D01*
X033208Y022268D01*
X033247Y022265D01*
X033286Y022258D01*
X033323Y022247D01*
X033360Y022233D01*
X033395Y022215D01*
X033428Y022194D01*
X033459Y022169D01*
X033487Y022142D01*
X033512Y022112D01*
X033534Y022079D01*
X033553Y022045D01*
X033568Y022009D01*
X033580Y021971D01*
X033588Y021933D01*
X033592Y021894D01*
X033592Y021854D01*
X033588Y021815D01*
X033580Y021777D01*
X033568Y021739D01*
X033553Y021703D01*
X033534Y021669D01*
X033512Y021636D01*
X033487Y021606D01*
X033459Y021579D01*
X033428Y021554D01*
X033395Y021533D01*
X033360Y021515D01*
X033323Y021501D01*
X033286Y021490D01*
X033247Y021483D01*
X033208Y021480D01*
X033169Y021481D01*
X033130Y021486D01*
X033091Y021495D01*
X033054Y021507D01*
X033018Y021523D01*
X032984Y021543D01*
X032952Y021566D01*
X032923Y021592D01*
X032896Y021621D01*
X032872Y021652D01*
X032852Y021686D01*
X032835Y021721D01*
X032822Y021758D01*
X032812Y021796D01*
X032806Y021835D01*
X032804Y021874D01*
X033198Y022661D02*
X033252Y022659D01*
X033305Y022654D01*
X033358Y022645D01*
X033410Y022632D01*
X033462Y022616D01*
X033512Y022596D01*
X033560Y022573D01*
X033607Y022546D01*
X033652Y022517D01*
X033695Y022484D01*
X033735Y022449D01*
X033773Y022411D01*
X033808Y022371D01*
X033841Y022328D01*
X033870Y022283D01*
X033897Y022236D01*
X033920Y022188D01*
X033940Y022138D01*
X033956Y022086D01*
X033969Y022034D01*
X033978Y021981D01*
X033983Y021928D01*
X033985Y021874D01*
X033985Y011637D01*
X032804Y011637D02*
X032806Y011676D01*
X032812Y011715D01*
X032822Y011753D01*
X032835Y011790D01*
X032852Y011825D01*
X032872Y011859D01*
X032896Y011890D01*
X032923Y011919D01*
X032952Y011945D01*
X032984Y011968D01*
X033018Y011988D01*
X033054Y012004D01*
X033091Y012016D01*
X033130Y012025D01*
X033169Y012030D01*
X033208Y012031D01*
X033247Y012028D01*
X033286Y012021D01*
X033323Y012010D01*
X033360Y011996D01*
X033395Y011978D01*
X033428Y011957D01*
X033459Y011932D01*
X033487Y011905D01*
X033512Y011875D01*
X033534Y011842D01*
X033553Y011808D01*
X033568Y011772D01*
X033580Y011734D01*
X033588Y011696D01*
X033592Y011657D01*
X033592Y011617D01*
X033588Y011578D01*
X033580Y011540D01*
X033568Y011502D01*
X033553Y011466D01*
X033534Y011432D01*
X033512Y011399D01*
X033487Y011369D01*
X033459Y011342D01*
X033428Y011317D01*
X033395Y011296D01*
X033360Y011278D01*
X033323Y011264D01*
X033286Y011253D01*
X033247Y011246D01*
X033208Y011243D01*
X033169Y011244D01*
X033130Y011249D01*
X033091Y011258D01*
X033054Y011270D01*
X033018Y011286D01*
X032984Y011306D01*
X032952Y011329D01*
X032923Y011355D01*
X032896Y011384D01*
X032872Y011415D01*
X032852Y011449D01*
X032835Y011484D01*
X032822Y011521D01*
X032812Y011559D01*
X032806Y011598D01*
X032804Y011637D01*
X033198Y010850D02*
X033252Y010852D01*
X033305Y010857D01*
X033358Y010866D01*
X033410Y010879D01*
X033462Y010895D01*
X033512Y010915D01*
X033560Y010938D01*
X033607Y010965D01*
X033652Y010994D01*
X033695Y011027D01*
X033735Y011062D01*
X033773Y011100D01*
X033808Y011140D01*
X033841Y011183D01*
X033870Y011228D01*
X033897Y011275D01*
X033920Y011323D01*
X033940Y011373D01*
X033956Y011425D01*
X033969Y011477D01*
X033978Y011530D01*
X033983Y011583D01*
X033985Y011637D01*
X033198Y010850D02*
X015087Y010850D01*
X014300Y010850D01*
X014300Y011637D02*
X014302Y011583D01*
X014307Y011530D01*
X014316Y011477D01*
X014329Y011425D01*
X014345Y011373D01*
X014365Y011323D01*
X014388Y011275D01*
X014415Y011228D01*
X014444Y011183D01*
X014477Y011140D01*
X014512Y011100D01*
X014550Y011062D01*
X014590Y011027D01*
X014633Y010994D01*
X014678Y010965D01*
X014725Y010938D01*
X014773Y010915D01*
X014823Y010895D01*
X014875Y010879D01*
X014927Y010866D01*
X014980Y010857D01*
X015033Y010852D01*
X015087Y010850D01*
D17*
X015878Y011325D02*
X015937Y011457D01*
X015937Y011818D01*
X015790Y012148D01*
X015522Y012390D01*
X015178Y012501D01*
X014819Y012464D01*
X014775Y012438D01*
X014775Y021073D01*
X014819Y021047D01*
X015178Y021010D01*
X015522Y021121D01*
X015790Y021363D01*
X015937Y021693D01*
X015937Y022054D01*
X015878Y022186D01*
X032395Y022186D01*
X032329Y021874D01*
X032404Y021520D01*
X032616Y021228D01*
X032929Y021047D01*
X033288Y021010D01*
X033510Y021082D01*
X033510Y012429D01*
X033288Y012501D01*
X032929Y012464D01*
X032616Y012283D01*
X032404Y011991D01*
X032329Y011637D01*
X032395Y011325D01*
X015878Y011325D01*
X015904Y011382D02*
X032383Y011382D01*
X032362Y011481D02*
X015937Y011481D01*
X015937Y011579D02*
X032341Y011579D01*
X032337Y011678D02*
X015937Y011678D01*
X015937Y011776D02*
X032358Y011776D01*
X032379Y011875D02*
X015912Y011875D01*
X015868Y011973D02*
X032400Y011973D01*
X032463Y012072D02*
X015824Y012072D01*
X015766Y012170D02*
X032534Y012170D01*
X032606Y012269D02*
X015656Y012269D01*
X015547Y012367D02*
X032762Y012367D01*
X032948Y012466D02*
X015288Y012466D01*
X014837Y012466D02*
X014775Y012466D01*
X014775Y012564D02*
X033510Y012564D01*
X033510Y012466D02*
X033399Y012466D01*
X033510Y012663D02*
X014775Y012663D01*
X014775Y012761D02*
X033510Y012761D01*
X033510Y012860D02*
X014775Y012860D01*
X014775Y012958D02*
X033510Y012958D01*
X033510Y013057D02*
X014775Y013057D01*
X014775Y013155D02*
X033510Y013155D01*
X033510Y013254D02*
X014775Y013254D01*
X014775Y013352D02*
X033510Y013352D01*
X033510Y013451D02*
X014775Y013451D01*
X014775Y013549D02*
X033510Y013549D01*
X033510Y013648D02*
X014775Y013648D01*
X014775Y013746D02*
X033510Y013746D01*
X033510Y013845D02*
X014775Y013845D01*
X014775Y013943D02*
X033510Y013943D01*
X033510Y014042D02*
X023545Y014042D01*
X023542Y014038D02*
X023612Y014108D01*
X023612Y014108D01*
X023788Y014284D01*
X023858Y014354D01*
X023896Y014446D01*
X023896Y015355D01*
X023894Y015359D01*
X023894Y015674D01*
X023818Y015750D01*
X023474Y015750D01*
X023400Y015676D01*
X023400Y017241D01*
X023402Y017245D01*
X023402Y017026D01*
X023478Y016950D01*
X023822Y016950D01*
X023898Y017026D01*
X023898Y017764D01*
X023822Y017840D01*
X023478Y017840D01*
X023402Y017764D01*
X023402Y017545D01*
X023398Y017554D01*
X023398Y017764D01*
X023390Y017772D01*
X023390Y017830D01*
X023620Y018060D01*
X027480Y018060D01*
X029154Y016386D01*
X029236Y016304D01*
X029342Y016260D01*
X031142Y016260D01*
X031181Y016222D01*
X031323Y016163D01*
X031477Y016163D01*
X031619Y016222D01*
X031728Y016331D01*
X031787Y016473D01*
X031787Y016627D01*
X031728Y016769D01*
X031619Y016878D01*
X031477Y016937D01*
X031323Y016937D01*
X031181Y016878D01*
X031142Y016840D01*
X029520Y016840D01*
X027764Y018596D01*
X027658Y018640D01*
X024440Y018640D01*
X026060Y020260D01*
X030058Y020260D01*
X030164Y020304D01*
X030540Y020680D01*
X031196Y020680D01*
X031219Y020658D01*
X031366Y020658D01*
X031372Y020655D01*
X031488Y020655D01*
X031494Y020658D01*
X031641Y020658D01*
X031717Y020734D01*
X031717Y020882D01*
X031720Y020888D01*
X031720Y021003D01*
X031717Y021009D01*
X031717Y021157D01*
X031641Y021233D01*
X031529Y021233D01*
X031463Y021260D01*
X030362Y021260D01*
X030256Y021216D01*
X030174Y021134D01*
X029880Y020840D01*
X017642Y020840D01*
X017536Y020796D01*
X017454Y020714D01*
X016236Y019496D01*
X016154Y019414D01*
X016110Y019308D01*
X016110Y016892D01*
X016154Y016786D01*
X016554Y016386D01*
X016636Y016304D01*
X016742Y016260D01*
X017142Y016260D01*
X017181Y016222D01*
X017323Y016163D01*
X017477Y016163D01*
X017619Y016222D01*
X017728Y016331D01*
X017787Y016473D01*
X017787Y016627D01*
X017728Y016769D01*
X017619Y016878D01*
X017477Y016937D01*
X017323Y016937D01*
X017181Y016878D01*
X017142Y016840D01*
X016920Y016840D01*
X016690Y017070D01*
X016690Y019130D01*
X017820Y020260D01*
X025240Y020260D01*
X023704Y018724D01*
X023636Y018696D01*
X023580Y018640D01*
X023442Y018640D01*
X023336Y018596D01*
X022936Y018196D01*
X022854Y018114D01*
X022810Y018008D01*
X022810Y017565D01*
X022527Y017565D01*
X022527Y017586D01*
X022473Y017639D01*
X022489Y017648D01*
X022517Y017676D01*
X022537Y017710D01*
X022547Y017748D01*
X022547Y017936D01*
X022248Y017936D01*
X022248Y018033D01*
X022152Y018033D01*
X022152Y018351D01*
X021983Y018351D01*
X021945Y018341D01*
X021911Y018321D01*
X021883Y018293D01*
X021863Y018259D01*
X021853Y018221D01*
X021853Y018033D01*
X022152Y018033D01*
X022152Y017936D01*
X021853Y017936D01*
X021853Y017748D01*
X021863Y017710D01*
X021883Y017676D01*
X021911Y017648D01*
X021927Y017639D01*
X021873Y017586D01*
X021873Y017045D01*
X021949Y016969D01*
X022451Y016969D01*
X022527Y017045D01*
X022527Y017065D01*
X022900Y017065D01*
X022900Y015255D01*
X022902Y015251D01*
X022902Y014936D01*
X022978Y014860D01*
X023322Y014860D01*
X023396Y014934D01*
X023396Y014600D01*
X023296Y014500D01*
X021304Y014500D01*
X020950Y014854D01*
X020950Y016600D01*
X020912Y016692D01*
X020842Y016762D01*
X019842Y017762D01*
X019750Y017800D01*
X017787Y017800D01*
X017787Y017861D01*
X017711Y017937D01*
X017089Y017937D01*
X017013Y017861D01*
X017013Y017239D01*
X017089Y017163D01*
X017711Y017163D01*
X017787Y017239D01*
X017787Y017300D01*
X019596Y017300D01*
X020450Y016446D01*
X020450Y014700D01*
X020488Y014608D01*
X020988Y014108D01*
X021058Y014038D01*
X021150Y014000D01*
X023450Y014000D01*
X023542Y014038D01*
X023644Y014140D02*
X033510Y014140D01*
X033510Y014239D02*
X023742Y014239D01*
X023788Y014284D02*
X023788Y014284D01*
X023841Y014337D02*
X033510Y014337D01*
X033510Y014436D02*
X023892Y014436D01*
X023896Y014534D02*
X033510Y014534D01*
X033510Y014633D02*
X023896Y014633D01*
X023896Y014731D02*
X033510Y014731D01*
X033510Y014830D02*
X023896Y014830D01*
X023974Y014860D02*
X024318Y014860D01*
X024389Y014931D01*
X024408Y014898D01*
X024436Y014870D01*
X024470Y014850D01*
X024508Y014840D01*
X024637Y014840D01*
X024637Y015296D01*
X024655Y015296D01*
X024655Y014840D01*
X024784Y014840D01*
X024822Y014850D01*
X024856Y014870D01*
X024884Y014898D01*
X024904Y014932D01*
X024914Y014970D01*
X024914Y015296D01*
X024655Y015296D01*
X024655Y015314D01*
X024914Y015314D01*
X024914Y015640D01*
X024904Y015678D01*
X024884Y015712D01*
X024856Y015740D01*
X024822Y015760D01*
X024784Y015770D01*
X024655Y015770D01*
X024655Y015314D01*
X024637Y015314D01*
X024637Y015770D01*
X024508Y015770D01*
X024470Y015760D01*
X024436Y015740D01*
X024408Y015712D01*
X024389Y015679D01*
X024318Y015750D01*
X023974Y015750D01*
X023898Y015674D01*
X023898Y014936D01*
X023974Y014860D01*
X023906Y014928D02*
X023896Y014928D01*
X023896Y015027D02*
X023898Y015027D01*
X023896Y015125D02*
X023898Y015125D01*
X023896Y015224D02*
X023898Y015224D01*
X023896Y015322D02*
X023898Y015322D01*
X023894Y015421D02*
X023898Y015421D01*
X023894Y015519D02*
X023898Y015519D01*
X023894Y015618D02*
X023898Y015618D01*
X023940Y015716D02*
X023852Y015716D01*
X023440Y015716D02*
X023400Y015716D01*
X023400Y015815D02*
X028382Y015815D01*
X028283Y015913D02*
X023400Y015913D01*
X023400Y016012D02*
X028185Y016012D01*
X028086Y016110D02*
X023400Y016110D01*
X023400Y016209D02*
X027988Y016209D01*
X027889Y016307D02*
X023400Y016307D01*
X023400Y016406D02*
X027791Y016406D01*
X027692Y016504D02*
X023400Y016504D01*
X023400Y016603D02*
X027594Y016603D01*
X027495Y016701D02*
X023400Y016701D01*
X023400Y016800D02*
X027397Y016800D01*
X027298Y016898D02*
X023400Y016898D01*
X023400Y016997D02*
X023431Y016997D01*
X023400Y017095D02*
X023402Y017095D01*
X023400Y017194D02*
X023402Y017194D01*
X023398Y017588D02*
X023402Y017588D01*
X023398Y017686D02*
X023402Y017686D01*
X023390Y017785D02*
X023423Y017785D01*
X023443Y017883D02*
X027657Y017883D01*
X027755Y017785D02*
X024877Y017785D01*
X024898Y017764D02*
X024822Y017840D01*
X024478Y017840D01*
X024402Y017764D01*
X024402Y017449D01*
X024400Y017445D01*
X024400Y017345D01*
X024402Y017341D01*
X024402Y017026D01*
X024478Y016950D01*
X024822Y016950D01*
X024898Y017026D01*
X024898Y017100D01*
X027096Y017100D01*
X028858Y015338D01*
X028950Y015300D01*
X031013Y015300D01*
X031013Y015239D01*
X031089Y015163D01*
X031711Y015163D01*
X031787Y015239D01*
X031787Y015861D01*
X031711Y015937D01*
X031089Y015937D01*
X031013Y015861D01*
X031013Y015800D01*
X029104Y015800D01*
X027342Y017562D01*
X027250Y017600D01*
X024898Y017600D01*
X024898Y017764D01*
X024898Y017686D02*
X027854Y017686D01*
X027952Y017588D02*
X027280Y017588D01*
X027415Y017489D02*
X028051Y017489D01*
X028149Y017391D02*
X027513Y017391D01*
X027612Y017292D02*
X028248Y017292D01*
X028346Y017194D02*
X027710Y017194D01*
X027809Y017095D02*
X028445Y017095D01*
X028543Y016997D02*
X027907Y016997D01*
X028006Y016898D02*
X028642Y016898D01*
X028740Y016800D02*
X028104Y016800D01*
X028203Y016701D02*
X028839Y016701D01*
X028937Y016603D02*
X028301Y016603D01*
X028400Y016504D02*
X029036Y016504D01*
X029134Y016406D02*
X028498Y016406D01*
X028597Y016307D02*
X029233Y016307D01*
X028892Y016012D02*
X033510Y016012D01*
X033510Y016110D02*
X028794Y016110D01*
X028695Y016209D02*
X031212Y016209D01*
X031064Y015913D02*
X028991Y015913D01*
X029089Y015815D02*
X031013Y015815D01*
X031028Y015224D02*
X024914Y015224D01*
X024914Y015322D02*
X028897Y015322D01*
X028776Y015421D02*
X024914Y015421D01*
X024914Y015519D02*
X028677Y015519D01*
X028579Y015618D02*
X024914Y015618D01*
X024880Y015716D02*
X028480Y015716D01*
X029462Y016898D02*
X031228Y016898D01*
X031305Y017153D02*
X031368Y017143D01*
X031371Y017143D01*
X031371Y017521D01*
X030993Y017521D01*
X030993Y017518D01*
X031003Y017455D01*
X031022Y017394D01*
X031051Y017336D01*
X031089Y017285D01*
X031135Y017239D01*
X031186Y017201D01*
X031244Y017172D01*
X031305Y017153D01*
X031371Y017194D02*
X031429Y017194D01*
X031429Y017143D02*
X031432Y017143D01*
X031495Y017153D01*
X031556Y017172D01*
X031614Y017201D01*
X031665Y017239D01*
X031711Y017285D01*
X031749Y017336D01*
X031778Y017394D01*
X031797Y017455D01*
X031807Y017518D01*
X031807Y017521D01*
X031429Y017521D01*
X031429Y017579D01*
X031371Y017579D01*
X031371Y017957D01*
X031368Y017957D01*
X031305Y017947D01*
X031244Y017928D01*
X031186Y017899D01*
X031135Y017861D01*
X031089Y017815D01*
X031051Y017764D01*
X031022Y017706D01*
X031003Y017645D01*
X030993Y017582D01*
X030993Y017579D01*
X031371Y017579D01*
X031371Y017521D01*
X031429Y017521D01*
X031429Y017143D01*
X031429Y017292D02*
X031371Y017292D01*
X031371Y017391D02*
X031429Y017391D01*
X031429Y017489D02*
X031371Y017489D01*
X031371Y017588D02*
X031429Y017588D01*
X031429Y017579D02*
X031429Y017957D01*
X031432Y017957D01*
X031495Y017947D01*
X031556Y017928D01*
X031614Y017899D01*
X031665Y017861D01*
X031711Y017815D01*
X031749Y017764D01*
X031778Y017706D01*
X031797Y017645D01*
X031807Y017582D01*
X031807Y017579D01*
X031429Y017579D01*
X031429Y017686D02*
X031371Y017686D01*
X031371Y017785D02*
X031429Y017785D01*
X031429Y017883D02*
X031371Y017883D01*
X031165Y017883D02*
X028477Y017883D01*
X028379Y017982D02*
X033510Y017982D01*
X033510Y018080D02*
X028280Y018080D01*
X028182Y018179D02*
X033510Y018179D01*
X033510Y018277D02*
X028083Y018277D01*
X027985Y018376D02*
X033510Y018376D01*
X033510Y018474D02*
X027886Y018474D01*
X027788Y018573D02*
X033510Y018573D01*
X033510Y018671D02*
X024471Y018671D01*
X024570Y018770D02*
X031090Y018770D01*
X031083Y018777D02*
X031111Y018749D01*
X031145Y018729D01*
X031183Y018719D01*
X031352Y018719D01*
X031352Y019037D01*
X031448Y019037D01*
X031448Y018719D01*
X031617Y018719D01*
X031655Y018729D01*
X031689Y018749D01*
X031717Y018777D01*
X031737Y018811D01*
X031747Y018849D01*
X031747Y019037D01*
X031448Y019037D01*
X031448Y019134D01*
X031747Y019134D01*
X031747Y019322D01*
X031737Y019360D01*
X031717Y019394D01*
X031689Y019422D01*
X031673Y019431D01*
X031727Y019484D01*
X031727Y020025D01*
X031720Y020032D01*
X031720Y020412D01*
X031717Y020418D01*
X031717Y020566D01*
X031641Y020642D01*
X031494Y020642D01*
X031488Y020645D01*
X031372Y020645D01*
X031366Y020642D01*
X031219Y020642D01*
X031143Y020566D01*
X031143Y020418D01*
X031140Y020412D01*
X031140Y020092D01*
X031073Y020025D01*
X031073Y019484D01*
X031127Y019431D01*
X031111Y019422D01*
X031083Y019394D01*
X031063Y019360D01*
X031053Y019322D01*
X031053Y019134D01*
X031352Y019134D01*
X031352Y019037D01*
X031053Y019037D01*
X031053Y018849D01*
X031063Y018811D01*
X031083Y018777D01*
X031053Y018868D02*
X024668Y018868D01*
X024767Y018967D02*
X031053Y018967D01*
X031053Y019164D02*
X024964Y019164D01*
X025062Y019262D02*
X031053Y019262D01*
X031064Y019361D02*
X025161Y019361D01*
X025259Y019459D02*
X031098Y019459D01*
X031073Y019558D02*
X025358Y019558D01*
X025456Y019656D02*
X031073Y019656D01*
X031073Y019755D02*
X025555Y019755D01*
X025653Y019853D02*
X031073Y019853D01*
X031073Y019952D02*
X025752Y019952D01*
X025850Y020050D02*
X031098Y020050D01*
X031140Y020149D02*
X025949Y020149D01*
X026047Y020247D02*
X031140Y020247D01*
X031140Y020346D02*
X030206Y020346D01*
X030304Y020444D02*
X031143Y020444D01*
X031143Y020543D02*
X030403Y020543D01*
X030501Y020641D02*
X031218Y020641D01*
X031642Y020641D02*
X033510Y020641D01*
X033510Y020543D02*
X031717Y020543D01*
X031717Y020444D02*
X033510Y020444D01*
X033510Y020346D02*
X031720Y020346D01*
X031720Y020247D02*
X033510Y020247D01*
X033510Y020149D02*
X031720Y020149D01*
X031720Y020050D02*
X033510Y020050D01*
X033510Y019952D02*
X031727Y019952D01*
X031727Y019853D02*
X033510Y019853D01*
X033510Y019755D02*
X031727Y019755D01*
X031727Y019656D02*
X033510Y019656D01*
X033510Y019558D02*
X031727Y019558D01*
X031702Y019459D02*
X033510Y019459D01*
X033510Y019361D02*
X031736Y019361D01*
X031747Y019262D02*
X033510Y019262D01*
X033510Y019164D02*
X031747Y019164D01*
X031747Y018967D02*
X033510Y018967D01*
X033510Y019065D02*
X031448Y019065D01*
X031352Y019065D02*
X024865Y019065D01*
X024439Y019459D02*
X017019Y019459D01*
X016921Y019361D02*
X024340Y019361D01*
X024242Y019262D02*
X016822Y019262D01*
X016724Y019164D02*
X024143Y019164D01*
X024045Y019065D02*
X016690Y019065D01*
X016690Y018967D02*
X023946Y018967D01*
X023848Y018868D02*
X016690Y018868D01*
X016690Y018770D02*
X023749Y018770D01*
X023611Y018671D02*
X016690Y018671D01*
X016690Y018573D02*
X023312Y018573D01*
X023214Y018474D02*
X016690Y018474D01*
X016690Y018376D02*
X023115Y018376D01*
X023017Y018277D02*
X022526Y018277D01*
X022517Y018293D02*
X022489Y018321D01*
X022455Y018341D01*
X022417Y018351D01*
X022248Y018351D01*
X022248Y018033D01*
X022547Y018033D01*
X022547Y018221D01*
X022537Y018259D01*
X022517Y018293D01*
X022547Y018179D02*
X022918Y018179D01*
X022840Y018080D02*
X022547Y018080D01*
X022547Y017883D02*
X022810Y017883D01*
X022810Y017785D02*
X022547Y017785D01*
X022523Y017686D02*
X022810Y017686D01*
X022810Y017588D02*
X022525Y017588D01*
X022248Y017982D02*
X022810Y017982D01*
X022248Y018080D02*
X022152Y018080D01*
X022152Y017982D02*
X016690Y017982D01*
X016690Y018080D02*
X021853Y018080D01*
X021853Y018179D02*
X016690Y018179D01*
X016690Y018277D02*
X021874Y018277D01*
X022152Y018277D02*
X022248Y018277D01*
X022248Y018179D02*
X022152Y018179D01*
X021853Y017883D02*
X017766Y017883D01*
X017787Y017292D02*
X019604Y017292D01*
X019703Y017194D02*
X017742Y017194D01*
X017572Y016898D02*
X019998Y016898D01*
X019900Y016997D02*
X016764Y016997D01*
X016690Y017095D02*
X019801Y017095D01*
X020097Y016800D02*
X017698Y016800D01*
X017757Y016701D02*
X020195Y016701D01*
X020294Y016603D02*
X017787Y016603D01*
X017787Y016504D02*
X020392Y016504D01*
X020450Y016406D02*
X017760Y016406D01*
X017705Y016307D02*
X020450Y016307D01*
X020450Y016209D02*
X017588Y016209D01*
X017495Y015947D02*
X017432Y015957D01*
X017429Y015957D01*
X017429Y015579D01*
X017371Y015579D01*
X017371Y015957D01*
X017368Y015957D01*
X017305Y015947D01*
X017244Y015928D01*
X017186Y015899D01*
X017135Y015861D01*
X017089Y015815D01*
X017051Y015764D01*
X017022Y015706D01*
X017003Y015645D01*
X016993Y015582D01*
X016993Y015579D01*
X017371Y015579D01*
X017371Y015521D01*
X016993Y015521D01*
X016993Y015518D01*
X017003Y015455D01*
X017022Y015394D01*
X017051Y015336D01*
X017089Y015285D01*
X017135Y015239D01*
X017186Y015201D01*
X017244Y015172D01*
X017305Y015153D01*
X017368Y015143D01*
X017371Y015143D01*
X017371Y015521D01*
X017429Y015521D01*
X017429Y015579D01*
X017807Y015579D01*
X017807Y015582D01*
X017797Y015645D01*
X017778Y015706D01*
X017749Y015764D01*
X017711Y015815D01*
X017665Y015861D01*
X017614Y015899D01*
X017556Y015928D01*
X017495Y015947D01*
X017429Y015913D02*
X017371Y015913D01*
X017371Y015815D02*
X017429Y015815D01*
X017429Y015716D02*
X017371Y015716D01*
X017371Y015618D02*
X017429Y015618D01*
X017429Y015521D02*
X017807Y015521D01*
X017807Y015518D01*
X017797Y015455D01*
X017778Y015394D01*
X017749Y015336D01*
X017711Y015285D01*
X017665Y015239D01*
X017614Y015201D01*
X017556Y015172D01*
X017495Y015153D01*
X017432Y015143D01*
X017429Y015143D01*
X017429Y015521D01*
X017429Y015519D02*
X017371Y015519D01*
X017371Y015421D02*
X017429Y015421D01*
X017429Y015322D02*
X017371Y015322D01*
X017371Y015224D02*
X017429Y015224D01*
X017644Y015224D02*
X020450Y015224D01*
X020450Y015322D02*
X017738Y015322D01*
X017786Y015421D02*
X020450Y015421D01*
X020450Y015519D02*
X017807Y015519D01*
X017802Y015618D02*
X020450Y015618D01*
X020450Y015716D02*
X017773Y015716D01*
X017711Y015815D02*
X020450Y015815D01*
X020450Y015913D02*
X017585Y015913D01*
X017215Y015913D02*
X014775Y015913D01*
X014775Y015815D02*
X017089Y015815D01*
X017027Y015716D02*
X014775Y015716D01*
X014775Y015618D02*
X016998Y015618D01*
X016993Y015519D02*
X014775Y015519D01*
X014775Y015421D02*
X017014Y015421D01*
X017062Y015322D02*
X014775Y015322D01*
X014775Y015224D02*
X017156Y015224D01*
X017212Y016209D02*
X014775Y016209D01*
X014775Y016307D02*
X016633Y016307D01*
X016534Y016406D02*
X014775Y016406D01*
X014775Y016504D02*
X016436Y016504D01*
X016337Y016603D02*
X014775Y016603D01*
X014775Y016701D02*
X016239Y016701D01*
X016148Y016800D02*
X014775Y016800D01*
X014775Y016898D02*
X016110Y016898D01*
X016110Y016997D02*
X014775Y016997D01*
X014775Y017095D02*
X016110Y017095D01*
X016110Y017194D02*
X014775Y017194D01*
X014775Y017292D02*
X016110Y017292D01*
X016110Y017391D02*
X014775Y017391D01*
X014775Y017489D02*
X016110Y017489D01*
X016110Y017588D02*
X014775Y017588D01*
X014775Y017686D02*
X016110Y017686D01*
X016110Y017785D02*
X014775Y017785D01*
X014775Y017883D02*
X016110Y017883D01*
X016110Y017982D02*
X014775Y017982D01*
X014775Y018080D02*
X016110Y018080D01*
X016110Y018179D02*
X014775Y018179D01*
X014775Y018277D02*
X016110Y018277D01*
X016110Y018376D02*
X014775Y018376D01*
X014775Y018474D02*
X016110Y018474D01*
X016110Y018573D02*
X014775Y018573D01*
X014775Y018671D02*
X016110Y018671D01*
X016110Y018770D02*
X014775Y018770D01*
X014775Y018868D02*
X016110Y018868D01*
X016110Y018967D02*
X014775Y018967D01*
X014775Y019065D02*
X016110Y019065D01*
X016110Y019164D02*
X014775Y019164D01*
X014775Y019262D02*
X016110Y019262D01*
X016132Y019361D02*
X014775Y019361D01*
X014775Y019459D02*
X016199Y019459D01*
X016297Y019558D02*
X014775Y019558D01*
X014775Y019656D02*
X016396Y019656D01*
X016494Y019755D02*
X014775Y019755D01*
X014775Y019853D02*
X016593Y019853D01*
X016691Y019952D02*
X014775Y019952D01*
X014775Y020050D02*
X016790Y020050D01*
X016888Y020149D02*
X014775Y020149D01*
X014775Y020247D02*
X016987Y020247D01*
X017085Y020346D02*
X014775Y020346D01*
X014775Y020444D02*
X017184Y020444D01*
X017282Y020543D02*
X014775Y020543D01*
X014775Y020641D02*
X017381Y020641D01*
X017479Y020740D02*
X014775Y020740D01*
X014775Y020838D02*
X017638Y020838D01*
X017807Y020247D02*
X025227Y020247D01*
X025128Y020149D02*
X017709Y020149D01*
X017610Y020050D02*
X025030Y020050D01*
X024931Y019952D02*
X017512Y019952D01*
X017413Y019853D02*
X024833Y019853D01*
X024734Y019755D02*
X017315Y019755D01*
X017216Y019656D02*
X024636Y019656D01*
X024537Y019558D02*
X017118Y019558D01*
X015256Y021035D02*
X030075Y021035D01*
X030173Y021134D02*
X015535Y021134D01*
X015645Y021232D02*
X030295Y021232D01*
X029976Y020937D02*
X014775Y020937D01*
X014775Y021035D02*
X014937Y021035D01*
X015754Y021331D02*
X032542Y021331D01*
X032470Y021429D02*
X015820Y021429D01*
X015863Y021528D02*
X032402Y021528D01*
X032382Y021626D02*
X015907Y021626D01*
X015937Y021725D02*
X032361Y021725D01*
X032340Y021823D02*
X015937Y021823D01*
X015937Y021922D02*
X032339Y021922D01*
X032360Y022020D02*
X015937Y022020D01*
X015908Y022119D02*
X032381Y022119D01*
X032613Y021232D02*
X031642Y021232D01*
X031717Y021134D02*
X032780Y021134D01*
X033047Y021035D02*
X031717Y021035D01*
X031720Y020937D02*
X033510Y020937D01*
X033510Y021035D02*
X033367Y021035D01*
X033510Y020838D02*
X031717Y020838D01*
X031717Y020740D02*
X033510Y020740D01*
X033510Y018868D02*
X031747Y018868D01*
X031710Y018770D02*
X033510Y018770D01*
X033510Y017883D02*
X031635Y017883D01*
X031733Y017785D02*
X033510Y017785D01*
X033510Y017686D02*
X031784Y017686D01*
X031807Y017588D02*
X033510Y017588D01*
X033510Y017489D02*
X031803Y017489D01*
X031776Y017391D02*
X033510Y017391D01*
X033510Y017292D02*
X031716Y017292D01*
X031598Y017194D02*
X033510Y017194D01*
X033510Y017095D02*
X029265Y017095D01*
X029167Y017194D02*
X031202Y017194D01*
X031084Y017292D02*
X029068Y017292D01*
X028970Y017391D02*
X031024Y017391D01*
X030997Y017489D02*
X028871Y017489D01*
X028773Y017588D02*
X030993Y017588D01*
X031016Y017686D02*
X028674Y017686D01*
X028576Y017785D02*
X031067Y017785D01*
X031572Y016898D02*
X033510Y016898D01*
X033510Y016800D02*
X031698Y016800D01*
X031757Y016701D02*
X033510Y016701D01*
X033510Y016603D02*
X031787Y016603D01*
X031787Y016504D02*
X033510Y016504D01*
X033510Y016406D02*
X031760Y016406D01*
X031705Y016307D02*
X033510Y016307D01*
X033510Y016209D02*
X031588Y016209D01*
X031736Y015913D02*
X033510Y015913D01*
X033510Y015815D02*
X031787Y015815D01*
X031787Y015716D02*
X033510Y015716D01*
X033510Y015618D02*
X031787Y015618D01*
X031787Y015519D02*
X033510Y015519D01*
X033510Y015421D02*
X031787Y015421D01*
X031787Y015322D02*
X033510Y015322D01*
X033510Y015224D02*
X031772Y015224D01*
X033510Y015125D02*
X024914Y015125D01*
X024914Y015027D02*
X033510Y015027D01*
X033510Y014928D02*
X024902Y014928D01*
X024655Y014928D02*
X024637Y014928D01*
X024637Y015027D02*
X024655Y015027D01*
X024655Y015125D02*
X024637Y015125D01*
X024637Y015224D02*
X024655Y015224D01*
X024655Y015322D02*
X024637Y015322D01*
X024637Y015421D02*
X024655Y015421D01*
X024655Y015519D02*
X024637Y015519D01*
X024637Y015618D02*
X024655Y015618D01*
X024655Y015716D02*
X024637Y015716D01*
X024412Y015716D02*
X024352Y015716D01*
X024386Y014928D02*
X024391Y014928D01*
X023396Y014928D02*
X023390Y014928D01*
X023396Y014830D02*
X020974Y014830D01*
X020950Y014928D02*
X022910Y014928D01*
X022902Y015027D02*
X020950Y015027D01*
X020950Y015125D02*
X022902Y015125D01*
X022902Y015224D02*
X020950Y015224D01*
X020950Y015322D02*
X022900Y015322D01*
X022900Y015421D02*
X020950Y015421D01*
X020950Y015519D02*
X022900Y015519D01*
X022900Y015618D02*
X020950Y015618D01*
X020950Y015716D02*
X022900Y015716D01*
X022900Y015815D02*
X020950Y015815D01*
X020950Y015913D02*
X022900Y015913D01*
X022900Y016012D02*
X020950Y016012D01*
X020950Y016110D02*
X022900Y016110D01*
X022900Y016209D02*
X020950Y016209D01*
X020950Y016307D02*
X022900Y016307D01*
X022900Y016406D02*
X020950Y016406D01*
X020950Y016504D02*
X022900Y016504D01*
X022900Y016603D02*
X020949Y016603D01*
X020903Y016701D02*
X022900Y016701D01*
X022900Y016800D02*
X020804Y016800D01*
X020706Y016898D02*
X022900Y016898D01*
X022900Y016997D02*
X022478Y016997D01*
X021922Y016997D02*
X020607Y016997D01*
X020509Y017095D02*
X021873Y017095D01*
X021873Y017194D02*
X020410Y017194D01*
X020312Y017292D02*
X021873Y017292D01*
X021873Y017391D02*
X020213Y017391D01*
X020115Y017489D02*
X021873Y017489D01*
X021875Y017588D02*
X020016Y017588D01*
X019918Y017686D02*
X021877Y017686D01*
X021853Y017785D02*
X019787Y017785D01*
X020450Y016110D02*
X014775Y016110D01*
X014775Y016012D02*
X020450Y016012D01*
X020450Y015125D02*
X014775Y015125D01*
X014775Y015027D02*
X020450Y015027D01*
X020450Y014928D02*
X014775Y014928D01*
X014775Y014830D02*
X020450Y014830D01*
X020450Y014731D02*
X014775Y014731D01*
X014775Y014633D02*
X020478Y014633D01*
X020562Y014534D02*
X014775Y014534D01*
X014775Y014436D02*
X020661Y014436D01*
X020759Y014337D02*
X014775Y014337D01*
X014775Y014239D02*
X020858Y014239D01*
X020956Y014140D02*
X014775Y014140D01*
X014775Y014042D02*
X021055Y014042D01*
X021270Y014534D02*
X023330Y014534D01*
X023396Y014633D02*
X021171Y014633D01*
X021073Y014731D02*
X023396Y014731D01*
X023978Y016950D02*
X024322Y016950D01*
X024398Y017026D01*
X024398Y017764D01*
X024322Y017840D01*
X023978Y017840D01*
X023902Y017764D01*
X023902Y017026D01*
X023978Y016950D01*
X023931Y016997D02*
X023869Y016997D01*
X023898Y017095D02*
X023902Y017095D01*
X023898Y017194D02*
X023902Y017194D01*
X023898Y017292D02*
X023902Y017292D01*
X023898Y017391D02*
X023902Y017391D01*
X023898Y017489D02*
X023902Y017489D01*
X023898Y017588D02*
X023902Y017588D01*
X023898Y017686D02*
X023902Y017686D01*
X023923Y017785D02*
X023877Y017785D01*
X023542Y017982D02*
X027558Y017982D01*
X027101Y017095D02*
X024898Y017095D01*
X024869Y016997D02*
X027200Y016997D01*
X029364Y016997D02*
X033510Y016997D01*
X031448Y018770D02*
X031352Y018770D01*
X031352Y018868D02*
X031448Y018868D01*
X031448Y018967D02*
X031352Y018967D01*
X024423Y017785D02*
X024377Y017785D01*
X024398Y017686D02*
X024402Y017686D01*
X024398Y017588D02*
X024402Y017588D01*
X024398Y017489D02*
X024402Y017489D01*
X024398Y017391D02*
X024400Y017391D01*
X024398Y017292D02*
X024402Y017292D01*
X024398Y017194D02*
X024402Y017194D01*
X024398Y017095D02*
X024402Y017095D01*
X024431Y016997D02*
X024369Y016997D01*
X017228Y016898D02*
X016862Y016898D01*
X016690Y017194D02*
X017058Y017194D01*
X017013Y017292D02*
X016690Y017292D01*
X016690Y017391D02*
X017013Y017391D01*
X017013Y017489D02*
X016690Y017489D01*
X016690Y017588D02*
X017013Y017588D01*
X017013Y017686D02*
X016690Y017686D01*
X016690Y017785D02*
X017013Y017785D01*
X017034Y017883D02*
X016690Y017883D01*
D18*
X015700Y019650D03*
X021000Y018850D03*
X021000Y017850D03*
X026100Y019150D03*
X027700Y019150D03*
X026600Y017850D03*
X026300Y014450D03*
X027800Y014450D03*
X031310Y014160D03*
X017510Y014080D03*
X015800Y014150D03*
D19*
X016800Y016550D02*
X017400Y016550D01*
X016800Y016550D02*
X016400Y016950D01*
X016400Y019250D01*
X017700Y020550D01*
X025940Y020550D01*
X023840Y018450D01*
X023800Y018450D01*
X023700Y018350D02*
X023500Y018350D01*
X023100Y017950D01*
X023100Y017445D01*
X023150Y017395D01*
X023700Y018350D02*
X027600Y018350D01*
X029400Y016550D01*
X031400Y016550D01*
X031400Y017550D02*
X031400Y019085D01*
X031400Y019755D02*
X031430Y019785D01*
X031430Y020355D01*
X031430Y020945D02*
X031405Y020970D01*
X030420Y020970D01*
X030000Y020550D01*
X025940Y020550D01*
D20*
X023800Y018450D02*
X023700Y018350D01*
X023150Y017395D02*
X023070Y017315D01*
X022200Y017315D01*
X023150Y017395D02*
X023150Y015305D01*
X023646Y015305D02*
X023646Y014496D01*
X023400Y014250D01*
X021200Y014250D01*
X020700Y014750D01*
X020700Y016550D01*
X019700Y017550D01*
X017400Y017550D01*
X024650Y017395D02*
X024695Y017350D01*
X027200Y017350D01*
X029000Y015550D01*
X031400Y015550D01*
M02*
