G75*
%MOIN*%
%OFA0B0*%
%FSLAX24Y24*%
%IPPOS*%
%LPD*%
%AMOC8*
5,1,8,0,0,1.08239X$1,22.5*
%
%ADD10C,0.0000*%
%ADD11R,0.0515X0.0515*%
%ADD12C,0.0515*%
%ADD13C,0.0050*%
%ADD14C,0.0100*%
%ADD15C,0.0260*%
D10*
X000300Y000350D02*
X000300Y039720D01*
X063292Y039720D01*
X063292Y000350D01*
X000300Y000350D01*
D11*
X017400Y017550D03*
X031400Y015550D03*
D12*
X031400Y016550D03*
X031400Y017550D03*
X017400Y016550D03*
X017400Y015550D03*
D13*
X014693Y011637D02*
X014695Y011676D01*
X014701Y011715D01*
X014711Y011753D01*
X014724Y011790D01*
X014741Y011825D01*
X014761Y011859D01*
X014785Y011890D01*
X014812Y011919D01*
X014841Y011945D01*
X014873Y011968D01*
X014907Y011988D01*
X014943Y012004D01*
X014980Y012016D01*
X015019Y012025D01*
X015058Y012030D01*
X015097Y012031D01*
X015136Y012028D01*
X015175Y012021D01*
X015212Y012010D01*
X015249Y011996D01*
X015284Y011978D01*
X015317Y011957D01*
X015348Y011932D01*
X015376Y011905D01*
X015401Y011875D01*
X015423Y011842D01*
X015442Y011808D01*
X015457Y011772D01*
X015469Y011734D01*
X015477Y011696D01*
X015481Y011657D01*
X015481Y011617D01*
X015477Y011578D01*
X015469Y011540D01*
X015457Y011502D01*
X015442Y011466D01*
X015423Y011432D01*
X015401Y011399D01*
X015376Y011369D01*
X015348Y011342D01*
X015317Y011317D01*
X015284Y011296D01*
X015249Y011278D01*
X015212Y011264D01*
X015175Y011253D01*
X015136Y011246D01*
X015097Y011243D01*
X015058Y011244D01*
X015019Y011249D01*
X014980Y011258D01*
X014943Y011270D01*
X014907Y011286D01*
X014873Y011306D01*
X014841Y011329D01*
X014812Y011355D01*
X014785Y011384D01*
X014761Y011415D01*
X014741Y011449D01*
X014724Y011484D01*
X014711Y011521D01*
X014701Y011559D01*
X014695Y011598D01*
X014693Y011637D01*
X014300Y011637D02*
X014300Y021874D01*
X014693Y021874D02*
X014695Y021913D01*
X014701Y021952D01*
X014711Y021990D01*
X014724Y022027D01*
X014741Y022062D01*
X014761Y022096D01*
X014785Y022127D01*
X014812Y022156D01*
X014841Y022182D01*
X014873Y022205D01*
X014907Y022225D01*
X014943Y022241D01*
X014980Y022253D01*
X015019Y022262D01*
X015058Y022267D01*
X015097Y022268D01*
X015136Y022265D01*
X015175Y022258D01*
X015212Y022247D01*
X015249Y022233D01*
X015284Y022215D01*
X015317Y022194D01*
X015348Y022169D01*
X015376Y022142D01*
X015401Y022112D01*
X015423Y022079D01*
X015442Y022045D01*
X015457Y022009D01*
X015469Y021971D01*
X015477Y021933D01*
X015481Y021894D01*
X015481Y021854D01*
X015477Y021815D01*
X015469Y021777D01*
X015457Y021739D01*
X015442Y021703D01*
X015423Y021669D01*
X015401Y021636D01*
X015376Y021606D01*
X015348Y021579D01*
X015317Y021554D01*
X015284Y021533D01*
X015249Y021515D01*
X015212Y021501D01*
X015175Y021490D01*
X015136Y021483D01*
X015097Y021480D01*
X015058Y021481D01*
X015019Y021486D01*
X014980Y021495D01*
X014943Y021507D01*
X014907Y021523D01*
X014873Y021543D01*
X014841Y021566D01*
X014812Y021592D01*
X014785Y021621D01*
X014761Y021652D01*
X014741Y021686D01*
X014724Y021721D01*
X014711Y021758D01*
X014701Y021796D01*
X014695Y021835D01*
X014693Y021874D01*
X014300Y021874D02*
X014302Y021928D01*
X014307Y021981D01*
X014316Y022034D01*
X014329Y022086D01*
X014345Y022138D01*
X014365Y022188D01*
X014388Y022236D01*
X014415Y022283D01*
X014444Y022328D01*
X014477Y022371D01*
X014512Y022411D01*
X014550Y022449D01*
X014590Y022484D01*
X014633Y022517D01*
X014678Y022546D01*
X014725Y022573D01*
X014773Y022596D01*
X014823Y022616D01*
X014875Y022632D01*
X014927Y022645D01*
X014980Y022654D01*
X015033Y022659D01*
X015087Y022661D01*
X033198Y022661D01*
X032804Y021874D02*
X032806Y021913D01*
X032812Y021952D01*
X032822Y021990D01*
X032835Y022027D01*
X032852Y022062D01*
X032872Y022096D01*
X032896Y022127D01*
X032923Y022156D01*
X032952Y022182D01*
X032984Y022205D01*
X033018Y022225D01*
X033054Y022241D01*
X033091Y022253D01*
X033130Y022262D01*
X033169Y022267D01*
X033208Y022268D01*
X033247Y022265D01*
X033286Y022258D01*
X033323Y022247D01*
X033360Y022233D01*
X033395Y022215D01*
X033428Y022194D01*
X033459Y022169D01*
X033487Y022142D01*
X033512Y022112D01*
X033534Y022079D01*
X033553Y022045D01*
X033568Y022009D01*
X033580Y021971D01*
X033588Y021933D01*
X033592Y021894D01*
X033592Y021854D01*
X033588Y021815D01*
X033580Y021777D01*
X033568Y021739D01*
X033553Y021703D01*
X033534Y021669D01*
X033512Y021636D01*
X033487Y021606D01*
X033459Y021579D01*
X033428Y021554D01*
X033395Y021533D01*
X033360Y021515D01*
X033323Y021501D01*
X033286Y021490D01*
X033247Y021483D01*
X033208Y021480D01*
X033169Y021481D01*
X033130Y021486D01*
X033091Y021495D01*
X033054Y021507D01*
X033018Y021523D01*
X032984Y021543D01*
X032952Y021566D01*
X032923Y021592D01*
X032896Y021621D01*
X032872Y021652D01*
X032852Y021686D01*
X032835Y021721D01*
X032822Y021758D01*
X032812Y021796D01*
X032806Y021835D01*
X032804Y021874D01*
X033198Y022661D02*
X033252Y022659D01*
X033305Y022654D01*
X033358Y022645D01*
X033410Y022632D01*
X033462Y022616D01*
X033512Y022596D01*
X033560Y022573D01*
X033607Y022546D01*
X033652Y022517D01*
X033695Y022484D01*
X033735Y022449D01*
X033773Y022411D01*
X033808Y022371D01*
X033841Y022328D01*
X033870Y022283D01*
X033897Y022236D01*
X033920Y022188D01*
X033940Y022138D01*
X033956Y022086D01*
X033969Y022034D01*
X033978Y021981D01*
X033983Y021928D01*
X033985Y021874D01*
X033985Y011637D01*
X032804Y011637D02*
X032806Y011676D01*
X032812Y011715D01*
X032822Y011753D01*
X032835Y011790D01*
X032852Y011825D01*
X032872Y011859D01*
X032896Y011890D01*
X032923Y011919D01*
X032952Y011945D01*
X032984Y011968D01*
X033018Y011988D01*
X033054Y012004D01*
X033091Y012016D01*
X033130Y012025D01*
X033169Y012030D01*
X033208Y012031D01*
X033247Y012028D01*
X033286Y012021D01*
X033323Y012010D01*
X033360Y011996D01*
X033395Y011978D01*
X033428Y011957D01*
X033459Y011932D01*
X033487Y011905D01*
X033512Y011875D01*
X033534Y011842D01*
X033553Y011808D01*
X033568Y011772D01*
X033580Y011734D01*
X033588Y011696D01*
X033592Y011657D01*
X033592Y011617D01*
X033588Y011578D01*
X033580Y011540D01*
X033568Y011502D01*
X033553Y011466D01*
X033534Y011432D01*
X033512Y011399D01*
X033487Y011369D01*
X033459Y011342D01*
X033428Y011317D01*
X033395Y011296D01*
X033360Y011278D01*
X033323Y011264D01*
X033286Y011253D01*
X033247Y011246D01*
X033208Y011243D01*
X033169Y011244D01*
X033130Y011249D01*
X033091Y011258D01*
X033054Y011270D01*
X033018Y011286D01*
X032984Y011306D01*
X032952Y011329D01*
X032923Y011355D01*
X032896Y011384D01*
X032872Y011415D01*
X032852Y011449D01*
X032835Y011484D01*
X032822Y011521D01*
X032812Y011559D01*
X032806Y011598D01*
X032804Y011637D01*
X033198Y010850D02*
X033252Y010852D01*
X033305Y010857D01*
X033358Y010866D01*
X033410Y010879D01*
X033462Y010895D01*
X033512Y010915D01*
X033560Y010938D01*
X033607Y010965D01*
X033652Y010994D01*
X033695Y011027D01*
X033735Y011062D01*
X033773Y011100D01*
X033808Y011140D01*
X033841Y011183D01*
X033870Y011228D01*
X033897Y011275D01*
X033920Y011323D01*
X033940Y011373D01*
X033956Y011425D01*
X033969Y011477D01*
X033978Y011530D01*
X033983Y011583D01*
X033985Y011637D01*
X033198Y010850D02*
X015087Y010850D01*
X014300Y010850D01*
X014300Y011637D02*
X014302Y011583D01*
X014307Y011530D01*
X014316Y011477D01*
X014329Y011425D01*
X014345Y011373D01*
X014365Y011323D01*
X014388Y011275D01*
X014415Y011228D01*
X014444Y011183D01*
X014477Y011140D01*
X014512Y011100D01*
X014550Y011062D01*
X014590Y011027D01*
X014633Y010994D01*
X014678Y010965D01*
X014725Y010938D01*
X014773Y010915D01*
X014823Y010895D01*
X014875Y010879D01*
X014927Y010866D01*
X014980Y010857D01*
X015033Y010852D01*
X015087Y010850D01*
D14*
X015878Y011325D02*
X015937Y011457D01*
X015937Y011818D01*
X015790Y012148D01*
X015522Y012390D01*
X015178Y012501D01*
X014819Y012464D01*
X014775Y012438D01*
X014775Y021073D01*
X014819Y021047D01*
X015178Y021010D01*
X015522Y021121D01*
X015790Y021363D01*
X015937Y021693D01*
X015937Y022054D01*
X015878Y022186D01*
X032395Y022186D01*
X032329Y021874D01*
X032404Y021520D01*
X032616Y021228D01*
X032929Y021047D01*
X033288Y021010D01*
X033510Y021082D01*
X033510Y012429D01*
X033288Y012501D01*
X032929Y012464D01*
X032616Y012283D01*
X032404Y011991D01*
X032329Y011637D01*
X032395Y011325D01*
X015878Y011325D01*
X015904Y011382D02*
X032383Y011382D01*
X032362Y011481D02*
X015937Y011481D01*
X015937Y011579D02*
X032341Y011579D01*
X032337Y011678D02*
X015937Y011678D01*
X015937Y011776D02*
X032358Y011776D01*
X032379Y011875D02*
X015912Y011875D01*
X015868Y011973D02*
X032400Y011973D01*
X032463Y012072D02*
X015824Y012072D01*
X015766Y012170D02*
X032534Y012170D01*
X032606Y012269D02*
X015656Y012269D01*
X015547Y012367D02*
X032762Y012367D01*
X032948Y012466D02*
X015288Y012466D01*
X014837Y012466D02*
X014775Y012466D01*
X014775Y012564D02*
X033510Y012564D01*
X033510Y012466D02*
X033399Y012466D01*
X033510Y012663D02*
X014775Y012663D01*
X014775Y012761D02*
X033510Y012761D01*
X033510Y012860D02*
X014775Y012860D01*
X014775Y012958D02*
X033510Y012958D01*
X033510Y013057D02*
X014775Y013057D01*
X014775Y013155D02*
X033510Y013155D01*
X033510Y013254D02*
X014775Y013254D01*
X014775Y013352D02*
X033510Y013352D01*
X033510Y013451D02*
X014775Y013451D01*
X014775Y013549D02*
X033510Y013549D01*
X033510Y013648D02*
X014775Y013648D01*
X014775Y013746D02*
X033510Y013746D01*
X033510Y013845D02*
X014775Y013845D01*
X014775Y013943D02*
X033510Y013943D01*
X033510Y014042D02*
X014775Y014042D01*
X014775Y014140D02*
X033510Y014140D01*
X033510Y014239D02*
X014775Y014239D01*
X014775Y014337D02*
X033510Y014337D01*
X033510Y014436D02*
X014775Y014436D01*
X014775Y014534D02*
X033510Y014534D01*
X033510Y014633D02*
X014775Y014633D01*
X014775Y014731D02*
X033510Y014731D01*
X033510Y014830D02*
X014775Y014830D01*
X014775Y014928D02*
X033510Y014928D01*
X033510Y015027D02*
X031773Y015027D01*
X031822Y015047D02*
X031903Y015128D01*
X031947Y015235D01*
X031947Y015865D01*
X031903Y015972D01*
X031822Y016053D01*
X031720Y016096D01*
X031864Y016240D01*
X031947Y016441D01*
X031947Y016659D01*
X031864Y016860D01*
X031710Y017014D01*
X031509Y017097D01*
X031291Y017097D01*
X031090Y017014D01*
X030936Y016860D01*
X030853Y016659D01*
X030853Y016441D01*
X030936Y016240D01*
X031080Y016096D01*
X030978Y016053D01*
X030897Y015972D01*
X030853Y015865D01*
X030853Y015235D01*
X030897Y015128D01*
X030978Y015047D01*
X031085Y015003D01*
X031715Y015003D01*
X031822Y015047D01*
X031900Y015125D02*
X033510Y015125D01*
X033510Y015224D02*
X031943Y015224D01*
X031947Y015322D02*
X033510Y015322D01*
X033510Y015421D02*
X031947Y015421D01*
X031947Y015519D02*
X033510Y015519D01*
X033510Y015618D02*
X031947Y015618D01*
X031947Y015716D02*
X033510Y015716D01*
X033510Y015815D02*
X031947Y015815D01*
X031928Y015913D02*
X033510Y015913D01*
X033510Y016012D02*
X031864Y016012D01*
X031734Y016110D02*
X033510Y016110D01*
X033510Y016209D02*
X031833Y016209D01*
X031892Y016307D02*
X033510Y016307D01*
X033510Y016406D02*
X031933Y016406D01*
X031947Y016504D02*
X033510Y016504D01*
X033510Y016603D02*
X031947Y016603D01*
X031930Y016701D02*
X033510Y016701D01*
X033510Y016800D02*
X031889Y016800D01*
X031826Y016898D02*
X033510Y016898D01*
X033510Y016997D02*
X031728Y016997D01*
X031614Y017201D02*
X031665Y017239D01*
X031711Y017285D01*
X031749Y017336D01*
X031778Y017394D01*
X031797Y017455D01*
X031807Y017518D01*
X031807Y017521D01*
X031429Y017521D01*
X031429Y017579D01*
X031371Y017579D01*
X031371Y017957D01*
X031368Y017957D01*
X031305Y017947D01*
X031244Y017928D01*
X031186Y017899D01*
X031135Y017861D01*
X031089Y017815D01*
X031051Y017764D01*
X031022Y017706D01*
X031003Y017645D01*
X030993Y017582D01*
X030993Y017579D01*
X031371Y017579D01*
X031371Y017521D01*
X030993Y017521D01*
X030993Y017518D01*
X031003Y017455D01*
X031022Y017394D01*
X031051Y017336D01*
X031089Y017285D01*
X031135Y017239D01*
X031186Y017201D01*
X031244Y017172D01*
X031305Y017153D01*
X031368Y017143D01*
X031371Y017143D01*
X031371Y017521D01*
X031429Y017521D01*
X031429Y017143D01*
X031432Y017143D01*
X031495Y017153D01*
X031556Y017172D01*
X031614Y017201D01*
X031598Y017194D02*
X033510Y017194D01*
X033510Y017292D02*
X031716Y017292D01*
X031776Y017391D02*
X033510Y017391D01*
X033510Y017489D02*
X031803Y017489D01*
X031807Y017579D02*
X031429Y017579D01*
X031429Y017957D01*
X031432Y017957D01*
X031495Y017947D01*
X031556Y017928D01*
X031614Y017899D01*
X031665Y017861D01*
X031711Y017815D01*
X031749Y017764D01*
X031778Y017706D01*
X031797Y017645D01*
X031807Y017582D01*
X031807Y017579D01*
X031807Y017588D02*
X033510Y017588D01*
X033510Y017686D02*
X031784Y017686D01*
X031733Y017785D02*
X033510Y017785D01*
X033510Y017883D02*
X031635Y017883D01*
X031429Y017883D02*
X031371Y017883D01*
X031371Y017785D02*
X031429Y017785D01*
X031429Y017686D02*
X031371Y017686D01*
X031371Y017588D02*
X031429Y017588D01*
X031429Y017489D02*
X031371Y017489D01*
X031371Y017391D02*
X031429Y017391D01*
X031429Y017292D02*
X031371Y017292D01*
X031371Y017194D02*
X031429Y017194D01*
X031515Y017095D02*
X033510Y017095D01*
X033510Y017982D02*
X017894Y017982D01*
X017903Y017972D02*
X017822Y018053D01*
X017715Y018097D01*
X017085Y018097D01*
X016978Y018053D01*
X016897Y017972D01*
X016853Y017865D01*
X016853Y017235D01*
X016897Y017128D01*
X016978Y017047D01*
X017080Y017004D01*
X016936Y016860D01*
X016853Y016659D01*
X016853Y016441D01*
X016936Y016240D01*
X017090Y016086D01*
X017291Y016003D01*
X017509Y016003D01*
X017710Y016086D01*
X017864Y016240D01*
X017947Y016441D01*
X017947Y016659D01*
X017864Y016860D01*
X017720Y017004D01*
X017822Y017047D01*
X017903Y017128D01*
X017947Y017235D01*
X017947Y017865D01*
X017903Y017972D01*
X017940Y017883D02*
X031165Y017883D01*
X031067Y017785D02*
X017947Y017785D01*
X017947Y017686D02*
X031016Y017686D01*
X030993Y017588D02*
X017947Y017588D01*
X017947Y017489D02*
X030997Y017489D01*
X031024Y017391D02*
X017947Y017391D01*
X017947Y017292D02*
X031084Y017292D01*
X031202Y017194D02*
X017930Y017194D01*
X017870Y017095D02*
X031285Y017095D01*
X031072Y016997D02*
X017728Y016997D01*
X017826Y016898D02*
X030974Y016898D01*
X030911Y016800D02*
X017889Y016800D01*
X017930Y016701D02*
X030870Y016701D01*
X030853Y016603D02*
X017947Y016603D01*
X017947Y016504D02*
X030853Y016504D01*
X030867Y016406D02*
X017933Y016406D01*
X017892Y016307D02*
X030908Y016307D01*
X030967Y016209D02*
X017833Y016209D01*
X017734Y016110D02*
X031066Y016110D01*
X030936Y016012D02*
X017531Y016012D01*
X017495Y015947D02*
X017432Y015957D01*
X017429Y015957D01*
X017429Y015579D01*
X017371Y015579D01*
X017371Y015957D01*
X017368Y015957D01*
X017305Y015947D01*
X017244Y015928D01*
X017186Y015899D01*
X017135Y015861D01*
X017089Y015815D01*
X017051Y015764D01*
X017022Y015706D01*
X017003Y015645D01*
X016993Y015582D01*
X016993Y015579D01*
X017371Y015579D01*
X017371Y015521D01*
X016993Y015521D01*
X016993Y015518D01*
X017003Y015455D01*
X017022Y015394D01*
X017051Y015336D01*
X017089Y015285D01*
X017135Y015239D01*
X017186Y015201D01*
X017244Y015172D01*
X017305Y015153D01*
X017368Y015143D01*
X017371Y015143D01*
X017371Y015521D01*
X017429Y015521D01*
X017429Y015579D01*
X017807Y015579D01*
X017807Y015582D01*
X017797Y015645D01*
X017778Y015706D01*
X017749Y015764D01*
X017711Y015815D01*
X017665Y015861D01*
X017614Y015899D01*
X017556Y015928D01*
X017495Y015947D01*
X017429Y015913D02*
X017371Y015913D01*
X017371Y015815D02*
X017429Y015815D01*
X017429Y015716D02*
X017371Y015716D01*
X017371Y015618D02*
X017429Y015618D01*
X017429Y015521D02*
X017807Y015521D01*
X017807Y015518D01*
X017797Y015455D01*
X017778Y015394D01*
X017749Y015336D01*
X017711Y015285D01*
X017665Y015239D01*
X017614Y015201D01*
X017556Y015172D01*
X017495Y015153D01*
X017432Y015143D01*
X017429Y015143D01*
X017429Y015521D01*
X017429Y015519D02*
X017371Y015519D01*
X017371Y015421D02*
X017429Y015421D01*
X017429Y015322D02*
X017371Y015322D01*
X017371Y015224D02*
X017429Y015224D01*
X017644Y015224D02*
X030857Y015224D01*
X030853Y015322D02*
X017738Y015322D01*
X017786Y015421D02*
X030853Y015421D01*
X030853Y015519D02*
X017807Y015519D01*
X017802Y015618D02*
X030853Y015618D01*
X030853Y015716D02*
X017773Y015716D01*
X017711Y015815D02*
X030853Y015815D01*
X030872Y015913D02*
X017585Y015913D01*
X017269Y016012D02*
X014775Y016012D01*
X014775Y016110D02*
X017066Y016110D01*
X016967Y016209D02*
X014775Y016209D01*
X014775Y016307D02*
X016908Y016307D01*
X016867Y016406D02*
X014775Y016406D01*
X014775Y016504D02*
X016853Y016504D01*
X016853Y016603D02*
X014775Y016603D01*
X014775Y016701D02*
X016870Y016701D01*
X016911Y016800D02*
X014775Y016800D01*
X014775Y016898D02*
X016974Y016898D01*
X017072Y016997D02*
X014775Y016997D01*
X014775Y017095D02*
X016930Y017095D01*
X016870Y017194D02*
X014775Y017194D01*
X014775Y017292D02*
X016853Y017292D01*
X016853Y017391D02*
X014775Y017391D01*
X014775Y017489D02*
X016853Y017489D01*
X016853Y017588D02*
X014775Y017588D01*
X014775Y017686D02*
X016853Y017686D01*
X016853Y017785D02*
X014775Y017785D01*
X014775Y017883D02*
X016860Y017883D01*
X016906Y017982D02*
X014775Y017982D01*
X014775Y018080D02*
X017043Y018080D01*
X017757Y018080D02*
X033510Y018080D01*
X033510Y018179D02*
X014775Y018179D01*
X014775Y018277D02*
X033510Y018277D01*
X033510Y018376D02*
X014775Y018376D01*
X014775Y018474D02*
X033510Y018474D01*
X033510Y018573D02*
X014775Y018573D01*
X014775Y018671D02*
X033510Y018671D01*
X033510Y018770D02*
X014775Y018770D01*
X014775Y018868D02*
X033510Y018868D01*
X033510Y018967D02*
X014775Y018967D01*
X014775Y019065D02*
X033510Y019065D01*
X033510Y019164D02*
X014775Y019164D01*
X014775Y019262D02*
X033510Y019262D01*
X033510Y019361D02*
X014775Y019361D01*
X014775Y019459D02*
X033510Y019459D01*
X033510Y019558D02*
X014775Y019558D01*
X014775Y019656D02*
X033510Y019656D01*
X033510Y019755D02*
X014775Y019755D01*
X014775Y019853D02*
X033510Y019853D01*
X033510Y019952D02*
X014775Y019952D01*
X014775Y020050D02*
X033510Y020050D01*
X033510Y020149D02*
X014775Y020149D01*
X014775Y020247D02*
X033510Y020247D01*
X033510Y020346D02*
X014775Y020346D01*
X014775Y020444D02*
X033510Y020444D01*
X033510Y020543D02*
X014775Y020543D01*
X014775Y020641D02*
X033510Y020641D01*
X033510Y020740D02*
X014775Y020740D01*
X014775Y020838D02*
X033510Y020838D01*
X033510Y020937D02*
X014775Y020937D01*
X014775Y021035D02*
X014937Y021035D01*
X015256Y021035D02*
X033047Y021035D01*
X032780Y021134D02*
X015535Y021134D01*
X015645Y021232D02*
X032613Y021232D01*
X032542Y021331D02*
X015754Y021331D01*
X015820Y021429D02*
X032470Y021429D01*
X032402Y021528D02*
X015863Y021528D01*
X015907Y021626D02*
X032382Y021626D01*
X032361Y021725D02*
X015937Y021725D01*
X015937Y021823D02*
X032340Y021823D01*
X032339Y021922D02*
X015937Y021922D01*
X015937Y022020D02*
X032360Y022020D01*
X032381Y022119D02*
X015908Y022119D01*
X014775Y015913D02*
X017215Y015913D01*
X017089Y015815D02*
X014775Y015815D01*
X014775Y015716D02*
X017027Y015716D01*
X016998Y015618D02*
X014775Y015618D01*
X014775Y015519D02*
X016993Y015519D01*
X017014Y015421D02*
X014775Y015421D01*
X014775Y015322D02*
X017062Y015322D01*
X017156Y015224D02*
X014775Y015224D01*
X014775Y015125D02*
X030900Y015125D01*
X031027Y015027D02*
X014775Y015027D01*
X033367Y021035D02*
X033510Y021035D01*
D15*
X027700Y019150D03*
X026100Y019150D03*
X026600Y017850D03*
X026300Y014450D03*
X027800Y014450D03*
X031310Y014160D03*
X021000Y017850D03*
X021000Y018850D03*
X015700Y019650D03*
X015800Y014150D03*
X017510Y014080D03*
M02*
