G75*
%MOIN*%
%OFA0B0*%
%FSLAX25Y25*%
%IPPOS*%
%LPD*%
%AMOC8*
5,1,8,0,0,1.08239X$1,22.5*
%
%ADD10C,0.00975*%
%ADD11R,0.05550X0.05550*%
%ADD12C,0.05550*%
%ADD13C,0.00000*%
%ADD14C,0.09061*%
D10*
X0037637Y0054137D02*
X0040563Y0054137D01*
X0037637Y0054137D02*
X0037637Y0057063D01*
X0040563Y0057063D01*
X0040563Y0054137D01*
X0040563Y0055111D02*
X0037637Y0055111D01*
X0037637Y0056085D02*
X0040563Y0056085D01*
X0040563Y0057059D02*
X0037637Y0057059D01*
X0043637Y0054137D02*
X0046563Y0054137D01*
X0043637Y0054137D02*
X0043637Y0057063D01*
X0046563Y0057063D01*
X0046563Y0054137D01*
X0046563Y0055111D02*
X0043637Y0055111D01*
X0043637Y0056085D02*
X0046563Y0056085D01*
X0046563Y0057059D02*
X0043637Y0057059D01*
D11*
X0054600Y0038100D03*
X0067100Y0073100D03*
D12*
X0044600Y0038100D03*
X0034600Y0038100D03*
X0017100Y0073100D03*
D13*
X0022415Y0013730D02*
X0005880Y0013730D01*
X0005770Y0013732D01*
X0005660Y0013738D01*
X0005551Y0013747D01*
X0005442Y0013761D01*
X0005333Y0013778D01*
X0005225Y0013799D01*
X0005118Y0013824D01*
X0005012Y0013852D01*
X0004907Y0013884D01*
X0004803Y0013920D01*
X0004700Y0013959D01*
X0004599Y0014002D01*
X0004499Y0014049D01*
X0004401Y0014099D01*
X0004305Y0014152D01*
X0004211Y0014209D01*
X0004119Y0014269D01*
X0004028Y0014332D01*
X0003941Y0014398D01*
X0003855Y0014467D01*
X0003772Y0014539D01*
X0003692Y0014614D01*
X0003614Y0014692D01*
X0003539Y0014772D01*
X0003467Y0014855D01*
X0003398Y0014941D01*
X0003332Y0015028D01*
X0003269Y0015119D01*
X0003209Y0015211D01*
X0003152Y0015305D01*
X0003099Y0015401D01*
X0003049Y0015499D01*
X0003002Y0015599D01*
X0002959Y0015700D01*
X0002920Y0015803D01*
X0002884Y0015907D01*
X0002852Y0016012D01*
X0002824Y0016118D01*
X0002799Y0016225D01*
X0002778Y0016333D01*
X0002761Y0016442D01*
X0002747Y0016551D01*
X0002738Y0016660D01*
X0002732Y0016770D01*
X0002730Y0016880D01*
X0002730Y0030265D01*
X0002730Y0041289D01*
X0002730Y0044439D01*
X0002732Y0044478D01*
X0002738Y0044516D01*
X0002747Y0044553D01*
X0002760Y0044590D01*
X0002777Y0044625D01*
X0002796Y0044658D01*
X0002819Y0044689D01*
X0002845Y0044718D01*
X0002874Y0044744D01*
X0002905Y0044767D01*
X0002938Y0044786D01*
X0002973Y0044803D01*
X0003010Y0044816D01*
X0003047Y0044825D01*
X0003085Y0044831D01*
X0003124Y0044833D01*
X0002730Y0041289D02*
X0002730Y0040502D01*
X0002730Y0034202D02*
X0002730Y0030265D01*
X0003124Y0044832D02*
X0003314Y0044834D01*
X0003504Y0044841D01*
X0003694Y0044853D01*
X0003884Y0044869D01*
X0004073Y0044889D01*
X0004262Y0044915D01*
X0004450Y0044944D01*
X0004637Y0044979D01*
X0004823Y0045018D01*
X0005008Y0045061D01*
X0005193Y0045109D01*
X0005376Y0045161D01*
X0005557Y0045217D01*
X0005737Y0045278D01*
X0005916Y0045344D01*
X0006093Y0045413D01*
X0006269Y0045487D01*
X0006442Y0045565D01*
X0006614Y0045648D01*
X0006783Y0045734D01*
X0006951Y0045824D01*
X0007116Y0045919D01*
X0007279Y0046017D01*
X0007439Y0046120D01*
X0007597Y0046226D01*
X0007752Y0046336D01*
X0007905Y0046449D01*
X0008055Y0046567D01*
X0008201Y0046688D01*
X0008345Y0046812D01*
X0008486Y0046940D01*
X0008624Y0047071D01*
X0008759Y0047206D01*
X0008890Y0047344D01*
X0009018Y0047485D01*
X0009142Y0047629D01*
X0009263Y0047775D01*
X0009381Y0047925D01*
X0009494Y0048078D01*
X0009604Y0048233D01*
X0009710Y0048391D01*
X0009813Y0048551D01*
X0009911Y0048714D01*
X0010006Y0048879D01*
X0010096Y0049047D01*
X0010182Y0049216D01*
X0010265Y0049388D01*
X0010343Y0049561D01*
X0010417Y0049737D01*
X0010486Y0049914D01*
X0010552Y0050093D01*
X0010613Y0050273D01*
X0010669Y0050454D01*
X0010721Y0050637D01*
X0010769Y0050822D01*
X0010812Y0051007D01*
X0010851Y0051193D01*
X0010886Y0051380D01*
X0010915Y0051568D01*
X0010941Y0051757D01*
X0010961Y0051946D01*
X0010977Y0052136D01*
X0010989Y0052326D01*
X0010996Y0052516D01*
X0010998Y0052706D01*
X0010998Y0053100D01*
X0010998Y0053494D01*
X0010996Y0053684D01*
X0010989Y0053874D01*
X0010977Y0054064D01*
X0010961Y0054254D01*
X0010941Y0054443D01*
X0010915Y0054632D01*
X0010886Y0054820D01*
X0010851Y0055007D01*
X0010812Y0055193D01*
X0010769Y0055378D01*
X0010721Y0055563D01*
X0010669Y0055746D01*
X0010613Y0055927D01*
X0010552Y0056107D01*
X0010486Y0056286D01*
X0010417Y0056463D01*
X0010343Y0056639D01*
X0010265Y0056812D01*
X0010182Y0056984D01*
X0010096Y0057153D01*
X0010006Y0057321D01*
X0009911Y0057486D01*
X0009813Y0057649D01*
X0009710Y0057809D01*
X0009604Y0057967D01*
X0009494Y0058122D01*
X0009381Y0058275D01*
X0009263Y0058425D01*
X0009142Y0058571D01*
X0009018Y0058715D01*
X0008890Y0058856D01*
X0008759Y0058994D01*
X0008624Y0059129D01*
X0008486Y0059260D01*
X0008345Y0059388D01*
X0008201Y0059512D01*
X0008055Y0059633D01*
X0007905Y0059751D01*
X0007752Y0059864D01*
X0007597Y0059974D01*
X0007439Y0060080D01*
X0007279Y0060183D01*
X0007116Y0060281D01*
X0006951Y0060376D01*
X0006783Y0060466D01*
X0006614Y0060552D01*
X0006442Y0060635D01*
X0006269Y0060713D01*
X0006093Y0060787D01*
X0005916Y0060856D01*
X0005737Y0060922D01*
X0005557Y0060983D01*
X0005376Y0061039D01*
X0005193Y0061091D01*
X0005008Y0061139D01*
X0004823Y0061182D01*
X0004637Y0061221D01*
X0004450Y0061256D01*
X0004262Y0061285D01*
X0004073Y0061311D01*
X0003884Y0061331D01*
X0003694Y0061347D01*
X0003504Y0061359D01*
X0003314Y0061366D01*
X0003124Y0061368D01*
X0003124Y0061367D02*
X0003085Y0061369D01*
X0003047Y0061375D01*
X0003010Y0061384D01*
X0002973Y0061397D01*
X0002938Y0061414D01*
X0002905Y0061433D01*
X0002874Y0061456D01*
X0002845Y0061482D01*
X0002819Y0061511D01*
X0002796Y0061542D01*
X0002777Y0061575D01*
X0002760Y0061610D01*
X0002747Y0061647D01*
X0002738Y0061684D01*
X0002732Y0061722D01*
X0002730Y0061761D01*
X0002730Y0064517D01*
X0002730Y0071998D01*
X0002730Y0089320D01*
X0002732Y0089430D01*
X0002738Y0089540D01*
X0002747Y0089649D01*
X0002761Y0089758D01*
X0002778Y0089867D01*
X0002799Y0089975D01*
X0002824Y0090082D01*
X0002852Y0090188D01*
X0002884Y0090293D01*
X0002920Y0090397D01*
X0002959Y0090500D01*
X0003002Y0090601D01*
X0003049Y0090701D01*
X0003099Y0090799D01*
X0003152Y0090895D01*
X0003209Y0090989D01*
X0003269Y0091081D01*
X0003332Y0091172D01*
X0003398Y0091259D01*
X0003467Y0091345D01*
X0003539Y0091428D01*
X0003614Y0091508D01*
X0003692Y0091586D01*
X0003772Y0091661D01*
X0003855Y0091733D01*
X0003941Y0091802D01*
X0004028Y0091868D01*
X0004119Y0091931D01*
X0004211Y0091991D01*
X0004305Y0092048D01*
X0004401Y0092101D01*
X0004499Y0092151D01*
X0004599Y0092198D01*
X0004700Y0092241D01*
X0004803Y0092280D01*
X0004907Y0092316D01*
X0005012Y0092348D01*
X0005118Y0092376D01*
X0005225Y0092401D01*
X0005333Y0092422D01*
X0005442Y0092439D01*
X0005551Y0092453D01*
X0005660Y0092462D01*
X0005770Y0092468D01*
X0005880Y0092470D01*
X0023202Y0092470D01*
X0030289Y0092470D01*
X0033439Y0092470D01*
X0033478Y0092472D01*
X0033516Y0092478D01*
X0033553Y0092487D01*
X0033590Y0092500D01*
X0033625Y0092517D01*
X0033658Y0092536D01*
X0033689Y0092559D01*
X0033718Y0092585D01*
X0033744Y0092614D01*
X0033767Y0092645D01*
X0033786Y0092678D01*
X0033803Y0092713D01*
X0033816Y0092750D01*
X0033825Y0092787D01*
X0033831Y0092825D01*
X0033833Y0092864D01*
X0030289Y0092470D02*
X0029502Y0092470D01*
X0033832Y0092864D02*
X0033834Y0093054D01*
X0033841Y0093244D01*
X0033853Y0093434D01*
X0033869Y0093624D01*
X0033889Y0093813D01*
X0033915Y0094002D01*
X0033944Y0094190D01*
X0033979Y0094377D01*
X0034018Y0094563D01*
X0034061Y0094748D01*
X0034109Y0094933D01*
X0034161Y0095116D01*
X0034217Y0095297D01*
X0034278Y0095477D01*
X0034344Y0095656D01*
X0034413Y0095833D01*
X0034487Y0096009D01*
X0034565Y0096182D01*
X0034648Y0096354D01*
X0034734Y0096523D01*
X0034824Y0096691D01*
X0034919Y0096856D01*
X0035017Y0097019D01*
X0035120Y0097179D01*
X0035226Y0097337D01*
X0035336Y0097492D01*
X0035449Y0097645D01*
X0035567Y0097795D01*
X0035688Y0097941D01*
X0035812Y0098085D01*
X0035940Y0098226D01*
X0036071Y0098364D01*
X0036206Y0098499D01*
X0036344Y0098630D01*
X0036485Y0098758D01*
X0036629Y0098882D01*
X0036775Y0099003D01*
X0036925Y0099121D01*
X0037078Y0099234D01*
X0037233Y0099344D01*
X0037391Y0099450D01*
X0037551Y0099553D01*
X0037714Y0099651D01*
X0037879Y0099746D01*
X0038047Y0099836D01*
X0038216Y0099922D01*
X0038388Y0100005D01*
X0038561Y0100083D01*
X0038737Y0100157D01*
X0038914Y0100226D01*
X0039093Y0100292D01*
X0039273Y0100353D01*
X0039454Y0100409D01*
X0039637Y0100461D01*
X0039822Y0100509D01*
X0040007Y0100552D01*
X0040193Y0100591D01*
X0040380Y0100626D01*
X0040568Y0100655D01*
X0040757Y0100681D01*
X0040946Y0100701D01*
X0041136Y0100717D01*
X0041326Y0100729D01*
X0041516Y0100736D01*
X0041706Y0100738D01*
X0042494Y0100738D01*
X0042684Y0100736D01*
X0042874Y0100729D01*
X0043064Y0100717D01*
X0043254Y0100701D01*
X0043443Y0100681D01*
X0043632Y0100655D01*
X0043820Y0100626D01*
X0044007Y0100591D01*
X0044193Y0100552D01*
X0044378Y0100509D01*
X0044563Y0100461D01*
X0044746Y0100409D01*
X0044927Y0100353D01*
X0045107Y0100292D01*
X0045286Y0100226D01*
X0045463Y0100157D01*
X0045639Y0100083D01*
X0045812Y0100005D01*
X0045984Y0099922D01*
X0046153Y0099836D01*
X0046321Y0099746D01*
X0046486Y0099651D01*
X0046649Y0099553D01*
X0046809Y0099450D01*
X0046967Y0099344D01*
X0047122Y0099234D01*
X0047275Y0099121D01*
X0047425Y0099003D01*
X0047571Y0098882D01*
X0047715Y0098758D01*
X0047856Y0098630D01*
X0047994Y0098499D01*
X0048129Y0098364D01*
X0048260Y0098226D01*
X0048388Y0098085D01*
X0048512Y0097941D01*
X0048633Y0097795D01*
X0048751Y0097645D01*
X0048864Y0097492D01*
X0048974Y0097337D01*
X0049080Y0097179D01*
X0049183Y0097019D01*
X0049281Y0096856D01*
X0049376Y0096691D01*
X0049466Y0096523D01*
X0049552Y0096354D01*
X0049635Y0096182D01*
X0049713Y0096009D01*
X0049787Y0095833D01*
X0049856Y0095656D01*
X0049922Y0095477D01*
X0049983Y0095297D01*
X0050039Y0095116D01*
X0050091Y0094933D01*
X0050139Y0094748D01*
X0050182Y0094563D01*
X0050221Y0094377D01*
X0050256Y0094190D01*
X0050285Y0094002D01*
X0050311Y0093813D01*
X0050331Y0093624D01*
X0050347Y0093434D01*
X0050359Y0093244D01*
X0050366Y0093054D01*
X0050368Y0092864D01*
X0050367Y0092864D02*
X0050369Y0092825D01*
X0050375Y0092787D01*
X0050384Y0092750D01*
X0050397Y0092713D01*
X0050414Y0092678D01*
X0050433Y0092645D01*
X0050456Y0092614D01*
X0050482Y0092585D01*
X0050511Y0092559D01*
X0050542Y0092536D01*
X0050575Y0092517D01*
X0050610Y0092500D01*
X0050647Y0092487D01*
X0050684Y0092478D01*
X0050722Y0092472D01*
X0050761Y0092470D01*
X0052336Y0092470D01*
X0054698Y0092470D01*
X0061785Y0092470D01*
X0078320Y0092470D01*
X0078430Y0092468D01*
X0078540Y0092462D01*
X0078649Y0092453D01*
X0078758Y0092439D01*
X0078867Y0092422D01*
X0078975Y0092401D01*
X0079082Y0092376D01*
X0079188Y0092348D01*
X0079293Y0092316D01*
X0079397Y0092280D01*
X0079500Y0092241D01*
X0079601Y0092198D01*
X0079701Y0092151D01*
X0079799Y0092101D01*
X0079895Y0092048D01*
X0079989Y0091991D01*
X0080081Y0091931D01*
X0080172Y0091868D01*
X0080259Y0091802D01*
X0080345Y0091733D01*
X0080428Y0091661D01*
X0080508Y0091586D01*
X0080586Y0091508D01*
X0080661Y0091428D01*
X0080733Y0091345D01*
X0080802Y0091259D01*
X0080868Y0091172D01*
X0080931Y0091081D01*
X0080991Y0090989D01*
X0081048Y0090895D01*
X0081101Y0090799D01*
X0081151Y0090701D01*
X0081198Y0090601D01*
X0081241Y0090500D01*
X0081280Y0090397D01*
X0081316Y0090293D01*
X0081348Y0090188D01*
X0081376Y0090082D01*
X0081401Y0089975D01*
X0081422Y0089867D01*
X0081439Y0089758D01*
X0081453Y0089649D01*
X0081462Y0089540D01*
X0081468Y0089430D01*
X0081470Y0089320D01*
X0081470Y0078297D01*
X0081470Y0062549D01*
X0081470Y0061761D01*
X0081468Y0061722D01*
X0081462Y0061684D01*
X0081453Y0061647D01*
X0081440Y0061610D01*
X0081423Y0061575D01*
X0081404Y0061542D01*
X0081381Y0061511D01*
X0081355Y0061482D01*
X0081326Y0061456D01*
X0081295Y0061433D01*
X0081262Y0061414D01*
X0081227Y0061397D01*
X0081190Y0061384D01*
X0081153Y0061375D01*
X0081115Y0061369D01*
X0081076Y0061367D01*
X0081470Y0062549D02*
X0081470Y0065698D01*
X0081470Y0071998D02*
X0081470Y0078297D01*
X0061785Y0092470D02*
X0060998Y0092470D01*
X0052336Y0092470D02*
X0050761Y0092470D01*
X0037769Y0092470D02*
X0037771Y0092601D01*
X0037777Y0092733D01*
X0037787Y0092864D01*
X0037801Y0092995D01*
X0037819Y0093125D01*
X0037841Y0093254D01*
X0037866Y0093383D01*
X0037896Y0093511D01*
X0037930Y0093638D01*
X0037967Y0093765D01*
X0038008Y0093889D01*
X0038053Y0094013D01*
X0038102Y0094135D01*
X0038154Y0094256D01*
X0038210Y0094374D01*
X0038270Y0094492D01*
X0038333Y0094607D01*
X0038400Y0094720D01*
X0038470Y0094832D01*
X0038543Y0094941D01*
X0038619Y0095047D01*
X0038699Y0095152D01*
X0038782Y0095254D01*
X0038868Y0095353D01*
X0038957Y0095450D01*
X0039049Y0095544D01*
X0039144Y0095635D01*
X0039241Y0095724D01*
X0039341Y0095809D01*
X0039444Y0095891D01*
X0039549Y0095970D01*
X0039656Y0096046D01*
X0039766Y0096118D01*
X0039878Y0096187D01*
X0039992Y0096253D01*
X0040107Y0096315D01*
X0040225Y0096374D01*
X0040344Y0096429D01*
X0040465Y0096481D01*
X0040588Y0096528D01*
X0040712Y0096572D01*
X0040837Y0096613D01*
X0040963Y0096649D01*
X0041091Y0096682D01*
X0041219Y0096710D01*
X0041348Y0096735D01*
X0041478Y0096756D01*
X0041608Y0096773D01*
X0041739Y0096786D01*
X0041870Y0096795D01*
X0042001Y0096800D01*
X0042133Y0096801D01*
X0042264Y0096798D01*
X0042396Y0096791D01*
X0042527Y0096780D01*
X0042657Y0096765D01*
X0042787Y0096746D01*
X0042917Y0096723D01*
X0043045Y0096697D01*
X0043173Y0096666D01*
X0043300Y0096631D01*
X0043426Y0096593D01*
X0043550Y0096551D01*
X0043674Y0096505D01*
X0043795Y0096455D01*
X0043915Y0096402D01*
X0044034Y0096345D01*
X0044151Y0096285D01*
X0044265Y0096221D01*
X0044378Y0096153D01*
X0044489Y0096082D01*
X0044598Y0096008D01*
X0044704Y0095931D01*
X0044808Y0095850D01*
X0044909Y0095767D01*
X0045008Y0095680D01*
X0045104Y0095590D01*
X0045197Y0095497D01*
X0045288Y0095402D01*
X0045375Y0095304D01*
X0045460Y0095203D01*
X0045541Y0095100D01*
X0045619Y0094994D01*
X0045694Y0094886D01*
X0045766Y0094776D01*
X0045834Y0094664D01*
X0045899Y0094550D01*
X0045960Y0094433D01*
X0046018Y0094315D01*
X0046072Y0094195D01*
X0046123Y0094074D01*
X0046170Y0093951D01*
X0046213Y0093827D01*
X0046252Y0093702D01*
X0046288Y0093575D01*
X0046319Y0093447D01*
X0046347Y0093319D01*
X0046371Y0093190D01*
X0046391Y0093060D01*
X0046407Y0092929D01*
X0046419Y0092798D01*
X0046427Y0092667D01*
X0046431Y0092536D01*
X0046431Y0092404D01*
X0046427Y0092273D01*
X0046419Y0092142D01*
X0046407Y0092011D01*
X0046391Y0091880D01*
X0046371Y0091750D01*
X0046347Y0091621D01*
X0046319Y0091493D01*
X0046288Y0091365D01*
X0046252Y0091238D01*
X0046213Y0091113D01*
X0046170Y0090989D01*
X0046123Y0090866D01*
X0046072Y0090745D01*
X0046018Y0090625D01*
X0045960Y0090507D01*
X0045899Y0090390D01*
X0045834Y0090276D01*
X0045766Y0090164D01*
X0045694Y0090054D01*
X0045619Y0089946D01*
X0045541Y0089840D01*
X0045460Y0089737D01*
X0045375Y0089636D01*
X0045288Y0089538D01*
X0045197Y0089443D01*
X0045104Y0089350D01*
X0045008Y0089260D01*
X0044909Y0089173D01*
X0044808Y0089090D01*
X0044704Y0089009D01*
X0044598Y0088932D01*
X0044489Y0088858D01*
X0044378Y0088787D01*
X0044266Y0088719D01*
X0044151Y0088655D01*
X0044034Y0088595D01*
X0043915Y0088538D01*
X0043795Y0088485D01*
X0043674Y0088435D01*
X0043550Y0088389D01*
X0043426Y0088347D01*
X0043300Y0088309D01*
X0043173Y0088274D01*
X0043045Y0088243D01*
X0042917Y0088217D01*
X0042787Y0088194D01*
X0042657Y0088175D01*
X0042527Y0088160D01*
X0042396Y0088149D01*
X0042264Y0088142D01*
X0042133Y0088139D01*
X0042001Y0088140D01*
X0041870Y0088145D01*
X0041739Y0088154D01*
X0041608Y0088167D01*
X0041478Y0088184D01*
X0041348Y0088205D01*
X0041219Y0088230D01*
X0041091Y0088258D01*
X0040963Y0088291D01*
X0040837Y0088327D01*
X0040712Y0088368D01*
X0040588Y0088412D01*
X0040465Y0088459D01*
X0040344Y0088511D01*
X0040225Y0088566D01*
X0040107Y0088625D01*
X0039992Y0088687D01*
X0039878Y0088753D01*
X0039766Y0088822D01*
X0039656Y0088894D01*
X0039549Y0088970D01*
X0039444Y0089049D01*
X0039341Y0089131D01*
X0039241Y0089216D01*
X0039144Y0089305D01*
X0039049Y0089396D01*
X0038957Y0089490D01*
X0038868Y0089587D01*
X0038782Y0089686D01*
X0038699Y0089788D01*
X0038619Y0089893D01*
X0038543Y0089999D01*
X0038470Y0090108D01*
X0038400Y0090220D01*
X0038333Y0090333D01*
X0038270Y0090448D01*
X0038210Y0090566D01*
X0038154Y0090684D01*
X0038102Y0090805D01*
X0038053Y0090927D01*
X0038008Y0091051D01*
X0037967Y0091175D01*
X0037930Y0091302D01*
X0037896Y0091429D01*
X0037866Y0091557D01*
X0037841Y0091686D01*
X0037819Y0091815D01*
X0037801Y0091945D01*
X0037787Y0092076D01*
X0037777Y0092207D01*
X0037771Y0092339D01*
X0037769Y0092470D01*
X0002730Y0065698D02*
X0002730Y0064517D01*
X0022415Y0013730D02*
X0029895Y0013730D01*
X0029502Y0013730D01*
X0029895Y0013730D02*
X0033439Y0013730D01*
X0033478Y0013728D01*
X0033516Y0013722D01*
X0033553Y0013713D01*
X0033590Y0013700D01*
X0033625Y0013683D01*
X0033658Y0013664D01*
X0033689Y0013641D01*
X0033718Y0013615D01*
X0033744Y0013586D01*
X0033767Y0013555D01*
X0033786Y0013522D01*
X0033803Y0013487D01*
X0033816Y0013450D01*
X0033825Y0013413D01*
X0033831Y0013375D01*
X0033833Y0013336D01*
X0033832Y0013336D02*
X0033834Y0013146D01*
X0033841Y0012956D01*
X0033853Y0012766D01*
X0033869Y0012576D01*
X0033889Y0012387D01*
X0033915Y0012198D01*
X0033944Y0012010D01*
X0033979Y0011823D01*
X0034018Y0011637D01*
X0034061Y0011452D01*
X0034109Y0011267D01*
X0034161Y0011084D01*
X0034217Y0010903D01*
X0034278Y0010723D01*
X0034344Y0010544D01*
X0034413Y0010367D01*
X0034487Y0010191D01*
X0034565Y0010018D01*
X0034648Y0009846D01*
X0034734Y0009677D01*
X0034824Y0009509D01*
X0034919Y0009344D01*
X0035017Y0009181D01*
X0035120Y0009021D01*
X0035226Y0008863D01*
X0035336Y0008708D01*
X0035449Y0008555D01*
X0035567Y0008405D01*
X0035688Y0008259D01*
X0035812Y0008115D01*
X0035940Y0007974D01*
X0036071Y0007836D01*
X0036206Y0007701D01*
X0036344Y0007570D01*
X0036485Y0007442D01*
X0036629Y0007318D01*
X0036775Y0007197D01*
X0036925Y0007079D01*
X0037078Y0006966D01*
X0037233Y0006856D01*
X0037391Y0006750D01*
X0037551Y0006647D01*
X0037714Y0006549D01*
X0037879Y0006454D01*
X0038047Y0006364D01*
X0038216Y0006278D01*
X0038388Y0006195D01*
X0038561Y0006117D01*
X0038737Y0006043D01*
X0038914Y0005974D01*
X0039093Y0005908D01*
X0039273Y0005847D01*
X0039454Y0005791D01*
X0039637Y0005739D01*
X0039822Y0005691D01*
X0040007Y0005648D01*
X0040193Y0005609D01*
X0040380Y0005574D01*
X0040568Y0005545D01*
X0040757Y0005519D01*
X0040946Y0005499D01*
X0041136Y0005483D01*
X0041326Y0005471D01*
X0041516Y0005464D01*
X0041706Y0005462D01*
X0042100Y0005462D01*
X0042494Y0005462D01*
X0042684Y0005464D01*
X0042874Y0005471D01*
X0043064Y0005483D01*
X0043254Y0005499D01*
X0043443Y0005519D01*
X0043632Y0005545D01*
X0043820Y0005574D01*
X0044007Y0005609D01*
X0044193Y0005648D01*
X0044378Y0005691D01*
X0044563Y0005739D01*
X0044746Y0005791D01*
X0044927Y0005847D01*
X0045107Y0005908D01*
X0045286Y0005974D01*
X0045463Y0006043D01*
X0045639Y0006117D01*
X0045812Y0006195D01*
X0045984Y0006278D01*
X0046153Y0006364D01*
X0046321Y0006454D01*
X0046486Y0006549D01*
X0046649Y0006647D01*
X0046809Y0006750D01*
X0046967Y0006856D01*
X0047122Y0006966D01*
X0047275Y0007079D01*
X0047425Y0007197D01*
X0047571Y0007318D01*
X0047715Y0007442D01*
X0047856Y0007570D01*
X0047994Y0007701D01*
X0048129Y0007836D01*
X0048260Y0007974D01*
X0048388Y0008115D01*
X0048512Y0008259D01*
X0048633Y0008405D01*
X0048751Y0008555D01*
X0048864Y0008708D01*
X0048974Y0008863D01*
X0049080Y0009021D01*
X0049183Y0009181D01*
X0049281Y0009344D01*
X0049376Y0009509D01*
X0049466Y0009677D01*
X0049552Y0009846D01*
X0049635Y0010018D01*
X0049713Y0010191D01*
X0049787Y0010367D01*
X0049856Y0010544D01*
X0049922Y0010723D01*
X0049983Y0010903D01*
X0050039Y0011084D01*
X0050091Y0011267D01*
X0050139Y0011452D01*
X0050182Y0011637D01*
X0050221Y0011823D01*
X0050256Y0012010D01*
X0050285Y0012198D01*
X0050311Y0012387D01*
X0050331Y0012576D01*
X0050347Y0012766D01*
X0050359Y0012956D01*
X0050366Y0013146D01*
X0050368Y0013336D01*
X0050374Y0013376D01*
X0050383Y0013415D01*
X0050396Y0013453D01*
X0050412Y0013490D01*
X0050432Y0013525D01*
X0050455Y0013558D01*
X0050480Y0013589D01*
X0050509Y0013618D01*
X0050540Y0013643D01*
X0050573Y0013666D01*
X0050608Y0013686D01*
X0050645Y0013702D01*
X0050683Y0013715D01*
X0050722Y0013724D01*
X0050762Y0013730D01*
X0050761Y0013730D02*
X0051943Y0013730D01*
X0053911Y0013730D01*
X0062572Y0013730D01*
X0078320Y0013730D01*
X0078430Y0013732D01*
X0078540Y0013738D01*
X0078649Y0013747D01*
X0078758Y0013761D01*
X0078867Y0013778D01*
X0078975Y0013799D01*
X0079082Y0013824D01*
X0079188Y0013852D01*
X0079293Y0013884D01*
X0079397Y0013920D01*
X0079500Y0013959D01*
X0079601Y0014002D01*
X0079701Y0014049D01*
X0079799Y0014099D01*
X0079895Y0014152D01*
X0079989Y0014209D01*
X0080081Y0014269D01*
X0080172Y0014332D01*
X0080259Y0014398D01*
X0080345Y0014467D01*
X0080428Y0014539D01*
X0080508Y0014614D01*
X0080586Y0014692D01*
X0080661Y0014772D01*
X0080733Y0014855D01*
X0080802Y0014941D01*
X0080868Y0015028D01*
X0080931Y0015119D01*
X0080991Y0015211D01*
X0081048Y0015305D01*
X0081101Y0015401D01*
X0081151Y0015499D01*
X0081198Y0015599D01*
X0081241Y0015700D01*
X0081280Y0015803D01*
X0081316Y0015907D01*
X0081348Y0016012D01*
X0081376Y0016118D01*
X0081401Y0016225D01*
X0081422Y0016333D01*
X0081439Y0016442D01*
X0081453Y0016551D01*
X0081462Y0016660D01*
X0081468Y0016770D01*
X0081470Y0016880D01*
X0081470Y0031840D01*
X0081470Y0040502D01*
X0081470Y0043651D01*
X0081470Y0044439D01*
X0081470Y0043651D01*
X0081470Y0044439D02*
X0081464Y0044479D01*
X0081455Y0044518D01*
X0081442Y0044556D01*
X0081426Y0044593D01*
X0081406Y0044628D01*
X0081384Y0044661D01*
X0081358Y0044692D01*
X0081329Y0044721D01*
X0081298Y0044747D01*
X0081265Y0044769D01*
X0081230Y0044789D01*
X0081193Y0044805D01*
X0081155Y0044818D01*
X0081116Y0044827D01*
X0081076Y0044833D01*
X0081076Y0044832D02*
X0080886Y0044834D01*
X0080696Y0044841D01*
X0080506Y0044853D01*
X0080316Y0044869D01*
X0080127Y0044889D01*
X0079938Y0044915D01*
X0079750Y0044944D01*
X0079563Y0044979D01*
X0079377Y0045018D01*
X0079192Y0045061D01*
X0079007Y0045109D01*
X0078824Y0045161D01*
X0078643Y0045217D01*
X0078463Y0045278D01*
X0078284Y0045344D01*
X0078107Y0045413D01*
X0077931Y0045487D01*
X0077758Y0045565D01*
X0077586Y0045648D01*
X0077417Y0045734D01*
X0077249Y0045824D01*
X0077084Y0045919D01*
X0076921Y0046017D01*
X0076761Y0046120D01*
X0076603Y0046226D01*
X0076448Y0046336D01*
X0076295Y0046449D01*
X0076145Y0046567D01*
X0075999Y0046688D01*
X0075855Y0046812D01*
X0075714Y0046940D01*
X0075576Y0047071D01*
X0075441Y0047206D01*
X0075310Y0047344D01*
X0075182Y0047485D01*
X0075058Y0047629D01*
X0074937Y0047775D01*
X0074819Y0047925D01*
X0074706Y0048078D01*
X0074596Y0048233D01*
X0074490Y0048391D01*
X0074387Y0048551D01*
X0074289Y0048714D01*
X0074194Y0048879D01*
X0074104Y0049047D01*
X0074018Y0049216D01*
X0073935Y0049388D01*
X0073857Y0049561D01*
X0073783Y0049737D01*
X0073714Y0049914D01*
X0073648Y0050093D01*
X0073587Y0050273D01*
X0073531Y0050454D01*
X0073479Y0050637D01*
X0073431Y0050822D01*
X0073388Y0051007D01*
X0073349Y0051193D01*
X0073314Y0051380D01*
X0073285Y0051568D01*
X0073259Y0051757D01*
X0073239Y0051946D01*
X0073223Y0052136D01*
X0073211Y0052326D01*
X0073204Y0052516D01*
X0073202Y0052706D01*
X0073202Y0053100D01*
X0073195Y0053293D01*
X0073193Y0053486D01*
X0073195Y0053680D01*
X0073203Y0053873D01*
X0073215Y0054066D01*
X0073231Y0054259D01*
X0073253Y0054451D01*
X0073279Y0054643D01*
X0073309Y0054834D01*
X0073345Y0055024D01*
X0073385Y0055213D01*
X0073430Y0055401D01*
X0073479Y0055588D01*
X0073533Y0055774D01*
X0073591Y0055959D01*
X0073654Y0056141D01*
X0073722Y0056323D01*
X0073794Y0056502D01*
X0073870Y0056680D01*
X0073951Y0056856D01*
X0074035Y0057030D01*
X0074125Y0057201D01*
X0074218Y0057371D01*
X0074315Y0057538D01*
X0074417Y0057703D01*
X0074522Y0057865D01*
X0074632Y0058024D01*
X0074745Y0058181D01*
X0074862Y0058335D01*
X0074983Y0058486D01*
X0075108Y0058634D01*
X0075236Y0058779D01*
X0075368Y0058921D01*
X0075503Y0059059D01*
X0075641Y0059194D01*
X0075783Y0059326D01*
X0075928Y0059454D01*
X0076076Y0059578D01*
X0076227Y0059699D01*
X0076381Y0059816D01*
X0076538Y0059930D01*
X0076697Y0060039D01*
X0076859Y0060144D01*
X0077024Y0060246D01*
X0077191Y0060343D01*
X0077361Y0060437D01*
X0077532Y0060526D01*
X0077706Y0060610D01*
X0077882Y0060691D01*
X0078060Y0060767D01*
X0078239Y0060839D01*
X0078421Y0060906D01*
X0078604Y0060969D01*
X0078788Y0061028D01*
X0078974Y0061082D01*
X0079161Y0061131D01*
X0079349Y0061176D01*
X0079538Y0061216D01*
X0079729Y0061251D01*
X0079920Y0061282D01*
X0080111Y0061308D01*
X0080303Y0061329D01*
X0080496Y0061346D01*
X0080689Y0061358D01*
X0080883Y0061365D01*
X0081076Y0061367D01*
X0081470Y0034202D02*
X0081470Y0031840D01*
X0062572Y0013730D02*
X0060998Y0013730D01*
X0054698Y0013730D02*
X0053911Y0013730D01*
X0051943Y0013730D02*
X0050761Y0013730D01*
X0037769Y0013730D02*
X0037771Y0013861D01*
X0037777Y0013993D01*
X0037787Y0014124D01*
X0037801Y0014255D01*
X0037819Y0014385D01*
X0037841Y0014514D01*
X0037866Y0014643D01*
X0037896Y0014771D01*
X0037930Y0014898D01*
X0037967Y0015025D01*
X0038008Y0015149D01*
X0038053Y0015273D01*
X0038102Y0015395D01*
X0038154Y0015516D01*
X0038210Y0015634D01*
X0038270Y0015752D01*
X0038333Y0015867D01*
X0038400Y0015980D01*
X0038470Y0016092D01*
X0038543Y0016201D01*
X0038619Y0016307D01*
X0038699Y0016412D01*
X0038782Y0016514D01*
X0038868Y0016613D01*
X0038957Y0016710D01*
X0039049Y0016804D01*
X0039144Y0016895D01*
X0039241Y0016984D01*
X0039341Y0017069D01*
X0039444Y0017151D01*
X0039549Y0017230D01*
X0039656Y0017306D01*
X0039766Y0017378D01*
X0039878Y0017447D01*
X0039992Y0017513D01*
X0040107Y0017575D01*
X0040225Y0017634D01*
X0040344Y0017689D01*
X0040465Y0017741D01*
X0040588Y0017788D01*
X0040712Y0017832D01*
X0040837Y0017873D01*
X0040963Y0017909D01*
X0041091Y0017942D01*
X0041219Y0017970D01*
X0041348Y0017995D01*
X0041478Y0018016D01*
X0041608Y0018033D01*
X0041739Y0018046D01*
X0041870Y0018055D01*
X0042001Y0018060D01*
X0042133Y0018061D01*
X0042264Y0018058D01*
X0042396Y0018051D01*
X0042527Y0018040D01*
X0042657Y0018025D01*
X0042787Y0018006D01*
X0042917Y0017983D01*
X0043045Y0017957D01*
X0043173Y0017926D01*
X0043300Y0017891D01*
X0043426Y0017853D01*
X0043550Y0017811D01*
X0043674Y0017765D01*
X0043795Y0017715D01*
X0043915Y0017662D01*
X0044034Y0017605D01*
X0044151Y0017545D01*
X0044265Y0017481D01*
X0044378Y0017413D01*
X0044489Y0017342D01*
X0044598Y0017268D01*
X0044704Y0017191D01*
X0044808Y0017110D01*
X0044909Y0017027D01*
X0045008Y0016940D01*
X0045104Y0016850D01*
X0045197Y0016757D01*
X0045288Y0016662D01*
X0045375Y0016564D01*
X0045460Y0016463D01*
X0045541Y0016360D01*
X0045619Y0016254D01*
X0045694Y0016146D01*
X0045766Y0016036D01*
X0045834Y0015924D01*
X0045899Y0015810D01*
X0045960Y0015693D01*
X0046018Y0015575D01*
X0046072Y0015455D01*
X0046123Y0015334D01*
X0046170Y0015211D01*
X0046213Y0015087D01*
X0046252Y0014962D01*
X0046288Y0014835D01*
X0046319Y0014707D01*
X0046347Y0014579D01*
X0046371Y0014450D01*
X0046391Y0014320D01*
X0046407Y0014189D01*
X0046419Y0014058D01*
X0046427Y0013927D01*
X0046431Y0013796D01*
X0046431Y0013664D01*
X0046427Y0013533D01*
X0046419Y0013402D01*
X0046407Y0013271D01*
X0046391Y0013140D01*
X0046371Y0013010D01*
X0046347Y0012881D01*
X0046319Y0012753D01*
X0046288Y0012625D01*
X0046252Y0012498D01*
X0046213Y0012373D01*
X0046170Y0012249D01*
X0046123Y0012126D01*
X0046072Y0012005D01*
X0046018Y0011885D01*
X0045960Y0011767D01*
X0045899Y0011650D01*
X0045834Y0011536D01*
X0045766Y0011424D01*
X0045694Y0011314D01*
X0045619Y0011206D01*
X0045541Y0011100D01*
X0045460Y0010997D01*
X0045375Y0010896D01*
X0045288Y0010798D01*
X0045197Y0010703D01*
X0045104Y0010610D01*
X0045008Y0010520D01*
X0044909Y0010433D01*
X0044808Y0010350D01*
X0044704Y0010269D01*
X0044598Y0010192D01*
X0044489Y0010118D01*
X0044378Y0010047D01*
X0044266Y0009979D01*
X0044151Y0009915D01*
X0044034Y0009855D01*
X0043915Y0009798D01*
X0043795Y0009745D01*
X0043674Y0009695D01*
X0043550Y0009649D01*
X0043426Y0009607D01*
X0043300Y0009569D01*
X0043173Y0009534D01*
X0043045Y0009503D01*
X0042917Y0009477D01*
X0042787Y0009454D01*
X0042657Y0009435D01*
X0042527Y0009420D01*
X0042396Y0009409D01*
X0042264Y0009402D01*
X0042133Y0009399D01*
X0042001Y0009400D01*
X0041870Y0009405D01*
X0041739Y0009414D01*
X0041608Y0009427D01*
X0041478Y0009444D01*
X0041348Y0009465D01*
X0041219Y0009490D01*
X0041091Y0009518D01*
X0040963Y0009551D01*
X0040837Y0009587D01*
X0040712Y0009628D01*
X0040588Y0009672D01*
X0040465Y0009719D01*
X0040344Y0009771D01*
X0040225Y0009826D01*
X0040107Y0009885D01*
X0039992Y0009947D01*
X0039878Y0010013D01*
X0039766Y0010082D01*
X0039656Y0010154D01*
X0039549Y0010230D01*
X0039444Y0010309D01*
X0039341Y0010391D01*
X0039241Y0010476D01*
X0039144Y0010565D01*
X0039049Y0010656D01*
X0038957Y0010750D01*
X0038868Y0010847D01*
X0038782Y0010946D01*
X0038699Y0011048D01*
X0038619Y0011153D01*
X0038543Y0011259D01*
X0038470Y0011368D01*
X0038400Y0011480D01*
X0038333Y0011593D01*
X0038270Y0011708D01*
X0038210Y0011826D01*
X0038154Y0011944D01*
X0038102Y0012065D01*
X0038053Y0012187D01*
X0038008Y0012311D01*
X0037967Y0012435D01*
X0037930Y0012562D01*
X0037896Y0012689D01*
X0037866Y0012817D01*
X0037841Y0012946D01*
X0037819Y0013075D01*
X0037801Y0013205D01*
X0037787Y0013336D01*
X0037777Y0013467D01*
X0037771Y0013599D01*
X0037769Y0013730D01*
X0023202Y0013730D02*
X0022415Y0013730D01*
D14*
X0042100Y0013730D03*
X0042100Y0092470D03*
M02*
