G75*
%MOIN*%
%OFA0B0*%
%FSLAX24Y24*%
%IPPOS*%
%LPD*%
%AMOC8*
5,1,8,0,0,1.08239X$1,22.5*
%
%ADD10R,0.0170X0.0010*%
%ADD11R,0.0060X0.0010*%
%ADD12R,0.0190X0.0010*%
%ADD13R,0.0040X0.0010*%
%ADD14R,0.0070X0.0010*%
%ADD15R,0.0010X0.0010*%
%ADD16R,0.0050X0.0010*%
%ADD17R,0.0030X0.0010*%
%ADD18R,0.0120X0.0010*%
%ADD19R,0.0100X0.0010*%
%ADD20R,0.0020X0.0010*%
%ADD21R,0.0370X0.0010*%
%ADD22C,0.0050*%
%ADD23C,0.0030*%
%ADD24C,0.0160*%
%ADD25C,0.0040*%
%ADD26R,0.0002X0.0001*%
%ADD27R,0.0002X0.0001*%
%ADD28R,0.0002X0.0001*%
%ADD29R,0.0002X0.0001*%
%ADD30R,0.0002X0.0001*%
%ADD31R,0.0004X0.0001*%
%ADD32R,0.0003X0.0001*%
%ADD33R,0.0004X0.0001*%
%ADD34R,0.0004X0.0001*%
%ADD35R,0.0005X0.0001*%
%ADD36R,0.0005X0.0001*%
%ADD37R,0.0007X0.0001*%
%ADD38R,0.0007X0.0001*%
%ADD39R,0.0007X0.0001*%
%ADD40R,0.0007X0.0001*%
%ADD41R,0.0008X0.0001*%
%ADD42R,0.0008X0.0001*%
%ADD43R,0.0009X0.0001*%
%ADD44R,0.0010X0.0001*%
%ADD45R,0.0010X0.0001*%
%ADD46R,0.0010X0.0001*%
%ADD47R,0.0010X0.0001*%
%ADD48R,0.0011X0.0001*%
%ADD49R,0.0011X0.0001*%
%ADD50R,0.0013X0.0001*%
%ADD51R,0.0013X0.0001*%
%ADD52R,0.0013X0.0001*%
%ADD53R,0.0013X0.0001*%
%ADD54R,0.0014X0.0001*%
%ADD55R,0.0014X0.0001*%
%ADD56R,0.0015X0.0001*%
%ADD57R,0.0016X0.0001*%
%ADD58R,0.0017X0.0001*%
%ADD59R,0.0018X0.0001*%
%ADD60R,0.0018X0.0001*%
%ADD61R,0.0018X0.0001*%
%ADD62R,0.0018X0.0001*%
%ADD63R,0.0019X0.0001*%
%ADD64R,0.0019X0.0001*%
%ADD65R,0.0019X0.0001*%
%ADD66R,0.0020X0.0001*%
%ADD67R,0.0020X0.0001*%
%ADD68R,0.0020X0.0001*%
%ADD69R,0.0022X0.0001*%
%ADD70R,0.0022X0.0001*%
%ADD71R,0.0022X0.0001*%
%ADD72R,0.0023X0.0001*%
%ADD73R,0.0024X0.0001*%
%ADD74R,0.0024X0.0001*%
%ADD75R,0.0025X0.0001*%
%ADD76R,0.0025X0.0001*%
%ADD77R,0.0025X0.0001*%
%ADD78R,0.0025X0.0001*%
%ADD79R,0.0026X0.0001*%
%ADD80R,0.0026X0.0001*%
%ADD81R,0.0026X0.0001*%
%ADD82R,0.0027X0.0001*%
%ADD83R,0.0027X0.0001*%
%ADD84R,0.0028X0.0001*%
%ADD85R,0.0029X0.0001*%
%ADD86R,0.0028X0.0001*%
%ADD87R,0.0029X0.0001*%
%ADD88R,0.0029X0.0001*%
%ADD89R,0.0029X0.0001*%
%ADD90R,0.0030X0.0001*%
%ADD91R,0.0031X0.0001*%
%ADD92R,0.0031X0.0001*%
%ADD93R,0.0032X0.0001*%
%ADD94R,0.0032X0.0001*%
%ADD95R,0.0032X0.0001*%
%ADD96R,0.0033X0.0001*%
%ADD97R,0.0033X0.0001*%
%ADD98R,0.0034X0.0001*%
%ADD99R,0.0033X0.0001*%
%ADD100R,0.0035X0.0001*%
%ADD101R,0.0035X0.0001*%
%ADD102R,0.0035X0.0001*%
%ADD103R,0.0037X0.0001*%
%ADD104R,0.0037X0.0001*%
%ADD105R,0.0037X0.0001*%
%ADD106R,0.0037X0.0001*%
%ADD107R,0.0037X0.0001*%
%ADD108R,0.0038X0.0001*%
%ADD109R,0.0038X0.0001*%
%ADD110R,0.0039X0.0001*%
%ADD111R,0.0040X0.0001*%
%ADD112R,0.0040X0.0001*%
%ADD113R,0.0041X0.0001*%
%ADD114R,0.0041X0.0001*%
%ADD115R,0.0041X0.0001*%
%ADD116R,0.0042X0.0001*%
%ADD117R,0.0042X0.0001*%
%ADD118R,0.0043X0.0001*%
%ADD119R,0.0043X0.0001*%
%ADD120R,0.0044X0.0001*%
%ADD121R,0.0044X0.0001*%
%ADD122R,0.0044X0.0001*%
%ADD123R,0.0045X0.0001*%
%ADD124R,0.0046X0.0001*%
%ADD125R,0.0045X0.0001*%
%ADD126R,0.0046X0.0001*%
%ADD127R,0.0046X0.0001*%
%ADD128R,0.0047X0.0001*%
%ADD129R,0.0047X0.0001*%
%ADD130R,0.0047X0.0001*%
%ADD131R,0.0048X0.0001*%
%ADD132R,0.0048X0.0001*%
%ADD133R,0.0049X0.0001*%
%ADD134R,0.0050X0.0001*%
%ADD135R,0.0050X0.0001*%
%ADD136R,0.0050X0.0001*%
%ADD137R,0.0050X0.0001*%
%ADD138R,0.0050X0.0001*%
%ADD139R,0.0050X0.0001*%
%ADD140R,0.0052X0.0001*%
%ADD141R,0.0052X0.0001*%
%ADD142R,0.0052X0.0001*%
%ADD143R,0.0053X0.0001*%
%ADD144R,0.0054X0.0001*%
%ADD145R,0.0054X0.0001*%
%ADD146R,0.0054X0.0001*%
%ADD147R,0.0054X0.0001*%
%ADD148R,0.0055X0.0001*%
%ADD149R,0.0056X0.0001*%
%ADD150R,0.0055X0.0001*%
%ADD151R,0.0056X0.0001*%
%ADD152R,0.0056X0.0001*%
%ADD153R,0.0056X0.0001*%
%ADD154R,0.0057X0.0001*%
%ADD155R,0.0057X0.0001*%
%ADD156R,0.0058X0.0001*%
%ADD157R,0.0058X0.0001*%
%ADD158R,0.0058X0.0001*%
%ADD159R,0.0059X0.0001*%
%ADD160R,0.0059X0.0001*%
%ADD161R,0.0061X0.0001*%
%ADD162R,0.0061X0.0001*%
%ADD163R,0.0061X0.0001*%
%ADD164R,0.0062X0.0001*%
%ADD165R,0.0062X0.0001*%
%ADD166R,0.0064X0.0001*%
%ADD167R,0.0063X0.0001*%
%ADD168R,0.0064X0.0001*%
%ADD169R,0.0064X0.0001*%
%ADD170R,0.0065X0.0001*%
%ADD171R,0.0065X0.0001*%
%ADD172R,0.0066X0.0001*%
%ADD173R,0.0066X0.0001*%
%ADD174R,0.0067X0.0001*%
%ADD175R,0.0067X0.0001*%
%ADD176R,0.0067X0.0001*%
%ADD177R,0.0067X0.0001*%
%ADD178R,0.0068X0.0001*%
%ADD179R,0.0069X0.0001*%
%ADD180R,0.0069X0.0001*%
%ADD181R,0.0070X0.0001*%
%ADD182R,0.0070X0.0001*%
%ADD183R,0.0071X0.0001*%
%ADD184R,0.0071X0.0001*%
%ADD185R,0.0071X0.0001*%
%ADD186R,0.0072X0.0001*%
%ADD187R,0.0072X0.0001*%
%ADD188R,0.0073X0.0001*%
%ADD189R,0.0073X0.0001*%
%ADD190R,0.0074X0.0001*%
%ADD191R,0.0074X0.0001*%
%ADD192R,0.0074X0.0001*%
%ADD193R,0.0075X0.0001*%
%ADD194R,0.0076X0.0001*%
%ADD195R,0.0076X0.0001*%
%ADD196R,0.0076X0.0001*%
%ADD197R,0.0076X0.0001*%
%ADD198R,0.0077X0.0001*%
%ADD199R,0.0078X0.0001*%
%ADD200R,0.0078X0.0001*%
%ADD201R,0.0079X0.0001*%
%ADD202R,0.0080X0.0001*%
%ADD203R,0.0080X0.0001*%
%ADD204R,0.0080X0.0001*%
%ADD205R,0.0080X0.0001*%
%ADD206R,0.0081X0.0001*%
%ADD207R,0.0082X0.0001*%
%ADD208R,0.0082X0.0001*%
%ADD209R,0.0082X0.0001*%
%ADD210R,0.0083X0.0001*%
%ADD211R,0.0083X0.0001*%
%ADD212R,0.0084X0.0001*%
%ADD213R,0.0085X0.0001*%
%ADD214R,0.0085X0.0001*%
%ADD215R,0.0086X0.0001*%
%ADD216R,0.0085X0.0001*%
%ADD217R,0.0086X0.0001*%
%ADD218R,0.0087X0.0001*%
%ADD219R,0.0087X0.0001*%
%ADD220R,0.0087X0.0001*%
%ADD221R,0.0088X0.0001*%
%ADD222R,0.0088X0.0001*%
%ADD223R,0.0089X0.0001*%
%ADD224R,0.0089X0.0001*%
%ADD225R,0.0089X0.0001*%
%ADD226R,0.0089X0.0001*%
%ADD227R,0.0091X0.0001*%
%ADD228R,0.0091X0.0001*%
%ADD229R,0.0091X0.0001*%
%ADD230R,0.0092X0.0001*%
%ADD231R,0.0093X0.0001*%
%ADD232R,0.0093X0.0001*%
%ADD233R,0.0093X0.0001*%
%ADD234R,0.0094X0.0001*%
%ADD235R,0.0094X0.0001*%
%ADD236R,0.0094X0.0001*%
%ADD237R,0.0094X0.0001*%
%ADD238R,0.0095X0.0001*%
%ADD239R,0.0095X0.0001*%
%ADD240R,0.0096X0.0001*%
%ADD241R,0.0097X0.0001*%
%ADD242R,0.0097X0.0001*%
%ADD243R,0.0098X0.0001*%
%ADD244R,0.0097X0.0001*%
%ADD245R,0.0098X0.0001*%
%ADD246R,0.0098X0.0001*%
%ADD247R,0.0098X0.0001*%
%ADD248R,0.0099X0.0001*%
%ADD249R,0.0100X0.0001*%
%ADD250R,0.0100X0.0001*%
%ADD251R,0.0100X0.0001*%
%ADD252R,0.0101X0.0001*%
%ADD253R,0.0102X0.0001*%
%ADD254R,0.0102X0.0001*%
%ADD255R,0.0102X0.0001*%
%ADD256R,0.0102X0.0001*%
%ADD257R,0.0103X0.0001*%
%ADD258R,0.0104X0.0001*%
%ADD259R,0.0104X0.0001*%
%ADD260R,0.0104X0.0001*%
%ADD261R,0.0104X0.0001*%
%ADD262R,0.0104X0.0001*%
%ADD263R,0.0106X0.0001*%
%ADD264R,0.0106X0.0001*%
%ADD265R,0.0106X0.0001*%
%ADD266R,0.0106X0.0001*%
%ADD267R,0.0106X0.0001*%
%ADD268R,0.0106X0.0001*%
%ADD269R,0.0107X0.0001*%
%ADD270R,0.0108X0.0001*%
%ADD271R,0.0109X0.0001*%
%ADD272R,0.0109X0.0001*%
%ADD273R,0.0109X0.0001*%
%ADD274R,0.0110X0.0001*%
%ADD275R,0.0110X0.0001*%
%ADD276R,0.0110X0.0001*%
%ADD277R,0.0110X0.0001*%
%ADD278R,0.0111X0.0001*%
%ADD279R,0.0112X0.0001*%
%ADD280R,0.0112X0.0001*%
%ADD281R,0.0112X0.0001*%
%ADD282R,0.0113X0.0001*%
%ADD283R,0.0113X0.0001*%
%ADD284R,0.0113X0.0001*%
%ADD285R,0.0115X0.0001*%
%ADD286R,0.0114X0.0001*%
%ADD287R,0.0115X0.0001*%
%ADD288R,0.0115X0.0001*%
%ADD289R,0.0116X0.0001*%
%ADD290R,0.0116X0.0001*%
%ADD291R,0.0116X0.0001*%
%ADD292R,0.0116X0.0001*%
%ADD293R,0.0117X0.0001*%
%ADD294R,0.0117X0.0001*%
%ADD295R,0.0119X0.0001*%
%ADD296R,0.0119X0.0001*%
%ADD297R,0.0119X0.0001*%
%ADD298R,0.0120X0.0001*%
%ADD299R,0.0121X0.0001*%
%ADD300R,0.0121X0.0001*%
%ADD301R,0.0121X0.0001*%
%ADD302R,0.0121X0.0001*%
%ADD303R,0.0121X0.0001*%
%ADD304R,0.0122X0.0001*%
%ADD305R,0.0123X0.0001*%
%ADD306R,0.0123X0.0001*%
%ADD307R,0.0124X0.0001*%
%ADD308R,0.0124X0.0001*%
%ADD309R,0.0125X0.0001*%
%ADD310R,0.0126X0.0001*%
%ADD311R,0.0126X0.0001*%
%ADD312R,0.0127X0.0001*%
%ADD313R,0.0127X0.0001*%
%ADD314R,0.0127X0.0001*%
%ADD315R,0.0128X0.0001*%
%ADD316R,0.0128X0.0001*%
%ADD317R,0.0128X0.0001*%
%ADD318R,0.0130X0.0001*%
%ADD319R,0.0130X0.0001*%
%ADD320R,0.0130X0.0001*%
%ADD321R,0.0131X0.0001*%
%ADD322R,0.0131X0.0001*%
%ADD323R,0.0131X0.0001*%
%ADD324R,0.0132X0.0001*%
%ADD325R,0.0133X0.0001*%
%ADD326R,0.0133X0.0001*%
%ADD327R,0.0134X0.0001*%
%ADD328R,0.0134X0.0001*%
%ADD329R,0.0136X0.0001*%
%ADD330R,0.0135X0.0001*%
%ADD331R,0.0136X0.0001*%
%ADD332R,0.0136X0.0001*%
%ADD333R,0.0136X0.0001*%
%ADD334R,0.0137X0.0001*%
%ADD335R,0.0137X0.0001*%
%ADD336R,0.0138X0.0001*%
%ADD337R,0.0138X0.0001*%
%ADD338R,0.0139X0.0001*%
%ADD339R,0.0139X0.0001*%
%ADD340R,0.0140X0.0001*%
%ADD341R,0.0139X0.0001*%
%ADD342R,0.0141X0.0001*%
%ADD343R,0.0141X0.0001*%
%ADD344R,0.0141X0.0001*%
%ADD345R,0.0141X0.0001*%
%ADD346R,0.0143X0.0001*%
%ADD347R,0.0143X0.0001*%
%ADD348R,0.0143X0.0001*%
%ADD349R,0.0143X0.0001*%
%ADD350R,0.0145X0.0001*%
%ADD351R,0.0145X0.0001*%
%ADD352R,0.0145X0.0001*%
%ADD353R,0.0145X0.0001*%
%ADD354R,0.0145X0.0001*%
%ADD355R,0.0146X0.0001*%
%ADD356R,0.0147X0.0001*%
%ADD357R,0.0147X0.0001*%
%ADD358R,0.0148X0.0001*%
%ADD359R,0.0148X0.0001*%
%ADD360R,0.0148X0.0001*%
%ADD361R,0.0149X0.0001*%
%ADD362R,0.0149X0.0001*%
%ADD363R,0.0149X0.0001*%
%ADD364R,0.0149X0.0001*%
%ADD365R,0.0150X0.0001*%
%ADD366R,0.0151X0.0001*%
%ADD367R,0.0151X0.0001*%
%ADD368R,0.0151X0.0001*%
%ADD369R,0.0151X0.0001*%
%ADD370R,0.0152X0.0001*%
%ADD371R,0.0152X0.0001*%
%ADD372R,0.0153X0.0001*%
%ADD373R,0.0154X0.0001*%
%ADD374R,0.0154X0.0001*%
%ADD375R,0.0154X0.0001*%
%ADD376R,0.0154X0.0001*%
%ADD377R,0.0155X0.0001*%
%ADD378R,0.0156X0.0001*%
%ADD379R,0.0156X0.0001*%
%ADD380R,0.0156X0.0001*%
%ADD381R,0.0156X0.0001*%
%ADD382R,0.0158X0.0001*%
%ADD383R,0.0158X0.0001*%
%ADD384R,0.0159X0.0001*%
%ADD385R,0.0159X0.0001*%
%ADD386R,0.0160X0.0001*%
%ADD387R,0.0160X0.0001*%
%ADD388R,0.0160X0.0001*%
%ADD389R,0.0160X0.0001*%
%ADD390R,0.0161X0.0001*%
%ADD391R,0.0162X0.0001*%
%ADD392R,0.0161X0.0001*%
%ADD393R,0.0162X0.0001*%
%ADD394R,0.0162X0.0001*%
%ADD395R,0.0163X0.0001*%
%ADD396R,0.0163X0.0001*%
%ADD397R,0.0164X0.0001*%
%ADD398R,0.0164X0.0001*%
%ADD399R,0.0165X0.0001*%
%ADD400R,0.0166X0.0001*%
%ADD401R,0.0167X0.0001*%
%ADD402R,0.0167X0.0001*%
%ADD403R,0.0169X0.0001*%
%ADD404R,0.0169X0.0001*%
%ADD405R,0.0169X0.0001*%
%ADD406R,0.0170X0.0001*%
%ADD407R,0.0170X0.0001*%
%ADD408R,0.0169X0.0001*%
%ADD409R,0.0171X0.0001*%
%ADD410R,0.0172X0.0001*%
%ADD411R,0.0172X0.0001*%
%ADD412R,0.0173X0.0001*%
%ADD413R,0.0174X0.0001*%
%ADD414R,0.0174X0.0001*%
%ADD415R,0.0175X0.0001*%
%ADD416R,0.0175X0.0001*%
%ADD417R,0.0175X0.0001*%
%ADD418R,0.0176X0.0001*%
%ADD419R,0.0176X0.0001*%
%ADD420R,0.0177X0.0001*%
%ADD421R,0.0178X0.0001*%
%ADD422R,0.0178X0.0001*%
%ADD423R,0.0178X0.0001*%
%ADD424R,0.0178X0.0001*%
%ADD425R,0.0180X0.0001*%
%ADD426R,0.0180X0.0001*%
%ADD427R,0.0181X0.0001*%
%ADD428R,0.0181X0.0001*%
%ADD429R,0.0181X0.0001*%
%ADD430R,0.0181X0.0001*%
%ADD431R,0.0182X0.0001*%
%ADD432R,0.0182X0.0001*%
%ADD433R,0.0182X0.0001*%
%ADD434R,0.0182X0.0001*%
%ADD435R,0.0183X0.0001*%
%ADD436R,0.0184X0.0001*%
%ADD437R,0.0184X0.0001*%
%ADD438R,0.0185X0.0001*%
%ADD439R,0.0185X0.0001*%
%ADD440R,0.0185X0.0001*%
%ADD441R,0.0185X0.0001*%
%ADD442R,0.0185X0.0001*%
%ADD443R,0.0187X0.0001*%
%ADD444R,0.0186X0.0001*%
%ADD445R,0.0188X0.0001*%
%ADD446R,0.0188X0.0001*%
%ADD447R,0.0188X0.0001*%
%ADD448R,0.0188X0.0001*%
%ADD449R,0.0189X0.0001*%
%ADD450R,0.0189X0.0001*%
%ADD451R,0.0190X0.0001*%
%ADD452R,0.0190X0.0001*%
%ADD453R,0.0191X0.0001*%
%ADD454R,0.0191X0.0001*%
%ADD455R,0.0192X0.0001*%
%ADD456R,0.0191X0.0001*%
%ADD457R,0.0193X0.0001*%
%ADD458R,0.0193X0.0001*%
%ADD459R,0.0193X0.0001*%
%ADD460R,0.0193X0.0001*%
%ADD461R,0.0194X0.0001*%
%ADD462R,0.0194X0.0001*%
%ADD463R,0.0195X0.0001*%
%ADD464R,0.0195X0.0001*%
%ADD465R,0.0197X0.0001*%
%ADD466R,0.0197X0.0001*%
%ADD467R,0.0197X0.0001*%
%ADD468R,0.0198X0.0001*%
%ADD469R,0.0199X0.0001*%
%ADD470R,0.0199X0.0001*%
%ADD471R,0.0200X0.0001*%
%ADD472R,0.0200X0.0001*%
%ADD473R,0.0200X0.0001*%
%ADD474R,0.0201X0.0001*%
%ADD475R,0.0202X0.0001*%
%ADD476R,0.0202X0.0001*%
%ADD477R,0.0203X0.0001*%
%ADD478R,0.0203X0.0001*%
%ADD479R,0.0204X0.0001*%
%ADD480R,0.0203X0.0001*%
%ADD481R,0.0205X0.0001*%
%ADD482R,0.0205X0.0001*%
%ADD483R,0.0205X0.0001*%
%ADD484R,0.0205X0.0001*%
%ADD485R,0.0206X0.0001*%
%ADD486R,0.0206X0.0001*%
%ADD487R,0.0206X0.0001*%
%ADD488R,0.0208X0.0001*%
%ADD489R,0.0208X0.0001*%
%ADD490R,0.0208X0.0001*%
%ADD491R,0.0208X0.0001*%
%ADD492R,0.0209X0.0001*%
%ADD493R,0.0210X0.0001*%
%ADD494R,0.0210X0.0001*%
%ADD495R,0.0211X0.0001*%
%ADD496R,0.0211X0.0001*%
%ADD497R,0.0212X0.0001*%
%ADD498R,0.0212X0.0001*%
%ADD499R,0.0213X0.0001*%
%ADD500R,0.0213X0.0001*%
%ADD501R,0.0214X0.0001*%
%ADD502R,0.0215X0.0001*%
%ADD503R,0.0215X0.0001*%
%ADD504R,0.0215X0.0001*%
%ADD505R,0.0216X0.0001*%
%ADD506R,0.0217X0.0001*%
%ADD507R,0.0217X0.0001*%
%ADD508R,0.0217X0.0001*%
%ADD509R,0.0218X0.0001*%
%ADD510R,0.0219X0.0001*%
%ADD511R,0.0219X0.0001*%
%ADD512R,0.0220X0.0001*%
%ADD513R,0.0220X0.0001*%
%ADD514R,0.0220X0.0001*%
%ADD515R,0.0221X0.0001*%
%ADD516R,0.0221X0.0001*%
%ADD517R,0.0222X0.0001*%
%ADD518R,0.0223X0.0001*%
%ADD519R,0.0223X0.0001*%
%ADD520R,0.0223X0.0001*%
%ADD521R,0.0224X0.0001*%
%ADD522R,0.0224X0.0001*%
%ADD523R,0.0225X0.0001*%
%ADD524R,0.0226X0.0001*%
%ADD525R,0.0226X0.0001*%
%ADD526R,0.0227X0.0001*%
%ADD527R,0.0227X0.0001*%
%ADD528R,0.0227X0.0001*%
%ADD529R,0.0228X0.0001*%
%ADD530R,0.0228X0.0001*%
%ADD531R,0.0228X0.0001*%
%ADD532R,0.0229X0.0001*%
%ADD533R,0.0230X0.0001*%
%ADD534R,0.0230X0.0001*%
%ADD535R,0.0230X0.0001*%
%ADD536R,0.0230X0.0001*%
%ADD537R,0.0230X0.0001*%
%ADD538R,0.0232X0.0001*%
%ADD539R,0.0232X0.0001*%
%ADD540R,0.0232X0.0001*%
%ADD541R,0.0232X0.0001*%
%ADD542R,0.0233X0.0001*%
%ADD543R,0.0233X0.0001*%
%ADD544R,0.0234X0.0001*%
%ADD545R,0.0234X0.0001*%
%ADD546R,0.0234X0.0001*%
%ADD547R,0.0234X0.0001*%
%ADD548R,0.0235X0.0001*%
%ADD549R,0.0236X0.0001*%
%ADD550R,0.0236X0.0001*%
%ADD551R,0.0237X0.0001*%
%ADD552R,0.0237X0.0001*%
%ADD553R,0.0238X0.0001*%
%ADD554R,0.0239X0.0001*%
%ADD555R,0.0238X0.0001*%
%ADD556R,0.0239X0.0001*%
%ADD557R,0.0239X0.0001*%
%ADD558R,0.0240X0.0001*%
%ADD559R,0.0241X0.0001*%
%ADD560R,0.0241X0.0001*%
%ADD561R,0.0242X0.0001*%
%ADD562R,0.0242X0.0001*%
%ADD563R,0.0242X0.0001*%
%ADD564R,0.0243X0.0001*%
%ADD565R,0.0243X0.0001*%
%ADD566R,0.0244X0.0001*%
%ADD567R,0.0245X0.0001*%
%ADD568R,0.0245X0.0001*%
%ADD569R,0.0245X0.0001*%
%ADD570R,0.0246X0.0001*%
%ADD571R,0.0245X0.0001*%
%ADD572R,0.0247X0.0001*%
%ADD573R,0.0247X0.0001*%
%ADD574R,0.0247X0.0001*%
%ADD575R,0.0248X0.0001*%
%ADD576R,0.0248X0.0001*%
%ADD577R,0.0249X0.0001*%
%ADD578R,0.0249X0.0001*%
%ADD579R,0.0249X0.0001*%
%ADD580R,0.0250X0.0001*%
%ADD581R,0.0250X0.0001*%
%ADD582R,0.0250X0.0001*%
%ADD583R,0.0251X0.0001*%
%ADD584R,0.0251X0.0001*%
%ADD585R,0.0251X0.0001*%
%ADD586R,0.0252X0.0001*%
%ADD587R,0.0252X0.0001*%
%ADD588R,0.0253X0.0001*%
%ADD589R,0.0254X0.0001*%
%ADD590R,0.0254X0.0001*%
%ADD591R,0.0254X0.0001*%
%ADD592R,0.0255X0.0001*%
%ADD593R,0.0256X0.0001*%
%ADD594R,0.0256X0.0001*%
%ADD595R,0.0257X0.0001*%
%ADD596R,0.0257X0.0001*%
%ADD597R,0.0257X0.0001*%
%ADD598R,0.0257X0.0001*%
%ADD599R,0.0258X0.0001*%
%ADD600R,0.0258X0.0001*%
%ADD601R,0.0259X0.0001*%
%ADD602R,0.0259X0.0001*%
%ADD603R,0.0260X0.0001*%
%ADD604R,0.0260X0.0001*%
%ADD605R,0.0262X0.0001*%
%ADD606R,0.0262X0.0001*%
%ADD607R,0.0262X0.0001*%
%ADD608R,0.0262X0.0001*%
%ADD609R,0.0262X0.0001*%
%ADD610R,0.0262X0.0001*%
%ADD611R,0.0263X0.0001*%
%ADD612R,0.0264X0.0001*%
%ADD613R,0.0265X0.0001*%
%ADD614R,0.0265X0.0001*%
%ADD615R,0.0265X0.0001*%
%ADD616R,0.0266X0.0001*%
%ADD617R,0.0266X0.0001*%
%ADD618R,0.0267X0.0001*%
%ADD619R,0.0267X0.0001*%
%ADD620R,0.0267X0.0001*%
%ADD621R,0.0267X0.0001*%
%ADD622R,0.0268X0.0001*%
%ADD623R,0.0268X0.0001*%
%ADD624R,0.0268X0.0001*%
%ADD625R,0.0269X0.0001*%
%ADD626R,0.0269X0.0001*%
%ADD627R,0.0269X0.0001*%
%ADD628R,0.0271X0.0001*%
%ADD629R,0.0271X0.0001*%
%ADD630R,0.0271X0.0001*%
%ADD631R,0.0271X0.0001*%
%ADD632R,0.0272X0.0001*%
%ADD633R,0.0273X0.0001*%
%ADD634R,0.0272X0.0001*%
%ADD635R,0.0273X0.0001*%
%ADD636R,0.0274X0.0001*%
%ADD637R,0.0274X0.0001*%
%ADD638R,0.0274X0.0001*%
%ADD639R,0.0275X0.0001*%
%ADD640R,0.0276X0.0001*%
%ADD641R,0.0275X0.0001*%
%ADD642R,0.0277X0.0001*%
%ADD643R,0.0277X0.0001*%
%ADD644R,0.0277X0.0001*%
%ADD645R,0.0278X0.0001*%
%ADD646R,0.0278X0.0001*%
%ADD647R,0.0279X0.0001*%
%ADD648R,0.0279X0.0001*%
%ADD649R,0.0280X0.0001*%
%ADD650R,0.0280X0.0001*%
%ADD651R,0.0281X0.0001*%
%ADD652R,0.0281X0.0001*%
%ADD653R,0.0281X0.0001*%
%ADD654R,0.0282X0.0001*%
%ADD655R,0.0283X0.0001*%
%ADD656R,0.0284X0.0001*%
%ADD657R,0.0284X0.0001*%
%ADD658R,0.0284X0.0001*%
%ADD659R,0.0284X0.0001*%
%ADD660R,0.0284X0.0001*%
%ADD661R,0.0284X0.0001*%
%ADD662R,0.0286X0.0001*%
%ADD663R,0.0286X0.0001*%
%ADD664R,0.0286X0.0001*%
%ADD665R,0.0286X0.0001*%
%ADD666R,0.0287X0.0001*%
%ADD667R,0.0288X0.0001*%
%ADD668R,0.0288X0.0001*%
%ADD669R,0.0289X0.0001*%
%ADD670R,0.0289X0.0001*%
%ADD671R,0.0289X0.0001*%
%ADD672R,0.0290X0.0001*%
%ADD673R,0.0290X0.0001*%
%ADD674R,0.0290X0.0001*%
%ADD675R,0.0290X0.0001*%
%ADD676R,0.0291X0.0001*%
%ADD677R,0.0292X0.0001*%
%ADD678R,0.0292X0.0001*%
%ADD679R,0.0292X0.0001*%
%ADD680R,0.0292X0.0001*%
%ADD681R,0.0293X0.0001*%
%ADD682R,0.0293X0.0001*%
%ADD683R,0.0294X0.0001*%
%ADD684R,0.0294X0.0001*%
%ADD685R,0.0295X0.0001*%
%ADD686R,0.0295X0.0001*%
%ADD687R,0.0295X0.0001*%
%ADD688R,0.0296X0.0001*%
%ADD689R,0.0296X0.0001*%
%ADD690R,0.0296X0.0001*%
%ADD691R,0.0297X0.0001*%
%ADD692R,0.0297X0.0001*%
%ADD693R,0.0297X0.0001*%
%ADD694R,0.0298X0.0001*%
%ADD695R,0.0299X0.0001*%
%ADD696R,0.0299X0.0001*%
%ADD697R,0.0299X0.0001*%
%ADD698R,0.0301X0.0001*%
%ADD699R,0.0300X0.0001*%
%ADD700R,0.0301X0.0001*%
%ADD701R,0.0301X0.0001*%
%ADD702R,0.0301X0.0001*%
%ADD703R,0.0302X0.0001*%
%ADD704R,0.0303X0.0001*%
%ADD705R,0.0303X0.0001*%
%ADD706R,0.0303X0.0001*%
%ADD707R,0.0303X0.0001*%
%ADD708R,0.0608X0.0001*%
%ADD709R,0.0609X0.0001*%
%ADD710R,0.0609X0.0001*%
%ADD711R,0.0610X0.0001*%
%ADD712R,0.0610X0.0001*%
%ADD713R,0.0610X0.0001*%
%ADD714R,0.0611X0.0001*%
%ADD715R,0.0611X0.0001*%
%ADD716R,0.0608X0.0001*%
%ADD717R,0.0605X0.0001*%
%ADD718R,0.0601X0.0001*%
%ADD719R,0.0595X0.0001*%
%ADD720R,0.0591X0.0001*%
%ADD721R,0.0585X0.0001*%
%ADD722R,0.0581X0.0001*%
%ADD723R,0.0578X0.0001*%
%ADD724R,0.0571X0.0001*%
%ADD725R,0.0568X0.0001*%
%ADD726R,0.0565X0.0001*%
%ADD727R,0.0561X0.0001*%
%ADD728R,0.0554X0.0001*%
%ADD729R,0.0551X0.0001*%
%ADD730R,0.0544X0.0001*%
%ADD731R,0.0542X0.0001*%
%ADD732R,0.0537X0.0001*%
%ADD733R,0.0531X0.0001*%
%ADD734R,0.0527X0.0001*%
%ADD735R,0.0524X0.0001*%
%ADD736R,0.0521X0.0001*%
%ADD737R,0.0514X0.0001*%
%ADD738R,0.0511X0.0001*%
%ADD739R,0.0504X0.0001*%
%ADD740R,0.0501X0.0001*%
%ADD741R,0.0498X0.0001*%
%ADD742R,0.0491X0.0001*%
%ADD743R,0.0488X0.0001*%
%ADD744R,0.0484X0.0001*%
%ADD745R,0.0481X0.0001*%
%ADD746R,0.0475X0.0001*%
%ADD747R,0.0471X0.0001*%
%ADD748R,0.0465X0.0001*%
%ADD749R,0.0460X0.0001*%
%ADD750R,0.0458X0.0001*%
%ADD751R,0.0451X0.0001*%
%ADD752R,0.0448X0.0001*%
%ADD753R,0.0445X0.0001*%
%ADD754R,0.0441X0.0001*%
%ADD755R,0.0435X0.0001*%
%ADD756R,0.0431X0.0001*%
%ADD757R,0.0424X0.0001*%
%ADD758R,0.0421X0.0001*%
%ADD759R,0.0417X0.0001*%
%ADD760R,0.0411X0.0001*%
%ADD761R,0.0407X0.0001*%
%ADD762R,0.0404X0.0001*%
%ADD763R,0.0401X0.0001*%
%ADD764R,0.0394X0.0001*%
%ADD765R,0.0391X0.0001*%
%ADD766R,0.0384X0.0001*%
%ADD767R,0.0381X0.0001*%
%ADD768R,0.0377X0.0001*%
%ADD769R,0.0371X0.0001*%
%ADD770R,0.0368X0.0001*%
%ADD771R,0.0364X0.0001*%
%ADD772R,0.0361X0.0001*%
%ADD773R,0.0353X0.0001*%
%ADD774R,0.0351X0.0001*%
%ADD775R,0.0344X0.0001*%
%ADD776R,0.0340X0.0001*%
%ADD777R,0.0338X0.0001*%
%ADD778R,0.0331X0.0001*%
%ADD779R,0.0328X0.0001*%
%ADD780R,0.0325X0.0001*%
%ADD781R,0.0321X0.0001*%
%ADD782R,0.0314X0.0001*%
%ADD783R,0.0310X0.0001*%
%ADD784R,0.0304X0.0001*%
%ADD785R,0.0301X0.0001*%
%ADD786R,0.0287X0.0001*%
%ADD787R,0.0271X0.0001*%
%ADD788R,0.0261X0.0001*%
%ADD789R,0.0247X0.0001*%
%ADD790R,0.0244X0.0001*%
%ADD791R,0.0241X0.0001*%
%ADD792R,0.0233X0.0001*%
%ADD793R,0.0231X0.0001*%
%ADD794R,0.0224X0.0001*%
%ADD795R,0.0220X0.0001*%
%ADD796R,0.0218X0.0001*%
%ADD797R,0.0203X0.0001*%
%ADD798R,0.0201X0.0001*%
%ADD799R,0.0194X0.0001*%
%ADD800R,0.0190X0.0001*%
%ADD801R,0.0028X0.0001*%
%ADD802R,0.0072X0.0001*%
%ADD803R,0.0177X0.0001*%
%ADD804R,0.0091X0.0001*%
%ADD805R,0.0179X0.0001*%
%ADD806R,0.0164X0.0001*%
%ADD807R,0.0179X0.0001*%
%ADD808R,0.0164X0.0001*%
%ADD809R,0.0748X0.0001*%
%ADD810R,0.0748X0.0001*%
%ADD811R,0.0749X0.0001*%
%ADD812R,0.0749X0.0001*%
%ADD813R,0.0750X0.0001*%
%ADD814R,0.0750X0.0001*%
%ADD815R,0.0751X0.0001*%
%ADD816R,0.0751X0.0001*%
%ADD817R,0.0752X0.0001*%
%ADD818R,0.0752X0.0001*%
%ADD819R,0.0754X0.0001*%
%ADD820R,0.0754X0.0001*%
%ADD821R,0.0755X0.0001*%
%ADD822R,0.0755X0.0001*%
%ADD823R,0.0756X0.0001*%
%ADD824R,0.0756X0.0001*%
%ADD825R,0.0757X0.0001*%
%ADD826R,0.0757X0.0001*%
%ADD827R,0.0007X0.0001*%
%ADD828R,0.0007X0.0001*%
%ADD829R,0.0034X0.0001*%
%ADD830R,0.0031X0.0001*%
%ADD831R,0.0008X0.0001*%
%ADD832R,0.0008X0.0001*%
%ADD833R,0.0179X0.0001*%
%ADD834R,0.0008X0.0001*%
%ADD835R,0.0179X0.0001*%
%ADD836R,0.0043X0.0001*%
%ADD837R,0.0008X0.0001*%
%ADD838R,0.0044X0.0001*%
%ADD839R,0.0007X0.0001*%
%ADD840R,0.0044X0.0001*%
%ADD841R,0.0032X0.0001*%
%ADD842R,0.0009X0.0001*%
%ADD843R,0.0010X0.0001*%
%ADD844R,0.0190X0.0001*%
%ADD845R,0.0179X0.0001*%
%ADD846R,0.0009X0.0001*%
%ADD847R,0.0029X0.0001*%
%ADD848R,0.0041X0.0001*%
%ADD849R,0.0010X0.0001*%
%ADD850R,0.0043X0.0001*%
%ADD851R,0.0031X0.0001*%
%ADD852R,0.0181X0.0001*%
%ADD853R,0.0040X0.0001*%
%ADD854R,0.0031X0.0001*%
%ADD855R,0.0011X0.0001*%
%ADD856R,0.0028X0.0001*%
%ADD857R,0.0192X0.0001*%
%ADD858R,0.0182X0.0001*%
%ADD859R,0.0043X0.0001*%
%ADD860R,0.0012X0.0001*%
%ADD861R,0.0028X0.0001*%
%ADD862R,0.0038X0.0001*%
%ADD863R,0.0183X0.0001*%
%ADD864R,0.0041X0.0001*%
%ADD865R,0.0029X0.0001*%
%ADD866R,0.0027X0.0001*%
%ADD867R,0.0194X0.0001*%
%ADD868R,0.0035X0.0001*%
%ADD869R,0.0012X0.0001*%
%ADD870R,0.0040X0.0001*%
%ADD871R,0.0014X0.0001*%
%ADD872R,0.0184X0.0001*%
%ADD873R,0.0035X0.0001*%
%ADD874R,0.0034X0.0001*%
%ADD875R,0.0015X0.0001*%
%ADD876R,0.0185X0.0001*%
%ADD877R,0.0014X0.0001*%
%ADD878R,0.0039X0.0001*%
%ADD879R,0.0016X0.0001*%
%ADD880R,0.0025X0.0001*%
%ADD881R,0.0016X0.0001*%
%ADD882R,0.0196X0.0001*%
%ADD883R,0.0186X0.0001*%
%ADD884R,0.0014X0.0001*%
%ADD885R,0.0010X0.0001*%
%ADD886R,0.0038X0.0001*%
%ADD887R,0.0011X0.0001*%
%ADD888R,0.0017X0.0001*%
%ADD889R,0.0040X0.0001*%
%ADD890R,0.0196X0.0001*%
%ADD891R,0.0017X0.0001*%
%ADD892R,0.0187X0.0001*%
%ADD893R,0.0016X0.0001*%
%ADD894R,0.0023X0.0001*%
%ADD895R,0.0197X0.0001*%
%ADD896R,0.0028X0.0001*%
%ADD897R,0.0016X0.0001*%
%ADD898R,0.0023X0.0001*%
%ADD899R,0.0019X0.0001*%
%ADD900R,0.0023X0.0001*%
%ADD901R,0.0036X0.0001*%
%ADD902R,0.0198X0.0001*%
%ADD903R,0.0189X0.0001*%
%ADD904R,0.0022X0.0001*%
%ADD905R,0.0199X0.0001*%
%ADD906R,0.0025X0.0001*%
%ADD907R,0.0017X0.0001*%
%ADD908R,0.0012X0.0001*%
%ADD909R,0.0035X0.0001*%
%ADD910R,0.0021X0.0001*%
%ADD911R,0.0020X0.0001*%
%ADD912R,0.0022X0.0001*%
%ADD913R,0.0199X0.0001*%
%ADD914R,0.0190X0.0001*%
%ADD915R,0.0021X0.0001*%
%ADD916R,0.0019X0.0001*%
%ADD917R,0.0191X0.0001*%
%ADD918R,0.0019X0.0001*%
%ADD919R,0.0200X0.0001*%
%ADD920R,0.0192X0.0001*%
%ADD921R,0.0021X0.0001*%
%ADD922R,0.0020X0.0001*%
%ADD923R,0.0021X0.0001*%
%ADD924R,0.0203X0.0001*%
%ADD925R,0.0016X0.0001*%
%ADD926R,0.0203X0.0001*%
%ADD927R,0.0196X0.0001*%
%ADD928R,0.0023X0.0001*%
%ADD929R,0.0026X0.0001*%
%ADD930R,0.0204X0.0001*%
%ADD931R,0.0196X0.0001*%
%ADD932R,0.0023X0.0001*%
%ADD933R,0.0013X0.0001*%
%ADD934R,0.0017X0.0001*%
%ADD935R,0.0205X0.0001*%
%ADD936R,0.0197X0.0001*%
%ADD937R,0.0016X0.0001*%
%ADD938R,0.0205X0.0001*%
%ADD939R,0.0206X0.0001*%
%ADD940R,0.0206X0.0001*%
%ADD941R,0.0009X0.0001*%
%ADD942R,0.0016X0.0001*%
%ADD943R,0.0030X0.0001*%
%ADD944R,0.0207X0.0001*%
%ADD945R,0.0200X0.0001*%
%ADD946R,0.0207X0.0001*%
%ADD947R,0.0006X0.0001*%
%ADD948R,0.0202X0.0001*%
%ADD949R,0.0005X0.0001*%
%ADD950R,0.0209X0.0001*%
%ADD951R,0.0004X0.0001*%
%ADD952R,0.0209X0.0001*%
%ADD953R,0.0003X0.0001*%
%ADD954R,0.0017X0.0001*%
%ADD955R,0.0034X0.0001*%
%ADD956R,0.0012X0.0001*%
%ADD957R,0.0211X0.0001*%
%ADD958R,0.0001X0.0001*%
%ADD959R,0.0020X0.0001*%
%ADD960R,0.0020X0.0001*%
%ADD961R,0.0005X0.0001*%
%ADD962R,0.0036X0.0001*%
%ADD963R,0.0212X0.0001*%
%ADD964R,0.0205X0.0001*%
%ADD965R,0.0212X0.0001*%
%ADD966R,0.0031X0.0001*%
%ADD967R,0.0020X0.0001*%
%ADD968R,0.0004X0.0001*%
%ADD969R,0.0214X0.0001*%
%ADD970R,0.0215X0.0001*%
%ADD971R,0.0001X0.0001*%
%ADD972R,0.0217X0.0001*%
%ADD973R,0.0034X0.0001*%
%ADD974R,0.0211X0.0001*%
%ADD975R,0.0042X0.0001*%
%ADD976R,0.0215X0.0001*%
%ADD977R,0.0211X0.0001*%
%ADD978R,0.0014X0.0001*%
%ADD979R,0.0215X0.0001*%
%ADD980R,0.0211X0.0001*%
%ADD981R,0.0036X0.0001*%
%ADD982R,0.0213X0.0001*%
%ADD983R,0.0022X0.0001*%
%ADD984R,0.0211X0.0001*%
%ADD985R,0.0034X0.0001*%
%ADD986R,0.0043X0.0001*%
%ADD987R,0.0001X0.0001*%
%ADD988R,0.0209X0.0001*%
%ADD989R,0.0011X0.0001*%
%ADD990R,0.0002X0.0001*%
%ADD991R,0.0005X0.0001*%
%ADD992R,0.0023X0.0001*%
%ADD993R,0.0001X0.0001*%
%ADD994R,0.0026X0.0001*%
%ADD995R,0.0209X0.0001*%
%ADD996R,0.0025X0.0001*%
%ADD997R,0.0006X0.0001*%
%ADD998R,0.0205X0.0001*%
%ADD999R,0.0025X0.0001*%
%ADD1000R,0.0005X0.0001*%
%ADD1001R,0.0006X0.0001*%
%ADD1002R,0.0005X0.0001*%
%ADD1003R,0.0003X0.0001*%
%ADD1004R,0.0027X0.0001*%
%ADD1005R,0.0013X0.0001*%
%ADD1006R,0.0201X0.0001*%
%ADD1007R,0.0001X0.0001*%
%ADD1008R,0.0200X0.0001*%
%ADD1009R,0.0029X0.0001*%
%ADD1010R,0.0014X0.0001*%
%ADD1011R,0.0209X0.0001*%
%ADD1012R,0.0199X0.0001*%
%ADD1013R,0.0031X0.0001*%
%ADD1014R,0.0032X0.0001*%
%ADD1015R,0.0032X0.0001*%
%ADD1016R,0.0196X0.0001*%
%ADD1017R,0.0031X0.0001*%
%ADD1018R,0.0214X0.0001*%
%ADD1019R,0.0194X0.0001*%
%ADD1020R,0.0193X0.0001*%
%ADD1021R,0.0033X0.0001*%
%ADD1022R,0.0216X0.0001*%
%ADD1023R,0.0217X0.0001*%
%ADD1024R,0.0193X0.0001*%
%ADD1025R,0.0218X0.0001*%
%ADD1026R,0.0040X0.0001*%
%ADD1027R,0.0221X0.0001*%
%ADD1028R,0.0039X0.0001*%
%ADD1029R,0.0036X0.0001*%
%ADD1030R,0.0222X0.0001*%
%ADD1031R,0.0224X0.0001*%
%ADD1032R,0.0010X0.0001*%
%ADD1033R,0.0226X0.0001*%
%ADD1034R,0.0229X0.0001*%
%ADD1035R,0.0365X0.0001*%
%ADD1036R,0.0406X0.0001*%
%ADD1037R,0.0779X0.0001*%
%ADD1038R,0.0779X0.0001*%
%ADD1039R,0.0780X0.0001*%
%ADD1040R,0.0780X0.0001*%
%ADD1041R,0.0781X0.0001*%
%ADD1042R,0.0781X0.0001*%
%ADD1043R,0.0782X0.0001*%
%ADD1044R,0.0782X0.0001*%
%ADD1045R,0.0784X0.0001*%
%ADD1046R,0.0784X0.0001*%
%ADD1047R,0.0785X0.0001*%
%ADD1048R,0.0785X0.0001*%
%ADD1049R,0.0786X0.0001*%
%ADD1050R,0.0786X0.0001*%
%ADD1051R,0.0787X0.0001*%
%ADD1052R,0.0787X0.0001*%
%ADD1053R,0.0393X0.0001*%
%ADD1054R,0.0392X0.0001*%
%ADD1055R,0.0392X0.0001*%
%ADD1056R,0.0392X0.0001*%
%ADD1057R,0.0391X0.0001*%
%ADD1058R,0.0391X0.0001*%
%ADD1059R,0.0390X0.0001*%
%ADD1060R,0.0389X0.0001*%
%ADD1061R,0.0389X0.0001*%
%ADD1062R,0.0389X0.0001*%
%ADD1063R,0.0388X0.0001*%
%ADD1064R,0.0388X0.0001*%
%ADD1065R,0.0388X0.0001*%
%ADD1066R,0.0388X0.0001*%
%ADD1067R,0.0387X0.0001*%
%ADD1068R,0.0386X0.0001*%
%ADD1069R,0.0386X0.0001*%
%ADD1070R,0.0385X0.0001*%
%ADD1071R,0.0385X0.0001*%
%ADD1072R,0.0385X0.0001*%
%ADD1073R,0.0384X0.0001*%
%ADD1074R,0.0383X0.0001*%
%ADD1075R,0.0383X0.0001*%
%ADD1076R,0.0383X0.0001*%
%ADD1077R,0.0383X0.0001*%
%ADD1078R,0.0382X0.0001*%
%ADD1079R,0.0382X0.0001*%
%ADD1080R,0.0381X0.0001*%
%ADD1081R,0.0381X0.0001*%
%ADD1082R,0.0380X0.0001*%
%ADD1083R,0.0380X0.0001*%
%ADD1084R,0.0380X0.0001*%
%ADD1085R,0.0379X0.0001*%
%ADD1086R,0.0380X0.0001*%
%ADD1087R,0.0379X0.0001*%
%ADD1088R,0.0377X0.0001*%
%ADD1089R,0.0377X0.0001*%
%ADD1090R,0.0376X0.0001*%
%ADD1091R,0.0376X0.0001*%
%ADD1092R,0.0376X0.0001*%
%ADD1093R,0.0375X0.0001*%
%ADD1094R,0.0376X0.0001*%
%ADD1095R,0.0374X0.0001*%
%ADD1096R,0.0374X0.0001*%
%ADD1097R,0.0374X0.0001*%
%ADD1098R,0.0373X0.0001*%
%ADD1099R,0.0373X0.0001*%
%ADD1100R,0.0372X0.0001*%
%ADD1101R,0.0371X0.0001*%
%ADD1102R,0.0371X0.0001*%
%ADD1103R,0.0370X0.0001*%
%ADD1104R,0.0370X0.0001*%
%ADD1105R,0.0370X0.0001*%
%ADD1106R,0.0370X0.0001*%
%ADD1107R,0.0369X0.0001*%
%ADD1108R,0.0368X0.0001*%
%ADD1109R,0.0368X0.0001*%
%ADD1110R,0.0367X0.0001*%
%ADD1111R,0.0367X0.0001*%
%ADD1112R,0.0366X0.0001*%
%ADD1113R,0.0365X0.0001*%
%ADD1114R,0.0365X0.0001*%
%ADD1115R,0.0364X0.0001*%
%ADD1116R,0.0364X0.0001*%
%ADD1117R,0.0364X0.0001*%
%ADD1118R,0.0363X0.0001*%
%ADD1119R,0.0362X0.0001*%
%ADD1120R,0.0362X0.0001*%
%ADD1121R,0.0362X0.0001*%
%ADD1122R,0.0361X0.0001*%
%ADD1123R,0.0361X0.0001*%
%ADD1124R,0.0361X0.0001*%
%ADD1125R,0.0360X0.0001*%
%ADD1126R,0.0359X0.0001*%
%ADD1127R,0.0359X0.0001*%
%ADD1128R,0.0359X0.0001*%
%ADD1129R,0.0358X0.0001*%
%ADD1130R,0.0358X0.0001*%
%ADD1131R,0.0358X0.0001*%
%ADD1132R,0.0358X0.0001*%
%ADD1133R,0.0357X0.0001*%
%ADD1134R,0.0356X0.0001*%
%ADD1135R,0.0356X0.0001*%
%ADD1136R,0.0356X0.0001*%
%ADD1137R,0.0355X0.0001*%
%ADD1138R,0.0355X0.0001*%
%ADD1139R,0.0355X0.0001*%
%ADD1140R,0.0354X0.0001*%
%ADD1141R,0.0353X0.0001*%
%ADD1142R,0.0353X0.0001*%
%ADD1143R,0.0353X0.0001*%
%ADD1144R,0.0352X0.0001*%
%ADD1145R,0.0352X0.0001*%
%ADD1146R,0.0350X0.0001*%
%ADD1147R,0.0350X0.0001*%
%ADD1148R,0.0349X0.0001*%
%ADD1149R,0.0349X0.0001*%
%ADD1150R,0.0349X0.0001*%
%ADD1151R,0.0348X0.0001*%
%ADD1152R,0.0347X0.0001*%
%ADD1153R,0.0347X0.0001*%
%ADD1154R,0.0347X0.0001*%
%ADD1155R,0.0347X0.0001*%
%ADD1156R,0.0347X0.0001*%
%ADD1157R,0.0346X0.0001*%
%ADD1158R,0.0346X0.0001*%
%ADD1159R,0.0345X0.0001*%
%ADD1160R,0.0345X0.0001*%
%ADD1161R,0.0344X0.0001*%
%ADD1162R,0.0344X0.0001*%
%ADD1163R,0.0343X0.0001*%
%ADD1164R,0.0343X0.0001*%
%ADD1165R,0.0343X0.0001*%
%ADD1166R,0.0342X0.0001*%
%ADD1167R,0.0342X0.0001*%
%ADD1168R,0.0341X0.0001*%
%ADD1169R,0.0341X0.0001*%
%ADD1170R,0.0341X0.0001*%
%ADD1171R,0.0340X0.0001*%
%ADD1172R,0.0340X0.0001*%
%ADD1173R,0.0339X0.0001*%
%ADD1174R,0.0338X0.0001*%
%ADD1175R,0.0338X0.0001*%
%ADD1176R,0.0337X0.0001*%
%ADD1177R,0.0337X0.0001*%
%ADD1178R,0.0337X0.0001*%
%ADD1179R,0.0336X0.0001*%
%ADD1180R,0.0336X0.0001*%
%ADD1181R,0.0335X0.0001*%
%ADD1182R,0.0335X0.0001*%
%ADD1183R,0.0334X0.0001*%
%ADD1184R,0.0334X0.0001*%
%ADD1185R,0.0333X0.0001*%
%ADD1186R,0.0333X0.0001*%
%ADD1187R,0.0332X0.0001*%
%ADD1188R,0.0332X0.0001*%
%ADD1189R,0.0332X0.0001*%
%ADD1190R,0.0331X0.0001*%
%ADD1191R,0.0331X0.0001*%
%ADD1192R,0.0330X0.0001*%
%ADD1193R,0.0330X0.0001*%
%ADD1194R,0.0329X0.0001*%
%ADD1195R,0.0329X0.0001*%
%ADD1196R,0.0329X0.0001*%
%ADD1197R,0.0328X0.0001*%
%ADD1198R,0.0327X0.0001*%
%ADD1199R,0.0326X0.0001*%
%ADD1200R,0.0326X0.0001*%
%ADD1201R,0.0326X0.0001*%
%ADD1202R,0.0326X0.0001*%
%ADD1203R,0.0326X0.0001*%
%ADD1204R,0.0323X0.0001*%
%ADD1205R,0.0323X0.0001*%
%ADD1206R,0.0323X0.0001*%
%ADD1207R,0.0323X0.0001*%
%ADD1208R,0.0323X0.0001*%
%ADD1209R,0.0322X0.0001*%
%ADD1210R,0.0322X0.0001*%
%ADD1211R,0.0321X0.0001*%
%ADD1212R,0.0322X0.0001*%
%ADD1213R,0.0322X0.0001*%
%ADD1214R,0.0320X0.0001*%
%ADD1215R,0.0320X0.0001*%
%ADD1216R,0.0320X0.0001*%
%ADD1217R,0.0319X0.0001*%
%ADD1218R,0.0319X0.0001*%
%ADD1219R,0.0319X0.0001*%
%ADD1220R,0.0318X0.0001*%
%ADD1221R,0.0317X0.0001*%
%ADD1222R,0.0317X0.0001*%
%ADD1223R,0.0317X0.0001*%
%ADD1224R,0.0316X0.0001*%
%ADD1225R,0.0316X0.0001*%
%ADD1226R,0.0315X0.0001*%
%ADD1227R,0.0314X0.0001*%
%ADD1228R,0.0314X0.0001*%
%ADD1229R,0.0314X0.0001*%
%ADD1230R,0.0313X0.0001*%
%ADD1231R,0.0313X0.0001*%
%ADD1232R,0.0312X0.0001*%
%ADD1233R,0.0312X0.0001*%
%ADD1234R,0.0311X0.0001*%
%ADD1235R,0.0311X0.0001*%
%ADD1236R,0.0311X0.0001*%
%ADD1237R,0.0310X0.0001*%
%ADD1238R,0.0309X0.0001*%
%ADD1239R,0.0309X0.0001*%
%ADD1240R,0.0308X0.0001*%
%ADD1241R,0.0308X0.0001*%
%ADD1242R,0.0308X0.0001*%
%ADD1243R,0.0307X0.0001*%
%ADD1244R,0.0307X0.0001*%
%ADD1245R,0.0307X0.0001*%
%ADD1246R,0.0306X0.0001*%
%ADD1247R,0.0305X0.0001*%
%ADD1248R,0.0305X0.0001*%
%ADD1249R,0.0305X0.0001*%
%ADD1250R,0.0304X0.0001*%
%ADD1251R,0.0304X0.0001*%
%ADD1252R,0.0302X0.0001*%
%ADD1253R,0.0302X0.0001*%
%ADD1254R,0.0301X0.0001*%
%ADD1255R,0.0301X0.0001*%
%ADD1256R,0.0300X0.0001*%
%ADD1257R,0.0299X0.0001*%
%ADD1258R,0.0298X0.0001*%
%ADD1259R,0.0298X0.0001*%
%ADD1260R,0.0298X0.0001*%
%ADD1261R,0.0297X0.0001*%
%ADD1262R,0.0296X0.0001*%
%ADD1263R,0.0295X0.0001*%
%ADD1264R,0.0295X0.0001*%
%ADD1265R,0.0294X0.0001*%
%ADD1266R,0.0293X0.0001*%
%ADD1267R,0.0293X0.0001*%
%ADD1268R,0.0292X0.0001*%
%ADD1269R,0.0292X0.0001*%
%ADD1270R,0.0290X0.0001*%
%ADD1271R,0.0288X0.0001*%
%ADD1272R,0.0288X0.0001*%
%ADD1273R,0.0287X0.0001*%
%ADD1274R,0.0287X0.0001*%
%ADD1275R,0.0286X0.0001*%
%ADD1276R,0.0286X0.0001*%
%ADD1277R,0.0285X0.0001*%
%ADD1278R,0.0284X0.0001*%
%ADD1279R,0.0284X0.0001*%
%ADD1280R,0.0283X0.0001*%
%ADD1281R,0.0282X0.0001*%
%ADD1282R,0.0281X0.0001*%
%ADD1283R,0.0280X0.0001*%
%ADD1284R,0.0280X0.0001*%
%ADD1285R,0.0279X0.0001*%
%ADD1286R,0.0278X0.0001*%
%ADD1287R,0.0277X0.0001*%
%ADD1288R,0.0277X0.0001*%
%ADD1289R,0.0275X0.0001*%
%ADD1290R,0.0275X0.0001*%
%ADD1291R,0.0274X0.0001*%
%ADD1292R,0.0275X0.0001*%
%ADD1293R,0.0273X0.0001*%
%ADD1294R,0.0273X0.0001*%
%ADD1295R,0.0272X0.0001*%
%ADD1296R,0.0271X0.0001*%
%ADD1297R,0.0271X0.0001*%
%ADD1298R,0.0270X0.0001*%
%ADD1299R,0.0269X0.0001*%
%ADD1300R,0.0266X0.0001*%
%ADD1301R,0.0265X0.0001*%
%ADD1302R,0.0266X0.0001*%
%ADD1303R,0.0265X0.0001*%
%ADD1304R,0.0263X0.0001*%
%ADD1305R,0.0263X0.0001*%
%ADD1306R,0.0261X0.0001*%
%ADD1307R,0.0261X0.0001*%
%ADD1308R,0.0260X0.0001*%
%ADD1309R,0.0259X0.0001*%
%ADD1310R,0.0259X0.0001*%
%ADD1311R,0.0257X0.0001*%
%ADD1312R,0.0256X0.0001*%
%ADD1313R,0.0256X0.0001*%
%ADD1314R,0.0254X0.0001*%
%ADD1315R,0.0255X0.0001*%
%ADD1316R,0.0254X0.0001*%
%ADD1317R,0.0253X0.0001*%
%ADD1318R,0.0253X0.0001*%
%ADD1319R,0.0253X0.0001*%
%ADD1320R,0.0251X0.0001*%
%ADD1321R,0.0250X0.0001*%
%ADD1322R,0.0250X0.0001*%
%ADD1323R,0.0250X0.0001*%
%ADD1324R,0.0249X0.0001*%
%ADD1325R,0.0248X0.0001*%
%ADD1326R,0.0247X0.0001*%
%ADD1327R,0.0246X0.0001*%
%ADD1328R,0.0246X0.0001*%
%ADD1329R,0.0245X0.0001*%
%ADD1330R,0.0244X0.0001*%
%ADD1331R,0.0242X0.0001*%
%ADD1332R,0.0242X0.0001*%
%ADD1333R,0.0241X0.0001*%
%ADD1334R,0.0241X0.0001*%
%ADD1335R,0.0240X0.0001*%
%ADD1336R,0.0239X0.0001*%
%ADD1337R,0.0238X0.0001*%
%ADD1338R,0.0238X0.0001*%
%ADD1339R,0.0237X0.0001*%
%ADD1340R,0.0236X0.0001*%
%ADD1341R,0.0235X0.0001*%
%ADD1342R,0.0235X0.0001*%
%ADD1343R,0.0235X0.0001*%
%ADD1344R,0.0233X0.0001*%
%ADD1345R,0.0233X0.0001*%
%ADD1346R,0.0232X0.0001*%
%ADD1347R,0.0231X0.0001*%
%ADD1348R,0.0230X0.0001*%
%ADD1349R,0.0229X0.0001*%
%ADD1350R,0.0227X0.0001*%
%ADD1351R,0.0226X0.0001*%
%ADD1352R,0.0226X0.0001*%
%ADD1353R,0.0226X0.0001*%
%ADD1354R,0.0225X0.0001*%
%ADD1355R,0.0224X0.0001*%
%ADD1356R,0.0223X0.0001*%
%ADD1357R,0.0222X0.0001*%
%ADD1358R,0.0220X0.0001*%
%ADD1359R,0.0218X0.0001*%
%ADD1360R,0.0218X0.0001*%
%ADD1361R,0.0218X0.0001*%
%ADD1362R,0.0217X0.0001*%
%ADD1363R,0.0216X0.0001*%
%ADD1364R,0.0214X0.0001*%
%ADD1365R,0.0213X0.0001*%
%ADD1366R,0.0206X0.0001*%
%ADD1367R,0.0204X0.0001*%
%ADD1368R,0.0202X0.0001*%
%ADD1369R,0.0202X0.0001*%
%ADD1370R,0.0202X0.0001*%
%ADD1371R,0.0198X0.0001*%
%ADD1372R,0.0194X0.0001*%
%ADD1373R,0.0194X0.0001*%
%ADD1374R,0.0191X0.0001*%
%ADD1375R,0.0190X0.0001*%
%ADD1376R,0.0189X0.0001*%
%ADD1377R,0.0187X0.0001*%
%ADD1378R,0.0187X0.0001*%
%ADD1379R,0.0187X0.0001*%
%ADD1380R,0.0186X0.0001*%
%ADD1381R,0.0185X0.0001*%
%ADD1382R,0.0184X0.0001*%
%ADD1383R,0.0183X0.0001*%
%ADD1384R,0.0181X0.0001*%
%ADD1385R,0.0179X0.0001*%
%ADD1386R,0.0179X0.0001*%
%ADD1387R,0.0178X0.0001*%
%ADD1388R,0.0177X0.0001*%
%ADD1389R,0.0176X0.0001*%
%ADD1390R,0.0176X0.0001*%
%ADD1391R,0.0175X0.0001*%
%ADD1392R,0.0174X0.0001*%
%ADD1393R,0.0173X0.0001*%
%ADD1394R,0.0172X0.0001*%
%ADD1395R,0.0172X0.0001*%
%ADD1396R,0.0172X0.0001*%
%ADD1397R,0.0171X0.0001*%
%ADD1398R,0.0170X0.0001*%
%ADD1399R,0.0170X0.0001*%
%ADD1400R,0.0169X0.0001*%
%ADD1401R,0.0170X0.0001*%
%ADD1402R,0.0168X0.0001*%
%ADD1403R,0.0168X0.0001*%
%ADD1404R,0.0167X0.0001*%
%ADD1405R,0.0166X0.0001*%
%ADD1406R,0.0165X0.0001*%
%ADD1407R,0.0164X0.0001*%
%ADD1408R,0.0164X0.0001*%
%ADD1409R,0.0164X0.0001*%
%ADD1410R,0.0163X0.0001*%
%ADD1411R,0.0163X0.0001*%
%ADD1412R,0.0163X0.0001*%
%ADD1413R,0.0163X0.0001*%
%ADD1414R,0.0162X0.0001*%
%ADD1415R,0.0160X0.0001*%
%ADD1416R,0.0160X0.0001*%
%ADD1417R,0.0160X0.0001*%
%ADD1418R,0.0158X0.0001*%
%ADD1419R,0.0158X0.0001*%
%ADD1420R,0.0157X0.0001*%
%ADD1421R,0.0157X0.0001*%
%ADD1422R,0.0157X0.0001*%
%ADD1423R,0.0155X0.0001*%
%ADD1424R,0.0155X0.0001*%
%ADD1425R,0.0155X0.0001*%
%ADD1426R,0.0153X0.0001*%
%ADD1427R,0.0152X0.0001*%
%ADD1428R,0.0152X0.0001*%
%ADD1429R,0.0151X0.0001*%
%ADD1430R,0.0149X0.0001*%
%ADD1431R,0.0149X0.0001*%
%ADD1432R,0.0148X0.0001*%
%ADD1433R,0.0147X0.0001*%
%ADD1434R,0.0146X0.0001*%
%ADD1435R,0.0146X0.0001*%
%ADD1436R,0.0146X0.0001*%
%ADD1437R,0.0145X0.0001*%
%ADD1438R,0.0144X0.0001*%
%ADD1439R,0.0143X0.0001*%
%ADD1440R,0.0142X0.0001*%
%ADD1441R,0.0142X0.0001*%
%ADD1442R,0.0142X0.0001*%
%ADD1443R,0.0140X0.0001*%
%ADD1444R,0.0140X0.0001*%
%ADD1445R,0.0138X0.0001*%
%ADD1446R,0.0137X0.0001*%
%ADD1447R,0.0136X0.0001*%
%ADD1448R,0.0134X0.0001*%
%ADD1449R,0.0135X0.0001*%
%ADD1450R,0.0133X0.0001*%
%ADD1451R,0.0133X0.0001*%
%ADD1452R,0.0132X0.0001*%
%ADD1453R,0.0131X0.0001*%
%ADD1454R,0.0130X0.0001*%
%ADD1455R,0.0129X0.0001*%
%ADD1456R,0.0129X0.0001*%
%ADD1457R,0.0128X0.0001*%
%ADD1458R,0.0128X0.0001*%
%ADD1459R,0.0127X0.0001*%
%ADD1460R,0.0127X0.0001*%
%ADD1461R,0.0125X0.0001*%
%ADD1462R,0.0124X0.0001*%
%ADD1463R,0.0122X0.0001*%
%ADD1464R,0.0122X0.0001*%
%ADD1465R,0.0122X0.0001*%
%ADD1466R,0.0121X0.0001*%
%ADD1467R,0.0121X0.0001*%
%ADD1468R,0.0120X0.0001*%
%ADD1469R,0.0119X0.0001*%
%ADD1470R,0.0119X0.0001*%
%ADD1471R,0.0118X0.0001*%
%ADD1472R,0.0118X0.0001*%
%ADD1473R,0.0118X0.0001*%
%ADD1474R,0.0116X0.0001*%
%ADD1475R,0.0116X0.0001*%
%ADD1476R,0.0113X0.0001*%
%ADD1477R,0.0112X0.0001*%
%ADD1478R,0.0111X0.0001*%
%ADD1479R,0.0110X0.0001*%
%ADD1480R,0.0110X0.0001*%
%ADD1481R,0.0110X0.0001*%
%ADD1482R,0.0109X0.0001*%
%ADD1483R,0.0108X0.0001*%
%ADD1484R,0.0107X0.0001*%
%ADD1485R,0.0106X0.0001*%
%ADD1486R,0.0105X0.0001*%
%ADD1487R,0.0103X0.0001*%
%ADD1488R,0.0103X0.0001*%
%ADD1489R,0.0103X0.0001*%
%ADD1490R,0.0103X0.0001*%
%ADD1491R,0.0101X0.0001*%
%ADD1492R,0.0101X0.0001*%
%ADD1493R,0.0101X0.0001*%
%ADD1494R,0.0100X0.0001*%
%ADD1495R,0.0100X0.0001*%
%ADD1496R,0.0100X0.0001*%
%ADD1497R,0.0096X0.0001*%
%ADD1498R,0.0095X0.0001*%
%ADD1499R,0.0095X0.0001*%
%ADD1500R,0.0094X0.0001*%
%ADD1501R,0.0092X0.0001*%
%ADD1502R,0.0091X0.0001*%
%ADD1503R,0.0091X0.0001*%
%ADD1504R,0.0091X0.0001*%
%ADD1505R,0.0091X0.0001*%
%ADD1506R,0.0089X0.0001*%
%ADD1507R,0.0089X0.0001*%
%ADD1508R,0.0089X0.0001*%
%ADD1509R,0.0087X0.0001*%
%ADD1510R,0.0085X0.0001*%
%ADD1511R,0.0085X0.0001*%
%ADD1512R,0.0085X0.0001*%
%ADD1513R,0.0083X0.0001*%
%ADD1514R,0.0083X0.0001*%
%ADD1515R,0.0082X0.0001*%
%ADD1516R,0.0081X0.0001*%
%ADD1517R,0.0081X0.0001*%
%ADD1518R,0.0080X0.0001*%
%ADD1519R,0.0080X0.0001*%
%ADD1520R,0.0079X0.0001*%
%ADD1521R,0.0079X0.0001*%
%ADD1522R,0.0078X0.0001*%
%ADD1523R,0.0078X0.0001*%
%ADD1524R,0.0077X0.0001*%
%ADD1525R,0.0077X0.0001*%
%ADD1526R,0.0077X0.0001*%
%ADD1527R,0.0076X0.0001*%
%ADD1528R,0.0075X0.0001*%
%ADD1529R,0.0076X0.0001*%
%ADD1530R,0.0074X0.0001*%
%ADD1531R,0.0074X0.0001*%
%ADD1532R,0.0074X0.0001*%
%ADD1533R,0.0073X0.0001*%
%ADD1534R,0.0072X0.0001*%
%ADD1535R,0.0070X0.0001*%
%ADD1536R,0.0069X0.0001*%
%ADD1537R,0.0068X0.0001*%
%ADD1538R,0.0068X0.0001*%
%ADD1539R,0.0066X0.0001*%
%ADD1540R,0.0065X0.0001*%
%ADD1541R,0.0065X0.0001*%
%ADD1542R,0.0065X0.0001*%
%ADD1543R,0.0065X0.0001*%
%ADD1544R,0.0063X0.0001*%
%ADD1545R,0.0062X0.0001*%
%ADD1546R,0.0061X0.0001*%
%ADD1547R,0.0061X0.0001*%
%ADD1548R,0.0061X0.0001*%
%ADD1549R,0.0060X0.0001*%
%ADD1550R,0.0059X0.0001*%
%ADD1551R,0.0059X0.0001*%
%ADD1552R,0.0058X0.0001*%
%ADD1553R,0.0056X0.0001*%
%ADD1554R,0.0055X0.0001*%
%ADD1555R,0.0053X0.0001*%
%ADD1556R,0.0053X0.0001*%
%ADD1557R,0.0052X0.0001*%
%ADD1558R,0.0052X0.0001*%
%ADD1559R,0.0052X0.0001*%
%ADD1560R,0.0052X0.0001*%
%ADD1561R,0.0051X0.0001*%
%ADD1562R,0.0051X0.0001*%
%ADD1563R,0.0049X0.0001*%
%ADD1564R,0.0048X0.0001*%
%ADD1565R,0.0047X0.0001*%
%ADD1566R,0.0046X0.0001*%
%ADD1567R,0.0046X0.0001*%
%ADD1568R,0.0040X0.0001*%
%ADD1569R,0.0038X0.0001*%
%ADD1570R,0.0035X0.0001*%
%ADD1571R,0.0028X0.0001*%
%ADD1572R,0.0026X0.0001*%
%ADD1573R,0.0014X0.0001*%
%ADD1574R,0.0011X0.0001*%
%ADD1575R,0.0006X0.0001*%
%ADD1576C,0.0000*%
%ADD1577C,0.0059*%
D10*
X001720Y007304D03*
D11*
X001785Y007334D03*
X001585Y007374D03*
X001575Y007384D03*
X001565Y007394D03*
X001555Y007414D03*
X001545Y007424D03*
X001535Y007444D03*
X001525Y007454D03*
X001515Y007474D03*
X001435Y007444D03*
X001425Y007414D03*
X001415Y007394D03*
X001405Y007374D03*
X001405Y007364D03*
X001395Y007354D03*
X001395Y007344D03*
X001385Y007334D03*
X001375Y007324D03*
X001375Y007314D03*
X001565Y007734D03*
D12*
X001720Y007314D03*
D13*
X001645Y007324D03*
X001585Y007364D03*
X001525Y007614D03*
X001535Y007644D03*
X001545Y007674D03*
X001375Y007674D03*
X001375Y007664D03*
X001365Y007714D03*
X001365Y007724D03*
X001355Y007754D03*
D14*
X001780Y007324D03*
D15*
X001580Y007344D03*
X001530Y007584D03*
D16*
X001520Y007594D03*
X001520Y007604D03*
X001530Y007624D03*
X001530Y007634D03*
X001540Y007654D03*
X001540Y007664D03*
X001550Y007684D03*
X001550Y007694D03*
X001560Y007704D03*
X001560Y007714D03*
X001560Y007724D03*
X001570Y007744D03*
X001460Y007744D03*
X001460Y007754D03*
X001460Y007764D03*
X001460Y007774D03*
X001460Y007784D03*
X001460Y007794D03*
X001460Y007804D03*
X001460Y007814D03*
X001460Y007824D03*
X001460Y007834D03*
X001460Y007844D03*
X001460Y007854D03*
X001460Y007864D03*
X001460Y007734D03*
X001460Y007724D03*
X001460Y007714D03*
X001460Y007704D03*
X001460Y007694D03*
X001460Y007684D03*
X001460Y007674D03*
X001460Y007664D03*
X001460Y007654D03*
X001460Y007644D03*
X001460Y007634D03*
X001460Y007624D03*
X001460Y007614D03*
X001460Y007604D03*
X001460Y007594D03*
X001460Y007584D03*
X001460Y007574D03*
X001460Y007564D03*
X001460Y007554D03*
X001450Y007544D03*
X001450Y007534D03*
X001450Y007524D03*
X001450Y007514D03*
X001450Y007504D03*
X001440Y007474D03*
X001440Y007464D03*
X001440Y007454D03*
X001430Y007434D03*
X001430Y007424D03*
X001420Y007404D03*
X001410Y007384D03*
X001520Y007464D03*
X001540Y007434D03*
X001560Y007404D03*
X001390Y007594D03*
X001390Y007604D03*
X001390Y007614D03*
X001380Y007624D03*
X001380Y007634D03*
X001380Y007644D03*
X001380Y007654D03*
X001370Y007684D03*
X001370Y007694D03*
X001370Y007704D03*
X001360Y007734D03*
X001360Y007744D03*
X001790Y007744D03*
X001790Y007754D03*
X001790Y007764D03*
X001790Y007734D03*
X001790Y007724D03*
X001790Y007714D03*
X001790Y007704D03*
X001790Y007694D03*
X001790Y007684D03*
X001790Y007674D03*
X001790Y007664D03*
X001790Y007654D03*
X001790Y007644D03*
X001790Y007634D03*
X001790Y007624D03*
X001790Y007614D03*
X001790Y007604D03*
X001790Y007594D03*
X001790Y007584D03*
X001790Y007574D03*
X001790Y007564D03*
X001790Y007554D03*
X001790Y007544D03*
X001790Y007534D03*
X001790Y007524D03*
X001790Y007514D03*
X001790Y007504D03*
X001790Y007494D03*
X001790Y007484D03*
X001790Y007474D03*
X001790Y007464D03*
X001790Y007454D03*
X001790Y007444D03*
X001790Y007434D03*
X001790Y007424D03*
X001790Y007414D03*
X001790Y007404D03*
X001790Y007394D03*
X001790Y007384D03*
X001790Y007374D03*
X001790Y007364D03*
X001790Y007354D03*
X001790Y007344D03*
D17*
X001580Y007354D03*
X001500Y007504D03*
D18*
X001475Y007484D03*
D19*
X001475Y007494D03*
D20*
X001505Y007514D03*
X001375Y007584D03*
X001365Y007764D03*
X001555Y007754D03*
D21*
X001770Y007774D03*
X001770Y007784D03*
X001770Y007794D03*
X001770Y007804D03*
X001770Y007814D03*
D22*
X001729Y006039D02*
X001504Y006039D01*
X001504Y005589D01*
X001729Y005589D01*
X001804Y005664D01*
X001804Y005964D01*
X001729Y006039D01*
X001965Y005889D02*
X002115Y006039D01*
X002115Y005589D01*
X001965Y005589D02*
X002265Y005589D01*
X002275Y004914D02*
X002575Y004914D01*
X002575Y004564D01*
X002075Y004414D02*
X001925Y004414D01*
X001425Y004564D02*
X001425Y004914D01*
X001725Y004914D01*
X002100Y003614D02*
X003100Y003614D01*
X003100Y003364D01*
X002100Y003364D01*
X002100Y003614D01*
X002100Y003364D02*
X002100Y001364D01*
X006100Y001364D01*
X006100Y003364D01*
X006100Y003614D01*
X005100Y003614D01*
X005100Y003364D01*
X003100Y003364D01*
X001850Y003314D02*
X001850Y002814D01*
X000750Y002814D01*
X000750Y003314D01*
X001850Y003314D01*
X001850Y002414D02*
X001850Y001914D01*
X000750Y001914D01*
X000750Y002414D01*
X001850Y002414D01*
X004250Y004014D02*
X004250Y004514D01*
X005350Y004514D01*
X005350Y004014D01*
X004250Y004014D01*
X005100Y003364D02*
X006100Y003364D01*
X005750Y004014D02*
X005750Y004514D01*
X006850Y004514D01*
X006850Y004014D01*
X005750Y004014D01*
X004940Y005904D02*
X007578Y005904D01*
X007578Y008424D01*
X004940Y008424D01*
X004940Y005904D01*
X005590Y007006D02*
X006043Y007006D01*
X006043Y006564D01*
X006040Y006564D01*
X006357Y006564D02*
X006360Y006564D01*
X006357Y006564D02*
X006357Y007006D01*
X006810Y007006D01*
X006810Y007321D02*
X006357Y007321D01*
X006357Y007764D01*
X006360Y007764D01*
X006043Y007754D02*
X006040Y007754D01*
X006043Y007754D02*
X006043Y007321D01*
X005590Y007321D01*
X005570Y007164D02*
X005572Y007214D01*
X005578Y007264D01*
X005588Y007313D01*
X005602Y007361D01*
X005619Y007408D01*
X005640Y007453D01*
X005665Y007497D01*
X005693Y007538D01*
X005725Y007577D01*
X005759Y007614D01*
X005796Y007648D01*
X005836Y007678D01*
X005878Y007705D01*
X005922Y007729D01*
X005968Y007750D01*
X006015Y007766D01*
X006063Y007779D01*
X006113Y007788D01*
X006162Y007793D01*
X006213Y007794D01*
X006263Y007791D01*
X006312Y007784D01*
X006361Y007773D01*
X006409Y007758D01*
X006455Y007740D01*
X006500Y007718D01*
X006543Y007692D01*
X006584Y007663D01*
X006623Y007631D01*
X006659Y007596D01*
X006691Y007558D01*
X006721Y007518D01*
X006748Y007475D01*
X006771Y007431D01*
X006790Y007385D01*
X006806Y007337D01*
X006818Y007288D01*
X006826Y007239D01*
X006830Y007189D01*
X006830Y007139D01*
X006826Y007089D01*
X006818Y007040D01*
X006806Y006991D01*
X006790Y006943D01*
X006771Y006897D01*
X006748Y006853D01*
X006721Y006810D01*
X006691Y006770D01*
X006659Y006732D01*
X006623Y006697D01*
X006584Y006665D01*
X006543Y006636D01*
X006500Y006610D01*
X006455Y006588D01*
X006409Y006570D01*
X006361Y006555D01*
X006312Y006544D01*
X006263Y006537D01*
X006213Y006534D01*
X006162Y006535D01*
X006113Y006540D01*
X006063Y006549D01*
X006015Y006562D01*
X005968Y006578D01*
X005922Y006599D01*
X005878Y006623D01*
X005836Y006650D01*
X005796Y006680D01*
X005759Y006714D01*
X005725Y006751D01*
X005693Y006790D01*
X005665Y006831D01*
X005640Y006875D01*
X005619Y006920D01*
X005602Y006967D01*
X005588Y007015D01*
X005578Y007064D01*
X005572Y007114D01*
X005570Y007164D01*
D23*
X005195Y003999D02*
X005232Y003962D01*
X005232Y003926D01*
X005195Y003889D01*
X005232Y003852D01*
X005232Y003815D01*
X005195Y003779D01*
X005122Y003779D01*
X005085Y003815D01*
X005001Y003779D02*
X004928Y003852D01*
X004965Y003852D02*
X004855Y003852D01*
X004855Y003779D02*
X004855Y003999D01*
X004965Y003999D01*
X005001Y003962D01*
X005001Y003889D01*
X004965Y003852D01*
X005085Y003962D02*
X005122Y003999D01*
X005195Y003999D01*
X005195Y003889D02*
X005158Y003889D01*
X006355Y003852D02*
X006465Y003852D01*
X006501Y003889D01*
X006501Y003962D01*
X006465Y003999D01*
X006355Y003999D01*
X006355Y003779D01*
X006428Y003852D02*
X006501Y003779D01*
X006585Y003779D02*
X006732Y003779D01*
X006658Y003779D02*
X006658Y003999D01*
X006585Y003926D01*
X002003Y004929D02*
X001810Y004929D01*
X001906Y004929D02*
X001906Y005219D01*
X001810Y005122D01*
X001708Y005171D02*
X001708Y004977D01*
X001660Y004929D01*
X001563Y004929D01*
X001515Y004977D01*
X001515Y005171D01*
X001563Y005219D01*
X001660Y005219D01*
X001708Y005171D01*
X001612Y005026D02*
X001708Y004929D01*
X001732Y002799D02*
X001585Y002799D01*
X001585Y002689D01*
X001658Y002726D01*
X001695Y002726D01*
X001732Y002689D01*
X001732Y002615D01*
X001695Y002579D01*
X001622Y002579D01*
X001585Y002615D01*
X001501Y002579D02*
X001428Y002652D01*
X001465Y002652D02*
X001355Y002652D01*
X001355Y002579D02*
X001355Y002799D01*
X001465Y002799D01*
X001501Y002762D01*
X001501Y002689D01*
X001465Y002652D01*
X001465Y001899D02*
X001355Y001899D01*
X001355Y001679D01*
X001355Y001752D02*
X001465Y001752D01*
X001501Y001789D01*
X001501Y001862D01*
X001465Y001899D01*
X001428Y001752D02*
X001501Y001679D01*
X001585Y001789D02*
X001732Y001789D01*
X001695Y001679D02*
X001695Y001899D01*
X001585Y001789D01*
D24*
X002650Y005514D02*
X002650Y007014D01*
X002696Y007064D01*
X002744Y007111D01*
X002795Y007155D01*
X002848Y007196D01*
X002904Y007234D01*
X002962Y007269D01*
X003022Y007300D01*
X003084Y007328D01*
X003147Y007352D01*
X003211Y007372D01*
X003277Y007389D01*
X003343Y007402D01*
X003410Y007410D01*
X003477Y007415D01*
X003545Y007416D01*
X003612Y007413D01*
X003679Y007406D01*
X003746Y007395D01*
X003812Y007380D01*
X003877Y007361D01*
X003940Y007338D01*
X004003Y007312D01*
X004063Y007282D01*
X004122Y007249D01*
X004179Y007213D01*
X004233Y007173D01*
X004285Y007130D01*
X004335Y007083D01*
X004381Y007035D01*
X004425Y006983D01*
X004466Y006929D01*
X004503Y006873D01*
X004537Y006815D01*
X004567Y006754D01*
X004594Y006692D01*
X004618Y006629D01*
X004637Y006564D01*
X004653Y006499D01*
X004665Y006432D01*
X004673Y006365D01*
X004677Y006298D01*
X004677Y006230D01*
X004673Y006163D01*
X004665Y006096D01*
X004653Y006029D01*
X004637Y005964D01*
X004618Y005899D01*
X004594Y005836D01*
X004567Y005774D01*
X004537Y005713D01*
X004503Y005655D01*
X004466Y005599D01*
X004425Y005545D01*
X004381Y005493D01*
X004335Y005445D01*
X004285Y005398D01*
X004233Y005355D01*
X004179Y005315D01*
X004122Y005279D01*
X004063Y005246D01*
X004003Y005216D01*
X003940Y005190D01*
X003877Y005167D01*
X003812Y005148D01*
X003746Y005133D01*
X003679Y005122D01*
X003612Y005115D01*
X003545Y005112D01*
X003477Y005113D01*
X003410Y005118D01*
X003343Y005126D01*
X003277Y005139D01*
X003211Y005156D01*
X003147Y005176D01*
X003084Y005200D01*
X003022Y005228D01*
X002962Y005259D01*
X002904Y005294D01*
X002848Y005332D01*
X002795Y005373D01*
X002744Y005417D01*
X002696Y005464D01*
X002650Y005514D01*
D25*
X002702Y005664D02*
X002942Y005664D01*
X003702Y005664D02*
X003942Y005664D01*
X003822Y005784D02*
X003822Y005544D01*
X004370Y006434D02*
X004370Y006589D01*
X004421Y006641D01*
X004525Y006641D01*
X004577Y006589D01*
X004577Y006434D01*
X004680Y006434D02*
X004370Y006434D01*
X004577Y006537D02*
X004680Y006641D01*
X004680Y006756D02*
X004473Y006963D01*
X004421Y006963D01*
X004370Y006911D01*
X004370Y006808D01*
X004421Y006756D01*
X004680Y006756D02*
X004680Y006963D01*
X002734Y001344D02*
X002734Y000884D01*
X002887Y000884D02*
X002580Y000884D01*
X002427Y000884D02*
X002427Y001344D01*
X002580Y001191D02*
X002734Y001344D01*
X002427Y001114D02*
X002120Y001114D01*
X002120Y000884D02*
X002120Y001344D01*
D26*
X001479Y002064D03*
X001479Y002065D03*
X001281Y002494D03*
X001229Y002514D03*
X001158Y002505D03*
X001158Y002505D03*
X001137Y002513D03*
X001083Y002507D03*
X001083Y002506D03*
X001083Y002490D03*
X001020Y002065D03*
X001020Y002064D03*
X000771Y003167D03*
X000771Y003168D03*
X001727Y003167D03*
X001728Y003168D03*
D27*
X001020Y002065D03*
D28*
X001479Y002065D03*
D29*
X001281Y002494D03*
X001281Y002503D03*
X001178Y002512D03*
X001178Y002513D03*
X001137Y002512D03*
X001020Y002066D03*
X000771Y003166D03*
X001727Y003166D03*
D30*
X001479Y002066D03*
D31*
X001282Y002505D03*
X001178Y002511D03*
X001138Y002511D03*
X001138Y002511D03*
X001020Y002067D03*
X000772Y003165D03*
X001726Y003165D03*
D32*
X001726Y003165D03*
X001282Y002503D03*
X001282Y002493D03*
X001229Y002512D03*
X001229Y002513D03*
X001479Y002067D03*
X000772Y003165D03*
D33*
X001020Y002067D03*
D34*
X001138Y002510D03*
X001479Y002067D03*
X001726Y003164D03*
X000772Y003164D03*
D35*
X000773Y003163D03*
X001138Y002509D03*
X001283Y002491D03*
X001478Y002068D03*
X001020Y002068D03*
X001725Y003163D03*
D36*
X001725Y003163D03*
X001725Y003162D03*
X001283Y002506D03*
X001158Y002507D03*
X001138Y002509D03*
X001021Y002068D03*
X001478Y002068D03*
X000774Y003162D03*
X000773Y003163D03*
D37*
X001083Y002510D03*
X001139Y002508D03*
X001284Y002508D03*
X001021Y002069D03*
D38*
X001158Y002508D03*
X001176Y002508D03*
X001478Y002069D03*
D39*
X001333Y002463D03*
X001284Y002490D03*
X001284Y002508D03*
X001266Y002464D03*
X001266Y002464D03*
X001193Y002464D03*
X001139Y002506D03*
X001122Y002463D03*
X001021Y002070D03*
X001021Y002070D03*
X000775Y003159D03*
X000774Y003160D03*
X001724Y003159D03*
X001724Y003160D03*
D40*
X001176Y002507D03*
X001176Y002506D03*
X001478Y002070D03*
X001478Y002070D03*
D41*
X001477Y002071D03*
X001266Y002465D03*
X001284Y002489D03*
X001194Y002467D03*
X001176Y002506D03*
X001140Y002506D03*
X001021Y002071D03*
D42*
X001021Y002071D03*
X001194Y002467D03*
X001194Y002468D03*
X001175Y002505D03*
X001229Y002506D03*
X001477Y002071D03*
X001723Y003156D03*
X000776Y003156D03*
D43*
X001083Y002511D03*
X001175Y002505D03*
X001021Y002072D03*
D44*
X001194Y002470D03*
X001194Y002471D03*
X001175Y002503D03*
X001140Y002503D03*
X001265Y002470D03*
X001265Y002469D03*
X001285Y002511D03*
X001477Y002072D03*
D45*
X001477Y002073D03*
X001285Y002487D03*
X001194Y002470D03*
X001175Y002504D03*
X001022Y002073D03*
X000776Y003155D03*
X001722Y003155D03*
D46*
X001174Y002503D03*
X001141Y002503D03*
X001195Y002472D03*
X001022Y002073D03*
D47*
X001083Y002485D03*
X001120Y002530D03*
X001265Y002471D03*
X001285Y002487D03*
X001285Y002511D03*
X001331Y002466D03*
X001381Y002466D03*
X001381Y002466D03*
X001381Y002467D03*
X001381Y002468D03*
X001381Y002469D03*
X001381Y002470D03*
X001381Y002471D03*
X001381Y002472D03*
X001381Y002464D03*
X001381Y002464D03*
X001381Y002463D03*
X001477Y002073D03*
D48*
X001476Y002074D03*
X001402Y002490D03*
X001402Y002503D03*
X001402Y002521D03*
X001286Y002513D03*
X001264Y002473D03*
X001264Y002473D03*
X001229Y002503D03*
X001195Y002475D03*
X001195Y002475D03*
X001174Y002502D03*
X001158Y002511D03*
X001141Y002502D03*
X001141Y002501D03*
X001120Y002528D03*
X001083Y002512D03*
X001120Y002468D03*
X001022Y002074D03*
X001022Y002074D03*
D49*
X001120Y002467D03*
X001083Y002484D03*
X001120Y002529D03*
X001195Y002473D03*
X001195Y002473D03*
X001229Y002503D03*
X001265Y002472D03*
X001286Y002486D03*
X001286Y002512D03*
X001331Y002466D03*
X001402Y002490D03*
X001381Y002523D03*
X001381Y002524D03*
X001381Y002524D03*
X001381Y002526D03*
X001381Y002526D03*
X001381Y002527D03*
X001381Y002528D03*
X001381Y002529D03*
X001381Y002530D03*
X001381Y002531D03*
X001476Y002074D03*
X001721Y003153D03*
X001722Y003154D03*
X000777Y003153D03*
X000776Y003154D03*
D50*
X000778Y003151D03*
X001119Y002527D03*
X001158Y002512D03*
X001196Y002478D03*
X001264Y002476D03*
X001476Y002075D03*
X001023Y002075D03*
D51*
X001023Y002076D03*
X000882Y002424D03*
X001119Y002470D03*
X001142Y002500D03*
X001196Y002478D03*
X001196Y002477D03*
X001264Y002476D03*
X001287Y002484D03*
X001287Y002514D03*
X001330Y002468D03*
X001616Y002424D03*
X001476Y002076D03*
D52*
X001476Y002076D03*
X001403Y002488D03*
X001287Y002515D03*
X001263Y002478D03*
X001263Y002477D03*
X001229Y002501D03*
X001196Y002479D03*
X001196Y002479D03*
X001173Y002499D03*
X001142Y002499D03*
X001119Y002526D03*
X001023Y002076D03*
X000778Y003150D03*
X000778Y003150D03*
X001720Y003150D03*
X001720Y003150D03*
D53*
X001403Y002521D03*
X001329Y002469D03*
X001287Y002484D03*
X001263Y002478D03*
X001229Y002500D03*
X001119Y002470D03*
X001023Y002077D03*
D54*
X001143Y002499D03*
X001173Y002499D03*
X001197Y002480D03*
X001476Y002077D03*
D55*
X001404Y002487D03*
X001404Y002520D03*
X001329Y002470D03*
X001288Y002482D03*
X001263Y002481D03*
X001229Y002499D03*
X001229Y002500D03*
X001197Y002482D03*
X001197Y002481D03*
X001143Y002497D03*
X001118Y002524D03*
X001288Y002516D03*
X001023Y002077D03*
D56*
X001023Y002078D03*
X001118Y002473D03*
X001118Y002524D03*
X001083Y002515D03*
X001158Y002513D03*
X001197Y002483D03*
X001263Y002481D03*
X001288Y002517D03*
X001329Y002531D03*
X001404Y002486D03*
X001476Y002078D03*
X001476Y002077D03*
X001719Y003147D03*
X001719Y003148D03*
X000780Y003147D03*
X000779Y003148D03*
D57*
X000780Y003145D03*
X001288Y002517D03*
X001475Y002079D03*
X001024Y002079D03*
X001718Y003145D03*
D58*
X001718Y003144D03*
X001405Y002518D03*
X001405Y002484D03*
X001289Y002518D03*
X001262Y002486D03*
X001229Y002496D03*
X001198Y002488D03*
X001171Y002494D03*
X001144Y002494D03*
X001117Y002475D03*
X001117Y002475D03*
X001083Y002481D03*
X001117Y002521D03*
X001117Y002522D03*
X001023Y002080D03*
X001023Y002079D03*
X001475Y002080D03*
X001475Y002079D03*
X000780Y003144D03*
D59*
X001199Y002491D03*
X001024Y002080D03*
D60*
X001083Y002480D03*
X001229Y002495D03*
X001261Y002489D03*
X001406Y002508D03*
X001406Y002517D03*
X001475Y002080D03*
X001716Y003142D03*
X000782Y003142D03*
D61*
X001170Y002493D03*
X001199Y002490D03*
X001199Y002490D03*
X001024Y002081D03*
D62*
X001116Y002476D03*
X001145Y002493D03*
X001116Y002520D03*
X001083Y002517D03*
X001229Y002496D03*
X001261Y002488D03*
X001261Y002488D03*
X001289Y002479D03*
X001327Y002473D03*
X001327Y002527D03*
X001289Y002520D03*
X001406Y002517D03*
X001406Y002508D03*
X001406Y002482D03*
X001475Y002081D03*
X001717Y003142D03*
X000781Y003142D03*
D63*
X001260Y002491D03*
X001024Y002082D03*
D64*
X001145Y002491D03*
X001145Y002492D03*
X001170Y002492D03*
X001170Y002491D03*
X001199Y002493D03*
X001229Y002493D03*
X001229Y002494D03*
X001290Y002521D03*
X001326Y002526D03*
X001326Y002475D03*
X001406Y002481D03*
X001406Y002481D03*
X001406Y002511D03*
X001406Y002511D03*
X001406Y002512D03*
X001406Y002513D03*
X001406Y002514D03*
X001475Y002082D03*
D65*
X001260Y002491D03*
X001116Y002478D03*
X001116Y002519D03*
X001024Y002082D03*
X000782Y003140D03*
X001716Y003140D03*
D66*
X001407Y002480D03*
X001260Y002493D03*
X001146Y002491D03*
X001474Y002082D03*
D67*
X001407Y002479D03*
X001326Y002475D03*
X001290Y002477D03*
X001260Y002492D03*
X001290Y002522D03*
X001326Y002526D03*
X001158Y002516D03*
X001116Y002518D03*
X001116Y002518D03*
X001116Y002479D03*
X001116Y002478D03*
X001024Y002083D03*
X000783Y003139D03*
X001716Y003139D03*
D68*
X001715Y003139D03*
X001407Y002479D03*
X001290Y002476D03*
X001260Y002493D03*
X001260Y002494D03*
X001260Y002494D03*
X001200Y002496D03*
X001200Y002496D03*
X001146Y002490D03*
X001115Y002479D03*
X001025Y002083D03*
X001474Y002083D03*
X001474Y002083D03*
X000783Y003139D03*
D69*
X001259Y002497D03*
X001025Y002084D03*
D70*
X001200Y002499D03*
X001474Y002084D03*
D71*
X001474Y002085D03*
X001291Y002475D03*
X001259Y002497D03*
X001259Y002498D03*
X001291Y002524D03*
X001201Y002500D03*
X001158Y002518D03*
X001114Y002515D03*
X001114Y002481D03*
X001025Y002085D03*
X000784Y003135D03*
X000784Y003135D03*
X000784Y003136D03*
X001714Y003135D03*
X001714Y003135D03*
X001714Y003136D03*
D72*
X001325Y002522D03*
X001325Y002478D03*
X001259Y002499D03*
X001259Y002500D03*
X001201Y002501D03*
X001201Y002502D03*
X001083Y002520D03*
X001083Y002477D03*
X001408Y002475D03*
X001408Y002475D03*
X001474Y002085D03*
X001025Y002085D03*
D73*
X001025Y002086D03*
X001113Y002484D03*
X001202Y002504D03*
X001258Y002502D03*
X001292Y002527D03*
X001324Y002521D03*
X001473Y002086D03*
D74*
X001473Y002086D03*
X001409Y002473D03*
X001324Y002479D03*
X001292Y002526D03*
X001258Y002502D03*
X001202Y002505D03*
X001113Y002513D03*
X001083Y002476D03*
X001025Y002086D03*
X000785Y003133D03*
X000785Y003133D03*
X001713Y003133D03*
X001713Y003133D03*
D75*
X001713Y003132D03*
X001324Y002520D03*
X001293Y002527D03*
X001258Y002503D03*
X001258Y002503D03*
X001293Y002473D03*
X001202Y002505D03*
X001202Y002506D03*
X001409Y002472D03*
X001026Y002087D03*
X000786Y003132D03*
D76*
X001113Y002512D03*
X001113Y002484D03*
X001473Y002087D03*
D77*
X001409Y002472D03*
X001324Y002480D03*
X001202Y002506D03*
X001158Y002519D03*
X001026Y002088D03*
X000786Y003132D03*
X001713Y003132D03*
D78*
X001409Y002470D03*
X001293Y002472D03*
X001258Y002504D03*
X001113Y002512D03*
X001113Y002485D03*
X001473Y002088D03*
D79*
X001410Y002470D03*
X001323Y002481D03*
X001293Y002472D03*
X001257Y002506D03*
X001203Y002508D03*
X001203Y002509D03*
X001158Y002520D03*
X001113Y002511D03*
X001113Y002486D03*
X001083Y002475D03*
X001083Y002521D03*
X001026Y002088D03*
D80*
X001112Y002487D03*
X001203Y002509D03*
X001203Y002511D03*
X001257Y002507D03*
X001294Y002529D03*
X001323Y002518D03*
X001294Y002471D03*
X001410Y002469D03*
X001473Y002089D03*
X001473Y002088D03*
X001712Y003129D03*
X001712Y003130D03*
X000786Y003130D03*
X000786Y003129D03*
D81*
X001026Y002089D03*
D82*
X001026Y002089D03*
X001112Y002509D03*
X001257Y002509D03*
X001257Y002508D03*
X001294Y002530D03*
X001410Y002468D03*
D83*
X001323Y002482D03*
X001323Y002518D03*
X001203Y002511D03*
X001158Y002520D03*
X001083Y002522D03*
X001083Y002475D03*
X001473Y002089D03*
X001711Y003128D03*
X000787Y003128D03*
D84*
X000788Y003127D03*
X001294Y002530D03*
X001256Y002510D03*
X001203Y002514D03*
X001157Y002521D03*
X001026Y002090D03*
X001472Y002090D03*
X001710Y003127D03*
D85*
X001322Y002484D03*
X001204Y002516D03*
X001026Y002091D03*
X001472Y002091D03*
D86*
X001472Y002091D03*
X001608Y002425D03*
X001411Y002466D03*
X001322Y002516D03*
X001294Y002531D03*
X001256Y002511D03*
X001204Y002514D03*
X001204Y002515D03*
X001158Y002521D03*
X001111Y002508D03*
X001111Y002488D03*
X001294Y002469D03*
X001710Y003126D03*
X001710Y003126D03*
X000788Y003126D03*
X000788Y003126D03*
D87*
X000789Y003124D03*
X001083Y002524D03*
X001111Y002506D03*
X001111Y002490D03*
X001158Y002522D03*
X001204Y002518D03*
X001204Y002517D03*
X001255Y002515D03*
X001255Y002514D03*
X001295Y002468D03*
X001321Y002485D03*
X001321Y002515D03*
X001411Y002464D03*
X001027Y002091D03*
X001710Y003124D03*
D88*
X001411Y002465D03*
X001255Y002514D03*
X001230Y002482D03*
X001204Y002517D03*
X001027Y002092D03*
D89*
X001472Y002092D03*
D90*
X001472Y002092D03*
X001412Y002464D03*
X001321Y002514D03*
X001295Y002467D03*
X001255Y002516D03*
X001229Y002481D03*
X001205Y002518D03*
X001083Y002473D03*
X001027Y002092D03*
X000789Y003124D03*
X001709Y003124D03*
D91*
X001709Y003123D03*
X001321Y002486D03*
X001230Y002481D03*
X001205Y002520D03*
X001205Y002520D03*
X001083Y002524D03*
X001027Y002093D03*
X001471Y002093D03*
X000789Y003123D03*
D92*
X001205Y002521D03*
X001229Y002480D03*
X001027Y002094D03*
X001471Y002094D03*
D93*
X001471Y002094D03*
X001296Y002466D03*
X001320Y002487D03*
X001320Y002512D03*
X001254Y002520D03*
X001254Y002520D03*
X001230Y002479D03*
X001206Y002523D03*
X001158Y002523D03*
X001110Y002503D03*
X001110Y002493D03*
X001083Y002472D03*
X001027Y002094D03*
X000790Y003121D03*
X001708Y003121D03*
D94*
X001708Y003120D03*
X001206Y002524D03*
X001206Y002524D03*
X001157Y002524D03*
X001028Y002095D03*
X000790Y003120D03*
D95*
X001109Y002503D03*
X001109Y002494D03*
X001229Y002479D03*
X001254Y002521D03*
X001471Y002095D03*
D96*
X001206Y002525D03*
X001028Y002095D03*
D97*
X001109Y002502D03*
X001230Y002478D03*
X001254Y002523D03*
X001471Y002095D03*
D98*
X001297Y002464D03*
X001319Y002488D03*
X001319Y002511D03*
X001253Y002523D03*
X001253Y002524D03*
X001206Y002527D03*
X001229Y002477D03*
X001109Y002502D03*
X001083Y002526D03*
X001028Y002096D03*
X000791Y003118D03*
X001707Y003118D03*
D99*
X001707Y003118D03*
X001708Y003120D03*
X001320Y002511D03*
X001320Y002488D03*
X001297Y002464D03*
X001230Y002478D03*
X001254Y002522D03*
X001158Y002524D03*
X001109Y002494D03*
X001083Y002471D03*
X001083Y002526D03*
X001471Y002096D03*
X000791Y003118D03*
X000790Y003120D03*
D100*
X000792Y003117D03*
X000792Y003116D03*
X001108Y002500D03*
X001253Y002526D03*
X001319Y002509D03*
X001319Y002490D03*
X001470Y002097D03*
X001028Y002097D03*
X001706Y003116D03*
X001706Y003117D03*
D101*
X001253Y002527D03*
X001108Y002497D03*
X001028Y002097D03*
X001470Y002097D03*
D102*
X001470Y002098D03*
X001318Y002490D03*
X001318Y002508D03*
X001252Y002527D03*
X001252Y002528D03*
X001207Y002531D03*
X001158Y002526D03*
X001108Y002499D03*
X001108Y002497D03*
X001230Y002475D03*
X001029Y002098D03*
X000792Y003115D03*
X001706Y003115D03*
D103*
X001252Y002531D03*
X001252Y002530D03*
X001230Y002473D03*
X001318Y002491D03*
X001318Y002507D03*
X001083Y002528D03*
X001029Y002098D03*
D104*
X001158Y002526D03*
X001470Y002098D03*
X001705Y003112D03*
X000793Y003112D03*
D105*
X000793Y003114D03*
X001252Y002530D03*
X001230Y002474D03*
X001083Y002469D03*
X001029Y002099D03*
X001705Y003114D03*
D106*
X001705Y003112D03*
X001470Y002099D03*
X000794Y003112D03*
D107*
X001318Y002506D03*
X001318Y002492D03*
X001470Y002100D03*
X001029Y002100D03*
D108*
X001029Y002100D03*
X001083Y002467D03*
X000794Y003111D03*
X001704Y003111D03*
D109*
X001317Y002505D03*
X001317Y002493D03*
X001470Y002100D03*
D110*
X001470Y002101D03*
X001230Y002470D03*
X001029Y002101D03*
D111*
X001029Y002101D03*
X001029Y002102D03*
X001316Y002494D03*
X001316Y002503D03*
X001083Y002530D03*
X000795Y003109D03*
X001703Y003109D03*
D112*
X001469Y002102D03*
X001469Y002101D03*
D113*
X001029Y002103D03*
D114*
X001316Y002502D03*
X001469Y002103D03*
D115*
X001469Y002103D03*
X001315Y002496D03*
X001315Y002502D03*
X001230Y002468D03*
X001158Y002529D03*
X001083Y002531D03*
X001083Y002466D03*
X001030Y002104D03*
X001030Y002103D03*
X000796Y003105D03*
X000796Y003105D03*
X001702Y003105D03*
X001702Y003105D03*
D116*
X001469Y002104D03*
D117*
X001315Y002501D03*
X001030Y002104D03*
D118*
X001315Y002497D03*
X001158Y002530D03*
X001468Y002104D03*
X001701Y003103D03*
X000797Y003103D03*
D119*
X001030Y002105D03*
X001469Y002105D03*
D120*
X001230Y002466D03*
X001083Y002464D03*
X001030Y002106D03*
X000798Y003101D03*
X001700Y003101D03*
D121*
X001314Y002499D03*
X001158Y002490D03*
X001158Y002488D03*
X001158Y002488D03*
X001158Y002487D03*
X001158Y002486D03*
X001158Y002485D03*
X001158Y002484D03*
X001158Y002483D03*
X001158Y002482D03*
X001158Y002481D03*
X001158Y002481D03*
X001158Y002479D03*
X001158Y002479D03*
X001158Y002478D03*
X001158Y002477D03*
X001158Y002476D03*
X001158Y002475D03*
X001158Y002475D03*
X001158Y002473D03*
X001158Y002473D03*
X001158Y002472D03*
X001158Y002471D03*
X001158Y002470D03*
X001158Y002469D03*
X001158Y002468D03*
X001158Y002467D03*
X001158Y002466D03*
X001158Y002466D03*
X001158Y002464D03*
X001158Y002464D03*
X001158Y002463D03*
X001158Y002531D03*
X001468Y002106D03*
D122*
X001468Y002106D03*
X001031Y002106D03*
X001083Y002464D03*
X000798Y003102D03*
X001700Y003102D03*
D123*
X001468Y002107D03*
X001031Y002107D03*
D124*
X001031Y002107D03*
X001083Y002463D03*
X001230Y002463D03*
D125*
X001230Y002464D03*
X001230Y002464D03*
X001468Y002107D03*
X001699Y003100D03*
X000799Y003100D03*
D126*
X000799Y003098D03*
X000799Y003097D03*
X001031Y002108D03*
X001699Y003097D03*
X001699Y003098D03*
D127*
X001467Y002108D03*
D128*
X001031Y002109D03*
X000800Y003097D03*
X001698Y003097D03*
D129*
X001468Y002109D03*
D130*
X001467Y002109D03*
X001032Y002110D03*
X001032Y002109D03*
D131*
X001467Y002110D03*
X001697Y003094D03*
X000801Y003094D03*
D132*
X000801Y003095D03*
X001032Y002110D03*
X001467Y002110D03*
X001697Y003095D03*
D133*
X001467Y002111D03*
X001032Y002111D03*
D134*
X001032Y002112D03*
X000802Y003092D03*
X001696Y003092D03*
D135*
X001467Y002112D03*
D136*
X001033Y002112D03*
D137*
X001466Y002112D03*
X001697Y003093D03*
X000801Y003093D03*
D138*
X001033Y002113D03*
D139*
X001466Y002113D03*
X001696Y003091D03*
X000802Y003091D03*
D140*
X001033Y002113D03*
D141*
X001466Y002113D03*
D142*
X001466Y002114D03*
X001033Y002114D03*
D143*
X001033Y002115D03*
X001466Y002115D03*
X001695Y003088D03*
X000803Y003088D03*
D144*
X001033Y002115D03*
D145*
X001466Y002115D03*
D146*
X001033Y002116D03*
X000804Y003085D03*
X001694Y003085D03*
D147*
X001466Y002116D03*
D148*
X001465Y002116D03*
X001033Y002116D03*
X000805Y003085D03*
X001693Y003085D03*
D149*
X001033Y002117D03*
D150*
X001465Y002117D03*
X001693Y003084D03*
X000805Y003084D03*
D151*
X001033Y002118D03*
D152*
X001465Y002118D03*
X001693Y003082D03*
X000806Y003082D03*
D153*
X000806Y003082D03*
X000806Y003081D03*
X001034Y002118D03*
X001465Y002118D03*
X001692Y003081D03*
X001693Y003082D03*
D154*
X001692Y003081D03*
X001034Y002119D03*
X000806Y003081D03*
D155*
X001465Y002119D03*
D156*
X001034Y002119D03*
X000807Y003079D03*
X001691Y003079D03*
D157*
X001691Y003079D03*
X001464Y002119D03*
X000807Y003079D03*
D158*
X001034Y002120D03*
D159*
X001464Y002120D03*
D160*
X001464Y002121D03*
X001464Y002121D03*
X001035Y002121D03*
X001035Y002121D03*
X000808Y003077D03*
X001690Y003077D03*
D161*
X001464Y002122D03*
X001035Y002122D03*
D162*
X001035Y002122D03*
D163*
X001464Y002122D03*
X001689Y003075D03*
X000809Y003075D03*
D164*
X000810Y003073D03*
X001035Y002123D03*
X001464Y002123D03*
X001689Y003073D03*
D165*
X001464Y002124D03*
X001035Y002124D03*
D166*
X001035Y002124D03*
X001035Y002125D03*
X000811Y003070D03*
X000810Y003071D03*
X001687Y003070D03*
X001688Y003071D03*
D167*
X001688Y003072D03*
X001463Y002125D03*
X001463Y002124D03*
X000810Y003072D03*
D168*
X000811Y003070D03*
X001036Y002125D03*
X001687Y003070D03*
D169*
X001463Y002125D03*
D170*
X001036Y002126D03*
X001036Y002127D03*
X001686Y003069D03*
D171*
X001463Y002127D03*
X001463Y002126D03*
X000812Y003069D03*
D172*
X001036Y002127D03*
D173*
X001463Y002127D03*
D174*
X001036Y002128D03*
X000813Y003066D03*
X001685Y003066D03*
D175*
X001462Y002128D03*
D176*
X001462Y002128D03*
X001037Y002128D03*
D177*
X001037Y002129D03*
X001462Y002129D03*
X001685Y003065D03*
X000814Y003065D03*
D178*
X001037Y002130D03*
D179*
X001462Y002130D03*
X001462Y002130D03*
D180*
X001037Y002130D03*
X000814Y003062D03*
X001684Y003062D03*
D181*
X001683Y003061D03*
X001461Y002131D03*
X001037Y002131D03*
X000815Y003061D03*
D182*
X000816Y003060D03*
X001038Y002131D03*
X001461Y002131D03*
X001683Y003060D03*
D183*
X001682Y003060D03*
X001037Y002132D03*
X000816Y003060D03*
D184*
X001461Y002132D03*
D185*
X001461Y002133D03*
X001038Y002133D03*
X000816Y003059D03*
X001682Y003059D03*
D186*
X001682Y003058D03*
X001682Y003058D03*
X001681Y003057D03*
X001038Y002134D03*
X001038Y002133D03*
X000817Y003057D03*
X000816Y003058D03*
X000816Y003058D03*
D187*
X001461Y002133D03*
D188*
X001461Y002134D03*
X001681Y003056D03*
X000817Y003056D03*
D189*
X001038Y002134D03*
X001461Y002134D03*
D190*
X001038Y002135D03*
D191*
X001461Y002135D03*
D192*
X001460Y002136D03*
X001039Y002136D03*
D193*
X001039Y002136D03*
X001460Y002136D03*
X001680Y003053D03*
X000819Y003053D03*
D194*
X001039Y002137D03*
D195*
X001460Y002137D03*
D196*
X001039Y002137D03*
X000820Y003051D03*
X001678Y003051D03*
D197*
X001460Y002137D03*
D198*
X001460Y002138D03*
X001039Y002138D03*
D199*
X001039Y002139D03*
X000821Y003048D03*
X001677Y003048D03*
D200*
X001460Y002139D03*
D201*
X001459Y002139D03*
X001459Y002140D03*
X001039Y002140D03*
X001039Y002139D03*
D202*
X001040Y002140D03*
D203*
X001459Y002140D03*
D204*
X001458Y002142D03*
X001040Y002141D03*
D205*
X001459Y002141D03*
D206*
X001040Y002142D03*
D207*
X001040Y002142D03*
X001459Y002142D03*
D208*
X001459Y002143D03*
X001040Y002143D03*
D209*
X001041Y002143D03*
X001458Y002143D03*
X001674Y003041D03*
X001674Y003042D03*
X000824Y003042D03*
X000824Y003041D03*
D210*
X001041Y002144D03*
D211*
X001458Y002144D03*
D212*
X001458Y002145D03*
X001458Y002145D03*
X001041Y002145D03*
X001041Y002145D03*
X000825Y003039D03*
X001673Y003039D03*
D213*
X001672Y003037D03*
X001041Y002146D03*
X000826Y003037D03*
D214*
X001457Y002146D03*
D215*
X001041Y002146D03*
X000826Y003036D03*
X000826Y003036D03*
X001672Y003036D03*
X001672Y003036D03*
D216*
X001457Y002146D03*
D217*
X001457Y002147D03*
X001041Y002147D03*
D218*
X001042Y002148D03*
D219*
X001457Y002148D03*
X001671Y003035D03*
X000827Y003035D03*
D220*
X001042Y002148D03*
D221*
X001457Y002148D03*
X001671Y003034D03*
X000827Y003034D03*
D222*
X000828Y003033D03*
X001042Y002149D03*
X001457Y002149D03*
X001671Y003033D03*
D223*
X001670Y003031D03*
X001042Y002149D03*
D224*
X001457Y002149D03*
X000828Y003031D03*
D225*
X001042Y002150D03*
X001456Y002150D03*
X001669Y003031D03*
D226*
X001669Y003030D03*
X001670Y003032D03*
X001456Y002151D03*
X001042Y002151D03*
X000828Y003032D03*
D227*
X000829Y003030D03*
X000830Y003028D03*
X001042Y002151D03*
X001456Y002151D03*
X001668Y003028D03*
D228*
X001043Y002152D03*
D229*
X001456Y002152D03*
D230*
X001456Y002152D03*
X001043Y002152D03*
D231*
X001043Y002153D03*
X000831Y003025D03*
X000831Y003026D03*
X000831Y003027D03*
X001667Y003025D03*
D232*
X001668Y003026D03*
X001668Y003027D03*
X001456Y002153D03*
D233*
X001043Y002154D03*
X000831Y003025D03*
X001667Y003025D03*
D234*
X001455Y002154D03*
D235*
X001455Y002154D03*
X001043Y002154D03*
D236*
X001044Y002155D03*
X000832Y003024D03*
X001666Y003024D03*
D237*
X001455Y002155D03*
D238*
X001455Y002155D03*
X001044Y002155D03*
X000833Y003022D03*
X001665Y003022D03*
D239*
X001455Y002156D03*
X001044Y002156D03*
D240*
X001044Y002157D03*
D241*
X001455Y002157D03*
X001665Y003019D03*
X000834Y003019D03*
D242*
X000834Y003020D03*
X001044Y002157D03*
X001455Y002157D03*
X001665Y003020D03*
D243*
X001664Y003019D03*
X001664Y003018D03*
X001454Y002158D03*
X001044Y002158D03*
X000834Y003018D03*
X000834Y003019D03*
D244*
X001454Y002158D03*
D245*
X001044Y002158D03*
D246*
X001044Y002159D03*
X000834Y003018D03*
X001664Y003018D03*
D247*
X001454Y002159D03*
D248*
X001454Y002160D03*
X001045Y002160D03*
X000835Y003016D03*
X000835Y003017D03*
X001663Y003016D03*
X001663Y003017D03*
D249*
X001454Y002160D03*
X001045Y002160D03*
D250*
X001045Y002161D03*
D251*
X001453Y002161D03*
D252*
X001454Y002161D03*
X001045Y002161D03*
X000837Y003013D03*
X001661Y003013D03*
D253*
X001046Y002162D03*
D254*
X001453Y002162D03*
D255*
X001046Y002163D03*
D256*
X001453Y002163D03*
D257*
X001453Y002163D03*
X001046Y002163D03*
X000837Y003012D03*
X001661Y003012D03*
D258*
X001660Y003009D03*
X001046Y002164D03*
X001046Y002164D03*
X000838Y003009D03*
D259*
X001453Y002164D03*
D260*
X001453Y002164D03*
D261*
X001046Y002165D03*
X000839Y003009D03*
X001659Y003009D03*
D262*
X001453Y002165D03*
D263*
X001046Y002166D03*
D264*
X001453Y002166D03*
D265*
X001047Y002166D03*
D266*
X001452Y002166D03*
X001659Y003006D03*
X000840Y003006D03*
D267*
X000840Y003005D03*
X001047Y002167D03*
X001658Y003005D03*
D268*
X001452Y002167D03*
D269*
X001452Y002167D03*
X001047Y002167D03*
X000841Y003004D03*
X001657Y003004D03*
D270*
X001452Y002168D03*
X001047Y002168D03*
D271*
X001047Y002169D03*
X000841Y003003D03*
X001657Y003003D03*
D272*
X001452Y002169D03*
D273*
X001451Y002169D03*
X001048Y002169D03*
D274*
X001047Y002170D03*
X001451Y002170D03*
D275*
X001048Y002170D03*
D276*
X001451Y002170D03*
X001655Y002999D03*
X000843Y002999D03*
D277*
X001048Y002171D03*
D278*
X001451Y002171D03*
D279*
X001048Y002172D03*
D280*
X001451Y002172D03*
X001655Y002998D03*
X000844Y002998D03*
D281*
X000844Y002997D03*
X001048Y002172D03*
X001451Y002172D03*
X001654Y002997D03*
D282*
X001048Y002173D03*
D283*
X001450Y002173D03*
X001450Y002173D03*
X001653Y002994D03*
X001653Y002995D03*
X000845Y002995D03*
X000845Y002994D03*
D284*
X001048Y002173D03*
D285*
X001048Y002174D03*
D286*
X001450Y002174D03*
X001653Y002994D03*
X000845Y002994D03*
D287*
X000846Y002992D03*
X001049Y002175D03*
X001049Y002175D03*
X001449Y002175D03*
X001652Y002992D03*
D288*
X001653Y002993D03*
X001450Y002175D03*
X000846Y002993D03*
D289*
X000846Y002992D03*
X001049Y002176D03*
D290*
X001450Y002176D03*
X001652Y002992D03*
D291*
X001651Y002991D03*
X001049Y002176D03*
X000847Y002991D03*
X000846Y002991D03*
D292*
X001450Y002176D03*
D293*
X001449Y002177D03*
X001050Y002177D03*
X000847Y002989D03*
X000847Y002989D03*
X001651Y002989D03*
X001651Y002989D03*
D294*
X001449Y002178D03*
X001050Y002178D03*
D295*
X001050Y002178D03*
X001050Y002179D03*
D296*
X001449Y002179D03*
X001449Y002178D03*
D297*
X001050Y002179D03*
D298*
X001448Y002179D03*
X001648Y002983D03*
X001649Y002985D03*
X000850Y002983D03*
X000850Y002985D03*
D299*
X001050Y002180D03*
D300*
X001449Y002180D03*
D301*
X001050Y002181D03*
D302*
X001050Y002181D03*
X001448Y002181D03*
X001448Y002181D03*
D303*
X001050Y002182D03*
D304*
X001448Y002182D03*
D305*
X001051Y002183D03*
X001051Y002182D03*
D306*
X001448Y002183D03*
X001448Y002182D03*
X001647Y002980D03*
X000852Y002980D03*
D307*
X000852Y002979D03*
X001051Y002184D03*
X001447Y002184D03*
X001646Y002979D03*
D308*
X001645Y002977D03*
X001447Y002184D03*
X001051Y002184D03*
X000853Y002977D03*
D309*
X000853Y002976D03*
X001051Y002185D03*
X001645Y002976D03*
D310*
X001644Y002976D03*
X001447Y002185D03*
X001052Y002186D03*
X000854Y002976D03*
D311*
X001052Y002185D03*
X001447Y002185D03*
D312*
X001447Y002186D03*
X001447Y002187D03*
X001644Y002974D03*
X000854Y002974D03*
D313*
X001052Y002187D03*
D314*
X001052Y002187D03*
X000855Y002973D03*
X001643Y002973D03*
D315*
X001447Y002187D03*
D316*
X001052Y002188D03*
X001052Y002188D03*
X000855Y002971D03*
X001643Y002971D03*
D317*
X001446Y002188D03*
X001446Y002188D03*
D318*
X001052Y002189D03*
X000857Y002969D03*
X001641Y002969D03*
D319*
X001446Y002189D03*
D320*
X001446Y002190D03*
X001053Y002190D03*
X000857Y002968D03*
X001641Y002968D03*
D321*
X001640Y002967D03*
X001053Y002190D03*
X000858Y002967D03*
D322*
X000857Y002968D03*
X001446Y002190D03*
X001641Y002968D03*
D323*
X001641Y002967D03*
X001446Y002191D03*
X001053Y002191D03*
X000858Y002967D03*
D324*
X001053Y002191D03*
X001445Y002192D03*
X001445Y002191D03*
D325*
X001053Y002192D03*
D326*
X001053Y002193D03*
X001445Y002193D03*
X001639Y002964D03*
X000859Y002964D03*
D327*
X001054Y002194D03*
X001054Y002193D03*
D328*
X001445Y002194D03*
X001445Y002193D03*
D329*
X001054Y002194D03*
D330*
X001444Y002194D03*
X001638Y002961D03*
X000861Y002961D03*
D331*
X000861Y002960D03*
X001054Y002195D03*
X001637Y002960D03*
D332*
X001445Y002195D03*
D333*
X001054Y002196D03*
X000861Y002959D03*
X001637Y002959D03*
D334*
X001637Y002959D03*
X001444Y002196D03*
X001444Y002196D03*
X001055Y002196D03*
X000861Y002959D03*
D335*
X000862Y002958D03*
X001054Y002197D03*
X001444Y002197D03*
X001636Y002958D03*
D336*
X001635Y002955D03*
X001055Y002197D03*
X000863Y002955D03*
D337*
X000863Y002956D03*
X001444Y002197D03*
X001635Y002956D03*
D338*
X001635Y002955D03*
X001444Y002198D03*
X001055Y002198D03*
X000864Y002955D03*
D339*
X000864Y002954D03*
X001055Y002199D03*
X001444Y002199D03*
X001634Y002954D03*
D340*
X001634Y002953D03*
X001055Y002199D03*
D341*
X001444Y002199D03*
D342*
X001056Y002200D03*
D343*
X001443Y002200D03*
D344*
X001056Y002200D03*
D345*
X001443Y002200D03*
D346*
X001056Y002201D03*
X001056Y002202D03*
D347*
X001443Y002202D03*
X001443Y002201D03*
X001633Y002950D03*
X000866Y002950D03*
D348*
X000867Y002949D03*
X001056Y002202D03*
X001443Y002202D03*
X001632Y002949D03*
D349*
X001632Y002948D03*
X001443Y002203D03*
X001056Y002203D03*
X000867Y002948D03*
D350*
X001056Y002203D03*
X001443Y002203D03*
D351*
X001056Y002204D03*
D352*
X001442Y002204D03*
D353*
X001056Y002205D03*
X000868Y002946D03*
X001631Y002946D03*
D354*
X001442Y002205D03*
D355*
X001442Y002205D03*
X001057Y002205D03*
X000869Y002944D03*
X001630Y002944D03*
D356*
X001057Y002206D03*
D357*
X001442Y002206D03*
D358*
X001057Y002206D03*
X000869Y002942D03*
X001629Y002942D03*
D359*
X001442Y002206D03*
D360*
X001441Y002207D03*
X001057Y002207D03*
X000870Y002941D03*
X001629Y002941D03*
D361*
X001628Y002941D03*
X001058Y002208D03*
X000870Y002941D03*
D362*
X001441Y002208D03*
D363*
X001057Y002208D03*
X000871Y002940D03*
X001627Y002940D03*
D364*
X001441Y002208D03*
D365*
X001441Y002209D03*
X001547Y002427D03*
X001627Y002938D03*
X000951Y002427D03*
X001058Y002209D03*
X000871Y002938D03*
D366*
X000872Y002937D03*
X001058Y002209D03*
X001626Y002937D03*
D367*
X001627Y002938D03*
X001441Y002209D03*
X000871Y002938D03*
D368*
X000872Y002937D03*
X001058Y002210D03*
X001626Y002937D03*
D369*
X001441Y002210D03*
D370*
X001058Y002211D03*
X001058Y002211D03*
X001625Y002935D03*
D371*
X001440Y002211D03*
X001440Y002211D03*
D372*
X001059Y002212D03*
X000873Y002934D03*
X001625Y002934D03*
D373*
X001440Y002212D03*
D374*
X001440Y002212D03*
X001059Y002212D03*
X001059Y002213D03*
X000874Y002933D03*
X001625Y002933D03*
D375*
X001624Y002932D03*
X001624Y002931D03*
X001440Y002213D03*
X000874Y002931D03*
X000874Y002932D03*
D376*
X001059Y002214D03*
X001440Y002214D03*
D377*
X001440Y002214D03*
X001059Y002214D03*
D378*
X001059Y002215D03*
X000876Y002928D03*
X000875Y002929D03*
X001622Y002928D03*
X001623Y002929D03*
D379*
X001439Y002215D03*
D380*
X001059Y002215D03*
D381*
X001439Y002215D03*
D382*
X001060Y002216D03*
X001060Y002217D03*
D383*
X001439Y002217D03*
X001439Y002216D03*
X001621Y002925D03*
X001621Y002926D03*
X000877Y002925D03*
X000877Y002926D03*
D384*
X000878Y002924D03*
X001060Y002217D03*
X001438Y002217D03*
X001620Y002924D03*
D385*
X001438Y002218D03*
X001060Y002218D03*
D386*
X001060Y002218D03*
X001619Y002922D03*
D387*
X001438Y002218D03*
X000879Y002922D03*
D388*
X001060Y002219D03*
D389*
X001438Y002219D03*
D390*
X001438Y002220D03*
X001061Y002220D03*
D391*
X001061Y002220D03*
D392*
X001438Y002220D03*
X001619Y002921D03*
X000879Y002921D03*
D393*
X001061Y002221D03*
D394*
X001438Y002221D03*
X001619Y002920D03*
X000879Y002920D03*
D395*
X001061Y002222D03*
X001061Y002221D03*
D396*
X001438Y002221D03*
X001438Y002222D03*
D397*
X001061Y002223D03*
D398*
X001437Y002223D03*
X001617Y002917D03*
D399*
X001616Y002914D03*
X001437Y002223D03*
X001062Y002223D03*
X000882Y002914D03*
D400*
X001062Y002224D03*
X001062Y002224D03*
X001437Y002224D03*
X001437Y002224D03*
D401*
X001437Y002225D03*
X001062Y002225D03*
D402*
X001062Y002226D03*
X001062Y002226D03*
X001249Y002427D03*
X001437Y002226D03*
X001437Y002226D03*
X001615Y002912D03*
X000883Y002912D03*
D403*
X001063Y002227D03*
X001436Y002227D03*
D404*
X001436Y002228D03*
X001063Y002227D03*
D405*
X001436Y002227D03*
X001614Y002910D03*
X001614Y002910D03*
X000885Y002910D03*
X000885Y002910D03*
D406*
X001063Y002228D03*
D407*
X001063Y002229D03*
D408*
X001436Y002229D03*
X001613Y002909D03*
X000885Y002909D03*
D409*
X001063Y002230D03*
X001063Y002229D03*
X001435Y002230D03*
X001435Y002229D03*
D410*
X001063Y002230D03*
D411*
X001435Y002230D03*
X001611Y002904D03*
X000888Y002904D03*
D412*
X000888Y002903D03*
X001064Y002232D03*
X001064Y002231D03*
X001435Y002232D03*
X001435Y002231D03*
X001610Y002903D03*
D413*
X001064Y002232D03*
D414*
X001434Y002232D03*
X001610Y002902D03*
X000888Y002902D03*
D415*
X000889Y002901D03*
X001249Y002426D03*
X001064Y002233D03*
X001435Y002233D03*
X001609Y002901D03*
D416*
X001609Y002899D03*
X001064Y002233D03*
X000890Y002899D03*
D417*
X001434Y002233D03*
D418*
X001434Y002234D03*
X001065Y002234D03*
D419*
X001065Y002235D03*
X001434Y002235D03*
D420*
X001065Y002235D03*
X000959Y002463D03*
X001608Y002897D03*
D421*
X001434Y002235D03*
D422*
X001065Y002236D03*
D423*
X001434Y002236D03*
D424*
X001434Y002236D03*
X001434Y002237D03*
X001065Y002237D03*
X001065Y002236D03*
X000959Y002464D03*
X000892Y002895D03*
X001606Y002895D03*
D425*
X001433Y002238D03*
X001065Y002238D03*
D426*
X001065Y002238D03*
X000960Y002466D03*
X000893Y002892D03*
X001433Y002238D03*
X001605Y002892D03*
D427*
X001605Y002891D03*
X001249Y002425D03*
X001066Y002239D03*
X000894Y002891D03*
D428*
X001433Y002239D03*
D429*
X001066Y002239D03*
X000894Y002890D03*
X001604Y002890D03*
D430*
X001433Y002239D03*
D431*
X001066Y002240D03*
D432*
X001433Y002240D03*
X001604Y002889D03*
X000894Y002889D03*
D433*
X001066Y002241D03*
D434*
X000960Y002468D03*
X001433Y002241D03*
D435*
X001432Y002241D03*
X001066Y002241D03*
X000961Y002469D03*
D436*
X000961Y002470D03*
X001066Y002242D03*
X001432Y002242D03*
D437*
X001249Y002424D03*
X001066Y002242D03*
D438*
X001432Y002242D03*
D439*
X001067Y002243D03*
X000962Y002472D03*
X000897Y002883D03*
X000897Y002884D03*
X000897Y002884D03*
X001601Y002884D03*
X001602Y002884D03*
X001601Y002883D03*
D440*
X001432Y002243D03*
D441*
X001067Y002244D03*
D442*
X001432Y002244D03*
D443*
X001431Y002245D03*
X001067Y002245D03*
X001067Y002244D03*
X000962Y002473D03*
D444*
X001431Y002244D03*
D445*
X001431Y002245D03*
X001068Y002245D03*
X000963Y002474D03*
D446*
X001068Y002246D03*
X001431Y002246D03*
D447*
X001534Y002463D03*
X001068Y002247D03*
X000963Y002475D03*
D448*
X000899Y002880D03*
X000899Y002880D03*
X001431Y002247D03*
X001599Y002880D03*
X001599Y002880D03*
D449*
X001068Y002247D03*
D450*
X001431Y002247D03*
X001599Y002879D03*
X000899Y002879D03*
D451*
X000900Y002878D03*
X001068Y002248D03*
X001533Y002464D03*
X001533Y002464D03*
X001598Y002878D03*
D452*
X001598Y002877D03*
X001431Y002248D03*
X000955Y002531D03*
X000900Y002877D03*
D453*
X000955Y002530D03*
X000956Y002529D03*
X000964Y002477D03*
X001069Y002248D03*
X001430Y002248D03*
X001533Y002466D03*
D454*
X001430Y002249D03*
X001069Y002249D03*
X000955Y002530D03*
X000901Y002875D03*
X001597Y002875D03*
D455*
X001069Y002250D03*
D456*
X001430Y002250D03*
X001533Y002466D03*
X001597Y002874D03*
X001597Y002875D03*
X000901Y002875D03*
X000901Y002874D03*
D457*
X000902Y002873D03*
X000903Y002872D03*
X000957Y002527D03*
X000957Y002526D03*
X000964Y002479D03*
X001069Y002250D03*
X001533Y002467D03*
X001596Y002872D03*
X001596Y002873D03*
D458*
X001430Y002250D03*
D459*
X001430Y002251D03*
X001069Y002251D03*
D460*
X001069Y002251D03*
X001430Y002251D03*
X001532Y002468D03*
X001595Y002871D03*
X000903Y002871D03*
D461*
X000904Y002869D03*
X000904Y002869D03*
X000959Y002523D03*
X001069Y002252D03*
X001594Y002869D03*
X001594Y002869D03*
D462*
X001532Y002470D03*
X001430Y002252D03*
X000965Y002481D03*
X000958Y002524D03*
D463*
X000959Y002523D03*
X001069Y002253D03*
X001429Y002253D03*
X001531Y002470D03*
D464*
X001531Y002471D03*
X001429Y002253D03*
X001069Y002253D03*
X000965Y002481D03*
X000958Y002524D03*
X000904Y002868D03*
X001594Y002868D03*
D465*
X001592Y002865D03*
X001531Y002473D03*
X001429Y002254D03*
X001429Y002254D03*
X001070Y002254D03*
X001070Y002254D03*
X000966Y002483D03*
X000960Y002520D03*
X000960Y002520D03*
X000906Y002865D03*
D466*
X001070Y002255D03*
D467*
X000961Y002519D03*
X001429Y002255D03*
X001531Y002474D03*
D468*
X001429Y002256D03*
X001070Y002256D03*
X000961Y002518D03*
D469*
X001070Y002256D03*
X001429Y002256D03*
D470*
X001070Y002257D03*
X000966Y002485D03*
X000962Y002517D03*
X000907Y002862D03*
X001591Y002862D03*
D471*
X001428Y002257D03*
D472*
X001530Y002476D03*
X001591Y002862D03*
X001071Y002257D03*
X000907Y002862D03*
D473*
X000908Y002861D03*
X000967Y002487D03*
X001071Y002258D03*
X001428Y002258D03*
X001428Y002257D03*
X001530Y002477D03*
X001590Y002861D03*
D474*
X001071Y002259D03*
D475*
X000964Y002514D03*
X001428Y002259D03*
D476*
X001428Y002259D03*
X001428Y002260D03*
X001530Y002479D03*
X001589Y002858D03*
X001071Y002260D03*
X001071Y002259D03*
X000967Y002488D03*
X000964Y002512D03*
X000964Y002513D03*
X000909Y002858D03*
D477*
X001071Y002260D03*
X001529Y002480D03*
D478*
X001427Y002260D03*
X000968Y002489D03*
X000964Y002512D03*
D479*
X000965Y002509D03*
X000968Y002490D03*
X001071Y002261D03*
X001427Y002262D03*
X001529Y002482D03*
D480*
X001427Y002261D03*
X000968Y002490D03*
X000964Y002511D03*
D481*
X001072Y002262D03*
D482*
X001072Y002262D03*
D483*
X000968Y002491D03*
X001427Y002262D03*
D484*
X001072Y002263D03*
X000969Y002492D03*
D485*
X000967Y002507D03*
X001072Y002263D03*
X001426Y002263D03*
X001426Y002263D03*
X001586Y002852D03*
X000912Y002852D03*
D486*
X000969Y002493D03*
X001072Y002264D03*
D487*
X000967Y002506D03*
X001426Y002264D03*
D488*
X001249Y002421D03*
X001073Y002265D03*
X001073Y002265D03*
X000969Y002494D03*
X000969Y002494D03*
X000968Y002505D03*
X000914Y002848D03*
X000913Y002850D03*
X001584Y002848D03*
X001585Y002850D03*
D489*
X001528Y002487D03*
X001426Y002265D03*
X001426Y002265D03*
D490*
X001426Y002266D03*
X001527Y002487D03*
X001530Y002508D03*
X001585Y002849D03*
X001073Y002266D03*
X000970Y002495D03*
X000968Y002504D03*
X000913Y002849D03*
D491*
X001073Y002266D03*
X001530Y002508D03*
D492*
X001530Y002509D03*
X001530Y002509D03*
X001530Y002511D03*
X001530Y002507D03*
X001530Y002506D03*
X001425Y002266D03*
X000970Y002496D03*
X000968Y002503D03*
D493*
X000970Y002501D03*
X001073Y002267D03*
X001425Y002267D03*
X001529Y002503D03*
X001531Y002515D03*
X001583Y002845D03*
X000915Y002845D03*
D494*
X000915Y002845D03*
X001073Y002268D03*
X001425Y002268D03*
X001527Y002489D03*
X001529Y002502D03*
X001529Y002504D03*
X001531Y002517D03*
X001583Y002845D03*
D495*
X001582Y002844D03*
X001531Y002520D03*
X001531Y002518D03*
X001531Y002518D03*
X001529Y002503D03*
X001249Y002421D03*
X001074Y002268D03*
X000970Y002500D03*
X000916Y002844D03*
D496*
X001425Y002268D03*
X001528Y002501D03*
X001530Y002520D03*
D497*
X001527Y002500D03*
X001425Y002269D03*
X001074Y002269D03*
X001074Y002269D03*
X000917Y002842D03*
X001581Y002842D03*
D498*
X001581Y002841D03*
X001530Y002522D03*
X001530Y002521D03*
X001527Y002499D03*
X001526Y002491D03*
X001425Y002269D03*
X000917Y002841D03*
D499*
X001074Y002270D03*
X001425Y002270D03*
X001525Y002493D03*
D500*
X001425Y002271D03*
X001074Y002271D03*
X000918Y002841D03*
D501*
X000919Y002839D03*
X001074Y002271D03*
X001425Y002271D03*
X001579Y002839D03*
D502*
X001579Y002838D03*
X001074Y002272D03*
X000919Y002838D03*
D503*
X001424Y002272D03*
D504*
X001424Y002272D03*
X001525Y002494D03*
X001579Y002837D03*
X001075Y002272D03*
X000919Y002837D03*
D505*
X000920Y002836D03*
X001074Y002273D03*
X001424Y002273D03*
X001524Y002496D03*
X001578Y002836D03*
D506*
X001075Y002274D03*
D507*
X001424Y002274D03*
D508*
X001424Y002274D03*
X001524Y002496D03*
X001578Y002835D03*
X001075Y002275D03*
X001075Y002274D03*
X000920Y002835D03*
D509*
X001423Y002275D03*
D510*
X001423Y002275D03*
X001075Y002275D03*
D511*
X001075Y002276D03*
X001423Y002276D03*
X001528Y002527D03*
D512*
X001076Y002277D03*
D513*
X001423Y002277D03*
X001528Y002528D03*
X001575Y002830D03*
X001576Y002831D03*
X001576Y002832D03*
X000923Y002830D03*
X000922Y002831D03*
X000922Y002832D03*
D514*
X001076Y002277D03*
X001423Y002277D03*
D515*
X001422Y002278D03*
X001076Y002278D03*
X001076Y002278D03*
X000924Y002828D03*
X001575Y002828D03*
D516*
X001575Y002829D03*
X001423Y002278D03*
X000923Y002829D03*
D517*
X001076Y002279D03*
D518*
X001422Y002279D03*
X001574Y002827D03*
X000924Y002827D03*
D519*
X001077Y002280D03*
X001077Y002280D03*
X001422Y002280D03*
D520*
X001422Y002280D03*
X001574Y002826D03*
X001574Y002826D03*
X000924Y002826D03*
X000924Y002826D03*
D521*
X001077Y002281D03*
X001422Y002281D03*
D522*
X001422Y002281D03*
X001077Y002281D03*
X000926Y002823D03*
X000926Y002824D03*
X001573Y002824D03*
X001573Y002823D03*
D523*
X001572Y002822D03*
X001572Y002821D03*
X001422Y002282D03*
X001077Y002282D03*
X000927Y002821D03*
X000927Y002822D03*
D524*
X001078Y002283D03*
D525*
X001421Y002283D03*
D526*
X001078Y002284D03*
X001078Y002283D03*
X000928Y002820D03*
D527*
X001421Y002284D03*
X001421Y002283D03*
X001571Y002820D03*
D528*
X001570Y002818D03*
X001570Y002818D03*
X001078Y002284D03*
X000928Y002818D03*
X000928Y002818D03*
D529*
X001421Y002284D03*
D530*
X001078Y002285D03*
X000929Y002817D03*
X001569Y002817D03*
D531*
X001421Y002285D03*
D532*
X001421Y002286D03*
X001078Y002286D03*
X000929Y002816D03*
X001569Y002816D03*
D533*
X001568Y002815D03*
X001568Y002814D03*
X001078Y002286D03*
X000930Y002814D03*
X000930Y002815D03*
D534*
X001420Y002286D03*
D535*
X001078Y002287D03*
D536*
X001420Y002287D03*
D537*
X001420Y002287D03*
X001079Y002287D03*
X000931Y002813D03*
X001567Y002813D03*
D538*
X001420Y002288D03*
X001079Y002288D03*
D539*
X001079Y002289D03*
D540*
X001420Y002289D03*
D541*
X001079Y002289D03*
D542*
X001420Y002289D03*
X001566Y002811D03*
X001566Y002811D03*
X000932Y002811D03*
X000932Y002811D03*
D543*
X001079Y002290D03*
D544*
X001419Y002290D03*
X001565Y002808D03*
X001565Y002809D03*
X000933Y002809D03*
X000933Y002808D03*
D545*
X001079Y002290D03*
D546*
X001419Y002290D03*
D547*
X001079Y002291D03*
D548*
X001080Y002292D03*
X001419Y002292D03*
X001419Y002291D03*
D549*
X001419Y002292D03*
X001080Y002292D03*
X000934Y002806D03*
X001564Y002806D03*
D550*
X001564Y002805D03*
X001419Y002293D03*
X001080Y002293D03*
X000935Y002805D03*
D551*
X001080Y002293D03*
D552*
X001419Y002293D03*
D553*
X001418Y002294D03*
X001080Y002294D03*
D554*
X001080Y002295D03*
X001080Y002295D03*
X001418Y002295D03*
X001562Y002801D03*
X000936Y002801D03*
D555*
X000936Y002802D03*
X000936Y002803D03*
X001418Y002295D03*
X001562Y002802D03*
X001563Y002803D03*
D556*
X001561Y002800D03*
X001081Y002296D03*
X000937Y002800D03*
D557*
X001418Y002296D03*
D558*
X001418Y002296D03*
X001418Y002297D03*
X001081Y002297D03*
X001081Y002296D03*
X000937Y002799D03*
X000937Y002800D03*
X001561Y002800D03*
X001561Y002799D03*
D559*
X001081Y002298D03*
D560*
X001417Y002298D03*
D561*
X001417Y002298D03*
X001081Y002298D03*
X000939Y002796D03*
X000939Y002796D03*
X001559Y002796D03*
X001560Y002796D03*
D562*
X001082Y002299D03*
D563*
X001417Y002299D03*
D564*
X001082Y002299D03*
X000940Y002794D03*
X000940Y002794D03*
X001558Y002794D03*
X001558Y002794D03*
D565*
X001417Y002299D03*
D566*
X001416Y002300D03*
X001082Y002300D03*
X000941Y002793D03*
X001558Y002793D03*
D567*
X001557Y002791D03*
X001082Y002301D03*
X001082Y002301D03*
X000941Y002791D03*
D568*
X001416Y002301D03*
X001416Y002301D03*
D569*
X001416Y002302D03*
X001083Y002302D03*
D570*
X001082Y002302D03*
X000942Y002790D03*
X000942Y002790D03*
X001556Y002790D03*
X001556Y002790D03*
D571*
X001416Y002302D03*
D572*
X001416Y002303D03*
X001083Y002303D03*
D573*
X001083Y002304D03*
X000943Y002787D03*
X001555Y002787D03*
D574*
X001416Y002304D03*
D575*
X001083Y002304D03*
D576*
X001416Y002304D03*
X001554Y002786D03*
X000944Y002786D03*
D577*
X001083Y002305D03*
D578*
X001416Y002305D03*
D579*
X001083Y002305D03*
D580*
X001415Y002305D03*
D581*
X001083Y002306D03*
X001554Y002785D03*
D582*
X001554Y002784D03*
X001415Y002306D03*
X000945Y002784D03*
D583*
X001084Y002307D03*
X001415Y002307D03*
D584*
X001415Y002307D03*
X001084Y002307D03*
X000946Y002782D03*
X001552Y002782D03*
D585*
X001552Y002781D03*
X001249Y002415D03*
X001084Y002308D03*
X001415Y002308D03*
X000946Y002781D03*
D586*
X001084Y002308D03*
D587*
X001415Y002308D03*
X001552Y002781D03*
X000946Y002781D03*
D588*
X001084Y002309D03*
X001415Y002309D03*
D589*
X001414Y002310D03*
X001084Y002310D03*
X000948Y002778D03*
X001551Y002778D03*
D590*
X001550Y002777D03*
X001085Y002310D03*
X000948Y002777D03*
D591*
X001414Y002310D03*
D592*
X001414Y002311D03*
X001085Y002311D03*
D593*
X001085Y002311D03*
X001085Y002312D03*
D594*
X001414Y002312D03*
X001414Y002311D03*
D595*
X001413Y002313D03*
X001085Y002313D03*
D596*
X001085Y002313D03*
X001413Y002313D03*
X001548Y002773D03*
X000950Y002773D03*
D597*
X000951Y002772D03*
X001249Y002415D03*
X001086Y002314D03*
X001548Y002772D03*
D598*
X001548Y002773D03*
X001413Y002314D03*
X000950Y002773D03*
D599*
X000951Y002771D03*
X001086Y002314D03*
X001547Y002771D03*
D600*
X001413Y002314D03*
D601*
X001086Y002315D03*
D602*
X001413Y002315D03*
X001546Y002769D03*
X000952Y002769D03*
D603*
X000952Y002768D03*
X001086Y002316D03*
X001413Y002316D03*
X001546Y002768D03*
D604*
X001545Y002767D03*
X001412Y002316D03*
X001086Y002316D03*
X000953Y002767D03*
D605*
X000954Y002765D03*
X001086Y002317D03*
X001544Y002765D03*
D606*
X001412Y002317D03*
D607*
X001086Y002317D03*
D608*
X001412Y002317D03*
D609*
X001412Y002318D03*
X001087Y002318D03*
X000954Y002764D03*
X000954Y002764D03*
X001544Y002764D03*
X001544Y002764D03*
D610*
X001412Y002319D03*
X001087Y002319D03*
D611*
X001087Y002319D03*
X000955Y002761D03*
X000955Y002762D03*
X001543Y002762D03*
X001543Y002761D03*
D612*
X001249Y002413D03*
X001087Y002320D03*
X001412Y002320D03*
X001412Y002319D03*
D613*
X001411Y002320D03*
X001087Y002320D03*
X000956Y002761D03*
X001542Y002761D03*
D614*
X001088Y002321D03*
D615*
X001411Y002321D03*
D616*
X001087Y002322D03*
X000957Y002758D03*
X001541Y002758D03*
D617*
X001541Y002758D03*
X001411Y002322D03*
X000958Y002758D03*
D618*
X001088Y002322D03*
D619*
X001411Y002322D03*
D620*
X001088Y002323D03*
D621*
X001411Y002323D03*
X001540Y002757D03*
X000958Y002757D03*
D622*
X000958Y002755D03*
X001088Y002323D03*
X001540Y002755D03*
D623*
X001540Y002756D03*
X001410Y002323D03*
X000958Y002756D03*
D624*
X000958Y002755D03*
X001088Y002324D03*
X001411Y002324D03*
X001540Y002755D03*
D625*
X001088Y002325D03*
D626*
X001410Y002325D03*
X001410Y002325D03*
D627*
X001089Y002325D03*
X000960Y002753D03*
X000959Y002754D03*
X001539Y002753D03*
X001539Y002754D03*
D628*
X001089Y002326D03*
D629*
X001410Y002326D03*
X001538Y002752D03*
X000960Y002752D03*
D630*
X001089Y002326D03*
D631*
X001410Y002326D03*
X001538Y002751D03*
X000960Y002751D03*
D632*
X000961Y002749D03*
X001089Y002327D03*
X001410Y002327D03*
X001537Y002749D03*
D633*
X001089Y002328D03*
D634*
X001409Y002328D03*
D635*
X001409Y002328D03*
X001409Y002329D03*
X001089Y002328D03*
X000963Y002747D03*
D636*
X000963Y002746D03*
X001090Y002329D03*
X001090Y002329D03*
X001409Y002329D03*
X001535Y002746D03*
D637*
X001090Y002330D03*
D638*
X001249Y002412D03*
X001409Y002330D03*
D639*
X001409Y002331D03*
X001090Y002331D03*
D640*
X001090Y002331D03*
X000964Y002743D03*
X001534Y002743D03*
D641*
X001408Y002331D03*
D642*
X001090Y002332D03*
D643*
X001408Y002332D03*
X001534Y002742D03*
X000964Y002742D03*
D644*
X000965Y002741D03*
X001091Y002332D03*
X001408Y002332D03*
X001533Y002741D03*
D645*
X001533Y002740D03*
X001408Y002333D03*
X001091Y002333D03*
X000966Y002740D03*
D646*
X000966Y002739D03*
X001091Y002334D03*
X001532Y002739D03*
D647*
X001408Y002334D03*
D648*
X001408Y002334D03*
X001408Y002335D03*
X001091Y002334D03*
X001091Y002335D03*
X000966Y002739D03*
X001532Y002739D03*
D649*
X001531Y002737D03*
X001091Y002335D03*
X000967Y002737D03*
D650*
X001407Y002335D03*
D651*
X001408Y002336D03*
X001091Y002336D03*
X000968Y002734D03*
X001530Y002734D03*
D652*
X001092Y002337D03*
D653*
X001249Y002412D03*
X001407Y002337D03*
D654*
X001407Y002337D03*
X001092Y002337D03*
X000969Y002733D03*
X001529Y002733D03*
D655*
X001528Y002732D03*
X001528Y002731D03*
X001407Y002338D03*
X001092Y002338D03*
X000970Y002731D03*
X000970Y002732D03*
D656*
X000970Y002730D03*
X001092Y002338D03*
X001528Y002730D03*
D657*
X001407Y002338D03*
X001249Y002411D03*
D658*
X001092Y002339D03*
D659*
X001407Y002339D03*
D660*
X001093Y002340D03*
X001093Y002340D03*
X000971Y002730D03*
X001528Y002730D03*
D661*
X001406Y002340D03*
X001406Y002340D03*
D662*
X001093Y002341D03*
X000972Y002727D03*
D663*
X001406Y002341D03*
X001526Y002727D03*
D664*
X001093Y002341D03*
D665*
X001406Y002341D03*
D666*
X001406Y002342D03*
X001093Y002342D03*
X001526Y002726D03*
X001526Y002727D03*
D667*
X001524Y002724D03*
X001093Y002343D03*
X000974Y002724D03*
D668*
X001406Y002343D03*
D669*
X001093Y002343D03*
D670*
X001405Y002343D03*
X001524Y002723D03*
X000974Y002723D03*
D671*
X000974Y002722D03*
X001094Y002344D03*
X001094Y002344D03*
X001405Y002344D03*
X001524Y002722D03*
D672*
X001523Y002721D03*
X001405Y002346D03*
X001405Y002344D03*
X000975Y002721D03*
D673*
X000975Y002720D03*
X001094Y002345D03*
X001523Y002720D03*
D674*
X001405Y002345D03*
D675*
X001094Y002346D03*
X000975Y002721D03*
X001523Y002721D03*
D676*
X001522Y002719D03*
X001249Y002410D03*
X001094Y002346D03*
X000976Y002719D03*
D677*
X001404Y002346D03*
D678*
X001094Y002347D03*
D679*
X001404Y002347D03*
D680*
X001404Y002347D03*
X001095Y002347D03*
X000977Y002717D03*
X001521Y002717D03*
D681*
X001095Y002348D03*
D682*
X001404Y002348D03*
D683*
X001095Y002349D03*
X000977Y002716D03*
X001521Y002716D03*
D684*
X001404Y002349D03*
D685*
X001404Y002349D03*
X001095Y002350D03*
X001095Y002349D03*
D686*
X001403Y002350D03*
D687*
X001403Y002350D03*
X001095Y002350D03*
D688*
X001095Y002351D03*
D689*
X001404Y002351D03*
X001519Y002712D03*
X000979Y002712D03*
D690*
X000980Y002711D03*
X001095Y002352D03*
X001519Y002711D03*
D691*
X001403Y002352D03*
X001249Y002409D03*
D692*
X001096Y002352D03*
X000980Y002710D03*
X001518Y002710D03*
D693*
X001403Y002352D03*
D694*
X001403Y002353D03*
X001096Y002353D03*
X000981Y002707D03*
X000981Y002708D03*
X001517Y002708D03*
X001517Y002707D03*
D695*
X001096Y002353D03*
D696*
X001403Y002353D03*
D697*
X001402Y002354D03*
X001096Y002354D03*
X000982Y002707D03*
X001516Y002707D03*
D698*
X001402Y002355D03*
X001096Y002355D03*
X001096Y002355D03*
D699*
X001402Y002355D03*
X001515Y002704D03*
X000983Y002704D03*
D700*
X001097Y002356D03*
D701*
X001402Y002356D03*
X001514Y002703D03*
X000984Y002703D03*
D702*
X000983Y002703D03*
X001097Y002356D03*
X001515Y002703D03*
D703*
X001402Y002356D03*
D704*
X001097Y002357D03*
X000985Y002700D03*
X001513Y002700D03*
D705*
X001402Y002357D03*
D706*
X001097Y002358D03*
D707*
X001402Y002358D03*
D708*
X001249Y002358D03*
X001249Y002359D03*
D709*
X001249Y002359D03*
X001249Y002361D03*
X001249Y002361D03*
D710*
X001249Y002360D03*
D711*
X001249Y002362D03*
D712*
X001249Y002362D03*
D713*
X001249Y002363D03*
D714*
X001249Y002364D03*
X001249Y002365D03*
D715*
X001249Y002365D03*
X001249Y002364D03*
X001249Y002366D03*
X001249Y002367D03*
D716*
X001249Y002367D03*
D717*
X001249Y002368D03*
D718*
X001249Y002368D03*
D719*
X001249Y002369D03*
D720*
X001249Y002370D03*
D721*
X001249Y002370D03*
D722*
X001249Y002371D03*
D723*
X001249Y002371D03*
D724*
X001249Y002372D03*
D725*
X001249Y002373D03*
D726*
X001249Y002373D03*
D727*
X001249Y002374D03*
D728*
X001249Y002374D03*
D729*
X001249Y002375D03*
D730*
X001249Y002376D03*
D731*
X001249Y002376D03*
D732*
X001249Y002377D03*
D733*
X001249Y002377D03*
D734*
X001249Y002378D03*
D735*
X001249Y002379D03*
D736*
X001249Y002379D03*
D737*
X001249Y002380D03*
D738*
X001249Y002380D03*
D739*
X001249Y002381D03*
D740*
X001249Y002382D03*
D741*
X001249Y002382D03*
D742*
X001249Y002383D03*
D743*
X001249Y002383D03*
D744*
X001249Y002384D03*
D745*
X001249Y002385D03*
D746*
X001249Y002385D03*
D747*
X001249Y002386D03*
D748*
X001249Y002386D03*
D749*
X001249Y002387D03*
D750*
X001249Y002388D03*
D751*
X001249Y002388D03*
D752*
X001249Y002389D03*
D753*
X001249Y002389D03*
D754*
X001249Y002390D03*
D755*
X001249Y002391D03*
D756*
X001249Y002391D03*
D757*
X001249Y002392D03*
D758*
X001249Y002392D03*
D759*
X001249Y002393D03*
D760*
X001249Y002394D03*
D761*
X001249Y002394D03*
D762*
X001249Y002395D03*
D763*
X001249Y002395D03*
D764*
X001249Y002396D03*
D765*
X001249Y002397D03*
X001050Y002562D03*
X001448Y002562D03*
D766*
X001249Y002397D03*
D767*
X001249Y002398D03*
X001043Y002578D03*
X001455Y002578D03*
D768*
X001458Y002583D03*
X001249Y002398D03*
X001041Y002583D03*
D769*
X001036Y002592D03*
X001249Y002399D03*
X001462Y002592D03*
D770*
X001464Y002598D03*
X001249Y002400D03*
X001034Y002598D03*
D771*
X001249Y002400D03*
D772*
X001249Y002401D03*
X001027Y002611D03*
X001471Y002611D03*
D773*
X001476Y002621D03*
X001249Y002401D03*
X001023Y002621D03*
D774*
X001021Y002625D03*
X001021Y002625D03*
X001249Y002402D03*
X001477Y002625D03*
X001477Y002625D03*
D775*
X001249Y002403D03*
D776*
X001249Y002403D03*
D777*
X001249Y002404D03*
X001011Y002646D03*
X001011Y002646D03*
X001487Y002646D03*
X001488Y002646D03*
D778*
X001492Y002656D03*
X001249Y002404D03*
X001006Y002656D03*
D779*
X001003Y002662D03*
X001249Y002405D03*
X001495Y002662D03*
D780*
X001497Y002666D03*
X001497Y002667D03*
X001249Y002406D03*
X001001Y002666D03*
X001001Y002667D03*
D781*
X001249Y002406D03*
X001500Y002671D03*
D782*
X001249Y002407D03*
D783*
X001249Y002407D03*
X000990Y002689D03*
X001508Y002689D03*
D784*
X001513Y002698D03*
X001249Y002408D03*
X000985Y002698D03*
D785*
X001249Y002409D03*
D786*
X001249Y002410D03*
X000973Y002725D03*
D787*
X001249Y002413D03*
D788*
X001249Y002414D03*
D789*
X001249Y002416D03*
D790*
X001249Y002416D03*
X000941Y002792D03*
X001557Y002792D03*
D791*
X001249Y002417D03*
D792*
X001249Y002418D03*
D793*
X001249Y002418D03*
X000991Y002428D03*
X001507Y002428D03*
D794*
X001249Y002419D03*
D795*
X001249Y002419D03*
D796*
X001249Y002420D03*
D797*
X001249Y002422D03*
D798*
X001249Y002422D03*
X000963Y002515D03*
X001530Y002479D03*
X001530Y002478D03*
X001590Y002859D03*
X001590Y002860D03*
D799*
X001532Y002469D03*
X001249Y002423D03*
X000964Y002479D03*
D800*
X001249Y002424D03*
D801*
X000890Y002425D03*
D802*
X000912Y002425D03*
X001586Y002425D03*
D803*
X001249Y002425D03*
X000891Y002896D03*
X001607Y002896D03*
D804*
X001577Y002426D03*
X000921Y002426D03*
D805*
X000965Y002427D03*
X000892Y002894D03*
X001606Y002894D03*
D806*
X001249Y002427D03*
X000881Y002917D03*
D807*
X001533Y002427D03*
D808*
X001249Y002428D03*
X000881Y002917D03*
X000881Y002918D03*
D809*
X001249Y002433D03*
X001249Y002432D03*
X001249Y002431D03*
X001249Y002430D03*
X001249Y002430D03*
X001249Y002428D03*
D810*
X001249Y002429D03*
X001249Y002431D03*
X001249Y002433D03*
D811*
X001249Y002434D03*
X001249Y002434D03*
X001249Y002436D03*
X001249Y002436D03*
D812*
X001249Y002435D03*
D813*
X001249Y002437D03*
X001249Y002439D03*
D814*
X001249Y002439D03*
X001249Y002438D03*
X001249Y002437D03*
D815*
X001249Y002440D03*
X001249Y002441D03*
X001249Y002442D03*
X001249Y002443D03*
X001249Y002443D03*
X001249Y002445D03*
X001249Y002445D03*
D816*
X001249Y002444D03*
X001249Y002442D03*
X001249Y002440D03*
D817*
X001249Y002446D03*
X001249Y002448D03*
D818*
X001249Y002448D03*
X001249Y002447D03*
X001249Y002446D03*
D819*
X001249Y002449D03*
X001249Y002449D03*
X001249Y002451D03*
X001249Y002451D03*
D820*
X001249Y002452D03*
X001249Y002450D03*
D821*
X001249Y002452D03*
X001249Y002453D03*
X001249Y002454D03*
X001249Y002455D03*
X001249Y002456D03*
X001249Y002457D03*
D822*
X001249Y002457D03*
X001249Y002455D03*
X001249Y002454D03*
D823*
X001249Y002458D03*
X001249Y002458D03*
X001249Y002460D03*
X001249Y002460D03*
D824*
X001249Y002459D03*
D825*
X001249Y002461D03*
X001249Y002463D03*
D826*
X001249Y002462D03*
X001249Y002461D03*
D827*
X001193Y002463D03*
X001193Y002464D03*
X001158Y002508D03*
D828*
X001139Y002507D03*
X001083Y002509D03*
X001083Y002487D03*
X001229Y002508D03*
X001229Y002509D03*
X001284Y002490D03*
X001267Y002463D03*
D829*
X001297Y002463D03*
X001319Y002509D03*
X001230Y002476D03*
X001207Y002528D03*
D830*
X001255Y002517D03*
X001110Y002505D03*
X001110Y002491D03*
X001412Y002463D03*
D831*
X001122Y002464D03*
D832*
X001083Y002486D03*
X001083Y002511D03*
X001158Y002509D03*
X001194Y002466D03*
X001194Y002466D03*
X001229Y002507D03*
X001284Y002509D03*
X001266Y002466D03*
X001332Y002464D03*
X001401Y002492D03*
D833*
X000959Y002464D03*
D834*
X001121Y002464D03*
X001140Y002505D03*
X001266Y002466D03*
X001284Y002488D03*
X001284Y002509D03*
X001332Y002464D03*
X001723Y003157D03*
X001723Y003158D03*
X000775Y003158D03*
X000775Y003157D03*
D835*
X000960Y002465D03*
D836*
X001083Y002465D03*
X001230Y002467D03*
D837*
X001266Y002467D03*
X001121Y002465D03*
D838*
X001158Y002465D03*
X001158Y002467D03*
X001158Y002469D03*
X001158Y002470D03*
X001158Y002472D03*
X001158Y002474D03*
X001158Y002476D03*
X001158Y002478D03*
X001158Y002480D03*
X001158Y002482D03*
X001158Y002484D03*
X001158Y002485D03*
X001158Y002487D03*
X001158Y002489D03*
X001314Y002499D03*
X001701Y003102D03*
X000798Y003102D03*
D839*
X000775Y003159D03*
X001229Y002508D03*
X001193Y002465D03*
X001724Y003159D03*
D840*
X001700Y003100D03*
X001230Y002465D03*
X000799Y003100D03*
D841*
X001320Y002512D03*
X001320Y002487D03*
X001296Y002465D03*
D842*
X001266Y002469D03*
X001285Y002510D03*
X001229Y002506D03*
X001194Y002469D03*
X001140Y002504D03*
X001332Y002465D03*
X001723Y003157D03*
X000775Y003157D03*
D843*
X001083Y002512D03*
X001120Y002467D03*
X001229Y002504D03*
X001265Y002470D03*
X001381Y002470D03*
X001381Y002469D03*
X001381Y002467D03*
X001381Y002465D03*
X001402Y002491D03*
D844*
X001533Y002465D03*
X000963Y002476D03*
D845*
X000960Y002466D03*
X000892Y002893D03*
X001606Y002893D03*
D846*
X001722Y003156D03*
X001401Y002491D03*
X001285Y002488D03*
X001266Y002468D03*
X001266Y002467D03*
X001194Y002469D03*
X001158Y002509D03*
X001140Y002505D03*
X001121Y002531D03*
X001121Y002466D03*
X000776Y003156D03*
D847*
X001083Y002523D03*
X001111Y002507D03*
X001111Y002490D03*
X001083Y002473D03*
X001229Y002482D03*
X001256Y002512D03*
X001256Y002513D03*
X001411Y002466D03*
D848*
X001316Y002496D03*
X001083Y002466D03*
X000796Y003106D03*
X001702Y003106D03*
D849*
X001229Y002505D03*
X001229Y002505D03*
X001121Y002466D03*
D850*
X001230Y002466D03*
X001314Y002498D03*
X001314Y002500D03*
X001701Y003103D03*
X000797Y003103D03*
D851*
X000789Y003122D03*
X001110Y002505D03*
X001110Y002492D03*
X001254Y002518D03*
X001254Y002518D03*
X001296Y002466D03*
X001320Y002513D03*
X001709Y003122D03*
D852*
X000960Y002467D03*
D853*
X001083Y002467D03*
X001316Y002504D03*
D854*
X001321Y002514D03*
X001296Y002467D03*
X001158Y002523D03*
X001083Y002472D03*
X000789Y003123D03*
X001709Y003123D03*
D855*
X001721Y003153D03*
X001330Y002467D03*
X001286Y002485D03*
X001264Y002474D03*
X001195Y002474D03*
X001120Y002469D03*
X000777Y003153D03*
D856*
X001083Y002523D03*
X001111Y002508D03*
X001111Y002489D03*
X001256Y002512D03*
X001322Y002484D03*
X001411Y002467D03*
D857*
X001533Y002467D03*
X001596Y002874D03*
X000902Y002874D03*
D858*
X000894Y002889D03*
X000960Y002467D03*
X001604Y002889D03*
D859*
X001230Y002467D03*
D860*
X001229Y002502D03*
X001196Y002476D03*
X001174Y002501D03*
X001330Y002467D03*
X001721Y003151D03*
X001721Y003152D03*
X000778Y003152D03*
X000778Y003151D03*
D861*
X001112Y002509D03*
X001112Y002488D03*
X001203Y002512D03*
X001203Y002513D03*
X001256Y002511D03*
X001256Y002509D03*
X001294Y002470D03*
X001322Y002483D03*
X001322Y002517D03*
X001410Y002467D03*
D862*
X001230Y002473D03*
X001158Y002527D03*
X001083Y002468D03*
X000794Y003111D03*
X001704Y003111D03*
D863*
X000961Y002469D03*
D864*
X001230Y002469D03*
X000796Y003106D03*
X001702Y003106D03*
D865*
X001295Y002469D03*
D866*
X001294Y002470D03*
X001410Y002469D03*
X001112Y002487D03*
D867*
X000964Y002480D03*
X001532Y002469D03*
D868*
X001083Y002469D03*
X001083Y002527D03*
D869*
X001119Y002527D03*
X001157Y002511D03*
X001119Y002469D03*
X001264Y002475D03*
X001264Y002475D03*
X001286Y002485D03*
X001380Y002493D03*
X001380Y002494D03*
X001380Y002494D03*
X001380Y002496D03*
X001380Y002496D03*
X001380Y002497D03*
X001380Y002498D03*
X001380Y002499D03*
X001380Y002500D03*
X001380Y002501D03*
X001380Y002502D03*
D870*
X001366Y002503D03*
X001366Y002503D03*
X001366Y002505D03*
X001366Y002505D03*
X001366Y002506D03*
X001366Y002507D03*
X001366Y002508D03*
X001366Y002509D03*
X001366Y002509D03*
X001366Y002511D03*
X001366Y002511D03*
X001366Y002512D03*
X001366Y002513D03*
X001366Y002514D03*
X001366Y002515D03*
X001366Y002516D03*
X001366Y002517D03*
X001366Y002518D03*
X001366Y002518D03*
X001366Y002520D03*
X001366Y002520D03*
X001366Y002521D03*
X001366Y002522D03*
X001366Y002492D03*
X001366Y002491D03*
X001366Y002490D03*
X001366Y002490D03*
X001366Y002488D03*
X001366Y002488D03*
X001366Y002487D03*
X001366Y002486D03*
X001366Y002485D03*
X001366Y002484D03*
X001366Y002483D03*
X001366Y002482D03*
X001366Y002481D03*
X001366Y002481D03*
X001366Y002479D03*
X001366Y002479D03*
X001366Y002478D03*
X001366Y002477D03*
X001366Y002476D03*
X001366Y002475D03*
X001366Y002475D03*
X001366Y002473D03*
X001366Y002473D03*
X001316Y002503D03*
X001230Y002470D03*
X001230Y002469D03*
D871*
X001197Y002481D03*
X001158Y002512D03*
X001143Y002498D03*
X001329Y002469D03*
D872*
X000961Y002470D03*
X000896Y002886D03*
X001603Y002886D03*
D873*
X001207Y002530D03*
X001207Y002529D03*
X001083Y002470D03*
D874*
X001083Y002470D03*
X001109Y002495D03*
X001206Y002527D03*
X001319Y002510D03*
D875*
X001329Y002530D03*
X001329Y002470D03*
X001288Y002482D03*
X001263Y002482D03*
X001229Y002499D03*
X001197Y002484D03*
X001172Y002497D03*
X001143Y002497D03*
X001083Y002482D03*
X000780Y003147D03*
X001719Y003147D03*
D876*
X001602Y002886D03*
X000962Y002471D03*
X000896Y002886D03*
D877*
X001083Y002514D03*
X001083Y002482D03*
X001119Y002472D03*
X001119Y002471D03*
X001119Y002526D03*
X001263Y002479D03*
X001263Y002479D03*
X001287Y002483D03*
X001404Y002488D03*
X001404Y002503D03*
D878*
X001317Y002505D03*
X001317Y002494D03*
X001230Y002472D03*
X001230Y002471D03*
X001158Y002528D03*
X000795Y003109D03*
D879*
X000780Y003146D03*
X001328Y002530D03*
X001328Y002471D03*
X001288Y002481D03*
X001229Y002497D03*
X001229Y002498D03*
X001198Y002485D03*
X001198Y002484D03*
X001172Y002496D03*
X001144Y002496D03*
X001718Y003146D03*
D880*
X001324Y002520D03*
X001293Y002528D03*
X001258Y002505D03*
X001258Y002505D03*
X001324Y002481D03*
X001409Y002471D03*
X001113Y002485D03*
X001113Y002511D03*
D881*
X001144Y002496D03*
X001262Y002485D03*
X001262Y002484D03*
X001288Y002481D03*
X001288Y002518D03*
X001328Y002529D03*
X001328Y002472D03*
X001405Y002485D03*
X001405Y002505D03*
X001718Y003145D03*
X000780Y003145D03*
D882*
X000905Y002866D03*
X000959Y002522D03*
X001531Y002472D03*
X001593Y002866D03*
D883*
X000962Y002472D03*
D884*
X001118Y002472D03*
X001197Y002482D03*
X001263Y002480D03*
X001404Y002487D03*
X001404Y002504D03*
D885*
X001195Y002472D03*
X001158Y002510D03*
D886*
X001158Y002527D03*
X001083Y002529D03*
X001230Y002472D03*
X001317Y002493D03*
X001317Y002506D03*
D887*
X001286Y002512D03*
X001265Y002472D03*
X001381Y002523D03*
X001381Y002525D03*
X001381Y002527D03*
X001381Y002529D03*
X001381Y002530D03*
X001141Y002502D03*
X001120Y002529D03*
D888*
X001171Y002495D03*
X001198Y002487D03*
X001229Y002497D03*
X001262Y002485D03*
X001289Y002480D03*
X001328Y002472D03*
X001328Y002529D03*
X001405Y002506D03*
D889*
X001366Y002506D03*
X001366Y002508D03*
X001366Y002510D03*
X001366Y002512D03*
X001366Y002514D03*
X001366Y002515D03*
X001366Y002517D03*
X001366Y002519D03*
X001366Y002521D03*
X001366Y002504D03*
X001366Y002502D03*
X001366Y002493D03*
X001366Y002491D03*
X001366Y002489D03*
X001366Y002487D03*
X001366Y002485D03*
X001366Y002484D03*
X001366Y002482D03*
X001366Y002480D03*
X001366Y002478D03*
X001366Y002476D03*
X001366Y002474D03*
X001366Y002472D03*
X001316Y002495D03*
X001083Y002530D03*
D890*
X000906Y002866D03*
X001531Y002472D03*
X001593Y002866D03*
D891*
X001717Y003143D03*
X001327Y002528D03*
X001289Y002520D03*
X001289Y002479D03*
X001327Y002473D03*
X001198Y002488D03*
X001171Y002494D03*
X001158Y002514D03*
X001158Y002515D03*
X001144Y002494D03*
X000781Y003143D03*
D892*
X000962Y002473D03*
D893*
X001118Y002473D03*
X001118Y002523D03*
X001262Y002483D03*
X001262Y002482D03*
X001404Y002505D03*
X001404Y002520D03*
D894*
X001408Y002473D03*
X001324Y002479D03*
X001292Y002473D03*
X001258Y002501D03*
X001292Y002526D03*
X001324Y002521D03*
X001158Y002518D03*
X001114Y002483D03*
D895*
X000906Y002865D03*
X001592Y002865D03*
X001531Y002473D03*
D896*
X001083Y002474D03*
D897*
X001117Y002474D03*
X001144Y002495D03*
X001158Y002514D03*
X001117Y002523D03*
X001405Y002519D03*
D898*
X001292Y002525D03*
X001259Y002499D03*
X001292Y002474D03*
X001201Y002502D03*
X000785Y003134D03*
X001714Y003134D03*
D899*
X001406Y002515D03*
X001406Y002510D03*
X001406Y002482D03*
X001327Y002474D03*
X001327Y002527D03*
X001290Y002521D03*
X001170Y002493D03*
X001145Y002493D03*
X001158Y002515D03*
X001083Y002517D03*
D900*
X001114Y002514D03*
X001258Y002500D03*
X001408Y002474D03*
D901*
X001229Y002475D03*
X001108Y002498D03*
X000793Y003114D03*
X001706Y003114D03*
D902*
X001530Y002475D03*
X000966Y002484D03*
D903*
X000963Y002475D03*
X001599Y002878D03*
D904*
X001715Y003137D03*
X001325Y002523D03*
X001291Y002524D03*
X001259Y002496D03*
X001291Y002475D03*
X001325Y002477D03*
X001408Y002477D03*
X001408Y002476D03*
X001115Y002481D03*
X001115Y002516D03*
X000784Y003137D03*
D905*
X000907Y002863D03*
X000907Y002863D03*
X000961Y002518D03*
X000966Y002485D03*
X001530Y002475D03*
X001591Y002863D03*
X001591Y002863D03*
D906*
X001083Y002521D03*
X001083Y002476D03*
D907*
X001117Y002476D03*
X001117Y002521D03*
X001261Y002487D03*
X001405Y002484D03*
D908*
X001229Y002502D03*
X001196Y002476D03*
X001174Y002500D03*
X001142Y002500D03*
X001083Y002484D03*
D909*
X001083Y002527D03*
X001207Y002530D03*
X001229Y002476D03*
D910*
X001200Y002497D03*
X001260Y002495D03*
X001291Y002476D03*
X001407Y002478D03*
D911*
X001326Y002476D03*
X001326Y002525D03*
X001290Y002523D03*
X001115Y002517D03*
D912*
X001114Y002515D03*
X001083Y002519D03*
X001083Y002478D03*
X001158Y002517D03*
X001201Y002500D03*
X001325Y002478D03*
X001325Y002523D03*
X001408Y002476D03*
X001714Y003136D03*
X000784Y003136D03*
D913*
X001530Y002476D03*
D914*
X000963Y002476D03*
D915*
X001158Y002517D03*
X001200Y002498D03*
X001200Y002497D03*
X001260Y002496D03*
X001291Y002523D03*
X001326Y002524D03*
X001326Y002524D03*
X001326Y002476D03*
X001407Y002478D03*
D916*
X001406Y002509D03*
X001406Y002509D03*
X001406Y002515D03*
X001406Y002516D03*
X001290Y002478D03*
X001261Y002490D03*
X001261Y002490D03*
X001230Y002494D03*
X001199Y002492D03*
X001199Y002491D03*
X001116Y002477D03*
X001083Y002479D03*
X001116Y002520D03*
X000782Y003141D03*
X000782Y003141D03*
X001716Y003141D03*
X001716Y003141D03*
D917*
X000956Y002529D03*
X000964Y002478D03*
D918*
X001199Y002493D03*
X001290Y002478D03*
X001406Y002512D03*
X001406Y002514D03*
D919*
X001530Y002478D03*
X001590Y002860D03*
X000967Y002487D03*
X000908Y002860D03*
D920*
X000956Y002528D03*
X000964Y002478D03*
D921*
X001083Y002478D03*
X001083Y002518D03*
X001115Y002517D03*
X000783Y003138D03*
X001715Y003138D03*
D922*
X001200Y002494D03*
X001200Y002494D03*
X001083Y002479D03*
X001083Y002518D03*
D923*
X001115Y002480D03*
X000783Y003138D03*
X001715Y003138D03*
D924*
X001529Y002481D03*
D925*
X001198Y002486D03*
X001198Y002487D03*
X001171Y002496D03*
X001083Y002481D03*
D926*
X000965Y002511D03*
X000910Y002856D03*
X000910Y002856D03*
X001588Y002856D03*
X001588Y002856D03*
X001529Y002481D03*
D927*
X001594Y002868D03*
X000965Y002482D03*
X000905Y002868D03*
D928*
X001114Y002482D03*
D929*
X001112Y002510D03*
X001203Y002510D03*
X001257Y002508D03*
X001323Y002482D03*
D930*
X001529Y002482D03*
X000965Y002510D03*
D931*
X000966Y002482D03*
D932*
X001114Y002482D03*
X001114Y002514D03*
D933*
X001083Y002513D03*
X001083Y002483D03*
X001173Y002500D03*
D934*
X001083Y002516D03*
X001261Y002487D03*
X001405Y002483D03*
X001405Y002506D03*
X001405Y002507D03*
X001405Y002518D03*
D935*
X001528Y002483D03*
X001587Y002854D03*
X001587Y002854D03*
X000966Y002508D03*
X000966Y002509D03*
X000911Y002854D03*
X000911Y002854D03*
D936*
X000960Y002521D03*
X000966Y002484D03*
D937*
X001262Y002484D03*
X001404Y002485D03*
D938*
X001528Y002484D03*
D939*
X001528Y002484D03*
X001587Y002853D03*
X000912Y002853D03*
D940*
X000913Y002851D03*
X000967Y002506D03*
X000970Y002493D03*
X001528Y002485D03*
X001586Y002851D03*
D941*
X001083Y002485D03*
D942*
X001083Y002515D03*
X001198Y002485D03*
D943*
X001205Y002519D03*
X001255Y002515D03*
X001321Y002485D03*
X001110Y002491D03*
X001110Y002506D03*
D944*
X000913Y002851D03*
X001585Y002851D03*
X001528Y002485D03*
D945*
X000967Y002486D03*
D946*
X000967Y002505D03*
X000913Y002850D03*
X001585Y002850D03*
X001528Y002486D03*
D947*
X001083Y002487D03*
D948*
X000967Y002488D03*
D949*
X001083Y002488D03*
X001083Y002509D03*
X001177Y002509D03*
D950*
X001528Y002488D03*
X001531Y002511D03*
X001531Y002512D03*
X001531Y002513D03*
X001584Y002848D03*
X000914Y002848D03*
D951*
X001083Y002508D03*
X001083Y002488D03*
X001158Y002506D03*
X001177Y002511D03*
X001229Y002511D03*
X001282Y002505D03*
X001282Y002492D03*
X001399Y002522D03*
D952*
X001530Y002505D03*
X001530Y002505D03*
X001531Y002514D03*
X001531Y002516D03*
X001531Y002517D03*
X001527Y002488D03*
X001584Y002846D03*
X001584Y002847D03*
X000969Y002503D03*
X000969Y002502D03*
X000970Y002496D03*
X000915Y002846D03*
X000915Y002847D03*
D953*
X000772Y003166D03*
X001083Y002508D03*
X001083Y002489D03*
X001137Y002512D03*
X001158Y002506D03*
X001726Y003166D03*
D954*
X001717Y003144D03*
X001289Y002519D03*
X001198Y002489D03*
X000781Y003144D03*
D955*
X001158Y002525D03*
X001207Y002529D03*
X001319Y002489D03*
D956*
X001286Y002514D03*
X001380Y002500D03*
X001380Y002499D03*
X001380Y002497D03*
X001380Y002495D03*
X001403Y002489D03*
D957*
X001527Y002490D03*
X001527Y002490D03*
X001528Y002502D03*
D958*
X001281Y002501D03*
X001281Y002496D03*
X001229Y002516D03*
X001179Y002515D03*
X001136Y002515D03*
X001083Y002490D03*
D959*
X001169Y002490D03*
X001229Y002492D03*
D960*
X001200Y002495D03*
X001170Y002491D03*
D961*
X001229Y002510D03*
X001283Y002491D03*
D962*
X001318Y002491D03*
X001318Y002508D03*
X001252Y002529D03*
D963*
X001527Y002491D03*
X001528Y002500D03*
X001531Y002521D03*
X001581Y002842D03*
X000917Y002842D03*
D964*
X000968Y002491D03*
D965*
X001526Y002492D03*
D966*
X001110Y002493D03*
X001110Y002504D03*
D967*
X001229Y002493D03*
D968*
X001229Y002512D03*
X001282Y002504D03*
X001282Y002493D03*
X001399Y002493D03*
D969*
X001525Y002493D03*
X001526Y002498D03*
X001530Y002523D03*
X001580Y002839D03*
X000919Y002839D03*
D970*
X000919Y002838D03*
X001579Y002838D03*
X001530Y002524D03*
X001525Y002494D03*
D971*
X001281Y002495D03*
X001136Y002514D03*
X000771Y003168D03*
X001727Y003168D03*
D972*
X001524Y002495D03*
D973*
X001253Y002524D03*
X001253Y002526D03*
X001108Y002501D03*
X001108Y002496D03*
X001108Y002496D03*
D974*
X000970Y002497D03*
X001531Y002519D03*
D975*
X001315Y002497D03*
X001701Y003104D03*
X000797Y003104D03*
D976*
X001530Y002525D03*
X001525Y002497D03*
D977*
X001582Y002843D03*
X000971Y002499D03*
X000971Y002498D03*
X000971Y002497D03*
X000916Y002843D03*
D978*
X000779Y003148D03*
X001172Y002498D03*
X001172Y002497D03*
X001719Y003148D03*
D979*
X001526Y002497D03*
D980*
X001582Y002844D03*
X000971Y002499D03*
X000916Y002844D03*
D981*
X001108Y002499D03*
D982*
X001527Y002499D03*
X001530Y002523D03*
D983*
X001200Y002499D03*
D984*
X000970Y002500D03*
D985*
X001108Y002500D03*
X001253Y002525D03*
X001707Y003117D03*
X000792Y003117D03*
D986*
X001158Y002530D03*
X001315Y002500D03*
D987*
X001281Y002502D03*
X001136Y002514D03*
D988*
X000969Y002502D03*
X000914Y002847D03*
X001584Y002847D03*
X001531Y002514D03*
X001531Y002512D03*
D989*
X001174Y002502D03*
D990*
X001179Y002514D03*
X001229Y002514D03*
X001281Y002502D03*
D991*
X001283Y002506D03*
X001399Y002502D03*
X001725Y003162D03*
X000773Y003162D03*
D992*
X001083Y002520D03*
X001201Y002503D03*
X001201Y002503D03*
D993*
X001229Y002515D03*
X001158Y002504D03*
X001083Y002506D03*
X000813Y003305D03*
D994*
X000786Y003130D03*
X001257Y002506D03*
X001293Y002529D03*
X001323Y002519D03*
D995*
X001530Y002506D03*
X001530Y002510D03*
D996*
X001202Y002507D03*
X000786Y003131D03*
X001712Y003131D03*
D997*
X001283Y002507D03*
X001176Y002508D03*
X001139Y002508D03*
D998*
X000966Y002508D03*
D999*
X001202Y002508D03*
D1000*
X001177Y002509D03*
X001229Y002511D03*
D1001*
X001229Y002509D03*
X000774Y003161D03*
X001724Y003161D03*
D1002*
X001177Y002510D03*
D1003*
X001178Y002512D03*
D1004*
X001203Y002512D03*
X001323Y002517D03*
X001711Y003129D03*
X000787Y003129D03*
D1005*
X001083Y002514D03*
X001720Y003151D03*
D1006*
X000963Y002514D03*
X000909Y002859D03*
X000909Y002860D03*
D1007*
X000770Y003169D03*
X001179Y002514D03*
X001229Y002515D03*
X001728Y003169D03*
D1008*
X000963Y002515D03*
D1009*
X001204Y002515D03*
X001322Y002515D03*
X001710Y003125D03*
X000788Y003125D03*
D1010*
X001119Y002525D03*
X001287Y002515D03*
D1011*
X001531Y002515D03*
D1012*
X000962Y002516D03*
X000962Y002517D03*
D1013*
X001255Y002517D03*
D1014*
X001254Y002519D03*
X001206Y002523D03*
X001083Y002525D03*
X000790Y003121D03*
X001708Y003121D03*
D1015*
X001708Y003119D03*
X001254Y002521D03*
X000791Y003119D03*
D1016*
X000905Y002867D03*
X000960Y002521D03*
X001593Y002867D03*
D1017*
X001205Y002522D03*
X001205Y002521D03*
D1018*
X001530Y002524D03*
D1019*
X000958Y002525D03*
D1020*
X000958Y002526D03*
D1021*
X001206Y002526D03*
X001206Y002526D03*
D1022*
X001529Y002526D03*
D1023*
X001529Y002526D03*
X001578Y002835D03*
X000920Y002835D03*
D1024*
X000903Y002872D03*
X000957Y002527D03*
X001596Y002872D03*
D1025*
X001529Y002527D03*
D1026*
X001158Y002529D03*
X000795Y003108D03*
X001703Y003108D03*
D1027*
X001575Y002829D03*
X001528Y002529D03*
X000923Y002829D03*
D1028*
X001083Y002529D03*
X001704Y003109D03*
D1029*
X001705Y003113D03*
X001252Y002529D03*
X000793Y003113D03*
D1030*
X001527Y002529D03*
D1031*
X001526Y002530D03*
D1032*
X001121Y002530D03*
D1033*
X000927Y002821D03*
X001525Y002530D03*
D1034*
X001524Y002531D03*
X001569Y002817D03*
X000929Y002817D03*
D1035*
X001032Y002602D03*
X001032Y002601D03*
X001042Y002532D03*
X001466Y002601D03*
X001467Y002602D03*
D1036*
X001436Y002532D03*
D1037*
X001249Y002532D03*
D1038*
X001249Y002533D03*
D1039*
X001249Y002533D03*
X001249Y002535D03*
X001249Y002535D03*
X001249Y002536D03*
X001249Y002537D03*
D1040*
X001249Y002538D03*
X001249Y002536D03*
X001249Y002534D03*
D1041*
X001249Y002538D03*
X001249Y002539D03*
X001249Y002539D03*
X001249Y002541D03*
X001249Y002541D03*
X001249Y002543D03*
X001249Y002544D03*
D1042*
X001249Y002544D03*
X001249Y002540D03*
D1043*
X001249Y002542D03*
X001249Y002545D03*
X001249Y002547D03*
D1044*
X001249Y002547D03*
X001249Y002546D03*
X001249Y002545D03*
X001249Y002542D03*
D1045*
X001249Y002548D03*
X001249Y002548D03*
X001249Y002550D03*
X001249Y002550D03*
D1046*
X001249Y002549D03*
D1047*
X001249Y002551D03*
X001249Y002553D03*
D1048*
X001249Y002553D03*
X001249Y002552D03*
X001249Y002551D03*
D1049*
X001249Y002554D03*
X001249Y002554D03*
X001249Y002556D03*
X001249Y002556D03*
D1050*
X001249Y002555D03*
D1051*
X001249Y002557D03*
X001249Y002559D03*
D1052*
X001249Y002558D03*
X001249Y002557D03*
D1053*
X001052Y002559D03*
X001446Y002559D03*
D1054*
X001446Y002560D03*
X001052Y002560D03*
D1055*
X001051Y002560D03*
X001447Y002560D03*
D1056*
X001447Y002561D03*
X001051Y002561D03*
D1057*
X001050Y002562D03*
X001448Y002562D03*
D1058*
X001448Y002563D03*
X001050Y002563D03*
D1059*
X001050Y002563D03*
X001448Y002563D03*
D1060*
X001449Y002564D03*
X001050Y002564D03*
D1061*
X001050Y002565D03*
X001049Y002565D03*
X001449Y002565D03*
X001449Y002565D03*
D1062*
X001449Y002566D03*
X001049Y002566D03*
D1063*
X001048Y002566D03*
X001450Y002566D03*
D1064*
X001450Y002567D03*
X001048Y002567D03*
D1065*
X001048Y002568D03*
X001450Y002568D03*
D1066*
X001451Y002568D03*
X001048Y002568D03*
D1067*
X001047Y002569D03*
X001451Y002569D03*
D1068*
X001451Y002569D03*
X001047Y002569D03*
D1069*
X001047Y002570D03*
X001451Y002570D03*
D1070*
X001451Y002571D03*
X001047Y002571D03*
D1071*
X001047Y002571D03*
X001452Y002571D03*
D1072*
X001452Y002572D03*
X001046Y002572D03*
D1073*
X001046Y002572D03*
X001046Y002573D03*
X001453Y002573D03*
X001453Y002572D03*
D1074*
X001453Y002574D03*
X001045Y002574D03*
D1075*
X001045Y002574D03*
X001453Y002574D03*
D1076*
X001454Y002575D03*
X001045Y002575D03*
D1077*
X001045Y002575D03*
X001454Y002575D03*
D1078*
X001454Y002576D03*
X001044Y002576D03*
D1079*
X001044Y002577D03*
X001454Y002577D03*
D1080*
X001044Y002577D03*
D1081*
X001455Y002577D03*
D1082*
X001455Y002578D03*
X001043Y002578D03*
D1083*
X001043Y002579D03*
X001455Y002579D03*
D1084*
X001456Y002580D03*
X001042Y002580D03*
D1085*
X001042Y002580D03*
X001456Y002580D03*
D1086*
X001456Y002581D03*
X001042Y002581D03*
D1087*
X001041Y002581D03*
X001041Y002582D03*
X001457Y002582D03*
X001457Y002581D03*
D1088*
X001458Y002583D03*
X001041Y002583D03*
D1089*
X001040Y002584D03*
X001040Y002584D03*
X001458Y002584D03*
X001458Y002584D03*
D1090*
X001459Y002585D03*
X001039Y002585D03*
D1091*
X001039Y002586D03*
X001459Y002586D03*
D1092*
X001459Y002586D03*
X001039Y002586D03*
D1093*
X001039Y002587D03*
X001459Y002587D03*
D1094*
X001460Y002587D03*
X001039Y002587D03*
D1095*
X001038Y002588D03*
X001460Y002588D03*
D1096*
X001460Y002589D03*
X001038Y002589D03*
D1097*
X001038Y002589D03*
X001038Y002590D03*
X001461Y002590D03*
X001461Y002589D03*
D1098*
X001461Y002590D03*
X001037Y002590D03*
D1099*
X001037Y002591D03*
X001461Y002591D03*
D1100*
X001461Y002592D03*
X001462Y002593D03*
X001037Y002592D03*
X001036Y002593D03*
D1101*
X001035Y002593D03*
X001463Y002593D03*
D1102*
X001463Y002594D03*
X001035Y002594D03*
D1103*
X001035Y002595D03*
X001463Y002595D03*
D1104*
X001464Y002595D03*
X001035Y002595D03*
D1105*
X001034Y002596D03*
D1106*
X001464Y002596D03*
D1107*
X001464Y002596D03*
X001034Y002596D03*
D1108*
X001034Y002597D03*
X001464Y002597D03*
D1109*
X001464Y002598D03*
X001034Y002598D03*
D1110*
X001033Y002599D03*
X001033Y002599D03*
X001465Y002599D03*
X001465Y002599D03*
D1111*
X001465Y002600D03*
X001033Y002600D03*
D1112*
X001033Y002601D03*
X001466Y002601D03*
D1113*
X001467Y002602D03*
X001032Y002602D03*
D1114*
X001031Y002603D03*
X001467Y002603D03*
D1115*
X001467Y002604D03*
X001031Y002604D03*
D1116*
X001031Y002604D03*
X001030Y002605D03*
X001468Y002604D03*
X001468Y002605D03*
D1117*
X001468Y002605D03*
X001030Y002605D03*
D1118*
X001030Y002606D03*
X001468Y002606D03*
D1119*
X001469Y002607D03*
X001029Y002607D03*
D1120*
X001029Y002607D03*
X001469Y002607D03*
D1121*
X001469Y002608D03*
X001029Y002608D03*
D1122*
X001028Y002608D03*
X001470Y002608D03*
D1123*
X001470Y002609D03*
X001028Y002609D03*
D1124*
X001028Y002610D03*
X001470Y002610D03*
D1125*
X001470Y002610D03*
X001471Y002611D03*
X001028Y002610D03*
X001027Y002611D03*
D1126*
X001027Y002612D03*
X001471Y002612D03*
D1127*
X001472Y002613D03*
X001026Y002613D03*
D1128*
X001026Y002613D03*
X001472Y002613D03*
D1129*
X001472Y002614D03*
X001026Y002614D03*
D1130*
X001026Y002614D03*
X001473Y002614D03*
D1131*
X001025Y002615D03*
D1132*
X001473Y002615D03*
D1133*
X001473Y002616D03*
X001025Y002616D03*
D1134*
X001025Y002616D03*
X001474Y002616D03*
D1135*
X001474Y002617D03*
X001025Y002617D03*
D1136*
X001024Y002617D03*
X001474Y002617D03*
D1137*
X001474Y002618D03*
X001024Y002618D03*
D1138*
X001024Y002619D03*
X001474Y002619D03*
D1139*
X001475Y002619D03*
X001475Y002620D03*
X001023Y002620D03*
X001023Y002619D03*
D1140*
X001023Y002620D03*
X001475Y002620D03*
D1141*
X001476Y002622D03*
X001022Y002622D03*
D1142*
X001022Y002622D03*
X001476Y002622D03*
D1143*
X001476Y002623D03*
X001022Y002623D03*
D1144*
X001021Y002623D03*
X001477Y002623D03*
D1145*
X001477Y002624D03*
X001021Y002624D03*
D1146*
X001020Y002626D03*
X001478Y002626D03*
D1147*
X001478Y002626D03*
X001020Y002626D03*
D1148*
X001020Y002627D03*
X001478Y002627D03*
D1149*
X001478Y002628D03*
X001020Y002628D03*
D1150*
X001020Y002628D03*
X001019Y002629D03*
X001479Y002628D03*
X001479Y002629D03*
D1151*
X001479Y002629D03*
X001019Y002629D03*
D1152*
X001018Y002630D03*
X001480Y002630D03*
D1153*
X001480Y002631D03*
X001018Y002631D03*
D1154*
X001018Y002631D03*
X001480Y002631D03*
D1155*
X001018Y002632D03*
D1156*
X001481Y002632D03*
D1157*
X001017Y002633D03*
X001017Y002632D03*
D1158*
X001481Y002633D03*
X001481Y002632D03*
D1159*
X001482Y002634D03*
X001017Y002634D03*
D1160*
X001017Y002634D03*
X001016Y002635D03*
X001482Y002634D03*
X001482Y002635D03*
D1161*
X001483Y002635D03*
X001016Y002635D03*
D1162*
X001015Y002636D03*
X001015Y002637D03*
X001483Y002637D03*
X001483Y002636D03*
D1163*
X001483Y002637D03*
X001015Y002637D03*
D1164*
X001014Y002638D03*
X001484Y002638D03*
D1165*
X001484Y002638D03*
X001014Y002638D03*
D1166*
X001014Y002639D03*
X001484Y002639D03*
D1167*
X001484Y002640D03*
X001014Y002640D03*
D1168*
X001014Y002640D03*
X001485Y002640D03*
D1169*
X001485Y002641D03*
X001013Y002641D03*
D1170*
X001013Y002641D03*
X001013Y002642D03*
X001485Y002642D03*
X001485Y002641D03*
D1171*
X001486Y002643D03*
X001012Y002643D03*
D1172*
X001012Y002643D03*
X001486Y002643D03*
D1173*
X001486Y002644D03*
X001012Y002644D03*
D1174*
X001011Y002644D03*
X001487Y002644D03*
D1175*
X001487Y002645D03*
X001011Y002645D03*
D1176*
X001010Y002647D03*
X001488Y002647D03*
D1177*
X001488Y002647D03*
X001010Y002647D03*
D1178*
X001010Y002648D03*
X001488Y002648D03*
D1179*
X001488Y002649D03*
X001010Y002649D03*
D1180*
X001009Y002649D03*
X001489Y002649D03*
D1181*
X001489Y002650D03*
X001009Y002650D03*
D1182*
X001009Y002650D03*
X001490Y002650D03*
D1183*
X001490Y002651D03*
X001490Y002652D03*
X001008Y002652D03*
X001008Y002651D03*
D1184*
X001008Y002652D03*
X001490Y002652D03*
D1185*
X001008Y002653D03*
D1186*
X001491Y002653D03*
D1187*
X001491Y002653D03*
X001007Y002653D03*
D1188*
X001007Y002654D03*
X001491Y002654D03*
D1189*
X001491Y002655D03*
X001007Y002655D03*
D1190*
X001006Y002655D03*
X001492Y002655D03*
D1191*
X001492Y002656D03*
X001006Y002656D03*
D1192*
X001005Y002657D03*
X001005Y002658D03*
X001493Y002657D03*
X001493Y002658D03*
D1193*
X001493Y002658D03*
X001005Y002658D03*
D1194*
X001005Y002659D03*
X001494Y002659D03*
D1195*
X001494Y002659D03*
X001004Y002659D03*
D1196*
X001004Y002660D03*
X001494Y002660D03*
D1197*
X001494Y002661D03*
X001494Y002661D03*
X001004Y002661D03*
X001004Y002661D03*
D1198*
X001003Y002662D03*
X001495Y002662D03*
D1199*
X001496Y002663D03*
X001003Y002663D03*
D1200*
X001003Y002664D03*
X001496Y002664D03*
D1201*
X001496Y002664D03*
X001002Y002664D03*
D1202*
X001002Y002665D03*
X001497Y002665D03*
D1203*
X001497Y002665D03*
X001002Y002665D03*
D1204*
X001000Y002667D03*
X001498Y002667D03*
D1205*
X001498Y002668D03*
X001000Y002668D03*
D1206*
X001000Y002668D03*
X001498Y002668D03*
D1207*
X001498Y002669D03*
X001000Y002669D03*
D1208*
X001000Y002670D03*
X001499Y002670D03*
D1209*
X001499Y002670D03*
X000999Y002670D03*
D1210*
X000999Y002671D03*
X001499Y002671D03*
D1211*
X000999Y002671D03*
D1212*
X000998Y002672D03*
D1213*
X001500Y002672D03*
D1214*
X001500Y002673D03*
X000998Y002673D03*
D1215*
X000998Y002673D03*
X001500Y002673D03*
D1216*
X001501Y002674D03*
X001501Y002674D03*
X000997Y002674D03*
X000997Y002674D03*
D1217*
X000997Y002675D03*
X001501Y002675D03*
D1218*
X001502Y002676D03*
X000996Y002676D03*
D1219*
X000996Y002676D03*
X001502Y002676D03*
D1220*
X001502Y002677D03*
X000996Y002677D03*
D1221*
X000996Y002677D03*
X000996Y002678D03*
X001503Y002678D03*
X001503Y002677D03*
D1222*
X001503Y002679D03*
X000995Y002679D03*
D1223*
X000995Y002679D03*
X000995Y002680D03*
X001503Y002680D03*
X001503Y002679D03*
D1224*
X001504Y002680D03*
X000994Y002680D03*
D1225*
X000994Y002681D03*
X001504Y002681D03*
D1226*
X001504Y002682D03*
X000994Y002682D03*
D1227*
X000994Y002682D03*
X001505Y002682D03*
D1228*
X001505Y002683D03*
X000993Y002683D03*
D1229*
X000993Y002683D03*
X001505Y002683D03*
D1230*
X001505Y002684D03*
X000993Y002684D03*
D1231*
X000993Y002685D03*
X000992Y002685D03*
X001506Y002685D03*
X001506Y002685D03*
D1232*
X001506Y002686D03*
X000992Y002686D03*
D1233*
X000992Y002686D03*
X001506Y002686D03*
D1234*
X001507Y002687D03*
X000991Y002687D03*
D1235*
X000991Y002688D03*
X001507Y002688D03*
D1236*
X001508Y002688D03*
X001508Y002689D03*
X000990Y002689D03*
X000990Y002688D03*
D1237*
X000990Y002690D03*
X001508Y002690D03*
D1238*
X000990Y002691D03*
D1239*
X001509Y002691D03*
D1240*
X001509Y002691D03*
X000989Y002691D03*
D1241*
X000989Y002692D03*
X001509Y002692D03*
D1242*
X001509Y002692D03*
X000989Y002692D03*
D1243*
X000988Y002693D03*
X000988Y002694D03*
X000988Y002695D03*
X001510Y002694D03*
X001510Y002693D03*
X001511Y002695D03*
D1244*
X001510Y002694D03*
X000988Y002694D03*
D1245*
X000987Y002695D03*
X001511Y002695D03*
D1246*
X001511Y002696D03*
X000987Y002696D03*
D1247*
X000987Y002697D03*
X001512Y002697D03*
D1248*
X001512Y002697D03*
X000986Y002697D03*
D1249*
X000986Y002698D03*
X001513Y002698D03*
D1250*
X001513Y002699D03*
X000985Y002699D03*
D1251*
X000985Y002700D03*
X001513Y002700D03*
D1252*
X001514Y002701D03*
X000984Y002701D03*
D1253*
X000984Y002701D03*
X001514Y002701D03*
D1254*
X001514Y002702D03*
X000984Y002702D03*
D1255*
X000983Y002704D03*
X001515Y002704D03*
D1256*
X001515Y002705D03*
X000983Y002705D03*
D1257*
X000982Y002706D03*
X000982Y002706D03*
X001516Y002706D03*
X001516Y002706D03*
D1258*
X001517Y002709D03*
X000981Y002709D03*
D1259*
X000980Y002709D03*
D1260*
X001518Y002709D03*
D1261*
X001518Y002710D03*
X000980Y002710D03*
D1262*
X000979Y002712D03*
X001519Y002712D03*
D1263*
X001520Y002713D03*
X001520Y002713D03*
X000979Y002713D03*
X000979Y002713D03*
D1264*
X000978Y002714D03*
X001520Y002714D03*
D1265*
X001520Y002715D03*
X000978Y002715D03*
D1266*
X000978Y002715D03*
X001521Y002715D03*
D1267*
X001521Y002716D03*
X000977Y002716D03*
D1268*
X000976Y002718D03*
X001522Y002718D03*
D1269*
X001522Y002718D03*
X001522Y002719D03*
X000976Y002719D03*
X000976Y002718D03*
D1270*
X000975Y002722D03*
X001524Y002722D03*
D1271*
X000973Y002724D03*
X000973Y002725D03*
D1272*
X001525Y002725D03*
X001525Y002724D03*
D1273*
X001525Y002725D03*
D1274*
X000973Y002726D03*
X000973Y002727D03*
D1275*
X000972Y002728D03*
D1276*
X001526Y002728D03*
D1277*
X001527Y002728D03*
X000972Y002728D03*
D1278*
X000971Y002729D03*
D1279*
X001527Y002729D03*
D1280*
X001528Y002731D03*
X000970Y002731D03*
D1281*
X000969Y002733D03*
X000969Y002734D03*
X001529Y002734D03*
X001529Y002733D03*
D1282*
X001530Y002735D03*
X000968Y002735D03*
D1283*
X000968Y002736D03*
X000967Y002736D03*
X001530Y002736D03*
X001531Y002736D03*
D1284*
X001531Y002737D03*
X000967Y002737D03*
D1285*
X000967Y002738D03*
X001531Y002738D03*
D1286*
X001533Y002740D03*
X000966Y002740D03*
D1287*
X000965Y002742D03*
X001533Y002742D03*
D1288*
X001534Y002743D03*
X000964Y002743D03*
D1289*
X000964Y002744D03*
X001534Y002744D03*
D1290*
X001535Y002745D03*
X000964Y002745D03*
D1291*
X000963Y002745D03*
X001535Y002745D03*
D1292*
X001535Y002746D03*
X000963Y002746D03*
D1293*
X000962Y002748D03*
X001536Y002747D03*
X001536Y002748D03*
D1294*
X001536Y002748D03*
X000962Y002748D03*
D1295*
X000962Y002749D03*
X001536Y002749D03*
D1296*
X001537Y002750D03*
X000961Y002750D03*
D1297*
X000960Y002751D03*
X001538Y002751D03*
D1298*
X001538Y002752D03*
X000960Y002752D03*
D1299*
X000959Y002754D03*
X001539Y002754D03*
D1300*
X001541Y002757D03*
X000958Y002757D03*
D1301*
X000957Y002759D03*
X001541Y002759D03*
D1302*
X001542Y002760D03*
X000957Y002760D03*
D1303*
X000956Y002760D03*
X001542Y002760D03*
D1304*
X001543Y002763D03*
X000955Y002763D03*
D1305*
X000955Y002763D03*
X001544Y002763D03*
D1306*
X000954Y002766D03*
D1307*
X000953Y002766D03*
X001545Y002766D03*
X001545Y002766D03*
D1308*
X001545Y002767D03*
X000953Y002767D03*
D1309*
X000951Y002769D03*
X000951Y002770D03*
X001547Y002770D03*
X001547Y002769D03*
D1310*
X001547Y002770D03*
X000951Y002770D03*
D1311*
X000950Y002772D03*
X001548Y002772D03*
D1312*
X001549Y002774D03*
X000949Y002774D03*
D1313*
X000949Y002775D03*
X000949Y002775D03*
X001549Y002775D03*
X001549Y002775D03*
D1314*
X001550Y002776D03*
X000949Y002776D03*
D1315*
X000948Y002776D03*
X001550Y002776D03*
D1316*
X001551Y002778D03*
X000948Y002778D03*
D1317*
X000947Y002779D03*
X001551Y002779D03*
D1318*
X001551Y002779D03*
X000947Y002779D03*
D1319*
X000946Y002780D03*
X001552Y002780D03*
D1320*
X001553Y002782D03*
X000945Y002782D03*
D1321*
X000945Y002783D03*
X001553Y002783D03*
D1322*
X001554Y002784D03*
X000945Y002784D03*
D1323*
X000944Y002785D03*
D1324*
X000944Y002785D03*
X001554Y002785D03*
D1325*
X001555Y002787D03*
X000943Y002787D03*
D1326*
X000943Y002788D03*
X001555Y002788D03*
D1327*
X001556Y002788D03*
X000943Y002788D03*
D1328*
X000943Y002789D03*
X001556Y002789D03*
D1329*
X001557Y002791D03*
X000941Y002791D03*
D1330*
X000940Y002793D03*
X001558Y002793D03*
D1331*
X001559Y002795D03*
X000939Y002795D03*
D1332*
X000939Y002797D03*
X001560Y002797D03*
D1333*
X001560Y002797D03*
X000938Y002797D03*
D1334*
X000938Y002798D03*
X001560Y002798D03*
D1335*
X001560Y002799D03*
X000938Y002799D03*
D1336*
X000936Y002802D03*
X001562Y002802D03*
D1337*
X000935Y002803D03*
D1338*
X001563Y002803D03*
D1339*
X001563Y002804D03*
X000935Y002804D03*
D1340*
X000934Y002805D03*
X001564Y002805D03*
D1341*
X001564Y002806D03*
X000934Y002806D03*
D1342*
X000934Y002807D03*
X001565Y002807D03*
D1343*
X001565Y002808D03*
X000934Y002808D03*
D1344*
X000933Y002809D03*
X001566Y002809D03*
D1345*
X001566Y002810D03*
X000932Y002810D03*
D1346*
X000932Y002812D03*
X001566Y002812D03*
D1347*
X001567Y002812D03*
X000931Y002812D03*
D1348*
X000930Y002814D03*
X001568Y002814D03*
D1349*
X001568Y002815D03*
X000930Y002815D03*
D1350*
X000928Y002819D03*
X001570Y002819D03*
D1351*
X000927Y002820D03*
D1352*
X001571Y002820D03*
D1353*
X001571Y002821D03*
D1354*
X001572Y002823D03*
X000926Y002823D03*
D1355*
X000925Y002824D03*
X001573Y002824D03*
D1356*
X001573Y002825D03*
X000925Y002825D03*
D1357*
X000924Y002827D03*
X001574Y002827D03*
D1358*
X001575Y002830D03*
X000923Y002830D03*
D1359*
X000921Y002832D03*
X001577Y002832D03*
D1360*
X001577Y002833D03*
X000921Y002833D03*
D1361*
X000921Y002833D03*
X001577Y002833D03*
D1362*
X001577Y002834D03*
X000921Y002834D03*
D1363*
X000920Y002836D03*
X001578Y002836D03*
D1364*
X001580Y002840D03*
X000918Y002840D03*
D1365*
X001581Y002841D03*
D1366*
X001587Y002853D03*
X000912Y002853D03*
D1367*
X000911Y002855D03*
X001588Y002855D03*
D1368*
X001588Y002857D03*
X000910Y002857D03*
D1369*
X000910Y002857D03*
X001588Y002857D03*
D1370*
X001589Y002859D03*
X000909Y002859D03*
D1371*
X000906Y002864D03*
X001592Y002864D03*
D1372*
X001595Y002870D03*
X000904Y002870D03*
D1373*
X000903Y002871D03*
X001595Y002871D03*
D1374*
X001598Y002876D03*
X000900Y002876D03*
D1375*
X000900Y002877D03*
X001598Y002877D03*
D1376*
X000900Y002878D03*
D1377*
X000898Y002881D03*
X001600Y002881D03*
D1378*
X001600Y002881D03*
X000898Y002881D03*
D1379*
X000898Y002882D03*
X001600Y002882D03*
D1380*
X001601Y002883D03*
X000898Y002883D03*
D1381*
X000896Y002885D03*
X001602Y002885D03*
D1382*
X001603Y002887D03*
X000896Y002887D03*
D1383*
X000895Y002887D03*
X000895Y002888D03*
X001603Y002888D03*
X001603Y002887D03*
D1384*
X001605Y002890D03*
X000894Y002890D03*
D1385*
X000893Y002892D03*
X001605Y002892D03*
D1386*
X001605Y002893D03*
X000893Y002893D03*
D1387*
X000891Y002895D03*
X000891Y002896D03*
X001607Y002895D03*
X001607Y002896D03*
D1388*
X000891Y002897D03*
D1389*
X000890Y002898D03*
X001608Y002898D03*
D1390*
X001608Y002898D03*
X001609Y002899D03*
X000890Y002898D03*
X000889Y002899D03*
D1391*
X000889Y002900D03*
X001609Y002900D03*
D1392*
X001610Y002901D03*
X000888Y002901D03*
D1393*
X000888Y002902D03*
X001611Y002902D03*
D1394*
X001611Y002904D03*
X000887Y002904D03*
D1395*
X000887Y002905D03*
X001611Y002905D03*
D1396*
X001611Y002905D03*
X000887Y002905D03*
D1397*
X000886Y002906D03*
X001612Y002906D03*
D1398*
X001612Y002907D03*
X000886Y002907D03*
D1399*
X000886Y002907D03*
X001612Y002907D03*
D1400*
X001613Y002908D03*
X000885Y002908D03*
D1401*
X000885Y002908D03*
X001613Y002908D03*
D1402*
X001614Y002911D03*
X000884Y002911D03*
D1403*
X000884Y002911D03*
X001614Y002911D03*
D1404*
X001615Y002913D03*
X000883Y002913D03*
D1405*
X000883Y002913D03*
X000883Y002914D03*
X001615Y002914D03*
X001615Y002913D03*
D1406*
X001616Y002915D03*
X000882Y002915D03*
D1407*
X000882Y002916D03*
X000882Y002916D03*
D1408*
X001616Y002916D03*
X001616Y002916D03*
D1409*
X001617Y002917D03*
X001617Y002918D03*
D1410*
X000880Y002919D03*
D1411*
X001618Y002919D03*
D1412*
X000880Y002919D03*
D1413*
X001618Y002919D03*
D1414*
X001619Y002920D03*
X000879Y002920D03*
D1415*
X000879Y002922D03*
D1416*
X001619Y002922D03*
D1417*
X001620Y002923D03*
X001620Y002923D03*
X000878Y002923D03*
X000878Y002923D03*
D1418*
X000878Y002925D03*
X001620Y002925D03*
D1419*
X001621Y002926D03*
X000877Y002926D03*
D1420*
X000876Y002927D03*
X001622Y002927D03*
D1421*
X001622Y002928D03*
X000876Y002928D03*
D1422*
X000876Y002929D03*
X001623Y002929D03*
D1423*
X001623Y002930D03*
X000875Y002930D03*
D1424*
X000875Y002931D03*
X001624Y002931D03*
D1425*
X001624Y002932D03*
X000874Y002932D03*
D1426*
X000873Y002934D03*
X001625Y002934D03*
D1427*
X000873Y002935D03*
D1428*
X000873Y002935D03*
X001626Y002935D03*
D1429*
X001626Y002936D03*
X000872Y002936D03*
D1430*
X000871Y002939D03*
X001627Y002939D03*
D1431*
X001628Y002940D03*
X000870Y002940D03*
D1432*
X000869Y002943D03*
X001629Y002943D03*
D1433*
X001629Y002943D03*
X000869Y002943D03*
D1434*
X000868Y002944D03*
X001630Y002944D03*
D1435*
X001630Y002945D03*
X000868Y002945D03*
D1436*
X000868Y002946D03*
X001630Y002946D03*
D1437*
X001631Y002947D03*
X000867Y002947D03*
D1438*
X000867Y002947D03*
X001631Y002947D03*
D1439*
X001632Y002949D03*
X000866Y002949D03*
D1440*
X000865Y002950D03*
X001633Y002950D03*
D1441*
X001633Y002951D03*
X001633Y002952D03*
X000865Y002952D03*
X000865Y002951D03*
D1442*
X000864Y002952D03*
X001634Y002952D03*
D1443*
X001634Y002953D03*
X000864Y002953D03*
D1444*
X000864Y002953D03*
D1445*
X000863Y002956D03*
X001635Y002956D03*
D1446*
X001636Y002957D03*
X000862Y002957D03*
D1447*
X000862Y002958D03*
X001636Y002958D03*
D1448*
X001638Y002961D03*
X001639Y002962D03*
X001639Y002963D03*
X000860Y002961D03*
X000860Y002962D03*
X000860Y002963D03*
D1449*
X000860Y002962D03*
X001638Y002962D03*
D1450*
X001639Y002964D03*
X000859Y002964D03*
D1451*
X000859Y002965D03*
X001639Y002965D03*
D1452*
X001640Y002965D03*
X000859Y002965D03*
D1453*
X000858Y002966D03*
X001640Y002966D03*
D1454*
X001641Y002970D03*
X000857Y002970D03*
D1455*
X000856Y002970D03*
X001642Y002970D03*
D1456*
X001642Y002971D03*
X000856Y002971D03*
D1457*
X000855Y002972D03*
D1458*
X001643Y002972D03*
D1459*
X001643Y002973D03*
X001644Y002974D03*
X000855Y002973D03*
X000854Y002974D03*
D1460*
X000854Y002975D03*
X001644Y002975D03*
D1461*
X001645Y002977D03*
X000853Y002977D03*
D1462*
X000853Y002978D03*
X000852Y002979D03*
X001646Y002978D03*
X001646Y002979D03*
D1463*
X001647Y002980D03*
X000851Y002980D03*
D1464*
X000851Y002981D03*
X001647Y002981D03*
D1465*
X001647Y002982D03*
X000851Y002982D03*
D1466*
X000851Y002982D03*
X001648Y002982D03*
D1467*
X001648Y002983D03*
X000850Y002983D03*
D1468*
X000850Y002984D03*
X001648Y002984D03*
D1469*
X001649Y002985D03*
X000849Y002985D03*
D1470*
X000849Y002986D03*
X001649Y002986D03*
D1471*
X001650Y002986D03*
X000849Y002986D03*
D1472*
X000848Y002987D03*
X000848Y002988D03*
X001650Y002987D03*
X001650Y002988D03*
D1473*
X001650Y002988D03*
X000848Y002988D03*
D1474*
X000847Y002990D03*
X001651Y002990D03*
D1475*
X001652Y002991D03*
D1476*
X001654Y002995D03*
X000845Y002995D03*
D1477*
X000844Y002996D03*
X000844Y002997D03*
X001654Y002996D03*
X001654Y002997D03*
D1478*
X001655Y002998D03*
X000843Y002998D03*
D1479*
X000843Y003000D03*
X001656Y003000D03*
D1480*
X001656Y003000D03*
X000842Y003000D03*
D1481*
X000842Y003001D03*
X001656Y003001D03*
D1482*
X001656Y003001D03*
X000842Y003001D03*
D1483*
X000842Y003002D03*
X000841Y003003D03*
X001656Y003002D03*
X001657Y003003D03*
D1484*
X001658Y003004D03*
X001658Y003006D03*
X000840Y003004D03*
X000840Y003006D03*
D1485*
X000839Y003007D03*
X001659Y003007D03*
D1486*
X001659Y003007D03*
X001659Y003008D03*
X000839Y003008D03*
X000839Y003007D03*
D1487*
X000838Y003010D03*
X001660Y003010D03*
X001661Y003011D03*
D1488*
X000838Y003010D03*
D1489*
X001660Y003010D03*
D1490*
X000838Y003011D03*
D1491*
X000837Y003012D03*
X001661Y003012D03*
D1492*
X001662Y003013D03*
X000837Y003013D03*
D1493*
X000836Y003014D03*
X001662Y003014D03*
D1494*
X001662Y003015D03*
X000836Y003015D03*
D1495*
X000836Y003015D03*
X001663Y003015D03*
D1496*
X001663Y003016D03*
X000836Y003016D03*
D1497*
X000833Y003021D03*
X000833Y003021D03*
X001665Y003021D03*
X001665Y003021D03*
D1498*
X001665Y003022D03*
X000833Y003022D03*
D1499*
X000832Y003023D03*
X001666Y003023D03*
D1500*
X001666Y003024D03*
X000832Y003024D03*
D1501*
X000831Y003027D03*
X001668Y003027D03*
D1502*
X001668Y003028D03*
X000830Y003028D03*
D1503*
X000829Y003029D03*
D1504*
X001669Y003029D03*
D1505*
X001669Y003030D03*
D1506*
X000829Y003030D03*
D1507*
X000829Y003031D03*
D1508*
X000828Y003033D03*
X001670Y003033D03*
D1509*
X001671Y003034D03*
X000827Y003034D03*
D1510*
X000826Y003037D03*
X001672Y003037D03*
D1511*
X001673Y003038D03*
X000825Y003038D03*
D1512*
X000825Y003039D03*
X001673Y003039D03*
D1513*
X001674Y003040D03*
X000825Y003040D03*
D1514*
X000825Y003040D03*
X001674Y003040D03*
D1515*
X001674Y003042D03*
X000824Y003042D03*
D1516*
X000823Y003043D03*
X000823Y003043D03*
X001675Y003043D03*
X001675Y003043D03*
D1517*
X001675Y003044D03*
X000823Y003044D03*
D1518*
X000823Y003045D03*
X001676Y003045D03*
D1519*
X001676Y003045D03*
X000822Y003045D03*
D1520*
X000822Y003046D03*
X001676Y003046D03*
D1521*
X001677Y003046D03*
X001677Y003047D03*
X000822Y003047D03*
X000822Y003046D03*
D1522*
X000821Y003048D03*
X001677Y003048D03*
D1523*
X001678Y003049D03*
X000821Y003049D03*
D1524*
X000820Y003049D03*
D1525*
X001678Y003049D03*
D1526*
X001678Y003050D03*
X000820Y003050D03*
D1527*
X000819Y003051D03*
X001679Y003051D03*
D1528*
X001679Y003052D03*
X000819Y003052D03*
D1529*
X000819Y003052D03*
X001679Y003052D03*
D1530*
X001679Y003054D03*
X000819Y003054D03*
D1531*
X000819Y003054D03*
X001680Y003054D03*
D1532*
X001680Y003055D03*
X000818Y003055D03*
D1533*
X000818Y003055D03*
X001680Y003055D03*
D1534*
X001681Y003057D03*
X000817Y003057D03*
D1535*
X000815Y003061D03*
X001683Y003061D03*
D1536*
X001684Y003063D03*
X000814Y003063D03*
D1537*
X000814Y003063D03*
X000814Y003064D03*
X001684Y003064D03*
X001684Y003063D03*
D1538*
X001684Y003064D03*
X000814Y003064D03*
D1539*
X000813Y003066D03*
X000812Y003067D03*
X001685Y003066D03*
X001686Y003067D03*
D1540*
X001686Y003067D03*
X000813Y003067D03*
D1541*
X000812Y003068D03*
X001686Y003068D03*
D1542*
X000812Y003069D03*
D1543*
X001686Y003069D03*
D1544*
X001688Y003072D03*
X000810Y003072D03*
D1545*
X000810Y003073D03*
X001688Y003073D03*
D1546*
X001689Y003074D03*
X000809Y003074D03*
D1547*
X000808Y003075D03*
X001690Y003075D03*
D1548*
X001690Y003076D03*
X000808Y003076D03*
D1549*
X000808Y003076D03*
X001690Y003076D03*
D1550*
X001690Y003078D03*
X000808Y003078D03*
D1551*
X000808Y003078D03*
X001691Y003078D03*
D1552*
X001691Y003080D03*
X000807Y003080D03*
D1553*
X000805Y003083D03*
X001693Y003083D03*
D1554*
X001693Y003084D03*
X000805Y003084D03*
D1555*
X000804Y003086D03*
X000804Y003087D03*
X001694Y003087D03*
X001694Y003086D03*
D1556*
X001695Y003087D03*
X000804Y003087D03*
D1557*
X000803Y003088D03*
D1558*
X001695Y003088D03*
D1559*
X000803Y003089D03*
D1560*
X001695Y003089D03*
D1561*
X001695Y003090D03*
X001696Y003090D03*
X000803Y003090D03*
X000802Y003090D03*
D1562*
X000802Y003091D03*
X001696Y003091D03*
D1563*
X001697Y003093D03*
X001697Y003094D03*
X000801Y003094D03*
X000801Y003093D03*
D1564*
X000800Y003096D03*
X001698Y003096D03*
D1565*
X001698Y003096D03*
X000800Y003096D03*
D1566*
X000799Y003099D03*
X001699Y003099D03*
D1567*
X001699Y003099D03*
X000799Y003099D03*
D1568*
X000796Y003107D03*
X000795Y003108D03*
X001702Y003107D03*
X001703Y003108D03*
D1569*
X001704Y003110D03*
X000794Y003110D03*
D1570*
X000792Y003115D03*
X001706Y003115D03*
D1571*
X001711Y003127D03*
X000787Y003127D03*
D1572*
X001712Y003130D03*
D1573*
X001719Y003149D03*
X000779Y003149D03*
D1574*
X000777Y003154D03*
X001722Y003154D03*
D1575*
X001724Y003160D03*
X000774Y003160D03*
D1576*
X000578Y000927D02*
X003334Y000927D01*
X003334Y000926D02*
X003344Y000925D01*
X003354Y000921D01*
X003362Y000915D01*
X003368Y000907D01*
X003372Y000897D01*
X003373Y000887D01*
X003374Y000887D02*
X003376Y000833D01*
X003381Y000780D01*
X003390Y000727D01*
X003403Y000675D01*
X003419Y000623D01*
X003439Y000573D01*
X003462Y000525D01*
X003489Y000478D01*
X003518Y000433D01*
X003551Y000390D01*
X003586Y000350D01*
X003624Y000312D01*
X003664Y000277D01*
X003707Y000244D01*
X003752Y000215D01*
X003799Y000188D01*
X003847Y000165D01*
X003897Y000145D01*
X003949Y000129D01*
X004001Y000116D01*
X004054Y000107D01*
X004107Y000102D01*
X004161Y000100D01*
X004239Y000100D01*
X004293Y000102D01*
X004346Y000107D01*
X004399Y000116D01*
X004451Y000129D01*
X004503Y000145D01*
X004553Y000165D01*
X004601Y000188D01*
X004648Y000215D01*
X004693Y000244D01*
X004736Y000277D01*
X004776Y000312D01*
X004814Y000350D01*
X004849Y000390D01*
X004882Y000433D01*
X004911Y000478D01*
X004938Y000525D01*
X004961Y000573D01*
X004981Y000623D01*
X004997Y000675D01*
X005010Y000727D01*
X005019Y000780D01*
X005024Y000833D01*
X005026Y000887D01*
X005029Y000899D01*
X005035Y000910D01*
X005043Y000918D01*
X005054Y000924D01*
X005066Y000927D01*
X007822Y000927D01*
X007855Y000929D01*
X007887Y000934D01*
X007919Y000942D01*
X007950Y000954D01*
X007980Y000969D01*
X008007Y000987D01*
X008033Y001008D01*
X008056Y001031D01*
X008077Y001057D01*
X008095Y001084D01*
X008110Y001114D01*
X008122Y001145D01*
X008130Y001177D01*
X008135Y001209D01*
X008137Y001242D01*
X008137Y003998D01*
X008138Y003998D02*
X008135Y004010D01*
X008129Y004021D01*
X008121Y004029D01*
X008110Y004035D01*
X008098Y004038D01*
X008098Y004037D02*
X008044Y004039D01*
X007991Y004044D01*
X007938Y004053D01*
X007886Y004066D01*
X007834Y004082D01*
X007784Y004102D01*
X007736Y004125D01*
X007689Y004152D01*
X007644Y004181D01*
X007601Y004214D01*
X007561Y004249D01*
X007523Y004287D01*
X007488Y004327D01*
X007455Y004370D01*
X007426Y004415D01*
X007399Y004462D01*
X007376Y004510D01*
X007356Y004560D01*
X007340Y004612D01*
X007327Y004664D01*
X007318Y004717D01*
X007313Y004770D01*
X007311Y004824D01*
X007310Y004824D02*
X007310Y004864D01*
X007311Y004864D02*
X007310Y004919D01*
X007313Y004974D01*
X007320Y005029D01*
X007331Y005084D01*
X007346Y005137D01*
X007364Y005190D01*
X007386Y005241D01*
X007412Y005290D01*
X007441Y005337D01*
X007473Y005382D01*
X007509Y005425D01*
X007547Y005465D01*
X007588Y005503D01*
X007631Y005537D01*
X007677Y005568D01*
X007725Y005596D01*
X007775Y005621D01*
X007826Y005642D01*
X007879Y005659D01*
X007933Y005672D01*
X007987Y005682D01*
X008043Y005688D01*
X008098Y005690D01*
X008098Y005691D02*
X008108Y005692D01*
X008118Y005696D01*
X008126Y005702D01*
X008132Y005711D01*
X008136Y005720D01*
X008137Y005730D01*
X008137Y008486D01*
X008135Y008519D01*
X008130Y008551D01*
X008122Y008583D01*
X008110Y008614D01*
X008095Y008644D01*
X008077Y008671D01*
X008056Y008697D01*
X008033Y008720D01*
X008007Y008741D01*
X007980Y008759D01*
X007950Y008774D01*
X007919Y008786D01*
X007887Y008794D01*
X007855Y008799D01*
X007822Y008801D01*
X005066Y008801D01*
X005056Y008802D01*
X005047Y008806D01*
X005038Y008812D01*
X005032Y008821D01*
X005028Y008830D01*
X005027Y008840D01*
X005026Y008840D02*
X005024Y008894D01*
X005019Y008947D01*
X005010Y009000D01*
X004997Y009052D01*
X004981Y009104D01*
X004961Y009154D01*
X004938Y009202D01*
X004911Y009249D01*
X004882Y009294D01*
X004849Y009337D01*
X004814Y009377D01*
X004776Y009415D01*
X004736Y009450D01*
X004693Y009483D01*
X004648Y009512D01*
X004601Y009539D01*
X004553Y009562D01*
X004503Y009582D01*
X004451Y009598D01*
X004399Y009611D01*
X004346Y009620D01*
X004293Y009625D01*
X004239Y009627D01*
X004239Y009628D02*
X004161Y009628D01*
X004161Y009627D02*
X004107Y009625D01*
X004054Y009620D01*
X004001Y009611D01*
X003949Y009598D01*
X003897Y009582D01*
X003847Y009562D01*
X003799Y009539D01*
X003752Y009512D01*
X003707Y009483D01*
X003664Y009450D01*
X003624Y009415D01*
X003586Y009377D01*
X003551Y009337D01*
X003518Y009294D01*
X003489Y009249D01*
X003462Y009202D01*
X003439Y009154D01*
X003419Y009104D01*
X003403Y009052D01*
X003390Y009000D01*
X003381Y008947D01*
X003376Y008894D01*
X003374Y008840D01*
X003373Y008840D02*
X003372Y008830D01*
X003368Y008821D01*
X003362Y008812D01*
X003354Y008806D01*
X003344Y008802D01*
X003334Y008801D01*
X000578Y008801D01*
X000545Y008799D01*
X000513Y008794D01*
X000481Y008786D01*
X000450Y008774D01*
X000421Y008759D01*
X000393Y008741D01*
X000367Y008720D01*
X000344Y008697D01*
X000323Y008671D01*
X000305Y008644D01*
X000290Y008614D01*
X000278Y008583D01*
X000270Y008551D01*
X000265Y008519D01*
X000263Y008486D01*
X000263Y005730D01*
X000264Y005720D01*
X000268Y005711D01*
X000274Y005702D01*
X000283Y005696D01*
X000292Y005692D01*
X000302Y005691D01*
X000302Y005690D02*
X000356Y005688D01*
X000409Y005683D01*
X000462Y005674D01*
X000514Y005661D01*
X000566Y005645D01*
X000616Y005625D01*
X000664Y005602D01*
X000711Y005575D01*
X000756Y005546D01*
X000799Y005513D01*
X000839Y005478D01*
X000877Y005440D01*
X000912Y005400D01*
X000945Y005357D01*
X000974Y005312D01*
X001001Y005265D01*
X001024Y005217D01*
X001044Y005167D01*
X001060Y005115D01*
X001073Y005063D01*
X001082Y005010D01*
X001087Y004957D01*
X001089Y004903D01*
X001090Y004903D02*
X001090Y004824D01*
X001089Y004824D02*
X001087Y004770D01*
X001082Y004717D01*
X001073Y004664D01*
X001060Y004612D01*
X001044Y004560D01*
X001024Y004510D01*
X001001Y004462D01*
X000974Y004415D01*
X000945Y004370D01*
X000912Y004327D01*
X000877Y004287D01*
X000839Y004249D01*
X000799Y004214D01*
X000756Y004181D01*
X000711Y004152D01*
X000664Y004125D01*
X000616Y004102D01*
X000566Y004082D01*
X000514Y004066D01*
X000462Y004053D01*
X000409Y004044D01*
X000356Y004039D01*
X000302Y004037D01*
X000292Y004036D01*
X000283Y004032D01*
X000274Y004026D01*
X000268Y004018D01*
X000264Y004008D01*
X000263Y003998D01*
X000263Y001242D01*
X000265Y001209D01*
X000270Y001177D01*
X000278Y001145D01*
X000290Y001114D01*
X000305Y001084D01*
X000323Y001057D01*
X000344Y001031D01*
X000367Y001008D01*
X000393Y000987D01*
X000421Y000969D01*
X000450Y000954D01*
X000481Y000942D01*
X000513Y000934D01*
X000545Y000929D01*
X000578Y000927D01*
X000519Y001860D02*
X000519Y001862D01*
X000519Y001861D01*
X000519Y001861D01*
X000519Y001861D01*
X000519Y001862D01*
X000519Y001861D01*
X000520Y001861D01*
X000520Y001861D01*
X000520Y001861D01*
X000520Y001862D01*
X000519Y001862D01*
X000518Y001862D01*
X000517Y001862D01*
X000517Y001861D01*
X000517Y001861D01*
X000517Y001861D01*
X000517Y001861D01*
X000517Y001861D01*
X000518Y001861D01*
X000518Y001861D01*
X000518Y001861D01*
X000518Y001862D01*
X000518Y001861D01*
X000516Y001861D02*
X000516Y001861D01*
X000516Y001861D01*
X000516Y001861D01*
X000516Y001862D01*
X000516Y001862D01*
X000516Y001862D01*
X000516Y001861D01*
X000515Y001861D02*
X000515Y001861D01*
X000515Y001861D01*
X000515Y001862D01*
X000515Y001862D01*
X000514Y001862D02*
X000513Y001861D01*
X000513Y001862D01*
X000513Y001862D01*
X000512Y001862D01*
X000512Y001861D01*
X000512Y001862D01*
X000512Y001862D01*
X000511Y001862D01*
X000510Y001861D01*
X000510Y001862D02*
X000511Y001861D01*
X000511Y001862D01*
X000510Y001862D02*
X000509Y001861D01*
X000508Y001862D02*
X000509Y001862D01*
X000508Y001861D02*
X000508Y001862D01*
X000508Y001861D01*
X000507Y001861D01*
X000507Y001861D01*
X000507Y001861D01*
X000508Y001861D01*
X000508Y001861D01*
X000508Y001862D01*
X000507Y001862D01*
X000507Y001861D01*
X000506Y001861D01*
X000507Y001862D01*
X000506Y001861D02*
X000506Y001862D01*
X000506Y001861D01*
X000505Y001861D01*
X000505Y001861D01*
X000505Y001861D01*
X000506Y001861D01*
X000506Y001861D01*
X000505Y001862D02*
X000506Y001862D01*
X000505Y001861D02*
X000505Y001861D01*
X000504Y001862D01*
X000504Y001861D01*
X000504Y001862D01*
X000504Y001862D01*
X000503Y001861D01*
X000503Y001862D02*
X000504Y001861D01*
X000504Y001861D01*
X000504Y001862D01*
X000502Y001861D02*
X000502Y001862D01*
X000501Y001862D02*
X000501Y001861D01*
X000501Y001861D01*
X000501Y001861D01*
X000501Y001861D01*
X000501Y001861D01*
X000501Y001862D01*
X000501Y001862D01*
X000500Y001861D01*
X000500Y001861D01*
X000500Y001862D01*
X000500Y001862D01*
X000501Y001862D02*
X000501Y001862D01*
X000501Y001861D02*
X000501Y001861D01*
X000512Y001861D02*
X000513Y001861D01*
X000513Y001862D01*
X000514Y001861D02*
X000514Y001861D01*
X003767Y000927D02*
X003769Y000968D01*
X003775Y001009D01*
X003785Y001049D01*
X003798Y001088D01*
X003815Y001125D01*
X003836Y001161D01*
X003860Y001195D01*
X003887Y001226D01*
X003916Y001254D01*
X003949Y001280D01*
X003983Y001302D01*
X004020Y001321D01*
X004058Y001336D01*
X004098Y001348D01*
X004138Y001356D01*
X004179Y001360D01*
X004221Y001360D01*
X004262Y001356D01*
X004302Y001348D01*
X004342Y001336D01*
X004380Y001321D01*
X004416Y001302D01*
X004451Y001280D01*
X004484Y001254D01*
X004513Y001226D01*
X004540Y001195D01*
X004564Y001161D01*
X004585Y001125D01*
X004602Y001088D01*
X004615Y001049D01*
X004625Y001009D01*
X004631Y000968D01*
X004633Y000927D01*
X004631Y000886D01*
X004625Y000845D01*
X004615Y000805D01*
X004602Y000766D01*
X004585Y000729D01*
X004564Y000693D01*
X004540Y000659D01*
X004513Y000628D01*
X004484Y000600D01*
X004451Y000574D01*
X004417Y000552D01*
X004380Y000533D01*
X004342Y000518D01*
X004302Y000506D01*
X004262Y000498D01*
X004221Y000494D01*
X004179Y000494D01*
X004138Y000498D01*
X004098Y000506D01*
X004058Y000518D01*
X004020Y000533D01*
X003984Y000552D01*
X003949Y000574D01*
X003916Y000600D01*
X003887Y000628D01*
X003860Y000659D01*
X003836Y000693D01*
X003815Y000729D01*
X003798Y000766D01*
X003785Y000805D01*
X003775Y000845D01*
X003769Y000886D01*
X003767Y000927D01*
X003767Y008801D02*
X003769Y008842D01*
X003775Y008883D01*
X003785Y008923D01*
X003798Y008962D01*
X003815Y008999D01*
X003836Y009035D01*
X003860Y009069D01*
X003887Y009100D01*
X003916Y009128D01*
X003949Y009154D01*
X003983Y009176D01*
X004020Y009195D01*
X004058Y009210D01*
X004098Y009222D01*
X004138Y009230D01*
X004179Y009234D01*
X004221Y009234D01*
X004262Y009230D01*
X004302Y009222D01*
X004342Y009210D01*
X004380Y009195D01*
X004416Y009176D01*
X004451Y009154D01*
X004484Y009128D01*
X004513Y009100D01*
X004540Y009069D01*
X004564Y009035D01*
X004585Y008999D01*
X004602Y008962D01*
X004615Y008923D01*
X004625Y008883D01*
X004631Y008842D01*
X004633Y008801D01*
X004631Y008760D01*
X004625Y008719D01*
X004615Y008679D01*
X004602Y008640D01*
X004585Y008603D01*
X004564Y008567D01*
X004540Y008533D01*
X004513Y008502D01*
X004484Y008474D01*
X004451Y008448D01*
X004417Y008426D01*
X004380Y008407D01*
X004342Y008392D01*
X004302Y008380D01*
X004262Y008372D01*
X004221Y008368D01*
X004179Y008368D01*
X004138Y008372D01*
X004098Y008380D01*
X004058Y008392D01*
X004020Y008407D01*
X003984Y008426D01*
X003949Y008448D01*
X003916Y008474D01*
X003887Y008502D01*
X003860Y008533D01*
X003836Y008567D01*
X003815Y008603D01*
X003798Y008640D01*
X003785Y008679D01*
X003775Y008719D01*
X003769Y008760D01*
X003767Y008801D01*
D1577*
X006978Y003150D02*
X006959Y002959D01*
X006895Y002939D01*
X006835Y002908D01*
X006686Y003029D01*
X006585Y002927D01*
X006706Y002779D01*
X006675Y002719D01*
X006654Y002655D01*
X006464Y002636D01*
X006464Y002492D01*
X006654Y002472D01*
X006675Y002408D01*
X006706Y002349D01*
X006585Y002200D01*
X006686Y002098D01*
X006835Y002219D01*
X006895Y002189D01*
X006979Y002393D01*
X006942Y002414D01*
X006910Y002444D01*
X006886Y002480D01*
X006871Y002521D01*
X006865Y002564D01*
X006871Y002608D01*
X006886Y002649D01*
X006911Y002685D01*
X006944Y002715D01*
X006983Y002736D01*
X007026Y002747D01*
X007070Y002747D01*
X007113Y002737D01*
X007152Y002717D01*
X007186Y002688D01*
X007212Y002653D01*
X007228Y002612D01*
X007234Y002568D01*
X007230Y002524D01*
X007215Y002482D01*
X007191Y002445D01*
X007159Y002415D01*
X007121Y002393D01*
X007205Y002189D01*
X007265Y002219D01*
X007414Y002098D01*
X007515Y002200D01*
X007394Y002349D01*
X007425Y002408D01*
X007446Y002472D01*
X007636Y002492D01*
X007636Y002636D01*
X007446Y002655D01*
X007425Y002719D01*
X007394Y002779D01*
X007515Y002927D01*
X007414Y003029D01*
X007265Y002908D01*
X007205Y002939D01*
X007141Y002959D01*
X007122Y003150D01*
X006978Y003150D01*
X006975Y003123D02*
X007125Y003123D01*
X007131Y003065D02*
X006969Y003065D01*
X006964Y003008D02*
X007136Y003008D01*
X007170Y002950D02*
X006930Y002950D01*
X006783Y002950D02*
X006607Y002950D01*
X006613Y002893D02*
X007487Y002893D01*
X007493Y002950D02*
X007317Y002950D01*
X007387Y003008D02*
X007435Y003008D01*
X007440Y002835D02*
X006660Y002835D01*
X006705Y002778D02*
X007395Y002778D01*
X007425Y002720D02*
X007147Y002720D01*
X007205Y002662D02*
X007443Y002662D01*
X007636Y002605D02*
X007229Y002605D01*
X007232Y002547D02*
X007636Y002547D01*
X007616Y002490D02*
X007218Y002490D01*
X007178Y002432D02*
X007433Y002432D01*
X007408Y002375D02*
X007128Y002375D01*
X007152Y002317D02*
X007420Y002317D01*
X007467Y002260D02*
X007176Y002260D01*
X007200Y002202D02*
X007231Y002202D01*
X007287Y002202D02*
X007514Y002202D01*
X007460Y002144D02*
X007357Y002144D01*
X006972Y002375D02*
X006692Y002375D01*
X006680Y002317D02*
X006948Y002317D01*
X006924Y002260D02*
X006633Y002260D01*
X006586Y002202D02*
X006813Y002202D01*
X006869Y002202D02*
X006900Y002202D01*
X006743Y002144D02*
X006640Y002144D01*
X006667Y002432D02*
X006922Y002432D01*
X006882Y002490D02*
X006484Y002490D01*
X006464Y002547D02*
X006867Y002547D01*
X006870Y002605D02*
X006464Y002605D01*
X006657Y002662D02*
X006896Y002662D01*
X006954Y002720D02*
X006675Y002720D01*
X006665Y003008D02*
X006713Y003008D01*
M02*
