G75*
%MOIN*%
%OFA0B0*%
%FSLAX24Y24*%
%IPPOS*%
%LPD*%
%AMOC8*
5,1,8,0,0,1.08239X$1,22.5*
%
%ADD10OC8,0.0730*%
%ADD11C,0.0730*%
%ADD12C,0.0867*%
%ADD13R,0.0595X0.0595*%
%ADD14C,0.0595*%
%ADD15C,0.0000*%
%ADD16C,0.0946*%
%ADD17R,0.0476X0.0476*%
D10*
X003900Y006264D03*
D11*
X002900Y006264D03*
D12*
X005216Y007164D03*
X007184Y008148D03*
X007184Y006180D03*
D13*
X003100Y002364D03*
D14*
X004100Y002364D03*
X005100Y002364D03*
D15*
X003334Y000927D02*
X000578Y000927D01*
X000545Y000929D01*
X000513Y000934D01*
X000481Y000942D01*
X000450Y000954D01*
X000421Y000969D01*
X000393Y000987D01*
X000367Y001008D01*
X000344Y001031D01*
X000323Y001057D01*
X000305Y001084D01*
X000290Y001114D01*
X000278Y001145D01*
X000270Y001177D01*
X000265Y001209D01*
X000263Y001242D01*
X000263Y003998D01*
X000264Y004008D01*
X000268Y004018D01*
X000274Y004026D01*
X000283Y004032D01*
X000292Y004036D01*
X000302Y004037D01*
X000356Y004039D01*
X000409Y004044D01*
X000462Y004053D01*
X000514Y004066D01*
X000566Y004082D01*
X000616Y004102D01*
X000664Y004125D01*
X000711Y004152D01*
X000756Y004181D01*
X000799Y004214D01*
X000839Y004249D01*
X000877Y004287D01*
X000912Y004327D01*
X000945Y004370D01*
X000974Y004415D01*
X001001Y004462D01*
X001024Y004510D01*
X001044Y004560D01*
X001060Y004612D01*
X001073Y004664D01*
X001082Y004717D01*
X001087Y004770D01*
X001089Y004824D01*
X001090Y004824D02*
X001090Y004903D01*
X001089Y004903D02*
X001087Y004957D01*
X001082Y005010D01*
X001073Y005063D01*
X001060Y005115D01*
X001044Y005167D01*
X001024Y005217D01*
X001001Y005265D01*
X000974Y005312D01*
X000945Y005357D01*
X000912Y005400D01*
X000877Y005440D01*
X000839Y005478D01*
X000799Y005513D01*
X000756Y005546D01*
X000711Y005575D01*
X000664Y005602D01*
X000616Y005625D01*
X000566Y005645D01*
X000514Y005661D01*
X000462Y005674D01*
X000409Y005683D01*
X000356Y005688D01*
X000302Y005690D01*
X000302Y005691D02*
X000292Y005692D01*
X000283Y005696D01*
X000274Y005702D01*
X000268Y005711D01*
X000264Y005720D01*
X000263Y005730D01*
X000263Y008486D01*
X000265Y008519D01*
X000270Y008551D01*
X000278Y008583D01*
X000290Y008614D01*
X000305Y008644D01*
X000323Y008671D01*
X000344Y008697D01*
X000367Y008720D01*
X000393Y008741D01*
X000421Y008759D01*
X000450Y008774D01*
X000481Y008786D01*
X000513Y008794D01*
X000545Y008799D01*
X000578Y008801D01*
X003334Y008801D01*
X003344Y008802D01*
X003354Y008806D01*
X003362Y008812D01*
X003368Y008821D01*
X003372Y008830D01*
X003373Y008840D01*
X003374Y008840D02*
X003376Y008894D01*
X003381Y008947D01*
X003390Y009000D01*
X003403Y009052D01*
X003419Y009104D01*
X003439Y009154D01*
X003462Y009202D01*
X003489Y009249D01*
X003518Y009294D01*
X003551Y009337D01*
X003586Y009377D01*
X003624Y009415D01*
X003664Y009450D01*
X003707Y009483D01*
X003752Y009512D01*
X003799Y009539D01*
X003847Y009562D01*
X003897Y009582D01*
X003949Y009598D01*
X004001Y009611D01*
X004054Y009620D01*
X004107Y009625D01*
X004161Y009627D01*
X004161Y009628D02*
X004239Y009628D01*
X004239Y009627D02*
X004293Y009625D01*
X004346Y009620D01*
X004399Y009611D01*
X004451Y009598D01*
X004503Y009582D01*
X004553Y009562D01*
X004601Y009539D01*
X004648Y009512D01*
X004693Y009483D01*
X004736Y009450D01*
X004776Y009415D01*
X004814Y009377D01*
X004849Y009337D01*
X004882Y009294D01*
X004911Y009249D01*
X004938Y009202D01*
X004961Y009154D01*
X004981Y009104D01*
X004997Y009052D01*
X005010Y009000D01*
X005019Y008947D01*
X005024Y008894D01*
X005026Y008840D01*
X005027Y008840D02*
X005028Y008830D01*
X005032Y008821D01*
X005038Y008812D01*
X005047Y008806D01*
X005056Y008802D01*
X005066Y008801D01*
X007822Y008801D01*
X007855Y008799D01*
X007887Y008794D01*
X007919Y008786D01*
X007950Y008774D01*
X007980Y008759D01*
X008007Y008741D01*
X008033Y008720D01*
X008056Y008697D01*
X008077Y008671D01*
X008095Y008644D01*
X008110Y008614D01*
X008122Y008583D01*
X008130Y008551D01*
X008135Y008519D01*
X008137Y008486D01*
X008137Y005730D01*
X008136Y005720D01*
X008132Y005711D01*
X008126Y005702D01*
X008118Y005696D01*
X008108Y005692D01*
X008098Y005691D01*
X008098Y005690D02*
X008043Y005688D01*
X007987Y005682D01*
X007933Y005672D01*
X007879Y005659D01*
X007826Y005642D01*
X007775Y005621D01*
X007725Y005596D01*
X007677Y005568D01*
X007631Y005537D01*
X007588Y005503D01*
X007547Y005465D01*
X007509Y005425D01*
X007473Y005382D01*
X007441Y005337D01*
X007412Y005290D01*
X007386Y005241D01*
X007364Y005190D01*
X007346Y005137D01*
X007331Y005084D01*
X007320Y005029D01*
X007313Y004974D01*
X007310Y004919D01*
X007311Y004864D01*
X007310Y004864D02*
X007310Y004824D01*
X007311Y004824D02*
X007313Y004770D01*
X007318Y004717D01*
X007327Y004664D01*
X007340Y004612D01*
X007356Y004560D01*
X007376Y004510D01*
X007399Y004462D01*
X007426Y004415D01*
X007455Y004370D01*
X007488Y004327D01*
X007523Y004287D01*
X007561Y004249D01*
X007601Y004214D01*
X007644Y004181D01*
X007689Y004152D01*
X007736Y004125D01*
X007784Y004102D01*
X007834Y004082D01*
X007886Y004066D01*
X007938Y004053D01*
X007991Y004044D01*
X008044Y004039D01*
X008098Y004037D01*
X008098Y004038D02*
X008110Y004035D01*
X008121Y004029D01*
X008129Y004021D01*
X008135Y004010D01*
X008138Y003998D01*
X008137Y003998D02*
X008137Y001242D01*
X008135Y001209D01*
X008130Y001177D01*
X008122Y001145D01*
X008110Y001114D01*
X008095Y001084D01*
X008077Y001057D01*
X008056Y001031D01*
X008033Y001008D01*
X008007Y000987D01*
X007980Y000969D01*
X007950Y000954D01*
X007919Y000942D01*
X007887Y000934D01*
X007855Y000929D01*
X007822Y000927D01*
X005066Y000927D01*
X005054Y000924D01*
X005043Y000918D01*
X005035Y000910D01*
X005029Y000899D01*
X005026Y000887D01*
X005024Y000833D01*
X005019Y000780D01*
X005010Y000727D01*
X004997Y000675D01*
X004981Y000623D01*
X004961Y000573D01*
X004938Y000525D01*
X004911Y000478D01*
X004882Y000433D01*
X004849Y000390D01*
X004814Y000350D01*
X004776Y000312D01*
X004736Y000277D01*
X004693Y000244D01*
X004648Y000215D01*
X004601Y000188D01*
X004553Y000165D01*
X004503Y000145D01*
X004451Y000129D01*
X004399Y000116D01*
X004346Y000107D01*
X004293Y000102D01*
X004239Y000100D01*
X004161Y000100D01*
X004107Y000102D01*
X004054Y000107D01*
X004001Y000116D01*
X003949Y000129D01*
X003897Y000145D01*
X003847Y000165D01*
X003799Y000188D01*
X003752Y000215D01*
X003707Y000244D01*
X003664Y000277D01*
X003624Y000312D01*
X003586Y000350D01*
X003551Y000390D01*
X003518Y000433D01*
X003489Y000478D01*
X003462Y000525D01*
X003439Y000573D01*
X003419Y000623D01*
X003403Y000675D01*
X003390Y000727D01*
X003381Y000780D01*
X003376Y000833D01*
X003374Y000887D01*
X003373Y000887D02*
X003372Y000897D01*
X003368Y000907D01*
X003362Y000915D01*
X003354Y000921D01*
X003344Y000925D01*
X003334Y000926D01*
X003767Y000927D02*
X003769Y000968D01*
X003775Y001009D01*
X003785Y001049D01*
X003798Y001088D01*
X003815Y001125D01*
X003836Y001161D01*
X003860Y001195D01*
X003887Y001226D01*
X003916Y001254D01*
X003949Y001280D01*
X003983Y001302D01*
X004020Y001321D01*
X004058Y001336D01*
X004098Y001348D01*
X004138Y001356D01*
X004179Y001360D01*
X004221Y001360D01*
X004262Y001356D01*
X004302Y001348D01*
X004342Y001336D01*
X004380Y001321D01*
X004416Y001302D01*
X004451Y001280D01*
X004484Y001254D01*
X004513Y001226D01*
X004540Y001195D01*
X004564Y001161D01*
X004585Y001125D01*
X004602Y001088D01*
X004615Y001049D01*
X004625Y001009D01*
X004631Y000968D01*
X004633Y000927D01*
X004631Y000886D01*
X004625Y000845D01*
X004615Y000805D01*
X004602Y000766D01*
X004585Y000729D01*
X004564Y000693D01*
X004540Y000659D01*
X004513Y000628D01*
X004484Y000600D01*
X004451Y000574D01*
X004417Y000552D01*
X004380Y000533D01*
X004342Y000518D01*
X004302Y000506D01*
X004262Y000498D01*
X004221Y000494D01*
X004179Y000494D01*
X004138Y000498D01*
X004098Y000506D01*
X004058Y000518D01*
X004020Y000533D01*
X003984Y000552D01*
X003949Y000574D01*
X003916Y000600D01*
X003887Y000628D01*
X003860Y000659D01*
X003836Y000693D01*
X003815Y000729D01*
X003798Y000766D01*
X003785Y000805D01*
X003775Y000845D01*
X003769Y000886D01*
X003767Y000927D01*
X003767Y008801D02*
X003769Y008842D01*
X003775Y008883D01*
X003785Y008923D01*
X003798Y008962D01*
X003815Y008999D01*
X003836Y009035D01*
X003860Y009069D01*
X003887Y009100D01*
X003916Y009128D01*
X003949Y009154D01*
X003983Y009176D01*
X004020Y009195D01*
X004058Y009210D01*
X004098Y009222D01*
X004138Y009230D01*
X004179Y009234D01*
X004221Y009234D01*
X004262Y009230D01*
X004302Y009222D01*
X004342Y009210D01*
X004380Y009195D01*
X004416Y009176D01*
X004451Y009154D01*
X004484Y009128D01*
X004513Y009100D01*
X004540Y009069D01*
X004564Y009035D01*
X004585Y008999D01*
X004602Y008962D01*
X004615Y008923D01*
X004625Y008883D01*
X004631Y008842D01*
X004633Y008801D01*
X004631Y008760D01*
X004625Y008719D01*
X004615Y008679D01*
X004602Y008640D01*
X004585Y008603D01*
X004564Y008567D01*
X004540Y008533D01*
X004513Y008502D01*
X004484Y008474D01*
X004451Y008448D01*
X004417Y008426D01*
X004380Y008407D01*
X004342Y008392D01*
X004302Y008380D01*
X004262Y008372D01*
X004221Y008368D01*
X004179Y008368D01*
X004138Y008372D01*
X004098Y008380D01*
X004058Y008392D01*
X004020Y008407D01*
X003984Y008426D01*
X003949Y008448D01*
X003916Y008474D01*
X003887Y008502D01*
X003860Y008533D01*
X003836Y008567D01*
X003815Y008603D01*
X003798Y008640D01*
X003785Y008679D01*
X003775Y008719D01*
X003769Y008760D01*
X003767Y008801D01*
D16*
X004200Y008801D03*
X004200Y000927D03*
D17*
X003400Y004064D03*
M02*
