G75*
%MOIN*%
%OFA0B0*%
%FSLAX24Y24*%
%IPPOS*%
%LPD*%
%AMOC8*
5,1,8,0,0,1.08239X$1,22.5*
%
%ADD10C,0.0088*%
%ADD11OC8,0.0650*%
%ADD12C,0.0650*%
%ADD13C,0.0787*%
%ADD14R,0.0400X0.0450*%
%ADD15R,0.0515X0.0515*%
%ADD16C,0.0515*%
%ADD17C,0.0000*%
%ADD18C,0.0160*%
%ADD19R,0.0396X0.0396*%
D10*
X000869Y002295D02*
X001131Y002295D01*
X001131Y002033D01*
X000869Y002033D01*
X000869Y002295D01*
X000869Y002120D02*
X001131Y002120D01*
X001131Y002207D02*
X000869Y002207D01*
X000869Y002294D02*
X001131Y002294D01*
X001469Y002295D02*
X001731Y002295D01*
X001731Y002033D01*
X001469Y002033D01*
X001469Y002295D01*
X001469Y002120D02*
X001731Y002120D01*
X001731Y002207D02*
X001469Y002207D01*
X001469Y002294D02*
X001731Y002294D01*
X001731Y003195D02*
X001469Y003195D01*
X001731Y003195D02*
X001731Y002933D01*
X001469Y002933D01*
X001469Y003195D01*
X001469Y003020D02*
X001731Y003020D01*
X001731Y003107D02*
X001469Y003107D01*
X001469Y003194D02*
X001731Y003194D01*
X001131Y003195D02*
X000869Y003195D01*
X001131Y003195D02*
X001131Y002933D01*
X000869Y002933D01*
X000869Y003195D01*
X000869Y003020D02*
X001131Y003020D01*
X001131Y003107D02*
X000869Y003107D01*
X000869Y003194D02*
X001131Y003194D01*
X004369Y004395D02*
X004631Y004395D01*
X004631Y004133D01*
X004369Y004133D01*
X004369Y004395D01*
X004369Y004220D02*
X004631Y004220D01*
X004631Y004307D02*
X004369Y004307D01*
X004369Y004394D02*
X004631Y004394D01*
X004969Y004395D02*
X005231Y004395D01*
X005231Y004133D01*
X004969Y004133D01*
X004969Y004395D01*
X004969Y004220D02*
X005231Y004220D01*
X005231Y004307D02*
X004969Y004307D01*
X004969Y004394D02*
X005231Y004394D01*
X005869Y004395D02*
X006131Y004395D01*
X006131Y004133D01*
X005869Y004133D01*
X005869Y004395D01*
X005869Y004220D02*
X006131Y004220D01*
X006131Y004307D02*
X005869Y004307D01*
X005869Y004394D02*
X006131Y004394D01*
X006469Y004395D02*
X006731Y004395D01*
X006731Y004133D01*
X006469Y004133D01*
X006469Y004395D01*
X006469Y004220D02*
X006731Y004220D01*
X006731Y004307D02*
X006469Y004307D01*
X006469Y004394D02*
X006731Y004394D01*
D11*
X003900Y006264D03*
D12*
X002900Y006264D03*
D13*
X005216Y007164D03*
X007184Y008148D03*
X007184Y006180D03*
D14*
X002350Y004264D03*
X001650Y004264D03*
X002000Y005064D03*
D15*
X003100Y002364D03*
D16*
X004100Y002364D03*
X005100Y002364D03*
D17*
X003334Y000927D02*
X000578Y000927D01*
X000545Y000929D01*
X000513Y000934D01*
X000481Y000942D01*
X000450Y000954D01*
X000421Y000969D01*
X000393Y000987D01*
X000367Y001008D01*
X000344Y001031D01*
X000323Y001057D01*
X000305Y001084D01*
X000290Y001114D01*
X000278Y001145D01*
X000270Y001177D01*
X000265Y001209D01*
X000263Y001242D01*
X000263Y003998D01*
X000264Y004008D01*
X000268Y004018D01*
X000274Y004026D01*
X000283Y004032D01*
X000292Y004036D01*
X000302Y004037D01*
X000356Y004039D01*
X000409Y004044D01*
X000462Y004053D01*
X000514Y004066D01*
X000566Y004082D01*
X000616Y004102D01*
X000664Y004125D01*
X000711Y004152D01*
X000756Y004181D01*
X000799Y004214D01*
X000839Y004249D01*
X000877Y004287D01*
X000912Y004327D01*
X000945Y004370D01*
X000974Y004415D01*
X001001Y004462D01*
X001024Y004510D01*
X001044Y004560D01*
X001060Y004612D01*
X001073Y004664D01*
X001082Y004717D01*
X001087Y004770D01*
X001089Y004824D01*
X001090Y004824D02*
X001090Y004903D01*
X001089Y004903D02*
X001087Y004957D01*
X001082Y005010D01*
X001073Y005063D01*
X001060Y005115D01*
X001044Y005167D01*
X001024Y005217D01*
X001001Y005265D01*
X000974Y005312D01*
X000945Y005357D01*
X000912Y005400D01*
X000877Y005440D01*
X000839Y005478D01*
X000799Y005513D01*
X000756Y005546D01*
X000711Y005575D01*
X000664Y005602D01*
X000616Y005625D01*
X000566Y005645D01*
X000514Y005661D01*
X000462Y005674D01*
X000409Y005683D01*
X000356Y005688D01*
X000302Y005690D01*
X000302Y005691D02*
X000292Y005692D01*
X000283Y005696D01*
X000274Y005702D01*
X000268Y005711D01*
X000264Y005720D01*
X000263Y005730D01*
X000263Y008486D01*
X000265Y008519D01*
X000270Y008551D01*
X000278Y008583D01*
X000290Y008614D01*
X000305Y008644D01*
X000323Y008671D01*
X000344Y008697D01*
X000367Y008720D01*
X000393Y008741D01*
X000421Y008759D01*
X000450Y008774D01*
X000481Y008786D01*
X000513Y008794D01*
X000545Y008799D01*
X000578Y008801D01*
X003334Y008801D01*
X003344Y008802D01*
X003354Y008806D01*
X003362Y008812D01*
X003368Y008821D01*
X003372Y008830D01*
X003373Y008840D01*
X003374Y008840D02*
X003376Y008894D01*
X003381Y008947D01*
X003390Y009000D01*
X003403Y009052D01*
X003419Y009104D01*
X003439Y009154D01*
X003462Y009202D01*
X003489Y009249D01*
X003518Y009294D01*
X003551Y009337D01*
X003586Y009377D01*
X003624Y009415D01*
X003664Y009450D01*
X003707Y009483D01*
X003752Y009512D01*
X003799Y009539D01*
X003847Y009562D01*
X003897Y009582D01*
X003949Y009598D01*
X004001Y009611D01*
X004054Y009620D01*
X004107Y009625D01*
X004161Y009627D01*
X004161Y009628D02*
X004239Y009628D01*
X004239Y009627D02*
X004293Y009625D01*
X004346Y009620D01*
X004399Y009611D01*
X004451Y009598D01*
X004503Y009582D01*
X004553Y009562D01*
X004601Y009539D01*
X004648Y009512D01*
X004693Y009483D01*
X004736Y009450D01*
X004776Y009415D01*
X004814Y009377D01*
X004849Y009337D01*
X004882Y009294D01*
X004911Y009249D01*
X004938Y009202D01*
X004961Y009154D01*
X004981Y009104D01*
X004997Y009052D01*
X005010Y009000D01*
X005019Y008947D01*
X005024Y008894D01*
X005026Y008840D01*
X005027Y008840D02*
X005028Y008830D01*
X005032Y008821D01*
X005038Y008812D01*
X005047Y008806D01*
X005056Y008802D01*
X005066Y008801D01*
X007822Y008801D01*
X007855Y008799D01*
X007887Y008794D01*
X007919Y008786D01*
X007950Y008774D01*
X007980Y008759D01*
X008007Y008741D01*
X008033Y008720D01*
X008056Y008697D01*
X008077Y008671D01*
X008095Y008644D01*
X008110Y008614D01*
X008122Y008583D01*
X008130Y008551D01*
X008135Y008519D01*
X008137Y008486D01*
X008137Y005730D01*
X008136Y005720D01*
X008132Y005711D01*
X008126Y005702D01*
X008118Y005696D01*
X008108Y005692D01*
X008098Y005691D01*
X008098Y005690D02*
X008043Y005688D01*
X007987Y005682D01*
X007933Y005672D01*
X007879Y005659D01*
X007826Y005642D01*
X007775Y005621D01*
X007725Y005596D01*
X007677Y005568D01*
X007631Y005537D01*
X007588Y005503D01*
X007547Y005465D01*
X007509Y005425D01*
X007473Y005382D01*
X007441Y005337D01*
X007412Y005290D01*
X007386Y005241D01*
X007364Y005190D01*
X007346Y005137D01*
X007331Y005084D01*
X007320Y005029D01*
X007313Y004974D01*
X007310Y004919D01*
X007311Y004864D01*
X007310Y004864D02*
X007310Y004824D01*
X007311Y004824D02*
X007313Y004770D01*
X007318Y004717D01*
X007327Y004664D01*
X007340Y004612D01*
X007356Y004560D01*
X007376Y004510D01*
X007399Y004462D01*
X007426Y004415D01*
X007455Y004370D01*
X007488Y004327D01*
X007523Y004287D01*
X007561Y004249D01*
X007601Y004214D01*
X007644Y004181D01*
X007689Y004152D01*
X007736Y004125D01*
X007784Y004102D01*
X007834Y004082D01*
X007886Y004066D01*
X007938Y004053D01*
X007991Y004044D01*
X008044Y004039D01*
X008098Y004037D01*
X008098Y004038D02*
X008110Y004035D01*
X008121Y004029D01*
X008129Y004021D01*
X008135Y004010D01*
X008138Y003998D01*
X008137Y003998D02*
X008137Y001242D01*
X008135Y001209D01*
X008130Y001177D01*
X008122Y001145D01*
X008110Y001114D01*
X008095Y001084D01*
X008077Y001057D01*
X008056Y001031D01*
X008033Y001008D01*
X008007Y000987D01*
X007980Y000969D01*
X007950Y000954D01*
X007919Y000942D01*
X007887Y000934D01*
X007855Y000929D01*
X007822Y000927D01*
X005066Y000927D01*
X005054Y000924D01*
X005043Y000918D01*
X005035Y000910D01*
X005029Y000899D01*
X005026Y000887D01*
X005024Y000833D01*
X005019Y000780D01*
X005010Y000727D01*
X004997Y000675D01*
X004981Y000623D01*
X004961Y000573D01*
X004938Y000525D01*
X004911Y000478D01*
X004882Y000433D01*
X004849Y000390D01*
X004814Y000350D01*
X004776Y000312D01*
X004736Y000277D01*
X004693Y000244D01*
X004648Y000215D01*
X004601Y000188D01*
X004553Y000165D01*
X004503Y000145D01*
X004451Y000129D01*
X004399Y000116D01*
X004346Y000107D01*
X004293Y000102D01*
X004239Y000100D01*
X004161Y000100D01*
X004107Y000102D01*
X004054Y000107D01*
X004001Y000116D01*
X003949Y000129D01*
X003897Y000145D01*
X003847Y000165D01*
X003799Y000188D01*
X003752Y000215D01*
X003707Y000244D01*
X003664Y000277D01*
X003624Y000312D01*
X003586Y000350D01*
X003551Y000390D01*
X003518Y000433D01*
X003489Y000478D01*
X003462Y000525D01*
X003439Y000573D01*
X003419Y000623D01*
X003403Y000675D01*
X003390Y000727D01*
X003381Y000780D01*
X003376Y000833D01*
X003374Y000887D01*
X003373Y000887D02*
X003372Y000897D01*
X003368Y000907D01*
X003362Y000915D01*
X003354Y000921D01*
X003344Y000925D01*
X003334Y000926D01*
X003767Y000927D02*
X003769Y000968D01*
X003775Y001009D01*
X003785Y001049D01*
X003798Y001088D01*
X003815Y001125D01*
X003836Y001161D01*
X003860Y001195D01*
X003887Y001226D01*
X003916Y001254D01*
X003949Y001280D01*
X003983Y001302D01*
X004020Y001321D01*
X004058Y001336D01*
X004098Y001348D01*
X004138Y001356D01*
X004179Y001360D01*
X004221Y001360D01*
X004262Y001356D01*
X004302Y001348D01*
X004342Y001336D01*
X004380Y001321D01*
X004416Y001302D01*
X004451Y001280D01*
X004484Y001254D01*
X004513Y001226D01*
X004540Y001195D01*
X004564Y001161D01*
X004585Y001125D01*
X004602Y001088D01*
X004615Y001049D01*
X004625Y001009D01*
X004631Y000968D01*
X004633Y000927D01*
X004631Y000886D01*
X004625Y000845D01*
X004615Y000805D01*
X004602Y000766D01*
X004585Y000729D01*
X004564Y000693D01*
X004540Y000659D01*
X004513Y000628D01*
X004484Y000600D01*
X004451Y000574D01*
X004417Y000552D01*
X004380Y000533D01*
X004342Y000518D01*
X004302Y000506D01*
X004262Y000498D01*
X004221Y000494D01*
X004179Y000494D01*
X004138Y000498D01*
X004098Y000506D01*
X004058Y000518D01*
X004020Y000533D01*
X003984Y000552D01*
X003949Y000574D01*
X003916Y000600D01*
X003887Y000628D01*
X003860Y000659D01*
X003836Y000693D01*
X003815Y000729D01*
X003798Y000766D01*
X003785Y000805D01*
X003775Y000845D01*
X003769Y000886D01*
X003767Y000927D01*
X003767Y008801D02*
X003769Y008842D01*
X003775Y008883D01*
X003785Y008923D01*
X003798Y008962D01*
X003815Y008999D01*
X003836Y009035D01*
X003860Y009069D01*
X003887Y009100D01*
X003916Y009128D01*
X003949Y009154D01*
X003983Y009176D01*
X004020Y009195D01*
X004058Y009210D01*
X004098Y009222D01*
X004138Y009230D01*
X004179Y009234D01*
X004221Y009234D01*
X004262Y009230D01*
X004302Y009222D01*
X004342Y009210D01*
X004380Y009195D01*
X004416Y009176D01*
X004451Y009154D01*
X004484Y009128D01*
X004513Y009100D01*
X004540Y009069D01*
X004564Y009035D01*
X004585Y008999D01*
X004602Y008962D01*
X004615Y008923D01*
X004625Y008883D01*
X004631Y008842D01*
X004633Y008801D01*
X004631Y008760D01*
X004625Y008719D01*
X004615Y008679D01*
X004602Y008640D01*
X004585Y008603D01*
X004564Y008567D01*
X004540Y008533D01*
X004513Y008502D01*
X004484Y008474D01*
X004451Y008448D01*
X004417Y008426D01*
X004380Y008407D01*
X004342Y008392D01*
X004302Y008380D01*
X004262Y008372D01*
X004221Y008368D01*
X004179Y008368D01*
X004138Y008372D01*
X004098Y008380D01*
X004058Y008392D01*
X004020Y008407D01*
X003984Y008426D01*
X003949Y008448D01*
X003916Y008474D01*
X003887Y008502D01*
X003860Y008533D01*
X003836Y008567D01*
X003815Y008603D01*
X003798Y008640D01*
X003785Y008679D01*
X003775Y008719D01*
X003769Y008760D01*
X003767Y008801D01*
D18*
X003411Y008321D02*
X003426Y008284D01*
X003683Y008027D01*
X004018Y007888D01*
X004382Y007888D01*
X004717Y008027D01*
X004974Y008284D01*
X004989Y008321D01*
X006656Y008321D01*
X006631Y008258D01*
X006631Y008038D01*
X006715Y007834D01*
X006871Y007679D01*
X007074Y007594D01*
X007294Y007594D01*
X007498Y007679D01*
X007654Y007834D01*
X007657Y007842D01*
X007657Y006485D01*
X007654Y006493D01*
X007498Y006649D01*
X007294Y006733D01*
X007074Y006733D01*
X006871Y006649D01*
X006715Y006493D01*
X006631Y006290D01*
X006631Y006069D01*
X006661Y005996D01*
X006464Y005799D01*
X006397Y005731D01*
X006360Y005643D01*
X006360Y004574D01*
X006300Y004514D01*
X006216Y004599D01*
X006004Y004599D01*
X005456Y005147D01*
X005456Y006664D01*
X005529Y006694D01*
X005685Y006850D01*
X005769Y007054D01*
X005769Y007274D01*
X005685Y007477D01*
X005529Y007633D01*
X005326Y007717D01*
X005106Y007717D01*
X004902Y007633D01*
X004746Y007477D01*
X004662Y007274D01*
X004662Y007054D01*
X004746Y006850D01*
X004902Y006694D01*
X004976Y006664D01*
X004976Y005000D01*
X005012Y004912D01*
X005080Y004845D01*
X005421Y004504D01*
X005411Y004504D01*
X005316Y004599D01*
X004884Y004599D01*
X004800Y004514D01*
X004716Y004599D01*
X004504Y004599D01*
X004140Y004963D01*
X004140Y005818D01*
X004385Y006063D01*
X004385Y006465D01*
X004101Y006749D01*
X003699Y006749D01*
X003415Y006465D01*
X003415Y006063D01*
X003660Y005818D01*
X003660Y004816D01*
X003696Y004728D01*
X002316Y004728D01*
X002330Y004669D02*
X002126Y004669D01*
X002081Y004657D01*
X002039Y004633D01*
X002006Y004599D01*
X001991Y004574D01*
X001916Y004649D01*
X001570Y004649D01*
X001570Y005104D01*
X001446Y005486D01*
X001210Y005811D01*
X001210Y005811D01*
X001210Y005811D01*
X000885Y006046D01*
X000885Y006046D01*
X000743Y006093D01*
X000743Y008321D01*
X003411Y008321D01*
X003494Y008215D02*
X000743Y008215D01*
X000743Y008057D02*
X003653Y008057D01*
X003993Y007898D02*
X000743Y007898D01*
X000743Y007740D02*
X006809Y007740D01*
X006688Y007898D02*
X004407Y007898D01*
X004747Y008057D02*
X006631Y008057D01*
X006631Y008215D02*
X004906Y008215D01*
X004850Y007581D02*
X000743Y007581D01*
X000743Y007423D02*
X004724Y007423D01*
X004662Y007264D02*
X000743Y007264D01*
X000743Y007106D02*
X004662Y007106D01*
X004706Y006947D02*
X000743Y006947D01*
X000743Y006789D02*
X004808Y006789D01*
X004976Y006630D02*
X004219Y006630D01*
X004378Y006472D02*
X004976Y006472D01*
X004976Y006313D02*
X004385Y006313D01*
X004385Y006155D02*
X004976Y006155D01*
X004976Y005996D02*
X004318Y005996D01*
X004160Y005838D02*
X004976Y005838D01*
X004976Y005679D02*
X004140Y005679D01*
X004140Y005521D02*
X004976Y005521D01*
X004976Y005362D02*
X004140Y005362D01*
X004140Y005204D02*
X004976Y005204D01*
X004976Y005045D02*
X004140Y005045D01*
X004216Y004887D02*
X005038Y004887D01*
X005196Y004728D02*
X004375Y004728D01*
X004745Y004570D02*
X004855Y004570D01*
X005100Y004264D02*
X006000Y004264D01*
X005216Y005048D01*
X005216Y007164D01*
X005581Y007581D02*
X007657Y007581D01*
X007657Y007423D02*
X005708Y007423D01*
X005769Y007264D02*
X007657Y007264D01*
X007657Y007106D02*
X005769Y007106D01*
X005725Y006947D02*
X007657Y006947D01*
X007657Y006789D02*
X005624Y006789D01*
X005456Y006630D02*
X006852Y006630D01*
X006706Y006472D02*
X005456Y006472D01*
X005456Y006313D02*
X006640Y006313D01*
X006631Y006155D02*
X005456Y006155D01*
X005456Y005996D02*
X006661Y005996D01*
X006503Y005838D02*
X005456Y005838D01*
X005456Y005679D02*
X006375Y005679D01*
X006360Y005521D02*
X005456Y005521D01*
X005456Y005362D02*
X006360Y005362D01*
X006360Y005204D02*
X005456Y005204D01*
X005558Y005045D02*
X006360Y005045D01*
X006360Y004887D02*
X005716Y004887D01*
X005875Y004728D02*
X006360Y004728D01*
X006355Y004570D02*
X006245Y004570D01*
X006600Y004264D02*
X005600Y003264D01*
X004700Y003264D01*
X004100Y002664D01*
X004100Y002364D01*
X003814Y002668D02*
X003517Y002668D01*
X003517Y002688D02*
X003424Y002781D01*
X002776Y002781D01*
X002683Y002688D01*
X002683Y002604D01*
X001752Y002604D01*
X001664Y002567D01*
X001597Y002500D01*
X001596Y002499D01*
X001384Y002499D01*
X001300Y002414D01*
X001240Y002474D01*
X001240Y002753D01*
X001287Y002800D01*
X001290Y002795D01*
X001331Y002753D01*
X001382Y002724D01*
X001439Y002709D01*
X001592Y002709D01*
X001592Y003056D01*
X001608Y003056D01*
X001608Y003071D01*
X001955Y003071D01*
X001955Y003224D01*
X001940Y003281D01*
X001910Y003332D01*
X001869Y003374D01*
X001818Y003404D01*
X001761Y003419D01*
X001608Y003419D01*
X001608Y003071D01*
X001592Y003071D01*
X001592Y003419D01*
X001439Y003419D01*
X001382Y003404D01*
X001331Y003374D01*
X001290Y003332D01*
X001287Y003328D01*
X001240Y003374D01*
X001240Y003514D01*
X001604Y003879D01*
X001916Y003879D01*
X001991Y003954D01*
X002006Y003928D01*
X002039Y003895D01*
X002081Y003871D01*
X002126Y003859D01*
X002330Y003859D01*
X002330Y004244D01*
X002370Y004244D01*
X002370Y004284D01*
X002330Y004284D01*
X002330Y004669D01*
X002370Y004669D02*
X002370Y004284D01*
X002730Y004284D01*
X002730Y004512D01*
X002718Y004558D01*
X002694Y004599D01*
X002661Y004633D01*
X002619Y004657D01*
X002574Y004669D01*
X002370Y004669D01*
X002370Y004570D02*
X002330Y004570D01*
X002330Y004411D02*
X002370Y004411D01*
X002350Y004264D02*
X002550Y004064D01*
X003400Y004064D01*
X003855Y004570D02*
X002711Y004570D01*
X002730Y004411D02*
X004013Y004411D01*
X004165Y004259D02*
X004165Y004048D01*
X004284Y003929D01*
X004716Y003929D01*
X004800Y004013D01*
X004884Y003929D01*
X005316Y003929D01*
X005411Y004024D01*
X005689Y004024D01*
X005784Y003929D01*
X005926Y003929D01*
X005501Y003504D01*
X004652Y003504D01*
X004564Y003467D01*
X003964Y002867D01*
X003897Y002800D01*
X003862Y002716D01*
X003746Y002600D01*
X003683Y002447D01*
X003683Y002281D01*
X003746Y002127D01*
X003864Y002010D01*
X004017Y001946D01*
X004183Y001946D01*
X004336Y002010D01*
X004454Y002127D01*
X004517Y002281D01*
X004517Y002447D01*
X004454Y002600D01*
X004415Y002639D01*
X004799Y003024D01*
X005648Y003024D01*
X005736Y003060D01*
X005803Y003128D01*
X006604Y003929D01*
X006816Y003929D01*
X006935Y004048D01*
X006935Y004301D01*
X006954Y004242D01*
X007190Y003917D01*
X007190Y003917D01*
X007190Y003917D01*
X007515Y003681D01*
X007657Y003635D01*
X007657Y001407D01*
X005138Y001407D01*
X005115Y001414D01*
X005043Y001407D01*
X004989Y001407D01*
X004974Y001444D01*
X004717Y001701D01*
X004382Y001840D01*
X004018Y001840D01*
X003683Y001701D01*
X003426Y001444D01*
X003411Y001407D01*
X000743Y001407D01*
X000743Y001870D01*
X000784Y001829D01*
X001216Y001829D01*
X001300Y001913D01*
X001384Y001829D01*
X001816Y001829D01*
X001935Y001948D01*
X001935Y002124D01*
X002683Y002124D01*
X002683Y002040D01*
X002776Y001946D01*
X003424Y001946D01*
X003517Y002040D01*
X003517Y002688D01*
X003517Y002509D02*
X003708Y002509D01*
X003683Y002351D02*
X003517Y002351D01*
X003517Y002192D02*
X003719Y002192D01*
X003840Y002034D02*
X003511Y002034D01*
X003721Y001717D02*
X000743Y001717D01*
X000743Y001558D02*
X003540Y001558D01*
X003100Y002364D02*
X001800Y002364D01*
X001600Y002164D01*
X001606Y002509D02*
X001240Y002509D01*
X001240Y002668D02*
X002683Y002668D01*
X002689Y002034D02*
X001935Y002034D01*
X001862Y001875D02*
X007657Y001875D01*
X007657Y002034D02*
X005389Y002034D01*
X005385Y002030D02*
X005434Y002079D01*
X005474Y002134D01*
X005505Y002196D01*
X005527Y002261D01*
X005537Y002329D01*
X005537Y002364D01*
X005537Y002398D01*
X005527Y002466D01*
X005505Y002532D01*
X005474Y002593D01*
X005434Y002649D01*
X005385Y002697D01*
X005329Y002738D01*
X005268Y002769D01*
X005202Y002790D01*
X005134Y002801D01*
X005100Y002801D01*
X005066Y002801D01*
X004998Y002790D01*
X004932Y002769D01*
X004871Y002738D01*
X004815Y002697D01*
X004766Y002649D01*
X004726Y002593D01*
X004695Y002532D01*
X004673Y002466D01*
X004663Y002398D01*
X004663Y002364D01*
X005100Y002364D01*
X005100Y002801D01*
X005100Y002364D01*
X005100Y002364D01*
X005537Y002364D01*
X005100Y002364D01*
X005100Y002364D01*
X005100Y002364D01*
X004663Y002364D01*
X004663Y002329D01*
X004673Y002261D01*
X004695Y002196D01*
X004726Y002134D01*
X004766Y002079D01*
X004815Y002030D01*
X004871Y001990D01*
X004932Y001958D01*
X004998Y001937D01*
X005066Y001926D01*
X005100Y001926D01*
X005100Y002364D01*
X005100Y001926D01*
X005134Y001926D01*
X005202Y001937D01*
X005268Y001958D01*
X005329Y001990D01*
X005385Y002030D01*
X005504Y002192D02*
X007657Y002192D01*
X007657Y002351D02*
X005537Y002351D01*
X005513Y002509D02*
X007657Y002509D01*
X007657Y002668D02*
X005415Y002668D01*
X005100Y002668D02*
X005100Y002668D01*
X005100Y002509D02*
X005100Y002509D01*
X005100Y002364D02*
X005100Y002364D01*
X005100Y002351D02*
X005100Y002351D01*
X005100Y002192D02*
X005100Y002192D01*
X005100Y002034D02*
X005100Y002034D01*
X004811Y002034D02*
X004360Y002034D01*
X004481Y002192D02*
X004696Y002192D01*
X004663Y002351D02*
X004517Y002351D01*
X004492Y002509D02*
X004687Y002509D01*
X004785Y002668D02*
X004443Y002668D01*
X004602Y002826D02*
X007657Y002826D01*
X007657Y002985D02*
X004760Y002985D01*
X004399Y003302D02*
X001928Y003302D01*
X001955Y003143D02*
X004240Y003143D01*
X004082Y002985D02*
X001955Y002985D01*
X001955Y003056D02*
X001955Y002903D01*
X001940Y002846D01*
X001910Y002795D01*
X001869Y002753D01*
X001818Y002724D01*
X001761Y002709D01*
X001608Y002709D01*
X001608Y003056D01*
X001955Y003056D01*
X001928Y002826D02*
X003923Y002826D01*
X004557Y003460D02*
X001240Y003460D01*
X001344Y003619D02*
X005616Y003619D01*
X005774Y003777D02*
X001503Y003777D01*
X001600Y003514D02*
X001600Y003064D01*
X001592Y002985D02*
X001608Y002985D01*
X001592Y002826D02*
X001608Y002826D01*
X001592Y003143D02*
X001608Y003143D01*
X001592Y003302D02*
X001608Y003302D01*
X001600Y003514D02*
X002350Y004264D01*
X002370Y004253D02*
X004165Y004253D01*
X004165Y004259D02*
X003764Y004660D01*
X003696Y004728D01*
X003660Y004887D02*
X002360Y004887D01*
X002360Y004773D02*
X002266Y004679D01*
X001734Y004679D01*
X001640Y004773D01*
X001640Y005355D01*
X001734Y005449D01*
X001775Y005449D01*
X001797Y005500D01*
X001864Y005567D01*
X002429Y006133D01*
X002415Y006167D01*
X002415Y006360D01*
X002489Y006539D01*
X002625Y006675D01*
X002804Y006749D01*
X002997Y006749D01*
X003175Y006675D01*
X003311Y006539D01*
X003385Y006360D01*
X003385Y006167D01*
X003311Y005989D01*
X003175Y005853D01*
X002997Y005779D01*
X002804Y005779D01*
X002769Y005793D01*
X002345Y005370D01*
X002360Y005355D01*
X002360Y004773D01*
X002360Y005045D02*
X003660Y005045D01*
X003660Y005204D02*
X002360Y005204D01*
X002353Y005362D02*
X003660Y005362D01*
X003660Y005521D02*
X002496Y005521D01*
X002655Y005679D02*
X003660Y005679D01*
X003640Y005838D02*
X003139Y005838D01*
X003314Y005996D02*
X003482Y005996D01*
X003415Y006155D02*
X003380Y006155D01*
X003385Y006313D02*
X003415Y006313D01*
X003422Y006472D02*
X003339Y006472D01*
X003219Y006630D02*
X003581Y006630D01*
X003900Y006264D02*
X003900Y004864D01*
X004500Y004264D01*
X004277Y003936D02*
X002698Y003936D01*
X002694Y003928D02*
X002718Y003969D01*
X002730Y004015D01*
X002730Y004244D01*
X002370Y004244D01*
X002370Y003859D01*
X002574Y003859D01*
X002619Y003871D01*
X002661Y003895D01*
X002694Y003928D01*
X002730Y004094D02*
X004165Y004094D01*
X004723Y003936D02*
X004877Y003936D01*
X005323Y003936D02*
X005777Y003936D01*
X006136Y003460D02*
X007657Y003460D01*
X007657Y003302D02*
X005977Y003302D01*
X005819Y003143D02*
X007657Y003143D01*
X007657Y003619D02*
X006294Y003619D01*
X006453Y003777D02*
X007383Y003777D01*
X007515Y003681D02*
X007515Y003681D01*
X007177Y003936D02*
X006823Y003936D01*
X006935Y004094D02*
X007062Y004094D01*
X006954Y004242D02*
X006954Y004242D01*
X006951Y004253D02*
X006935Y004253D01*
X006600Y004264D02*
X006600Y005595D01*
X007184Y006180D01*
X007517Y006630D02*
X007657Y006630D01*
X007657Y007740D02*
X007559Y007740D01*
X005355Y004570D02*
X005345Y004570D01*
X004679Y001717D02*
X007657Y001717D01*
X007657Y001558D02*
X004860Y001558D01*
X002370Y003936D02*
X002330Y003936D01*
X002330Y004094D02*
X002370Y004094D01*
X002002Y003936D02*
X001973Y003936D01*
X001650Y004264D02*
X001000Y003614D01*
X001000Y003064D01*
X001000Y002164D01*
X001262Y001875D02*
X001338Y001875D01*
X001570Y004728D02*
X001684Y004728D01*
X001640Y004887D02*
X001570Y004887D01*
X001570Y005045D02*
X001640Y005045D01*
X001640Y005204D02*
X001537Y005204D01*
X001486Y005362D02*
X001647Y005362D01*
X001818Y005521D02*
X001420Y005521D01*
X001446Y005486D02*
X001446Y005486D01*
X001305Y005679D02*
X001976Y005679D01*
X002135Y005838D02*
X001172Y005838D01*
X000954Y005996D02*
X002293Y005996D01*
X002420Y006155D02*
X000743Y006155D01*
X000743Y006313D02*
X002415Y006313D01*
X002461Y006472D02*
X000743Y006472D01*
X000743Y006630D02*
X002581Y006630D01*
X002900Y006264D02*
X002000Y005364D01*
X002000Y005064D01*
D19*
X003400Y004064D03*
M02*
