G75*
%MOIN*%
%OFA0B0*%
%FSLAX25Y25*%
%IPPOS*%
%LPD*%
%AMOC8*
5,1,8,0,0,1.08239X$1,22.5*
%
%ADD10C,0.00975*%
%ADD11OC8,0.06900*%
%ADD12C,0.06900*%
%ADD13C,0.08274*%
%ADD14C,0.00000*%
%ADD15C,0.09061*%
%ADD16C,0.00100*%
%ADD17R,0.04400X0.04900*%
%ADD18R,0.05550X0.05550*%
%ADD19C,0.05550*%
D10*
X0095537Y0041437D02*
X0098463Y0041437D01*
X0095537Y0041437D02*
X0095537Y0044363D01*
X0098463Y0044363D01*
X0098463Y0041437D01*
X0098463Y0042411D02*
X0095537Y0042411D01*
X0095537Y0043385D02*
X0098463Y0043385D01*
X0098463Y0044359D02*
X0095537Y0044359D01*
X0095537Y0047937D02*
X0098463Y0047937D01*
X0095537Y0047937D02*
X0095537Y0050863D01*
X0098463Y0050863D01*
X0098463Y0047937D01*
X0098463Y0048911D02*
X0095537Y0048911D01*
X0095537Y0049885D02*
X0098463Y0049885D01*
X0098463Y0050859D02*
X0095537Y0050859D01*
X0101537Y0047937D02*
X0104463Y0047937D01*
X0101537Y0047937D02*
X0101537Y0050863D01*
X0104463Y0050863D01*
X0104463Y0047937D01*
X0104463Y0048911D02*
X0101537Y0048911D01*
X0101537Y0049885D02*
X0104463Y0049885D01*
X0104463Y0050859D02*
X0101537Y0050859D01*
X0108537Y0047937D02*
X0111463Y0047937D01*
X0108537Y0047937D02*
X0108537Y0050863D01*
X0111463Y0050863D01*
X0111463Y0047937D01*
X0111463Y0048911D02*
X0108537Y0048911D01*
X0108537Y0049885D02*
X0111463Y0049885D01*
X0111463Y0050859D02*
X0108537Y0050859D01*
X0114537Y0047937D02*
X0117463Y0047937D01*
X0114537Y0047937D02*
X0114537Y0050863D01*
X0117463Y0050863D01*
X0117463Y0047937D01*
X0117463Y0048911D02*
X0114537Y0048911D01*
X0114537Y0049885D02*
X0117463Y0049885D01*
X0117463Y0050859D02*
X0114537Y0050859D01*
X0114537Y0044363D02*
X0117463Y0044363D01*
X0117463Y0041437D01*
X0114537Y0041437D01*
X0114537Y0044363D01*
X0114537Y0042411D02*
X0117463Y0042411D01*
X0117463Y0043385D02*
X0114537Y0043385D01*
X0114537Y0044359D02*
X0117463Y0044359D01*
X0111463Y0044363D02*
X0108537Y0044363D01*
X0111463Y0044363D02*
X0111463Y0041437D01*
X0108537Y0041437D01*
X0108537Y0044363D01*
X0108537Y0042411D02*
X0111463Y0042411D01*
X0111463Y0043385D02*
X0108537Y0043385D01*
X0108537Y0044359D02*
X0111463Y0044359D01*
X0104463Y0041437D02*
X0101537Y0041437D01*
X0101537Y0044363D01*
X0104463Y0044363D01*
X0104463Y0041437D01*
X0104463Y0042411D02*
X0101537Y0042411D01*
X0101537Y0043385D02*
X0104463Y0043385D01*
X0104463Y0044359D02*
X0101537Y0044359D01*
D11*
X0121999Y0026400D03*
D12*
X0112001Y0026400D03*
D13*
X0116843Y0059057D03*
X0097157Y0059057D03*
X0107000Y0078743D03*
D14*
X0090169Y0088270D02*
X0090171Y0088401D01*
X0090177Y0088533D01*
X0090187Y0088664D01*
X0090201Y0088795D01*
X0090219Y0088925D01*
X0090241Y0089054D01*
X0090266Y0089183D01*
X0090296Y0089311D01*
X0090330Y0089438D01*
X0090367Y0089565D01*
X0090408Y0089689D01*
X0090453Y0089813D01*
X0090502Y0089935D01*
X0090554Y0090056D01*
X0090610Y0090174D01*
X0090670Y0090292D01*
X0090733Y0090407D01*
X0090800Y0090520D01*
X0090870Y0090632D01*
X0090943Y0090741D01*
X0091019Y0090847D01*
X0091099Y0090952D01*
X0091182Y0091054D01*
X0091268Y0091153D01*
X0091357Y0091250D01*
X0091449Y0091344D01*
X0091544Y0091435D01*
X0091641Y0091524D01*
X0091741Y0091609D01*
X0091844Y0091691D01*
X0091949Y0091770D01*
X0092056Y0091846D01*
X0092166Y0091918D01*
X0092278Y0091987D01*
X0092392Y0092053D01*
X0092507Y0092115D01*
X0092625Y0092174D01*
X0092744Y0092229D01*
X0092865Y0092281D01*
X0092988Y0092328D01*
X0093112Y0092372D01*
X0093237Y0092413D01*
X0093363Y0092449D01*
X0093491Y0092482D01*
X0093619Y0092510D01*
X0093748Y0092535D01*
X0093878Y0092556D01*
X0094008Y0092573D01*
X0094139Y0092586D01*
X0094270Y0092595D01*
X0094401Y0092600D01*
X0094533Y0092601D01*
X0094664Y0092598D01*
X0094796Y0092591D01*
X0094927Y0092580D01*
X0095057Y0092565D01*
X0095187Y0092546D01*
X0095317Y0092523D01*
X0095445Y0092497D01*
X0095573Y0092466D01*
X0095700Y0092431D01*
X0095826Y0092393D01*
X0095950Y0092351D01*
X0096074Y0092305D01*
X0096195Y0092255D01*
X0096315Y0092202D01*
X0096434Y0092145D01*
X0096551Y0092085D01*
X0096665Y0092021D01*
X0096778Y0091953D01*
X0096889Y0091882D01*
X0096998Y0091808D01*
X0097104Y0091731D01*
X0097208Y0091650D01*
X0097309Y0091567D01*
X0097408Y0091480D01*
X0097504Y0091390D01*
X0097597Y0091297D01*
X0097688Y0091202D01*
X0097775Y0091104D01*
X0097860Y0091003D01*
X0097941Y0090900D01*
X0098019Y0090794D01*
X0098094Y0090686D01*
X0098166Y0090576D01*
X0098234Y0090464D01*
X0098299Y0090350D01*
X0098360Y0090233D01*
X0098418Y0090115D01*
X0098472Y0089995D01*
X0098523Y0089874D01*
X0098570Y0089751D01*
X0098613Y0089627D01*
X0098652Y0089502D01*
X0098688Y0089375D01*
X0098719Y0089247D01*
X0098747Y0089119D01*
X0098771Y0088990D01*
X0098791Y0088860D01*
X0098807Y0088729D01*
X0098819Y0088598D01*
X0098827Y0088467D01*
X0098831Y0088336D01*
X0098831Y0088204D01*
X0098827Y0088073D01*
X0098819Y0087942D01*
X0098807Y0087811D01*
X0098791Y0087680D01*
X0098771Y0087550D01*
X0098747Y0087421D01*
X0098719Y0087293D01*
X0098688Y0087165D01*
X0098652Y0087038D01*
X0098613Y0086913D01*
X0098570Y0086789D01*
X0098523Y0086666D01*
X0098472Y0086545D01*
X0098418Y0086425D01*
X0098360Y0086307D01*
X0098299Y0086190D01*
X0098234Y0086076D01*
X0098166Y0085964D01*
X0098094Y0085854D01*
X0098019Y0085746D01*
X0097941Y0085640D01*
X0097860Y0085537D01*
X0097775Y0085436D01*
X0097688Y0085338D01*
X0097597Y0085243D01*
X0097504Y0085150D01*
X0097408Y0085060D01*
X0097309Y0084973D01*
X0097208Y0084890D01*
X0097104Y0084809D01*
X0096998Y0084732D01*
X0096889Y0084658D01*
X0096778Y0084587D01*
X0096666Y0084519D01*
X0096551Y0084455D01*
X0096434Y0084395D01*
X0096315Y0084338D01*
X0096195Y0084285D01*
X0096074Y0084235D01*
X0095950Y0084189D01*
X0095826Y0084147D01*
X0095700Y0084109D01*
X0095573Y0084074D01*
X0095445Y0084043D01*
X0095317Y0084017D01*
X0095187Y0083994D01*
X0095057Y0083975D01*
X0094927Y0083960D01*
X0094796Y0083949D01*
X0094664Y0083942D01*
X0094533Y0083939D01*
X0094401Y0083940D01*
X0094270Y0083945D01*
X0094139Y0083954D01*
X0094008Y0083967D01*
X0093878Y0083984D01*
X0093748Y0084005D01*
X0093619Y0084030D01*
X0093491Y0084058D01*
X0093363Y0084091D01*
X0093237Y0084127D01*
X0093112Y0084168D01*
X0092988Y0084212D01*
X0092865Y0084259D01*
X0092744Y0084311D01*
X0092625Y0084366D01*
X0092507Y0084425D01*
X0092392Y0084487D01*
X0092278Y0084553D01*
X0092166Y0084622D01*
X0092056Y0084694D01*
X0091949Y0084770D01*
X0091844Y0084849D01*
X0091741Y0084931D01*
X0091641Y0085016D01*
X0091544Y0085105D01*
X0091449Y0085196D01*
X0091357Y0085290D01*
X0091268Y0085387D01*
X0091182Y0085486D01*
X0091099Y0085588D01*
X0091019Y0085693D01*
X0090943Y0085799D01*
X0090870Y0085908D01*
X0090800Y0086020D01*
X0090733Y0086133D01*
X0090670Y0086248D01*
X0090610Y0086366D01*
X0090554Y0086484D01*
X0090502Y0086605D01*
X0090453Y0086727D01*
X0090408Y0086851D01*
X0090367Y0086975D01*
X0090330Y0087102D01*
X0090296Y0087229D01*
X0090266Y0087357D01*
X0090241Y0087486D01*
X0090219Y0087615D01*
X0090201Y0087745D01*
X0090187Y0087876D01*
X0090177Y0088007D01*
X0090171Y0088139D01*
X0090169Y0088270D01*
X0090169Y0009530D02*
X0090171Y0009661D01*
X0090177Y0009793D01*
X0090187Y0009924D01*
X0090201Y0010055D01*
X0090219Y0010185D01*
X0090241Y0010314D01*
X0090266Y0010443D01*
X0090296Y0010571D01*
X0090330Y0010698D01*
X0090367Y0010825D01*
X0090408Y0010949D01*
X0090453Y0011073D01*
X0090502Y0011195D01*
X0090554Y0011316D01*
X0090610Y0011434D01*
X0090670Y0011552D01*
X0090733Y0011667D01*
X0090800Y0011780D01*
X0090870Y0011892D01*
X0090943Y0012001D01*
X0091019Y0012107D01*
X0091099Y0012212D01*
X0091182Y0012314D01*
X0091268Y0012413D01*
X0091357Y0012510D01*
X0091449Y0012604D01*
X0091544Y0012695D01*
X0091641Y0012784D01*
X0091741Y0012869D01*
X0091844Y0012951D01*
X0091949Y0013030D01*
X0092056Y0013106D01*
X0092166Y0013178D01*
X0092278Y0013247D01*
X0092392Y0013313D01*
X0092507Y0013375D01*
X0092625Y0013434D01*
X0092744Y0013489D01*
X0092865Y0013541D01*
X0092988Y0013588D01*
X0093112Y0013632D01*
X0093237Y0013673D01*
X0093363Y0013709D01*
X0093491Y0013742D01*
X0093619Y0013770D01*
X0093748Y0013795D01*
X0093878Y0013816D01*
X0094008Y0013833D01*
X0094139Y0013846D01*
X0094270Y0013855D01*
X0094401Y0013860D01*
X0094533Y0013861D01*
X0094664Y0013858D01*
X0094796Y0013851D01*
X0094927Y0013840D01*
X0095057Y0013825D01*
X0095187Y0013806D01*
X0095317Y0013783D01*
X0095445Y0013757D01*
X0095573Y0013726D01*
X0095700Y0013691D01*
X0095826Y0013653D01*
X0095950Y0013611D01*
X0096074Y0013565D01*
X0096195Y0013515D01*
X0096315Y0013462D01*
X0096434Y0013405D01*
X0096551Y0013345D01*
X0096665Y0013281D01*
X0096778Y0013213D01*
X0096889Y0013142D01*
X0096998Y0013068D01*
X0097104Y0012991D01*
X0097208Y0012910D01*
X0097309Y0012827D01*
X0097408Y0012740D01*
X0097504Y0012650D01*
X0097597Y0012557D01*
X0097688Y0012462D01*
X0097775Y0012364D01*
X0097860Y0012263D01*
X0097941Y0012160D01*
X0098019Y0012054D01*
X0098094Y0011946D01*
X0098166Y0011836D01*
X0098234Y0011724D01*
X0098299Y0011610D01*
X0098360Y0011493D01*
X0098418Y0011375D01*
X0098472Y0011255D01*
X0098523Y0011134D01*
X0098570Y0011011D01*
X0098613Y0010887D01*
X0098652Y0010762D01*
X0098688Y0010635D01*
X0098719Y0010507D01*
X0098747Y0010379D01*
X0098771Y0010250D01*
X0098791Y0010120D01*
X0098807Y0009989D01*
X0098819Y0009858D01*
X0098827Y0009727D01*
X0098831Y0009596D01*
X0098831Y0009464D01*
X0098827Y0009333D01*
X0098819Y0009202D01*
X0098807Y0009071D01*
X0098791Y0008940D01*
X0098771Y0008810D01*
X0098747Y0008681D01*
X0098719Y0008553D01*
X0098688Y0008425D01*
X0098652Y0008298D01*
X0098613Y0008173D01*
X0098570Y0008049D01*
X0098523Y0007926D01*
X0098472Y0007805D01*
X0098418Y0007685D01*
X0098360Y0007567D01*
X0098299Y0007450D01*
X0098234Y0007336D01*
X0098166Y0007224D01*
X0098094Y0007114D01*
X0098019Y0007006D01*
X0097941Y0006900D01*
X0097860Y0006797D01*
X0097775Y0006696D01*
X0097688Y0006598D01*
X0097597Y0006503D01*
X0097504Y0006410D01*
X0097408Y0006320D01*
X0097309Y0006233D01*
X0097208Y0006150D01*
X0097104Y0006069D01*
X0096998Y0005992D01*
X0096889Y0005918D01*
X0096778Y0005847D01*
X0096666Y0005779D01*
X0096551Y0005715D01*
X0096434Y0005655D01*
X0096315Y0005598D01*
X0096195Y0005545D01*
X0096074Y0005495D01*
X0095950Y0005449D01*
X0095826Y0005407D01*
X0095700Y0005369D01*
X0095573Y0005334D01*
X0095445Y0005303D01*
X0095317Y0005277D01*
X0095187Y0005254D01*
X0095057Y0005235D01*
X0094927Y0005220D01*
X0094796Y0005209D01*
X0094664Y0005202D01*
X0094533Y0005199D01*
X0094401Y0005200D01*
X0094270Y0005205D01*
X0094139Y0005214D01*
X0094008Y0005227D01*
X0093878Y0005244D01*
X0093748Y0005265D01*
X0093619Y0005290D01*
X0093491Y0005318D01*
X0093363Y0005351D01*
X0093237Y0005387D01*
X0093112Y0005428D01*
X0092988Y0005472D01*
X0092865Y0005519D01*
X0092744Y0005571D01*
X0092625Y0005626D01*
X0092507Y0005685D01*
X0092392Y0005747D01*
X0092278Y0005813D01*
X0092166Y0005882D01*
X0092056Y0005954D01*
X0091949Y0006030D01*
X0091844Y0006109D01*
X0091741Y0006191D01*
X0091641Y0006276D01*
X0091544Y0006365D01*
X0091449Y0006456D01*
X0091357Y0006550D01*
X0091268Y0006647D01*
X0091182Y0006746D01*
X0091099Y0006848D01*
X0091019Y0006953D01*
X0090943Y0007059D01*
X0090870Y0007168D01*
X0090800Y0007280D01*
X0090733Y0007393D01*
X0090670Y0007508D01*
X0090610Y0007626D01*
X0090554Y0007744D01*
X0090502Y0007865D01*
X0090453Y0007987D01*
X0090408Y0008111D01*
X0090367Y0008235D01*
X0090330Y0008362D01*
X0090296Y0008489D01*
X0090266Y0008617D01*
X0090241Y0008746D01*
X0090219Y0008875D01*
X0090201Y0009005D01*
X0090187Y0009136D01*
X0090177Y0009267D01*
X0090171Y0009399D01*
X0090169Y0009530D01*
D15*
X0094500Y0009530D03*
X0094500Y0088270D03*
D16*
X0055130Y0038270D02*
X0055130Y0012680D01*
X0055132Y0012570D01*
X0055138Y0012460D01*
X0055147Y0012351D01*
X0055161Y0012242D01*
X0055178Y0012133D01*
X0055199Y0012025D01*
X0055224Y0011918D01*
X0055252Y0011812D01*
X0055284Y0011707D01*
X0055320Y0011603D01*
X0055359Y0011500D01*
X0055402Y0011399D01*
X0055449Y0011299D01*
X0055499Y0011201D01*
X0055552Y0011105D01*
X0055609Y0011011D01*
X0055669Y0010919D01*
X0055732Y0010828D01*
X0055798Y0010741D01*
X0055867Y0010655D01*
X0055939Y0010572D01*
X0056014Y0010492D01*
X0056092Y0010414D01*
X0056172Y0010339D01*
X0056255Y0010267D01*
X0056341Y0010198D01*
X0056428Y0010132D01*
X0056519Y0010069D01*
X0056611Y0010009D01*
X0056705Y0009952D01*
X0056801Y0009899D01*
X0056899Y0009849D01*
X0056999Y0009802D01*
X0057100Y0009759D01*
X0057203Y0009720D01*
X0057307Y0009684D01*
X0057412Y0009652D01*
X0057518Y0009624D01*
X0057625Y0009599D01*
X0057733Y0009578D01*
X0057842Y0009561D01*
X0057951Y0009547D01*
X0058060Y0009538D01*
X0058170Y0009532D01*
X0058280Y0009530D01*
X0086232Y0009530D01*
X0086286Y0009528D01*
X0086339Y0009523D01*
X0086392Y0009514D01*
X0086444Y0009501D01*
X0086496Y0009485D01*
X0086546Y0009465D01*
X0086594Y0009442D01*
X0086641Y0009415D01*
X0086686Y0009386D01*
X0086729Y0009353D01*
X0086769Y0009318D01*
X0086807Y0009280D01*
X0086842Y0009240D01*
X0086875Y0009197D01*
X0086904Y0009152D01*
X0086931Y0009105D01*
X0086954Y0009057D01*
X0086974Y0009007D01*
X0086990Y0008955D01*
X0087003Y0008903D01*
X0087012Y0008850D01*
X0087017Y0008797D01*
X0087019Y0008743D01*
X0087041Y0008560D01*
X0087067Y0008378D01*
X0087097Y0008197D01*
X0087132Y0008016D01*
X0087171Y0007837D01*
X0087215Y0007658D01*
X0087262Y0007481D01*
X0087315Y0007305D01*
X0087371Y0007130D01*
X0087432Y0006956D01*
X0087497Y0006784D01*
X0087566Y0006614D01*
X0087639Y0006446D01*
X0087717Y0006279D01*
X0087798Y0006114D01*
X0087884Y0005952D01*
X0087973Y0005791D01*
X0088066Y0005633D01*
X0088164Y0005477D01*
X0088264Y0005323D01*
X0088369Y0005172D01*
X0088477Y0005024D01*
X0088589Y0004878D01*
X0088705Y0004735D01*
X0088824Y0004595D01*
X0088946Y0004457D01*
X0089071Y0004323D01*
X0089200Y0004192D01*
X0089332Y0004064D01*
X0089467Y0003940D01*
X0089605Y0003818D01*
X0089746Y0003701D01*
X0089890Y0003586D01*
X0090037Y0003475D01*
X0090186Y0003368D01*
X0090338Y0003265D01*
X0090492Y0003165D01*
X0090649Y0003069D01*
X0090808Y0002977D01*
X0090969Y0002888D01*
X0091132Y0002804D01*
X0091298Y0002724D01*
X0091465Y0002648D01*
X0091634Y0002575D01*
X0091805Y0002508D01*
X0091977Y0002444D01*
X0092151Y0002384D01*
X0092326Y0002329D01*
X0092503Y0002278D01*
X0092680Y0002231D01*
X0092859Y0002189D01*
X0093039Y0002151D01*
X0093220Y0002118D01*
X0093401Y0002089D01*
X0093583Y0002064D01*
X0093766Y0002044D01*
X0093949Y0002028D01*
X0094133Y0002017D01*
X0094316Y0002010D01*
X0094500Y0002008D01*
X0094684Y0002010D01*
X0094867Y0002017D01*
X0095051Y0002028D01*
X0095234Y0002044D01*
X0095417Y0002064D01*
X0095599Y0002089D01*
X0095780Y0002118D01*
X0095961Y0002151D01*
X0096141Y0002189D01*
X0096320Y0002231D01*
X0096497Y0002278D01*
X0096674Y0002329D01*
X0096849Y0002384D01*
X0097023Y0002444D01*
X0097195Y0002508D01*
X0097366Y0002575D01*
X0097535Y0002648D01*
X0097702Y0002724D01*
X0097868Y0002804D01*
X0098031Y0002888D01*
X0098192Y0002977D01*
X0098351Y0003069D01*
X0098508Y0003165D01*
X0098662Y0003265D01*
X0098814Y0003368D01*
X0098963Y0003475D01*
X0099110Y0003586D01*
X0099254Y0003701D01*
X0099395Y0003818D01*
X0099533Y0003940D01*
X0099668Y0004064D01*
X0099800Y0004192D01*
X0099929Y0004323D01*
X0100054Y0004457D01*
X0100176Y0004595D01*
X0100295Y0004735D01*
X0100411Y0004878D01*
X0100523Y0005024D01*
X0100631Y0005172D01*
X0100736Y0005323D01*
X0100836Y0005477D01*
X0100934Y0005633D01*
X0101027Y0005791D01*
X0101116Y0005952D01*
X0101202Y0006114D01*
X0101283Y0006279D01*
X0101361Y0006446D01*
X0101434Y0006614D01*
X0101503Y0006784D01*
X0101568Y0006956D01*
X0101629Y0007130D01*
X0101685Y0007305D01*
X0101738Y0007481D01*
X0101785Y0007658D01*
X0101829Y0007837D01*
X0101868Y0008016D01*
X0101903Y0008197D01*
X0101933Y0008378D01*
X0101959Y0008560D01*
X0101981Y0008743D01*
X0101983Y0008797D01*
X0101988Y0008850D01*
X0101997Y0008903D01*
X0102010Y0008955D01*
X0102026Y0009007D01*
X0102046Y0009057D01*
X0102069Y0009105D01*
X0102096Y0009152D01*
X0102125Y0009197D01*
X0102158Y0009240D01*
X0102193Y0009280D01*
X0102231Y0009318D01*
X0102271Y0009353D01*
X0102314Y0009386D01*
X0102359Y0009415D01*
X0102406Y0009442D01*
X0102454Y0009465D01*
X0102504Y0009485D01*
X0102556Y0009501D01*
X0102608Y0009514D01*
X0102661Y0009523D01*
X0102714Y0009528D01*
X0102768Y0009530D01*
X0130720Y0009530D01*
X0130830Y0009532D01*
X0130940Y0009538D01*
X0131049Y0009547D01*
X0131158Y0009561D01*
X0131267Y0009578D01*
X0131375Y0009599D01*
X0131482Y0009624D01*
X0131588Y0009652D01*
X0131693Y0009684D01*
X0131797Y0009720D01*
X0131900Y0009759D01*
X0132001Y0009802D01*
X0132101Y0009849D01*
X0132199Y0009899D01*
X0132295Y0009952D01*
X0132389Y0010009D01*
X0132481Y0010069D01*
X0132572Y0010132D01*
X0132659Y0010198D01*
X0132745Y0010267D01*
X0132828Y0010339D01*
X0132908Y0010414D01*
X0132986Y0010492D01*
X0133061Y0010572D01*
X0133133Y0010655D01*
X0133202Y0010741D01*
X0133268Y0010828D01*
X0133331Y0010919D01*
X0133391Y0011011D01*
X0133448Y0011105D01*
X0133501Y0011201D01*
X0133551Y0011299D01*
X0133598Y0011399D01*
X0133641Y0011500D01*
X0133680Y0011603D01*
X0133716Y0011707D01*
X0133748Y0011812D01*
X0133776Y0011918D01*
X0133801Y0012025D01*
X0133822Y0012133D01*
X0133839Y0012242D01*
X0133853Y0012351D01*
X0133862Y0012460D01*
X0133868Y0012570D01*
X0133870Y0012680D01*
X0133870Y0038270D01*
X0133868Y0038336D01*
X0133863Y0038402D01*
X0133853Y0038468D01*
X0133840Y0038533D01*
X0133824Y0038597D01*
X0133804Y0038660D01*
X0133780Y0038722D01*
X0133753Y0038782D01*
X0133723Y0038841D01*
X0133689Y0038898D01*
X0133652Y0038953D01*
X0133612Y0039006D01*
X0133570Y0039057D01*
X0133524Y0039105D01*
X0133476Y0039151D01*
X0133425Y0039193D01*
X0133372Y0039233D01*
X0133317Y0039270D01*
X0133260Y0039304D01*
X0133201Y0039334D01*
X0133141Y0039361D01*
X0133079Y0039385D01*
X0133016Y0039405D01*
X0132952Y0039421D01*
X0132887Y0039434D01*
X0132821Y0039444D01*
X0132755Y0039449D01*
X0132689Y0039451D01*
X0132689Y0039452D02*
X0132458Y0039483D01*
X0132227Y0039521D01*
X0131998Y0039564D01*
X0131770Y0039613D01*
X0131543Y0039667D01*
X0131317Y0039727D01*
X0131093Y0039792D01*
X0130870Y0039863D01*
X0130650Y0039939D01*
X0130431Y0040021D01*
X0130214Y0040108D01*
X0130000Y0040200D01*
X0129788Y0040297D01*
X0129578Y0040400D01*
X0129371Y0040508D01*
X0129167Y0040621D01*
X0128965Y0040738D01*
X0128767Y0040861D01*
X0128571Y0040989D01*
X0128379Y0041121D01*
X0128190Y0041258D01*
X0128004Y0041399D01*
X0127822Y0041545D01*
X0127643Y0041696D01*
X0127469Y0041851D01*
X0127298Y0042010D01*
X0127131Y0042173D01*
X0126968Y0042340D01*
X0126809Y0042511D01*
X0126655Y0042686D01*
X0126505Y0042865D01*
X0126359Y0043047D01*
X0126218Y0043233D01*
X0126081Y0043423D01*
X0125949Y0043615D01*
X0125822Y0043811D01*
X0125700Y0044010D01*
X0125582Y0044211D01*
X0125470Y0044416D01*
X0125362Y0044623D01*
X0125260Y0044833D01*
X0125163Y0045045D01*
X0125071Y0045260D01*
X0124985Y0045477D01*
X0124903Y0045696D01*
X0124828Y0045916D01*
X0124757Y0046139D01*
X0124692Y0046363D01*
X0124633Y0046589D01*
X0124579Y0046816D01*
X0124531Y0047044D01*
X0124488Y0047274D01*
X0124451Y0047504D01*
X0124419Y0047736D01*
X0124394Y0047968D01*
X0124374Y0048200D01*
X0124359Y0048433D01*
X0124351Y0048667D01*
X0124348Y0048900D01*
X0124351Y0049133D01*
X0124359Y0049367D01*
X0124374Y0049600D01*
X0124394Y0049832D01*
X0124419Y0050064D01*
X0124451Y0050296D01*
X0124488Y0050526D01*
X0124531Y0050756D01*
X0124579Y0050984D01*
X0124633Y0051211D01*
X0124692Y0051437D01*
X0124757Y0051661D01*
X0124828Y0051884D01*
X0124903Y0052104D01*
X0124985Y0052323D01*
X0125071Y0052540D01*
X0125163Y0052755D01*
X0125260Y0052967D01*
X0125362Y0053177D01*
X0125470Y0053384D01*
X0125582Y0053589D01*
X0125700Y0053790D01*
X0125822Y0053989D01*
X0125949Y0054185D01*
X0126081Y0054377D01*
X0126218Y0054567D01*
X0126359Y0054753D01*
X0126505Y0054935D01*
X0126655Y0055114D01*
X0126809Y0055289D01*
X0126968Y0055460D01*
X0127131Y0055627D01*
X0127298Y0055790D01*
X0127469Y0055949D01*
X0127643Y0056104D01*
X0127822Y0056255D01*
X0128004Y0056401D01*
X0128190Y0056542D01*
X0128379Y0056679D01*
X0128571Y0056811D01*
X0128767Y0056939D01*
X0128965Y0057062D01*
X0129167Y0057179D01*
X0129371Y0057292D01*
X0129578Y0057400D01*
X0129788Y0057503D01*
X0130000Y0057600D01*
X0130214Y0057692D01*
X0130431Y0057779D01*
X0130650Y0057861D01*
X0130870Y0057937D01*
X0131093Y0058008D01*
X0131317Y0058073D01*
X0131543Y0058133D01*
X0131770Y0058187D01*
X0131998Y0058236D01*
X0132227Y0058279D01*
X0132458Y0058317D01*
X0132689Y0058348D01*
X0132689Y0058349D02*
X0132755Y0058351D01*
X0132821Y0058356D01*
X0132887Y0058366D01*
X0132952Y0058379D01*
X0133016Y0058395D01*
X0133079Y0058415D01*
X0133141Y0058439D01*
X0133201Y0058466D01*
X0133260Y0058496D01*
X0133317Y0058530D01*
X0133372Y0058567D01*
X0133425Y0058607D01*
X0133476Y0058649D01*
X0133524Y0058695D01*
X0133570Y0058743D01*
X0133612Y0058794D01*
X0133652Y0058847D01*
X0133689Y0058902D01*
X0133723Y0058959D01*
X0133753Y0059018D01*
X0133780Y0059078D01*
X0133804Y0059140D01*
X0133824Y0059203D01*
X0133840Y0059267D01*
X0133853Y0059332D01*
X0133863Y0059398D01*
X0133868Y0059464D01*
X0133870Y0059530D01*
X0133870Y0085120D01*
X0133868Y0085230D01*
X0133862Y0085340D01*
X0133853Y0085449D01*
X0133839Y0085558D01*
X0133822Y0085667D01*
X0133801Y0085775D01*
X0133776Y0085882D01*
X0133748Y0085988D01*
X0133716Y0086093D01*
X0133680Y0086197D01*
X0133641Y0086300D01*
X0133598Y0086401D01*
X0133551Y0086501D01*
X0133501Y0086599D01*
X0133448Y0086695D01*
X0133391Y0086789D01*
X0133331Y0086881D01*
X0133268Y0086972D01*
X0133202Y0087059D01*
X0133133Y0087145D01*
X0133061Y0087228D01*
X0132986Y0087308D01*
X0132908Y0087386D01*
X0132828Y0087461D01*
X0132745Y0087533D01*
X0132659Y0087602D01*
X0132572Y0087668D01*
X0132481Y0087731D01*
X0132389Y0087791D01*
X0132295Y0087848D01*
X0132199Y0087901D01*
X0132101Y0087951D01*
X0132001Y0087998D01*
X0131900Y0088041D01*
X0131797Y0088080D01*
X0131693Y0088116D01*
X0131588Y0088148D01*
X0131482Y0088176D01*
X0131375Y0088201D01*
X0131267Y0088222D01*
X0131158Y0088239D01*
X0131049Y0088253D01*
X0130940Y0088262D01*
X0130830Y0088268D01*
X0130720Y0088270D01*
X0102768Y0088270D01*
X0103161Y0088270D02*
X0103095Y0088272D01*
X0103029Y0088277D01*
X0102963Y0088287D01*
X0102898Y0088300D01*
X0102834Y0088316D01*
X0102771Y0088336D01*
X0102709Y0088360D01*
X0102649Y0088387D01*
X0102590Y0088417D01*
X0102533Y0088451D01*
X0102478Y0088488D01*
X0102425Y0088528D01*
X0102374Y0088570D01*
X0102326Y0088616D01*
X0102280Y0088664D01*
X0102238Y0088715D01*
X0102198Y0088768D01*
X0102161Y0088823D01*
X0102127Y0088880D01*
X0102097Y0088939D01*
X0102070Y0088999D01*
X0102046Y0089061D01*
X0102026Y0089124D01*
X0102010Y0089188D01*
X0101997Y0089253D01*
X0101987Y0089319D01*
X0101982Y0089385D01*
X0101980Y0089451D01*
X0101949Y0089633D01*
X0101914Y0089814D01*
X0101874Y0089995D01*
X0101830Y0090174D01*
X0101781Y0090352D01*
X0101728Y0090529D01*
X0101671Y0090704D01*
X0101610Y0090879D01*
X0101544Y0091051D01*
X0101474Y0091222D01*
X0101400Y0091391D01*
X0101322Y0091558D01*
X0101240Y0091724D01*
X0101153Y0091887D01*
X0101063Y0092048D01*
X0100969Y0092207D01*
X0100871Y0092364D01*
X0100769Y0092518D01*
X0100664Y0092669D01*
X0100555Y0092818D01*
X0100442Y0092965D01*
X0100326Y0093108D01*
X0100206Y0093249D01*
X0100083Y0093386D01*
X0099957Y0093521D01*
X0099827Y0093652D01*
X0099694Y0093781D01*
X0099559Y0093906D01*
X0099420Y0094027D01*
X0099278Y0094146D01*
X0099133Y0094260D01*
X0098986Y0094372D01*
X0098836Y0094479D01*
X0098683Y0094583D01*
X0098528Y0094683D01*
X0098370Y0094779D01*
X0098210Y0094872D01*
X0098048Y0094960D01*
X0097884Y0095045D01*
X0097718Y0095125D01*
X0097550Y0095202D01*
X0097380Y0095274D01*
X0097208Y0095342D01*
X0097035Y0095406D01*
X0096860Y0095466D01*
X0096684Y0095521D01*
X0096507Y0095572D01*
X0096328Y0095619D01*
X0096149Y0095661D01*
X0095968Y0095699D01*
X0095786Y0095733D01*
X0095604Y0095762D01*
X0095421Y0095787D01*
X0095237Y0095807D01*
X0095053Y0095823D01*
X0094869Y0095834D01*
X0094685Y0095841D01*
X0094500Y0095843D01*
X0094315Y0095841D01*
X0094131Y0095834D01*
X0093947Y0095823D01*
X0093763Y0095807D01*
X0093579Y0095787D01*
X0093396Y0095762D01*
X0093214Y0095733D01*
X0093032Y0095699D01*
X0092851Y0095661D01*
X0092672Y0095619D01*
X0092493Y0095572D01*
X0092316Y0095521D01*
X0092140Y0095466D01*
X0091965Y0095406D01*
X0091792Y0095342D01*
X0091620Y0095274D01*
X0091450Y0095202D01*
X0091282Y0095125D01*
X0091116Y0095045D01*
X0090952Y0094960D01*
X0090790Y0094872D01*
X0090630Y0094779D01*
X0090472Y0094683D01*
X0090317Y0094583D01*
X0090164Y0094479D01*
X0090014Y0094372D01*
X0089867Y0094260D01*
X0089722Y0094146D01*
X0089580Y0094027D01*
X0089441Y0093906D01*
X0089306Y0093781D01*
X0089173Y0093652D01*
X0089043Y0093521D01*
X0088917Y0093386D01*
X0088794Y0093249D01*
X0088674Y0093108D01*
X0088558Y0092965D01*
X0088445Y0092818D01*
X0088336Y0092669D01*
X0088231Y0092518D01*
X0088129Y0092364D01*
X0088031Y0092207D01*
X0087937Y0092048D01*
X0087847Y0091887D01*
X0087760Y0091724D01*
X0087678Y0091558D01*
X0087600Y0091391D01*
X0087526Y0091222D01*
X0087456Y0091051D01*
X0087390Y0090879D01*
X0087329Y0090704D01*
X0087272Y0090529D01*
X0087219Y0090352D01*
X0087170Y0090174D01*
X0087126Y0089995D01*
X0087086Y0089814D01*
X0087051Y0089633D01*
X0087020Y0089451D01*
X0087018Y0089385D01*
X0087013Y0089319D01*
X0087003Y0089253D01*
X0086990Y0089188D01*
X0086974Y0089124D01*
X0086954Y0089061D01*
X0086930Y0088999D01*
X0086903Y0088939D01*
X0086873Y0088880D01*
X0086839Y0088823D01*
X0086802Y0088768D01*
X0086762Y0088715D01*
X0086720Y0088664D01*
X0086674Y0088616D01*
X0086626Y0088570D01*
X0086575Y0088528D01*
X0086522Y0088488D01*
X0086467Y0088451D01*
X0086410Y0088417D01*
X0086351Y0088387D01*
X0086291Y0088360D01*
X0086229Y0088336D01*
X0086166Y0088316D01*
X0086102Y0088300D01*
X0086037Y0088287D01*
X0085971Y0088277D01*
X0085905Y0088272D01*
X0085839Y0088270D01*
X0058280Y0088270D01*
X0058170Y0088268D01*
X0058060Y0088262D01*
X0057951Y0088253D01*
X0057842Y0088239D01*
X0057733Y0088222D01*
X0057625Y0088201D01*
X0057518Y0088176D01*
X0057412Y0088148D01*
X0057307Y0088116D01*
X0057203Y0088080D01*
X0057100Y0088041D01*
X0056999Y0087998D01*
X0056899Y0087951D01*
X0056801Y0087901D01*
X0056705Y0087848D01*
X0056611Y0087791D01*
X0056519Y0087731D01*
X0056428Y0087668D01*
X0056341Y0087602D01*
X0056255Y0087533D01*
X0056172Y0087461D01*
X0056092Y0087386D01*
X0056014Y0087308D01*
X0055939Y0087228D01*
X0055867Y0087145D01*
X0055798Y0087059D01*
X0055732Y0086972D01*
X0055669Y0086881D01*
X0055609Y0086789D01*
X0055552Y0086695D01*
X0055499Y0086599D01*
X0055449Y0086501D01*
X0055402Y0086401D01*
X0055359Y0086300D01*
X0055320Y0086197D01*
X0055284Y0086093D01*
X0055252Y0085988D01*
X0055224Y0085882D01*
X0055199Y0085775D01*
X0055178Y0085667D01*
X0055161Y0085558D01*
X0055147Y0085449D01*
X0055138Y0085340D01*
X0055132Y0085230D01*
X0055130Y0085120D01*
X0055130Y0059530D01*
X0055132Y0059464D01*
X0055137Y0059398D01*
X0055147Y0059332D01*
X0055160Y0059267D01*
X0055176Y0059203D01*
X0055196Y0059140D01*
X0055220Y0059078D01*
X0055247Y0059018D01*
X0055277Y0058959D01*
X0055311Y0058902D01*
X0055348Y0058847D01*
X0055388Y0058794D01*
X0055430Y0058743D01*
X0055476Y0058695D01*
X0055524Y0058649D01*
X0055575Y0058607D01*
X0055628Y0058567D01*
X0055683Y0058530D01*
X0055740Y0058496D01*
X0055799Y0058466D01*
X0055859Y0058439D01*
X0055921Y0058415D01*
X0055984Y0058395D01*
X0056048Y0058379D01*
X0056113Y0058366D01*
X0056179Y0058356D01*
X0056245Y0058351D01*
X0056311Y0058349D01*
X0056311Y0058348D02*
X0056542Y0058317D01*
X0056773Y0058279D01*
X0057002Y0058236D01*
X0057230Y0058187D01*
X0057457Y0058133D01*
X0057683Y0058073D01*
X0057907Y0058008D01*
X0058130Y0057937D01*
X0058350Y0057861D01*
X0058569Y0057779D01*
X0058786Y0057692D01*
X0059000Y0057600D01*
X0059212Y0057503D01*
X0059422Y0057400D01*
X0059629Y0057292D01*
X0059833Y0057179D01*
X0060035Y0057062D01*
X0060233Y0056939D01*
X0060429Y0056811D01*
X0060621Y0056679D01*
X0060810Y0056542D01*
X0060996Y0056401D01*
X0061178Y0056255D01*
X0061357Y0056104D01*
X0061531Y0055949D01*
X0061702Y0055790D01*
X0061869Y0055627D01*
X0062032Y0055460D01*
X0062191Y0055289D01*
X0062345Y0055114D01*
X0062495Y0054935D01*
X0062641Y0054753D01*
X0062782Y0054567D01*
X0062919Y0054377D01*
X0063051Y0054185D01*
X0063178Y0053989D01*
X0063300Y0053790D01*
X0063418Y0053589D01*
X0063530Y0053384D01*
X0063638Y0053177D01*
X0063740Y0052967D01*
X0063837Y0052755D01*
X0063929Y0052540D01*
X0064015Y0052323D01*
X0064097Y0052104D01*
X0064172Y0051884D01*
X0064243Y0051661D01*
X0064308Y0051437D01*
X0064367Y0051211D01*
X0064421Y0050984D01*
X0064469Y0050756D01*
X0064512Y0050526D01*
X0064549Y0050296D01*
X0064581Y0050064D01*
X0064606Y0049832D01*
X0064626Y0049600D01*
X0064641Y0049367D01*
X0064649Y0049133D01*
X0064652Y0048900D01*
X0064649Y0048667D01*
X0064641Y0048433D01*
X0064626Y0048200D01*
X0064606Y0047968D01*
X0064581Y0047736D01*
X0064549Y0047504D01*
X0064512Y0047274D01*
X0064469Y0047044D01*
X0064421Y0046816D01*
X0064367Y0046589D01*
X0064308Y0046363D01*
X0064243Y0046139D01*
X0064172Y0045916D01*
X0064097Y0045696D01*
X0064015Y0045477D01*
X0063929Y0045260D01*
X0063837Y0045045D01*
X0063740Y0044833D01*
X0063638Y0044623D01*
X0063530Y0044416D01*
X0063418Y0044211D01*
X0063300Y0044010D01*
X0063178Y0043811D01*
X0063051Y0043615D01*
X0062919Y0043423D01*
X0062782Y0043233D01*
X0062641Y0043047D01*
X0062495Y0042865D01*
X0062345Y0042686D01*
X0062191Y0042511D01*
X0062032Y0042340D01*
X0061869Y0042173D01*
X0061702Y0042010D01*
X0061531Y0041851D01*
X0061357Y0041696D01*
X0061178Y0041545D01*
X0060996Y0041399D01*
X0060810Y0041258D01*
X0060621Y0041121D01*
X0060429Y0040989D01*
X0060233Y0040861D01*
X0060035Y0040738D01*
X0059833Y0040621D01*
X0059629Y0040508D01*
X0059422Y0040400D01*
X0059212Y0040297D01*
X0059000Y0040200D01*
X0058786Y0040108D01*
X0058569Y0040021D01*
X0058350Y0039939D01*
X0058130Y0039863D01*
X0057907Y0039792D01*
X0057683Y0039727D01*
X0057457Y0039667D01*
X0057230Y0039613D01*
X0057002Y0039564D01*
X0056773Y0039521D01*
X0056542Y0039483D01*
X0056311Y0039452D01*
X0056311Y0039451D02*
X0056245Y0039449D01*
X0056179Y0039444D01*
X0056113Y0039434D01*
X0056048Y0039421D01*
X0055984Y0039405D01*
X0055921Y0039385D01*
X0055859Y0039361D01*
X0055799Y0039334D01*
X0055740Y0039304D01*
X0055683Y0039270D01*
X0055628Y0039233D01*
X0055575Y0039193D01*
X0055524Y0039151D01*
X0055476Y0039105D01*
X0055430Y0039057D01*
X0055388Y0039006D01*
X0055348Y0038953D01*
X0055311Y0038898D01*
X0055277Y0038841D01*
X0055247Y0038782D01*
X0055220Y0038722D01*
X0055196Y0038660D01*
X0055176Y0038597D01*
X0055160Y0038533D01*
X0055147Y0038468D01*
X0055137Y0038402D01*
X0055132Y0038336D01*
X0055130Y0038270D01*
X0055130Y0012680D02*
X0055132Y0012570D01*
X0055138Y0012460D01*
X0055147Y0012351D01*
X0055161Y0012242D01*
X0055178Y0012133D01*
X0055199Y0012025D01*
X0055224Y0011918D01*
X0055252Y0011812D01*
X0055284Y0011707D01*
X0055320Y0011603D01*
X0055359Y0011500D01*
X0055402Y0011399D01*
X0055449Y0011299D01*
X0055499Y0011201D01*
X0055552Y0011105D01*
X0055609Y0011011D01*
X0055669Y0010919D01*
X0055732Y0010828D01*
X0055798Y0010741D01*
X0055867Y0010655D01*
X0055939Y0010572D01*
X0056014Y0010492D01*
X0056092Y0010414D01*
X0056172Y0010339D01*
X0056255Y0010267D01*
X0056341Y0010198D01*
X0056428Y0010132D01*
X0056519Y0010069D01*
X0056611Y0010009D01*
X0056705Y0009952D01*
X0056801Y0009899D01*
X0056899Y0009849D01*
X0056999Y0009802D01*
X0057100Y0009759D01*
X0057203Y0009720D01*
X0057307Y0009684D01*
X0057412Y0009652D01*
X0057518Y0009624D01*
X0057625Y0009599D01*
X0057733Y0009578D01*
X0057842Y0009561D01*
X0057951Y0009547D01*
X0058060Y0009538D01*
X0058170Y0009532D01*
X0058280Y0009530D01*
X0130720Y0009530D02*
X0130830Y0009532D01*
X0130940Y0009538D01*
X0131049Y0009547D01*
X0131158Y0009561D01*
X0131267Y0009578D01*
X0131375Y0009599D01*
X0131482Y0009624D01*
X0131588Y0009652D01*
X0131693Y0009684D01*
X0131797Y0009720D01*
X0131900Y0009759D01*
X0132001Y0009802D01*
X0132101Y0009849D01*
X0132199Y0009899D01*
X0132295Y0009952D01*
X0132389Y0010009D01*
X0132481Y0010069D01*
X0132572Y0010132D01*
X0132659Y0010198D01*
X0132745Y0010267D01*
X0132828Y0010339D01*
X0132908Y0010414D01*
X0132986Y0010492D01*
X0133061Y0010572D01*
X0133133Y0010655D01*
X0133202Y0010741D01*
X0133268Y0010828D01*
X0133331Y0010919D01*
X0133391Y0011011D01*
X0133448Y0011105D01*
X0133501Y0011201D01*
X0133551Y0011299D01*
X0133598Y0011399D01*
X0133641Y0011500D01*
X0133680Y0011603D01*
X0133716Y0011707D01*
X0133748Y0011812D01*
X0133776Y0011918D01*
X0133801Y0012025D01*
X0133822Y0012133D01*
X0133839Y0012242D01*
X0133853Y0012351D01*
X0133862Y0012460D01*
X0133868Y0012570D01*
X0133870Y0012680D01*
X0133868Y0012570D01*
X0133862Y0012460D01*
X0133853Y0012351D01*
X0133839Y0012242D01*
X0133822Y0012133D01*
X0133801Y0012025D01*
X0133776Y0011918D01*
X0133748Y0011812D01*
X0133716Y0011707D01*
X0133680Y0011603D01*
X0133641Y0011500D01*
X0133598Y0011399D01*
X0133551Y0011299D01*
X0133501Y0011201D01*
X0133448Y0011105D01*
X0133391Y0011011D01*
X0133331Y0010919D01*
X0133268Y0010828D01*
X0133202Y0010741D01*
X0133133Y0010655D01*
X0133061Y0010572D01*
X0132986Y0010492D01*
X0132908Y0010414D01*
X0132828Y0010339D01*
X0132745Y0010267D01*
X0132659Y0010198D01*
X0132572Y0010132D01*
X0132481Y0010069D01*
X0132389Y0010009D01*
X0132295Y0009952D01*
X0132199Y0009899D01*
X0132101Y0009849D01*
X0132001Y0009802D01*
X0131900Y0009759D01*
X0131797Y0009720D01*
X0131693Y0009684D01*
X0131588Y0009652D01*
X0131482Y0009624D01*
X0131375Y0009599D01*
X0131267Y0009578D01*
X0131158Y0009561D01*
X0131049Y0009547D01*
X0130940Y0009538D01*
X0130830Y0009532D01*
X0130720Y0009530D01*
X0133870Y0085120D02*
X0133868Y0085230D01*
X0133862Y0085340D01*
X0133853Y0085449D01*
X0133839Y0085558D01*
X0133822Y0085667D01*
X0133801Y0085775D01*
X0133776Y0085882D01*
X0133748Y0085988D01*
X0133716Y0086093D01*
X0133680Y0086197D01*
X0133641Y0086300D01*
X0133598Y0086401D01*
X0133551Y0086501D01*
X0133501Y0086599D01*
X0133448Y0086695D01*
X0133391Y0086789D01*
X0133331Y0086881D01*
X0133268Y0086972D01*
X0133202Y0087059D01*
X0133133Y0087145D01*
X0133061Y0087228D01*
X0132986Y0087308D01*
X0132908Y0087386D01*
X0132828Y0087461D01*
X0132745Y0087533D01*
X0132659Y0087602D01*
X0132572Y0087668D01*
X0132481Y0087731D01*
X0132389Y0087791D01*
X0132295Y0087848D01*
X0132199Y0087901D01*
X0132101Y0087951D01*
X0132001Y0087998D01*
X0131900Y0088041D01*
X0131797Y0088080D01*
X0131693Y0088116D01*
X0131588Y0088148D01*
X0131482Y0088176D01*
X0131375Y0088201D01*
X0131267Y0088222D01*
X0131158Y0088239D01*
X0131049Y0088253D01*
X0130940Y0088262D01*
X0130830Y0088268D01*
X0130720Y0088270D01*
X0130830Y0088268D01*
X0130940Y0088262D01*
X0131049Y0088253D01*
X0131158Y0088239D01*
X0131267Y0088222D01*
X0131375Y0088201D01*
X0131482Y0088176D01*
X0131588Y0088148D01*
X0131693Y0088116D01*
X0131797Y0088080D01*
X0131900Y0088041D01*
X0132001Y0087998D01*
X0132101Y0087951D01*
X0132199Y0087901D01*
X0132295Y0087848D01*
X0132389Y0087791D01*
X0132481Y0087731D01*
X0132572Y0087668D01*
X0132659Y0087602D01*
X0132745Y0087533D01*
X0132828Y0087461D01*
X0132908Y0087386D01*
X0132986Y0087308D01*
X0133061Y0087228D01*
X0133133Y0087145D01*
X0133202Y0087059D01*
X0133268Y0086972D01*
X0133331Y0086881D01*
X0133391Y0086789D01*
X0133448Y0086695D01*
X0133501Y0086599D01*
X0133551Y0086501D01*
X0133598Y0086401D01*
X0133641Y0086300D01*
X0133680Y0086197D01*
X0133716Y0086093D01*
X0133748Y0085988D01*
X0133776Y0085882D01*
X0133801Y0085775D01*
X0133822Y0085667D01*
X0133839Y0085558D01*
X0133853Y0085449D01*
X0133862Y0085340D01*
X0133868Y0085230D01*
X0133870Y0085120D01*
X0058280Y0088270D02*
X0058170Y0088268D01*
X0058060Y0088262D01*
X0057951Y0088253D01*
X0057842Y0088239D01*
X0057733Y0088222D01*
X0057625Y0088201D01*
X0057518Y0088176D01*
X0057412Y0088148D01*
X0057307Y0088116D01*
X0057203Y0088080D01*
X0057100Y0088041D01*
X0056999Y0087998D01*
X0056899Y0087951D01*
X0056801Y0087901D01*
X0056705Y0087848D01*
X0056611Y0087791D01*
X0056519Y0087731D01*
X0056428Y0087668D01*
X0056341Y0087602D01*
X0056255Y0087533D01*
X0056172Y0087461D01*
X0056092Y0087386D01*
X0056014Y0087308D01*
X0055939Y0087228D01*
X0055867Y0087145D01*
X0055798Y0087059D01*
X0055732Y0086972D01*
X0055669Y0086881D01*
X0055609Y0086789D01*
X0055552Y0086695D01*
X0055499Y0086599D01*
X0055449Y0086501D01*
X0055402Y0086401D01*
X0055359Y0086300D01*
X0055320Y0086197D01*
X0055284Y0086093D01*
X0055252Y0085988D01*
X0055224Y0085882D01*
X0055199Y0085775D01*
X0055178Y0085667D01*
X0055161Y0085558D01*
X0055147Y0085449D01*
X0055138Y0085340D01*
X0055132Y0085230D01*
X0055130Y0085120D01*
D17*
X0096000Y0034400D03*
X0103000Y0034400D03*
X0099500Y0026400D03*
D18*
X0074000Y0036900D03*
D19*
X0074000Y0046900D03*
X0074000Y0056900D03*
M02*
