G75*
%MOIN*%
%OFA0B0*%
%FSLAX24Y24*%
%IPPOS*%
%LPD*%
%AMOC8*
5,1,8,0,0,1.08239X$1,22.5*
%
%ADD10C,0.0000*%
%ADD11R,0.0236X0.0630*%
%ADD12R,0.0315X0.0315*%
%ADD13R,0.0394X0.0433*%
%ADD14R,0.0515X0.0515*%
%ADD15C,0.0515*%
%ADD16C,0.0050*%
%ADD17C,0.0240*%
%ADD18C,0.0280*%
%ADD19C,0.0320*%
D10*
X000300Y000350D02*
X000300Y039720D01*
X063292Y039720D01*
X063292Y000350D01*
X000300Y000350D01*
D11*
X029550Y022305D03*
X030046Y022305D03*
X030546Y022305D03*
X031046Y022305D03*
X031050Y024395D03*
X030550Y024395D03*
X030050Y024395D03*
X029550Y024395D03*
D12*
X037250Y027145D03*
X037250Y027735D03*
D13*
X037250Y026475D03*
X037250Y025805D03*
X028400Y025085D03*
X028400Y024415D03*
D14*
X025800Y026850D03*
X023800Y019850D03*
X037300Y022350D03*
D15*
X037300Y023350D03*
X037300Y024350D03*
X025800Y019850D03*
X024800Y019850D03*
X024800Y026850D03*
X023800Y026850D03*
D16*
X020693Y028374D02*
X020695Y028413D01*
X020701Y028452D01*
X020711Y028490D01*
X020724Y028527D01*
X020741Y028562D01*
X020761Y028596D01*
X020785Y028627D01*
X020812Y028656D01*
X020841Y028682D01*
X020873Y028705D01*
X020907Y028725D01*
X020943Y028741D01*
X020980Y028753D01*
X021019Y028762D01*
X021058Y028767D01*
X021097Y028768D01*
X021136Y028765D01*
X021175Y028758D01*
X021212Y028747D01*
X021249Y028733D01*
X021284Y028715D01*
X021317Y028694D01*
X021348Y028669D01*
X021376Y028642D01*
X021401Y028612D01*
X021423Y028579D01*
X021442Y028545D01*
X021457Y028509D01*
X021469Y028471D01*
X021477Y028433D01*
X021481Y028394D01*
X021481Y028354D01*
X021477Y028315D01*
X021469Y028277D01*
X021457Y028239D01*
X021442Y028203D01*
X021423Y028169D01*
X021401Y028136D01*
X021376Y028106D01*
X021348Y028079D01*
X021317Y028054D01*
X021284Y028033D01*
X021249Y028015D01*
X021212Y028001D01*
X021175Y027990D01*
X021136Y027983D01*
X021097Y027980D01*
X021058Y027981D01*
X021019Y027986D01*
X020980Y027995D01*
X020943Y028007D01*
X020907Y028023D01*
X020873Y028043D01*
X020841Y028066D01*
X020812Y028092D01*
X020785Y028121D01*
X020761Y028152D01*
X020741Y028186D01*
X020724Y028221D01*
X020711Y028258D01*
X020701Y028296D01*
X020695Y028335D01*
X020693Y028374D01*
X020300Y028374D02*
X020300Y018137D01*
X020693Y018137D02*
X020695Y018176D01*
X020701Y018215D01*
X020711Y018253D01*
X020724Y018290D01*
X020741Y018325D01*
X020761Y018359D01*
X020785Y018390D01*
X020812Y018419D01*
X020841Y018445D01*
X020873Y018468D01*
X020907Y018488D01*
X020943Y018504D01*
X020980Y018516D01*
X021019Y018525D01*
X021058Y018530D01*
X021097Y018531D01*
X021136Y018528D01*
X021175Y018521D01*
X021212Y018510D01*
X021249Y018496D01*
X021284Y018478D01*
X021317Y018457D01*
X021348Y018432D01*
X021376Y018405D01*
X021401Y018375D01*
X021423Y018342D01*
X021442Y018308D01*
X021457Y018272D01*
X021469Y018234D01*
X021477Y018196D01*
X021481Y018157D01*
X021481Y018117D01*
X021477Y018078D01*
X021469Y018040D01*
X021457Y018002D01*
X021442Y017966D01*
X021423Y017932D01*
X021401Y017899D01*
X021376Y017869D01*
X021348Y017842D01*
X021317Y017817D01*
X021284Y017796D01*
X021249Y017778D01*
X021212Y017764D01*
X021175Y017753D01*
X021136Y017746D01*
X021097Y017743D01*
X021058Y017744D01*
X021019Y017749D01*
X020980Y017758D01*
X020943Y017770D01*
X020907Y017786D01*
X020873Y017806D01*
X020841Y017829D01*
X020812Y017855D01*
X020785Y017884D01*
X020761Y017915D01*
X020741Y017949D01*
X020724Y017984D01*
X020711Y018021D01*
X020701Y018059D01*
X020695Y018098D01*
X020693Y018137D01*
X020300Y018137D02*
X020302Y018083D01*
X020307Y018030D01*
X020316Y017977D01*
X020329Y017925D01*
X020345Y017873D01*
X020365Y017823D01*
X020388Y017775D01*
X020415Y017728D01*
X020444Y017683D01*
X020477Y017640D01*
X020512Y017600D01*
X020550Y017562D01*
X020590Y017527D01*
X020633Y017494D01*
X020678Y017465D01*
X020725Y017438D01*
X020773Y017415D01*
X020823Y017395D01*
X020875Y017379D01*
X020927Y017366D01*
X020980Y017357D01*
X021033Y017352D01*
X021087Y017350D01*
X039198Y017350D01*
X038804Y018137D02*
X038806Y018176D01*
X038812Y018215D01*
X038822Y018253D01*
X038835Y018290D01*
X038852Y018325D01*
X038872Y018359D01*
X038896Y018390D01*
X038923Y018419D01*
X038952Y018445D01*
X038984Y018468D01*
X039018Y018488D01*
X039054Y018504D01*
X039091Y018516D01*
X039130Y018525D01*
X039169Y018530D01*
X039208Y018531D01*
X039247Y018528D01*
X039286Y018521D01*
X039323Y018510D01*
X039360Y018496D01*
X039395Y018478D01*
X039428Y018457D01*
X039459Y018432D01*
X039487Y018405D01*
X039512Y018375D01*
X039534Y018342D01*
X039553Y018308D01*
X039568Y018272D01*
X039580Y018234D01*
X039588Y018196D01*
X039592Y018157D01*
X039592Y018117D01*
X039588Y018078D01*
X039580Y018040D01*
X039568Y018002D01*
X039553Y017966D01*
X039534Y017932D01*
X039512Y017899D01*
X039487Y017869D01*
X039459Y017842D01*
X039428Y017817D01*
X039395Y017796D01*
X039360Y017778D01*
X039323Y017764D01*
X039286Y017753D01*
X039247Y017746D01*
X039208Y017743D01*
X039169Y017744D01*
X039130Y017749D01*
X039091Y017758D01*
X039054Y017770D01*
X039018Y017786D01*
X038984Y017806D01*
X038952Y017829D01*
X038923Y017855D01*
X038896Y017884D01*
X038872Y017915D01*
X038852Y017949D01*
X038835Y017984D01*
X038822Y018021D01*
X038812Y018059D01*
X038806Y018098D01*
X038804Y018137D01*
X039198Y017350D02*
X039252Y017352D01*
X039305Y017357D01*
X039358Y017366D01*
X039410Y017379D01*
X039462Y017395D01*
X039512Y017415D01*
X039560Y017438D01*
X039607Y017465D01*
X039652Y017494D01*
X039695Y017527D01*
X039735Y017562D01*
X039773Y017600D01*
X039808Y017640D01*
X039841Y017683D01*
X039870Y017728D01*
X039897Y017775D01*
X039920Y017823D01*
X039940Y017873D01*
X039956Y017925D01*
X039969Y017977D01*
X039978Y018030D01*
X039983Y018083D01*
X039985Y018137D01*
X039985Y028374D01*
X038804Y028374D02*
X038806Y028413D01*
X038812Y028452D01*
X038822Y028490D01*
X038835Y028527D01*
X038852Y028562D01*
X038872Y028596D01*
X038896Y028627D01*
X038923Y028656D01*
X038952Y028682D01*
X038984Y028705D01*
X039018Y028725D01*
X039054Y028741D01*
X039091Y028753D01*
X039130Y028762D01*
X039169Y028767D01*
X039208Y028768D01*
X039247Y028765D01*
X039286Y028758D01*
X039323Y028747D01*
X039360Y028733D01*
X039395Y028715D01*
X039428Y028694D01*
X039459Y028669D01*
X039487Y028642D01*
X039512Y028612D01*
X039534Y028579D01*
X039553Y028545D01*
X039568Y028509D01*
X039580Y028471D01*
X039588Y028433D01*
X039592Y028394D01*
X039592Y028354D01*
X039588Y028315D01*
X039580Y028277D01*
X039568Y028239D01*
X039553Y028203D01*
X039534Y028169D01*
X039512Y028136D01*
X039487Y028106D01*
X039459Y028079D01*
X039428Y028054D01*
X039395Y028033D01*
X039360Y028015D01*
X039323Y028001D01*
X039286Y027990D01*
X039247Y027983D01*
X039208Y027980D01*
X039169Y027981D01*
X039130Y027986D01*
X039091Y027995D01*
X039054Y028007D01*
X039018Y028023D01*
X038984Y028043D01*
X038952Y028066D01*
X038923Y028092D01*
X038896Y028121D01*
X038872Y028152D01*
X038852Y028186D01*
X038835Y028221D01*
X038822Y028258D01*
X038812Y028296D01*
X038806Y028335D01*
X038804Y028374D01*
X039198Y029161D02*
X039252Y029159D01*
X039305Y029154D01*
X039358Y029145D01*
X039410Y029132D01*
X039462Y029116D01*
X039512Y029096D01*
X039560Y029073D01*
X039607Y029046D01*
X039652Y029017D01*
X039695Y028984D01*
X039735Y028949D01*
X039773Y028911D01*
X039808Y028871D01*
X039841Y028828D01*
X039870Y028783D01*
X039897Y028736D01*
X039920Y028688D01*
X039940Y028638D01*
X039956Y028586D01*
X039969Y028534D01*
X039978Y028481D01*
X039983Y028428D01*
X039985Y028374D01*
X039198Y029161D02*
X021087Y029161D01*
X021033Y029159D01*
X020980Y029154D01*
X020927Y029145D01*
X020875Y029132D01*
X020823Y029116D01*
X020773Y029096D01*
X020725Y029073D01*
X020678Y029046D01*
X020633Y029017D01*
X020590Y028984D01*
X020550Y028949D01*
X020512Y028911D01*
X020477Y028871D01*
X020444Y028828D01*
X020415Y028783D01*
X020388Y028736D01*
X020365Y028688D01*
X020345Y028638D01*
X020329Y028586D01*
X020316Y028534D01*
X020307Y028481D01*
X020302Y028428D01*
X020300Y028374D01*
X020300Y017350D02*
X021087Y017350D01*
D17*
X021978Y017895D02*
X022026Y018137D01*
X021955Y018497D01*
X021751Y018801D01*
X021447Y019005D01*
X021087Y019076D01*
X020845Y019028D01*
X020845Y027483D01*
X021087Y027435D01*
X021447Y027506D01*
X021751Y027710D01*
X021955Y028014D01*
X022026Y028374D01*
X021978Y028616D01*
X038307Y028616D01*
X038259Y028374D01*
X038330Y028014D01*
X038534Y027710D01*
X038838Y027506D01*
X039198Y027435D01*
X039440Y027483D01*
X039440Y019028D01*
X039198Y019076D01*
X038838Y019005D01*
X038534Y018801D01*
X038330Y018497D01*
X038259Y018137D01*
X038307Y017895D01*
X021978Y017895D01*
X021999Y017999D02*
X038286Y017999D01*
X038279Y018238D02*
X022006Y018238D01*
X021959Y018476D02*
X038326Y018476D01*
X038476Y018715D02*
X030217Y018715D01*
X030181Y018679D02*
X030271Y018769D01*
X030817Y019315D01*
X030866Y019432D01*
X030866Y021779D01*
X030899Y021770D01*
X031046Y021770D01*
X031046Y022305D01*
X031046Y022305D01*
X031046Y021770D01*
X031193Y021770D01*
X031249Y021785D01*
X031299Y021814D01*
X031340Y021855D01*
X031369Y021905D01*
X031384Y021961D01*
X031384Y022305D01*
X031046Y022305D01*
X033865Y022305D01*
X034020Y022150D01*
X034810Y022531D02*
X031384Y022531D01*
X031384Y022649D02*
X031369Y022705D01*
X031340Y022755D01*
X031299Y022796D01*
X031249Y022825D01*
X031193Y022840D01*
X031046Y022840D01*
X030899Y022840D01*
X030843Y022825D01*
X030793Y022796D01*
X030782Y022785D01*
X030747Y022820D01*
X030345Y022820D01*
X030296Y022771D01*
X030247Y022820D01*
X029870Y022820D01*
X029870Y023880D01*
X030251Y023880D01*
X030300Y023929D01*
X030349Y023880D01*
X030751Y023880D01*
X030800Y023929D01*
X030849Y023880D01*
X031251Y023880D01*
X031368Y023997D01*
X031368Y024035D01*
X033306Y024035D01*
X035296Y022045D01*
X035428Y021990D01*
X036862Y021990D01*
X036960Y021893D01*
X037640Y021893D01*
X037757Y022010D01*
X037757Y022690D01*
X037640Y022807D01*
X036960Y022807D01*
X036862Y022710D01*
X035649Y022710D01*
X033760Y024599D01*
X033659Y024700D01*
X033527Y024755D01*
X031368Y024755D01*
X031368Y024793D01*
X031251Y024910D01*
X030849Y024910D01*
X030800Y024861D01*
X030751Y024910D01*
X030349Y024910D01*
X030300Y024861D01*
X030251Y024910D01*
X029910Y024910D01*
X029910Y025311D01*
X030349Y025750D01*
X032893Y025750D01*
X032895Y025746D01*
X032996Y025645D01*
X035596Y023045D01*
X035728Y022990D01*
X037013Y022990D01*
X037041Y022962D01*
X037209Y022893D01*
X037391Y022893D01*
X037559Y022962D01*
X037688Y023091D01*
X037757Y023259D01*
X037757Y023441D01*
X037688Y023609D01*
X037559Y023738D01*
X037391Y023807D01*
X037209Y023807D01*
X037041Y023738D01*
X037013Y023710D01*
X035949Y023710D01*
X033611Y026048D01*
X034978Y027415D01*
X036923Y027415D01*
X036893Y027385D01*
X036893Y026904D01*
X036930Y026867D01*
X036930Y026851D01*
X036853Y026774D01*
X036853Y026175D01*
X036875Y026153D01*
X036848Y026107D01*
X036833Y026051D01*
X036833Y025805D01*
X036833Y025560D01*
X036848Y025504D01*
X036877Y025454D01*
X036918Y025413D01*
X036968Y025384D01*
X037024Y025369D01*
X037250Y025369D01*
X037476Y025369D01*
X037532Y025384D01*
X037582Y025413D01*
X037623Y025454D01*
X037652Y025504D01*
X037667Y025560D01*
X037667Y025805D01*
X037250Y025805D01*
X037250Y025369D01*
X037250Y025805D01*
X037250Y025805D01*
X037250Y025805D01*
X036833Y025805D01*
X037250Y025805D01*
X037250Y025805D01*
X037300Y025805D01*
X037300Y024350D01*
X037300Y024350D01*
X037300Y024827D01*
X037262Y024827D01*
X037188Y024816D01*
X037117Y024792D01*
X037050Y024758D01*
X036989Y024714D01*
X036936Y024661D01*
X036892Y024600D01*
X036858Y024533D01*
X036834Y024462D01*
X036823Y024388D01*
X036823Y024350D01*
X036823Y024312D01*
X036834Y024238D01*
X036858Y024167D01*
X036892Y024100D01*
X036936Y024039D01*
X036989Y023986D01*
X037050Y023942D01*
X037117Y023908D01*
X037188Y023884D01*
X037262Y023873D01*
X037300Y023873D01*
X037338Y023873D01*
X037412Y023884D01*
X037483Y023908D01*
X037550Y023942D01*
X037611Y023986D01*
X037664Y024039D01*
X037708Y024100D01*
X037742Y024167D01*
X037766Y024238D01*
X037777Y024312D01*
X037777Y024350D01*
X037777Y024388D01*
X037766Y024462D01*
X037742Y024533D01*
X037708Y024600D01*
X037664Y024661D01*
X037611Y024714D01*
X037550Y024758D01*
X037483Y024792D01*
X037412Y024816D01*
X037338Y024827D01*
X037300Y024827D01*
X037300Y024350D01*
X037777Y024350D01*
X037300Y024350D01*
X037300Y024350D01*
X037300Y024350D01*
X036823Y024350D01*
X037300Y024350D01*
X037300Y023873D01*
X037300Y024350D01*
X037300Y024350D01*
X037300Y024439D02*
X037300Y024439D01*
X037300Y024677D02*
X037300Y024677D01*
X037648Y024677D02*
X039440Y024677D01*
X039440Y024439D02*
X037769Y024439D01*
X037753Y024200D02*
X039440Y024200D01*
X039440Y023962D02*
X037578Y023962D01*
X037574Y023723D02*
X039440Y023723D01*
X039440Y023485D02*
X037739Y023485D01*
X037752Y023246D02*
X039440Y023246D01*
X039440Y023008D02*
X037604Y023008D01*
X037679Y022769D02*
X039440Y022769D01*
X039440Y022531D02*
X037757Y022531D01*
X037757Y022292D02*
X039440Y022292D01*
X039440Y022054D02*
X037757Y022054D01*
X036921Y022769D02*
X035590Y022769D01*
X035686Y023008D02*
X035352Y023008D01*
X035395Y023246D02*
X035113Y023246D01*
X035156Y023485D02*
X034875Y023485D01*
X034918Y023723D02*
X034636Y023723D01*
X034679Y023962D02*
X034398Y023962D01*
X034441Y024200D02*
X034159Y024200D01*
X034202Y024439D02*
X033921Y024439D01*
X033964Y024677D02*
X033682Y024677D01*
X033725Y024916D02*
X029910Y024916D01*
X029910Y025154D02*
X033487Y025154D01*
X033248Y025393D02*
X029992Y025393D01*
X030230Y025631D02*
X033010Y025631D01*
X033200Y026090D02*
X034845Y027735D01*
X037250Y027735D01*
X037607Y027778D02*
X038489Y027778D01*
X038330Y028016D02*
X037567Y028016D01*
X037607Y027976D02*
X037490Y028093D01*
X037010Y028093D01*
X036972Y028055D01*
X034782Y028055D01*
X034664Y028007D01*
X033127Y026470D01*
X030128Y026470D01*
X029996Y026415D01*
X029895Y026314D01*
X029245Y025664D01*
X029190Y025532D01*
X029190Y024755D01*
X028786Y024755D01*
X028802Y024783D01*
X028817Y024839D01*
X028817Y025085D01*
X028817Y025330D01*
X028802Y025386D01*
X028773Y025436D01*
X028732Y025477D01*
X028682Y025506D01*
X028626Y025521D01*
X028400Y025521D01*
X028174Y025521D01*
X028118Y025506D01*
X028068Y025477D01*
X028027Y025436D01*
X027998Y025386D01*
X027983Y025330D01*
X027983Y025085D01*
X028400Y025085D01*
X028400Y025521D01*
X028400Y025085D01*
X028400Y025085D01*
X028400Y025085D01*
X028817Y025085D01*
X028400Y025085D01*
X028400Y025085D01*
X027983Y025085D01*
X027983Y024839D01*
X027998Y024783D01*
X028003Y024775D01*
X027924Y024775D01*
X027710Y024989D01*
X027710Y027082D01*
X027655Y027214D01*
X027255Y027614D01*
X027154Y027715D01*
X027022Y027770D01*
X025288Y027770D01*
X025156Y027715D01*
X025055Y027614D01*
X025055Y027614D01*
X024748Y027307D01*
X024709Y027307D01*
X024541Y027238D01*
X024412Y027109D01*
X024343Y026941D01*
X024343Y026759D01*
X024412Y026591D01*
X024440Y026563D01*
X024440Y020137D01*
X024412Y020109D01*
X024343Y019941D01*
X024343Y019759D01*
X024412Y019591D01*
X024541Y019462D01*
X024709Y019393D01*
X024891Y019393D01*
X025059Y019462D01*
X025188Y019591D01*
X025257Y019759D01*
X025257Y019941D01*
X025188Y020109D01*
X025160Y020137D01*
X025160Y026563D01*
X025188Y026591D01*
X025257Y026759D01*
X025257Y026798D01*
X025343Y026883D01*
X025343Y026510D01*
X025460Y026393D01*
X025480Y026393D01*
X025480Y021386D01*
X025529Y021269D01*
X026229Y020569D01*
X026319Y020479D01*
X026436Y020430D01*
X029664Y020430D01*
X029781Y020479D01*
X030226Y020924D01*
X030226Y019629D01*
X029867Y019270D01*
X024333Y019270D01*
X024175Y019427D01*
X024257Y019510D01*
X024257Y020190D01*
X024140Y020307D01*
X023460Y020307D01*
X023343Y020190D01*
X023343Y019510D01*
X023460Y019393D01*
X023480Y019393D01*
X023480Y019286D01*
X023529Y019169D01*
X023619Y019079D01*
X024019Y018679D01*
X024136Y018630D01*
X030064Y018630D01*
X030181Y018679D01*
X030000Y018950D02*
X024200Y018950D01*
X023800Y019350D01*
X023800Y019850D01*
X024257Y019907D02*
X024343Y019907D01*
X024380Y019669D02*
X024257Y019669D01*
X024178Y019430D02*
X024618Y019430D01*
X024982Y019430D02*
X025573Y019430D01*
X025550Y019442D02*
X025617Y019408D01*
X025688Y019384D01*
X025762Y019373D01*
X025800Y019373D01*
X025838Y019373D01*
X025912Y019384D01*
X025983Y019408D01*
X026050Y019442D01*
X026111Y019486D01*
X026164Y019539D01*
X026208Y019600D01*
X026242Y019667D01*
X026266Y019738D01*
X026277Y019812D01*
X026277Y019850D01*
X026277Y019888D01*
X026266Y019962D01*
X026242Y020033D01*
X026208Y020100D01*
X026164Y020161D01*
X026111Y020214D01*
X026050Y020258D01*
X025983Y020292D01*
X025912Y020316D01*
X025838Y020327D01*
X025800Y020327D01*
X025762Y020327D01*
X025688Y020316D01*
X025617Y020292D01*
X025550Y020258D01*
X025489Y020214D01*
X025436Y020161D01*
X025392Y020100D01*
X025358Y020033D01*
X025334Y019962D01*
X025323Y019888D01*
X025323Y019850D01*
X025323Y019812D01*
X025334Y019738D01*
X025358Y019667D01*
X025392Y019600D01*
X025436Y019539D01*
X025489Y019486D01*
X025550Y019442D01*
X025800Y019430D02*
X025800Y019430D01*
X025800Y019373D02*
X025800Y019850D01*
X026277Y019850D01*
X025800Y019850D01*
X025800Y019850D01*
X025800Y019850D01*
X025800Y020327D01*
X025800Y019850D01*
X025800Y019850D01*
X025800Y019850D01*
X025323Y019850D01*
X025800Y019850D01*
X025800Y019373D01*
X026027Y019430D02*
X030027Y019430D01*
X030226Y019669D02*
X026243Y019669D01*
X026274Y019907D02*
X030226Y019907D01*
X030226Y020146D02*
X026175Y020146D01*
X025800Y020146D02*
X025800Y020146D01*
X025800Y019907D02*
X025800Y019907D01*
X025800Y019669D02*
X025800Y019669D01*
X025357Y019669D02*
X025220Y019669D01*
X025257Y019907D02*
X025326Y019907D01*
X025425Y020146D02*
X025160Y020146D01*
X025160Y020384D02*
X030226Y020384D01*
X030226Y020623D02*
X029925Y020623D01*
X030164Y020861D02*
X030226Y020861D01*
X030046Y021196D02*
X029600Y020750D01*
X026500Y020750D01*
X025800Y021450D01*
X025800Y026850D01*
X026257Y026824D02*
X026990Y026824D01*
X026990Y026861D02*
X026990Y024768D01*
X027045Y024636D01*
X027146Y024535D01*
X027571Y024110D01*
X027703Y024055D01*
X028064Y024055D01*
X028120Y023999D01*
X028680Y023999D01*
X028716Y024035D01*
X029230Y024035D01*
X029230Y022241D01*
X029232Y022237D01*
X029232Y021907D01*
X029349Y021790D01*
X029726Y021790D01*
X029726Y021329D01*
X029467Y021070D01*
X026633Y021070D01*
X026120Y021583D01*
X026120Y026393D01*
X026140Y026393D01*
X026257Y026510D01*
X026257Y027050D01*
X026801Y027050D01*
X026990Y026861D01*
X026990Y026585D02*
X026257Y026585D01*
X026120Y026347D02*
X026990Y026347D01*
X026990Y026108D02*
X026120Y026108D01*
X026120Y025870D02*
X026990Y025870D01*
X026990Y025631D02*
X026120Y025631D01*
X026120Y025393D02*
X026990Y025393D01*
X026990Y025154D02*
X026120Y025154D01*
X026120Y024916D02*
X026990Y024916D01*
X027028Y024677D02*
X026120Y024677D01*
X026120Y024439D02*
X027242Y024439D01*
X027481Y024200D02*
X026120Y024200D01*
X026120Y023962D02*
X029230Y023962D01*
X029230Y023723D02*
X026120Y023723D01*
X026120Y023485D02*
X029230Y023485D01*
X029230Y023246D02*
X026120Y023246D01*
X026120Y023008D02*
X029230Y023008D01*
X029230Y022769D02*
X026120Y022769D01*
X026120Y022531D02*
X029230Y022531D01*
X029230Y022292D02*
X026120Y022292D01*
X026120Y022054D02*
X029232Y022054D01*
X029324Y021815D02*
X026120Y021815D01*
X026126Y021577D02*
X029726Y021577D01*
X029726Y021338D02*
X026365Y021338D01*
X026603Y021100D02*
X029497Y021100D01*
X030046Y021196D02*
X030046Y022305D01*
X029550Y022305D02*
X029550Y024395D01*
X029190Y024916D02*
X028817Y024916D01*
X028817Y025154D02*
X029190Y025154D01*
X029190Y025393D02*
X028798Y025393D01*
X028400Y025393D02*
X028400Y025393D01*
X028400Y025154D02*
X028400Y025154D01*
X027983Y025154D02*
X027710Y025154D01*
X027710Y025393D02*
X028002Y025393D01*
X027710Y025631D02*
X029231Y025631D01*
X029450Y025870D02*
X027710Y025870D01*
X027710Y026108D02*
X029689Y026108D01*
X029927Y026347D02*
X027710Y026347D01*
X027710Y026585D02*
X033242Y026585D01*
X033481Y026824D02*
X027710Y026824D01*
X027710Y027062D02*
X033719Y027062D01*
X033958Y027301D02*
X027569Y027301D01*
X027330Y027539D02*
X034196Y027539D01*
X034435Y027778D02*
X021796Y027778D01*
X021955Y028016D02*
X034687Y028016D01*
X034863Y027301D02*
X036893Y027301D01*
X036893Y027062D02*
X034625Y027062D01*
X034386Y026824D02*
X036903Y026824D01*
X036853Y026585D02*
X034148Y026585D01*
X033909Y026347D02*
X036853Y026347D01*
X036849Y026108D02*
X033671Y026108D01*
X033790Y025870D02*
X036833Y025870D01*
X036833Y025631D02*
X034028Y025631D01*
X034267Y025393D02*
X036953Y025393D01*
X037250Y025393D02*
X037250Y025393D01*
X037250Y025631D02*
X037250Y025631D01*
X037250Y025805D02*
X037667Y025805D01*
X037667Y026051D01*
X037652Y026107D01*
X037625Y026153D01*
X037647Y026175D01*
X037647Y026774D01*
X037570Y026851D01*
X037570Y026867D01*
X037607Y026904D01*
X037607Y027385D01*
X037553Y027440D01*
X037607Y027495D01*
X037607Y027976D01*
X037607Y027539D02*
X038790Y027539D01*
X039440Y027301D02*
X037607Y027301D01*
X037607Y027062D02*
X039440Y027062D01*
X039440Y026824D02*
X037597Y026824D01*
X037647Y026585D02*
X039440Y026585D01*
X039440Y026347D02*
X037647Y026347D01*
X037651Y026108D02*
X039440Y026108D01*
X039440Y025870D02*
X037667Y025870D01*
X037667Y025631D02*
X039440Y025631D01*
X039440Y025393D02*
X037547Y025393D01*
X036952Y024677D02*
X034982Y024677D01*
X034744Y024916D02*
X039440Y024916D01*
X039440Y025154D02*
X034505Y025154D01*
X035221Y024439D02*
X036831Y024439D01*
X036847Y024200D02*
X035459Y024200D01*
X035698Y023962D02*
X037022Y023962D01*
X037026Y023723D02*
X035936Y023723D01*
X037300Y023962D02*
X037300Y023962D01*
X037300Y024200D02*
X037300Y024200D01*
X034572Y022769D02*
X031326Y022769D01*
X031384Y022649D02*
X031384Y022305D01*
X031046Y022305D01*
X031046Y022305D01*
X031046Y022840D01*
X031046Y022305D01*
X031046Y022305D01*
X031046Y022292D02*
X031046Y022292D01*
X031046Y022054D02*
X031046Y022054D01*
X031046Y021815D02*
X031046Y021815D01*
X031300Y021815D02*
X039440Y021815D01*
X039440Y021577D02*
X030866Y021577D01*
X030866Y021338D02*
X039440Y021338D01*
X039440Y021100D02*
X030866Y021100D01*
X030866Y020861D02*
X039440Y020861D01*
X039440Y020623D02*
X030866Y020623D01*
X030866Y020384D02*
X039440Y020384D01*
X039440Y020146D02*
X030866Y020146D01*
X030866Y019907D02*
X039440Y019907D01*
X039440Y019669D02*
X030866Y019669D01*
X030865Y019430D02*
X039440Y019430D01*
X039440Y019192D02*
X030694Y019192D01*
X030456Y018953D02*
X038761Y018953D01*
X035287Y022054D02*
X031384Y022054D01*
X031384Y022292D02*
X035049Y022292D01*
X034333Y023008D02*
X029870Y023008D01*
X029870Y023246D02*
X034095Y023246D01*
X033856Y023485D02*
X029870Y023485D01*
X029870Y023723D02*
X033618Y023723D01*
X033379Y023962D02*
X031333Y023962D01*
X031046Y022769D02*
X031046Y022769D01*
X031046Y022531D02*
X031046Y022531D01*
X030546Y022305D02*
X030546Y019496D01*
X030000Y018950D01*
X026175Y020623D02*
X025160Y020623D01*
X025160Y020861D02*
X025936Y020861D01*
X025698Y021100D02*
X025160Y021100D01*
X025160Y021338D02*
X025500Y021338D01*
X025480Y021577D02*
X025160Y021577D01*
X025160Y021815D02*
X025480Y021815D01*
X025480Y022054D02*
X025160Y022054D01*
X025160Y022292D02*
X025480Y022292D01*
X025480Y022531D02*
X025160Y022531D01*
X025160Y022769D02*
X025480Y022769D01*
X025480Y023008D02*
X025160Y023008D01*
X025160Y023246D02*
X025480Y023246D01*
X025480Y023485D02*
X025160Y023485D01*
X025160Y023723D02*
X025480Y023723D01*
X025480Y023962D02*
X025160Y023962D01*
X025160Y024200D02*
X025480Y024200D01*
X025480Y024439D02*
X025160Y024439D01*
X025160Y024677D02*
X025480Y024677D01*
X025480Y024916D02*
X025160Y024916D01*
X025160Y025154D02*
X025480Y025154D01*
X025480Y025393D02*
X025160Y025393D01*
X025160Y025631D02*
X025480Y025631D01*
X025480Y025870D02*
X025160Y025870D01*
X025160Y026108D02*
X025480Y026108D01*
X025480Y026347D02*
X025160Y026347D01*
X025182Y026585D02*
X025343Y026585D01*
X025343Y026824D02*
X025283Y026824D01*
X024692Y027301D02*
X023959Y027301D01*
X023983Y027292D02*
X023912Y027316D01*
X023838Y027327D01*
X023800Y027327D01*
X023762Y027327D01*
X023688Y027316D01*
X023617Y027292D01*
X023550Y027258D01*
X023489Y027214D01*
X023436Y027161D01*
X023392Y027100D01*
X023358Y027033D01*
X023334Y026962D01*
X023323Y026888D01*
X023323Y026850D01*
X023323Y026812D01*
X023334Y026738D01*
X023358Y026667D01*
X023392Y026600D01*
X023436Y026539D01*
X023489Y026486D01*
X023550Y026442D01*
X023617Y026408D01*
X023688Y026384D01*
X023762Y026373D01*
X023800Y026373D01*
X023838Y026373D01*
X023912Y026384D01*
X023983Y026408D01*
X024050Y026442D01*
X024111Y026486D01*
X024164Y026539D01*
X024208Y026600D01*
X024242Y026667D01*
X024266Y026738D01*
X024277Y026812D01*
X024277Y026850D01*
X024277Y026888D01*
X024266Y026962D01*
X024242Y027033D01*
X024208Y027100D01*
X024164Y027161D01*
X024111Y027214D01*
X024050Y027258D01*
X023983Y027292D01*
X023800Y027301D02*
X023800Y027301D01*
X023800Y027327D02*
X023800Y026850D01*
X024277Y026850D01*
X023800Y026850D01*
X023800Y026850D01*
X023800Y026850D01*
X023800Y027327D01*
X023641Y027301D02*
X020845Y027301D01*
X020845Y027062D02*
X023372Y027062D01*
X023323Y026850D02*
X023800Y026850D01*
X023800Y026373D01*
X023800Y026850D01*
X023800Y026850D01*
X023800Y026850D01*
X023323Y026850D01*
X023323Y026824D02*
X020845Y026824D01*
X020845Y026585D02*
X023402Y026585D01*
X023800Y026585D02*
X023800Y026585D01*
X023800Y026824D02*
X023800Y026824D01*
X023800Y027062D02*
X023800Y027062D01*
X024228Y027062D02*
X024393Y027062D01*
X024343Y026824D02*
X024277Y026824D01*
X024198Y026585D02*
X024418Y026585D01*
X024440Y026347D02*
X020845Y026347D01*
X020845Y026108D02*
X024440Y026108D01*
X024440Y025870D02*
X020845Y025870D01*
X020845Y025631D02*
X024440Y025631D01*
X024440Y025393D02*
X020845Y025393D01*
X020845Y025154D02*
X024440Y025154D01*
X024440Y024916D02*
X020845Y024916D01*
X020845Y024677D02*
X024440Y024677D01*
X024440Y024439D02*
X020845Y024439D01*
X020845Y024200D02*
X024440Y024200D01*
X024440Y023962D02*
X020845Y023962D01*
X020845Y023723D02*
X024440Y023723D01*
X024440Y023485D02*
X020845Y023485D01*
X020845Y023246D02*
X024440Y023246D01*
X024440Y023008D02*
X020845Y023008D01*
X020845Y022769D02*
X024440Y022769D01*
X024440Y022531D02*
X020845Y022531D01*
X020845Y022292D02*
X024440Y022292D01*
X024440Y022054D02*
X020845Y022054D01*
X020845Y021815D02*
X024440Y021815D01*
X024440Y021577D02*
X020845Y021577D01*
X020845Y021338D02*
X024440Y021338D01*
X024440Y021100D02*
X020845Y021100D01*
X020845Y020861D02*
X024440Y020861D01*
X024440Y020623D02*
X020845Y020623D01*
X020845Y020384D02*
X024440Y020384D01*
X024440Y020146D02*
X024257Y020146D01*
X023343Y020146D02*
X020845Y020146D01*
X020845Y019907D02*
X023343Y019907D01*
X023343Y019669D02*
X020845Y019669D01*
X020845Y019430D02*
X023422Y019430D01*
X023519Y019192D02*
X020845Y019192D01*
X021524Y018953D02*
X023744Y018953D01*
X023983Y018715D02*
X021809Y018715D01*
X027784Y024916D02*
X027983Y024916D01*
X024980Y027539D02*
X021495Y027539D01*
X022002Y028255D02*
X038283Y028255D01*
X038283Y028493D02*
X022002Y028493D01*
X037250Y027145D02*
X037250Y026475D01*
D18*
X032400Y025270D03*
X032660Y022150D03*
X034020Y022150D03*
X029480Y019690D03*
X027880Y019690D03*
X022920Y022460D03*
X022920Y024520D03*
X026700Y023240D03*
X027890Y023220D03*
D19*
X027775Y024415D02*
X027350Y024840D01*
X027350Y027010D01*
X026950Y027410D01*
X025360Y027410D01*
X024800Y026850D01*
X024800Y019850D01*
X027775Y024415D02*
X028400Y024415D01*
X028420Y024395D01*
X029550Y024395D01*
X029550Y025460D01*
X030200Y026110D01*
X033180Y026110D01*
X033200Y026090D01*
X033200Y025950D01*
X035800Y023350D01*
X037300Y023350D01*
X037300Y022350D02*
X035500Y022350D01*
X033455Y024395D01*
X031050Y024395D01*
M02*
