G75*
%MOIN*%
%OFA0B0*%
%FSLAX24Y24*%
%IPPOS*%
%LPD*%
%AMOC8*
5,1,8,0,0,1.08239X$1,22.5*
%
%ADD10C,0.0000*%
%ADD11R,0.0515X0.0515*%
%ADD12C,0.0515*%
%ADD13C,0.0050*%
%ADD14C,0.0240*%
%ADD15C,0.0280*%
D10*
X000300Y000350D02*
X000300Y039720D01*
X063292Y039720D01*
X063292Y000350D01*
X000300Y000350D01*
D11*
X023800Y019850D03*
X025800Y026850D03*
X037300Y022350D03*
D12*
X037300Y023350D03*
X037300Y024350D03*
X025800Y019850D03*
X024800Y019850D03*
X024800Y026850D03*
X023800Y026850D03*
D13*
X020693Y028374D02*
X020695Y028413D01*
X020701Y028452D01*
X020711Y028490D01*
X020724Y028527D01*
X020741Y028562D01*
X020761Y028596D01*
X020785Y028627D01*
X020812Y028656D01*
X020841Y028682D01*
X020873Y028705D01*
X020907Y028725D01*
X020943Y028741D01*
X020980Y028753D01*
X021019Y028762D01*
X021058Y028767D01*
X021097Y028768D01*
X021136Y028765D01*
X021175Y028758D01*
X021212Y028747D01*
X021249Y028733D01*
X021284Y028715D01*
X021317Y028694D01*
X021348Y028669D01*
X021376Y028642D01*
X021401Y028612D01*
X021423Y028579D01*
X021442Y028545D01*
X021457Y028509D01*
X021469Y028471D01*
X021477Y028433D01*
X021481Y028394D01*
X021481Y028354D01*
X021477Y028315D01*
X021469Y028277D01*
X021457Y028239D01*
X021442Y028203D01*
X021423Y028169D01*
X021401Y028136D01*
X021376Y028106D01*
X021348Y028079D01*
X021317Y028054D01*
X021284Y028033D01*
X021249Y028015D01*
X021212Y028001D01*
X021175Y027990D01*
X021136Y027983D01*
X021097Y027980D01*
X021058Y027981D01*
X021019Y027986D01*
X020980Y027995D01*
X020943Y028007D01*
X020907Y028023D01*
X020873Y028043D01*
X020841Y028066D01*
X020812Y028092D01*
X020785Y028121D01*
X020761Y028152D01*
X020741Y028186D01*
X020724Y028221D01*
X020711Y028258D01*
X020701Y028296D01*
X020695Y028335D01*
X020693Y028374D01*
X020300Y028374D02*
X020300Y018137D01*
X020693Y018137D02*
X020695Y018176D01*
X020701Y018215D01*
X020711Y018253D01*
X020724Y018290D01*
X020741Y018325D01*
X020761Y018359D01*
X020785Y018390D01*
X020812Y018419D01*
X020841Y018445D01*
X020873Y018468D01*
X020907Y018488D01*
X020943Y018504D01*
X020980Y018516D01*
X021019Y018525D01*
X021058Y018530D01*
X021097Y018531D01*
X021136Y018528D01*
X021175Y018521D01*
X021212Y018510D01*
X021249Y018496D01*
X021284Y018478D01*
X021317Y018457D01*
X021348Y018432D01*
X021376Y018405D01*
X021401Y018375D01*
X021423Y018342D01*
X021442Y018308D01*
X021457Y018272D01*
X021469Y018234D01*
X021477Y018196D01*
X021481Y018157D01*
X021481Y018117D01*
X021477Y018078D01*
X021469Y018040D01*
X021457Y018002D01*
X021442Y017966D01*
X021423Y017932D01*
X021401Y017899D01*
X021376Y017869D01*
X021348Y017842D01*
X021317Y017817D01*
X021284Y017796D01*
X021249Y017778D01*
X021212Y017764D01*
X021175Y017753D01*
X021136Y017746D01*
X021097Y017743D01*
X021058Y017744D01*
X021019Y017749D01*
X020980Y017758D01*
X020943Y017770D01*
X020907Y017786D01*
X020873Y017806D01*
X020841Y017829D01*
X020812Y017855D01*
X020785Y017884D01*
X020761Y017915D01*
X020741Y017949D01*
X020724Y017984D01*
X020711Y018021D01*
X020701Y018059D01*
X020695Y018098D01*
X020693Y018137D01*
X020300Y018137D02*
X020302Y018083D01*
X020307Y018030D01*
X020316Y017977D01*
X020329Y017925D01*
X020345Y017873D01*
X020365Y017823D01*
X020388Y017775D01*
X020415Y017728D01*
X020444Y017683D01*
X020477Y017640D01*
X020512Y017600D01*
X020550Y017562D01*
X020590Y017527D01*
X020633Y017494D01*
X020678Y017465D01*
X020725Y017438D01*
X020773Y017415D01*
X020823Y017395D01*
X020875Y017379D01*
X020927Y017366D01*
X020980Y017357D01*
X021033Y017352D01*
X021087Y017350D01*
X039198Y017350D01*
X038804Y018137D02*
X038806Y018176D01*
X038812Y018215D01*
X038822Y018253D01*
X038835Y018290D01*
X038852Y018325D01*
X038872Y018359D01*
X038896Y018390D01*
X038923Y018419D01*
X038952Y018445D01*
X038984Y018468D01*
X039018Y018488D01*
X039054Y018504D01*
X039091Y018516D01*
X039130Y018525D01*
X039169Y018530D01*
X039208Y018531D01*
X039247Y018528D01*
X039286Y018521D01*
X039323Y018510D01*
X039360Y018496D01*
X039395Y018478D01*
X039428Y018457D01*
X039459Y018432D01*
X039487Y018405D01*
X039512Y018375D01*
X039534Y018342D01*
X039553Y018308D01*
X039568Y018272D01*
X039580Y018234D01*
X039588Y018196D01*
X039592Y018157D01*
X039592Y018117D01*
X039588Y018078D01*
X039580Y018040D01*
X039568Y018002D01*
X039553Y017966D01*
X039534Y017932D01*
X039512Y017899D01*
X039487Y017869D01*
X039459Y017842D01*
X039428Y017817D01*
X039395Y017796D01*
X039360Y017778D01*
X039323Y017764D01*
X039286Y017753D01*
X039247Y017746D01*
X039208Y017743D01*
X039169Y017744D01*
X039130Y017749D01*
X039091Y017758D01*
X039054Y017770D01*
X039018Y017786D01*
X038984Y017806D01*
X038952Y017829D01*
X038923Y017855D01*
X038896Y017884D01*
X038872Y017915D01*
X038852Y017949D01*
X038835Y017984D01*
X038822Y018021D01*
X038812Y018059D01*
X038806Y018098D01*
X038804Y018137D01*
X039198Y017350D02*
X039252Y017352D01*
X039305Y017357D01*
X039358Y017366D01*
X039410Y017379D01*
X039462Y017395D01*
X039512Y017415D01*
X039560Y017438D01*
X039607Y017465D01*
X039652Y017494D01*
X039695Y017527D01*
X039735Y017562D01*
X039773Y017600D01*
X039808Y017640D01*
X039841Y017683D01*
X039870Y017728D01*
X039897Y017775D01*
X039920Y017823D01*
X039940Y017873D01*
X039956Y017925D01*
X039969Y017977D01*
X039978Y018030D01*
X039983Y018083D01*
X039985Y018137D01*
X039985Y028374D01*
X038804Y028374D02*
X038806Y028413D01*
X038812Y028452D01*
X038822Y028490D01*
X038835Y028527D01*
X038852Y028562D01*
X038872Y028596D01*
X038896Y028627D01*
X038923Y028656D01*
X038952Y028682D01*
X038984Y028705D01*
X039018Y028725D01*
X039054Y028741D01*
X039091Y028753D01*
X039130Y028762D01*
X039169Y028767D01*
X039208Y028768D01*
X039247Y028765D01*
X039286Y028758D01*
X039323Y028747D01*
X039360Y028733D01*
X039395Y028715D01*
X039428Y028694D01*
X039459Y028669D01*
X039487Y028642D01*
X039512Y028612D01*
X039534Y028579D01*
X039553Y028545D01*
X039568Y028509D01*
X039580Y028471D01*
X039588Y028433D01*
X039592Y028394D01*
X039592Y028354D01*
X039588Y028315D01*
X039580Y028277D01*
X039568Y028239D01*
X039553Y028203D01*
X039534Y028169D01*
X039512Y028136D01*
X039487Y028106D01*
X039459Y028079D01*
X039428Y028054D01*
X039395Y028033D01*
X039360Y028015D01*
X039323Y028001D01*
X039286Y027990D01*
X039247Y027983D01*
X039208Y027980D01*
X039169Y027981D01*
X039130Y027986D01*
X039091Y027995D01*
X039054Y028007D01*
X039018Y028023D01*
X038984Y028043D01*
X038952Y028066D01*
X038923Y028092D01*
X038896Y028121D01*
X038872Y028152D01*
X038852Y028186D01*
X038835Y028221D01*
X038822Y028258D01*
X038812Y028296D01*
X038806Y028335D01*
X038804Y028374D01*
X039198Y029161D02*
X039252Y029159D01*
X039305Y029154D01*
X039358Y029145D01*
X039410Y029132D01*
X039462Y029116D01*
X039512Y029096D01*
X039560Y029073D01*
X039607Y029046D01*
X039652Y029017D01*
X039695Y028984D01*
X039735Y028949D01*
X039773Y028911D01*
X039808Y028871D01*
X039841Y028828D01*
X039870Y028783D01*
X039897Y028736D01*
X039920Y028688D01*
X039940Y028638D01*
X039956Y028586D01*
X039969Y028534D01*
X039978Y028481D01*
X039983Y028428D01*
X039985Y028374D01*
X039198Y029161D02*
X021087Y029161D01*
X021033Y029159D01*
X020980Y029154D01*
X020927Y029145D01*
X020875Y029132D01*
X020823Y029116D01*
X020773Y029096D01*
X020725Y029073D01*
X020678Y029046D01*
X020633Y029017D01*
X020590Y028984D01*
X020550Y028949D01*
X020512Y028911D01*
X020477Y028871D01*
X020444Y028828D01*
X020415Y028783D01*
X020388Y028736D01*
X020365Y028688D01*
X020345Y028638D01*
X020329Y028586D01*
X020316Y028534D01*
X020307Y028481D01*
X020302Y028428D01*
X020300Y028374D01*
X020300Y017350D02*
X021087Y017350D01*
D14*
X021978Y017895D02*
X022026Y018137D01*
X021955Y018497D01*
X021751Y018801D01*
X021447Y019005D01*
X021087Y019076D01*
X020845Y019028D01*
X020845Y027483D01*
X021087Y027435D01*
X021447Y027506D01*
X021751Y027710D01*
X021955Y028014D01*
X022026Y028374D01*
X021978Y028616D01*
X038307Y028616D01*
X038259Y028374D01*
X038330Y028014D01*
X038534Y027710D01*
X038838Y027506D01*
X039198Y027435D01*
X039440Y027483D01*
X039440Y019028D01*
X039198Y019076D01*
X038838Y019005D01*
X038534Y018801D01*
X038330Y018497D01*
X038259Y018137D01*
X038307Y017895D01*
X021978Y017895D01*
X021999Y017999D02*
X038286Y017999D01*
X038279Y018238D02*
X022006Y018238D01*
X021959Y018476D02*
X038326Y018476D01*
X038476Y018715D02*
X021809Y018715D01*
X021524Y018953D02*
X038761Y018953D01*
X039440Y019192D02*
X020845Y019192D01*
X020845Y019430D02*
X023422Y019430D01*
X023460Y019393D02*
X023343Y019510D01*
X023343Y020190D01*
X023460Y020307D01*
X024140Y020307D01*
X024257Y020190D01*
X024257Y019510D01*
X024140Y019393D01*
X023460Y019393D01*
X023343Y019669D02*
X020845Y019669D01*
X020845Y019907D02*
X023343Y019907D01*
X023343Y020146D02*
X020845Y020146D01*
X020845Y020384D02*
X039440Y020384D01*
X039440Y020146D02*
X026175Y020146D01*
X026164Y020161D02*
X026111Y020214D01*
X026050Y020258D01*
X025983Y020292D01*
X025912Y020316D01*
X025838Y020327D01*
X025800Y020327D01*
X025762Y020327D01*
X025688Y020316D01*
X025617Y020292D01*
X025550Y020258D01*
X025489Y020214D01*
X025436Y020161D01*
X025392Y020100D01*
X025358Y020033D01*
X025334Y019962D01*
X025323Y019888D01*
X025323Y019850D01*
X025323Y019812D01*
X025334Y019738D01*
X025358Y019667D01*
X025392Y019600D01*
X025436Y019539D01*
X025489Y019486D01*
X025550Y019442D01*
X025617Y019408D01*
X025688Y019384D01*
X025762Y019373D01*
X025800Y019373D01*
X025838Y019373D01*
X025912Y019384D01*
X025983Y019408D01*
X026050Y019442D01*
X026111Y019486D01*
X026164Y019539D01*
X026208Y019600D01*
X026242Y019667D01*
X026266Y019738D01*
X026277Y019812D01*
X026277Y019850D01*
X026277Y019888D01*
X026266Y019962D01*
X026242Y020033D01*
X026208Y020100D01*
X026164Y020161D01*
X026274Y019907D02*
X039440Y019907D01*
X039440Y019669D02*
X026243Y019669D01*
X026277Y019850D02*
X025800Y019850D01*
X026277Y019850D01*
X025800Y019850D02*
X025800Y019850D01*
X025800Y019850D01*
X025800Y020327D01*
X025800Y019850D01*
X025800Y019373D01*
X025800Y019850D01*
X025800Y019850D01*
X025800Y019850D01*
X025323Y019850D01*
X025800Y019850D01*
X025800Y019907D02*
X025800Y019907D01*
X025800Y019669D02*
X025800Y019669D01*
X025800Y019430D02*
X025800Y019430D01*
X026027Y019430D02*
X039440Y019430D01*
X039440Y020623D02*
X020845Y020623D01*
X020845Y020861D02*
X039440Y020861D01*
X039440Y021100D02*
X020845Y021100D01*
X020845Y021338D02*
X039440Y021338D01*
X039440Y021577D02*
X020845Y021577D01*
X020845Y021815D02*
X039440Y021815D01*
X039440Y022054D02*
X037757Y022054D01*
X037757Y022010D02*
X037757Y022690D01*
X037640Y022807D01*
X036960Y022807D01*
X036843Y022690D01*
X036843Y022010D01*
X036960Y021893D01*
X037640Y021893D01*
X037757Y022010D01*
X037757Y022292D02*
X039440Y022292D01*
X039440Y022531D02*
X037757Y022531D01*
X037679Y022769D02*
X039440Y022769D01*
X039440Y023008D02*
X037604Y023008D01*
X037559Y022962D02*
X037688Y023091D01*
X037757Y023259D01*
X037757Y023441D01*
X037688Y023609D01*
X037559Y023738D01*
X037391Y023807D01*
X037209Y023807D01*
X037041Y023738D01*
X036912Y023609D01*
X036843Y023441D01*
X036843Y023259D01*
X036912Y023091D01*
X037041Y022962D01*
X037209Y022893D01*
X037391Y022893D01*
X037559Y022962D01*
X037752Y023246D02*
X039440Y023246D01*
X039440Y023485D02*
X037739Y023485D01*
X037574Y023723D02*
X039440Y023723D01*
X039440Y023962D02*
X037578Y023962D01*
X037550Y023942D02*
X037611Y023986D01*
X037664Y024039D01*
X037708Y024100D01*
X037742Y024167D01*
X037766Y024238D01*
X037777Y024312D01*
X037777Y024350D01*
X037777Y024388D01*
X037766Y024462D01*
X037742Y024533D01*
X037708Y024600D01*
X037664Y024661D01*
X037611Y024714D01*
X037550Y024758D01*
X037483Y024792D01*
X037412Y024816D01*
X037338Y024827D01*
X037300Y024827D01*
X037262Y024827D01*
X037188Y024816D01*
X037117Y024792D01*
X037050Y024758D01*
X036989Y024714D01*
X036936Y024661D01*
X036892Y024600D01*
X036858Y024533D01*
X036834Y024462D01*
X036823Y024388D01*
X036823Y024350D01*
X036823Y024312D01*
X036834Y024238D01*
X036858Y024167D01*
X036892Y024100D01*
X036936Y024039D01*
X036989Y023986D01*
X037050Y023942D01*
X037117Y023908D01*
X037188Y023884D01*
X037262Y023873D01*
X037300Y023873D01*
X037338Y023873D01*
X037412Y023884D01*
X037483Y023908D01*
X037550Y023942D01*
X037300Y023962D02*
X037300Y023962D01*
X037300Y023873D02*
X037300Y024350D01*
X037300Y024350D01*
X037300Y024827D01*
X037300Y024350D01*
X037777Y024350D01*
X037300Y024350D01*
X037300Y024350D01*
X037300Y024350D01*
X036823Y024350D01*
X037300Y024350D01*
X037300Y024350D01*
X037300Y023873D01*
X037022Y023962D02*
X020845Y023962D01*
X020845Y024200D02*
X036847Y024200D01*
X036831Y024439D02*
X020845Y024439D01*
X020845Y024677D02*
X036952Y024677D01*
X037300Y024677D02*
X037300Y024677D01*
X037300Y024439D02*
X037300Y024439D01*
X037300Y024200D02*
X037300Y024200D01*
X037753Y024200D02*
X039440Y024200D01*
X039440Y024439D02*
X037769Y024439D01*
X037648Y024677D02*
X039440Y024677D01*
X039440Y024916D02*
X020845Y024916D01*
X020845Y025154D02*
X039440Y025154D01*
X039440Y025393D02*
X020845Y025393D01*
X020845Y025631D02*
X039440Y025631D01*
X039440Y025870D02*
X020845Y025870D01*
X020845Y026108D02*
X039440Y026108D01*
X039440Y026347D02*
X020845Y026347D01*
X020845Y026585D02*
X023402Y026585D01*
X023392Y026600D02*
X023436Y026539D01*
X023489Y026486D01*
X023550Y026442D01*
X023617Y026408D01*
X023688Y026384D01*
X023762Y026373D01*
X023800Y026373D01*
X023838Y026373D01*
X023912Y026384D01*
X023983Y026408D01*
X024050Y026442D01*
X024111Y026486D01*
X024164Y026539D01*
X024208Y026600D01*
X024242Y026667D01*
X024266Y026738D01*
X024277Y026812D01*
X024277Y026850D01*
X024277Y026888D01*
X024266Y026962D01*
X024242Y027033D01*
X024208Y027100D01*
X024164Y027161D01*
X024111Y027214D01*
X024050Y027258D01*
X023983Y027292D01*
X023912Y027316D01*
X023838Y027327D01*
X023800Y027327D01*
X023762Y027327D01*
X023688Y027316D01*
X023617Y027292D01*
X023550Y027258D01*
X023489Y027214D01*
X023436Y027161D01*
X023392Y027100D01*
X023358Y027033D01*
X023334Y026962D01*
X023323Y026888D01*
X023323Y026850D01*
X023323Y026812D01*
X023334Y026738D01*
X023358Y026667D01*
X023392Y026600D01*
X023323Y026824D02*
X020845Y026824D01*
X020845Y027062D02*
X023372Y027062D01*
X023323Y026850D02*
X023800Y026850D01*
X024277Y026850D01*
X023800Y026850D01*
X023800Y026850D01*
X023800Y026850D01*
X023800Y027327D01*
X023800Y026850D01*
X023800Y026373D01*
X023800Y026850D01*
X023800Y026850D01*
X023800Y026850D01*
X023323Y026850D01*
X023800Y026824D02*
X023800Y026824D01*
X023800Y027062D02*
X023800Y027062D01*
X023800Y027301D02*
X023800Y027301D01*
X023959Y027301D02*
X024692Y027301D01*
X024709Y027307D02*
X024541Y027238D01*
X024412Y027109D01*
X024343Y026941D01*
X024343Y026759D01*
X024412Y026591D01*
X024541Y026462D01*
X024709Y026393D01*
X024891Y026393D01*
X025059Y026462D01*
X025188Y026591D01*
X025257Y026759D01*
X025257Y026941D01*
X025188Y027109D01*
X025059Y027238D01*
X024891Y027307D01*
X024709Y027307D01*
X024908Y027301D02*
X025453Y027301D01*
X025460Y027307D02*
X025343Y027190D01*
X025343Y026510D01*
X025460Y026393D01*
X026140Y026393D01*
X026257Y026510D01*
X026257Y027190D01*
X026140Y027307D01*
X025460Y027307D01*
X025343Y027062D02*
X025207Y027062D01*
X025257Y026824D02*
X025343Y026824D01*
X025343Y026585D02*
X025182Y026585D01*
X024418Y026585D02*
X024198Y026585D01*
X024277Y026824D02*
X024343Y026824D01*
X024393Y027062D02*
X024228Y027062D01*
X023641Y027301D02*
X020845Y027301D01*
X021495Y027539D02*
X038790Y027539D01*
X038489Y027778D02*
X021796Y027778D01*
X021955Y028016D02*
X038330Y028016D01*
X038283Y028255D02*
X022002Y028255D01*
X022002Y028493D02*
X038283Y028493D01*
X039440Y027301D02*
X026147Y027301D01*
X026257Y027062D02*
X039440Y027062D01*
X039440Y026824D02*
X026257Y026824D01*
X026257Y026585D02*
X039440Y026585D01*
X037026Y023723D02*
X020845Y023723D01*
X020845Y023485D02*
X036861Y023485D01*
X036848Y023246D02*
X020845Y023246D01*
X020845Y023008D02*
X036996Y023008D01*
X036921Y022769D02*
X020845Y022769D01*
X020845Y022531D02*
X036843Y022531D01*
X036843Y022292D02*
X020845Y022292D01*
X020845Y022054D02*
X036843Y022054D01*
X025800Y020146D02*
X025800Y020146D01*
X025425Y020146D02*
X025151Y020146D01*
X025188Y020109D02*
X025059Y020238D01*
X024891Y020307D01*
X024709Y020307D01*
X024541Y020238D01*
X024412Y020109D01*
X024343Y019941D01*
X024343Y019759D01*
X024412Y019591D01*
X024541Y019462D01*
X024709Y019393D01*
X024891Y019393D01*
X025059Y019462D01*
X025188Y019591D01*
X025257Y019759D01*
X025257Y019941D01*
X025188Y020109D01*
X025257Y019907D02*
X025326Y019907D01*
X025357Y019669D02*
X025220Y019669D01*
X024982Y019430D02*
X025573Y019430D01*
X024618Y019430D02*
X024178Y019430D01*
X024257Y019669D02*
X024380Y019669D01*
X024343Y019907D02*
X024257Y019907D01*
X024257Y020146D02*
X024449Y020146D01*
X023800Y026585D02*
X023800Y026585D01*
D15*
X022920Y024520D03*
X022920Y022460D03*
X026700Y023240D03*
X027890Y023220D03*
X032660Y022150D03*
X034020Y022150D03*
X029480Y019690D03*
X027880Y019690D03*
X032400Y025270D03*
M02*
