%
M48
M72
T01C0.0150
T02C0.0315
T03C0.0866
%
T01
X1345Y2265
X1936Y691
X2723Y691
X2330Y2265
X3314Y2265
X3314Y5415
X2330Y5415
X1345Y5415
X1345Y8565
X2330Y8565
X3314Y8565
X3314Y11320
X2330Y11320
X1345Y11320
X1345Y14470
X2330Y14470
X3314Y14470
X6464Y14470
X7448Y14470
X8432Y14470
X8432Y11320
X7448Y11320
X6464Y11320
X6464Y8565
X7448Y8565
X8432Y8565
X8432Y5415
X7448Y5415
X6464Y5415
X6464Y2265
X7054Y691
X8432Y2265
X7842Y691
X7448Y2265
X5889Y17145
T02
X3889Y20795
X4889Y20795
X5889Y20795
T03
X952Y19919
X8826Y19919
M30
