G75*
%MOIN*%
%OFA0B0*%
%FSLAX25Y25*%
%IPPOS*%
%LPD*%
%AMOC8*
5,1,8,0,0,1.08239X$1,22.5*
%
%ADD10C,0.00300*%
%ADD11C,0.00400*%
%ADD12R,0.00100X0.00100*%
%ADD13R,0.00200X0.00100*%
%ADD14R,0.00500X0.00100*%
%ADD15R,0.00300X0.00100*%
%ADD16R,0.00900X0.00100*%
%ADD17R,0.00600X0.00100*%
%ADD18R,0.02100X0.00100*%
%ADD19R,0.00400X0.00100*%
%ADD20R,0.00800X0.00100*%
%ADD21R,0.01700X0.00100*%
%ADD22R,0.01100X0.00100*%
%ADD23R,0.02600X0.00100*%
%ADD24R,0.01300X0.00100*%
%ADD25R,0.02800X0.00100*%
%ADD26R,0.02300X0.00100*%
%ADD27R,0.01500X0.00100*%
%ADD28R,0.02200X0.00100*%
%ADD29R,0.00700X0.00100*%
%ADD30R,0.01000X0.00100*%
%ADD31R,0.01400X0.00100*%
%ADD32R,0.01800X0.00100*%
%ADD33R,0.01900X0.00100*%
%ADD34R,0.01600X0.00100*%
%ADD35R,0.02500X0.00100*%
%ADD36R,0.02000X0.00100*%
%ADD37R,0.03300X0.00100*%
%ADD38R,0.02400X0.00100*%
%ADD39R,0.06000X0.00100*%
%ADD40R,0.03100X0.00100*%
%ADD41R,0.05900X0.00100*%
%ADD42R,0.01200X0.00100*%
%ADD43R,0.04400X0.00100*%
%ADD44R,0.03800X0.00100*%
%ADD45R,0.03200X0.00100*%
%ADD46R,0.03900X0.00100*%
%ADD47R,0.05400X0.00100*%
%ADD48C,0.00500*%
%ADD49C,0.00600*%
%ADD50C,0.00800*%
%ADD51C,0.00000*%
%ADD52R,0.03000X0.00100*%
%ADD53R,0.03400X0.00100*%
%ADD54R,0.03700X0.00100*%
%ADD55R,0.04800X0.00100*%
%ADD56R,0.05000X0.00100*%
%ADD57R,0.05200X0.00100*%
%ADD58R,0.05500X0.00100*%
%ADD59R,0.05600X0.00100*%
%ADD60R,0.05800X0.00100*%
%ADD61R,0.05700X0.00100*%
%ADD62R,0.04600X0.00100*%
%ADD63R,0.04300X0.00100*%
%ADD64R,0.04100X0.00100*%
%ADD65R,0.02900X0.00100*%
%ADD66R,0.02700X0.00100*%
%ADD67R,0.03500X0.00100*%
%ADD68R,0.08300X0.00100*%
%ADD69R,0.13100X0.00100*%
%ADD70R,0.09400X0.00100*%
%ADD71R,0.06100X0.00100*%
%ADD72R,0.03600X0.00100*%
%ADD73C,0.00591*%
D10*
X0036222Y0046131D02*
X0036706Y0045648D01*
X0038157Y0045648D01*
X0038157Y0048550D01*
X0036706Y0048550D01*
X0036222Y0048066D01*
X0036222Y0046131D01*
X0039169Y0045648D02*
X0039169Y0048550D01*
X0041103Y0045648D01*
X0041103Y0048550D01*
X0042115Y0048066D02*
X0042115Y0047099D01*
X0043083Y0047099D01*
X0044050Y0048066D02*
X0044050Y0046131D01*
X0043566Y0045648D01*
X0042599Y0045648D01*
X0042115Y0046131D01*
X0042115Y0048066D02*
X0042599Y0048550D01*
X0043566Y0048550D01*
X0044050Y0048066D01*
X0048722Y0048066D02*
X0049206Y0048550D01*
X0050173Y0048550D01*
X0050657Y0048066D01*
X0050657Y0046131D01*
X0050173Y0045648D01*
X0049206Y0045648D01*
X0048722Y0046131D01*
X0051669Y0046131D02*
X0052152Y0045648D01*
X0053120Y0045648D01*
X0053603Y0046131D01*
X0053603Y0048066D01*
X0053120Y0048550D01*
X0052152Y0048550D01*
X0051669Y0048066D01*
X0054615Y0047583D02*
X0054615Y0045648D01*
X0054615Y0047583D02*
X0055583Y0048550D01*
X0056550Y0047583D01*
X0056550Y0045648D01*
X0058204Y0046131D02*
X0058688Y0045648D01*
X0059655Y0045648D01*
X0060139Y0046131D01*
X0060139Y0048066D01*
X0059655Y0048550D01*
X0058688Y0048550D01*
X0058204Y0048066D01*
X0058204Y0047099D01*
X0059172Y0047099D01*
X0061136Y0048550D02*
X0062103Y0048550D01*
X0061620Y0048550D02*
X0061620Y0045648D01*
X0062103Y0045648D02*
X0061136Y0045648D01*
X0063115Y0046131D02*
X0063599Y0045648D01*
X0064566Y0045648D01*
X0065050Y0046131D01*
X0065050Y0046615D01*
X0064566Y0047099D01*
X0063599Y0047099D01*
X0063115Y0047583D01*
X0063115Y0048066D01*
X0063599Y0048550D01*
X0064566Y0048550D01*
X0065050Y0048066D01*
X0067148Y0063657D02*
X0069566Y0063657D01*
X0070050Y0064141D01*
X0070050Y0065108D01*
X0069566Y0065592D01*
X0067148Y0065592D01*
X0068115Y0066603D02*
X0067148Y0067571D01*
X0070050Y0067571D01*
X0070050Y0068538D02*
X0070050Y0066603D01*
X0034350Y0066248D02*
X0034350Y0069150D01*
X0032415Y0069150D01*
X0031403Y0069150D02*
X0030436Y0069150D01*
X0030920Y0069150D02*
X0030920Y0066248D01*
X0031403Y0066248D02*
X0030436Y0066248D01*
X0029439Y0066731D02*
X0029439Y0068666D01*
X0028955Y0069150D01*
X0027988Y0069150D01*
X0027504Y0068666D01*
X0027504Y0067699D01*
X0028472Y0067699D01*
X0029439Y0066731D02*
X0028955Y0066248D01*
X0027988Y0066248D01*
X0027504Y0066731D01*
X0026493Y0066248D02*
X0026493Y0069150D01*
X0026493Y0067699D02*
X0024558Y0067699D01*
X0024558Y0066248D02*
X0024558Y0069150D01*
X0022579Y0069150D02*
X0022579Y0066248D01*
X0023546Y0066248D02*
X0021611Y0066248D01*
X0024069Y0050350D02*
X0026003Y0050350D01*
X0025036Y0050350D02*
X0025036Y0047448D01*
X0026003Y0048415D01*
X0027015Y0047931D02*
X0027015Y0048899D01*
X0027499Y0049383D01*
X0028950Y0049383D01*
X0028950Y0050350D02*
X0028950Y0047448D01*
X0027499Y0047448D01*
X0027015Y0047931D01*
X0027983Y0049383D02*
X0027015Y0050350D01*
D11*
X0027129Y0082029D02*
X0027129Y0082796D01*
X0027129Y0084331D02*
X0027129Y0087400D01*
X0027896Y0087400D02*
X0026361Y0087400D01*
X0024827Y0086633D02*
X0024059Y0087400D01*
X0021758Y0087400D01*
X0021758Y0088167D02*
X0021758Y0084331D01*
X0024059Y0084331D01*
X0024827Y0085098D01*
X0024827Y0086633D01*
X0023292Y0088935D02*
X0022525Y0088935D01*
X0021758Y0088167D01*
X0020223Y0087400D02*
X0020223Y0082796D01*
X0019456Y0084331D02*
X0017921Y0084331D01*
X0017154Y0085098D01*
X0017154Y0087400D01*
X0014852Y0086633D02*
X0014084Y0087400D01*
X0014852Y0086633D02*
X0014852Y0083563D01*
X0015619Y0084331D02*
X0014084Y0084331D01*
X0019456Y0084331D02*
X0020223Y0085098D01*
X0027129Y0084331D02*
X0027896Y0084331D01*
X0029431Y0087400D02*
X0032500Y0087400D01*
X0032500Y0082796D01*
X0061192Y0047504D02*
X0061192Y0042900D01*
X0061192Y0045202D02*
X0064261Y0045202D01*
X0065796Y0045969D02*
X0067331Y0047504D01*
X0067331Y0042900D01*
X0068865Y0042900D02*
X0065796Y0042900D01*
X0064261Y0042900D02*
X0064261Y0047504D01*
D12*
X0056300Y0082000D03*
X0058400Y0082300D03*
X0058400Y0083700D03*
X0058800Y0083800D03*
X0060800Y0084100D03*
X0061800Y0083900D03*
X0062300Y0083500D03*
X0063300Y0083600D03*
X0063800Y0082400D03*
X0061300Y0083000D03*
X0063700Y0085300D03*
X0063300Y0086600D03*
X0063200Y0087500D03*
X0062900Y0088200D03*
X0068600Y0086200D03*
X0051800Y0084700D03*
X0051800Y0084600D03*
X0050900Y0083800D03*
X0050600Y0084900D03*
X0050400Y0087200D03*
X0046900Y0086900D03*
X0046400Y0088200D03*
X0044000Y0087600D03*
X0043100Y0086000D03*
X0044500Y0083800D03*
X0047300Y0082100D03*
X0040400Y0086000D03*
X0039600Y0087600D03*
D13*
X0039050Y0082100D03*
X0045350Y0082500D03*
X0049450Y0079300D03*
X0054150Y0083800D03*
X0058350Y0083800D03*
X0053050Y0088100D03*
X0049850Y0088100D03*
X0047950Y0058100D03*
D14*
X0045000Y0066700D03*
X0047400Y0082200D03*
X0049200Y0083800D03*
X0049200Y0083900D03*
X0049100Y0084000D03*
X0049100Y0084100D03*
X0049100Y0084200D03*
X0049100Y0084300D03*
X0049000Y0084400D03*
X0049000Y0084500D03*
X0049000Y0084600D03*
X0049000Y0084700D03*
X0049000Y0084800D03*
X0048900Y0085400D03*
X0048900Y0085500D03*
X0048900Y0085600D03*
X0048900Y0085700D03*
X0048800Y0085900D03*
X0048800Y0086000D03*
X0048800Y0086100D03*
X0048800Y0086200D03*
X0048800Y0086900D03*
X0048800Y0087000D03*
X0048800Y0087100D03*
X0048800Y0087200D03*
X0048800Y0087300D03*
X0048800Y0087400D03*
X0048800Y0087500D03*
X0048800Y0087600D03*
X0048800Y0087700D03*
X0050400Y0087400D03*
X0052100Y0085500D03*
X0052000Y0085300D03*
X0051800Y0085000D03*
X0052700Y0085000D03*
X0052700Y0085100D03*
X0052700Y0085200D03*
X0052700Y0085300D03*
X0052700Y0085400D03*
X0052700Y0085500D03*
X0052700Y0084900D03*
X0052700Y0084800D03*
X0052700Y0084700D03*
X0052700Y0084600D03*
X0052700Y0084500D03*
X0052700Y0084400D03*
X0052700Y0084300D03*
X0052700Y0084200D03*
X0052700Y0084100D03*
X0052700Y0084000D03*
X0052700Y0083900D03*
X0052700Y0083800D03*
X0052700Y0083700D03*
X0052700Y0083600D03*
X0052700Y0083500D03*
X0052700Y0083400D03*
X0052700Y0083300D03*
X0052700Y0083200D03*
X0052700Y0083100D03*
X0052700Y0083000D03*
X0052700Y0082900D03*
X0052700Y0082800D03*
X0052700Y0082700D03*
X0052700Y0082600D03*
X0052700Y0082500D03*
X0052700Y0082400D03*
X0052700Y0082300D03*
X0052700Y0082200D03*
X0052700Y0082100D03*
X0050900Y0082600D03*
X0050900Y0082700D03*
X0051000Y0082900D03*
X0051000Y0083000D03*
X0051000Y0083100D03*
X0051000Y0083200D03*
X0051000Y0083300D03*
X0051100Y0083400D03*
X0051100Y0083500D03*
X0051100Y0083600D03*
X0050600Y0084700D03*
X0049600Y0083000D03*
X0050500Y0082100D03*
X0054300Y0084800D03*
X0054400Y0084900D03*
X0054400Y0085000D03*
X0054400Y0085100D03*
X0054500Y0085300D03*
X0054500Y0085400D03*
X0054700Y0086000D03*
X0054800Y0086200D03*
X0054800Y0086300D03*
X0054900Y0086500D03*
X0054900Y0086600D03*
X0054900Y0086700D03*
X0055100Y0087300D03*
X0055100Y0087400D03*
X0055200Y0087600D03*
X0055200Y0087700D03*
X0055200Y0087800D03*
X0055300Y0087900D03*
X0055300Y0088000D03*
X0055300Y0088100D03*
X0053200Y0088000D03*
X0053100Y0087800D03*
X0053100Y0087700D03*
X0053000Y0087500D03*
X0053000Y0087400D03*
X0052900Y0087200D03*
X0052900Y0087100D03*
X0052800Y0087000D03*
X0052800Y0086900D03*
X0052700Y0086700D03*
X0047700Y0086200D03*
X0047000Y0086600D03*
X0046900Y0086400D03*
X0046800Y0086200D03*
X0046700Y0086100D03*
X0046700Y0086000D03*
X0046400Y0085500D03*
X0046300Y0085300D03*
X0046200Y0085200D03*
X0046100Y0085000D03*
X0046000Y0084900D03*
X0045900Y0084700D03*
X0045800Y0084600D03*
X0045700Y0084500D03*
X0044700Y0083600D03*
X0044700Y0083500D03*
X0044700Y0083400D03*
X0044700Y0083300D03*
X0044700Y0083200D03*
X0044600Y0083100D03*
X0044600Y0083000D03*
X0044600Y0082900D03*
X0044600Y0082800D03*
X0042600Y0082800D03*
X0042600Y0082900D03*
X0042600Y0083000D03*
X0042600Y0083100D03*
X0042600Y0083200D03*
X0042600Y0083300D03*
X0042600Y0083400D03*
X0042600Y0083500D03*
X0042600Y0083600D03*
X0042600Y0083700D03*
X0042600Y0083800D03*
X0042600Y0083900D03*
X0042600Y0084000D03*
X0042600Y0084100D03*
X0042600Y0084200D03*
X0042600Y0084300D03*
X0042600Y0084400D03*
X0042600Y0084500D03*
X0042600Y0084600D03*
X0042600Y0084700D03*
X0042600Y0084800D03*
X0042600Y0084900D03*
X0042600Y0085000D03*
X0041800Y0085600D03*
X0041800Y0085700D03*
X0041800Y0085800D03*
X0041800Y0085900D03*
X0041800Y0086000D03*
X0041800Y0086100D03*
X0041800Y0086200D03*
X0041800Y0086300D03*
X0041800Y0086400D03*
X0041800Y0086500D03*
X0041800Y0086600D03*
X0041800Y0086700D03*
X0041800Y0086800D03*
X0041800Y0086900D03*
X0041800Y0087000D03*
X0041800Y0087100D03*
X0041800Y0087200D03*
X0041800Y0087300D03*
X0041800Y0087400D03*
X0041800Y0087500D03*
X0041800Y0087600D03*
X0041800Y0087700D03*
X0041800Y0087800D03*
X0041800Y0087900D03*
X0041800Y0088000D03*
X0041800Y0088100D03*
X0043100Y0086200D03*
X0040900Y0085000D03*
X0040900Y0084900D03*
X0040900Y0084800D03*
X0040900Y0084700D03*
X0040900Y0084600D03*
X0040900Y0084500D03*
X0040800Y0084300D03*
X0040800Y0084200D03*
X0040800Y0084100D03*
X0040800Y0084000D03*
X0040700Y0083900D03*
X0040700Y0083800D03*
X0040600Y0083600D03*
X0039100Y0082200D03*
X0039600Y0087400D03*
X0045500Y0086100D03*
X0045500Y0086000D03*
X0045600Y0086200D03*
X0045700Y0086300D03*
X0045700Y0086400D03*
X0045800Y0086500D03*
X0045800Y0086600D03*
X0045900Y0086700D03*
X0045900Y0086800D03*
X0046000Y0086900D03*
X0046000Y0087000D03*
X0046100Y0087100D03*
X0046200Y0087300D03*
X0046300Y0087500D03*
X0046400Y0087700D03*
X0046500Y0087900D03*
X0046500Y0088100D03*
X0058400Y0084000D03*
X0058600Y0084500D03*
X0058700Y0084800D03*
X0058700Y0084900D03*
X0058800Y0085000D03*
X0058800Y0085100D03*
X0058800Y0085200D03*
X0058800Y0085300D03*
X0058800Y0085400D03*
X0058900Y0085500D03*
X0058900Y0085600D03*
X0058900Y0085700D03*
X0058900Y0085800D03*
X0058900Y0085900D03*
X0058900Y0086000D03*
X0058900Y0086100D03*
X0058900Y0086200D03*
X0058900Y0086300D03*
X0058900Y0086400D03*
X0058900Y0086500D03*
X0058900Y0086600D03*
X0058900Y0086700D03*
X0058900Y0086800D03*
X0058900Y0086900D03*
X0058900Y0087000D03*
X0062100Y0087000D03*
X0062100Y0086900D03*
X0062100Y0086800D03*
X0062100Y0086700D03*
X0062100Y0086600D03*
X0062100Y0086500D03*
X0062200Y0086400D03*
X0062200Y0086300D03*
X0062200Y0086200D03*
X0062200Y0086100D03*
X0062200Y0086000D03*
X0062200Y0085900D03*
X0062300Y0085800D03*
X0062300Y0085700D03*
X0062300Y0085600D03*
X0062300Y0085500D03*
X0063000Y0085500D03*
X0063100Y0085700D03*
X0063200Y0085900D03*
X0063300Y0086100D03*
X0063400Y0086400D03*
X0063200Y0087700D03*
X0062100Y0087700D03*
X0062100Y0087800D03*
X0062100Y0087900D03*
X0062100Y0088000D03*
X0062100Y0088100D03*
X0062100Y0087600D03*
X0062100Y0087500D03*
X0063900Y0085100D03*
X0063800Y0084900D03*
X0063800Y0084800D03*
X0063800Y0084700D03*
X0063700Y0084500D03*
X0063400Y0083900D03*
X0063300Y0083400D03*
X0063400Y0083300D03*
X0063500Y0083100D03*
X0063600Y0083000D03*
X0063700Y0082900D03*
X0062500Y0083300D03*
X0062400Y0083100D03*
X0062400Y0083000D03*
X0062400Y0082900D03*
X0062400Y0082800D03*
X0062300Y0082700D03*
X0061300Y0083200D03*
X0061000Y0083700D03*
X0060900Y0083800D03*
X0060800Y0083900D03*
X0059800Y0083800D03*
X0059800Y0083700D03*
X0059800Y0083600D03*
X0059800Y0083500D03*
X0059800Y0083400D03*
X0059800Y0083300D03*
X0059800Y0083200D03*
X0059800Y0083100D03*
X0059800Y0083000D03*
X0059800Y0082900D03*
X0059800Y0082800D03*
X0058800Y0083400D03*
X0058900Y0083600D03*
X0058700Y0083200D03*
X0058600Y0083000D03*
X0058500Y0082800D03*
X0058400Y0082700D03*
X0058400Y0082600D03*
X0058300Y0082500D03*
X0067100Y0085100D03*
X0067700Y0085100D03*
X0067800Y0085000D03*
X0067400Y0085800D03*
X0067400Y0085900D03*
X0067400Y0086000D03*
D15*
X0064600Y0084000D03*
X0063800Y0082500D03*
X0063300Y0083500D03*
X0061800Y0084000D03*
X0060800Y0084000D03*
X0061300Y0083100D03*
X0058400Y0083900D03*
X0056300Y0082100D03*
X0054200Y0083700D03*
X0051800Y0084800D03*
X0050600Y0084800D03*
X0050400Y0087300D03*
X0047500Y0084700D03*
X0047200Y0083400D03*
X0045500Y0083800D03*
X0043100Y0086100D03*
X0044000Y0087500D03*
X0047000Y0086800D03*
X0040400Y0086100D03*
X0039600Y0087500D03*
X0063200Y0087600D03*
X0063400Y0086500D03*
D16*
X0062600Y0085200D03*
X0062500Y0084700D03*
X0066500Y0084700D03*
X0069900Y0084100D03*
X0056100Y0082400D03*
X0055900Y0082500D03*
X0055800Y0082600D03*
X0055600Y0082700D03*
X0055500Y0082800D03*
X0055000Y0083100D03*
X0054800Y0083200D03*
X0054600Y0083300D03*
X0054300Y0083500D03*
X0052500Y0085800D03*
X0052500Y0085900D03*
X0049500Y0083600D03*
X0048700Y0083000D03*
X0048500Y0082900D03*
X0050500Y0082200D03*
X0045800Y0083900D03*
X0039800Y0082700D03*
X0039600Y0082600D03*
X0049300Y0064600D03*
X0049200Y0064500D03*
X0049100Y0064300D03*
X0049100Y0064200D03*
X0049100Y0064100D03*
X0049100Y0064000D03*
X0049100Y0063900D03*
X0049100Y0063800D03*
X0049000Y0063600D03*
X0049000Y0063500D03*
X0048900Y0063300D03*
X0048900Y0063200D03*
X0048800Y0062900D03*
X0048700Y0062500D03*
X0049400Y0060100D03*
X0049400Y0060000D03*
X0049400Y0059900D03*
X0049400Y0059800D03*
D17*
X0053150Y0061100D03*
X0056250Y0082200D03*
X0055850Y0083100D03*
X0055950Y0083200D03*
X0056050Y0083300D03*
X0056150Y0083400D03*
X0056250Y0083500D03*
X0054250Y0083600D03*
X0051950Y0085200D03*
X0051850Y0085100D03*
X0052050Y0085400D03*
X0052650Y0086400D03*
X0052650Y0086500D03*
X0052650Y0086600D03*
X0052750Y0086800D03*
X0052950Y0087300D03*
X0053050Y0087600D03*
X0053150Y0087900D03*
X0050650Y0084600D03*
X0050550Y0084500D03*
X0050450Y0084400D03*
X0050350Y0084300D03*
X0050250Y0084200D03*
X0050150Y0084100D03*
X0050050Y0084000D03*
X0049950Y0083900D03*
X0049850Y0083800D03*
X0049650Y0082900D03*
X0049750Y0082800D03*
X0046850Y0086300D03*
X0046950Y0086500D03*
X0047050Y0086700D03*
X0046150Y0087200D03*
X0046250Y0087400D03*
X0046350Y0087600D03*
X0046450Y0087800D03*
X0046550Y0088000D03*
X0048750Y0088000D03*
X0048750Y0088100D03*
X0048750Y0087900D03*
X0048750Y0087800D03*
X0045550Y0085500D03*
X0045650Y0084400D03*
X0045550Y0082600D03*
X0042650Y0082700D03*
X0040650Y0083700D03*
X0040550Y0083500D03*
X0040450Y0083300D03*
X0040350Y0083200D03*
X0040850Y0084400D03*
X0040450Y0086200D03*
X0044050Y0087400D03*
X0058350Y0084100D03*
X0058450Y0084200D03*
X0058450Y0084300D03*
X0058550Y0084400D03*
X0058650Y0084600D03*
X0058650Y0084700D03*
X0059850Y0082700D03*
X0061050Y0083600D03*
X0061150Y0083500D03*
X0061250Y0083400D03*
X0061350Y0083300D03*
X0061850Y0084100D03*
X0061950Y0084300D03*
X0062050Y0084400D03*
X0062150Y0084500D03*
X0062550Y0084900D03*
X0062850Y0084500D03*
X0063750Y0084600D03*
X0063850Y0085000D03*
X0063450Y0083200D03*
X0063750Y0082800D03*
X0063850Y0082700D03*
X0062450Y0083200D03*
X0063150Y0087800D03*
X0063050Y0087900D03*
X0062950Y0088000D03*
X0066850Y0084900D03*
X0066950Y0085000D03*
X0067950Y0084900D03*
X0068650Y0086000D03*
X0069050Y0085700D03*
D18*
X0061000Y0082200D03*
X0051500Y0077100D03*
X0051600Y0076900D03*
X0051600Y0074900D03*
X0051500Y0074800D03*
X0054900Y0070500D03*
X0049700Y0068300D03*
X0045000Y0067000D03*
X0047400Y0074900D03*
X0047300Y0075000D03*
X0047300Y0076800D03*
X0047300Y0076900D03*
X0047400Y0077000D03*
X0047400Y0077100D03*
X0043600Y0082400D03*
X0048000Y0058300D03*
D19*
X0050950Y0082800D03*
X0051050Y0083700D03*
X0051850Y0084900D03*
X0051050Y0085600D03*
X0048850Y0085800D03*
X0047050Y0084500D03*
X0046150Y0085100D03*
X0045950Y0084800D03*
X0046350Y0085400D03*
X0044650Y0083700D03*
X0049850Y0088000D03*
X0054450Y0085200D03*
X0054550Y0085500D03*
X0054750Y0086100D03*
X0054850Y0086400D03*
X0054950Y0086800D03*
X0055150Y0087500D03*
X0058850Y0083700D03*
X0058850Y0083500D03*
X0058750Y0083300D03*
X0058650Y0083100D03*
X0058550Y0082900D03*
X0058350Y0082400D03*
X0059750Y0084200D03*
X0059750Y0084300D03*
X0059750Y0084800D03*
X0059750Y0084900D03*
X0059750Y0085000D03*
X0059750Y0085100D03*
X0059750Y0085200D03*
X0059750Y0085300D03*
X0061250Y0085300D03*
X0061250Y0085200D03*
X0061250Y0085100D03*
X0061250Y0085000D03*
X0061250Y0084900D03*
X0061250Y0084800D03*
X0062450Y0083400D03*
X0063850Y0082600D03*
X0065050Y0082400D03*
X0065050Y0082300D03*
X0065050Y0082200D03*
X0065050Y0082900D03*
X0065050Y0083000D03*
X0065050Y0083100D03*
X0065050Y0083200D03*
X0065050Y0083300D03*
X0065050Y0083400D03*
X0065050Y0083500D03*
X0065050Y0083600D03*
X0063850Y0085200D03*
X0063050Y0085600D03*
X0063150Y0085800D03*
X0063250Y0086000D03*
X0063350Y0086200D03*
X0063350Y0086300D03*
X0065050Y0086200D03*
X0065050Y0086100D03*
X0065050Y0086000D03*
X0065050Y0086700D03*
X0065050Y0086800D03*
X0065050Y0086900D03*
X0065050Y0087000D03*
X0065050Y0087100D03*
X0065050Y0087200D03*
X0065050Y0087300D03*
X0065050Y0087400D03*
X0066850Y0087400D03*
X0066850Y0087300D03*
X0066850Y0087200D03*
X0066850Y0087100D03*
X0066850Y0087000D03*
X0066850Y0086900D03*
X0066850Y0086800D03*
X0066850Y0086700D03*
X0066850Y0086200D03*
X0066850Y0086100D03*
X0067350Y0086100D03*
X0067350Y0085700D03*
X0067350Y0085600D03*
X0067950Y0086100D03*
X0067950Y0086200D03*
X0067950Y0086700D03*
X0067950Y0086800D03*
X0067950Y0086900D03*
X0067950Y0087000D03*
X0067950Y0087100D03*
X0067950Y0087200D03*
X0067950Y0087300D03*
X0067950Y0087400D03*
X0068650Y0086100D03*
X0069050Y0085600D03*
X0069750Y0086000D03*
X0069750Y0086100D03*
X0069750Y0086200D03*
X0069750Y0086700D03*
X0069750Y0086800D03*
X0069750Y0086900D03*
X0069750Y0087000D03*
X0069750Y0087100D03*
X0069750Y0087200D03*
X0069750Y0087300D03*
X0069750Y0087400D03*
X0069750Y0083600D03*
X0069750Y0083500D03*
X0069750Y0083400D03*
X0069750Y0083300D03*
X0069750Y0083200D03*
X0069750Y0083100D03*
X0069750Y0083000D03*
X0069750Y0082900D03*
X0069750Y0082400D03*
X0069750Y0082300D03*
X0069750Y0082200D03*
X0067950Y0082200D03*
X0067950Y0082300D03*
X0067950Y0082400D03*
X0067950Y0082900D03*
X0067950Y0083000D03*
X0067950Y0083100D03*
X0067950Y0083200D03*
X0067950Y0083300D03*
X0067950Y0083400D03*
X0067950Y0083500D03*
X0067950Y0083600D03*
X0066850Y0083600D03*
X0066850Y0083500D03*
X0066850Y0083400D03*
X0066850Y0083300D03*
X0066850Y0083200D03*
X0066850Y0083100D03*
X0066850Y0083000D03*
X0066850Y0082900D03*
X0066850Y0082400D03*
X0066850Y0082300D03*
X0066850Y0082200D03*
X0062950Y0088100D03*
D20*
X0062550Y0084800D03*
X0061850Y0084200D03*
X0063350Y0084000D03*
X0064850Y0084100D03*
X0068250Y0084700D03*
X0056250Y0082300D03*
X0052550Y0086000D03*
X0052550Y0086100D03*
X0050150Y0087700D03*
X0049450Y0083500D03*
X0049350Y0083400D03*
X0047450Y0082300D03*
X0044050Y0087300D03*
X0040050Y0082900D03*
X0039950Y0082800D03*
X0039150Y0082300D03*
X0049150Y0064400D03*
X0048950Y0063400D03*
X0048850Y0063100D03*
X0048850Y0063000D03*
X0048750Y0062800D03*
X0048750Y0062700D03*
X0048750Y0062600D03*
X0048650Y0062400D03*
X0048650Y0062300D03*
D21*
X0048000Y0058200D03*
X0054900Y0070600D03*
X0043600Y0082300D03*
X0046000Y0085800D03*
X0046000Y0085900D03*
D22*
X0046700Y0084400D03*
X0047700Y0082500D03*
X0047900Y0082600D03*
X0047500Y0082400D03*
X0049200Y0083200D03*
X0049500Y0083700D03*
X0050400Y0082300D03*
X0052400Y0085600D03*
X0055400Y0082900D03*
X0062500Y0084600D03*
X0063300Y0084200D03*
X0056200Y0069300D03*
X0056200Y0068400D03*
X0053600Y0069300D03*
X0053600Y0069400D03*
X0053400Y0068800D03*
X0053400Y0068700D03*
X0051100Y0066900D03*
X0051100Y0066800D03*
X0051100Y0066700D03*
X0051100Y0066600D03*
X0051100Y0066500D03*
X0051100Y0066400D03*
X0051000Y0066300D03*
X0051000Y0066200D03*
X0051000Y0066100D03*
X0051000Y0066000D03*
X0048400Y0066100D03*
X0048400Y0066200D03*
X0048300Y0066300D03*
X0048300Y0066900D03*
X0046400Y0068300D03*
X0046400Y0068400D03*
X0046400Y0068500D03*
X0046400Y0068600D03*
X0046400Y0068700D03*
X0046400Y0068800D03*
X0046400Y0068900D03*
X0046300Y0069200D03*
X0045000Y0070500D03*
X0043700Y0069200D03*
X0043600Y0069100D03*
X0043700Y0068100D03*
X0043800Y0068000D03*
X0046700Y0060400D03*
X0046600Y0060100D03*
X0046600Y0060000D03*
X0046600Y0059800D03*
X0046700Y0059600D03*
X0046700Y0059500D03*
X0049300Y0059500D03*
X0049300Y0060400D03*
X0051800Y0062600D03*
X0051800Y0062700D03*
X0051800Y0062800D03*
X0051800Y0062900D03*
X0051800Y0063000D03*
X0051800Y0063100D03*
X0051800Y0063200D03*
X0051800Y0063300D03*
X0051800Y0063400D03*
X0051800Y0063500D03*
X0051900Y0062500D03*
X0054400Y0062500D03*
X0054500Y0062600D03*
X0054600Y0063400D03*
X0054500Y0063600D03*
X0039400Y0082500D03*
X0039200Y0082400D03*
D23*
X0049850Y0086800D03*
X0061050Y0082300D03*
X0049550Y0072800D03*
X0049650Y0068100D03*
X0054850Y0067400D03*
X0048050Y0061400D03*
D24*
X0046800Y0060700D03*
X0046800Y0059300D03*
X0046900Y0059200D03*
X0052000Y0062300D03*
X0054300Y0063800D03*
X0054400Y0063700D03*
X0051500Y0064900D03*
X0050800Y0065800D03*
X0051100Y0067300D03*
X0048300Y0067100D03*
X0046200Y0069300D03*
X0043800Y0069300D03*
X0043900Y0067800D03*
X0053700Y0069600D03*
X0053800Y0069700D03*
X0056000Y0069600D03*
X0056100Y0069500D03*
X0056100Y0068200D03*
X0050400Y0082400D03*
X0063300Y0084300D03*
X0065900Y0084500D03*
X0068800Y0084500D03*
D25*
X0061050Y0082500D03*
X0061050Y0082400D03*
X0050950Y0077500D03*
X0049450Y0079000D03*
X0047950Y0077500D03*
X0049850Y0085300D03*
X0049750Y0068000D03*
X0053150Y0061800D03*
X0048050Y0061300D03*
X0048050Y0058600D03*
D26*
X0048000Y0058400D03*
X0053100Y0061500D03*
X0046600Y0067900D03*
X0049700Y0068200D03*
X0049500Y0072700D03*
X0051300Y0074600D03*
X0051400Y0074700D03*
X0051400Y0077200D03*
X0051300Y0077300D03*
X0047600Y0077300D03*
X0047500Y0077200D03*
X0043600Y0082500D03*
X0043600Y0082600D03*
X0054900Y0070400D03*
X0060500Y0086200D03*
X0060500Y0086300D03*
X0060500Y0086400D03*
X0060500Y0086500D03*
D27*
X0069700Y0084200D03*
X0055800Y0069800D03*
X0055900Y0069700D03*
X0055900Y0068100D03*
X0055800Y0068000D03*
X0054900Y0067100D03*
X0054200Y0063900D03*
X0052100Y0063900D03*
X0049000Y0059100D03*
X0047000Y0059100D03*
X0047000Y0060800D03*
X0050400Y0082500D03*
X0046000Y0085600D03*
X0046000Y0085700D03*
D28*
X0051550Y0077000D03*
X0047650Y0074600D03*
X0047550Y0074700D03*
X0047450Y0074800D03*
X0049550Y0072600D03*
X0053150Y0068200D03*
X0054850Y0067300D03*
X0051250Y0067400D03*
X0048050Y0061600D03*
X0045050Y0067100D03*
X0065950Y0082500D03*
X0065950Y0082600D03*
X0065950Y0082700D03*
X0065950Y0082800D03*
X0065950Y0083700D03*
X0065950Y0083800D03*
X0065950Y0083900D03*
X0065950Y0084000D03*
X0065950Y0086300D03*
X0065950Y0086400D03*
X0065950Y0086500D03*
X0065950Y0086600D03*
X0065950Y0087500D03*
X0065950Y0087600D03*
X0065950Y0087700D03*
X0065950Y0087800D03*
X0068850Y0087800D03*
X0068850Y0087700D03*
X0068850Y0087600D03*
X0068850Y0087500D03*
X0068850Y0086600D03*
X0068850Y0086500D03*
X0068850Y0086400D03*
X0068850Y0086300D03*
X0069450Y0084400D03*
X0068850Y0083900D03*
X0068850Y0083800D03*
X0068850Y0083700D03*
X0068850Y0082800D03*
X0068850Y0082700D03*
X0068850Y0082600D03*
X0068850Y0082500D03*
D29*
X0068100Y0084800D03*
X0068900Y0085800D03*
X0068800Y0085900D03*
X0066700Y0084800D03*
X0062600Y0085000D03*
X0062600Y0085100D03*
X0062200Y0082600D03*
X0059900Y0082600D03*
X0057000Y0084300D03*
X0056900Y0084200D03*
X0056800Y0084100D03*
X0056700Y0084000D03*
X0056600Y0083900D03*
X0056500Y0083800D03*
X0056400Y0083700D03*
X0056300Y0083600D03*
X0052600Y0086200D03*
X0052600Y0086300D03*
X0050800Y0086900D03*
X0050400Y0087500D03*
X0050300Y0087600D03*
X0050000Y0087800D03*
X0049900Y0087900D03*
X0047000Y0083300D03*
X0044500Y0082700D03*
X0043100Y0086300D03*
X0043200Y0086400D03*
X0043300Y0086500D03*
X0043400Y0086600D03*
X0043500Y0086700D03*
X0043600Y0086800D03*
X0043700Y0086900D03*
X0043800Y0087000D03*
X0043900Y0087100D03*
X0044000Y0087200D03*
X0040500Y0086300D03*
X0040400Y0086400D03*
X0040300Y0086500D03*
X0040200Y0086600D03*
X0040100Y0086700D03*
X0040100Y0086800D03*
X0040000Y0086900D03*
X0039900Y0087000D03*
X0039800Y0087100D03*
X0039700Y0087200D03*
X0039600Y0087300D03*
X0040500Y0083400D03*
X0040300Y0083100D03*
X0040200Y0083000D03*
X0049800Y0082700D03*
X0049900Y0082600D03*
D30*
X0049250Y0083300D03*
X0048350Y0082800D03*
X0048150Y0082700D03*
X0046750Y0083200D03*
X0045750Y0082700D03*
X0047850Y0084800D03*
X0052450Y0085700D03*
X0054450Y0083400D03*
X0062650Y0085300D03*
X0062650Y0085400D03*
X0063350Y0084100D03*
X0066250Y0084600D03*
X0068450Y0084600D03*
X0054850Y0070700D03*
X0053550Y0069200D03*
X0053450Y0069100D03*
X0053450Y0069000D03*
X0053450Y0068900D03*
X0056250Y0068900D03*
X0056250Y0068800D03*
X0056250Y0068700D03*
X0056250Y0068600D03*
X0056250Y0068500D03*
X0056250Y0069000D03*
X0056250Y0069100D03*
X0056250Y0069200D03*
X0053150Y0064900D03*
X0051850Y0063600D03*
X0054550Y0063500D03*
X0054650Y0063300D03*
X0054650Y0063200D03*
X0054650Y0063100D03*
X0054650Y0063000D03*
X0054650Y0062900D03*
X0054650Y0062800D03*
X0054550Y0062700D03*
X0049350Y0064700D03*
X0049050Y0063700D03*
X0048550Y0062200D03*
X0048550Y0062100D03*
X0048450Y0062000D03*
X0049350Y0060300D03*
X0049350Y0060200D03*
X0049350Y0059700D03*
X0049350Y0059600D03*
X0046650Y0059700D03*
X0046550Y0059900D03*
X0046650Y0060200D03*
X0046650Y0060300D03*
X0048250Y0066400D03*
X0048250Y0066500D03*
X0048250Y0066600D03*
X0048250Y0066700D03*
X0048250Y0066800D03*
X0046350Y0069000D03*
X0046350Y0069100D03*
X0043550Y0069000D03*
X0043550Y0068900D03*
X0043550Y0068800D03*
X0043550Y0068700D03*
X0043550Y0068600D03*
X0043550Y0068500D03*
X0043550Y0068400D03*
X0043550Y0068300D03*
X0043650Y0068200D03*
D31*
X0045050Y0070400D03*
X0046150Y0069400D03*
X0048650Y0065800D03*
X0052050Y0063800D03*
X0049050Y0060800D03*
X0053350Y0068500D03*
X0055350Y0083000D03*
X0049150Y0083100D03*
X0046550Y0083100D03*
X0045850Y0082800D03*
X0063250Y0084400D03*
X0065050Y0084200D03*
D32*
X0065150Y0084300D03*
X0069550Y0084300D03*
X0054850Y0067200D03*
X0049650Y0064900D03*
X0049650Y0064800D03*
X0048150Y0067300D03*
X0048150Y0061800D03*
X0047050Y0075800D03*
X0047050Y0075900D03*
X0047050Y0076000D03*
X0047050Y0076100D03*
X0051850Y0076100D03*
X0051850Y0076000D03*
X0051850Y0075900D03*
X0051850Y0075800D03*
X0051850Y0075700D03*
X0051850Y0075600D03*
X0051850Y0076200D03*
X0051850Y0076300D03*
X0046050Y0082900D03*
D33*
X0046300Y0083000D03*
X0047100Y0076600D03*
X0047100Y0076500D03*
X0047100Y0076400D03*
X0047100Y0076300D03*
X0047100Y0076200D03*
X0047100Y0075700D03*
X0047100Y0075600D03*
X0047100Y0075500D03*
X0047100Y0075400D03*
X0047100Y0075300D03*
X0047200Y0075200D03*
X0047200Y0075100D03*
X0049600Y0072200D03*
X0049600Y0072100D03*
X0049600Y0072000D03*
X0049600Y0071900D03*
X0049600Y0071800D03*
X0049600Y0071700D03*
X0049600Y0071600D03*
X0049600Y0071500D03*
X0049600Y0071400D03*
X0049600Y0071300D03*
X0049600Y0071200D03*
X0049600Y0071100D03*
X0049600Y0071000D03*
X0049600Y0070900D03*
X0049600Y0070800D03*
X0049600Y0070700D03*
X0049600Y0070600D03*
X0049600Y0070500D03*
X0049600Y0070400D03*
X0049600Y0070300D03*
X0049600Y0070200D03*
X0049600Y0070100D03*
X0049600Y0070000D03*
X0049600Y0069900D03*
X0049600Y0069800D03*
X0049600Y0069700D03*
X0049600Y0069600D03*
X0049600Y0069500D03*
X0049600Y0069400D03*
X0049600Y0069300D03*
X0049600Y0069200D03*
X0049600Y0069100D03*
X0049600Y0069000D03*
X0049600Y0068900D03*
X0049600Y0068800D03*
X0049600Y0068700D03*
X0049600Y0068600D03*
X0049600Y0068500D03*
X0046600Y0068000D03*
X0045000Y0070300D03*
X0051800Y0075200D03*
X0051800Y0075300D03*
X0051800Y0075400D03*
X0051800Y0075500D03*
X0051800Y0076400D03*
X0051800Y0076500D03*
X0051800Y0076600D03*
X0060500Y0084400D03*
X0060500Y0084500D03*
X0060500Y0084600D03*
X0060500Y0084700D03*
X0060500Y0085400D03*
X0060500Y0085500D03*
X0060500Y0085600D03*
X0060500Y0085700D03*
X0053200Y0061400D03*
D34*
X0053150Y0061300D03*
X0052150Y0062200D03*
X0054150Y0062200D03*
X0050650Y0065700D03*
X0048750Y0065700D03*
X0048150Y0067200D03*
X0046550Y0068100D03*
X0045050Y0066900D03*
X0048250Y0061900D03*
X0053350Y0068400D03*
X0053950Y0069800D03*
X0049450Y0079200D03*
X0046050Y0084000D03*
X0048250Y0086300D03*
X0065550Y0084400D03*
D35*
X0069000Y0084000D03*
X0051200Y0077400D03*
X0051100Y0074500D03*
X0047800Y0074500D03*
X0045000Y0070100D03*
X0045000Y0067200D03*
X0048000Y0061500D03*
X0048000Y0058500D03*
D36*
X0048150Y0061700D03*
X0049650Y0068400D03*
X0053250Y0068300D03*
X0049550Y0072300D03*
X0049550Y0072400D03*
X0049550Y0072500D03*
X0051650Y0075000D03*
X0051750Y0075100D03*
X0051750Y0076700D03*
X0051650Y0076800D03*
X0049550Y0079100D03*
X0047150Y0076700D03*
X0046250Y0084100D03*
X0046250Y0084200D03*
X0046250Y0084300D03*
X0048250Y0084900D03*
X0050250Y0085400D03*
D37*
X0049300Y0085200D03*
X0049000Y0086500D03*
X0055700Y0084700D03*
X0055700Y0084600D03*
X0055700Y0084500D03*
X0055700Y0084400D03*
X0049500Y0073000D03*
X0053000Y0068000D03*
X0050000Y0065300D03*
X0053000Y0064300D03*
X0053200Y0062000D03*
X0048000Y0060900D03*
X0048000Y0059000D03*
X0045000Y0069600D03*
X0045000Y0069700D03*
D38*
X0045050Y0070200D03*
X0046650Y0067800D03*
X0053150Y0061600D03*
X0054850Y0070300D03*
X0047750Y0077400D03*
X0048450Y0085000D03*
X0048550Y0086400D03*
D39*
X0041850Y0085500D03*
X0041850Y0085400D03*
X0041850Y0085300D03*
X0041850Y0085200D03*
X0041850Y0085100D03*
D40*
X0048800Y0085100D03*
X0054800Y0070000D03*
X0054800Y0067600D03*
X0052700Y0064700D03*
X0052800Y0064600D03*
X0048000Y0061100D03*
X0048000Y0061000D03*
X0048000Y0058900D03*
D41*
X0046400Y0067400D03*
X0067400Y0085200D03*
X0067400Y0085300D03*
X0067400Y0085400D03*
X0067400Y0085500D03*
D42*
X0056150Y0069400D03*
X0056150Y0068300D03*
X0054850Y0067000D03*
X0053350Y0068600D03*
X0053650Y0069500D03*
X0051050Y0067200D03*
X0051050Y0067100D03*
X0051050Y0067000D03*
X0050850Y0065900D03*
X0048550Y0065900D03*
X0048450Y0066000D03*
X0048250Y0067000D03*
X0046450Y0068200D03*
X0044950Y0066800D03*
X0043850Y0067900D03*
X0043850Y0069400D03*
X0046750Y0060600D03*
X0046750Y0060500D03*
X0046750Y0059400D03*
X0049150Y0059200D03*
X0049250Y0059300D03*
X0049250Y0059400D03*
X0049250Y0060500D03*
X0049250Y0060600D03*
X0049250Y0060700D03*
X0051950Y0062400D03*
X0053150Y0061200D03*
X0054350Y0062300D03*
X0054350Y0062400D03*
X0051950Y0063700D03*
X0050650Y0085500D03*
D43*
X0055550Y0085600D03*
X0055550Y0085700D03*
X0055550Y0085800D03*
X0055550Y0085900D03*
X0049450Y0078500D03*
X0049450Y0078400D03*
D44*
X0049250Y0086600D03*
D45*
X0049550Y0086700D03*
X0045050Y0069800D03*
X0052950Y0064500D03*
X0052950Y0064400D03*
X0053150Y0061900D03*
D46*
X0049500Y0073200D03*
X0049500Y0078600D03*
X0055600Y0086900D03*
X0055600Y0087000D03*
X0055600Y0087100D03*
X0055600Y0087200D03*
D47*
X0061350Y0087200D03*
X0061350Y0087300D03*
X0061350Y0087400D03*
X0061350Y0087100D03*
X0049450Y0077900D03*
X0049450Y0073900D03*
D48*
X0038600Y0070300D02*
X0018600Y0070300D01*
X0018600Y0080300D01*
X0038600Y0080300D01*
X0038600Y0070300D01*
X0033100Y0057500D02*
X0033100Y0051500D01*
X0021100Y0051500D01*
X0021100Y0057500D01*
X0033100Y0057500D01*
X0030200Y0042700D02*
X0030200Y0022700D01*
X0030200Y0020200D01*
X0040200Y0020200D01*
X0040200Y0022700D01*
X0060200Y0022700D01*
X0060200Y0020200D01*
X0070200Y0020200D01*
X0070200Y0022700D01*
X0060200Y0022700D01*
X0070200Y0022700D02*
X0070200Y0042700D01*
X0030200Y0042700D01*
X0030200Y0022700D02*
X0040200Y0022700D01*
D49*
X0059201Y0058302D02*
X0059201Y0072498D01*
X0077799Y0072498D02*
X0077799Y0058302D01*
D50*
X0060835Y0061500D02*
X0060837Y0061547D01*
X0060843Y0061594D01*
X0060853Y0061641D01*
X0060866Y0061686D01*
X0060884Y0061730D01*
X0060905Y0061772D01*
X0060929Y0061813D01*
X0060957Y0061851D01*
X0060988Y0061887D01*
X0061022Y0061920D01*
X0061058Y0061950D01*
X0061097Y0061977D01*
X0061138Y0062001D01*
X0061181Y0062021D01*
X0061225Y0062037D01*
X0061271Y0062050D01*
X0061317Y0062059D01*
X0061365Y0062064D01*
X0061412Y0062065D01*
X0061459Y0062062D01*
X0061506Y0062055D01*
X0061552Y0062044D01*
X0061597Y0062030D01*
X0061641Y0062011D01*
X0061682Y0061989D01*
X0061722Y0061964D01*
X0061760Y0061935D01*
X0061795Y0061904D01*
X0061828Y0061869D01*
X0061857Y0061832D01*
X0061883Y0061793D01*
X0061906Y0061751D01*
X0061925Y0061708D01*
X0061941Y0061663D01*
X0061953Y0061617D01*
X0061961Y0061571D01*
X0061965Y0061524D01*
X0061965Y0061476D01*
X0061961Y0061429D01*
X0061953Y0061383D01*
X0061941Y0061337D01*
X0061925Y0061292D01*
X0061906Y0061249D01*
X0061883Y0061207D01*
X0061857Y0061168D01*
X0061828Y0061131D01*
X0061795Y0061096D01*
X0061760Y0061065D01*
X0061722Y0061036D01*
X0061683Y0061011D01*
X0061641Y0060989D01*
X0061597Y0060970D01*
X0061552Y0060956D01*
X0061506Y0060945D01*
X0061459Y0060938D01*
X0061412Y0060935D01*
X0061365Y0060936D01*
X0061317Y0060941D01*
X0061271Y0060950D01*
X0061225Y0060963D01*
X0061181Y0060979D01*
X0061138Y0060999D01*
X0061097Y0061023D01*
X0061058Y0061050D01*
X0061022Y0061080D01*
X0060988Y0061113D01*
X0060957Y0061149D01*
X0060929Y0061187D01*
X0060905Y0061228D01*
X0060884Y0061270D01*
X0060866Y0061314D01*
X0060853Y0061359D01*
X0060843Y0061406D01*
X0060837Y0061453D01*
X0060835Y0061500D01*
D51*
X0030015Y0014330D02*
X0013480Y0014330D01*
X0013370Y0014332D01*
X0013260Y0014338D01*
X0013151Y0014347D01*
X0013042Y0014361D01*
X0012933Y0014378D01*
X0012825Y0014399D01*
X0012718Y0014424D01*
X0012612Y0014452D01*
X0012507Y0014484D01*
X0012403Y0014520D01*
X0012300Y0014559D01*
X0012199Y0014602D01*
X0012099Y0014649D01*
X0012001Y0014699D01*
X0011905Y0014752D01*
X0011811Y0014809D01*
X0011719Y0014869D01*
X0011628Y0014932D01*
X0011541Y0014998D01*
X0011455Y0015067D01*
X0011372Y0015139D01*
X0011292Y0015214D01*
X0011214Y0015292D01*
X0011139Y0015372D01*
X0011067Y0015455D01*
X0010998Y0015541D01*
X0010932Y0015628D01*
X0010869Y0015719D01*
X0010809Y0015811D01*
X0010752Y0015905D01*
X0010699Y0016001D01*
X0010649Y0016099D01*
X0010602Y0016199D01*
X0010559Y0016300D01*
X0010520Y0016403D01*
X0010484Y0016507D01*
X0010452Y0016612D01*
X0010424Y0016718D01*
X0010399Y0016825D01*
X0010378Y0016933D01*
X0010361Y0017042D01*
X0010347Y0017151D01*
X0010338Y0017260D01*
X0010332Y0017370D01*
X0010330Y0017480D01*
X0010330Y0030865D01*
X0010330Y0041889D01*
X0010330Y0045039D01*
X0010332Y0045078D01*
X0010338Y0045116D01*
X0010347Y0045153D01*
X0010360Y0045190D01*
X0010377Y0045225D01*
X0010396Y0045258D01*
X0010419Y0045289D01*
X0010445Y0045318D01*
X0010474Y0045344D01*
X0010505Y0045367D01*
X0010538Y0045386D01*
X0010573Y0045403D01*
X0010610Y0045416D01*
X0010647Y0045425D01*
X0010685Y0045431D01*
X0010724Y0045433D01*
X0010330Y0041889D02*
X0010330Y0041102D01*
X0010330Y0034802D02*
X0010330Y0030865D01*
X0030015Y0014330D02*
X0037495Y0014330D01*
X0037102Y0014330D01*
X0037495Y0014330D02*
X0041039Y0014330D01*
X0041078Y0014328D01*
X0041116Y0014322D01*
X0041153Y0014313D01*
X0041190Y0014300D01*
X0041225Y0014283D01*
X0041258Y0014264D01*
X0041289Y0014241D01*
X0041318Y0014215D01*
X0041344Y0014186D01*
X0041367Y0014155D01*
X0041386Y0014122D01*
X0041403Y0014087D01*
X0041416Y0014050D01*
X0041425Y0014013D01*
X0041431Y0013975D01*
X0041433Y0013936D01*
X0041432Y0013936D02*
X0041434Y0013746D01*
X0041441Y0013556D01*
X0041453Y0013366D01*
X0041469Y0013176D01*
X0041489Y0012987D01*
X0041515Y0012798D01*
X0041544Y0012610D01*
X0041579Y0012423D01*
X0041618Y0012237D01*
X0041661Y0012052D01*
X0041709Y0011867D01*
X0041761Y0011684D01*
X0041817Y0011503D01*
X0041878Y0011323D01*
X0041944Y0011144D01*
X0042013Y0010967D01*
X0042087Y0010791D01*
X0042165Y0010618D01*
X0042248Y0010446D01*
X0042334Y0010277D01*
X0042424Y0010109D01*
X0042519Y0009944D01*
X0042617Y0009781D01*
X0042720Y0009621D01*
X0042826Y0009463D01*
X0042936Y0009308D01*
X0043049Y0009155D01*
X0043167Y0009005D01*
X0043288Y0008859D01*
X0043412Y0008715D01*
X0043540Y0008574D01*
X0043671Y0008436D01*
X0043806Y0008301D01*
X0043944Y0008170D01*
X0044085Y0008042D01*
X0044229Y0007918D01*
X0044375Y0007797D01*
X0044525Y0007679D01*
X0044678Y0007566D01*
X0044833Y0007456D01*
X0044991Y0007350D01*
X0045151Y0007247D01*
X0045314Y0007149D01*
X0045479Y0007054D01*
X0045647Y0006964D01*
X0045816Y0006878D01*
X0045988Y0006795D01*
X0046161Y0006717D01*
X0046337Y0006643D01*
X0046514Y0006574D01*
X0046693Y0006508D01*
X0046873Y0006447D01*
X0047054Y0006391D01*
X0047237Y0006339D01*
X0047422Y0006291D01*
X0047607Y0006248D01*
X0047793Y0006209D01*
X0047980Y0006174D01*
X0048168Y0006145D01*
X0048357Y0006119D01*
X0048546Y0006099D01*
X0048736Y0006083D01*
X0048926Y0006071D01*
X0049116Y0006064D01*
X0049306Y0006062D01*
X0049700Y0006062D01*
X0050094Y0006062D01*
X0050284Y0006064D01*
X0050474Y0006071D01*
X0050664Y0006083D01*
X0050854Y0006099D01*
X0051043Y0006119D01*
X0051232Y0006145D01*
X0051420Y0006174D01*
X0051607Y0006209D01*
X0051793Y0006248D01*
X0051978Y0006291D01*
X0052163Y0006339D01*
X0052346Y0006391D01*
X0052527Y0006447D01*
X0052707Y0006508D01*
X0052886Y0006574D01*
X0053063Y0006643D01*
X0053239Y0006717D01*
X0053412Y0006795D01*
X0053584Y0006878D01*
X0053753Y0006964D01*
X0053921Y0007054D01*
X0054086Y0007149D01*
X0054249Y0007247D01*
X0054409Y0007350D01*
X0054567Y0007456D01*
X0054722Y0007566D01*
X0054875Y0007679D01*
X0055025Y0007797D01*
X0055171Y0007918D01*
X0055315Y0008042D01*
X0055456Y0008170D01*
X0055594Y0008301D01*
X0055729Y0008436D01*
X0055860Y0008574D01*
X0055988Y0008715D01*
X0056112Y0008859D01*
X0056233Y0009005D01*
X0056351Y0009155D01*
X0056464Y0009308D01*
X0056574Y0009463D01*
X0056680Y0009621D01*
X0056783Y0009781D01*
X0056881Y0009944D01*
X0056976Y0010109D01*
X0057066Y0010277D01*
X0057152Y0010446D01*
X0057235Y0010618D01*
X0057313Y0010791D01*
X0057387Y0010967D01*
X0057456Y0011144D01*
X0057522Y0011323D01*
X0057583Y0011503D01*
X0057639Y0011684D01*
X0057691Y0011867D01*
X0057739Y0012052D01*
X0057782Y0012237D01*
X0057821Y0012423D01*
X0057856Y0012610D01*
X0057885Y0012798D01*
X0057911Y0012987D01*
X0057931Y0013176D01*
X0057947Y0013366D01*
X0057959Y0013556D01*
X0057966Y0013746D01*
X0057968Y0013936D01*
X0057974Y0013976D01*
X0057983Y0014015D01*
X0057996Y0014053D01*
X0058012Y0014090D01*
X0058032Y0014125D01*
X0058055Y0014158D01*
X0058080Y0014189D01*
X0058109Y0014218D01*
X0058140Y0014243D01*
X0058173Y0014266D01*
X0058208Y0014286D01*
X0058245Y0014302D01*
X0058283Y0014315D01*
X0058322Y0014324D01*
X0058362Y0014330D01*
X0058361Y0014330D02*
X0059543Y0014330D01*
X0061511Y0014330D01*
X0070172Y0014330D01*
X0085920Y0014330D01*
X0086030Y0014332D01*
X0086140Y0014338D01*
X0086249Y0014347D01*
X0086358Y0014361D01*
X0086467Y0014378D01*
X0086575Y0014399D01*
X0086682Y0014424D01*
X0086788Y0014452D01*
X0086893Y0014484D01*
X0086997Y0014520D01*
X0087100Y0014559D01*
X0087201Y0014602D01*
X0087301Y0014649D01*
X0087399Y0014699D01*
X0087495Y0014752D01*
X0087589Y0014809D01*
X0087681Y0014869D01*
X0087772Y0014932D01*
X0087859Y0014998D01*
X0087945Y0015067D01*
X0088028Y0015139D01*
X0088108Y0015214D01*
X0088186Y0015292D01*
X0088261Y0015372D01*
X0088333Y0015455D01*
X0088402Y0015541D01*
X0088468Y0015628D01*
X0088531Y0015719D01*
X0088591Y0015811D01*
X0088648Y0015905D01*
X0088701Y0016001D01*
X0088751Y0016099D01*
X0088798Y0016199D01*
X0088841Y0016300D01*
X0088880Y0016403D01*
X0088916Y0016507D01*
X0088948Y0016612D01*
X0088976Y0016718D01*
X0089001Y0016825D01*
X0089022Y0016933D01*
X0089039Y0017042D01*
X0089053Y0017151D01*
X0089062Y0017260D01*
X0089068Y0017370D01*
X0089070Y0017480D01*
X0089070Y0032440D01*
X0089070Y0041102D01*
X0089070Y0044251D01*
X0089070Y0045039D01*
X0089070Y0044251D01*
X0089070Y0045039D02*
X0089064Y0045079D01*
X0089055Y0045118D01*
X0089042Y0045156D01*
X0089026Y0045193D01*
X0089006Y0045228D01*
X0088984Y0045261D01*
X0088958Y0045292D01*
X0088929Y0045321D01*
X0088898Y0045347D01*
X0088865Y0045369D01*
X0088830Y0045389D01*
X0088793Y0045405D01*
X0088755Y0045418D01*
X0088716Y0045427D01*
X0088676Y0045433D01*
X0088676Y0045432D02*
X0088486Y0045434D01*
X0088296Y0045441D01*
X0088106Y0045453D01*
X0087916Y0045469D01*
X0087727Y0045489D01*
X0087538Y0045515D01*
X0087350Y0045544D01*
X0087163Y0045579D01*
X0086977Y0045618D01*
X0086792Y0045661D01*
X0086607Y0045709D01*
X0086424Y0045761D01*
X0086243Y0045817D01*
X0086063Y0045878D01*
X0085884Y0045944D01*
X0085707Y0046013D01*
X0085531Y0046087D01*
X0085358Y0046165D01*
X0085186Y0046248D01*
X0085017Y0046334D01*
X0084849Y0046424D01*
X0084684Y0046519D01*
X0084521Y0046617D01*
X0084361Y0046720D01*
X0084203Y0046826D01*
X0084048Y0046936D01*
X0083895Y0047049D01*
X0083745Y0047167D01*
X0083599Y0047288D01*
X0083455Y0047412D01*
X0083314Y0047540D01*
X0083176Y0047671D01*
X0083041Y0047806D01*
X0082910Y0047944D01*
X0082782Y0048085D01*
X0082658Y0048229D01*
X0082537Y0048375D01*
X0082419Y0048525D01*
X0082306Y0048678D01*
X0082196Y0048833D01*
X0082090Y0048991D01*
X0081987Y0049151D01*
X0081889Y0049314D01*
X0081794Y0049479D01*
X0081704Y0049647D01*
X0081618Y0049816D01*
X0081535Y0049988D01*
X0081457Y0050161D01*
X0081383Y0050337D01*
X0081314Y0050514D01*
X0081248Y0050693D01*
X0081187Y0050873D01*
X0081131Y0051054D01*
X0081079Y0051237D01*
X0081031Y0051422D01*
X0080988Y0051607D01*
X0080949Y0051793D01*
X0080914Y0051980D01*
X0080885Y0052168D01*
X0080859Y0052357D01*
X0080839Y0052546D01*
X0080823Y0052736D01*
X0080811Y0052926D01*
X0080804Y0053116D01*
X0080802Y0053306D01*
X0080802Y0053700D01*
X0080795Y0053893D01*
X0080793Y0054086D01*
X0080795Y0054280D01*
X0080803Y0054473D01*
X0080815Y0054666D01*
X0080831Y0054859D01*
X0080853Y0055051D01*
X0080879Y0055243D01*
X0080909Y0055434D01*
X0080945Y0055624D01*
X0080985Y0055813D01*
X0081030Y0056001D01*
X0081079Y0056188D01*
X0081133Y0056374D01*
X0081191Y0056559D01*
X0081254Y0056741D01*
X0081322Y0056923D01*
X0081394Y0057102D01*
X0081470Y0057280D01*
X0081551Y0057456D01*
X0081635Y0057630D01*
X0081725Y0057801D01*
X0081818Y0057971D01*
X0081915Y0058138D01*
X0082017Y0058303D01*
X0082122Y0058465D01*
X0082232Y0058624D01*
X0082345Y0058781D01*
X0082462Y0058935D01*
X0082583Y0059086D01*
X0082708Y0059234D01*
X0082836Y0059379D01*
X0082968Y0059521D01*
X0083103Y0059659D01*
X0083241Y0059794D01*
X0083383Y0059926D01*
X0083528Y0060054D01*
X0083676Y0060178D01*
X0083827Y0060299D01*
X0083981Y0060416D01*
X0084138Y0060530D01*
X0084297Y0060639D01*
X0084459Y0060744D01*
X0084624Y0060846D01*
X0084791Y0060943D01*
X0084961Y0061037D01*
X0085132Y0061126D01*
X0085306Y0061210D01*
X0085482Y0061291D01*
X0085660Y0061367D01*
X0085839Y0061439D01*
X0086021Y0061506D01*
X0086204Y0061569D01*
X0086388Y0061628D01*
X0086574Y0061682D01*
X0086761Y0061731D01*
X0086949Y0061776D01*
X0087138Y0061816D01*
X0087329Y0061851D01*
X0087520Y0061882D01*
X0087711Y0061908D01*
X0087903Y0061929D01*
X0088096Y0061946D01*
X0088289Y0061958D01*
X0088483Y0061965D01*
X0088676Y0061967D01*
X0088715Y0061969D01*
X0088753Y0061975D01*
X0088790Y0061984D01*
X0088827Y0061997D01*
X0088862Y0062014D01*
X0088895Y0062033D01*
X0088926Y0062056D01*
X0088955Y0062082D01*
X0088981Y0062111D01*
X0089004Y0062142D01*
X0089023Y0062175D01*
X0089040Y0062210D01*
X0089053Y0062247D01*
X0089062Y0062284D01*
X0089068Y0062322D01*
X0089070Y0062361D01*
X0089070Y0063149D01*
X0089070Y0078897D01*
X0089070Y0072598D01*
X0089070Y0078897D02*
X0089070Y0089920D01*
X0089068Y0090030D01*
X0089062Y0090140D01*
X0089053Y0090249D01*
X0089039Y0090358D01*
X0089022Y0090467D01*
X0089001Y0090575D01*
X0088976Y0090682D01*
X0088948Y0090788D01*
X0088916Y0090893D01*
X0088880Y0090997D01*
X0088841Y0091100D01*
X0088798Y0091201D01*
X0088751Y0091301D01*
X0088701Y0091399D01*
X0088648Y0091495D01*
X0088591Y0091589D01*
X0088531Y0091681D01*
X0088468Y0091772D01*
X0088402Y0091859D01*
X0088333Y0091945D01*
X0088261Y0092028D01*
X0088186Y0092108D01*
X0088108Y0092186D01*
X0088028Y0092261D01*
X0087945Y0092333D01*
X0087859Y0092402D01*
X0087772Y0092468D01*
X0087681Y0092531D01*
X0087589Y0092591D01*
X0087495Y0092648D01*
X0087399Y0092701D01*
X0087301Y0092751D01*
X0087201Y0092798D01*
X0087100Y0092841D01*
X0086997Y0092880D01*
X0086893Y0092916D01*
X0086788Y0092948D01*
X0086682Y0092976D01*
X0086575Y0093001D01*
X0086467Y0093022D01*
X0086358Y0093039D01*
X0086249Y0093053D01*
X0086140Y0093062D01*
X0086030Y0093068D01*
X0085920Y0093070D01*
X0069385Y0093070D01*
X0062298Y0093070D01*
X0059936Y0093070D01*
X0058361Y0093070D01*
X0059936Y0093070D01*
X0058361Y0093070D02*
X0058322Y0093072D01*
X0058284Y0093078D01*
X0058247Y0093087D01*
X0058210Y0093100D01*
X0058175Y0093117D01*
X0058142Y0093136D01*
X0058111Y0093159D01*
X0058082Y0093185D01*
X0058056Y0093214D01*
X0058033Y0093245D01*
X0058014Y0093278D01*
X0057997Y0093313D01*
X0057984Y0093350D01*
X0057975Y0093387D01*
X0057969Y0093425D01*
X0057967Y0093464D01*
X0057968Y0093464D02*
X0057966Y0093654D01*
X0057959Y0093844D01*
X0057947Y0094034D01*
X0057931Y0094224D01*
X0057911Y0094413D01*
X0057885Y0094602D01*
X0057856Y0094790D01*
X0057821Y0094977D01*
X0057782Y0095163D01*
X0057739Y0095348D01*
X0057691Y0095533D01*
X0057639Y0095716D01*
X0057583Y0095897D01*
X0057522Y0096077D01*
X0057456Y0096256D01*
X0057387Y0096433D01*
X0057313Y0096609D01*
X0057235Y0096782D01*
X0057152Y0096954D01*
X0057066Y0097123D01*
X0056976Y0097291D01*
X0056881Y0097456D01*
X0056783Y0097619D01*
X0056680Y0097779D01*
X0056574Y0097937D01*
X0056464Y0098092D01*
X0056351Y0098245D01*
X0056233Y0098395D01*
X0056112Y0098541D01*
X0055988Y0098685D01*
X0055860Y0098826D01*
X0055729Y0098964D01*
X0055594Y0099099D01*
X0055456Y0099230D01*
X0055315Y0099358D01*
X0055171Y0099482D01*
X0055025Y0099603D01*
X0054875Y0099721D01*
X0054722Y0099834D01*
X0054567Y0099944D01*
X0054409Y0100050D01*
X0054249Y0100153D01*
X0054086Y0100251D01*
X0053921Y0100346D01*
X0053753Y0100436D01*
X0053584Y0100522D01*
X0053412Y0100605D01*
X0053239Y0100683D01*
X0053063Y0100757D01*
X0052886Y0100826D01*
X0052707Y0100892D01*
X0052527Y0100953D01*
X0052346Y0101009D01*
X0052163Y0101061D01*
X0051978Y0101109D01*
X0051793Y0101152D01*
X0051607Y0101191D01*
X0051420Y0101226D01*
X0051232Y0101255D01*
X0051043Y0101281D01*
X0050854Y0101301D01*
X0050664Y0101317D01*
X0050474Y0101329D01*
X0050284Y0101336D01*
X0050094Y0101338D01*
X0049306Y0101338D01*
X0049116Y0101336D01*
X0048926Y0101329D01*
X0048736Y0101317D01*
X0048546Y0101301D01*
X0048357Y0101281D01*
X0048168Y0101255D01*
X0047980Y0101226D01*
X0047793Y0101191D01*
X0047607Y0101152D01*
X0047422Y0101109D01*
X0047237Y0101061D01*
X0047054Y0101009D01*
X0046873Y0100953D01*
X0046693Y0100892D01*
X0046514Y0100826D01*
X0046337Y0100757D01*
X0046161Y0100683D01*
X0045988Y0100605D01*
X0045816Y0100522D01*
X0045647Y0100436D01*
X0045479Y0100346D01*
X0045314Y0100251D01*
X0045151Y0100153D01*
X0044991Y0100050D01*
X0044833Y0099944D01*
X0044678Y0099834D01*
X0044525Y0099721D01*
X0044375Y0099603D01*
X0044229Y0099482D01*
X0044085Y0099358D01*
X0043944Y0099230D01*
X0043806Y0099099D01*
X0043671Y0098964D01*
X0043540Y0098826D01*
X0043412Y0098685D01*
X0043288Y0098541D01*
X0043167Y0098395D01*
X0043049Y0098245D01*
X0042936Y0098092D01*
X0042826Y0097937D01*
X0042720Y0097779D01*
X0042617Y0097619D01*
X0042519Y0097456D01*
X0042424Y0097291D01*
X0042334Y0097123D01*
X0042248Y0096954D01*
X0042165Y0096782D01*
X0042087Y0096609D01*
X0042013Y0096433D01*
X0041944Y0096256D01*
X0041878Y0096077D01*
X0041817Y0095897D01*
X0041761Y0095716D01*
X0041709Y0095533D01*
X0041661Y0095348D01*
X0041618Y0095163D01*
X0041579Y0094977D01*
X0041544Y0094790D01*
X0041515Y0094602D01*
X0041489Y0094413D01*
X0041469Y0094224D01*
X0041453Y0094034D01*
X0041441Y0093844D01*
X0041434Y0093654D01*
X0041432Y0093464D01*
X0041433Y0093464D02*
X0041431Y0093425D01*
X0041425Y0093387D01*
X0041416Y0093350D01*
X0041403Y0093313D01*
X0041386Y0093278D01*
X0041367Y0093245D01*
X0041344Y0093214D01*
X0041318Y0093185D01*
X0041289Y0093159D01*
X0041258Y0093136D01*
X0041225Y0093117D01*
X0041190Y0093100D01*
X0041153Y0093087D01*
X0041116Y0093078D01*
X0041078Y0093072D01*
X0041039Y0093070D01*
X0037889Y0093070D01*
X0030802Y0093070D01*
X0013480Y0093070D01*
X0013370Y0093068D01*
X0013260Y0093062D01*
X0013151Y0093053D01*
X0013042Y0093039D01*
X0012933Y0093022D01*
X0012825Y0093001D01*
X0012718Y0092976D01*
X0012612Y0092948D01*
X0012507Y0092916D01*
X0012403Y0092880D01*
X0012300Y0092841D01*
X0012199Y0092798D01*
X0012099Y0092751D01*
X0012001Y0092701D01*
X0011905Y0092648D01*
X0011811Y0092591D01*
X0011719Y0092531D01*
X0011628Y0092468D01*
X0011541Y0092402D01*
X0011455Y0092333D01*
X0011372Y0092261D01*
X0011292Y0092186D01*
X0011214Y0092108D01*
X0011139Y0092028D01*
X0011067Y0091945D01*
X0010998Y0091859D01*
X0010932Y0091772D01*
X0010869Y0091681D01*
X0010809Y0091589D01*
X0010752Y0091495D01*
X0010699Y0091399D01*
X0010649Y0091301D01*
X0010602Y0091201D01*
X0010559Y0091100D01*
X0010520Y0090997D01*
X0010484Y0090893D01*
X0010452Y0090788D01*
X0010424Y0090682D01*
X0010399Y0090575D01*
X0010378Y0090467D01*
X0010361Y0090358D01*
X0010347Y0090249D01*
X0010338Y0090140D01*
X0010332Y0090030D01*
X0010330Y0089920D01*
X0010330Y0072598D01*
X0010330Y0065117D01*
X0010330Y0066298D01*
X0010330Y0065117D02*
X0010330Y0062361D01*
X0010332Y0062322D01*
X0010338Y0062284D01*
X0010347Y0062247D01*
X0010360Y0062210D01*
X0010377Y0062175D01*
X0010396Y0062142D01*
X0010419Y0062111D01*
X0010445Y0062082D01*
X0010474Y0062056D01*
X0010505Y0062033D01*
X0010538Y0062014D01*
X0010573Y0061997D01*
X0010610Y0061984D01*
X0010647Y0061975D01*
X0010685Y0061969D01*
X0010724Y0061967D01*
X0010724Y0061968D02*
X0010914Y0061966D01*
X0011104Y0061959D01*
X0011294Y0061947D01*
X0011484Y0061931D01*
X0011673Y0061911D01*
X0011862Y0061885D01*
X0012050Y0061856D01*
X0012237Y0061821D01*
X0012423Y0061782D01*
X0012608Y0061739D01*
X0012793Y0061691D01*
X0012976Y0061639D01*
X0013157Y0061583D01*
X0013337Y0061522D01*
X0013516Y0061456D01*
X0013693Y0061387D01*
X0013869Y0061313D01*
X0014042Y0061235D01*
X0014214Y0061152D01*
X0014383Y0061066D01*
X0014551Y0060976D01*
X0014716Y0060881D01*
X0014879Y0060783D01*
X0015039Y0060680D01*
X0015197Y0060574D01*
X0015352Y0060464D01*
X0015505Y0060351D01*
X0015655Y0060233D01*
X0015801Y0060112D01*
X0015945Y0059988D01*
X0016086Y0059860D01*
X0016224Y0059729D01*
X0016359Y0059594D01*
X0016490Y0059456D01*
X0016618Y0059315D01*
X0016742Y0059171D01*
X0016863Y0059025D01*
X0016981Y0058875D01*
X0017094Y0058722D01*
X0017204Y0058567D01*
X0017310Y0058409D01*
X0017413Y0058249D01*
X0017511Y0058086D01*
X0017606Y0057921D01*
X0017696Y0057753D01*
X0017782Y0057584D01*
X0017865Y0057412D01*
X0017943Y0057239D01*
X0018017Y0057063D01*
X0018086Y0056886D01*
X0018152Y0056707D01*
X0018213Y0056527D01*
X0018269Y0056346D01*
X0018321Y0056163D01*
X0018369Y0055978D01*
X0018412Y0055793D01*
X0018451Y0055607D01*
X0018486Y0055420D01*
X0018515Y0055232D01*
X0018541Y0055043D01*
X0018561Y0054854D01*
X0018577Y0054664D01*
X0018589Y0054474D01*
X0018596Y0054284D01*
X0018598Y0054094D01*
X0018598Y0053700D01*
X0018598Y0053306D01*
X0018596Y0053116D01*
X0018589Y0052926D01*
X0018577Y0052736D01*
X0018561Y0052546D01*
X0018541Y0052357D01*
X0018515Y0052168D01*
X0018486Y0051980D01*
X0018451Y0051793D01*
X0018412Y0051607D01*
X0018369Y0051422D01*
X0018321Y0051237D01*
X0018269Y0051054D01*
X0018213Y0050873D01*
X0018152Y0050693D01*
X0018086Y0050514D01*
X0018017Y0050337D01*
X0017943Y0050161D01*
X0017865Y0049988D01*
X0017782Y0049816D01*
X0017696Y0049647D01*
X0017606Y0049479D01*
X0017511Y0049314D01*
X0017413Y0049151D01*
X0017310Y0048991D01*
X0017204Y0048833D01*
X0017094Y0048678D01*
X0016981Y0048525D01*
X0016863Y0048375D01*
X0016742Y0048229D01*
X0016618Y0048085D01*
X0016490Y0047944D01*
X0016359Y0047806D01*
X0016224Y0047671D01*
X0016086Y0047540D01*
X0015945Y0047412D01*
X0015801Y0047288D01*
X0015655Y0047167D01*
X0015505Y0047049D01*
X0015352Y0046936D01*
X0015197Y0046826D01*
X0015039Y0046720D01*
X0014879Y0046617D01*
X0014716Y0046519D01*
X0014551Y0046424D01*
X0014383Y0046334D01*
X0014214Y0046248D01*
X0014042Y0046165D01*
X0013869Y0046087D01*
X0013693Y0046013D01*
X0013516Y0045944D01*
X0013337Y0045878D01*
X0013157Y0045817D01*
X0012976Y0045761D01*
X0012793Y0045709D01*
X0012608Y0045661D01*
X0012423Y0045618D01*
X0012237Y0045579D01*
X0012050Y0045544D01*
X0011862Y0045515D01*
X0011673Y0045489D01*
X0011484Y0045469D01*
X0011294Y0045453D01*
X0011104Y0045441D01*
X0010914Y0045434D01*
X0010724Y0045432D01*
X0030015Y0014330D02*
X0030802Y0014330D01*
X0045369Y0014330D02*
X0045371Y0014461D01*
X0045377Y0014593D01*
X0045387Y0014724D01*
X0045401Y0014855D01*
X0045419Y0014985D01*
X0045441Y0015114D01*
X0045466Y0015243D01*
X0045496Y0015371D01*
X0045530Y0015498D01*
X0045567Y0015625D01*
X0045608Y0015749D01*
X0045653Y0015873D01*
X0045702Y0015995D01*
X0045754Y0016116D01*
X0045810Y0016234D01*
X0045870Y0016352D01*
X0045933Y0016467D01*
X0046000Y0016580D01*
X0046070Y0016692D01*
X0046143Y0016801D01*
X0046219Y0016907D01*
X0046299Y0017012D01*
X0046382Y0017114D01*
X0046468Y0017213D01*
X0046557Y0017310D01*
X0046649Y0017404D01*
X0046744Y0017495D01*
X0046841Y0017584D01*
X0046941Y0017669D01*
X0047044Y0017751D01*
X0047149Y0017830D01*
X0047256Y0017906D01*
X0047366Y0017978D01*
X0047478Y0018047D01*
X0047592Y0018113D01*
X0047707Y0018175D01*
X0047825Y0018234D01*
X0047944Y0018289D01*
X0048065Y0018341D01*
X0048188Y0018388D01*
X0048312Y0018432D01*
X0048437Y0018473D01*
X0048563Y0018509D01*
X0048691Y0018542D01*
X0048819Y0018570D01*
X0048948Y0018595D01*
X0049078Y0018616D01*
X0049208Y0018633D01*
X0049339Y0018646D01*
X0049470Y0018655D01*
X0049601Y0018660D01*
X0049733Y0018661D01*
X0049864Y0018658D01*
X0049996Y0018651D01*
X0050127Y0018640D01*
X0050257Y0018625D01*
X0050387Y0018606D01*
X0050517Y0018583D01*
X0050645Y0018557D01*
X0050773Y0018526D01*
X0050900Y0018491D01*
X0051026Y0018453D01*
X0051150Y0018411D01*
X0051274Y0018365D01*
X0051395Y0018315D01*
X0051515Y0018262D01*
X0051634Y0018205D01*
X0051751Y0018145D01*
X0051865Y0018081D01*
X0051978Y0018013D01*
X0052089Y0017942D01*
X0052198Y0017868D01*
X0052304Y0017791D01*
X0052408Y0017710D01*
X0052509Y0017627D01*
X0052608Y0017540D01*
X0052704Y0017450D01*
X0052797Y0017357D01*
X0052888Y0017262D01*
X0052975Y0017164D01*
X0053060Y0017063D01*
X0053141Y0016960D01*
X0053219Y0016854D01*
X0053294Y0016746D01*
X0053366Y0016636D01*
X0053434Y0016524D01*
X0053499Y0016410D01*
X0053560Y0016293D01*
X0053618Y0016175D01*
X0053672Y0016055D01*
X0053723Y0015934D01*
X0053770Y0015811D01*
X0053813Y0015687D01*
X0053852Y0015562D01*
X0053888Y0015435D01*
X0053919Y0015307D01*
X0053947Y0015179D01*
X0053971Y0015050D01*
X0053991Y0014920D01*
X0054007Y0014789D01*
X0054019Y0014658D01*
X0054027Y0014527D01*
X0054031Y0014396D01*
X0054031Y0014264D01*
X0054027Y0014133D01*
X0054019Y0014002D01*
X0054007Y0013871D01*
X0053991Y0013740D01*
X0053971Y0013610D01*
X0053947Y0013481D01*
X0053919Y0013353D01*
X0053888Y0013225D01*
X0053852Y0013098D01*
X0053813Y0012973D01*
X0053770Y0012849D01*
X0053723Y0012726D01*
X0053672Y0012605D01*
X0053618Y0012485D01*
X0053560Y0012367D01*
X0053499Y0012250D01*
X0053434Y0012136D01*
X0053366Y0012024D01*
X0053294Y0011914D01*
X0053219Y0011806D01*
X0053141Y0011700D01*
X0053060Y0011597D01*
X0052975Y0011496D01*
X0052888Y0011398D01*
X0052797Y0011303D01*
X0052704Y0011210D01*
X0052608Y0011120D01*
X0052509Y0011033D01*
X0052408Y0010950D01*
X0052304Y0010869D01*
X0052198Y0010792D01*
X0052089Y0010718D01*
X0051978Y0010647D01*
X0051866Y0010579D01*
X0051751Y0010515D01*
X0051634Y0010455D01*
X0051515Y0010398D01*
X0051395Y0010345D01*
X0051274Y0010295D01*
X0051150Y0010249D01*
X0051026Y0010207D01*
X0050900Y0010169D01*
X0050773Y0010134D01*
X0050645Y0010103D01*
X0050517Y0010077D01*
X0050387Y0010054D01*
X0050257Y0010035D01*
X0050127Y0010020D01*
X0049996Y0010009D01*
X0049864Y0010002D01*
X0049733Y0009999D01*
X0049601Y0010000D01*
X0049470Y0010005D01*
X0049339Y0010014D01*
X0049208Y0010027D01*
X0049078Y0010044D01*
X0048948Y0010065D01*
X0048819Y0010090D01*
X0048691Y0010118D01*
X0048563Y0010151D01*
X0048437Y0010187D01*
X0048312Y0010228D01*
X0048188Y0010272D01*
X0048065Y0010319D01*
X0047944Y0010371D01*
X0047825Y0010426D01*
X0047707Y0010485D01*
X0047592Y0010547D01*
X0047478Y0010613D01*
X0047366Y0010682D01*
X0047256Y0010754D01*
X0047149Y0010830D01*
X0047044Y0010909D01*
X0046941Y0010991D01*
X0046841Y0011076D01*
X0046744Y0011165D01*
X0046649Y0011256D01*
X0046557Y0011350D01*
X0046468Y0011447D01*
X0046382Y0011546D01*
X0046299Y0011648D01*
X0046219Y0011753D01*
X0046143Y0011859D01*
X0046070Y0011968D01*
X0046000Y0012080D01*
X0045933Y0012193D01*
X0045870Y0012308D01*
X0045810Y0012426D01*
X0045754Y0012544D01*
X0045702Y0012665D01*
X0045653Y0012787D01*
X0045608Y0012911D01*
X0045567Y0013035D01*
X0045530Y0013162D01*
X0045496Y0013289D01*
X0045466Y0013417D01*
X0045441Y0013546D01*
X0045419Y0013675D01*
X0045401Y0013805D01*
X0045387Y0013936D01*
X0045377Y0014067D01*
X0045371Y0014199D01*
X0045369Y0014330D01*
X0058361Y0014330D02*
X0059543Y0014330D01*
X0061511Y0014330D02*
X0062298Y0014330D01*
X0068598Y0014330D02*
X0070172Y0014330D01*
X0089070Y0032440D02*
X0089070Y0034802D01*
X0089070Y0063149D02*
X0089070Y0066298D01*
X0069385Y0093070D02*
X0068598Y0093070D01*
X0045369Y0093070D02*
X0045371Y0093201D01*
X0045377Y0093333D01*
X0045387Y0093464D01*
X0045401Y0093595D01*
X0045419Y0093725D01*
X0045441Y0093854D01*
X0045466Y0093983D01*
X0045496Y0094111D01*
X0045530Y0094238D01*
X0045567Y0094365D01*
X0045608Y0094489D01*
X0045653Y0094613D01*
X0045702Y0094735D01*
X0045754Y0094856D01*
X0045810Y0094974D01*
X0045870Y0095092D01*
X0045933Y0095207D01*
X0046000Y0095320D01*
X0046070Y0095432D01*
X0046143Y0095541D01*
X0046219Y0095647D01*
X0046299Y0095752D01*
X0046382Y0095854D01*
X0046468Y0095953D01*
X0046557Y0096050D01*
X0046649Y0096144D01*
X0046744Y0096235D01*
X0046841Y0096324D01*
X0046941Y0096409D01*
X0047044Y0096491D01*
X0047149Y0096570D01*
X0047256Y0096646D01*
X0047366Y0096718D01*
X0047478Y0096787D01*
X0047592Y0096853D01*
X0047707Y0096915D01*
X0047825Y0096974D01*
X0047944Y0097029D01*
X0048065Y0097081D01*
X0048188Y0097128D01*
X0048312Y0097172D01*
X0048437Y0097213D01*
X0048563Y0097249D01*
X0048691Y0097282D01*
X0048819Y0097310D01*
X0048948Y0097335D01*
X0049078Y0097356D01*
X0049208Y0097373D01*
X0049339Y0097386D01*
X0049470Y0097395D01*
X0049601Y0097400D01*
X0049733Y0097401D01*
X0049864Y0097398D01*
X0049996Y0097391D01*
X0050127Y0097380D01*
X0050257Y0097365D01*
X0050387Y0097346D01*
X0050517Y0097323D01*
X0050645Y0097297D01*
X0050773Y0097266D01*
X0050900Y0097231D01*
X0051026Y0097193D01*
X0051150Y0097151D01*
X0051274Y0097105D01*
X0051395Y0097055D01*
X0051515Y0097002D01*
X0051634Y0096945D01*
X0051751Y0096885D01*
X0051865Y0096821D01*
X0051978Y0096753D01*
X0052089Y0096682D01*
X0052198Y0096608D01*
X0052304Y0096531D01*
X0052408Y0096450D01*
X0052509Y0096367D01*
X0052608Y0096280D01*
X0052704Y0096190D01*
X0052797Y0096097D01*
X0052888Y0096002D01*
X0052975Y0095904D01*
X0053060Y0095803D01*
X0053141Y0095700D01*
X0053219Y0095594D01*
X0053294Y0095486D01*
X0053366Y0095376D01*
X0053434Y0095264D01*
X0053499Y0095150D01*
X0053560Y0095033D01*
X0053618Y0094915D01*
X0053672Y0094795D01*
X0053723Y0094674D01*
X0053770Y0094551D01*
X0053813Y0094427D01*
X0053852Y0094302D01*
X0053888Y0094175D01*
X0053919Y0094047D01*
X0053947Y0093919D01*
X0053971Y0093790D01*
X0053991Y0093660D01*
X0054007Y0093529D01*
X0054019Y0093398D01*
X0054027Y0093267D01*
X0054031Y0093136D01*
X0054031Y0093004D01*
X0054027Y0092873D01*
X0054019Y0092742D01*
X0054007Y0092611D01*
X0053991Y0092480D01*
X0053971Y0092350D01*
X0053947Y0092221D01*
X0053919Y0092093D01*
X0053888Y0091965D01*
X0053852Y0091838D01*
X0053813Y0091713D01*
X0053770Y0091589D01*
X0053723Y0091466D01*
X0053672Y0091345D01*
X0053618Y0091225D01*
X0053560Y0091107D01*
X0053499Y0090990D01*
X0053434Y0090876D01*
X0053366Y0090764D01*
X0053294Y0090654D01*
X0053219Y0090546D01*
X0053141Y0090440D01*
X0053060Y0090337D01*
X0052975Y0090236D01*
X0052888Y0090138D01*
X0052797Y0090043D01*
X0052704Y0089950D01*
X0052608Y0089860D01*
X0052509Y0089773D01*
X0052408Y0089690D01*
X0052304Y0089609D01*
X0052198Y0089532D01*
X0052089Y0089458D01*
X0051978Y0089387D01*
X0051866Y0089319D01*
X0051751Y0089255D01*
X0051634Y0089195D01*
X0051515Y0089138D01*
X0051395Y0089085D01*
X0051274Y0089035D01*
X0051150Y0088989D01*
X0051026Y0088947D01*
X0050900Y0088909D01*
X0050773Y0088874D01*
X0050645Y0088843D01*
X0050517Y0088817D01*
X0050387Y0088794D01*
X0050257Y0088775D01*
X0050127Y0088760D01*
X0049996Y0088749D01*
X0049864Y0088742D01*
X0049733Y0088739D01*
X0049601Y0088740D01*
X0049470Y0088745D01*
X0049339Y0088754D01*
X0049208Y0088767D01*
X0049078Y0088784D01*
X0048948Y0088805D01*
X0048819Y0088830D01*
X0048691Y0088858D01*
X0048563Y0088891D01*
X0048437Y0088927D01*
X0048312Y0088968D01*
X0048188Y0089012D01*
X0048065Y0089059D01*
X0047944Y0089111D01*
X0047825Y0089166D01*
X0047707Y0089225D01*
X0047592Y0089287D01*
X0047478Y0089353D01*
X0047366Y0089422D01*
X0047256Y0089494D01*
X0047149Y0089570D01*
X0047044Y0089649D01*
X0046941Y0089731D01*
X0046841Y0089816D01*
X0046744Y0089905D01*
X0046649Y0089996D01*
X0046557Y0090090D01*
X0046468Y0090187D01*
X0046382Y0090286D01*
X0046299Y0090388D01*
X0046219Y0090493D01*
X0046143Y0090599D01*
X0046070Y0090708D01*
X0046000Y0090820D01*
X0045933Y0090933D01*
X0045870Y0091048D01*
X0045810Y0091166D01*
X0045754Y0091284D01*
X0045702Y0091405D01*
X0045653Y0091527D01*
X0045608Y0091651D01*
X0045567Y0091775D01*
X0045530Y0091902D01*
X0045496Y0092029D01*
X0045466Y0092157D01*
X0045441Y0092286D01*
X0045419Y0092415D01*
X0045401Y0092545D01*
X0045387Y0092676D01*
X0045377Y0092807D01*
X0045371Y0092939D01*
X0045369Y0093070D01*
X0037889Y0093070D02*
X0037102Y0093070D01*
D52*
X0049450Y0078900D03*
X0054850Y0070200D03*
X0054850Y0070100D03*
X0052550Y0064800D03*
X0048050Y0061200D03*
X0048050Y0058800D03*
X0048050Y0058700D03*
X0045050Y0069900D03*
D53*
X0049950Y0065400D03*
X0050250Y0065100D03*
X0050350Y0065000D03*
X0053050Y0064200D03*
X0053150Y0062100D03*
X0054850Y0069900D03*
X0049450Y0078800D03*
D54*
X0049500Y0078700D03*
X0049500Y0073100D03*
D55*
X0049450Y0073600D03*
X0049450Y0078300D03*
D56*
X0049450Y0078200D03*
X0049450Y0073700D03*
D57*
X0049450Y0073800D03*
X0049450Y0078000D03*
X0049450Y0078100D03*
D58*
X0049500Y0077800D03*
X0049500Y0074000D03*
D59*
X0049550Y0074100D03*
X0049550Y0077700D03*
D60*
X0049450Y0077600D03*
X0049450Y0074400D03*
X0049450Y0074300D03*
D61*
X0049500Y0074200D03*
D62*
X0049450Y0073500D03*
D63*
X0049500Y0073400D03*
D64*
X0049500Y0073300D03*
D65*
X0049500Y0072900D03*
X0053000Y0068100D03*
X0054800Y0067500D03*
D66*
X0051200Y0067500D03*
X0053200Y0061700D03*
X0045000Y0067300D03*
X0045000Y0070000D03*
D67*
X0045000Y0069500D03*
X0049900Y0065500D03*
X0050100Y0065200D03*
X0053100Y0064100D03*
D68*
X0052300Y0067800D03*
X0052400Y0067900D03*
D69*
X0049800Y0067700D03*
D70*
X0048050Y0067600D03*
D71*
X0046500Y0067500D03*
D72*
X0049750Y0065600D03*
X0053150Y0064000D03*
D73*
X0075339Y0085480D02*
X0077244Y0085287D01*
X0077449Y0084646D01*
X0077757Y0084048D01*
X0076546Y0082564D01*
X0077564Y0081546D01*
X0079048Y0082757D01*
X0079646Y0082449D01*
X0080494Y0084495D01*
X0080115Y0084707D01*
X0079797Y0085001D01*
X0079555Y0085362D01*
X0079405Y0085769D01*
X0079354Y0086200D01*
X0079407Y0086639D01*
X0079563Y0087052D01*
X0079812Y0087417D01*
X0080141Y0087711D01*
X0080531Y0087920D01*
X0080959Y0088029D01*
X0081401Y0088034D01*
X0081831Y0087934D01*
X0082225Y0087734D01*
X0082560Y0087446D01*
X0082818Y0087087D01*
X0082982Y0086677D01*
X0083045Y0086240D01*
X0083001Y0085800D01*
X0082855Y0085384D01*
X0082614Y0085014D01*
X0082291Y0084712D01*
X0081906Y0084495D01*
X0082754Y0082449D01*
X0083352Y0082757D01*
X0084836Y0081546D01*
X0085854Y0082564D01*
X0084643Y0084048D01*
X0084951Y0084646D01*
X0085156Y0085287D01*
X0087061Y0085480D01*
X0087061Y0086920D01*
X0085156Y0087113D01*
X0084951Y0087754D01*
X0084643Y0088352D01*
X0085854Y0089836D01*
X0084836Y0090854D01*
X0083352Y0089643D01*
X0082754Y0089951D01*
X0082113Y0090156D01*
X0081920Y0092061D01*
X0080480Y0092061D01*
X0080287Y0090156D01*
X0079646Y0089951D01*
X0079048Y0089643D01*
X0077564Y0090854D01*
X0076546Y0089836D01*
X0077757Y0088352D01*
X0077449Y0087754D01*
X0077244Y0087113D01*
X0075339Y0086920D01*
X0075339Y0085480D01*
X0075339Y0085573D02*
X0079477Y0085573D01*
X0079359Y0086163D02*
X0075339Y0086163D01*
X0075339Y0086752D02*
X0079450Y0086752D01*
X0079760Y0087341D02*
X0077316Y0087341D01*
X0077539Y0087930D02*
X0080571Y0087930D01*
X0081839Y0087930D02*
X0084861Y0087930D01*
X0084780Y0088519D02*
X0077620Y0088519D01*
X0077140Y0089108D02*
X0085260Y0089108D01*
X0085740Y0089697D02*
X0083417Y0089697D01*
X0083248Y0089697D02*
X0079152Y0089697D01*
X0078983Y0089697D02*
X0076660Y0089697D01*
X0076997Y0090286D02*
X0078260Y0090286D01*
X0080300Y0090286D02*
X0082100Y0090286D01*
X0082040Y0090875D02*
X0080360Y0090875D01*
X0080420Y0091464D02*
X0081980Y0091464D01*
X0081921Y0092053D02*
X0080479Y0092053D01*
X0084140Y0090286D02*
X0085403Y0090286D01*
X0085084Y0087341D02*
X0082636Y0087341D01*
X0082952Y0086752D02*
X0087061Y0086752D01*
X0087061Y0086163D02*
X0083037Y0086163D01*
X0082922Y0085573D02*
X0087061Y0085573D01*
X0085060Y0084984D02*
X0082582Y0084984D01*
X0081948Y0084395D02*
X0084822Y0084395D01*
X0084841Y0083806D02*
X0082192Y0083806D01*
X0082436Y0083217D02*
X0085321Y0083217D01*
X0085801Y0082628D02*
X0083509Y0082628D01*
X0083102Y0082628D02*
X0082680Y0082628D01*
X0084232Y0082039D02*
X0085328Y0082039D01*
X0080452Y0084395D02*
X0077578Y0084395D01*
X0077559Y0083806D02*
X0080208Y0083806D01*
X0079964Y0083217D02*
X0077079Y0083217D01*
X0076599Y0082628D02*
X0078891Y0082628D01*
X0079298Y0082628D02*
X0079720Y0082628D01*
X0078168Y0082039D02*
X0077072Y0082039D01*
X0077340Y0084984D02*
X0079815Y0084984D01*
M02*
