G75*
%MOIN*%
%OFA0B0*%
%FSLAX24Y24*%
%IPPOS*%
%LPD*%
%AMOC8*
5,1,8,0,0,1.08239X$1,22.5*
%
%ADD10R,0.0010X0.0020*%
%ADD11R,0.0010X0.0010*%
%ADD12R,0.0010X0.0080*%
%ADD13R,0.0010X0.0060*%
%ADD14R,0.0010X0.0030*%
%ADD15R,0.0010X0.0100*%
%ADD16R,0.0010X0.0090*%
%ADD17R,0.0010X0.0050*%
%ADD18R,0.0010X0.0220*%
%ADD19R,0.0010X0.0120*%
%ADD20R,0.0010X0.0070*%
%ADD21R,0.0010X0.0260*%
%ADD22R,0.0010X0.0130*%
%ADD23R,0.0010X0.0160*%
%ADD24R,0.0010X0.0290*%
%ADD25R,0.0010X0.0150*%
%ADD26R,0.0010X0.0310*%
%ADD27R,0.0010X0.0110*%
%ADD28R,0.0010X0.0040*%
%ADD29R,0.0010X0.0170*%
%ADD30R,0.0010X0.0240*%
%ADD31R,0.0010X0.0200*%
%ADD32R,0.0010X0.0140*%
%ADD33R,0.0010X0.0400*%
%ADD34R,0.0010X0.0230*%
%ADD35R,0.0010X0.0180*%
%ADD36R,0.0010X0.0300*%
%ADD37R,0.0010X0.0190*%
%ADD38R,0.0010X0.0380*%
%ADD39C,0.0050*%
%ADD40C,0.0030*%
%ADD41C,0.0000*%
%ADD42C,0.0040*%
%ADD43C,0.0059*%
%ADD44R,0.0002X0.0001*%
%ADD45R,0.0002X0.0001*%
%ADD46R,0.0002X0.0001*%
%ADD47R,0.0002X0.0001*%
%ADD48R,0.0002X0.0001*%
%ADD49R,0.0004X0.0001*%
%ADD50R,0.0003X0.0001*%
%ADD51R,0.0004X0.0001*%
%ADD52R,0.0004X0.0001*%
%ADD53R,0.0005X0.0001*%
%ADD54R,0.0005X0.0001*%
%ADD55R,0.0007X0.0001*%
%ADD56R,0.0007X0.0001*%
%ADD57R,0.0007X0.0001*%
%ADD58R,0.0007X0.0001*%
%ADD59R,0.0008X0.0001*%
%ADD60R,0.0008X0.0001*%
%ADD61R,0.0009X0.0001*%
%ADD62R,0.0010X0.0001*%
%ADD63R,0.0010X0.0001*%
%ADD64R,0.0010X0.0001*%
%ADD65R,0.0010X0.0001*%
%ADD66R,0.0011X0.0001*%
%ADD67R,0.0011X0.0001*%
%ADD68R,0.0013X0.0001*%
%ADD69R,0.0013X0.0001*%
%ADD70R,0.0013X0.0001*%
%ADD71R,0.0013X0.0001*%
%ADD72R,0.0014X0.0001*%
%ADD73R,0.0014X0.0001*%
%ADD74R,0.0015X0.0001*%
%ADD75R,0.0016X0.0001*%
%ADD76R,0.0017X0.0001*%
%ADD77R,0.0018X0.0001*%
%ADD78R,0.0018X0.0001*%
%ADD79R,0.0018X0.0001*%
%ADD80R,0.0018X0.0001*%
%ADD81R,0.0019X0.0001*%
%ADD82R,0.0019X0.0001*%
%ADD83R,0.0019X0.0001*%
%ADD84R,0.0020X0.0001*%
%ADD85R,0.0020X0.0001*%
%ADD86R,0.0020X0.0001*%
%ADD87R,0.0022X0.0001*%
%ADD88R,0.0022X0.0001*%
%ADD89R,0.0022X0.0001*%
%ADD90R,0.0023X0.0001*%
%ADD91R,0.0024X0.0001*%
%ADD92R,0.0024X0.0001*%
%ADD93R,0.0025X0.0001*%
%ADD94R,0.0025X0.0001*%
%ADD95R,0.0025X0.0001*%
%ADD96R,0.0025X0.0001*%
%ADD97R,0.0026X0.0001*%
%ADD98R,0.0026X0.0001*%
%ADD99R,0.0026X0.0001*%
%ADD100R,0.0027X0.0001*%
%ADD101R,0.0027X0.0001*%
%ADD102R,0.0028X0.0001*%
%ADD103R,0.0029X0.0001*%
%ADD104R,0.0028X0.0001*%
%ADD105R,0.0029X0.0001*%
%ADD106R,0.0029X0.0001*%
%ADD107R,0.0029X0.0001*%
%ADD108R,0.0030X0.0001*%
%ADD109R,0.0031X0.0001*%
%ADD110R,0.0031X0.0001*%
%ADD111R,0.0032X0.0001*%
%ADD112R,0.0032X0.0001*%
%ADD113R,0.0032X0.0001*%
%ADD114R,0.0033X0.0001*%
%ADD115R,0.0033X0.0001*%
%ADD116R,0.0034X0.0001*%
%ADD117R,0.0033X0.0001*%
%ADD118R,0.0035X0.0001*%
%ADD119R,0.0035X0.0001*%
%ADD120R,0.0035X0.0001*%
%ADD121R,0.0037X0.0001*%
%ADD122R,0.0037X0.0001*%
%ADD123R,0.0037X0.0001*%
%ADD124R,0.0037X0.0001*%
%ADD125R,0.0037X0.0001*%
%ADD126R,0.0038X0.0001*%
%ADD127R,0.0038X0.0001*%
%ADD128R,0.0039X0.0001*%
%ADD129R,0.0040X0.0001*%
%ADD130R,0.0040X0.0001*%
%ADD131R,0.0041X0.0001*%
%ADD132R,0.0041X0.0001*%
%ADD133R,0.0041X0.0001*%
%ADD134R,0.0042X0.0001*%
%ADD135R,0.0042X0.0001*%
%ADD136R,0.0043X0.0001*%
%ADD137R,0.0043X0.0001*%
%ADD138R,0.0044X0.0001*%
%ADD139R,0.0044X0.0001*%
%ADD140R,0.0044X0.0001*%
%ADD141R,0.0045X0.0001*%
%ADD142R,0.0046X0.0001*%
%ADD143R,0.0045X0.0001*%
%ADD144R,0.0046X0.0001*%
%ADD145R,0.0046X0.0001*%
%ADD146R,0.0047X0.0001*%
%ADD147R,0.0047X0.0001*%
%ADD148R,0.0047X0.0001*%
%ADD149R,0.0048X0.0001*%
%ADD150R,0.0048X0.0001*%
%ADD151R,0.0049X0.0001*%
%ADD152R,0.0050X0.0001*%
%ADD153R,0.0050X0.0001*%
%ADD154R,0.0050X0.0001*%
%ADD155R,0.0050X0.0001*%
%ADD156R,0.0050X0.0001*%
%ADD157R,0.0050X0.0001*%
%ADD158R,0.0052X0.0001*%
%ADD159R,0.0052X0.0001*%
%ADD160R,0.0052X0.0001*%
%ADD161R,0.0053X0.0001*%
%ADD162R,0.0054X0.0001*%
%ADD163R,0.0054X0.0001*%
%ADD164R,0.0054X0.0001*%
%ADD165R,0.0054X0.0001*%
%ADD166R,0.0055X0.0001*%
%ADD167R,0.0056X0.0001*%
%ADD168R,0.0055X0.0001*%
%ADD169R,0.0056X0.0001*%
%ADD170R,0.0056X0.0001*%
%ADD171R,0.0056X0.0001*%
%ADD172R,0.0057X0.0001*%
%ADD173R,0.0057X0.0001*%
%ADD174R,0.0058X0.0001*%
%ADD175R,0.0058X0.0001*%
%ADD176R,0.0058X0.0001*%
%ADD177R,0.0059X0.0001*%
%ADD178R,0.0059X0.0001*%
%ADD179R,0.0061X0.0001*%
%ADD180R,0.0061X0.0001*%
%ADD181R,0.0061X0.0001*%
%ADD182R,0.0062X0.0001*%
%ADD183R,0.0062X0.0001*%
%ADD184R,0.0064X0.0001*%
%ADD185R,0.0063X0.0001*%
%ADD186R,0.0064X0.0001*%
%ADD187R,0.0064X0.0001*%
%ADD188R,0.0065X0.0001*%
%ADD189R,0.0065X0.0001*%
%ADD190R,0.0066X0.0001*%
%ADD191R,0.0066X0.0001*%
%ADD192R,0.0067X0.0001*%
%ADD193R,0.0067X0.0001*%
%ADD194R,0.0067X0.0001*%
%ADD195R,0.0067X0.0001*%
%ADD196R,0.0068X0.0001*%
%ADD197R,0.0069X0.0001*%
%ADD198R,0.0069X0.0001*%
%ADD199R,0.0070X0.0001*%
%ADD200R,0.0070X0.0001*%
%ADD201R,0.0071X0.0001*%
%ADD202R,0.0071X0.0001*%
%ADD203R,0.0071X0.0001*%
%ADD204R,0.0072X0.0001*%
%ADD205R,0.0072X0.0001*%
%ADD206R,0.0073X0.0001*%
%ADD207R,0.0073X0.0001*%
%ADD208R,0.0074X0.0001*%
%ADD209R,0.0074X0.0001*%
%ADD210R,0.0074X0.0001*%
%ADD211R,0.0075X0.0001*%
%ADD212R,0.0076X0.0001*%
%ADD213R,0.0076X0.0001*%
%ADD214R,0.0076X0.0001*%
%ADD215R,0.0076X0.0001*%
%ADD216R,0.0077X0.0001*%
%ADD217R,0.0078X0.0001*%
%ADD218R,0.0078X0.0001*%
%ADD219R,0.0079X0.0001*%
%ADD220R,0.0080X0.0001*%
%ADD221R,0.0080X0.0001*%
%ADD222R,0.0080X0.0001*%
%ADD223R,0.0080X0.0001*%
%ADD224R,0.0081X0.0001*%
%ADD225R,0.0082X0.0001*%
%ADD226R,0.0082X0.0001*%
%ADD227R,0.0082X0.0001*%
%ADD228R,0.0083X0.0001*%
%ADD229R,0.0083X0.0001*%
%ADD230R,0.0084X0.0001*%
%ADD231R,0.0085X0.0001*%
%ADD232R,0.0085X0.0001*%
%ADD233R,0.0086X0.0001*%
%ADD234R,0.0085X0.0001*%
%ADD235R,0.0086X0.0001*%
%ADD236R,0.0087X0.0001*%
%ADD237R,0.0087X0.0001*%
%ADD238R,0.0087X0.0001*%
%ADD239R,0.0088X0.0001*%
%ADD240R,0.0088X0.0001*%
%ADD241R,0.0089X0.0001*%
%ADD242R,0.0089X0.0001*%
%ADD243R,0.0089X0.0001*%
%ADD244R,0.0089X0.0001*%
%ADD245R,0.0091X0.0001*%
%ADD246R,0.0091X0.0001*%
%ADD247R,0.0091X0.0001*%
%ADD248R,0.0092X0.0001*%
%ADD249R,0.0093X0.0001*%
%ADD250R,0.0093X0.0001*%
%ADD251R,0.0093X0.0001*%
%ADD252R,0.0094X0.0001*%
%ADD253R,0.0094X0.0001*%
%ADD254R,0.0094X0.0001*%
%ADD255R,0.0094X0.0001*%
%ADD256R,0.0095X0.0001*%
%ADD257R,0.0095X0.0001*%
%ADD258R,0.0096X0.0001*%
%ADD259R,0.0097X0.0001*%
%ADD260R,0.0097X0.0001*%
%ADD261R,0.0098X0.0001*%
%ADD262R,0.0097X0.0001*%
%ADD263R,0.0098X0.0001*%
%ADD264R,0.0098X0.0001*%
%ADD265R,0.0098X0.0001*%
%ADD266R,0.0099X0.0001*%
%ADD267R,0.0100X0.0001*%
%ADD268R,0.0100X0.0001*%
%ADD269R,0.0100X0.0001*%
%ADD270R,0.0101X0.0001*%
%ADD271R,0.0102X0.0001*%
%ADD272R,0.0102X0.0001*%
%ADD273R,0.0102X0.0001*%
%ADD274R,0.0102X0.0001*%
%ADD275R,0.0103X0.0001*%
%ADD276R,0.0104X0.0001*%
%ADD277R,0.0104X0.0001*%
%ADD278R,0.0104X0.0001*%
%ADD279R,0.0104X0.0001*%
%ADD280R,0.0104X0.0001*%
%ADD281R,0.0106X0.0001*%
%ADD282R,0.0106X0.0001*%
%ADD283R,0.0106X0.0001*%
%ADD284R,0.0106X0.0001*%
%ADD285R,0.0106X0.0001*%
%ADD286R,0.0106X0.0001*%
%ADD287R,0.0107X0.0001*%
%ADD288R,0.0108X0.0001*%
%ADD289R,0.0109X0.0001*%
%ADD290R,0.0109X0.0001*%
%ADD291R,0.0109X0.0001*%
%ADD292R,0.0110X0.0001*%
%ADD293R,0.0110X0.0001*%
%ADD294R,0.0110X0.0001*%
%ADD295R,0.0110X0.0001*%
%ADD296R,0.0111X0.0001*%
%ADD297R,0.0112X0.0001*%
%ADD298R,0.0112X0.0001*%
%ADD299R,0.0112X0.0001*%
%ADD300R,0.0113X0.0001*%
%ADD301R,0.0113X0.0001*%
%ADD302R,0.0113X0.0001*%
%ADD303R,0.0115X0.0001*%
%ADD304R,0.0114X0.0001*%
%ADD305R,0.0115X0.0001*%
%ADD306R,0.0115X0.0001*%
%ADD307R,0.0116X0.0001*%
%ADD308R,0.0116X0.0001*%
%ADD309R,0.0116X0.0001*%
%ADD310R,0.0116X0.0001*%
%ADD311R,0.0117X0.0001*%
%ADD312R,0.0117X0.0001*%
%ADD313R,0.0119X0.0001*%
%ADD314R,0.0119X0.0001*%
%ADD315R,0.0119X0.0001*%
%ADD316R,0.0120X0.0001*%
%ADD317R,0.0121X0.0001*%
%ADD318R,0.0121X0.0001*%
%ADD319R,0.0121X0.0001*%
%ADD320R,0.0121X0.0001*%
%ADD321R,0.0121X0.0001*%
%ADD322R,0.0122X0.0001*%
%ADD323R,0.0123X0.0001*%
%ADD324R,0.0123X0.0001*%
%ADD325R,0.0124X0.0001*%
%ADD326R,0.0124X0.0001*%
%ADD327R,0.0125X0.0001*%
%ADD328R,0.0126X0.0001*%
%ADD329R,0.0126X0.0001*%
%ADD330R,0.0127X0.0001*%
%ADD331R,0.0127X0.0001*%
%ADD332R,0.0127X0.0001*%
%ADD333R,0.0128X0.0001*%
%ADD334R,0.0128X0.0001*%
%ADD335R,0.0128X0.0001*%
%ADD336R,0.0130X0.0001*%
%ADD337R,0.0130X0.0001*%
%ADD338R,0.0130X0.0001*%
%ADD339R,0.0131X0.0001*%
%ADD340R,0.0131X0.0001*%
%ADD341R,0.0131X0.0001*%
%ADD342R,0.0132X0.0001*%
%ADD343R,0.0133X0.0001*%
%ADD344R,0.0133X0.0001*%
%ADD345R,0.0134X0.0001*%
%ADD346R,0.0134X0.0001*%
%ADD347R,0.0136X0.0001*%
%ADD348R,0.0135X0.0001*%
%ADD349R,0.0136X0.0001*%
%ADD350R,0.0136X0.0001*%
%ADD351R,0.0136X0.0001*%
%ADD352R,0.0137X0.0001*%
%ADD353R,0.0137X0.0001*%
%ADD354R,0.0138X0.0001*%
%ADD355R,0.0138X0.0001*%
%ADD356R,0.0139X0.0001*%
%ADD357R,0.0139X0.0001*%
%ADD358R,0.0140X0.0001*%
%ADD359R,0.0139X0.0001*%
%ADD360R,0.0141X0.0001*%
%ADD361R,0.0141X0.0001*%
%ADD362R,0.0141X0.0001*%
%ADD363R,0.0141X0.0001*%
%ADD364R,0.0143X0.0001*%
%ADD365R,0.0143X0.0001*%
%ADD366R,0.0143X0.0001*%
%ADD367R,0.0143X0.0001*%
%ADD368R,0.0145X0.0001*%
%ADD369R,0.0145X0.0001*%
%ADD370R,0.0145X0.0001*%
%ADD371R,0.0145X0.0001*%
%ADD372R,0.0145X0.0001*%
%ADD373R,0.0146X0.0001*%
%ADD374R,0.0147X0.0001*%
%ADD375R,0.0147X0.0001*%
%ADD376R,0.0148X0.0001*%
%ADD377R,0.0148X0.0001*%
%ADD378R,0.0148X0.0001*%
%ADD379R,0.0149X0.0001*%
%ADD380R,0.0149X0.0001*%
%ADD381R,0.0149X0.0001*%
%ADD382R,0.0149X0.0001*%
%ADD383R,0.0150X0.0001*%
%ADD384R,0.0151X0.0001*%
%ADD385R,0.0151X0.0001*%
%ADD386R,0.0151X0.0001*%
%ADD387R,0.0151X0.0001*%
%ADD388R,0.0152X0.0001*%
%ADD389R,0.0152X0.0001*%
%ADD390R,0.0153X0.0001*%
%ADD391R,0.0154X0.0001*%
%ADD392R,0.0154X0.0001*%
%ADD393R,0.0154X0.0001*%
%ADD394R,0.0154X0.0001*%
%ADD395R,0.0155X0.0001*%
%ADD396R,0.0156X0.0001*%
%ADD397R,0.0156X0.0001*%
%ADD398R,0.0156X0.0001*%
%ADD399R,0.0156X0.0001*%
%ADD400R,0.0158X0.0001*%
%ADD401R,0.0158X0.0001*%
%ADD402R,0.0159X0.0001*%
%ADD403R,0.0159X0.0001*%
%ADD404R,0.0160X0.0001*%
%ADD405R,0.0160X0.0001*%
%ADD406R,0.0160X0.0001*%
%ADD407R,0.0160X0.0001*%
%ADD408R,0.0161X0.0001*%
%ADD409R,0.0162X0.0001*%
%ADD410R,0.0161X0.0001*%
%ADD411R,0.0162X0.0001*%
%ADD412R,0.0162X0.0001*%
%ADD413R,0.0163X0.0001*%
%ADD414R,0.0163X0.0001*%
%ADD415R,0.0164X0.0001*%
%ADD416R,0.0164X0.0001*%
%ADD417R,0.0165X0.0001*%
%ADD418R,0.0166X0.0001*%
%ADD419R,0.0167X0.0001*%
%ADD420R,0.0167X0.0001*%
%ADD421R,0.0169X0.0001*%
%ADD422R,0.0169X0.0001*%
%ADD423R,0.0169X0.0001*%
%ADD424R,0.0170X0.0001*%
%ADD425R,0.0170X0.0001*%
%ADD426R,0.0169X0.0001*%
%ADD427R,0.0171X0.0001*%
%ADD428R,0.0172X0.0001*%
%ADD429R,0.0172X0.0001*%
%ADD430R,0.0173X0.0001*%
%ADD431R,0.0174X0.0001*%
%ADD432R,0.0174X0.0001*%
%ADD433R,0.0175X0.0001*%
%ADD434R,0.0175X0.0001*%
%ADD435R,0.0175X0.0001*%
%ADD436R,0.0176X0.0001*%
%ADD437R,0.0176X0.0001*%
%ADD438R,0.0177X0.0001*%
%ADD439R,0.0178X0.0001*%
%ADD440R,0.0178X0.0001*%
%ADD441R,0.0178X0.0001*%
%ADD442R,0.0178X0.0001*%
%ADD443R,0.0180X0.0001*%
%ADD444R,0.0180X0.0001*%
%ADD445R,0.0181X0.0001*%
%ADD446R,0.0181X0.0001*%
%ADD447R,0.0181X0.0001*%
%ADD448R,0.0181X0.0001*%
%ADD449R,0.0182X0.0001*%
%ADD450R,0.0182X0.0001*%
%ADD451R,0.0182X0.0001*%
%ADD452R,0.0182X0.0001*%
%ADD453R,0.0183X0.0001*%
%ADD454R,0.0184X0.0001*%
%ADD455R,0.0184X0.0001*%
%ADD456R,0.0185X0.0001*%
%ADD457R,0.0185X0.0001*%
%ADD458R,0.0185X0.0001*%
%ADD459R,0.0185X0.0001*%
%ADD460R,0.0185X0.0001*%
%ADD461R,0.0187X0.0001*%
%ADD462R,0.0186X0.0001*%
%ADD463R,0.0188X0.0001*%
%ADD464R,0.0188X0.0001*%
%ADD465R,0.0188X0.0001*%
%ADD466R,0.0188X0.0001*%
%ADD467R,0.0189X0.0001*%
%ADD468R,0.0189X0.0001*%
%ADD469R,0.0190X0.0001*%
%ADD470R,0.0190X0.0001*%
%ADD471R,0.0191X0.0001*%
%ADD472R,0.0191X0.0001*%
%ADD473R,0.0192X0.0001*%
%ADD474R,0.0191X0.0001*%
%ADD475R,0.0193X0.0001*%
%ADD476R,0.0193X0.0001*%
%ADD477R,0.0193X0.0001*%
%ADD478R,0.0193X0.0001*%
%ADD479R,0.0194X0.0001*%
%ADD480R,0.0194X0.0001*%
%ADD481R,0.0195X0.0001*%
%ADD482R,0.0195X0.0001*%
%ADD483R,0.0197X0.0001*%
%ADD484R,0.0197X0.0001*%
%ADD485R,0.0197X0.0001*%
%ADD486R,0.0198X0.0001*%
%ADD487R,0.0199X0.0001*%
%ADD488R,0.0199X0.0001*%
%ADD489R,0.0200X0.0001*%
%ADD490R,0.0200X0.0001*%
%ADD491R,0.0200X0.0001*%
%ADD492R,0.0201X0.0001*%
%ADD493R,0.0202X0.0001*%
%ADD494R,0.0202X0.0001*%
%ADD495R,0.0203X0.0001*%
%ADD496R,0.0203X0.0001*%
%ADD497R,0.0204X0.0001*%
%ADD498R,0.0203X0.0001*%
%ADD499R,0.0205X0.0001*%
%ADD500R,0.0205X0.0001*%
%ADD501R,0.0205X0.0001*%
%ADD502R,0.0205X0.0001*%
%ADD503R,0.0206X0.0001*%
%ADD504R,0.0206X0.0001*%
%ADD505R,0.0206X0.0001*%
%ADD506R,0.0208X0.0001*%
%ADD507R,0.0208X0.0001*%
%ADD508R,0.0208X0.0001*%
%ADD509R,0.0208X0.0001*%
%ADD510R,0.0209X0.0001*%
%ADD511R,0.0210X0.0001*%
%ADD512R,0.0210X0.0001*%
%ADD513R,0.0211X0.0001*%
%ADD514R,0.0211X0.0001*%
%ADD515R,0.0212X0.0001*%
%ADD516R,0.0212X0.0001*%
%ADD517R,0.0213X0.0001*%
%ADD518R,0.0213X0.0001*%
%ADD519R,0.0214X0.0001*%
%ADD520R,0.0215X0.0001*%
%ADD521R,0.0215X0.0001*%
%ADD522R,0.0215X0.0001*%
%ADD523R,0.0216X0.0001*%
%ADD524R,0.0217X0.0001*%
%ADD525R,0.0217X0.0001*%
%ADD526R,0.0217X0.0001*%
%ADD527R,0.0218X0.0001*%
%ADD528R,0.0219X0.0001*%
%ADD529R,0.0219X0.0001*%
%ADD530R,0.0220X0.0001*%
%ADD531R,0.0220X0.0001*%
%ADD532R,0.0220X0.0001*%
%ADD533R,0.0221X0.0001*%
%ADD534R,0.0221X0.0001*%
%ADD535R,0.0222X0.0001*%
%ADD536R,0.0223X0.0001*%
%ADD537R,0.0223X0.0001*%
%ADD538R,0.0223X0.0001*%
%ADD539R,0.0224X0.0001*%
%ADD540R,0.0224X0.0001*%
%ADD541R,0.0225X0.0001*%
%ADD542R,0.0226X0.0001*%
%ADD543R,0.0226X0.0001*%
%ADD544R,0.0227X0.0001*%
%ADD545R,0.0227X0.0001*%
%ADD546R,0.0227X0.0001*%
%ADD547R,0.0228X0.0001*%
%ADD548R,0.0228X0.0001*%
%ADD549R,0.0228X0.0001*%
%ADD550R,0.0229X0.0001*%
%ADD551R,0.0230X0.0001*%
%ADD552R,0.0230X0.0001*%
%ADD553R,0.0230X0.0001*%
%ADD554R,0.0230X0.0001*%
%ADD555R,0.0230X0.0001*%
%ADD556R,0.0232X0.0001*%
%ADD557R,0.0232X0.0001*%
%ADD558R,0.0232X0.0001*%
%ADD559R,0.0232X0.0001*%
%ADD560R,0.0233X0.0001*%
%ADD561R,0.0233X0.0001*%
%ADD562R,0.0234X0.0001*%
%ADD563R,0.0234X0.0001*%
%ADD564R,0.0234X0.0001*%
%ADD565R,0.0234X0.0001*%
%ADD566R,0.0235X0.0001*%
%ADD567R,0.0236X0.0001*%
%ADD568R,0.0236X0.0001*%
%ADD569R,0.0237X0.0001*%
%ADD570R,0.0237X0.0001*%
%ADD571R,0.0238X0.0001*%
%ADD572R,0.0239X0.0001*%
%ADD573R,0.0238X0.0001*%
%ADD574R,0.0239X0.0001*%
%ADD575R,0.0239X0.0001*%
%ADD576R,0.0240X0.0001*%
%ADD577R,0.0241X0.0001*%
%ADD578R,0.0241X0.0001*%
%ADD579R,0.0242X0.0001*%
%ADD580R,0.0242X0.0001*%
%ADD581R,0.0242X0.0001*%
%ADD582R,0.0243X0.0001*%
%ADD583R,0.0243X0.0001*%
%ADD584R,0.0244X0.0001*%
%ADD585R,0.0245X0.0001*%
%ADD586R,0.0245X0.0001*%
%ADD587R,0.0245X0.0001*%
%ADD588R,0.0246X0.0001*%
%ADD589R,0.0245X0.0001*%
%ADD590R,0.0247X0.0001*%
%ADD591R,0.0247X0.0001*%
%ADD592R,0.0247X0.0001*%
%ADD593R,0.0248X0.0001*%
%ADD594R,0.0248X0.0001*%
%ADD595R,0.0249X0.0001*%
%ADD596R,0.0249X0.0001*%
%ADD597R,0.0249X0.0001*%
%ADD598R,0.0250X0.0001*%
%ADD599R,0.0250X0.0001*%
%ADD600R,0.0250X0.0001*%
%ADD601R,0.0251X0.0001*%
%ADD602R,0.0251X0.0001*%
%ADD603R,0.0251X0.0001*%
%ADD604R,0.0252X0.0001*%
%ADD605R,0.0252X0.0001*%
%ADD606R,0.0253X0.0001*%
%ADD607R,0.0254X0.0001*%
%ADD608R,0.0254X0.0001*%
%ADD609R,0.0254X0.0001*%
%ADD610R,0.0255X0.0001*%
%ADD611R,0.0256X0.0001*%
%ADD612R,0.0256X0.0001*%
%ADD613R,0.0257X0.0001*%
%ADD614R,0.0257X0.0001*%
%ADD615R,0.0257X0.0001*%
%ADD616R,0.0257X0.0001*%
%ADD617R,0.0258X0.0001*%
%ADD618R,0.0258X0.0001*%
%ADD619R,0.0259X0.0001*%
%ADD620R,0.0259X0.0001*%
%ADD621R,0.0260X0.0001*%
%ADD622R,0.0260X0.0001*%
%ADD623R,0.0262X0.0001*%
%ADD624R,0.0262X0.0001*%
%ADD625R,0.0262X0.0001*%
%ADD626R,0.0262X0.0001*%
%ADD627R,0.0262X0.0001*%
%ADD628R,0.0262X0.0001*%
%ADD629R,0.0263X0.0001*%
%ADD630R,0.0264X0.0001*%
%ADD631R,0.0265X0.0001*%
%ADD632R,0.0265X0.0001*%
%ADD633R,0.0265X0.0001*%
%ADD634R,0.0266X0.0001*%
%ADD635R,0.0266X0.0001*%
%ADD636R,0.0267X0.0001*%
%ADD637R,0.0267X0.0001*%
%ADD638R,0.0267X0.0001*%
%ADD639R,0.0267X0.0001*%
%ADD640R,0.0268X0.0001*%
%ADD641R,0.0268X0.0001*%
%ADD642R,0.0268X0.0001*%
%ADD643R,0.0269X0.0001*%
%ADD644R,0.0269X0.0001*%
%ADD645R,0.0269X0.0001*%
%ADD646R,0.0271X0.0001*%
%ADD647R,0.0271X0.0001*%
%ADD648R,0.0271X0.0001*%
%ADD649R,0.0271X0.0001*%
%ADD650R,0.0272X0.0001*%
%ADD651R,0.0273X0.0001*%
%ADD652R,0.0272X0.0001*%
%ADD653R,0.0273X0.0001*%
%ADD654R,0.0274X0.0001*%
%ADD655R,0.0274X0.0001*%
%ADD656R,0.0274X0.0001*%
%ADD657R,0.0275X0.0001*%
%ADD658R,0.0276X0.0001*%
%ADD659R,0.0275X0.0001*%
%ADD660R,0.0277X0.0001*%
%ADD661R,0.0277X0.0001*%
%ADD662R,0.0277X0.0001*%
%ADD663R,0.0278X0.0001*%
%ADD664R,0.0278X0.0001*%
%ADD665R,0.0279X0.0001*%
%ADD666R,0.0279X0.0001*%
%ADD667R,0.0280X0.0001*%
%ADD668R,0.0280X0.0001*%
%ADD669R,0.0281X0.0001*%
%ADD670R,0.0281X0.0001*%
%ADD671R,0.0281X0.0001*%
%ADD672R,0.0282X0.0001*%
%ADD673R,0.0283X0.0001*%
%ADD674R,0.0284X0.0001*%
%ADD675R,0.0284X0.0001*%
%ADD676R,0.0284X0.0001*%
%ADD677R,0.0284X0.0001*%
%ADD678R,0.0284X0.0001*%
%ADD679R,0.0284X0.0001*%
%ADD680R,0.0286X0.0001*%
%ADD681R,0.0286X0.0001*%
%ADD682R,0.0286X0.0001*%
%ADD683R,0.0286X0.0001*%
%ADD684R,0.0287X0.0001*%
%ADD685R,0.0288X0.0001*%
%ADD686R,0.0288X0.0001*%
%ADD687R,0.0289X0.0001*%
%ADD688R,0.0289X0.0001*%
%ADD689R,0.0289X0.0001*%
%ADD690R,0.0290X0.0001*%
%ADD691R,0.0290X0.0001*%
%ADD692R,0.0290X0.0001*%
%ADD693R,0.0290X0.0001*%
%ADD694R,0.0291X0.0001*%
%ADD695R,0.0292X0.0001*%
%ADD696R,0.0292X0.0001*%
%ADD697R,0.0292X0.0001*%
%ADD698R,0.0292X0.0001*%
%ADD699R,0.0293X0.0001*%
%ADD700R,0.0293X0.0001*%
%ADD701R,0.0294X0.0001*%
%ADD702R,0.0294X0.0001*%
%ADD703R,0.0295X0.0001*%
%ADD704R,0.0295X0.0001*%
%ADD705R,0.0295X0.0001*%
%ADD706R,0.0296X0.0001*%
%ADD707R,0.0296X0.0001*%
%ADD708R,0.0296X0.0001*%
%ADD709R,0.0297X0.0001*%
%ADD710R,0.0297X0.0001*%
%ADD711R,0.0297X0.0001*%
%ADD712R,0.0298X0.0001*%
%ADD713R,0.0299X0.0001*%
%ADD714R,0.0299X0.0001*%
%ADD715R,0.0299X0.0001*%
%ADD716R,0.0301X0.0001*%
%ADD717R,0.0300X0.0001*%
%ADD718R,0.0301X0.0001*%
%ADD719R,0.0301X0.0001*%
%ADD720R,0.0301X0.0001*%
%ADD721R,0.0302X0.0001*%
%ADD722R,0.0303X0.0001*%
%ADD723R,0.0303X0.0001*%
%ADD724R,0.0303X0.0001*%
%ADD725R,0.0303X0.0001*%
%ADD726R,0.0608X0.0001*%
%ADD727R,0.0609X0.0001*%
%ADD728R,0.0609X0.0001*%
%ADD729R,0.0610X0.0001*%
%ADD730R,0.0610X0.0001*%
%ADD731R,0.0610X0.0001*%
%ADD732R,0.0611X0.0001*%
%ADD733R,0.0611X0.0001*%
%ADD734R,0.0608X0.0001*%
%ADD735R,0.0605X0.0001*%
%ADD736R,0.0601X0.0001*%
%ADD737R,0.0595X0.0001*%
%ADD738R,0.0591X0.0001*%
%ADD739R,0.0585X0.0001*%
%ADD740R,0.0581X0.0001*%
%ADD741R,0.0578X0.0001*%
%ADD742R,0.0571X0.0001*%
%ADD743R,0.0568X0.0001*%
%ADD744R,0.0565X0.0001*%
%ADD745R,0.0561X0.0001*%
%ADD746R,0.0554X0.0001*%
%ADD747R,0.0551X0.0001*%
%ADD748R,0.0544X0.0001*%
%ADD749R,0.0542X0.0001*%
%ADD750R,0.0537X0.0001*%
%ADD751R,0.0531X0.0001*%
%ADD752R,0.0527X0.0001*%
%ADD753R,0.0524X0.0001*%
%ADD754R,0.0521X0.0001*%
%ADD755R,0.0514X0.0001*%
%ADD756R,0.0511X0.0001*%
%ADD757R,0.0504X0.0001*%
%ADD758R,0.0501X0.0001*%
%ADD759R,0.0498X0.0001*%
%ADD760R,0.0491X0.0001*%
%ADD761R,0.0488X0.0001*%
%ADD762R,0.0484X0.0001*%
%ADD763R,0.0481X0.0001*%
%ADD764R,0.0475X0.0001*%
%ADD765R,0.0471X0.0001*%
%ADD766R,0.0465X0.0001*%
%ADD767R,0.0460X0.0001*%
%ADD768R,0.0458X0.0001*%
%ADD769R,0.0451X0.0001*%
%ADD770R,0.0448X0.0001*%
%ADD771R,0.0445X0.0001*%
%ADD772R,0.0441X0.0001*%
%ADD773R,0.0435X0.0001*%
%ADD774R,0.0431X0.0001*%
%ADD775R,0.0424X0.0001*%
%ADD776R,0.0421X0.0001*%
%ADD777R,0.0417X0.0001*%
%ADD778R,0.0411X0.0001*%
%ADD779R,0.0407X0.0001*%
%ADD780R,0.0404X0.0001*%
%ADD781R,0.0401X0.0001*%
%ADD782R,0.0394X0.0001*%
%ADD783R,0.0391X0.0001*%
%ADD784R,0.0384X0.0001*%
%ADD785R,0.0381X0.0001*%
%ADD786R,0.0377X0.0001*%
%ADD787R,0.0371X0.0001*%
%ADD788R,0.0368X0.0001*%
%ADD789R,0.0364X0.0001*%
%ADD790R,0.0361X0.0001*%
%ADD791R,0.0353X0.0001*%
%ADD792R,0.0351X0.0001*%
%ADD793R,0.0344X0.0001*%
%ADD794R,0.0340X0.0001*%
%ADD795R,0.0338X0.0001*%
%ADD796R,0.0331X0.0001*%
%ADD797R,0.0328X0.0001*%
%ADD798R,0.0325X0.0001*%
%ADD799R,0.0321X0.0001*%
%ADD800R,0.0314X0.0001*%
%ADD801R,0.0310X0.0001*%
%ADD802R,0.0304X0.0001*%
%ADD803R,0.0301X0.0001*%
%ADD804R,0.0287X0.0001*%
%ADD805R,0.0271X0.0001*%
%ADD806R,0.0261X0.0001*%
%ADD807R,0.0247X0.0001*%
%ADD808R,0.0244X0.0001*%
%ADD809R,0.0241X0.0001*%
%ADD810R,0.0233X0.0001*%
%ADD811R,0.0231X0.0001*%
%ADD812R,0.0224X0.0001*%
%ADD813R,0.0220X0.0001*%
%ADD814R,0.0218X0.0001*%
%ADD815R,0.0203X0.0001*%
%ADD816R,0.0201X0.0001*%
%ADD817R,0.0194X0.0001*%
%ADD818R,0.0190X0.0001*%
%ADD819R,0.0028X0.0001*%
%ADD820R,0.0072X0.0001*%
%ADD821R,0.0177X0.0001*%
%ADD822R,0.0091X0.0001*%
%ADD823R,0.0179X0.0001*%
%ADD824R,0.0164X0.0001*%
%ADD825R,0.0179X0.0001*%
%ADD826R,0.0164X0.0001*%
%ADD827R,0.0748X0.0001*%
%ADD828R,0.0748X0.0001*%
%ADD829R,0.0749X0.0001*%
%ADD830R,0.0749X0.0001*%
%ADD831R,0.0750X0.0001*%
%ADD832R,0.0750X0.0001*%
%ADD833R,0.0751X0.0001*%
%ADD834R,0.0751X0.0001*%
%ADD835R,0.0752X0.0001*%
%ADD836R,0.0752X0.0001*%
%ADD837R,0.0754X0.0001*%
%ADD838R,0.0754X0.0001*%
%ADD839R,0.0755X0.0001*%
%ADD840R,0.0755X0.0001*%
%ADD841R,0.0756X0.0001*%
%ADD842R,0.0756X0.0001*%
%ADD843R,0.0757X0.0001*%
%ADD844R,0.0757X0.0001*%
%ADD845R,0.0007X0.0001*%
%ADD846R,0.0007X0.0001*%
%ADD847R,0.0034X0.0001*%
%ADD848R,0.0031X0.0001*%
%ADD849R,0.0008X0.0001*%
%ADD850R,0.0008X0.0001*%
%ADD851R,0.0179X0.0001*%
%ADD852R,0.0008X0.0001*%
%ADD853R,0.0179X0.0001*%
%ADD854R,0.0043X0.0001*%
%ADD855R,0.0008X0.0001*%
%ADD856R,0.0044X0.0001*%
%ADD857R,0.0007X0.0001*%
%ADD858R,0.0044X0.0001*%
%ADD859R,0.0032X0.0001*%
%ADD860R,0.0009X0.0001*%
%ADD861R,0.0010X0.0001*%
%ADD862R,0.0190X0.0001*%
%ADD863R,0.0179X0.0001*%
%ADD864R,0.0009X0.0001*%
%ADD865R,0.0029X0.0001*%
%ADD866R,0.0041X0.0001*%
%ADD867R,0.0010X0.0001*%
%ADD868R,0.0043X0.0001*%
%ADD869R,0.0031X0.0001*%
%ADD870R,0.0181X0.0001*%
%ADD871R,0.0040X0.0001*%
%ADD872R,0.0031X0.0001*%
%ADD873R,0.0011X0.0001*%
%ADD874R,0.0028X0.0001*%
%ADD875R,0.0192X0.0001*%
%ADD876R,0.0182X0.0001*%
%ADD877R,0.0043X0.0001*%
%ADD878R,0.0012X0.0001*%
%ADD879R,0.0028X0.0001*%
%ADD880R,0.0038X0.0001*%
%ADD881R,0.0183X0.0001*%
%ADD882R,0.0041X0.0001*%
%ADD883R,0.0029X0.0001*%
%ADD884R,0.0027X0.0001*%
%ADD885R,0.0194X0.0001*%
%ADD886R,0.0035X0.0001*%
%ADD887R,0.0012X0.0001*%
%ADD888R,0.0040X0.0001*%
%ADD889R,0.0014X0.0001*%
%ADD890R,0.0184X0.0001*%
%ADD891R,0.0035X0.0001*%
%ADD892R,0.0034X0.0001*%
%ADD893R,0.0015X0.0001*%
%ADD894R,0.0185X0.0001*%
%ADD895R,0.0014X0.0001*%
%ADD896R,0.0039X0.0001*%
%ADD897R,0.0016X0.0001*%
%ADD898R,0.0025X0.0001*%
%ADD899R,0.0016X0.0001*%
%ADD900R,0.0196X0.0001*%
%ADD901R,0.0186X0.0001*%
%ADD902R,0.0014X0.0001*%
%ADD903R,0.0010X0.0001*%
%ADD904R,0.0038X0.0001*%
%ADD905R,0.0011X0.0001*%
%ADD906R,0.0017X0.0001*%
%ADD907R,0.0040X0.0001*%
%ADD908R,0.0196X0.0001*%
%ADD909R,0.0017X0.0001*%
%ADD910R,0.0187X0.0001*%
%ADD911R,0.0016X0.0001*%
%ADD912R,0.0023X0.0001*%
%ADD913R,0.0197X0.0001*%
%ADD914R,0.0028X0.0001*%
%ADD915R,0.0016X0.0001*%
%ADD916R,0.0023X0.0001*%
%ADD917R,0.0019X0.0001*%
%ADD918R,0.0023X0.0001*%
%ADD919R,0.0036X0.0001*%
%ADD920R,0.0198X0.0001*%
%ADD921R,0.0189X0.0001*%
%ADD922R,0.0022X0.0001*%
%ADD923R,0.0199X0.0001*%
%ADD924R,0.0025X0.0001*%
%ADD925R,0.0017X0.0001*%
%ADD926R,0.0012X0.0001*%
%ADD927R,0.0035X0.0001*%
%ADD928R,0.0021X0.0001*%
%ADD929R,0.0020X0.0001*%
%ADD930R,0.0022X0.0001*%
%ADD931R,0.0199X0.0001*%
%ADD932R,0.0190X0.0001*%
%ADD933R,0.0021X0.0001*%
%ADD934R,0.0019X0.0001*%
%ADD935R,0.0191X0.0001*%
%ADD936R,0.0019X0.0001*%
%ADD937R,0.0200X0.0001*%
%ADD938R,0.0192X0.0001*%
%ADD939R,0.0021X0.0001*%
%ADD940R,0.0020X0.0001*%
%ADD941R,0.0021X0.0001*%
%ADD942R,0.0203X0.0001*%
%ADD943R,0.0016X0.0001*%
%ADD944R,0.0203X0.0001*%
%ADD945R,0.0196X0.0001*%
%ADD946R,0.0023X0.0001*%
%ADD947R,0.0026X0.0001*%
%ADD948R,0.0204X0.0001*%
%ADD949R,0.0196X0.0001*%
%ADD950R,0.0023X0.0001*%
%ADD951R,0.0013X0.0001*%
%ADD952R,0.0017X0.0001*%
%ADD953R,0.0205X0.0001*%
%ADD954R,0.0197X0.0001*%
%ADD955R,0.0016X0.0001*%
%ADD956R,0.0205X0.0001*%
%ADD957R,0.0206X0.0001*%
%ADD958R,0.0206X0.0001*%
%ADD959R,0.0009X0.0001*%
%ADD960R,0.0016X0.0001*%
%ADD961R,0.0030X0.0001*%
%ADD962R,0.0207X0.0001*%
%ADD963R,0.0200X0.0001*%
%ADD964R,0.0207X0.0001*%
%ADD965R,0.0006X0.0001*%
%ADD966R,0.0202X0.0001*%
%ADD967R,0.0005X0.0001*%
%ADD968R,0.0209X0.0001*%
%ADD969R,0.0004X0.0001*%
%ADD970R,0.0209X0.0001*%
%ADD971R,0.0003X0.0001*%
%ADD972R,0.0017X0.0001*%
%ADD973R,0.0034X0.0001*%
%ADD974R,0.0012X0.0001*%
%ADD975R,0.0211X0.0001*%
%ADD976R,0.0001X0.0001*%
%ADD977R,0.0020X0.0001*%
%ADD978R,0.0020X0.0001*%
%ADD979R,0.0005X0.0001*%
%ADD980R,0.0036X0.0001*%
%ADD981R,0.0212X0.0001*%
%ADD982R,0.0205X0.0001*%
%ADD983R,0.0212X0.0001*%
%ADD984R,0.0031X0.0001*%
%ADD985R,0.0020X0.0001*%
%ADD986R,0.0004X0.0001*%
%ADD987R,0.0214X0.0001*%
%ADD988R,0.0215X0.0001*%
%ADD989R,0.0001X0.0001*%
%ADD990R,0.0217X0.0001*%
%ADD991R,0.0034X0.0001*%
%ADD992R,0.0211X0.0001*%
%ADD993R,0.0042X0.0001*%
%ADD994R,0.0215X0.0001*%
%ADD995R,0.0211X0.0001*%
%ADD996R,0.0014X0.0001*%
%ADD997R,0.0215X0.0001*%
%ADD998R,0.0211X0.0001*%
%ADD999R,0.0036X0.0001*%
%ADD1000R,0.0213X0.0001*%
%ADD1001R,0.0022X0.0001*%
%ADD1002R,0.0211X0.0001*%
%ADD1003R,0.0034X0.0001*%
%ADD1004R,0.0043X0.0001*%
%ADD1005R,0.0001X0.0001*%
%ADD1006R,0.0209X0.0001*%
%ADD1007R,0.0011X0.0001*%
%ADD1008R,0.0002X0.0001*%
%ADD1009R,0.0005X0.0001*%
%ADD1010R,0.0023X0.0001*%
%ADD1011R,0.0001X0.0001*%
%ADD1012R,0.0026X0.0001*%
%ADD1013R,0.0209X0.0001*%
%ADD1014R,0.0025X0.0001*%
%ADD1015R,0.0006X0.0001*%
%ADD1016R,0.0205X0.0001*%
%ADD1017R,0.0025X0.0001*%
%ADD1018R,0.0005X0.0001*%
%ADD1019R,0.0006X0.0001*%
%ADD1020R,0.0005X0.0001*%
%ADD1021R,0.0003X0.0001*%
%ADD1022R,0.0027X0.0001*%
%ADD1023R,0.0013X0.0001*%
%ADD1024R,0.0201X0.0001*%
%ADD1025R,0.0001X0.0001*%
%ADD1026R,0.0200X0.0001*%
%ADD1027R,0.0029X0.0001*%
%ADD1028R,0.0014X0.0001*%
%ADD1029R,0.0209X0.0001*%
%ADD1030R,0.0199X0.0001*%
%ADD1031R,0.0031X0.0001*%
%ADD1032R,0.0032X0.0001*%
%ADD1033R,0.0032X0.0001*%
%ADD1034R,0.0196X0.0001*%
%ADD1035R,0.0031X0.0001*%
%ADD1036R,0.0214X0.0001*%
%ADD1037R,0.0194X0.0001*%
%ADD1038R,0.0193X0.0001*%
%ADD1039R,0.0033X0.0001*%
%ADD1040R,0.0216X0.0001*%
%ADD1041R,0.0217X0.0001*%
%ADD1042R,0.0193X0.0001*%
%ADD1043R,0.0218X0.0001*%
%ADD1044R,0.0040X0.0001*%
%ADD1045R,0.0221X0.0001*%
%ADD1046R,0.0039X0.0001*%
%ADD1047R,0.0036X0.0001*%
%ADD1048R,0.0222X0.0001*%
%ADD1049R,0.0224X0.0001*%
%ADD1050R,0.0010X0.0001*%
%ADD1051R,0.0226X0.0001*%
%ADD1052R,0.0229X0.0001*%
%ADD1053R,0.0365X0.0001*%
%ADD1054R,0.0406X0.0001*%
%ADD1055R,0.0779X0.0001*%
%ADD1056R,0.0779X0.0001*%
%ADD1057R,0.0780X0.0001*%
%ADD1058R,0.0780X0.0001*%
%ADD1059R,0.0781X0.0001*%
%ADD1060R,0.0781X0.0001*%
%ADD1061R,0.0782X0.0001*%
%ADD1062R,0.0782X0.0001*%
%ADD1063R,0.0784X0.0001*%
%ADD1064R,0.0784X0.0001*%
%ADD1065R,0.0785X0.0001*%
%ADD1066R,0.0785X0.0001*%
%ADD1067R,0.0786X0.0001*%
%ADD1068R,0.0786X0.0001*%
%ADD1069R,0.0787X0.0001*%
%ADD1070R,0.0787X0.0001*%
%ADD1071R,0.0393X0.0001*%
%ADD1072R,0.0392X0.0001*%
%ADD1073R,0.0392X0.0001*%
%ADD1074R,0.0392X0.0001*%
%ADD1075R,0.0391X0.0001*%
%ADD1076R,0.0391X0.0001*%
%ADD1077R,0.0390X0.0001*%
%ADD1078R,0.0389X0.0001*%
%ADD1079R,0.0389X0.0001*%
%ADD1080R,0.0389X0.0001*%
%ADD1081R,0.0388X0.0001*%
%ADD1082R,0.0388X0.0001*%
%ADD1083R,0.0388X0.0001*%
%ADD1084R,0.0388X0.0001*%
%ADD1085R,0.0387X0.0001*%
%ADD1086R,0.0386X0.0001*%
%ADD1087R,0.0386X0.0001*%
%ADD1088R,0.0385X0.0001*%
%ADD1089R,0.0385X0.0001*%
%ADD1090R,0.0385X0.0001*%
%ADD1091R,0.0384X0.0001*%
%ADD1092R,0.0383X0.0001*%
%ADD1093R,0.0383X0.0001*%
%ADD1094R,0.0383X0.0001*%
%ADD1095R,0.0383X0.0001*%
%ADD1096R,0.0382X0.0001*%
%ADD1097R,0.0382X0.0001*%
%ADD1098R,0.0381X0.0001*%
%ADD1099R,0.0381X0.0001*%
%ADD1100R,0.0380X0.0001*%
%ADD1101R,0.0380X0.0001*%
%ADD1102R,0.0380X0.0001*%
%ADD1103R,0.0379X0.0001*%
%ADD1104R,0.0380X0.0001*%
%ADD1105R,0.0379X0.0001*%
%ADD1106R,0.0377X0.0001*%
%ADD1107R,0.0377X0.0001*%
%ADD1108R,0.0376X0.0001*%
%ADD1109R,0.0376X0.0001*%
%ADD1110R,0.0376X0.0001*%
%ADD1111R,0.0375X0.0001*%
%ADD1112R,0.0376X0.0001*%
%ADD1113R,0.0374X0.0001*%
%ADD1114R,0.0374X0.0001*%
%ADD1115R,0.0374X0.0001*%
%ADD1116R,0.0373X0.0001*%
%ADD1117R,0.0373X0.0001*%
%ADD1118R,0.0372X0.0001*%
%ADD1119R,0.0371X0.0001*%
%ADD1120R,0.0371X0.0001*%
%ADD1121R,0.0370X0.0001*%
%ADD1122R,0.0370X0.0001*%
%ADD1123R,0.0370X0.0001*%
%ADD1124R,0.0370X0.0001*%
%ADD1125R,0.0369X0.0001*%
%ADD1126R,0.0368X0.0001*%
%ADD1127R,0.0368X0.0001*%
%ADD1128R,0.0367X0.0001*%
%ADD1129R,0.0367X0.0001*%
%ADD1130R,0.0366X0.0001*%
%ADD1131R,0.0365X0.0001*%
%ADD1132R,0.0365X0.0001*%
%ADD1133R,0.0364X0.0001*%
%ADD1134R,0.0364X0.0001*%
%ADD1135R,0.0364X0.0001*%
%ADD1136R,0.0363X0.0001*%
%ADD1137R,0.0362X0.0001*%
%ADD1138R,0.0362X0.0001*%
%ADD1139R,0.0362X0.0001*%
%ADD1140R,0.0361X0.0001*%
%ADD1141R,0.0361X0.0001*%
%ADD1142R,0.0361X0.0001*%
%ADD1143R,0.0360X0.0001*%
%ADD1144R,0.0359X0.0001*%
%ADD1145R,0.0359X0.0001*%
%ADD1146R,0.0359X0.0001*%
%ADD1147R,0.0358X0.0001*%
%ADD1148R,0.0358X0.0001*%
%ADD1149R,0.0358X0.0001*%
%ADD1150R,0.0358X0.0001*%
%ADD1151R,0.0357X0.0001*%
%ADD1152R,0.0356X0.0001*%
%ADD1153R,0.0356X0.0001*%
%ADD1154R,0.0356X0.0001*%
%ADD1155R,0.0355X0.0001*%
%ADD1156R,0.0355X0.0001*%
%ADD1157R,0.0355X0.0001*%
%ADD1158R,0.0354X0.0001*%
%ADD1159R,0.0353X0.0001*%
%ADD1160R,0.0353X0.0001*%
%ADD1161R,0.0353X0.0001*%
%ADD1162R,0.0352X0.0001*%
%ADD1163R,0.0352X0.0001*%
%ADD1164R,0.0350X0.0001*%
%ADD1165R,0.0350X0.0001*%
%ADD1166R,0.0349X0.0001*%
%ADD1167R,0.0349X0.0001*%
%ADD1168R,0.0349X0.0001*%
%ADD1169R,0.0348X0.0001*%
%ADD1170R,0.0347X0.0001*%
%ADD1171R,0.0347X0.0001*%
%ADD1172R,0.0347X0.0001*%
%ADD1173R,0.0347X0.0001*%
%ADD1174R,0.0347X0.0001*%
%ADD1175R,0.0346X0.0001*%
%ADD1176R,0.0346X0.0001*%
%ADD1177R,0.0345X0.0001*%
%ADD1178R,0.0345X0.0001*%
%ADD1179R,0.0344X0.0001*%
%ADD1180R,0.0344X0.0001*%
%ADD1181R,0.0343X0.0001*%
%ADD1182R,0.0343X0.0001*%
%ADD1183R,0.0343X0.0001*%
%ADD1184R,0.0342X0.0001*%
%ADD1185R,0.0342X0.0001*%
%ADD1186R,0.0341X0.0001*%
%ADD1187R,0.0341X0.0001*%
%ADD1188R,0.0341X0.0001*%
%ADD1189R,0.0340X0.0001*%
%ADD1190R,0.0340X0.0001*%
%ADD1191R,0.0339X0.0001*%
%ADD1192R,0.0338X0.0001*%
%ADD1193R,0.0338X0.0001*%
%ADD1194R,0.0337X0.0001*%
%ADD1195R,0.0337X0.0001*%
%ADD1196R,0.0337X0.0001*%
%ADD1197R,0.0336X0.0001*%
%ADD1198R,0.0336X0.0001*%
%ADD1199R,0.0335X0.0001*%
%ADD1200R,0.0335X0.0001*%
%ADD1201R,0.0334X0.0001*%
%ADD1202R,0.0334X0.0001*%
%ADD1203R,0.0333X0.0001*%
%ADD1204R,0.0333X0.0001*%
%ADD1205R,0.0332X0.0001*%
%ADD1206R,0.0332X0.0001*%
%ADD1207R,0.0332X0.0001*%
%ADD1208R,0.0331X0.0001*%
%ADD1209R,0.0331X0.0001*%
%ADD1210R,0.0330X0.0001*%
%ADD1211R,0.0330X0.0001*%
%ADD1212R,0.0329X0.0001*%
%ADD1213R,0.0329X0.0001*%
%ADD1214R,0.0329X0.0001*%
%ADD1215R,0.0328X0.0001*%
%ADD1216R,0.0327X0.0001*%
%ADD1217R,0.0326X0.0001*%
%ADD1218R,0.0326X0.0001*%
%ADD1219R,0.0326X0.0001*%
%ADD1220R,0.0326X0.0001*%
%ADD1221R,0.0326X0.0001*%
%ADD1222R,0.0323X0.0001*%
%ADD1223R,0.0323X0.0001*%
%ADD1224R,0.0323X0.0001*%
%ADD1225R,0.0323X0.0001*%
%ADD1226R,0.0323X0.0001*%
%ADD1227R,0.0322X0.0001*%
%ADD1228R,0.0322X0.0001*%
%ADD1229R,0.0321X0.0001*%
%ADD1230R,0.0322X0.0001*%
%ADD1231R,0.0322X0.0001*%
%ADD1232R,0.0320X0.0001*%
%ADD1233R,0.0320X0.0001*%
%ADD1234R,0.0320X0.0001*%
%ADD1235R,0.0319X0.0001*%
%ADD1236R,0.0319X0.0001*%
%ADD1237R,0.0319X0.0001*%
%ADD1238R,0.0318X0.0001*%
%ADD1239R,0.0317X0.0001*%
%ADD1240R,0.0317X0.0001*%
%ADD1241R,0.0317X0.0001*%
%ADD1242R,0.0316X0.0001*%
%ADD1243R,0.0316X0.0001*%
%ADD1244R,0.0315X0.0001*%
%ADD1245R,0.0314X0.0001*%
%ADD1246R,0.0314X0.0001*%
%ADD1247R,0.0314X0.0001*%
%ADD1248R,0.0313X0.0001*%
%ADD1249R,0.0313X0.0001*%
%ADD1250R,0.0312X0.0001*%
%ADD1251R,0.0312X0.0001*%
%ADD1252R,0.0311X0.0001*%
%ADD1253R,0.0311X0.0001*%
%ADD1254R,0.0311X0.0001*%
%ADD1255R,0.0310X0.0001*%
%ADD1256R,0.0309X0.0001*%
%ADD1257R,0.0309X0.0001*%
%ADD1258R,0.0308X0.0001*%
%ADD1259R,0.0308X0.0001*%
%ADD1260R,0.0308X0.0001*%
%ADD1261R,0.0307X0.0001*%
%ADD1262R,0.0307X0.0001*%
%ADD1263R,0.0307X0.0001*%
%ADD1264R,0.0306X0.0001*%
%ADD1265R,0.0305X0.0001*%
%ADD1266R,0.0305X0.0001*%
%ADD1267R,0.0305X0.0001*%
%ADD1268R,0.0304X0.0001*%
%ADD1269R,0.0304X0.0001*%
%ADD1270R,0.0302X0.0001*%
%ADD1271R,0.0302X0.0001*%
%ADD1272R,0.0301X0.0001*%
%ADD1273R,0.0301X0.0001*%
%ADD1274R,0.0300X0.0001*%
%ADD1275R,0.0299X0.0001*%
%ADD1276R,0.0298X0.0001*%
%ADD1277R,0.0298X0.0001*%
%ADD1278R,0.0298X0.0001*%
%ADD1279R,0.0297X0.0001*%
%ADD1280R,0.0296X0.0001*%
%ADD1281R,0.0295X0.0001*%
%ADD1282R,0.0295X0.0001*%
%ADD1283R,0.0294X0.0001*%
%ADD1284R,0.0293X0.0001*%
%ADD1285R,0.0293X0.0001*%
%ADD1286R,0.0292X0.0001*%
%ADD1287R,0.0292X0.0001*%
%ADD1288R,0.0290X0.0001*%
%ADD1289R,0.0288X0.0001*%
%ADD1290R,0.0288X0.0001*%
%ADD1291R,0.0287X0.0001*%
%ADD1292R,0.0287X0.0001*%
%ADD1293R,0.0286X0.0001*%
%ADD1294R,0.0286X0.0001*%
%ADD1295R,0.0285X0.0001*%
%ADD1296R,0.0284X0.0001*%
%ADD1297R,0.0284X0.0001*%
%ADD1298R,0.0283X0.0001*%
%ADD1299R,0.0282X0.0001*%
%ADD1300R,0.0281X0.0001*%
%ADD1301R,0.0280X0.0001*%
%ADD1302R,0.0280X0.0001*%
%ADD1303R,0.0279X0.0001*%
%ADD1304R,0.0278X0.0001*%
%ADD1305R,0.0277X0.0001*%
%ADD1306R,0.0277X0.0001*%
%ADD1307R,0.0275X0.0001*%
%ADD1308R,0.0275X0.0001*%
%ADD1309R,0.0274X0.0001*%
%ADD1310R,0.0275X0.0001*%
%ADD1311R,0.0273X0.0001*%
%ADD1312R,0.0273X0.0001*%
%ADD1313R,0.0272X0.0001*%
%ADD1314R,0.0271X0.0001*%
%ADD1315R,0.0271X0.0001*%
%ADD1316R,0.0270X0.0001*%
%ADD1317R,0.0269X0.0001*%
%ADD1318R,0.0266X0.0001*%
%ADD1319R,0.0265X0.0001*%
%ADD1320R,0.0266X0.0001*%
%ADD1321R,0.0265X0.0001*%
%ADD1322R,0.0263X0.0001*%
%ADD1323R,0.0263X0.0001*%
%ADD1324R,0.0261X0.0001*%
%ADD1325R,0.0261X0.0001*%
%ADD1326R,0.0260X0.0001*%
%ADD1327R,0.0259X0.0001*%
%ADD1328R,0.0259X0.0001*%
%ADD1329R,0.0257X0.0001*%
%ADD1330R,0.0256X0.0001*%
%ADD1331R,0.0256X0.0001*%
%ADD1332R,0.0254X0.0001*%
%ADD1333R,0.0255X0.0001*%
%ADD1334R,0.0254X0.0001*%
%ADD1335R,0.0253X0.0001*%
%ADD1336R,0.0253X0.0001*%
%ADD1337R,0.0253X0.0001*%
%ADD1338R,0.0251X0.0001*%
%ADD1339R,0.0250X0.0001*%
%ADD1340R,0.0250X0.0001*%
%ADD1341R,0.0250X0.0001*%
%ADD1342R,0.0249X0.0001*%
%ADD1343R,0.0248X0.0001*%
%ADD1344R,0.0247X0.0001*%
%ADD1345R,0.0246X0.0001*%
%ADD1346R,0.0246X0.0001*%
%ADD1347R,0.0245X0.0001*%
%ADD1348R,0.0244X0.0001*%
%ADD1349R,0.0242X0.0001*%
%ADD1350R,0.0242X0.0001*%
%ADD1351R,0.0241X0.0001*%
%ADD1352R,0.0241X0.0001*%
%ADD1353R,0.0240X0.0001*%
%ADD1354R,0.0239X0.0001*%
%ADD1355R,0.0238X0.0001*%
%ADD1356R,0.0238X0.0001*%
%ADD1357R,0.0237X0.0001*%
%ADD1358R,0.0236X0.0001*%
%ADD1359R,0.0235X0.0001*%
%ADD1360R,0.0235X0.0001*%
%ADD1361R,0.0235X0.0001*%
%ADD1362R,0.0233X0.0001*%
%ADD1363R,0.0233X0.0001*%
%ADD1364R,0.0232X0.0001*%
%ADD1365R,0.0231X0.0001*%
%ADD1366R,0.0230X0.0001*%
%ADD1367R,0.0229X0.0001*%
%ADD1368R,0.0227X0.0001*%
%ADD1369R,0.0226X0.0001*%
%ADD1370R,0.0226X0.0001*%
%ADD1371R,0.0226X0.0001*%
%ADD1372R,0.0225X0.0001*%
%ADD1373R,0.0224X0.0001*%
%ADD1374R,0.0223X0.0001*%
%ADD1375R,0.0222X0.0001*%
%ADD1376R,0.0220X0.0001*%
%ADD1377R,0.0218X0.0001*%
%ADD1378R,0.0218X0.0001*%
%ADD1379R,0.0218X0.0001*%
%ADD1380R,0.0217X0.0001*%
%ADD1381R,0.0216X0.0001*%
%ADD1382R,0.0214X0.0001*%
%ADD1383R,0.0213X0.0001*%
%ADD1384R,0.0206X0.0001*%
%ADD1385R,0.0204X0.0001*%
%ADD1386R,0.0202X0.0001*%
%ADD1387R,0.0202X0.0001*%
%ADD1388R,0.0202X0.0001*%
%ADD1389R,0.0198X0.0001*%
%ADD1390R,0.0194X0.0001*%
%ADD1391R,0.0194X0.0001*%
%ADD1392R,0.0191X0.0001*%
%ADD1393R,0.0190X0.0001*%
%ADD1394R,0.0189X0.0001*%
%ADD1395R,0.0187X0.0001*%
%ADD1396R,0.0187X0.0001*%
%ADD1397R,0.0187X0.0001*%
%ADD1398R,0.0186X0.0001*%
%ADD1399R,0.0185X0.0001*%
%ADD1400R,0.0184X0.0001*%
%ADD1401R,0.0183X0.0001*%
%ADD1402R,0.0181X0.0001*%
%ADD1403R,0.0179X0.0001*%
%ADD1404R,0.0179X0.0001*%
%ADD1405R,0.0178X0.0001*%
%ADD1406R,0.0177X0.0001*%
%ADD1407R,0.0176X0.0001*%
%ADD1408R,0.0176X0.0001*%
%ADD1409R,0.0175X0.0001*%
%ADD1410R,0.0174X0.0001*%
%ADD1411R,0.0173X0.0001*%
%ADD1412R,0.0172X0.0001*%
%ADD1413R,0.0172X0.0001*%
%ADD1414R,0.0172X0.0001*%
%ADD1415R,0.0171X0.0001*%
%ADD1416R,0.0170X0.0001*%
%ADD1417R,0.0170X0.0001*%
%ADD1418R,0.0169X0.0001*%
%ADD1419R,0.0170X0.0001*%
%ADD1420R,0.0168X0.0001*%
%ADD1421R,0.0168X0.0001*%
%ADD1422R,0.0167X0.0001*%
%ADD1423R,0.0166X0.0001*%
%ADD1424R,0.0165X0.0001*%
%ADD1425R,0.0164X0.0001*%
%ADD1426R,0.0164X0.0001*%
%ADD1427R,0.0164X0.0001*%
%ADD1428R,0.0163X0.0001*%
%ADD1429R,0.0163X0.0001*%
%ADD1430R,0.0163X0.0001*%
%ADD1431R,0.0163X0.0001*%
%ADD1432R,0.0162X0.0001*%
%ADD1433R,0.0160X0.0001*%
%ADD1434R,0.0160X0.0001*%
%ADD1435R,0.0160X0.0001*%
%ADD1436R,0.0158X0.0001*%
%ADD1437R,0.0158X0.0001*%
%ADD1438R,0.0157X0.0001*%
%ADD1439R,0.0157X0.0001*%
%ADD1440R,0.0157X0.0001*%
%ADD1441R,0.0155X0.0001*%
%ADD1442R,0.0155X0.0001*%
%ADD1443R,0.0155X0.0001*%
%ADD1444R,0.0153X0.0001*%
%ADD1445R,0.0152X0.0001*%
%ADD1446R,0.0152X0.0001*%
%ADD1447R,0.0151X0.0001*%
%ADD1448R,0.0149X0.0001*%
%ADD1449R,0.0149X0.0001*%
%ADD1450R,0.0148X0.0001*%
%ADD1451R,0.0147X0.0001*%
%ADD1452R,0.0146X0.0001*%
%ADD1453R,0.0146X0.0001*%
%ADD1454R,0.0146X0.0001*%
%ADD1455R,0.0145X0.0001*%
%ADD1456R,0.0144X0.0001*%
%ADD1457R,0.0143X0.0001*%
%ADD1458R,0.0142X0.0001*%
%ADD1459R,0.0142X0.0001*%
%ADD1460R,0.0142X0.0001*%
%ADD1461R,0.0140X0.0001*%
%ADD1462R,0.0140X0.0001*%
%ADD1463R,0.0138X0.0001*%
%ADD1464R,0.0137X0.0001*%
%ADD1465R,0.0136X0.0001*%
%ADD1466R,0.0134X0.0001*%
%ADD1467R,0.0135X0.0001*%
%ADD1468R,0.0133X0.0001*%
%ADD1469R,0.0133X0.0001*%
%ADD1470R,0.0132X0.0001*%
%ADD1471R,0.0131X0.0001*%
%ADD1472R,0.0130X0.0001*%
%ADD1473R,0.0129X0.0001*%
%ADD1474R,0.0129X0.0001*%
%ADD1475R,0.0128X0.0001*%
%ADD1476R,0.0128X0.0001*%
%ADD1477R,0.0127X0.0001*%
%ADD1478R,0.0127X0.0001*%
%ADD1479R,0.0125X0.0001*%
%ADD1480R,0.0124X0.0001*%
%ADD1481R,0.0122X0.0001*%
%ADD1482R,0.0122X0.0001*%
%ADD1483R,0.0122X0.0001*%
%ADD1484R,0.0121X0.0001*%
%ADD1485R,0.0121X0.0001*%
%ADD1486R,0.0120X0.0001*%
%ADD1487R,0.0119X0.0001*%
%ADD1488R,0.0119X0.0001*%
%ADD1489R,0.0118X0.0001*%
%ADD1490R,0.0118X0.0001*%
%ADD1491R,0.0118X0.0001*%
%ADD1492R,0.0116X0.0001*%
%ADD1493R,0.0116X0.0001*%
%ADD1494R,0.0113X0.0001*%
%ADD1495R,0.0112X0.0001*%
%ADD1496R,0.0111X0.0001*%
%ADD1497R,0.0110X0.0001*%
%ADD1498R,0.0110X0.0001*%
%ADD1499R,0.0110X0.0001*%
%ADD1500R,0.0109X0.0001*%
%ADD1501R,0.0108X0.0001*%
%ADD1502R,0.0107X0.0001*%
%ADD1503R,0.0106X0.0001*%
%ADD1504R,0.0105X0.0001*%
%ADD1505R,0.0103X0.0001*%
%ADD1506R,0.0103X0.0001*%
%ADD1507R,0.0103X0.0001*%
%ADD1508R,0.0103X0.0001*%
%ADD1509R,0.0101X0.0001*%
%ADD1510R,0.0101X0.0001*%
%ADD1511R,0.0101X0.0001*%
%ADD1512R,0.0100X0.0001*%
%ADD1513R,0.0100X0.0001*%
%ADD1514R,0.0100X0.0001*%
%ADD1515R,0.0096X0.0001*%
%ADD1516R,0.0095X0.0001*%
%ADD1517R,0.0095X0.0001*%
%ADD1518R,0.0094X0.0001*%
%ADD1519R,0.0092X0.0001*%
%ADD1520R,0.0091X0.0001*%
%ADD1521R,0.0091X0.0001*%
%ADD1522R,0.0091X0.0001*%
%ADD1523R,0.0091X0.0001*%
%ADD1524R,0.0089X0.0001*%
%ADD1525R,0.0089X0.0001*%
%ADD1526R,0.0089X0.0001*%
%ADD1527R,0.0087X0.0001*%
%ADD1528R,0.0085X0.0001*%
%ADD1529R,0.0085X0.0001*%
%ADD1530R,0.0085X0.0001*%
%ADD1531R,0.0083X0.0001*%
%ADD1532R,0.0083X0.0001*%
%ADD1533R,0.0082X0.0001*%
%ADD1534R,0.0081X0.0001*%
%ADD1535R,0.0081X0.0001*%
%ADD1536R,0.0080X0.0001*%
%ADD1537R,0.0080X0.0001*%
%ADD1538R,0.0079X0.0001*%
%ADD1539R,0.0079X0.0001*%
%ADD1540R,0.0078X0.0001*%
%ADD1541R,0.0078X0.0001*%
%ADD1542R,0.0077X0.0001*%
%ADD1543R,0.0077X0.0001*%
%ADD1544R,0.0077X0.0001*%
%ADD1545R,0.0076X0.0001*%
%ADD1546R,0.0075X0.0001*%
%ADD1547R,0.0076X0.0001*%
%ADD1548R,0.0074X0.0001*%
%ADD1549R,0.0074X0.0001*%
%ADD1550R,0.0074X0.0001*%
%ADD1551R,0.0073X0.0001*%
%ADD1552R,0.0072X0.0001*%
%ADD1553R,0.0070X0.0001*%
%ADD1554R,0.0069X0.0001*%
%ADD1555R,0.0068X0.0001*%
%ADD1556R,0.0068X0.0001*%
%ADD1557R,0.0066X0.0001*%
%ADD1558R,0.0065X0.0001*%
%ADD1559R,0.0065X0.0001*%
%ADD1560R,0.0065X0.0001*%
%ADD1561R,0.0065X0.0001*%
%ADD1562R,0.0063X0.0001*%
%ADD1563R,0.0062X0.0001*%
%ADD1564R,0.0061X0.0001*%
%ADD1565R,0.0061X0.0001*%
%ADD1566R,0.0061X0.0001*%
%ADD1567R,0.0060X0.0001*%
%ADD1568R,0.0059X0.0001*%
%ADD1569R,0.0059X0.0001*%
%ADD1570R,0.0058X0.0001*%
%ADD1571R,0.0056X0.0001*%
%ADD1572R,0.0055X0.0001*%
%ADD1573R,0.0053X0.0001*%
%ADD1574R,0.0053X0.0001*%
%ADD1575R,0.0052X0.0001*%
%ADD1576R,0.0052X0.0001*%
%ADD1577R,0.0052X0.0001*%
%ADD1578R,0.0052X0.0001*%
%ADD1579R,0.0051X0.0001*%
%ADD1580R,0.0051X0.0001*%
%ADD1581R,0.0049X0.0001*%
%ADD1582R,0.0048X0.0001*%
%ADD1583R,0.0047X0.0001*%
%ADD1584R,0.0046X0.0001*%
%ADD1585R,0.0046X0.0001*%
%ADD1586R,0.0040X0.0001*%
%ADD1587R,0.0038X0.0001*%
%ADD1588R,0.0035X0.0001*%
%ADD1589R,0.0028X0.0001*%
%ADD1590R,0.0026X0.0001*%
%ADD1591R,0.0014X0.0001*%
%ADD1592R,0.0011X0.0001*%
%ADD1593R,0.0006X0.0001*%
D10*
X001630Y007195D03*
X002080Y007275D03*
X001480Y007795D03*
D11*
X001700Y007980D03*
X001810Y007810D03*
X001920Y007640D03*
X002090Y007600D03*
X001730Y007140D03*
X001640Y007190D03*
X001520Y007270D03*
X001480Y007170D03*
X001480Y007420D03*
D12*
X001560Y007255D03*
X001590Y007095D03*
X001640Y007105D03*
X001650Y007105D03*
X001550Y007035D03*
X001490Y007945D03*
D13*
X001540Y007895D03*
X001490Y007775D03*
X001640Y007545D03*
X001660Y007535D03*
X001670Y007525D03*
X001690Y007515D03*
X001710Y007505D03*
X001860Y007645D03*
X001880Y007635D03*
X001900Y007625D03*
X002020Y007585D03*
X002040Y007595D03*
X002050Y007605D03*
X002060Y007605D03*
X002070Y007615D03*
X001900Y007335D03*
X001600Y007205D03*
X001540Y007145D03*
X001550Y007135D03*
X001560Y007125D03*
X001530Y007155D03*
X001600Y007095D03*
X001500Y007425D03*
X001680Y007725D03*
D14*
X001490Y007420D03*
X001530Y007270D03*
X001490Y007170D03*
X001620Y007200D03*
X002000Y007590D03*
D15*
X001650Y007675D03*
X001640Y007655D03*
X001560Y007645D03*
X001600Y007575D03*
X001570Y007515D03*
X001550Y007485D03*
X001540Y007465D03*
X001530Y007445D03*
X001520Y007435D03*
X001590Y007235D03*
X001540Y007015D03*
X001500Y007935D03*
D16*
X001500Y007770D03*
X001570Y007630D03*
X001670Y007720D03*
X001570Y007250D03*
X001580Y007240D03*
X001580Y007090D03*
D17*
X001610Y007100D03*
X001620Y007100D03*
X001670Y007080D03*
X001680Y007080D03*
X001730Y007070D03*
X001710Y007150D03*
X001680Y007140D03*
X001610Y007200D03*
X001540Y007270D03*
X001500Y007170D03*
X001700Y007510D03*
X001720Y007500D03*
X001730Y007500D03*
X001740Y007490D03*
X001750Y007490D03*
X001760Y007490D03*
X001680Y007520D03*
X001760Y007690D03*
X001740Y007700D03*
X001720Y007710D03*
X001710Y007720D03*
X001700Y007720D03*
X001690Y007730D03*
X001820Y007660D03*
X001830Y007660D03*
X001840Y007650D03*
X001850Y007650D03*
X001870Y007640D03*
X001890Y007630D03*
X001910Y007630D03*
X001910Y007750D03*
X001920Y007750D03*
X001930Y007750D03*
X001940Y007750D03*
X001900Y007750D03*
X001890Y007750D03*
X001890Y007890D03*
X001900Y007890D03*
X001910Y007890D03*
X001880Y007890D03*
X001870Y007890D03*
X001860Y007890D03*
X001850Y007890D03*
X001840Y007890D03*
X001830Y007890D03*
X001820Y007890D03*
X001810Y007890D03*
X001800Y007890D03*
X001720Y007890D03*
X001710Y007890D03*
X001700Y007890D03*
X001690Y007890D03*
X001680Y007890D03*
X001670Y007890D03*
X001660Y007890D03*
X001650Y007890D03*
X001640Y007890D03*
X001630Y007890D03*
X001620Y007890D03*
X001610Y007890D03*
X001600Y007890D03*
X001590Y007890D03*
X001580Y007890D03*
X001570Y007890D03*
X001560Y007890D03*
X001550Y007890D03*
X001890Y007420D03*
X001900Y007420D03*
X001910Y007420D03*
X001920Y007420D03*
X001930Y007420D03*
X001940Y007420D03*
X001890Y007340D03*
X001910Y007330D03*
X001920Y007320D03*
X001930Y007320D03*
X001950Y007310D03*
X002000Y007290D03*
X002030Y007280D03*
X002060Y007270D03*
X001960Y007080D03*
X001980Y007070D03*
X001940Y007090D03*
X001920Y007100D03*
X001900Y007110D03*
X001880Y007120D03*
X001860Y007130D03*
X001840Y007140D03*
X002030Y007590D03*
X002030Y007890D03*
X002040Y007890D03*
X002050Y007890D03*
X002060Y007890D03*
X002070Y007890D03*
X002080Y007890D03*
X002020Y007890D03*
X002010Y007890D03*
X002000Y007890D03*
X001990Y007890D03*
X001980Y007890D03*
X001970Y007890D03*
D18*
X001500Y006865D03*
D19*
X001800Y007105D03*
X001810Y007105D03*
X001820Y007105D03*
X001830Y007105D03*
X001990Y007105D03*
X002000Y007105D03*
X002010Y007105D03*
X002020Y007105D03*
X001510Y007755D03*
X001510Y007935D03*
X001770Y007865D03*
D20*
X001720Y007960D03*
X001650Y007540D03*
X001510Y007430D03*
X001550Y007270D03*
X001510Y007170D03*
X001520Y007160D03*
X001560Y007050D03*
X001630Y007100D03*
D21*
X001630Y006905D03*
X001640Y006905D03*
X001650Y006905D03*
X001660Y006905D03*
X001510Y006875D03*
D22*
X001540Y007490D03*
X001590Y007570D03*
X001620Y007600D03*
X001530Y007930D03*
X001520Y007930D03*
X001730Y007930D03*
X001740Y007930D03*
D23*
X001520Y007745D03*
X001630Y007605D03*
D24*
X001520Y006890D03*
D25*
X001850Y007250D03*
X001860Y007250D03*
X001960Y007250D03*
X001970Y007250D03*
X001530Y007720D03*
D26*
X001530Y006890D03*
D27*
X001570Y007090D03*
X001560Y007500D03*
X001610Y007590D03*
X001550Y007670D03*
X001660Y007700D03*
X001780Y007860D03*
X001790Y007860D03*
D28*
X001800Y007825D03*
X001730Y007705D03*
X001750Y007695D03*
X002010Y007585D03*
X002080Y007605D03*
X001940Y007315D03*
X002010Y007285D03*
X002020Y007285D03*
X002040Y007275D03*
X002050Y007275D03*
X002070Y007265D03*
X001970Y007075D03*
X001950Y007085D03*
X001930Y007095D03*
X001910Y007105D03*
X001890Y007115D03*
X001870Y007125D03*
X001850Y007135D03*
X001790Y007065D03*
X001780Y007065D03*
X001770Y007065D03*
X001760Y007065D03*
X001750Y007065D03*
X001740Y007065D03*
X001720Y007075D03*
X001710Y007075D03*
X001700Y007075D03*
X001690Y007075D03*
X001660Y007085D03*
X001660Y007135D03*
X001670Y007135D03*
X001690Y007145D03*
X001700Y007145D03*
X001720Y007155D03*
X001720Y007265D03*
X001730Y007265D03*
X001710Y007265D03*
X001700Y007265D03*
X001690Y007265D03*
X001680Y007265D03*
X001670Y007265D03*
X001660Y007265D03*
X001650Y007265D03*
X001640Y007265D03*
X001630Y007265D03*
X001620Y007265D03*
X001610Y007265D03*
X001600Y007265D03*
X001780Y007265D03*
X001790Y007265D03*
X001800Y007265D03*
X001810Y007265D03*
X001820Y007265D03*
X001830Y007265D03*
X001840Y007265D03*
X001850Y006915D03*
X001860Y006915D03*
X001870Y006915D03*
X001880Y006915D03*
X001890Y006915D03*
X001940Y006915D03*
X001950Y006915D03*
X001960Y006915D03*
X001970Y006915D03*
X001980Y006915D03*
X002030Y006915D03*
X002040Y006915D03*
X002050Y006915D03*
X002060Y006915D03*
X002070Y006915D03*
X002080Y006915D03*
X001980Y006805D03*
X001970Y006805D03*
X001960Y006805D03*
X001950Y006805D03*
X001940Y006805D03*
X001890Y006805D03*
X001880Y006805D03*
X001870Y006805D03*
X001860Y006805D03*
X001850Y006805D03*
X001800Y006805D03*
X001790Y006805D03*
X001790Y006915D03*
X001800Y006915D03*
X001780Y006915D03*
X001770Y006915D03*
X001760Y006915D03*
X001710Y006915D03*
X001700Y006915D03*
X001690Y006915D03*
X001680Y006915D03*
X001670Y006915D03*
X001620Y006915D03*
X001610Y006915D03*
X001600Y006915D03*
X001590Y006915D03*
X001580Y006915D03*
X001570Y006915D03*
X001560Y006915D03*
X001710Y007975D03*
D29*
X001580Y007570D03*
X001870Y007260D03*
D30*
X001750Y006905D03*
X001740Y006905D03*
X001730Y006905D03*
X001720Y006905D03*
X001990Y006905D03*
X002000Y006905D03*
X002010Y006905D03*
X002020Y006905D03*
D31*
X001770Y007255D03*
X001760Y007255D03*
X001750Y007255D03*
X001740Y007255D03*
D32*
X001980Y007245D03*
X001990Y007245D03*
X001760Y007885D03*
X001750Y007915D03*
D33*
X001770Y007585D03*
X001780Y007585D03*
X001790Y007585D03*
X001800Y007585D03*
X001810Y007585D03*
D34*
X001810Y006900D03*
X001820Y006900D03*
X001830Y006900D03*
X001840Y006900D03*
D35*
X001880Y007265D03*
D36*
X001900Y006895D03*
X001910Y006895D03*
X001920Y006895D03*
X001930Y006895D03*
D37*
X001930Y007890D03*
X001940Y007890D03*
X001950Y007890D03*
X001960Y007890D03*
X001920Y007890D03*
D38*
X001950Y007585D03*
X001960Y007585D03*
X001970Y007585D03*
X001980Y007585D03*
X001990Y007585D03*
D39*
X002575Y007978D02*
X002575Y008175D01*
X002578Y008180D02*
X005722Y008180D01*
X005725Y008175D02*
X005725Y007978D01*
X005725Y007191D02*
X005725Y006009D01*
X005725Y005222D02*
X005725Y005025D01*
X005722Y005020D02*
X002578Y005020D01*
X002575Y005025D02*
X002575Y005222D01*
X002575Y006009D02*
X002575Y007191D01*
X002170Y004330D02*
X003170Y004330D01*
X003170Y004080D01*
X002170Y004080D01*
X002170Y004330D01*
X002170Y004080D02*
X002170Y002080D01*
X006170Y002080D01*
X006170Y004080D01*
X006170Y004330D01*
X005170Y004330D01*
X005170Y004080D01*
X003170Y004080D01*
X001900Y003850D02*
X001900Y002750D01*
X001400Y002750D01*
X001400Y003850D01*
X001900Y003850D01*
X005170Y004080D02*
X006170Y004080D01*
D40*
X005041Y006001D02*
X004848Y006001D01*
X005041Y006194D01*
X005041Y006242D01*
X004993Y006291D01*
X004896Y006291D01*
X004848Y006242D01*
X004747Y006291D02*
X004747Y006001D01*
X004650Y006097D01*
X004553Y006001D01*
X004553Y006291D01*
X004452Y006242D02*
X004404Y006291D01*
X004307Y006291D01*
X004259Y006242D01*
X004259Y006194D01*
X004307Y006146D01*
X004404Y006146D01*
X004452Y006097D01*
X004452Y006049D01*
X004404Y006001D01*
X004307Y006001D01*
X004259Y006049D01*
X001795Y002435D02*
X001722Y002435D01*
X001685Y002398D01*
X001601Y002398D02*
X001601Y002325D01*
X001565Y002288D01*
X001455Y002288D01*
X001455Y002215D02*
X001455Y002435D01*
X001565Y002435D01*
X001601Y002398D01*
X001528Y002288D02*
X001601Y002215D01*
X001685Y002215D02*
X001832Y002362D01*
X001832Y002398D01*
X001795Y002435D01*
X001832Y002215D02*
X001685Y002215D01*
D41*
X002181Y001263D02*
X000528Y001263D01*
X000495Y001265D01*
X000463Y001270D01*
X000431Y001278D01*
X000400Y001290D01*
X000371Y001305D01*
X000343Y001323D01*
X000317Y001344D01*
X000294Y001367D01*
X000273Y001393D01*
X000255Y001420D01*
X000240Y001450D01*
X000228Y001481D01*
X000220Y001513D01*
X000215Y001545D01*
X000213Y001578D01*
X000213Y002917D01*
X000213Y004019D01*
X000213Y004334D01*
X000214Y004344D01*
X000218Y004354D01*
X000224Y004362D01*
X000233Y004368D01*
X000242Y004372D01*
X000252Y004373D01*
X000213Y004019D02*
X000213Y003940D01*
X000213Y003310D02*
X000213Y002917D01*
X000252Y004374D02*
X000306Y004376D01*
X000359Y004381D01*
X000412Y004390D01*
X000464Y004403D01*
X000516Y004419D01*
X000566Y004439D01*
X000614Y004462D01*
X000661Y004489D01*
X000706Y004518D01*
X000749Y004551D01*
X000789Y004586D01*
X000827Y004624D01*
X000862Y004664D01*
X000895Y004707D01*
X000924Y004752D01*
X000951Y004799D01*
X000974Y004847D01*
X000994Y004897D01*
X001010Y004949D01*
X001023Y005001D01*
X001032Y005054D01*
X001037Y005107D01*
X001039Y005161D01*
X001040Y005161D02*
X001040Y005200D01*
X001040Y005239D01*
X001039Y005239D02*
X001037Y005293D01*
X001032Y005346D01*
X001023Y005399D01*
X001010Y005451D01*
X000994Y005503D01*
X000974Y005553D01*
X000951Y005601D01*
X000924Y005648D01*
X000895Y005693D01*
X000862Y005736D01*
X000827Y005776D01*
X000789Y005814D01*
X000749Y005849D01*
X000706Y005882D01*
X000661Y005911D01*
X000614Y005938D01*
X000566Y005961D01*
X000516Y005981D01*
X000464Y005997D01*
X000412Y006010D01*
X000359Y006019D01*
X000306Y006024D01*
X000252Y006026D01*
X000252Y006027D02*
X000242Y006028D01*
X000233Y006032D01*
X000224Y006038D01*
X000218Y006047D01*
X000214Y006056D01*
X000213Y006066D01*
X000213Y006342D01*
X000213Y007090D01*
X000213Y008822D01*
X000215Y008855D01*
X000220Y008887D01*
X000228Y008919D01*
X000240Y008950D01*
X000255Y008980D01*
X000273Y009007D01*
X000294Y009033D01*
X000317Y009056D01*
X000343Y009077D01*
X000371Y009095D01*
X000400Y009110D01*
X000431Y009122D01*
X000463Y009130D01*
X000495Y009135D01*
X000528Y009137D01*
X002260Y009137D01*
X002969Y009137D01*
X003284Y009137D01*
X003294Y009138D01*
X003304Y009142D01*
X003312Y009148D01*
X003318Y009157D01*
X003322Y009166D01*
X003323Y009176D01*
X002969Y009137D02*
X002890Y009137D01*
X003324Y009176D02*
X003326Y009230D01*
X003331Y009283D01*
X003340Y009336D01*
X003353Y009388D01*
X003369Y009440D01*
X003389Y009490D01*
X003412Y009538D01*
X003439Y009585D01*
X003468Y009630D01*
X003501Y009673D01*
X003536Y009713D01*
X003574Y009751D01*
X003614Y009786D01*
X003657Y009819D01*
X003702Y009848D01*
X003749Y009875D01*
X003797Y009898D01*
X003847Y009918D01*
X003899Y009934D01*
X003951Y009947D01*
X004004Y009956D01*
X004057Y009961D01*
X004111Y009963D01*
X004111Y009964D02*
X004189Y009964D01*
X004189Y009963D02*
X004243Y009961D01*
X004296Y009956D01*
X004349Y009947D01*
X004401Y009934D01*
X004453Y009918D01*
X004503Y009898D01*
X004551Y009875D01*
X004598Y009848D01*
X004643Y009819D01*
X004686Y009786D01*
X004726Y009751D01*
X004764Y009713D01*
X004799Y009673D01*
X004832Y009630D01*
X004861Y009585D01*
X004888Y009538D01*
X004911Y009490D01*
X004931Y009440D01*
X004947Y009388D01*
X004960Y009336D01*
X004969Y009283D01*
X004974Y009230D01*
X004976Y009176D01*
X004977Y009176D02*
X004978Y009166D01*
X004982Y009157D01*
X004988Y009148D01*
X004997Y009142D01*
X005006Y009138D01*
X005016Y009137D01*
X005174Y009137D01*
X005410Y009137D01*
X006119Y009137D01*
X007772Y009137D01*
X007805Y009135D01*
X007837Y009130D01*
X007869Y009122D01*
X007900Y009110D01*
X007930Y009095D01*
X007957Y009077D01*
X007983Y009056D01*
X008006Y009033D01*
X008027Y009007D01*
X008045Y008980D01*
X008060Y008950D01*
X008072Y008919D01*
X008080Y008887D01*
X008085Y008855D01*
X008087Y008822D01*
X008087Y007720D01*
X008087Y006145D01*
X008087Y006066D01*
X008086Y006056D01*
X008082Y006047D01*
X008076Y006038D01*
X008068Y006032D01*
X008058Y006028D01*
X008048Y006027D01*
X008087Y006145D02*
X008087Y006460D01*
X008087Y007090D02*
X008087Y007720D01*
X006119Y009137D02*
X006040Y009137D01*
X005174Y009137D02*
X005016Y009137D01*
X003717Y009137D02*
X003719Y009178D01*
X003725Y009219D01*
X003735Y009259D01*
X003748Y009298D01*
X003765Y009335D01*
X003786Y009371D01*
X003810Y009405D01*
X003837Y009436D01*
X003866Y009464D01*
X003899Y009490D01*
X003933Y009512D01*
X003970Y009531D01*
X004008Y009546D01*
X004048Y009558D01*
X004088Y009566D01*
X004129Y009570D01*
X004171Y009570D01*
X004212Y009566D01*
X004252Y009558D01*
X004292Y009546D01*
X004330Y009531D01*
X004366Y009512D01*
X004401Y009490D01*
X004434Y009464D01*
X004463Y009436D01*
X004490Y009405D01*
X004514Y009371D01*
X004535Y009335D01*
X004552Y009298D01*
X004565Y009259D01*
X004575Y009219D01*
X004581Y009178D01*
X004583Y009137D01*
X004581Y009096D01*
X004575Y009055D01*
X004565Y009015D01*
X004552Y008976D01*
X004535Y008939D01*
X004514Y008903D01*
X004490Y008869D01*
X004463Y008838D01*
X004434Y008810D01*
X004401Y008784D01*
X004367Y008762D01*
X004330Y008743D01*
X004292Y008728D01*
X004252Y008716D01*
X004212Y008708D01*
X004171Y008704D01*
X004129Y008704D01*
X004088Y008708D01*
X004048Y008716D01*
X004008Y008728D01*
X003970Y008743D01*
X003934Y008762D01*
X003899Y008784D01*
X003866Y008810D01*
X003837Y008838D01*
X003810Y008869D01*
X003786Y008903D01*
X003765Y008939D01*
X003748Y008976D01*
X003735Y009015D01*
X003725Y009055D01*
X003719Y009096D01*
X003717Y009137D01*
X006100Y005798D02*
X006100Y005798D01*
X006100Y005798D01*
X006100Y005797D01*
X006100Y005798D02*
X006101Y005798D01*
X006101Y005798D01*
X006101Y005798D01*
X006101Y005798D01*
X006101Y005798D01*
X006101Y005798D01*
X006101Y005797D02*
X006101Y005797D01*
X006101Y005797D01*
X006101Y005797D01*
X006101Y005797D01*
X006102Y005797D02*
X006102Y005798D01*
X006103Y005798D02*
X006104Y005797D01*
X006104Y005798D01*
X006104Y005798D01*
X006104Y005798D01*
X006104Y005798D01*
X006104Y005797D01*
X006105Y005798D02*
X006105Y005797D01*
X006105Y005797D01*
X006106Y005797D01*
X006106Y005798D01*
X006106Y005797D01*
X006107Y005798D01*
X006108Y005798D01*
X006108Y005797D01*
X006108Y005798D01*
X006108Y005797D01*
X006107Y005797D01*
X006107Y005797D01*
X006107Y005798D01*
X006107Y005798D01*
X006108Y005797D02*
X006107Y005797D01*
X006106Y005797D01*
X006105Y005797D01*
X006105Y005797D01*
X006104Y005798D02*
X006105Y005798D01*
X006106Y005798D01*
X006106Y005798D01*
X006108Y005798D02*
X006108Y005798D01*
X006109Y005798D01*
X006109Y005797D02*
X006110Y005798D01*
X006111Y005797D01*
X006111Y005798D01*
X006110Y005797D01*
X006111Y005798D02*
X006112Y005798D01*
X006112Y005797D01*
X006112Y005798D01*
X006112Y005798D01*
X006113Y005798D01*
X006113Y005797D01*
X006113Y005798D01*
X006113Y005798D01*
X006112Y005798D01*
X006113Y005797D02*
X006114Y005798D01*
X006114Y005797D01*
X006115Y005797D02*
X006115Y005797D01*
X006115Y005798D01*
X006115Y005798D01*
X006115Y005798D01*
X006116Y005798D02*
X006116Y005798D01*
X006116Y005798D01*
X006116Y005797D01*
X006116Y005797D01*
X006116Y005797D01*
X006116Y005798D01*
X006116Y005798D01*
X006117Y005797D02*
X006117Y005797D01*
X006117Y005797D01*
X006117Y005797D01*
X006117Y005797D01*
X006118Y005797D01*
X006118Y005797D01*
X006118Y005798D01*
X006117Y005798D01*
X006117Y005797D01*
X006118Y005798D02*
X006118Y005798D01*
X006119Y005798D01*
X006119Y005798D01*
X006119Y005798D01*
X006119Y005797D01*
X006119Y005798D01*
X006119Y005798D01*
X006120Y005798D01*
X006120Y005798D01*
X006120Y005797D01*
X006119Y005797D01*
X006118Y005797D02*
X006118Y005798D01*
X006119Y005797D02*
X006119Y005798D01*
X006120Y005797D02*
X006120Y005797D01*
X006104Y005798D02*
X006103Y005797D01*
X007260Y005200D02*
X007260Y005161D01*
X007261Y005161D02*
X007263Y005107D01*
X007268Y005054D01*
X007277Y005001D01*
X007290Y004949D01*
X007306Y004897D01*
X007326Y004847D01*
X007349Y004799D01*
X007376Y004752D01*
X007405Y004707D01*
X007438Y004664D01*
X007473Y004624D01*
X007511Y004586D01*
X007551Y004551D01*
X007594Y004518D01*
X007639Y004489D01*
X007686Y004462D01*
X007734Y004439D01*
X007784Y004419D01*
X007836Y004403D01*
X007888Y004390D01*
X007941Y004381D01*
X007994Y004376D01*
X008048Y004374D01*
X008060Y004371D01*
X008071Y004365D01*
X008079Y004357D01*
X008085Y004346D01*
X008088Y004334D01*
X008087Y004334D02*
X008087Y004255D01*
X008087Y003940D01*
X008087Y003074D01*
X008087Y003310D01*
X008087Y003074D02*
X008087Y001578D01*
X008085Y001545D01*
X008080Y001513D01*
X008072Y001481D01*
X008060Y001450D01*
X008045Y001420D01*
X008027Y001393D01*
X008006Y001367D01*
X007983Y001344D01*
X007957Y001323D01*
X007930Y001305D01*
X007900Y001290D01*
X007869Y001278D01*
X007837Y001270D01*
X007805Y001265D01*
X007772Y001263D01*
X006197Y001263D01*
X005331Y001263D01*
X005410Y001263D01*
X005331Y001263D02*
X005134Y001263D01*
X005016Y001263D01*
X005134Y001263D01*
X005016Y001263D02*
X005004Y001260D01*
X004993Y001254D01*
X004985Y001246D01*
X004979Y001235D01*
X004976Y001223D01*
X004976Y001224D02*
X004974Y001170D01*
X004969Y001117D01*
X004960Y001064D01*
X004947Y001012D01*
X004931Y000960D01*
X004911Y000910D01*
X004888Y000862D01*
X004861Y000815D01*
X004832Y000770D01*
X004799Y000727D01*
X004764Y000687D01*
X004726Y000649D01*
X004686Y000614D01*
X004643Y000581D01*
X004598Y000552D01*
X004551Y000525D01*
X004503Y000502D01*
X004453Y000482D01*
X004401Y000466D01*
X004349Y000453D01*
X004296Y000444D01*
X004243Y000439D01*
X004189Y000437D01*
X004189Y000436D02*
X004150Y000436D01*
X004111Y000436D01*
X004111Y000437D02*
X004057Y000439D01*
X004004Y000444D01*
X003951Y000453D01*
X003899Y000466D01*
X003847Y000482D01*
X003797Y000502D01*
X003749Y000525D01*
X003702Y000552D01*
X003657Y000581D01*
X003614Y000614D01*
X003574Y000649D01*
X003536Y000687D01*
X003501Y000727D01*
X003468Y000770D01*
X003439Y000815D01*
X003412Y000862D01*
X003389Y000910D01*
X003369Y000960D01*
X003353Y001012D01*
X003340Y001064D01*
X003331Y001117D01*
X003326Y001170D01*
X003324Y001224D01*
X003323Y001224D02*
X003322Y001234D01*
X003318Y001244D01*
X003312Y001252D01*
X003304Y001258D01*
X003294Y001262D01*
X003284Y001263D01*
X002930Y001263D01*
X002181Y001263D01*
X002260Y001263D01*
X002890Y001263D02*
X002930Y001263D01*
X003717Y001263D02*
X003719Y001304D01*
X003725Y001345D01*
X003735Y001385D01*
X003748Y001424D01*
X003765Y001461D01*
X003786Y001497D01*
X003810Y001531D01*
X003837Y001562D01*
X003866Y001590D01*
X003899Y001616D01*
X003933Y001638D01*
X003970Y001657D01*
X004008Y001672D01*
X004048Y001684D01*
X004088Y001692D01*
X004129Y001696D01*
X004171Y001696D01*
X004212Y001692D01*
X004252Y001684D01*
X004292Y001672D01*
X004330Y001657D01*
X004366Y001638D01*
X004401Y001616D01*
X004434Y001590D01*
X004463Y001562D01*
X004490Y001531D01*
X004514Y001497D01*
X004535Y001461D01*
X004552Y001424D01*
X004565Y001385D01*
X004575Y001345D01*
X004581Y001304D01*
X004583Y001263D01*
X004581Y001222D01*
X004575Y001181D01*
X004565Y001141D01*
X004552Y001102D01*
X004535Y001065D01*
X004514Y001029D01*
X004490Y000995D01*
X004463Y000964D01*
X004434Y000936D01*
X004401Y000910D01*
X004367Y000888D01*
X004330Y000869D01*
X004292Y000854D01*
X004252Y000842D01*
X004212Y000834D01*
X004171Y000830D01*
X004129Y000830D01*
X004088Y000834D01*
X004048Y000842D01*
X004008Y000854D01*
X003970Y000869D01*
X003934Y000888D01*
X003899Y000910D01*
X003866Y000936D01*
X003837Y000964D01*
X003810Y000995D01*
X003786Y001029D01*
X003765Y001065D01*
X003748Y001102D01*
X003735Y001141D01*
X003725Y001181D01*
X003719Y001222D01*
X003717Y001263D01*
X006040Y001263D02*
X006197Y001263D01*
X008087Y004255D02*
X008087Y004334D01*
X007261Y005200D02*
X007260Y005255D01*
X007263Y005310D01*
X007270Y005365D01*
X007281Y005420D01*
X007296Y005473D01*
X007314Y005526D01*
X007336Y005577D01*
X007362Y005626D01*
X007391Y005673D01*
X007423Y005718D01*
X007459Y005761D01*
X007497Y005801D01*
X007538Y005839D01*
X007581Y005873D01*
X007627Y005904D01*
X007675Y005932D01*
X007725Y005957D01*
X007776Y005978D01*
X007829Y005995D01*
X007883Y006008D01*
X007937Y006018D01*
X007993Y006024D01*
X008048Y006026D01*
X000213Y006342D02*
X000213Y006460D01*
D42*
X002190Y002060D02*
X002190Y001600D01*
X002190Y001830D02*
X002497Y001830D01*
X002650Y001907D02*
X002804Y002060D01*
X002804Y001600D01*
X002957Y001600D02*
X002650Y001600D01*
X002497Y001600D02*
X002497Y002060D01*
D43*
X006536Y007485D02*
X006685Y007606D01*
X006745Y007575D01*
X006829Y007779D01*
X006792Y007801D01*
X006760Y007830D01*
X006736Y007866D01*
X006721Y007907D01*
X006715Y007950D01*
X006721Y007994D01*
X006736Y008035D01*
X006761Y008072D01*
X006794Y008101D01*
X006833Y008122D01*
X006876Y008133D01*
X006920Y008133D01*
X006963Y008123D01*
X007002Y008103D01*
X007036Y008075D01*
X007062Y008039D01*
X007078Y007998D01*
X007084Y007954D01*
X007080Y007910D01*
X007065Y007868D01*
X007041Y007831D01*
X007009Y007801D01*
X006971Y007779D01*
X007055Y007575D01*
X007115Y007606D01*
X007264Y007485D01*
X007365Y007586D01*
X007244Y007735D01*
X007275Y007795D01*
X007296Y007859D01*
X007486Y007878D01*
X007486Y008022D01*
X007296Y008041D01*
X007275Y008105D01*
X007244Y008165D01*
X007365Y008314D01*
X007264Y008415D01*
X007115Y008294D01*
X007055Y008325D01*
X006991Y008346D01*
X006972Y008536D01*
X006828Y008536D01*
X006809Y008346D01*
X006745Y008325D01*
X006685Y008294D01*
X006536Y008415D01*
X006435Y008314D01*
X006556Y008165D01*
X006525Y008105D01*
X006504Y008041D01*
X006314Y008022D01*
X006314Y007878D01*
X006504Y007859D01*
X006525Y007795D01*
X006556Y007735D01*
X006435Y007586D01*
X006536Y007485D01*
X006512Y007510D02*
X006567Y007510D01*
X006638Y007567D02*
X006454Y007567D01*
X006466Y007625D02*
X006765Y007625D01*
X006789Y007682D02*
X006513Y007682D01*
X006553Y007740D02*
X006813Y007740D01*
X006798Y007797D02*
X006524Y007797D01*
X006506Y007855D02*
X006743Y007855D01*
X006720Y007912D02*
X006314Y007912D01*
X006314Y007970D02*
X006718Y007970D01*
X006733Y008028D02*
X006369Y008028D01*
X006518Y008085D02*
X006776Y008085D01*
X006726Y008315D02*
X007074Y008315D01*
X007141Y008315D02*
X007364Y008315D01*
X007320Y008258D02*
X006480Y008258D01*
X006436Y008315D02*
X006659Y008315D01*
X006589Y008373D02*
X006494Y008373D01*
X006527Y008200D02*
X007273Y008200D01*
X007256Y008143D02*
X006544Y008143D01*
X006811Y008373D02*
X006989Y008373D01*
X006983Y008430D02*
X006817Y008430D01*
X006823Y008488D02*
X006977Y008488D01*
X007211Y008373D02*
X007306Y008373D01*
X007282Y008085D02*
X007024Y008085D01*
X007066Y008028D02*
X007431Y008028D01*
X007486Y007970D02*
X007082Y007970D01*
X007080Y007912D02*
X007486Y007912D01*
X007334Y007625D02*
X007035Y007625D01*
X007011Y007682D02*
X007287Y007682D01*
X007247Y007740D02*
X006987Y007740D01*
X007002Y007797D02*
X007276Y007797D01*
X007294Y007855D02*
X007057Y007855D01*
X007162Y007567D02*
X007346Y007567D01*
X007288Y007510D02*
X007233Y007510D01*
D44*
X007328Y007104D03*
X007327Y007103D03*
X006881Y006431D03*
X006829Y006450D03*
X006758Y006441D03*
X006758Y006441D03*
X006737Y006449D03*
X006683Y006443D03*
X006683Y006443D03*
X006683Y006426D03*
X006620Y006001D03*
X006620Y006000D03*
X007079Y006001D03*
X007079Y006000D03*
X006371Y007103D03*
X006371Y007104D03*
D45*
X006620Y006002D03*
D46*
X007079Y006002D03*
D47*
X006881Y006430D03*
X006881Y006439D03*
X006778Y006449D03*
X006778Y006449D03*
X006737Y006449D03*
X006620Y006002D03*
X006371Y007103D03*
X007327Y007103D03*
D48*
X007079Y006002D03*
D49*
X006882Y006441D03*
X006778Y006447D03*
X006738Y006447D03*
X006738Y006447D03*
X006620Y006003D03*
X006372Y007101D03*
X007326Y007101D03*
D50*
X007326Y007101D03*
X006882Y006440D03*
X006882Y006429D03*
X006829Y006449D03*
X006829Y006449D03*
X007079Y006003D03*
X006372Y007101D03*
D51*
X006620Y006003D03*
D52*
X006738Y006446D03*
X007079Y006003D03*
X007326Y007100D03*
X006372Y007100D03*
D53*
X006373Y007100D03*
X006738Y006446D03*
X006883Y006428D03*
X007078Y006004D03*
X006620Y006004D03*
X007325Y007100D03*
D54*
X007325Y007099D03*
X007325Y007098D03*
X006883Y006443D03*
X006758Y006443D03*
X006738Y006445D03*
X006621Y006005D03*
X007078Y006005D03*
X006374Y007098D03*
X006373Y007099D03*
D55*
X006683Y006446D03*
X006739Y006444D03*
X006884Y006444D03*
X006621Y006005D03*
D56*
X006758Y006444D03*
X006776Y006444D03*
X007078Y006005D03*
D57*
X006933Y006399D03*
X006884Y006426D03*
X006884Y006444D03*
X006866Y006401D03*
X006866Y006400D03*
X006793Y006401D03*
X006739Y006443D03*
X006722Y006399D03*
X006621Y006006D03*
X006621Y006006D03*
X006375Y007095D03*
X006374Y007096D03*
X007324Y007095D03*
X007324Y007096D03*
D58*
X006776Y006443D03*
X006776Y006443D03*
X007078Y006006D03*
X007078Y006006D03*
D59*
X007077Y006007D03*
X006866Y006401D03*
X006884Y006425D03*
X006794Y006403D03*
X006776Y006442D03*
X006740Y006442D03*
X006621Y006007D03*
D60*
X006621Y006008D03*
X006794Y006404D03*
X006794Y006404D03*
X006775Y006441D03*
X006829Y006443D03*
X007077Y006008D03*
X007323Y007092D03*
X006376Y007092D03*
D61*
X006683Y006447D03*
X006775Y006441D03*
X006621Y006008D03*
D62*
X006794Y006406D03*
X006794Y006407D03*
X006775Y006440D03*
X006740Y006440D03*
X006865Y006406D03*
X006865Y006405D03*
X006885Y006447D03*
X007077Y006008D03*
D63*
X007077Y006009D03*
X006885Y006423D03*
X006794Y006407D03*
X006775Y006440D03*
X006622Y006009D03*
X006376Y007091D03*
X007322Y007091D03*
D64*
X006774Y006439D03*
X006741Y006439D03*
X006795Y006408D03*
X006622Y006009D03*
D65*
X006683Y006421D03*
X006720Y006466D03*
X006865Y006407D03*
X006885Y006423D03*
X006885Y006447D03*
X006931Y006402D03*
X006981Y006402D03*
X006981Y006402D03*
X006981Y006401D03*
X006981Y006400D03*
X006981Y006399D03*
X006981Y006404D03*
X006981Y006404D03*
X006981Y006405D03*
X006981Y006406D03*
X006981Y006407D03*
X006981Y006408D03*
X007077Y006009D03*
D66*
X007076Y006011D03*
X007002Y006426D03*
X007002Y006439D03*
X007002Y006458D03*
X006886Y006449D03*
X006864Y006410D03*
X006864Y006409D03*
X006829Y006439D03*
X006795Y006411D03*
X006795Y006411D03*
X006774Y006438D03*
X006758Y006447D03*
X006741Y006438D03*
X006741Y006437D03*
X006720Y006464D03*
X006683Y006449D03*
X006720Y006404D03*
X006622Y006011D03*
X006622Y006010D03*
D67*
X006720Y006404D03*
X006683Y006420D03*
X006720Y006465D03*
X006795Y006410D03*
X006795Y006409D03*
X006829Y006440D03*
X006865Y006408D03*
X006886Y006422D03*
X006886Y006449D03*
X006931Y006402D03*
X007002Y006426D03*
X006981Y006459D03*
X006981Y006460D03*
X006981Y006461D03*
X006981Y006462D03*
X006981Y006462D03*
X006981Y006464D03*
X006981Y006464D03*
X006981Y006465D03*
X006981Y006466D03*
X006981Y006467D03*
X007076Y006010D03*
X007321Y007089D03*
X007322Y007091D03*
X006377Y007089D03*
X006376Y007091D03*
D68*
X006378Y007087D03*
X006719Y006463D03*
X006758Y006448D03*
X006796Y006414D03*
X006864Y006412D03*
X007076Y006011D03*
X006623Y006011D03*
D69*
X006623Y006012D03*
X006482Y006360D03*
X006719Y006406D03*
X006742Y006436D03*
X006796Y006414D03*
X006796Y006413D03*
X006864Y006413D03*
X006887Y006420D03*
X006887Y006450D03*
X006930Y006404D03*
X007216Y006360D03*
X007076Y006012D03*
D70*
X007076Y006012D03*
X007003Y006425D03*
X006887Y006451D03*
X006863Y006414D03*
X006863Y006413D03*
X006829Y006437D03*
X006796Y006416D03*
X006796Y006415D03*
X006773Y006435D03*
X006742Y006435D03*
X006719Y006462D03*
X006623Y006012D03*
X006378Y007086D03*
X006378Y007086D03*
X007320Y007086D03*
X007320Y007086D03*
D71*
X007003Y006457D03*
X006929Y006405D03*
X006887Y006420D03*
X006863Y006414D03*
X006829Y006437D03*
X006719Y006407D03*
X006623Y006013D03*
D72*
X006743Y006435D03*
X006773Y006435D03*
X006797Y006416D03*
X007076Y006013D03*
D73*
X007004Y006423D03*
X007004Y006456D03*
X006929Y006406D03*
X006888Y006419D03*
X006863Y006417D03*
X006829Y006435D03*
X006829Y006436D03*
X006797Y006419D03*
X006797Y006417D03*
X006743Y006434D03*
X006718Y006461D03*
X006888Y006452D03*
X006623Y006014D03*
D74*
X006623Y006014D03*
X006718Y006409D03*
X006718Y006460D03*
X006683Y006451D03*
X006758Y006449D03*
X006797Y006419D03*
X006863Y006417D03*
X006888Y006453D03*
X006929Y006467D03*
X007004Y006422D03*
X007076Y006014D03*
X007076Y006014D03*
X007319Y007083D03*
X007319Y007084D03*
X006380Y007083D03*
X006379Y007084D03*
D75*
X006380Y007082D03*
X006888Y006453D03*
X007075Y006015D03*
X006624Y006015D03*
X007318Y007082D03*
D76*
X007318Y007080D03*
X007005Y006455D03*
X007005Y006420D03*
X006889Y006455D03*
X006862Y006422D03*
X006829Y006432D03*
X006798Y006424D03*
X006771Y006431D03*
X006744Y006431D03*
X006717Y006411D03*
X006717Y006411D03*
X006683Y006417D03*
X006717Y006458D03*
X006717Y006458D03*
X006623Y006016D03*
X006623Y006015D03*
X007075Y006016D03*
X007075Y006015D03*
X006380Y007080D03*
D77*
X006799Y006427D03*
X006624Y006017D03*
D78*
X006683Y006416D03*
X006829Y006431D03*
X006861Y006425D03*
X007006Y006444D03*
X007006Y006453D03*
X007075Y006017D03*
X007316Y007078D03*
X006382Y007078D03*
D79*
X006770Y006429D03*
X006799Y006426D03*
X006799Y006426D03*
X006624Y006017D03*
D80*
X006716Y006413D03*
X006745Y006429D03*
X006716Y006456D03*
X006683Y006453D03*
X006829Y006432D03*
X006861Y006425D03*
X006861Y006424D03*
X006889Y006415D03*
X006927Y006410D03*
X006927Y006464D03*
X006889Y006456D03*
X007006Y006453D03*
X007006Y006444D03*
X007006Y006419D03*
X007075Y006017D03*
X007317Y007079D03*
X006381Y007079D03*
D81*
X006860Y006428D03*
X006624Y006018D03*
D82*
X006745Y006428D03*
X006745Y006428D03*
X006770Y006428D03*
X006770Y006428D03*
X006799Y006429D03*
X006829Y006429D03*
X006829Y006430D03*
X006890Y006458D03*
X006926Y006462D03*
X006926Y006411D03*
X007006Y006417D03*
X007006Y006417D03*
X007006Y006447D03*
X007006Y006447D03*
X007006Y006449D03*
X007006Y006449D03*
X007006Y006450D03*
X007075Y006018D03*
D83*
X006860Y006427D03*
X006716Y006414D03*
X006716Y006455D03*
X006624Y006018D03*
X006382Y007076D03*
X007316Y007076D03*
D84*
X007007Y006416D03*
X006860Y006429D03*
X006746Y006427D03*
X007074Y006018D03*
D85*
X007007Y006416D03*
X006926Y006411D03*
X006890Y006413D03*
X006860Y006428D03*
X006890Y006458D03*
X006926Y006462D03*
X006758Y006452D03*
X006716Y006454D03*
X006716Y006455D03*
X006716Y006415D03*
X006716Y006414D03*
X006624Y006019D03*
X006383Y007076D03*
X007316Y007076D03*
D86*
X007315Y007075D03*
X007007Y006415D03*
X006890Y006413D03*
X006860Y006429D03*
X006860Y006430D03*
X006860Y006431D03*
X006800Y006432D03*
X006800Y006432D03*
X006746Y006426D03*
X006715Y006416D03*
X006625Y006020D03*
X007074Y006020D03*
X007074Y006019D03*
X006383Y007075D03*
D87*
X006859Y006433D03*
X006625Y006020D03*
D88*
X006800Y006435D03*
X007074Y006020D03*
D89*
X007074Y006021D03*
X006891Y006411D03*
X006859Y006434D03*
X006859Y006434D03*
X006891Y006461D03*
X006801Y006436D03*
X006758Y006454D03*
X006714Y006451D03*
X006714Y006417D03*
X006625Y006021D03*
X006384Y007071D03*
X006384Y007071D03*
X006384Y007073D03*
X007314Y007071D03*
X007314Y007071D03*
X007314Y007073D03*
D90*
X006925Y006458D03*
X006925Y006414D03*
X006859Y006435D03*
X006859Y006436D03*
X006801Y006437D03*
X006801Y006438D03*
X006683Y006456D03*
X006683Y006413D03*
X007008Y006411D03*
X007008Y006411D03*
X007074Y006021D03*
X006625Y006021D03*
D91*
X006625Y006022D03*
X006713Y006420D03*
X006802Y006440D03*
X006858Y006438D03*
X006892Y006463D03*
X006924Y006457D03*
X007073Y006022D03*
D92*
X007073Y006023D03*
X007009Y006409D03*
X006924Y006416D03*
X006892Y006462D03*
X006858Y006438D03*
X006802Y006441D03*
X006713Y006449D03*
X006683Y006413D03*
X006625Y006023D03*
X006385Y007069D03*
X006385Y007070D03*
X007313Y007069D03*
X007313Y007070D03*
D93*
X007313Y007068D03*
X006924Y006456D03*
X006893Y006464D03*
X006858Y006440D03*
X006858Y006439D03*
X006893Y006409D03*
X007009Y006408D03*
X006802Y006441D03*
X006802Y006443D03*
X006626Y006023D03*
X006386Y007068D03*
D94*
X006713Y006449D03*
X006713Y006420D03*
X007073Y006023D03*
D95*
X007009Y006408D03*
X006924Y006416D03*
X006802Y006442D03*
X006758Y006455D03*
X006626Y006024D03*
X006386Y007068D03*
X007313Y007068D03*
D96*
X007009Y006407D03*
X006893Y006408D03*
X006858Y006440D03*
X006713Y006448D03*
X006713Y006422D03*
X007073Y006024D03*
D97*
X007010Y006406D03*
X006923Y006417D03*
X006893Y006408D03*
X006857Y006443D03*
X006803Y006444D03*
X006803Y006445D03*
X006758Y006456D03*
X006713Y006447D03*
X006713Y006422D03*
X006683Y006411D03*
X006683Y006458D03*
X006626Y006024D03*
D98*
X006712Y006423D03*
X006803Y006446D03*
X006803Y006447D03*
X006857Y006443D03*
X006894Y006465D03*
X006923Y006455D03*
X006894Y006407D03*
X007010Y006405D03*
X007073Y006025D03*
X007073Y006024D03*
X007312Y007065D03*
X007312Y007066D03*
X006386Y007066D03*
X006386Y007065D03*
D99*
X006626Y006025D03*
D100*
X006626Y006026D03*
X006712Y006446D03*
X006857Y006445D03*
X006857Y006444D03*
X006894Y006466D03*
X007010Y006404D03*
D101*
X006923Y006419D03*
X006923Y006454D03*
X006803Y006447D03*
X006758Y006456D03*
X006683Y006458D03*
X006683Y006411D03*
X007073Y006026D03*
X007311Y007064D03*
X006387Y007064D03*
D102*
X006388Y007063D03*
X006757Y006457D03*
X006803Y006450D03*
X006856Y006446D03*
X006894Y006467D03*
X007072Y006026D03*
X006626Y006026D03*
X007310Y007063D03*
D103*
X006922Y006420D03*
X006804Y006452D03*
X006626Y006027D03*
X007072Y006027D03*
D104*
X007072Y006027D03*
X007208Y006361D03*
X007011Y006402D03*
X006922Y006452D03*
X006894Y006467D03*
X006856Y006447D03*
X006804Y006450D03*
X006804Y006451D03*
X006758Y006458D03*
X006711Y006444D03*
X006711Y006425D03*
X006894Y006405D03*
X007310Y007062D03*
X007310Y007062D03*
X006388Y007062D03*
X006388Y007062D03*
D105*
X006389Y007061D03*
X006683Y006460D03*
X006711Y006443D03*
X006711Y006426D03*
X006758Y006458D03*
X006804Y006454D03*
X006804Y006453D03*
X006855Y006451D03*
X006855Y006450D03*
X006895Y006404D03*
X006921Y006421D03*
X006921Y006451D03*
X007011Y006401D03*
X006627Y006027D03*
X007310Y007061D03*
D106*
X007011Y006401D03*
X006855Y006450D03*
X006830Y006418D03*
X006804Y006453D03*
X006627Y006028D03*
D107*
X007072Y006028D03*
D108*
X007072Y006029D03*
X007012Y006400D03*
X006921Y006450D03*
X006895Y006404D03*
X006855Y006452D03*
X006829Y006417D03*
X006805Y006455D03*
X006683Y006409D03*
X006627Y006029D03*
X006389Y007060D03*
X007309Y007060D03*
D109*
X007309Y007059D03*
X006921Y006422D03*
X006830Y006417D03*
X006805Y006456D03*
X006805Y006456D03*
X006683Y006461D03*
X006627Y006029D03*
X007071Y006029D03*
X006389Y007059D03*
D110*
X006805Y006457D03*
X006829Y006416D03*
X006627Y006030D03*
X007071Y006030D03*
D111*
X007071Y006030D03*
X006896Y006402D03*
X006920Y006423D03*
X006920Y006449D03*
X006854Y006456D03*
X006854Y006456D03*
X006830Y006416D03*
X006806Y006459D03*
X006758Y006459D03*
X006710Y006440D03*
X006710Y006429D03*
X006683Y006408D03*
X006627Y006030D03*
X006390Y007058D03*
X007308Y007058D03*
D112*
X007308Y007056D03*
X006806Y006461D03*
X006806Y006460D03*
X006757Y006460D03*
X006628Y006031D03*
X006390Y007056D03*
D113*
X006709Y006439D03*
X006709Y006430D03*
X006829Y006415D03*
X006854Y006458D03*
X007071Y006031D03*
D114*
X006806Y006461D03*
X006628Y006032D03*
D115*
X006709Y006438D03*
X006830Y006414D03*
X006854Y006459D03*
X007071Y006032D03*
D116*
X006897Y006400D03*
X006919Y006425D03*
X006919Y006447D03*
X006853Y006459D03*
X006853Y006460D03*
X006806Y006464D03*
X006829Y006413D03*
X006709Y006438D03*
X006683Y006462D03*
X006628Y006032D03*
X006391Y007054D03*
X007307Y007054D03*
D117*
X007307Y007055D03*
X007308Y007056D03*
X006920Y006447D03*
X006920Y006424D03*
X006897Y006401D03*
X006830Y006414D03*
X006854Y006458D03*
X006758Y006461D03*
X006709Y006431D03*
X006683Y006407D03*
X006683Y006462D03*
X007071Y006032D03*
X006391Y007055D03*
X006390Y007056D03*
D118*
X006392Y007053D03*
X006392Y007052D03*
X006708Y006436D03*
X006853Y006462D03*
X006919Y006445D03*
X006919Y006426D03*
X007070Y006033D03*
X006628Y006033D03*
X007306Y007052D03*
X007306Y007053D03*
D119*
X006853Y006463D03*
X006708Y006433D03*
X006628Y006033D03*
X007070Y006033D03*
D120*
X007070Y006034D03*
X006918Y006426D03*
X006918Y006444D03*
X006852Y006464D03*
X006852Y006464D03*
X006807Y006467D03*
X006758Y006462D03*
X006708Y006435D03*
X006708Y006434D03*
X006830Y006411D03*
X006629Y006034D03*
X006392Y007051D03*
X007306Y007051D03*
D121*
X006918Y006443D03*
X006918Y006428D03*
X006852Y006466D03*
X006852Y006467D03*
X006830Y006410D03*
X006683Y006464D03*
X006629Y006035D03*
D122*
X006758Y006462D03*
X007070Y006035D03*
X007305Y007049D03*
X006393Y007049D03*
D123*
X006393Y007050D03*
X006683Y006405D03*
X006830Y006410D03*
X006852Y006467D03*
X006629Y006035D03*
X007305Y007050D03*
D124*
X007305Y007048D03*
X007070Y006035D03*
X006394Y007048D03*
D125*
X006918Y006443D03*
X006918Y006428D03*
X007070Y006036D03*
X006629Y006036D03*
D126*
X006629Y006036D03*
X006683Y006404D03*
X006394Y007047D03*
X007304Y007047D03*
D127*
X006917Y006441D03*
X006917Y006429D03*
X007070Y006036D03*
D128*
X007070Y006037D03*
X006830Y006407D03*
X006629Y006037D03*
D129*
X006629Y006038D03*
X006629Y006038D03*
X006683Y006466D03*
X006916Y006440D03*
X006916Y006431D03*
X007303Y007045D03*
X006395Y007045D03*
D130*
X007069Y006038D03*
X007069Y006038D03*
D131*
X006629Y006039D03*
D132*
X006916Y006438D03*
X007069Y006039D03*
D133*
X007069Y006039D03*
X006915Y006432D03*
X006915Y006438D03*
X006830Y006404D03*
X006758Y006465D03*
X006683Y006467D03*
X006683Y006402D03*
X006630Y006040D03*
X006630Y006039D03*
X006396Y007041D03*
X006396Y007041D03*
X007302Y007041D03*
X007302Y007041D03*
D134*
X007069Y006040D03*
D135*
X006915Y006437D03*
X006630Y006041D03*
D136*
X006758Y006466D03*
X006915Y006434D03*
X007068Y006041D03*
X007301Y007040D03*
X006397Y007040D03*
D137*
X006630Y006041D03*
X007069Y006041D03*
D138*
X006830Y006402D03*
X006683Y006401D03*
X006630Y006042D03*
X006398Y007037D03*
X007300Y007037D03*
D139*
X006914Y006435D03*
X006758Y006426D03*
X006758Y006425D03*
X006758Y006424D03*
X006758Y006423D03*
X006758Y006422D03*
X006758Y006421D03*
X006758Y006420D03*
X006758Y006419D03*
X006758Y006419D03*
X006758Y006417D03*
X006758Y006417D03*
X006758Y006416D03*
X006758Y006415D03*
X006758Y006414D03*
X006758Y006413D03*
X006758Y006413D03*
X006758Y006411D03*
X006758Y006411D03*
X006758Y006410D03*
X006758Y006409D03*
X006758Y006408D03*
X006758Y006407D03*
X006758Y006406D03*
X006758Y006405D03*
X006758Y006404D03*
X006758Y006404D03*
X006758Y006402D03*
X006758Y006402D03*
X006758Y006401D03*
X006758Y006400D03*
X006758Y006399D03*
X006758Y006467D03*
X007068Y006042D03*
D140*
X007068Y006042D03*
X006683Y006400D03*
X006631Y006042D03*
X006398Y007038D03*
X007300Y007038D03*
D141*
X007068Y006043D03*
X006631Y006043D03*
D142*
X006631Y006044D03*
X006683Y006399D03*
X006830Y006399D03*
D143*
X006830Y006400D03*
X006830Y006401D03*
X007068Y006044D03*
X007299Y007036D03*
X006399Y007036D03*
D144*
X006399Y007034D03*
X006399Y007034D03*
X007299Y007034D03*
X007299Y007034D03*
X006631Y006044D03*
D145*
X007067Y006044D03*
D146*
X006631Y006045D03*
X006400Y007033D03*
X007298Y007033D03*
D147*
X007068Y006045D03*
D148*
X007067Y006045D03*
X006632Y006046D03*
X006632Y006045D03*
D149*
X007067Y006046D03*
X007297Y007031D03*
X006401Y007031D03*
D150*
X006401Y007031D03*
X007297Y007031D03*
X007067Y006047D03*
X006632Y006047D03*
D151*
X006632Y006047D03*
X007067Y006047D03*
D152*
X006632Y006048D03*
X006402Y007028D03*
X007296Y007028D03*
D153*
X007067Y006048D03*
D154*
X006633Y006048D03*
D155*
X007066Y006048D03*
X007297Y007029D03*
X006401Y007029D03*
D156*
X006633Y006049D03*
D157*
X007066Y006049D03*
X007296Y007028D03*
X006402Y007028D03*
D158*
X006633Y006050D03*
D159*
X007066Y006050D03*
D160*
X007066Y006050D03*
X006633Y006050D03*
D161*
X006633Y006051D03*
X007066Y006051D03*
X007295Y007024D03*
X006403Y007024D03*
D162*
X006633Y006051D03*
D163*
X007066Y006051D03*
D164*
X006633Y006052D03*
X006404Y007022D03*
X007294Y007022D03*
D165*
X007066Y006052D03*
D166*
X007065Y006053D03*
X006633Y006053D03*
X006405Y007021D03*
X007293Y007021D03*
D167*
X006633Y006053D03*
D168*
X007065Y006053D03*
X007293Y007020D03*
X006405Y007020D03*
D169*
X006633Y006054D03*
D170*
X007065Y006054D03*
X007293Y007018D03*
X006406Y007018D03*
D171*
X006406Y007019D03*
X006406Y007017D03*
X007292Y007017D03*
X007293Y007019D03*
X007065Y006054D03*
X006634Y006054D03*
D172*
X006634Y006055D03*
X006406Y007017D03*
X007292Y007017D03*
D173*
X007065Y006055D03*
D174*
X006634Y006056D03*
X006407Y007015D03*
X007291Y007015D03*
D175*
X007291Y007016D03*
X006407Y007016D03*
X007064Y006056D03*
D176*
X006634Y006056D03*
D177*
X007064Y006056D03*
D178*
X007064Y006057D03*
X007064Y006057D03*
X006635Y006057D03*
X006635Y006057D03*
X006408Y007013D03*
X007290Y007013D03*
D179*
X007064Y006058D03*
X006635Y006058D03*
D180*
X006635Y006059D03*
D181*
X007064Y006059D03*
X007289Y007011D03*
X006409Y007011D03*
D182*
X006410Y007010D03*
X007289Y007010D03*
X007064Y006059D03*
X006635Y006059D03*
D183*
X006635Y006060D03*
X007064Y006060D03*
D184*
X006635Y006061D03*
X006635Y006060D03*
X006411Y007006D03*
X006410Y007007D03*
X007287Y007006D03*
X007288Y007007D03*
D185*
X007288Y007008D03*
X006410Y007008D03*
X007063Y006061D03*
X007063Y006060D03*
D186*
X006636Y006062D03*
X006411Y007007D03*
X007287Y007007D03*
D187*
X007063Y006062D03*
D188*
X006636Y006063D03*
X006636Y006062D03*
X007286Y007005D03*
D189*
X006412Y007005D03*
X007063Y006063D03*
X007063Y006062D03*
D190*
X006636Y006063D03*
D191*
X007063Y006063D03*
D192*
X006636Y006064D03*
X006413Y007002D03*
X007285Y007002D03*
D193*
X007062Y006064D03*
D194*
X007062Y006065D03*
X006637Y006065D03*
D195*
X006637Y006065D03*
X007062Y006065D03*
X007285Y007001D03*
X006414Y007001D03*
D196*
X006637Y006066D03*
D197*
X007062Y006066D03*
X007062Y006066D03*
D198*
X006637Y006066D03*
X006414Y006998D03*
X007284Y006998D03*
D199*
X007283Y006997D03*
X007061Y006067D03*
X006637Y006067D03*
X006415Y006997D03*
D200*
X006416Y006996D03*
X006638Y006068D03*
X007061Y006068D03*
X007283Y006996D03*
D201*
X007282Y006996D03*
X006637Y006068D03*
X006416Y006996D03*
D202*
X007061Y006068D03*
D203*
X007061Y006069D03*
X006638Y006069D03*
X006416Y006995D03*
X007282Y006995D03*
D204*
X007282Y006995D03*
X007282Y006994D03*
X007281Y006993D03*
X006638Y006070D03*
X006638Y006069D03*
X006417Y006993D03*
X006416Y006994D03*
X006416Y006995D03*
D205*
X007061Y006069D03*
D206*
X007061Y006070D03*
X007281Y006992D03*
X006417Y006992D03*
D207*
X006638Y006071D03*
X007061Y006071D03*
D208*
X006638Y006071D03*
D209*
X007061Y006071D03*
D210*
X007060Y006072D03*
X006639Y006072D03*
D211*
X006639Y006072D03*
X007060Y006072D03*
X007280Y006989D03*
X006419Y006989D03*
D212*
X006639Y006073D03*
D213*
X007060Y006073D03*
D214*
X006639Y006074D03*
X006420Y006987D03*
X007278Y006987D03*
D215*
X007060Y006074D03*
D216*
X007060Y006074D03*
X006639Y006074D03*
D217*
X006639Y006075D03*
X006421Y006984D03*
X007277Y006984D03*
D218*
X007060Y006075D03*
D219*
X007059Y006075D03*
X007059Y006076D03*
X006639Y006076D03*
X006639Y006075D03*
D220*
X006640Y006077D03*
D221*
X007059Y006077D03*
D222*
X007058Y006078D03*
X006640Y006077D03*
D223*
X007059Y006077D03*
D224*
X006640Y006078D03*
D225*
X006640Y006078D03*
X007059Y006078D03*
D226*
X007059Y006079D03*
X006640Y006079D03*
D227*
X006641Y006080D03*
X007058Y006080D03*
X007274Y006977D03*
X007274Y006978D03*
X006424Y006978D03*
X006424Y006977D03*
D228*
X006641Y006080D03*
D229*
X007058Y006080D03*
D230*
X007058Y006081D03*
X007058Y006081D03*
X006641Y006081D03*
X006641Y006081D03*
X006425Y006975D03*
X007273Y006975D03*
D231*
X007272Y006973D03*
X006641Y006082D03*
X006426Y006973D03*
D232*
X007057Y006082D03*
D233*
X006641Y006083D03*
X006426Y006972D03*
X006426Y006972D03*
X007272Y006972D03*
X007272Y006972D03*
D234*
X007057Y006083D03*
D235*
X007057Y006083D03*
X006641Y006083D03*
D236*
X006642Y006084D03*
D237*
X007057Y006084D03*
X007271Y006971D03*
X006427Y006971D03*
D238*
X006642Y006084D03*
D239*
X007057Y006084D03*
X007271Y006970D03*
X006427Y006970D03*
D240*
X006428Y006969D03*
X006642Y006085D03*
X007057Y006085D03*
X007271Y006969D03*
D241*
X007270Y006968D03*
X006642Y006086D03*
D242*
X007057Y006086D03*
X006428Y006968D03*
D243*
X006642Y006086D03*
X007056Y006086D03*
X007269Y006967D03*
D244*
X007269Y006966D03*
X007270Y006968D03*
X007056Y006087D03*
X006642Y006087D03*
X006428Y006968D03*
D245*
X006429Y006966D03*
X006430Y006965D03*
X006642Y006087D03*
X007056Y006087D03*
X007268Y006965D03*
D246*
X006643Y006088D03*
D247*
X007056Y006088D03*
D248*
X007056Y006089D03*
X006643Y006089D03*
D249*
X006643Y006089D03*
X006431Y006961D03*
X006431Y006962D03*
X006431Y006963D03*
X007267Y006961D03*
D250*
X007268Y006962D03*
X007268Y006963D03*
X007056Y006089D03*
D251*
X006643Y006090D03*
X006431Y006962D03*
X007267Y006962D03*
D252*
X007055Y006090D03*
D253*
X007055Y006090D03*
X006643Y006090D03*
D254*
X006644Y006091D03*
X006432Y006960D03*
X007266Y006960D03*
D255*
X007055Y006091D03*
D256*
X007055Y006092D03*
X006644Y006092D03*
X006433Y006958D03*
X007265Y006958D03*
D257*
X007055Y006092D03*
X006644Y006092D03*
D258*
X006644Y006093D03*
D259*
X007055Y006093D03*
X007265Y006956D03*
X006434Y006956D03*
D260*
X006434Y006956D03*
X006644Y006093D03*
X007055Y006093D03*
X007265Y006956D03*
D261*
X007264Y006955D03*
X007264Y006954D03*
X007054Y006095D03*
X006644Y006094D03*
X006434Y006954D03*
X006434Y006955D03*
D262*
X007054Y006094D03*
D263*
X006644Y006095D03*
D264*
X006644Y006095D03*
X006434Y006954D03*
X007264Y006954D03*
D265*
X007054Y006095D03*
D266*
X007054Y006096D03*
X006645Y006096D03*
X006435Y006953D03*
X006435Y006953D03*
X007263Y006953D03*
X007263Y006953D03*
D267*
X007054Y006096D03*
X006645Y006096D03*
D268*
X006645Y006097D03*
D269*
X007053Y006097D03*
D270*
X007054Y006098D03*
X006645Y006098D03*
X006437Y006949D03*
X007261Y006949D03*
D271*
X006646Y006098D03*
D272*
X007053Y006098D03*
D273*
X006646Y006099D03*
D274*
X007053Y006099D03*
D275*
X007053Y006099D03*
X006646Y006099D03*
X006437Y006948D03*
X007261Y006948D03*
D276*
X007260Y006945D03*
X006646Y006101D03*
X006646Y006100D03*
X006438Y006945D03*
D277*
X007053Y006100D03*
D278*
X007053Y006101D03*
D279*
X006646Y006101D03*
X006439Y006945D03*
X007259Y006945D03*
D280*
X007053Y006101D03*
D281*
X006646Y006102D03*
D282*
X007053Y006102D03*
D283*
X006647Y006102D03*
D284*
X007052Y006102D03*
X007259Y006942D03*
X006440Y006942D03*
D285*
X006440Y006941D03*
X006647Y006103D03*
X007258Y006941D03*
D286*
X007052Y006103D03*
D287*
X007052Y006104D03*
X006647Y006104D03*
X006441Y006940D03*
X007257Y006940D03*
D288*
X007052Y006104D03*
X006647Y006104D03*
D289*
X006647Y006105D03*
X006441Y006939D03*
X007257Y006939D03*
D290*
X007052Y006105D03*
D291*
X007051Y006105D03*
X006648Y006105D03*
D292*
X006647Y006106D03*
X007051Y006106D03*
D293*
X006648Y006107D03*
D294*
X007051Y006107D03*
X007255Y006935D03*
X006443Y006935D03*
D295*
X006648Y006107D03*
D296*
X007051Y006107D03*
D297*
X006648Y006108D03*
D298*
X007051Y006108D03*
X007255Y006934D03*
X006444Y006934D03*
D299*
X006444Y006933D03*
X006648Y006108D03*
X007051Y006108D03*
X007254Y006933D03*
D300*
X006648Y006109D03*
D301*
X007050Y006110D03*
X007050Y006109D03*
X007253Y006930D03*
X007253Y006931D03*
X006445Y006931D03*
X006445Y006930D03*
D302*
X006648Y006110D03*
D303*
X006648Y006110D03*
D304*
X007050Y006110D03*
X007253Y006930D03*
X006445Y006930D03*
D305*
X006446Y006929D03*
X006649Y006111D03*
X006649Y006111D03*
X007049Y006111D03*
X007252Y006929D03*
D306*
X007253Y006929D03*
X007050Y006111D03*
X006446Y006929D03*
D307*
X006446Y006928D03*
X006649Y006112D03*
D308*
X007050Y006112D03*
X007252Y006928D03*
D309*
X007251Y006927D03*
X006649Y006113D03*
X006447Y006927D03*
X006446Y006927D03*
D310*
X007050Y006113D03*
D311*
X007049Y006113D03*
X006650Y006113D03*
X006447Y006925D03*
X006447Y006926D03*
X007251Y006926D03*
X007251Y006925D03*
D312*
X007049Y006114D03*
X006650Y006114D03*
D313*
X006650Y006114D03*
X006650Y006115D03*
D314*
X007049Y006115D03*
X007049Y006114D03*
D315*
X006650Y006116D03*
D316*
X007048Y006116D03*
X007248Y006920D03*
X007249Y006921D03*
X006450Y006920D03*
X006450Y006921D03*
D317*
X006650Y006116D03*
D318*
X007049Y006116D03*
D319*
X006650Y006117D03*
D320*
X006650Y006117D03*
X007048Y006117D03*
X007048Y006117D03*
D321*
X006650Y006118D03*
D322*
X007048Y006118D03*
D323*
X006651Y006119D03*
X006651Y006119D03*
D324*
X007048Y006119D03*
X007048Y006119D03*
X007247Y006916D03*
X006452Y006916D03*
D325*
X006452Y006915D03*
X006651Y006120D03*
X007047Y006120D03*
X007246Y006915D03*
D326*
X007245Y006914D03*
X007047Y006120D03*
X006651Y006120D03*
X006453Y006914D03*
D327*
X006453Y006912D03*
X006651Y006121D03*
X007245Y006912D03*
D328*
X007244Y006912D03*
X007047Y006121D03*
X006652Y006122D03*
X006454Y006912D03*
D329*
X006652Y006122D03*
X007047Y006122D03*
D330*
X007047Y006122D03*
X007047Y006123D03*
X007244Y006911D03*
X006454Y006911D03*
D331*
X006652Y006123D03*
D332*
X006652Y006123D03*
X006455Y006909D03*
X007243Y006909D03*
D333*
X007047Y006123D03*
D334*
X006652Y006124D03*
X006652Y006125D03*
X006455Y006908D03*
X007243Y006908D03*
D335*
X007046Y006125D03*
X007046Y006124D03*
D336*
X006652Y006125D03*
X006457Y006905D03*
X007241Y006905D03*
D337*
X007046Y006125D03*
D338*
X007046Y006126D03*
X006653Y006126D03*
X006457Y006905D03*
X007241Y006905D03*
D339*
X007240Y006903D03*
X006653Y006126D03*
X006458Y006903D03*
D340*
X006457Y006904D03*
X007046Y006126D03*
X007241Y006904D03*
D341*
X007241Y006903D03*
X007046Y006127D03*
X006653Y006127D03*
X006458Y006903D03*
D342*
X006653Y006128D03*
X007045Y006128D03*
X007045Y006128D03*
D343*
X006653Y006128D03*
D344*
X006653Y006129D03*
X007045Y006129D03*
X007239Y006900D03*
X006459Y006900D03*
D345*
X006654Y006130D03*
X006654Y006129D03*
D346*
X007045Y006129D03*
X007045Y006130D03*
D347*
X006654Y006131D03*
D348*
X007044Y006131D03*
X007238Y006897D03*
X006461Y006897D03*
D349*
X006461Y006896D03*
X006654Y006131D03*
X007237Y006896D03*
D350*
X007045Y006131D03*
D351*
X006654Y006132D03*
X006461Y006896D03*
X007237Y006896D03*
D352*
X007237Y006895D03*
X007044Y006132D03*
X007044Y006132D03*
X006655Y006132D03*
X006461Y006895D03*
D353*
X006462Y006894D03*
X006654Y006133D03*
X007044Y006133D03*
X007236Y006894D03*
D354*
X007235Y006891D03*
X006655Y006134D03*
X006463Y006891D03*
D355*
X006463Y006893D03*
X007044Y006134D03*
X007235Y006893D03*
D356*
X007235Y006891D03*
X007044Y006134D03*
X006655Y006134D03*
X006464Y006891D03*
D357*
X006464Y006890D03*
X006655Y006135D03*
X007044Y006135D03*
X007234Y006890D03*
D358*
X007234Y006890D03*
X006655Y006135D03*
D359*
X007044Y006135D03*
D360*
X006656Y006136D03*
D361*
X007043Y006136D03*
D362*
X006656Y006137D03*
D363*
X007043Y006137D03*
D364*
X006656Y006138D03*
X006656Y006137D03*
D365*
X007043Y006138D03*
X007043Y006137D03*
X007233Y006886D03*
X006466Y006886D03*
D366*
X006467Y006885D03*
X006656Y006138D03*
X007043Y006138D03*
X007232Y006885D03*
D367*
X007232Y006884D03*
X007043Y006139D03*
X006656Y006139D03*
X006467Y006884D03*
D368*
X006656Y006140D03*
X007043Y006140D03*
D369*
X006656Y006140D03*
D370*
X007042Y006140D03*
D371*
X006656Y006141D03*
X006468Y006882D03*
X007231Y006882D03*
D372*
X007042Y006141D03*
D373*
X007042Y006141D03*
X006657Y006141D03*
X006469Y006880D03*
X007230Y006880D03*
D374*
X006657Y006142D03*
D375*
X007042Y006142D03*
D376*
X006657Y006143D03*
X006469Y006878D03*
X007229Y006878D03*
D377*
X007042Y006143D03*
D378*
X007041Y006143D03*
X006657Y006143D03*
X006470Y006878D03*
X007229Y006878D03*
D379*
X007228Y006877D03*
X006658Y006144D03*
X006470Y006877D03*
D380*
X007041Y006144D03*
D381*
X006657Y006144D03*
X006471Y006876D03*
X007227Y006876D03*
D382*
X007041Y006144D03*
D383*
X007041Y006145D03*
X007147Y006363D03*
X007227Y006875D03*
X006658Y006145D03*
X006551Y006363D03*
X006471Y006875D03*
D384*
X006472Y006873D03*
X006658Y006146D03*
X007226Y006873D03*
D385*
X007227Y006874D03*
X007041Y006146D03*
X006471Y006874D03*
D386*
X006472Y006873D03*
X006658Y006146D03*
X007226Y006873D03*
D387*
X007041Y006146D03*
D388*
X006658Y006147D03*
X006658Y006147D03*
X007225Y006871D03*
D389*
X007040Y006147D03*
X007040Y006147D03*
D390*
X006659Y006148D03*
X006473Y006870D03*
X007225Y006870D03*
D391*
X007040Y006148D03*
D392*
X007040Y006149D03*
X006659Y006149D03*
X006659Y006149D03*
X006474Y006869D03*
X007225Y006869D03*
D393*
X007224Y006869D03*
X007224Y006867D03*
X007040Y006149D03*
X006474Y006867D03*
X006474Y006869D03*
D394*
X006659Y006150D03*
X007040Y006150D03*
D395*
X007040Y006150D03*
X006659Y006150D03*
D396*
X006659Y006151D03*
X006476Y006864D03*
X006475Y006866D03*
X007222Y006864D03*
X007223Y006866D03*
D397*
X007039Y006151D03*
D398*
X006659Y006152D03*
D399*
X007039Y006152D03*
D400*
X006660Y006153D03*
X006660Y006152D03*
D401*
X007039Y006153D03*
X007039Y006152D03*
X007221Y006861D03*
X007221Y006863D03*
X006477Y006861D03*
X006477Y006863D03*
D402*
X006478Y006860D03*
X006660Y006153D03*
X007038Y006153D03*
X007220Y006860D03*
D403*
X007038Y006154D03*
X006660Y006154D03*
D404*
X006660Y006155D03*
X007219Y006858D03*
D405*
X007038Y006155D03*
X006479Y006858D03*
D406*
X006660Y006155D03*
D407*
X007038Y006155D03*
D408*
X007038Y006156D03*
X006661Y006156D03*
D409*
X006661Y006156D03*
D410*
X007038Y006156D03*
X007219Y006857D03*
X006479Y006857D03*
D411*
X006661Y006157D03*
D412*
X007038Y006157D03*
X007219Y006857D03*
X006479Y006857D03*
D413*
X006661Y006158D03*
X006661Y006158D03*
D414*
X007038Y006158D03*
X007038Y006158D03*
D415*
X006661Y006159D03*
D416*
X007037Y006159D03*
X007217Y006853D03*
D417*
X007216Y006851D03*
X007037Y006159D03*
X006662Y006159D03*
X006482Y006851D03*
D418*
X006662Y006161D03*
X006662Y006160D03*
X007037Y006161D03*
X007037Y006160D03*
D419*
X007037Y006161D03*
X006662Y006161D03*
D420*
X006662Y006162D03*
X006662Y006162D03*
X006849Y006363D03*
X007037Y006162D03*
X007037Y006162D03*
X007215Y006848D03*
X006483Y006848D03*
D421*
X006663Y006163D03*
X007036Y006163D03*
D422*
X007036Y006164D03*
X006663Y006164D03*
D423*
X007036Y006164D03*
X007214Y006846D03*
X007214Y006846D03*
X006485Y006846D03*
X006485Y006846D03*
D424*
X006663Y006164D03*
D425*
X006663Y006165D03*
D426*
X007036Y006165D03*
X007213Y006845D03*
X006485Y006845D03*
D427*
X006663Y006166D03*
X006663Y006165D03*
X007035Y006165D03*
X007035Y006166D03*
D428*
X006663Y006167D03*
D429*
X007035Y006167D03*
X007211Y006840D03*
X006488Y006840D03*
D430*
X006488Y006839D03*
X006664Y006168D03*
X006664Y006167D03*
X007035Y006168D03*
X007035Y006167D03*
X007210Y006839D03*
D431*
X006664Y006168D03*
D432*
X007034Y006168D03*
X007210Y006838D03*
X006488Y006838D03*
D433*
X006489Y006837D03*
X006849Y006362D03*
X006664Y006169D03*
X007035Y006169D03*
X007209Y006837D03*
D434*
X007209Y006835D03*
X006664Y006170D03*
X006490Y006835D03*
D435*
X007034Y006170D03*
D436*
X007034Y006170D03*
X006665Y006170D03*
D437*
X006665Y006171D03*
X007034Y006171D03*
D438*
X006665Y006171D03*
X006559Y006399D03*
X007208Y006833D03*
D439*
X007034Y006171D03*
D440*
X006665Y006172D03*
D441*
X007034Y006172D03*
D442*
X007034Y006173D03*
X007034Y006173D03*
X006665Y006173D03*
X006665Y006173D03*
X006559Y006400D03*
X006492Y006831D03*
X007206Y006831D03*
D443*
X007033Y006174D03*
X006665Y006174D03*
D444*
X006665Y006174D03*
X006560Y006402D03*
X006493Y006828D03*
X007033Y006174D03*
X007205Y006828D03*
D445*
X007205Y006827D03*
X006849Y006361D03*
X006666Y006175D03*
X006494Y006827D03*
D446*
X007033Y006175D03*
D447*
X006666Y006176D03*
X006494Y006826D03*
X007204Y006826D03*
D448*
X007033Y006176D03*
D449*
X006666Y006176D03*
D450*
X007033Y006176D03*
X007204Y006825D03*
X006494Y006825D03*
D451*
X006666Y006177D03*
D452*
X006560Y006404D03*
X007033Y006177D03*
D453*
X007032Y006177D03*
X006666Y006177D03*
X006561Y006405D03*
D454*
X006561Y006407D03*
X006666Y006178D03*
X007032Y006178D03*
D455*
X006849Y006360D03*
X006666Y006179D03*
D456*
X007032Y006179D03*
D457*
X006667Y006179D03*
X006562Y006408D03*
X006497Y006819D03*
X006497Y006820D03*
X006497Y006821D03*
X007201Y006820D03*
X007201Y006819D03*
X007202Y006821D03*
D458*
X007032Y006179D03*
D459*
X006667Y006180D03*
D460*
X007032Y006180D03*
D461*
X007031Y006181D03*
X006667Y006181D03*
X006667Y006180D03*
X006562Y006409D03*
D462*
X007031Y006180D03*
D463*
X007031Y006182D03*
X006668Y006182D03*
X006563Y006410D03*
D464*
X006668Y006182D03*
X007031Y006182D03*
D465*
X007134Y006399D03*
X006668Y006183D03*
X006563Y006411D03*
D466*
X006499Y006816D03*
X006499Y006816D03*
X007031Y006183D03*
X007199Y006816D03*
X007199Y006816D03*
D467*
X006668Y006183D03*
D468*
X007031Y006183D03*
X007199Y006815D03*
X006499Y006815D03*
D469*
X006500Y006814D03*
X006668Y006184D03*
X007133Y006400D03*
X007133Y006401D03*
X007198Y006814D03*
D470*
X007198Y006813D03*
X007031Y006184D03*
X006555Y006467D03*
X006500Y006813D03*
D471*
X006555Y006466D03*
X006556Y006465D03*
X006564Y006413D03*
X006669Y006185D03*
X007030Y006185D03*
X007133Y006402D03*
D472*
X007030Y006185D03*
X006669Y006185D03*
X006555Y006467D03*
X006501Y006812D03*
X007197Y006812D03*
D473*
X006669Y006186D03*
D474*
X007030Y006186D03*
X007133Y006402D03*
X007197Y006810D03*
X007197Y006811D03*
X006501Y006811D03*
X006501Y006810D03*
D475*
X006502Y006809D03*
X006503Y006809D03*
X006557Y006464D03*
X006557Y006462D03*
X006564Y006415D03*
X006669Y006186D03*
X007133Y006404D03*
X007196Y006809D03*
X007196Y006809D03*
D476*
X007030Y006186D03*
D477*
X007030Y006187D03*
X006669Y006187D03*
D478*
X006669Y006188D03*
X007030Y006188D03*
X007132Y006404D03*
X007195Y006807D03*
X006503Y006807D03*
D479*
X006504Y006806D03*
X006504Y006805D03*
X006559Y006459D03*
X006669Y006188D03*
X007194Y006805D03*
X007194Y006806D03*
D480*
X007132Y006406D03*
X007030Y006188D03*
X006565Y006417D03*
X006558Y006461D03*
D481*
X006559Y006459D03*
X006669Y006189D03*
X007029Y006189D03*
X007131Y006407D03*
D482*
X007131Y006407D03*
X007029Y006189D03*
X006669Y006189D03*
X006565Y006417D03*
X006558Y006460D03*
X006504Y006804D03*
X007194Y006804D03*
D483*
X007192Y006801D03*
X007131Y006409D03*
X007029Y006191D03*
X007029Y006190D03*
X006670Y006191D03*
X006670Y006190D03*
X006566Y006419D03*
X006560Y006456D03*
X006560Y006456D03*
X006506Y006801D03*
D484*
X006670Y006191D03*
D485*
X006561Y006455D03*
X007029Y006191D03*
X007131Y006410D03*
D486*
X007029Y006192D03*
X006670Y006192D03*
X006561Y006455D03*
D487*
X006670Y006192D03*
X007029Y006192D03*
D488*
X006670Y006193D03*
X006566Y006422D03*
X006562Y006453D03*
X006507Y006798D03*
X007191Y006798D03*
D489*
X007028Y006193D03*
D490*
X007130Y006413D03*
X007191Y006798D03*
X006671Y006194D03*
X006507Y006798D03*
D491*
X006508Y006797D03*
X006567Y006423D03*
X006671Y006194D03*
X007028Y006194D03*
X007028Y006194D03*
X007130Y006413D03*
X007190Y006797D03*
D492*
X006671Y006195D03*
D493*
X006564Y006450D03*
X007028Y006195D03*
D494*
X007028Y006195D03*
X007028Y006196D03*
X007130Y006416D03*
X007189Y006794D03*
X006671Y006196D03*
X006671Y006195D03*
X006567Y006425D03*
X006564Y006449D03*
X006564Y006449D03*
X006509Y006794D03*
D495*
X006671Y006197D03*
X007129Y006416D03*
D496*
X007027Y006197D03*
X006568Y006425D03*
X006564Y006448D03*
D497*
X006565Y006446D03*
X006568Y006426D03*
X006671Y006197D03*
X007027Y006198D03*
X007129Y006419D03*
D498*
X007027Y006197D03*
X006568Y006426D03*
X006564Y006447D03*
D499*
X006672Y006198D03*
D500*
X006672Y006198D03*
D501*
X006568Y006427D03*
X007027Y006198D03*
D502*
X006672Y006199D03*
X006569Y006428D03*
D503*
X006567Y006443D03*
X006672Y006200D03*
X007026Y006200D03*
X007026Y006199D03*
X007186Y006788D03*
X006512Y006788D03*
D504*
X006569Y006429D03*
X006672Y006200D03*
D505*
X006567Y006442D03*
X007026Y006200D03*
D506*
X006849Y006357D03*
X006673Y006201D03*
X006673Y006201D03*
X006569Y006430D03*
X006569Y006431D03*
X006568Y006441D03*
X006514Y006785D03*
X006513Y006786D03*
X007184Y006785D03*
X007185Y006786D03*
D507*
X007128Y006423D03*
X007026Y006201D03*
X007026Y006201D03*
D508*
X007026Y006202D03*
X007127Y006423D03*
X007130Y006444D03*
X007185Y006785D03*
X006673Y006202D03*
X006570Y006431D03*
X006568Y006440D03*
X006513Y006785D03*
D509*
X006673Y006203D03*
X007130Y006444D03*
D510*
X007130Y006443D03*
X007130Y006443D03*
X007130Y006445D03*
X007130Y006446D03*
X007130Y006447D03*
X007025Y006203D03*
X006570Y006432D03*
X006568Y006440D03*
D511*
X006570Y006437D03*
X006673Y006203D03*
X007025Y006203D03*
X007129Y006440D03*
X007131Y006451D03*
X007183Y006781D03*
X006515Y006781D03*
D512*
X006515Y006782D03*
X006673Y006204D03*
X007025Y006204D03*
X007127Y006425D03*
X007129Y006438D03*
X007129Y006440D03*
X007131Y006453D03*
X007183Y006782D03*
D513*
X007182Y006780D03*
X007131Y006456D03*
X007131Y006455D03*
X007131Y006454D03*
X007129Y006439D03*
X006849Y006357D03*
X006674Y006204D03*
X006570Y006436D03*
X006516Y006780D03*
D514*
X007025Y006204D03*
X007128Y006437D03*
X007130Y006456D03*
D515*
X007127Y006436D03*
X007025Y006205D03*
X006674Y006206D03*
X006674Y006205D03*
X006517Y006779D03*
X007181Y006779D03*
D516*
X007181Y006777D03*
X007130Y006458D03*
X007130Y006458D03*
X007127Y006435D03*
X007126Y006428D03*
X007025Y006206D03*
X006517Y006777D03*
D517*
X006674Y006206D03*
X007025Y006206D03*
X007125Y006429D03*
D518*
X007025Y006207D03*
X006674Y006207D03*
X006518Y006777D03*
D519*
X006519Y006775D03*
X006674Y006207D03*
X007025Y006207D03*
X007179Y006775D03*
D520*
X007179Y006774D03*
X006674Y006208D03*
X006519Y006774D03*
D521*
X007024Y006208D03*
D522*
X007024Y006209D03*
X007125Y006431D03*
X007179Y006773D03*
X006675Y006209D03*
X006519Y006773D03*
D523*
X006520Y006773D03*
X006674Y006209D03*
X007024Y006209D03*
X007124Y006432D03*
X007178Y006773D03*
D524*
X006675Y006210D03*
D525*
X007024Y006210D03*
D526*
X007024Y006210D03*
X007124Y006432D03*
X007178Y006771D03*
X006675Y006211D03*
X006675Y006210D03*
X006520Y006771D03*
D527*
X007023Y006211D03*
D528*
X007023Y006212D03*
X006675Y006212D03*
D529*
X006675Y006212D03*
X007023Y006212D03*
X007128Y006464D03*
D530*
X006676Y006213D03*
D531*
X007023Y006213D03*
X007128Y006464D03*
X007175Y006766D03*
X007176Y006767D03*
X007176Y006768D03*
X006523Y006766D03*
X006522Y006767D03*
X006522Y006768D03*
D532*
X006676Y006213D03*
X007023Y006213D03*
D533*
X007022Y006215D03*
X006676Y006215D03*
X006676Y006214D03*
X006524Y006764D03*
X007175Y006764D03*
D534*
X007175Y006765D03*
X007023Y006214D03*
X006523Y006765D03*
D535*
X006676Y006215D03*
D536*
X007022Y006215D03*
X007174Y006763D03*
X006524Y006763D03*
D537*
X006677Y006216D03*
X006677Y006216D03*
X007022Y006216D03*
D538*
X007022Y006216D03*
X007174Y006762D03*
X007174Y006762D03*
X006524Y006762D03*
X006524Y006762D03*
D539*
X006677Y006217D03*
X007022Y006217D03*
D540*
X007022Y006218D03*
X006677Y006218D03*
X006526Y006759D03*
X006526Y006760D03*
X007173Y006760D03*
X007173Y006759D03*
D541*
X007172Y006758D03*
X007172Y006758D03*
X007022Y006218D03*
X006677Y006218D03*
X006527Y006758D03*
X006527Y006758D03*
D542*
X006678Y006219D03*
D543*
X007021Y006219D03*
D544*
X006678Y006219D03*
X006678Y006220D03*
X006528Y006756D03*
D545*
X007021Y006220D03*
X007021Y006219D03*
X007171Y006756D03*
D546*
X007170Y006755D03*
X007170Y006754D03*
X006678Y006221D03*
X006528Y006754D03*
X006528Y006755D03*
D547*
X007021Y006221D03*
D548*
X006678Y006221D03*
X006529Y006753D03*
X007169Y006753D03*
D549*
X007021Y006221D03*
D550*
X007021Y006222D03*
X006678Y006222D03*
X006529Y006752D03*
X007169Y006752D03*
D551*
X007168Y006751D03*
X007168Y006750D03*
X006678Y006222D03*
X006530Y006750D03*
X006530Y006751D03*
D552*
X007020Y006222D03*
D553*
X006678Y006223D03*
D554*
X007020Y006223D03*
D555*
X007020Y006224D03*
X006679Y006224D03*
X006531Y006749D03*
X007167Y006749D03*
D556*
X007020Y006224D03*
X006679Y006224D03*
D557*
X006679Y006225D03*
D558*
X007020Y006225D03*
D559*
X006679Y006225D03*
D560*
X007020Y006225D03*
X007166Y006747D03*
X007166Y006747D03*
X006532Y006747D03*
X006532Y006747D03*
D561*
X006679Y006226D03*
D562*
X007019Y006226D03*
X007165Y006744D03*
X007165Y006745D03*
X006533Y006745D03*
X006533Y006744D03*
D563*
X006679Y006227D03*
D564*
X007019Y006227D03*
D565*
X006679Y006227D03*
D566*
X006680Y006228D03*
X007019Y006228D03*
X007019Y006227D03*
D567*
X007019Y006228D03*
X006680Y006228D03*
X006534Y006742D03*
X007164Y006742D03*
D568*
X007164Y006741D03*
X007019Y006229D03*
X006680Y006229D03*
X006535Y006741D03*
D569*
X006680Y006230D03*
D570*
X007019Y006230D03*
D571*
X007018Y006230D03*
X006680Y006230D03*
D572*
X006680Y006231D03*
X006680Y006231D03*
X007018Y006231D03*
X007162Y006737D03*
X006536Y006737D03*
D573*
X006536Y006738D03*
X006536Y006739D03*
X007018Y006231D03*
X007162Y006738D03*
X007163Y006739D03*
D574*
X007161Y006737D03*
X006681Y006232D03*
X006537Y006737D03*
D575*
X007018Y006232D03*
D576*
X007018Y006233D03*
X007018Y006233D03*
X006681Y006233D03*
X006681Y006233D03*
X006537Y006735D03*
X006537Y006736D03*
X007161Y006736D03*
X007161Y006735D03*
D577*
X006681Y006234D03*
D578*
X007017Y006234D03*
D579*
X007017Y006234D03*
X006681Y006234D03*
X006539Y006732D03*
X006539Y006732D03*
X007159Y006732D03*
X007160Y006732D03*
D580*
X006682Y006235D03*
D581*
X007017Y006235D03*
D582*
X006682Y006236D03*
X006540Y006730D03*
X006540Y006731D03*
X007158Y006731D03*
X007158Y006730D03*
D583*
X007017Y006236D03*
D584*
X007016Y006236D03*
X006682Y006236D03*
X006541Y006729D03*
X007158Y006729D03*
D585*
X007157Y006728D03*
X006682Y006237D03*
X006682Y006237D03*
X006541Y006728D03*
D586*
X007016Y006237D03*
X007016Y006237D03*
D587*
X007016Y006238D03*
X006683Y006238D03*
D588*
X006682Y006239D03*
X006542Y006726D03*
X006542Y006726D03*
X007156Y006726D03*
X007156Y006726D03*
D589*
X007016Y006239D03*
D590*
X007016Y006239D03*
X006683Y006239D03*
D591*
X006683Y006240D03*
X006543Y006723D03*
X007155Y006723D03*
D592*
X007016Y006240D03*
D593*
X006683Y006240D03*
D594*
X007016Y006240D03*
X007154Y006722D03*
X006544Y006722D03*
D595*
X006683Y006241D03*
D596*
X007016Y006241D03*
D597*
X006683Y006242D03*
D598*
X007015Y006242D03*
D599*
X006683Y006242D03*
X007154Y006721D03*
D600*
X007154Y006720D03*
X007015Y006242D03*
X006545Y006720D03*
D601*
X006684Y006243D03*
X007015Y006243D03*
D602*
X007015Y006243D03*
X006684Y006243D03*
X006546Y006718D03*
X007152Y006718D03*
D603*
X007152Y006717D03*
X006849Y006351D03*
X006684Y006244D03*
X007015Y006244D03*
X006546Y006717D03*
D604*
X006684Y006245D03*
D605*
X007015Y006245D03*
X007152Y006717D03*
X006546Y006717D03*
D606*
X006684Y006245D03*
X007015Y006245D03*
D607*
X007014Y006246D03*
X006684Y006246D03*
X006548Y006714D03*
X007151Y006714D03*
D608*
X007150Y006713D03*
X006685Y006246D03*
X006548Y006713D03*
D609*
X007014Y006246D03*
D610*
X007014Y006247D03*
X006685Y006247D03*
D611*
X006685Y006248D03*
X006685Y006248D03*
D612*
X007014Y006248D03*
X007014Y006248D03*
D613*
X007013Y006249D03*
X006685Y006249D03*
D614*
X006685Y006249D03*
X007013Y006249D03*
X007148Y006710D03*
X006550Y006710D03*
D615*
X006551Y006708D03*
X006849Y006351D03*
X006686Y006250D03*
X007148Y006708D03*
D616*
X007148Y006709D03*
X007013Y006250D03*
X006550Y006709D03*
D617*
X006551Y006707D03*
X006686Y006251D03*
X007147Y006707D03*
D618*
X007013Y006251D03*
D619*
X006686Y006251D03*
D620*
X007013Y006251D03*
X007146Y006705D03*
X006552Y006705D03*
D621*
X006552Y006704D03*
X006686Y006252D03*
X007013Y006252D03*
X007146Y006704D03*
D622*
X007145Y006704D03*
X007012Y006252D03*
X006686Y006252D03*
X006553Y006704D03*
D623*
X006554Y006701D03*
X006686Y006253D03*
X007144Y006701D03*
D624*
X007012Y006253D03*
D625*
X006686Y006254D03*
D626*
X007012Y006254D03*
D627*
X007012Y006254D03*
X006687Y006254D03*
X006554Y006700D03*
X006554Y006701D03*
X007144Y006701D03*
X007144Y006700D03*
D628*
X007012Y006255D03*
X006687Y006255D03*
D629*
X006687Y006255D03*
X006555Y006698D03*
X006555Y006698D03*
X007143Y006698D03*
X007143Y006698D03*
D630*
X006849Y006350D03*
X006687Y006256D03*
X007012Y006256D03*
X007012Y006255D03*
D631*
X007011Y006257D03*
X006687Y006257D03*
X006556Y006697D03*
X007142Y006697D03*
D632*
X006688Y006257D03*
D633*
X007011Y006257D03*
D634*
X006687Y006258D03*
X006557Y006695D03*
X007141Y006695D03*
D635*
X007141Y006694D03*
X007011Y006258D03*
X006558Y006694D03*
D636*
X006688Y006258D03*
D637*
X007011Y006258D03*
D638*
X006688Y006259D03*
D639*
X007011Y006259D03*
X007140Y006693D03*
X006558Y006693D03*
D640*
X006558Y006691D03*
X006688Y006260D03*
X007140Y006691D03*
D641*
X007140Y006692D03*
X007010Y006260D03*
X006558Y006692D03*
D642*
X006558Y006692D03*
X006688Y006260D03*
X007011Y006260D03*
X007140Y006692D03*
D643*
X006688Y006261D03*
D644*
X007010Y006261D03*
X007010Y006261D03*
D645*
X006689Y006261D03*
X006560Y006689D03*
X006559Y006690D03*
X007139Y006689D03*
X007139Y006690D03*
D646*
X006689Y006262D03*
D647*
X007010Y006262D03*
X007138Y006688D03*
X006560Y006688D03*
D648*
X006689Y006263D03*
D649*
X007010Y006263D03*
X007138Y006687D03*
X006560Y006687D03*
D650*
X006561Y006686D03*
X006689Y006263D03*
X007010Y006263D03*
X007137Y006686D03*
D651*
X006689Y006264D03*
D652*
X007009Y006264D03*
D653*
X007009Y006264D03*
X007009Y006265D03*
X006689Y006264D03*
X006563Y006683D03*
D654*
X006563Y006683D03*
X006690Y006266D03*
X006690Y006265D03*
X007009Y006266D03*
X007135Y006683D03*
D655*
X006690Y006266D03*
D656*
X006849Y006348D03*
X007009Y006266D03*
D657*
X007009Y006267D03*
X006690Y006267D03*
D658*
X006690Y006267D03*
X006564Y006680D03*
X007134Y006680D03*
D659*
X007008Y006267D03*
D660*
X006690Y006268D03*
D661*
X007008Y006268D03*
X007134Y006678D03*
X006564Y006678D03*
D662*
X006565Y006677D03*
X006691Y006269D03*
X007008Y006269D03*
X007133Y006677D03*
D663*
X007133Y006676D03*
X007008Y006269D03*
X006691Y006269D03*
X006566Y006676D03*
D664*
X006566Y006675D03*
X006691Y006270D03*
X007132Y006675D03*
D665*
X007008Y006270D03*
D666*
X007008Y006270D03*
X007008Y006271D03*
X006691Y006271D03*
X006691Y006270D03*
X006566Y006675D03*
X007132Y006675D03*
D667*
X007131Y006673D03*
X006691Y006272D03*
X006567Y006673D03*
D668*
X007007Y006272D03*
D669*
X007008Y006272D03*
X006691Y006272D03*
X006568Y006671D03*
X007130Y006671D03*
D670*
X006692Y006273D03*
D671*
X006849Y006348D03*
X007007Y006273D03*
D672*
X007007Y006273D03*
X006692Y006273D03*
X006569Y006669D03*
X007129Y006669D03*
D673*
X007128Y006668D03*
X007128Y006668D03*
X007007Y006274D03*
X006692Y006274D03*
X006570Y006668D03*
X006570Y006668D03*
D674*
X006570Y006666D03*
X006692Y006275D03*
X007128Y006666D03*
D675*
X006849Y006347D03*
X007007Y006275D03*
D676*
X006692Y006275D03*
D677*
X007007Y006275D03*
D678*
X006693Y006276D03*
X006693Y006276D03*
X006571Y006666D03*
X007128Y006666D03*
D679*
X007006Y006276D03*
X007006Y006276D03*
D680*
X006693Y006277D03*
X006572Y006663D03*
D681*
X007006Y006277D03*
X007126Y006663D03*
D682*
X006693Y006278D03*
D683*
X007006Y006278D03*
D684*
X007006Y006278D03*
X006693Y006278D03*
X007126Y006662D03*
X007126Y006663D03*
D685*
X007124Y006660D03*
X006693Y006279D03*
X006574Y006660D03*
D686*
X007006Y006279D03*
D687*
X006693Y006279D03*
D688*
X007005Y006279D03*
X007124Y006659D03*
X006574Y006659D03*
D689*
X006574Y006659D03*
X006694Y006281D03*
X006694Y006280D03*
X007005Y006280D03*
X007124Y006659D03*
D690*
X007123Y006657D03*
X007005Y006282D03*
X007005Y006281D03*
X006575Y006657D03*
D691*
X006575Y006656D03*
X006694Y006281D03*
X007123Y006656D03*
D692*
X007005Y006281D03*
D693*
X006694Y006282D03*
X006575Y006657D03*
X007123Y006657D03*
D694*
X007122Y006656D03*
X006849Y006346D03*
X006694Y006282D03*
X006576Y006656D03*
D695*
X007004Y006282D03*
D696*
X006694Y006283D03*
D697*
X007004Y006283D03*
D698*
X007004Y006284D03*
X007121Y006653D03*
X006695Y006284D03*
X006577Y006653D03*
D699*
X006695Y006284D03*
D700*
X007004Y006284D03*
D701*
X007121Y006652D03*
X006695Y006285D03*
X006577Y006652D03*
D702*
X007004Y006285D03*
D703*
X007004Y006285D03*
X006695Y006285D03*
X006695Y006286D03*
D704*
X007003Y006286D03*
D705*
X007003Y006287D03*
X006695Y006287D03*
D706*
X006695Y006287D03*
D707*
X006579Y006648D03*
X007004Y006287D03*
X007119Y006648D03*
D708*
X007119Y006647D03*
X006695Y006288D03*
X006580Y006647D03*
D709*
X006849Y006345D03*
X007003Y006288D03*
D710*
X007118Y006647D03*
X006696Y006288D03*
X006580Y006647D03*
D711*
X007003Y006288D03*
D712*
X007003Y006289D03*
X007117Y006644D03*
X007117Y006644D03*
X006696Y006289D03*
X006581Y006644D03*
X006581Y006644D03*
D713*
X006696Y006290D03*
D714*
X007003Y006290D03*
D715*
X007002Y006290D03*
X007116Y006643D03*
X006696Y006290D03*
X006582Y006643D03*
D716*
X006696Y006291D03*
X006696Y006291D03*
X007002Y006291D03*
D717*
X007002Y006291D03*
X007115Y006641D03*
X006583Y006641D03*
D718*
X006697Y006292D03*
D719*
X006584Y006639D03*
X007002Y006292D03*
X007114Y006639D03*
D720*
X007115Y006639D03*
X006697Y006293D03*
X006583Y006639D03*
D721*
X007002Y006293D03*
D722*
X007113Y006636D03*
X006697Y006293D03*
X006585Y006636D03*
D723*
X007002Y006293D03*
D724*
X006697Y006294D03*
D725*
X007002Y006294D03*
D726*
X006849Y006294D03*
X006849Y006295D03*
D727*
X006849Y006296D03*
X006849Y006297D03*
X006849Y006297D03*
D728*
X006849Y006296D03*
D729*
X006849Y006298D03*
D730*
X006849Y006299D03*
D731*
X006849Y006299D03*
D732*
X006849Y006300D03*
X006849Y006302D03*
D733*
X006849Y006302D03*
X006849Y006303D03*
X006849Y006301D03*
X006849Y006300D03*
D734*
X006849Y006303D03*
D735*
X006849Y006304D03*
D736*
X006849Y006305D03*
D737*
X006849Y006305D03*
D738*
X006849Y006306D03*
D739*
X006849Y006306D03*
D740*
X006849Y006307D03*
D741*
X006849Y006308D03*
D742*
X006849Y006308D03*
D743*
X006849Y006309D03*
D744*
X006849Y006309D03*
D745*
X006849Y006310D03*
D746*
X006849Y006311D03*
D747*
X006849Y006311D03*
D748*
X006849Y006312D03*
D749*
X006849Y006312D03*
D750*
X006849Y006313D03*
D751*
X006849Y006314D03*
D752*
X006849Y006314D03*
D753*
X006849Y006315D03*
D754*
X006849Y006315D03*
D755*
X006849Y006316D03*
D756*
X006849Y006317D03*
D757*
X006849Y006317D03*
D758*
X006849Y006318D03*
D759*
X006849Y006318D03*
D760*
X006849Y006319D03*
D761*
X006849Y006320D03*
D762*
X006849Y006320D03*
D763*
X006849Y006321D03*
D764*
X006849Y006321D03*
D765*
X006849Y006322D03*
D766*
X006849Y006323D03*
D767*
X006849Y006323D03*
D768*
X006849Y006324D03*
D769*
X006849Y006324D03*
D770*
X006849Y006325D03*
D771*
X006849Y006326D03*
D772*
X006849Y006326D03*
D773*
X006849Y006327D03*
D774*
X006849Y006327D03*
D775*
X006849Y006328D03*
D776*
X006849Y006329D03*
D777*
X006849Y006329D03*
D778*
X006849Y006330D03*
D779*
X006849Y006330D03*
D780*
X006849Y006331D03*
D781*
X006849Y006332D03*
D782*
X006849Y006332D03*
D783*
X006849Y006333D03*
X006650Y006498D03*
X007048Y006498D03*
D784*
X006849Y006333D03*
D785*
X006849Y006334D03*
X006643Y006514D03*
X007055Y006514D03*
D786*
X007058Y006519D03*
X006849Y006335D03*
X006641Y006519D03*
D787*
X006636Y006528D03*
X006849Y006335D03*
X007062Y006528D03*
D788*
X007064Y006534D03*
X006849Y006336D03*
X006634Y006534D03*
D789*
X006849Y006336D03*
D790*
X006849Y006337D03*
X006627Y006547D03*
X007071Y006547D03*
D791*
X007076Y006557D03*
X006849Y006338D03*
X006623Y006557D03*
D792*
X006621Y006561D03*
X006621Y006561D03*
X006849Y006338D03*
X007077Y006561D03*
X007077Y006561D03*
D793*
X006849Y006339D03*
D794*
X006849Y006339D03*
D795*
X006849Y006340D03*
X006611Y006582D03*
X006611Y006582D03*
X007087Y006582D03*
X007088Y006582D03*
D796*
X007092Y006593D03*
X006849Y006341D03*
X006606Y006593D03*
D797*
X006603Y006598D03*
X006849Y006341D03*
X007095Y006598D03*
D798*
X007097Y006602D03*
X007097Y006603D03*
X006849Y006342D03*
X006601Y006602D03*
X006601Y006603D03*
D799*
X006849Y006342D03*
X007100Y006608D03*
D800*
X006849Y006343D03*
D801*
X006849Y006344D03*
X006590Y006626D03*
X007108Y006626D03*
D802*
X007113Y006635D03*
X006849Y006344D03*
X006585Y006635D03*
D803*
X006849Y006345D03*
D804*
X006849Y006347D03*
X006573Y006662D03*
D805*
X006849Y006349D03*
D806*
X006849Y006350D03*
D807*
X006849Y006352D03*
D808*
X006849Y006353D03*
X006541Y006728D03*
X007157Y006728D03*
D809*
X006849Y006353D03*
D810*
X006849Y006354D03*
D811*
X006849Y006354D03*
X006591Y006364D03*
X007107Y006364D03*
D812*
X006849Y006355D03*
D813*
X006849Y006356D03*
D814*
X006849Y006356D03*
D815*
X006849Y006358D03*
D816*
X006849Y006359D03*
X007130Y006414D03*
X007130Y006415D03*
X007190Y006795D03*
X007190Y006796D03*
X006563Y006451D03*
D817*
X006564Y006416D03*
X006849Y006359D03*
X007132Y006405D03*
D818*
X006849Y006360D03*
D819*
X006490Y006361D03*
D820*
X006512Y006362D03*
X007186Y006362D03*
D821*
X006849Y006362D03*
X006491Y006832D03*
X007207Y006832D03*
D822*
X007177Y006362D03*
X006521Y006362D03*
D823*
X006565Y006363D03*
X006492Y006830D03*
X007206Y006830D03*
D824*
X006849Y006363D03*
X006481Y006853D03*
D825*
X007133Y006363D03*
D826*
X006849Y006364D03*
X006481Y006854D03*
X006481Y006854D03*
D827*
X006849Y006369D03*
X006849Y006368D03*
X006849Y006368D03*
X006849Y006366D03*
X006849Y006366D03*
X006849Y006365D03*
D828*
X006849Y006365D03*
X006849Y006367D03*
X006849Y006369D03*
D829*
X006849Y006370D03*
X006849Y006371D03*
X006849Y006372D03*
X006849Y006372D03*
D830*
X006849Y006371D03*
D831*
X006849Y006373D03*
X006849Y006375D03*
D832*
X006849Y006375D03*
X006849Y006374D03*
X006849Y006374D03*
D833*
X006849Y006376D03*
X006849Y006377D03*
X006849Y006378D03*
X006849Y006379D03*
X006849Y006380D03*
X006849Y006381D03*
X006849Y006381D03*
D834*
X006849Y006380D03*
X006849Y006378D03*
X006849Y006377D03*
D835*
X006849Y006382D03*
X006849Y006384D03*
D836*
X006849Y006384D03*
X006849Y006383D03*
X006849Y006383D03*
D837*
X006849Y006385D03*
X006849Y006386D03*
X006849Y006387D03*
X006849Y006387D03*
D838*
X006849Y006386D03*
X006849Y006388D03*
D839*
X006849Y006389D03*
X006849Y006389D03*
X006849Y006390D03*
X006849Y006391D03*
X006849Y006392D03*
X006849Y006393D03*
D840*
X006849Y006393D03*
X006849Y006392D03*
X006849Y006390D03*
D841*
X006849Y006394D03*
X006849Y006395D03*
X006849Y006396D03*
X006849Y006396D03*
D842*
X006849Y006395D03*
D843*
X006849Y006397D03*
X006849Y006399D03*
D844*
X006849Y006398D03*
X006849Y006398D03*
D845*
X006793Y006399D03*
X006793Y006400D03*
X006758Y006444D03*
D846*
X006739Y006443D03*
X006683Y006446D03*
X006683Y006423D03*
X006829Y006444D03*
X006829Y006445D03*
X006884Y006426D03*
X006867Y006399D03*
D847*
X006897Y006399D03*
X006919Y006446D03*
X006830Y006413D03*
X006807Y006464D03*
D848*
X006855Y006453D03*
X006710Y006441D03*
X006710Y006428D03*
X007012Y006399D03*
D849*
X006722Y006400D03*
D850*
X006683Y006422D03*
X006683Y006447D03*
X006758Y006445D03*
X006794Y006402D03*
X006794Y006402D03*
X006829Y006443D03*
X006884Y006445D03*
X006866Y006402D03*
X006932Y006400D03*
X007001Y006428D03*
D851*
X006559Y006401D03*
D852*
X006721Y006401D03*
X006740Y006441D03*
X006866Y006402D03*
X006884Y006425D03*
X006884Y006446D03*
X006932Y006401D03*
X007323Y007094D03*
X007323Y007094D03*
X006375Y007094D03*
X006375Y007094D03*
D853*
X006560Y006401D03*
D854*
X006683Y006401D03*
X006830Y006403D03*
D855*
X006866Y006403D03*
X006721Y006401D03*
D856*
X006758Y006401D03*
X006758Y006403D03*
X006758Y006405D03*
X006758Y006407D03*
X006758Y006408D03*
X006758Y006410D03*
X006758Y006412D03*
X006758Y006414D03*
X006758Y006416D03*
X006758Y006418D03*
X006758Y006420D03*
X006758Y006422D03*
X006758Y006423D03*
X006758Y006425D03*
X006914Y006435D03*
X007301Y007038D03*
X006398Y007038D03*
D857*
X006375Y007095D03*
X006829Y006444D03*
X006793Y006401D03*
X007324Y007095D03*
D858*
X007300Y007037D03*
X006830Y006401D03*
X006399Y007037D03*
D859*
X006920Y006448D03*
X006920Y006423D03*
X006896Y006401D03*
D860*
X006866Y006405D03*
X006885Y006446D03*
X006829Y006442D03*
X006794Y006405D03*
X006740Y006440D03*
X006932Y006401D03*
X007323Y007093D03*
X006375Y007093D03*
D861*
X006683Y006448D03*
X006720Y006403D03*
X006829Y006440D03*
X006865Y006407D03*
X006981Y006407D03*
X006981Y006405D03*
X006981Y006403D03*
X006981Y006401D03*
X007002Y006427D03*
D862*
X007133Y006401D03*
X006563Y006412D03*
D863*
X006560Y006402D03*
X006492Y006830D03*
X007206Y006830D03*
D864*
X007322Y007092D03*
X007001Y006428D03*
X006885Y006424D03*
X006866Y006404D03*
X006866Y006404D03*
X006794Y006405D03*
X006758Y006446D03*
X006740Y006441D03*
X006721Y006467D03*
X006721Y006402D03*
X006376Y007092D03*
D865*
X006683Y006459D03*
X006711Y006443D03*
X006711Y006426D03*
X006683Y006410D03*
X006829Y006419D03*
X006856Y006449D03*
X006856Y006449D03*
X007011Y006402D03*
D866*
X006916Y006432D03*
X006683Y006402D03*
X006396Y007043D03*
X007302Y007043D03*
D867*
X006829Y006441D03*
X006829Y006441D03*
X006721Y006402D03*
D868*
X006830Y006402D03*
X006914Y006434D03*
X006914Y006436D03*
X007301Y007039D03*
X006397Y007039D03*
D869*
X006389Y007058D03*
X006710Y006441D03*
X006710Y006428D03*
X006854Y006454D03*
X006854Y006455D03*
X006920Y006449D03*
X006896Y006402D03*
X007309Y007058D03*
D870*
X006560Y006403D03*
D871*
X006683Y006403D03*
X006916Y006440D03*
D872*
X006921Y006450D03*
X006896Y006403D03*
X006758Y006459D03*
X006683Y006408D03*
X006389Y007059D03*
X007309Y007059D03*
D873*
X007321Y007089D03*
X006930Y006403D03*
X006886Y006422D03*
X006864Y006410D03*
X006795Y006410D03*
X006720Y006405D03*
X006377Y007089D03*
D874*
X006683Y006459D03*
X006711Y006444D03*
X006711Y006425D03*
X006856Y006448D03*
X006922Y006420D03*
X007011Y006403D03*
D875*
X007133Y006403D03*
X007196Y006810D03*
X006502Y006810D03*
D876*
X006494Y006825D03*
X006560Y006404D03*
X007204Y006825D03*
D877*
X006830Y006404D03*
D878*
X006829Y006438D03*
X006796Y006413D03*
X006774Y006437D03*
X006930Y006404D03*
X007321Y007088D03*
X007321Y007088D03*
X006378Y007088D03*
X006378Y007088D03*
D879*
X006712Y006445D03*
X006712Y006424D03*
X006803Y006449D03*
X006803Y006449D03*
X006856Y006447D03*
X006856Y006446D03*
X006894Y006406D03*
X006922Y006419D03*
X006922Y006453D03*
X007010Y006404D03*
D880*
X006830Y006409D03*
X006758Y006464D03*
X006683Y006404D03*
X006394Y007047D03*
X007304Y007047D03*
D881*
X006561Y006405D03*
D882*
X006830Y006405D03*
X006396Y007042D03*
X007302Y007042D03*
D883*
X006895Y006405D03*
D884*
X006894Y006407D03*
X007010Y006405D03*
X006712Y006423D03*
D885*
X006564Y006416D03*
X007132Y006405D03*
D886*
X006683Y006405D03*
X006683Y006464D03*
D887*
X006719Y006464D03*
X006757Y006447D03*
X006719Y006405D03*
X006864Y006411D03*
X006864Y006411D03*
X006886Y006421D03*
X006980Y006429D03*
X006980Y006430D03*
X006980Y006431D03*
X006980Y006432D03*
X006980Y006432D03*
X006980Y006434D03*
X006980Y006434D03*
X006980Y006435D03*
X006980Y006436D03*
X006980Y006437D03*
X006980Y006438D03*
D888*
X006966Y006439D03*
X006966Y006440D03*
X006966Y006441D03*
X006966Y006441D03*
X006966Y006443D03*
X006966Y006443D03*
X006966Y006444D03*
X006966Y006445D03*
X006966Y006446D03*
X006966Y006447D03*
X006966Y006447D03*
X006966Y006449D03*
X006966Y006449D03*
X006966Y006450D03*
X006966Y006451D03*
X006966Y006452D03*
X006966Y006453D03*
X006966Y006454D03*
X006966Y006455D03*
X006966Y006456D03*
X006966Y006456D03*
X006966Y006458D03*
X006966Y006458D03*
X006966Y006428D03*
X006966Y006428D03*
X006966Y006426D03*
X006966Y006426D03*
X006966Y006425D03*
X006966Y006424D03*
X006966Y006423D03*
X006966Y006422D03*
X006966Y006421D03*
X006966Y006420D03*
X006966Y006419D03*
X006966Y006419D03*
X006966Y006417D03*
X006966Y006417D03*
X006966Y006416D03*
X006966Y006415D03*
X006966Y006414D03*
X006966Y006413D03*
X006966Y006413D03*
X006966Y006411D03*
X006966Y006411D03*
X006966Y006410D03*
X006966Y006409D03*
X006916Y006439D03*
X006830Y006406D03*
X006830Y006405D03*
D889*
X006797Y006417D03*
X006758Y006449D03*
X006743Y006434D03*
X006929Y006405D03*
D890*
X006561Y006406D03*
X006496Y006822D03*
X007203Y006822D03*
D891*
X006807Y006466D03*
X006807Y006465D03*
X006683Y006406D03*
D892*
X006683Y006407D03*
X006709Y006431D03*
X006806Y006463D03*
X006919Y006446D03*
D893*
X006929Y006467D03*
X006929Y006407D03*
X006888Y006418D03*
X006863Y006418D03*
X006829Y006435D03*
X006797Y006420D03*
X006772Y006433D03*
X006743Y006433D03*
X006683Y006418D03*
X006380Y007083D03*
X007319Y007083D03*
D894*
X007202Y006822D03*
X006562Y006407D03*
X006496Y006822D03*
D895*
X006683Y006450D03*
X006683Y006419D03*
X006719Y006408D03*
X006719Y006407D03*
X006719Y006462D03*
X006863Y006416D03*
X006863Y006415D03*
X006887Y006419D03*
X007004Y006424D03*
X007004Y006440D03*
D896*
X006917Y006441D03*
X006917Y006430D03*
X006830Y006408D03*
X006830Y006407D03*
X006758Y006464D03*
X006395Y007046D03*
D897*
X006380Y007082D03*
X006744Y006432D03*
X006772Y006432D03*
X006798Y006421D03*
X006798Y006420D03*
X006829Y006434D03*
X006829Y006434D03*
X006888Y006417D03*
X006928Y006407D03*
X006928Y006466D03*
X007318Y007082D03*
D898*
X006924Y006456D03*
X006893Y006464D03*
X006858Y006441D03*
X006858Y006441D03*
X006924Y006417D03*
X007009Y006407D03*
X006713Y006421D03*
X006713Y006447D03*
D899*
X006744Y006432D03*
X006862Y006421D03*
X006862Y006420D03*
X006888Y006417D03*
X006888Y006454D03*
X006928Y006465D03*
X006928Y006408D03*
X007005Y006421D03*
X007005Y006441D03*
X007318Y007081D03*
X006380Y007081D03*
D900*
X006505Y006803D03*
X006559Y006458D03*
X007131Y006408D03*
X007193Y006803D03*
D901*
X006562Y006408D03*
D902*
X006718Y006408D03*
X006797Y006418D03*
X006863Y006416D03*
X007004Y006423D03*
X007004Y006440D03*
D903*
X006795Y006408D03*
X006758Y006446D03*
D904*
X006758Y006463D03*
X006683Y006465D03*
X006830Y006408D03*
X006917Y006429D03*
X006917Y006442D03*
D905*
X006886Y006448D03*
X006865Y006408D03*
X006741Y006438D03*
X006720Y006465D03*
X006981Y006465D03*
X006981Y006467D03*
X006981Y006463D03*
X006981Y006461D03*
X006981Y006459D03*
D906*
X007005Y006442D03*
X006928Y006465D03*
X006928Y006408D03*
X006889Y006416D03*
X006862Y006422D03*
X006829Y006433D03*
X006798Y006423D03*
X006771Y006431D03*
D907*
X006683Y006467D03*
X006916Y006431D03*
X006966Y006429D03*
X006966Y006427D03*
X006966Y006425D03*
X006966Y006423D03*
X006966Y006422D03*
X006966Y006420D03*
X006966Y006418D03*
X006966Y006416D03*
X006966Y006414D03*
X006966Y006412D03*
X006966Y006410D03*
X006966Y006408D03*
X006966Y006438D03*
X006966Y006440D03*
X006966Y006442D03*
X006966Y006444D03*
X006966Y006446D03*
X006966Y006448D03*
X006966Y006450D03*
X006966Y006452D03*
X006966Y006453D03*
X006966Y006455D03*
X006966Y006457D03*
D908*
X007131Y006408D03*
X007193Y006802D03*
X006506Y006802D03*
D909*
X006381Y007079D03*
X006758Y006451D03*
X006758Y006450D03*
X006771Y006430D03*
X006744Y006430D03*
X006798Y006425D03*
X006889Y006416D03*
X006927Y006409D03*
X006927Y006464D03*
X006889Y006456D03*
X007317Y007079D03*
D910*
X006562Y006410D03*
D911*
X006718Y006410D03*
X006718Y006459D03*
X006862Y006419D03*
X006862Y006419D03*
X007004Y006441D03*
X007004Y006456D03*
D912*
X007008Y006410D03*
X006924Y006415D03*
X006892Y006410D03*
X006858Y006437D03*
X006892Y006462D03*
X006924Y006458D03*
X006758Y006455D03*
X006714Y006419D03*
D913*
X006506Y006801D03*
X007131Y006410D03*
X007192Y006801D03*
D914*
X006683Y006410D03*
D915*
X006717Y006410D03*
X006744Y006431D03*
X006758Y006450D03*
X006717Y006459D03*
X007005Y006455D03*
D916*
X006892Y006461D03*
X006859Y006435D03*
X006892Y006410D03*
X006801Y006438D03*
X006385Y007070D03*
X007314Y007070D03*
D917*
X007006Y006452D03*
X007006Y006446D03*
X007006Y006418D03*
X006927Y006410D03*
X006927Y006463D03*
X006890Y006457D03*
X006770Y006429D03*
X006745Y006429D03*
X006758Y006452D03*
X006683Y006453D03*
D918*
X006714Y006450D03*
X006858Y006437D03*
X007008Y006410D03*
D919*
X006829Y006411D03*
X006708Y006434D03*
X006393Y007050D03*
X007306Y007050D03*
D920*
X007130Y006411D03*
X006566Y006420D03*
D921*
X006563Y006411D03*
X007199Y006815D03*
D922*
X007315Y007073D03*
X006925Y006459D03*
X006891Y006460D03*
X006859Y006432D03*
X006891Y006411D03*
X006925Y006413D03*
X007008Y006413D03*
X007008Y006413D03*
X006715Y006417D03*
X006715Y006452D03*
X006384Y007073D03*
D923*
X006507Y006800D03*
X006507Y006799D03*
X006561Y006454D03*
X006566Y006421D03*
X007130Y006411D03*
X007191Y006799D03*
X007191Y006800D03*
D924*
X006683Y006457D03*
X006683Y006412D03*
D925*
X006717Y006412D03*
X006717Y006457D03*
X006861Y006423D03*
X007005Y006420D03*
D926*
X006829Y006438D03*
X006796Y006412D03*
X006774Y006437D03*
X006742Y006437D03*
X006683Y006420D03*
D927*
X006683Y006463D03*
X006807Y006467D03*
X006829Y006412D03*
D928*
X006800Y006433D03*
X006860Y006431D03*
X006891Y006412D03*
X007007Y006414D03*
D929*
X006926Y006412D03*
X006926Y006461D03*
X006890Y006459D03*
X006715Y006453D03*
D930*
X006714Y006452D03*
X006683Y006455D03*
X006683Y006414D03*
X006758Y006453D03*
X006801Y006437D03*
X006925Y006459D03*
X006925Y006414D03*
X007008Y006412D03*
X007314Y007072D03*
X006384Y007072D03*
D931*
X007130Y006412D03*
D932*
X006563Y006413D03*
D933*
X006758Y006453D03*
X006800Y006434D03*
X006800Y006434D03*
X006860Y006432D03*
X006891Y006459D03*
X006926Y006460D03*
X006926Y006461D03*
X006926Y006413D03*
X007007Y006414D03*
D934*
X007006Y006445D03*
X007006Y006446D03*
X007006Y006451D03*
X007006Y006452D03*
X006890Y006414D03*
X006861Y006426D03*
X006861Y006426D03*
X006830Y006431D03*
X006799Y006428D03*
X006799Y006428D03*
X006716Y006413D03*
X006683Y006416D03*
X006716Y006456D03*
X006382Y007077D03*
X006382Y007077D03*
X007316Y007077D03*
X007316Y007077D03*
D935*
X006564Y006414D03*
X006556Y006465D03*
D936*
X006799Y006429D03*
X006890Y006414D03*
X007006Y006448D03*
X007006Y006450D03*
D937*
X007130Y006414D03*
X007190Y006797D03*
X006567Y006423D03*
X006508Y006797D03*
D938*
X006556Y006464D03*
X006564Y006414D03*
D939*
X006683Y006414D03*
X006683Y006455D03*
X006715Y006453D03*
X006383Y007074D03*
X007315Y007074D03*
D940*
X006800Y006431D03*
X006800Y006430D03*
X006683Y006415D03*
X006683Y006454D03*
D941*
X006715Y006416D03*
X006383Y007074D03*
X007315Y007074D03*
D942*
X007129Y006417D03*
D943*
X006798Y006422D03*
X006798Y006423D03*
X006771Y006432D03*
X006683Y006417D03*
D944*
X006565Y006447D03*
X006510Y006792D03*
X006510Y006792D03*
X007129Y006417D03*
X007188Y006792D03*
X007188Y006792D03*
D945*
X007194Y006804D03*
X006565Y006418D03*
X006505Y006804D03*
D946*
X006714Y006418D03*
D947*
X006712Y006446D03*
X006803Y006446D03*
X006857Y006444D03*
X006923Y006418D03*
D948*
X007129Y006418D03*
X006565Y006446D03*
D949*
X006566Y006419D03*
D950*
X006714Y006419D03*
X006714Y006450D03*
D951*
X006683Y006449D03*
X006683Y006419D03*
X006773Y006436D03*
D952*
X006861Y006423D03*
X007005Y006419D03*
X007005Y006443D03*
X007005Y006443D03*
X007005Y006454D03*
X006683Y006452D03*
D953*
X006566Y006444D03*
X006566Y006445D03*
X006511Y006790D03*
X006511Y006791D03*
X007128Y006419D03*
X007187Y006790D03*
X007187Y006791D03*
D954*
X006560Y006457D03*
X006566Y006420D03*
D955*
X006862Y006420D03*
X007004Y006422D03*
D956*
X007128Y006420D03*
D957*
X007128Y006420D03*
X007187Y006789D03*
X006512Y006789D03*
D958*
X006513Y006788D03*
X006567Y006443D03*
X006570Y006429D03*
X007128Y006421D03*
X007186Y006788D03*
D959*
X006683Y006422D03*
D960*
X006683Y006452D03*
X006798Y006422D03*
D961*
X006805Y006455D03*
X006855Y006452D03*
X006921Y006422D03*
X006710Y006427D03*
X006710Y006442D03*
D962*
X006513Y006787D03*
X007128Y006422D03*
X007185Y006787D03*
D963*
X006567Y006422D03*
D964*
X006567Y006441D03*
X006513Y006786D03*
X007128Y006422D03*
X007185Y006786D03*
D965*
X006683Y006423D03*
D966*
X006567Y006424D03*
D967*
X006683Y006424D03*
X006683Y006445D03*
X006777Y006445D03*
D968*
X006514Y006784D03*
X007131Y006449D03*
X007131Y006449D03*
X007131Y006447D03*
X007128Y006424D03*
X007184Y006784D03*
D969*
X006999Y006458D03*
X006882Y006441D03*
X006882Y006428D03*
X006829Y006447D03*
X006777Y006447D03*
X006758Y006443D03*
X006683Y006444D03*
X006683Y006425D03*
D970*
X006570Y006432D03*
X006569Y006438D03*
X006569Y006439D03*
X006515Y006782D03*
X006515Y006783D03*
X007131Y006453D03*
X007131Y006452D03*
X007131Y006450D03*
X007130Y006441D03*
X007130Y006441D03*
X007127Y006425D03*
X007184Y006782D03*
X007184Y006783D03*
D971*
X007326Y007102D03*
X006758Y006442D03*
X006737Y006448D03*
X006683Y006444D03*
X006683Y006425D03*
X006372Y007102D03*
D972*
X006381Y007080D03*
X006798Y006425D03*
X006889Y006455D03*
X007317Y007080D03*
D973*
X006919Y006425D03*
X006807Y006465D03*
X006758Y006461D03*
D974*
X006886Y006450D03*
X006980Y006437D03*
X006980Y006435D03*
X006980Y006433D03*
X006980Y006431D03*
X007003Y006425D03*
D975*
X007127Y006426D03*
X007127Y006426D03*
X007128Y006438D03*
D976*
X006881Y006437D03*
X006881Y006432D03*
X006829Y006452D03*
X006779Y006451D03*
X006736Y006451D03*
X006683Y006426D03*
D977*
X006769Y006426D03*
X006829Y006428D03*
D978*
X006800Y006431D03*
X006770Y006427D03*
D979*
X006829Y006446D03*
X006883Y006427D03*
D980*
X006918Y006427D03*
X006918Y006444D03*
X006852Y006465D03*
D981*
X007127Y006427D03*
X007128Y006437D03*
X007131Y006457D03*
X007181Y006778D03*
X006517Y006778D03*
D982*
X006568Y006428D03*
D983*
X007126Y006428D03*
D984*
X006710Y006429D03*
X006710Y006440D03*
D985*
X006829Y006429D03*
D986*
X006829Y006448D03*
X006882Y006440D03*
X006882Y006429D03*
X006999Y006429D03*
D987*
X007125Y006429D03*
X007126Y006434D03*
X007130Y006459D03*
X007180Y006776D03*
X006519Y006776D03*
D988*
X006519Y006774D03*
X007130Y006461D03*
X007125Y006430D03*
X007179Y006774D03*
D989*
X007327Y007104D03*
X006881Y006431D03*
X006736Y006450D03*
X006371Y007104D03*
D990*
X007124Y006431D03*
D991*
X006853Y006461D03*
X006853Y006462D03*
X006708Y006437D03*
X006708Y006432D03*
X006708Y006432D03*
D992*
X006570Y006433D03*
X007131Y006455D03*
D993*
X006915Y006433D03*
X007301Y007040D03*
X006397Y007040D03*
D994*
X007130Y006461D03*
X007125Y006433D03*
D995*
X007182Y006779D03*
X006571Y006435D03*
X006571Y006434D03*
X006571Y006434D03*
X006516Y006779D03*
D996*
X006379Y007085D03*
X006772Y006434D03*
X006772Y006434D03*
X007319Y007085D03*
D997*
X007126Y006434D03*
D998*
X007182Y006780D03*
X006571Y006435D03*
X006516Y006780D03*
D999*
X006708Y006435D03*
D1000*
X007127Y006435D03*
X007130Y006459D03*
D1001*
X006800Y006435D03*
D1002*
X006570Y006437D03*
D1003*
X006708Y006437D03*
X006853Y006461D03*
X007307Y007053D03*
X006392Y007053D03*
D1004*
X006758Y006467D03*
X006915Y006437D03*
D1005*
X006881Y006438D03*
X006736Y006450D03*
D1006*
X006569Y006438D03*
X006514Y006783D03*
X007131Y006450D03*
X007131Y006448D03*
X007184Y006783D03*
D1007*
X006774Y006438D03*
D1008*
X006779Y006450D03*
X006829Y006450D03*
X006881Y006438D03*
D1009*
X006883Y006442D03*
X006999Y006438D03*
X007325Y007098D03*
X006373Y007098D03*
D1010*
X006683Y006456D03*
X006801Y006440D03*
X006801Y006439D03*
D1011*
X006829Y006452D03*
X006758Y006440D03*
X006683Y006442D03*
X006413Y007241D03*
D1012*
X006386Y007067D03*
X006857Y006442D03*
X006893Y006465D03*
X006923Y006455D03*
D1013*
X007130Y006442D03*
X007130Y006446D03*
D1014*
X006802Y006443D03*
X006386Y007067D03*
X007312Y007067D03*
D1015*
X006883Y006443D03*
X006776Y006444D03*
X006739Y006444D03*
D1016*
X006566Y006444D03*
D1017*
X006802Y006444D03*
D1018*
X006777Y006446D03*
X006829Y006447D03*
D1019*
X006829Y006446D03*
X006374Y007097D03*
X007324Y007097D03*
D1020*
X006777Y006446D03*
D1021*
X006778Y006448D03*
D1022*
X006803Y006448D03*
X006923Y006453D03*
X007311Y007065D03*
X006387Y007065D03*
D1023*
X006683Y006450D03*
X007320Y007087D03*
D1024*
X006563Y006450D03*
X006509Y006795D03*
X006509Y006796D03*
D1025*
X006370Y007105D03*
X006779Y006450D03*
X006829Y006451D03*
X007328Y007105D03*
D1026*
X006563Y006452D03*
D1027*
X006804Y006452D03*
X006922Y006452D03*
X007310Y007061D03*
X006388Y007061D03*
D1028*
X006719Y006461D03*
X006887Y006452D03*
D1029*
X007131Y006452D03*
D1030*
X006562Y006453D03*
X006562Y006452D03*
D1031*
X006855Y006453D03*
D1032*
X006854Y006455D03*
X006806Y006459D03*
X006683Y006461D03*
X006390Y007057D03*
X007308Y007057D03*
D1033*
X007308Y007055D03*
X006854Y006457D03*
X006391Y007055D03*
D1034*
X006505Y006803D03*
X006560Y006458D03*
X007193Y006803D03*
D1035*
X006805Y006458D03*
X006805Y006458D03*
D1036*
X007130Y006460D03*
D1037*
X006558Y006461D03*
D1038*
X006558Y006462D03*
D1039*
X006806Y006462D03*
X006806Y006462D03*
D1040*
X007129Y006462D03*
D1041*
X007129Y006462D03*
X007178Y006771D03*
X006520Y006771D03*
D1042*
X006503Y006808D03*
X006557Y006463D03*
X007196Y006808D03*
D1043*
X007129Y006463D03*
D1044*
X006758Y006465D03*
X006395Y007044D03*
X007303Y007044D03*
D1045*
X007175Y006765D03*
X007128Y006465D03*
X006523Y006765D03*
D1046*
X006683Y006465D03*
X007304Y007046D03*
D1047*
X007305Y007049D03*
X006852Y006465D03*
X006393Y007049D03*
D1048*
X007127Y006465D03*
D1049*
X007126Y006466D03*
D1050*
X006721Y006467D03*
D1051*
X006527Y006757D03*
X007125Y006467D03*
D1052*
X007124Y006467D03*
X007169Y006753D03*
X006529Y006753D03*
D1053*
X006632Y006539D03*
X006632Y006537D03*
X006642Y006468D03*
X007066Y006537D03*
X007067Y006539D03*
D1054*
X007036Y006468D03*
D1055*
X006849Y006468D03*
D1056*
X006849Y006469D03*
D1057*
X006849Y006470D03*
X006849Y006471D03*
X006849Y006471D03*
X006849Y006473D03*
X006849Y006473D03*
D1058*
X006849Y006474D03*
X006849Y006472D03*
X006849Y006470D03*
D1059*
X006849Y006474D03*
X006849Y006475D03*
X006849Y006476D03*
X006849Y006477D03*
X006849Y006477D03*
X006849Y006479D03*
X006849Y006480D03*
D1060*
X006849Y006480D03*
X006849Y006476D03*
D1061*
X006849Y006478D03*
X006849Y006482D03*
X006849Y006483D03*
D1062*
X006849Y006483D03*
X006849Y006482D03*
X006849Y006481D03*
X006849Y006479D03*
D1063*
X006849Y006484D03*
X006849Y006485D03*
X006849Y006486D03*
X006849Y006486D03*
D1064*
X006849Y006485D03*
D1065*
X006849Y006487D03*
X006849Y006489D03*
D1066*
X006849Y006489D03*
X006849Y006488D03*
X006849Y006488D03*
D1067*
X006849Y006490D03*
X006849Y006491D03*
X006849Y006492D03*
X006849Y006492D03*
D1068*
X006849Y006491D03*
D1069*
X006849Y006493D03*
X006849Y006495D03*
D1070*
X006849Y006494D03*
X006849Y006494D03*
D1071*
X006652Y006495D03*
X007046Y006495D03*
D1072*
X007046Y006496D03*
X006652Y006496D03*
D1073*
X006651Y006497D03*
X007047Y006497D03*
D1074*
X007047Y006497D03*
X006651Y006497D03*
D1075*
X006650Y006498D03*
X007048Y006498D03*
D1076*
X007048Y006499D03*
X006650Y006499D03*
D1077*
X006650Y006500D03*
X007048Y006500D03*
D1078*
X007049Y006500D03*
X006650Y006500D03*
D1079*
X006650Y006501D03*
X006649Y006501D03*
X007049Y006501D03*
X007049Y006501D03*
D1080*
X007049Y006502D03*
X006649Y006502D03*
D1081*
X006648Y006503D03*
X007050Y006503D03*
D1082*
X007050Y006503D03*
X006648Y006503D03*
D1083*
X006648Y006504D03*
X007050Y006504D03*
D1084*
X007051Y006504D03*
X006648Y006504D03*
D1085*
X006647Y006505D03*
X007051Y006505D03*
D1086*
X007051Y006506D03*
X006647Y006506D03*
D1087*
X006647Y006506D03*
X007051Y006506D03*
D1088*
X007051Y006507D03*
X006647Y006507D03*
D1089*
X006647Y006507D03*
X007052Y006507D03*
D1090*
X007052Y006508D03*
X006646Y006508D03*
D1091*
X006646Y006509D03*
X006646Y006509D03*
X007053Y006509D03*
X007053Y006509D03*
D1092*
X007053Y006510D03*
X006645Y006510D03*
D1093*
X006645Y006510D03*
X007053Y006510D03*
D1094*
X007054Y006511D03*
X006645Y006511D03*
D1095*
X006645Y006512D03*
X007054Y006512D03*
D1096*
X007054Y006512D03*
X006644Y006512D03*
D1097*
X006644Y006513D03*
X007054Y006513D03*
D1098*
X006644Y006513D03*
D1099*
X007055Y006513D03*
D1100*
X007055Y006515D03*
X006643Y006515D03*
D1101*
X006643Y006515D03*
X007055Y006515D03*
D1102*
X007056Y006516D03*
X006642Y006516D03*
D1103*
X006642Y006516D03*
X007056Y006516D03*
D1104*
X007056Y006517D03*
X006642Y006517D03*
D1105*
X006641Y006518D03*
X006641Y006518D03*
X007057Y006518D03*
X007057Y006518D03*
D1106*
X007058Y006519D03*
X006641Y006519D03*
D1107*
X006640Y006520D03*
X006640Y006521D03*
X007058Y006521D03*
X007058Y006520D03*
D1108*
X007059Y006521D03*
X006639Y006521D03*
D1109*
X006639Y006522D03*
X007059Y006522D03*
D1110*
X007059Y006522D03*
X006639Y006522D03*
D1111*
X006639Y006523D03*
X007059Y006523D03*
D1112*
X007060Y006524D03*
X006639Y006524D03*
D1113*
X006638Y006524D03*
X007060Y006524D03*
D1114*
X007060Y006525D03*
X006638Y006525D03*
D1115*
X006638Y006525D03*
X006638Y006526D03*
X007061Y006526D03*
X007061Y006525D03*
D1116*
X007061Y006527D03*
X006637Y006527D03*
D1117*
X006637Y006527D03*
X007061Y006527D03*
D1118*
X007061Y006528D03*
X007062Y006529D03*
X006637Y006528D03*
X006636Y006529D03*
D1119*
X006635Y006530D03*
X007063Y006530D03*
D1120*
X007063Y006530D03*
X006635Y006530D03*
D1121*
X006635Y006531D03*
X007063Y006531D03*
D1122*
X007064Y006531D03*
X006635Y006531D03*
D1123*
X006634Y006532D03*
D1124*
X007064Y006532D03*
D1125*
X007064Y006533D03*
X006634Y006533D03*
D1126*
X006634Y006533D03*
X007064Y006533D03*
D1127*
X007064Y006534D03*
X006634Y006534D03*
D1128*
X006633Y006535D03*
X006633Y006536D03*
X007065Y006536D03*
X007065Y006535D03*
D1129*
X007065Y006536D03*
X006633Y006536D03*
D1130*
X006633Y006537D03*
X007066Y006537D03*
D1131*
X007067Y006538D03*
X006632Y006538D03*
D1132*
X006631Y006539D03*
X007067Y006539D03*
D1133*
X007067Y006540D03*
X006631Y006540D03*
D1134*
X006631Y006540D03*
X006630Y006541D03*
X007068Y006540D03*
X007068Y006541D03*
D1135*
X007068Y006542D03*
X006630Y006542D03*
D1136*
X006630Y006542D03*
X007068Y006542D03*
D1137*
X007069Y006543D03*
X006629Y006543D03*
D1138*
X006629Y006543D03*
X007069Y006543D03*
D1139*
X007069Y006544D03*
X006629Y006544D03*
D1140*
X006628Y006545D03*
X007070Y006545D03*
D1141*
X007070Y006545D03*
X006628Y006545D03*
D1142*
X006628Y006546D03*
X007070Y006546D03*
D1143*
X007070Y006546D03*
X007071Y006548D03*
X006628Y006546D03*
X006627Y006548D03*
D1144*
X006627Y006548D03*
X007071Y006548D03*
D1145*
X007072Y006549D03*
X006626Y006549D03*
D1146*
X006626Y006549D03*
X007072Y006549D03*
D1147*
X007072Y006550D03*
X006626Y006550D03*
D1148*
X006626Y006551D03*
X007073Y006551D03*
D1149*
X006625Y006551D03*
D1150*
X007073Y006551D03*
D1151*
X007073Y006552D03*
X006625Y006552D03*
D1152*
X006625Y006552D03*
X007074Y006552D03*
D1153*
X007074Y006553D03*
X006625Y006553D03*
D1154*
X006624Y006554D03*
X007074Y006554D03*
D1155*
X007074Y006554D03*
X006624Y006554D03*
D1156*
X006624Y006555D03*
X007074Y006555D03*
D1157*
X007075Y006555D03*
X007075Y006556D03*
X006623Y006556D03*
X006623Y006555D03*
D1158*
X006623Y006557D03*
X007075Y006557D03*
D1159*
X007076Y006558D03*
X006622Y006558D03*
D1160*
X006622Y006558D03*
X007076Y006558D03*
D1161*
X007076Y006559D03*
X006622Y006559D03*
D1162*
X006621Y006560D03*
X007077Y006560D03*
D1163*
X007077Y006560D03*
X006621Y006560D03*
D1164*
X006620Y006562D03*
X007078Y006562D03*
D1165*
X007078Y006563D03*
X006620Y006563D03*
D1166*
X006620Y006563D03*
X007078Y006563D03*
D1167*
X007078Y006564D03*
X006620Y006564D03*
D1168*
X006620Y006564D03*
X006619Y006565D03*
X007079Y006564D03*
X007079Y006565D03*
D1169*
X007079Y006566D03*
X006619Y006566D03*
D1170*
X006618Y006566D03*
X007080Y006566D03*
D1171*
X007080Y006567D03*
X006618Y006567D03*
D1172*
X006618Y006567D03*
X007080Y006567D03*
D1173*
X006618Y006568D03*
D1174*
X007081Y006568D03*
D1175*
X006617Y006569D03*
X006617Y006569D03*
D1176*
X007081Y006569D03*
X007081Y006569D03*
D1177*
X007082Y006570D03*
X006617Y006570D03*
D1178*
X006617Y006570D03*
X006616Y006571D03*
X007082Y006570D03*
X007082Y006571D03*
D1179*
X007083Y006572D03*
X006616Y006572D03*
D1180*
X006615Y006572D03*
X006615Y006573D03*
X007083Y006573D03*
X007083Y006572D03*
D1181*
X007083Y006573D03*
X006615Y006573D03*
D1182*
X006614Y006574D03*
X007084Y006574D03*
D1183*
X007084Y006575D03*
X006614Y006575D03*
D1184*
X006614Y006575D03*
X007084Y006575D03*
D1185*
X007084Y006576D03*
X006614Y006576D03*
D1186*
X006614Y006576D03*
X007085Y006576D03*
D1187*
X007085Y006577D03*
X006613Y006577D03*
D1188*
X006613Y006578D03*
X006613Y006578D03*
X007085Y006578D03*
X007085Y006578D03*
D1189*
X007086Y006579D03*
X006612Y006579D03*
D1190*
X006612Y006579D03*
X007086Y006579D03*
D1191*
X007086Y006580D03*
X006612Y006580D03*
D1192*
X006611Y006581D03*
X007087Y006581D03*
D1193*
X007087Y006581D03*
X006611Y006581D03*
D1194*
X006610Y006583D03*
X007088Y006583D03*
D1195*
X007088Y006584D03*
X006610Y006584D03*
D1196*
X006610Y006584D03*
X007088Y006584D03*
D1197*
X007088Y006585D03*
X006610Y006585D03*
D1198*
X006609Y006585D03*
X007089Y006585D03*
D1199*
X007089Y006586D03*
X006609Y006586D03*
D1200*
X006609Y006587D03*
X007090Y006587D03*
D1201*
X007090Y006587D03*
X007090Y006588D03*
X006608Y006588D03*
X006608Y006587D03*
D1202*
X006608Y006588D03*
X007090Y006588D03*
D1203*
X006608Y006589D03*
D1204*
X007091Y006589D03*
D1205*
X007091Y006590D03*
X006607Y006590D03*
D1206*
X006607Y006590D03*
X007091Y006590D03*
D1207*
X007091Y006591D03*
X006607Y006591D03*
D1208*
X006606Y006591D03*
X007092Y006591D03*
D1209*
X007092Y006592D03*
X006606Y006592D03*
D1210*
X006605Y006593D03*
X006605Y006594D03*
X007093Y006593D03*
X007093Y006594D03*
D1211*
X007093Y006594D03*
X006605Y006594D03*
D1212*
X006605Y006595D03*
X007094Y006595D03*
D1213*
X007094Y006596D03*
X006604Y006596D03*
D1214*
X006604Y006596D03*
X007094Y006596D03*
D1215*
X007094Y006597D03*
X007094Y006597D03*
X006604Y006597D03*
X006604Y006597D03*
D1216*
X006603Y006599D03*
X007095Y006599D03*
D1217*
X007096Y006599D03*
X006603Y006599D03*
D1218*
X006603Y006600D03*
X007096Y006600D03*
D1219*
X007096Y006600D03*
X006602Y006600D03*
D1220*
X006602Y006601D03*
X007097Y006601D03*
D1221*
X007097Y006602D03*
X006602Y006602D03*
D1222*
X006600Y006603D03*
X007098Y006603D03*
D1223*
X007098Y006604D03*
X006600Y006604D03*
D1224*
X006600Y006605D03*
X007098Y006605D03*
D1225*
X007098Y006605D03*
X006600Y006605D03*
D1226*
X006600Y006606D03*
X007099Y006606D03*
D1227*
X007099Y006606D03*
X006599Y006606D03*
D1228*
X006599Y006607D03*
X007099Y006607D03*
D1229*
X006599Y006608D03*
D1230*
X006598Y006608D03*
D1231*
X007100Y006608D03*
D1232*
X007100Y006609D03*
X006598Y006609D03*
D1233*
X006598Y006609D03*
X007100Y006609D03*
D1234*
X007101Y006610D03*
X007101Y006611D03*
X006597Y006611D03*
X006597Y006610D03*
D1235*
X006597Y006611D03*
X007101Y006611D03*
D1236*
X007102Y006612D03*
X006596Y006612D03*
D1237*
X006596Y006612D03*
X007102Y006612D03*
D1238*
X007102Y006613D03*
X006596Y006613D03*
D1239*
X006596Y006614D03*
X006596Y006614D03*
X007103Y006614D03*
X007103Y006614D03*
D1240*
X007103Y006615D03*
X006595Y006615D03*
D1241*
X006595Y006615D03*
X006595Y006616D03*
X007103Y006616D03*
X007103Y006615D03*
D1242*
X007104Y006617D03*
X006594Y006617D03*
D1243*
X006594Y006617D03*
X007104Y006617D03*
D1244*
X007104Y006618D03*
X006594Y006618D03*
D1245*
X006594Y006618D03*
X007105Y006618D03*
D1246*
X007105Y006619D03*
X006593Y006619D03*
D1247*
X006593Y006620D03*
X007105Y006620D03*
D1248*
X007105Y006620D03*
X006593Y006620D03*
D1249*
X006593Y006621D03*
X006592Y006621D03*
X007106Y006621D03*
X007106Y006621D03*
D1250*
X007106Y006622D03*
X006592Y006622D03*
D1251*
X006592Y006623D03*
X007106Y006623D03*
D1252*
X007107Y006623D03*
X006591Y006623D03*
D1253*
X006591Y006624D03*
X007107Y006624D03*
D1254*
X007108Y006624D03*
X007108Y006625D03*
X006590Y006625D03*
X006590Y006624D03*
D1255*
X006590Y006626D03*
X007108Y006626D03*
D1256*
X006590Y006627D03*
D1257*
X007109Y006627D03*
D1258*
X007109Y006627D03*
X006589Y006627D03*
D1259*
X006589Y006628D03*
X007109Y006628D03*
D1260*
X007109Y006629D03*
X006589Y006629D03*
D1261*
X006588Y006629D03*
X006588Y006630D03*
X006588Y006631D03*
X007110Y006630D03*
X007110Y006629D03*
X007111Y006631D03*
D1262*
X007110Y006630D03*
X006588Y006630D03*
D1263*
X006587Y006632D03*
X007111Y006632D03*
D1264*
X007111Y006632D03*
X006587Y006632D03*
D1265*
X006587Y006633D03*
X007112Y006633D03*
D1266*
X007112Y006633D03*
X006586Y006633D03*
D1267*
X006586Y006634D03*
X007113Y006634D03*
D1268*
X007113Y006635D03*
X006585Y006635D03*
D1269*
X006585Y006636D03*
X007113Y006636D03*
D1270*
X007114Y006637D03*
X006584Y006637D03*
D1271*
X006584Y006638D03*
X007114Y006638D03*
D1272*
X007114Y006638D03*
X006584Y006638D03*
D1273*
X006583Y006640D03*
X007115Y006640D03*
D1274*
X007115Y006641D03*
X006583Y006641D03*
D1275*
X006582Y006642D03*
X006582Y006642D03*
X007116Y006642D03*
X007116Y006642D03*
D1276*
X007117Y006645D03*
X006581Y006645D03*
D1277*
X006580Y006645D03*
D1278*
X007118Y006645D03*
D1279*
X007118Y006646D03*
X006580Y006646D03*
D1280*
X006579Y006648D03*
X007119Y006648D03*
D1281*
X007120Y006649D03*
X007120Y006650D03*
X006579Y006650D03*
X006579Y006649D03*
D1282*
X006578Y006650D03*
X007120Y006650D03*
D1283*
X007120Y006651D03*
X006578Y006651D03*
D1284*
X006578Y006651D03*
X007121Y006651D03*
D1285*
X007121Y006653D03*
X006577Y006653D03*
D1286*
X006576Y006654D03*
X007122Y006654D03*
D1287*
X007122Y006654D03*
X007122Y006655D03*
X006576Y006655D03*
X006576Y006654D03*
D1288*
X006575Y006658D03*
X007124Y006658D03*
D1289*
X006573Y006660D03*
X006573Y006661D03*
D1290*
X007125Y006661D03*
X007125Y006660D03*
D1291*
X007125Y006662D03*
D1292*
X006573Y006663D03*
X006573Y006662D03*
D1293*
X006572Y006664D03*
D1294*
X007126Y006664D03*
D1295*
X007127Y006665D03*
X006572Y006665D03*
D1296*
X006571Y006665D03*
D1297*
X007127Y006665D03*
D1298*
X007128Y006667D03*
X006570Y006667D03*
D1299*
X006569Y006669D03*
X006569Y006670D03*
X007129Y006670D03*
X007129Y006669D03*
D1300*
X007130Y006671D03*
X006568Y006671D03*
D1301*
X006568Y006672D03*
X006567Y006672D03*
X007130Y006672D03*
X007131Y006672D03*
D1302*
X007131Y006674D03*
X006567Y006674D03*
D1303*
X006567Y006674D03*
X007131Y006674D03*
D1304*
X007133Y006677D03*
X006566Y006677D03*
D1305*
X006565Y006678D03*
X007133Y006678D03*
D1306*
X007134Y006679D03*
X006564Y006679D03*
D1307*
X006564Y006680D03*
X007134Y006680D03*
D1308*
X007135Y006681D03*
X006564Y006681D03*
D1309*
X006563Y006681D03*
X007135Y006681D03*
D1310*
X007135Y006682D03*
X006563Y006682D03*
D1311*
X006562Y006684D03*
X007136Y006683D03*
X007136Y006684D03*
D1312*
X007136Y006684D03*
X006562Y006684D03*
D1313*
X006562Y006685D03*
X007136Y006685D03*
D1314*
X007137Y006686D03*
X006561Y006686D03*
D1315*
X006560Y006687D03*
X007138Y006687D03*
D1316*
X007138Y006689D03*
X006560Y006689D03*
D1317*
X006559Y006690D03*
X007139Y006690D03*
D1318*
X007141Y006693D03*
X006558Y006693D03*
D1319*
X006557Y006695D03*
X007141Y006695D03*
D1320*
X007142Y006696D03*
X006557Y006696D03*
D1321*
X006556Y006696D03*
X007142Y006696D03*
D1322*
X007143Y006699D03*
X006555Y006699D03*
D1323*
X006555Y006699D03*
X007144Y006699D03*
D1324*
X006554Y006702D03*
D1325*
X006553Y006702D03*
X007145Y006702D03*
X007145Y006702D03*
D1326*
X007145Y006703D03*
X006553Y006703D03*
D1327*
X006551Y006705D03*
X006551Y006706D03*
X007147Y006706D03*
X007147Y006705D03*
D1328*
X007147Y006707D03*
X006551Y006707D03*
D1329*
X006550Y006708D03*
X007148Y006708D03*
D1330*
X007149Y006710D03*
X006549Y006710D03*
D1331*
X006549Y006711D03*
X006549Y006711D03*
X007149Y006711D03*
X007149Y006711D03*
D1332*
X007150Y006712D03*
X006549Y006712D03*
D1333*
X006548Y006713D03*
X007150Y006713D03*
D1334*
X007151Y006714D03*
X006548Y006714D03*
D1335*
X006547Y006715D03*
X007151Y006715D03*
D1336*
X007151Y006716D03*
X006547Y006716D03*
D1337*
X006546Y006716D03*
X007152Y006716D03*
D1338*
X007153Y006719D03*
X006545Y006719D03*
D1339*
X006545Y006719D03*
X007153Y006719D03*
D1340*
X007154Y006720D03*
X006545Y006720D03*
D1341*
X006544Y006721D03*
D1342*
X006544Y006722D03*
X007154Y006722D03*
D1343*
X007155Y006723D03*
X006543Y006723D03*
D1344*
X006543Y006724D03*
X007155Y006724D03*
D1345*
X007156Y006725D03*
X006543Y006725D03*
D1346*
X006543Y006725D03*
X007156Y006725D03*
D1347*
X007157Y006727D03*
X006541Y006727D03*
D1348*
X006540Y006729D03*
X007158Y006729D03*
D1349*
X007159Y006731D03*
X006539Y006731D03*
D1350*
X006539Y006733D03*
X007160Y006733D03*
D1351*
X007160Y006734D03*
X006538Y006734D03*
D1352*
X006538Y006734D03*
X007160Y006734D03*
D1353*
X007160Y006735D03*
X006538Y006735D03*
D1354*
X006536Y006738D03*
X007162Y006738D03*
D1355*
X006535Y006740D03*
D1356*
X007163Y006740D03*
D1357*
X007163Y006740D03*
X006535Y006740D03*
D1358*
X006534Y006741D03*
X007164Y006741D03*
D1359*
X007164Y006743D03*
X006534Y006743D03*
D1360*
X006534Y006743D03*
X007165Y006743D03*
D1361*
X007165Y006744D03*
X006534Y006744D03*
D1362*
X006533Y006746D03*
X007166Y006746D03*
D1363*
X007166Y006746D03*
X006532Y006746D03*
D1364*
X006532Y006748D03*
X007166Y006748D03*
D1365*
X007167Y006749D03*
X006531Y006749D03*
D1366*
X006530Y006750D03*
X007168Y006750D03*
D1367*
X007168Y006752D03*
X006530Y006752D03*
D1368*
X006528Y006755D03*
X007170Y006755D03*
D1369*
X006527Y006756D03*
D1370*
X007171Y006756D03*
D1371*
X007171Y006757D03*
D1372*
X007172Y006759D03*
X006526Y006759D03*
D1373*
X006525Y006761D03*
X007173Y006761D03*
D1374*
X007173Y006761D03*
X006525Y006761D03*
D1375*
X006524Y006764D03*
X007174Y006764D03*
D1376*
X007175Y006767D03*
X006523Y006767D03*
D1377*
X006521Y006768D03*
X007177Y006768D03*
D1378*
X007177Y006769D03*
X006521Y006769D03*
D1379*
X006521Y006770D03*
X007177Y006770D03*
D1380*
X007177Y006770D03*
X006521Y006770D03*
D1381*
X006520Y006772D03*
X007178Y006772D03*
D1382*
X007180Y006776D03*
X006518Y006776D03*
D1383*
X007181Y006777D03*
D1384*
X007187Y006789D03*
X006512Y006789D03*
D1385*
X006511Y006791D03*
X007188Y006791D03*
D1386*
X007188Y006793D03*
X006510Y006793D03*
D1387*
X006510Y006794D03*
X007188Y006794D03*
D1388*
X007189Y006795D03*
X006509Y006795D03*
D1389*
X006506Y006800D03*
X007192Y006800D03*
D1390*
X007195Y006806D03*
X006504Y006806D03*
D1391*
X006503Y006807D03*
X007195Y006807D03*
D1392*
X007198Y006812D03*
X006500Y006812D03*
D1393*
X006500Y006813D03*
X007198Y006813D03*
D1394*
X006500Y006815D03*
D1395*
X006498Y006817D03*
X007200Y006817D03*
D1396*
X007200Y006818D03*
X006498Y006818D03*
D1397*
X006498Y006818D03*
X007200Y006818D03*
D1398*
X007201Y006819D03*
X006498Y006819D03*
D1399*
X006496Y006821D03*
X007202Y006821D03*
D1400*
X007203Y006823D03*
X006496Y006823D03*
D1401*
X006495Y006824D03*
X006495Y006824D03*
X007203Y006824D03*
X007203Y006824D03*
D1402*
X007205Y006827D03*
X006494Y006827D03*
D1403*
X006493Y006828D03*
X007205Y006828D03*
D1404*
X007205Y006829D03*
X006493Y006829D03*
D1405*
X006491Y006831D03*
X006491Y006833D03*
X007207Y006831D03*
X007207Y006833D03*
D1406*
X006491Y006833D03*
D1407*
X006490Y006834D03*
X007208Y006834D03*
D1408*
X007208Y006834D03*
X007209Y006836D03*
X006490Y006834D03*
X006489Y006836D03*
D1409*
X006489Y006836D03*
X007209Y006836D03*
D1410*
X007210Y006837D03*
X006488Y006837D03*
D1411*
X006488Y006839D03*
X007211Y006839D03*
D1412*
X007211Y006840D03*
X006487Y006840D03*
D1413*
X006487Y006841D03*
X007211Y006841D03*
D1414*
X007211Y006842D03*
X006487Y006842D03*
D1415*
X006486Y006842D03*
X007212Y006842D03*
D1416*
X007212Y006843D03*
X006486Y006843D03*
D1417*
X006486Y006843D03*
X007212Y006843D03*
D1418*
X007213Y006844D03*
X006485Y006844D03*
D1419*
X006485Y006845D03*
X007213Y006845D03*
D1420*
X007214Y006847D03*
X006484Y006847D03*
D1421*
X006484Y006848D03*
X007214Y006848D03*
D1422*
X007215Y006849D03*
X006483Y006849D03*
D1423*
X006483Y006849D03*
X006483Y006850D03*
X007215Y006850D03*
X007215Y006849D03*
D1424*
X007216Y006851D03*
X006482Y006851D03*
D1425*
X006482Y006852D03*
X006482Y006852D03*
D1426*
X007216Y006852D03*
X007216Y006852D03*
D1427*
X007217Y006854D03*
X007217Y006854D03*
D1428*
X006480Y006855D03*
D1429*
X007218Y006855D03*
D1430*
X006480Y006855D03*
D1431*
X007218Y006855D03*
D1432*
X007219Y006856D03*
X006479Y006856D03*
D1433*
X006479Y006858D03*
D1434*
X007219Y006858D03*
D1435*
X007220Y006859D03*
X007220Y006860D03*
X006478Y006860D03*
X006478Y006859D03*
D1436*
X006478Y006861D03*
X007220Y006861D03*
D1437*
X007221Y006862D03*
X006477Y006862D03*
D1438*
X006476Y006863D03*
X007222Y006863D03*
D1439*
X007222Y006864D03*
X006476Y006864D03*
D1440*
X006476Y006865D03*
X007223Y006865D03*
D1441*
X007223Y006866D03*
X006475Y006866D03*
D1442*
X006475Y006867D03*
X007224Y006867D03*
D1443*
X007224Y006868D03*
X006474Y006868D03*
D1444*
X006473Y006870D03*
X007225Y006870D03*
D1445*
X006473Y006871D03*
D1446*
X006473Y006872D03*
X007226Y006872D03*
D1447*
X007226Y006872D03*
X006472Y006872D03*
D1448*
X006471Y006875D03*
X007227Y006875D03*
D1449*
X007228Y006876D03*
X006470Y006876D03*
D1450*
X006469Y006879D03*
X007229Y006879D03*
D1451*
X007229Y006879D03*
X006469Y006879D03*
D1452*
X006468Y006881D03*
X007230Y006881D03*
D1453*
X007230Y006881D03*
X006468Y006881D03*
D1454*
X006468Y006882D03*
X007230Y006882D03*
D1455*
X007231Y006883D03*
X006467Y006883D03*
D1456*
X006467Y006884D03*
X007231Y006884D03*
D1457*
X007232Y006885D03*
X006466Y006885D03*
D1458*
X006465Y006887D03*
X007233Y006887D03*
D1459*
X007233Y006887D03*
X007233Y006888D03*
X006465Y006888D03*
X006465Y006887D03*
D1460*
X006464Y006888D03*
X007234Y006888D03*
D1461*
X007234Y006889D03*
X006464Y006889D03*
D1462*
X006464Y006890D03*
D1463*
X006463Y006892D03*
X007235Y006892D03*
D1464*
X007236Y006893D03*
X006462Y006893D03*
D1465*
X006462Y006894D03*
X007236Y006894D03*
D1466*
X007238Y006897D03*
X007239Y006899D03*
X007239Y006899D03*
X006460Y006897D03*
X006460Y006899D03*
X006460Y006899D03*
D1467*
X006460Y006898D03*
X007238Y006898D03*
D1468*
X007239Y006900D03*
X006459Y006900D03*
D1469*
X006459Y006901D03*
X007239Y006901D03*
D1470*
X007240Y006902D03*
X006459Y006902D03*
D1471*
X006458Y006902D03*
X007240Y006902D03*
D1472*
X007241Y006906D03*
X006457Y006906D03*
D1473*
X006456Y006906D03*
X007242Y006906D03*
D1474*
X007242Y006907D03*
X006456Y006907D03*
D1475*
X006455Y006908D03*
D1476*
X007243Y006908D03*
D1477*
X007243Y006909D03*
X007244Y006910D03*
X006455Y006909D03*
X006454Y006910D03*
D1478*
X006454Y006911D03*
X007244Y006911D03*
D1479*
X007245Y006913D03*
X006453Y006913D03*
D1480*
X006453Y006914D03*
X006452Y006915D03*
X007246Y006914D03*
X007246Y006915D03*
D1481*
X007247Y006917D03*
X006451Y006917D03*
D1482*
X006451Y006917D03*
X007247Y006917D03*
D1483*
X007247Y006918D03*
X006451Y006918D03*
D1484*
X006451Y006918D03*
X007248Y006918D03*
D1485*
X007248Y006919D03*
X006450Y006919D03*
D1486*
X006450Y006920D03*
X007248Y006920D03*
D1487*
X007249Y006921D03*
X006449Y006921D03*
D1488*
X006449Y006922D03*
X007249Y006922D03*
D1489*
X007250Y006923D03*
X006449Y006923D03*
D1490*
X006448Y006923D03*
X006448Y006924D03*
X007250Y006923D03*
X007250Y006924D03*
D1491*
X007250Y006924D03*
X006448Y006924D03*
D1492*
X006447Y006926D03*
X007251Y006926D03*
D1493*
X007252Y006927D03*
D1494*
X007254Y006932D03*
X006445Y006932D03*
D1495*
X006444Y006932D03*
X006444Y006933D03*
X007254Y006932D03*
X007254Y006933D03*
D1496*
X007255Y006935D03*
X006443Y006935D03*
D1497*
X006443Y006936D03*
X007256Y006936D03*
D1498*
X007256Y006936D03*
X006442Y006936D03*
D1499*
X006442Y006937D03*
X007256Y006937D03*
D1500*
X007256Y006938D03*
X006442Y006938D03*
D1501*
X006442Y006938D03*
X006441Y006939D03*
X007256Y006938D03*
X007257Y006939D03*
D1502*
X007258Y006941D03*
X007258Y006942D03*
X006440Y006941D03*
X006440Y006942D03*
D1503*
X006439Y006943D03*
X007259Y006943D03*
D1504*
X007259Y006944D03*
X007259Y006944D03*
X006439Y006944D03*
X006439Y006944D03*
D1505*
X006438Y006946D03*
X007260Y006946D03*
X007261Y006947D03*
D1506*
X006438Y006947D03*
D1507*
X007260Y006947D03*
D1508*
X006438Y006947D03*
D1509*
X006437Y006948D03*
X007261Y006948D03*
D1510*
X007262Y006950D03*
X006437Y006950D03*
D1511*
X006436Y006950D03*
X007262Y006950D03*
D1512*
X007262Y006951D03*
X006436Y006951D03*
D1513*
X006436Y006951D03*
X007263Y006951D03*
D1514*
X007263Y006952D03*
X006436Y006952D03*
D1515*
X006433Y006957D03*
X006433Y006957D03*
X007265Y006957D03*
X007265Y006957D03*
D1516*
X007265Y006959D03*
X006433Y006959D03*
D1517*
X006432Y006959D03*
X007266Y006959D03*
D1518*
X007266Y006960D03*
X006432Y006960D03*
D1519*
X006431Y006963D03*
X007268Y006963D03*
D1520*
X007268Y006964D03*
X006430Y006964D03*
D1521*
X006429Y006965D03*
D1522*
X007269Y006965D03*
D1523*
X007269Y006966D03*
D1524*
X006429Y006966D03*
D1525*
X006429Y006967D03*
D1526*
X006428Y006969D03*
X007270Y006969D03*
D1527*
X007271Y006971D03*
X006427Y006971D03*
D1528*
X006426Y006974D03*
X007272Y006974D03*
D1529*
X007273Y006974D03*
X006425Y006974D03*
D1530*
X006425Y006975D03*
X007273Y006975D03*
D1531*
X007274Y006976D03*
X006425Y006976D03*
D1532*
X006425Y006977D03*
X007274Y006977D03*
D1533*
X007274Y006978D03*
X006424Y006978D03*
D1534*
X006423Y006979D03*
X006423Y006980D03*
X007275Y006979D03*
X007275Y006980D03*
D1535*
X007275Y006980D03*
X006423Y006980D03*
D1536*
X006423Y006981D03*
X007276Y006981D03*
D1537*
X007276Y006981D03*
X006422Y006981D03*
D1538*
X006422Y006982D03*
X007276Y006982D03*
D1539*
X007277Y006983D03*
X007277Y006983D03*
X006422Y006983D03*
X006422Y006983D03*
D1540*
X006421Y006984D03*
X007277Y006984D03*
D1541*
X007278Y006985D03*
X006421Y006985D03*
D1542*
X006420Y006986D03*
D1543*
X007278Y006986D03*
D1544*
X007278Y006986D03*
X006420Y006986D03*
D1545*
X006419Y006987D03*
X007279Y006987D03*
D1546*
X007279Y006988D03*
X006419Y006988D03*
D1547*
X006419Y006989D03*
X007279Y006989D03*
D1548*
X007279Y006990D03*
X006419Y006990D03*
D1549*
X006419Y006990D03*
X007280Y006990D03*
D1550*
X007280Y006991D03*
X006418Y006991D03*
D1551*
X006418Y006992D03*
X007280Y006992D03*
D1552*
X007281Y006993D03*
X006417Y006993D03*
D1553*
X006415Y006998D03*
X007283Y006998D03*
D1554*
X007284Y006999D03*
X006414Y006999D03*
D1555*
X006414Y006999D03*
X006414Y007000D03*
X007284Y007000D03*
X007284Y006999D03*
D1556*
X007284Y007001D03*
X006414Y007001D03*
D1557*
X006413Y007002D03*
X006412Y007004D03*
X007285Y007002D03*
X007286Y007004D03*
D1558*
X007286Y007003D03*
X006413Y007003D03*
D1559*
X006412Y007004D03*
X007286Y007004D03*
D1560*
X006412Y007005D03*
D1561*
X007286Y007005D03*
D1562*
X007288Y007008D03*
X006410Y007008D03*
D1563*
X006410Y007009D03*
X007288Y007009D03*
D1564*
X007289Y007010D03*
X006409Y007010D03*
D1565*
X006408Y007011D03*
X007290Y007011D03*
D1566*
X007290Y007012D03*
X006408Y007012D03*
D1567*
X006408Y007013D03*
X007290Y007013D03*
D1568*
X007290Y007014D03*
X006408Y007014D03*
D1569*
X006408Y007014D03*
X007291Y007014D03*
D1570*
X007291Y007016D03*
X006407Y007016D03*
D1571*
X006405Y007019D03*
X007293Y007019D03*
D1572*
X007293Y007020D03*
X006405Y007020D03*
D1573*
X006404Y007022D03*
X006404Y007023D03*
X007294Y007023D03*
X007294Y007022D03*
D1574*
X007295Y007023D03*
X006404Y007023D03*
D1575*
X006403Y007025D03*
D1576*
X007295Y007025D03*
D1577*
X006403Y007025D03*
D1578*
X007295Y007025D03*
D1579*
X007295Y007026D03*
X007296Y007026D03*
X006403Y007026D03*
X006402Y007026D03*
D1580*
X006402Y007027D03*
X007296Y007027D03*
D1581*
X007297Y007029D03*
X007297Y007030D03*
X006401Y007030D03*
X006401Y007029D03*
D1582*
X006400Y007032D03*
X007298Y007032D03*
D1583*
X007298Y007032D03*
X006400Y007032D03*
D1584*
X006399Y007035D03*
X007299Y007035D03*
D1585*
X007299Y007035D03*
X006399Y007035D03*
D1586*
X006396Y007043D03*
X006395Y007044D03*
X007302Y007043D03*
X007303Y007044D03*
D1587*
X007304Y007046D03*
X006394Y007046D03*
D1588*
X006392Y007052D03*
X007306Y007052D03*
D1589*
X007311Y007064D03*
X006387Y007064D03*
D1590*
X007312Y007067D03*
D1591*
X007319Y007085D03*
X006379Y007085D03*
D1592*
X006377Y007090D03*
X007322Y007090D03*
D1593*
X007324Y007097D03*
X006374Y007097D03*
M02*
