G75*
%MOIN*%
%OFA0B0*%
%FSLAX24Y24*%
%IPPOS*%
%LPD*%
%AMOC8*
5,1,8,0,0,1.08239X$1,22.5*
%
%ADD10C,0.0088*%
%ADD11C,0.0000*%
%ADD12C,0.0594*%
%ADD13R,0.0515X0.0515*%
%ADD14C,0.0515*%
%ADD15C,0.0100*%
%ADD16R,0.0356X0.0356*%
%ADD17C,0.0160*%
%ADD18C,0.0240*%
D10*
X001781Y002869D02*
X001781Y003131D01*
X001781Y002869D02*
X001519Y002869D01*
X001519Y003131D01*
X001781Y003131D01*
X001781Y002956D02*
X001519Y002956D01*
X001519Y003043D02*
X001781Y003043D01*
X001781Y003130D02*
X001519Y003130D01*
X001781Y003469D02*
X001781Y003731D01*
X001781Y003469D02*
X001519Y003469D01*
X001519Y003731D01*
X001781Y003731D01*
X001781Y003556D02*
X001519Y003556D01*
X001519Y003643D02*
X001781Y003643D01*
X001781Y003730D02*
X001519Y003730D01*
D11*
X002181Y001263D02*
X000528Y001263D01*
X000495Y001265D01*
X000463Y001270D01*
X000431Y001278D01*
X000400Y001290D01*
X000371Y001305D01*
X000343Y001323D01*
X000317Y001344D01*
X000294Y001367D01*
X000273Y001393D01*
X000255Y001420D01*
X000240Y001450D01*
X000228Y001481D01*
X000220Y001513D01*
X000215Y001545D01*
X000213Y001578D01*
X000213Y002917D01*
X000213Y004019D01*
X000213Y004334D01*
X000214Y004344D01*
X000218Y004354D01*
X000224Y004362D01*
X000233Y004368D01*
X000242Y004372D01*
X000252Y004373D01*
X000213Y004019D02*
X000213Y003940D01*
X000213Y003310D02*
X000213Y002917D01*
X000252Y004374D02*
X000306Y004376D01*
X000359Y004381D01*
X000412Y004390D01*
X000464Y004403D01*
X000516Y004419D01*
X000566Y004439D01*
X000614Y004462D01*
X000661Y004489D01*
X000706Y004518D01*
X000749Y004551D01*
X000789Y004586D01*
X000827Y004624D01*
X000862Y004664D01*
X000895Y004707D01*
X000924Y004752D01*
X000951Y004799D01*
X000974Y004847D01*
X000994Y004897D01*
X001010Y004949D01*
X001023Y005001D01*
X001032Y005054D01*
X001037Y005107D01*
X001039Y005161D01*
X001040Y005161D02*
X001040Y005200D01*
X001040Y005239D01*
X001039Y005239D02*
X001037Y005293D01*
X001032Y005346D01*
X001023Y005399D01*
X001010Y005451D01*
X000994Y005503D01*
X000974Y005553D01*
X000951Y005601D01*
X000924Y005648D01*
X000895Y005693D01*
X000862Y005736D01*
X000827Y005776D01*
X000789Y005814D01*
X000749Y005849D01*
X000706Y005882D01*
X000661Y005911D01*
X000614Y005938D01*
X000566Y005961D01*
X000516Y005981D01*
X000464Y005997D01*
X000412Y006010D01*
X000359Y006019D01*
X000306Y006024D01*
X000252Y006026D01*
X000252Y006027D02*
X000242Y006028D01*
X000233Y006032D01*
X000224Y006038D01*
X000218Y006047D01*
X000214Y006056D01*
X000213Y006066D01*
X000213Y006342D01*
X000213Y007090D01*
X000213Y008822D01*
X000215Y008855D01*
X000220Y008887D01*
X000228Y008919D01*
X000240Y008950D01*
X000255Y008980D01*
X000273Y009007D01*
X000294Y009033D01*
X000317Y009056D01*
X000343Y009077D01*
X000371Y009095D01*
X000400Y009110D01*
X000431Y009122D01*
X000463Y009130D01*
X000495Y009135D01*
X000528Y009137D01*
X002260Y009137D01*
X002969Y009137D01*
X003284Y009137D01*
X003294Y009138D01*
X003304Y009142D01*
X003312Y009148D01*
X003318Y009157D01*
X003322Y009166D01*
X003323Y009176D01*
X002969Y009137D02*
X002890Y009137D01*
X003324Y009176D02*
X003326Y009230D01*
X003331Y009283D01*
X003340Y009336D01*
X003353Y009388D01*
X003369Y009440D01*
X003389Y009490D01*
X003412Y009538D01*
X003439Y009585D01*
X003468Y009630D01*
X003501Y009673D01*
X003536Y009713D01*
X003574Y009751D01*
X003614Y009786D01*
X003657Y009819D01*
X003702Y009848D01*
X003749Y009875D01*
X003797Y009898D01*
X003847Y009918D01*
X003899Y009934D01*
X003951Y009947D01*
X004004Y009956D01*
X004057Y009961D01*
X004111Y009963D01*
X004111Y009964D02*
X004189Y009964D01*
X004189Y009963D02*
X004243Y009961D01*
X004296Y009956D01*
X004349Y009947D01*
X004401Y009934D01*
X004453Y009918D01*
X004503Y009898D01*
X004551Y009875D01*
X004598Y009848D01*
X004643Y009819D01*
X004686Y009786D01*
X004726Y009751D01*
X004764Y009713D01*
X004799Y009673D01*
X004832Y009630D01*
X004861Y009585D01*
X004888Y009538D01*
X004911Y009490D01*
X004931Y009440D01*
X004947Y009388D01*
X004960Y009336D01*
X004969Y009283D01*
X004974Y009230D01*
X004976Y009176D01*
X004977Y009176D02*
X004978Y009166D01*
X004982Y009157D01*
X004988Y009148D01*
X004997Y009142D01*
X005006Y009138D01*
X005016Y009137D01*
X005174Y009137D01*
X005410Y009137D01*
X006119Y009137D01*
X007772Y009137D01*
X007805Y009135D01*
X007837Y009130D01*
X007869Y009122D01*
X007900Y009110D01*
X007930Y009095D01*
X007957Y009077D01*
X007983Y009056D01*
X008006Y009033D01*
X008027Y009007D01*
X008045Y008980D01*
X008060Y008950D01*
X008072Y008919D01*
X008080Y008887D01*
X008085Y008855D01*
X008087Y008822D01*
X008087Y007720D01*
X008087Y006145D01*
X008087Y006066D01*
X008086Y006056D01*
X008082Y006047D01*
X008076Y006038D01*
X008068Y006032D01*
X008058Y006028D01*
X008048Y006027D01*
X008087Y006145D02*
X008087Y006460D01*
X008087Y007090D02*
X008087Y007720D01*
X006119Y009137D02*
X006040Y009137D01*
X005174Y009137D02*
X005016Y009137D01*
X003717Y009137D02*
X003719Y009178D01*
X003725Y009219D01*
X003735Y009259D01*
X003748Y009298D01*
X003765Y009335D01*
X003786Y009371D01*
X003810Y009405D01*
X003837Y009436D01*
X003866Y009464D01*
X003899Y009490D01*
X003933Y009512D01*
X003970Y009531D01*
X004008Y009546D01*
X004048Y009558D01*
X004088Y009566D01*
X004129Y009570D01*
X004171Y009570D01*
X004212Y009566D01*
X004252Y009558D01*
X004292Y009546D01*
X004330Y009531D01*
X004366Y009512D01*
X004401Y009490D01*
X004434Y009464D01*
X004463Y009436D01*
X004490Y009405D01*
X004514Y009371D01*
X004535Y009335D01*
X004552Y009298D01*
X004565Y009259D01*
X004575Y009219D01*
X004581Y009178D01*
X004583Y009137D01*
X004581Y009096D01*
X004575Y009055D01*
X004565Y009015D01*
X004552Y008976D01*
X004535Y008939D01*
X004514Y008903D01*
X004490Y008869D01*
X004463Y008838D01*
X004434Y008810D01*
X004401Y008784D01*
X004367Y008762D01*
X004330Y008743D01*
X004292Y008728D01*
X004252Y008716D01*
X004212Y008708D01*
X004171Y008704D01*
X004129Y008704D01*
X004088Y008708D01*
X004048Y008716D01*
X004008Y008728D01*
X003970Y008743D01*
X003934Y008762D01*
X003899Y008784D01*
X003866Y008810D01*
X003837Y008838D01*
X003810Y008869D01*
X003786Y008903D01*
X003765Y008939D01*
X003748Y008976D01*
X003735Y009015D01*
X003725Y009055D01*
X003719Y009096D01*
X003717Y009137D01*
X000213Y006460D02*
X000213Y006342D01*
X002181Y001263D02*
X002930Y001263D01*
X002890Y001263D01*
X002930Y001263D02*
X003284Y001263D01*
X003294Y001262D01*
X003304Y001258D01*
X003312Y001252D01*
X003318Y001244D01*
X003322Y001234D01*
X003323Y001224D01*
X003324Y001224D02*
X003326Y001170D01*
X003331Y001117D01*
X003340Y001064D01*
X003353Y001012D01*
X003369Y000960D01*
X003389Y000910D01*
X003412Y000862D01*
X003439Y000815D01*
X003468Y000770D01*
X003501Y000727D01*
X003536Y000687D01*
X003574Y000649D01*
X003614Y000614D01*
X003657Y000581D01*
X003702Y000552D01*
X003749Y000525D01*
X003797Y000502D01*
X003847Y000482D01*
X003899Y000466D01*
X003951Y000453D01*
X004004Y000444D01*
X004057Y000439D01*
X004111Y000437D01*
X004111Y000436D02*
X004150Y000436D01*
X004189Y000436D01*
X004189Y000437D02*
X004243Y000439D01*
X004296Y000444D01*
X004349Y000453D01*
X004401Y000466D01*
X004453Y000482D01*
X004503Y000502D01*
X004551Y000525D01*
X004598Y000552D01*
X004643Y000581D01*
X004686Y000614D01*
X004726Y000649D01*
X004764Y000687D01*
X004799Y000727D01*
X004832Y000770D01*
X004861Y000815D01*
X004888Y000862D01*
X004911Y000910D01*
X004931Y000960D01*
X004947Y001012D01*
X004960Y001064D01*
X004969Y001117D01*
X004974Y001170D01*
X004976Y001224D01*
X004976Y001223D02*
X004979Y001235D01*
X004985Y001246D01*
X004993Y001254D01*
X005004Y001260D01*
X005016Y001263D01*
X005134Y001263D01*
X005331Y001263D01*
X006197Y001263D01*
X007772Y001263D01*
X007805Y001265D01*
X007837Y001270D01*
X007869Y001278D01*
X007900Y001290D01*
X007930Y001305D01*
X007957Y001323D01*
X007983Y001344D01*
X008006Y001367D01*
X008027Y001393D01*
X008045Y001420D01*
X008060Y001450D01*
X008072Y001481D01*
X008080Y001513D01*
X008085Y001545D01*
X008087Y001578D01*
X008087Y003074D01*
X008087Y003940D01*
X008087Y004255D01*
X008087Y004334D01*
X008087Y004255D01*
X008088Y004334D02*
X008085Y004346D01*
X008079Y004357D01*
X008071Y004365D01*
X008060Y004371D01*
X008048Y004374D01*
X007994Y004376D01*
X007941Y004381D01*
X007888Y004390D01*
X007836Y004403D01*
X007784Y004419D01*
X007734Y004439D01*
X007686Y004462D01*
X007639Y004489D01*
X007594Y004518D01*
X007551Y004551D01*
X007511Y004586D01*
X007473Y004624D01*
X007438Y004664D01*
X007405Y004707D01*
X007376Y004752D01*
X007349Y004799D01*
X007326Y004847D01*
X007306Y004897D01*
X007290Y004949D01*
X007277Y005001D01*
X007268Y005054D01*
X007263Y005107D01*
X007261Y005161D01*
X007260Y005161D02*
X007260Y005200D01*
X007261Y005200D02*
X007260Y005255D01*
X007263Y005310D01*
X007270Y005365D01*
X007281Y005420D01*
X007296Y005473D01*
X007314Y005526D01*
X007336Y005577D01*
X007362Y005626D01*
X007391Y005673D01*
X007423Y005718D01*
X007459Y005761D01*
X007497Y005801D01*
X007538Y005839D01*
X007581Y005873D01*
X007627Y005904D01*
X007675Y005932D01*
X007725Y005957D01*
X007776Y005978D01*
X007829Y005995D01*
X007883Y006008D01*
X007937Y006018D01*
X007993Y006024D01*
X008048Y006026D01*
X008087Y003310D02*
X008087Y003074D01*
X006197Y001263D02*
X006040Y001263D01*
X005410Y001263D02*
X005331Y001263D01*
X005134Y001263D02*
X005016Y001263D01*
X003717Y001263D02*
X003719Y001304D01*
X003725Y001345D01*
X003735Y001385D01*
X003748Y001424D01*
X003765Y001461D01*
X003786Y001497D01*
X003810Y001531D01*
X003837Y001562D01*
X003866Y001590D01*
X003899Y001616D01*
X003933Y001638D01*
X003970Y001657D01*
X004008Y001672D01*
X004048Y001684D01*
X004088Y001692D01*
X004129Y001696D01*
X004171Y001696D01*
X004212Y001692D01*
X004252Y001684D01*
X004292Y001672D01*
X004330Y001657D01*
X004366Y001638D01*
X004401Y001616D01*
X004434Y001590D01*
X004463Y001562D01*
X004490Y001531D01*
X004514Y001497D01*
X004535Y001461D01*
X004552Y001424D01*
X004565Y001385D01*
X004575Y001345D01*
X004581Y001304D01*
X004583Y001263D01*
X004581Y001222D01*
X004575Y001181D01*
X004565Y001141D01*
X004552Y001102D01*
X004535Y001065D01*
X004514Y001029D01*
X004490Y000995D01*
X004463Y000964D01*
X004434Y000936D01*
X004401Y000910D01*
X004367Y000888D01*
X004330Y000869D01*
X004292Y000854D01*
X004252Y000842D01*
X004212Y000834D01*
X004171Y000830D01*
X004129Y000830D01*
X004088Y000834D01*
X004048Y000842D01*
X004008Y000854D01*
X003970Y000869D01*
X003934Y000888D01*
X003899Y000910D01*
X003866Y000936D01*
X003837Y000964D01*
X003810Y000995D01*
X003786Y001029D01*
X003765Y001065D01*
X003748Y001102D01*
X003735Y001141D01*
X003725Y001181D01*
X003719Y001222D01*
X003717Y001263D01*
X002260Y001263D02*
X002181Y001263D01*
D12*
X002772Y005616D03*
X002772Y007584D03*
X005528Y007584D03*
X005528Y005616D03*
D13*
X003170Y003080D03*
D14*
X004170Y003080D03*
X005170Y003080D03*
D15*
X005199Y003057D02*
X005900Y003057D01*
X005900Y003019D02*
X005708Y002700D01*
X005319Y002700D01*
X005326Y002702D01*
X005384Y002731D01*
X005435Y002769D01*
X005481Y002815D01*
X005519Y002866D01*
X005548Y002924D01*
X005567Y002985D01*
X005577Y003048D01*
X005577Y003051D01*
X005199Y003051D01*
X005199Y003109D01*
X005141Y003109D01*
X005141Y003487D01*
X005138Y003487D01*
X005075Y003477D01*
X005014Y003458D01*
X004956Y003429D01*
X004905Y003391D01*
X004859Y003345D01*
X004821Y003294D01*
X004792Y003236D01*
X004773Y003175D01*
X004763Y003112D01*
X004763Y003109D01*
X005141Y003109D01*
X005141Y003051D01*
X004763Y003051D01*
X004763Y003048D01*
X004773Y002985D01*
X004792Y002924D01*
X004821Y002866D01*
X004859Y002815D01*
X004905Y002769D01*
X004956Y002731D01*
X005014Y002702D01*
X005021Y002700D01*
X004504Y002700D01*
X004449Y002755D01*
X004532Y002838D01*
X004597Y002995D01*
X004597Y003165D01*
X004532Y003322D01*
X004412Y003442D01*
X004255Y003507D01*
X004085Y003507D01*
X003928Y003442D01*
X003808Y003322D01*
X003743Y003165D01*
X003743Y002995D01*
X003808Y002838D01*
X003900Y002745D01*
X003900Y002650D01*
X003938Y002558D01*
X004188Y002308D01*
X004258Y002238D01*
X004350Y002200D01*
X005832Y002200D01*
X005862Y002195D01*
X005881Y002200D01*
X005900Y002200D01*
X005929Y002212D01*
X005959Y002220D01*
X005974Y002231D01*
X005992Y002238D01*
X006014Y002260D01*
X006039Y002279D01*
X006049Y002295D01*
X006062Y002308D01*
X006074Y002337D01*
X006349Y002795D01*
X006362Y002808D01*
X006374Y002837D01*
X006390Y002864D01*
X006393Y002883D01*
X006400Y002900D01*
X006400Y002932D01*
X006405Y002962D01*
X006400Y002981D01*
X006400Y005043D01*
X006362Y005135D01*
X005989Y005508D01*
X005995Y005523D01*
X005995Y005709D01*
X005924Y005880D01*
X005792Y006012D01*
X005621Y006083D01*
X005435Y006083D01*
X005264Y006012D01*
X005132Y005880D01*
X005061Y005709D01*
X005061Y005523D01*
X005132Y005351D01*
X005264Y005220D01*
X005435Y005149D01*
X005621Y005149D01*
X005635Y005155D01*
X005900Y004890D01*
X005900Y003019D01*
X005863Y002958D02*
X005559Y002958D01*
X005513Y002860D02*
X005804Y002860D01*
X005745Y002761D02*
X005424Y002761D01*
X005577Y003109D02*
X005199Y003109D01*
X005199Y003487D01*
X005202Y003487D01*
X005265Y003477D01*
X005326Y003458D01*
X005384Y003429D01*
X005435Y003391D01*
X005481Y003345D01*
X005519Y003294D01*
X005548Y003236D01*
X005567Y003175D01*
X005577Y003112D01*
X005577Y003109D01*
X005571Y003155D02*
X005900Y003155D01*
X005900Y003254D02*
X005539Y003254D01*
X005474Y003352D02*
X005900Y003352D01*
X005900Y003451D02*
X005340Y003451D01*
X005199Y003451D02*
X005141Y003451D01*
X005141Y003352D02*
X005199Y003352D01*
X005199Y003254D02*
X005141Y003254D01*
X005141Y003155D02*
X005199Y003155D01*
X005141Y003057D02*
X004597Y003057D01*
X004597Y003155D02*
X004769Y003155D01*
X004801Y003254D02*
X004561Y003254D01*
X004503Y003352D02*
X004866Y003352D01*
X005000Y003451D02*
X004393Y003451D01*
X003947Y003451D02*
X003555Y003451D01*
X003597Y003408D02*
X003498Y003507D01*
X003380Y003507D01*
X003380Y003530D01*
X003342Y003622D01*
X003272Y003692D01*
X003152Y003812D01*
X003060Y003850D01*
X001965Y003850D01*
X001940Y003875D01*
X001940Y006580D01*
X002537Y007176D01*
X002679Y007117D01*
X002865Y007117D01*
X003036Y007188D01*
X003168Y007320D01*
X003239Y007491D01*
X003239Y007677D01*
X003168Y007849D01*
X003036Y007980D01*
X002865Y008051D01*
X002679Y008051D01*
X002508Y007980D01*
X002376Y007849D01*
X002368Y007828D01*
X001486Y006946D01*
X001404Y006864D01*
X001360Y006758D01*
X001360Y003875D01*
X001305Y003820D01*
X001305Y003380D01*
X001399Y003286D01*
X001364Y003250D01*
X001338Y003206D01*
X001325Y003157D01*
X001325Y003038D01*
X001612Y003038D01*
X001612Y002962D01*
X001688Y002962D01*
X001688Y003038D01*
X001975Y003038D01*
X001975Y003157D01*
X001962Y003206D01*
X001936Y003250D01*
X001901Y003286D01*
X001965Y003350D01*
X002743Y003350D01*
X002743Y002752D01*
X002842Y002653D01*
X003498Y002653D01*
X003597Y002752D01*
X003597Y003408D01*
X003597Y003352D02*
X003837Y003352D01*
X003779Y003254D02*
X003597Y003254D01*
X003597Y003155D02*
X003743Y003155D01*
X003743Y003057D02*
X003597Y003057D01*
X003597Y002958D02*
X003758Y002958D01*
X003799Y002860D02*
X003597Y002860D01*
X003597Y002761D02*
X003884Y002761D01*
X003900Y002663D02*
X003508Y002663D01*
X003936Y002564D02*
X000383Y002564D01*
X000383Y002466D02*
X004031Y002466D01*
X004129Y002367D02*
X000383Y002367D01*
X000383Y002269D02*
X004228Y002269D01*
X004270Y001866D02*
X004030Y001866D01*
X003808Y001774D01*
X003639Y001605D01*
X003547Y001383D01*
X003547Y001143D01*
X003639Y000921D01*
X003808Y000752D01*
X004030Y000660D01*
X004270Y000660D01*
X004492Y000752D01*
X004661Y000921D01*
X004753Y001143D01*
X004753Y001383D01*
X004661Y001605D01*
X004492Y001774D01*
X004270Y001866D01*
X004487Y001776D02*
X007917Y001776D01*
X007917Y001678D02*
X004588Y001678D01*
X004672Y001579D02*
X007917Y001579D01*
X007917Y001578D02*
X007914Y001550D01*
X007893Y001497D01*
X007853Y001457D01*
X007800Y001436D01*
X007772Y001433D01*
X005077Y001433D01*
X005070Y001439D01*
X005008Y001433D01*
X004946Y001433D01*
X004939Y001426D01*
X004923Y001425D01*
X004815Y001316D01*
X004813Y001301D01*
X004807Y001294D01*
X004807Y001232D01*
X004801Y001170D01*
X004802Y001168D01*
X004799Y001127D01*
X004739Y000943D01*
X004626Y000787D01*
X004470Y000674D01*
X004286Y000614D01*
X004189Y000606D01*
X004111Y000606D01*
X004014Y000614D01*
X003830Y000674D01*
X003674Y000787D01*
X003561Y000943D01*
X003501Y001127D01*
X003493Y001224D01*
X003493Y001294D01*
X003474Y001314D01*
X003437Y001377D01*
X003374Y001413D01*
X003354Y001433D01*
X000528Y001433D01*
X000500Y001436D01*
X000447Y001457D01*
X000407Y001497D01*
X000386Y001550D01*
X000383Y001578D01*
X000383Y004203D01*
X000404Y004203D01*
X000692Y004297D01*
X000692Y004297D01*
X000938Y004475D01*
X001116Y004721D01*
X001210Y005009D01*
X001210Y005310D01*
X001210Y005391D01*
X001116Y005679D01*
X001116Y005679D01*
X000938Y005925D01*
X000938Y005925D01*
X000938Y005925D01*
X000692Y006103D01*
X000404Y006197D01*
X000383Y006197D01*
X000383Y008822D01*
X000386Y008850D01*
X000407Y008903D01*
X000447Y008943D01*
X000500Y008964D01*
X000528Y008967D01*
X003354Y008967D01*
X003374Y008987D01*
X003437Y009023D01*
X003437Y009023D01*
X003437Y009023D01*
X003474Y009086D01*
X003493Y009106D01*
X003493Y009176D01*
X003501Y009273D01*
X003561Y009457D01*
X003674Y009613D01*
X003830Y009726D01*
X004014Y009786D01*
X004111Y009794D01*
X004189Y009794D01*
X004286Y009786D01*
X004470Y009726D01*
X004626Y009613D01*
X004739Y009457D01*
X004799Y009273D01*
X004807Y009176D01*
X004807Y009106D01*
X004826Y009086D01*
X004863Y009023D01*
X004926Y008987D01*
X004946Y008967D01*
X007772Y008967D01*
X007800Y008964D01*
X007853Y008943D01*
X007893Y008903D01*
X007914Y008850D01*
X007917Y008822D01*
X007917Y006197D01*
X007891Y006197D01*
X007594Y006097D01*
X007344Y005908D01*
X007168Y005649D01*
X007083Y005348D01*
X007090Y005196D01*
X007090Y005009D01*
X007184Y004721D01*
X007184Y004721D01*
X007362Y004475D01*
X007362Y004475D01*
X007362Y004475D01*
X007608Y004297D01*
X007896Y004203D01*
X007917Y004203D01*
X007917Y001578D01*
X007876Y001481D02*
X004713Y001481D01*
X004753Y001382D02*
X004881Y001382D01*
X004923Y001425D02*
X004923Y001425D01*
X004815Y001316D02*
X004815Y001316D01*
X004807Y001284D02*
X004753Y001284D01*
X004753Y001185D02*
X004802Y001185D01*
X004799Y001127D02*
X004799Y001127D01*
X004786Y001087D02*
X004730Y001087D01*
X004754Y000988D02*
X004689Y000988D01*
X004700Y000890D02*
X004629Y000890D01*
X004629Y000791D02*
X004531Y000791D01*
X004496Y000693D02*
X004349Y000693D01*
X003951Y000693D02*
X003804Y000693D01*
X003769Y000791D02*
X003671Y000791D01*
X003671Y000890D02*
X003600Y000890D01*
X003611Y000988D02*
X003546Y000988D01*
X003570Y001087D02*
X003514Y001087D01*
X003496Y001185D02*
X003547Y001185D01*
X003547Y001284D02*
X003493Y001284D01*
X003437Y001377D02*
X003437Y001377D01*
X003437Y001377D01*
X003428Y001382D02*
X003547Y001382D01*
X003587Y001481D02*
X000424Y001481D01*
X000383Y001579D02*
X003628Y001579D01*
X003712Y001678D02*
X000383Y001678D01*
X000383Y001776D02*
X003813Y001776D01*
X004456Y002761D02*
X004916Y002761D01*
X004827Y002860D02*
X004541Y002860D01*
X004582Y002958D02*
X004781Y002958D01*
X005900Y003549D02*
X003372Y003549D01*
X003316Y003648D02*
X005900Y003648D01*
X005900Y003746D02*
X003218Y003746D01*
X003073Y003845D02*
X005900Y003845D01*
X005900Y003943D02*
X001940Y003943D01*
X001940Y004042D02*
X005900Y004042D01*
X005900Y004140D02*
X001940Y004140D01*
X001940Y004239D02*
X005900Y004239D01*
X005900Y004337D02*
X001940Y004337D01*
X001940Y004436D02*
X005900Y004436D01*
X005900Y004534D02*
X001940Y004534D01*
X001940Y004633D02*
X005900Y004633D01*
X005900Y004731D02*
X001940Y004731D01*
X001940Y004830D02*
X005900Y004830D01*
X005862Y004928D02*
X001940Y004928D01*
X001940Y005027D02*
X005764Y005027D01*
X005665Y005125D02*
X001940Y005125D01*
X001940Y005224D02*
X002504Y005224D01*
X002508Y005220D02*
X002679Y005149D01*
X002865Y005149D01*
X003036Y005220D01*
X003168Y005351D01*
X003239Y005523D01*
X003239Y005709D01*
X003168Y005880D01*
X003036Y006012D01*
X002865Y006083D01*
X002679Y006083D01*
X002508Y006012D01*
X002376Y005880D01*
X002305Y005709D01*
X002305Y005523D01*
X002376Y005351D01*
X002508Y005220D01*
X002406Y005322D02*
X001940Y005322D01*
X001940Y005421D02*
X002348Y005421D01*
X002307Y005519D02*
X001940Y005519D01*
X001940Y005618D02*
X002305Y005618D01*
X002308Y005716D02*
X001940Y005716D01*
X001940Y005815D02*
X002349Y005815D01*
X002409Y005913D02*
X001940Y005913D01*
X001940Y006012D02*
X002508Y006012D01*
X003037Y006012D02*
X005263Y006012D01*
X005165Y005913D02*
X003135Y005913D01*
X003195Y005815D02*
X005105Y005815D01*
X005064Y005716D02*
X003236Y005716D01*
X003239Y005618D02*
X005061Y005618D01*
X005063Y005519D02*
X003237Y005519D01*
X003196Y005421D02*
X005104Y005421D01*
X005161Y005322D02*
X003139Y005322D01*
X003040Y005224D02*
X005260Y005224D01*
X005891Y005913D02*
X007351Y005913D01*
X007344Y005908D02*
X007344Y005908D01*
X007281Y005815D02*
X005951Y005815D01*
X005992Y005716D02*
X007213Y005716D01*
X007168Y005649D02*
X007168Y005649D01*
X007159Y005618D02*
X005995Y005618D01*
X005993Y005519D02*
X007131Y005519D01*
X007103Y005421D02*
X006077Y005421D01*
X006175Y005322D02*
X007084Y005322D01*
X007089Y005224D02*
X006274Y005224D01*
X006366Y005125D02*
X007090Y005125D01*
X007090Y005027D02*
X006400Y005027D01*
X006400Y004928D02*
X007117Y004928D01*
X007149Y004830D02*
X006400Y004830D01*
X006400Y004731D02*
X007181Y004731D01*
X007248Y004633D02*
X006400Y004633D01*
X006400Y004534D02*
X007319Y004534D01*
X007417Y004436D02*
X006400Y004436D01*
X006400Y004337D02*
X007552Y004337D01*
X007608Y004297D02*
X007608Y004297D01*
X007787Y004239D02*
X006400Y004239D01*
X006400Y004140D02*
X007917Y004140D01*
X007917Y004042D02*
X006400Y004042D01*
X006400Y003943D02*
X007917Y003943D01*
X007917Y003845D02*
X006400Y003845D01*
X006400Y003746D02*
X007917Y003746D01*
X007917Y003648D02*
X006400Y003648D01*
X006400Y003549D02*
X007917Y003549D01*
X007917Y003451D02*
X006400Y003451D01*
X006400Y003352D02*
X007917Y003352D01*
X007917Y003254D02*
X006400Y003254D01*
X006400Y003155D02*
X007917Y003155D01*
X007917Y003057D02*
X006400Y003057D01*
X006404Y002958D02*
X007917Y002958D01*
X007917Y002860D02*
X006387Y002860D01*
X006328Y002761D02*
X007917Y002761D01*
X007917Y002663D02*
X006269Y002663D01*
X006210Y002564D02*
X007917Y002564D01*
X007917Y002466D02*
X006151Y002466D01*
X006092Y002367D02*
X007917Y002367D01*
X007917Y002269D02*
X006025Y002269D01*
X007917Y002170D02*
X000383Y002170D01*
X000383Y002072D02*
X007917Y002072D01*
X007917Y001973D02*
X000383Y001973D01*
X000383Y001875D02*
X007917Y001875D01*
X007481Y006012D02*
X005792Y006012D01*
X005621Y007117D02*
X005435Y007117D01*
X005264Y007188D01*
X005132Y007320D01*
X005061Y007491D01*
X005061Y007677D01*
X005132Y007849D01*
X005264Y007980D01*
X005435Y008051D01*
X005621Y008051D01*
X005792Y007980D01*
X005924Y007849D01*
X005995Y007677D01*
X005995Y007491D01*
X005924Y007320D01*
X005792Y007188D01*
X005621Y007117D01*
X005797Y007194D02*
X007917Y007194D01*
X007917Y007292D02*
X005896Y007292D01*
X005953Y007391D02*
X007917Y007391D01*
X007917Y007489D02*
X005994Y007489D01*
X005995Y007588D02*
X007917Y007588D01*
X007917Y007686D02*
X005991Y007686D01*
X005950Y007785D02*
X007917Y007785D01*
X007917Y007883D02*
X005889Y007883D01*
X005789Y007982D02*
X007917Y007982D01*
X007917Y008080D02*
X000383Y008080D01*
X000383Y007982D02*
X002511Y007982D01*
X002411Y007883D02*
X000383Y007883D01*
X000383Y007785D02*
X002324Y007785D01*
X002226Y007686D02*
X000383Y007686D01*
X000383Y007588D02*
X002127Y007588D01*
X002029Y007489D02*
X000383Y007489D01*
X000383Y007391D02*
X001930Y007391D01*
X001832Y007292D02*
X000383Y007292D01*
X000383Y007194D02*
X001733Y007194D01*
X001635Y007095D02*
X000383Y007095D01*
X000383Y006997D02*
X001536Y006997D01*
X001438Y006898D02*
X000383Y006898D01*
X000383Y006800D02*
X001377Y006800D01*
X001360Y006701D02*
X000383Y006701D01*
X000383Y006603D02*
X001360Y006603D01*
X001360Y006504D02*
X000383Y006504D01*
X000383Y006406D02*
X001360Y006406D01*
X001360Y006307D02*
X000383Y006307D01*
X000383Y006209D02*
X001360Y006209D01*
X001360Y006110D02*
X000671Y006110D01*
X000692Y006103D02*
X000692Y006103D01*
X000818Y006012D02*
X001360Y006012D01*
X001360Y005913D02*
X000946Y005913D01*
X001018Y005815D02*
X001360Y005815D01*
X001360Y005716D02*
X001089Y005716D01*
X001136Y005618D02*
X001360Y005618D01*
X001360Y005519D02*
X001168Y005519D01*
X001200Y005421D02*
X001360Y005421D01*
X001360Y005322D02*
X001210Y005322D01*
X001210Y005391D02*
X001210Y005391D01*
X001210Y005224D02*
X001360Y005224D01*
X001360Y005125D02*
X001210Y005125D01*
X001210Y005027D02*
X001360Y005027D01*
X001360Y004928D02*
X001183Y004928D01*
X001151Y004830D02*
X001360Y004830D01*
X001360Y004731D02*
X001119Y004731D01*
X001116Y004721D02*
X001116Y004721D01*
X001052Y004633D02*
X001360Y004633D01*
X001360Y004534D02*
X000981Y004534D01*
X000938Y004475D02*
X000938Y004475D01*
X000938Y004475D01*
X000883Y004436D02*
X001360Y004436D01*
X001360Y004337D02*
X000748Y004337D01*
X000513Y004239D02*
X001360Y004239D01*
X001360Y004140D02*
X000383Y004140D01*
X000383Y004042D02*
X001360Y004042D01*
X001360Y003943D02*
X000383Y003943D01*
X000383Y003845D02*
X001330Y003845D01*
X001305Y003746D02*
X000383Y003746D01*
X000383Y003648D02*
X001305Y003648D01*
X001305Y003549D02*
X000383Y003549D01*
X000383Y003451D02*
X001305Y003451D01*
X001333Y003352D02*
X000383Y003352D01*
X000383Y003254D02*
X001367Y003254D01*
X001325Y003155D02*
X000383Y003155D01*
X000383Y003057D02*
X001325Y003057D01*
X001325Y002962D02*
X001325Y002843D01*
X001338Y002794D01*
X001364Y002750D01*
X001400Y002714D01*
X001444Y002688D01*
X001493Y002675D01*
X001612Y002675D01*
X001612Y002962D01*
X001325Y002962D01*
X001325Y002958D02*
X000383Y002958D01*
X000383Y002860D02*
X001325Y002860D01*
X001357Y002761D02*
X000383Y002761D01*
X000383Y002663D02*
X002832Y002663D01*
X002743Y002761D02*
X001943Y002761D01*
X001936Y002750D02*
X001962Y002794D01*
X001975Y002843D01*
X001975Y002962D01*
X001688Y002962D01*
X001688Y002675D01*
X001807Y002675D01*
X001856Y002688D01*
X001900Y002714D01*
X001936Y002750D01*
X001975Y002860D02*
X002743Y002860D01*
X002743Y002958D02*
X001975Y002958D01*
X001975Y003057D02*
X002743Y003057D01*
X002743Y003155D02*
X001975Y003155D01*
X001933Y003254D02*
X002743Y003254D01*
X001688Y002958D02*
X001612Y002958D01*
X001612Y002860D02*
X001688Y002860D01*
X001688Y002761D02*
X001612Y002761D01*
X001940Y006110D02*
X007633Y006110D01*
X007594Y006097D02*
X007594Y006097D01*
X007917Y006209D02*
X001940Y006209D01*
X001940Y006307D02*
X007917Y006307D01*
X007917Y006406D02*
X001940Y006406D01*
X001940Y006504D02*
X007917Y006504D01*
X007917Y006603D02*
X001963Y006603D01*
X002061Y006701D02*
X007917Y006701D01*
X007917Y006800D02*
X002160Y006800D01*
X002258Y006898D02*
X007917Y006898D01*
X007917Y006997D02*
X002357Y006997D01*
X002455Y007095D02*
X007917Y007095D01*
X007917Y008179D02*
X000383Y008179D01*
X000383Y008277D02*
X007917Y008277D01*
X007917Y008376D02*
X000383Y008376D01*
X000383Y008474D02*
X007917Y008474D01*
X007917Y008573D02*
X004363Y008573D01*
X004270Y008534D02*
X004492Y008626D01*
X004661Y008795D01*
X004753Y009017D01*
X004753Y009257D01*
X004661Y009479D01*
X004492Y009648D01*
X004270Y009740D01*
X004030Y009740D01*
X003808Y009648D01*
X003639Y009479D01*
X003547Y009257D01*
X003547Y009017D01*
X003639Y008795D01*
X003808Y008626D01*
X004030Y008534D01*
X004270Y008534D01*
X004537Y008671D02*
X007917Y008671D01*
X007917Y008770D02*
X004635Y008770D01*
X004691Y008868D02*
X007907Y008868D01*
X007777Y008967D02*
X004732Y008967D01*
X004753Y009065D02*
X004839Y009065D01*
X004863Y009023D02*
X004863Y009023D01*
X004863Y009023D01*
X004807Y009164D02*
X004753Y009164D01*
X004751Y009262D02*
X004800Y009262D01*
X004771Y009361D02*
X004710Y009361D01*
X004738Y009459D02*
X004669Y009459D01*
X004666Y009558D02*
X004582Y009558D01*
X004567Y009656D02*
X004473Y009656D01*
X004383Y009755D02*
X003917Y009755D01*
X003827Y009656D02*
X003733Y009656D01*
X003718Y009558D02*
X003634Y009558D01*
X003631Y009459D02*
X003562Y009459D01*
X003590Y009361D02*
X003529Y009361D01*
X003549Y009262D02*
X003500Y009262D01*
X003493Y009164D02*
X003547Y009164D01*
X003547Y009065D02*
X003461Y009065D01*
X003568Y008967D02*
X000523Y008967D01*
X000393Y008868D02*
X003609Y008868D01*
X003665Y008770D02*
X000383Y008770D01*
X000383Y008671D02*
X003763Y008671D01*
X003937Y008573D02*
X000383Y008573D01*
X003033Y007982D02*
X005267Y007982D01*
X005166Y007883D02*
X003134Y007883D01*
X003194Y007785D02*
X005106Y007785D01*
X005065Y007686D02*
X003235Y007686D01*
X003239Y007588D02*
X005061Y007588D01*
X005062Y007489D02*
X003238Y007489D01*
X003197Y007391D02*
X005103Y007391D01*
X005160Y007292D02*
X003140Y007292D01*
X003042Y007194D02*
X005258Y007194D01*
D16*
X002840Y002190D03*
D17*
X002120Y002190D01*
X001670Y002640D01*
X001670Y002980D01*
X001650Y003000D01*
X001650Y003600D02*
X003010Y003600D01*
X003130Y003480D01*
X003130Y003120D01*
X003170Y003080D01*
X004170Y003080D02*
X004170Y002700D01*
X004150Y002700D01*
X004400Y002450D01*
X005850Y002450D01*
X006150Y002950D01*
X006150Y004994D01*
X005528Y005616D01*
D18*
X002772Y007584D02*
X002534Y007584D01*
X001650Y006700D01*
X001650Y003600D01*
M02*
