G75*
%MOIN*%
%OFA0B0*%
%FSLAX25Y25*%
%IPPOS*%
%LPD*%
%AMOC8*
5,1,8,0,0,1.08239X$1,22.5*
%
%ADD10C,0.00975*%
%ADD11C,0.00000*%
%ADD12C,0.09061*%
%ADD13C,0.06337*%
%ADD14R,0.05550X0.05550*%
%ADD15C,0.05550*%
D10*
X0021963Y0030037D02*
X0021963Y0032963D01*
X0021963Y0030037D02*
X0019037Y0030037D01*
X0019037Y0032963D01*
X0021963Y0032963D01*
X0021963Y0031011D02*
X0019037Y0031011D01*
X0019037Y0031985D02*
X0021963Y0031985D01*
X0021963Y0032959D02*
X0019037Y0032959D01*
X0021963Y0036037D02*
X0021963Y0038963D01*
X0021963Y0036037D02*
X0019037Y0036037D01*
X0019037Y0038963D01*
X0021963Y0038963D01*
X0021963Y0037011D02*
X0019037Y0037011D01*
X0019037Y0037985D02*
X0021963Y0037985D01*
X0021963Y0038959D02*
X0019037Y0038959D01*
D11*
X0025815Y0014130D02*
X0009280Y0014130D01*
X0009170Y0014132D01*
X0009060Y0014138D01*
X0008951Y0014147D01*
X0008842Y0014161D01*
X0008733Y0014178D01*
X0008625Y0014199D01*
X0008518Y0014224D01*
X0008412Y0014252D01*
X0008307Y0014284D01*
X0008203Y0014320D01*
X0008100Y0014359D01*
X0007999Y0014402D01*
X0007899Y0014449D01*
X0007801Y0014499D01*
X0007705Y0014552D01*
X0007611Y0014609D01*
X0007519Y0014669D01*
X0007428Y0014732D01*
X0007341Y0014798D01*
X0007255Y0014867D01*
X0007172Y0014939D01*
X0007092Y0015014D01*
X0007014Y0015092D01*
X0006939Y0015172D01*
X0006867Y0015255D01*
X0006798Y0015341D01*
X0006732Y0015428D01*
X0006669Y0015519D01*
X0006609Y0015611D01*
X0006552Y0015705D01*
X0006499Y0015801D01*
X0006449Y0015899D01*
X0006402Y0015999D01*
X0006359Y0016100D01*
X0006320Y0016203D01*
X0006284Y0016307D01*
X0006252Y0016412D01*
X0006224Y0016518D01*
X0006199Y0016625D01*
X0006178Y0016733D01*
X0006161Y0016842D01*
X0006147Y0016951D01*
X0006138Y0017060D01*
X0006132Y0017170D01*
X0006130Y0017280D01*
X0006130Y0030665D01*
X0006130Y0041689D01*
X0006130Y0044839D01*
X0006132Y0044878D01*
X0006138Y0044916D01*
X0006147Y0044953D01*
X0006160Y0044990D01*
X0006177Y0045025D01*
X0006196Y0045058D01*
X0006219Y0045089D01*
X0006245Y0045118D01*
X0006274Y0045144D01*
X0006305Y0045167D01*
X0006338Y0045186D01*
X0006373Y0045203D01*
X0006410Y0045216D01*
X0006447Y0045225D01*
X0006485Y0045231D01*
X0006524Y0045233D01*
X0006130Y0041689D02*
X0006130Y0040902D01*
X0006130Y0034602D02*
X0006130Y0030665D01*
X0006524Y0045232D02*
X0006714Y0045234D01*
X0006904Y0045241D01*
X0007094Y0045253D01*
X0007284Y0045269D01*
X0007473Y0045289D01*
X0007662Y0045315D01*
X0007850Y0045344D01*
X0008037Y0045379D01*
X0008223Y0045418D01*
X0008408Y0045461D01*
X0008593Y0045509D01*
X0008776Y0045561D01*
X0008957Y0045617D01*
X0009137Y0045678D01*
X0009316Y0045744D01*
X0009493Y0045813D01*
X0009669Y0045887D01*
X0009842Y0045965D01*
X0010014Y0046048D01*
X0010183Y0046134D01*
X0010351Y0046224D01*
X0010516Y0046319D01*
X0010679Y0046417D01*
X0010839Y0046520D01*
X0010997Y0046626D01*
X0011152Y0046736D01*
X0011305Y0046849D01*
X0011455Y0046967D01*
X0011601Y0047088D01*
X0011745Y0047212D01*
X0011886Y0047340D01*
X0012024Y0047471D01*
X0012159Y0047606D01*
X0012290Y0047744D01*
X0012418Y0047885D01*
X0012542Y0048029D01*
X0012663Y0048175D01*
X0012781Y0048325D01*
X0012894Y0048478D01*
X0013004Y0048633D01*
X0013110Y0048791D01*
X0013213Y0048951D01*
X0013311Y0049114D01*
X0013406Y0049279D01*
X0013496Y0049447D01*
X0013582Y0049616D01*
X0013665Y0049788D01*
X0013743Y0049961D01*
X0013817Y0050137D01*
X0013886Y0050314D01*
X0013952Y0050493D01*
X0014013Y0050673D01*
X0014069Y0050854D01*
X0014121Y0051037D01*
X0014169Y0051222D01*
X0014212Y0051407D01*
X0014251Y0051593D01*
X0014286Y0051780D01*
X0014315Y0051968D01*
X0014341Y0052157D01*
X0014361Y0052346D01*
X0014377Y0052536D01*
X0014389Y0052726D01*
X0014396Y0052916D01*
X0014398Y0053106D01*
X0014398Y0053500D01*
X0014398Y0053894D01*
X0014396Y0054084D01*
X0014389Y0054274D01*
X0014377Y0054464D01*
X0014361Y0054654D01*
X0014341Y0054843D01*
X0014315Y0055032D01*
X0014286Y0055220D01*
X0014251Y0055407D01*
X0014212Y0055593D01*
X0014169Y0055778D01*
X0014121Y0055963D01*
X0014069Y0056146D01*
X0014013Y0056327D01*
X0013952Y0056507D01*
X0013886Y0056686D01*
X0013817Y0056863D01*
X0013743Y0057039D01*
X0013665Y0057212D01*
X0013582Y0057384D01*
X0013496Y0057553D01*
X0013406Y0057721D01*
X0013311Y0057886D01*
X0013213Y0058049D01*
X0013110Y0058209D01*
X0013004Y0058367D01*
X0012894Y0058522D01*
X0012781Y0058675D01*
X0012663Y0058825D01*
X0012542Y0058971D01*
X0012418Y0059115D01*
X0012290Y0059256D01*
X0012159Y0059394D01*
X0012024Y0059529D01*
X0011886Y0059660D01*
X0011745Y0059788D01*
X0011601Y0059912D01*
X0011455Y0060033D01*
X0011305Y0060151D01*
X0011152Y0060264D01*
X0010997Y0060374D01*
X0010839Y0060480D01*
X0010679Y0060583D01*
X0010516Y0060681D01*
X0010351Y0060776D01*
X0010183Y0060866D01*
X0010014Y0060952D01*
X0009842Y0061035D01*
X0009669Y0061113D01*
X0009493Y0061187D01*
X0009316Y0061256D01*
X0009137Y0061322D01*
X0008957Y0061383D01*
X0008776Y0061439D01*
X0008593Y0061491D01*
X0008408Y0061539D01*
X0008223Y0061582D01*
X0008037Y0061621D01*
X0007850Y0061656D01*
X0007662Y0061685D01*
X0007473Y0061711D01*
X0007284Y0061731D01*
X0007094Y0061747D01*
X0006904Y0061759D01*
X0006714Y0061766D01*
X0006524Y0061768D01*
X0006524Y0061767D02*
X0006485Y0061769D01*
X0006447Y0061775D01*
X0006410Y0061784D01*
X0006373Y0061797D01*
X0006338Y0061814D01*
X0006305Y0061833D01*
X0006274Y0061856D01*
X0006245Y0061882D01*
X0006219Y0061911D01*
X0006196Y0061942D01*
X0006177Y0061975D01*
X0006160Y0062010D01*
X0006147Y0062047D01*
X0006138Y0062084D01*
X0006132Y0062122D01*
X0006130Y0062161D01*
X0006130Y0064917D01*
X0006130Y0072398D01*
X0006130Y0089720D01*
X0006132Y0089830D01*
X0006138Y0089940D01*
X0006147Y0090049D01*
X0006161Y0090158D01*
X0006178Y0090267D01*
X0006199Y0090375D01*
X0006224Y0090482D01*
X0006252Y0090588D01*
X0006284Y0090693D01*
X0006320Y0090797D01*
X0006359Y0090900D01*
X0006402Y0091001D01*
X0006449Y0091101D01*
X0006499Y0091199D01*
X0006552Y0091295D01*
X0006609Y0091389D01*
X0006669Y0091481D01*
X0006732Y0091572D01*
X0006798Y0091659D01*
X0006867Y0091745D01*
X0006939Y0091828D01*
X0007014Y0091908D01*
X0007092Y0091986D01*
X0007172Y0092061D01*
X0007255Y0092133D01*
X0007341Y0092202D01*
X0007428Y0092268D01*
X0007519Y0092331D01*
X0007611Y0092391D01*
X0007705Y0092448D01*
X0007801Y0092501D01*
X0007899Y0092551D01*
X0007999Y0092598D01*
X0008100Y0092641D01*
X0008203Y0092680D01*
X0008307Y0092716D01*
X0008412Y0092748D01*
X0008518Y0092776D01*
X0008625Y0092801D01*
X0008733Y0092822D01*
X0008842Y0092839D01*
X0008951Y0092853D01*
X0009060Y0092862D01*
X0009170Y0092868D01*
X0009280Y0092870D01*
X0026602Y0092870D01*
X0033689Y0092870D01*
X0036839Y0092870D01*
X0036878Y0092872D01*
X0036916Y0092878D01*
X0036953Y0092887D01*
X0036990Y0092900D01*
X0037025Y0092917D01*
X0037058Y0092936D01*
X0037089Y0092959D01*
X0037118Y0092985D01*
X0037144Y0093014D01*
X0037167Y0093045D01*
X0037186Y0093078D01*
X0037203Y0093113D01*
X0037216Y0093150D01*
X0037225Y0093187D01*
X0037231Y0093225D01*
X0037233Y0093264D01*
X0033689Y0092870D02*
X0032902Y0092870D01*
X0037232Y0093264D02*
X0037234Y0093454D01*
X0037241Y0093644D01*
X0037253Y0093834D01*
X0037269Y0094024D01*
X0037289Y0094213D01*
X0037315Y0094402D01*
X0037344Y0094590D01*
X0037379Y0094777D01*
X0037418Y0094963D01*
X0037461Y0095148D01*
X0037509Y0095333D01*
X0037561Y0095516D01*
X0037617Y0095697D01*
X0037678Y0095877D01*
X0037744Y0096056D01*
X0037813Y0096233D01*
X0037887Y0096409D01*
X0037965Y0096582D01*
X0038048Y0096754D01*
X0038134Y0096923D01*
X0038224Y0097091D01*
X0038319Y0097256D01*
X0038417Y0097419D01*
X0038520Y0097579D01*
X0038626Y0097737D01*
X0038736Y0097892D01*
X0038849Y0098045D01*
X0038967Y0098195D01*
X0039088Y0098341D01*
X0039212Y0098485D01*
X0039340Y0098626D01*
X0039471Y0098764D01*
X0039606Y0098899D01*
X0039744Y0099030D01*
X0039885Y0099158D01*
X0040029Y0099282D01*
X0040175Y0099403D01*
X0040325Y0099521D01*
X0040478Y0099634D01*
X0040633Y0099744D01*
X0040791Y0099850D01*
X0040951Y0099953D01*
X0041114Y0100051D01*
X0041279Y0100146D01*
X0041447Y0100236D01*
X0041616Y0100322D01*
X0041788Y0100405D01*
X0041961Y0100483D01*
X0042137Y0100557D01*
X0042314Y0100626D01*
X0042493Y0100692D01*
X0042673Y0100753D01*
X0042854Y0100809D01*
X0043037Y0100861D01*
X0043222Y0100909D01*
X0043407Y0100952D01*
X0043593Y0100991D01*
X0043780Y0101026D01*
X0043968Y0101055D01*
X0044157Y0101081D01*
X0044346Y0101101D01*
X0044536Y0101117D01*
X0044726Y0101129D01*
X0044916Y0101136D01*
X0045106Y0101138D01*
X0045894Y0101138D01*
X0046084Y0101136D01*
X0046274Y0101129D01*
X0046464Y0101117D01*
X0046654Y0101101D01*
X0046843Y0101081D01*
X0047032Y0101055D01*
X0047220Y0101026D01*
X0047407Y0100991D01*
X0047593Y0100952D01*
X0047778Y0100909D01*
X0047963Y0100861D01*
X0048146Y0100809D01*
X0048327Y0100753D01*
X0048507Y0100692D01*
X0048686Y0100626D01*
X0048863Y0100557D01*
X0049039Y0100483D01*
X0049212Y0100405D01*
X0049384Y0100322D01*
X0049553Y0100236D01*
X0049721Y0100146D01*
X0049886Y0100051D01*
X0050049Y0099953D01*
X0050209Y0099850D01*
X0050367Y0099744D01*
X0050522Y0099634D01*
X0050675Y0099521D01*
X0050825Y0099403D01*
X0050971Y0099282D01*
X0051115Y0099158D01*
X0051256Y0099030D01*
X0051394Y0098899D01*
X0051529Y0098764D01*
X0051660Y0098626D01*
X0051788Y0098485D01*
X0051912Y0098341D01*
X0052033Y0098195D01*
X0052151Y0098045D01*
X0052264Y0097892D01*
X0052374Y0097737D01*
X0052480Y0097579D01*
X0052583Y0097419D01*
X0052681Y0097256D01*
X0052776Y0097091D01*
X0052866Y0096923D01*
X0052952Y0096754D01*
X0053035Y0096582D01*
X0053113Y0096409D01*
X0053187Y0096233D01*
X0053256Y0096056D01*
X0053322Y0095877D01*
X0053383Y0095697D01*
X0053439Y0095516D01*
X0053491Y0095333D01*
X0053539Y0095148D01*
X0053582Y0094963D01*
X0053621Y0094777D01*
X0053656Y0094590D01*
X0053685Y0094402D01*
X0053711Y0094213D01*
X0053731Y0094024D01*
X0053747Y0093834D01*
X0053759Y0093644D01*
X0053766Y0093454D01*
X0053768Y0093264D01*
X0053767Y0093264D02*
X0053769Y0093225D01*
X0053775Y0093187D01*
X0053784Y0093150D01*
X0053797Y0093113D01*
X0053814Y0093078D01*
X0053833Y0093045D01*
X0053856Y0093014D01*
X0053882Y0092985D01*
X0053911Y0092959D01*
X0053942Y0092936D01*
X0053975Y0092917D01*
X0054010Y0092900D01*
X0054047Y0092887D01*
X0054084Y0092878D01*
X0054122Y0092872D01*
X0054161Y0092870D01*
X0055736Y0092870D01*
X0058098Y0092870D01*
X0065185Y0092870D01*
X0081720Y0092870D01*
X0081830Y0092868D01*
X0081940Y0092862D01*
X0082049Y0092853D01*
X0082158Y0092839D01*
X0082267Y0092822D01*
X0082375Y0092801D01*
X0082482Y0092776D01*
X0082588Y0092748D01*
X0082693Y0092716D01*
X0082797Y0092680D01*
X0082900Y0092641D01*
X0083001Y0092598D01*
X0083101Y0092551D01*
X0083199Y0092501D01*
X0083295Y0092448D01*
X0083389Y0092391D01*
X0083481Y0092331D01*
X0083572Y0092268D01*
X0083659Y0092202D01*
X0083745Y0092133D01*
X0083828Y0092061D01*
X0083908Y0091986D01*
X0083986Y0091908D01*
X0084061Y0091828D01*
X0084133Y0091745D01*
X0084202Y0091659D01*
X0084268Y0091572D01*
X0084331Y0091481D01*
X0084391Y0091389D01*
X0084448Y0091295D01*
X0084501Y0091199D01*
X0084551Y0091101D01*
X0084598Y0091001D01*
X0084641Y0090900D01*
X0084680Y0090797D01*
X0084716Y0090693D01*
X0084748Y0090588D01*
X0084776Y0090482D01*
X0084801Y0090375D01*
X0084822Y0090267D01*
X0084839Y0090158D01*
X0084853Y0090049D01*
X0084862Y0089940D01*
X0084868Y0089830D01*
X0084870Y0089720D01*
X0084870Y0078697D01*
X0084870Y0062949D01*
X0084870Y0062161D01*
X0084868Y0062122D01*
X0084862Y0062084D01*
X0084853Y0062047D01*
X0084840Y0062010D01*
X0084823Y0061975D01*
X0084804Y0061942D01*
X0084781Y0061911D01*
X0084755Y0061882D01*
X0084726Y0061856D01*
X0084695Y0061833D01*
X0084662Y0061814D01*
X0084627Y0061797D01*
X0084590Y0061784D01*
X0084553Y0061775D01*
X0084515Y0061769D01*
X0084476Y0061767D01*
X0084870Y0062949D02*
X0084870Y0066098D01*
X0084870Y0072398D02*
X0084870Y0078697D01*
X0065185Y0092870D02*
X0064398Y0092870D01*
X0055736Y0092870D02*
X0054161Y0092870D01*
X0041169Y0092870D02*
X0041171Y0093001D01*
X0041177Y0093133D01*
X0041187Y0093264D01*
X0041201Y0093395D01*
X0041219Y0093525D01*
X0041241Y0093654D01*
X0041266Y0093783D01*
X0041296Y0093911D01*
X0041330Y0094038D01*
X0041367Y0094165D01*
X0041408Y0094289D01*
X0041453Y0094413D01*
X0041502Y0094535D01*
X0041554Y0094656D01*
X0041610Y0094774D01*
X0041670Y0094892D01*
X0041733Y0095007D01*
X0041800Y0095120D01*
X0041870Y0095232D01*
X0041943Y0095341D01*
X0042019Y0095447D01*
X0042099Y0095552D01*
X0042182Y0095654D01*
X0042268Y0095753D01*
X0042357Y0095850D01*
X0042449Y0095944D01*
X0042544Y0096035D01*
X0042641Y0096124D01*
X0042741Y0096209D01*
X0042844Y0096291D01*
X0042949Y0096370D01*
X0043056Y0096446D01*
X0043166Y0096518D01*
X0043278Y0096587D01*
X0043392Y0096653D01*
X0043507Y0096715D01*
X0043625Y0096774D01*
X0043744Y0096829D01*
X0043865Y0096881D01*
X0043988Y0096928D01*
X0044112Y0096972D01*
X0044237Y0097013D01*
X0044363Y0097049D01*
X0044491Y0097082D01*
X0044619Y0097110D01*
X0044748Y0097135D01*
X0044878Y0097156D01*
X0045008Y0097173D01*
X0045139Y0097186D01*
X0045270Y0097195D01*
X0045401Y0097200D01*
X0045533Y0097201D01*
X0045664Y0097198D01*
X0045796Y0097191D01*
X0045927Y0097180D01*
X0046057Y0097165D01*
X0046187Y0097146D01*
X0046317Y0097123D01*
X0046445Y0097097D01*
X0046573Y0097066D01*
X0046700Y0097031D01*
X0046826Y0096993D01*
X0046950Y0096951D01*
X0047074Y0096905D01*
X0047195Y0096855D01*
X0047315Y0096802D01*
X0047434Y0096745D01*
X0047551Y0096685D01*
X0047665Y0096621D01*
X0047778Y0096553D01*
X0047889Y0096482D01*
X0047998Y0096408D01*
X0048104Y0096331D01*
X0048208Y0096250D01*
X0048309Y0096167D01*
X0048408Y0096080D01*
X0048504Y0095990D01*
X0048597Y0095897D01*
X0048688Y0095802D01*
X0048775Y0095704D01*
X0048860Y0095603D01*
X0048941Y0095500D01*
X0049019Y0095394D01*
X0049094Y0095286D01*
X0049166Y0095176D01*
X0049234Y0095064D01*
X0049299Y0094950D01*
X0049360Y0094833D01*
X0049418Y0094715D01*
X0049472Y0094595D01*
X0049523Y0094474D01*
X0049570Y0094351D01*
X0049613Y0094227D01*
X0049652Y0094102D01*
X0049688Y0093975D01*
X0049719Y0093847D01*
X0049747Y0093719D01*
X0049771Y0093590D01*
X0049791Y0093460D01*
X0049807Y0093329D01*
X0049819Y0093198D01*
X0049827Y0093067D01*
X0049831Y0092936D01*
X0049831Y0092804D01*
X0049827Y0092673D01*
X0049819Y0092542D01*
X0049807Y0092411D01*
X0049791Y0092280D01*
X0049771Y0092150D01*
X0049747Y0092021D01*
X0049719Y0091893D01*
X0049688Y0091765D01*
X0049652Y0091638D01*
X0049613Y0091513D01*
X0049570Y0091389D01*
X0049523Y0091266D01*
X0049472Y0091145D01*
X0049418Y0091025D01*
X0049360Y0090907D01*
X0049299Y0090790D01*
X0049234Y0090676D01*
X0049166Y0090564D01*
X0049094Y0090454D01*
X0049019Y0090346D01*
X0048941Y0090240D01*
X0048860Y0090137D01*
X0048775Y0090036D01*
X0048688Y0089938D01*
X0048597Y0089843D01*
X0048504Y0089750D01*
X0048408Y0089660D01*
X0048309Y0089573D01*
X0048208Y0089490D01*
X0048104Y0089409D01*
X0047998Y0089332D01*
X0047889Y0089258D01*
X0047778Y0089187D01*
X0047666Y0089119D01*
X0047551Y0089055D01*
X0047434Y0088995D01*
X0047315Y0088938D01*
X0047195Y0088885D01*
X0047074Y0088835D01*
X0046950Y0088789D01*
X0046826Y0088747D01*
X0046700Y0088709D01*
X0046573Y0088674D01*
X0046445Y0088643D01*
X0046317Y0088617D01*
X0046187Y0088594D01*
X0046057Y0088575D01*
X0045927Y0088560D01*
X0045796Y0088549D01*
X0045664Y0088542D01*
X0045533Y0088539D01*
X0045401Y0088540D01*
X0045270Y0088545D01*
X0045139Y0088554D01*
X0045008Y0088567D01*
X0044878Y0088584D01*
X0044748Y0088605D01*
X0044619Y0088630D01*
X0044491Y0088658D01*
X0044363Y0088691D01*
X0044237Y0088727D01*
X0044112Y0088768D01*
X0043988Y0088812D01*
X0043865Y0088859D01*
X0043744Y0088911D01*
X0043625Y0088966D01*
X0043507Y0089025D01*
X0043392Y0089087D01*
X0043278Y0089153D01*
X0043166Y0089222D01*
X0043056Y0089294D01*
X0042949Y0089370D01*
X0042844Y0089449D01*
X0042741Y0089531D01*
X0042641Y0089616D01*
X0042544Y0089705D01*
X0042449Y0089796D01*
X0042357Y0089890D01*
X0042268Y0089987D01*
X0042182Y0090086D01*
X0042099Y0090188D01*
X0042019Y0090293D01*
X0041943Y0090399D01*
X0041870Y0090508D01*
X0041800Y0090620D01*
X0041733Y0090733D01*
X0041670Y0090848D01*
X0041610Y0090966D01*
X0041554Y0091084D01*
X0041502Y0091205D01*
X0041453Y0091327D01*
X0041408Y0091451D01*
X0041367Y0091575D01*
X0041330Y0091702D01*
X0041296Y0091829D01*
X0041266Y0091957D01*
X0041241Y0092086D01*
X0041219Y0092215D01*
X0041201Y0092345D01*
X0041187Y0092476D01*
X0041177Y0092607D01*
X0041171Y0092739D01*
X0041169Y0092870D01*
X0006130Y0066098D02*
X0006130Y0064917D01*
X0025815Y0014130D02*
X0033295Y0014130D01*
X0032902Y0014130D01*
X0033295Y0014130D02*
X0036839Y0014130D01*
X0036878Y0014128D01*
X0036916Y0014122D01*
X0036953Y0014113D01*
X0036990Y0014100D01*
X0037025Y0014083D01*
X0037058Y0014064D01*
X0037089Y0014041D01*
X0037118Y0014015D01*
X0037144Y0013986D01*
X0037167Y0013955D01*
X0037186Y0013922D01*
X0037203Y0013887D01*
X0037216Y0013850D01*
X0037225Y0013813D01*
X0037231Y0013775D01*
X0037233Y0013736D01*
X0037232Y0013736D02*
X0037234Y0013546D01*
X0037241Y0013356D01*
X0037253Y0013166D01*
X0037269Y0012976D01*
X0037289Y0012787D01*
X0037315Y0012598D01*
X0037344Y0012410D01*
X0037379Y0012223D01*
X0037418Y0012037D01*
X0037461Y0011852D01*
X0037509Y0011667D01*
X0037561Y0011484D01*
X0037617Y0011303D01*
X0037678Y0011123D01*
X0037744Y0010944D01*
X0037813Y0010767D01*
X0037887Y0010591D01*
X0037965Y0010418D01*
X0038048Y0010246D01*
X0038134Y0010077D01*
X0038224Y0009909D01*
X0038319Y0009744D01*
X0038417Y0009581D01*
X0038520Y0009421D01*
X0038626Y0009263D01*
X0038736Y0009108D01*
X0038849Y0008955D01*
X0038967Y0008805D01*
X0039088Y0008659D01*
X0039212Y0008515D01*
X0039340Y0008374D01*
X0039471Y0008236D01*
X0039606Y0008101D01*
X0039744Y0007970D01*
X0039885Y0007842D01*
X0040029Y0007718D01*
X0040175Y0007597D01*
X0040325Y0007479D01*
X0040478Y0007366D01*
X0040633Y0007256D01*
X0040791Y0007150D01*
X0040951Y0007047D01*
X0041114Y0006949D01*
X0041279Y0006854D01*
X0041447Y0006764D01*
X0041616Y0006678D01*
X0041788Y0006595D01*
X0041961Y0006517D01*
X0042137Y0006443D01*
X0042314Y0006374D01*
X0042493Y0006308D01*
X0042673Y0006247D01*
X0042854Y0006191D01*
X0043037Y0006139D01*
X0043222Y0006091D01*
X0043407Y0006048D01*
X0043593Y0006009D01*
X0043780Y0005974D01*
X0043968Y0005945D01*
X0044157Y0005919D01*
X0044346Y0005899D01*
X0044536Y0005883D01*
X0044726Y0005871D01*
X0044916Y0005864D01*
X0045106Y0005862D01*
X0045500Y0005862D01*
X0045894Y0005862D01*
X0046084Y0005864D01*
X0046274Y0005871D01*
X0046464Y0005883D01*
X0046654Y0005899D01*
X0046843Y0005919D01*
X0047032Y0005945D01*
X0047220Y0005974D01*
X0047407Y0006009D01*
X0047593Y0006048D01*
X0047778Y0006091D01*
X0047963Y0006139D01*
X0048146Y0006191D01*
X0048327Y0006247D01*
X0048507Y0006308D01*
X0048686Y0006374D01*
X0048863Y0006443D01*
X0049039Y0006517D01*
X0049212Y0006595D01*
X0049384Y0006678D01*
X0049553Y0006764D01*
X0049721Y0006854D01*
X0049886Y0006949D01*
X0050049Y0007047D01*
X0050209Y0007150D01*
X0050367Y0007256D01*
X0050522Y0007366D01*
X0050675Y0007479D01*
X0050825Y0007597D01*
X0050971Y0007718D01*
X0051115Y0007842D01*
X0051256Y0007970D01*
X0051394Y0008101D01*
X0051529Y0008236D01*
X0051660Y0008374D01*
X0051788Y0008515D01*
X0051912Y0008659D01*
X0052033Y0008805D01*
X0052151Y0008955D01*
X0052264Y0009108D01*
X0052374Y0009263D01*
X0052480Y0009421D01*
X0052583Y0009581D01*
X0052681Y0009744D01*
X0052776Y0009909D01*
X0052866Y0010077D01*
X0052952Y0010246D01*
X0053035Y0010418D01*
X0053113Y0010591D01*
X0053187Y0010767D01*
X0053256Y0010944D01*
X0053322Y0011123D01*
X0053383Y0011303D01*
X0053439Y0011484D01*
X0053491Y0011667D01*
X0053539Y0011852D01*
X0053582Y0012037D01*
X0053621Y0012223D01*
X0053656Y0012410D01*
X0053685Y0012598D01*
X0053711Y0012787D01*
X0053731Y0012976D01*
X0053747Y0013166D01*
X0053759Y0013356D01*
X0053766Y0013546D01*
X0053768Y0013736D01*
X0053774Y0013776D01*
X0053783Y0013815D01*
X0053796Y0013853D01*
X0053812Y0013890D01*
X0053832Y0013925D01*
X0053855Y0013958D01*
X0053880Y0013989D01*
X0053909Y0014018D01*
X0053940Y0014043D01*
X0053973Y0014066D01*
X0054008Y0014086D01*
X0054045Y0014102D01*
X0054083Y0014115D01*
X0054122Y0014124D01*
X0054162Y0014130D01*
X0054161Y0014130D02*
X0055343Y0014130D01*
X0057311Y0014130D01*
X0065972Y0014130D01*
X0081720Y0014130D01*
X0081830Y0014132D01*
X0081940Y0014138D01*
X0082049Y0014147D01*
X0082158Y0014161D01*
X0082267Y0014178D01*
X0082375Y0014199D01*
X0082482Y0014224D01*
X0082588Y0014252D01*
X0082693Y0014284D01*
X0082797Y0014320D01*
X0082900Y0014359D01*
X0083001Y0014402D01*
X0083101Y0014449D01*
X0083199Y0014499D01*
X0083295Y0014552D01*
X0083389Y0014609D01*
X0083481Y0014669D01*
X0083572Y0014732D01*
X0083659Y0014798D01*
X0083745Y0014867D01*
X0083828Y0014939D01*
X0083908Y0015014D01*
X0083986Y0015092D01*
X0084061Y0015172D01*
X0084133Y0015255D01*
X0084202Y0015341D01*
X0084268Y0015428D01*
X0084331Y0015519D01*
X0084391Y0015611D01*
X0084448Y0015705D01*
X0084501Y0015801D01*
X0084551Y0015899D01*
X0084598Y0015999D01*
X0084641Y0016100D01*
X0084680Y0016203D01*
X0084716Y0016307D01*
X0084748Y0016412D01*
X0084776Y0016518D01*
X0084801Y0016625D01*
X0084822Y0016733D01*
X0084839Y0016842D01*
X0084853Y0016951D01*
X0084862Y0017060D01*
X0084868Y0017170D01*
X0084870Y0017280D01*
X0084870Y0032240D01*
X0084870Y0040902D01*
X0084870Y0044051D01*
X0084870Y0044839D01*
X0084870Y0044051D01*
X0084870Y0044839D02*
X0084864Y0044879D01*
X0084855Y0044918D01*
X0084842Y0044956D01*
X0084826Y0044993D01*
X0084806Y0045028D01*
X0084784Y0045061D01*
X0084758Y0045092D01*
X0084729Y0045121D01*
X0084698Y0045147D01*
X0084665Y0045169D01*
X0084630Y0045189D01*
X0084593Y0045205D01*
X0084555Y0045218D01*
X0084516Y0045227D01*
X0084476Y0045233D01*
X0084476Y0045232D02*
X0084286Y0045234D01*
X0084096Y0045241D01*
X0083906Y0045253D01*
X0083716Y0045269D01*
X0083527Y0045289D01*
X0083338Y0045315D01*
X0083150Y0045344D01*
X0082963Y0045379D01*
X0082777Y0045418D01*
X0082592Y0045461D01*
X0082407Y0045509D01*
X0082224Y0045561D01*
X0082043Y0045617D01*
X0081863Y0045678D01*
X0081684Y0045744D01*
X0081507Y0045813D01*
X0081331Y0045887D01*
X0081158Y0045965D01*
X0080986Y0046048D01*
X0080817Y0046134D01*
X0080649Y0046224D01*
X0080484Y0046319D01*
X0080321Y0046417D01*
X0080161Y0046520D01*
X0080003Y0046626D01*
X0079848Y0046736D01*
X0079695Y0046849D01*
X0079545Y0046967D01*
X0079399Y0047088D01*
X0079255Y0047212D01*
X0079114Y0047340D01*
X0078976Y0047471D01*
X0078841Y0047606D01*
X0078710Y0047744D01*
X0078582Y0047885D01*
X0078458Y0048029D01*
X0078337Y0048175D01*
X0078219Y0048325D01*
X0078106Y0048478D01*
X0077996Y0048633D01*
X0077890Y0048791D01*
X0077787Y0048951D01*
X0077689Y0049114D01*
X0077594Y0049279D01*
X0077504Y0049447D01*
X0077418Y0049616D01*
X0077335Y0049788D01*
X0077257Y0049961D01*
X0077183Y0050137D01*
X0077114Y0050314D01*
X0077048Y0050493D01*
X0076987Y0050673D01*
X0076931Y0050854D01*
X0076879Y0051037D01*
X0076831Y0051222D01*
X0076788Y0051407D01*
X0076749Y0051593D01*
X0076714Y0051780D01*
X0076685Y0051968D01*
X0076659Y0052157D01*
X0076639Y0052346D01*
X0076623Y0052536D01*
X0076611Y0052726D01*
X0076604Y0052916D01*
X0076602Y0053106D01*
X0076602Y0053500D01*
X0076595Y0053693D01*
X0076593Y0053886D01*
X0076595Y0054080D01*
X0076603Y0054273D01*
X0076615Y0054466D01*
X0076631Y0054659D01*
X0076653Y0054851D01*
X0076679Y0055043D01*
X0076709Y0055234D01*
X0076745Y0055424D01*
X0076785Y0055613D01*
X0076830Y0055801D01*
X0076879Y0055988D01*
X0076933Y0056174D01*
X0076991Y0056359D01*
X0077054Y0056541D01*
X0077122Y0056723D01*
X0077194Y0056902D01*
X0077270Y0057080D01*
X0077351Y0057256D01*
X0077435Y0057430D01*
X0077525Y0057601D01*
X0077618Y0057771D01*
X0077715Y0057938D01*
X0077817Y0058103D01*
X0077922Y0058265D01*
X0078032Y0058424D01*
X0078145Y0058581D01*
X0078262Y0058735D01*
X0078383Y0058886D01*
X0078508Y0059034D01*
X0078636Y0059179D01*
X0078768Y0059321D01*
X0078903Y0059459D01*
X0079041Y0059594D01*
X0079183Y0059726D01*
X0079328Y0059854D01*
X0079476Y0059978D01*
X0079627Y0060099D01*
X0079781Y0060216D01*
X0079938Y0060330D01*
X0080097Y0060439D01*
X0080259Y0060544D01*
X0080424Y0060646D01*
X0080591Y0060743D01*
X0080761Y0060837D01*
X0080932Y0060926D01*
X0081106Y0061010D01*
X0081282Y0061091D01*
X0081460Y0061167D01*
X0081639Y0061239D01*
X0081821Y0061306D01*
X0082004Y0061369D01*
X0082188Y0061428D01*
X0082374Y0061482D01*
X0082561Y0061531D01*
X0082749Y0061576D01*
X0082938Y0061616D01*
X0083129Y0061651D01*
X0083320Y0061682D01*
X0083511Y0061708D01*
X0083703Y0061729D01*
X0083896Y0061746D01*
X0084089Y0061758D01*
X0084283Y0061765D01*
X0084476Y0061767D01*
X0084870Y0034602D02*
X0084870Y0032240D01*
X0065972Y0014130D02*
X0064398Y0014130D01*
X0058098Y0014130D02*
X0057311Y0014130D01*
X0055343Y0014130D02*
X0054161Y0014130D01*
X0041169Y0014130D02*
X0041171Y0014261D01*
X0041177Y0014393D01*
X0041187Y0014524D01*
X0041201Y0014655D01*
X0041219Y0014785D01*
X0041241Y0014914D01*
X0041266Y0015043D01*
X0041296Y0015171D01*
X0041330Y0015298D01*
X0041367Y0015425D01*
X0041408Y0015549D01*
X0041453Y0015673D01*
X0041502Y0015795D01*
X0041554Y0015916D01*
X0041610Y0016034D01*
X0041670Y0016152D01*
X0041733Y0016267D01*
X0041800Y0016380D01*
X0041870Y0016492D01*
X0041943Y0016601D01*
X0042019Y0016707D01*
X0042099Y0016812D01*
X0042182Y0016914D01*
X0042268Y0017013D01*
X0042357Y0017110D01*
X0042449Y0017204D01*
X0042544Y0017295D01*
X0042641Y0017384D01*
X0042741Y0017469D01*
X0042844Y0017551D01*
X0042949Y0017630D01*
X0043056Y0017706D01*
X0043166Y0017778D01*
X0043278Y0017847D01*
X0043392Y0017913D01*
X0043507Y0017975D01*
X0043625Y0018034D01*
X0043744Y0018089D01*
X0043865Y0018141D01*
X0043988Y0018188D01*
X0044112Y0018232D01*
X0044237Y0018273D01*
X0044363Y0018309D01*
X0044491Y0018342D01*
X0044619Y0018370D01*
X0044748Y0018395D01*
X0044878Y0018416D01*
X0045008Y0018433D01*
X0045139Y0018446D01*
X0045270Y0018455D01*
X0045401Y0018460D01*
X0045533Y0018461D01*
X0045664Y0018458D01*
X0045796Y0018451D01*
X0045927Y0018440D01*
X0046057Y0018425D01*
X0046187Y0018406D01*
X0046317Y0018383D01*
X0046445Y0018357D01*
X0046573Y0018326D01*
X0046700Y0018291D01*
X0046826Y0018253D01*
X0046950Y0018211D01*
X0047074Y0018165D01*
X0047195Y0018115D01*
X0047315Y0018062D01*
X0047434Y0018005D01*
X0047551Y0017945D01*
X0047665Y0017881D01*
X0047778Y0017813D01*
X0047889Y0017742D01*
X0047998Y0017668D01*
X0048104Y0017591D01*
X0048208Y0017510D01*
X0048309Y0017427D01*
X0048408Y0017340D01*
X0048504Y0017250D01*
X0048597Y0017157D01*
X0048688Y0017062D01*
X0048775Y0016964D01*
X0048860Y0016863D01*
X0048941Y0016760D01*
X0049019Y0016654D01*
X0049094Y0016546D01*
X0049166Y0016436D01*
X0049234Y0016324D01*
X0049299Y0016210D01*
X0049360Y0016093D01*
X0049418Y0015975D01*
X0049472Y0015855D01*
X0049523Y0015734D01*
X0049570Y0015611D01*
X0049613Y0015487D01*
X0049652Y0015362D01*
X0049688Y0015235D01*
X0049719Y0015107D01*
X0049747Y0014979D01*
X0049771Y0014850D01*
X0049791Y0014720D01*
X0049807Y0014589D01*
X0049819Y0014458D01*
X0049827Y0014327D01*
X0049831Y0014196D01*
X0049831Y0014064D01*
X0049827Y0013933D01*
X0049819Y0013802D01*
X0049807Y0013671D01*
X0049791Y0013540D01*
X0049771Y0013410D01*
X0049747Y0013281D01*
X0049719Y0013153D01*
X0049688Y0013025D01*
X0049652Y0012898D01*
X0049613Y0012773D01*
X0049570Y0012649D01*
X0049523Y0012526D01*
X0049472Y0012405D01*
X0049418Y0012285D01*
X0049360Y0012167D01*
X0049299Y0012050D01*
X0049234Y0011936D01*
X0049166Y0011824D01*
X0049094Y0011714D01*
X0049019Y0011606D01*
X0048941Y0011500D01*
X0048860Y0011397D01*
X0048775Y0011296D01*
X0048688Y0011198D01*
X0048597Y0011103D01*
X0048504Y0011010D01*
X0048408Y0010920D01*
X0048309Y0010833D01*
X0048208Y0010750D01*
X0048104Y0010669D01*
X0047998Y0010592D01*
X0047889Y0010518D01*
X0047778Y0010447D01*
X0047666Y0010379D01*
X0047551Y0010315D01*
X0047434Y0010255D01*
X0047315Y0010198D01*
X0047195Y0010145D01*
X0047074Y0010095D01*
X0046950Y0010049D01*
X0046826Y0010007D01*
X0046700Y0009969D01*
X0046573Y0009934D01*
X0046445Y0009903D01*
X0046317Y0009877D01*
X0046187Y0009854D01*
X0046057Y0009835D01*
X0045927Y0009820D01*
X0045796Y0009809D01*
X0045664Y0009802D01*
X0045533Y0009799D01*
X0045401Y0009800D01*
X0045270Y0009805D01*
X0045139Y0009814D01*
X0045008Y0009827D01*
X0044878Y0009844D01*
X0044748Y0009865D01*
X0044619Y0009890D01*
X0044491Y0009918D01*
X0044363Y0009951D01*
X0044237Y0009987D01*
X0044112Y0010028D01*
X0043988Y0010072D01*
X0043865Y0010119D01*
X0043744Y0010171D01*
X0043625Y0010226D01*
X0043507Y0010285D01*
X0043392Y0010347D01*
X0043278Y0010413D01*
X0043166Y0010482D01*
X0043056Y0010554D01*
X0042949Y0010630D01*
X0042844Y0010709D01*
X0042741Y0010791D01*
X0042641Y0010876D01*
X0042544Y0010965D01*
X0042449Y0011056D01*
X0042357Y0011150D01*
X0042268Y0011247D01*
X0042182Y0011346D01*
X0042099Y0011448D01*
X0042019Y0011553D01*
X0041943Y0011659D01*
X0041870Y0011768D01*
X0041800Y0011880D01*
X0041733Y0011993D01*
X0041670Y0012108D01*
X0041610Y0012226D01*
X0041554Y0012344D01*
X0041502Y0012465D01*
X0041453Y0012587D01*
X0041408Y0012711D01*
X0041367Y0012835D01*
X0041330Y0012962D01*
X0041296Y0013089D01*
X0041266Y0013217D01*
X0041241Y0013346D01*
X0041219Y0013475D01*
X0041201Y0013605D01*
X0041187Y0013736D01*
X0041177Y0013867D01*
X0041171Y0013999D01*
X0041169Y0014130D01*
X0026602Y0014130D02*
X0025815Y0014130D01*
D12*
X0045500Y0014130D03*
X0045500Y0092870D03*
D13*
X0031720Y0077343D03*
X0031720Y0057657D03*
X0059280Y0057657D03*
X0059280Y0077343D03*
D14*
X0055500Y0033500D03*
D15*
X0045500Y0033500D03*
X0035500Y0033500D03*
M02*
