G75*
%MOIN*%
%OFA0B0*%
%FSLAX24Y24*%
%IPPOS*%
%LPD*%
%AMOC8*
5,1,8,0,0,1.08239X$1,22.5*
%
%ADD10R,0.0400X0.0450*%
%ADD11C,0.0088*%
%ADD12R,0.0800X0.0800*%
%ADD13C,0.0800*%
%ADD14C,0.0750*%
%ADD15R,0.0515X0.0515*%
%ADD16C,0.0515*%
%ADD17C,0.0000*%
%ADD18C,0.0050*%
%ADD19C,0.0160*%
%ADD20C,0.0240*%
D10*
X003922Y002134D03*
X004622Y002134D03*
X004272Y001334D03*
D11*
X004888Y003140D02*
X004888Y003402D01*
X004888Y003140D02*
X004626Y003140D01*
X004626Y003402D01*
X004888Y003402D01*
X004888Y003227D02*
X004626Y003227D01*
X004626Y003314D02*
X004888Y003314D01*
X004888Y003401D02*
X004626Y003401D01*
X004888Y003740D02*
X004888Y004002D01*
X004888Y003740D02*
X004626Y003740D01*
X004626Y004002D01*
X004888Y004002D01*
X004888Y003827D02*
X004626Y003827D01*
X004626Y003914D02*
X004888Y003914D01*
X004888Y004001D02*
X004626Y004001D01*
X004612Y005148D02*
X004612Y005410D01*
X004874Y005410D01*
X004874Y005148D01*
X004612Y005148D01*
X004612Y005235D02*
X004874Y005235D01*
X004874Y005322D02*
X004612Y005322D01*
X004612Y005409D02*
X004874Y005409D01*
X004612Y005748D02*
X004612Y006010D01*
X004874Y006010D01*
X004874Y005748D01*
X004612Y005748D01*
X004612Y005835D02*
X004874Y005835D01*
X004874Y005922D02*
X004612Y005922D01*
X004612Y006009D02*
X004874Y006009D01*
D12*
X015133Y005397D03*
D13*
X015133Y003997D03*
D14*
X012260Y002460D03*
X007460Y002460D03*
X006460Y004860D03*
X007460Y007260D03*
X012260Y007260D03*
D15*
X003726Y005677D03*
D16*
X003726Y004677D03*
X003726Y003677D03*
D17*
X012813Y009402D02*
X012891Y009402D01*
D18*
X015921Y000760D02*
X001747Y000760D01*
X001353Y001547D02*
X001355Y001586D01*
X001361Y001625D01*
X001371Y001663D01*
X001384Y001700D01*
X001401Y001735D01*
X001421Y001769D01*
X001445Y001800D01*
X001472Y001829D01*
X001501Y001855D01*
X001533Y001878D01*
X001567Y001898D01*
X001603Y001914D01*
X001640Y001926D01*
X001679Y001935D01*
X001718Y001940D01*
X001757Y001941D01*
X001796Y001938D01*
X001835Y001931D01*
X001872Y001920D01*
X001909Y001906D01*
X001944Y001888D01*
X001977Y001867D01*
X002008Y001842D01*
X002036Y001815D01*
X002061Y001785D01*
X002083Y001752D01*
X002102Y001718D01*
X002117Y001682D01*
X002129Y001644D01*
X002137Y001606D01*
X002141Y001567D01*
X002141Y001527D01*
X002137Y001488D01*
X002129Y001450D01*
X002117Y001412D01*
X002102Y001376D01*
X002083Y001342D01*
X002061Y001309D01*
X002036Y001279D01*
X002008Y001252D01*
X001977Y001227D01*
X001944Y001206D01*
X001909Y001188D01*
X001872Y001174D01*
X001835Y001163D01*
X001796Y001156D01*
X001757Y001153D01*
X001718Y001154D01*
X001679Y001159D01*
X001640Y001168D01*
X001603Y001180D01*
X001567Y001196D01*
X001533Y001216D01*
X001501Y001239D01*
X001472Y001265D01*
X001445Y001294D01*
X001421Y001325D01*
X001401Y001359D01*
X001384Y001394D01*
X001371Y001431D01*
X001361Y001469D01*
X001355Y001508D01*
X001353Y001547D01*
X000960Y001547D02*
X000960Y007847D01*
X001353Y007847D02*
X001355Y007886D01*
X001361Y007925D01*
X001371Y007963D01*
X001384Y008000D01*
X001401Y008035D01*
X001421Y008069D01*
X001445Y008100D01*
X001472Y008129D01*
X001501Y008155D01*
X001533Y008178D01*
X001567Y008198D01*
X001603Y008214D01*
X001640Y008226D01*
X001679Y008235D01*
X001718Y008240D01*
X001757Y008241D01*
X001796Y008238D01*
X001835Y008231D01*
X001872Y008220D01*
X001909Y008206D01*
X001944Y008188D01*
X001977Y008167D01*
X002008Y008142D01*
X002036Y008115D01*
X002061Y008085D01*
X002083Y008052D01*
X002102Y008018D01*
X002117Y007982D01*
X002129Y007944D01*
X002137Y007906D01*
X002141Y007867D01*
X002141Y007827D01*
X002137Y007788D01*
X002129Y007750D01*
X002117Y007712D01*
X002102Y007676D01*
X002083Y007642D01*
X002061Y007609D01*
X002036Y007579D01*
X002008Y007552D01*
X001977Y007527D01*
X001944Y007506D01*
X001909Y007488D01*
X001872Y007474D01*
X001835Y007463D01*
X001796Y007456D01*
X001757Y007453D01*
X001718Y007454D01*
X001679Y007459D01*
X001640Y007468D01*
X001603Y007480D01*
X001567Y007496D01*
X001533Y007516D01*
X001501Y007539D01*
X001472Y007565D01*
X001445Y007594D01*
X001421Y007625D01*
X001401Y007659D01*
X001384Y007694D01*
X001371Y007731D01*
X001361Y007769D01*
X001355Y007808D01*
X001353Y007847D01*
X000960Y007847D02*
X000962Y007901D01*
X000967Y007954D01*
X000976Y008007D01*
X000989Y008059D01*
X001005Y008111D01*
X001025Y008161D01*
X001048Y008209D01*
X001075Y008256D01*
X001104Y008301D01*
X001137Y008344D01*
X001172Y008384D01*
X001210Y008422D01*
X001250Y008457D01*
X001293Y008490D01*
X001338Y008519D01*
X001385Y008546D01*
X001433Y008569D01*
X001483Y008589D01*
X001535Y008605D01*
X001587Y008618D01*
X001640Y008627D01*
X001693Y008632D01*
X001747Y008634D01*
X015921Y008634D01*
X015527Y007847D02*
X015529Y007886D01*
X015535Y007925D01*
X015545Y007963D01*
X015558Y008000D01*
X015575Y008035D01*
X015595Y008069D01*
X015619Y008100D01*
X015646Y008129D01*
X015675Y008155D01*
X015707Y008178D01*
X015741Y008198D01*
X015777Y008214D01*
X015814Y008226D01*
X015853Y008235D01*
X015892Y008240D01*
X015931Y008241D01*
X015970Y008238D01*
X016009Y008231D01*
X016046Y008220D01*
X016083Y008206D01*
X016118Y008188D01*
X016151Y008167D01*
X016182Y008142D01*
X016210Y008115D01*
X016235Y008085D01*
X016257Y008052D01*
X016276Y008018D01*
X016291Y007982D01*
X016303Y007944D01*
X016311Y007906D01*
X016315Y007867D01*
X016315Y007827D01*
X016311Y007788D01*
X016303Y007750D01*
X016291Y007712D01*
X016276Y007676D01*
X016257Y007642D01*
X016235Y007609D01*
X016210Y007579D01*
X016182Y007552D01*
X016151Y007527D01*
X016118Y007506D01*
X016083Y007488D01*
X016046Y007474D01*
X016009Y007463D01*
X015970Y007456D01*
X015931Y007453D01*
X015892Y007454D01*
X015853Y007459D01*
X015814Y007468D01*
X015777Y007480D01*
X015741Y007496D01*
X015707Y007516D01*
X015675Y007539D01*
X015646Y007565D01*
X015619Y007594D01*
X015595Y007625D01*
X015575Y007659D01*
X015558Y007694D01*
X015545Y007731D01*
X015535Y007769D01*
X015529Y007808D01*
X015527Y007847D01*
X015921Y008634D02*
X015975Y008632D01*
X016028Y008627D01*
X016081Y008618D01*
X016133Y008605D01*
X016185Y008589D01*
X016235Y008569D01*
X016283Y008546D01*
X016330Y008519D01*
X016375Y008490D01*
X016418Y008457D01*
X016458Y008422D01*
X016496Y008384D01*
X016531Y008344D01*
X016564Y008301D01*
X016593Y008256D01*
X016620Y008209D01*
X016643Y008161D01*
X016663Y008111D01*
X016679Y008059D01*
X016692Y008007D01*
X016701Y007954D01*
X016706Y007901D01*
X016708Y007847D01*
X016708Y001547D01*
X015527Y001547D02*
X015529Y001586D01*
X015535Y001625D01*
X015545Y001663D01*
X015558Y001700D01*
X015575Y001735D01*
X015595Y001769D01*
X015619Y001800D01*
X015646Y001829D01*
X015675Y001855D01*
X015707Y001878D01*
X015741Y001898D01*
X015777Y001914D01*
X015814Y001926D01*
X015853Y001935D01*
X015892Y001940D01*
X015931Y001941D01*
X015970Y001938D01*
X016009Y001931D01*
X016046Y001920D01*
X016083Y001906D01*
X016118Y001888D01*
X016151Y001867D01*
X016182Y001842D01*
X016210Y001815D01*
X016235Y001785D01*
X016257Y001752D01*
X016276Y001718D01*
X016291Y001682D01*
X016303Y001644D01*
X016311Y001606D01*
X016315Y001567D01*
X016315Y001527D01*
X016311Y001488D01*
X016303Y001450D01*
X016291Y001412D01*
X016276Y001376D01*
X016257Y001342D01*
X016235Y001309D01*
X016210Y001279D01*
X016182Y001252D01*
X016151Y001227D01*
X016118Y001206D01*
X016083Y001188D01*
X016046Y001174D01*
X016009Y001163D01*
X015970Y001156D01*
X015931Y001153D01*
X015892Y001154D01*
X015853Y001159D01*
X015814Y001168D01*
X015777Y001180D01*
X015741Y001196D01*
X015707Y001216D01*
X015675Y001239D01*
X015646Y001265D01*
X015619Y001294D01*
X015595Y001325D01*
X015575Y001359D01*
X015558Y001394D01*
X015545Y001431D01*
X015535Y001469D01*
X015529Y001508D01*
X015527Y001547D01*
X015921Y000760D02*
X015975Y000762D01*
X016028Y000767D01*
X016081Y000776D01*
X016133Y000789D01*
X016185Y000805D01*
X016235Y000825D01*
X016283Y000848D01*
X016330Y000875D01*
X016375Y000904D01*
X016418Y000937D01*
X016458Y000972D01*
X016496Y001010D01*
X016531Y001050D01*
X016564Y001093D01*
X016593Y001138D01*
X016620Y001185D01*
X016643Y001233D01*
X016663Y001283D01*
X016679Y001335D01*
X016692Y001387D01*
X016701Y001440D01*
X016706Y001493D01*
X016708Y001547D01*
X001747Y000760D02*
X001693Y000762D01*
X001640Y000767D01*
X001587Y000776D01*
X001535Y000789D01*
X001483Y000805D01*
X001433Y000825D01*
X001385Y000848D01*
X001338Y000875D01*
X001293Y000904D01*
X001250Y000937D01*
X001210Y000972D01*
X001172Y001010D01*
X001137Y001050D01*
X001104Y001093D01*
X001075Y001138D01*
X001048Y001185D01*
X001025Y001233D01*
X001005Y001283D01*
X000989Y001335D01*
X000976Y001387D01*
X000967Y001440D01*
X000962Y001493D01*
X000960Y001547D01*
D19*
X003726Y002330D02*
X003922Y002134D01*
X003726Y002330D02*
X003726Y003677D01*
D20*
X004203Y003677D01*
X004203Y003715D01*
X004192Y003789D01*
X004168Y003860D01*
X004134Y003927D01*
X004090Y003988D01*
X004037Y004041D01*
X003976Y004085D01*
X003909Y004120D01*
X003838Y004143D01*
X003763Y004154D01*
X003726Y004154D01*
X003726Y003677D01*
X003726Y003677D01*
X004203Y003677D01*
X004203Y003639D01*
X004192Y003565D01*
X004168Y003494D01*
X004134Y003427D01*
X004090Y003366D01*
X004037Y003313D01*
X003976Y003269D01*
X003909Y003235D01*
X003838Y003211D01*
X003763Y003200D01*
X003726Y003200D01*
X003726Y003677D01*
X003726Y003677D01*
X003726Y003677D01*
X003920Y003871D01*
X004757Y003871D01*
X004883Y003997D01*
X015133Y003997D01*
X014513Y003997D01*
X014513Y003948D01*
X014528Y003852D01*
X014559Y003759D01*
X014603Y003672D01*
X014660Y003593D01*
X014729Y003524D01*
X014808Y003467D01*
X014895Y003422D01*
X014988Y003392D01*
X015084Y003377D01*
X015133Y003377D01*
X015133Y003997D01*
X015133Y003997D01*
X014513Y003997D01*
X014513Y004046D01*
X014528Y004142D01*
X014559Y004235D01*
X014603Y004322D01*
X014660Y004401D01*
X014729Y004470D01*
X014808Y004527D01*
X014895Y004572D01*
X014988Y004602D01*
X015084Y004617D01*
X015133Y004617D01*
X015133Y003997D01*
X015133Y003997D01*
X015133Y003997D01*
X015133Y003377D01*
X015182Y003377D01*
X015278Y003392D01*
X015371Y003422D01*
X015458Y003467D01*
X015537Y003524D01*
X015606Y003593D01*
X015663Y003672D01*
X015708Y003759D01*
X015738Y003852D01*
X015753Y003948D01*
X015753Y003997D01*
X015133Y003997D01*
X015133Y004617D01*
X015182Y004617D01*
X015278Y004602D01*
X015371Y004572D01*
X015458Y004527D01*
X015537Y004470D01*
X015606Y004401D01*
X015663Y004322D01*
X015708Y004235D01*
X015738Y004142D01*
X015753Y004046D01*
X015753Y003997D01*
X015133Y003997D01*
X015133Y003997D01*
X015133Y004099D02*
X015133Y004099D01*
X015133Y004338D02*
X015133Y004338D01*
X014614Y004338D02*
X006701Y004338D01*
X006786Y004373D02*
X006947Y004534D01*
X007035Y004746D01*
X007035Y004974D01*
X007033Y004980D01*
X007130Y005077D01*
X014533Y005077D01*
X014533Y004914D01*
X014650Y004797D01*
X015616Y004797D01*
X015733Y004914D01*
X015733Y005880D01*
X015616Y005997D01*
X014650Y005997D01*
X014533Y005880D01*
X014533Y005717D01*
X006933Y005717D01*
X006816Y005668D01*
X006580Y005433D01*
X006574Y005435D01*
X006346Y005435D01*
X006134Y005347D01*
X005973Y005186D01*
X005885Y004974D01*
X005885Y004746D01*
X005973Y004534D01*
X006134Y004373D01*
X006346Y004285D01*
X006574Y004285D01*
X006786Y004373D01*
X006965Y004576D02*
X014909Y004576D01*
X015133Y004576D02*
X015133Y004576D01*
X015358Y004576D02*
X016163Y004576D01*
X016163Y004815D02*
X015634Y004815D01*
X015733Y005053D02*
X016163Y005053D01*
X016163Y005292D02*
X015733Y005292D01*
X015733Y005530D02*
X016163Y005530D01*
X016163Y005769D02*
X015733Y005769D01*
X016163Y006007D02*
X005118Y006007D01*
X005118Y006059D02*
X005081Y006148D01*
X005013Y006217D01*
X004923Y006254D01*
X004789Y006254D01*
X004726Y006280D01*
X004196Y006280D01*
X004079Y006231D01*
X003989Y006141D01*
X003982Y006134D01*
X003386Y006134D01*
X003268Y006017D01*
X003268Y005337D01*
X003386Y005220D01*
X004066Y005220D01*
X004183Y005337D01*
X004183Y005431D01*
X004393Y005640D01*
X004406Y005610D01*
X004436Y005579D01*
X004406Y005548D01*
X004368Y005459D01*
X004368Y005099D01*
X004406Y005010D01*
X004423Y004992D01*
X004423Y004613D01*
X004440Y004573D01*
X004440Y004190D01*
X004421Y004170D01*
X004392Y004127D01*
X004372Y004079D01*
X004362Y004028D01*
X004362Y003871D01*
X004362Y003714D01*
X004372Y003663D01*
X004392Y003615D01*
X004421Y003572D01*
X004435Y003557D01*
X004419Y003540D01*
X004382Y003451D01*
X004382Y003091D01*
X004419Y003002D01*
X004437Y002984D01*
X004437Y002559D01*
X004339Y002559D01*
X004286Y002506D01*
X004257Y002535D01*
X004207Y002564D01*
X004151Y002579D01*
X003922Y002579D01*
X003922Y002134D01*
X003922Y002134D01*
X003922Y002579D01*
X003693Y002579D01*
X003637Y002564D01*
X003587Y002535D01*
X003546Y002494D01*
X003517Y002444D01*
X003502Y002388D01*
X003502Y002134D01*
X003502Y001880D01*
X003505Y001867D01*
X002580Y002793D01*
X002580Y006027D01*
X003293Y006740D01*
X007213Y006740D01*
X007346Y006685D01*
X007574Y006685D01*
X007786Y006773D01*
X007947Y006934D01*
X008035Y007146D01*
X008035Y007374D01*
X007947Y007586D01*
X007786Y007747D01*
X007574Y007835D01*
X007346Y007835D01*
X007134Y007747D01*
X006973Y007586D01*
X006887Y007380D01*
X003096Y007380D01*
X002979Y007331D01*
X002889Y007241D01*
X001989Y006341D01*
X001940Y006224D01*
X001940Y002596D01*
X001989Y002479D01*
X002039Y002428D01*
X001747Y002486D01*
X001505Y002438D01*
X001505Y006956D01*
X001747Y006908D01*
X002107Y006979D01*
X002411Y007183D01*
X002615Y007487D01*
X002686Y007847D01*
X002638Y008089D01*
X015030Y008089D01*
X014982Y007847D01*
X015053Y007487D01*
X015257Y007183D01*
X015561Y006979D01*
X015921Y006908D01*
X016163Y006956D01*
X016163Y002438D01*
X015921Y002486D01*
X015561Y002415D01*
X015257Y002211D01*
X015053Y001907D01*
X014982Y001547D01*
X015030Y001305D01*
X004672Y001305D01*
X004672Y001642D01*
X004605Y001709D01*
X004905Y001709D01*
X005022Y001826D01*
X005022Y002081D01*
X005028Y002088D01*
X005077Y002205D01*
X005077Y002984D01*
X005095Y003002D01*
X005132Y003091D01*
X005132Y003451D01*
X005095Y003540D01*
X005078Y003557D01*
X005093Y003572D01*
X005122Y003615D01*
X005142Y003663D01*
X005152Y003714D01*
X005152Y003871D01*
X005080Y003871D01*
X005080Y003871D01*
X005152Y003871D01*
X005152Y004028D01*
X005142Y004079D01*
X005122Y004127D01*
X005093Y004170D01*
X005080Y004183D01*
X005080Y004724D01*
X005063Y004764D01*
X005063Y004992D01*
X005081Y005010D01*
X005118Y005099D01*
X005118Y005459D01*
X005081Y005548D01*
X005051Y005579D01*
X005081Y005610D01*
X005118Y005699D01*
X005118Y006059D01*
X004943Y006246D02*
X016163Y006246D01*
X016163Y006484D02*
X003037Y006484D01*
X003275Y006723D02*
X007255Y006723D01*
X007665Y006723D02*
X012055Y006723D01*
X012146Y006685D02*
X011934Y006773D01*
X011773Y006934D01*
X011685Y007146D01*
X011685Y007374D01*
X011773Y007586D01*
X011934Y007747D01*
X012146Y007835D01*
X012374Y007835D01*
X012586Y007747D01*
X012747Y007586D01*
X012835Y007374D01*
X012835Y007146D01*
X012747Y006934D01*
X012586Y006773D01*
X012374Y006685D01*
X012146Y006685D01*
X012465Y006723D02*
X016163Y006723D01*
X015654Y006961D02*
X012759Y006961D01*
X012835Y007200D02*
X015246Y007200D01*
X015086Y007438D02*
X012809Y007438D01*
X012657Y007677D02*
X015016Y007677D01*
X014996Y007915D02*
X002672Y007915D01*
X002652Y007677D02*
X007063Y007677D01*
X006911Y007438D02*
X002582Y007438D01*
X002422Y007200D02*
X002847Y007200D01*
X002608Y006961D02*
X002014Y006961D01*
X002370Y006723D02*
X001505Y006723D01*
X001505Y006484D02*
X002131Y006484D01*
X001949Y006246D02*
X001505Y006246D01*
X001505Y006007D02*
X001940Y006007D01*
X002260Y006160D02*
X003160Y007060D01*
X007260Y007060D01*
X007460Y007260D01*
X008009Y007438D02*
X011711Y007438D01*
X011863Y007677D02*
X007857Y007677D01*
X008035Y007200D02*
X011685Y007200D01*
X011761Y006961D02*
X007959Y006961D01*
X006677Y005530D02*
X005089Y005530D01*
X005118Y005769D02*
X014533Y005769D01*
X015133Y005397D02*
X006997Y005397D01*
X006460Y004860D01*
X005918Y005053D02*
X005099Y005053D01*
X005118Y005292D02*
X006078Y005292D01*
X005885Y004815D02*
X005063Y004815D01*
X005080Y004576D02*
X005955Y004576D01*
X006219Y004338D02*
X005080Y004338D01*
X005134Y004099D02*
X014522Y004099D01*
X014527Y003861D02*
X005152Y003861D01*
X005125Y003622D02*
X014639Y003622D01*
X015133Y003622D02*
X015133Y003622D01*
X015133Y003861D02*
X015133Y003861D01*
X015627Y003622D02*
X016163Y003622D01*
X016163Y003861D02*
X015739Y003861D01*
X015745Y004099D02*
X016163Y004099D01*
X016163Y004338D02*
X015652Y004338D01*
X014633Y004815D02*
X007035Y004815D01*
X007106Y005053D02*
X014533Y005053D01*
X015043Y003384D02*
X005132Y003384D01*
X005132Y003145D02*
X016163Y003145D01*
X016163Y003384D02*
X015223Y003384D01*
X015133Y003384D02*
X015133Y003384D01*
X016163Y002907D02*
X012627Y002907D01*
X012586Y002947D02*
X012374Y003035D01*
X012146Y003035D01*
X011934Y002947D01*
X011773Y002786D01*
X011770Y002780D01*
X007950Y002780D01*
X007947Y002786D01*
X007786Y002947D01*
X007574Y003035D01*
X007346Y003035D01*
X007134Y002947D01*
X006973Y002786D01*
X006885Y002574D01*
X006885Y002346D01*
X006973Y002134D01*
X007134Y001973D01*
X007346Y001885D01*
X007574Y001885D01*
X007786Y001973D01*
X007947Y002134D01*
X007950Y002140D01*
X011770Y002140D01*
X011773Y002134D01*
X011934Y001973D01*
X012146Y001885D01*
X012374Y001885D01*
X012586Y001973D01*
X012747Y002134D01*
X012835Y002346D01*
X012835Y002574D01*
X012747Y002786D01*
X012586Y002947D01*
X012796Y002668D02*
X016163Y002668D01*
X015636Y002430D02*
X012835Y002430D01*
X012771Y002191D02*
X015243Y002191D01*
X015084Y001953D02*
X012537Y001953D01*
X011983Y001953D02*
X007737Y001953D01*
X007183Y001953D02*
X005022Y001953D01*
X004910Y001714D02*
X015015Y001714D01*
X014996Y001476D02*
X004672Y001476D01*
X004272Y001334D02*
X003586Y001334D01*
X002260Y002660D01*
X002260Y006160D01*
X002580Y006007D02*
X003268Y006007D01*
X003268Y005769D02*
X002580Y005769D01*
X002580Y005530D02*
X003268Y005530D01*
X003726Y005677D02*
X003977Y005677D01*
X004260Y005960D01*
X004662Y005960D01*
X004743Y005879D01*
X004393Y005640D02*
X004393Y005640D01*
X004398Y005530D02*
X004283Y005530D01*
X004368Y005292D02*
X004138Y005292D01*
X003985Y005065D02*
X003817Y005134D01*
X003635Y005134D01*
X003467Y005065D01*
X003338Y004936D01*
X003268Y004768D01*
X003268Y004586D01*
X003338Y004418D01*
X003467Y004289D01*
X003635Y004220D01*
X003817Y004220D01*
X003985Y004289D01*
X004114Y004418D01*
X004183Y004586D01*
X004183Y004768D01*
X004114Y004936D01*
X003985Y005065D01*
X003997Y005053D02*
X004388Y005053D01*
X004743Y005279D02*
X004743Y004677D01*
X004760Y004660D01*
X004760Y003860D01*
X004440Y003871D02*
X004362Y003871D01*
X004440Y003871D01*
X004440Y003871D01*
X004362Y003861D02*
X004168Y003861D01*
X004201Y003622D02*
X004389Y003622D01*
X004382Y003384D02*
X004103Y003384D01*
X004382Y003145D02*
X002580Y003145D01*
X002580Y003384D02*
X003349Y003384D01*
X003362Y003366D02*
X003415Y003313D01*
X003476Y003269D01*
X003543Y003235D01*
X003614Y003211D01*
X003688Y003200D01*
X003726Y003200D01*
X003726Y003677D01*
X003726Y002294D01*
X003760Y002260D01*
X003860Y002260D01*
X003960Y002160D01*
X003922Y002134D02*
X003922Y002134D01*
X003502Y002134D01*
X003922Y002134D01*
X003922Y002191D02*
X003922Y002191D01*
X003922Y002430D02*
X003922Y002430D01*
X003513Y002430D02*
X002943Y002430D01*
X003182Y002191D02*
X003502Y002191D01*
X003502Y001953D02*
X003420Y001953D01*
X004622Y002134D02*
X004757Y002269D01*
X004757Y003271D01*
X005077Y002907D02*
X007093Y002907D01*
X006924Y002668D02*
X005077Y002668D01*
X005077Y002430D02*
X006885Y002430D01*
X006949Y002191D02*
X005071Y002191D01*
X004437Y002668D02*
X002705Y002668D01*
X002580Y002907D02*
X004437Y002907D01*
X003726Y003384D02*
X003726Y003384D01*
X003362Y003366D02*
X003318Y003427D01*
X003283Y003494D01*
X003260Y003565D01*
X003248Y003639D01*
X003248Y003677D01*
X003726Y003677D01*
X003726Y004154D01*
X003688Y004154D01*
X003614Y004143D01*
X003543Y004120D01*
X003476Y004085D01*
X003415Y004041D01*
X003362Y003988D01*
X003318Y003927D01*
X003283Y003860D01*
X003260Y003789D01*
X003248Y003715D01*
X003248Y003677D01*
X003726Y003677D01*
X003726Y003677D01*
X003726Y003622D02*
X003726Y003622D01*
X003726Y003861D02*
X003726Y003861D01*
X003284Y003861D02*
X002580Y003861D01*
X002580Y003622D02*
X003251Y003622D01*
X003502Y004099D02*
X002580Y004099D01*
X002580Y004338D02*
X003418Y004338D01*
X003726Y004099D02*
X003726Y004099D01*
X003949Y004099D02*
X004380Y004099D01*
X004440Y004338D02*
X004033Y004338D01*
X004179Y004576D02*
X004439Y004576D01*
X004423Y004815D02*
X004164Y004815D01*
X003455Y005053D02*
X002580Y005053D01*
X002580Y005292D02*
X003314Y005292D01*
X003288Y004815D02*
X002580Y004815D01*
X002580Y004576D02*
X003273Y004576D01*
X001940Y004576D02*
X001505Y004576D01*
X001505Y004815D02*
X001940Y004815D01*
X001940Y005053D02*
X001505Y005053D01*
X001505Y005292D02*
X001940Y005292D01*
X001940Y005530D02*
X001505Y005530D01*
X001505Y005769D02*
X001940Y005769D01*
X002798Y006246D02*
X004113Y006246D01*
X001940Y004338D02*
X001505Y004338D01*
X001505Y004099D02*
X001940Y004099D01*
X001940Y003861D02*
X001505Y003861D01*
X001505Y003622D02*
X001940Y003622D01*
X001940Y003384D02*
X001505Y003384D01*
X001505Y003145D02*
X001940Y003145D01*
X001940Y002907D02*
X001505Y002907D01*
X001505Y002668D02*
X001940Y002668D01*
X002032Y002430D02*
X002038Y002430D01*
X007460Y002460D02*
X012260Y002460D01*
X011893Y002907D02*
X007827Y002907D01*
M02*
