G75*
%MOIN*%
%OFA0B0*%
%FSLAX24Y24*%
%IPPOS*%
%LPD*%
%AMOC8*
5,1,8,0,0,1.08239X$1,22.5*
%
%ADD10R,0.0480X0.0530*%
%ADD11C,0.0107*%
%ADD12R,0.0880X0.0880*%
%ADD13C,0.0880*%
%ADD14C,0.0830*%
%ADD15R,0.0595X0.0595*%
%ADD16C,0.0595*%
%ADD17C,0.0000*%
%ADD18C,0.0050*%
D10*
X003922Y002134D03*
X004622Y002134D03*
X004272Y001334D03*
D11*
X004918Y003110D02*
X004918Y003432D01*
X004918Y003110D02*
X004596Y003110D01*
X004596Y003432D01*
X004918Y003432D01*
X004918Y003217D02*
X004596Y003217D01*
X004596Y003324D02*
X004918Y003324D01*
X004918Y003431D02*
X004596Y003431D01*
X004918Y003710D02*
X004918Y004032D01*
X004918Y003710D02*
X004596Y003710D01*
X004596Y004032D01*
X004918Y004032D01*
X004918Y003817D02*
X004596Y003817D01*
X004596Y003924D02*
X004918Y003924D01*
X004918Y004031D02*
X004596Y004031D01*
X004582Y005118D02*
X004582Y005440D01*
X004904Y005440D01*
X004904Y005118D01*
X004582Y005118D01*
X004582Y005225D02*
X004904Y005225D01*
X004904Y005332D02*
X004582Y005332D01*
X004582Y005439D02*
X004904Y005439D01*
X004582Y005718D02*
X004582Y006040D01*
X004904Y006040D01*
X004904Y005718D01*
X004582Y005718D01*
X004582Y005825D02*
X004904Y005825D01*
X004904Y005932D02*
X004582Y005932D01*
X004582Y006039D02*
X004904Y006039D01*
D12*
X015133Y005397D03*
D13*
X015133Y003997D03*
D14*
X012260Y002460D03*
X007460Y002460D03*
X006460Y004860D03*
X007460Y007260D03*
X012260Y007260D03*
D15*
X003726Y005677D03*
D16*
X003726Y004677D03*
X003726Y003677D03*
D17*
X012813Y009402D02*
X012891Y009402D01*
D18*
X015921Y000760D02*
X001747Y000760D01*
X001353Y001547D02*
X001355Y001586D01*
X001361Y001625D01*
X001371Y001663D01*
X001384Y001700D01*
X001401Y001735D01*
X001421Y001769D01*
X001445Y001800D01*
X001472Y001829D01*
X001501Y001855D01*
X001533Y001878D01*
X001567Y001898D01*
X001603Y001914D01*
X001640Y001926D01*
X001679Y001935D01*
X001718Y001940D01*
X001757Y001941D01*
X001796Y001938D01*
X001835Y001931D01*
X001872Y001920D01*
X001909Y001906D01*
X001944Y001888D01*
X001977Y001867D01*
X002008Y001842D01*
X002036Y001815D01*
X002061Y001785D01*
X002083Y001752D01*
X002102Y001718D01*
X002117Y001682D01*
X002129Y001644D01*
X002137Y001606D01*
X002141Y001567D01*
X002141Y001527D01*
X002137Y001488D01*
X002129Y001450D01*
X002117Y001412D01*
X002102Y001376D01*
X002083Y001342D01*
X002061Y001309D01*
X002036Y001279D01*
X002008Y001252D01*
X001977Y001227D01*
X001944Y001206D01*
X001909Y001188D01*
X001872Y001174D01*
X001835Y001163D01*
X001796Y001156D01*
X001757Y001153D01*
X001718Y001154D01*
X001679Y001159D01*
X001640Y001168D01*
X001603Y001180D01*
X001567Y001196D01*
X001533Y001216D01*
X001501Y001239D01*
X001472Y001265D01*
X001445Y001294D01*
X001421Y001325D01*
X001401Y001359D01*
X001384Y001394D01*
X001371Y001431D01*
X001361Y001469D01*
X001355Y001508D01*
X001353Y001547D01*
X000960Y001547D02*
X000960Y007847D01*
X001353Y007847D02*
X001355Y007886D01*
X001361Y007925D01*
X001371Y007963D01*
X001384Y008000D01*
X001401Y008035D01*
X001421Y008069D01*
X001445Y008100D01*
X001472Y008129D01*
X001501Y008155D01*
X001533Y008178D01*
X001567Y008198D01*
X001603Y008214D01*
X001640Y008226D01*
X001679Y008235D01*
X001718Y008240D01*
X001757Y008241D01*
X001796Y008238D01*
X001835Y008231D01*
X001872Y008220D01*
X001909Y008206D01*
X001944Y008188D01*
X001977Y008167D01*
X002008Y008142D01*
X002036Y008115D01*
X002061Y008085D01*
X002083Y008052D01*
X002102Y008018D01*
X002117Y007982D01*
X002129Y007944D01*
X002137Y007906D01*
X002141Y007867D01*
X002141Y007827D01*
X002137Y007788D01*
X002129Y007750D01*
X002117Y007712D01*
X002102Y007676D01*
X002083Y007642D01*
X002061Y007609D01*
X002036Y007579D01*
X002008Y007552D01*
X001977Y007527D01*
X001944Y007506D01*
X001909Y007488D01*
X001872Y007474D01*
X001835Y007463D01*
X001796Y007456D01*
X001757Y007453D01*
X001718Y007454D01*
X001679Y007459D01*
X001640Y007468D01*
X001603Y007480D01*
X001567Y007496D01*
X001533Y007516D01*
X001501Y007539D01*
X001472Y007565D01*
X001445Y007594D01*
X001421Y007625D01*
X001401Y007659D01*
X001384Y007694D01*
X001371Y007731D01*
X001361Y007769D01*
X001355Y007808D01*
X001353Y007847D01*
X000960Y007847D02*
X000962Y007901D01*
X000967Y007954D01*
X000976Y008007D01*
X000989Y008059D01*
X001005Y008111D01*
X001025Y008161D01*
X001048Y008209D01*
X001075Y008256D01*
X001104Y008301D01*
X001137Y008344D01*
X001172Y008384D01*
X001210Y008422D01*
X001250Y008457D01*
X001293Y008490D01*
X001338Y008519D01*
X001385Y008546D01*
X001433Y008569D01*
X001483Y008589D01*
X001535Y008605D01*
X001587Y008618D01*
X001640Y008627D01*
X001693Y008632D01*
X001747Y008634D01*
X015921Y008634D01*
X015527Y007847D02*
X015529Y007886D01*
X015535Y007925D01*
X015545Y007963D01*
X015558Y008000D01*
X015575Y008035D01*
X015595Y008069D01*
X015619Y008100D01*
X015646Y008129D01*
X015675Y008155D01*
X015707Y008178D01*
X015741Y008198D01*
X015777Y008214D01*
X015814Y008226D01*
X015853Y008235D01*
X015892Y008240D01*
X015931Y008241D01*
X015970Y008238D01*
X016009Y008231D01*
X016046Y008220D01*
X016083Y008206D01*
X016118Y008188D01*
X016151Y008167D01*
X016182Y008142D01*
X016210Y008115D01*
X016235Y008085D01*
X016257Y008052D01*
X016276Y008018D01*
X016291Y007982D01*
X016303Y007944D01*
X016311Y007906D01*
X016315Y007867D01*
X016315Y007827D01*
X016311Y007788D01*
X016303Y007750D01*
X016291Y007712D01*
X016276Y007676D01*
X016257Y007642D01*
X016235Y007609D01*
X016210Y007579D01*
X016182Y007552D01*
X016151Y007527D01*
X016118Y007506D01*
X016083Y007488D01*
X016046Y007474D01*
X016009Y007463D01*
X015970Y007456D01*
X015931Y007453D01*
X015892Y007454D01*
X015853Y007459D01*
X015814Y007468D01*
X015777Y007480D01*
X015741Y007496D01*
X015707Y007516D01*
X015675Y007539D01*
X015646Y007565D01*
X015619Y007594D01*
X015595Y007625D01*
X015575Y007659D01*
X015558Y007694D01*
X015545Y007731D01*
X015535Y007769D01*
X015529Y007808D01*
X015527Y007847D01*
X015921Y008634D02*
X015975Y008632D01*
X016028Y008627D01*
X016081Y008618D01*
X016133Y008605D01*
X016185Y008589D01*
X016235Y008569D01*
X016283Y008546D01*
X016330Y008519D01*
X016375Y008490D01*
X016418Y008457D01*
X016458Y008422D01*
X016496Y008384D01*
X016531Y008344D01*
X016564Y008301D01*
X016593Y008256D01*
X016620Y008209D01*
X016643Y008161D01*
X016663Y008111D01*
X016679Y008059D01*
X016692Y008007D01*
X016701Y007954D01*
X016706Y007901D01*
X016708Y007847D01*
X016708Y001547D01*
X015527Y001547D02*
X015529Y001586D01*
X015535Y001625D01*
X015545Y001663D01*
X015558Y001700D01*
X015575Y001735D01*
X015595Y001769D01*
X015619Y001800D01*
X015646Y001829D01*
X015675Y001855D01*
X015707Y001878D01*
X015741Y001898D01*
X015777Y001914D01*
X015814Y001926D01*
X015853Y001935D01*
X015892Y001940D01*
X015931Y001941D01*
X015970Y001938D01*
X016009Y001931D01*
X016046Y001920D01*
X016083Y001906D01*
X016118Y001888D01*
X016151Y001867D01*
X016182Y001842D01*
X016210Y001815D01*
X016235Y001785D01*
X016257Y001752D01*
X016276Y001718D01*
X016291Y001682D01*
X016303Y001644D01*
X016311Y001606D01*
X016315Y001567D01*
X016315Y001527D01*
X016311Y001488D01*
X016303Y001450D01*
X016291Y001412D01*
X016276Y001376D01*
X016257Y001342D01*
X016235Y001309D01*
X016210Y001279D01*
X016182Y001252D01*
X016151Y001227D01*
X016118Y001206D01*
X016083Y001188D01*
X016046Y001174D01*
X016009Y001163D01*
X015970Y001156D01*
X015931Y001153D01*
X015892Y001154D01*
X015853Y001159D01*
X015814Y001168D01*
X015777Y001180D01*
X015741Y001196D01*
X015707Y001216D01*
X015675Y001239D01*
X015646Y001265D01*
X015619Y001294D01*
X015595Y001325D01*
X015575Y001359D01*
X015558Y001394D01*
X015545Y001431D01*
X015535Y001469D01*
X015529Y001508D01*
X015527Y001547D01*
X015921Y000760D02*
X015975Y000762D01*
X016028Y000767D01*
X016081Y000776D01*
X016133Y000789D01*
X016185Y000805D01*
X016235Y000825D01*
X016283Y000848D01*
X016330Y000875D01*
X016375Y000904D01*
X016418Y000937D01*
X016458Y000972D01*
X016496Y001010D01*
X016531Y001050D01*
X016564Y001093D01*
X016593Y001138D01*
X016620Y001185D01*
X016643Y001233D01*
X016663Y001283D01*
X016679Y001335D01*
X016692Y001387D01*
X016701Y001440D01*
X016706Y001493D01*
X016708Y001547D01*
X001747Y000760D02*
X001693Y000762D01*
X001640Y000767D01*
X001587Y000776D01*
X001535Y000789D01*
X001483Y000805D01*
X001433Y000825D01*
X001385Y000848D01*
X001338Y000875D01*
X001293Y000904D01*
X001250Y000937D01*
X001210Y000972D01*
X001172Y001010D01*
X001137Y001050D01*
X001104Y001093D01*
X001075Y001138D01*
X001048Y001185D01*
X001025Y001233D01*
X001005Y001283D01*
X000989Y001335D01*
X000976Y001387D01*
X000967Y001440D01*
X000962Y001493D01*
X000960Y001547D01*
M02*
